<?xml version="1.0" encoding="UTF-8"?>
<svg xmlns="http://www.w3.org/2000/svg" xmlns:xlink="http://www.w3.org/1999/xlink" width="256pt" height="103.51pt" viewBox="0 0 256 103.51" version="1.1">
<defs>
<clipPath id="clip1">
  <path d="M 226 93 L 234 93 L 234 103.511719 L 226 103.511719 Z M 226 93 "/>
</clipPath>
<clipPath id="clip2">
  <path d="M 247 93 L 256 93 L 256 103.511719 L 247 103.511719 Z M 247 93 "/>
</clipPath>
</defs>
<g id="surface1">
<path style=" stroke:none;fill-rule:nonzero;fill:rgb(13.699341%,12.199402%,12.5%);fill-opacity:1;" d="M 2.964844 96.960938 L 4.996094 93.230469 C 5.214844 92.808594 5.429688 92.375 5.609375 92.007813 L 5.621094 92.007813 C 5.648438 92.386719 5.71875 92.851563 5.785156 93.257813 L 6.410156 96.960938 Z M 5.269531 90.882813 L 0.195313 100.039063 L 1.308594 100.039063 L 2.527344 97.785156 L 6.53125 97.785156 L 6.882813 100.039063 L 7.980469 100.039063 L 6.394531 90.882813 L 5.269531 90.882813 "/>
<path style=" stroke:none;fill-rule:nonzero;fill:rgb(13.699341%,12.199402%,12.5%);fill-opacity:1;" d="M 19.074219 95.261719 C 18.871094 96.429688 18.640625 97.730469 18.476563 98.761719 C 18.261719 98.125 18.03125 97.472656 17.773438 96.824219 L 15.304688 90.882813 L 14.097656 90.882813 L 12.359375 100.039063 L 13.363281 100.039063 L 14.152344 95.832031 C 14.367188 94.625 14.613281 93.257813 14.777344 92.101563 C 14.953125 92.699219 15.195313 93.363281 15.46875 94.027344 L 17.949219 100.039063 L 19.144531 100.039063 L 20.894531 90.882813 L 19.875 90.882813 L 19.074219 95.261719 "/>
<path style=" stroke:none;fill-rule:nonzero;fill:rgb(13.699341%,12.199402%,12.5%);fill-opacity:1;" d="M 22.804688 96.1875 C 23.128906 94.953125 23.917969 93.960938 25.054688 93.960938 C 25.652344 93.960938 26.046875 94.246094 26.046875 94.789063 C 26.046875 95.644531 25.082031 96.089844 22.804688 96.1875 Z M 25.179688 93.175781 C 22.886719 93.175781 21.53125 95.46875 21.53125 98.003906 C 21.53125 99.550781 22.277344 100.160156 23.753906 100.160156 C 24.621094 100.160156 25.382813 100.011719 26.03125 99.738281 L 25.964844 98.925781 C 25.421875 99.171875 24.757813 99.320313 24.121094 99.320313 C 22.980469 99.320313 22.574219 99.019531 22.574219 97.867188 C 22.574219 97.597656 22.613281 97.203125 22.65625 96.988281 C 25.542969 96.863281 27.078125 96.105469 27.078125 94.667969 C 27.078125 93.867188 26.519531 93.175781 25.179688 93.175781 "/>
<path style=" stroke:none;fill-rule:nonzero;fill:rgb(13.699341%,12.199402%,12.5%);fill-opacity:1;" d="M 34.441406 98.886719 L 34.425781 98.886719 C 34.414063 98.53125 34.359375 97.949219 34.277344 97.296875 L 33.734375 93.296875 L 32.625 93.296875 C 31.703125 95.167969 30.765625 97.039063 29.871094 98.871094 L 29.855469 98.871094 C 29.855469 98.503906 29.800781 97.910156 29.746094 97.3125 L 29.367188 93.296875 L 28.308594 93.296875 L 29.054688 100.039063 L 30.222656 100.039063 C 31.117188 98.207031 32.027344 96.390625 32.921875 94.558594 L 32.933594 94.558594 C 32.949219 94.992188 33.003906 95.441406 33.058594 95.847656 L 33.640625 100.039063 L 34.808594 100.039063 L 38.171875 93.351563 L 37.25 93.027344 C 36.3125 94.980469 35.363281 96.933594 34.441406 98.886719 "/>
<path style=" stroke:none;fill-rule:nonzero;fill:rgb(13.699341%,12.199402%,12.5%);fill-opacity:1;" d="M 41.507813 96.660156 C 41.507813 98.695313 42.714844 100.160156 45.210938 100.160156 C 46.105469 100.160156 47.214844 99.996094 48.179688 99.660156 L 48.992188 95.425781 L 47.976563 95.425781 L 47.296875 98.964844 C 46.726563 99.144531 46.132813 99.265625 45.386719 99.265625 C 43.335938 99.265625 42.589844 97.882813 42.589844 96.566406 C 42.589844 93.839844 44.476563 91.640625 47.082031 91.640625 C 47.800781 91.640625 48.628906 91.820313 49.347656 92.144531 L 49.65625 91.140625 C 48.910156 90.882813 48.085938 90.761719 47.203125 90.761719 C 44.042969 90.761719 41.507813 93.175781 41.507813 96.660156 "/>
<path style=" stroke:none;fill-rule:nonzero;fill:rgb(13.699341%,12.199402%,12.5%);fill-opacity:1;" d="M 51.691406 96.1875 C 52.015625 94.953125 52.804688 93.960938 53.941406 93.960938 C 54.539063 93.960938 54.933594 94.246094 54.933594 94.789063 C 54.933594 95.644531 53.96875 96.089844 51.691406 96.1875 Z M 54.066406 93.175781 C 51.773438 93.175781 50.417969 95.46875 50.417969 98.003906 C 50.417969 99.550781 51.164063 100.160156 52.640625 100.160156 C 53.507813 100.160156 54.269531 100.011719 54.917969 99.738281 L 54.851563 98.925781 C 54.308594 99.171875 53.644531 99.320313 53.007813 99.320313 C 51.867188 99.320313 51.460938 99.019531 51.460938 97.867188 C 51.460938 97.597656 51.5 97.203125 51.542969 96.988281 C 54.429688 96.863281 55.964844 96.105469 55.964844 94.667969 C 55.964844 93.867188 55.40625 93.175781 54.066406 93.175781 "/>
<path style=" stroke:none;fill-rule:nonzero;fill:rgb(13.699341%,12.199402%,12.5%);fill-opacity:1;" d="M 61.917969 93.160156 C 60.453125 93.160156 59.339844 94.667969 58.691406 96.1875 L 58.664063 96.171875 C 59.175781 94.585938 59.382813 93.757813 59.476563 93.296875 C 58.796875 93.269531 57.902344 93.3125 57.292969 93.390625 L 57.183594 93.976563 C 57.578125 94.003906 58.023438 94.054688 58.324219 94.109375 L 57.183594 100.039063 L 58.1875 100.039063 L 58.445313 98.601563 C 58.769531 96.890625 60.222656 94.027344 61.605469 94.027344 C 62.285156 94.027344 62.488281 94.542969 62.269531 95.699219 L 61.441406 100.039063 L 62.445313 100.039063 L 63.300781 95.46875 C 63.585938 94.027344 63.136719 93.160156 61.917969 93.160156 "/>
<path style=" stroke:none;fill-rule:nonzero;fill:rgb(13.699341%,12.199402%,12.5%);fill-opacity:1;" d="M 66.082031 96.1875 C 66.40625 94.953125 67.191406 93.960938 68.332031 93.960938 C 68.929688 93.960938 69.324219 94.246094 69.324219 94.789063 C 69.324219 95.644531 68.359375 96.089844 66.082031 96.1875 Z M 68.453125 93.175781 C 66.160156 93.175781 64.804688 95.46875 64.804688 98.003906 C 64.804688 99.550781 65.550781 100.160156 67.03125 100.160156 C 67.898438 100.160156 68.65625 100.011719 69.308594 99.738281 L 69.242188 98.925781 C 68.699219 99.171875 68.035156 99.320313 67.398438 99.320313 C 66.257813 99.320313 65.851563 99.019531 65.851563 97.867188 C 65.851563 97.597656 65.890625 97.203125 65.929688 96.988281 C 68.820313 96.863281 70.351563 96.105469 70.351563 94.667969 C 70.351563 93.867188 69.796875 93.175781 68.453125 93.175781 "/>
<path style=" stroke:none;fill-rule:nonzero;fill:rgb(13.699341%,12.199402%,12.5%);fill-opacity:1;" d="M 73.117188 95.96875 L 73.09375 95.96875 C 73.527344 94.667969 73.742188 93.90625 73.851563 93.296875 C 73.199219 93.269531 72.292969 93.3125 71.679688 93.390625 L 71.574219 93.976563 C 71.964844 94.003906 72.414063 94.054688 72.710938 94.109375 L 71.574219 100.039063 L 72.578125 100.039063 L 72.863281 98.492188 C 73.1875 96.796875 74.570313 93.664063 76.007813 94.191406 L 76.199219 93.1875 C 74.707031 92.875 73.90625 94.246094 73.117188 95.96875 "/>
<path style=" stroke:none;fill-rule:nonzero;fill:rgb(13.699341%,12.199402%,12.5%);fill-opacity:1;" d="M 81.285156 94.722656 C 80.957031 96.417969 79.507813 99.304688 78.109375 99.304688 C 77.648438 99.304688 77.351563 98.925781 77.351563 97.960938 C 77.351563 96.1875 78.179688 94.003906 80.347656 94.003906 C 80.769531 94.003906 81.109375 94.070313 81.394531 94.136719 Z M 82.53125 93.390625 C 81.933594 93.285156 81.269531 93.203125 80.523438 93.203125 C 77.582031 93.203125 76.320313 95.683594 76.320313 98.140625 C 76.320313 99.550781 76.847656 100.175781 77.796875 100.175781 C 79.546875 100.175781 80.605469 98.097656 81.066406 97.054688 L 81.09375 97.066406 C 80.660156 98.449219 80.375 99.429688 80.253906 100.039063 C 80.945313 100.066406 81.828125 100.023438 82.4375 99.941406 L 82.546875 99.359375 C 82.164063 99.332031 81.71875 99.277344 81.417969 99.222656 L 82.53125 93.390625 "/>
<path style=" stroke:none;fill-rule:nonzero;fill:rgb(13.699341%,12.199402%,12.5%);fill-opacity:1;" d="M 86.816406 90.816406 L 85.757813 91.058594 L 85.339844 93.296875 L 83.886719 93.296875 L 83.726563 94.097656 L 85.175781 94.097656 L 84.429688 98.003906 C 84.144531 99.496094 84.484375 100.148438 85.828125 100.148438 C 86.21875 100.148438 86.667969 100.09375 87.046875 100.011719 L 87.089844 99.144531 C 86.816406 99.210938 86.519531 99.25 86.125 99.25 C 85.40625 99.25 85.257813 98.9375 85.472656 97.8125 L 86.179688 94.097656 L 88.105469 94.097656 L 88.269531 93.296875 L 86.328125 93.296875 L 86.816406 90.816406 "/>
<path style=" stroke:none;fill-rule:nonzero;fill:rgb(13.699341%,12.199402%,12.5%);fill-opacity:1;" d="M 89.136719 93.390625 L 89.027344 93.976563 C 89.421875 94.003906 89.867188 94.054688 90.167969 94.109375 L 89.027344 100.039063 L 90.03125 100.039063 L 91.320313 93.296875 C 90.628906 93.269531 89.746094 93.3125 89.136719 93.390625 "/>
<path style=" stroke:none;fill-rule:nonzero;fill:rgb(13.699341%,12.199402%,12.5%);fill-opacity:1;" d="M 91.226563 90.433594 C 90.84375 90.433594 90.492188 90.746094 90.492188 91.207031 C 90.492188 91.519531 90.75 91.820313 91.128906 91.820313 C 91.523438 91.820313 91.875 91.507813 91.875 91.058594 C 91.875 90.734375 91.605469 90.433594 91.226563 90.433594 "/>
<path style=" stroke:none;fill-rule:nonzero;fill:rgb(13.699341%,12.199402%,12.5%);fill-opacity:1;" d="M 94.980469 99.292969 C 93.882813 99.292969 93.433594 98.695313 93.433594 97.582031 C 93.433594 95.753906 94.507813 94.027344 96.09375 94.027344 C 97.136719 94.027344 97.625 94.625 97.625 95.699219 C 97.625 97.839844 96.363281 99.292969 94.980469 99.292969 Z M 96.242188 93.175781 C 94.03125 93.175781 92.390625 95.128906 92.390625 97.773438 C 92.390625 99.320313 93.175781 100.160156 94.804688 100.160156 C 96.796875 100.160156 98.699219 98.382813 98.699219 95.601563 C 98.699219 94.179688 97.953125 93.175781 96.242188 93.175781 "/>
<path style=" stroke:none;fill-rule:nonzero;fill:rgb(13.699341%,12.199402%,12.5%);fill-opacity:1;" d="M 104.773438 93.160156 C 103.308594 93.160156 102.195313 94.667969 101.546875 96.1875 L 101.519531 96.171875 C 102.035156 94.585938 102.238281 93.757813 102.332031 93.296875 C 101.652344 93.269531 100.757813 93.3125 100.148438 93.390625 L 100.039063 93.976563 C 100.433594 94.003906 100.882813 94.054688 101.179688 94.109375 L 100.039063 100.039063 L 101.042969 100.039063 L 101.300781 98.601563 C 101.628906 96.890625 103.078125 94.027344 104.460938 94.027344 C 105.140625 94.027344 105.34375 94.542969 105.125 95.699219 L 104.300781 100.039063 L 105.300781 100.039063 L 106.15625 95.46875 C 106.441406 94.027344 105.992188 93.160156 104.773438 93.160156 "/>
<path style=" stroke:none;fill-rule:nonzero;fill:rgb(13.699341%,12.199402%,12.5%);fill-opacity:1;" d="M 116.300781 97.164063 C 115.988281 97.757813 115.703125 98.34375 115.488281 98.84375 L 115.472656 98.84375 C 115.460938 98.34375 115.40625 97.730469 115.3125 97.066406 L 114.457031 90.882813 L 113.195313 90.882813 L 110.183594 100.039063 L 111.269531 100.039063 L 112.976563 94.503906 C 113.261719 93.566406 113.492188 92.796875 113.683594 92.101563 L 113.695313 92.101563 C 113.710938 92.660156 113.792969 93.351563 113.871094 94.042969 L 114.714844 100.039063 L 115.851563 100.039063 L 119.164063 93.636719 C 119.476563 93.011719 119.734375 92.484375 119.894531 92.101563 L 119.910156 92.101563 C 119.855469 92.742188 119.800781 93.488281 119.761719 94.464844 L 119.488281 100.039063 L 120.546875 100.039063 L 120.953125 90.882813 L 119.570313 90.882813 L 116.300781 97.164063 "/>
<path style=" stroke:none;fill-rule:nonzero;fill:rgb(13.699341%,12.199402%,12.5%);fill-opacity:1;" d="M 123.707031 96.1875 C 124.03125 94.953125 124.816406 93.960938 125.957031 93.960938 C 126.554688 93.960938 126.945313 94.246094 126.945313 94.789063 C 126.945313 95.644531 125.984375 96.089844 123.707031 96.1875 Z M 126.078125 93.175781 C 123.785156 93.175781 122.429688 95.46875 122.429688 98.003906 C 122.429688 99.550781 123.175781 100.160156 124.65625 100.160156 C 125.523438 100.160156 126.28125 100.011719 126.933594 99.738281 L 126.867188 98.925781 C 126.324219 99.171875 125.65625 99.320313 125.019531 99.320313 C 123.882813 99.320313 123.476563 99.019531 123.476563 97.867188 C 123.476563 97.597656 123.515625 97.203125 123.554688 96.988281 C 126.445313 96.863281 127.976563 96.105469 127.976563 94.667969 C 127.976563 93.867188 127.421875 93.175781 126.078125 93.175781 "/>
<path style=" stroke:none;fill-rule:nonzero;fill:rgb(13.699341%,12.199402%,12.5%);fill-opacity:1;" d="M 133.769531 94.722656 C 133.441406 96.417969 131.992188 99.304688 130.59375 99.304688 C 130.132813 99.304688 129.835938 98.925781 129.835938 97.960938 C 129.835938 96.1875 130.664063 94.003906 132.832031 94.003906 C 133.253906 94.003906 133.59375 94.070313 133.878906 94.136719 Z M 133.46875 90.230469 L 133.347656 90.816406 C 133.742188 90.84375 134.1875 90.894531 134.488281 90.949219 L 134.039063 93.285156 C 133.6875 93.230469 133.375 93.203125 133.007813 93.203125 C 130.066406 93.203125 128.804688 95.683594 128.804688 98.140625 C 128.804688 99.550781 129.335938 100.175781 130.28125 100.175781 C 132.03125 100.175781 133.089844 98.097656 133.550781 97.054688 L 133.578125 97.066406 C 133.144531 98.449219 132.859375 99.429688 132.753906 100.039063 C 133.441406 100.066406 134.3125 100.023438 134.921875 99.941406 L 135.03125 99.359375 C 134.648438 99.332031 134.203125 99.277344 133.90625 99.222656 L 135.640625 90.136719 C 134.949219 90.109375 134.066406 90.148438 133.46875 90.230469 "/>
<path style=" stroke:none;fill-rule:nonzero;fill:rgb(13.699341%,12.199402%,12.5%);fill-opacity:1;" d="M 138.988281 90.433594 C 138.609375 90.433594 138.257813 90.746094 138.257813 91.207031 C 138.257813 91.519531 138.515625 91.820313 138.894531 91.820313 C 139.289063 91.820313 139.640625 91.507813 139.640625 91.058594 C 139.640625 90.734375 139.371094 90.433594 138.988281 90.433594 "/>
<path style=" stroke:none;fill-rule:nonzero;fill:rgb(13.699341%,12.199402%,12.5%);fill-opacity:1;" d="M 136.902344 93.390625 L 136.792969 93.976563 C 137.1875 94.003906 137.632813 94.054688 137.933594 94.109375 L 136.792969 100.039063 L 137.796875 100.039063 L 139.085938 93.296875 C 138.394531 93.269531 137.511719 93.3125 136.902344 93.390625 "/>
<path style=" stroke:none;fill-rule:nonzero;fill:rgb(13.699341%,12.199402%,12.5%);fill-opacity:1;" d="M 140.128906 97.949219 C 140.128906 99.183594 140.699219 100.132813 142.433594 100.132813 C 143.140625 100.132813 143.832031 99.957031 144.320313 99.753906 L 144.277344 98.914063 C 143.84375 99.101563 143.261719 99.25 142.691406 99.25 C 141.429688 99.25 141.214844 98.464844 141.214844 97.71875 C 141.214844 96.078125 142.066406 94.015625 143.886719 94.015625 C 144.402344 94.015625 144.820313 94.125 145.203125 94.300781 L 145.433594 93.417969 C 144.996094 93.285156 144.535156 93.203125 143.96875 93.203125 C 141.554688 93.203125 140.128906 95.386719 140.128906 97.949219 "/>
<path style=" stroke:none;fill-rule:nonzero;fill:rgb(13.699341%,12.199402%,12.5%);fill-opacity:1;" d="M 150.722656 94.722656 C 150.394531 96.417969 148.945313 99.304688 147.546875 99.304688 C 147.085938 99.304688 146.789063 98.925781 146.789063 97.960938 C 146.789063 96.1875 147.617188 94.003906 149.785156 94.003906 C 150.207031 94.003906 150.546875 94.070313 150.828125 94.136719 Z M 151.96875 93.390625 C 151.371094 93.285156 150.707031 93.203125 149.960938 93.203125 C 147.019531 93.203125 145.757813 95.683594 145.757813 98.140625 C 145.757813 99.550781 146.285156 100.175781 147.234375 100.175781 C 148.984375 100.175781 150.042969 98.097656 150.503906 97.054688 L 150.53125 97.066406 C 150.097656 98.449219 149.8125 99.429688 149.691406 100.039063 C 150.382813 100.066406 151.265625 100.023438 151.875 99.941406 L 151.984375 99.359375 C 151.601563 99.332031 151.15625 99.277344 150.855469 99.222656 L 151.96875 93.390625 "/>
<path style=" stroke:none;fill-rule:nonzero;fill:rgb(13.699341%,12.199402%,12.5%);fill-opacity:1;" d="M 154.125 90.230469 L 154.015625 90.816406 C 154.394531 90.84375 154.855469 90.894531 155.15625 90.949219 L 153.417969 100.039063 L 154.421875 100.039063 L 156.308594 90.136719 C 155.628906 90.109375 154.734375 90.148438 154.125 90.230469 "/>
<path style=" stroke:none;fill-rule:nonzero;fill:rgb(13.699341%,12.199402%,12.5%);fill-opacity:1;" d="M 162.179688 99.222656 C 161.882813 99.222656 161.351563 99.183594 160.988281 99.128906 L 162.398438 91.722656 C 162.765625 91.710938 163.375 91.683594 163.917969 91.683594 C 166.25 91.683594 166.941406 92.796875 166.941406 94.285156 C 166.941406 96.648438 165.585938 99.222656 162.179688 99.222656 Z M 164.078125 90.84375 C 163.226563 90.84375 162.234375 90.882813 161.542969 90.882813 L 159.808594 100.039063 C 160.417969 100.039063 161.054688 100.078125 162.03125 100.078125 C 166.15625 100.078125 168.027344 97.164063 168.027344 94.164063 C 168.027344 92.253906 166.996094 90.84375 164.078125 90.84375 "/>
<path style=" stroke:none;fill-rule:nonzero;fill:rgb(13.699341%,12.199402%,12.5%);fill-opacity:1;" d="M 170.101563 96.1875 C 170.425781 94.953125 171.214844 93.960938 172.351563 93.960938 C 172.949219 93.960938 173.34375 94.246094 173.34375 94.789063 C 173.34375 95.644531 172.378906 96.089844 170.101563 96.1875 Z M 172.476563 93.175781 C 170.183594 93.175781 168.824219 95.46875 168.824219 98.003906 C 168.824219 99.550781 169.570313 100.160156 171.050781 100.160156 C 171.917969 100.160156 172.679688 100.011719 173.328125 99.738281 L 173.261719 98.925781 C 172.71875 99.171875 172.054688 99.320313 171.417969 99.320313 C 170.277344 99.320313 169.871094 99.019531 169.871094 97.867188 C 169.871094 97.597656 169.910156 97.203125 169.953125 96.988281 C 172.839844 96.863281 174.371094 96.105469 174.371094 94.667969 C 174.371094 93.867188 173.816406 93.175781 172.476563 93.175781 "/>
<path style=" stroke:none;fill-rule:nonzero;fill:rgb(13.699341%,12.199402%,12.5%);fill-opacity:1;" d="M 177.328125 98.859375 L 177.316406 98.859375 C 177.289063 98.476563 177.234375 98.042969 177.179688 97.664063 L 176.476563 93.296875 L 175.390625 93.296875 L 176.609375 100.039063 L 177.640625 100.039063 L 181.289063 93.363281 L 180.367188 93.011719 L 177.328125 98.859375 "/>
<path style=" stroke:none;fill-rule:nonzero;fill:rgb(13.699341%,12.199402%,12.5%);fill-opacity:1;" d="M 181.871094 93.390625 L 181.765625 93.976563 C 182.15625 94.003906 182.605469 94.054688 182.902344 94.109375 L 181.765625 100.039063 L 182.769531 100.039063 L 184.054688 93.296875 C 183.363281 93.269531 182.484375 93.3125 181.871094 93.390625 "/>
<path style=" stroke:none;fill-rule:nonzero;fill:rgb(13.699341%,12.199402%,12.5%);fill-opacity:1;" d="M 183.960938 90.433594 C 183.582031 90.433594 183.230469 90.746094 183.230469 91.207031 C 183.230469 91.519531 183.484375 91.820313 183.867188 91.820313 C 184.261719 91.820313 184.613281 91.507813 184.613281 91.058594 C 184.613281 90.734375 184.339844 90.433594 183.960938 90.433594 "/>
<path style=" stroke:none;fill-rule:nonzero;fill:rgb(13.699341%,12.199402%,12.5%);fill-opacity:1;" d="M 185.101563 97.949219 C 185.101563 99.183594 185.671875 100.132813 187.40625 100.132813 C 188.109375 100.132813 188.804688 99.957031 189.289063 99.753906 L 189.25 98.914063 C 188.816406 99.101563 188.234375 99.25 187.664063 99.25 C 186.402344 99.25 186.183594 98.464844 186.183594 97.71875 C 186.183594 96.078125 187.039063 94.015625 188.855469 94.015625 C 189.371094 94.015625 189.792969 94.125 190.171875 94.300781 L 190.402344 93.417969 C 189.96875 93.285156 189.507813 93.203125 188.9375 93.203125 C 186.523438 93.203125 185.101563 95.386719 185.101563 97.949219 "/>
<path style=" stroke:none;fill-rule:nonzero;fill:rgb(13.699341%,12.199402%,12.5%);fill-opacity:1;" d="M 192.042969 96.1875 C 192.367188 94.953125 193.15625 93.960938 194.296875 93.960938 C 194.890625 93.960938 195.285156 94.246094 195.285156 94.789063 C 195.285156 95.644531 194.324219 96.089844 192.042969 96.1875 Z M 194.417969 93.175781 C 192.125 93.175781 190.769531 95.46875 190.769531 98.003906 C 190.769531 99.550781 191.515625 100.160156 192.992188 100.160156 C 193.863281 100.160156 194.621094 100.011719 195.273438 99.738281 L 195.203125 98.925781 C 194.660156 99.171875 193.996094 99.320313 193.359375 99.320313 C 192.21875 99.320313 191.8125 99.019531 191.8125 97.867188 C 191.8125 97.597656 191.855469 97.203125 191.894531 96.988281 C 194.785156 96.863281 196.316406 96.105469 196.316406 94.667969 C 196.316406 93.867188 195.761719 93.175781 194.417969 93.175781 "/>
<path style=" stroke:none;fill-rule:nonzero;fill:rgb(13.699341%,12.199402%,12.5%);fill-opacity:1;" d="M 205.390625 91.667969 C 206.039063 91.667969 206.691406 91.777344 207.355469 92.007813 L 207.640625 91.074219 C 207.03125 90.894531 206.351563 90.789063 205.566406 90.789063 C 202.148438 90.789063 200.34375 93.757813 200.34375 97.011719 C 200.34375 98.667969 201.050781 100.132813 203.597656 100.132813 C 204.453125 100.132813 205.402344 99.941406 206.148438 99.644531 L 206.082031 98.75 C 205.457031 99.035156 204.671875 99.222656 203.898438 99.222656 C 202.027344 99.222656 201.46875 98.234375 201.46875 96.851563 C 201.46875 94.355469 202.621094 91.667969 205.390625 91.667969 "/>
<path style=" stroke:none;fill-rule:nonzero;fill:rgb(13.699341%,12.199402%,12.5%);fill-opacity:1;" d="M 210.136719 99.292969 C 209.035156 99.292969 208.589844 98.695313 208.589844 97.582031 C 208.589844 95.753906 209.660156 94.027344 211.246094 94.027344 C 212.292969 94.027344 212.78125 94.625 212.78125 95.699219 C 212.78125 97.839844 211.519531 99.292969 210.136719 99.292969 Z M 211.398438 93.175781 C 209.1875 93.175781 207.546875 95.128906 207.546875 97.773438 C 207.546875 99.320313 208.332031 100.160156 209.960938 100.160156 C 211.953125 100.160156 213.851563 98.382813 213.851563 95.601563 C 213.851563 94.179688 213.105469 93.175781 211.398438 93.175781 "/>
<path style=" stroke:none;fill-rule:nonzero;fill:rgb(13.699341%,12.199402%,12.5%);fill-opacity:1;" d="M 224.039063 93.160156 C 222.601563 93.160156 221.488281 94.667969 220.863281 96.199219 L 220.835938 96.1875 C 221.09375 95.414063 221.214844 94.964844 221.214844 94.476563 C 221.214844 93.664063 220.753906 93.160156 219.875 93.160156 C 218.4375 93.160156 217.324219 94.667969 216.699219 96.1875 L 216.671875 96.171875 C 216.996094 95.222656 217.28125 94.257813 217.484375 93.296875 C 216.808594 93.269531 215.914063 93.3125 215.304688 93.390625 L 215.195313 93.976563 C 215.589844 94.003906 216.035156 94.054688 216.332031 94.109375 L 215.195313 100.039063 L 216.199219 100.039063 L 216.457031 98.601563 C 216.847656 96.457031 218.394531 94.027344 219.574219 94.027344 C 220.210938 94.027344 220.414063 94.53125 220.183594 95.699219 L 219.359375 100.039063 L 220.347656 100.039063 L 220.617188 98.601563 C 221.011719 96.457031 222.558594 94.027344 223.726563 94.027344 C 224.363281 94.027344 224.566406 94.53125 224.347656 95.699219 L 223.523438 100.039063 L 224.511719 100.039063 L 225.394531 95.46875 C 225.664063 94.027344 225.21875 93.160156 224.039063 93.160156 "/>
<g clip-path="url(#clip1)" clip-rule="nonzero">
<path style=" stroke:none;fill-rule:nonzero;fill:rgb(13.699341%,12.199402%,12.5%);fill-opacity:1;" d="M 229.449219 99.320313 C 229.164063 99.320313 228.714844 99.25 228.402344 99.144531 L 228.511719 98.585938 C 228.851563 96.917969 230.273438 94.027344 231.6875 94.027344 C 232.132813 94.027344 232.445313 94.410156 232.445313 95.371094 C 232.445313 97.148438 231.605469 99.320313 229.449219 99.320313 Z M 231.984375 93.160156 C 230.546875 93.160156 229.449219 94.542969 228.742188 96.242188 L 228.714844 96.226563 C 229.21875 94.613281 229.40625 93.90625 229.527344 93.296875 C 228.851563 93.269531 227.957031 93.3125 227.347656 93.390625 L 227.238281 93.976563 C 227.632813 94.003906 228.078125 94.054688 228.375 94.109375 L 226.601563 103.414063 L 227.589844 103.414063 L 228.226563 100.039063 C 228.566406 100.09375 228.878906 100.121094 229.273438 100.121094 C 232.214844 100.121094 233.476563 97.652344 233.476563 95.195313 C 233.476563 93.785156 232.945313 93.160156 231.984375 93.160156 "/>
</g>
<path style=" stroke:none;fill-rule:nonzero;fill:rgb(13.699341%,12.199402%,12.5%);fill-opacity:1;" d="M 239.402344 94.722656 C 239.078125 96.417969 237.625 99.304688 236.230469 99.304688 C 235.769531 99.304688 235.46875 98.925781 235.46875 97.960938 C 235.46875 96.1875 236.296875 94.003906 238.46875 94.003906 C 238.886719 94.003906 239.226563 94.070313 239.511719 94.136719 Z M 240.652344 93.390625 C 240.054688 93.285156 239.390625 93.203125 238.644531 93.203125 C 235.699219 93.203125 234.4375 95.683594 234.4375 98.140625 C 234.4375 99.550781 234.96875 100.175781 235.917969 100.175781 C 237.667969 100.175781 238.722656 98.097656 239.1875 97.054688 L 239.214844 97.066406 C 238.777344 98.449219 238.492188 99.429688 238.371094 100.039063 C 239.0625 100.066406 239.945313 100.023438 240.554688 99.941406 L 240.664063 99.359375 C 240.285156 99.332031 239.835938 99.277344 239.539063 99.222656 L 240.652344 93.390625 "/>
<path style=" stroke:none;fill-rule:nonzero;fill:rgb(13.699341%,12.199402%,12.5%);fill-opacity:1;" d="M 246.902344 93.160156 C 245.4375 93.160156 244.324219 94.667969 243.675781 96.1875 L 243.648438 96.171875 C 244.164063 94.585938 244.367188 93.757813 244.460938 93.296875 C 243.78125 93.269531 242.886719 93.3125 242.277344 93.390625 L 242.167969 93.976563 C 242.5625 94.003906 243.011719 94.054688 243.308594 94.109375 L 242.167969 100.039063 L 243.171875 100.039063 L 243.429688 98.601563 C 243.757813 96.890625 245.207031 94.027344 246.589844 94.027344 C 247.269531 94.027344 247.472656 94.542969 247.253906 95.699219 L 246.429688 100.039063 L 247.433594 100.039063 L 248.285156 95.46875 C 248.570313 94.027344 248.121094 93.160156 246.902344 93.160156 "/>
<g clip-path="url(#clip2)" clip-rule="nonzero">
<path style=" stroke:none;fill-rule:nonzero;fill:rgb(13.699341%,12.199402%,12.5%);fill-opacity:1;" d="M 251.796875 99.710938 L 251.769531 99.710938 C 251.839844 99.414063 251.894531 99.0625 251.894531 98.777344 C 251.894531 97.339844 251.566406 95.15625 251.09375 93.296875 L 249.96875 93.296875 C 250.5625 95.480469 250.929688 97.703125 250.929688 99.429688 C 250.929688 100.472656 250.6875 101.121094 250.101563 101.746094 C 249.613281 102.289063 249.019531 102.613281 248.527344 102.613281 C 248.230469 102.613281 247.933594 102.574219 247.675781 102.480469 L 247.5 103.414063 C 247.757813 103.484375 248.082031 103.511719 248.421875 103.511719 C 249.195313 103.511719 249.992188 103.074219 250.78125 102.316406 C 252.503906 100.609375 254.238281 97.367188 255.960938 93.324219 L 255.027344 93.027344 C 253.886719 95.765625 252.9375 97.746094 251.796875 99.710938 "/>
</g>
<path style=" stroke:none;fill-rule:nonzero;fill:rgb(13.699341%,12.199402%,12.5%);fill-opacity:1;" d="M 12.320313 46.554688 L 16.191406 35.269531 L 20.050781 46.554688 Z M 24.191406 58.679688 L 32.578125 58.679688 L 20.960938 27.210938 L 11.625 27.210938 L 0 58.679688 L 8.171875 58.679688 L 10.34375 52.3125 L 22.003906 52.3125 L 24.191406 58.679688 "/>
<path style=" stroke:none;fill-rule:nonzero;fill:rgb(13.699341%,12.199402%,12.5%);fill-opacity:1;" d="M 48.667969 51.945313 C 47.675781 53.136719 46.195313 53.722656 44.167969 53.722656 C 43.605469 53.722656 43.042969 53.691406 42.449219 53.632813 C 41.882813 53.574219 41.328125 53.441406 40.832031 53.257813 L 40.832031 41.308594 C 41.523438 40.902344 42.25 40.585938 43.003906 40.375 C 43.765625 40.15625 44.511719 40.039063 45.21875 40.039063 C 46.941406 40.039063 48.171875 40.558594 48.96875 41.613281 C 49.757813 42.652344 50.152344 44.328125 50.152344 46.636719 C 50.152344 49.007813 49.65625 50.777344 48.667969 51.945313 Z M 55.53125 37.550781 C 53.882813 35.375 51.585938 34.296875 48.632813 34.296875 C 47.042969 34.296875 45.621094 34.585938 44.40625 35.167969 C 43.199219 35.742188 41.988281 36.496094 40.832031 37.417969 L 40.832031 34.957031 L 33.230469 34.957031 L 33.230469 67.378906 L 40.832031 67.378906 L 40.832031 57.503906 C 41.816406 58.019531 42.78125 58.421875 43.726563 58.71875 C 44.675781 59.007813 45.816406 59.148438 47.167969 59.148438 C 48.632813 59.148438 50.003906 58.871094 51.289063 58.304688 C 52.5625 57.742188 53.726563 56.914063 54.734375 55.808594 C 55.707031 54.777344 56.496094 53.441406 57.09375 51.835938 C 57.695313 50.21875 57.988281 48.453125 57.988281 46.492188 C 57.988281 42.707031 57.167969 39.707031 55.53125 37.550781 "/>
<path style=" stroke:none;fill-rule:nonzero;fill:rgb(13.699341%,12.199402%,12.5%);fill-opacity:1;" d="M 66.769531 41.308594 C 67.453125 40.902344 68.1875 40.585938 68.941406 40.375 C 69.707031 40.15625 70.441406 40.039063 71.160156 40.039063 C 72.867188 40.039063 74.113281 40.558594 74.898438 41.613281 C 75.683594 42.652344 76.082031 44.328125 76.082031 46.636719 C 76.082031 49.007813 75.589844 50.777344 74.601563 51.945313 C 73.628906 53.136719 72.117188 53.722656 70.097656 53.722656 C 69.546875 53.722656 68.972656 53.691406 68.386719 53.632813 C 67.808594 53.574219 67.269531 53.441406 66.769531 53.257813 Z M 66.769531 57.503906 C 67.75 58.019531 68.722656 58.421875 69.652344 58.71875 C 70.601563 59.007813 71.746094 59.148438 73.101563 59.148438 C 74.570313 59.148438 75.945313 58.871094 77.21875 58.304688 C 78.511719 57.742188 79.65625 56.914063 80.664063 55.808594 C 81.648438 54.777344 82.425781 53.441406 83.027344 51.835938 C 83.625 50.21875 83.921875 48.453125 83.921875 46.492188 C 83.921875 42.707031 83.105469 39.707031 81.46875 37.550781 C 79.828125 35.375 77.515625 34.296875 74.570313 34.296875 C 72.976563 34.296875 71.566406 34.585938 70.347656 35.167969 C 69.132813 35.742188 67.9375 36.496094 66.769531 37.417969 L 66.769531 34.957031 L 59.15625 34.957031 L 59.15625 67.378906 L 66.769531 67.378906 L 66.769531 57.503906 "/>
<path style=" stroke:none;fill-rule:nonzero;fill:rgb(13.699341%,12.199402%,12.5%);fill-opacity:1;" d="M 92.707031 25.792969 L 85.097656 25.792969 L 85.097656 58.679688 L 92.707031 58.679688 L 92.707031 25.792969 "/>
<path style=" stroke:none;fill-rule:nonzero;fill:rgb(13.699341%,12.199402%,12.5%);fill-opacity:1;" d="M 102.296875 58.679688 L 102.296875 34.957031 L 94.6875 34.957031 L 94.6875 58.679688 L 102.296875 58.679688 "/>
<path style=" stroke:none;fill-rule:nonzero;fill:rgb(13.699341%,12.199402%,12.5%);fill-opacity:1;" d="M 102.511719 25.792969 L 94.484375 25.792969 L 94.484375 31.554688 L 102.511719 31.554688 L 102.511719 25.792969 "/>
<path style=" stroke:none;fill-rule:nonzero;fill:rgb(13.699341%,12.199402%,12.5%);fill-opacity:1;" d="M 112.683594 40.105469 C 113.617188 39.347656 114.832031 38.945313 116.296875 38.945313 C 117.871094 38.945313 119.039063 39.363281 119.785156 40.175781 C 120.527344 40.984375 120.910156 42.167969 120.96875 43.757813 L 111.101563 43.757813 C 111.203125 42.097656 111.734375 40.851563 112.683594 40.105469 Z M 107.230469 56.105469 C 109.769531 58.25 113.417969 59.324219 118.171875 59.324219 C 120.023438 59.324219 121.695313 59.164063 123.234375 58.851563 C 124.75 58.546875 126.367188 58.042969 128.089844 57.351563 L 128.089844 51.238281 L 127.238281 51.238281 C 126.367188 51.910156 125.179688 52.535156 123.679688 53.109375 C 122.152344 53.679688 120.605469 53.976563 119 53.976563 C 116.464844 53.976563 114.546875 53.480469 113.234375 52.484375 C 111.929688 51.503906 111.226563 50.082031 111.125 48.234375 L 128.53125 48.234375 L 128.53125 45.554688 C 128.53125 41.894531 127.558594 39.085938 125.609375 37.144531 C 123.679688 35.191406 120.769531 34.210938 116.90625 34.210938 C 112.730469 34.210938 109.421875 35.355469 107.035156 37.644531 C 104.632813 39.9375 103.433594 43.035156 103.433594 46.957031 C 103.433594 50.90625 104.691406 53.976563 107.230469 56.105469 "/>
<path style=" stroke:none;fill-rule:nonzero;fill:rgb(13.699341%,12.199402%,12.5%);fill-opacity:1;" d="M 138.941406 41.726563 C 139.949219 40.480469 141.453125 39.851563 143.449219 39.851563 C 143.9375 39.851563 144.488281 39.894531 145.074219 40.003906 C 145.675781 40.089844 146.230469 40.257813 146.773438 40.484375 L 146.773438 52.132813 C 146.175781 52.558594 145.492188 52.890625 144.71875 53.164063 C 143.9375 53.421875 143.226563 53.546875 142.523438 53.546875 C 140.746094 53.546875 139.464844 53.019531 138.664063 51.972656 C 137.847656 50.929688 137.457031 49.242188 137.457031 46.90625 C 137.457031 44.695313 137.953125 42.972656 138.941406 41.726563 Z M 139.140625 59.339844 C 140.636719 59.339844 141.953125 59.085938 143.097656 58.585938 C 144.242188 58.070313 145.457031 57.292969 146.773438 56.214844 L 146.773438 58.679688 L 154.382813 58.679688 L 154.382813 25.792969 L 146.773438 25.792969 L 146.773438 35.902344 C 145.820313 35.4375 144.882813 35.054688 143.964844 34.753906 C 143.066406 34.449219 141.902344 34.296875 140.472656 34.296875 C 139.109375 34.296875 137.738281 34.585938 136.378906 35.175781 C 135.003906 35.753906 133.84375 36.566406 132.882813 37.640625 C 131.875 38.738281 131.070313 40.074219 130.488281 41.644531 C 129.902344 43.203125 129.609375 44.980469 129.609375 47.003906 C 129.609375 50.777344 130.480469 53.769531 132.21875 55.996094 C 133.9375 58.226563 136.246094 59.339844 139.140625 59.339844 "/>
<path style=" stroke:none;fill-rule:nonzero;fill:rgb(13.699341%,12.199402%,12.5%);fill-opacity:1;" d="M 85.652344 79.773438 L 85.652344 64.007813 L 82.734375 64.007813 L 78.667969 72.777344 L 74.46875 64.007813 L 71.609375 64.007813 L 71.609375 79.773438 L 73.570313 79.773438 L 73.570313 66.183594 L 77.917969 75.425781 L 79.164063 75.425781 L 83.554688 66.183594 L 83.554688 79.773438 L 85.652344 79.773438 "/>
<path style=" stroke:none;fill-rule:nonzero;fill:rgb(13.699341%,12.199402%,12.5%);fill-opacity:1;" d="M 90.394531 72.546875 C 90.480469 71.601563 90.832031 70.832031 91.46875 70.191406 C 92.101563 69.5625 92.953125 69.25 94.027344 69.25 C 95.085938 69.25 95.867188 69.546875 96.382813 70.113281 C 96.90625 70.699219 97.167969 71.5 97.167969 72.546875 Z M 94.125 67.617188 C 92.398438 67.617188 91.015625 68.183594 89.953125 69.328125 C 88.898438 70.4375 88.378906 71.988281 88.378906 73.925781 C 88.378906 75.882813 88.929688 77.394531 90.023438 78.453125 C 91.132813 79.515625 92.667969 80.054688 94.621094 80.054688 C 95.402344 80.054688 96.128906 79.972656 96.824219 79.765625 C 97.523438 79.570313 98.21875 79.335938 98.890625 79.046875 L 98.890625 76.886719 L 98.773438 76.886719 C 98.429688 77.199219 97.847656 77.507813 97.035156 77.835938 C 96.222656 78.15625 95.410156 78.3125 94.605469 78.3125 C 93.996094 78.3125 93.441406 78.226563 92.941406 78.0625 C 92.425781 77.890625 91.992188 77.636719 91.625 77.296875 C 91.242188 76.953125 90.933594 76.511719 90.726563 75.96875 C 90.503906 75.425781 90.394531 74.796875 90.394531 74.066406 L 99.113281 74.066406 L 99.113281 72.996094 C 99.113281 71.277344 98.683594 69.9375 97.820313 69.019531 C 96.957031 68.09375 95.722656 67.617188 94.125 67.617188 "/>
<path style=" stroke:none;fill-rule:nonzero;fill:rgb(13.699341%,12.199402%,12.5%);fill-opacity:1;" d="M 107.605469 77.835938 C 107.019531 78.089844 106.449219 78.207031 105.886719 78.207031 C 104.824219 78.207031 104.050781 77.839844 103.570313 77.113281 C 103.09375 76.382813 102.847656 75.320313 102.847656 73.902344 C 102.847656 72.480469 103.164063 71.371094 103.78125 70.609375 C 104.414063 69.816406 105.277344 69.433594 106.398438 69.433594 C 106.894531 69.433594 107.359375 69.476563 107.789063 69.5625 C 108.203125 69.660156 108.6875 69.832031 109.226563 70.078125 L 109.226563 76.859375 C 108.730469 77.253906 108.171875 77.589844 107.605469 77.835938 Z M 111.214844 79.773438 L 111.214844 63.296875 L 109.226563 63.296875 L 109.226563 68.421875 C 108.695313 68.148438 108.183594 67.945313 107.699219 67.808594 C 107.230469 67.671875 106.671875 67.617188 106.046875 67.617188 C 105.363281 67.617188 104.710938 67.761719 104.070313 68.039063 C 103.433594 68.308594 102.867188 68.738281 102.382813 69.253906 C 101.90625 69.816406 101.507813 70.484375 101.230469 71.277344 C 100.933594 72.050781 100.796875 72.949219 100.796875 73.941406 C 100.796875 75.867188 101.222656 77.386719 102.042969 78.476563 C 102.867188 79.5625 103.992188 80.109375 105.398438 80.109375 C 106.136719 80.109375 106.8125 79.980469 107.429688 79.691406 C 108.050781 79.402344 108.648438 79.035156 109.226563 78.523438 L 109.226563 79.773438 L 111.214844 79.773438 "/>
<path style=" stroke:none;fill-rule:nonzero;fill:rgb(13.699341%,12.199402%,12.5%);fill-opacity:1;" d="M 116.765625 63.90625 L 114.511719 63.90625 L 114.511719 65.953125 L 116.765625 65.953125 L 116.765625 63.90625 "/>
<path style=" stroke:none;fill-rule:nonzero;fill:rgb(13.699341%,12.199402%,12.5%);fill-opacity:1;" d="M 116.621094 79.773438 L 116.621094 67.945313 L 114.628906 67.945313 L 114.628906 79.773438 L 116.621094 79.773438 "/>
<path style=" stroke:none;fill-rule:nonzero;fill:rgb(13.699341%,12.199402%,12.5%);fill-opacity:1;" d="M 125.015625 67.664063 C 123.261719 67.664063 121.859375 68.21875 120.796875 69.328125 C 119.734375 70.4375 119.199219 71.9375 119.199219 73.875 C 119.199219 74.910156 119.34375 75.804688 119.632813 76.582031 C 119.90625 77.378906 120.3125 78.019531 120.824219 78.523438 C 121.324219 79.035156 121.9375 79.402344 122.644531 79.660156 C 123.367188 79.917969 124.15625 80.03125 125.015625 80.03125 C 125.671875 80.03125 126.316406 79.957031 126.90625 79.773438 C 127.507813 79.605469 128.136719 79.347656 128.796875 79.035156 L 128.796875 76.847656 L 128.691406 76.847656 C 128.539063 76.972656 128.339844 77.097656 128.089844 77.265625 C 127.832031 77.429688 127.558594 77.597656 127.277344 77.738281 C 126.941406 77.910156 126.570313 78.054688 126.148438 78.15625 C 125.726563 78.257813 125.328125 78.3125 124.925781 78.3125 C 123.769531 78.3125 122.871094 77.925781 122.226563 77.160156 C 121.582031 76.40625 121.273438 75.3125 121.273438 73.875 C 121.273438 72.402344 121.589844 71.296875 122.25 70.53125 C 122.898438 69.765625 123.804688 69.394531 124.925781 69.394531 C 125.53125 69.394531 126.167969 69.515625 126.808594 69.765625 C 127.457031 70.023438 128.089844 70.398438 128.691406 70.863281 L 128.796875 70.863281 L 128.796875 68.644531 C 128.261719 68.375 127.648438 68.148438 126.992188 67.960938 C 126.34375 67.761719 125.679688 67.664063 125.015625 67.664063 "/>
<path style=" stroke:none;fill-rule:nonzero;fill:rgb(13.699341%,12.199402%,12.5%);fill-opacity:1;" d="M 138.054688 76.859375 C 137.554688 77.242188 137.019531 77.566406 136.433594 77.839844 C 135.863281 78.113281 135.222656 78.257813 134.523438 78.257813 C 133.679688 78.257813 133.0625 78.078125 132.636719 77.738281 C 132.226563 77.394531 132.027344 76.886719 132.027344 76.210938 C 132.027344 75.617188 132.210938 75.125 132.554688 74.796875 C 132.90625 74.441406 133.375 74.191406 133.9375 74.039063 C 134.425781 73.902344 135.082031 73.796875 135.902344 73.722656 C 136.730469 73.664063 137.433594 73.601563 138.054688 73.5625 Z M 138.667969 68.570313 C 138.210938 68.238281 137.671875 68.007813 137.054688 67.863281 C 136.445313 67.714844 135.71875 67.664063 134.878906 67.664063 C 134.15625 67.664063 133.4375 67.714844 132.707031 67.839844 C 131.964844 67.980469 131.414063 68.09375 131.023438 68.199219 L 131.023438 70.21875 L 131.128906 70.21875 C 131.816406 69.976563 132.476563 69.757813 133.117188 69.621094 C 133.765625 69.476563 134.339844 69.417969 134.871094 69.417969 C 135.296875 69.417969 135.71875 69.445313 136.109375 69.5 C 136.496094 69.558594 136.835938 69.660156 137.121094 69.832031 C 137.421875 70 137.648438 70.234375 137.8125 70.53125 C 137.964844 70.828125 138.054688 71.191406 138.054688 71.652344 L 138.054688 71.953125 C 136.890625 72.015625 135.8125 72.105469 134.800781 72.226563 C 133.785156 72.316406 132.90625 72.546875 132.1875 72.859375 C 131.484375 73.179688 130.9375 73.617188 130.546875 74.164063 C 130.171875 74.71875 129.964844 75.445313 129.964844 76.332031 C 129.964844 77.429688 130.335938 78.335938 131.085938 79.046875 C 131.828125 79.753906 132.726563 80.109375 133.796875 80.109375 C 134.386719 80.109375 134.878906 80.054688 135.316406 79.949219 C 135.742188 79.824219 136.128906 79.691406 136.460938 79.527344 C 136.738281 79.394531 137.019531 79.230469 137.332031 79.023438 C 137.632813 78.800781 137.867188 78.644531 138.054688 78.523438 L 138.054688 79.773438 L 140.027344 79.773438 L 140.027344 71.742188 C 140.027344 70.988281 139.902344 70.339844 139.675781 69.832031 C 139.433594 69.304688 139.109375 68.898438 138.667969 68.570313 "/>
<path style=" stroke:none;fill-rule:nonzero;fill:rgb(13.699341%,12.199402%,12.5%);fill-opacity:1;" d="M 145.351563 79.773438 L 145.351563 63.296875 L 143.363281 63.296875 L 143.363281 79.773438 L 145.351563 79.773438 "/>
<path style=" stroke:none;fill-rule:nonzero;fill:rgb(0%,44.7052%,47.058105%);fill-opacity:1;" d="M 174.664063 56.492188 C 172.066406 62.335938 167.453125 70.890625 167.453125 70.890625 C 169.035156 77.242188 177.058594 80.972656 192.253906 80.828125 C 207.46875 80.703125 234.878906 77.21875 244.835938 78.757813 C 250.867188 79.691406 254.917969 80.160156 255.972656 80.828125 C 249.214844 76.550781 237.761719 74.582031 228.648438 74.421875 C 218.386719 74.25 177.601563 74.59375 174.664063 56.492188 "/>
<path style=" stroke:none;fill-rule:nonzero;fill:rgb(0%,44.7052%,47.058105%);fill-opacity:1;" d="M 211.558594 -0.00390625 C 211.558594 -0.00390625 193.089844 38.207031 192.28125 39.734375 C 191.367188 43 195.21875 49.609375 199.953125 52.601563 C 210.144531 59.085938 218.523438 58.019531 232.328125 66.222656 C 234.492188 67.511719 224.332031 63.488281 218.335938 62.292969 C 209.558594 60.558594 205.699219 60.558594 196.789063 55.59375 C 186.601563 49.917969 184.980469 34.203125 184.980469 34.203125 L 177.171875 51.320313 C 178.1875 59.167969 188.5625 70.042969 226.683594 71.601563 C 236.425781 72.015625 245.453125 73.246094 255.972656 80.828125 C 257.230469 81.730469 211.558594 -0.00390625 211.558594 -0.00390625 "/>
</g>
</svg>
