<?xml version="1.0" standalone="no"?>
<!DOCTYPE svg PUBLIC "-//W3C//DTD SVG 20010904//EN"
 "http://www.w3.org/TR/2001/REC-SVG-20010904/DTD/svg10.dtd">
<svg version="1.0" xmlns="http://www.w3.org/2000/svg"
 width="750.000000pt" height="170.000000pt" viewBox="0 0 750.000000 170.000000"
 preserveAspectRatio="xMidYMid meet">

<g transform="translate(0.000000,170.000000) scale(0.100000,-0.100000)"
fill="#000000" stroke="none">
<path d="M790 1229 c-40 -68 -69 -127 -66 -135 3 -8 35 -64 70 -125 50 -84 60
-107 43 -98 -12 7 -64 37 -116 67 -52 30 -100 55 -106 55 -9 0 -180 -96 -228
-129 -17 -11 -6 -20 101 -83 66 -39 123 -71 127 -71 3 0 60 31 126 70 66 38
118 67 116 62 -2 -4 -34 -60 -71 -124 l-67 -117 71 -120 c39 -67 73 -121 75
-121 3 0 36 54 76 121 l71 120 -47 82 c-26 45 -59 101 -72 125 l-25 43 120
-71 c66 -38 124 -70 128 -70 9 0 234 131 239 140 5 7 -223 143 -240 143 -6 0
-61 -29 -123 -66 -62 -36 -112 -63 -112 -60 0 3 29 56 65 118 36 61 65 115 65
119 0 8 -139 246 -144 246 -2 0 -36 -54 -76 -121z"/>
<path d="M1682 1050 c-52 -8 -96 -30 -119 -59 -21 -27 -53 -140 -53 -188 0
-57 14 -81 55 -99 41 -17 181 -17 244 -1 l45 12 18 70 c10 39 18 73 18 78 0 4
-34 7 -75 7 l-75 0 -11 -46 c-10 -37 -15 -44 -32 -42 -33 5 -42 31 -28 77 18
62 47 76 153 76 l88 0 10 35 c16 57 13 67 -22 73 -68 12 -165 15 -216 7z"/>
<path d="M5310 1032 c-62 -31 -110 -133 -110 -234 0 -89 56 -115 219 -106 131
8 181 59 203 206 19 124 -14 152 -179 152 -73 0 -107 -4 -133 -18z m154 -151
c-1 -35 -7 -49 -28 -68 -69 -59 -120 15 -60 87 21 25 33 30 58 28 30 -3 31 -5
30 -47z"/>
<path d="M6467 1036 c-21 -8 -47 -22 -57 -31 -30 -27 -61 -112 -67 -184 -5
-61 -3 -69 20 -96 23 -27 31 -30 101 -33 105 -6 184 5 195 26 4 9 11 33 15 54
l7 36 -78 -5 c-66 -5 -81 -3 -92 11 -19 23 -5 62 32 89 22 17 41 21 97 20 l70
-1 9 36 c19 72 18 76 -14 83 -54 12 -199 9 -238 -5z"/>
<path d="M6839 1041 c-66 -21 -95 -56 -99 -121 -5 -86 5 -96 105 -105 41 -4
75 -11 75 -16 0 -14 -69 -22 -139 -15 l-67 7 -11 -45 c-10 -44 -10 -44 20 -50
51 -10 250 -5 287 7 45 16 80 68 80 119 0 69 -11 78 -93 78 -71 0 -109 11 -93
27 4 4 53 10 109 13 l101 5 12 47 c6 26 9 49 6 52 -8 9 -263 5 -293 -3z"/>
<path d="M1975 1028 c-2 -7 -20 -76 -40 -153 -20 -77 -39 -148 -41 -158 -5
-16 6 -17 167 -15 l173 3 12 43 13 42 -100 0 c-90 0 -100 2 -97 18 3 15 17 17
105 20 95 2 101 4 107 25 12 46 11 47 -89 47 -78 0 -95 3 -95 15 0 12 18 15
100 15 111 0 107 -2 125 78 l7 32 -172 0 c-127 0 -172 -3 -175 -12z"/>
<path d="M2355 1028 c-2 -7 -20 -76 -40 -153 -20 -77 -38 -148 -41 -157 -5
-16 3 -18 70 -18 l75 0 18 80 c10 44 20 80 24 80 3 0 14 -36 24 -80 l18 -80
82 0 83 0 41 165 c22 90 41 167 41 170 0 3 -33 5 -72 3 l-72 -3 -20 -82 c-11
-46 -23 -83 -28 -83 -4 0 -8 6 -8 14 0 7 -7 46 -16 85 l-16 71 -79 0 c-55 0
-81 -4 -84 -12z"/>
<path d="M2790 1038 c0 -2 -20 -78 -44 -170 l-44 -168 173 0 173 0 6 28 c4 15
9 35 12 45 5 15 -4 17 -96 17 -89 0 -101 2 -96 16 3 9 6 18 6 20 0 2 45 4 99
4 104 0 111 3 111 51 0 17 -8 19 -96 19 -72 0 -95 3 -92 13 3 8 36 13 105 15
l101 3 11 44 c6 24 11 49 11 54 0 7 -57 11 -170 11 -93 0 -170 -1 -170 -2z"/>
<path d="M3152 963 c-11 -43 -31 -120 -45 -170 l-24 -93 78 0 77 0 12 51 12
50 34 -50 35 -51 160 0 c161 0 161 0 181 25 18 23 26 26 77 23 49 -3 56 -6 59
-25 3 -21 8 -23 73 -23 l69 0 0 170 0 171 -127 -3 -127 -3 -78 -130 c-43 -71
-88 -145 -99 -164 l-20 -34 -40 59 -39 59 40 13 c49 17 73 57 74 123 2 77 -2
79 -194 79 l-168 0 -20 -77z m233 -33 c3 -5 1 -19 -5 -30 -8 -15 -21 -20 -55
-20 l-44 0 10 30 c10 26 16 30 49 30 22 0 42 -4 45 -10z m421 -86 c-3 -8 -19
-14 -37 -14 -36 0 -35 5 8 72 l28 43 3 -44 c2 -24 1 -50 -2 -57z"/>
<path d="M4016 887 c-22 -83 -41 -160 -44 -169 -4 -17 8 -18 141 -18 l145 0
15 60 15 60 -69 0 c-49 0 -69 4 -69 13 0 6 11 53 25 102 14 50 25 93 25 98 0
4 -33 7 -72 7 l-73 0 -39 -153z"/>
<path d="M4510 878 c-52 -89 -96 -165 -98 -170 -2 -4 31 -8 73 -8 71 0 79 2
97 25 18 23 26 26 77 23 49 -3 56 -6 59 -25 3 -21 8 -23 73 -23 l69 0 0 170 0
170 -127 0 -128 0 -95 -162z m206 -34 c-5 -13 -66 -21 -66 -9 0 3 15 28 33 57
l32 53 3 -44 c2 -24 1 -50 -2 -57z"/>
<path d="M4901 1018 c-5 -13 -12 -38 -16 -55 l-7 -33 41 0 c50 0 50 -1 16
-128 -14 -51 -25 -95 -25 -98 0 -2 34 -4 75 -4 l74 0 10 38 c6 20 18 71 29
112 l18 75 46 3 c41 3 46 6 51 31 3 16 9 40 13 55 l6 26 -161 0 c-158 0 -162
0 -170 -22z"/>
<path d="M5641 882 c-22 -87 -41 -164 -41 -170 0 -8 23 -12 69 -12 l69 0 21
78 c12 43 22 85 22 93 3 26 18 -76 18 -123 l1 -48 44 0 44 0 47 80 c26 45 49
79 52 77 2 -3 -5 -38 -17 -78 -11 -40 -20 -75 -20 -77 0 -1 33 -2 72 0 l73 3
42 160 c23 88 42 163 43 168 0 4 -45 7 -99 7 l-100 0 -48 -87 c-47 -86 -48
-87 -50 -53 -2 19 -6 59 -9 88 l-5 52 -93 0 -93 0 -42 -158z"/>
<path d="M6176 883 c-22 -87 -41 -164 -44 -170 -3 -10 15 -13 71 -13 l74 0 42
158 c22 87 41 164 41 170 0 8 -24 12 -73 12 l-73 0 -38 -157z"/>
</g>
</svg>
