<svg version="1.1" id="Layer_1" xmlns="http://www.w3.org/2000/svg" xmlns:xlink="http://www.w3.org/1999/xlink" x="0px" y="0px"
	 width="100%" viewBox="0 0 1024 448" enable-background="new 0 0 1024 448" xml:space="preserve">
<path fill="#000000" opacity="1.000000" stroke="none" 
	d="
M167.443359,208.531067 
	C171.190903,197.719086 171.208832,197.694916 162.421585,191.175140 
	C155.773026,186.242172 149.071228,181.380997 142.373199,176.473251 
	C143.909744,173.864014 145.957642,174.752625 147.579605,174.790848 
	C156.726334,175.006332 165.872360,175.321167 175.011414,175.754120 
	C178.226562,175.906448 179.784409,174.522034 180.803192,171.563446 
	C183.837067,162.753113 187.287170,154.083374 190.199310,145.235184 
	C191.371750,141.672913 193.124130,141.063232 196.483246,141.862335 
	C248.406235,154.214294 300.349121,166.482742 352.280273,178.800491 
	C353.677643,179.131958 355.213440,179.308197 356.772186,181.047485 
	C351.065247,184.310638 345.516174,187.496063 339.945129,190.642639 
	C339.544281,190.869064 338.752625,191.058441 338.530457,190.850571 
	C332.734192,185.427475 327.172272,190.330994 322.033722,191.792084 
	C295.317322,199.388611 268.775665,207.599930 242.175613,215.605225 
	C241.219849,215.892838 240.233261,216.158051 239.358246,216.618439 
	C236.980453,217.869476 233.203476,217.917297 233.297211,221.605362 
	C233.383881,225.014908 236.897736,225.880066 239.325653,226.853195 
	C243.659302,228.590149 248.370102,228.643158 253.064621,228.678436 
	C261.746155,228.743729 270.187408,227.679916 278.210236,224.143738 
	C279.140564,226.214920 277.628906,226.523849 276.793091,227.031265 
	C265.838898,233.681488 254.809692,240.209442 243.910690,246.948273 
	C241.179520,248.636932 239.218826,248.355759 236.756485,246.442184 
	C228.606064,240.108093 220.203308,234.097260 212.094589,227.711945 
	C209.813721,225.915817 207.909363,225.744980 205.289749,226.540466 
	C190.803864,230.939316 176.269470,235.178253 161.757523,239.491638 
	C160.186539,239.958588 158.662720,240.669632 156.158905,239.740845 
	C159.911438,229.367920 163.613220,219.135330 167.443359,208.531067 
M174.720352,182.012100 
	C171.864365,177.031174 167.784943,177.321060 161.761063,182.936508 
	C161.749405,184.223953 162.601059,185.097198 163.400558,185.880615 
	C165.633041,188.068192 166.634216,192.697495 170.656601,191.529099 
	C174.484314,190.417282 174.344696,186.157593 174.720352,182.012100 
z"/>
<path fill="#000000" opacity="1.000000" stroke="none" 
	d="
M590.491333,238.553467 
	C606.075134,219.710876 626.971008,217.695206 652.021301,232.891296 
	C652.021301,229.545914 652.019470,226.620316 652.021667,223.694717 
	C652.030212,212.366989 652.104187,201.038742 652.011902,189.711838 
	C651.982727,186.132828 653.277710,184.244644 656.968750,183.581665 
	C665.099243,182.121292 672.981506,179.371048 680.926514,178.393188 
	C682.726074,180.395248 682.224609,182.313904 682.225830,184.083878 
	C682.254456,226.896194 682.255005,269.708527 682.243347,312.520844 
	C682.241455,319.369476 682.203613,319.380920 675.274353,319.400085 
	C670.443481,319.413452 665.592041,319.110901 660.787170,319.461395 
	C655.929688,319.815704 654.014648,317.964966 654.641663,313.205963 
	C654.791382,312.069885 654.663818,310.897247 654.663818,309.952911 
	C653.647217,309.177002 653.155212,309.740234 652.705322,310.174072 
	C638.924988,323.461884 622.947449,325.119293 606.078125,317.834320 
	C589.132751,310.516541 581.243469,296.339447 579.727905,278.460846 
	C578.508545,264.077179 581.426453,250.624496 590.491333,238.553467 
M650.918213,258.680786 
	C643.931458,249.346130 631.758057,246.407791 620.996826,251.458542 
	C612.170654,255.601074 607.254700,267.195557 609.770996,277.935211 
	C612.386841,289.099792 620.654358,295.680939 632.010803,295.638641 
	C643.420532,295.596191 651.406189,288.932098 653.976990,277.664459 
	C655.469177,271.124023 654.106750,265.145081 650.918213,258.680786 
z"/>
<path fill="#000000" opacity="1.000000" stroke="none" 
	d="
M734.405945,320.992371 
	C713.200378,316.121887 699.087952,304.366272 694.285400,282.899292 
	C687.965698,254.650803 706.311035,228.021332 734.959900,223.623306 
	C752.851196,220.876740 769.324036,223.958359 782.924927,236.339127 
	C797.295654,249.420593 801.101379,266.248596 796.761230,284.709686 
	C792.248901,303.903137 779.238770,315.135071 760.567932,320.131470 
	C752.101135,322.397278 743.470398,322.502075 734.405945,320.992371 
M736.770081,293.879364 
	C738.863464,294.381958 740.934387,295.024780 743.053955,295.363403 
	C753.431091,297.021240 763.770996,290.716583 766.962646,280.866547 
	C770.865112,268.823151 766.490723,256.386749 756.657471,251.568542 
	C745.335266,246.020721 730.912170,250.072266 725.812195,260.373962 
	C720.777466,270.543915 722.311707,288.398590 736.770081,293.879364 
z"/>
<path fill="#000000" opacity="1.000000" stroke="none" 
	d="
M431.911926,246.040771 
	C445.526215,225.426132 474.516663,216.687027 496.212585,226.407211 
	C512.005371,233.482635 518.889404,246.719864 521.218811,262.959442 
	C521.830811,267.225647 521.654846,271.598907 522.060120,275.902344 
	C522.522217,280.808289 520.268860,282.187622 515.628296,282.143250 
	C497.634552,281.971283 479.638031,282.093811 461.642517,282.106354 
	C459.844910,282.107605 458.047302,282.106476 456.278717,282.106476 
	C456.066254,290.375763 464.276276,297.951080 473.456848,298.711426 
	C481.285980,299.359833 488.069336,297.112457 493.177887,291.143799 
	C495.915070,287.945740 497.992615,288.113556 501.039398,290.542206 
	C506.214661,294.667511 511.658051,298.456329 516.935364,302.347198 
	C506.720795,319.482697 476.393524,328.898041 451.092255,315.913361 
	C425.680939,302.872223 417.289612,272.266785 431.911926,246.040771 
M485.833832,248.617218 
	C475.482941,240.258667 460.307220,245.686890 456.235870,256.207764 
	C455.059174,259.248505 455.315674,260.997681 459.093475,260.979187 
	C468.711731,260.932068 478.330322,260.950958 487.948792,260.958527 
	C491.062225,260.960968 492.159637,259.667847 491.120331,256.573090 
	C490.143463,253.664307 488.574554,251.200012 485.833832,248.617218 
z"/>
<path fill="#000000" opacity="1.000000" stroke="none" 
	d="
M808.256104,266.404907 
	C802.074463,247.549591 809.761475,231.844360 828.150574,225.580841 
	C842.489380,220.696884 856.677368,221.812347 870.512695,227.673538 
	C874.476501,229.352768 878.148315,231.639709 880.924988,235.656067 
	C875.414185,241.223709 870.075195,246.658493 864.684937,252.041962 
	C862.730286,253.994171 861.392517,252.249268 860.067993,251.049423 
	C855.283386,246.715240 849.623901,245.384384 843.376770,246.233368 
	C839.830933,246.715240 836.862915,248.227585 836.400818,252.192535 
	C835.957764,255.993256 838.906677,257.482422 841.775757,258.415527 
	C845.875366,259.748779 850.106323,260.698853 854.312439,261.678253 
	C858.854492,262.735840 863.349792,263.897919 867.700623,265.615509 
	C878.594727,269.916260 884.558289,277.804993 884.818848,289.572357 
	C885.057007,300.325958 881.330872,309.645721 871.506226,314.648285 
	C850.644348,325.270935 829.578064,325.095093 809.072388,313.343933 
	C803.341553,310.059753 803.427246,308.979919 807.790588,303.979919 
	C811.402466,299.840912 815.179871,295.845093 818.746887,291.668793 
	C820.818542,289.243225 822.477661,288.986603 824.805664,291.475830 
	C830.311890,297.363525 837.322021,299.403992 845.221252,298.680450 
	C846.533142,298.560303 847.860657,298.336548 849.118103,297.953857 
	C851.717102,297.162842 854.379456,296.188599 854.565735,292.926544 
	C854.745483,289.780884 852.523438,288.235992 849.977234,287.053345 
	C845.703796,285.068390 841.056946,284.436096 836.538330,283.367645 
	C831.516479,282.180206 826.488708,281.047913 821.743530,278.960083 
	C815.928955,276.401642 811.188416,272.653931 808.256104,266.404907 
z"/>
<path fill="#000000" opacity="1.000000" stroke="none" 
	d="
M398.805298,180.674927 
	C414.174438,177.130920 411.877197,176.429016 411.902527,190.535110 
	C411.975555,231.199249 411.904266,271.863647 411.870026,312.527954 
	C411.864227,319.397400 411.819122,319.404236 404.907654,319.411743 
	C399.074646,319.418091 393.230804,319.186798 387.412201,319.474457 
	C383.101135,319.687622 381.498657,318.270721 381.604187,313.813995 
	C381.864441,302.820679 381.699799,291.817200 381.698181,280.817810 
	C381.693787,250.819458 381.790985,220.820328 381.570251,190.823547 
	C381.535156,186.053085 382.921631,183.777985 387.694244,183.177856 
	C391.306091,182.723694 394.831116,181.579147 398.805298,180.674927 
z"/>
<path fill="#000000" opacity="1.000000" stroke="none" 
	d="
M566.325867,237.018677 
	C566.327087,262.655609 566.211609,287.797516 566.428589,312.936554 
	C566.471252,317.883057 565.156799,319.842926 559.991211,319.499115 
	C553.857788,319.090881 547.672974,319.261444 541.518066,319.442017 
	C537.910583,319.547882 536.556885,318.304077 536.572388,314.563904 
	C536.689026,286.426605 536.688416,258.288361 536.573486,230.151031 
	C536.557861,226.329605 537.741089,224.695557 541.693420,224.809647 
	C548.181213,224.996933 554.682678,224.990173 561.170288,224.794525 
	C565.037598,224.677887 566.722717,226.099609 566.357483,230.032455 
	C566.158264,232.178329 566.324402,234.358124 566.325867,237.018677 
z"/>
<path fill="#000000" opacity="1.000000" stroke="none" 
	d="
M566.330627,199.959335 
	C566.178528,210.069122 567.933472,209.899399 557.002136,209.917496 
	C551.859131,209.925995 546.715698,209.879623 541.573364,209.939438 
	C538.207275,209.978577 536.340759,208.939987 536.543335,205.049957 
	C536.827637,199.589218 536.698792,194.103271 536.632751,188.629486 
	C536.600037,185.912796 537.739685,184.707275 540.475525,184.727829 
	C547.774719,184.782684 555.075439,184.800797 562.373901,184.706299 
	C565.472900,184.666168 566.409607,186.199951 566.332458,189.017212 
	C566.237061,192.498367 566.322449,195.984482 566.330627,199.959335 
z"/>
</svg>