<?xml version="1.0" encoding="utf-8"?>
<!-- Generator: Adobe Illustrator 26.0.2, SVG Export Plug-In . SVG Version: 6.00 Build 0)  -->
<svg version="1.1" xmlns="http://www.w3.org/2000/svg" xmlns:xlink="http://www.w3.org/1999/xlink" x="0px" y="0px"
	 viewBox="0 0 1164.7 358.8" style="enable-background:new 0 0 1164.7 358.8;" xml:space="preserve">
<style type="text/css">
	.st0{fill:#FE5000;}
	.st1{fill:#22092B;}
	.st2{display:none;}
	.st3{display:inline;fill:#FF00FF;}
	.st4{display:inline;fill:#FC8AFF;}
	.st5{display:inline;}
	.st6{fill:#00FFFF;}
</style>
<g id="logo">
	<g>
		<g>
			<path class="st0" d="M259.6,91.7l-109.8,22c-0.9,0.2-1.6,1-1.6,2v42.3c0,1,0.7,1.8,1.6,2l109.8,22c1.2,0.2,2.4-0.7,2.4-2V93.6
				C262,92.4,260.8,91.4,259.6,91.7z"/>
		</g>
		<g>
			<path class="st0" d="M116.4,266.5l109.8-22c0.9-0.2,1.6-1,1.6-2l0-42.3c0-1-0.7-1.8-1.6-2l-109.8-22c-1.2-0.2-2.4,0.7-2.4,2
				l0,86.2C114,265.8,115.1,266.7,116.4,266.5z"/>
		</g>
	</g>
	<g>
		<path class="st1" d="M322.9,205.9c0-1.8,2-2.9,3.5-2c15.3,9.2,33.4,13.3,44.4,13.3c12,0,20.9-4.8,20.9-16
			c0-13.9-14.1-15.1-33.4-21.4c-20.7-6.8-39.4-17-39.4-43.1c0-28,21.2-45.4,52.7-45.4c14.3,0,31.6,3.5,44.6,10.1
			c0.8,0.4,1.2,1.2,1.2,2.1v27.1c0,1.8-1.9,2.9-3.5,2c-15.1-8.5-31.8-12.5-42.6-12.5c-11.2,0-19.3,4.1-19.3,14.1
			c0,13.3,13.9,14.3,31.9,20.3c22.6,7.5,40.9,18,40.9,44.6c0,29.2-22.2,46.9-54.5,46.9c-14.5,0-32.3-3.5-46.2-10.3
			c-0.8-0.4-1.3-1.2-1.3-2.1V205.9z"/>
		<path class="st1" d="M474.6,201c-1.6,0-2.7,1.6-2.2,3.2c4.4,11.9,15.3,17.4,28.7,17.4c10.2,0,21.2-3.1,31.1-9
			c1.6-0.9,3.5,0.2,3.5,2v20.8c0,0.8-0.4,1.6-1.1,2c-10,5.8-24.7,8.7-37.7,8.7c-33.6,0-57.9-20.9-57.9-52.9
			c0-32.6,25.3-53.7,53.5-53.7c25.1,0,48.7,16.6,48.7,50.8c0,2.7-0.1,6.1-0.4,8.7c-0.1,1.2-1.1,2.1-2.3,2.1H474.6z M509.4,181.1
			c1.6,0,2.7-1.5,2.2-3c-2.7-9.2-10.2-14.6-19.4-14.6c-8.8,0-16.6,4.9-20,14.5c-0.5,1.5,0.6,3.1,2.2,3.1H509.4z"/>
		<path class="st1" d="M561.9,150v91.4c0,1.3,1,2.3,2.3,2.3h26.9c1.3,0,2.3-1,2.3-2.3v-96.8c0-1.5-1.3-2.6-2.8-2.3l-26.9,5.4
			C562.7,148,561.9,148.9,561.9,150z"/>
		<path class="st1" d="M616.6,213.9c0-1.7,1.9-2.9,3.4-2c13.3,6.9,27.9,9.9,36.8,9.9c8.7,0,13.9-2.3,13.9-7.9
			c0-7.9-11.4-7.1-26.8-11c-19.3-4.8-30.7-12.9-30.7-29.7c0.2-21.6,19.3-33.8,44.6-33.8c11.8,0,26.2,2.3,37.6,7.5
			c0.8,0.4,1.3,1.2,1.3,2.1v21.8c0,1.7-1.8,2.8-3.4,2.1c-12.7-6.4-26.6-9.2-35-9.2c-8.3,0-13.3,2.5-13.3,7.3c0,7.5,11,6.8,26.1,10.6
			c19.5,4.8,31.3,12.2,31.3,29.9c-0.2,22.4-19.7,34.6-45.8,34.6c-11.8,0-26.9-2.3-38.9-7.9c-0.8-0.4-1.3-1.2-1.3-2.1V213.9z"/>
		<path class="st1" d="M876,149.6c-6-6.2-14.9-10.2-26.3-10.2c-12.1,0-23.5,4.2-33.9,12.9c-1,0.8-2.5,0.6-3.3-0.4
			c-6.4-8.7-18.1-12.4-28.3-12.4c-12.4,0-22.8,5-30.7,11.6l-0.4-0.2v-6.3c0-1.5-1.3-2.6-2.8-2.3l-26.5,5.3c-1.1,0.2-1.9,1.2-1.9,2.3
			v91.6c0,1.3,1,2.3,2.3,2.3h26.9c1.3,0,2.3-1,2.3-2.3V176c0-0.7,0.3-1.4,0.9-1.8c5.1-4.1,12.2-7.6,19.1-7.6c4.1,0,7.9,1.2,10.8,4.4
			c2.7,2.9,3.7,7.1,3.7,13.9v56.6c0,1.3,1,2.3,2.3,2.3h26.9c1.3,0,2.3-1,2.3-2.3v-61.8c0-1.1,0-2.3-0.1-3.4
			c-0.1-0.7,0.2-1.5,0.8-1.9c5.3-4.4,12.3-7.7,19.2-7.7c4.1,0,7.9,1.2,10.8,4.4c2.5,2.7,3.7,6.2,3.7,13.9v56.6c0,1.3,1,2.3,2.3,2.3
			h26.9c1.3,0,2.3-1,2.3-2.3v-61.8C885.4,165.2,882.5,156.2,876,149.6z"/>
		<path class="st1" d="M1050.7,236.8c0,0.9-0.5,1.7-1.2,2.1c-9.5,4.9-21,7.2-32.2,7.2c-32.8,0-56.8-22.4-56.8-53.1
			c0-32.1,26.5-53.5,58.5-53.5c10.8,0,20.9,2.4,29,6.2c0.8,0.4,1.3,1.2,1.3,2.1v23.7c0,1.8-1.9,2.9-3.5,2
			c-8.1-4.6-16.8-7.5-25.4-7.5c-16.8,0-28.4,11.4-28.4,26.8c0,15.6,11.8,26.5,28.8,26.5c8.6,0,18.4-2.8,26.3-7.7
			c1.5-1,3.5,0.2,3.5,2V236.8z"/>
		<path class="st1" d="M909.1,150v91.4c0,1.3,1,2.3,2.3,2.3h26.9c1.3,0,2.3-1,2.3-2.3v-96.8c0-1.5-1.3-2.6-2.8-2.3l-26.9,5.4
			C909.9,148,909.1,148.9,909.1,150z"/>
		<circle class="st1" cx="577.6" cy="109.4" r="18"/>
		<circle class="st1" cx="924.8" cy="109.4" r="18"/>
	</g>
</g>
<g id="spacers" class="st2">
	<rect x="227.8" y="198.6" class="st3" width="22.8" height="22.8"/>
	<rect x="250.6" y="198.6" class="st4" width="11.4" height="11.4"/>
	<rect x="284.7" y="136.8" class="st3" width="22.8" height="22.8"/>
	<rect x="307.5" y="136.8" class="st4" width="11.4" height="11.4"/>
	<rect x="125.4" y="114" class="st3" width="22.8" height="22.8"/>
	<rect x="125.4" y="136.8" class="st3" width="22.8" height="22.8"/>
	<rect x="262" y="91.2" class="st3" width="22.8" height="22.8"/>
	<rect x="262" y="114" class="st3" width="22.8" height="22.8"/>
	<rect x="262" y="136.8" class="st3" width="22.8" height="22.8"/>
	<rect x="262" y="159.5" class="st3" width="22.8" height="22.8"/>
	
		<rect x="170.9" y="68.4" transform="matrix(6.123234e-17 -1 1 6.123234e-17 102.4444 262.0725)" class="st3" width="22.8" height="22.8"/>
	
		<rect x="148.1" y="68.4" transform="matrix(6.123234e-17 -1 1 6.123234e-17 79.6551 239.2832)" class="st3" width="22.8" height="22.8"/>
	<rect x="153.1" y="163" transform="matrix(0.1992 -0.98 0.98 0.1992 -39.1924 300.8865)" class="st3" width="22.8" height="22.8"/>
	
		<rect x="193.6" y="68.4" transform="matrix(6.123234e-17 -1 1 6.123234e-17 125.2228 284.8509)" class="st3" width="22.8" height="22.8"/>
	
		<rect x="216.4" y="68.4" transform="matrix(6.123234e-17 -1 1 6.123234e-17 148.0011 307.6292)" class="st3" width="22.8" height="22.8"/>
	
		<rect x="239.2" y="68.4" transform="matrix(6.123234e-17 -1 1 6.123234e-17 170.7629 330.3911)" class="st3" width="22.8" height="22.8"/>
	<g class="st5">
		<g>
			<polygon class="st6" points="113.8,0 0,22.8 0,68.3 113.8,91.1 			"/>
		</g>
	</g>
</g>
</svg>
