<svg width="340" height="50" viewBox="0 0 340 50" fill="none" xmlns="http://www.w3.org/2000/svg">
<path fill-rule="evenodd" clip-rule="evenodd" d="M83.7474 15.3696C80.0509 15.3696 76.9381 16.7315 74.4089 18.677V15.5642H65.8486V48.8327H74.798V27.6265C75.9653 25.8755 79.0781 23.5409 82.7746 23.5409C84.1365 23.5409 85.3038 23.7354 86.2766 24.1245V15.5642C85.4984 15.3697 84.7202 15.3696 83.7474 15.3696ZM6.31551 38.716C8.65014 40.856 11.9575 42.0233 15.4595 42.0233C17.7941 42.0233 19.7396 40.856 19.7396 39.2996C19.7396 34.2412 3.78632 35.9922 3.78632 25.2918C3.78632 18.8716 10.012 14.9805 16.4322 14.9805C20.7124 14.9805 25.3817 16.537 27.7163 18.2879L23.6307 24.7082C21.8797 23.5409 19.7396 22.3735 17.2104 22.3735C14.6813 22.3735 12.7357 23.3463 12.7357 25.0973C12.7357 29.3774 28.689 27.6265 28.689 39.2996C28.689 45.7198 22.4634 49.6109 15.4595 49.6109C10.7902 49.6109 6.12095 48.0545 2.2299 45.1362L6.31551 38.716ZM62.1521 31.9066C62.1521 22.5681 55.7318 14.9805 46.5879 14.9805C36.6657 14.9805 30.44 23.1518 30.44 32.2957C30.44 42.8016 37.833 49.6109 47.7552 49.6109C52.8136 49.6109 58.0665 47.4708 61.3739 43.5798L56.3155 38.5214C54.7591 40.2724 51.6462 42.4125 47.9497 42.4125C43.2805 42.4125 39.3894 39.1051 39.0003 34.4358H61.9575C61.9575 33.6576 62.1521 32.8794 62.1521 31.9066ZM39.3894 28.0156C39.7785 24.9027 42.8914 22.179 46.3933 22.179C50.0898 22.179 52.619 25.0973 53.0081 28.0156H39.3894ZM107.483 35.9922L116.627 15.5642H125.771L110.596 48.8327H104.37L89.1949 15.5642H98.5334L107.483 35.9922ZM133.358 0C136.471 0 139.195 2.52918 139.195 5.64202C139.195 8.75486 136.666 11.284 133.358 11.284C130.051 11.284 127.522 8.75486 127.522 5.64202C127.522 2.52918 130.051 0 133.358 0ZM128.884 15.5642H137.833V48.8327H128.884V15.5642ZM174.409 42.0233C170.518 47.2763 165.654 49.4163 159.428 49.4163C149.117 49.4163 141.724 41.6342 141.724 32.1012C141.724 22.3735 149.506 14.786 159.623 14.786C165.265 14.786 170.518 17.5097 173.631 21.4008L167.405 27.0428C165.654 24.7082 162.93 23.1518 159.817 23.1518C154.759 23.1518 150.868 27.2374 150.868 32.2957C150.868 37.5486 154.565 41.4397 160.012 41.4397C163.708 41.4397 166.432 39.2996 167.989 36.965L174.409 42.0233ZM206.705 43.5798C203.592 47.4708 198.144 49.6109 193.086 49.6109C183.164 49.6109 175.771 42.8016 175.771 32.2957C175.771 22.9572 181.996 14.9805 191.919 14.9805C201.063 14.9805 207.483 22.7626 207.483 31.9066C207.483 32.8794 207.483 33.6576 207.288 34.4358H184.331C184.72 39.1051 188.611 42.4125 193.28 42.4125C196.977 42.4125 200.09 40.2724 201.646 38.5214L206.705 43.5798ZM198.339 28.0156C198.144 25.0973 195.421 22.179 191.724 22.179C188.028 22.179 185.109 24.9027 184.72 28.0156H198.339ZM210.985 48.8327V15.5642H219.545V18.2879C222.074 16.1479 225.187 14.9805 228.884 14.9805C233.553 14.9805 237.638 17.1206 240.362 20.428C242.502 22.9572 243.864 26.4591 243.864 32.1012V49.0272H234.915V31.323C234.915 28.0156 234.137 26.2646 232.969 25.0973C231.802 23.93 230.051 23.1518 227.911 23.1518C224.214 23.1518 221.102 25.4864 219.934 27.2374V48.8327H210.985Z" fill="#293F41"/>
<path fill-rule="evenodd" clip-rule="evenodd" d="M266.627 14.9805C256.121 14.9805 247.171 23.5408 247.171 34.2412C247.171 39.8832 249.506 44.9416 253.203 48.6381C254.564 49.9999 256.705 49.9999 258.261 48.8326C260.401 47.0816 263.319 46.1089 266.627 46.1089C269.934 46.1089 272.658 47.0816 274.992 48.8326C276.549 49.9999 278.689 49.8054 280.051 48.4435C283.747 44.9416 286.082 39.8832 286.082 34.2412C285.887 23.7353 277.327 14.9805 266.627 14.9805ZM266.432 44.1633C260.79 44.1633 256.705 39.8832 256.705 34.4357C256.705 28.9883 260.596 24.7081 266.432 24.7081C272.269 24.7081 276.16 29.1828 276.16 34.4357C276.16 39.6886 272.269 44.1633 266.432 44.1633Z" fill="#82B6A1"/>
<path fill-rule="evenodd" clip-rule="evenodd" d="M303.397 48.8325H296.782L283.553 15.564H292.502L299.701 34.6301L306.899 15.564H314.292L321.296 34.6301L328.494 15.564H337.444L324.214 48.8325H317.599L310.596 29.9609L303.397 48.8325Z" fill="#293F41"/>
<path d="M332.58 44.7471V45.3307H331.413V48.8327H330.635V45.3307H329.467V44.7471H332.58ZM335.304 47.2763L336.86 44.7471H337.444V48.8327H336.666V46.498L335.499 48.249H334.915L333.942 46.498V48.8327H333.164V44.7471H333.748L335.304 47.2763Z" fill="#293F41"/>
</svg>
