<svg width="342" height="80" viewBox="0 0 342 80" fill="none" xmlns="http://www.w3.org/2000/svg">
<path d="M277.748 10.1851H264.945L243.209 53.5426L221.531 10.1851H208.956C222.555 37.3831 243.38 79.0336 243.38 79.0336L277.748 10.1851Z" fill="#F8991D"/>
<path d="M178.401 20.4269C189.041 20.4269 197.974 27.767 200.421 37.6675H156.381C158.827 27.8239 167.761 20.4269 178.401 20.4269ZM178.401 65.7759C167.761 65.7759 158.827 58.4359 156.381 48.5922H211.972V43.1299C211.972 24.6375 196.893 9.55908 178.401 9.55908C159.908 9.55908 144.83 24.6375 144.83 43.1299C144.83 61.6223 159.908 76.7007 178.401 76.7007C191.146 76.7007 202.469 69.6451 208.159 58.7773H194.845C190.634 63.1586 184.774 65.7759 178.401 65.7759Z" fill="#F8991D"/>
<path d="M308.018 66.0607C295.5 66.0607 285.315 55.8756 285.315 43.4146C285.315 30.8967 295.5 20.7685 308.018 20.7685C320.422 20.7685 330.494 30.726 330.664 43.0732V43.8129C330.494 56.0463 320.422 66.0607 308.018 66.0607ZM341.646 43.3577C341.646 43.2439 341.646 43.1301 341.646 42.9594V10.3559H330.721V18.6063C324.747 13.144 316.781 9.72998 308.075 9.72998C289.583 9.72998 274.504 24.8084 274.504 43.3008C274.504 61.7932 289.583 76.8716 308.075 76.8716C316.838 76.8716 324.747 73.5145 330.721 67.9953V76.3595H341.646V43.6422C341.589 43.6422 341.646 43.4715 341.646 43.3577Z" fill="#F8991D"/>
<path d="M103.805 20.4269C114.446 20.4269 123.379 27.767 125.826 37.6675H81.7852C84.2888 27.8239 93.222 20.4269 103.805 20.4269ZM103.805 65.7759C93.1651 65.7759 84.2319 58.4359 81.7852 48.5922H137.376V43.1299C137.376 24.6375 122.298 9.55908 103.805 9.55908C85.2561 9.55908 70.2346 24.6375 70.2346 43.1299C70.2346 61.6223 85.313 76.7007 103.805 76.7007C116.551 76.7007 127.817 69.6451 133.507 58.7773H120.192C116.096 63.1586 110.235 65.7759 103.805 65.7759Z" fill="#F8991D"/>
<path d="M0.248047 0H13.7333L39.395 51.608L64.8861 0H78.1437L39.2812 78.9198L0.248047 0Z" fill="#F8991D"/>
<path d="M0.248047 0H13.7333L39.395 51.608L64.8861 0H78.1437L39.2812 78.9198L0.248047 0Z" fill="#F8991D"/>
<path d="M21.6423 0.113668L39.2243 35.1639L56.7494 0.113668C56.7494 0.113668 21.6423 0.056768 21.6423 0.113668Z" fill="#8B8C8E"/>
</svg>
