<svg width="427" height="380" viewBox="0 0 427 380" fill="none" xmlns="http://www.w3.org/2000/svg">
<path d="M128.625 253.162C129.068 255.702 130.736 257.997 133.56 259.954C136.389 261.914 140.314 263.485 145.096 264.568C154.655 266.732 167.439 266.896 181.163 264.504C194.887 262.111 206.861 257.631 215.124 252.36C219.258 249.723 222.419 246.916 224.418 244.115C226.414 241.317 227.206 238.594 226.764 236.053C226.321 233.513 224.653 231.218 221.829 229.261C219 227.301 215.075 225.73 210.293 224.647C200.734 222.483 187.95 222.319 174.226 224.711C160.502 227.104 148.528 231.584 140.265 236.855C136.131 239.492 132.97 242.299 130.971 245.1C128.975 247.898 128.182 250.621 128.625 253.162Z" fill="black" stroke="black" stroke-width="2"/>
<path d="M129.443 257.851C129.886 260.391 131.553 262.686 134.378 264.643C137.207 266.603 141.132 268.175 145.914 269.257C155.473 271.421 168.256 271.586 181.981 269.193C195.705 266.801 207.679 262.32 215.942 257.049C220.076 254.412 223.237 251.605 225.236 248.804C227.232 246.007 228.024 243.283 227.581 240.743C227.139 238.202 225.471 235.908 222.647 233.951C219.818 231.991 215.893 230.419 211.111 229.337C201.552 227.173 188.768 227.008 175.044 229.4C161.319 231.793 149.345 236.274 141.082 241.545C136.949 244.181 133.787 246.988 131.789 249.79C129.793 252.587 129 255.311 129.443 257.851Z" stroke="black" stroke-width="2"/>
<path d="M130.086 261.535C130.528 264.075 132.196 266.37 135.02 268.327C137.849 270.287 141.774 271.859 146.556 272.941C156.115 275.105 168.899 275.27 182.623 272.877C196.348 270.485 208.322 266.004 216.585 260.733C220.718 258.096 223.88 255.289 225.878 252.488C227.874 249.691 228.667 246.967 228.224 244.427C227.781 241.886 226.114 239.592 223.289 237.635C220.46 235.675 216.535 234.103 211.754 233.021C202.194 230.857 189.411 230.692 175.686 233.085C161.962 235.477 149.988 239.958 141.725 245.229C137.591 247.865 134.43 250.672 132.431 253.474C130.435 256.271 129.643 258.995 130.086 261.535Z" stroke="black" stroke-width="2"/>
<path d="M158.342 233.426C152.663 234.247 152.039 231.551 152.454 229.897C154.55 229.215 161.364 226.761 164.692 226.287C163.876 226.851 162.702 227.455 165.978 228.825C170.073 230.537 160.677 234.201 167.668 233.678C174.227 233.188 170.405 236.069 168.887 236.439C167.673 236.735 164.985 237.647 163.792 238.066C165.478 235.029 163.404 236.446 160.101 235.65C156.798 234.855 165.441 232.399 158.342 233.426Z" fill="white" stroke="black" stroke-width="2"/>
<path d="M196.273 255.587C201.952 254.765 202.577 257.461 202.162 259.116C200.066 259.797 193.251 262.251 189.924 262.726C190.74 262.162 191.914 261.557 188.638 260.187C184.542 258.475 193.939 254.812 186.948 255.334C180.389 255.824 184.211 252.943 185.728 252.573C186.942 252.277 189.631 251.366 190.824 250.947C189.138 253.983 191.212 252.567 194.514 253.362C197.817 254.157 189.175 256.613 196.273 255.587Z" fill="white" stroke="black" stroke-width="2"/>
<path d="M128.625 253.162C129.068 255.702 130.736 257.997 133.56 259.954C136.389 261.914 140.314 263.485 145.096 264.568C154.655 266.732 167.439 266.896 181.163 264.504C194.887 262.111 206.861 257.631 215.124 252.36C219.258 249.723 222.419 246.916 224.418 244.115C226.414 241.317 227.206 238.594 226.764 236.053C226.321 233.513 224.653 231.218 221.829 229.261C219 227.301 215.075 225.73 210.293 224.647C200.734 222.483 187.95 222.319 174.226 224.711C160.502 227.104 148.528 231.584 140.265 236.855C136.131 239.492 132.97 242.299 130.971 245.1C128.975 247.898 128.182 250.621 128.625 253.162Z" stroke="black" stroke-width="2"/>
<path d="M154.625 248.629C154.807 249.671 155.498 250.665 156.781 251.554C158.067 252.445 159.885 253.179 162.143 253.69C166.655 254.711 172.727 254.794 179.272 253.653C185.817 252.512 191.503 250.379 195.403 247.892C197.355 246.647 198.817 245.341 199.726 244.067C200.632 242.797 200.946 241.628 200.764 240.586C200.583 239.543 199.892 238.549 198.609 237.661C197.322 236.77 195.505 236.035 193.247 235.524C188.735 234.503 182.663 234.42 176.118 235.561C169.573 236.702 163.887 238.835 159.987 241.322C158.035 242.567 156.573 243.873 155.664 245.147C154.757 246.417 154.444 247.587 154.625 248.629Z" fill="#8C74B7" stroke="black" stroke-width="2"/>
<path d="M149.781 170.45C149.373 172.786 147.839 174.904 145.224 176.715C142.606 178.53 138.968 179.987 134.53 180.992C125.658 183.001 113.788 183.154 101.041 180.932C88.2949 178.71 77.1773 174.549 69.5085 169.657C65.6721 167.21 62.7421 164.607 60.8918 162.014C59.0444 159.424 58.317 156.912 58.7243 154.576C59.1317 152.24 60.666 150.122 63.2807 148.31C65.8994 146.496 69.5372 145.038 73.9754 144.034C82.8471 142.025 94.7168 141.872 107.463 144.094C120.21 146.316 131.328 150.477 138.996 155.369C142.833 157.816 145.763 160.418 147.613 163.012C149.461 165.601 150.188 168.113 149.781 170.45Z" fill="black" stroke="black" stroke-width="2"/>
<path d="M149.021 174.808C148.614 177.144 147.079 179.262 144.465 181.074C141.846 182.888 138.208 184.346 133.77 185.35C124.898 187.359 113.028 187.512 100.282 185.29C87.5352 183.068 76.4176 178.907 68.7487 174.015C64.9123 171.568 61.9824 168.966 60.1321 166.372C58.2847 163.783 57.5573 161.271 57.9646 158.934C58.3719 156.598 59.9063 154.48 62.5209 152.669C65.1397 150.854 68.7774 149.397 73.2156 148.392C82.0874 146.383 93.9571 146.23 106.704 148.452C119.45 150.674 130.568 154.835 138.237 159.727C142.073 162.174 145.003 164.777 146.853 167.37C148.701 169.96 149.428 172.472 149.021 174.808Z" stroke="black" stroke-width="2"/>
<path d="M148.424 178.231C148.017 180.567 146.482 182.685 143.868 184.497C141.249 186.311 137.611 187.769 133.173 188.773C124.301 190.782 112.432 190.935 99.685 188.713C86.9384 186.491 75.8209 182.33 68.152 177.438C64.3156 174.991 61.3857 172.389 59.5353 169.795C57.6879 167.206 56.9606 164.694 57.3679 162.357C57.7752 160.021 59.3096 157.903 61.9242 156.092C64.543 154.277 68.1807 152.82 72.6189 151.815C81.4907 149.806 93.3604 149.653 106.107 151.875C118.854 154.097 129.971 158.258 137.64 163.15C141.476 165.597 144.406 168.2 146.257 170.793C148.104 173.383 148.831 175.895 148.424 178.231Z" stroke="black" stroke-width="2"/>
<path d="M122.236 152.123C127.513 152.886 128.094 150.381 127.708 148.843C125.76 148.21 119.428 145.93 116.336 145.489C117.094 146.013 118.185 146.575 115.14 147.847C111.335 149.438 120.066 152.843 113.57 152.357C107.475 151.902 111.027 154.579 112.437 154.923C113.565 155.198 116.064 156.045 117.172 156.434C115.605 153.613 117.532 154.929 120.601 154.19C123.671 153.451 115.64 151.169 122.236 152.123Z" fill="white" stroke="black" stroke-width="2"/>
<path d="M86.9884 172.716C81.7113 171.953 81.1308 174.458 81.5162 175.995C83.4639 176.629 89.7965 178.909 92.8886 179.35C92.1305 178.826 91.0393 178.264 94.0839 176.991C97.8895 175.4 89.1579 171.996 95.6541 172.481C101.749 172.937 98.1977 170.259 96.7875 169.916C95.6593 169.64 93.1607 168.793 92.0525 168.404C93.6188 171.225 91.692 169.909 88.6229 170.648C85.5537 171.387 93.5847 173.67 86.9884 172.716Z" fill="white" stroke="black" stroke-width="2"/>
<path d="M149.781 170.45C149.373 172.786 147.839 174.904 145.224 176.715C142.606 178.53 138.968 179.987 134.53 180.992C125.658 183.001 113.788 183.154 101.041 180.932C88.2949 178.71 77.1773 174.549 69.5085 169.657C65.6721 167.21 62.7421 164.607 60.8918 162.014C59.0444 159.424 58.317 156.912 58.7243 154.576C59.1317 152.24 60.666 150.122 63.2807 148.31C65.8994 146.496 69.5372 145.038 73.9754 144.034C82.8471 142.025 94.7168 141.872 107.463 144.094C120.21 146.316 131.328 150.477 138.996 155.369C142.833 157.816 145.763 160.418 147.613 163.012C149.461 165.601 150.188 168.113 149.781 170.45Z" stroke="black" stroke-width="2"/>
<path d="M125.621 166.238C125.456 167.182 124.829 168.091 123.647 168.91C122.461 169.731 120.782 170.411 118.689 170.884C114.507 171.83 108.874 171.908 102.799 170.849C96.7244 169.79 91.4501 167.811 87.8353 165.506C86.0259 164.352 84.6757 163.144 83.8377 161.97C83.0026 160.8 82.7202 159.732 82.8848 158.788C83.0494 157.844 83.6764 156.934 84.8582 156.116C86.044 155.295 87.7233 154.615 89.8164 154.141C93.998 153.195 99.631 153.117 105.706 154.176C111.781 155.235 117.055 157.215 120.67 159.52C122.479 160.674 123.83 161.882 124.668 163.056C125.503 164.226 125.785 165.294 125.621 166.238Z" fill="#D8C1F7" stroke="black" stroke-width="2"/>
<path fill-rule="evenodd" clip-rule="evenodd" d="M180.544 16.2119L185.067 15C185.832 24.6225 186.782 30.0662 191.788 40.0841L191.774 40.0881C192.122 40.5141 192.381 41.0035 192.527 41.5466C193.216 44.1194 191.101 46.9216 187.803 47.8054C184.504 48.6892 181.271 47.32 180.582 44.7472C179.893 42.1744 182.008 39.3722 185.306 38.4884C185.531 38.4281 185.756 38.3783 185.98 38.3387C183.365 32.1342 182.013 27.5069 181.149 21.4507L163.703 26.1254C164.484 32.7167 165.858 37.7624 169.749 45.6137C170.293 46.1248 170.691 46.7555 170.886 47.4824C171.575 50.0552 169.46 52.8573 166.162 53.7411C162.863 54.625 159.63 53.2558 158.941 50.683C158.252 48.1102 160.367 45.308 163.665 44.4242C163.828 44.3806 163.99 44.3425 164.153 44.3097C160.809 36.3926 159.517 31.0542 158.68 22.0942L159.619 21.8426L159.619 21.8425L180.547 16.2351L180.544 16.2119Z" fill="white"/>
<path fill-rule="evenodd" clip-rule="evenodd" d="M173.677 32.8798L178.199 34.0916C174.05 42.8071 172.151 47.9967 171.478 59.1758L171.463 59.1718C171.552 59.7151 171.532 60.2684 171.386 60.8114C170.697 63.3843 167.464 64.7534 164.166 63.8696C160.867 62.9858 158.752 60.1836 159.441 57.6108C160.131 55.038 163.364 53.6688 166.662 54.5527C166.887 54.613 167.107 54.6822 167.32 54.7597C168.158 48.0791 169.301 43.3957 171.581 37.719L154.135 33.0443C151.515 39.143 150.182 44.1996 149.626 52.9442C149.843 53.6593 149.872 54.4046 149.677 55.1315C148.988 57.7043 145.755 59.0735 142.456 58.1897C139.158 57.3059 137.043 54.5037 137.732 51.9309C138.421 49.3581 141.654 47.9889 144.953 48.8728C145.115 48.9163 145.275 48.9646 145.432 49.0172C146.495 40.489 148.045 35.22 151.8 27.0419L152.74 27.2935L152.74 27.2935L173.667 32.901L173.67 32.8939L173.677 32.8798Z" fill="#EFC404"/>
<path fill-rule="evenodd" clip-rule="evenodd" d="M172.834 32.3493L177.357 33.5611C173.207 42.2766 171.309 47.4662 170.636 58.6452L170.621 58.6412C170.71 59.1846 170.689 59.7379 170.544 60.2809C169.854 62.8537 166.621 64.2229 163.323 63.3391C160.025 62.4553 157.909 59.6531 158.599 57.0803C159.288 54.5075 162.521 53.1383 165.819 54.0221C166.045 54.0824 166.264 54.1517 166.478 54.2291C167.315 47.5486 168.458 42.8652 170.738 37.1885L153.292 32.5138C150.673 38.6125 149.34 43.6692 148.784 52.4139C149 53.129 149.029 53.8741 148.834 54.601C148.145 57.1738 144.912 58.543 141.614 57.6592C138.315 56.7754 136.2 53.9732 136.889 51.4004C137.579 48.8276 140.812 47.4584 144.11 48.3422C144.273 48.3858 144.433 48.4341 144.589 48.4868C145.652 39.9585 147.203 34.6895 150.958 26.5113L151.897 26.763L151.897 26.763L172.824 32.3704L172.828 32.3635L172.834 32.3493Z" fill="black"/>
<path fill-rule="evenodd" clip-rule="evenodd" d="M237.216 119.775L243.84 118C244.959 132.093 246.351 140.066 253.684 154.739L253.662 154.745C254.173 155.368 254.552 156.085 254.765 156.881C255.775 160.649 252.677 164.753 247.846 166.047C243.015 167.342 238.28 165.337 237.27 161.568C236.261 157.8 239.358 153.696 244.19 152.402C244.519 152.313 244.848 152.24 245.176 152.182C241.346 143.095 239.366 136.318 238.101 127.448L212.549 134.294C213.693 143.948 215.705 151.338 221.404 162.838C222.202 163.586 222.784 164.51 223.069 165.574C224.079 169.343 220.981 173.447 216.15 174.741C211.319 176.036 206.584 174.03 205.575 170.262C204.565 166.494 207.663 162.39 212.494 161.095C212.732 161.032 212.97 160.976 213.208 160.928C208.31 149.332 206.419 141.513 205.193 128.39L206.568 128.022L206.568 128.022L237.219 119.809L237.218 119.8L237.216 119.775Z" fill="white"/>
<path fill-rule="evenodd" clip-rule="evenodd" d="M227.157 144.187L233.781 145.962C227.704 158.727 224.923 166.328 223.937 182.701L223.915 182.695C224.046 183.491 224.015 184.301 223.802 185.096C222.793 188.865 218.058 190.87 213.227 189.576C208.396 188.281 205.298 184.177 206.308 180.409C207.317 176.641 212.052 174.635 216.883 175.93C217.213 176.018 217.534 176.119 217.847 176.233C219.074 166.448 220.748 159.589 224.087 151.275L198.535 144.428C194.699 153.36 192.747 160.766 191.932 173.574C192.249 174.621 192.292 175.713 192.006 176.777C190.997 180.546 186.262 182.551 181.431 181.257C176.6 179.962 173.502 175.858 174.512 172.09C175.521 168.322 180.256 166.316 185.087 167.611C185.325 167.675 185.559 167.745 185.789 167.822C187.346 155.332 189.617 147.615 195.116 135.637L196.492 136.005L196.492 136.005L227.142 144.218L227.144 144.215L227.157 144.187Z" fill="#EFC404"/>
<path fill-rule="evenodd" clip-rule="evenodd" d="M225.923 143.41L232.547 145.185C226.47 157.95 223.689 165.551 222.703 181.924L222.681 181.918C222.812 182.714 222.781 183.524 222.568 184.319C221.559 188.088 216.824 190.093 211.993 188.798C207.162 187.504 204.064 183.4 205.074 179.632C206.083 175.864 210.818 173.858 215.649 175.153C215.979 175.241 216.3 175.342 216.613 175.456C217.84 165.671 219.514 158.812 222.853 150.498L197.301 143.651C193.465 152.584 191.513 159.99 190.698 172.798C191.015 173.845 191.057 174.936 190.772 176C189.763 179.769 185.028 181.774 180.197 180.48C175.366 179.185 172.268 175.081 173.278 171.313C174.287 167.545 179.022 165.539 183.853 166.834C184.091 166.898 184.326 166.968 184.555 167.045C186.112 154.555 188.383 146.838 193.882 134.86L200.507 136.635L200.506 136.635L225.909 143.441L225.923 143.41Z" fill="black"/>
<path d="M180.032 94.9094C180.393 96.9795 181.753 98.866 184.094 100.488C186.438 102.112 189.702 103.421 193.691 104.324C201.665 106.129 212.342 106.269 223.812 104.269C235.281 102.269 245.281 98.5259 252.174 94.1288C255.622 91.929 258.25 89.5932 259.907 87.2713C261.56 84.9534 262.203 82.7178 261.842 80.6476C261.481 78.5775 260.12 76.691 257.78 75.0694C255.435 73.445 252.172 72.1361 248.183 71.2329C240.208 69.4277 229.532 69.2885 218.062 71.288C206.592 73.2875 196.593 77.0311 189.7 81.4282C186.251 83.628 183.623 85.9638 181.967 88.2857C180.313 90.6036 179.671 92.8392 180.032 94.9094Z" fill="black" stroke="black" stroke-width="2"/>
<path d="M180.718 98.8337C181.079 100.904 182.439 102.79 184.78 104.412C187.124 106.036 190.387 107.345 194.377 108.248C202.351 110.054 213.027 110.193 224.497 108.193C235.967 106.194 245.967 102.45 252.86 98.0531C256.308 95.8533 258.936 93.5176 260.593 91.1956C262.246 88.8777 262.888 86.6421 262.528 84.5719C262.167 82.5018 260.806 80.6153 258.465 78.9937C256.121 77.3693 252.858 76.0604 248.868 75.1573C240.894 73.352 230.218 73.2128 218.748 75.2123C207.278 77.2119 197.278 80.9554 190.385 85.3525C186.937 87.5523 184.309 89.8881 182.653 92.2101C180.999 94.5279 180.357 96.7636 180.718 98.8337Z" stroke="black" stroke-width="2"/>
<path d="M181.255 101.917C181.616 103.987 182.977 105.873 185.317 107.495C187.662 109.119 190.925 110.428 194.914 111.331C202.888 113.137 213.565 113.276 225.035 111.276C236.505 109.277 246.504 105.533 253.397 101.136C256.846 98.9364 259.473 96.6006 261.13 94.2786C262.783 91.9607 263.426 89.7251 263.065 87.6549C262.704 85.5848 261.343 83.6984 259.003 82.0768C256.658 80.4523 253.395 79.1434 249.406 78.2403C241.431 76.435 230.755 76.2958 219.285 78.2953C207.815 80.2949 197.816 84.0384 190.923 88.4355C187.474 90.6353 184.846 92.9711 183.19 95.2931C181.536 97.611 180.894 99.8466 181.255 101.917Z" stroke="black" stroke-width="2"/>
<path d="M204.742 78.4204C199.99 79.1077 199.467 76.8516 199.814 75.467C201.568 74.8964 207.271 72.843 210.056 72.4458C209.373 72.9179 208.391 73.424 211.132 74.5701C214.56 76.0028 206.696 79.069 212.547 78.6317C218.036 78.2214 214.837 80.6326 213.567 80.9423C212.551 81.1901 210.301 81.9531 209.303 82.3036C210.714 79.7627 208.978 80.9479 206.214 80.2823C203.45 79.6166 210.683 77.5613 204.742 78.4204Z" fill="white" stroke="black" stroke-width="2"/>
<path d="M236.486 96.9669C241.239 96.2796 241.762 98.5358 241.415 99.9203C239.66 100.491 233.957 102.544 231.173 102.942C231.855 102.469 232.838 101.963 230.096 100.817C226.669 99.3845 234.532 96.3183 228.682 96.7556C223.193 97.1659 226.391 94.7547 227.661 94.445C228.677 94.1973 230.928 93.4343 231.926 93.0837C230.515 95.6246 232.25 94.4394 235.014 95.1051C237.778 95.7707 230.546 97.826 236.486 96.9669Z" fill="white" stroke="black" stroke-width="2"/>
<path d="M180.032 94.9094C180.393 96.9795 181.753 98.866 184.094 100.488C186.438 102.112 189.702 103.421 193.691 104.324C201.665 106.129 212.342 106.269 223.812 104.269C235.281 102.269 245.281 98.5259 252.174 94.1288C255.622 91.929 258.25 89.5932 259.907 87.2713C261.56 84.9534 262.203 82.7178 261.842 80.6476C261.481 78.5775 260.12 76.691 257.78 75.0694C255.435 73.445 252.172 72.1361 248.183 71.2329C240.208 69.4277 229.532 69.2885 218.062 71.288C206.592 73.2875 196.593 77.0311 189.7 81.4282C186.251 83.628 183.623 85.9638 181.967 88.2857C180.313 90.6036 179.671 92.8392 180.032 94.9094Z" stroke="black" stroke-width="2"/>
<path d="M201.792 91.1158C201.935 91.9321 202.478 92.7303 203.528 93.4575C204.582 94.1875 206.082 94.7958 207.959 95.2206C211.709 96.0691 216.769 96.1402 222.23 95.1882C227.692 94.2361 232.429 92.4572 235.671 90.3897C237.294 89.3547 238.498 88.275 239.243 87.2313C239.985 86.1917 240.227 85.2567 240.085 84.4404C239.942 83.6242 239.399 82.826 238.349 82.0988C237.295 81.3687 235.795 80.7604 233.918 80.3357C230.168 79.4872 225.108 79.416 219.647 80.3681C214.185 81.3202 209.448 83.0991 206.206 85.1666C204.583 86.2015 203.378 87.2813 202.633 88.325C201.891 89.3646 201.65 90.2996 201.792 91.1158Z" fill="#8C74B7" stroke="black" stroke-width="2"/>
<path d="M140.455 97.4933C140.178 99.0809 139.132 100.548 137.288 101.826C135.44 103.106 132.856 104.145 129.68 104.864C123.332 106.301 114.818 106.415 105.662 104.818C96.5053 103.222 88.5321 100.235 83.0449 96.7346C80.2992 94.9831 78.2194 93.1308 76.9138 91.3009C75.6112 89.475 75.1232 87.74 75.4 86.1524C75.6768 84.5648 76.723 83.0972 78.5666 81.8198C80.4144 80.5396 82.9983 79.5004 86.1746 78.7813C92.5226 77.3442 101.036 77.2311 110.193 78.8273C119.349 80.4236 127.323 83.4108 132.81 86.9111C135.555 88.6626 137.635 90.5148 138.941 92.3448C140.244 94.1706 140.731 95.9057 140.455 97.4933Z" fill="black" stroke="black" stroke-width="2"/>
<path d="M139.907 100.633C139.63 102.22 138.584 103.688 136.741 104.965C134.893 106.246 132.309 107.285 129.133 108.004C122.785 109.441 114.271 109.554 105.114 107.958C95.9578 106.362 87.9846 103.374 82.4974 99.8741C79.7518 98.1227 77.6719 96.2704 76.3663 94.4404C75.0637 92.6146 74.5758 90.8795 74.8525 89.2919C75.1293 87.7043 76.1755 86.2368 78.0191 84.9594C79.8669 83.6792 82.4508 82.6399 85.6271 81.9208C91.9751 80.4837 100.489 80.3706 109.645 81.9668C118.802 83.5631 126.775 86.5503 132.262 90.0507C135.008 91.8021 137.088 93.6544 138.393 95.4843C139.696 97.3102 140.184 99.0452 139.907 100.633Z" stroke="black" stroke-width="2"/>
<path d="M139.477 103.099C139.2 104.687 138.154 106.155 136.311 107.432C134.463 108.712 131.879 109.752 128.703 110.471C122.355 111.908 113.841 112.021 104.684 110.425C95.5278 108.828 87.5546 105.841 82.0673 102.341C79.3217 100.589 77.2419 98.737 75.9363 96.9071C74.6337 95.0812 74.1457 93.3462 74.4225 91.7586C74.6993 90.171 75.7455 88.7034 77.5891 87.4261C79.4369 86.1458 82.0208 85.1066 85.1971 84.3875C91.5451 82.9504 100.059 82.8373 109.215 84.4335C118.372 86.0298 126.345 89.017 131.832 92.5173C134.578 94.2688 136.658 96.1211 137.963 97.951C139.266 99.7768 139.754 101.512 139.477 103.099Z" stroke="black" stroke-width="2"/>
<path d="M120.884 84.3364C124.686 84.8863 125.104 83.0813 124.827 81.9737C123.423 81.5172 118.861 79.8744 116.633 79.5567C117.179 79.9343 117.965 80.3392 115.772 81.2562C113.03 82.4023 119.321 84.8553 114.641 84.5055C110.249 84.1772 112.808 86.1062 113.824 86.354C114.637 86.5522 116.437 87.1626 117.235 87.443C116.107 85.4103 117.495 86.3584 119.706 85.8259C121.918 85.2934 116.131 83.6492 120.884 84.3364Z" fill="white" stroke="black" stroke-width="2"/>
<path d="M95.4885 99.1737C91.6864 98.6239 91.2682 100.429 91.5459 101.536C92.9492 101.993 97.5118 103.636 99.7396 103.953C99.1934 103.576 98.4072 103.171 100.601 102.254C103.343 101.108 97.0517 98.6548 101.732 99.0047C106.124 99.3329 103.565 97.4039 102.549 97.1562C101.736 96.958 99.9357 96.3476 99.1372 96.0671C100.266 98.0999 98.8775 97.1517 96.6662 97.6842C94.4549 98.2167 100.241 99.861 95.4885 99.1737Z" fill="white" stroke="black" stroke-width="2"/>
<path d="M140.455 97.4933C140.178 99.0809 139.132 100.548 137.288 101.826C135.44 103.106 132.856 104.145 129.68 104.864C123.332 106.301 114.818 106.415 105.662 104.818C96.5053 103.222 88.5321 100.235 83.0449 96.7346C80.2992 94.9831 78.2194 93.1308 76.9138 91.3009C75.6112 89.475 75.1232 87.74 75.4 86.1524C75.6768 84.5648 76.723 83.0972 78.5666 81.8198C80.4144 80.5396 82.9983 79.5004 86.1746 78.7813C92.5226 77.3442 101.036 77.2311 110.193 78.8273C119.349 80.4236 127.323 83.4108 132.81 86.9111C135.555 88.6626 137.635 90.5148 138.941 92.3448C140.244 94.1706 140.731 95.9057 140.455 97.4933Z" stroke="black" stroke-width="2"/>
<path d="M123.047 94.4585C122.945 95.0429 122.553 95.6399 121.741 96.2017C120.926 96.7664 119.753 97.2453 118.267 97.5816C115.298 98.2533 111.278 98.312 106.928 97.5537C102.578 96.7954 98.8151 95.3799 96.2487 93.7433C94.9636 92.9237 94.0219 92.0763 93.4457 91.269C92.8724 90.4657 92.7051 89.7712 92.807 89.1868C92.9089 88.6023 93.3013 88.0054 94.1126 87.4435C94.9279 86.8788 96.1008 86.4 97.5875 86.0636C100.556 85.392 104.576 85.3333 108.926 86.0916C113.276 86.8498 117.039 88.2654 119.605 89.902C120.891 90.7215 121.832 91.569 122.408 92.3763C122.982 93.1795 123.149 93.874 123.047 94.4585Z" fill="#8C74B7" stroke="black" stroke-width="2"/>
<path d="M179.871 325.105C180.302 326.715 179.958 328.545 178.789 330.539C177.617 332.537 175.653 334.627 172.999 336.674C167.696 340.765 159.799 344.557 150.563 347.032C141.328 349.506 132.593 350.171 125.954 349.28C122.633 348.834 119.887 348.006 117.873 346.861C115.863 345.719 114.65 344.306 114.219 342.696C113.787 341.086 114.131 339.256 115.301 337.262C116.473 335.264 118.436 333.173 121.09 331.126C126.394 327.036 134.291 323.244 143.526 320.769C152.762 318.294 161.497 317.63 168.135 318.521C171.457 318.967 174.203 319.795 176.217 320.94C178.227 322.082 179.439 323.494 179.871 325.105Z" fill="#D8C1F7" stroke="black" stroke-width="2"/>
<path d="M179.298 303.356C179.73 304.967 179.386 306.796 178.217 308.79C177.044 310.788 175.081 312.879 172.427 314.926C167.124 319.017 159.227 322.808 149.991 325.283C140.755 327.758 132.021 328.423 125.382 327.531C122.06 327.086 119.315 326.257 117.3 325.113C115.291 323.971 114.078 322.558 113.646 320.948C113.215 319.337 113.559 317.507 114.728 315.513C115.9 313.515 117.864 311.425 120.518 309.378C125.821 305.287 133.718 301.495 142.954 299.021C152.19 296.546 160.924 295.881 167.563 296.772C170.885 297.218 173.63 298.047 175.644 299.191C177.654 300.333 178.867 301.746 179.298 303.356Z" fill="black" stroke="black" stroke-width="2"/>
<path d="M180.118 314.304C180.55 315.915 180.206 317.745 179.037 319.738C177.865 321.737 175.901 323.827 173.247 325.874C167.944 329.965 160.047 333.757 150.811 336.231C141.575 338.706 132.841 339.371 126.202 338.48C122.88 338.034 120.135 337.205 118.121 336.061C116.111 334.919 114.898 333.506 114.467 331.896C114.035 330.285 114.379 328.456 115.548 326.462C116.72 324.464 118.684 322.373 121.338 320.326C126.641 316.235 134.538 312.443 143.774 309.969C153.01 307.494 161.744 306.829 168.383 307.72C171.705 308.166 174.45 308.995 176.465 310.139C178.474 311.281 179.687 312.694 180.118 314.304Z" stroke="black" stroke-width="2"/>
<path d="M155.32 299.56C159.105 298.427 158.714 296.563 157.975 295.649C156.468 295.831 151.501 296.273 149.285 296.941C149.958 297.057 150.867 297.094 149.217 298.899C147.155 301.155 154.086 300.721 149.568 302.42C145.329 304.015 148.551 304.707 149.607 304.498C150.451 304.331 152.394 304.121 153.26 304.037C151.328 302.629 153.033 302.913 154.866 301.459C156.698 300.005 150.589 300.976 155.32 299.56Z" fill="white" stroke="black" stroke-width="2"/>
<path d="M138.05 324.393C134.265 325.526 134.656 327.391 135.395 328.304C136.901 328.122 141.869 327.68 144.085 327.012C143.412 326.896 142.503 326.859 144.152 325.054C146.214 322.798 139.284 323.233 143.802 321.533C148.04 319.939 144.818 319.247 143.763 319.455C142.919 319.622 140.976 319.832 140.109 319.916C142.042 321.324 140.336 321.04 138.504 322.494C136.672 323.948 142.781 322.977 138.05 324.393Z" fill="white" stroke="black" stroke-width="2"/>
<path d="M179.298 303.356C179.73 304.967 179.386 306.796 178.217 308.79C177.044 310.788 175.081 312.879 172.427 314.926C167.124 319.017 159.227 322.808 149.991 325.283C140.755 327.758 132.021 328.423 125.382 327.531C122.06 327.086 119.315 326.257 117.3 325.113C115.291 323.971 114.078 322.558 113.646 320.948C113.215 319.337 113.559 317.507 114.728 315.513C115.9 313.515 117.864 311.425 120.518 309.378C125.821 305.287 133.718 301.495 142.954 299.021C152.19 296.546 160.924 295.881 167.563 296.772C170.885 297.218 173.63 298.047 175.644 299.191C177.654 300.333 178.867 301.746 179.298 303.356Z" stroke="black" stroke-width="2"/>
<path d="M161.746 308.059C161.906 308.658 161.796 309.393 161.28 310.272C160.761 311.156 159.871 312.113 158.628 313.072C156.145 314.986 152.417 316.782 148.028 317.958C143.64 319.134 139.512 319.443 136.405 319.026C134.85 318.817 133.6 318.434 132.709 317.928C131.823 317.424 131.359 316.843 131.199 316.244C131.038 315.645 131.149 314.911 131.665 314.031C132.184 313.147 133.074 312.19 134.317 311.232C136.799 309.317 140.528 307.521 144.917 306.345C149.305 305.169 153.432 304.861 156.539 305.277C158.095 305.486 159.344 305.87 160.236 306.376C161.122 306.879 161.586 307.46 161.746 308.059Z" fill="#D8C1F7" stroke="black" stroke-width="2"/>
<path fill-rule="evenodd" clip-rule="evenodd" d="M55.0971 221.701L58.9986 214.944C71.2383 225.382 78.7731 230.677 96.4777 236.582L96.4649 236.605C97.3779 236.695 98.2596 236.967 99.071 237.436C102.915 239.655 103.725 245.449 100.879 250.378C98.034 255.306 92.611 257.502 88.7669 255.283C84.9228 253.063 84.1132 247.269 86.9586 242.341C87.1527 242.004 87.3588 241.681 87.5756 241.371C77.1833 237.14 70.1373 233.281 61.9829 227.162L46.9332 253.229C55.6207 260.076 63.1855 264.403 77.0222 269.07C78.2664 269.03 79.4783 269.305 80.5642 269.932C84.4083 272.151 85.2179 277.945 82.3725 282.874C79.5271 287.802 74.1042 289.998 70.2601 287.779C66.416 285.559 65.6063 279.765 68.4517 274.837C68.5921 274.593 68.7387 274.357 68.8911 274.127C55.6216 268.738 47.8088 263.969 36.264 254.398L40.1655 247.64L40.1656 247.64L55.127 221.726L55.1126 221.714L55.0971 221.701Z" fill="white"/>
<path fill-rule="evenodd" clip-rule="evenodd" d="M66.6453 249.436L73.4029 245.534C78.7837 260.694 82.6615 269.047 95.0415 283.013L95.0192 283.026C95.7645 283.561 96.3923 284.237 96.8608 285.049C99.0802 288.893 96.8841 294.316 91.9558 297.161C87.0274 300.007 81.233 299.197 79.0136 295.353C76.7942 291.509 78.9902 286.086 83.9186 283.241C84.2548 283.046 84.5951 282.869 84.9379 282.709C78.0529 273.849 73.8807 266.984 69.878 257.608L43.811 272.657C47.9112 282.93 52.299 290.46 61.9481 301.42C63.0458 302.008 63.9583 302.852 64.5854 303.938C66.8048 307.782 64.6088 313.205 59.6804 316.05C54.752 318.896 48.9576 318.086 46.7382 314.242C44.5188 310.398 46.7148 304.975 51.6432 302.129C51.8862 301.989 52.1314 301.858 52.3781 301.735C43.581 290.433 39.1992 282.397 33.9871 268.335L35.3906 267.525L35.3904 267.525L66.6587 249.472L66.6511 249.451L66.6453 249.436Z" fill="#EFC404"/>
<path fill-rule="evenodd" clip-rule="evenodd" d="M65.0272 249.803L71.7848 245.902C77.1655 261.062 81.0434 269.414 93.4234 283.381L93.4011 283.394C94.1464 283.929 94.7742 284.605 95.2427 285.417C97.4621 289.261 95.266 294.684 90.3376 297.529C85.4093 300.374 79.6149 299.565 77.3955 295.721C75.176 291.877 77.3721 286.454 82.3005 283.608C82.6367 283.414 82.977 283.237 83.3198 283.077C76.4348 274.217 72.2626 267.352 68.26 257.975L42.193 273.025C46.2932 283.298 50.6811 290.828 60.3302 301.788C61.4278 302.375 62.3402 303.219 62.9673 304.305C65.1867 308.15 62.9906 313.572 58.0623 316.418C53.1339 319.263 47.3395 318.454 45.1201 314.609C42.9007 310.765 45.0967 305.342 50.0251 302.497C50.2682 302.357 50.5133 302.225 50.7601 302.103C41.963 290.801 37.5811 282.764 32.369 268.703L33.7726 267.892L39.1266 264.801L65.0407 249.84L65.0399 249.837L65.0272 249.803Z" fill="black"/>
<path d="M331.359 183.707C330.842 185.635 331.259 187.808 332.634 190.152C334.011 192.499 336.312 194.946 339.408 197.334C345.597 202.108 354.801 206.525 365.558 209.408C376.314 212.29 386.495 213.066 394.241 212.026C398.117 211.506 401.332 210.538 403.699 209.193C406.061 207.851 407.508 206.178 408.025 204.25C408.541 202.323 408.124 200.149 406.75 197.806C405.373 195.458 403.072 193.012 399.976 190.624C393.787 185.85 384.582 181.432 373.826 178.55C363.07 175.668 352.889 174.891 345.143 175.931C341.267 176.451 338.052 177.419 335.685 178.764C333.323 180.106 331.875 181.78 331.359 183.707Z" fill="#D8C1F7" stroke="black" stroke-width="2"/>
<path d="M344.505 165.736C343.988 167.664 344.405 169.837 345.78 172.18C347.157 174.528 349.457 176.974 352.554 179.362C358.743 184.136 367.947 188.554 378.704 191.436C389.46 194.318 399.641 195.095 407.387 194.055C411.263 193.535 414.478 192.567 416.844 191.222C419.207 189.88 420.654 188.206 421.171 186.279C421.687 184.351 421.27 182.178 419.896 179.834C418.519 177.487 416.218 175.041 413.122 172.652C406.933 167.879 397.728 163.461 386.972 160.579C376.216 157.696 366.035 156.92 358.289 157.96C354.413 158.48 351.198 159.448 348.831 160.793C346.469 162.135 345.021 163.808 344.505 165.736Z" fill="black" stroke="black" stroke-width="2"/>
<path d="M339.346 175.72C338.83 177.648 339.247 179.821 340.621 182.164C341.998 184.512 344.299 186.958 347.395 189.346C353.584 194.12 362.789 198.538 373.545 201.42C384.301 204.302 394.482 205.079 402.228 204.039C406.104 203.519 409.319 202.551 411.686 201.206C414.048 199.864 415.496 198.19 416.012 196.263C416.529 194.335 416.112 192.162 414.737 189.818C413.36 187.471 411.06 185.025 407.963 182.636C401.774 177.863 392.57 173.445 381.813 170.563C371.057 167.68 360.876 166.904 353.13 167.944C349.254 168.464 346.039 169.432 343.672 170.777C341.31 172.119 339.863 173.792 339.346 175.72Z" stroke="black" stroke-width="2"/>
<path d="M372.549 161.364C368.147 160.046 368.602 157.878 369.46 156.816C371.213 157.027 376.99 157.541 379.567 158.318C378.784 158.453 377.727 158.496 379.645 160.595C382.043 163.219 373.983 162.713 379.237 164.69C384.167 166.544 380.42 167.349 379.193 167.106C378.211 166.912 375.951 166.668 374.943 166.571C377.191 164.933 375.208 165.263 373.077 163.572C370.946 161.882 378.051 163.01 372.549 161.364Z" fill="white" stroke="black" stroke-width="2"/>
<path d="M392.633 190.244C397.034 191.561 396.58 193.73 395.721 194.792C393.968 194.581 388.192 194.066 385.615 193.29C386.397 193.155 387.454 193.111 385.536 191.012C383.138 188.389 391.198 188.894 385.944 186.918C381.014 185.063 384.761 184.259 385.988 184.501C386.97 184.695 389.23 184.939 390.238 185.037C387.99 186.674 389.974 186.344 392.105 188.035C394.236 189.726 387.13 188.597 392.633 190.244Z" fill="white" stroke="black" stroke-width="2"/>
<path d="M344.505 165.736C343.988 167.664 344.405 169.837 345.78 172.18C347.157 174.528 349.457 176.974 352.554 179.362C358.743 184.136 367.947 188.554 378.704 191.436C389.46 194.318 399.641 195.095 407.387 194.055C411.263 193.535 414.478 192.567 416.844 191.222C419.207 189.88 420.654 188.206 421.171 186.279C421.687 184.351 421.27 182.178 419.896 179.834C418.519 177.487 416.218 175.041 413.122 172.652C406.933 167.879 397.728 163.461 386.972 160.579C376.216 157.696 366.035 156.92 358.289 157.96C354.413 158.48 351.198 159.448 348.831 160.793C346.469 162.135 345.021 163.808 344.505 165.736Z" stroke="black" stroke-width="2"/>
<path d="M364.918 171.206C364.716 171.957 364.862 172.857 365.477 173.904C366.094 174.956 367.146 176.084 368.602 177.206C371.51 179.449 375.867 181.546 380.986 182.917C386.106 184.289 390.928 184.652 394.567 184.164C396.389 183.919 397.864 183.469 398.924 182.866C399.98 182.267 400.557 181.56 400.758 180.809C400.959 180.058 400.813 179.158 400.199 178.111C399.581 177.059 398.53 175.931 397.074 174.809C394.166 172.566 389.809 170.469 384.689 169.098C379.57 167.726 374.748 167.363 371.108 167.851C369.286 168.096 367.812 168.546 366.751 169.149C365.695 169.748 365.119 170.455 364.918 171.206Z" fill="#D8C1F7" stroke="black" stroke-width="2"/>
<path fill-rule="evenodd" clip-rule="evenodd" d="M368.137 82.1212L372.322 81C373.029 89.9026 373.908 94.9391 378.54 104.208L378.526 104.211C378.849 104.605 379.088 105.058 379.223 105.561C379.861 107.941 377.904 110.533 374.852 111.351C371.801 112.169 368.81 110.902 368.172 108.522C367.534 106.141 369.491 103.549 372.543 102.731C372.751 102.675 372.959 102.629 373.166 102.593C370.747 96.8524 369.496 92.5712 368.697 86.9681L352.556 91.293C353.278 97.3913 354.549 102.06 358.149 109.324C358.653 109.796 359.021 110.38 359.201 111.052C359.839 113.433 357.882 116.025 354.831 116.843C351.779 117.661 348.788 116.394 348.15 114.014C347.512 111.633 349.469 109.041 352.521 108.223C352.671 108.183 352.822 108.147 352.972 108.117C349.878 100.792 348.683 95.8532 347.909 87.5636L348.778 87.3307L348.778 87.3306L368.139 82.1427L368.137 82.1212Z" fill="white"/>
<path fill-rule="evenodd" clip-rule="evenodd" d="M361.783 97.5422L365.967 98.6634C362.129 106.727 360.372 111.528 359.749 121.871L359.735 121.867C359.818 122.37 359.799 122.882 359.664 123.384C359.026 125.765 356.035 127.031 352.984 126.214C349.932 125.396 347.975 122.804 348.613 120.423C349.251 118.043 352.242 116.776 355.293 117.594C355.502 117.65 355.705 117.714 355.902 117.785C356.677 111.604 357.735 107.271 359.844 102.019L343.703 97.6945C341.28 103.337 340.047 108.015 339.532 116.105C339.732 116.767 339.759 117.457 339.579 118.129C338.941 120.51 335.95 121.776 332.899 120.959C329.847 120.141 327.89 117.549 328.528 115.168C329.166 112.788 332.157 111.521 335.208 112.339C335.359 112.379 335.507 112.424 335.651 112.472C336.635 104.582 338.069 99.7074 341.543 92.1411L342.413 92.374L342.413 92.3739L361.774 97.5618L361.779 97.5507L361.783 97.5422Z" fill="#EFC404"/>
<path fill-rule="evenodd" clip-rule="evenodd" d="M361.004 97.0515L365.188 98.1727C361.349 106.236 359.592 111.038 358.97 121.38L358.956 121.376C359.038 121.879 359.019 122.391 358.884 122.894C358.247 125.274 355.256 126.541 352.204 125.723C349.152 124.905 347.195 122.313 347.833 119.932C348.471 117.552 351.462 116.285 354.514 117.103C354.722 117.159 354.925 117.223 355.123 117.295C355.898 111.114 356.955 106.781 359.065 101.529L342.924 97.2039C340.5 102.846 339.267 107.525 338.752 115.615C338.952 116.277 338.979 116.966 338.799 117.639C338.161 120.019 335.17 121.286 332.119 120.468C329.067 119.65 327.11 117.058 327.748 114.677C328.386 112.297 331.377 111.03 334.428 111.848C334.579 111.888 334.727 111.933 334.872 111.982C335.855 104.091 337.29 99.2167 340.764 91.6504L344.948 92.7716L344.948 92.7716L360.995 97.0712L360.995 97.0695L361.004 97.0515Z" fill="black"/>
<path d="M296.111 78.7316C296.111 78.7316 318.451 76.9765 325.626 104.794C328.048 92.1766 316.187 63.6881 296.111 78.7316Z" fill="#FD8BA4" stroke="black" stroke-width="3" stroke-miterlimit="10"/>
<path d="M242.936 307.528C242.936 307.528 233.556 317.504 232.809 334.661C232.809 334.661 205.583 330.231 208.562 346.522C211.671 363.548 238.962 356.485 241.795 350.295C244.628 344.105 237.3 328.906 247.976 313.982C258.652 299.059 242.936 307.528 242.936 307.528Z" fill="black" stroke="black" stroke-width="3" stroke-miterlimit="10"/>
<path d="M374.462 42.86C374.462 42.86 363.518 53.6686 327.278 21.2108C286.498 -15.3306 274.607 65.5546 274.607 65.5546L257.811 233.014C257.811 233.014 254.467 228.729 256.073 208.292C257.68 187.856 217.631 178.39 196.532 223.846C182.316 254.492 191.653 273.664 213.18 272.207C213.18 272.207 233.789 338.778 264.125 328.284C294.46 317.789 299.036 313.489 304.095 273.986C309.154 234.484 319.457 76.691 319.457 76.691C319.457 76.691 321.067 34.0793 334.689 44.5223C348.311 54.9653 369.119 60.961 379.421 54.8417C387.157 50.2431 389.593 38.0081 374.462 42.86Z" fill="#FD8BA4" stroke="black" stroke-width="3" stroke-miterlimit="10"/>
<path d="M332.889 42.7495C332.889 42.7495 312.584 27.6905 307.343 77.2763C304.975 99.6592 299.497 166.396 297.98 192.989C292.449 289.873 281.455 321.271 281.455 321.271C281.455 321.271 304.046 321.107 307.824 236.21C309.384 200.955 313.674 148.143 317.098 106.942C320.016 71.8762 318.108 44.0733 332.889 42.7495Z" fill="black" stroke="black" stroke-width="3" stroke-miterlimit="10"/>
<path d="M215.38 210.648C206.222 220.042 190.483 251.37 204.949 259.322C219.415 267.274 253.119 224.438 246.348 206.702C244.99 203.146 235.711 217.475 226.272 217.298C216.833 217.12 224.534 201.253 215.38 210.648Z" fill="black" stroke="black" stroke-width="3" stroke-miterlimit="10"/>
<path d="M213.268 271.424C213.268 271.424 228.618 268.373 235.376 255.965C235.376 255.965 244.973 332.134 271.204 325.008C271.204 325.008 255.995 334.136 242.548 323.066C229.101 311.996 214.557 278.481 213.268 271.424Z" fill="#8C74B7"/>
<path d="M266.621 311.874C266.509 319.039 265.145 325.311 275.018 339.373C275.018 339.373 250.72 352.435 263.001 363.545C275.832 375.158 293.181 352.938 291.655 346.293C290.128 339.648 275.067 332.062 274.444 313.704C273.821 295.345 266.732 304.71 266.621 311.874Z" fill="black" stroke="black" stroke-width="3" stroke-miterlimit="10"/>
<path d="M374.462 42.8598C374.462 42.8598 361.615 52.6912 327.278 21.2107C286.917 -15.7914 274.607 65.5545 274.607 65.5545L257.811 233.014C257.811 233.014 254.467 228.729 256.073 208.292C257.68 187.855 217.631 178.39 196.532 223.845C182.316 254.492 191.653 273.664 213.18 272.207C213.18 272.207 233.789 338.778 264.125 328.284C294.46 317.789 299.036 313.489 304.095 273.986C309.154 234.484 319.457 76.6908 319.457 76.6908C319.457 76.6908 321.099 35.6638 334.728 46.1075C348.357 56.5513 371.82 59.6254 379.417 54.8411C387.014 50.0568 389.593 38.0079 374.462 42.8598Z" stroke="black" stroke-width="3" stroke-miterlimit="10"/>
<path d="M281.931 119.34L281.528 119.3C280.176 119.168 278.973 120.157 278.841 121.508L266.373 248.808C266.24 250.16 267.229 251.363 268.581 251.496L268.983 251.535C270.335 251.667 271.539 250.679 271.671 249.327L284.139 122.027C284.271 120.675 283.282 119.472 281.931 119.34Z" fill="#8C74B7" stroke="black" stroke-width="3" stroke-linecap="round" stroke-linejoin="round"/>
<path d="M281.147 119.263L280.745 119.224C279.393 119.091 278.189 120.08 278.057 121.432L265.589 248.731C265.457 250.083 266.446 251.287 267.797 251.419L268.2 251.458C269.552 251.591 270.755 250.602 270.888 249.25L283.355 121.951C283.488 120.599 282.499 119.396 281.147 119.263Z" fill="#8C74B7" stroke="black" stroke-width="3" stroke-linecap="round" stroke-linejoin="round"/>
<path d="M270.785 115.872L270.383 115.833C269.031 115.7 267.827 116.689 267.695 118.041L255.227 245.341C255.095 246.692 256.084 247.896 257.435 248.028L257.838 248.067C259.19 248.2 260.393 247.211 260.525 245.859L272.993 118.56C273.125 117.208 272.137 116.005 270.785 115.872Z" fill="#8C74B7" stroke="black" stroke-width="3" stroke-linecap="round" stroke-linejoin="round"/>
<path d="M310.275 122.127L309.872 122.099C308.517 122.005 307.342 123.027 307.248 124.382L298.384 251.983C298.29 253.338 299.312 254.513 300.667 254.607L301.07 254.635C302.426 254.729 303.6 253.707 303.694 252.352L312.558 124.751C312.652 123.396 311.63 122.221 310.275 122.127Z" fill="#8C74B7" stroke="black" stroke-width="3" stroke-linecap="round" stroke-linejoin="round"/>
<path d="M256.084 208.293C256.084 208.293 255.104 226.415 246.783 242.628L255.451 263.28C263.234 252.557 260.577 249.482 257.822 233.015C257.822 233.015 255.054 222.844 256.084 208.293Z" fill="black" stroke="black" stroke-width="3" stroke-miterlimit="10"/>
<path d="M270.818 74.0397C270.818 74.0397 270.942 44.5906 285.574 32.5726C299.354 21.2474 304.516 13.0284 310.554 12.0491C313.572 11.5502 320.614 10.2593 326.368 16.3694C326.742 16.7722 330.757 22.6571 329.281 22.9922C327.228 23.4721 320.769 16.4508 317.099 15.4214C310.792 13.6541 303.03 23.5624 303.024 32.301C303.019 48.5376 309.588 66.209 312.868 75.8185C312.868 75.8185 303.689 75.1172 303.617 74.9125C298.012 59.1369 299.804 39.8681 294.289 36.593C288.677 33.2646 275.981 64.2795 277.684 72.4166C277.674 72.4155 272.959 72.4078 270.818 74.0397Z" fill="#8C74B7" stroke="black" stroke-width="3" stroke-miterlimit="10"/>
<path d="M272.982 128.762C284.248 129.866 294.593 118.379 296.089 103.106C297.585 87.8323 289.665 74.5565 278.399 73.4531C267.133 72.3498 256.788 83.8367 255.292 99.1099C253.797 114.383 261.717 127.659 272.982 128.762Z" fill="#FCFCFC" stroke="black" stroke-width="3" stroke-miterlimit="10"/>
<path d="M269.483 99.9761L280.529 96.9429C279.992 89.341 276.25 83.3986 271.155 82.8996C265.059 82.3026 259.347 89.7098 258.394 99.4429C257.441 109.176 261.61 117.562 267.702 118.159C272.735 118.652 277.506 113.682 279.554 106.451L269.483 99.9761Z" fill="black"/>
<path d="M266.927 77.477C266.927 77.477 288.83 74.9433 296.005 102.771C298.421 90.139 286.991 62.4324 266.927 77.477Z" fill="black" stroke="black" stroke-width="3" stroke-miterlimit="10"/>
<path d="M302.518 130.465C313.784 131.568 324.129 120.081 325.625 104.808C327.121 89.5351 319.201 76.2592 307.935 75.1559C296.669 74.0525 286.324 85.5395 284.828 100.813C283.333 116.086 291.253 129.362 302.518 130.465Z" fill="#FCFCFC" stroke="black" stroke-width="3" stroke-miterlimit="10"/>
<path d="M301.727 103.016L313.254 99.8912C312.685 92.0225 308.766 85.9054 303.454 85.3851C297.097 84.7625 291.142 92.4095 290.156 102.469C289.171 112.529 293.529 121.186 299.886 121.808C305.141 122.323 310.118 117.19 312.244 109.718L301.727 103.016Z" fill="black"/>
<path d="M296.111 78.7316C296.111 78.7316 318.451 76.9765 325.626 104.794C328.048 92.1766 316.187 63.6881 296.111 78.7316Z" fill="black" stroke="black" stroke-width="3" stroke-miterlimit="10"/>
<path d="M221.698 212.932C221.698 212.932 227.521 253.219 233.783 243.929C240.046 234.639 250.343 222.54 247.595 208.055C244.848 193.57 229.945 226.525 221.698 212.932Z" fill="#8C74B7"/>
<path d="M298.172 161.723C301.909 162.089 305.352 158.171 305.861 152.972C306.37 147.772 303.753 143.261 300.016 142.895C296.279 142.529 292.837 146.447 292.327 151.646C291.818 156.845 294.435 161.357 298.172 161.723Z" fill="#FD8BA4" stroke="black" stroke-width="3" stroke-miterlimit="10"/>
<path d="M295.675 187.22C299.412 187.586 302.855 183.668 303.364 178.468C303.873 173.269 301.256 168.758 297.519 168.392C293.782 168.026 290.339 171.944 289.83 177.143C289.321 182.342 291.938 186.854 295.675 187.22Z" fill="#FD8BA4" stroke="black" stroke-width="3" stroke-miterlimit="10"/>
<path d="M291.06 216.464C295.575 216.906 299.733 212.173 300.348 205.892C300.963 199.611 297.802 194.161 293.288 193.719C288.774 193.277 284.616 198.01 284 204.291C283.385 210.571 286.546 216.021 291.06 216.464Z" fill="black" stroke="black" stroke-width="3" stroke-miterlimit="10"/>
<path d="M299.739 161.876C303.476 162.242 306.918 158.324 307.428 153.125C307.937 147.926 305.32 143.414 301.583 143.048C297.846 142.682 294.403 146.6 293.894 151.8C293.385 156.999 296.002 161.51 299.739 161.876Z" fill="#FD8BA4" stroke="black" stroke-width="3" stroke-miterlimit="10"/>
<path d="M306 174.765C308.179 174.979 310.186 172.694 310.483 169.662C310.78 166.629 309.254 163.998 307.075 163.785C304.896 163.571 302.889 165.857 302.592 168.889C302.295 171.921 303.821 174.552 306 174.765Z" fill="#FCFCFC" stroke="black" stroke-width="3" stroke-miterlimit="10"/>
<path d="M298.135 230.439C302.068 230.824 305.691 226.699 306.227 221.226C306.763 215.752 304.009 211.002 300.076 210.617C296.142 210.232 292.519 214.357 291.983 219.831C291.447 225.304 294.201 230.054 298.135 230.439Z" fill="#FCFCFC" stroke="black" stroke-width="3" stroke-miterlimit="10"/>
<path d="M296.568 230.285C300.501 230.671 304.125 226.546 304.661 221.072C305.197 215.599 302.443 210.849 298.509 210.464C294.576 210.079 290.953 214.203 290.416 219.677C289.88 225.151 292.635 229.9 296.568 230.285Z" fill="#FCFCFC" stroke="black" stroke-width="3" stroke-miterlimit="10"/>
<path d="M297.743 230.401C301.677 230.786 305.3 226.661 305.836 221.187C306.372 215.714 303.618 210.964 299.684 210.579C295.751 210.194 292.128 214.319 291.592 219.792C291.056 225.266 293.81 230.015 297.743 230.401Z" fill="#FCFCFC" stroke="black" stroke-width="3" stroke-miterlimit="10"/>
<path d="M291.184 169.748C293.655 169.99 295.899 167.729 296.196 164.696C296.493 161.664 294.731 159.01 292.259 158.768C289.788 158.526 287.544 160.788 287.247 163.82C286.95 166.852 288.712 169.506 291.184 169.748Z" fill="#FCFCFC" stroke="black" stroke-width="3" stroke-miterlimit="10"/>
<path d="M291.575 169.787C294.047 170.029 296.291 167.767 296.588 164.735C296.885 161.703 295.122 159.048 292.651 158.806C290.179 158.564 287.935 160.826 287.638 163.858C287.341 166.89 289.104 169.545 291.575 169.787Z" fill="#FCFCFC" stroke="black" stroke-width="3" stroke-miterlimit="10"/>
<path d="M297.242 187.373C300.979 187.739 304.421 183.821 304.93 178.622C305.44 173.423 302.823 168.911 299.086 168.545C295.348 168.179 291.906 172.097 291.397 177.296C290.888 182.496 293.504 187.007 297.242 187.373Z" fill="#FD8BA4" stroke="black" stroke-width="3" stroke-miterlimit="10"/>
<path d="M292.954 216.649C297.468 217.091 301.626 212.358 302.241 206.077C302.856 199.797 299.696 194.347 295.181 193.904C290.667 193.462 286.509 198.195 285.894 204.476C285.279 210.757 288.44 216.207 292.954 216.649Z" fill="#FD8BA4" stroke="black" stroke-width="3" stroke-miterlimit="10"/>
<path d="M285.221 249.735C290.705 250.272 295.756 244.522 296.503 236.891C297.251 229.261 293.411 222.639 287.927 222.102C282.444 221.565 277.393 227.316 276.645 234.946C275.898 242.577 279.737 249.198 285.221 249.735Z" fill="black" stroke="black" stroke-width="3" stroke-miterlimit="10"/>
<path d="M287.524 249.961C293.007 250.498 298.058 244.747 298.806 237.117C299.553 229.486 295.714 222.865 290.23 222.328C284.746 221.791 279.695 227.541 278.948 235.172C278.2 242.802 282.04 249.424 287.524 249.961Z" fill="#FD8BA4" stroke="black" stroke-width="3" stroke-miterlimit="10"/>
<path d="M278.859 291.512C285.791 292.191 292.176 284.923 293.12 275.28C294.065 265.637 289.211 257.269 282.28 256.59C275.348 255.911 268.963 263.178 268.019 272.822C267.074 282.465 271.928 290.833 278.859 291.512Z" fill="black" stroke="black" stroke-width="3" stroke-miterlimit="10"/>
<path d="M281.768 291.797C288.699 292.476 295.084 285.208 296.029 275.565C296.973 265.922 292.119 257.554 285.188 256.875C278.256 256.196 271.871 263.463 270.927 273.107C269.982 282.75 274.836 291.118 281.768 291.797Z" fill="#FD8BA4" stroke="black" stroke-width="3" stroke-miterlimit="10"/>
<path d="M307.75 149.832C307.75 149.832 314.872 149.893 315.966 146.833C315.966 146.833 317.936 150.984 314.995 152.676C312.054 154.369 303.336 154.306 302.175 154.192C301.015 154.079 298.728 152.273 298.728 152.273C298.728 152.273 301.68 149.791 303.315 149.951C304.794 150.022 306.277 149.982 307.75 149.832Z" fill="#FD8BA4" stroke="black" stroke-width="3" stroke-linecap="round" stroke-linejoin="round"/>
<path d="M305.605 175.763C305.605 175.763 312.728 175.82 313.822 172.76C313.822 172.76 315.791 176.914 312.854 178.607C309.917 180.3 301.209 180.238 300.031 180.123C298.852 180.007 296.584 178.2 296.584 178.2C296.584 178.2 299.536 175.718 301.172 175.878C302.65 175.949 304.132 175.911 305.605 175.763Z" fill="#FD8BA4" stroke="black" stroke-width="3" stroke-linecap="round" stroke-linejoin="round"/>
<path d="M268.112 191.495C268.112 191.495 261.114 190.172 260.634 186.955C260.634 186.955 257.896 190.648 260.449 192.879C263.003 195.109 271.557 196.738 272.735 196.853C273.914 196.969 276.49 195.636 276.49 195.636C276.49 195.636 274.075 192.628 272.44 192.468C270.975 192.251 269.529 191.926 268.112 191.495Z" fill="#FD8BA4" stroke="black" stroke-width="3" stroke-linecap="round" stroke-linejoin="round"/>
<path d="M271.839 153.443C271.839 153.443 264.84 152.121 264.361 148.907C264.361 148.907 261.623 152.6 264.176 154.827C266.73 157.055 275.283 158.69 276.461 158.806C277.64 158.921 280.216 157.588 280.216 157.588C280.216 157.588 277.802 154.58 276.166 154.42C274.701 154.203 273.255 153.876 271.839 153.443Z" fill="#FD8BA4" stroke="black" stroke-width="3" stroke-linecap="round" stroke-linejoin="round"/>
<path d="M304.095 203.337C304.095 203.337 311.218 203.394 312.308 200.334C312.308 200.334 314.277 204.488 311.34 206.181C308.403 207.874 299.695 207.812 298.52 207.697C297.346 207.582 295.073 205.778 295.073 205.778C295.073 205.778 298.022 203.295 299.661 203.456C301.14 203.526 302.622 203.486 304.095 203.337Z" fill="#FD8BA4" stroke="black" stroke-width="3" stroke-linecap="round" stroke-linejoin="round"/>
<path d="M306.282 225.485C306.282 225.485 309.926 224.656 310.156 222.303C310.387 219.949 312.035 224.464 312.035 224.464C312.035 224.464 310.952 240.686 310.321 241.964C309.691 243.243 306.882 243.059 305.872 241.529C304.861 239.998 306.282 225.485 306.282 225.485Z" fill="#FD8BA4" stroke="black" stroke-width="3" stroke-miterlimit="10"/>
<path d="M310.585 181.552C310.585 181.552 314.229 180.719 314.46 178.365C314.69 176.012 316.338 180.53 316.338 180.53C316.338 180.53 315.255 196.753 314.624 198.031C313.994 199.309 311.185 199.126 310.175 197.595C309.164 196.065 310.585 181.552 310.585 181.552Z" fill="#FD8BA4" stroke="black" stroke-width="3" stroke-miterlimit="10"/>
<path d="M304.643 246.255C304.643 246.255 308.24 245.908 308.375 244.527C308.51 243.145 310.333 245.883 310.333 245.883C310.333 245.883 309.903 255.433 309.326 256.163C308.749 256.894 305.945 256.671 304.876 255.728C303.808 254.785 304.643 246.255 304.643 246.255Z" fill="#FD8BA4" stroke="black" stroke-width="3" stroke-miterlimit="10"/>
<path d="M371.602 43.7623C371.602 43.7623 379.831 48.039 373.26 56.7387C373.26 56.7387 385.45 54.7328 389.715 48.1613C393.979 41.5899 387.268 37.3666 384.446 37.8847C381.624 38.4028 375.518 40.1918 371.602 43.7623Z" fill="black" stroke="black" stroke-width="3" stroke-miterlimit="10"/>
<path d="M384.84 40.6252L390.768 38.123L401.437 38.3736L387.311 48.0687L384.84 40.6252Z" fill="black" stroke="black" stroke-width="3" stroke-linecap="round" stroke-linejoin="round"/>
<path d="M277.702 281.909C277.141 284.253 277.72 286.846 279.428 289.586C281.138 292.33 283.941 295.151 287.671 297.871C295.126 303.309 306.119 308.224 318.883 311.278C331.647 314.333 343.673 314.928 352.783 313.455C357.34 312.718 361.116 311.472 363.884 309.8C366.647 308.13 368.337 306.081 368.898 303.737C369.459 301.392 368.88 298.8 367.173 296.06C365.462 293.316 362.659 290.495 358.93 287.775C351.474 282.337 340.481 277.422 327.717 274.367C314.954 271.312 302.927 270.717 293.817 272.19C289.26 272.927 285.484 274.173 282.716 275.846C279.953 277.515 278.263 279.565 277.702 281.909Z" fill="#8C74B7" stroke="black" stroke-width="2"/>
<path d="M275.881 262.661C275.32 265.005 275.899 267.598 277.607 270.338C279.318 273.082 282.121 275.903 285.85 278.623C293.306 284.061 304.299 288.976 317.062 292.031C329.826 295.086 341.853 295.68 350.962 294.207C355.52 293.471 359.296 292.225 362.063 290.552C364.827 288.882 366.517 286.833 367.078 284.489C367.639 282.145 367.06 279.552 365.352 276.812C363.642 274.068 360.839 271.247 357.109 268.527C349.653 263.089 338.661 258.174 325.897 255.119C313.133 252.064 301.106 251.469 291.997 252.942C287.44 253.679 283.663 254.925 280.896 256.598C278.133 258.268 276.442 260.317 275.881 262.661Z" fill="black" stroke="black" stroke-width="2"/>
<path d="M308.911 256.671C303.69 255.26 304.157 252.694 305.133 251.418C307.202 251.611 314.015 252.033 317.071 252.865C316.155 253.049 314.913 253.133 317.236 255.542C320.14 258.553 310.641 258.214 316.886 260.373C322.744 262.399 318.361 263.464 316.91 263.217C315.748 263.02 313.081 262.805 311.893 262.722C314.486 260.724 312.162 261.175 309.602 259.253C307.041 257.331 315.436 258.434 308.911 256.671Z" fill="white" stroke="black" stroke-width="2"/>
<path d="M333.454 290.015C338.675 291.426 338.208 293.992 337.231 295.268C335.163 295.075 328.35 294.653 325.293 293.821C326.21 293.637 327.452 293.553 325.129 291.144C322.224 288.133 331.723 288.472 325.479 286.313C319.62 284.287 324.004 283.222 325.455 283.469C326.616 283.666 329.283 283.882 330.472 283.965C327.879 285.962 330.202 285.511 332.763 287.433C335.324 289.355 326.928 288.252 333.454 290.015Z" fill="white" stroke="black" stroke-width="2"/>
<path d="M277.562 272.225C277.001 274.57 277.58 277.162 279.288 279.902C280.998 282.646 283.801 285.467 287.531 288.187C294.986 293.625 305.979 298.54 318.743 301.595C331.506 304.65 343.533 305.245 352.643 303.772C357.2 303.035 360.976 301.789 363.744 300.116C366.507 298.447 368.197 296.397 368.758 294.053C369.319 291.709 368.74 289.116 367.032 286.376C365.322 283.632 362.519 280.811 358.789 278.091C351.334 272.653 340.341 267.738 327.577 264.683C314.814 261.629 302.787 261.034 293.677 262.507C289.12 263.244 285.344 264.49 282.576 266.162C279.813 267.832 278.123 269.881 277.562 272.225Z" stroke="black" stroke-width="2"/>
<path d="M275.881 262.661C275.32 265.005 275.899 267.598 277.607 270.338C279.318 273.082 282.121 275.903 285.85 278.623C293.306 284.061 304.299 288.976 317.062 292.031C329.826 295.086 341.853 295.68 350.962 294.207C355.52 293.471 359.296 292.225 362.063 290.552C364.827 288.882 366.517 286.833 367.078 284.489C367.639 282.145 367.06 279.552 365.352 276.812C363.642 274.068 360.839 271.247 357.109 268.527C349.653 263.089 338.661 258.174 325.897 255.119C313.133 252.064 301.106 251.469 291.997 252.942C287.44 253.679 283.663 254.925 280.896 256.598C278.133 258.268 276.442 260.317 275.881 262.661Z" stroke="black" stroke-width="2"/>
<path d="M300.071 268.451C299.844 269.401 300.064 270.504 300.837 271.743C301.612 272.986 302.904 274.296 304.663 275.579C308.179 278.142 313.394 280.479 319.478 281.936C325.562 283.392 331.271 283.669 335.566 282.975C337.716 282.628 339.46 282.045 340.715 281.288C341.965 280.533 342.66 279.649 342.887 278.699C343.115 277.749 342.895 276.646 342.122 275.407C341.347 274.163 340.055 272.854 338.295 271.571C334.78 269.008 329.564 266.67 323.48 265.214C317.397 263.758 311.688 263.481 307.393 264.175C305.243 264.522 303.498 265.105 302.244 265.862C300.994 266.617 300.299 267.501 300.071 268.451Z" fill="#8C74B7" stroke="black" stroke-width="2"/>
</svg>
