<svg width="406" height="190" viewBox="0 0 406 190" fill="none" xmlns="http://www.w3.org/2000/svg">
<rect x="3.5" y="3.5" width="57" height="398.258" transform="matrix(-4.37114e-08 1 1 4.37114e-08 -1.5299e-07 126)" fill="#D8C1F7" stroke="black" stroke-width="7"/>
<mask id="mask0" mask-type="alpha" maskUnits="userSpaceOnUse" x="3" y="128" width="399" height="60">
<rect x="5" y="5" width="49.8033" height="388.497" transform="matrix(-3.33242e-08 1 1 6.01784e-08 3.20221 128.098)" fill="#D8C1F7" stroke="black" stroke-width="10"/>
</mask>
<g mask="url(#mask0)">
<path d="M6.31843 122.891C34.1333 148.791 72.2431 210.962 2.16351 252.456C-67.9161 293.949 -24.2664 183.368 6.31843 122.891Z" fill="black"/>
<path d="M305.784 94.8787C333.599 120.778 371.709 182.95 301.629 224.443C231.55 265.936 275.2 155.356 305.784 94.8787Z" fill="black"/>
<path d="M65.1798 212.841C80.1375 187.52 50.4067 133.135 33.6716 109.108C50.6375 110.027 89.0706 115.703 107.075 131.059C129.581 150.254 86.1275 160.974 84.5694 180.271C83.0113 199.568 134.948 202.427 102.228 212.841C69.5078 223.255 46.4826 244.492 65.1798 212.841Z" fill="black"/>
<path d="M214.034 211.268C228.992 185.947 199.261 131.562 182.526 107.534C199.492 108.453 237.925 114.13 255.93 129.486C278.436 148.681 234.982 159.401 233.424 178.698C231.866 197.995 283.802 200.853 251.082 211.268C218.362 221.682 195.337 242.918 214.034 211.268Z" fill="black"/>
<path d="M364.616 196.608C379.611 168.412 349.807 107.851 333.03 81.0952C350.038 82.1185 388.566 88.4398 406.615 105.539C429.176 126.914 385.616 138.852 384.054 160.34C382.492 181.828 434.556 185.011 401.756 196.608C368.955 208.205 345.873 231.853 364.616 196.608Z" fill="black"/>
<path d="M137.891 154.44C156.034 140.064 145.45 131.025 137.891 128.303L150.875 121.564C161.205 122.755 180.86 129.119 176.843 145.047C171.823 164.956 122.483 159.953 161.608 182.415C192.909 200.385 178.707 213.045 171.476 217.538C75.6363 277.082 105.575 293.908 133.39 299.013C106.094 310.244 49.0102 323.129 39.0384 284.821C26.5736 236.936 186.711 218.048 144.469 199.67C102.228 181.292 115.212 172.41 137.891 154.44Z" fill="black"/>
<path d="M437.357 126.427C455.5 112.052 444.916 103.012 437.357 100.29L450.341 93.5513C460.671 94.7424 480.326 101.107 476.309 117.034C471.289 136.944 421.949 131.941 461.074 154.403C492.375 172.372 478.173 185.032 470.942 189.525C375.102 249.069 405.041 265.895 432.856 271C405.56 282.231 348.476 295.116 338.504 256.808C326.04 208.924 486.177 190.035 443.935 171.657C401.694 153.279 414.678 144.397 437.357 126.427Z" fill="black"/>
</g>
<rect x="3.5" y="3.5" width="399" height="103" fill="#8C74B7" stroke="black" stroke-width="7"/>
<mask id="mask1" mask-type="alpha" maskUnits="userSpaceOnUse" x="0" y="0" width="406" height="110">
<rect width="405.258" height="110" fill="#C4C4C4"/>
</mask>
<g mask="url(#mask1)">
<path d="M386.659 90.5478L300.428 58.5694L355.806 21.4744L264.037 29.7888L363.717 -60.3904L230.019 -0.910492L208.659 -119.231L185.716 -8.58531L48.8535 -60.3904L127.174 13.7996L19.5822 46.4176L107.396 58.5694L2.96884 152.586L127.174 100.781L127.174 205.031L174.641 124.445L249.797 218.462L230.019 118.049L300.428 165.377L249.797 100.781L386.659 90.5478Z" fill="#FD8BA4"/>
<path d="M315.963 80.7321L260.816 57.8249L298.312 34.9124L238.094 38.1791L306.433 -18.3449L216.992 17.3366L207.317 -60.4092L188.343 11.2829L100.854 -25.76L149.312 24.5178L77.8866 43.2779L134.783 53.279L63.2065 112.196L146.172 81.3017L142.408 149.359L176.309 97.8681L221.985 161.015L212.697 94.997L256.96 127.552L226.234 84.1894L315.963 80.7321Z" fill="#8C74B7"/>
<path d="M252.149 71.0808L223.535 56.7162L245.088 45.6415L212.302 45.2701L252.388 17.0907L202.01 33.2337L201.008 -9.21046L186.827 28.9373L141.469 5.76845L164.97 34.7168L125.269 42.3369L155.534 49.7749L113.564 79.1353L160.175 65.3543L154.428 102.074L175.592 75.3963L196.884 111.214L195.452 75.1349L217.647 94.3372L203.372 69.7637L252.149 71.0808Z" fill="#FD8BA4"/>
</g>
<rect x="3.5" y="3.5" width="399" height="103" stroke="black" stroke-width="7"/>
</svg>
