<svg width="661" height="767" viewBox="0 0 661 767" fill="none" xmlns="http://www.w3.org/2000/svg">
<path d="M220.125 438.867C205.664 438.867 191.343 436.038 177.982 430.541C164.621 425.045 152.481 416.989 142.255 406.833C132.029 396.677 123.917 384.62 118.383 371.35C112.849 358.081 110 343.859 110 329.496C110 315.133 112.849 300.911 118.383 287.641C123.917 274.372 132.029 262.315 142.255 252.159C152.481 242.003 164.621 233.947 177.982 228.45C191.343 222.954 205.664 220.125 220.125 220.125L220.125 329.496L220.125 438.867Z" fill="#28534A"/>
<path d="M550.125 220.742C535.663 220.742 521.343 217.913 507.982 212.416C494.621 206.92 482.481 198.864 472.255 188.708C462.029 178.552 453.917 166.495 448.383 153.225C442.848 139.956 440 125.734 440 111.371C440 97.008 442.848 82.7859 448.383 69.5164C453.917 56.2469 462.029 44.19 472.255 34.034C482.481 23.8779 494.621 15.8217 507.982 10.3253C521.343 4.82895 535.663 1.99999 550.125 2L550.125 111.371L550.125 220.742Z" fill="#73C78B"/>
<path d="M546.866 330.375L546.866 438.992L438.25 330.375L546.866 330.375Z" fill="#73C78B"/>
<path d="M546.866 220.25L546.866 330.375L438.25 220.25L546.866 220.25Z" fill="#73C78B"/>
<path d="M438.25 330.375L438.25 438.992L328.125 330.375L438.25 330.375Z" fill="#73C78B"/>
<path d="M220.125 110L220.125 218.617L110 110L220.125 110Z" fill="#73C78B"/>
<path d="M438.25 438.992L438.25 549.117L329.633 438.992L438.25 438.992Z" fill="#73C78B"/>
<path d="M436.742 110.125L436.742 220.25L328.125 110.125L436.742 110.125Z" fill="#28534A"/>
<path d="M436.742 0L436.742 110.125L328.125 -4.74778e-06L436.742 0Z" fill="#28534A"/>
<path d="M328.125 330.375L328.125 440.5L219.508 330.375L328.125 330.375Z" fill="#28534A"/>
<path d="M328.125 110.125L328.125 220.25L218 110.125L328.125 110.125Z" fill="#28534A"/>
<path d="M328.37 113.25L328.37 223.375L219.754 113.25L328.37 113.25Z" fill="#28534A"/>
<path d="M328.125 220.25L328.125 330.375L219.508 220.25L328.125 220.25Z" fill="#28534A"/>
<path d="M505.481 766.365L44.9999 766.364L505.481 332L505.481 766.365Z" fill="#28534A"/>
<rect x="440" y="439" width="110.125" height="110.125" fill="#73C78B"/>
<rect x="220" y="439" width="110.125" height="110.125" fill="#73C78B"/>
<rect x="330" y="549" width="110.125" height="110.125" fill="#73C78B"/>
<rect x="110" y="658" width="110.125" height="108.617" fill="#73C78B"/>
<path d="M110.125 656.617L110.125 548L-9.15527e-05 656.617L110.125 656.617Z" fill="#73C78B"/>
<path d="M330.125 656.617L330.125 548L220 656.617L330.125 656.617Z" fill="#252026"/>
<path d="M440.125 766.617L440.125 658L330 766.617L440.125 766.617Z" fill="#252026"/>
<path d="M440.125 551.617L440.125 443L330 551.617L440.125 551.617Z" fill="#252026"/>
<path d="M328.125 765.617L328.125 657L218 765.617L328.125 765.617Z" fill="#252026"/>
<path d="M550.125 657L550.125 765.617L440 657L550.125 657Z" fill="#73C78B"/>
</svg>
