<svg width="400" height="700" viewBox="0 0 400 700" fill="none" xmlns="http://www.w3.org/2000/svg">
<g clip-path="url(#clip0)">
<path d="M400 0L400 100L300 -4.37114e-06L400 0Z" fill="#28534A"/>
<path d="M400 300L400 400L300 300L400 300Z" fill="#73C78B"/>
<path d="M400 100L400 200L300 100L400 100Z" fill="#28534A"/>
<path d="M300 100L300 200L200 100L300 100Z" fill="#28534A"/>
<path d="M400 700L-3.05176e-05 700L400 300L400 700Z" fill="#28534A"/>
<path d="M200 100L200 200L100 100L200 100Z" fill="#73C78B"/>
<path d="M300 200L300 300L200 200L300 200Z" fill="#28534A"/>
<path d="M300 300L300 400L200 300L300 300Z" fill="#28534A"/>
<path d="M300 300L300 400L200 300L300 300Z" fill="#28534A"/>
<path d="M100 600L7.62939e-06 600L100 500L100 600Z" fill="#73C78B"/>
<path d="M400 600L200 600L400 400L400 600Z" fill="#252026"/>
<path d="M300 700L200 700L300 600L300 700Z" fill="#252026"/>
<path d="M400 700L300 700L400 600L400 700Z" fill="#252026"/>
<path d="M200 400C186.868 400 173.864 397.413 161.732 392.388C149.599 387.362 138.575 379.997 129.289 370.711C120.003 361.425 112.638 350.401 107.612 338.268C102.587 326.136 100 313.132 100 300C100 286.868 102.587 273.864 107.612 261.732C112.638 249.599 120.003 238.575 129.289 229.289C138.575 220.003 149.599 212.638 161.732 207.612C173.864 202.587 186.868 200 200 200L200 300L200 400Z" fill="#28534A"/>
<rect x="200" y="400" width="100" height="100" fill="#73C78B"/>
<rect x="100" y="600" width="100" height="100" fill="#73C78B"/>
<rect x="300" y="500" width="100" height="100" fill="#73C78B"/>
</g>
<defs>
<clipPath id="clip0">
<rect width="400" height="700" fill="white"/>
</clipPath>
</defs>
</svg>
