<svg width="500" height="600" viewBox="0 0 500 600" fill="none" xmlns="http://www.w3.org/2000/svg">
<g clip-path="url(#clip0)">
<path d="M400 300L400 -100L756 300L400 300Z" fill="#252026"/>
<path d="M400 200L300 200L400 100L400 200Z" fill="#73C78B"/>
<path d="M400 100L300 100L400 -8.66976e-07L400 100Z" fill="#252026"/>
<path d="M200 100L100 100L200 -8.66976e-07L200 100Z" fill="#73C78B"/>
<path d="M200 200L100 200L200 100L200 200Z" fill="#252026"/>
<path d="M300 200L200 200L300 100L300 200Z" fill="#252026"/>
<path d="M300 300L200 300L300 200L300 300Z" fill="#252026"/>
<path d="M100 200L4.65988e-06 200L100 100L100 200Z" fill="#73C78B"/>
<path d="M100 100C86.8678 100 73.8642 97.4134 61.7316 92.3879C49.5991 87.3625 38.5752 79.9965 29.2893 70.7107C20.0035 61.4248 12.6375 50.4009 7.61204 38.2683C2.58657 26.1358 -5.51919e-06 13.1322 -4.37114e-06 -1.31134e-05C-3.22309e-06 -13.1322 2.58657 -26.1358 7.61205 -38.2684C12.6375 -50.4009 20.0035 -61.4248 29.2893 -70.7107C38.5752 -79.9965 49.5991 -87.3625 61.7317 -92.388C73.8642 -97.4134 86.8678 -100 100 -100L100 -4.37114e-06L100 100Z" fill="#252026"/>
<circle r="50" transform="matrix(1 0 0 -1 350 250)" fill="#73C78B"/>
<rect width="100" height="100" transform="matrix(-1 0 0 1 500 0)" fill="#73C78B"/>
</g>
<defs>
<clipPath id="clip0">
<rect width="500" height="600" fill="white"/>
</clipPath>
</defs>
</svg>
