<svg width="499" height="403" viewBox="0 0 499 403" fill="none" xmlns="http://www.w3.org/2000/svg">
<g clip-path="url(#clip0)">
<path d="M200 100L200 7.62939e-06L100 100L200 100Z" fill="#73C78B"/>
<path d="M0 200.389L4.37114e-06 100.389L100 200.389L0 200.389Z" fill="#73C78B"/>
<path d="M100 200.389L100 100.389L200 200.389L100 200.389Z" fill="#73C78B"/>
<path d="M100 100L100 0L0 100L100 100Z" fill="#73C78B"/>
<path d="M100 0.388879L100 -99.6111L0 0.388883L100 0.388879Z" fill="#73C78B"/>
<path d="M100 301.389L100 201.389L200 301.389L100 301.389Z" fill="#28534A"/>
<path d="M100.306 403.089L100.306 303.089L200.306 403.089L100.306 403.089Z" fill="#28534A"/>
<circle r="50" transform="matrix(1 0 0 -1 249 49)" fill="#28534A"/>
<path d="M299 -1.99996L299 98L399 -1.99996L299 -1.99996Z" fill="#73C78B"/>
</g>
<defs>
<clipPath id="clip0">
<rect width="499" height="403" fill="white"/>
</clipPath>
</defs>
</svg>
