<svg width="500" height="300" viewBox="0 0 500 300" fill="none" xmlns="http://www.w3.org/2000/svg">
<g clip-path="url(#clip0)">
<path d="M200 300L100 300L200 200L200 300Z" fill="#28534A"/>
<path d="M300 300L200 300L300 200L300 300Z" fill="#73C78B"/>
<path d="M400 600L400 200L756 600L400 600Z" fill="#252026"/>
<path d="M400 300L300 300L400 200L400 300Z" fill="#73C78B"/>
<path d="M400 200L400 100L500 200L400 200Z" fill="#73C78B"/>
<path d="M400 100L400 4.65988e-06L500 100L400 100Z" fill="#73C78B"/>
<path d="M100 400C86.8678 400 73.8642 397.413 61.7316 392.388C49.5991 387.362 38.5752 379.997 29.2893 370.711C20.0035 361.425 12.6375 350.401 7.61204 338.268C2.58657 326.136 -5.51919e-06 313.132 -4.37114e-06 300C-3.22309e-06 286.868 2.58657 273.864 7.61205 261.732C12.6375 249.599 20.0035 238.575 29.2893 229.289C38.5752 220.003 49.5991 212.638 61.7317 207.612C73.8642 202.587 86.8678 200 100 200L100 300L100 400Z" fill="#252026"/>
</g>
<defs>
<clipPath id="clip0">
<rect width="500" height="300" fill="white"/>
</clipPath>
</defs>
</svg>
