<svg width="400" height="398" viewBox="0 0 400 398" fill="none" xmlns="http://www.w3.org/2000/svg">
<g clip-path="url(#clip0)">
<rect width="100" height="100" fill="#73C78B"/>
<circle cx="350" cy="348" r="50" fill="#252026"/>
<path d="M200 100.01L200 0.999886L100 100.01L200 100.01Z" fill="#28534A"/>
<path d="M200 200.01L200 101L100 200.01L200 200.01Z" fill="#73C78B"/>
<path d="M0 100L-4.32786e-06 199.01L100 100L0 100Z" fill="#252026"/>
<circle cx="250" cy="150" r="50" fill="#252026"/>
<path d="M3.05176e-05 198C53.0433 198 103.914 219.071 141.421 256.579C178.929 294.086 200 344.957 200 398L6.51651e-06 398L3.05176e-05 198Z" fill="#252026"/>
<path d="M100 299.01L100 200L0 299.01L100 299.01Z" fill="#28534A"/>
<path d="M100 298C100 271.478 110.536 246.043 129.289 227.289C148.043 208.536 173.478 198 200 198C226.522 198 251.957 208.536 270.711 227.289C289.464 246.043 300 271.478 300 298L200 298L100 298Z" fill="#73C78B"/>
<path d="M200 299.01L200 200L100 299.01L200 299.01Z" fill="#28534A"/>
<path d="M100 398.01L100 299L0 398.01L100 398.01Z" fill="#73C78B"/>
<path d="M200 398.01L200 299L100 398.01L200 398.01Z" fill="#73C78B"/>
<path d="M200 299L200 398.01L300 299L200 299Z" fill="#252026"/>
<path d="M300 299.01L300 200L200 299.01L300 299.01Z" fill="#28534A"/>
</g>
<defs>
<clipPath id="clip0">
<rect width="400" height="398" fill="white"/>
</clipPath>
</defs>
</svg>
