<svg width="653" height="641" viewBox="0 0 653 641" fill="none" xmlns="http://www.w3.org/2000/svg">
<path d="M96.5784 319.366C86.0574 319.366 75.6394 317.308 65.9193 313.31C56.1992 309.311 47.3673 303.45 39.9278 296.062C32.4884 288.673 26.5871 279.902 22.5609 270.248C18.5347 260.595 16.4624 250.248 16.4624 239.799C16.4624 229.35 18.5347 219.004 22.5609 209.35C26.5871 199.697 32.4884 190.925 39.9278 183.537C47.3673 176.148 56.1992 170.287 65.9193 166.289C75.6394 162.29 86.0574 160.232 96.5784 160.232L96.5784 239.799L96.5784 319.366Z" fill="#28534A"/>
<path d="M96.5784 479.598C86.0574 479.598 75.6394 477.54 65.9193 473.542C56.1992 469.543 47.3673 463.682 39.9278 456.294C32.4884 448.905 26.5871 440.134 22.5609 430.48C18.5347 420.827 16.4624 410.48 16.4624 400.031C16.4624 389.582 18.5347 379.236 22.5609 369.582C26.5871 359.928 32.4884 351.157 39.9278 343.769C47.3673 336.38 56.1992 330.519 65.9193 326.521C75.6394 322.522 86.0574 320.464 96.5784 320.464L96.5784 400.031L96.5784 479.598Z" fill="#73C78B"/>
<path d="M334.731 240.348L334.731 319.366L255.712 240.348L334.731 240.348Z" fill="#73C78B"/>
<path d="M334.731 160.232L334.731 240.348L255.712 160.232L334.731 160.232Z" fill="#73C78B"/>
<path d="M255.712 240.348L255.712 319.366L175.596 240.348L255.712 240.348Z" fill="#73C78B"/>
<path d="M96.5781 80.116L96.5781 159.134L16.4622 80.116L96.5781 80.116Z" fill="#73C78B"/>
<path d="M255.712 319.366L255.712 399.482L176.694 319.366L255.712 319.366Z" fill="#73C78B"/>
<path d="M254.615 80.116L254.615 160.232L175.597 80.116L254.615 80.116Z" fill="#28534A"/>
<path d="M254.615 0L254.615 80.116L175.597 -3.45401e-06L254.615 0Z" fill="#28534A"/>
<path d="M175.597 240.348L175.597 320.464L96.5782 240.348L175.597 240.348Z" fill="#28534A"/>
<path d="M175.597 80.116L175.597 160.232L95.4807 80.116L175.597 80.116Z" fill="#28534A"/>
<path d="M175.597 160.232L175.597 240.348L96.5782 160.232L175.597 160.232Z" fill="#28534A"/>
<path d="M175.597 160.232L175.597 240.348L96.5782 160.232L175.597 160.232Z" fill="#28534A"/>
<path d="M335 640L-0.000152588 640L335 324L335 640Z" fill="#28534A"/>
<rect x="254.615" y="399.482" width="80.116" height="80.116" fill="#73C78B"/>
<rect x="254.615" y="399.482" width="80.116" height="80.116" fill="#73C78B"/>
<rect x="94.3833" y="399.482" width="80.116" height="80.116" fill="#73C78B"/>
<rect x="176.694" y="479.598" width="80.116" height="80.116" fill="#73C78B"/>
<rect x="17.4619" y="561.714" width="80.116" height="79.0185" fill="#73C78B"/>
<circle cx="374.24" cy="279.857" r="39.5092" fill="#28534A"/>
<circle cx="531.18" cy="279.857" r="39.5092" fill="#28534A"/>
<path d="M572.884 320.464C583.405 320.464 593.823 322.522 603.543 326.521C613.263 330.519 622.095 336.38 629.535 343.769C636.974 351.157 642.875 359.928 646.902 369.582C650.928 379.236 653 389.582 653 400.031C653 410.48 650.928 420.827 646.902 430.48C642.875 440.134 636.974 448.905 629.535 456.294C622.095 463.682 613.263 469.543 603.543 473.542C593.823 477.54 583.405 479.598 572.884 479.598L572.884 400.031L572.884 320.464Z" fill="#28534A"/>
<path d="M334.731 399.482L334.731 320.464L413.749 399.482L334.731 399.482Z" fill="#73C78B"/>
<path d="M334.731 479.598L334.731 399.482L413.749 479.598L334.731 479.598Z" fill="#73C78B"/>
<path d="M413.75 399.482L413.75 320.464L493.865 399.482L413.75 399.482Z" fill="#73C78B"/>
<path d="M572.884 559.714L572.884 480.696L653 559.714L572.884 559.714Z" fill="#73C78B"/>
<path d="M413.75 320.464L413.75 240.348L492.768 320.464L413.75 320.464Z" fill="#73C78B"/>
<path d="M414.847 559.714L414.847 479.598L493.866 559.714L414.847 559.714Z" fill="#28534A"/>
<path d="M414.847 639.83L414.847 559.714L493.866 639.83L414.847 639.83Z" fill="#28534A"/>
<path d="M493.866 399.482L493.866 319.366L572.884 399.482L493.866 399.482Z" fill="#28534A"/>
<path d="M493.866 559.714L493.866 479.598L573.982 559.714L493.866 559.714Z" fill="#28534A"/>
<path d="M493.866 479.598L493.866 399.482L572.884 479.598L493.866 479.598Z" fill="#28534A"/>
<path d="M493.866 479.598L493.866 399.482L572.884 479.598L493.866 479.598Z" fill="#73C78B"/>
</svg>
