<svg width="607" height="824" viewBox="0 0 607 824" fill="none" xmlns="http://www.w3.org/2000/svg">
<path d="M125.707 433.417L168.731 425.954L183.05 426.758L252.351 424.722L187.099 447.731L146.794 445.468L116.035 443.74L125.707 433.417Z" fill="#28534A"/>
<path d="M410.415 489.185L416.6 492.496L423.047 500.267L428.366 517.853L423.317 530.906L410.415 489.185Z" fill="#22463F"/>
<path d="M302.691 148.791L223.993 261.929L219.839 260.214L302.691 148.791Z" fill="#22463F"/>
<path d="M239.225 267.816L357.876 382.156L325.795 407.521L226.072 282.883L239.225 267.816Z" fill="#22463F"/>
<path d="M332.244 479.399L339.634 479.814L328.242 545.404L332.244 479.399Z" fill="#28534A"/>
<path d="M116.471 443.486L124.956 443.963L120.022 499.006L116.471 443.486Z" fill="#28534A"/>
<path d="M491.667 426.585L497.513 419.079L539.329 501.84L533.187 497.289L491.667 426.585Z" fill="#28534A"/>
<path d="M245.839 306.81L268.584 335.914L255.238 428.347L224.707 410.515L245.839 306.81Z" fill="#22463F"/>
<path d="M421.297 499.232L450.661 515.205L440.757 520.576L421.297 499.232Z" fill="#22463F"/>
<path d="M320.442 403.691L352.843 378.344L535.642 487.889L734.516 613.155L761.595 649.251L547.449 574.003L478.361 528.633L320.442 403.691Z" fill="#28534A"/>
<path d="M320.49 402.863L351.694 373.848L509.628 469.298L681.37 576.898L741.25 616.16L545.605 569.275L351.589 460.424L320.49 402.863Z" fill="#22463F"/>
<path d="M205.044 117.377L217.87 256.893L212.948 259.086L205.044 117.377Z" fill="#22463F"/>
<path d="M490.65 413.742L500.898 420.245L475.653 450.439L466.996 444.026L490.65 413.742Z" fill="#22463F"/>
<path d="M397.648 474.101L393.719 458.67L409.94 472.303L408.868 488.766L397.648 474.101Z" fill="#22463F"/>
<path d="M338.355 469.397L340.204 480.285L224.739 508.955L220.212 495.859L338.355 469.397Z" fill="#22463F"/>
<path d="M220.568 496.126L225.155 508.238L162.881 605.01L156.434 597.239L220.568 496.126Z" fill="#22463F"/>
<path d="M157.906 596.131L163.321 603.35L96.8599 628.76L157.906 596.131Z" fill="#22463F"/>
<path d="M377.436 463.454L393.704 458.44L450.317 630.544L439.913 635.393L377.436 463.454Z" fill="#22463F"/>
<path d="M439.644 634.013L450.019 629.656L438.277 761.865L439.644 634.013Z" fill="#22463F"/>
<path d="M329.983 415.726L339.341 418.949L352.968 458.507L339.397 480.466L329.983 415.726Z" fill="#22463F"/>
<path d="M253.785 426.161L224.481 409.203L99.9531 400.597L96.406 415.216L168.494 428.649L253.785 426.161Z" fill="#22463F"/>
<path d="M162.334 494.396L96.383 414.851L106.914 416.7L144.032 462.744L162.334 494.396Z" fill="#22463F"/>
<path d="M220.817 255.634L242.972 269.081L229.281 284.264L191.351 295.47L193.121 266.282L220.817 255.634Z" fill="#22463F"/>
<path d="M139.503 427.357L179.649 417.815L193.202 417.74L258.449 411.788L198.242 437.286L160.094 437.496L130.981 437.657L139.503 427.357Z" fill="#367164"/>
<path d="M131.378 437.392L139.409 437.348L137.958 489.552L131.378 437.392Z" fill="#367164"/>
<path d="M72.7739 447.899C102.353 455.1 118.62 458.068 146.871 460.794L145.13 470.8C144.299 475.577 140.154 479.091 135.306 478.993C113.811 478.555 98.7771 475.925 77.5824 468.908C72.9539 467.375 70.207 462.65 71.0429 457.846L72.7739 447.899Z" fill="#685A5D"/>
<path d="M167.395 366.255C167.906 366.668 168.261 367.015 168.5 367.288C168.182 367.464 167.731 367.671 167.112 367.887C165.027 368.612 161.828 369.166 157.601 369.413C149.214 369.904 137.672 369.141 125.017 366.938C112.362 364.736 101.241 361.556 93.512 358.26C89.6176 356.6 86.7935 354.997 85.0764 353.611C84.5659 353.198 84.2112 352.851 83.9715 352.578C84.2894 352.402 84.7406 352.195 85.3604 351.979C87.445 351.254 90.6443 350.7 94.8707 350.453C103.258 349.962 114.8 350.725 127.455 352.928C140.11 355.13 151.231 358.31 158.96 361.606C162.854 363.266 165.678 364.869 167.395 366.255Z" fill="#447F62" stroke="#6FA77F" stroke-width="8"/>
<path d="M167.519 370.454C166.779 374.705 147.605 374.918 124.692 370.931C101.779 366.943 83.8037 360.265 84.5434 356.014C85.2831 351.763 104.457 351.55 127.37 355.538C150.283 359.525 168.258 366.203 167.519 370.454Z" fill="#B3D9BE"/>
<path d="M79.6436 351.825C115.412 369.182 135.78 373.471 172.863 368.047C173.002 370.639 173.054 372.851 172.972 374.847C172.61 383.664 170.304 392.439 168.953 401.159C168.731 402.588 168.446 403.966 168.094 405.343C166.405 411.945 164.988 418.62 164.309 425.401C163.841 430.073 162.9 434.186 161.284 439.078C160.316 442.011 159.639 445.443 159.41 448.523C158.529 460.38 148.175 468.266 136.293 468.685C117.915 469.332 102.818 466.839 84.495 460.13C71.2815 455.292 64.4913 441.176 66.5174 427.251C66.6426 418.282 67.6155 412.625 69.5176 405.598C70.733 401.108 71.3981 396.493 71.6917 391.851C71.9436 387.868 72.4243 384.437 73.2978 380.829C74.8192 374.547 75.6357 368.11 76.6996 361.734C77.2205 358.613 78.158 355.62 79.6436 351.825Z" fill="#6FA77F"/>
<path d="M109.403 382.256C118.109 385.021 127.153 386.581 136.282 386.891L167.814 387.962C158.964 390.623 149.739 391.82 140.503 391.507L135.56 391.339C126.396 391.028 117.319 389.459 108.583 386.674L103.825 385.158C94.7206 382.256 86.1255 377.949 78.3511 372.393L109.403 382.256Z" fill="#4E775A"/>
<path d="M104.751 409.994C113.457 412.759 122.501 414.318 131.63 414.628L163.162 415.699C154.312 418.36 145.087 419.558 135.851 419.244L130.908 419.077C121.745 418.766 112.667 417.196 103.932 414.412L99.1733 412.895C90.0687 409.994 81.4736 405.687 73.6992 400.13L104.751 409.994Z" fill="#4E775A"/>
<path d="M100.227 435.991C108.933 438.756 117.977 440.316 127.106 440.626L158.638 441.696C149.788 444.357 140.563 445.555 131.327 445.241L126.384 445.074C117.221 444.763 108.143 443.193 99.4077 440.409L94.6494 438.892C85.5448 435.991 76.9497 431.684 69.1753 426.127L100.227 435.991Z" fill="#4E775A"/>
<path d="M103.517 288.158C105.999 286.577 122.123 325.186 115.624 332.25C109.124 339.314 113.393 357.303 109.234 354.783C103.793 351.487 99.4413 335.076 109.003 322.409C112.311 318.027 101.035 289.738 103.517 288.158Z" fill="white"/>
<path d="M151.362 298.004C148.435 298.025 131.944 335.303 139.023 342.27C146.102 349.237 143.439 366.324 146.212 364.707C152.002 361.33 156.429 344.857 145.981 332.332C138.232 323.043 154.288 297.983 151.362 298.004Z" fill="white"/>
<path d="M124.174 255.009C123.573 255.013 111.694 283.548 118.105 293.292C124.516 303.036 123.191 311.549 124.567 310.214C127.228 307.636 125.469 296.247 120.628 286.612C117.038 279.466 125.459 255 124.174 255.009Z" fill="white"/>
<path d="M64.6816 438.562C102.691 454.752 122.525 458.894 158.596 455.081C157.862 462.249 152.213 467.991 145.024 468.472C119.615 470.171 101.41 467.291 74.5291 456.18C67.5833 453.309 63.6211 446.002 64.6816 438.562Z" fill="#4E775A"/>
<path d="M411.288 463.394L417.314 466.157L423.846 473.112L429.887 489.39L425.884 501.995L411.288 463.394Z" fill="#73D3A6"/>
<path d="M289.877 148.599L222.23 259.89L218.213 258.514L289.877 148.599Z" fill="#73D3A6"/>
<path d="M236.939 264.556L355.505 365.5L326.721 391.29L225.41 279.533L236.939 264.556Z" fill="#438C6C"/>
<path d="M336.987 458.711L343.981 458.673L337.052 521.201L336.987 458.711Z" fill="#367164"/>
<path d="M484.283 399.622L489.361 392.202L533.617 467.83L527.559 463.894L484.283 399.622Z" fill="#367164"/>
<path d="M245.446 300.951L268.593 327.079L261.383 415.039L231.548 399.995L245.446 300.951Z" fill="#64B892"/>
<path d="M422.136 472.237L450.761 485.595L441.732 491.237L422.136 472.237Z" fill="#73D3A6"/>
<path d="M321.45 387.99L350.536 362.197L529.327 454.886L724.195 561.467L751.836 593.938L545.473 535.422L477.669 496.648L321.45 387.99Z" fill="#367164"/>
<path d="M321.447 387.206L349.191 358.023L503.709 438.864L671.957 530.362L730.72 563.91L543.459 531.07L354.128 439.689L321.447 387.206Z" fill="#4EA47B" fill-opacity="0.6"/>
<path d="M195.948 124.65L216.163 255.496L211.648 257.851L195.948 124.65Z" fill="#73D3A6"/>
<path d="M482.576 387.568L492.621 393.105L470.567 423.053L462.028 417.508L482.576 387.568Z" fill="#73D3A6"/>
<path d="M398.368 449.909L393.765 435.583L409.858 447.498L409.804 463.089L398.368 449.909Z" fill="#7DE4B4"/>
<path d="M342.169 448.922L344.546 459.084L237.307 492.844L232.275 480.755L342.169 448.922Z" fill="#73D3A6"/>
<path d="M232.626 480.986L237.657 492.143L184.55 587.042L178.017 580.088L232.626 480.986Z" fill="#73D3A6"/>
<path d="M179.34 578.956L184.869 585.45L123.66 613.284L179.34 578.956Z" fill="#73D3A6"/>
<path d="M378.685 441.042L393.737 435.367L457.149 594.404L447.617 599.583L378.685 441.042Z" fill="#73D3A6"/>
<path d="M447.283 598.296L456.815 593.583L453.432 718.967L447.283 598.296Z" fill="#73D3A6"/>
<path d="M331.149 398.786L340.163 401.282L355.318 437.8L343.795 459.302L331.149 398.786Z" fill="#73D3A6"/>
<path d="M259.885 413.062L231.259 398.772L113.303 397.9L110.807 411.895L179.583 420.37L259.885 413.062Z" fill="#64B892"/>
<path d="M177.598 482.742L110.764 411.551L120.805 412.683L158.494 453.953L177.598 482.742Z" fill="#73D3A6"/>
<path d="M218.868 254.138L240.548 265.532L228.517 280.649L193.394 293.426L193.365 265.792L218.868 254.138Z" fill="#64B892"/>
</svg>
