<svg width="584" height="933" viewBox="0 0 584 933" fill="none" xmlns="http://www.w3.org/2000/svg">
<path fill-rule="evenodd" clip-rule="evenodd" d="M146.612 473.99L147.072 473.627L78.2521 446.433L94.1138 514.772L93.6696 515.122L162.457 542.324L146.612 473.99Z" fill="#22463F"/>
<path fill-rule="evenodd" clip-rule="evenodd" d="M94.1708 515.356L94.1953 515.337L78.3009 446.37L-74.2082 590.532L-89.5088 659.622L-90.2783 660.229L-89.6374 660.216L-89.6865 660.429L-89.4067 660.208L-14.7828 658.343L162.522 542.272L94.1708 515.356Z" fill="#22463F"/>
<path fill-rule="evenodd" clip-rule="evenodd" d="M236.664 401.514L234.583 362.923L167.695 415.102L122.11 491.916L122.236 491.816L210.289 463.17L276.758 410.723L236.76 401.438L236.664 401.514Z" fill="#22463F"/>
<path fill-rule="evenodd" clip-rule="evenodd" d="M271.933 373.685L274.387 371.686L234.537 363.27L236.706 401.481L236.469 401.668L236.72 401.725L236.756 402.364L237.361 401.868L276.746 410.732L274.527 371.639L271.933 373.685Z" fill="#22463F"/>
<path fill-rule="evenodd" clip-rule="evenodd" d="M-158.701 473.104L-135.262 463.359L-184.352 463.778L-158.701 473.104Z" fill="#22463F"/>
<path fill-rule="evenodd" clip-rule="evenodd" d="M-32.6226 461.398L56.8132 464.867L-56.4189 434.434L-32.6226 461.398Z" fill="#22463F"/>
<path fill-rule="evenodd" clip-rule="evenodd" d="M-56.6617 434.13L-32.5941 461.402L-159.347 463.911L-56.6617 434.13Z" fill="#22463F"/>
<path fill-rule="evenodd" clip-rule="evenodd" d="M114.016 460.5L116.063 310.458L99.7525 335.478L114.016 460.5Z" fill="#22463F"/>
<path fill-rule="evenodd" clip-rule="evenodd" d="M116.342 310.773L16.328 319.633L99.7507 335.611L116.342 310.773Z" fill="#22463F"/>
<path fill-rule="evenodd" clip-rule="evenodd" d="M42.2514 324.127L9.77005 325.224L16.7529 319.714L42.2514 324.127Z" fill="#22463F"/>
<path fill-rule="evenodd" clip-rule="evenodd" d="M9.82387 325.179L-11.1579 287.595L17.0068 319.511" fill="#22463F"/>
<path fill-rule="evenodd" clip-rule="evenodd" d="M92.2756 757.956L106.611 737.895L97.3867 783.49L92.2756 757.956Z" fill="#22463F"/>
<path fill-rule="evenodd" clip-rule="evenodd" d="M127.027 642.76L139.43 558.936L150.822 669.726L127.027 642.76Z" fill="#22463F"/>
<path fill-rule="evenodd" clip-rule="evenodd" d="M151.094 670.005L127.028 642.732L101.725 760.203L151.094 670.005Z" fill="#22463F"/>
<path fill-rule="evenodd" clip-rule="evenodd" d="M154.214 506.5L310.693 531.458L281.74 542.153L154.214 506.5Z" fill="#22463F"/>
<path fill-rule="evenodd" clip-rule="evenodd" d="M310.415 531.143L283.291 622.601L281.602 542.131L310.415 531.143Z" fill="#22463F"/>
<path fill-rule="evenodd" clip-rule="evenodd" d="M283.256 597.679L276.3 627.701L283.283 622.191L283.256 597.679Z" fill="#22463F"/>
<path fill-rule="evenodd" clip-rule="evenodd" d="M276.356 627.659L311.703 653.907L283.539 621.991" fill="#22463F"/>
<path fill-rule="evenodd" clip-rule="evenodd" d="M329.453 329.226L329.452 329.226L290.684 324.219L264.33 335.703L267.153 378.383L267.1 378.425L311.053 388.702L327.723 366.245L329.45 329.278L329.508 329.232L329.453 329.226Z" fill="#22463F"/>
<path fill-rule="evenodd" clip-rule="evenodd" d="M283.192 319.976L302.048 330.402L265.878 352.232L262.692 327.568L283.192 319.976Z" fill="#22463F"/>
<path fill-rule="evenodd" clip-rule="evenodd" d="M330.755 373.874L323.282 354.465L294.094 384.206L319.186 391.586L330.755 373.874Z" fill="#22463F"/>
<path fill-rule="evenodd" clip-rule="evenodd" d="M430.755 331.416L314.609 353.992L313.508 350.338L430.755 331.416Z" fill="#22463F"/>
<path fill-rule="evenodd" clip-rule="evenodd" d="M345.513 234.821L301.23 338.831L304.835 340.51L345.513 234.821Z" fill="#22463F"/>
<path fill-rule="evenodd" clip-rule="evenodd" d="M234.473 363.247L179.287 342.894L146.9 331.331L218.53 375.643L234.473 363.247Z" fill="#22463F"/>
<path fill-rule="evenodd" clip-rule="evenodd" d="M146.87 331.355L169.286 339.339L233.858 275.553L146.87 331.355Z" fill="#22463F"/>
<path fill-rule="evenodd" clip-rule="evenodd" d="M152.951 285.717L219.384 284.97L233.594 275.702L181.094 267.588L152.951 285.717Z" fill="#22463F"/>
<path fill-rule="evenodd" clip-rule="evenodd" d="M276.773 410.732L293.702 498.205L260.422 423.634L276.773 410.732Z" fill="#22463F"/>
<path fill-rule="evenodd" clip-rule="evenodd" d="M293.708 498.2L289.415 475.916L367.342 427.264L293.708 498.2Z" fill="#22463F"/>
<path fill-rule="evenodd" clip-rule="evenodd" d="M342.255 500.683L354.925 439.013L367.112 427.452L366.156 477.747L342.255 500.683Z" fill="#22463F"/>
<path fill-rule="evenodd" clip-rule="evenodd" d="M125.836 469.424L126.31 469.064L63.3054 442.634L71.83 509.871L71.3726 510.219L134.344 536.656L125.836 469.424Z" fill="#73D3A6"/>
<path fill-rule="evenodd" clip-rule="evenodd" d="M71.8284 510.447L71.8536 510.428L63.3587 442.571L-96.0111 585.38L-117.277 653.519L-118.07 654.121L-117.457 654.105L-117.525 654.315L-117.237 654.096L-45.8904 651.87L134.412 536.605L71.8284 510.447Z" fill="#4EA47B"/>
<path fill-rule="evenodd" clip-rule="evenodd" d="M218.718 397.559L220.461 359.554L151.632 411.303L100.738 487.21L100.868 487.111L187.609 458.433L256.064 406.421L218.817 397.484L218.718 397.559Z" fill="#4EA47B" fill-opacity="0.75"/>
<path fill-rule="evenodd" clip-rule="evenodd" d="M255.041 369.961L257.575 367.979L220.384 359.897L218.761 397.526L218.517 397.712L218.751 397.767L218.724 398.396L219.348 397.904L256.052 406.431L257.712 367.932L255.041 369.961Z" fill="#79E5B2"/>
<path fill-rule="evenodd" clip-rule="evenodd" d="M-43.8781 457.954L41.0783 460.905L-63.9669 431.516L-43.8781 457.954Z" fill="#79E5B2"/>
<path fill-rule="evenodd" clip-rule="evenodd" d="M96.0529 456.306L112.5 308.49L94.5283 333.222L96.0529 456.306Z" fill="#79E5B2"/>
<path fill-rule="evenodd" clip-rule="evenodd" d="M112.735 308.8L16.4998 318.049L94.5134 333.353L112.735 308.8Z" fill="#73D3A6"/>
<path fill-rule="evenodd" clip-rule="evenodd" d="M40.7876 322.34L9.70531 323.59L16.8969 318.126L40.7876 322.34Z" fill="#79E5B2"/>
<path fill-rule="evenodd" clip-rule="evenodd" d="M9.76096 323.546L-6.61768 286.632L17.1586 317.925" fill="#4EA47B"/>
<path fill-rule="evenodd" clip-rule="evenodd" d="M46.5841 749.44L62.193 729.603L48.9916 774.566L46.5841 749.44Z" fill="#4EA47B"/>
<path fill-rule="evenodd" clip-rule="evenodd" d="M90.8545 635.78L110.781 553.141L110.941 662.219L90.8545 635.78Z" fill="#79E5B2"/>
<path fill-rule="evenodd" clip-rule="evenodd" d="M111.175 662.494L90.8581 635.753L55.3787 751.605L111.175 662.494Z" fill="#73D3A6"/>
<path fill-rule="evenodd" clip-rule="evenodd" d="M129.946 501.411L276.762 525.18L248.118 535.867L129.946 501.411Z" fill="#79E5B2"/>
<path fill-rule="evenodd" clip-rule="evenodd" d="M276.528 524.871L241.825 615.107L247.989 535.846L276.528 524.871Z" fill="#73D3A6"/>
<path fill-rule="evenodd" clip-rule="evenodd" d="M244.2 590.557L234.665 620.168L241.857 614.704L244.2 590.557Z" fill="#79E5B2"/>
<path fill-rule="evenodd" clip-rule="evenodd" d="M234.723 620.126L265.896 645.798L242.12 614.505" fill="#4EA47B"/>
<path fill-rule="evenodd" clip-rule="evenodd" d="M314.19 325.864L314.191 325.863L314.189 325.865L277.702 321.134L251.46 332.584L250.028 374.614L249.974 374.655L290.897 384.55L308.964 362.34L314.182 325.916L314.242 325.87L314.19 325.864Z" fill="#73D3A6" fill-opacity="0.81"/>
<path fill-rule="evenodd" clip-rule="evenodd" d="M270.966 316.994L287.941 327.167L251.338 348.859L250.683 324.579L270.966 316.994Z" fill="#C7FCD7"/>
<path fill-rule="evenodd" clip-rule="evenodd" d="M311.118 369.84L305.866 350.76L275.157 380.21L298.374 387.348L311.118 369.84Z" fill="#C7FCD7"/>
<path fill-rule="evenodd" clip-rule="evenodd" d="M410.586 327.494L297.641 350.339L296.944 346.745L410.586 327.494Z" fill="#4EA47B"/>
<path fill-rule="evenodd" clip-rule="evenodd" d="M338.626 232.784L286.347 335.474L289.622 337.109L338.626 232.784Z" fill="#4EA47B"/>
<path fill-rule="evenodd" clip-rule="evenodd" d="M220.323 359.874L169.661 340.112L139.891 328.891L203.922 372.169L220.323 359.874Z" fill="#79E5B2"/>
<path fill-rule="evenodd" clip-rule="evenodd" d="M139.861 328.915L160.468 336.662L228.21 273.49L139.861 328.915Z" fill="#73D3A6"/>
<path fill-rule="evenodd" clip-rule="evenodd" d="M150.069 283.925L213.496 282.843L227.943 273.639L178.659 265.919L150.069 283.925Z" fill="#4EA47B"/>
<path fill-rule="evenodd" clip-rule="evenodd" d="M256.076 406.431L263.77 492.512L239.237 419.225L256.076 406.431Z" fill="#79E5B2"/>
<path fill-rule="evenodd" clip-rule="evenodd" d="M263.777 492.507L261.836 470.577L340.852 422.244L263.777 492.507Z" fill="#73D3A6"/>
<path fill-rule="evenodd" clip-rule="evenodd" d="M309.834 494.699L327.875 433.883L340.614 422.431L334.843 471.981L309.834 494.699Z" fill="#4EA47B"/>
</svg>
