<svg width="430" height="550" viewBox="0 0 430 550" fill="none" xmlns="http://www.w3.org/2000/svg">
<g clip-path="url(#clip0)">
<path fill-rule="evenodd" clip-rule="evenodd" d="M146.613 239.99L147.073 239.627L78.2526 212.433L94.1143 280.772L93.6701 281.122L162.457 308.323L146.613 239.99Z" fill="#22463F"/>
<path fill-rule="evenodd" clip-rule="evenodd" d="M94.1712 281.356L94.1958 281.337L78.3014 212.37L-74.2077 356.532L-89.5083 425.622L-90.2778 426.229L-89.6369 426.216L-89.686 426.429L-89.4063 426.208L-14.7823 424.343L162.522 308.272L94.1712 281.356Z" fill="#22463F"/>
<path fill-rule="evenodd" clip-rule="evenodd" d="M236.664 167.514L234.583 128.922L167.696 181.101L122.11 257.916L122.236 257.816L210.29 229.17L276.759 176.723L236.761 167.438L236.664 167.514Z" fill="#22463F"/>
<path fill-rule="evenodd" clip-rule="evenodd" d="M271.933 139.685L274.388 137.686L234.537 129.27L236.706 167.481L236.47 167.668L236.721 167.725L236.757 168.364L237.361 167.868L276.747 176.732L274.527 137.639L271.933 139.685Z" fill="#22463F"/>
<path fill-rule="evenodd" clip-rule="evenodd" d="M-158.7 239.104L-135.261 229.359L-184.352 229.778L-158.7 239.104Z" fill="#22463F"/>
<path fill-rule="evenodd" clip-rule="evenodd" d="M-32.6221 227.398L56.8136 230.867L-56.4184 200.434L-32.6221 227.398Z" fill="#22463F"/>
<path fill-rule="evenodd" clip-rule="evenodd" d="M-56.6612 200.129L-32.5936 227.401L-159.347 229.911L-56.6612 200.129Z" fill="#22463F"/>
<path fill-rule="evenodd" clip-rule="evenodd" d="M114.017 226.5L116.064 76.4579L99.753 101.478L114.017 226.5Z" fill="#22463F"/>
<path fill-rule="evenodd" clip-rule="evenodd" d="M116.342 76.7732L16.3285 85.6332L99.7512 101.61L116.342 76.7732Z" fill="#22463F"/>
<path fill-rule="evenodd" clip-rule="evenodd" d="M42.2519 90.1265L9.77054 91.2235L16.7534 85.7137L42.2519 90.1265Z" fill="#22463F"/>
<path fill-rule="evenodd" clip-rule="evenodd" d="M9.82435 91.1789L-11.1574 53.5953L17.0073 85.5112" fill="#22463F"/>
<path fill-rule="evenodd" clip-rule="evenodd" d="M92.2761 523.956L106.611 503.895L97.3872 549.49L92.2761 523.956Z" fill="#22463F"/>
<path fill-rule="evenodd" clip-rule="evenodd" d="M127.028 408.76L139.43 324.936L150.822 435.726L127.028 408.76Z" fill="#22463F"/>
<path fill-rule="evenodd" clip-rule="evenodd" d="M151.095 436.005L127.029 408.732L101.725 526.203L151.095 436.005Z" fill="#22463F"/>
<path fill-rule="evenodd" clip-rule="evenodd" d="M154.215 272.5L310.693 297.458L281.74 308.153L154.215 272.5Z" fill="#22463F"/>
<path fill-rule="evenodd" clip-rule="evenodd" d="M310.415 297.143L283.291 388.601L281.603 308.131L310.415 297.143Z" fill="#22463F"/>
<path fill-rule="evenodd" clip-rule="evenodd" d="M283.257 363.679L276.301 393.701L283.283 388.191L283.257 363.679Z" fill="#22463F"/>
<path fill-rule="evenodd" clip-rule="evenodd" d="M276.356 393.659L311.704 419.907L283.539 387.991" fill="#22463F"/>
<path fill-rule="evenodd" clip-rule="evenodd" d="M329.453 95.2256L329.452 95.2264L290.685 90.2186L264.331 101.702L267.154 144.383L267.101 144.425L311.053 154.702L327.723 132.244L329.45 95.2781L329.508 95.232L329.453 95.2256Z" fill="#22463F"/>
<path fill-rule="evenodd" clip-rule="evenodd" d="M283.192 85.9754L302.048 96.4022L265.879 118.232L262.693 93.5675L283.192 85.9754Z" fill="#22463F"/>
<path fill-rule="evenodd" clip-rule="evenodd" d="M330.756 139.874L323.283 120.465L294.095 150.206L319.186 157.585L330.756 139.874Z" fill="#22463F"/>
<path fill-rule="evenodd" clip-rule="evenodd" d="M430.756 97.4163L314.61 119.992L313.509 116.338L430.756 97.4163Z" fill="#22463F"/>
<path fill-rule="evenodd" clip-rule="evenodd" d="M345.513 0.820886L301.231 104.831L304.836 106.51L345.513 0.820886Z" fill="#22463F"/>
<path fill-rule="evenodd" clip-rule="evenodd" d="M234.473 129.246L179.287 108.894L146.9 97.3314L218.531 141.643L234.473 129.246Z" fill="#22463F"/>
<path fill-rule="evenodd" clip-rule="evenodd" d="M146.87 97.3552L169.287 105.339L233.859 41.5525L146.87 97.3552Z" fill="#22463F"/>
<path fill-rule="evenodd" clip-rule="evenodd" d="M152.952 51.7167L219.384 50.9699L233.595 41.7016L181.094 33.5875L152.952 51.7167Z" fill="#22463F"/>
<path fill-rule="evenodd" clip-rule="evenodd" d="M276.773 176.732L293.702 264.205L260.423 189.634L276.773 176.732Z" fill="#22463F"/>
<path fill-rule="evenodd" clip-rule="evenodd" d="M293.709 264.2L289.416 241.916L367.343 193.264L293.709 264.2Z" fill="#22463F"/>
<path fill-rule="evenodd" clip-rule="evenodd" d="M342.255 266.683L354.925 205.013L367.113 193.452L366.156 243.747L342.255 266.683Z" fill="#22463F"/>
<path fill-rule="evenodd" clip-rule="evenodd" d="M125.836 235.424L126.31 235.064L63.3054 208.634L71.83 275.871L71.3726 276.219L134.344 302.656L125.836 235.424Z" fill="#73D3A6"/>
<path fill-rule="evenodd" clip-rule="evenodd" d="M71.8284 276.447L71.8536 276.428L63.3587 208.571L-96.0111 351.38L-117.277 419.519L-118.07 420.121L-117.457 420.105L-117.525 420.315L-117.237 420.096L-45.8904 417.87L134.412 302.605L71.8284 276.447Z" fill="#4EA47B"/>
<path fill-rule="evenodd" clip-rule="evenodd" d="M218.718 163.559L220.461 125.554L151.632 177.303L100.738 253.21L100.868 253.111L187.609 224.433L256.064 172.421L218.817 163.484L218.718 163.559Z" fill="#4EA47B" fill-opacity="0.75"/>
<path fill-rule="evenodd" clip-rule="evenodd" d="M255.041 135.961L257.575 133.979L220.384 125.897L218.761 163.526L218.517 163.712L218.751 163.767L218.724 164.396L219.348 163.904L256.052 172.431L257.712 133.932L255.041 135.961Z" fill="#79E5B2"/>
<path fill-rule="evenodd" clip-rule="evenodd" d="M-43.8781 223.954L41.0783 226.905L-63.9669 197.516L-43.8781 223.954Z" fill="#79E5B2"/>
<path fill-rule="evenodd" clip-rule="evenodd" d="M96.0529 222.306L112.5 74.4901L94.5283 99.2224L96.0529 222.306Z" fill="#79E5B2"/>
<path fill-rule="evenodd" clip-rule="evenodd" d="M112.735 74.7996L16.4998 84.0489L94.5134 99.353L112.735 74.7996Z" fill="#73D3A6"/>
<path fill-rule="evenodd" clip-rule="evenodd" d="M40.7876 88.3398L9.70531 89.5897L16.8969 84.1256L40.7876 88.3398Z" fill="#79E5B2"/>
<path fill-rule="evenodd" clip-rule="evenodd" d="M9.76096 89.5459L-6.61768 52.632L17.1586 83.9252" fill="#4EA47B"/>
<path fill-rule="evenodd" clip-rule="evenodd" d="M46.5841 515.44L62.193 495.603L48.9916 540.566L46.5841 515.44Z" fill="#4EA47B"/>
<path fill-rule="evenodd" clip-rule="evenodd" d="M90.8545 401.78L110.781 319.141L110.941 428.219L90.8545 401.78Z" fill="#79E5B2"/>
<path fill-rule="evenodd" clip-rule="evenodd" d="M111.175 428.494L90.8581 401.753L55.3787 517.605L111.175 428.494Z" fill="#73D3A6"/>
<path fill-rule="evenodd" clip-rule="evenodd" d="M129.946 267.411L276.762 291.18L248.118 301.867L129.946 267.411Z" fill="#79E5B2"/>
<path fill-rule="evenodd" clip-rule="evenodd" d="M276.528 290.871L241.825 381.107L247.989 301.846L276.528 290.871Z" fill="#73D3A6"/>
<path fill-rule="evenodd" clip-rule="evenodd" d="M244.2 356.557L234.665 386.168L241.857 380.704L244.2 356.557Z" fill="#79E5B2"/>
<path fill-rule="evenodd" clip-rule="evenodd" d="M234.723 386.126L265.896 411.798L242.12 380.505" fill="#4EA47B"/>
<path fill-rule="evenodd" clip-rule="evenodd" d="M314.19 91.864L314.191 91.8635L314.189 91.8648L277.702 87.1338L251.46 98.5838L250.028 140.614L249.974 140.655L290.897 150.55L308.964 128.34L314.182 91.9158L314.242 91.8701L314.19 91.864Z" fill="#73D3A6" fill-opacity="0.81"/>
<path fill-rule="evenodd" clip-rule="evenodd" d="M270.966 82.9935L287.941 93.1666L251.338 114.859L250.683 90.5792L270.966 82.9935Z" fill="#C7FCD7"/>
<path fill-rule="evenodd" clip-rule="evenodd" d="M311.118 135.84L305.866 116.76L275.157 146.21L298.374 153.348L311.118 135.84Z" fill="#C7FCD7"/>
<path fill-rule="evenodd" clip-rule="evenodd" d="M410.586 93.4941L297.641 116.339L296.944 112.745L410.586 93.4941Z" fill="#4EA47B"/>
<path fill-rule="evenodd" clip-rule="evenodd" d="M338.626 -1.21614L286.347 101.474L289.622 103.109L338.626 -1.21614Z" fill="#4EA47B"/>
<path fill-rule="evenodd" clip-rule="evenodd" d="M220.323 125.874L169.661 106.112L139.891 94.8911L203.922 138.169L220.323 125.874Z" fill="#79E5B2"/>
<path fill-rule="evenodd" clip-rule="evenodd" d="M139.861 94.9145L160.468 102.662L228.21 39.4903L139.861 94.9145Z" fill="#73D3A6"/>
<path fill-rule="evenodd" clip-rule="evenodd" d="M150.069 49.925L213.496 48.843L227.943 39.6389L178.659 31.9193L150.069 49.925Z" fill="#4EA47B"/>
<path fill-rule="evenodd" clip-rule="evenodd" d="M256.076 172.431L263.77 258.512L239.237 185.225L256.076 172.431Z" fill="#79E5B2"/>
<path fill-rule="evenodd" clip-rule="evenodd" d="M263.777 258.507L261.836 236.577L340.852 188.244L263.777 258.507Z" fill="#73D3A6"/>
<path fill-rule="evenodd" clip-rule="evenodd" d="M309.834 260.699L327.875 199.883L340.614 188.431L334.843 237.981L309.834 260.699Z" fill="#4EA47B"/>
</g>
<defs>
<clipPath id="clip0">
<rect width="430" height="550" fill="white"/>
</clipPath>
</defs>
</svg>
