<svg width="447" height="509" viewBox="0 0 447 509" fill="none" xmlns="http://www.w3.org/2000/svg">
<path d="M371.276 253.706C379.477 253.706 387.598 252.071 395.174 248.894C402.751 245.718 409.636 241.062 415.435 235.192C421.234 229.323 425.834 222.355 428.972 214.686C432.11 207.017 433.726 198.798 433.726 190.497C433.726 182.197 432.11 173.977 428.972 166.308C425.834 158.64 421.234 151.672 415.435 145.802C409.636 139.933 402.751 135.277 395.174 132.1C387.598 128.924 379.477 127.289 371.276 127.289L371.276 190.497L371.276 253.706Z" fill="#252026"/>
<path d="M371.276 380.994C379.477 380.994 387.598 379.359 395.174 376.183C402.751 373.006 409.636 368.35 415.435 362.481C421.234 356.611 425.834 349.643 428.972 341.975C432.11 334.306 433.726 326.086 433.726 317.786C433.726 309.485 432.11 301.266 428.972 293.597C425.834 285.928 421.234 278.96 415.435 273.091C409.636 267.221 402.751 262.565 395.174 259.389C387.598 256.212 379.477 254.577 371.276 254.577L371.276 317.786L371.276 380.994Z" fill="#73C78B"/>
<path d="M185.638 190.933L185.638 253.706L247.233 190.933L185.638 190.933Z" fill="#73C78B"/>
<path d="M309.282 127.46L309.282 191.104L247.688 127.46L309.282 127.46Z" fill="#73C78B"/>
<path d="M247.44 127.46L247.44 191.104L185.846 127.46L247.44 127.46Z" fill="#73C78B"/>
<path d="M247.232 190.933L247.232 253.706L309.682 190.933L247.232 190.933Z" fill="#73C78B"/>
<path d="M371.276 63.6443L371.276 126.417L433.726 63.6443L371.276 63.6443Z" fill="#73C78B"/>
<path d="M247.233 253.706L247.233 317.35L308.827 253.706L247.233 253.706Z" fill="#73C78B"/>
<path d="M247.233 63.6443L247.233 127.289L185.638 63.6443L247.233 63.6443Z" fill="#252026"/>
<path d="M247.233 0L247.233 63.6444L185.638 -8.34398e-06L247.233 0Z" fill="#252026"/>
<path d="M309.682 190.933L309.682 254.577L371.276 190.933L309.682 190.933Z" fill="#252026"/>
<path d="M309.682 63.6443L309.682 127.289L372.131 63.6443L309.682 63.6443Z" fill="#252026"/>
<path d="M309.682 127.289L309.682 190.933L371.276 127.289L309.682 127.289Z" fill="#252026"/>
<path d="M309.682 127.289L309.682 190.933L371.276 127.289L309.682 127.289Z" fill="#252026"/>
<path d="M185.429 508.418L446.558 508.418L185.429 257.387L185.429 508.418Z" fill="#252026"/>
<rect width="62.4497" height="63.6444" transform="matrix(-1 -9.09194e-08 -8.42847e-08 1 248.088 317.35)" fill="#73C78B"/>
<rect width="62.4497" height="63.6444" transform="matrix(-1 -9.09194e-08 -8.42847e-08 1 248.088 317.35)" fill="#73C78B"/>
<rect width="62.4498" height="63.6444" transform="matrix(-1 -9.09193e-08 -8.42847e-08 1 372.987 317.35)" fill="#73C78B"/>
<rect width="62.4498" height="63.6443" transform="matrix(-1 -9.09192e-08 -8.42848e-08 1 308.826 380.994)" fill="#73C78B"/>
<rect width="62.4496" height="62.7725" transform="matrix(-1 -9.09195e-08 -8.42845e-08 1 432.946 446.228)" fill="#73C78B"/>
<ellipse rx="30.7971" ry="31.3863" transform="matrix(-1 -9.09195e-08 -8.42846e-08 1 154.841 222.319)" fill="#252026"/>
<ellipse rx="30.7971" ry="31.3863" transform="matrix(-1 -9.09194e-08 -8.42847e-08 1 154.801 412.511)" fill="#252026"/>
<path d="M185.638 317.35L185.638 254.578L124.044 317.35L185.638 317.35Z" fill="#73C78B"/>
<path d="M185.638 380.994L185.638 317.35L124.044 380.994L185.638 380.994Z" fill="#73C78B"/>
<path d="M124.044 317.35L124.044 254.578L61.5943 317.35L124.044 317.35Z" fill="#73C78B"/>
<path d="M124.044 254.577L124.044 190.933L62.4498 254.577L124.044 254.577Z" fill="#73C78B"/>
<path d="M123.188 444.639L123.188 380.994L61.5943 444.639L123.188 444.639Z" fill="#252026"/>
<path d="M123.188 508.283L123.188 444.639L61.5943 508.283L123.188 508.283Z" fill="#252026"/>
<path d="M61.5942 317.35L61.5942 253.705L9.91821e-05 317.35L61.5942 317.35Z" fill="#252026"/>
<path d="M61.5942 380.994L61.5942 317.35L4.19617e-05 380.994L61.5942 380.994Z" fill="#252026"/>
<path d="M61.5942 380.994L61.5942 317.35L4.19617e-05 380.994L61.5942 380.994Z" fill="#73C78B"/>
</svg>
