<svg width="119" height="267" viewBox="0 0 119 267" fill="none" xmlns="http://www.w3.org/2000/svg">
<path d="M13.5342 239.289C50.0316 241.72 69.8997 241.882 103.909 239.289L103.892 253.183C103.886 258.032 100.396 262.2 95.6055 262.956C68.6451 267.209 49.8745 267.196 21.8491 262.916C17.0303 262.18 13.5115 257.999 13.5174 253.123L13.5342 239.289Z" fill="#685A5D"/>
<path d="M111.704 123.917C111.704 123.917 111.702 123.921 111.698 123.929C111.701 123.921 111.703 123.917 111.704 123.917ZM111.498 124.076C111.517 124.098 111.535 124.12 111.551 124.139C111.535 124.159 111.517 124.18 111.497 124.203C111.153 124.598 110.466 125.169 109.258 125.839C106.845 127.179 103.088 128.515 98.1023 129.686C88.1949 132.013 74.3076 133.49 58.8293 133.49C43.3509 133.49 29.4672 132.013 19.5654 129.686C14.5827 128.515 10.8292 127.179 8.41891 125.839C7.21274 125.169 6.52694 124.598 6.18361 124.203C6.16403 124.18 6.1462 124.159 6.12999 124.139C6.14625 124.12 6.16413 124.098 6.18377 124.076C6.52805 123.681 7.21523 123.11 8.42303 122.439C10.8366 121.1 14.5933 119.764 19.5789 118.593C29.4863 116.266 43.3735 114.789 58.8519 114.789C74.3303 114.789 88.2139 116.266 98.1157 118.593C103.098 119.764 106.852 121.1 109.262 122.439C110.468 123.11 111.154 123.681 111.498 124.076ZM5.97809 123.917C5.97837 123.917 5.98038 123.921 5.9833 123.929C5.97928 123.921 5.97782 123.917 5.97809 123.917ZM5.97755 124.362C5.97728 124.362 5.97876 124.358 5.98279 124.35C5.97985 124.358 5.97783 124.362 5.97755 124.362ZM111.698 124.35C111.702 124.358 111.703 124.362 111.703 124.362C111.703 124.362 111.701 124.358 111.698 124.35Z" fill="#447F62" stroke="#6FA77F" stroke-width="8"/>
<path d="M109.875 128.089C109.869 133.274 87.209 137.477 59.2625 137.477C31.3161 137.477 8.66618 133.274 8.67246 128.089C8.67875 122.905 31.3389 118.702 59.2853 118.702C87.2317 118.702 109.882 122.905 109.875 128.089Z" fill="#B3D9BE"/>
<path d="M2.01301 124.139C47.9166 137.319 72.9111 138.199 115.71 124.139C116.677 128.368 117.293 131.764 117.501 134.866C118.093 143.671 117.158 152.626 117.74 161.43C117.968 164.877 117.872 168.047 117.49 171.345C116.706 178.116 116.477 184.941 117.139 191.723C117.773 198.213 117.555 203.745 116.532 210.612C115.985 214.283 115.885 218.486 116.244 222.18C117.627 236.398 106.981 247.866 92.9972 250.809C71.3692 255.362 52.9824 255.521 29.9147 251.353C13.2792 248.348 2.35131 233.036 1.90154 216.134C0.124993 204.923 0.213671 197.869 1.16132 188.474C1.62819 183.846 1.50458 179.184 0.947275 174.567C0.213279 168.486 0.0651615 163.475 0.590149 157.816C1.18725 151.379 0.948875 144.903 0.611902 138.448C0.375853 133.927 0.86169 129.764 2.01301 124.139Z" fill="#6FA77F"/>
<path d="M46.2251 154.408C55.2749 155.64 64.4522 155.626 73.5012 154.366L113.806 148.755L113.516 148.9C103.773 153.777 93.3017 157.031 82.5144 158.533L73.5459 159.782C64.4632 161.047 55.2513 161.057 46.169 159.811L35.8772 158.4C25.555 156.985 15.5195 153.965 6.13389 149.449L4.69019 148.755L46.2251 154.408Z" fill="#4E775A"/>
<path d="M46.3919 188.202C55.4416 189.434 64.619 189.42 73.6679 188.16L113.973 182.549L113.682 182.694C103.94 187.571 93.4684 190.825 82.6811 192.327L73.7126 193.576C64.63 194.841 55.4181 194.851 46.3358 193.606L36.0439 192.195C25.7218 190.779 15.6862 187.759 6.30064 183.243L4.85693 182.549L46.3919 188.202Z" fill="#4E775A"/>
<path d="M46.354 219.91C55.4038 221.142 64.5812 221.127 73.6301 219.868L113.935 214.256L113.645 214.402C103.902 219.279 93.4306 222.532 82.6433 224.035L73.6748 225.284C64.5922 226.549 55.3802 226.558 46.2979 225.313L36.0061 223.902C25.684 222.487 15.6484 219.467 6.26279 214.951L4.81909 214.256L46.354 219.91Z" fill="#4E775A"/>
<path d="M17.2568 43.8517C19.8722 41.4693 46.8628 83.853 40.6118 93.5543C34.3609 103.256 43.0962 123.672 37.6563 121.546C30.5392 118.765 22.0291 100.234 30.7596 83.2682C33.7794 77.3997 14.6414 46.2342 17.2568 43.8517Z" fill="white"/>
<path d="M75.9216 45.6507C72.4608 46.2783 60.5602 93.8065 70.3676 100.596C80.175 107.385 80.5176 128.161 83.4705 125.675C89.6355 120.485 91.5074 100.073 76.5739 87.3976C65.4984 77.9971 79.3825 45.0231 75.9216 45.6507Z" fill="white"/>
<path d="M34.9335 0.354619C34.2226 0.483532 25.9951 36.7104 35.5798 46.9248C45.1645 57.1392 45.3363 67.4898 46.6936 65.626C49.3158 62.0253 44.9033 48.9063 37.2003 38.4972C31.4872 30.7773 36.453 0.079061 34.9335 0.354619Z" fill="white"/>
<path d="M2.04199 229.902C50.3595 241.238 74.6926 242.056 116.623 230.11C117.22 238.747 111.706 246.708 103.292 248.758C73.5541 256.005 51.409 256.346 17.3066 248.731C8.49491 246.763 2.30842 238.929 2.04199 229.902Z" fill="#4E775A"/>
</svg>
