<svg width="496" height="341" viewBox="0 0 496 341" fill="none" xmlns="http://www.w3.org/2000/svg">
<path d="M158.022 51.5286C162.42 50.9611 166.873 50.9811 171.266 51.588L250.359 62.5174C305.428 70.1269 351.399 108.343 368.94 161.095C374.214 176.955 373.887 194.144 368.014 209.792L357.38 238.123C346.484 267.151 323.992 290.329 295.305 302.093C291.227 318.048 278.007 330.08 261.699 332.375C184.415 343.248 138.876 344.244 86.9865 333.054C74.4843 330.358 63.8567 322.348 57.1116 311.482L51.2836 302.093C22.507 292.961 -2.09752 272.916 -14.393 245.342C-23.8593 224.113 -30.1541 204.803 -30.0455 185.607C-30.031 183.055 -29.9146 180.505 -29.7035 177.953C-23.8627 107.318 51.9972 65.2111 122.291 56.1397L158.022 51.5286Z" fill="#79B088"/>
<path d="M-21.4395 226.983C123.302 276.699 227.096 284.553 358.714 222.185" stroke="#558A64" stroke-width="2"/>
<path d="M294.305 87.8264C294.305 92.1217 291.087 96.4591 284.648 100.593C278.256 104.697 268.939 108.431 257.337 111.582C234.148 117.879 202.056 121.786 166.569 121.786C131.082 121.786 98.9906 117.879 75.8014 111.582C64.1997 108.431 54.8831 104.697 48.4905 100.593C42.0521 96.4591 38.8335 92.1217 38.8335 87.8264C38.8335 84.2978 40.9913 80.2718 45.3148 76.0334C49.6146 71.8183 55.9288 67.5215 63.9247 63.4591C79.9098 55.3377 102.465 48.229 128.631 44.5638C140.62 42.8845 153.362 41.929 166.569 41.929C201.998 41.929 234.056 48.8045 257.228 58.0658C268.819 62.6981 278.147 67.9115 284.557 73.1288C291.02 78.3884 294.305 83.4747 294.305 87.8264Z" fill="#7CB88E" stroke="#5B966C" stroke-width="2"/>
<path d="M412.055 87.7046C454.785 124.735 454.785 112.067 452.447 180.825C387.294 192.632 349.295 217.616 272.565 265.95C243.498 230.025 229.327 201.776 261.79 156.656C315.34 154.877 350.105 140.305 412.055 87.7046Z" fill="#80C293"/>
<path d="M384.354 133.939C459.29 87.1633 457.05 111.317 454.712 180.075C389.559 191.882 349.807 218.136 273.077 266.47C244.009 230.545 238.681 220.588 292.896 189.485C357.81 152.245 296.595 188.719 384.354 133.939Z" fill="#78BA8B" fill-opacity="0.6"/>
<path d="M470.323 116.396C476.068 128.843 477.64 141.671 475.7 152.273C473.758 162.886 468.389 170.96 460.488 174.712C452.586 178.465 443.034 177.476 433.756 172.192C424.485 166.914 415.779 157.473 410.035 145.026C404.29 132.579 402.717 119.75 404.657 109.148C406.6 98.5358 411.968 90.4613 419.87 86.7089C427.771 82.9566 437.323 83.9459 446.602 89.2293C455.872 94.5078 464.578 103.949 470.323 116.396Z" fill="#184926" stroke="#93DDA8" stroke-width="7"/>
<path d="M-9.85449 119.075C134.887 168.791 215.634 167.094 346.963 116.581" stroke="#558A64" stroke-width="2"/>
<path d="M-38.1514 121.282C-33.9209 118.93 -28.7865 118.931 -24.4111 121.001C12.895 138.65 25.2265 135.168 75.9328 134.586C83.9284 134.495 91.974 136.697 97.794 142.181C138.898 180.907 127.416 256.621 45.5018 248.631C-33.0085 244.827 4.95467 166.756 -41.2278 155.345C-64.4547 143.743 -69.6932 138.817 -38.1514 121.282Z" fill="#80C293"/>
<path d="M-36.2575 149.087C-34.9618 149.227 -33.6471 149.532 -32.4378 150.017C7.28765 165.97 1.72274 194.31 54.6518 197.416C61.1805 197.799 67.7699 199.255 73.3903 202.599C127.185 234.606 89.3201 251.292 44.4825 249.615C-32.3748 242.575 4.35321 168.761 -40.0609 155.453C-64.1939 143.399 -60.4527 146.479 -36.2575 149.087Z" fill="#73B586" fill-opacity="0.6"/>
<path d="M232.901 53.3299C232.901 53.7302 232.677 54.2673 231.915 54.934C231.159 55.5959 229.984 56.2808 228.377 56.9608C225.172 58.3173 220.473 59.5615 214.59 60.6144C202.842 62.7173 186.572 64.0238 168.572 64.0238C150.573 64.0238 134.302 62.7173 122.554 60.6144C116.672 59.5615 111.973 58.3173 108.767 56.9608C107.16 56.2808 105.986 55.5959 105.229 54.934C104.467 54.2673 104.244 53.7302 104.244 53.3299C104.244 52.9296 104.467 52.3924 105.229 51.7258C105.986 51.0639 107.16 50.379 108.767 49.699C111.973 48.3425 116.672 47.0983 122.554 46.0454C134.302 43.9425 150.573 42.636 168.572 42.636C186.572 42.636 202.842 43.9425 214.59 46.0454C220.473 47.0983 225.172 48.3425 228.377 49.699C229.984 50.379 231.159 51.0639 231.915 51.7258C232.677 52.3924 232.901 52.9296 232.901 53.3299Z" stroke="#5B966C" stroke-width="2"/>
<path d="M163.305 2.11202C164.778 0.885822 166.913 0.876676 168.397 2.09021L188.36 18.4215C191.924 21.3374 193.036 26.3105 191.053 30.4669L180.02 53.5971C169.724 57.6813 163.838 57.5651 153.119 53.5971L141.368 30.5015C139.25 26.3405 140.294 21.2682 143.882 18.2811L163.305 2.11202Z" fill="#81C194"/>
<path d="M144.316 35.8016C142.697 32.7847 145.371 29.2612 148.712 30.0069L165.842 33.8295L185.19 28.4769C188.561 27.5444 191.421 31.0823 189.803 34.1829L180.208 52.5657C169.912 56.6499 164.027 56.5337 153.308 52.5657L144.316 35.8016Z" fill="#6A9D7A" fill-opacity="0.5"/>
<path d="M51.2798 302.093C123.457 326.304 177.165 323.4 295.309 302.093" stroke="#3D784E" stroke-opacity="0.5"/>
</svg>
