<svg width="138" height="35" viewBox="0 0 138 35" fill="none" xmlns="http://www.w3.org/2000/svg">
<g clip-path="url(#clip0)">
<path d="M27.4622 6.54447H17.2078V34.3193H10.3195V6.54447H0V0.667511H27.4622V6.54447Z" fill="white"/>
<path d="M41.0962 0.667511H61.982V6.54447H47.9975V14.3979H60.7213V20.2618H47.9975V28.4816H62.294V34.3455H41.0962V0.667511Z" fill="white"/>
<path d="M92.615 25.2879C92.6267 24.8069 92.5257 24.3299 92.3202 23.8956C92.1147 23.4612 91.8105 23.0817 91.4323 22.7879C90.5265 22.0729 89.5299 21.4831 88.469 21.0339C87.2733 20.5104 85.9866 19.9606 84.57 19.3978C83.1974 18.8579 81.8895 18.1642 80.6709 17.3298C79.4858 16.5245 78.4736 15.4874 77.6947 14.28C76.8609 12.8748 76.45 11.2561 76.512 9.62033C76.4755 8.15534 76.7688 6.70105 77.3697 5.36641C77.9291 4.17777 78.7678 3.14443 79.8131 2.35593C80.9483 1.51481 82.2384 0.909681 83.6082 0.57583C85.1889 0.177143 86.8136 -0.016398 88.443 -8.64146e-05C90.3824 -0.00949636 92.3184 0.161385 94.2266 0.510385C95.8104 0.753603 97.3457 1.24841 98.7755 1.97635L96.54 7.49991C95.498 6.93535 94.3824 6.52117 93.2258 6.26955C91.6594 5.89268 90.0535 5.70809 88.443 5.71981C87.1442 5.63524 85.851 5.95512 84.7389 6.63604C84.3342 6.89979 84.0026 7.26275 83.7753 7.69087C83.548 8.11899 83.4323 8.59824 83.4392 9.08368C83.4336 9.55064 83.5379 10.0123 83.7434 10.4309C83.949 10.8495 84.2501 11.2131 84.622 11.4921C85.5308 12.2095 86.5265 12.8077 87.5852 13.2722C88.7809 13.8088 90.0676 14.3716 91.4843 14.9476C92.8528 15.507 94.1596 16.2089 95.3833 17.0418C96.5588 17.8481 97.5692 18.8746 98.3596 20.0654C99.1836 21.417 99.5949 22.9828 99.5423 24.568C99.5852 26.1641 99.2652 27.749 98.6065 29.2015C98.0054 30.4742 97.1149 31.5863 96.0072 32.4476C94.7875 33.356 93.4001 34.0102 91.9262 34.3716C90.2265 34.8008 88.4797 35.0119 86.7274 34.9999C84.495 35.0325 82.2663 34.8041 80.0861 34.3193C78.6327 34.0313 77.2128 33.5927 75.8491 33.0104L77.9806 27.3559C78.4436 27.5952 78.9211 27.8051 79.4102 27.9842C80.0603 28.2292 80.7243 28.4346 81.3988 28.5994C82.1396 28.7957 82.9194 28.9528 83.7382 29.0837C84.5765 29.2161 85.4239 29.2818 86.2726 29.28C87.8993 29.3763 89.5225 29.0376 90.9774 28.2983C91.4994 27.9974 91.9286 27.5569 92.2176 27.0256C92.5066 26.4943 92.6442 25.8929 92.615 25.2879Z" fill="white"/>
<path d="M138 32.945C136.752 33.7451 135.354 34.2796 133.893 34.5157C132.21 34.8438 130.499 35.006 128.785 35C126.745 35.002 124.718 34.675 122.781 34.0314C120.905 33.4219 119.194 32.3876 117.777 31.0078C116.262 29.4795 115.099 27.6339 114.372 25.6021C113.449 23.0046 113.008 20.2581 113.072 17.5C112.978 14.6539 113.455 11.818 114.476 9.16227C115.334 7.12172 116.63 5.29791 118.271 3.82196C119.722 2.49655 121.437 1.49713 123.301 0.890023C125.125 0.307551 127.027 0.00744747 128.941 -2.93823e-05C130.652 -0.0216078 132.36 0.10539 134.049 0.379552C135.222 0.580851 136.375 0.887485 137.493 1.29578L136.193 6.8717C135.317 6.49439 134.395 6.23474 133.451 6.09945C132.159 5.92638 130.856 5.84764 129.552 5.86384C128.296 5.81521 127.045 6.0443 125.886 6.53501C124.728 7.02572 123.69 7.76613 122.846 8.70416C121.113 10.5977 120.246 13.5384 120.246 17.5261C120.237 19.1226 120.447 20.7128 120.87 22.2513C121.222 23.5876 121.846 24.8357 122.703 25.9162C123.531 26.9296 124.581 27.736 125.77 28.2722C127.109 28.8614 128.559 29.1516 130.02 29.123C131.307 29.1492 132.592 29.004 133.841 28.6911C134.791 28.4431 135.705 28.069 136.557 27.5785L138 32.945Z" fill="white"/>
</g>
<defs>
<clipPath id="clip0">
<rect width="138" height="35" fill="white"/>
</clipPath>
</defs>
</svg>
