<svg id="Layer_1" data-name="Layer 1" xmlns="http://www.w3.org/2000/svg" viewBox="0 0 808.382 936.928"><defs><style>.cls-1{fill:#32948b;}.cls-2,.cls-41{fill:#3e3e3e;}.cls-3{fill:#8b908f;}.cls-4{fill:#00b099;}.cls-5{fill:#666;}.cls-6{fill:#565656;}.cls-7{fill:#eac966;}.cls-8{fill:#fffa89;}.cls-9{fill:#fff;}.cls-10{fill:#d7c3b1;}.cls-11{fill:#564b58;}.cls-12{fill:#9c9c9a;}.cls-13{fill:#dcd7d4;}.cls-14{fill:#b7b9b4;}.cls-15{fill:#40404d;}.cls-16{fill:#515c59;}.cls-17{fill:#636363;}.cls-18{fill:#aaaaac;}.cls-19{fill:#c6c6c8;}.cls-20{fill:#424242;}.cls-21{fill:#308487;}.cls-22{fill:#343233;}.cls-23{fill:#6e6c6d;}.cls-24{fill:#c9ad57;}.cls-25{fill:#bcbdb6;}.cls-26{fill:#e0dfdd;}.cls-27{fill:#d9ba5e;}.cls-28{fill:#acacac;}.cls-29{fill:#c9c8c6;}.cls-30{fill:#696969;}.cls-31{fill:#505050;}.cls-32{fill:#aaa;}.cls-33{fill:#e3e3e3;}.cls-34{fill:#949494;}.cls-35{fill:#f4f5f7;}.cls-36{fill:#fc4c24;}.cls-37{fill:#ffbe7c;}.cls-38{fill:#383735;}.cls-39{fill:#4d4f4c;}.cls-40{fill:none;}.cls-40,.cls-41{stroke:#3e3e3e;stroke-miterlimit:10;}.cls-42{fill:#777;}.cls-43{fill:#c8c6cb;}.cls-44{fill:#525250;}.cls-45{fill:#8a8a8a;}.cls-46{fill:#282923;}.cls-47{fill:#ffef00;}.cls-48{fill:#dadada;}.cls-49{fill:#8f8f8f;}.cls-50{fill:#d7d7d7;}.cls-51{fill:#9b9b9b;}.cls-52{fill:#e4e4e4;}.cls-53{fill:#bcbcbc;}.cls-54{fill:#575757;}.cls-55{fill:#373737;}.cls-56{fill:#1f1f1f;}.cls-57{fill:#110100;}.cls-58{fill:#fac864;}.cls-59{fill:#fee27a;}.cls-60{fill:#00b241;}.cls-61{fill:#00912e;}.cls-62{fill:#7d7d7d;}.cls-63{fill:#2a2a2a;}.cls-64{fill:#676767;}.cls-65{fill:#4e9aac;}.cls-66{fill:#306e82;}.cls-67{fill:#818380;}.cls-68{fill:#919191;}.cls-69{fill:#fbc1a2;}.cls-70{fill:#e4e2e5;}.cls-71{fill:#514b51;}.cls-72{fill:#29cc42;}.cls-73{fill:#ffbe2f;}.cls-74{fill:#ff5e58;}.cls-75{fill:#ffb500;}.cls-76{fill:#ffda00;}.cls-77{fill:#ffa100;}</style></defs><title>eotg</title><polygon class="cls-1" points="342 659.604 341.894 676.032 153.875 786.553 153.981 770.125 342 659.604"/><polygon class="cls-2" points="279.587 655.997 279.587 655.987 308.582 639.7 325.633 649.857 325.529 666.122 279.355 692.065 279.587 655.997"/><polygon class="cls-2" points="325.76 630.079 325.633 649.857 308.582 639.7 325.736 630.064 325.76 630.079"/><polygon class="cls-3" points="325.736 630.064 308.582 639.7 301.042 635.204 317.709 625.843 325.736 630.064"/><polygon class="cls-3" points="301.042 635.204 308.582 639.7 279.587 655.987 279.587 655.997 271.634 651.726 301.042 635.204"/><path class="cls-4" d="M365.439,676.811l-.1.054-.072,6.6-5.02-2.55-59.381,35.766-.049,7.589-3.208-1.911.058-9.023a4.043,4.043,0,0,0-1.057-2.653l83.482-49.36.063-9.785,14.691,8.747Z" transform="translate(-93.805 -25.085)"/><path class="cls-2" d="M380.156,651.542l-.063,9.785-83.482,49.36c-1.885-2.243-6.105-3.824-11.022-3.855a21.613,21.613,0,0,0-4.38.407l.066-10.4,87.787-51.91Z" transform="translate(-93.805 -25.085)"/><polygon class="cls-2" points="286.436 613.239 286.351 626.457 275.258 619.846 286.436 613.239"/><polygon class="cls-5" points="286.436 613.239 275.258 619.846 250.405 605.043 250.411 604.094 260.238 598.285 286.436 613.239"/><polygon class="cls-6" points="279.587 655.997 279.355 692.065 279.33 692.114 272.804 689.188 272.997 659.161 271.463 658.384 271.535 651.78 271.634 651.726 279.587 655.997"/><path class="cls-5" d="M344.183,634.239l.026-4.111,24.853,14.8-87.787,51.91-26.192-14.955,65.733-38.867,5.481,3.226.025-3.958,7.342-3.094,8.055-3.4C343.171,635.534,344.179,634.937,344.183,634.239Z" transform="translate(-93.805 -25.085)"/><polygon class="cls-2" points="272.804 689.188 272.764 695.307 213.383 731.074 213.525 708.981 216.067 707.548 213.544 706.048 213.544 706.013 216.086 704.58 213.563 703.08 213.615 694.927 271.447 660.095 271.141 688.44 272.804 689.188"/><polygon class="cls-2" points="272.997 659.161 272.804 689.188 271.141 688.44 271.447 660.095 272.997 659.161"/><polygon class="cls-3" points="272.997 659.161 271.447 660.095 271.463 658.384 272.997 659.161"/><polygon class="cls-3" points="271.463 658.384 271.447 660.095 213.615 694.927 207.062 691.6 266.443 655.834 271.463 658.384"/><path class="cls-5" d="M344.209,630.128l-.026,4.111c.006-.954-1.869-1.743-4.194-1.758a9.972,9.972,0,0,0-1.539.109l4.961-2.937Z" transform="translate(-93.805 -25.085)"/><polygon class="cls-5" points="250.411 604.094 250.405 605.043 249.606 604.568 250.411 604.094"/><path class="cls-7" d="M344.278,619.4l-.062,9.78-.805.474-7.579-4.515.037-5.793c-.006.955,1.873,1.743,4.193,1.758S344.272,620.354,344.278,619.4Z" transform="translate(-93.805 -25.085)"/><path class="cls-7" d="M343.411,629.653l-4.961,2.937c-1.55.242-2.657.853-2.676,1.58l.058-9.032Z" transform="translate(-93.805 -25.085)"/><ellipse class="cls-8" cx="340.074" cy="619.372" rx="1.731" ry="4.205" transform="translate(-375.274 930.376) rotate(-89.632)"/><path class="cls-5" d="M341.719,635.8a9.222,9.222,0,0,1-1.752.147c-2.32-.015-4.2-.8-4.194-1.759v-.015l2.676-1.58a9.972,9.972,0,0,1,1.539-.109c2.325.015,4.2.8,4.194,1.758C344.179,634.937,343.171,635.534,341.719,635.8Z" transform="translate(-93.805 -25.085)"/><path class="cls-7" d="M338.45,632.59l-2.676,1.58C335.793,633.443,336.9,632.832,338.45,632.59Z" transform="translate(-93.805 -25.085)"/><polygon class="cls-3" points="242.027 600.052 241.969 609.085 240.976 609.673 241.006 604.889 241.008 604.642 241.041 599.467 242.027 600.052"/><path class="cls-5" d="M341.719,635.8l-8.055,3.4-.142-.337c.764-.307,1.237-.734,1.24-1.214l.018-2.884.994-.588v.015c-.006.955,1.874,1.744,4.194,1.759A9.222,9.222,0,0,0,341.719,635.8Z" transform="translate(-93.805 -25.085)"/><path class="cls-5" d="M334.78,634.758l-.018,2.884c0-.663-.9-1.248-2.236-1.548Z" transform="translate(-93.805 -25.085)"/><path class="cls-7" d="M334.811,629.974l-.031,4.784-2.254,1.336a9.536,9.536,0,0,0-1.958-.211c-2.32-.015-4.21.75-4.216,1.7l.049-7.668,0-.247c-.006.954,1.874,1.743,4.194,1.758s4.21-.749,4.216-1.7Z" transform="translate(-93.805 -25.085)"/><path class="cls-7" d="M334.846,624.552l-.033,5.175c.006-.955-1.869-1.744-4.194-1.759s-4.21.75-4.216,1.705l.045-6.926c-.007.955,1.873,1.744,4.193,1.759a7.659,7.659,0,0,0,3.165-.574Z" transform="translate(-93.805 -25.085)"/><path class="cls-7" d="M334.857,622.8l-.011,1.751-1.04-.62C334.461,623.635,334.854,623.241,334.857,622.8Z" transform="translate(-93.805 -25.085)"/><path class="cls-7" d="M334.859,622.554l0,.247c.006-.955-1.869-1.743-4.194-1.758a9.3,9.3,0,0,0-1.529.109l-2.666-1.591.03-4.729c-.006.955,1.874,1.744,4.194,1.759s4.21-.75,4.216-1.705Z" transform="translate(-93.805 -25.085)"/><ellipse class="cls-7" cx="330.608" cy="629.7" rx="1.731" ry="4.205" transform="translate(-395.007 931.172) rotate(-89.632)"/><path class="cls-8" d="M334.857,622.8c0,.44-.4.834-1.051,1.131l-4.672-2.78a9.3,9.3,0,0,1,1.529-.109C332.988,621.058,334.863,621.846,334.857,622.8Z" transform="translate(-93.805 -25.085)"/><path class="cls-8" d="M329.134,621.152l4.672,2.78a7.659,7.659,0,0,1-3.165.574c-2.32-.015-4.2-.8-4.193-1.759C326.452,622.015,327.569,621.394,329.134,621.152Z" transform="translate(-93.805 -25.085)"/><ellipse class="cls-8" cx="330.703" cy="614.859" rx="1.731" ry="4.205" transform="translate(-380.072 916.522) rotate(-89.632)"/><path class="cls-5" d="M332.526,636.094c1.334.3,2.24.885,2.236,1.548,0,.48-.476.907-1.24,1.214a8.006,8.006,0,0,1-2.976.49,8.223,8.223,0,0,1-2.763-.448Z" transform="translate(-93.805 -25.085)"/><path class="cls-7" d="M332.526,636.094l-4.743,2.8c-.878-.322-1.434-.791-1.431-1.31.006-.955,1.9-1.72,4.216-1.7A9.536,9.536,0,0,1,332.526,636.094Z" transform="translate(-93.805 -25.085)"/><path class="cls-5" d="M330.546,639.346a8.006,8.006,0,0,0,2.976-.49l.142.337-7.342,3.094-2.1-1.28,3.565-2.109A8.223,8.223,0,0,0,330.546,639.346Z" transform="translate(-93.805 -25.085)"/><path class="cls-7" d="M326.468,619.561l2.666,1.591c-1.565.242-2.682.863-2.686,1.595V622.5Z" transform="translate(-93.805 -25.085)"/><polygon class="cls-5" points="232.517 617.202 232.492 621.16 227.012 617.934 230.413 615.922 232.517 617.202"/><path class="cls-3" d="M326.352,637.588c0,.519.553.988,1.431,1.31l-3.565,2.109-22.535-13.719,5.959-3.454-.027,4.234c-.006.955,1.873,1.743,4.193,1.758s4.21-.749,4.216-1.7l.059-9.181.5-.289-.04,6.258-.053,8.162c-.006.955,1.874,1.743,4.194,1.758s4.21-.749,4.216-1.7l.052-8.162.041-6.283,1.478.88-.019,2.939v.247l-.045,6.926,0,.247Z" transform="translate(-93.805 -25.085)"/><path class="cls-7" d="M324.949,624.964l-.052,8.162c.006-.955-1.869-1.743-4.194-1.758s-4.21.749-4.216,1.7l.053-8.162.04-6.258.094-.054c.4.779,2.084,1.379,4.1,1.392,2.038.013,3.739-.575,4.13-1.359l.084.05Z" transform="translate(-93.805 -25.085)"/><path class="cls-7" d="M324.994,618.038l0,.248c.006-.871-1.543-1.6-3.575-1.735l-4.8-2.861.024-3.868c-.006.955,1.874,1.743,4.194,1.758s4.21-.749,4.216-1.7Z" transform="translate(-93.805 -25.085)"/><path class="cls-8" d="M324.992,618.286a.8.8,0,0,1-.086.345l-3.489-2.08C323.449,616.688,325,617.415,324.992,618.286Z" transform="translate(-93.805 -25.085)"/><polygon class="cls-6" points="230.413 615.922 227.012 617.934 207.85 606.655 207.878 602.203 230.413 615.922"/><ellipse class="cls-8" cx="320.841" cy="609.849" rx="1.731" ry="4.205" transform="translate(-384.86 901.682) rotate(-89.632)"/><ellipse class="cls-7" cx="320.692" cy="633.099" rx="1.731" ry="4.205" transform="translate(-408.258 924.634) rotate(-89.632)"/><path class="cls-7" d="M316.612,613.69l4.8,2.861c-.2-.016-.411-.023-.619-.024-2.32-.015-4.209.75-4.216,1.7l0-.248Z" transform="translate(-93.805 -25.085)"/><path class="cls-8" d="M316.674,618.6a.776.776,0,0,1-.092-.366c.007-.955,1.9-1.72,4.216-1.7.208,0,.416.008.619.024l3.489,2.08c-.391.784-2.092,1.372-4.13,1.359C318.758,619.977,317.075,619.377,316.674,618.6Z" transform="translate(-93.805 -25.085)"/><polygon class="cls-4" points="222.278 593.856 222.314 588.31 222.807 588.605 222.779 592.899 222.778 593.146 222.775 593.567 222.278 593.856"/><path class="cls-7" d="M316.083,618.941l-.059,9.181c.006-.955-1.868-1.743-4.193-1.758s-4.21.749-4.216,1.7l.027-4.234Z" transform="translate(-93.805 -25.085)"/><path class="cls-8" d="M316.109,613.39,313.1,611.6c1.75.219,3.022.895,3.017,1.682A.988.988,0,0,1,316.109,613.39Z" transform="translate(-93.805 -25.085)"/><path class="cls-8" d="M313.1,611.6l3.006,1.79c-.139.9-1.969,1.61-4.2,1.6-2.32-.015-4.2-.8-4.194-1.758s1.9-1.72,4.216-1.7A9.987,9.987,0,0,1,313.1,611.6Z" transform="translate(-93.805 -25.085)"/><ellipse class="cls-7" cx="311.819" cy="628.095" rx="1.731" ry="4.205" transform="translate(-412.07 910.79) rotate(-89.632)"/><polygon class="cls-2" points="216.086 704.58 213.544 706.013 213.563 703.08 216.086 704.58"/><polygon class="cls-2" points="216.067 707.548 213.525 708.981 213.544 706.048 216.067 707.548"/><path class="cls-9" d="M309,644.155l-42.206,24.464-24.639-15,41.715-24.962Zm-25.771,7.255,13.905-8.321-13.308-7.506-12.913,7.832Zm-17.878,10.768,13.9-8.32-13.309-7.506-12.912,7.832Z" transform="translate(-93.805 -25.085)"/><polygon class="cls-6" points="213.525 708.981 213.383 731.074 206.83 727.747 206.927 712.694 213.525 708.981"/><polygon class="cls-6" points="213.544 706.048 213.525 708.981 206.927 712.694 206.946 709.725 213.514 706.028 213.544 706.048"/><polygon class="cls-6" points="213.563 703.08 213.544 706.013 213.514 706.028 206.994 702.157 207.013 699.189 213.563 703.08"/><polygon class="cls-6" points="213.615 694.927 213.563 703.08 207.013 699.189 207.062 691.6 213.615 694.927"/><polygon class="cls-6" points="213.514 706.028 206.946 709.725 206.994 702.157 213.514 706.028"/><path class="cls-7" d="M307.705,613.97l0-.742c-.006.954,1.874,1.743,4.194,1.758,2.236.014,4.066-.691,4.2-1.6l.01,0-.036,5.546-8.441,4.893Z" transform="translate(-93.805 -25.085)"/><path class="cls-4" d="M303.228,617.9a2.238,2.238,0,0,1,.025-3.957c.014-2.187-3.962-3.983-8.879-4.015s-8.915,1.714-8.93,3.9a2.238,2.238,0,0,1-.025,3.957,1.886,1.886,0,0,0,.066.5c-2.763-1.106-4.5-2.705-4.493-4.481.021-3.28,6.019-5.9,13.395-5.85s13.339,2.742,13.318,6.022c-.011,1.775-1.773,3.352-4.55,4.423A1.847,1.847,0,0,0,303.228,617.9Z" transform="translate(-93.805 -25.085)"/><path class="cls-4" d="M302.048,615.912a2.585,2.585,0,0,1,1.18,1.986,1.847,1.847,0,0,1-.073.5,27.042,27.042,0,0,1-17.67-.114,1.886,1.886,0,0,1-.066-.5,2.582,2.582,0,0,1,1.205-1.971c1.531,1.192,4.4,2.007,7.7,2.028S300.5,617.084,302.048,615.912Z" transform="translate(-93.805 -25.085)"/><path class="cls-10" d="M303.253,613.941a2.582,2.582,0,0,1-1.2,1.971c-1.531-1.192-4.405-2.007-7.7-2.028s-6.179.757-7.725,1.929a2.585,2.585,0,0,1-1.18-1.986c.015-2.187,4.013-3.932,8.93-3.9S303.267,611.754,303.253,613.941Z" transform="translate(-93.805 -25.085)"/><path class="cls-11" d="M300.8,727.242l-.049,7.569-35.326,19.9-.142-.085-5.712-3.4.021-3.339a20.774,20.774,0,0,0,5.941.865c6.693.043,12.138-2.8,12.161-6.353l.047-7.391a19.5,19.5,0,0,0,7.659,1.5c6.693.043,12.138-2.8,12.161-6.353l.031-4.828Z" transform="translate(-93.805 -25.085)"/><path class="cls-12" d="M297.56,730.16c.023-3.552-5.386-6.466-12.079-6.509a22.364,22.364,0,0,0-3.514.249l6.787-3.82,8.837,5.252Z" transform="translate(-93.805 -25.085)"/><path class="cls-12" d="M297.61,722.363l-.019,2.969-8.837-5.252-.08-.589a17.907,17.907,0,0,0,3-.653Z" transform="translate(-93.805 -25.085)"/><path class="cls-12" d="M291.676,718.838c3.574-1.095,5.977-3.138,5.992-5.5l-.058,9.023Z" transform="translate(-93.805 -25.085)"/><path class="cls-13" d="M297.668,713.34c-.015,2.36-2.418,4.4-5.992,5.5l-2.9-1.726-4.508,2.539a22.174,22.174,0,0,1-2.358-.268l14.7-8.7A4.043,4.043,0,0,1,297.668,713.34Z" transform="translate(-93.805 -25.085)"/><path class="cls-12" d="M285.481,723.651c6.693.043,12.1,2.957,12.079,6.509s-5.468,6.4-12.161,6.353a19.5,19.5,0,0,1-7.659-1.5l.057-8.761,4.17-2.348A22.364,22.364,0,0,1,285.481,723.651Z" transform="translate(-93.805 -25.085)"/><path class="cls-4" d="M297.129,643.089l-13.905,8.321-12.316-8,12.913-7.832Zm-11.082,3.946,2.887-1.95-2.22-1.766,2.012-1.273-2.955-2-1.764,1.117-2.682-2.135-2.981,1.96L281,643.075l-2.18,1.381,2.955,2,1.957-1.239Z" transform="translate(-93.805 -25.085)"/><path class="cls-13" d="M296.611,710.687l-14.7,8.7h0q-.393-.069-.77-.153l.077-11.991a21.613,21.613,0,0,1,4.38-.407C290.506,706.863,294.726,708.444,296.611,710.687Z" transform="translate(-93.805 -25.085)"/><path class="cls-4" d="M296.389,758.35c-.011,1.776-1.773,3.353-4.55,4.423a1.846,1.846,0,0,0,.073-.494,2.238,2.238,0,0,1,.025-3.957c.014-2.187-3.962-3.983-8.879-4.015s-8.915,1.714-8.929,3.9a2.239,2.239,0,0,1-.026,3.958,1.891,1.891,0,0,0,.066.5c-2.763-1.106-4.5-2.7-4.493-4.481.021-3.28,6.019-5.9,13.4-5.851S296.41,755.07,296.389,758.35Z" transform="translate(-93.805 -25.085)"/><path class="cls-4" d="M290.732,760.293a2.583,2.583,0,0,1,1.18,1.986,1.846,1.846,0,0,1-.073.494,27.034,27.034,0,0,1-17.67-.113,1.891,1.891,0,0,1-.066-.5,2.58,2.58,0,0,1,1.2-1.971c1.531,1.192,4.405,2.007,7.7,2.028S289.186,761.465,290.732,760.293Z" transform="translate(-93.805 -25.085)"/><path class="cls-13" d="M288.773,717.112l2.9,1.726a17.907,17.907,0,0,1-3,.653,22.354,22.354,0,0,1-3.167.2c-.421,0-.831-.015-1.242-.042Z" transform="translate(-93.805 -25.085)"/><path class="cls-10" d="M291.937,758.322a2.582,2.582,0,0,1-1.2,1.971c-1.531-1.192-4.405-2.007-7.7-2.029s-6.179.757-7.725,1.93a2.582,2.582,0,0,1-1.179-1.987c.014-2.186,4.012-3.932,8.929-3.9S291.951,756.135,291.937,758.322Z" transform="translate(-93.805 -25.085)"/><path class="cls-12" d="M288.674,719.491l.08.589-6.787,3.82a17.551,17.551,0,0,0-4.2,1.171,3.909,3.909,0,0,0-.53-1.463l7.03-3.957c.411.027.821.04,1.242.042A22.354,22.354,0,0,0,288.674,719.491Z" transform="translate(-93.805 -25.085)"/><polygon class="cls-9" points="195.129 619.999 192.243 621.95 189.924 620.129 192.91 618.234 195.129 619.999"/><polygon class="cls-9" points="194.921 616.961 192.91 618.234 190.203 616.079 191.966 614.963 194.921 616.961"/><path class="cls-4" d="M294.311,619.82a24.757,24.757,0,0,0,8.844-1.427c-.561,1.95-4.316,3.435-8.857,3.406s-8.276-1.562-8.813-3.52A24.778,24.778,0,0,0,294.311,619.82Z" transform="translate(-93.805 -25.085)"/><polygon class="cls-9" points="190.203 616.079 192.91 618.234 189.924 620.129 187.193 617.989 190.203 616.079"/><polygon class="cls-9" points="190.203 616.079 187.193 617.989 184.539 615.905 187.52 613.945 190.203 616.079"/><polygon class="cls-9" points="189.924 620.129 187.967 621.368 185.012 619.371 187.193 617.989 189.924 620.129"/><path class="cls-12" d="M281.9,719.383l-.774.46,0-.613Q281.508,719.314,281.9,719.383Z" transform="translate(-93.805 -25.085)"/><path class="cls-12" d="M281.128,719.843l.774-.46h0a22.174,22.174,0,0,0,2.358.268l-7.03,3.957a8.247,8.247,0,0,0-3.854-3.033l.033-5.134,1.488.85a11.127,11.127,0,0,0,4.165,2.377Z" transform="translate(-93.805 -25.085)"/><path class="cls-12" d="M281.132,719.23l0,.613-2.061-1.175A16.7,16.7,0,0,0,281.132,719.23Z" transform="translate(-93.805 -25.085)"/><path class="cls-13" d="M281.209,707.239l-.077,11.991a16.7,16.7,0,0,1-2.065-.562l-4.165-2.377a4.323,4.323,0,0,1-1.474-3.106C273.446,710.454,276.671,708.14,281.209,707.239Z" transform="translate(-93.805 -25.085)"/><path class="cls-6" d="M281.275,696.841l-.066,10.4c-4.538.9-7.763,3.215-7.781,5.946l-.014,2.256-18.479-10.552.148-23Z" transform="translate(-93.805 -25.085)"/><path class="cls-13" d="M274.9,716.291l4.165,2.377A11.127,11.127,0,0,1,274.9,716.291Z" transform="translate(-93.805 -25.085)"/><path class="cls-4" d="M279.251,653.858l-13.9,8.32-12.316-7.994,12.912-7.832Zm-15.357,3.364,6.954-4.408-2.956-2-6.954,4.407Z" transform="translate(-93.805 -25.085)"/><path class="cls-12" d="M277.8,725.58a3.577,3.577,0,0,0-.036-.509,17.551,17.551,0,0,1,4.2-1.171l-4.17,2.348Z" transform="translate(-93.805 -25.085)"/><polygon class="cls-2" points="184.815 573.718 184.756 583.008 126.373 617.297 126.433 608.022 144.079 597.247 184.815 573.718"/><polygon class="cls-3" points="184.967 550.151 177.657 554.448 177.434 546.041 184.967 550.151"/><path class="cls-14" d="M277.74,735.009l-.047,7.391c.023-3.552-5.385-6.466-12.078-6.509a20.135,20.135,0,0,0-6.874,1.089l9.131-5.141a18.136,18.136,0,0,0,5.485-1.325C273.607,732.316,275.259,733.92,277.74,735.009Z" transform="translate(-93.805 -25.085)"/><path class="cls-14" d="M277.8,726.248l-.057,8.761c-2.481-1.089-4.133-2.693-4.383-4.5,2.376-1.024,4-2.517,4.36-4.222Z" transform="translate(-93.805 -25.085)"/><path class="cls-14" d="M265.615,735.891c6.693.043,12.1,2.957,12.078,6.509s-5.468,6.4-12.161,6.353a20.774,20.774,0,0,1-5.941-.865l.044-6.821-4.285-2.18,3.391-1.907A20.135,20.135,0,0,1,265.615,735.891Z" transform="translate(-93.805 -25.085)"/><path class="cls-13" d="M273.626,728.6a7.5,7.5,0,0,1,4.139-3.53,3.577,3.577,0,0,1,.036.509,3.13,3.13,0,0,1-.084.712Z" transform="translate(-93.805 -25.085)"/><path class="cls-4" d="M283,764.2a24.778,24.778,0,0,0,8.844-1.428c-.561,1.951-4.316,3.436-8.857,3.406s-8.276-1.562-8.813-3.519A24.778,24.778,0,0,0,283,764.2Z" transform="translate(-93.805 -25.085)"/><path class="cls-13" d="M277.235,723.608l-3.888,2.191.034-5.224A8.247,8.247,0,0,1,277.235,723.608Z" transform="translate(-93.805 -25.085)"/><path class="cls-13" d="M277.765,725.071a7.5,7.5,0,0,0-4.139,3.53l-.3.166.019-2.968,3.888-2.191A3.909,3.909,0,0,1,277.765,725.071Z" transform="translate(-93.805 -25.085)"/><path class="cls-12" d="M274.9,716.291l-1.488-.85.014-2.256A4.323,4.323,0,0,0,274.9,716.291Z" transform="translate(-93.805 -25.085)"/><path class="cls-13" d="M277.717,726.292c-.362,1.7-1.984,3.2-4.36,4.222a3.41,3.41,0,0,1,.269-1.913Z" transform="translate(-93.805 -25.085)"/><path class="cls-4" d="M283.071,752.328c-7.376-.047-13.374,2.571-13.4,5.851-.011,1.776,1.73,3.375,4.493,4.481.537,1.957,4.272,3.49,8.813,3.519s8.3-1.455,8.857-3.406c2.777-1.07,4.539-2.647,4.55-4.423C296.41,755.07,290.447,752.376,283.071,752.328Zm-17.843,5.243.177.105,35.326-19.9-.1,15.053,6.553,3.327,59.381-35.767.04-6.119,6.526,2.926.025-.049,46.174-25.943.1-16.265,16.367,9.747L247.785,795.21l-11.552-6.738,23.191-14.548.127-19.728Z" transform="translate(-93.805 -25.085)"/><path class="cls-13" d="M273.328,728.767l.3-.166a3.455,3.455,0,0,0-.306,1.4Z" transform="translate(-93.805 -25.085)"/><path class="cls-13" d="M273.32,730a3.46,3.46,0,0,0,.037.51,18.136,18.136,0,0,1-5.485,1.325l5.456-3.072Z" transform="translate(-93.805 -25.085)"/><path class="cls-13" d="M273.347,725.8l-.019,2.968-5.456,3.072c-.723.065-1.47.1-2.232.094a21.841,21.841,0,0,1-2.838-.2Z" transform="translate(-93.805 -25.085)"/><path class="cls-13" d="M273.381,720.575l-.034,5.224L262.8,731.737c-5.319-.712-9.26-3.28-9.24-6.312.022-3.552,5.467-6.4,12.161-6.353A19.494,19.494,0,0,1,273.381,720.575Z" transform="translate(-93.805 -25.085)"/><polygon class="cls-2" points="184.815 573.718 144.079 597.247 178.228 576.397 177.657 554.448 184.967 550.151 184.815 573.718"/><polygon class="cls-2" points="126.583 584.594 126.584 584.44 177.657 554.448 178.228 576.397 144.079 597.247 126.437 607.438 126.583 584.594"/><polygon class="cls-3" points="177.434 546.041 177.657 554.448 126.584 584.44 126.583 584.594 119.052 580.291 177.399 546.021 177.434 546.041"/><polygon class="cls-9" points="177.043 627.729 170.089 632.137 167.133 630.139 174.088 625.732 177.043 627.729"/><polygon class="cls-3" points="177.434 546.002 177.434 546.041 177.399 546.021 177.434 546.002"/><path class="cls-14" d="M267.872,731.839l-9.131,5.141a11.115,11.115,0,0,0-3.44,1.882l-1.82-.922.006-.959,9.315-5.244a21.841,21.841,0,0,0,2.838.2C266.4,731.938,267.149,731.9,267.872,731.839Z" transform="translate(-93.805 -25.085)"/><polygon class="cls-15" points="171.423 732.486 171.442 729.602 171.477 729.538 171.62 729.623 206.946 709.725 206.927 712.694 171.601 732.591 171.423 732.486"/><polygon class="cls-15" points="171.477 729.538 171.442 729.602 171.423 732.486 165.746 729.11 165.765 726.142 171.477 729.538"/><path class="cls-14" d="M262.8,731.737l-9.315,5.244.075-11.556C253.542,728.457,257.483,731.025,262.8,731.737Z" transform="translate(-93.805 -25.085)"/><path class="cls-16" d="M259.551,754.2l-.127,19.728-23.191,14.548-13-7.578.031-4.769a11.989,11.989,0,0,0,3.313-8.329,12.378,12.378,0,0,0-1.123-5.286l23.4-14.676Z" transform="translate(-93.805 -25.085)"/><polygon class="cls-16" points="165.765 726.142 165.746 729.11 155.042 722.749 157.481 721.216 165.765 726.142"/><path class="cls-16" d="M259.591,747.888l-.021,3.339-8.285-4.926,2.906-1.821A10.062,10.062,0,0,0,259.591,747.888Z" transform="translate(-93.805 -25.085)"/><path class="cls-16" d="M259.635,741.067l-.044,6.821a10.062,10.062,0,0,1-5.4-3.408Z" transform="translate(-93.805 -25.085)"/><path class="cls-17" d="M259.635,741.067l-5.444,3.413a3.825,3.825,0,0,1-.737-2.236,4.414,4.414,0,0,1,1.678-3.235l.218-.122Z" transform="translate(-93.805 -25.085)"/><path class="cls-14" d="M258.741,736.98l-3.391,1.907-.049-.025A11.115,11.115,0,0,1,258.741,736.98Z" transform="translate(-93.805 -25.085)"/><path class="cls-17" d="M253.481,737.94l1.82.922a2.17,2.17,0,0,0-.169.147l-1.664.94Z" transform="translate(-93.805 -25.085)"/><path class="cls-17" d="M253.468,739.949l1.664-.94a4.414,4.414,0,0,0-1.678,3.235Z" transform="translate(-93.805 -25.085)"/><path class="cls-17" d="M254.191,744.48l-2.906,1.821-4.43-2.63,6.613-3.722-.014,2.3A3.825,3.825,0,0,0,254.191,744.48Z" transform="translate(-93.805 -25.085)"/><polygon class="cls-17" points="159.676 712.855 159.664 714.864 153.05 718.586 150.497 717.065 158.784 712.399 159.676 712.855"/><polygon class="cls-11" points="159.683 711.895 159.676 712.855 158.784 712.399 159.683 711.895"/><polygon class="cls-2" points="158.993 695.195 158.978 697.614 149.486 703.489 149.502 701.07 158.993 695.195"/><polygon class="cls-5" points="158.993 695.195 149.502 701.07 140.303 695.292 149.575 689.638 158.993 695.195"/><path class="cls-17" d="M252.589,737.484l-8.287,4.667,2.553,1.52-2.572,1.448,4.564,2.715-23.4,14.676a10.064,10.064,0,0,0-8.944-6.157,9.232,9.232,0,0,0-5.026,1.457l-14.349-7.29,36.294-22.771Z" transform="translate(-93.805 -25.085)"/><polygon class="cls-17" points="157.481 721.216 155.042 722.749 150.478 720.034 153.05 718.586 157.481 721.216"/><polygon class="cls-6" points="149.502 701.07 149.486 703.489 140.287 697.711 140.303 695.292 149.502 701.07"/><path class="cls-18" d="M242.841,700.126l-.061,9.4c.014-2.186-2.853-3.976-6.405-4h-.1l4.155-2.333a5.834,5.834,0,0,0,.576-.323A3.387,3.387,0,0,0,242.841,700.126Z" transform="translate(-93.805 -25.085)"/><path class="cls-19" d="M231.732,697.354a8.631,8.631,0,0,1,4.7-1.227c3.552.023,6.42,1.813,6.406,4A3.387,3.387,0,0,1,241,702.87l-.576.323a9.158,9.158,0,0,1-4.042.849c-3.552-.023-6.419-1.812-6.4-4A3.338,3.338,0,0,1,231.732,697.354Z" transform="translate(-93.805 -25.085)"/><path class="cls-18" d="M236.375,705.526c3.552.023,6.419,1.813,6.405,4a3.39,3.39,0,0,1-1.838,2.744l-.576.323a9.164,9.164,0,0,1-4.042.849c-3.552-.023-6.42-1.812-6.406-4a2.314,2.314,0,0,1,.032-.365l6.321-3.551Z" transform="translate(-93.805 -25.085)"/><polygon class="cls-2" points="144.079 597.247 126.433 608.022 126.437 607.438 144.079 597.247"/><polygon class="cls-16" points="142.428 763.387 129.325 771.609 129.426 755.809 142.428 763.387"/><path class="cls-19" d="M236.271,705.526l-6.321,3.551C230.255,707.085,232.966,705.539,236.271,705.526Z" transform="translate(-93.805 -25.085)"/><path class="cls-19" d="M240.426,703.193l-4.155,2.333c-3.3.013-6.016,1.559-6.321,3.551l-4.741,2.665a3.079,3.079,0,0,0,1.247-2.322c.014-2.186-2.854-3.976-6.406-4a10.656,10.656,0,0,0-1.514.1L229,699.048v-.134l2.735-1.56a3.338,3.338,0,0,0-1.753,2.689c-.014,2.187,2.853,3.976,6.4,4A9.158,9.158,0,0,0,240.426,703.193Z" transform="translate(-93.805 -25.085)"/><path class="cls-19" d="M229,698.914v.134l-10.46,6.473a9.141,9.141,0,0,0-2.067.54Z" transform="translate(-93.805 -25.085)"/><path class="cls-2" d="M229.031,693.606,229,698.914l-12.528,7.147-.02.01a4.578,4.578,0,0,0-2.7,2.412l-6.109,3.785.035-5.442Z" transform="translate(-93.805 -25.085)"/><polygon class="cls-5" points="135.226 668.521 113.869 681.741 98.742 672.244 98.77 667.901 96.572 666.675 114.034 656.017 135.226 668.521"/><path class="cls-18" d="M240.366,712.592l-15.217,8.549a3.078,3.078,0,0,0,1.246-2.322c.014-2.186-2.853-3.976-6.405-4l.009-1.484a8.222,8.222,0,0,0,5.21-1.594l4.741-2.665a2.314,2.314,0,0,0-.032.365c-.014,2.187,2.854,3.976,6.406,4A9.164,9.164,0,0,0,240.366,712.592Z" transform="translate(-93.805 -25.085)"/><path class="cls-16" d="M225.452,762.51a12.378,12.378,0,0,1,1.123,5.286,11.989,11.989,0,0,1-3.313,8.329l.079-12.293Z" transform="translate(-93.805 -25.085)"/><path class="cls-17" d="M225.452,762.51l-2.111,1.322-11.859-6.022a9.232,9.232,0,0,1,5.026-1.457A10.064,10.064,0,0,1,225.452,762.51Z" transform="translate(-93.805 -25.085)"/><path class="cls-19" d="M225.209,711.742a8.222,8.222,0,0,1-5.21,1.594c-3.418-.022-6.2-1.677-6.392-3.751a1.991,1.991,0,0,1-.013-.247,2.656,2.656,0,0,1,.154-.855l4.788-2.962a10.656,10.656,0,0,1,1.514-.1c3.552.023,6.42,1.813,6.406,4A3.079,3.079,0,0,1,225.209,711.742Z" transform="translate(-93.805 -25.085)"/><path class="cls-20" d="M223.231,780.894l-.1,15.8-8.408-4.269L196.93,782.051l.106-16.429,4.5,2.622a12.439,12.439,0,0,0-1.212,5.32c-.04,6.282,4.468,11.407,10.068,11.443a10.105,10.105,0,0,0,9.133-6.279Z" transform="translate(-93.805 -25.085)"/><path class="cls-20" d="M223.262,776.125l-.031,4.769-3.711-2.166c.03-.064.06-.128.085-.192A9.874,9.874,0,0,0,223.262,776.125Z" transform="translate(-93.805 -25.085)"/><path class="cls-20" d="M223.341,763.832l-.079,12.293a9.874,9.874,0,0,1-3.657,2.411,12.483,12.483,0,0,0,1-4.842c.04-6.282-4.468-11.407-10.068-11.443a9.13,9.13,0,0,0-3.244.573,11.005,11.005,0,0,1,4.193-5.014Z" transform="translate(-93.805 -25.085)"/><polygon class="cls-21" points="129.325 771.609 142.428 763.387 153.981 770.125 153.875 786.553 120.918 767.34 129.325 771.609"/><path class="cls-22" d="M220.6,773.694a12.483,12.483,0,0,1-1,4.842c-.084.034-.173.063-.257.092L206.8,771.315a12.68,12.68,0,0,1,.485-8.491,9.13,9.13,0,0,1,3.244-.573C216.133,762.287,220.641,767.412,220.6,773.694Z" transform="translate(-93.805 -25.085)"/><path class="cls-18" d="M220,713.336l-.009,1.484c-3.552-.022-6.442,1.73-6.456,3.917l.058-9.152h.015C213.8,711.659,216.581,713.314,220,713.336Z" transform="translate(-93.805 -25.085)"/><path class="cls-23" d="M219.605,778.536c-.025.064-.055.128-.085.192l-.172-.1C219.432,778.6,219.521,778.57,219.605,778.536Z" transform="translate(-93.805 -25.085)"/><path class="cls-23" d="M219.348,778.628l.172.1a10.105,10.105,0,0,1-9.133,6.279c-5.6-.036-10.108-5.161-10.068-11.443a12.439,12.439,0,0,1,1.212-5.32l5.273,3.071c1.322,4.5,5.095,7.765,9.557,7.794A9.13,9.13,0,0,0,219.348,778.628Z" transform="translate(-93.805 -25.085)"/><path class="cls-22" d="M206.8,771.315l12.544,7.313a9.13,9.13,0,0,1-2.987.481C211.9,779.08,208.126,775.82,206.8,771.315Z" transform="translate(-93.805 -25.085)"/><polygon class="cls-6" points="126.433 608.022 126.373 617.297 126.238 617.484 119.216 612.428 126.433 608.022"/><polygon class="cls-6" points="126.437 607.438 126.433 608.022 119.216 612.428 118.847 612.163 118.849 611.822 126.437 607.438"/><polygon class="cls-6" points="119 588.305 119.001 588.171 119.052 580.291 126.583 584.594 126.437 607.438 118.849 611.822 119 588.305"/><path class="cls-19" d="M216.449,706.071l.02-.01a9.141,9.141,0,0,1,2.067-.54l-4.788,2.962A4.578,4.578,0,0,1,216.449,706.071Z" transform="translate(-93.805 -25.085)"/><polygon class="cls-4" points="119.216 612.428 118.844 612.658 118.847 612.163 119.216 612.428"/><polygon class="cls-2" points="119 588.305 118.849 611.822 112.35 615.575 112.252 615.406 112.401 592.111 118.887 588.24 119 588.305"/><polygon class="cls-2" points="119.001 588.171 119 588.305 118.887 588.24 119.001 588.171"/><polygon class="cls-3" points="112.475 584.478 118.887 588.24 112.401 592.111 112.45 584.523 112.475 584.478"/><path class="cls-20" d="M197.133,750.52l14.349,7.29a11.005,11.005,0,0,0-4.193,5.014,10.607,10.607,0,0,0-5.758,5.42l-4.5-2.622Z" transform="translate(-93.805 -25.085)"/><polygon class="cls-6" points="113.869 681.741 113.834 687.182 98.707 677.686 98.742 672.244 113.869 681.741"/><path class="cls-23" d="M206.8,771.315l-5.273-3.071a10.607,10.607,0,0,1,5.758-5.42,12.68,12.68,0,0,0-.485,8.491Z" transform="translate(-93.805 -25.085)"/><path class="cls-2" d="M162.968,665.182v0l0,.425-22.211,12.829.471-22.427L206.206,617.2l-.15,23.295.1.169-23.725,13.7-15.82,9.139C164.561,663.6,162.973,664.311,162.968,665.182Z" transform="translate(-93.805 -25.085)"/><polygon class="cls-3" points="112.45 584.523 112.401 592.111 47.42 630.929 40.876 626.979 112.45 584.523"/><polygon class="cls-2" points="110.111 650.551 110.083 655.003 92.742 664.533 89.148 662.531 95.921 658.662 110.111 650.551"/><polygon class="cls-24" points="106.699 719.787 106.686 721.766 105.144 720.781 106.699 719.787"/><polygon class="cls-7" points="106.699 719.787 105.144 720.781 93.384 713.27 86.494 717.664 84.952 716.679 93.396 711.292 106.699 719.787"/><polygon class="cls-24" points="106.686 721.766 98.241 727.153 98.254 725.175 105.144 720.781 106.686 721.766"/><path class="cls-8" d="M199.585,660.569v.03c-.026.949-1.905,1.7-4.22,1.674s-4.2-.813-4.189-1.768a1.224,1.224,0,0,1,.723-.955,7.026,7.026,0,0,1,3.5-.74C197.707,658.835,199.577,659.624,199.585,660.569Z" transform="translate(-93.805 -25.085)"/><path class="cls-7" d="M199.585,660.6l-.122,12.915-8.37-3.991.083-9.018c-.006.955,1.868,1.748,4.189,1.768S199.559,661.548,199.585,660.6Z" transform="translate(-93.805 -25.085)"/><path class="cls-7" d="M199.446,675.419v0c-.011.955-1.9,1.714-4.22,1.689s-4.18-.808-4.189-1.753v-.03c.031-.954,1.911-1.7,4.221-1.679S199.452,674.469,199.446,675.419Z" transform="translate(-93.805 -25.085)"/><polygon class="cls-7" points="105.144 720.781 98.254 725.175 86.494 717.664 93.384 713.27 105.144 720.781"/><path class="cls-7" d="M199.446,675.419c.006-.95-1.869-1.744-4.189-1.768s-4.19.725-4.221,1.679l.057-5.807,8.37,3.991Z" transform="translate(-93.805 -25.085)"/><polygon class="cls-21" points="103.231 740.537 103.126 756.966 53.199 727.853 68.08 720.044 103.231 740.537"/><path class="cls-4" d="M207.639,712.268l6.109-3.785a2.656,2.656,0,0,0-.154.855,1.991,1.991,0,0,0,.013.247h-.015l-.058,9.152c-.015,2.186,2.853,3.976,6.405,4a8.222,8.222,0,0,0,5.21-1.594l15.217-8.549a5.951,5.951,0,0,0,.576-.323,3.39,3.39,0,0,0,1.838-2.744l.061-9.4c.014-2.186-2.854-3.976-6.406-4a8.631,8.631,0,0,0-4.7,1.227L229,698.914l.034-5.308-21.192-12.5L190.377,691.76l-3.831-2.142,17.342-9.53.028-4.452-4.453-2.122.122-12.915v-.03c-.008-.945-1.878-1.734-4.188-1.759a7.026,7.026,0,0,0-3.5.74l-.073-.129,20.763-12.314.06-9.364.372-.23,7.022,5.056.135-.187,58.382-34.289.06-9.29,6.6-3.811L313.1,611.6a9.987,9.987,0,0,0-1.177-.077c-2.32-.015-4.21.75-4.216,1.7l0,.742c.021-3.28-5.942-5.975-13.318-6.022s-13.374,2.57-13.395,5.85c-.011,1.776,1.73,3.375,4.493,4.481.537,1.958,4.272,3.491,8.813,3.52s8.3-1.456,8.857-3.406c2.777-1.071,4.539-2.648,4.55-4.423l-.063,9.864-5.959,3.454-.028,4.452,19.161,11.279-65.733,38.867-.148,23,18.479,10.552-.033,5.134a19.494,19.494,0,0,0-7.658-1.5c-6.694-.043-12.139,2.8-12.161,6.353l-.075,11.556-.9.5-19.162-9.735L197.133,750.52l-.1,15.1-35.151-20.493,17.259-9.066,13.2-6.93.169-26.362Zm-7.148,34.583.012-1.979-13.3-8.5-8.445,5.387-.012,1.979,13.3,8.5Zm66.3-78.232L309,644.155l-25.13-15.5L242.15,653.62ZM252.783,722.7l.015-2.419-9.418-5.557-9.272,5.655-.016,2.419,9.2,5.777Z" transform="translate(-93.805 -25.085)"/><polygon class="cls-25" points="98.742 672.244 98.707 677.686 93.14 674.187 93.161 670.848 94.993 669.885 98.742 672.244"/><polygon class="cls-25" points="98.77 667.901 98.742 672.244 94.993 669.885 98.77 667.901"/><polygon class="cls-26" points="98.77 667.901 94.993 669.885 93.175 668.746 96.572 666.675 98.77 667.901"/><polygon class="cls-27" points="98.254 725.175 98.241 727.153 84.939 718.658 86.494 717.664 98.254 725.175"/><path class="cls-4" d="M190.16,666.915a.656.656,0,0,0-.057-.273l.059-6.233,1.664-.988.073.129a1.224,1.224,0,0,0-.723.955l-.083,9.018-.952-.451.019-2.133Z" transform="translate(-93.805 -25.085)"/><path class="cls-5" d="M190.02,681.765l.121-12.693.952.451-.057,5.807v.03c.009.945,1.884,1.734,4.189,1.753s4.209-.734,4.22-1.689v0l.017-1.9,4.453,2.122-14.19,8.111-.548-.959C189.7,682.505,190.018,682.151,190.02,681.765Z" transform="translate(-93.805 -25.085)"/><path class="cls-26" d="M179.214,689.754l3.326,2.07,4.006-2.206,3.831,2.142-3.4,2.071-.013,2.1-8.041,4.223L150.906,683.7,162.86,676.6l-.032,3.4v.03c.008.95,1.878,1.738,4.188,1.758a6.282,6.282,0,0,0,3.811-.955l.892.5-.034,3.7v.029c0,.713,1.075,1.338,2.592,1.61l.005,0Z" transform="translate(-93.805 -25.085)"/><path class="cls-7" d="M190.082,669.041l.059.031-.121,12.693c.006-.955-1.868-1.749-4.188-1.768s-4.195.725-4.221,1.674l.14-14.82c-.007.95,1.868,1.743,4.188,1.768a8.7,8.7,0,0,0,2.555-.335Z" transform="translate(-93.805 -25.085)"/><path class="cls-8" d="M190.208,655.532v.03c-.031.949-1.91,1.7-4.22,1.679s-4.195-.818-4.189-1.768v0a1.218,1.218,0,0,1,.718-.955,7.107,7.107,0,0,1,3.5-.735C188.33,653.8,190.2,654.587,190.208,655.532Z" transform="translate(-93.805 -25.085)"/><path class="cls-7" d="M190.208,655.562l-.046,4.847-8.457,5.017.094-9.953c-.006.95,1.874,1.743,4.189,1.768S190.177,656.511,190.208,655.562Z" transform="translate(-93.805 -25.085)"/><path class="cls-8" d="M188.494,668.284a8.7,8.7,0,0,1-2.555.335c-2.32-.025-4.195-.818-4.188-1.768v0c.011-.955,1.9-1.714,4.22-1.69,2.088.019,3.81.663,4.132,1.486l0,.564A2.419,2.419,0,0,1,188.494,668.284Z" transform="translate(-93.805 -25.085)"/><path class="cls-7" d="M190.1,667.206l-.017,1.835-1.588-.757A2.419,2.419,0,0,0,190.1,667.206Z" transform="translate(-93.805 -25.085)"/><path class="cls-7" d="M190.02,681.765c0,.386-.316.74-.842,1.023a7.264,7.264,0,0,1-3.379.671c-2.31-.024-4.18-.813-4.188-1.758v-.03c.026-.949,1.906-1.7,4.221-1.674S190.026,680.81,190.02,681.765Z" transform="translate(-93.805 -25.085)"/><polygon class="cls-26" points="94.993 669.885 93.161 670.848 93.175 668.746 94.993 669.885"/><polygon class="cls-26" points="92.742 664.533 88.735 666.738 85.409 664.669 89.148 662.531 92.742 664.533"/><path class="cls-2" d="M190.208,655.532c-.008-.945-1.878-1.734-4.188-1.754a7.107,7.107,0,0,0-3.5.735l-.088-.149,23.725-13.7,6.5-3.753,0,.341,0,.5-.06,9.364-20.763,12.314-1.664.988.046-4.847Z" transform="translate(-93.805 -25.085)"/><path class="cls-7" d="M181.752,666.6h-.059l.012-1.172,8.457-5.017-.059,6.233c-.322-.823-2.044-1.467-4.132-1.486-2.32-.024-4.209.735-4.22,1.69Z" transform="translate(-93.805 -25.085)"/><path class="cls-5" d="M182.953,687.616l-3.214-1.8a.977.977,0,0,0,.356-.686l.077-8.162.062-6.663v-.262l.034-3.77,1.435-.851-.012,1.172h.059v.252l-.14,14.82v.03c.008.945,1.878,1.734,4.188,1.758a7.264,7.264,0,0,0,3.379-.671l.548.959Z" transform="translate(-93.805 -25.085)"/><polygon class="cls-27" points="86.494 717.664 84.939 718.658 84.952 716.679 86.494 717.664"/><path class="cls-8" d="M180.313,661.87v.03c-.031.949-1.91,1.7-4.221,1.679s-4.194-.818-4.188-1.768v0c.011-.955,1.9-1.714,4.221-1.69S180.305,660.925,180.313,661.87Z" transform="translate(-93.805 -25.085)"/><path class="cls-7" d="M180.27,666.277l-.034,3.77v.237c-.005-.895-1.662-1.643-3.779-1.746Z" transform="translate(-93.805 -25.085)"/><path class="cls-8" d="M180.235,670.284v.025c-.03.95-1.91,1.7-4.22,1.68a6.473,6.473,0,0,1-3.729-.979l4.171-2.472C178.573,668.641,180.23,669.389,180.235,670.284Z" transform="translate(-93.805 -25.085)"/><path class="cls-7" d="M180.234,670.309l-.062,6.663-.077,8.162c.006-.954-1.869-1.748-4.189-1.768-.183,0-.366,0-.539.011l-3.648-2.036.043-4.448.051-5.6v0l.472-.279a6.473,6.473,0,0,0,3.729.979C178.324,672.008,180.2,671.259,180.234,670.309Z" transform="translate(-93.805 -25.085)"/><path class="cls-26" d="M175.367,683.377l4.372,2.443a6.079,6.079,0,0,1-3.865,1.009,9.582,9.582,0,0,1-1.592-.144l-.005,0c-1.517-.272-2.587-.9-2.592-1.61v-.029C171.711,684.165,173.308,683.463,175.367,683.377Z" transform="translate(-93.805 -25.085)"/><polygon class="cls-28" points="85.219 675.126 85.34 710.978 68.08 720.044 49.214 709.044 49.311 693.872 85.12 675.071 85.219 675.126"/><polygon class="cls-25" points="85.12 675.071 93.161 670.848 93.14 674.187 98.707 677.686 98.538 704.048 85.34 710.978 85.219 675.126 85.12 675.071"/><path class="cls-8" d="M176.456,668.538l-4.171,2.472a1.039,1.039,0,0,1-.46-.79v0c.006-.954,1.9-1.714,4.221-1.689C176.184,668.527,176.323,668.533,176.456,668.538Z" transform="translate(-93.805 -25.085)"/><path class="cls-26" d="M179.214,689.754l-4.932-3.069a9.582,9.582,0,0,0,1.592.144,6.079,6.079,0,0,0,3.865-1.009l3.214,1.8Z" transform="translate(-93.805 -25.085)"/><path class="cls-7" d="M179.739,685.82l-4.372-2.443c.173-.008.356-.012.539-.011,2.32.02,4.195.814,4.189,1.768A.977.977,0,0,1,179.739,685.82Z" transform="translate(-93.805 -25.085)"/><path class="cls-26" d="M171.719,681.341l3.648,2.036c-2.059.086-3.656.788-3.682,1.664Z" transform="translate(-93.805 -25.085)"/><path class="cls-7" d="M172.285,671.01l-.472.279.012-1.069A1.039,1.039,0,0,0,172.285,671.01Z" transform="translate(-93.805 -25.085)"/><path class="cls-7" d="M171.827,669.968l.077-8.157c-.006.95,1.868,1.743,4.188,1.768s4.19-.73,4.221-1.679l-.043,4.377-3.814,2.261c-.133,0-.272-.011-.41-.012-2.325-.025-4.215.735-4.221,1.689Z" transform="translate(-93.805 -25.085)"/><path class="cls-2" d="M166.609,663.5l15.82-9.139.088.149a1.218,1.218,0,0,0-.718.955v0l-.094,9.953-1.435.851.043-4.377v-.03c-.008-.945-1.883-1.734-4.188-1.754s-4.21.735-4.221,1.69v0l-.077,8.157,0,.247v0l-.012,1.069v0l-.5.293.06-6.307v-.024c-.009-.955-1.879-1.744-4.189-1.764C166.99,663.491,166.8,663.5,166.609,663.5Z" transform="translate(-93.805 -25.085)"/><path class="cls-8" d="M171.377,665.256v.024c-.031.95-1.911,1.7-4.221,1.675-2.013-.018-3.7-.617-4.1-1.4l3.55-2.05c.188-.008.381-.012.579-.011C169.5,663.512,171.368,664.3,171.377,665.256Z" transform="translate(-93.805 -25.085)"/><path class="cls-7" d="M171.377,665.28l-.06,6.307-8.274,4.909-.182-.105.1-10.779.094-.059c.4.785,2.084,1.384,4.1,1.4C169.466,666.975,171.346,666.23,171.377,665.28Z" transform="translate(-93.805 -25.085)"/><path class="cls-7" d="M171.317,671.587l-.08,8.519c.006-.96-1.869-1.754-4.189-1.774-.232,0-.46,0-.682.016l-3.323-1.852Z" transform="translate(-93.805 -25.085)"/><path class="cls-5" d="M171.762,676.893l-.043,4.448-.892-.5a1.008,1.008,0,0,0,.41-.734l.08-8.519.5-.293Z" transform="translate(-93.805 -25.085)"/><path class="cls-26" d="M166.366,678.348l4.461,2.492a6.282,6.282,0,0,1-3.811.955c-2.31-.02-4.18-.808-4.188-1.758v-.03C162.853,679.156,164.381,678.464,166.366,678.348Z" transform="translate(-93.805 -25.085)"/><path class="cls-7" d="M167.048,678.332c2.32.02,4.195.814,4.189,1.774a1.008,1.008,0,0,1-.41.734l-4.461-2.492C166.588,678.334,166.816,678.331,167.048,678.332Z" transform="translate(-93.805 -25.085)"/><path class="cls-8" d="M166.609,663.5l-3.55,2.05a.84.84,0,0,1-.092-.366v0C162.973,664.311,164.561,663.6,166.609,663.5Z" transform="translate(-93.805 -25.085)"/><path class="cls-26" d="M163.043,676.5l3.323,1.852c-1.985.116-3.513.808-3.538,1.659l.032-3.4Z" transform="translate(-93.805 -25.085)"/><polygon class="cls-26" points="69.056 651.306 69.239 651.411 69.055 651.519 69.056 651.306"/><polygon class="cls-2" points="53.228 656.334 46.815 659.702 46.95 653.356 69.16 640.527 69.056 651.306 66.025 649.614 53.228 656.334"/><polygon class="cls-26" points="69.056 651.306 69.055 651.519 57.102 658.61 53.228 656.334 66.025 649.614 69.056 651.306"/><polygon class="cls-28" points="68.08 720.044 53.199 727.853 49.108 725.472 49.214 709.044 68.08 720.044"/><polygon class="cls-29" points="53.228 656.334 57.102 658.61 46.708 664.772 46.716 664.282 46.815 659.702 53.228 656.334"/><polygon class="cls-28" points="53.199 727.853 49.079 730.019 49.108 725.472 53.199 727.853"/><polygon class="cls-30" points="49.108 725.472 49.079 730.019 16.333 711.732 16.368 706.384 19.212 708.04 19.21 708.342 45.323 724.835 45.333 723.271 49.108 725.472"/><polygon class="cls-30" points="49.214 709.044 49.108 725.472 45.333 723.271 45.401 712.641 45.422 709.5 44.063 706.043 49.214 709.044"/><polygon class="cls-6" points="47.42 630.929 46.95 653.356 40.182 657.265 40.374 627.277 40.876 626.979 47.42 630.929"/><polygon class="cls-6" points="46.95 653.356 46.815 659.702 42.869 661.774 40.166 659.748 40.182 657.265 46.95 653.356"/><polygon class="cls-29" points="46.815 659.702 46.716 664.282 46.217 664.274 42.869 661.774 46.815 659.702"/><polygon class="cls-29" points="46.217 664.274 46.716 664.282 46.708 664.772 57.102 658.61 85.12 675.071 49.311 693.872 18.838 676.852 18.876 676.303 44.214 666.453 39.568 663.509 42.869 661.774 46.217 664.274"/><polygon class="cls-30" points="45.333 723.271 45.323 724.835 19.21 708.342 19.212 708.04 45.333 723.271"/><polygon class="cls-31" points="45.401 712.641 45.333 723.271 19.212 708.04 19.302 693.996 21.589 692.937 26.651 695.888 23.732 697.487 23.675 706.392 40.433 715.899 45.401 712.641"/><polygon class="cls-32" points="45.422 709.5 45.401 712.641 40.433 715.899 40.494 706.5 42.486 705.122 44.063 706.043 45.422 709.5"/><polygon class="cls-32" points="43.445 704.461 44.063 706.043 42.486 705.122 43.445 704.461"/><polygon class="cls-33" points="43.445 704.461 42.486 705.122 26.651 695.888 32.494 692.696 40.554 697.101 43.445 704.461"/><polygon class="cls-4" points="40.166 659.748 42.869 661.774 39.568 663.509 34.705 660.425 38.464 658.253 38.689 658.645 40.166 659.748"/><polygon class="cls-33" points="26.651 695.888 42.486 705.122 40.494 706.5 23.732 697.487 26.651 695.888"/><polygon class="cls-34" points="40.494 706.5 40.433 715.899 23.675 706.392 23.732 697.487 40.494 706.5"/><polygon class="cls-4" points="40.182 657.265 40.166 659.748 38.689 658.645 38.464 658.253 40.182 657.265"/><polygon class="cls-35" points="34.705 660.425 39.568 663.509 33.825 666.524 33.861 660.915 34.705 660.425"/><polygon class="cls-35" points="33.867 659.896 34.705 660.425 33.861 660.915 33.867 659.896"/><path class="cls-29" d="M127.625,692.213a1.624,1.624,0,0,0-.095-.555l.1-.049,5.743-3.015,4.647,2.944-25.338,9.85.048-.613-1.227-.7,8.061-4.237C124.1,695.648,127.613,694.108,127.625,692.213Z" transform="translate(-93.805 -25.085)"/><path class="cls-36" d="M127.665,686l-.036,5.609-.1.049c-.437-1.205-2.291-2.226-4.855-2.776Z" transform="translate(-93.805 -25.085)"/><path class="cls-36" d="M127.672,684.981,127.665,686l-4.99,2.882a20.543,20.543,0,0,0-4.177-.438c-4.853-.031-8.835,1.477-9.154,3.409l-.02,0,0-.742.046-7.173.362-.2c1.1,1.555,4.608,2.706,8.773,2.732,3.636.024,6.783-.817,8.27-2.054Z" transform="translate(-93.805 -25.085)"/><path class="cls-36" d="M127.686,682.814l-.014,2.167-.892-.57A2.154,2.154,0,0,0,127.686,682.814Z" transform="translate(-93.805 -25.085)"/><path class="cls-29" d="M127.625,692.213c-.012,1.895-3.529,3.435-8.062,3.629l7.967-4.184A1.624,1.624,0,0,1,127.625,692.213Z" transform="translate(-93.805 -25.085)"/><path class="cls-36" d="M127.53,691.658l-7.967,4.184c-.366.017-.737.025-1.113.022a18.272,18.272,0,0,1-6.133-1l10.358-5.983C125.239,689.432,127.093,690.453,127.53,691.658Z" transform="translate(-93.805 -25.085)"/><path class="cls-37" d="M127.686,682.814a2.154,2.154,0,0,1-.906,1.6l-8.464-5.363c.079,0,.163,0,.242,0C123.614,679.078,127.7,680.766,127.686,682.814Z" transform="translate(-93.805 -25.085)"/><path class="cls-37" d="M118.316,679.048l8.464,5.363c-1.487,1.237-4.634,2.078-8.27,2.054-4.165-.026-7.675-1.177-8.773-2.732l8.569-4.685A.008.008,0,0,1,118.316,679.048Z" transform="translate(-93.805 -25.085)"/><polygon class="cls-31" points="27.737 690.093 32.494 692.696 26.651 695.888 21.589 692.937 27.737 690.093"/><path class="cls-36" d="M122.675,688.882l-10.358,5.983c-1.846-.689-3-1.676-2.995-2.77a1.32,1.32,0,0,1,.022-.242c.319-1.932,4.3-3.44,9.154-3.409A20.543,20.543,0,0,1,122.675,688.882Z" transform="translate(-93.805 -25.085)"/><path class="cls-35" d="M119.563,695.842l-8.061,4.237-4.14-2.352,4.955-2.862a18.272,18.272,0,0,0,6.133,1C118.826,695.867,119.2,695.859,119.563,695.842Z" transform="translate(-93.805 -25.085)"/><path class="cls-37" d="M118.306,679.048l-8.569,4.685a1.737,1.737,0,0,1-.354-1.037C109.4,680.683,113.368,679.066,118.306,679.048Z" transform="translate(-93.805 -25.085)"/><polygon class="cls-30" points="21.589 692.937 19.302 693.996 19.212 708.04 16.368 706.384 16.473 689.956 21.589 692.937"/><polygon class="cls-29" points="18.925 675.69 18.876 676.303 18.271 676.541 16.566 675.585 17.697 674.994 18.925 675.69"/><polygon class="cls-29" points="18.876 676.303 18.838 676.852 18.271 676.541 18.876 676.303"/><polygon class="cls-30" points="18.524 681.03 17.843 690.029 16.478 689.248 16.537 680.087 17.901 680.981 18.524 681.03"/><polygon class="cls-30" points="16.537 680.087 16.566 675.585 18.271 676.541 18.838 676.852 18.524 681.03 17.901 680.981 16.537 680.087"/><polygon class="cls-30" points="32.494 692.696 27.737 690.093 21.589 692.937 16.473 689.956 16.478 689.248 17.843 690.029 18.524 681.03 18.838 676.852 49.311 693.872 49.214 709.044 44.063 706.043 43.445 704.461 40.554 697.101 32.494 692.696"/><polygon class="cls-38" points="17.697 674.994 16.566 675.585 16.537 680.087 9.108 675.211 13.557 672.642 17.697 674.994"/><polygon class="cls-21" points="16.473 689.956 16.368 706.384 0 696.84 0.105 680.412 16.473 689.956"/><polygon class="cls-38" points="16.537 680.087 16.478 689.248 2.07 681.023 2.082 679.272 9.108 675.211 16.537 680.087"/><path class="cls-36" d="M109.737,683.733l-.362.2.008-1.237A1.737,1.737,0,0,0,109.737,683.733Z" transform="translate(-93.805 -25.085)"/><path class="cls-35" d="M109.322,692.1c-.007,1.094,1.149,2.081,2.995,2.77l-4.955,2.862-11.391-6.459,4.185-2.289.567,1.038a1.3,1.3,0,0,0-.793,1.029c-.007.954,1.759,1.742,3.946,1.757s3.962-.752,3.969-1.706l1.484.009,0,.742.02,0A1.32,1.32,0,0,0,109.322,692.1Z" transform="translate(-93.805 -25.085)"/><polygon class="cls-38" points="13.557 672.642 9.108 675.211 2.137 670.635 2.166 666.183 13.557 672.642"/><path class="cls-39" d="M103.9,689.34c2.187.014,3.953.8,3.947,1.757s-1.783,1.72-3.969,1.706-3.953-.8-3.946-1.757a1.3,1.3,0,0,1,.793-1.029A6.537,6.537,0,0,1,103.9,689.34Z" transform="translate(-93.805 -25.085)"/><polygon class="cls-38" points="2.137 670.635 9.108 675.211 2.082 679.272 2.137 670.635"/><path class="cls-35" d="M100.156,688.979l9.219-5.046-.046,7.173-1.484-.009c.006-.955-1.76-1.743-3.947-1.757a6.537,6.537,0,0,0-3.175.677Z" transform="translate(-93.805 -25.085)"/><polygon class="cls-4" points="16.473 689.956 0.105 680.412 2.082 679.272 2.07 681.023 16.478 689.248 16.473 689.956"/><path class="cls-40" d="M274.169,762.66c-2.763-1.106-4.5-2.7-4.493-4.481.021-3.28,6.019-5.9,13.4-5.851s13.339,2.742,13.318,6.022c-.011,1.776-1.773,3.353-4.55,4.423a27.034,27.034,0,0,1-17.67-.113Z" transform="translate(-93.805 -25.085)"/><path class="cls-40" d="M307.705,613.97c-.011,1.775-1.773,3.352-4.55,4.423a27.042,27.042,0,0,1-17.67-.114c-2.763-1.106-4.5-2.705-4.493-4.481.021-3.28,6.019-5.9,13.395-5.85S307.726,610.69,307.705,613.97Z" transform="translate(-93.805 -25.085)"/><polygon class="cls-41" points="213.506 689.059 217.451 691.063 220.926 689.106 216.982 687.102 213.506 689.059"/><polygon class="cls-41" points="220.955 684.654 224.9 686.658 228.375 684.702 224.43 682.698 220.955 684.654"/><polygon class="cls-41" points="227.411 680.738 231.356 682.742 234.831 680.786 230.887 678.782 227.411 680.738"/><polygon class="cls-41" points="233.867 676.822 237.812 678.826 241.288 676.87 237.343 674.865 233.867 676.822"/><polygon class="cls-41" points="240.324 672.906 244.269 674.91 247.744 672.953 243.799 670.949 240.324 672.906"/><polygon class="cls-41" points="246.78 668.99 250.725 670.994 254.2 669.037 250.256 667.033 246.78 668.99"/><polygon class="cls-41" points="253.731 665.077 257.676 667.081 261.151 665.124 257.207 663.12 253.731 665.077"/><polygon class="cls-41" points="259.693 661.157 263.637 663.161 267.113 661.205 263.168 659.201 259.693 661.157"/><polygon class="cls-41" points="277.571 650.389 281.516 652.393 284.991 650.436 281.047 648.432 277.571 650.389"/><polygon class="cls-41" points="284.522 646.476 288.467 648.48 291.942 646.523 287.998 644.519 284.522 646.476"/><polygon class="cls-41" points="291.473 642.563 295.418 644.567 298.893 642.61 294.949 640.606 291.473 642.563"/><polygon class="cls-41" points="298.919 638.653 302.863 640.657 306.339 638.701 302.394 636.696 298.919 638.653"/><polygon class="cls-41" points="305.87 634.74 309.814 636.744 313.29 634.788 309.345 632.783 305.87 634.74"/><polygon class="cls-41" points="312.326 630.824 316.271 632.828 319.746 630.871 315.801 628.867 312.326 630.824"/><polygon class="cls-41" points="47.205 624.669 51.149 626.673 54.625 624.716 50.68 622.712 47.205 624.669"/><polygon class="cls-41" points="53.661 620.753 57.606 622.757 61.081 620.8 57.136 618.796 53.661 620.753"/><polygon class="cls-41" points="60.114 617.331 64.059 619.335 67.534 617.379 63.589 615.375 60.114 617.331"/><polygon class="cls-41" points="66.57 613.415 70.515 615.419 73.991 613.463 70.046 611.459 66.57 613.415"/><polygon class="cls-41" points="73.027 609.499 76.971 611.503 80.447 609.547 76.502 607.542 73.027 609.499"/><polygon class="cls-41" points="79.483 605.583 83.428 607.587 86.903 605.63 82.958 603.626 79.483 605.583"/><polygon class="cls-41" points="86.435 601.615 90.349 603.677 93.853 601.772 89.939 599.71 86.435 601.615"/><polygon class="cls-41" points="92.89 597.754 96.835 599.758 100.31 597.801 96.366 595.797 92.89 597.754"/><polygon class="cls-41" points="99.346 593.837 103.291 595.842 106.767 593.885 102.822 591.881 99.346 593.837"/><polygon class="cls-41" points="105.305 590.413 109.25 592.417 112.725 590.46 108.78 588.456 105.305 590.413"/><polygon class="cls-41" points="125.168 578.667 129.113 580.672 132.589 578.715 128.644 576.711 125.168 578.667"/><polygon class="cls-41" points="132.617 574.263 136.562 576.267 140.037 574.311 136.093 572.306 132.617 574.263"/><polygon class="cls-41" points="139.074 570.347 143.018 572.351 146.494 570.394 142.549 568.39 139.074 570.347"/><polygon class="cls-41" points="145.53 566.431 149.475 568.435 152.95 566.478 149.005 564.474 145.53 566.431"/><polygon class="cls-41" points="151.986 562.514 155.931 564.519 159.406 562.562 155.462 560.558 151.986 562.514"/><polygon class="cls-41" points="158.442 558.598 162.387 560.602 165.863 558.646 161.918 556.642 158.442 558.598"/><polygon class="cls-41" points="165.393 554.685 169.338 556.689 172.814 554.733 168.869 552.729 165.393 554.685"/><polygon class="cls-41" points="171.355 550.766 175.3 552.77 178.775 550.814 174.83 548.809 171.355 550.766"/><polygon class="cls-42" points="453.23 742.553 453.23 753.568 443.703 748.141 453.23 742.553"/><polygon class="cls-43" points="453.23 732.728 453.23 742.553 443.703 748.141 435.209 743.3 436.963 742.27 453.23 732.728"/><polygon class="cls-43" points="453.23 720.522 453.23 732.728 436.963 742.27 443.042 726.497 453.23 720.522"/><polygon class="cls-44" points="453.23 709.507 453.23 720.522 443.042 726.497 439.702 728.456 439.702 717.441 442.214 715.967 453.23 709.507"/><polygon class="cls-43" points="453.23 698.193 453.23 709.507 442.214 715.967 436.296 708.125 453.23 698.193"/><polygon class="cls-43" points="453.23 688.071 453.23 698.193 436.296 708.125 419.386 718.045 405.345 726.283 399.939 723.201 399.939 719.033 453.099 687.851 453.23 688.071"/><polygon class="cls-42" points="453.23 753.568 399.939 784.828 399.939 773.813 443.703 748.141 453.23 753.568"/><path class="cls-31" d="M539.443,710.923v1.936a1.439,1.439,0,0,0-.518-1.042,1.5,1.5,0,0,0,.506-.9Z" transform="translate(-93.805 -25.085)"/><path class="cls-45" d="M539.443,710.775a.788.788,0,0,1-.012.145,1.5,1.5,0,0,1-.506.9,7.139,7.139,0,0,0-7.9,0,1.5,1.5,0,0,1-.506-.9.788.788,0,0,1-.012-.145c0-1.233,2-2.233,4.466-2.233S539.443,709.542,539.443,710.775Z" transform="translate(-93.805 -25.085)"/><path class="cls-31" d="M538.925,711.817a1.439,1.439,0,0,1,.518,1.042c0,1.232-2,2.232-4.466,2.232s-4.466-1-4.466-2.232a1.439,1.439,0,0,1,.518-1.042,7.144,7.144,0,0,0,7.9,0Z" transform="translate(-93.805 -25.085)"/><ellipse class="cls-45" cx="441.172" cy="686.731" rx="3.948" ry="1.191"/><polygon class="cls-43" points="435.209 743.3 443.703 748.141 399.939 773.813 399.939 764.881 399.939 763.988 420.073 752.178 435.209 743.3"/><polygon class="cls-46" points="439.702 728.456 443.042 726.497 436.963 742.27 435.209 743.3 426.54 738.358 439.702 730.626 439.702 728.456"/><polygon class="cls-46" points="436.296 708.125 442.214 715.967 439.702 717.441 417.221 730.626 417.221 730.629 415.128 731.856 414.494 731.496 419.386 718.045 436.296 708.125"/><polygon class="cls-47" points="439.702 728.456 439.702 730.626 426.54 738.358 424.652 737.283 439.702 728.456"/><polygon class="cls-47" points="439.702 717.441 439.702 728.456 424.652 737.283 417.221 733.05 417.221 730.629 439.702 717.441"/><polygon class="cls-47" points="439.702 717.441 417.221 730.629 417.221 730.626 439.702 717.441"/><path class="cls-31" d="M530.523,710.92a1.5,1.5,0,0,0,.506.9,1.439,1.439,0,0,0-.518,1.042v-1.936Z" transform="translate(-93.805 -25.085)"/><path class="cls-48" d="M456.976,713.454v-1.935l-.012,0a.8.8,0,0,0,.012-.146c0-1.233-2-2.233-4.466-2.233s-4.465,1-4.465,2.233a.8.8,0,0,0,.012.146l-.012,0v1.935c0,1.232,2,2.233,4.465,2.233S456.976,714.686,456.976,713.454Zm41.382,24.71v-1.935l-.012,0a.8.8,0,0,0,.012-.146c0-1.232-2-2.233-4.465-2.233s-4.466,1-4.466,2.233a.8.8,0,0,0,.012.146l-.012,0v1.935c0,1.233,2,2.233,4.466,2.233S498.358,739.4,498.358,738.164Zm41.085-25.3v-1.936l-.012,0a.788.788,0,0,0,.012-.145c0-1.233-2-2.233-4.466-2.233s-4.466,1-4.466,2.233a.788.788,0,0,0,.012.145l-.012,0v1.936c0,1.232,2,2.232,4.466,2.232S539.443,714.091,539.443,712.859Zm7.591,0-.131.077-53.159,31.182-53.16-31.182-.131-.077,48.373-27.566-.063,13.356c-11.864,1.455-20.771,7.6-20.771,14.954,0,8.44,11.729,15.281,26.2,15.281s26.2-6.841,26.2-15.281c0-7.369-8.94-13.522-20.84-14.963V685.8Z" transform="translate(-93.805 -25.085)"/><polygon class="cls-46" points="435.209 743.3 420.073 752.178 420.073 752.175 413.488 743.833 417.221 741.645 417.221 743.833 426.54 738.358 435.209 743.3"/><polygon class="cls-47" points="426.54 738.358 417.221 743.833 417.221 741.645 424.652 737.283 426.54 738.358"/><polygon class="cls-47" points="424.652 737.283 417.221 741.645 417.221 733.05 424.652 737.283"/><polygon class="cls-43" points="420.073 752.175 420.073 752.178 399.939 763.988 399.939 751.782 413.488 743.833 420.073 752.175"/><polygon class="cls-43" points="405.345 726.283 419.386 718.045 414.494 731.496 405.345 726.283"/><path class="cls-9" d="M499.549,698.64c11.9,1.441,20.84,7.594,20.84,14.963,0,8.44-11.73,15.281-26.2,15.281s-26.2-6.841-26.2-15.281c0-7.354,8.907-13.5,20.771-14.954l-.027,5.874c-5.266,1.226-8.985,4.23-8.985,7.74a4.945,4.945,0,0,1,0,2.68c0,4.6,6.4,8.335,14.29,8.335s14.291-3.733,14.291-8.335a4.945,4.945,0,0,1,0-2.68c0-3.465-3.623-6.436-8.783-7.693Z" transform="translate(-93.805 -25.085)"/><polygon class="cls-44" points="417.221 733.05 417.221 741.645 413.488 743.833 399.939 751.782 399.939 740.766 414.158 732.425 415.128 731.856 417.221 733.05"/><polygon class="cls-44" points="417.221 730.629 417.221 733.05 415.128 731.856 417.221 730.629"/><polygon class="cls-46" points="415.128 731.856 414.158 732.425 414.494 731.496 415.128 731.856"/><path class="cls-49" d="M494.041,720.6c7.11,0,13.008-3.031,14.106-7a4.964,4.964,0,0,1,.185,1.34c0,4.6-6.4,8.335-14.291,8.335s-14.29-3.733-14.29-8.335a4.964,4.964,0,0,1,.185-1.34C481.034,717.568,486.932,720.6,494.041,720.6Z" transform="translate(-93.805 -25.085)"/><path class="cls-50" d="M508.147,713.6c-.8-2.879-4.117-5.264-8.6-6.353v-2.68c5.16,1.257,8.783,4.228,8.783,7.693A4.953,4.953,0,0,1,508.147,713.6Z" transform="translate(-93.805 -25.085)"/><polygon class="cls-43" points="414.494 731.496 414.158 732.425 399.939 740.766 399.939 730.346 399.939 729.453 405.345 726.283 414.494 731.496"/><path class="cls-50" d="M508.147,713.6c-1.1,3.965-7,7-14.106,7s-13.007-3.031-14.105-7c.807-2.918,4.209-5.329,8.785-6.4l-.006,1.322c-1.75.86-2.861,2.149-2.861,3.587s1.1,2.712,2.829,3.57a11.853,11.853,0,0,0,5.21,1.119,11.5,11.5,0,0,0,5.656-1.357,3.521,3.521,0,0,0,0-6.663V707.25C504.03,708.339,507.352,710.724,508.147,713.6Z" transform="translate(-93.805 -25.085)"/><path class="cls-51" d="M499.549,708.783a3.521,3.521,0,0,1,0,6.663Z" transform="translate(-93.805 -25.085)"/><path class="cls-52" d="M494.19,681.3c3.04,0,5.508,1.2,5.508,2.679a1.378,1.378,0,0,1-.149.617,2.286,2.286,0,0,1-.694.806l-5.111-2.911-4.564,2.6a1.991,1.991,0,0,1-.352-.5,1.4,1.4,0,0,1-.145-.614C488.683,682.5,491.148,681.3,494.19,681.3Z" transform="translate(-93.805 -25.085)"/><path class="cls-53" d="M499.549,708.783v6.663a11.5,11.5,0,0,1-5.656,1.357,11.853,11.853,0,0,1-5.21-1.119l.032-7.157a11.907,11.907,0,0,1,5.178-1.1A11.5,11.5,0,0,1,499.549,708.783Z" transform="translate(-93.805 -25.085)"/><path class="cls-53" d="M499.549,704.57v2.68a23.937,23.937,0,0,0-10.828-.045l.015-2.682a23.91,23.91,0,0,1,10.813.047Z" transform="translate(-93.805 -25.085)"/><path class="cls-53" d="M499.549,698.64v5.93a23.91,23.91,0,0,0-10.813-.047l.027-5.874a44.705,44.705,0,0,1,10.786-.009Z" transform="translate(-93.805 -25.085)"/><path class="cls-53" d="M499.549,685.8V698.64a44.705,44.705,0,0,0-10.786.009l.063-13.356.354-.2c.869.926,2.786,1.566,5.01,1.566a7.948,7.948,0,0,0,4.665-1.257Z" transform="translate(-93.805 -25.085)"/><polygon class="cls-43" points="405.345 726.283 399.939 729.453 399.939 723.201 405.345 726.283"/><path class="cls-52" d="M493.744,682.492l5.111,2.911a7.948,7.948,0,0,1-4.665,1.257c-2.224,0-4.141-.64-5.01-1.566Z" transform="translate(-93.805 -25.085)"/><path class="cls-31" d="M498.358,736.229v1.935a1.439,1.439,0,0,0-.518-1.042,1.49,1.49,0,0,0,.506-.9Z" transform="translate(-93.805 -25.085)"/><path class="cls-45" d="M498.358,736.08a.8.8,0,0,1-.012.146,1.49,1.49,0,0,1-.506.9,7.137,7.137,0,0,0-7.895,0,1.5,1.5,0,0,1-.506-.9.8.8,0,0,1-.012-.146c0-1.232,2-2.233,4.466-2.233S498.358,734.848,498.358,736.08Z" transform="translate(-93.805 -25.085)"/><path class="cls-31" d="M497.84,737.122a1.439,1.439,0,0,1,.518,1.042c0,1.233-2,2.233-4.465,2.233s-4.466-1-4.466-2.233a1.439,1.439,0,0,1,.518-1.042,7.137,7.137,0,0,0,7.895,0Z" transform="translate(-93.805 -25.085)"/><ellipse class="cls-45" cx="400.088" cy="712.037" rx="3.948" ry="1.191"/><polygon class="cls-45" points="399.939 763.988 399.939 764.881 379.549 752.919 386.387 743.833 399.939 751.782 399.939 763.988"/><polygon class="cls-45" points="399.939 729.453 399.939 730.346 393.761 726.723 399.939 723.201 399.939 729.453"/><polygon class="cls-54" points="399.939 773.813 399.939 784.828 376.074 770.83 377.346 770.011 383.118 773.366 383.118 766.519 361.087 753.717 361.087 758.558 358.241 760.368 346.648 753.568 356.175 748.141 399.939 773.813"/><polygon class="cls-45" points="399.939 764.881 399.939 773.813 356.175 748.141 363.898 743.741 379.549 752.919 399.939 764.881"/><polygon class="cls-55" points="399.939 740.766 399.939 751.782 386.387 743.833 375.226 737.283 384.75 731.856 385.717 732.425 399.939 740.766"/><polygon class="cls-45" points="399.939 730.346 399.939 740.766 385.717 732.425 385.369 731.505 393.761 726.723 399.939 730.346"/><polygon class="cls-45" points="399.939 719.033 399.939 723.201 393.761 726.723 380.653 719.033 363.189 708.789 346.648 699.087 346.648 688.071 346.779 687.851 399.939 719.033"/><path class="cls-53" d="M488.721,707.205a23.937,23.937,0,0,1,10.828.045v1.533a11.5,11.5,0,0,0-5.656-1.358,11.907,11.907,0,0,0-5.178,1.1Z" transform="translate(-93.805 -25.085)"/><path class="cls-31" d="M489.439,736.226a1.5,1.5,0,0,0,.506.9,1.439,1.439,0,0,0-.518,1.042v-1.935Z" transform="translate(-93.805 -25.085)"/><path class="cls-50" d="M488.736,704.523l-.015,2.682c-4.576,1.069-7.978,3.48-8.785,6.4a4.953,4.953,0,0,1-.185-1.34C479.751,708.753,483.47,705.749,488.736,704.523Z" transform="translate(-93.805 -25.085)"/><path class="cls-51" d="M488.715,708.527l-.032,7.157c-1.73-.858-2.829-2.141-2.829-3.57S486.965,709.387,488.715,708.527Z" transform="translate(-93.805 -25.085)"/><polygon class="cls-45" points="393.761 726.723 385.369 731.505 380.653 719.033 393.761 726.723"/><polygon class="cls-56" points="386.387 743.833 379.549 752.919 363.898 743.741 375.226 737.283 386.387 743.833"/><polygon class="cls-56" points="385.369 731.505 385.717 732.425 384.75 731.856 385.369 731.505"/><polygon class="cls-56" points="380.653 719.033 385.369 731.505 384.75 731.856 357.661 715.967 363.189 708.789 380.653 719.033"/><polygon class="cls-55" points="384.75 731.856 375.226 737.283 355.523 725.729 346.648 720.522 346.648 709.507 357.661 715.967 384.75 731.856"/><path class="cls-57" d="M476.923,791.6v6.847L471.15,795.1l1.959-1.262a1.556,1.556,0,0,0,.512-.331.977.977,0,0,0,.325-.708c0-.658-.733-1.191-1.638-1.191a2.021,2.021,0,0,0-1.08.3l-.078.051-2.575,1.646-1.283-.744,2.045-1.337a1.541,1.541,0,0,0,.849-.553.914.914,0,0,0,.187-.551c0-.658-.732-1.191-1.637-1.191a2.128,2.128,0,0,0-.8.149l0,0a1.464,1.464,0,0,0-.518.333l-2.626,1.7-1.241-.72,1.905-1.248a1.261,1.261,0,0,0,1.045-1.107c0-.658-.732-1.191-1.637-1.191a2.013,2.013,0,0,0-1.147.339l-.012.009-2.691,1.721-1.229-.714,2.509-1.605a1.4,1.4,0,0,0,.149-.1,1.053,1.053,0,0,0,.485-.846c0-.658-.732-1.191-1.637-1.191a2.073,2.073,0,0,0-.974.233l-.02.014a1.358,1.358,0,0,0-.161.1l0,0-2.968,1.866-1.364-.792,2.534-1.625,0,0a1.449,1.449,0,0,0,.294-.188,1.029,1.029,0,0,0,.426-.8c0-.657-.732-1.19-1.637-1.19a1.855,1.855,0,0,0-1.358.527v0l-1.173.744V778.8Z" transform="translate(-93.805 -25.085)"/><path class="cls-58" d="M473.946,792.8a.977.977,0,0,1-.325.708l-.512.331a2.148,2.148,0,0,1-.8.151c-.9,0-1.637-.532-1.637-1.19a1.058,1.058,0,0,1,.479-.843l.078-.051a2.021,2.021,0,0,1,1.08-.3C473.213,791.6,473.946,792.137,473.946,792.8Z" transform="translate(-93.805 -25.085)"/><path class="cls-58" d="M473.109,793.834,471.15,795.1l-2.575-1.5,2.575-1.646a1.058,1.058,0,0,0-.479.843c0,.658.732,1.19,1.637,1.19A2.148,2.148,0,0,0,473.109,793.834Z" transform="translate(-93.805 -25.085)"/><polygon class="cls-58" points="377.346 770.011 376.074 770.83 373.505 769.323 374.77 768.513 377.346 770.011"/><path class="cls-58" d="M470.373,790.413a.914.914,0,0,1-.187.551l-.849.553a2.049,2.049,0,0,1-.6.087c-.9,0-1.638-.533-1.638-1.191a.982.982,0,0,1,.322-.706l.518-.333,0,0a2.128,2.128,0,0,1,.8-.149C469.641,789.222,470.373,789.755,470.373,790.413Z" transform="translate(-93.805 -25.085)"/><path class="cls-57" d="M469.337,791.517l.849-.553A1.541,1.541,0,0,1,469.337,791.517Z" transform="translate(-93.805 -25.085)"/><path class="cls-58" d="M469.337,791.517l-2.045,1.337-2.5-1.45,2.626-1.7a.982.982,0,0,0-.322.706c0,.658.733,1.191,1.638,1.191A2.049,2.049,0,0,0,469.337,791.517Z" transform="translate(-93.805 -25.085)"/><polygon class="cls-56" points="375.226 737.283 363.898 743.741 361.873 742.553 355.523 725.729 375.226 737.283"/><polygon class="cls-54" points="374.77 768.513 373.505 769.323 372.243 768.582 373.487 767.769 374.77 768.513"/><polygon class="cls-58" points="373.487 767.769 372.243 768.582 369.751 767.12 370.989 766.319 373.487 767.769"/><path class="cls-58" d="M469.879,795.915l-3.855,2.486a1.061,1.061,0,0,0,.479-.843c0-.658-.732-1.191-1.637-1.191a2.043,2.043,0,0,0-1.025.262l3.469-2.221Z" transform="translate(-93.805 -25.085)"/><path class="cls-57" d="M465.458,789.436a2.112,2.112,0,0,1-.592.084c-.906,0-1.638-.533-1.638-1.191a1.06,1.06,0,0,1,.479-.843l.012-.009a2.013,2.013,0,0,1,1.147-.339c.905,0,1.637.533,1.637,1.191A1.261,1.261,0,0,1,465.458,789.436Z" transform="translate(-93.805 -25.085)"/><path class="cls-59" d="M464.866,796.367c.905,0,1.637.533,1.637,1.191a1.061,1.061,0,0,1-.479.843l-.078.05a2.015,2.015,0,0,1-1.08.3c-.906,0-1.638-.533-1.638-1.191a1.063,1.063,0,0,1,.491-.851l.122-.078A2.043,2.043,0,0,1,464.866,796.367Z" transform="translate(-93.805 -25.085)"/><path class="cls-58" d="M465.458,789.436l-1.905,1.248-2.537-1.477,2.691-1.721a1.06,1.06,0,0,0-.479.843c0,.658.732,1.191,1.638,1.191A2.112,2.112,0,0,0,465.458,789.436Z" transform="translate(-93.805 -25.085)"/><polygon class="cls-54" points="369.748 765.599 370.989 766.319 369.751 767.12 368.521 766.4 369.748 765.599"/><polygon class="cls-58" points="367.211 764.122 369.748 765.599 368.521 766.4 365.982 764.908 367.211 764.122"/><path class="cls-58" d="M462.93,795.176c0-.658-.732-1.191-1.637-1.191a2.128,2.128,0,0,0-.646.1l2.909-1.879,2.491,1.462-3.593,2.349A1.055,1.055,0,0,0,462.93,795.176Z" transform="translate(-93.805 -25.085)"/><path class="cls-58" d="M461.293,784.756c.9,0,1.637.533,1.637,1.191a1.053,1.053,0,0,1-.485.846l-.149.1a2.066,2.066,0,0,1-1,.25c-.905,0-1.637-.533-1.637-1.191a1.055,1.055,0,0,1,.479-.842l0,0,.161-.1.02-.014A2.073,2.073,0,0,1,461.293,784.756Z" transform="translate(-93.805 -25.085)"/><path class="cls-59" d="M461.293,793.985c.9,0,1.637.533,1.637,1.191a1.055,1.055,0,0,1-.476.84l-.045.03a1.991,1.991,0,0,1-1.116.321c-.905,0-1.637-.533-1.637-1.191a.944.944,0,0,1,.217-.592l0,0,.771-.5A2.128,2.128,0,0,1,461.293,793.985Z" transform="translate(-93.805 -25.085)"/><path class="cls-58" d="M462.3,786.888l-2.509,1.605-2.62-1.522,2.968-1.866a1.055,1.055,0,0,0-.479.842c0,.658.732,1.191,1.637,1.191A2.066,2.066,0,0,0,462.3,786.888Z" transform="translate(-93.805 -25.085)"/><polygon class="cls-54" points="367.211 764.122 365.982 764.908 364.758 764.191 365.982 763.408 367.211 764.122"/><path class="cls-58" d="M460.3,785l-.161.1A1.358,1.358,0,0,1,460.3,785Z" transform="translate(-93.805 -25.085)"/><polygon class="cls-58" points="365.982 763.408 364.758 764.191 362.138 762.654 363.362 761.886 365.982 763.408"/><path class="cls-58" d="M459.06,793.092c0-.658-.732-1.191-1.637-1.191a2.059,2.059,0,0,0-1.027.262l3.391-2.17,2.539,1.492-3.745,2.45A1.056,1.056,0,0,0,459.06,793.092Z" transform="translate(-93.805 -25.085)"/><path class="cls-58" d="M457.423,782.375c.9,0,1.637.533,1.637,1.19a1.029,1.029,0,0,1-.426.8l-.294.188,0,0a2.077,2.077,0,0,1-.914.2c-.905,0-1.638-.533-1.638-1.191a.963.963,0,0,1,.28-.663A1.855,1.855,0,0,1,457.423,782.375Z" transform="translate(-93.805 -25.085)"/><path class="cls-59" d="M457.423,791.9c.9,0,1.637.533,1.637,1.191a1.056,1.056,0,0,1-.479.843l-.078.05a2.01,2.01,0,0,1-1.08.3c-.905,0-1.638-.533-1.638-1.191a1.093,1.093,0,0,1,.575-.9l.036-.024A2.059,2.059,0,0,1,457.423,791.9Z" transform="translate(-93.805 -25.085)"/><polygon class="cls-45" points="361.873 742.553 363.898 743.741 356.175 748.141 346.648 742.553 346.648 733.621 361.873 742.553"/><polygon class="cls-54" points="363.362 761.886 362.138 762.654 360.796 761.865 361.998 761.094 363.362 761.886"/><polygon class="cls-45" points="363.189 708.789 357.661 715.967 346.648 709.507 346.648 699.087 363.189 708.789"/><path class="cls-31" d="M456.976,711.519v1.935a1.439,1.439,0,0,0-.518-1.042,1.493,1.493,0,0,0,.506-.9Z" transform="translate(-93.805 -25.085)"/><path class="cls-45" d="M456.976,711.37a.8.8,0,0,1-.012.146,1.493,1.493,0,0,1-.506.9,7.137,7.137,0,0,0-7.9,0,1.493,1.493,0,0,1-.506-.9.8.8,0,0,1-.012-.146c0-1.233,2-2.233,4.465-2.233S456.976,710.137,456.976,711.37Z" transform="translate(-93.805 -25.085)"/><path class="cls-31" d="M456.458,712.412a1.439,1.439,0,0,1,.518,1.042c0,1.232-2,2.233-4.466,2.233s-4.465-1-4.465-2.233a1.439,1.439,0,0,1,.518-1.042,7.137,7.137,0,0,0,7.9,0Z" transform="translate(-93.805 -25.085)"/><path class="cls-58" d="M454.892,783.643l1.173-.744v0a.963.963,0,0,0-.28.663c0,.658.733,1.191,1.638,1.191a2.077,2.077,0,0,0,.914-.2l-2.534,1.625-.911-.53Z" transform="translate(-93.805 -25.085)"/><ellipse class="cls-45" cx="358.706" cy="687.327" rx="3.948" ry="1.191"/><polygon class="cls-58" points="361.998 761.094 360.796 761.865 358.241 760.368 361.087 758.558 361.087 760.564 361.998 761.094"/><polygon class="cls-45" points="355.523 725.729 361.873 742.553 346.648 733.621 346.648 720.522 355.523 725.729"/><path class="cls-58" d="M455.488,790.711c0-.658-.733-1.191-1.638-1.191a2.034,2.034,0,0,0-1.042.271l-.036-.06,3.171-1.992,2.62,1.537-3.528,2.256A1.038,1.038,0,0,0,455.488,790.711Z" transform="translate(-93.805 -25.085)"/><path class="cls-58" d="M454.6,786.95l-3.462,2.221a1.055,1.055,0,0,0,.479-.842c0-.658-.732-1.191-1.637-1.191a2.107,2.107,0,0,0-.89.191l2.956-1.876Z" transform="translate(-93.805 -25.085)"/><path class="cls-59" d="M449.98,787.138c.9,0,1.637.533,1.637,1.191a1.055,1.055,0,0,1-.479.842l-.077.051a2.016,2.016,0,0,1-1.081.3c-.905,0-1.638-.533-1.638-1.191a1.018,1.018,0,0,1,.384-.768l.015-.009.349-.223A2.107,2.107,0,0,1,449.98,787.138Z" transform="translate(-93.805 -25.085)"/><polygon class="cls-54" points="356.175 748.141 346.648 753.568 346.648 742.553 356.175 748.141"/><path class="cls-31" d="M448.057,711.516a1.493,1.493,0,0,0,.506.9,1.439,1.439,0,0,0-.518,1.042v-1.935Z" transform="translate(-93.805 -25.085)"/><path class="cls-60" d="M766.245,777.841c-17.425,24.74-17.987,67.468-17.987,67.468H732.514a79.148,79.148,0,0,1,3.683-21.53v-.011C744.884,796.082,765.84,778.184,766.245,777.841Z" transform="translate(-93.805 -25.085)"/><path class="cls-61" d="M724.923,815.227c10.684-30.363,30.925-53.416,30.925-53.416-14.613,23.048-18.555,51.15-19.651,61.957v.011a79.148,79.148,0,0,0-3.683,21.53v.281h-5.342c-1.563-20.31-5.684-37.015-10.823-50.549l.14-.056a142.211,142.211,0,0,1,15.738-37.661C726.61,768.03,724.923,815.227,724.923,815.227Z" transform="translate(-93.805 -25.085)"/><path class="cls-60" d="M727.172,845.59H721.55c0-13.815-5.561-28.575-12.134-41.187,0,0-3.048-30.779-26.658-58.33.433.292,20.372,14.158,33.591,48.968C721.488,808.575,725.609,825.28,727.172,845.59Z" transform="translate(-93.805 -25.085)"/><path class="cls-61" d="M721.55,845.59H708.617s.433-8.805-4.115-21.811c-.945-9.677-3.194-27.107-16.121-51.279a195.611,195.611,0,0,1,21.035,31.9C715.989,817.015,721.55,831.775,721.55,845.59Z" transform="translate(-93.805 -25.085)"/><path class="cls-60" d="M704.5,823.779c4.548,13.006,4.115,21.811,4.115,21.811H692.874c0-41.513-20.158-66.68-20.787-67.456C690.934,794.49,700.077,811.122,704.5,823.779Z" transform="translate(-93.805 -25.085)"/><path class="cls-61" d="M176.614,195.562c10.683-30.363,30.925-53.416,30.925-53.416-14.619,23.053-18.555,51.167-19.657,61.968a79.34,79.34,0,0,0-3.677,21.53v.281h-5.342c-1.563-20.31-5.685-37.015-10.824-50.549l.141-.056a142.23,142.23,0,0,1,15.738-37.661C178.3,148.365,176.614,195.562,176.614,195.562Z" transform="translate(-93.805 -25.085)"/><path class="cls-60" d="M187.882,204.114c8.687-27.692,29.649-45.595,30.053-45.938-17.424,24.74-17.987,67.468-17.987,67.468H184.205A79.34,79.34,0,0,1,187.882,204.114Z" transform="translate(-93.805 -25.085)"/><path class="cls-60" d="M178.863,225.925H173.24c0-13.815-5.566-28.581-12.139-41.192v-.006c-.056-.54-3.25-31.015-26.652-58.319.433.292,20.371,14.158,33.59,48.968C173.178,188.91,177.3,205.615,178.863,225.925Z" transform="translate(-93.805 -25.085)"/><path class="cls-61" d="M173.24,225.925H160.308s.433-8.805-4.116-21.811c-.944-9.677-3.193-27.107-16.12-51.279A195.285,195.285,0,0,1,161.1,184.727v.006C167.674,197.344,173.24,212.11,173.24,225.925Z" transform="translate(-93.805 -25.085)"/><path class="cls-60" d="M156.192,204.114c4.549,13.006,4.116,21.811,4.116,21.811H144.564c0-41.513-20.157-66.68-20.787-67.456C142.625,174.825,151.767,191.457,156.192,204.114Z" transform="translate(-93.805 -25.085)"/><path class="cls-60" d="M94.007,512.872c9.728,17.271,10.042,47.1,10.042,47.1h8.789a67.976,67.976,0,0,0-2.056-15.03v-.007A78.719,78.719,0,0,0,94.007,512.872Z" transform="translate(-93.805 -25.085)"/><path class="cls-61" d="M117.075,538.971a136.655,136.655,0,0,0-17.264-37.29c8.158,16.089,10.359,35.708,10.971,43.253v.007a67.976,67.976,0,0,1,2.056,15.03v.2h2.982a153.69,153.69,0,0,1,6.042-35.289l-.078-.039A113.281,113.281,0,0,0,113,498.548C116.134,506.022,117.075,538.971,117.075,538.971Z" transform="translate(-93.805 -25.085)"/><path class="cls-60" d="M115.82,560.168h3.139c0-9.649,3.107-19.957,6.777-28.761.041-.483,1.849-21.7,14.878-40.713-.241.2-11.372,9.884-18.752,34.185A153.69,153.69,0,0,0,115.82,560.168Z" transform="translate(-93.805 -25.085)"/><path class="cls-61" d="M125.736,531.407c-3.67,8.8-6.777,19.112-6.777,28.761h7.219a54.527,54.527,0,0,1,2.3-15.227c.527-6.755,1.783-18.923,9-35.8A142.109,142.109,0,0,0,125.736,531.407Z" transform="translate(-93.805 -25.085)"/><path class="cls-60" d="M128.476,544.941a54.527,54.527,0,0,0-2.3,15.227h8.789c0-28.981,11.254-46.551,11.6-47.092A78.011,78.011,0,0,0,128.476,544.941Z" transform="translate(-93.805 -25.085)"/><path class="cls-61" d="M796.817,197.533A158.826,158.826,0,0,0,776.753,154.2c9.485,18.7,12.039,41.513,12.754,50.276a79.135,79.135,0,0,1,2.385,17.468v.228h3.466a178.654,178.654,0,0,1,7.022-41.011l-.091-.046a131.5,131.5,0,0,0-10.211-30.555C795.723,159.241,796.817,197.533,796.817,197.533Z" transform="translate(-93.805 -25.085)"/><path class="cls-60" d="M789.507,204.471a91.512,91.512,0,0,0-19.5-37.27c11.3,20.072,11.67,54.738,11.67,54.738h10.214A79.135,79.135,0,0,0,789.507,204.471Z" transform="translate(-93.805 -25.085)"/><path class="cls-60" d="M795.358,222.167h3.648c0-11.213,3.611-23.193,7.876-33.425.047-.561,2.149-25.218,17.292-47.315-.281.237-13.217,11.486-21.794,39.729A178.654,178.654,0,0,0,795.358,222.167Z" transform="translate(-93.805 -25.085)"/><path class="cls-61" d="M806.882,188.742c-4.265,10.232-7.876,22.212-7.876,33.425h8.39s-.281-7.144,2.671-17.7c.613-7.851,2.072-21.992,10.459-41.6A165.207,165.207,0,0,0,806.882,188.742Z" transform="translate(-93.805 -25.085)"/><path class="cls-60" d="M810.067,204.471c-2.952,10.552-2.671,17.7-2.671,17.7h10.215c0-33.68,13.078-54.1,13.486-54.729A90.676,90.676,0,0,0,810.067,204.471Z" transform="translate(-93.805 -25.085)"/><polygon class="cls-62" points="777.786 223.3 777.786 515.615 774.177 519.224 774.177 226.909 384.655 3.652 388.033 0.274 388.191 0 777.786 223.3"/><polygon class="cls-63" points="773.816 519.585 761.546 512.526 761.546 497.737 761.546 239.345 396.694 30.228 396.694 288.62 396.694 302.535 384.424 295.476 384.424 3.883 384.655 3.652 774.177 226.909 774.177 519.224 774.177 519.585 773.816 519.585"/><path class="cls-32" d="M855.351,537.611l12.27,7.059L614.281,692.632l-.361-.21L226.693,466,478.228,320.562l12.27,7.058Zm-170.51,91.426L829.2,544.865,482.1,345.1l-142.75,81.92ZM474.021,602.4l76.557-44.634-96.543-55.035-75.706,43.443Z" transform="translate(-93.805 -25.085)"/><polygon class="cls-63" points="761.546 497.737 761.546 512.526 396.694 302.535 396.694 288.62 761.546 497.737"/><path class="cls-63" d="M855.351,264.43V522.822L490.5,313.705V55.313ZM675.271,381.19v-172.5L539.579,130.737v172.5Z" transform="translate(-93.805 -25.085)"/><polygon class="cls-64" points="735.397 519.78 591.036 603.952 245.549 401.937 388.3 320.016 735.397 519.78"/><polygon class="cls-65" points="581.466 343.835 581.466 356.105 445.774 278.154 445.774 265.884 581.466 343.835"/><polygon class="cls-65" points="581.466 298.364 581.466 314.242 445.774 236.292 445.774 220.413 581.466 298.364"/><path class="cls-9" d="M569.092,213.9l48.358,27.644.079-9.766-48.264-27.593-19.582-11.195-.079,9.773Zm0,13.714,48.358,27.643.079-9.765L569.265,217.9,549.683,206.7l-.079,9.773Zm2.887,14.572,23.1,13.071.08-9.765-23.061-13.057-12.306-6.965-.079,9.773Zm103.292,14.861v66.4L539.579,245.5V179.1L565.006,193.7Z" transform="translate(-93.805 -25.085)"/><polygon class="cls-65" points="581.466 214.639 581.466 231.961 471.202 168.619 471.202 151.297 490.263 162.246 581.466 214.639"/><path class="cls-66" d="M675.271,220.958v18.766l-91.2-52.393.953-1.66a4.141,4.141,0,0,0,2.194.642c2.793,0,5.052-2.909,5.052-6.5a6.724,6.724,0,0,0-3.081-5.983l1-1.754Z" transform="translate(-93.805 -25.085)"/><polygon class="cls-67" points="523.725 206.692 523.645 216.458 475.287 188.814 475.366 179.265 475.46 179.099 523.725 206.692"/><polygon class="cls-67" points="523.725 220.406 523.645 230.171 475.287 202.527 475.366 192.978 475.46 192.812 523.725 220.406"/><polygon class="cls-62" points="520.116 683.065 520.116 667.337 520.477 667.547 773.816 519.585 774.177 519.585 774.177 535.103 773.816 535.464 520.477 683.426 520.051 683.173 520.116 683.065"/><polygon class="cls-68" points="520.116 667.337 520.116 683.065 520.051 683.173 132.888 456.791 132.527 456.791 132.527 441.273 132.888 440.912 520.116 667.337"/><polygon class="cls-69" points="501.35 220.406 501.27 230.171 478.174 217.1 478.253 207.414 478.289 207.349 501.35 220.406"/><path class="cls-65" d="M589.186,173.834a6.724,6.724,0,0,1,3.081,5.983c0,3.587-2.259,6.5-5.052,6.5a4.141,4.141,0,0,1-2.194-.642,6.842,6.842,0,0,1-2.858-5.854c0-3.587,2.259-6.5,5.052-6.5A4.076,4.076,0,0,1,589.186,173.834Z" transform="translate(-93.805 -25.085)"/><polygon class="cls-70" points="487.275 265.155 487.196 274.921 448.581 252.741 448.661 242.968 487.275 265.155"/><polygon class="cls-70" points="487.275 277.425 487.196 287.191 448.581 265.011 448.661 255.238 487.275 277.425"/><path class="cls-71" d="M675.271,368.92,539.579,290.969V261.377l135.692,77.95ZM581,300.006l.079-9.766-38.614-22.187-.08,9.773Zm0,12.27.079-9.766-38.614-22.187-.08,9.773Z" transform="translate(-93.805 -25.085)"/><ellipse class="cls-65" cx="480.419" cy="147.514" rx="5.052" ry="6.496"/><polygon class="cls-67" points="478.289 207.349 478.253 207.414 478.174 217.1 465.904 210.157 465.983 200.384 478.289 207.349"/><path class="cls-66" d="M584.068,187.331l-19.062-10.949-5.94-3.414.917-1.6a4.069,4.069,0,0,0,1.97.513c2.794,0,5.053-2.909,5.053-6.5a6.727,6.727,0,0,0-3.082-5.984l1.039-1.811,25.226,14.493-1,1.754a4.076,4.076,0,0,0-1.971-.513c-2.793,0-5.052,2.909-5.052,6.5a6.842,6.842,0,0,0,2.858,5.854Zm-14.9-14.731c0,3.587,2.259,6.5,5.052,6.5s5.053-2.908,5.053-6.5-2.259-6.5-5.053-6.5S569.171,169.012,569.171,172.6Z" transform="translate(-93.805 -25.085)"/><polygon class="cls-69" points="475.46 192.812 475.366 192.978 475.287 202.527 455.799 191.391 455.879 181.618 475.46 192.812"/><polygon class="cls-69" points="475.46 179.099 475.366 179.265 475.287 188.814 455.799 177.677 455.879 167.904 475.46 179.099"/><path class="cls-65" d="M563.924,159.4a6.727,6.727,0,0,1,3.082,5.984c0,3.587-2.259,6.5-5.053,6.5a4.069,4.069,0,0,1-1.97-.513,6.722,6.722,0,0,1-3.082-5.983c0-3.587,2.259-6.5,5.052-6.5A4.075,4.075,0,0,1,563.924,159.4Z" transform="translate(-93.805 -25.085)"/><polygon class="cls-9" points="471.202 151.297 471.202 168.619 445.774 154.01 445.774 136.688 465.261 147.883 471.202 151.297"/><ellipse class="cls-72" cx="467.023" cy="124.057" rx="2.483" ry="3.248"/><path class="cls-70" d="M554.331,141.564c-1.371,0-2.482,1.458-2.482,3.248s1.111,3.248,2.482,3.248,2.483-1.451,2.483-3.248S555.7,141.564,554.331,141.564Zm-14.752-10.827,135.692,77.951v12.27L590.189,172.08l-25.226-14.493-25.384-14.58Zm23.731,18.405c0-1.79-1.111-3.248-2.483-3.248s-2.483,1.458-2.483,3.248,1.112,3.248,2.483,3.248S563.31,150.939,563.31,149.142ZM549.6,141.2c0-1.79-1.112-3.248-2.483-3.248s-2.483,1.458-2.483,3.248,1.111,3.248,2.483,3.248S549.6,143,549.6,141.2Z" transform="translate(-93.805 -25.085)"/><ellipse class="cls-73" cx="460.527" cy="119.726" rx="2.483" ry="3.248"/><path class="cls-66" d="M554.014,157.442c0-3.587-2.259-6.5-5.052-6.5s-5.053,2.908-5.053,6.5,2.259,6.5,5.053,6.5S554.014,161.03,554.014,157.442Zm-14.435-14.435,25.384,14.58-1.039,1.811a4.075,4.075,0,0,0-1.971-.512c-2.793,0-5.052,2.909-5.052,6.5a6.722,6.722,0,0,0,3.082,5.983l-.917,1.6-19.487-11.195Z" transform="translate(-93.805 -25.085)"/><ellipse class="cls-65" cx="455.157" cy="132.357" rx="5.052" ry="6.496"/><polygon class="cls-64" points="456.774 532.678 380.216 577.312 284.524 521.086 360.23 477.643 456.774 532.678"/><ellipse class="cls-74" cx="453.309" cy="116.118" rx="2.483" ry="3.248"/><path class="cls-75" d="M324.627,273.366s-14.087-9.479-6.407-23.627,15.5-5.781,18.048-1.193,5.721,17.3-3.576,25.992" transform="translate(-93.805 -25.085)"/><path class="cls-75" d="M330.4,273.394s13.8-9.892,24.377,2.244,0,16.545-5.183,17.329-18.21-.679-23.108-12.426" transform="translate(-93.805 -25.085)"/><path class="cls-75" d="M318.713,277.46s-10.949,12.978-24.182,3.81-4.068-16.036.769-18.071,17.819-3.813,25.452,6.371" transform="translate(-93.805 -25.085)"/><path class="cls-75" d="M325.649,280.744s10.867,13.047-.47,24.476-16.5,1.2-17.66-3.912-.643-18.211,10.717-23.949" transform="translate(-93.805 -25.085)"/><path class="cls-76" d="M328.346,276.281s-4.542-14.012,8.275-19.558,13.677,4.354,12.959,8.849-5.358,14.872-16.357,15.827" transform="translate(-93.805 -25.085)"/><path class="cls-76" d="M332.273,279.392s14.716.636,15.438,14.583-8.854,11.3-12.816,9.054-12.066-10.213-9.121-20.853" transform="translate(-93.805 -25.085)"/><path class="cls-76" d="M322.117,275.909s-14.422,3-18.547-10.345,5.81-13.124,10.2-11.924,14.2,6.938,13.963,17.975" transform="translate(-93.805 -25.085)"/><path class="cls-76" d="M325.093,281.865s.433,14.723-13.424,16.455-11.909-8.011-9.96-12.125,9.31-12.775,20.136-10.609" transform="translate(-93.805 -25.085)"/><ellipse class="cls-77" cx="326.557" cy="277.178" rx="7.089" ry="8.179" transform="translate(-195.086 272.618) rotate(-43.071)"/><path class="cls-75" d="M873.992,698.464S865.1,684,877.954,674.306s16.5,1.165,16.92,6.4-1.966,18.116-14.029,22.171" transform="translate(-93.805 -25.085)"/><path class="cls-75" d="M879.235,700.883s16.66-3.282,21.254,12.147-6.853,15.058-11.9,13.622-16.289-8.167-15.878-20.887" transform="translate(-93.805 -25.085)"/><path class="cls-75" d="M866.912,699.738s-15.343,7.272-23.586-6.555,2.946-16.281,8.191-16.128,17.8,3.916,20.521,16.348" transform="translate(-93.805 -25.085)"/><path class="cls-75" d="M871.863,705.6s4.482,16.377-10.573,22.08-15.516-5.743-14.449-10.881,6.963-16.839,19.679-17.352" transform="translate(-93.805 -25.085)"/><path class="cls-76" d="M876.167,702.659s1.675-14.635,15.638-14.369,10.642,9.631,8.125,13.424-11.04,11.313-21.446,7.623" transform="translate(-93.805 -25.085)"/><path class="cls-76" d="M878.451,707.117s13.129,6.679,8,19.67-12.74,6.61-15.416,2.928-6.747-14.3.344-22.758" transform="translate(-93.805 -25.085)"/><path class="cls-76" d="M870.653,699.738s-14.367-3.25-12.59-17.1,10.726-9.536,14.225-6.623,10.05,12.2,5.255,22.145" transform="translate(-93.805 -25.085)"/><path class="cls-76" d="M870.893,706.391s-5.709,13.579-19.038,9.411-7.517-12.226-4.038-15.162,13.768-7.767,22.723-1.309" transform="translate(-93.805 -25.085)"/><ellipse class="cls-77" cx="874.168" cy="702.733" rx="7.089" ry="8.179" transform="translate(-272.171 290.124) rotate(-18.583)"/><path class="cls-60" d="M341.866,894.265c-17.425,24.74-17.987,67.467-17.987,67.467H308.135a79.161,79.161,0,0,1,3.683-21.53v-.011C320.505,912.505,341.461,894.608,341.866,894.265Z" transform="translate(-93.805 -25.085)"/><path class="cls-61" d="M300.545,931.65c10.683-30.362,30.925-53.416,30.925-53.416-14.614,23.048-18.555,51.15-19.652,61.957v.011a79.161,79.161,0,0,0-3.683,21.53v.281h-5.341C301.231,941.7,297.109,925,291.97,911.465l.141-.057a142.154,142.154,0,0,1,15.738-37.661C302.231,884.453,300.545,931.65,300.545,931.65Z" transform="translate(-93.805 -25.085)"/><path class="cls-60" d="M302.794,962.013h-5.623c0-13.815-5.561-28.575-12.134-41.186,0,0-3.047-30.779-26.657-58.331.433.293,20.371,14.158,33.59,48.969C297.109,925,301.231,941.7,302.794,962.013Z" transform="translate(-93.805 -25.085)"/><path class="cls-61" d="M297.171,962.013H284.239s.433-8.805-4.116-21.811c-.945-9.676-3.194-27.107-16.121-51.279a195.572,195.572,0,0,1,21.035,31.9C291.61,933.438,297.171,948.2,297.171,962.013Z" transform="translate(-93.805 -25.085)"/><path class="cls-60" d="M280.123,940.2c4.549,13.006,4.116,21.811,4.116,21.811H268.5c0-41.513-20.157-66.68-20.787-67.456C266.555,910.914,275.7,927.546,280.123,940.2Z" transform="translate(-93.805 -25.085)"/></svg>