<svg width="1440" height="125" viewBox="0 0 1440 125" fill="none" xmlns="http://www.w3.org/2000/svg">
<rect x="463.42" y="2" width="120.753" height="34.7532" rx="17.3766" transform="rotate(90 463.42 2)" fill="#29193E" stroke="#29193E" stroke-width="4" stroke-linejoin="round"/>
<rect x="463.421" y="38.6294" width="84.1237" height="34.7532" rx="17.3766" transform="rotate(90 463.421 38.6294)" fill="#D8C1F7" stroke="#29193E" stroke-width="4" stroke-linejoin="round"/>
<rect x="463.421" y="85.8765" width="36.8767" height="34.7532" rx="17.3766" transform="rotate(90 463.421 85.8765)" fill="#8C74B7" stroke="#29193E" stroke-width="4" stroke-linejoin="round"/>
<rect x="-2" y="-2" width="120.753" height="34.7532" rx="17.3766" transform="matrix(4.37114e-08 -1 -1 -4.37114e-08 427.976 120.753)" fill="#29193E" stroke="#29193E" stroke-width="4" stroke-linejoin="round"/>
<rect x="-2" y="-2" width="84.1237" height="34.7532" rx="17.3766" transform="matrix(4.37114e-08 -1 -1 -4.37114e-08 427.976 84.1235)" fill="#8C74B7" stroke="#29193E" stroke-width="4" stroke-linejoin="round"/>
<rect x="-2" y="-2" width="36.8767" height="34.7532" rx="17.3766" transform="matrix(4.37114e-08 -1 -1 -4.37114e-08 427.976 36.877)" fill="#D8C1F7" stroke="#29193E" stroke-width="4" stroke-linejoin="round"/>
<rect x="396.531" y="2" width="120.753" height="34.7532" rx="17.3766" transform="rotate(90 396.531 2)" fill="#29193E" stroke="#29193E" stroke-width="4" stroke-linejoin="round"/>
<rect x="396.532" y="38.6299" width="84.1237" height="34.7532" rx="17.3766" transform="rotate(90 396.532 38.6299)" fill="#D8C1F7" stroke="#29193E" stroke-width="4" stroke-linejoin="round"/>
<rect x="396.532" y="85.877" width="36.8767" height="34.7532" rx="17.3766" transform="rotate(90 396.532 85.877)" fill="#8C74B7" stroke="#29193E" stroke-width="4" stroke-linejoin="round"/>
<rect x="-2" y="-2" width="120.753" height="34.7532" rx="17.3766" transform="matrix(4.37114e-08 -1 -1 -4.37114e-08 361.087 120.753)" fill="#29193E" stroke="#29193E" stroke-width="4" stroke-linejoin="round"/>
<rect x="-2" y="-2" width="84.1237" height="34.7532" rx="17.3766" transform="matrix(4.37114e-08 -1 -1 -4.37114e-08 361.087 84.1235)" fill="#8C74B7" stroke="#29193E" stroke-width="4" stroke-linejoin="round"/>
<rect x="-2" y="-2" width="36.8767" height="34.7532" rx="17.3766" transform="matrix(4.37114e-08 -1 -1 -4.37114e-08 361.087 36.877)" fill="#D8C1F7" stroke="#29193E" stroke-width="4" stroke-linejoin="round"/>
<rect x="329.643" y="2" width="120.753" height="34.7532" rx="17.3766" transform="rotate(90 329.643 2)" fill="#29193E" stroke="#29193E" stroke-width="4" stroke-linejoin="round"/>
<rect x="329.643" y="38.6299" width="84.1237" height="34.7532" rx="17.3766" transform="rotate(90 329.643 38.6299)" fill="#D8C1F7" stroke="#29193E" stroke-width="4" stroke-linejoin="round"/>
<rect x="329.643" y="85.877" width="36.8767" height="34.7532" rx="17.3766" transform="rotate(90 329.643 85.877)" fill="#8C74B7" stroke="#29193E" stroke-width="4" stroke-linejoin="round"/>
<rect x="-2" y="-2" width="120.753" height="34.7532" rx="17.3766" transform="matrix(4.37114e-08 -1 -1 -4.37114e-08 294.198 120.753)" fill="#29193E" stroke="#29193E" stroke-width="4" stroke-linejoin="round"/>
<rect x="-2" y="-2" width="84.1237" height="34.7532" rx="17.3766" transform="matrix(4.37114e-08 -1 -1 -4.37114e-08 294.198 84.1235)" fill="#8C74B7" stroke="#29193E" stroke-width="4" stroke-linejoin="round"/>
<rect x="-2" y="-2" width="36.8767" height="34.7532" rx="17.3766" transform="matrix(4.37114e-08 -1 -1 -4.37114e-08 294.198 36.877)" fill="#D8C1F7" stroke="#29193E" stroke-width="4" stroke-linejoin="round"/>
<rect x="262.754" y="2" width="120.753" height="34.7532" rx="17.3766" transform="rotate(90 262.754 2)" fill="#29193E" stroke="#29193E" stroke-width="4" stroke-linejoin="round"/>
<rect x="262.753" y="38.6299" width="84.1237" height="34.7532" rx="17.3766" transform="rotate(90 262.753 38.6299)" fill="#D8C1F7" stroke="#29193E" stroke-width="4" stroke-linejoin="round"/>
<rect x="262.753" y="85.8765" width="36.8767" height="34.7532" rx="17.3766" transform="rotate(90 262.753 85.8765)" fill="#8C74B7" stroke="#29193E" stroke-width="4" stroke-linejoin="round"/>
<rect x="-2" y="-2" width="120.753" height="34.7532" rx="17.3766" transform="matrix(4.37114e-08 -1 -1 -4.37114e-08 227.308 120.753)" fill="#29193E" stroke="#29193E" stroke-width="4" stroke-linejoin="round"/>
<rect x="-2" y="-2" width="84.1237" height="34.7532" rx="17.3766" transform="matrix(4.37114e-08 -1 -1 -4.37114e-08 227.309 84.1235)" fill="#8C74B7" stroke="#29193E" stroke-width="4" stroke-linejoin="round"/>
<rect x="-2" y="-2" width="36.8767" height="34.7532" rx="17.3766" transform="matrix(4.37114e-08 -1 -1 -4.37114e-08 227.309 36.877)" fill="#D8C1F7" stroke="#29193E" stroke-width="4" stroke-linejoin="round"/>
<rect x="195.864" y="2" width="120.753" height="34.7532" rx="17.3766" transform="rotate(90 195.864 2)" fill="#29193E" stroke="#29193E" stroke-width="4" stroke-linejoin="round"/>
<rect x="195.864" y="38.6299" width="84.1237" height="34.7532" rx="17.3766" transform="rotate(90 195.864 38.6299)" fill="#D8C1F7" stroke="#29193E" stroke-width="4" stroke-linejoin="round"/>
<rect x="195.865" y="85.877" width="36.8767" height="34.7532" rx="17.3766" transform="rotate(90 195.865 85.877)" fill="#8C74B7" stroke="#29193E" stroke-width="4" stroke-linejoin="round"/>
<rect x="-2" y="-2" width="120.753" height="34.7532" rx="17.3766" transform="matrix(4.37114e-08 -1 -1 -4.37114e-08 160.42 120.753)" fill="#29193E" stroke="#29193E" stroke-width="4" stroke-linejoin="round"/>
<rect x="-2" y="-2" width="84.1237" height="34.7532" rx="17.3766" transform="matrix(4.37114e-08 -1 -1 -4.37114e-08 160.42 84.1235)" fill="#8C74B7" stroke="#29193E" stroke-width="4" stroke-linejoin="round"/>
<rect x="-2" y="-2" width="36.8767" height="34.7532" rx="17.3766" transform="matrix(4.37114e-08 -1 -1 -4.37114e-08 160.42 36.877)" fill="#D8C1F7" stroke="#29193E" stroke-width="4" stroke-linejoin="round"/>
<rect x="128.975" y="2" width="120.753" height="34.7532" rx="17.3766" transform="rotate(90 128.975 2)" fill="#29193E" stroke="#29193E" stroke-width="4" stroke-linejoin="round"/>
<rect x="128.976" y="38.6294" width="84.1237" height="34.7532" rx="17.3766" transform="rotate(90 128.976 38.6294)" fill="#D8C1F7" stroke="#29193E" stroke-width="4" stroke-linejoin="round"/>
<rect x="128.976" y="85.8765" width="36.8767" height="34.7532" rx="17.3766" transform="rotate(90 128.976 85.8765)" fill="#8C74B7" stroke="#29193E" stroke-width="4" stroke-linejoin="round"/>
<rect x="-2" y="-2" width="120.753" height="34.7532" rx="17.3766" transform="matrix(4.37114e-08 -1 -1 -4.37114e-08 93.5312 120.753)" fill="#29193E" stroke="#29193E" stroke-width="4" stroke-linejoin="round"/>
<rect x="-2" y="-2" width="84.1237" height="34.7532" rx="17.3766" transform="matrix(4.37114e-08 -1 -1 -4.37114e-08 93.5312 84.1235)" fill="#8C74B7" stroke="#29193E" stroke-width="4" stroke-linejoin="round"/>
<rect x="-2" y="-2" width="36.8767" height="34.7532" rx="17.3766" transform="matrix(4.37114e-08 -1 -1 -4.37114e-08 93.5312 36.877)" fill="#D8C1F7" stroke="#29193E" stroke-width="4" stroke-linejoin="round"/>
<rect x="62.0865" y="2" width="120.753" height="34.7532" rx="17.3766" transform="rotate(90 62.0865 2)" fill="#29193E" stroke="#29193E" stroke-width="4" stroke-linejoin="round"/>
<rect x="62.0865" y="38.6294" width="84.1237" height="34.7532" rx="17.3766" transform="rotate(90 62.0865 38.6294)" fill="#D8C1F7" stroke="#29193E" stroke-width="4" stroke-linejoin="round"/>
<rect x="62.0865" y="85.8765" width="36.8767" height="34.7532" rx="17.3766" transform="rotate(90 62.0865 85.8765)" fill="#8C74B7" stroke="#29193E" stroke-width="4" stroke-linejoin="round"/>
<rect x="-2" y="-2" width="120.753" height="34.7532" rx="17.3766" transform="matrix(4.37114e-08 -1 -1 -4.37114e-08 26.6422 120.753)" fill="#29193E" stroke="#29193E" stroke-width="4" stroke-linejoin="round"/>
<rect x="-2" y="-2" width="84.1237" height="34.7532" rx="17.3766" transform="matrix(4.37114e-08 -1 -1 -4.37114e-08 26.6422 84.1235)" fill="#8C74B7" stroke="#29193E" stroke-width="4" stroke-linejoin="round"/>
<rect x="-2" y="-2" width="36.8767" height="34.7532" rx="17.3766" transform="matrix(4.37114e-08 -1 -1 -4.37114e-08 26.6422 36.877)" fill="#D8C1F7" stroke="#29193E" stroke-width="4" stroke-linejoin="round"/>
<rect x="1003.42" y="2" width="120.753" height="34.7532" rx="17.3766" transform="rotate(90 1003.42 2)" fill="#29193E" stroke="#29193E" stroke-width="4" stroke-linejoin="round"/>
<rect x="1003.42" y="38.6294" width="84.1237" height="34.7532" rx="17.3766" transform="rotate(90 1003.42 38.6294)" fill="#D8C1F7" stroke="#29193E" stroke-width="4" stroke-linejoin="round"/>
<rect x="1003.42" y="85.8765" width="36.8767" height="34.7532" rx="17.3766" transform="rotate(90 1003.42 85.8765)" fill="#8C74B7" stroke="#29193E" stroke-width="4" stroke-linejoin="round"/>
<rect x="-2" y="-2" width="120.753" height="34.7532" rx="17.3766" transform="matrix(4.37114e-08 -1 -1 -4.37114e-08 967.976 120.753)" fill="#29193E" stroke="#29193E" stroke-width="4" stroke-linejoin="round"/>
<rect x="-2" y="-2" width="84.1237" height="34.7532" rx="17.3766" transform="matrix(4.37114e-08 -1 -1 -4.37114e-08 967.976 84.1235)" fill="#8C74B7" stroke="#29193E" stroke-width="4" stroke-linejoin="round"/>
<rect x="-2" y="-2" width="36.8767" height="34.7532" rx="17.3766" transform="matrix(4.37114e-08 -1 -1 -4.37114e-08 967.976 36.877)" fill="#D8C1F7" stroke="#29193E" stroke-width="4" stroke-linejoin="round"/>
<rect x="936.531" y="2" width="120.753" height="34.7532" rx="17.3766" transform="rotate(90 936.531 2)" fill="#29193E" stroke="#29193E" stroke-width="4" stroke-linejoin="round"/>
<rect x="936.532" y="38.6299" width="84.1237" height="34.7532" rx="17.3766" transform="rotate(90 936.532 38.6299)" fill="#D8C1F7" stroke="#29193E" stroke-width="4" stroke-linejoin="round"/>
<rect x="936.532" y="85.877" width="36.8767" height="34.7532" rx="17.3766" transform="rotate(90 936.532 85.877)" fill="#8C74B7" stroke="#29193E" stroke-width="4" stroke-linejoin="round"/>
<rect x="-2" y="-2" width="120.753" height="34.7532" rx="17.3766" transform="matrix(4.37114e-08 -1 -1 -4.37114e-08 901.087 120.753)" fill="#29193E" stroke="#29193E" stroke-width="4" stroke-linejoin="round"/>
<rect x="-2" y="-2" width="84.1237" height="34.7532" rx="17.3766" transform="matrix(4.37114e-08 -1 -1 -4.37114e-08 901.087 84.1235)" fill="#8C74B7" stroke="#29193E" stroke-width="4" stroke-linejoin="round"/>
<rect x="-2" y="-2" width="36.8767" height="34.7532" rx="17.3766" transform="matrix(4.37114e-08 -1 -1 -4.37114e-08 901.087 36.877)" fill="#D8C1F7" stroke="#29193E" stroke-width="4" stroke-linejoin="round"/>
<rect x="869.643" y="2" width="120.753" height="34.7532" rx="17.3766" transform="rotate(90 869.643 2)" fill="#29193E" stroke="#29193E" stroke-width="4" stroke-linejoin="round"/>
<rect x="869.643" y="38.6299" width="84.1237" height="34.7532" rx="17.3766" transform="rotate(90 869.643 38.6299)" fill="#D8C1F7" stroke="#29193E" stroke-width="4" stroke-linejoin="round"/>
<rect x="869.643" y="85.877" width="36.8767" height="34.7532" rx="17.3766" transform="rotate(90 869.643 85.877)" fill="#8C74B7" stroke="#29193E" stroke-width="4" stroke-linejoin="round"/>
<rect x="-2" y="-2" width="120.753" height="34.7532" rx="17.3766" transform="matrix(4.37114e-08 -1 -1 -4.37114e-08 834.198 120.753)" fill="#29193E" stroke="#29193E" stroke-width="4" stroke-linejoin="round"/>
<rect x="-2" y="-2" width="84.1237" height="34.7532" rx="17.3766" transform="matrix(4.37114e-08 -1 -1 -4.37114e-08 834.198 84.1235)" fill="#8C74B7" stroke="#29193E" stroke-width="4" stroke-linejoin="round"/>
<rect x="-2" y="-2" width="36.8767" height="34.7532" rx="17.3766" transform="matrix(4.37114e-08 -1 -1 -4.37114e-08 834.198 36.877)" fill="#D8C1F7" stroke="#29193E" stroke-width="4" stroke-linejoin="round"/>
<rect x="802.754" y="2" width="120.753" height="34.7532" rx="17.3766" transform="rotate(90 802.754 2)" fill="#29193E" stroke="#29193E" stroke-width="4" stroke-linejoin="round"/>
<rect x="802.753" y="38.6299" width="84.1237" height="34.7532" rx="17.3766" transform="rotate(90 802.753 38.6299)" fill="#D8C1F7" stroke="#29193E" stroke-width="4" stroke-linejoin="round"/>
<rect x="802.753" y="85.8765" width="36.8767" height="34.7532" rx="17.3766" transform="rotate(90 802.753 85.8765)" fill="#8C74B7" stroke="#29193E" stroke-width="4" stroke-linejoin="round"/>
<rect x="-2" y="-2" width="120.753" height="34.7532" rx="17.3766" transform="matrix(4.37114e-08 -1 -1 -4.37114e-08 767.308 120.753)" fill="#29193E" stroke="#29193E" stroke-width="4" stroke-linejoin="round"/>
<rect x="-2" y="-2" width="84.1237" height="34.7532" rx="17.3766" transform="matrix(4.37114e-08 -1 -1 -4.37114e-08 767.309 84.1235)" fill="#8C74B7" stroke="#29193E" stroke-width="4" stroke-linejoin="round"/>
<rect x="-2" y="-2" width="36.8767" height="34.7532" rx="17.3766" transform="matrix(4.37114e-08 -1 -1 -4.37114e-08 767.309 36.877)" fill="#D8C1F7" stroke="#29193E" stroke-width="4" stroke-linejoin="round"/>
<rect x="735.864" y="2" width="120.753" height="34.7532" rx="17.3766" transform="rotate(90 735.864 2)" fill="#29193E" stroke="#29193E" stroke-width="4" stroke-linejoin="round"/>
<rect x="735.865" y="38.6299" width="84.1237" height="34.7532" rx="17.3766" transform="rotate(90 735.865 38.6299)" fill="#D8C1F7" stroke="#29193E" stroke-width="4" stroke-linejoin="round"/>
<rect x="735.865" y="85.877" width="36.8767" height="34.7532" rx="17.3766" transform="rotate(90 735.865 85.877)" fill="#8C74B7" stroke="#29193E" stroke-width="4" stroke-linejoin="round"/>
<rect x="-2" y="-2" width="120.753" height="34.7532" rx="17.3766" transform="matrix(4.37114e-08 -1 -1 -4.37114e-08 700.42 120.753)" fill="#29193E" stroke="#29193E" stroke-width="4" stroke-linejoin="round"/>
<rect x="-2" y="-2" width="84.1237" height="34.7532" rx="17.3766" transform="matrix(4.37114e-08 -1 -1 -4.37114e-08 700.42 84.1235)" fill="#8C74B7" stroke="#29193E" stroke-width="4" stroke-linejoin="round"/>
<rect x="-2" y="-2" width="36.8767" height="34.7532" rx="17.3766" transform="matrix(4.37114e-08 -1 -1 -4.37114e-08 700.42 36.877)" fill="#D8C1F7" stroke="#29193E" stroke-width="4" stroke-linejoin="round"/>
<rect x="668.975" y="2" width="120.753" height="34.7532" rx="17.3766" transform="rotate(90 668.975 2)" fill="#29193E" stroke="#29193E" stroke-width="4" stroke-linejoin="round"/>
<rect x="668.976" y="38.6294" width="84.1237" height="34.7532" rx="17.3766" transform="rotate(90 668.976 38.6294)" fill="#D8C1F7" stroke="#29193E" stroke-width="4" stroke-linejoin="round"/>
<rect x="668.976" y="85.8765" width="36.8767" height="34.7532" rx="17.3766" transform="rotate(90 668.976 85.8765)" fill="#8C74B7" stroke="#29193E" stroke-width="4" stroke-linejoin="round"/>
<rect x="-2" y="-2" width="120.753" height="34.7532" rx="17.3766" transform="matrix(4.37114e-08 -1 -1 -4.37114e-08 633.531 120.753)" fill="#29193E" stroke="#29193E" stroke-width="4" stroke-linejoin="round"/>
<rect x="-2" y="-2" width="84.1237" height="34.7532" rx="17.3766" transform="matrix(4.37114e-08 -1 -1 -4.37114e-08 633.531 84.1235)" fill="#8C74B7" stroke="#29193E" stroke-width="4" stroke-linejoin="round"/>
<rect x="-2" y="-2" width="36.8767" height="34.7532" rx="17.3766" transform="matrix(4.37114e-08 -1 -1 -4.37114e-08 633.531 36.877)" fill="#D8C1F7" stroke="#29193E" stroke-width="4" stroke-linejoin="round"/>
<rect x="602.087" y="2" width="120.753" height="34.7532" rx="17.3766" transform="rotate(90 602.087 2)" fill="#29193E" stroke="#29193E" stroke-width="4" stroke-linejoin="round"/>
<rect x="602.087" y="38.6294" width="84.1237" height="34.7532" rx="17.3766" transform="rotate(90 602.087 38.6294)" fill="#D8C1F7" stroke="#29193E" stroke-width="4" stroke-linejoin="round"/>
<rect x="602.087" y="85.8765" width="36.8767" height="34.7532" rx="17.3766" transform="rotate(90 602.087 85.8765)" fill="#8C74B7" stroke="#29193E" stroke-width="4" stroke-linejoin="round"/>
<rect x="-2" y="-2" width="120.753" height="34.7532" rx="17.3766" transform="matrix(4.37114e-08 -1 -1 -4.37114e-08 566.642 120.753)" fill="#29193E" stroke="#29193E" stroke-width="4" stroke-linejoin="round"/>
<rect x="-2" y="-2" width="84.1237" height="34.7532" rx="17.3766" transform="matrix(4.37114e-08 -1 -1 -4.37114e-08 566.642 84.1235)" fill="#8C74B7" stroke="#29193E" stroke-width="4" stroke-linejoin="round"/>
<rect x="-2" y="-2" width="36.8767" height="34.7532" rx="17.3766" transform="matrix(4.37114e-08 -1 -1 -4.37114e-08 566.642 36.877)" fill="#D8C1F7" stroke="#29193E" stroke-width="4" stroke-linejoin="round"/>
<rect x="535.198" y="2" width="120.753" height="34.7532" rx="17.3766" transform="rotate(90 535.198 2)" fill="#29193E" stroke="#29193E" stroke-width="4" stroke-linejoin="round"/>
<rect x="535.198" y="38.6294" width="84.1237" height="34.7532" rx="17.3766" transform="rotate(90 535.198 38.6294)" fill="#D8C1F7" stroke="#29193E" stroke-width="4" stroke-linejoin="round"/>
<rect x="535.198" y="85.8765" width="36.8767" height="34.7532" rx="17.3766" transform="rotate(90 535.198 85.8765)" fill="#8C74B7" stroke="#29193E" stroke-width="4" stroke-linejoin="round"/>
<rect x="-2" y="-2" width="120.753" height="34.7532" rx="17.3766" transform="matrix(4.37114e-08 -1 -1 -4.37114e-08 499.753 120.753)" fill="#29193E" stroke="#29193E" stroke-width="4" stroke-linejoin="round"/>
<rect x="-2" y="-2" width="84.1237" height="34.7532" rx="17.3766" transform="matrix(4.37114e-08 -1 -1 -4.37114e-08 499.753 84.1235)" fill="#8C74B7" stroke="#29193E" stroke-width="4" stroke-linejoin="round"/>
<rect x="-2" y="-2" width="36.8767" height="34.7532" rx="17.3766" transform="matrix(4.37114e-08 -1 -1 -4.37114e-08 499.753 36.877)" fill="#D8C1F7" stroke="#29193E" stroke-width="4" stroke-linejoin="round"/>
<rect x="1476.53" y="2" width="120.753" height="34.7532" rx="17.3766" transform="rotate(90 1476.53 2)" fill="#29193E" stroke="#29193E" stroke-width="4" stroke-linejoin="round"/>
<rect x="1476.53" y="38.6299" width="84.1237" height="34.7532" rx="17.3766" transform="rotate(90 1476.53 38.6299)" fill="#D8C1F7" stroke="#29193E" stroke-width="4" stroke-linejoin="round"/>
<rect x="1476.53" y="85.877" width="36.8767" height="34.7532" rx="17.3766" transform="rotate(90 1476.53 85.877)" fill="#8C74B7" stroke="#29193E" stroke-width="4" stroke-linejoin="round"/>
<rect x="-2" y="-2" width="120.753" height="34.7532" rx="17.3766" transform="matrix(4.37114e-08 -1 -1 -4.37114e-08 1441.09 120.753)" fill="#29193E" stroke="#29193E" stroke-width="4" stroke-linejoin="round"/>
<rect x="-2" y="-2" width="84.1237" height="34.7532" rx="17.3766" transform="matrix(4.37114e-08 -1 -1 -4.37114e-08 1441.09 84.1235)" fill="#8C74B7" stroke="#29193E" stroke-width="4" stroke-linejoin="round"/>
<rect x="-2" y="-2" width="36.8767" height="34.7532" rx="17.3766" transform="matrix(4.37114e-08 -1 -1 -4.37114e-08 1441.09 36.877)" fill="#D8C1F7" stroke="#29193E" stroke-width="4" stroke-linejoin="round"/>
<rect x="1409.64" y="2" width="120.753" height="34.7532" rx="17.3766" transform="rotate(90 1409.64 2)" fill="#29193E" stroke="#29193E" stroke-width="4" stroke-linejoin="round"/>
<rect x="1409.64" y="38.6299" width="84.1237" height="34.7532" rx="17.3766" transform="rotate(90 1409.64 38.6299)" fill="#D8C1F7" stroke="#29193E" stroke-width="4" stroke-linejoin="round"/>
<rect x="1409.64" y="85.877" width="36.8767" height="34.7532" rx="17.3766" transform="rotate(90 1409.64 85.877)" fill="#8C74B7" stroke="#29193E" stroke-width="4" stroke-linejoin="round"/>
<rect x="-2" y="-2" width="120.753" height="34.7532" rx="17.3766" transform="matrix(4.37114e-08 -1 -1 -4.37114e-08 1374.2 120.753)" fill="#29193E" stroke="#29193E" stroke-width="4" stroke-linejoin="round"/>
<rect x="-2" y="-2" width="84.1237" height="34.7532" rx="17.3766" transform="matrix(4.37114e-08 -1 -1 -4.37114e-08 1374.2 84.1235)" fill="#8C74B7" stroke="#29193E" stroke-width="4" stroke-linejoin="round"/>
<rect x="-2" y="-2" width="36.8767" height="34.7532" rx="17.3766" transform="matrix(4.37114e-08 -1 -1 -4.37114e-08 1374.2 36.877)" fill="#D8C1F7" stroke="#29193E" stroke-width="4" stroke-linejoin="round"/>
<rect x="1342.75" y="2" width="120.753" height="34.7532" rx="17.3766" transform="rotate(90 1342.75 2)" fill="#29193E" stroke="#29193E" stroke-width="4" stroke-linejoin="round"/>
<rect x="1342.75" y="38.6299" width="84.1237" height="34.7532" rx="17.3766" transform="rotate(90 1342.75 38.6299)" fill="#D8C1F7" stroke="#29193E" stroke-width="4" stroke-linejoin="round"/>
<rect x="1342.75" y="85.8765" width="36.8767" height="34.7532" rx="17.3766" transform="rotate(90 1342.75 85.8765)" fill="#8C74B7" stroke="#29193E" stroke-width="4" stroke-linejoin="round"/>
<rect x="-2" y="-2" width="120.753" height="34.7532" rx="17.3766" transform="matrix(4.37114e-08 -1 -1 -4.37114e-08 1307.31 120.753)" fill="#29193E" stroke="#29193E" stroke-width="4" stroke-linejoin="round"/>
<rect x="-2" y="-2" width="84.1237" height="34.7532" rx="17.3766" transform="matrix(4.37114e-08 -1 -1 -4.37114e-08 1307.31 84.1235)" fill="#8C74B7" stroke="#29193E" stroke-width="4" stroke-linejoin="round"/>
<rect x="-2" y="-2" width="36.8767" height="34.7532" rx="17.3766" transform="matrix(4.37114e-08 -1 -1 -4.37114e-08 1307.31 36.877)" fill="#D8C1F7" stroke="#29193E" stroke-width="4" stroke-linejoin="round"/>
<rect x="1275.86" y="2" width="120.753" height="34.7532" rx="17.3766" transform="rotate(90 1275.86 2)" fill="#29193E" stroke="#29193E" stroke-width="4" stroke-linejoin="round"/>
<rect x="1275.86" y="38.6299" width="84.1237" height="34.7532" rx="17.3766" transform="rotate(90 1275.86 38.6299)" fill="#D8C1F7" stroke="#29193E" stroke-width="4" stroke-linejoin="round"/>
<rect x="1275.86" y="85.877" width="36.8767" height="34.7532" rx="17.3766" transform="rotate(90 1275.86 85.877)" fill="#8C74B7" stroke="#29193E" stroke-width="4" stroke-linejoin="round"/>
<rect x="-2" y="-2" width="120.753" height="34.7532" rx="17.3766" transform="matrix(4.37114e-08 -1 -1 -4.37114e-08 1240.42 120.753)" fill="#29193E" stroke="#29193E" stroke-width="4" stroke-linejoin="round"/>
<rect x="-2" y="-2" width="84.1237" height="34.7532" rx="17.3766" transform="matrix(4.37114e-08 -1 -1 -4.37114e-08 1240.42 84.1235)" fill="#8C74B7" stroke="#29193E" stroke-width="4" stroke-linejoin="round"/>
<rect x="-2" y="-2" width="36.8767" height="34.7532" rx="17.3766" transform="matrix(4.37114e-08 -1 -1 -4.37114e-08 1240.42 36.877)" fill="#D8C1F7" stroke="#29193E" stroke-width="4" stroke-linejoin="round"/>
<rect x="1208.98" y="2" width="120.753" height="34.7532" rx="17.3766" transform="rotate(90 1208.98 2)" fill="#29193E" stroke="#29193E" stroke-width="4" stroke-linejoin="round"/>
<rect x="1208.98" y="38.6294" width="84.1237" height="34.7532" rx="17.3766" transform="rotate(90 1208.98 38.6294)" fill="#D8C1F7" stroke="#29193E" stroke-width="4" stroke-linejoin="round"/>
<rect x="1208.98" y="85.8765" width="36.8767" height="34.7532" rx="17.3766" transform="rotate(90 1208.98 85.8765)" fill="#8C74B7" stroke="#29193E" stroke-width="4" stroke-linejoin="round"/>
<rect x="-2" y="-2" width="120.753" height="34.7532" rx="17.3766" transform="matrix(4.37114e-08 -1 -1 -4.37114e-08 1173.53 120.753)" fill="#29193E" stroke="#29193E" stroke-width="4" stroke-linejoin="round"/>
<rect x="-2" y="-2" width="84.1237" height="34.7532" rx="17.3766" transform="matrix(4.37114e-08 -1 -1 -4.37114e-08 1173.53 84.1235)" fill="#8C74B7" stroke="#29193E" stroke-width="4" stroke-linejoin="round"/>
<rect x="-2" y="-2" width="36.8767" height="34.7532" rx="17.3766" transform="matrix(4.37114e-08 -1 -1 -4.37114e-08 1173.53 36.877)" fill="#D8C1F7" stroke="#29193E" stroke-width="4" stroke-linejoin="round"/>
<rect x="1142.09" y="2" width="120.753" height="34.7532" rx="17.3766" transform="rotate(90 1142.09 2)" fill="#29193E" stroke="#29193E" stroke-width="4" stroke-linejoin="round"/>
<rect x="1142.09" y="38.6294" width="84.1237" height="34.7532" rx="17.3766" transform="rotate(90 1142.09 38.6294)" fill="#D8C1F7" stroke="#29193E" stroke-width="4" stroke-linejoin="round"/>
<rect x="1142.09" y="85.8765" width="36.8767" height="34.7532" rx="17.3766" transform="rotate(90 1142.09 85.8765)" fill="#8C74B7" stroke="#29193E" stroke-width="4" stroke-linejoin="round"/>
<rect x="-2" y="-2" width="120.753" height="34.7532" rx="17.3766" transform="matrix(4.37114e-08 -1 -1 -4.37114e-08 1106.64 120.753)" fill="#29193E" stroke="#29193E" stroke-width="4" stroke-linejoin="round"/>
<rect x="-2" y="-2" width="84.1237" height="34.7532" rx="17.3766" transform="matrix(4.37114e-08 -1 -1 -4.37114e-08 1106.64 84.1235)" fill="#8C74B7" stroke="#29193E" stroke-width="4" stroke-linejoin="round"/>
<rect x="-2" y="-2" width="36.8767" height="34.7532" rx="17.3766" transform="matrix(4.37114e-08 -1 -1 -4.37114e-08 1106.64 36.877)" fill="#D8C1F7" stroke="#29193E" stroke-width="4" stroke-linejoin="round"/>
<rect x="1075.2" y="2" width="120.753" height="34.7532" rx="17.3766" transform="rotate(90 1075.2 2)" fill="#29193E" stroke="#29193E" stroke-width="4" stroke-linejoin="round"/>
<rect x="1075.2" y="38.6294" width="84.1237" height="34.7532" rx="17.3766" transform="rotate(90 1075.2 38.6294)" fill="#D8C1F7" stroke="#29193E" stroke-width="4" stroke-linejoin="round"/>
<rect x="1075.2" y="85.8765" width="36.8767" height="34.7532" rx="17.3766" transform="rotate(90 1075.2 85.8765)" fill="#8C74B7" stroke="#29193E" stroke-width="4" stroke-linejoin="round"/>
<rect x="-2" y="-2" width="120.753" height="34.7532" rx="17.3766" transform="matrix(4.37114e-08 -1 -1 -4.37114e-08 1039.75 120.753)" fill="#29193E" stroke="#29193E" stroke-width="4" stroke-linejoin="round"/>
<rect x="-2" y="-2" width="84.1237" height="34.7532" rx="17.3766" transform="matrix(4.37114e-08 -1 -1 -4.37114e-08 1039.75 84.1235)" fill="#8C74B7" stroke="#29193E" stroke-width="4" stroke-linejoin="round"/>
<rect x="-2" y="-2" width="36.8767" height="34.7532" rx="17.3766" transform="matrix(4.37114e-08 -1 -1 -4.37114e-08 1039.75 36.877)" fill="#D8C1F7" stroke="#29193E" stroke-width="4" stroke-linejoin="round"/>
</svg>
