<svg width="1620" height="125" viewBox="0 0 1620 125" fill="none" xmlns="http://www.w3.org/2000/svg">
<g clip-path="url(#clip0)">
<rect x="538.42" y="2.00012" width="120.753" height="34.7532" rx="17.3766" transform="rotate(90 538.42 2.00012)" fill="#29193E" stroke="#29193E" stroke-width="4" stroke-linejoin="round"/>
<rect x="538.421" y="38.6296" width="84.1237" height="34.7532" rx="17.3766" transform="rotate(90 538.421 38.6296)" fill="#E55B42" stroke="#29193E" stroke-width="4" stroke-linejoin="round"/>
<rect x="538.421" y="85.8767" width="36.8767" height="34.7532" rx="17.3766" transform="rotate(90 538.421 85.8767)" fill="#F98548" stroke="#29193E" stroke-width="4" stroke-linejoin="round"/>
<rect x="-2" y="-2" width="120.753" height="34.7532" rx="17.3766" transform="matrix(4.37114e-08 -1 -1 -4.37114e-08 502.976 120.753)" fill="#29193E" stroke="#29193E" stroke-width="4" stroke-linejoin="round"/>
<rect x="-2" y="-2" width="84.1237" height="34.7532" rx="17.3766" transform="matrix(4.37114e-08 -1 -1 -4.37114e-08 502.976 84.1238)" fill="#F98548" stroke="#29193E" stroke-width="4" stroke-linejoin="round"/>
<rect x="-2" y="-2" width="36.8767" height="34.7532" rx="17.3766" transform="matrix(4.37114e-08 -1 -1 -4.37114e-08 502.976 36.8767)" fill="#E55B42" stroke="#29193E" stroke-width="4" stroke-linejoin="round"/>
<rect x="471.531" y="2" width="120.753" height="34.7532" rx="17.3766" transform="rotate(90 471.531 2)" fill="#29193E" stroke="#29193E" stroke-width="4" stroke-linejoin="round"/>
<rect x="471.531" y="38.6299" width="84.1237" height="34.7532" rx="17.3766" transform="rotate(90 471.531 38.6299)" fill="#E55B42" stroke="#29193E" stroke-width="4" stroke-linejoin="round"/>
<rect x="471.531" y="85.8767" width="36.8767" height="34.7532" rx="17.3766" transform="rotate(90 471.531 85.8767)" fill="#F98548" stroke="#29193E" stroke-width="4" stroke-linejoin="round"/>
<rect x="-2" y="-2" width="120.753" height="34.7532" rx="17.3766" transform="matrix(4.37114e-08 -1 -1 -4.37114e-08 436.087 120.753)" fill="#29193E" stroke="#29193E" stroke-width="4" stroke-linejoin="round"/>
<rect x="-2" y="-2" width="84.1237" height="34.7532" rx="17.3766" transform="matrix(4.37114e-08 -1 -1 -4.37114e-08 436.087 84.1238)" fill="#F98548" stroke="#29193E" stroke-width="4" stroke-linejoin="round"/>
<rect x="-2" y="-2" width="36.8767" height="34.7532" rx="17.3766" transform="matrix(4.37114e-08 -1 -1 -4.37114e-08 436.087 36.8767)" fill="#E55B42" stroke="#29193E" stroke-width="4" stroke-linejoin="round"/>
<rect x="404.643" y="2" width="120.753" height="34.7532" rx="17.3766" transform="rotate(90 404.643 2)" fill="#29193E" stroke="#29193E" stroke-width="4" stroke-linejoin="round"/>
<rect x="404.643" y="38.6299" width="84.1237" height="34.7532" rx="17.3766" transform="rotate(90 404.643 38.6299)" fill="#E55B42" stroke="#29193E" stroke-width="4" stroke-linejoin="round"/>
<rect x="404.643" y="85.8767" width="36.8767" height="34.7532" rx="17.3766" transform="rotate(90 404.643 85.8767)" fill="#F98548" stroke="#29193E" stroke-width="4" stroke-linejoin="round"/>
<rect x="-2" y="-2" width="120.753" height="34.7532" rx="17.3766" transform="matrix(4.37114e-08 -1 -1 -4.37114e-08 369.198 120.753)" fill="#29193E" stroke="#29193E" stroke-width="4" stroke-linejoin="round"/>
<rect x="-2" y="-2" width="84.1237" height="34.7532" rx="17.3766" transform="matrix(4.37114e-08 -1 -1 -4.37114e-08 369.198 84.1238)" fill="#F98548" stroke="#29193E" stroke-width="4" stroke-linejoin="round"/>
<rect x="-2" y="-2" width="36.8767" height="34.7532" rx="17.3766" transform="matrix(4.37114e-08 -1 -1 -4.37114e-08 369.198 36.8767)" fill="#E55B42" stroke="#29193E" stroke-width="4" stroke-linejoin="round"/>
<rect x="337.754" y="2" width="120.753" height="34.7532" rx="17.3766" transform="rotate(90 337.754 2)" fill="#29193E" stroke="#29193E" stroke-width="4" stroke-linejoin="round"/>
<rect x="337.753" y="38.6299" width="84.1237" height="34.7532" rx="17.3766" transform="rotate(90 337.753 38.6299)" fill="#E55B42" stroke="#29193E" stroke-width="4" stroke-linejoin="round"/>
<rect x="337.753" y="85.8767" width="36.8767" height="34.7532" rx="17.3766" transform="rotate(90 337.753 85.8767)" fill="#F98548" stroke="#29193E" stroke-width="4" stroke-linejoin="round"/>
<rect x="-2" y="-2" width="120.753" height="34.7532" rx="17.3766" transform="matrix(4.37114e-08 -1 -1 -4.37114e-08 302.308 120.753)" fill="#29193E" stroke="#29193E" stroke-width="4" stroke-linejoin="round"/>
<rect x="-2" y="-2" width="84.1237" height="34.7532" rx="17.3766" transform="matrix(4.37114e-08 -1 -1 -4.37114e-08 302.309 84.1238)" fill="#F98548" stroke="#29193E" stroke-width="4" stroke-linejoin="round"/>
<rect x="-2" y="-2" width="36.8767" height="34.7532" rx="17.3766" transform="matrix(4.37114e-08 -1 -1 -4.37114e-08 302.309 36.8767)" fill="#E55B42" stroke="#29193E" stroke-width="4" stroke-linejoin="round"/>
<rect x="270.864" y="2" width="120.753" height="34.7532" rx="17.3766" transform="rotate(90 270.864 2)" fill="#29193E" stroke="#29193E" stroke-width="4" stroke-linejoin="round"/>
<rect x="270.865" y="38.6299" width="84.1237" height="34.7532" rx="17.3766" transform="rotate(90 270.865 38.6299)" fill="#E55B42" stroke="#29193E" stroke-width="4" stroke-linejoin="round"/>
<rect x="270.865" y="85.8767" width="36.8767" height="34.7532" rx="17.3766" transform="rotate(90 270.865 85.8767)" fill="#F98548" stroke="#29193E" stroke-width="4" stroke-linejoin="round"/>
<rect x="-2" y="-2" width="120.753" height="34.7532" rx="17.3766" transform="matrix(4.37114e-08 -1 -1 -4.37114e-08 235.42 120.753)" fill="#29193E" stroke="#29193E" stroke-width="4" stroke-linejoin="round"/>
<rect x="-2" y="-2" width="84.1237" height="34.7532" rx="17.3766" transform="matrix(4.37114e-08 -1 -1 -4.37114e-08 235.42 84.1238)" fill="#F98548" stroke="#29193E" stroke-width="4" stroke-linejoin="round"/>
<rect x="-2" y="-2" width="36.8767" height="34.7532" rx="17.3766" transform="matrix(4.37114e-08 -1 -1 -4.37114e-08 235.42 36.8767)" fill="#E55B42" stroke="#29193E" stroke-width="4" stroke-linejoin="round"/>
<rect x="203.975" y="2.00012" width="120.753" height="34.7532" rx="17.3766" transform="rotate(90 203.975 2.00012)" fill="#29193E" stroke="#29193E" stroke-width="4" stroke-linejoin="round"/>
<rect x="203.976" y="38.6296" width="84.1237" height="34.7532" rx="17.3766" transform="rotate(90 203.976 38.6296)" fill="#E55B42" stroke="#29193E" stroke-width="4" stroke-linejoin="round"/>
<rect x="203.976" y="85.8767" width="36.8767" height="34.7532" rx="17.3766" transform="rotate(90 203.976 85.8767)" fill="#F98548" stroke="#29193E" stroke-width="4" stroke-linejoin="round"/>
<rect x="-2" y="-2" width="120.753" height="34.7532" rx="17.3766" transform="matrix(4.37114e-08 -1 -1 -4.37114e-08 168.531 120.753)" fill="#29193E" stroke="#29193E" stroke-width="4" stroke-linejoin="round"/>
<rect x="-2" y="-2" width="84.1237" height="34.7532" rx="17.3766" transform="matrix(4.37114e-08 -1 -1 -4.37114e-08 168.531 84.1238)" fill="#F98548" stroke="#29193E" stroke-width="4" stroke-linejoin="round"/>
<rect x="-2" y="-2" width="36.8767" height="34.7532" rx="17.3766" transform="matrix(4.37114e-08 -1 -1 -4.37114e-08 168.531 36.8767)" fill="#E55B42" stroke="#29193E" stroke-width="4" stroke-linejoin="round"/>
<rect x="137.086" y="2.00012" width="120.753" height="34.7532" rx="17.3766" transform="rotate(90 137.086 2.00012)" fill="#29193E" stroke="#29193E" stroke-width="4" stroke-linejoin="round"/>
<rect x="137.086" y="38.6296" width="84.1237" height="34.7532" rx="17.3766" transform="rotate(90 137.086 38.6296)" fill="#E55B42" stroke="#29193E" stroke-width="4" stroke-linejoin="round"/>
<rect x="137.086" y="85.8767" width="36.8767" height="34.7532" rx="17.3766" transform="rotate(90 137.086 85.8767)" fill="#F98548" stroke="#29193E" stroke-width="4" stroke-linejoin="round"/>
<rect x="-2" y="-2" width="120.753" height="34.7532" rx="17.3766" transform="matrix(4.37114e-08 -1 -1 -4.37114e-08 101.642 120.753)" fill="#29193E" stroke="#29193E" stroke-width="4" stroke-linejoin="round"/>
<rect x="-2" y="-2" width="84.1237" height="34.7532" rx="17.3766" transform="matrix(4.37114e-08 -1 -1 -4.37114e-08 101.642 84.1238)" fill="#F98548" stroke="#29193E" stroke-width="4" stroke-linejoin="round"/>
<rect x="-2" y="-2" width="36.8767" height="34.7532" rx="17.3766" transform="matrix(4.37114e-08 -1 -1 -4.37114e-08 101.642 36.8767)" fill="#E55B42" stroke="#29193E" stroke-width="4" stroke-linejoin="round"/>
<rect x="70.1975" y="2.00012" width="120.753" height="34.7532" rx="17.3766" transform="rotate(90 70.1975 2.00012)" fill="#29193E" stroke="#29193E" stroke-width="4" stroke-linejoin="round"/>
<rect x="70.1975" y="38.6296" width="84.1237" height="34.7532" rx="17.3766" transform="rotate(90 70.1975 38.6296)" fill="#E55B42" stroke="#29193E" stroke-width="4" stroke-linejoin="round"/>
<rect x="70.1975" y="85.8767" width="36.8767" height="34.7532" rx="17.3766" transform="rotate(90 70.1975 85.8767)" fill="#F98548" stroke="#29193E" stroke-width="4" stroke-linejoin="round"/>
<rect x="-2" y="-2" width="120.753" height="34.7532" rx="17.3766" transform="matrix(4.37114e-08 -1 -1 -4.37114e-08 34.7532 120.753)" fill="#29193E" stroke="#29193E" stroke-width="4" stroke-linejoin="round"/>
<rect x="-2" y="-2" width="84.1237" height="34.7532" rx="17.3766" transform="matrix(4.37114e-08 -1 -1 -4.37114e-08 34.7532 84.1238)" fill="#F98548" stroke="#29193E" stroke-width="4" stroke-linejoin="round"/>
<rect x="-2" y="-2" width="36.8767" height="34.7532" rx="17.3766" transform="matrix(4.37114e-08 -1 -1 -4.37114e-08 34.7532 36.8767)" fill="#E55B42" stroke="#29193E" stroke-width="4" stroke-linejoin="round"/>
<rect x="1078.42" y="2.00012" width="120.753" height="34.7532" rx="17.3766" transform="rotate(90 1078.42 2.00012)" fill="#29193E" stroke="#29193E" stroke-width="4" stroke-linejoin="round"/>
<rect x="1078.42" y="38.6296" width="84.1237" height="34.7532" rx="17.3766" transform="rotate(90 1078.42 38.6296)" fill="#E55B42" stroke="#29193E" stroke-width="4" stroke-linejoin="round"/>
<rect x="1078.42" y="85.8767" width="36.8767" height="34.7532" rx="17.3766" transform="rotate(90 1078.42 85.8767)" fill="#F98548" stroke="#29193E" stroke-width="4" stroke-linejoin="round"/>
<rect x="-2" y="-2" width="120.753" height="34.7532" rx="17.3766" transform="matrix(4.37114e-08 -1 -1 -4.37114e-08 1042.98 120.753)" fill="#29193E" stroke="#29193E" stroke-width="4" stroke-linejoin="round"/>
<rect x="-2" y="-2" width="84.1237" height="34.7532" rx="17.3766" transform="matrix(4.37114e-08 -1 -1 -4.37114e-08 1042.98 84.1238)" fill="#F98548" stroke="#29193E" stroke-width="4" stroke-linejoin="round"/>
<rect x="-2" y="-2" width="36.8767" height="34.7532" rx="17.3766" transform="matrix(4.37114e-08 -1 -1 -4.37114e-08 1042.98 36.8767)" fill="#E55B42" stroke="#29193E" stroke-width="4" stroke-linejoin="round"/>
<rect x="1011.53" y="2" width="120.753" height="34.7532" rx="17.3766" transform="rotate(90 1011.53 2)" fill="#29193E" stroke="#29193E" stroke-width="4" stroke-linejoin="round"/>
<rect x="1011.53" y="38.6299" width="84.1237" height="34.7532" rx="17.3766" transform="rotate(90 1011.53 38.6299)" fill="#E55B42" stroke="#29193E" stroke-width="4" stroke-linejoin="round"/>
<rect x="1011.53" y="85.8767" width="36.8767" height="34.7532" rx="17.3766" transform="rotate(90 1011.53 85.8767)" fill="#F98548" stroke="#29193E" stroke-width="4" stroke-linejoin="round"/>
<rect x="-2" y="-2" width="120.753" height="34.7532" rx="17.3766" transform="matrix(4.37114e-08 -1 -1 -4.37114e-08 976.087 120.753)" fill="#29193E" stroke="#29193E" stroke-width="4" stroke-linejoin="round"/>
<rect x="-2" y="-2" width="84.1237" height="34.7532" rx="17.3766" transform="matrix(4.37114e-08 -1 -1 -4.37114e-08 976.087 84.1238)" fill="#F98548" stroke="#29193E" stroke-width="4" stroke-linejoin="round"/>
<rect x="-2" y="-2" width="36.8767" height="34.7532" rx="17.3766" transform="matrix(4.37114e-08 -1 -1 -4.37114e-08 976.087 36.8767)" fill="#E55B42" stroke="#29193E" stroke-width="4" stroke-linejoin="round"/>
<rect x="944.643" y="2" width="120.753" height="34.7532" rx="17.3766" transform="rotate(90 944.643 2)" fill="#29193E" stroke="#29193E" stroke-width="4" stroke-linejoin="round"/>
<rect x="944.643" y="38.6299" width="84.1237" height="34.7532" rx="17.3766" transform="rotate(90 944.643 38.6299)" fill="#E55B42" stroke="#29193E" stroke-width="4" stroke-linejoin="round"/>
<rect x="944.643" y="85.8767" width="36.8767" height="34.7532" rx="17.3766" transform="rotate(90 944.643 85.8767)" fill="#F98548" stroke="#29193E" stroke-width="4" stroke-linejoin="round"/>
<rect x="-2" y="-2" width="120.753" height="34.7532" rx="17.3766" transform="matrix(4.37114e-08 -1 -1 -4.37114e-08 909.198 120.753)" fill="#29193E" stroke="#29193E" stroke-width="4" stroke-linejoin="round"/>
<rect x="-2" y="-2" width="84.1237" height="34.7532" rx="17.3766" transform="matrix(4.37114e-08 -1 -1 -4.37114e-08 909.198 84.1238)" fill="#F98548" stroke="#29193E" stroke-width="4" stroke-linejoin="round"/>
<rect x="-2" y="-2" width="36.8767" height="34.7532" rx="17.3766" transform="matrix(4.37114e-08 -1 -1 -4.37114e-08 909.198 36.8767)" fill="#E55B42" stroke="#29193E" stroke-width="4" stroke-linejoin="round"/>
<rect x="877.754" y="2" width="120.753" height="34.7532" rx="17.3766" transform="rotate(90 877.754 2)" fill="#29193E" stroke="#29193E" stroke-width="4" stroke-linejoin="round"/>
<rect x="877.753" y="38.6299" width="84.1237" height="34.7532" rx="17.3766" transform="rotate(90 877.753 38.6299)" fill="#E55B42" stroke="#29193E" stroke-width="4" stroke-linejoin="round"/>
<rect x="877.753" y="85.8767" width="36.8767" height="34.7532" rx="17.3766" transform="rotate(90 877.753 85.8767)" fill="#F98548" stroke="#29193E" stroke-width="4" stroke-linejoin="round"/>
<rect x="-2" y="-2" width="120.753" height="34.7532" rx="17.3766" transform="matrix(4.37114e-08 -1 -1 -4.37114e-08 842.308 120.753)" fill="#29193E" stroke="#29193E" stroke-width="4" stroke-linejoin="round"/>
<rect x="-2" y="-2" width="84.1237" height="34.7532" rx="17.3766" transform="matrix(4.37114e-08 -1 -1 -4.37114e-08 842.309 84.1238)" fill="#F98548" stroke="#29193E" stroke-width="4" stroke-linejoin="round"/>
<rect x="-2" y="-2" width="36.8767" height="34.7532" rx="17.3766" transform="matrix(4.37114e-08 -1 -1 -4.37114e-08 842.309 36.8767)" fill="#E55B42" stroke="#29193E" stroke-width="4" stroke-linejoin="round"/>
<rect x="810.864" y="2" width="120.753" height="34.7532" rx="17.3766" transform="rotate(90 810.864 2)" fill="#29193E" stroke="#29193E" stroke-width="4" stroke-linejoin="round"/>
<rect x="810.865" y="38.6299" width="84.1237" height="34.7532" rx="17.3766" transform="rotate(90 810.865 38.6299)" fill="#E55B42" stroke="#29193E" stroke-width="4" stroke-linejoin="round"/>
<rect x="810.865" y="85.8767" width="36.8767" height="34.7532" rx="17.3766" transform="rotate(90 810.865 85.8767)" fill="#F98548" stroke="#29193E" stroke-width="4" stroke-linejoin="round"/>
<rect x="-2" y="-2" width="120.753" height="34.7532" rx="17.3766" transform="matrix(4.37114e-08 -1 -1 -4.37114e-08 775.42 120.753)" fill="#29193E" stroke="#29193E" stroke-width="4" stroke-linejoin="round"/>
<rect x="-2" y="-2" width="84.1237" height="34.7532" rx="17.3766" transform="matrix(4.37114e-08 -1 -1 -4.37114e-08 775.42 84.1238)" fill="#F98548" stroke="#29193E" stroke-width="4" stroke-linejoin="round"/>
<rect x="-2" y="-2" width="36.8767" height="34.7532" rx="17.3766" transform="matrix(4.37114e-08 -1 -1 -4.37114e-08 775.42 36.8767)" fill="#E55B42" stroke="#29193E" stroke-width="4" stroke-linejoin="round"/>
<rect x="743.975" y="2.00012" width="120.753" height="34.7532" rx="17.3766" transform="rotate(90 743.975 2.00012)" fill="#29193E" stroke="#29193E" stroke-width="4" stroke-linejoin="round"/>
<rect x="743.976" y="38.6296" width="84.1237" height="34.7532" rx="17.3766" transform="rotate(90 743.976 38.6296)" fill="#E55B42" stroke="#29193E" stroke-width="4" stroke-linejoin="round"/>
<rect x="743.976" y="85.8767" width="36.8767" height="34.7532" rx="17.3766" transform="rotate(90 743.976 85.8767)" fill="#F98548" stroke="#29193E" stroke-width="4" stroke-linejoin="round"/>
<rect x="-2" y="-2" width="120.753" height="34.7532" rx="17.3766" transform="matrix(4.37114e-08 -1 -1 -4.37114e-08 708.531 120.753)" fill="#29193E" stroke="#29193E" stroke-width="4" stroke-linejoin="round"/>
<rect x="-2" y="-2" width="84.1237" height="34.7532" rx="17.3766" transform="matrix(4.37114e-08 -1 -1 -4.37114e-08 708.531 84.1238)" fill="#F98548" stroke="#29193E" stroke-width="4" stroke-linejoin="round"/>
<rect x="-2" y="-2" width="36.8767" height="34.7532" rx="17.3766" transform="matrix(4.37114e-08 -1 -1 -4.37114e-08 708.531 36.8767)" fill="#E55B42" stroke="#29193E" stroke-width="4" stroke-linejoin="round"/>
<rect x="677.087" y="2.00012" width="120.753" height="34.7532" rx="17.3766" transform="rotate(90 677.087 2.00012)" fill="#29193E" stroke="#29193E" stroke-width="4" stroke-linejoin="round"/>
<rect x="677.087" y="38.6296" width="84.1237" height="34.7532" rx="17.3766" transform="rotate(90 677.087 38.6296)" fill="#E55B42" stroke="#29193E" stroke-width="4" stroke-linejoin="round"/>
<rect x="677.087" y="85.8767" width="36.8767" height="34.7532" rx="17.3766" transform="rotate(90 677.087 85.8767)" fill="#F98548" stroke="#29193E" stroke-width="4" stroke-linejoin="round"/>
<rect x="-2" y="-2" width="120.753" height="34.7532" rx="17.3766" transform="matrix(4.37114e-08 -1 -1 -4.37114e-08 641.642 120.753)" fill="#29193E" stroke="#29193E" stroke-width="4" stroke-linejoin="round"/>
<rect x="-2" y="-2" width="84.1237" height="34.7532" rx="17.3766" transform="matrix(4.37114e-08 -1 -1 -4.37114e-08 641.642 84.1238)" fill="#F98548" stroke="#29193E" stroke-width="4" stroke-linejoin="round"/>
<rect x="-2" y="-2" width="36.8767" height="34.7532" rx="17.3766" transform="matrix(4.37114e-08 -1 -1 -4.37114e-08 641.642 36.8767)" fill="#E55B42" stroke="#29193E" stroke-width="4" stroke-linejoin="round"/>
<rect x="610.198" y="2.00012" width="120.753" height="34.7532" rx="17.3766" transform="rotate(90 610.198 2.00012)" fill="#29193E" stroke="#29193E" stroke-width="4" stroke-linejoin="round"/>
<rect x="610.198" y="38.6296" width="84.1237" height="34.7532" rx="17.3766" transform="rotate(90 610.198 38.6296)" fill="#E55B42" stroke="#29193E" stroke-width="4" stroke-linejoin="round"/>
<rect x="610.198" y="85.8767" width="36.8767" height="34.7532" rx="17.3766" transform="rotate(90 610.198 85.8767)" fill="#F98548" stroke="#29193E" stroke-width="4" stroke-linejoin="round"/>
<rect x="-2" y="-2" width="120.753" height="34.7532" rx="17.3766" transform="matrix(4.37114e-08 -1 -1 -4.37114e-08 574.753 120.753)" fill="#29193E" stroke="#29193E" stroke-width="4" stroke-linejoin="round"/>
<rect x="-2" y="-2" width="84.1237" height="34.7532" rx="17.3766" transform="matrix(4.37114e-08 -1 -1 -4.37114e-08 574.753 84.1238)" fill="#F98548" stroke="#29193E" stroke-width="4" stroke-linejoin="round"/>
<rect x="-2" y="-2" width="36.8767" height="34.7532" rx="17.3766" transform="matrix(4.37114e-08 -1 -1 -4.37114e-08 574.753 36.8767)" fill="#E55B42" stroke="#29193E" stroke-width="4" stroke-linejoin="round"/>
<rect x="1618.42" y="2.00012" width="120.753" height="34.7532" rx="17.3766" transform="rotate(90 1618.42 2.00012)" fill="#29193E" stroke="#29193E" stroke-width="4" stroke-linejoin="round"/>
<rect x="1618.42" y="38.6296" width="84.1237" height="34.7532" rx="17.3766" transform="rotate(90 1618.42 38.6296)" fill="#E55B42" stroke="#29193E" stroke-width="4" stroke-linejoin="round"/>
<rect x="1618.42" y="85.8767" width="36.8767" height="34.7532" rx="17.3766" transform="rotate(90 1618.42 85.8767)" fill="#F98548" stroke="#29193E" stroke-width="4" stroke-linejoin="round"/>
<rect x="-2" y="-2" width="120.753" height="34.7532" rx="17.3766" transform="matrix(4.37114e-08 -1 -1 -4.37114e-08 1582.98 120.753)" fill="#29193E" stroke="#29193E" stroke-width="4" stroke-linejoin="round"/>
<rect x="-2" y="-2" width="84.1237" height="34.7532" rx="17.3766" transform="matrix(4.37114e-08 -1 -1 -4.37114e-08 1582.98 84.1238)" fill="#F98548" stroke="#29193E" stroke-width="4" stroke-linejoin="round"/>
<rect x="-2" y="-2" width="36.8767" height="34.7532" rx="17.3766" transform="matrix(4.37114e-08 -1 -1 -4.37114e-08 1582.98 36.8767)" fill="#E55B42" stroke="#29193E" stroke-width="4" stroke-linejoin="round"/>
<rect x="1551.53" y="2" width="120.753" height="34.7532" rx="17.3766" transform="rotate(90 1551.53 2)" fill="#29193E" stroke="#29193E" stroke-width="4" stroke-linejoin="round"/>
<rect x="1551.53" y="38.6299" width="84.1237" height="34.7532" rx="17.3766" transform="rotate(90 1551.53 38.6299)" fill="#E55B42" stroke="#29193E" stroke-width="4" stroke-linejoin="round"/>
<rect x="1551.53" y="85.8767" width="36.8767" height="34.7532" rx="17.3766" transform="rotate(90 1551.53 85.8767)" fill="#F98548" stroke="#29193E" stroke-width="4" stroke-linejoin="round"/>
<rect x="-2" y="-2" width="120.753" height="34.7532" rx="17.3766" transform="matrix(4.37114e-08 -1 -1 -4.37114e-08 1516.09 120.753)" fill="#29193E" stroke="#29193E" stroke-width="4" stroke-linejoin="round"/>
<rect x="-2" y="-2" width="84.1237" height="34.7532" rx="17.3766" transform="matrix(4.37114e-08 -1 -1 -4.37114e-08 1516.09 84.1238)" fill="#F98548" stroke="#29193E" stroke-width="4" stroke-linejoin="round"/>
<rect x="-2" y="-2" width="36.8767" height="34.7532" rx="17.3766" transform="matrix(4.37114e-08 -1 -1 -4.37114e-08 1516.09 36.8767)" fill="#E55B42" stroke="#29193E" stroke-width="4" stroke-linejoin="round"/>
<rect x="1484.64" y="2" width="120.753" height="34.7532" rx="17.3766" transform="rotate(90 1484.64 2)" fill="#29193E" stroke="#29193E" stroke-width="4" stroke-linejoin="round"/>
<rect x="1484.64" y="38.6299" width="84.1237" height="34.7532" rx="17.3766" transform="rotate(90 1484.64 38.6299)" fill="#E55B42" stroke="#29193E" stroke-width="4" stroke-linejoin="round"/>
<rect x="1484.64" y="85.8767" width="36.8767" height="34.7532" rx="17.3766" transform="rotate(90 1484.64 85.8767)" fill="#F98548" stroke="#29193E" stroke-width="4" stroke-linejoin="round"/>
<rect x="-2" y="-2" width="120.753" height="34.7532" rx="17.3766" transform="matrix(4.37114e-08 -1 -1 -4.37114e-08 1449.2 120.753)" fill="#29193E" stroke="#29193E" stroke-width="4" stroke-linejoin="round"/>
<rect x="-2" y="-2" width="84.1237" height="34.7532" rx="17.3766" transform="matrix(4.37114e-08 -1 -1 -4.37114e-08 1449.2 84.1238)" fill="#F98548" stroke="#29193E" stroke-width="4" stroke-linejoin="round"/>
<rect x="-2" y="-2" width="36.8767" height="34.7532" rx="17.3766" transform="matrix(4.37114e-08 -1 -1 -4.37114e-08 1449.2 36.8767)" fill="#E55B42" stroke="#29193E" stroke-width="4" stroke-linejoin="round"/>
<rect x="1417.75" y="2" width="120.753" height="34.7532" rx="17.3766" transform="rotate(90 1417.75 2)" fill="#29193E" stroke="#29193E" stroke-width="4" stroke-linejoin="round"/>
<rect x="1417.75" y="38.6299" width="84.1237" height="34.7532" rx="17.3766" transform="rotate(90 1417.75 38.6299)" fill="#E55B42" stroke="#29193E" stroke-width="4" stroke-linejoin="round"/>
<rect x="1417.75" y="85.8767" width="36.8767" height="34.7532" rx="17.3766" transform="rotate(90 1417.75 85.8767)" fill="#F98548" stroke="#29193E" stroke-width="4" stroke-linejoin="round"/>
<rect x="-2" y="-2" width="120.753" height="34.7532" rx="17.3766" transform="matrix(4.37114e-08 -1 -1 -4.37114e-08 1382.31 120.753)" fill="#29193E" stroke="#29193E" stroke-width="4" stroke-linejoin="round"/>
<rect x="-2" y="-2" width="84.1237" height="34.7532" rx="17.3766" transform="matrix(4.37114e-08 -1 -1 -4.37114e-08 1382.31 84.1238)" fill="#F98548" stroke="#29193E" stroke-width="4" stroke-linejoin="round"/>
<rect x="-2" y="-2" width="36.8767" height="34.7532" rx="17.3766" transform="matrix(4.37114e-08 -1 -1 -4.37114e-08 1382.31 36.8767)" fill="#E55B42" stroke="#29193E" stroke-width="4" stroke-linejoin="round"/>
<rect x="1350.86" y="2" width="120.753" height="34.7532" rx="17.3766" transform="rotate(90 1350.86 2)" fill="#29193E" stroke="#29193E" stroke-width="4" stroke-linejoin="round"/>
<rect x="1350.86" y="38.6299" width="84.1237" height="34.7532" rx="17.3766" transform="rotate(90 1350.86 38.6299)" fill="#E55B42" stroke="#29193E" stroke-width="4" stroke-linejoin="round"/>
<rect x="1350.86" y="85.8767" width="36.8767" height="34.7532" rx="17.3766" transform="rotate(90 1350.86 85.8767)" fill="#F98548" stroke="#29193E" stroke-width="4" stroke-linejoin="round"/>
<rect x="-2" y="-2" width="120.753" height="34.7532" rx="17.3766" transform="matrix(4.37114e-08 -1 -1 -4.37114e-08 1315.42 120.753)" fill="#29193E" stroke="#29193E" stroke-width="4" stroke-linejoin="round"/>
<rect x="-2" y="-2" width="84.1237" height="34.7532" rx="17.3766" transform="matrix(4.37114e-08 -1 -1 -4.37114e-08 1315.42 84.1238)" fill="#F98548" stroke="#29193E" stroke-width="4" stroke-linejoin="round"/>
<rect x="-2" y="-2" width="36.8767" height="34.7532" rx="17.3766" transform="matrix(4.37114e-08 -1 -1 -4.37114e-08 1315.42 36.8767)" fill="#E55B42" stroke="#29193E" stroke-width="4" stroke-linejoin="round"/>
<rect x="1283.98" y="2.00012" width="120.753" height="34.7532" rx="17.3766" transform="rotate(90 1283.98 2.00012)" fill="#29193E" stroke="#29193E" stroke-width="4" stroke-linejoin="round"/>
<rect x="1283.98" y="38.6296" width="84.1237" height="34.7532" rx="17.3766" transform="rotate(90 1283.98 38.6296)" fill="#E55B42" stroke="#29193E" stroke-width="4" stroke-linejoin="round"/>
<rect x="1283.98" y="85.8767" width="36.8767" height="34.7532" rx="17.3766" transform="rotate(90 1283.98 85.8767)" fill="#F98548" stroke="#29193E" stroke-width="4" stroke-linejoin="round"/>
<rect x="-2" y="-2" width="120.753" height="34.7532" rx="17.3766" transform="matrix(4.37114e-08 -1 -1 -4.37114e-08 1248.53 120.753)" fill="#29193E" stroke="#29193E" stroke-width="4" stroke-linejoin="round"/>
<rect x="-2" y="-2" width="84.1237" height="34.7532" rx="17.3766" transform="matrix(4.37114e-08 -1 -1 -4.37114e-08 1248.53 84.1238)" fill="#F98548" stroke="#29193E" stroke-width="4" stroke-linejoin="round"/>
<rect x="-2" y="-2" width="36.8767" height="34.7532" rx="17.3766" transform="matrix(4.37114e-08 -1 -1 -4.37114e-08 1248.53 36.8767)" fill="#E55B42" stroke="#29193E" stroke-width="4" stroke-linejoin="round"/>
<rect x="1217.09" y="2.00012" width="120.753" height="34.7532" rx="17.3766" transform="rotate(90 1217.09 2.00012)" fill="#29193E" stroke="#29193E" stroke-width="4" stroke-linejoin="round"/>
<rect x="1217.09" y="38.6296" width="84.1237" height="34.7532" rx="17.3766" transform="rotate(90 1217.09 38.6296)" fill="#E55B42" stroke="#29193E" stroke-width="4" stroke-linejoin="round"/>
<rect x="1217.09" y="85.8767" width="36.8767" height="34.7532" rx="17.3766" transform="rotate(90 1217.09 85.8767)" fill="#F98548" stroke="#29193E" stroke-width="4" stroke-linejoin="round"/>
<rect x="-2" y="-2" width="120.753" height="34.7532" rx="17.3766" transform="matrix(4.37114e-08 -1 -1 -4.37114e-08 1181.64 120.753)" fill="#29193E" stroke="#29193E" stroke-width="4" stroke-linejoin="round"/>
<rect x="-2" y="-2" width="84.1237" height="34.7532" rx="17.3766" transform="matrix(4.37114e-08 -1 -1 -4.37114e-08 1181.64 84.1238)" fill="#F98548" stroke="#29193E" stroke-width="4" stroke-linejoin="round"/>
<rect x="-2" y="-2" width="36.8767" height="34.7532" rx="17.3766" transform="matrix(4.37114e-08 -1 -1 -4.37114e-08 1181.64 36.8767)" fill="#E55B42" stroke="#29193E" stroke-width="4" stroke-linejoin="round"/>
<rect x="1150.2" y="2.00012" width="120.753" height="34.7532" rx="17.3766" transform="rotate(90 1150.2 2.00012)" fill="#29193E" stroke="#29193E" stroke-width="4" stroke-linejoin="round"/>
<rect x="1150.2" y="38.6296" width="84.1237" height="34.7532" rx="17.3766" transform="rotate(90 1150.2 38.6296)" fill="#E55B42" stroke="#29193E" stroke-width="4" stroke-linejoin="round"/>
<rect x="1150.2" y="85.8767" width="36.8767" height="34.7532" rx="17.3766" transform="rotate(90 1150.2 85.8767)" fill="#F98548" stroke="#29193E" stroke-width="4" stroke-linejoin="round"/>
<rect x="-2" y="-2" width="120.753" height="34.7532" rx="17.3766" transform="matrix(4.37114e-08 -1 -1 -4.37114e-08 1114.75 120.753)" fill="#29193E" stroke="#29193E" stroke-width="4" stroke-linejoin="round"/>
<rect x="-2" y="-2" width="84.1237" height="34.7532" rx="17.3766" transform="matrix(4.37114e-08 -1 -1 -4.37114e-08 1114.75 84.1238)" fill="#F98548" stroke="#29193E" stroke-width="4" stroke-linejoin="round"/>
<rect x="-2" y="-2" width="36.8767" height="34.7532" rx="17.3766" transform="matrix(4.37114e-08 -1 -1 -4.37114e-08 1114.75 36.8767)" fill="#E55B42" stroke="#29193E" stroke-width="4" stroke-linejoin="round"/>
</g>
<defs>
<clipPath id="clip0">
<rect width="1620" height="125" fill="white"/>
</clipPath>
</defs>
</svg>
