<svg width="269" height="293" viewBox="0 0 269 293" fill="none" xmlns="http://www.w3.org/2000/svg">
<path d="M2.7574 240.249C4.80509 227.861 11.1681 216.468 23.8125 203.705C24.6948 202.814 25.1727 201.553 25.1003 200.302C22.6577 158.094 36.9205 146.112 87.539 132.765C88.9794 132.385 90.1457 131.262 90.6437 129.858C106.998 83.7567 175.546 82.0438 205.026 123.57C205.588 124.362 206.409 124.971 207.334 125.27C239.389 135.621 245.413 149.72 248.362 178.483C248.479 179.62 249.045 180.674 249.908 181.424C260.779 190.876 267.086 203.476 266.17 220.519C265.421 234.465 237.918 232.378 228.078 222.468C227.463 221.849 226.719 221.615 225.846 221.609C208.272 221.482 199.276 218.375 187.323 209.675C185.695 208.489 183.465 208.542 181.883 209.79C154.287 231.577 136.734 222.102 108.603 218.221C107.019 218.002 105.472 218.724 104.462 219.964C92.3907 234.791 65.6319 241.857 50.611 242.265C49.731 242.289 48.8702 242.555 48.1547 243.068C45.4792 244.986 43.0238 246.918 40.7309 248.919C26.1286 261.667 -0.403565 259.374 2.7574 240.249Z" fill="#8C74B7" stroke="black" stroke-width="4.2899"/>
<path d="M16.9781 240.089C23.0997 231.186 31.4934 224.96 39.3342 220.982C40.0806 220.603 40.7148 220.02 41.146 219.302C58.4274 190.55 68.0186 179.519 105.385 179.232C106.353 179.225 107.321 178.89 108.085 178.295C134.507 157.71 156.296 153.964 192.969 178.234C193.913 178.858 195.081 179.102 196.197 178.915C216.334 175.544 227.125 181.868 240.028 200.871C245.066 208.292 251.413 213.573 255.91 219.705C264.344 231.204 239.002 231.401 228.942 221.293C228.31 220.658 227.545 220.417 226.649 220.411C209.102 220.28 200.114 217.182 188.171 208.518C186.544 207.338 184.322 207.39 182.742 208.633C155.151 230.344 137.603 220.902 109.477 217.035C107.897 216.818 106.352 217.537 105.343 218.773C93.274 233.546 66.5216 240.585 51.5066 240.99C50.6288 241.014 49.7703 241.279 49.0559 241.79C46.3697 243.709 43.9054 245.642 41.6047 247.645C27.0047 260.359 6.00856 256.041 16.9781 240.089Z" fill="#29193E" fill-opacity="0.5"/>
<path d="M13.4266 214.627C16.3796 210.548 19.9713 206.401 24.2767 202.096C24.8687 201.504 25.1906 200.651 25.1403 199.815C22.567 157.072 39.627 148.385 88.3681 131.942C89.6084 131.523 90.6159 130.524 91.1039 129.309C112.514 76.0334 196.805 92.3759 213.367 125.958C213.897 127.032 214.793 127.891 215.911 128.319C239.747 137.441 245.492 149.05 248.399 177.711C248.491 178.61 248.939 179.449 249.625 180.037C256.918 186.297 262.196 193.948 264.675 203.373C267.532 214.236 256.676 209.668 248.922 201.541C248.572 201.173 248.5 200.906 248.393 200.409C244.597 182.822 213.004 141.387 199.472 131.01C159.507 104.622 122.629 110.756 95.3843 141.116C94.8265 141.737 94.0972 142.195 93.2974 142.436C61.095 152.126 40.6653 187.078 35.7892 215.754C35.6811 216.389 35.5156 216.813 34.9971 217.196C23.9935 225.323 5.40425 225.707 13.4266 214.627Z" fill="#D8C1F7" fill-opacity="0.5"/>
<path d="M47.9077 243.639C41.3629 215.4 41.6164 207.303 20.4413 207.042C14.4422 198.412 14.143 193.568 26.6476 184.902C45.7095 189.432 54.5654 211.221 47.9077 243.639Z" fill="#7E63AE" stroke="black" stroke-width="4.2899"/>
<path d="M184.126 207.951C211.979 168.904 193.49 114.039 176.904 102.677C187.865 102.677 205.508 111.927 212.418 122.805C225.959 147.117 208.374 205.74 184.126 207.951Z" fill="#7E63AE" stroke="black" stroke-width="4.2899"/>
<path d="M229.301 221.058C240.44 207.307 249.844 195.097 248.54 180.271C255.084 182.304 256.675 185.595 257.228 192.696C256.7 207.981 247.971 214.005 229.301 221.058Z" fill="#7E63AE" stroke="black" stroke-width="4.2899"/>
<path d="M92.5847 67.6467C88.9195 55.2505 83.68 43.305 76.0389 28.1012L137.248 10.3187C138.567 26.8822 140.228 39.7238 143.686 52.2138C147.15 64.7271 152.393 76.8028 160.792 91.8849L99.6946 109.635C98.3167 92.8012 96.2484 80.0374 92.5847 67.6467Z" fill="#291637" stroke="black" stroke-width="4.2899"/>
<path d="M174.855 87.3955C174.957 87.7482 174.879 88.8128 172.973 90.7834C171.198 92.6181 168.322 94.7166 164.462 96.9268C156.772 101.33 145.607 105.938 132.796 109.659C119.986 113.379 108.092 115.47 99.2429 115.87C94.8013 116.072 91.2497 115.84 88.7706 115.241C86.1077 114.597 85.4728 113.74 85.3707 113.387C85.2685 113.035 85.3468 111.97 87.2526 109.999C89.0269 108.165 91.9038 106.066 95.7636 103.856C103.453 99.4529 114.619 94.8452 127.429 91.1243C140.239 87.4034 152.134 85.3129 160.982 84.9124C165.424 84.7113 168.976 84.9426 171.455 85.5418C174.118 86.1854 174.753 87.0428 174.855 87.3955Z" fill="#291637" stroke="black" stroke-width="4.2899"/>
<mask id="path-9-inside-1" fill="white">
<ellipse rx="34.4689" ry="3.64191" transform="matrix(0.960324 -0.278886 0.278216 0.960519 106.041 17.0693)"/>
</mask>
<ellipse rx="34.4689" ry="3.64191" transform="matrix(0.960324 -0.278886 0.278216 0.960519 106.041 17.0693)" fill="#020102"/>
<path d="M135.022 8.6528C134.647 7.35768 135.041 6.32179 135.278 5.87085C135.401 5.63652 135.521 5.47642 135.59 5.3912C135.662 5.3029 135.713 5.25414 135.723 5.24432C135.738 5.23042 135.679 5.2871 135.5 5.41208C135.329 5.5315 135.093 5.68309 134.779 5.86573C133.482 6.62098 131.383 7.6134 128.544 8.7735C122.915 11.0732 114.904 13.8207 105.861 16.4469L108.248 24.688C117.486 22.0051 125.798 19.1631 131.783 16.7175C134.751 15.505 137.281 14.3359 139.092 13.2812C139.966 12.7718 140.89 12.1663 141.624 11.4691C141.986 11.1259 142.488 10.5885 142.872 9.85656C143.267 9.10478 143.707 7.79663 143.262 6.26002L135.022 8.6528ZM105.861 16.4469C96.8173 19.0731 88.5809 21.0442 82.5971 22.1168C79.5785 22.6578 77.2747 22.9441 75.7757 23.0008C75.4131 23.0145 75.1321 23.0132 74.924 23.0039C74.7061 22.9941 74.626 22.9778 74.6458 22.9817C74.6598 22.9845 74.7287 22.9985 74.8366 23.0346C74.9408 23.0694 75.128 23.1402 75.3571 23.2723C75.798 23.5264 76.6841 24.1907 77.0592 25.4858L68.8198 27.8786C69.2649 29.4152 70.3359 30.2845 71.0709 30.7082C71.7866 31.1208 72.4976 31.3059 72.9866 31.4021C73.98 31.5974 75.0835 31.6143 76.0947 31.576C78.1881 31.4969 80.9502 31.1291 84.1052 30.5636C90.4684 29.4231 99.0095 27.3708 108.248 24.688L105.861 16.4469ZM77.0592 25.4858C77.4343 26.7809 77.0407 27.8168 76.804 28.2678C76.681 28.5021 76.5608 28.6622 76.4914 28.7474C76.4195 28.8357 76.3687 28.8845 76.3584 28.8943C76.3437 28.9082 76.4028 28.8515 76.5816 28.7265C76.7524 28.6071 76.9891 28.4555 77.3027 28.2729C78.5995 27.5176 80.6987 26.5252 83.538 25.3651C89.1663 23.0654 97.1778 20.318 106.221 17.6917L103.834 9.45066C94.596 12.1335 86.2837 14.9755 80.2984 17.4211C77.3308 18.6336 74.8009 19.8028 72.99 20.8574C72.1153 21.3669 71.1921 21.9723 70.4572 22.6695C70.0955 23.0127 69.5938 23.5501 69.2096 24.2821C68.815 25.0338 68.3747 26.342 68.8198 27.8786L77.0592 25.4858ZM106.221 17.6917C115.264 15.0655 123.501 13.0944 129.485 12.0218C132.503 11.4808 134.807 11.1945 136.306 11.1378C136.669 11.1241 136.95 11.1254 137.158 11.1347C137.376 11.1445 137.456 11.1608 137.436 11.1569C137.422 11.1541 137.353 11.1401 137.245 11.1041C137.141 11.0692 136.954 10.9984 136.725 10.8663C136.284 10.6122 135.398 9.94792 135.022 8.6528L143.262 6.26002C142.817 4.72341 141.746 3.85413 141.011 3.43041C140.295 3.01786 139.584 2.8327 139.095 2.73655C138.102 2.54123 136.998 2.52434 135.987 2.56258C133.894 2.64174 131.131 3.00949 127.977 3.57499C121.613 4.71556 113.072 6.76784 103.834 9.45066L106.221 17.6917Z" fill="black" mask="url(#path-9-inside-1)"/>
<path d="M99.6757 99.2636L98.7318 91.2758C109.255 91.3342 117.559 90.8799 125.722 88.7047C133.97 86.5068 141.945 82.589 151.893 75.8937L155.508 83.2962C146.976 89.4661 139.333 93.0762 130.75 95.3373C122.078 97.6218 112.381 98.5492 99.6757 99.2636Z" fill="#FFF4D4" stroke="black" stroke-width="4.2899"/>
<path d="M105.476 218.456C105.476 185.48 86.0375 141.697 58.6464 141.436C69.3027 124.722 83.4475 120.092 99.1165 121.108C123.774 125.637 127.662 192.481 105.476 218.456Z" fill="#7E63AE" stroke="black" stroke-width="4.2899"/>
<path d="M91.2361 113.806C92.7192 119.646 95.5807 124.444 98.8975 127.504C102.232 130.58 105.791 131.722 108.876 130.936C111.962 130.15 114.543 127.442 116.005 123.144C117.458 118.868 117.683 113.283 116.2 107.444C114.717 101.604 111.856 96.8063 108.539 93.7464C105.204 90.6701 101.645 89.5275 98.5599 90.3139C95.4745 91.1002 92.8933 93.8077 91.4318 98.1064C89.978 102.382 89.753 107.966 91.2361 113.806Z" fill="#FFF2CD" stroke="black" stroke-width="4.2899"/>
<path fill-rule="evenodd" clip-rule="evenodd" d="M109.146 124.272C114.106 122.904 116.442 115.667 114.364 108.109C112.286 100.55 106.581 95.532 101.621 96.9003C96.6614 98.2686 94.3253 105.505 96.4033 113.064C96.4576 113.261 96.5143 113.457 96.5734 113.651L104.833 114.269L100.386 120.701C102.95 123.626 106.181 125.09 109.146 124.272Z" fill="black"/>
<path d="M107.62 91.7956C107.62 91.7956 95.4105 89.5275 89.8293 102.677C89.1646 96.4384 97.1381 83.55 107.62 91.7956Z" fill="#0A050E" stroke="black" stroke-width="4.2899" stroke-miterlimit="10"/>
<path d="M175.213 103.304C174.445 108.91 175.245 114.091 177.046 117.916C178.858 121.763 181.532 123.984 184.448 124.385C187.363 124.786 190.536 123.367 193.315 120.152C196.078 116.954 198.241 112.181 199.009 106.575C199.777 100.969 198.977 95.788 197.176 91.9632C195.364 88.1165 192.69 85.8949 189.774 85.4942C186.859 85.0935 183.686 86.5116 180.907 89.7273C178.144 92.9247 175.981 97.6982 175.213 103.304Z" fill="#FFF2CD" stroke="black" stroke-width="4.2899"/>
<mask id="mask0" mask-type="alpha" maskUnits="userSpaceOnUse" x="172" y="83" width="30" height="44">
<path d="M175.211 103.304C174.444 108.909 175.244 114.09 177.046 117.914C178.859 121.761 181.533 123.983 184.449 124.384C187.366 124.785 190.538 123.367 193.317 120.152C196.081 116.955 198.244 112.182 199.011 106.576C199.778 100.971 198.978 95.7903 197.176 91.9655C195.363 88.1189 192.689 85.8969 189.773 85.4959C186.856 85.0949 183.684 86.5129 180.905 89.7281C178.141 92.925 175.979 97.6981 175.211 103.304Z" fill="#FFF2CD" stroke="black" stroke-width="4.2899"/>
</mask>
<g mask="url(#mask0)">
<path fill-rule="evenodd" clip-rule="evenodd" d="M186.047 119.119C190.862 119.686 195.46 114.198 196.317 106.861C197.174 99.5234 193.966 93.1161 189.151 92.5494C184.336 91.9827 179.738 97.4712 178.881 104.808C178.87 104.9 178.86 104.992 178.851 105.084L187.058 109.164L180.008 113.792C181.28 116.771 183.425 118.811 186.047 119.119Z" fill="black"/>
</g>
<path d="M194.823 88.9308C194.823 88.9308 184.124 84.4646 176.443 95.9715C177.063 89.8883 186.877 79.0812 194.823 88.9308Z" fill="#291637" stroke="#291637" stroke-width="4.2899" stroke-miterlimit="10"/>
<path d="M128.157 143.806C133.236 144.216 134.983 143.675 136.116 139.769C136.351 138.958 137.625 138.783 138.167 139.43C145.626 148.323 164.28 130.484 174.074 139.324C175.697 140.789 175.095 143.287 173.385 144.65C171.114 146.46 170.463 147.405 169.488 149.608C169.465 149.659 169.447 149.716 169.434 149.77C161.768 183.731 136.491 179.602 134.073 145.048C134.044 144.622 133.708 144.264 133.283 144.229L128.157 143.806Z" fill="#291637" stroke="black" stroke-width="4.2899"/>
<path d="M150.899 172.114C147.453 171.624 143.888 168.726 141.24 163.675C146.191 161.816 149.552 161.013 152.628 161.13C155.628 161.245 158.565 162.247 162.643 164.468C158.515 170.859 154.275 172.593 150.899 172.114Z" fill="#5B477A" stroke="black" stroke-width="4.2899"/>
<path d="M150.224 160.45C152.997 162.025 153.659 163.719 152.982 166.881" stroke="black" stroke-width="4.2899"/>
<path d="M213.577 100.192C213.577 115.566 201.668 127.867 187.173 127.867C172.677 127.867 160.769 115.566 160.769 100.192C160.769 84.8186 172.677 72.517 187.173 72.517C201.668 72.517 213.577 84.8186 213.577 100.192Z" fill="#F8BC00" fill-opacity="0.4" stroke="black" stroke-width="4.2899"/>
<path d="M194.959 130.012C213.214 176.937 224.188 189.049 245.947 168.512" stroke="#D7BEAA" stroke-width="4.2899" stroke-miterlimit="3.99393" stroke-linecap="round" stroke-linejoin="round" stroke-dasharray="6.43 6.43"/>
<ellipse cx="193.153" cy="87.0885" rx="12.8639" ry="12.3121" fill="white" fill-opacity="0.5"/>
</svg>
