<svg width="241" height="242" viewBox="0 0 241 242" fill="none" xmlns="http://www.w3.org/2000/svg">
<path d="M34.3585 186.113L35.3009 187.242L36.5583 186.507L101.465 148.592L102.913 147.747L102.087 146.27L95.9552 135.319L95.0954 133.783L93.5825 134.652L47.7747 160.963C46.6703 152.987 42.7313 147.61 37.936 144.249C32.9969 140.788 27.2173 139.508 22.8176 139.582C17.3493 139.673 13.3976 141.077 10.6333 143.345C7.88891 145.596 6.49037 148.553 5.84562 151.449C4.72186 155.316 5.97041 159.145 8.17938 162.595C10.4006 166.065 13.7391 169.393 17.2396 172.407C20.4571 175.177 23.9007 177.756 26.876 179.983C27.1481 180.187 27.4162 180.388 27.6798 180.586C29.2643 181.774 30.6791 182.844 31.8449 183.794C33.029 184.758 33.8697 185.528 34.3585 186.113Z" fill="#D7BEAA" stroke="black" stroke-width="3.44887"/>
<path d="M98.6308 133.786L104.605 144.807L98.5415 148.272L92.5676 137.25L98.6308 133.786Z" fill="#D7BEAA"/>
<path d="M197.716 121.203C192.741 144.379 179.03 160.275 160.707 171.195H82.4435C71.3207 164.36 47.7646 144.792 42.5228 121.203C34.8542 78.2007 58.2565 50.9478 70.9163 42.6967C72.5918 41.6047 74.0666 41.6312 74.6778 37.9645C75.2845 34.3243 75.8103 25.1025 75.5271 22.1903C74.9204 19.0355 74.1196 16.2447 68.4894 13.8179C63.1504 11.3911 62.3011 8.35764 64.4852 5.32415C66.548 2.89736 70.1153 2.89736 78.0752 2.89736C85.5497 2.21786 141.455 3.74674 168.473 4.59611V13.8179C217.616 10.1777 238.85 43.4248 237.637 67.2073C237.596 73.1125 237.639 90.4801 231.206 110.768C224.896 130.668 207.787 120.597 207.787 109.919C207.706 107.007 208.248 97.3481 211.063 82.0108C212.883 61.8684 212.398 55.8014 199.051 45.8515C195.411 42.454 175.39 39.7846 168.595 43.4248C194.804 60.0483 204.097 91.4752 197.716 121.203Z" fill="#D7BEAA" stroke="black" stroke-width="3.44887"/>
<path d="M200.48 45.1235C196.84 41.726 176.819 39.0566 170.024 42.6967L72.3455 41.9687C74.0211 40.8767 75.4959 40.9032 76.107 37.2365C76.7137 33.5963 77.2395 24.3745 76.9564 21.4623C76.3497 18.3075 75.5489 15.5167 69.9186 13.0899C64.5797 10.6631 63.7304 7.62961 65.9144 4.59612C67.9773 2.16933 71.5446 2.16933 79.5045 2.16933C86.979 1.48983 142.884 3.01871 169.902 3.86809V13.0899C219.045 9.4497 240.279 42.6967 239.066 66.4793C239.026 72.3845 239.068 89.7521 232.635 110.04C226.325 129.94 209.216 119.869 209.216 109.191C209.136 106.279 209.678 96.6201 212.493 81.2827C214.313 61.1404 213.827 55.0734 200.48 45.1235Z" fill="black" stroke="black" stroke-width="3.44887"/>
<path d="M105.898 222.076L107.132 222.875L108.116 221.801L158.9 166.381L160.033 165.145L158.807 163.979L149.71 155.331L148.434 154.119L147.246 155.396L111.273 194.082C107.858 186.79 102.505 182.818 96.9299 181.027C91.188 179.182 85.2883 179.669 81.1073 181.041C75.9109 182.746 72.5515 185.257 70.5818 188.241C68.6262 191.203 68.1653 194.442 68.4062 197.399C68.4768 201.425 70.802 204.713 73.933 207.355C77.0813 210.013 81.2551 212.204 85.4905 214.048C89.3835 215.742 93.4358 217.186 96.937 218.434C97.2571 218.548 97.5726 218.66 97.8829 218.771C99.748 219.437 101.416 220.041 102.811 220.603C104.227 221.174 105.258 221.661 105.898 222.076Z" fill="#D7BEAA" stroke="black" stroke-width="3.44887"/>
<path d="M151.812 153.076L160.779 161.837L156.012 166.94L147.045 158.179L151.812 153.076Z" fill="#D7BEAA"/>
<path d="M168.594 43.4248H69.8241C38.6396 68.5421 39.4893 103.003 42.2792 119.747C84.7481 119.747 177.647 120.354 197.837 120.354C204.996 82.3748 188.737 56.2868 168.594 43.4248Z" fill="#FCFCFC" stroke="black" stroke-width="3.44887"/>
<rect x="155.072" y="61.6992" width="14.0754" height="1.2134" rx="0.606698" fill="black"/>
<rect x="155.072" y="61.6992" width="14.0754" height="1.2134" rx="0.606698" fill="black"/>
<rect x="158.47" y="70.1929" width="14.0754" height="1.2134" rx="0.606698" fill="black"/>
<rect x="158.47" y="70.1929" width="14.0754" height="1.2134" rx="0.606698" fill="black"/>
<rect x="161.382" y="77.959" width="14.0754" height="1.2134" rx="0.606698" fill="black"/>
<rect x="161.382" y="77.959" width="14.0754" height="1.2134" rx="0.606698" fill="black"/>
<rect x="163.809" y="86.4526" width="14.0754" height="1.2134" rx="0.606698" fill="black"/>
<rect x="163.809" y="86.4526" width="14.0754" height="1.2134" rx="0.606698" fill="black"/>
<rect x="164.779" y="96.1597" width="14.0754" height="1.2134" rx="0.606698" fill="black"/>
<rect x="164.779" y="96.1597" width="14.0754" height="1.2134" rx="0.606698" fill="black"/>
<rect x="164.294" y="105.382" width="14.0754" height="1.2134" rx="0.606698" fill="black"/>
<rect x="164.294" y="105.382" width="14.0754" height="1.2134" rx="0.606698" fill="black"/>
<rect x="151.917" y="56.8457" width="14.0754" height="1.2134" rx="0.606698" fill="black"/>
<rect x="151.917" y="56.8457" width="14.0754" height="1.2134" rx="0.606698" fill="black"/>
<path d="M159.076 57.5737C170.846 70.3144 172.424 94.0969 171.332 105.624" stroke="black" stroke-width="1.72444"/>
<path d="M141.188 108.601C140.409 110.526 134.575 109.16 125.892 109.783C117.21 110.407 109.113 115.678 109.746 110.86C110.099 108.167 119.617 105.194 128.299 104.57C136.982 103.946 142.302 105.846 141.188 108.601Z" fill="black"/>
<path d="M124.413 89.3809C122.853 90.1536 121.175 89.5631 120.787 88.105L115.355 67.6695C114.895 65.9391 116.472 63.9764 118.413 63.8631L171.34 60.7751C174.305 60.6021 174.735 64.4571 171.908 65.8574L124.413 89.3809Z" fill="black"/>
<path d="M83.925 89.3814C85.2009 90.1541 87.0961 89.5636 88.0201 88.1055L100.968 67.67C102.065 65.9396 101.21 63.9769 99.3102 63.8636L47.5183 60.7756C44.6174 60.6026 42.769 64.4576 45.0813 65.8579L83.925 89.3814Z" fill="black"/>
<path d="M94.041 72.2696C96.5983 69.2652 117.697 68.0968 122.275 72.2696C123.132 71.8524 124.183 72.4366 121.535 78.1117C116.762 72.2696 100.724 72.2696 93.1201 77.2771C92.3615 76.8598 91.4837 75.2741 94.041 72.2696Z" fill="black" stroke="black" stroke-width="0.344887"/>
</svg>
