<svg width="205" height="198" viewBox="0 0 205 198" fill="none" xmlns="http://www.w3.org/2000/svg">
<path d="M102.561 196.581C157.447 196.581 201.961 153.366 201.961 100.036C201.961 46.7054 157.447 3.49117 102.561 3.49117C47.6743 3.49117 3.16097 46.7054 3.16097 100.036C3.16097 153.366 47.6743 196.581 102.561 196.581Z" fill="#8C74B7" stroke="black" stroke-width="0.752528"/>
<path d="M102.531 169.654C142.104 169.654 174.205 138.496 174.205 100.036C174.205 61.576 142.104 30.4178 102.531 30.4178C62.9584 30.4178 30.8582 61.576 30.8582 100.036C30.8582 138.496 62.9584 169.654 102.531 169.654Z" fill="#EFC404" stroke="black" stroke-width="0.794344"/>
<path d="M166.389 131.821C166.389 135.731 140.701 139.231 103.143 139.231C65.5859 139.231 38.7542 136.037 38.7542 132.127C35.3491 128.263 65.5859 125.073 103.143 125.073C140.701 125.073 168.455 127.536 166.389 131.821Z" fill="black"/>
<path d="M45.5388 160.383L52.8149 165.346C53.8857 164.632 55.3813 164.689 56.5648 165.497C58.1866 166.603 58.5065 168.426 57.3426 170.04C56.1788 171.654 54.3071 171.982 52.6853 170.876C51.5019 170.069 50.9593 168.735 51.285 167.513L43.987 162.535C40.6817 167.118 42.3939 173.358 48.1076 177.224C53.8057 181.111 60.7319 180.121 64.4872 174.914C68.2425 169.706 66.8251 163.057 61.127 159.17C55.4289 155.283 48.8286 155.821 45.5388 160.383Z" fill="black"/>
<path d="M32.927 151.76L33.3309 151.459C33.5188 152.51 33.9966 153.543 34.7691 154.522C37.2512 157.666 41.0893 158.077 44.4054 155.601C47.7216 153.125 48.2887 149.392 45.8231 146.268C45.0505 145.29 44.1476 144.574 43.1519 144.126L43.5558 143.824L38.6246 137.577L27.9958 145.513L32.927 151.76ZM40.6576 147.643C41.1507 148.268 40.8418 149.16 39.8852 149.875C38.9286 150.589 37.9621 150.648 37.469 150.024C36.9923 149.42 37.3013 148.527 38.2414 147.792C39.198 147.078 40.1645 147.018 40.6576 147.643Z" fill="black"/>
<path d="M20.6477 131.169C21.0815 132.166 21.6692 132.986 22.3757 133.613L22.0568 133.744L25.2304 141.043L37.498 135.997L34.3243 128.699L27.5772 131.474C26.8411 131.776 26.1388 131.492 25.8215 130.762C25.557 130.154 25.6889 129.526 26.1513 129.192L21.1779 125.072C20.6872 125.273 19.3465 128.177 20.6477 131.169Z" fill="black"/>
<path d="M29.4776 111.273C28.6802 106.189 25.7316 103.14 22.1061 103.651L23.2364 110.858C24.0236 110.742 24.6307 111.188 24.754 111.974C24.8773 112.76 24.0673 113.417 22.7289 113.615L21.1876 103.787C16.9888 104.41 14.7456 108.256 15.5692 113.337C16.3707 118.447 19.6868 121.442 23.8593 120.823C28.0318 120.204 30.2791 116.384 29.4776 111.273ZM21.4168 113.81C20.6296 113.927 20.0225 113.481 19.8992 112.694C19.7759 111.908 20.2185 111.306 21.0058 111.189L21.4168 113.81Z" fill="black"/>
<path d="M28.934 92.9744C29.4767 87.8564 27.4115 84.1863 23.7711 83.7992L23.0018 91.0541C23.7938 91.1325 24.2659 91.7124 24.182 92.5039C24.098 93.2953 23.1445 93.7341 21.7981 93.6007L22.8471 83.7077C18.623 83.2894 15.4582 86.4683 14.9419 91.5889C14.3964 96.7333 16.8312 100.44 21.0288 100.856C25.2265 101.271 28.3885 98.1188 28.934 92.9744ZM20.4781 93.47C19.6861 93.3916 19.214 92.8117 19.2979 92.0203C19.3818 91.2288 19.9658 90.7535 20.7578 90.8319L20.4781 93.47Z" fill="black"/>
<path d="M20.9541 68.1691C20.571 69.1871 20.4253 70.1769 20.5012 71.1049L20.1763 70.9893L17.3733 78.4381L29.8699 82.8862L32.6729 75.4373L25.7998 72.9909C25.05 72.724 24.737 72.0495 25.0173 71.3046C25.2508 70.6839 25.7876 70.3118 26.3592 70.3745L25.6188 64.0576C25.1189 63.8796 22.1033 65.115 20.9541 68.1691Z" fill="black"/>
<path d="M38.3514 37.8424L34.2279 34.5033L23.8761 46.595L40.3698 59.9515L45.5457 53.9056L39.3606 48.8969L42.8112 44.8663L38.6878 41.5272L35.2372 45.5578L33.1755 43.8883L38.3514 37.8424Z" fill="black"/>
<path d="M51.9644 30.5427L52.2643 30.9478C51.1821 31.0907 50.1116 31.5167 49.0904 32.2321C45.8094 34.5305 45.3003 38.2546 47.7633 41.5805C50.2263 44.9063 54.0412 45.6015 57.3005 43.3183C58.3217 42.6029 59.0765 41.7505 59.5587 40.7974L59.8587 41.2025L66.3773 36.6362L58.4829 25.9764L51.9644 30.5427ZM56.0092 38.2326C55.3574 38.6893 54.4492 38.3541 53.7387 37.3947C53.0282 36.4353 52.9891 35.4913 53.6409 35.0347C54.2711 34.5933 55.1793 34.9285 55.9115 35.8726C56.622 36.832 56.6611 37.776 56.0092 38.2326Z" fill="black"/>
<path d="M66.0406 21.2014C68.0811 20.3056 68.936 17.9894 68.009 15.9921C67.0819 13.9948 64.7304 13.0864 62.6899 13.9823C60.6494 14.8781 59.7945 17.1942 60.7215 19.1915C61.6485 21.1888 64.0001 22.0972 66.0406 21.2014ZM62.9553 24.0043L68.5398 36.0361L75.8272 32.8367L70.2427 20.8049L62.9553 24.0043Z" fill="black"/>
<path d="M84.8003 16.3247C83.7408 16.5709 82.8354 16.9991 82.1034 17.5777L82.0211 17.2428L74.2688 19.0441L77.4332 31.9258L85.1855 30.1245L83.4451 23.0396C83.2552 22.2667 83.6455 21.6313 84.4207 21.4512C85.0667 21.3011 85.6721 21.5417 85.9342 22.0527L90.7939 17.9278C90.6673 17.4125 87.9788 15.5861 84.8003 16.3247Z" fill="black"/>
<path d="M95.4274 23.6978C95.3853 26.4034 98.3281 28.2525 103.58 28.3325C109.151 28.4173 112.364 26.5559 112.408 23.6911L112.41 23.5584C112.503 17.5901 103.035 20.7624 103.066 18.7729L103.072 18.3751C103.078 17.9772 103.348 17.7159 103.746 17.722C104.143 17.7281 104.405 17.9974 104.398 18.3953L104.392 18.7931L111.952 18.9083L111.967 17.9799C111.998 15.9904 109.047 14.6189 103.795 14.5389C98.2246 14.454 95.0175 15.9441 94.9815 18.2518L94.9753 18.6497C94.8969 23.6897 104.749 21.4518 104.716 23.5739L104.712 23.8392C104.703 24.3962 104.273 24.7611 103.636 24.7514C102.999 24.7417 102.581 24.3639 102.589 23.8069L102.602 23.0111L95.4398 22.902L95.4274 23.6978Z" fill="black"/>
<path d="M135.636 20.8867L135.446 21.3534C134.745 20.5428 133.806 19.8959 132.643 19.4469C128.906 18.0043 125.413 19.613 123.849 23.4448C122.285 27.2766 123.718 30.7865 127.43 32.2195C128.593 32.6685 129.733 32.8242 130.815 32.7014L130.624 33.1681L138.049 36.0342L143.061 23.7528L135.636 20.8867ZM131.141 28.3919C130.398 28.1053 130.204 27.1774 130.655 26.072C131.106 24.9667 131.902 24.4209 132.644 24.7075C133.362 24.9846 133.556 25.9125 133.13 27.0274C132.679 28.1327 131.883 28.6785 131.141 28.3919Z" fill="black"/>
<path d="M156.993 32.3751C156.107 31.7437 155.18 31.3434 154.249 31.1685L154.457 30.8931L147.976 26.2734L139.993 36.8668L146.474 41.4865L150.864 35.6601C151.343 35.0245 152.095 34.9087 152.743 35.3707C153.283 35.7557 153.491 36.3603 153.264 36.8822L159.665 37.8624C159.984 37.4387 159.65 34.2691 156.993 32.3751Z" fill="black"/>
<path d="M159.854 53.9108C163.183 57.8363 167.317 58.9398 170.19 56.6695L165.472 51.1049C164.851 51.6029 164.094 51.5301 163.579 50.9231C163.065 50.3161 163.425 49.347 164.481 48.5005L170.914 56.0886C174.226 53.4328 174.172 49.0227 170.823 45.1137C167.477 41.1679 163.053 40.2968 159.762 42.9359C156.472 45.5751 156.509 49.965 159.854 53.9108ZM165.515 47.6706C166.136 47.1727 166.893 47.2454 167.408 47.8524C167.923 48.4595 167.852 49.1961 167.231 49.6941L165.515 47.6706Z" fill="black"/>
<path d="M173.8 78.1875C175.817 84.4778 182.391 87.0853 190.236 84.7062L186.875 74.2222L182.076 75.6774L183.105 78.8858C181.837 78.4941 180.739 77.4136 180.334 76.1505C179.573 73.7758 180.662 71.6992 183.048 70.9754C185.435 70.2517 187.544 71.3581 188.306 73.7328L189.901 78.7096L196.451 76.7231L194.872 71.7969C192.855 65.5065 187.296 62.591 180.975 64.5082C174.653 66.4254 171.783 71.8971 173.8 78.1875Z" fill="black"/>
<path d="M191.315 100.791C191.291 99.7034 191.057 98.7265 190.64 97.8861L190.985 97.8789L190.808 89.9221L177.547 90.2003L177.723 98.1571L185.017 98.0041C185.813 97.9874 186.355 98.5067 186.373 99.3024C186.387 99.9655 186.028 100.504 185.474 100.648L188.518 106.289C189.048 106.278 191.387 104.053 191.315 100.791Z" fill="black"/>
<path d="M175.475 116.045C174.266 121.13 176.251 125.056 180.34 125.976C184.481 126.907 188.016 124.194 189.193 119.129C190.395 114.07 188.417 110.118 184.327 109.199C180.238 108.28 176.677 110.986 175.475 116.045ZM180.399 117.125C180.577 116.377 181.502 116.041 182.641 116.297C183.779 116.553 184.459 117.249 184.281 117.998C184.103 118.746 183.166 119.134 182.033 118.852C180.894 118.596 180.221 117.874 180.399 117.125Z" fill="black"/>
<path d="M168.948 133.129C166.479 137.736 167.406 142.012 171.145 143.908C174.93 145.828 179.055 144.083 181.489 139.489C183.945 134.906 183.031 130.606 179.292 128.71C175.554 126.814 171.405 128.547 168.948 133.129ZM173.456 135.386C173.82 134.708 174.804 134.612 175.845 135.14C176.886 135.668 177.369 136.508 177.006 137.186C176.642 137.864 175.633 138.006 174.604 137.455C173.563 136.927 173.093 136.064 173.456 135.386Z" fill="black"/>
<path d="M167.49 158.096L163.268 152.511L169.387 156.056L174.355 150.714L161.414 145.158L155.543 151.472L162.521 163.438L167.49 158.096Z" fill="black"/>
<path d="M150.573 175.528L149.047 169.878L153.717 173.552L159.894 169.669L148.233 162.903C146.577 161.751 147.469 161.034 148.03 160.681L149.827 159.551L147.258 155.685C141.643 159.214 141.949 161.496 142.618 166.432L144.396 179.411L150.573 175.528Z" fill="black"/>
<path d="M70.8063 109.522L68.7515 110.029C69.8003 113.101 72.3216 120.058 74.016 123.305C75.7103 126.551 78.2434 125.141 79.7961 124.163L81.9585 122.413L87.6444 117.429C86.3057 119.246 85.9363 124.228 87.9008 126.117C89.6022 127.754 91.4221 126.978 92.2125 124.302C92.7497 122.483 92.2625 118.543 92.0815 116.931C91.5412 112.118 89.2592 113.002 84.887 116.08C84.5183 116.398 82.1497 118.313 78.2612 121.698C76.1737 123.515 75.5295 121.778 75.1686 120.965L70.8063 109.522Z" fill="#E55B42" stroke="black" stroke-width="0.742651"/>
<path d="M120.37 110.137L118.315 110.644C119.364 113.717 121.886 120.674 123.58 123.921C125.274 127.167 127.807 125.757 129.36 124.779L131.522 123.029L137.208 118.045C135.87 119.861 135.5 124.843 137.465 126.733C139.166 128.37 140.986 127.594 141.776 124.918C142.314 123.099 141.826 119.159 141.645 117.547C141.105 112.734 138.823 113.618 134.451 116.696C134.082 117.014 131.714 118.929 127.825 122.314C125.738 124.13 125.093 122.394 124.733 121.58L120.37 110.137Z" fill="#E55B42" stroke="black" stroke-width="0.742651"/>
<mask id="path-26-inside-1" fill="white">
<path fill-rule="evenodd" clip-rule="evenodd" d="M150.363 37.8652L140.27 37.1938L101.55 34.6707L91.4568 33.9993C86.6494 52.3258 84.9911 64.3213 85.2709 81.3075C83.0432 80.4039 80.5742 79.8243 77.9474 79.6496C66.8199 78.9094 57.0756 85.7143 56.1831 94.8487C55.2905 103.983 63.5875 111.988 74.715 112.728C84.9201 113.407 93.9617 107.74 96.0792 99.7499C96.329 99.0453 96.4961 98.3093 96.5704 97.549C96.6429 96.8067 96.6237 96.0756 96.5205 95.3634C96.4317 93.8855 96.1043 92.4522 95.5672 91.0914C93.9568 72.308 95.1037 60.6896 98.5147 46.3288L137.449 48.9186C134.782 61.3773 133.852 71.5746 134.089 84.8345C131.827 83.8998 129.312 83.3005 126.634 83.1223C115.506 82.3821 105.762 89.187 104.869 98.3214C103.977 107.456 112.274 115.461 123.401 116.201C134.529 116.941 144.273 110.136 145.166 101.002C145.366 98.9529 145.104 96.9607 144.451 95.0946C142.308 71.0017 144.614 58.6694 150.363 37.8652ZM140.256 37.2458L140.27 37.1938L101.55 34.6712L140.256 37.2458Z"/>
</mask>
<path fill-rule="evenodd" clip-rule="evenodd" d="M150.363 37.8652L140.27 37.1938L101.55 34.6707L91.4568 33.9993C86.6494 52.3258 84.9911 64.3213 85.2709 81.3075C83.0432 80.4039 80.5742 79.8243 77.9474 79.6496C66.8199 78.9094 57.0756 85.7143 56.1831 94.8487C55.2905 103.983 63.5875 111.988 74.715 112.728C84.9201 113.407 93.9617 107.74 96.0792 99.7499C96.329 99.0453 96.4961 98.3093 96.5704 97.549C96.6429 96.8067 96.6237 96.0756 96.5205 95.3634C96.4317 93.8855 96.1043 92.4522 95.5672 91.0914C93.9568 72.308 95.1037 60.6896 98.5147 46.3288L137.449 48.9186C134.782 61.3773 133.852 71.5746 134.089 84.8345C131.827 83.8998 129.312 83.3005 126.634 83.1223C115.506 82.3821 105.762 89.187 104.869 98.3214C103.977 107.456 112.274 115.461 123.401 116.201C134.529 116.941 144.273 110.136 145.166 101.002C145.366 98.9529 145.104 96.9607 144.451 95.0946C142.308 71.0017 144.614 58.6694 150.363 37.8652ZM140.256 37.2458L140.27 37.1938L101.55 34.6712L140.256 37.2458Z" fill="#E55B42"/>
<path d="M101.519 35.1508L140.238 37.6739L140.301 36.7138L101.581 34.1907L101.519 35.1508ZM140.27 37.1938L140.333 36.2338L140.332 36.2337L140.27 37.1938ZM150.363 37.8652L151.29 38.1215L151.605 36.9836L150.427 36.9052L150.363 37.8652ZM101.55 34.6707L101.486 35.6307L101.488 35.6308L101.55 34.6707ZM91.4568 33.9993L91.5206 33.0393L90.7277 32.9866L90.5261 33.7552L91.4568 33.9993ZM85.2709 81.3075L84.9092 82.1991L86.2568 82.7458L86.2329 81.2917L85.2709 81.3075ZM77.9474 79.6496L78.0113 78.6896L77.9474 79.6496ZM56.1831 94.8487L57.1406 94.9423L57.1406 94.9423L56.1831 94.8487ZM74.715 112.728L74.6512 113.688L74.715 112.728ZM96.0792 99.7499L95.1724 99.4284L95.1592 99.4655L95.1492 99.5035L96.0792 99.7499ZM96.5704 97.549L95.6128 97.4554L95.6128 97.4554L96.5704 97.549ZM96.5205 95.3634L95.5602 95.4211L95.5626 95.4613L95.5684 95.5013L96.5205 95.3634ZM95.5672 91.0914L94.6086 91.1736L94.6206 91.3137L94.6723 91.4445L95.5672 91.0914ZM98.5147 46.3288L98.5786 45.3688L97.7667 45.3148L97.5787 46.1064L98.5147 46.3288ZM137.449 48.9186L138.39 49.12L138.623 48.0324L137.513 47.9586L137.449 48.9186ZM134.089 84.8345L133.722 85.7237L135.078 86.2838L135.051 84.8173L134.089 84.8345ZM126.634 83.1223L126.697 82.1623L126.634 83.1223ZM104.869 98.3214L105.827 98.415L104.869 98.3214ZM123.401 116.201L123.337 117.161L123.401 116.201ZM145.166 101.002L144.208 100.908L145.166 101.002ZM144.451 95.0946L143.492 95.1798L143.503 95.2992L143.543 95.4123L144.451 95.0946ZM140.256 37.2458L140.192 38.2058L140.985 38.2586L141.187 37.4899L140.256 37.2458ZM101.55 34.6712L101.613 33.7111L101.486 35.6312L101.55 34.6712ZM140.206 38.1538L150.299 38.8252L150.427 36.9052L140.333 36.2338L140.206 38.1538ZM101.488 35.6308L140.207 38.1539L140.332 36.2337L101.613 33.7106L101.488 35.6308ZM91.3929 34.9593L101.486 35.6307L101.614 33.7107L91.5206 33.0393L91.3929 34.9593ZM86.2329 81.2917C85.9548 64.4073 87.5984 52.5001 92.3874 34.2434L90.5261 33.7552C85.7004 52.1515 84.0274 64.2352 84.3089 81.3234L86.2329 81.2917ZM77.8836 80.6096C80.4097 80.7776 82.7781 81.3346 84.9092 82.1991L85.6326 80.416C83.3084 79.4732 80.7387 78.871 78.0113 78.6896L77.8836 80.6096ZM57.1406 94.9423C57.9672 86.4837 67.0994 79.8922 77.8836 80.6096L78.0113 78.6896C66.5403 77.9265 56.1841 84.9448 55.2255 94.7552L57.1406 94.9423ZM74.7789 111.768C64.0011 111.051 56.3178 103.362 57.1406 94.9423L55.2255 94.7552C54.2631 104.604 63.174 112.925 74.6512 113.688L74.7789 111.768ZM95.1492 99.5035C93.1791 106.937 84.6502 112.425 74.7789 111.768L74.6512 113.688C85.19 114.389 94.7443 108.543 97.0092 99.9964L95.1492 99.5035ZM95.6128 97.4554C95.5463 98.1362 95.3967 98.7957 95.1724 99.4284L96.986 100.071C97.2614 99.2949 97.4458 98.4824 97.5279 97.6426L95.6128 97.4554ZM95.5684 95.5013C95.6605 96.1374 95.6777 96.7908 95.6128 97.4554L97.5279 97.6426C97.608 96.8226 97.5869 96.0138 97.4727 95.2255L95.5684 95.5013ZM94.6723 91.4445C95.1734 92.7145 95.4776 94.0482 95.5602 95.4211L97.4809 95.3056C97.3858 93.7228 97.0351 92.19 96.4622 90.7382L94.6723 91.4445ZM97.5787 46.1064C94.1435 60.5686 92.9896 72.2899 94.6086 91.1736L96.5258 91.0092C94.924 72.3261 96.0638 60.8105 99.4508 46.5511L97.5787 46.1064ZM137.513 47.9586L98.5786 45.3688L98.4509 47.2888L137.385 49.8786L137.513 47.9586ZM135.051 84.8173C134.816 71.626 135.74 61.5022 138.39 49.12L136.508 48.7173C133.825 61.2524 132.889 71.5233 133.128 84.8517L135.051 84.8173ZM126.57 84.0823C129.146 84.2537 131.558 84.8296 133.722 85.7237L134.457 83.9453C132.097 82.97 129.479 82.3473 126.697 82.1623L126.57 84.0823ZM105.827 98.415C106.653 89.9565 115.786 83.3649 126.57 84.0823L126.697 82.1623C115.226 81.3992 104.87 88.4175 103.912 98.2279L105.827 98.415ZM123.465 115.241C112.687 114.524 105.004 106.835 105.827 98.415L103.912 98.2279C102.949 108.077 111.86 116.398 123.337 117.161L123.465 115.241ZM144.208 100.908C143.381 109.367 134.249 115.958 123.465 115.241L123.337 117.161C134.808 117.924 145.164 110.906 146.123 101.095L144.208 100.908ZM143.543 95.4123C144.151 97.1509 144.394 99.0029 144.208 100.908L146.123 101.095C146.337 98.9029 146.056 96.7705 145.359 94.7769L143.543 95.4123ZM149.436 37.609C143.666 58.4875 141.336 70.9395 143.492 95.1798L145.409 95.0093C143.279 71.0638 145.562 58.8513 151.29 38.1215L149.436 37.609ZM139.339 36.9498L139.325 37.0018L141.187 37.4899L141.2 37.4379L139.339 36.9498ZM101.487 35.6312L140.207 38.1539L140.332 36.2337L101.613 33.7111L101.487 35.6312ZM140.32 36.2858L101.614 33.7112L101.486 35.6312L140.192 38.2058L140.32 36.2858Z" fill="black" mask="url(#path-26-inside-1)"/>
<path d="M72.6706 132.428C73.3613 126.311 77.4286 115.603 79.3759 111.014L81.4333 110.31C78.0548 119.393 75.5742 126.54 73.8867 136.489C73.5813 138.29 66.161 136.151 63.9416 134.292C61.7222 132.432 63.6085 126.911 72.6706 132.428Z" fill="#E55B42" stroke="black" stroke-width="0.742651"/>
<path d="M79.0658 110.217L78.6435 111.738L81.794 110.851L82.1847 109.644L79.0658 110.217Z" fill="#E55B42"/>
<path d="M122.491 133.546C123.181 127.429 127.249 116.722 129.196 112.132L131.253 111.428C127.875 120.511 125.394 127.658 123.707 137.608C123.401 139.408 115.981 137.269 113.762 135.41C111.542 133.55 113.429 128.029 122.491 133.546Z" fill="#E55B42" stroke="black" stroke-width="0.742651"/>
<path d="M128.884 111.369L128.462 112.89L131.643 111.869L132.061 110.556L128.884 111.369Z" fill="#E55B42"/>
<path d="M70.9396 92.4589C70.8411 93.8759 70.3182 95.1118 69.5734 95.9664C68.8289 96.8208 67.8838 97.2755 66.9156 97.2082C65.9474 97.1409 65.0743 96.5597 64.4552 95.6105C63.8359 94.661 63.4891 93.3647 63.5876 91.9476C63.6862 90.5306 64.209 89.2948 64.9538 88.4401C65.6984 87.5857 66.6435 87.131 67.6116 87.1983C68.5798 87.2656 69.4529 87.8468 70.072 88.796C70.6914 89.7455 71.0381 91.0418 70.9396 92.4589Z" fill="white" stroke="black" stroke-width="0.889789"/>
<mask id="path-33-inside-2" fill="white">
<path fill-rule="evenodd" clip-rule="evenodd" d="M66.7559 96.0718C66.0807 96.0249 65.5918 95.1467 65.6639 94.1103C65.7359 93.074 66.3417 92.2719 67.0169 92.3189C67.573 92.3575 68.0027 92.96 68.0968 93.7503L67.1993 94.1885L68.0364 94.7527C67.8433 95.5495 67.3242 96.1114 66.7559 96.0718Z"/>
</mask>
<path fill-rule="evenodd" clip-rule="evenodd" d="M66.7559 96.0718C66.0807 96.0249 65.5918 95.1467 65.6639 94.1103C65.7359 93.074 66.3417 92.2719 67.0169 92.3189C67.573 92.3575 68.0027 92.96 68.0968 93.7503L67.1993 94.1885L68.0364 94.7527C67.8433 95.5495 67.3242 96.1114 66.7559 96.0718Z" fill="black"/>
<path d="M68.0968 93.7503L68.3913 93.7152L68.4162 93.9244L68.2269 94.0168L68.0968 93.7503ZM67.1993 94.1885L67.0335 94.4344L66.6075 94.1473L67.0691 93.9219L67.1993 94.1885ZM68.0364 94.7527L68.2022 94.5067L68.3733 94.622L68.3247 94.8225L68.0364 94.7527ZM65.9597 94.1309C65.9271 94.6002 66.023 95.02 66.1888 95.3178C66.3562 95.6185 66.5718 95.7617 66.7765 95.776L66.7354 96.3677C66.2648 96.335 65.8984 96.0156 65.6705 95.6064C65.4411 95.1943 65.3285 94.6569 65.368 94.0898L65.9597 94.1309ZM66.9963 92.6147C66.7916 92.6005 66.5583 92.7125 66.3509 92.9871C66.1454 93.2591 65.9924 93.6617 65.9597 94.1309L65.368 94.0898C65.4074 93.5227 65.5933 93.006 65.8775 92.6296C66.1598 92.2558 66.567 91.9903 67.0375 92.023L66.9963 92.6147ZM67.8023 93.7853C67.7601 93.4312 67.6442 93.1346 67.4919 92.9295C67.3402 92.725 67.166 92.6265 66.9963 92.6147L67.0375 92.023C67.4238 92.0498 67.7426 92.2719 67.9683 92.5759C68.1934 92.8793 68.3394 93.2791 68.3913 93.7152L67.8023 93.7853ZM68.2269 94.0168L67.3294 94.455L67.0691 93.9219L67.9667 93.4837L68.2269 94.0168ZM67.365 93.9425L68.2022 94.5067L67.8707 94.9986L67.0335 94.4344L67.365 93.9425ZM66.7765 95.776C66.9498 95.788 67.1406 95.711 67.3226 95.5208C67.5049 95.3303 67.6615 95.0404 67.7482 94.6828L68.3247 94.8225C68.2182 95.2617 68.0188 95.6512 67.7512 95.9309C67.4832 96.211 67.1303 96.3952 66.7354 96.3677L66.7765 95.776Z" fill="black" mask="url(#path-33-inside-2)"/>
<path d="M63.6328 91.5048C63.7991 90.2737 64.2877 89.2045 64.9538 88.4401C65.6984 87.5857 66.6435 87.131 67.6116 87.1983C68.5798 87.2656 69.4529 87.8468 70.072 88.796C70.6259 89.6452 70.9618 90.7718 70.9561 92.0141L70.9547 92.014L70.9401 92.0129L70.9256 92.0119L70.9112 92.0109L70.8969 92.0099L70.8826 92.0089L70.8685 92.008L70.8544 92.007L70.8404 92.006L70.8264 92.005L70.8126 92.0041L70.7988 92.0031L70.7851 92.0022L70.7715 92.0012L70.758 92.0003L70.7445 91.9993L70.7311 91.9984L70.7178 91.9975L70.7046 91.9966L70.6915 91.9957L70.6784 91.9947L70.6654 91.9938L70.6525 91.9929L70.6396 91.992L70.6268 91.9912L70.6141 91.9903L70.6015 91.9894L70.589 91.9885L70.5765 91.9877L70.5641 91.9868L70.5517 91.9859L70.5395 91.9851L70.5273 91.9842L70.5152 91.9834L70.5031 91.9826L70.4912 91.9817L70.4792 91.9809L70.4674 91.9801L70.4556 91.9793L70.4439 91.9784L70.4323 91.9776L70.4208 91.9768L70.4093 91.976L70.3979 91.9752L70.3865 91.9744L70.3752 91.9737L70.364 91.9729L70.3528 91.9721L70.3418 91.9713L70.3307 91.9706L70.3198 91.9698L70.3089 91.969L70.2981 91.9683L70.2873 91.9675L70.2766 91.9668L70.266 91.9661L70.2554 91.9653L70.2449 91.9646L70.2345 91.9639L70.2241 91.9632L70.2138 91.9624L70.2036 91.9617L70.1934 91.961L70.1833 91.9603L70.1732 91.9596L70.1632 91.9589L70.1533 91.9582L70.1434 91.9575L70.1336 91.9569L70.1238 91.9562L70.1141 91.9555L70.1044 91.9548L70.0949 91.9542L70.0853 91.9535L70.0759 91.9528L70.0665 91.9522L70.0571 91.9515L70.0478 91.9509L70.0386 91.9503L70.0294 91.9496L70.0203 91.949L70.0112 91.9483L70.0022 91.9477L69.9932 91.9471L69.9843 91.9465L69.9755 91.9459L69.9667 91.9453L69.9579 91.9446L69.9492 91.944L69.9406 91.9434L69.932 91.9428L69.9235 91.9422L69.915 91.9417L69.9066 91.9411L69.8982 91.9405L69.8899 91.9399L69.8816 91.9393L69.8734 91.9388L69.8652 91.9382L69.8571 91.9376L69.849 91.9371L69.841 91.9365L69.833 91.936L69.8251 91.9354L69.8172 91.9349L69.8094 91.9343L69.8016 91.9338L69.7939 91.9332L69.7862 91.9327L69.7785 91.9322L69.7709 91.9316L69.7634 91.9311L69.7559 91.9306L69.7484 91.9301L69.741 91.9296L69.7336 91.929L69.7263 91.9285L69.719 91.928L69.7118 91.9275L69.7046 91.927L69.6974 91.9265L69.6903 91.926L69.6833 91.9255L69.6762 91.9251L69.6692 91.9246L69.6623 91.9241L69.6554 91.9236L69.6485 91.9231L69.6417 91.9227L69.6349 91.9222L69.6282 91.9217L69.6215 91.9212L69.6148 91.9208L69.6082 91.9203L69.6016 91.9199L69.5951 91.9194L69.5886 91.919L69.5821 91.9185L69.5757 91.9181L69.5693 91.9176L69.5629 91.9172L69.5566 91.9167L69.5503 91.9163L69.544 91.9159L69.5378 91.9154L69.5316 91.915L69.5255 91.9146L69.5194 91.9141L69.5133 91.9137L69.5072 91.9133L69.5012 91.9129L69.4952 91.9125L69.4893 91.9121L69.4833 91.9116L69.4775 91.9112L69.4716 91.9108L69.4658 91.9104L69.46 91.91L69.4542 91.9096L69.4485 91.9092L69.4428 91.9088L69.4371 91.9084L69.4315 91.908L69.4258 91.9076L69.4203 91.9073L69.4147 91.9069L69.4092 91.9065L69.4037 91.9061L69.3982 91.9057L69.3927 91.9053L69.3873 91.905L69.3819 91.9046L69.3765 91.9042L69.3712 91.9038L69.3659 91.9035L69.3606 91.9031L69.3553 91.9027L69.35 91.9024L69.3448 91.902L69.3396 91.9016L69.3344 91.9013L69.3293 91.9009L69.3242 91.9006L69.319 91.9002L69.314 91.8999L69.3089 91.8995L69.3039 91.8992L69.2988 91.8988L69.2938 91.8985L69.2888 91.8981L69.2839 91.8978L69.2789 91.8974L69.274 91.8971L69.2691 91.8967L69.2642 91.8964L69.2593 91.8961L69.2545 91.8957L69.2497 91.8954L69.2448 91.8951L69.24 91.8947L69.2353 91.8944L69.2305 91.8941L69.2257 91.8937L69.221 91.8934L69.2163 91.8931L69.2116 91.8927L69.2069 91.8924L69.2022 91.8921L69.1976 91.8918L69.1929 91.8914L69.1883 91.8911L69.1837 91.8908L69.1791 91.8905L69.1745 91.8902L69.1699 91.8898L69.1653 91.8895L69.1607 91.8892L69.1562 91.8889L69.1516 91.8886L69.1471 91.8883L69.1426 91.8879L69.1381 91.8876L69.1336 91.8873L69.1291 91.887L69.1246 91.8867L69.1201 91.8864L69.1157 91.8861L69.1112 91.8858L69.1068 91.8855L69.1023 91.8851L69.0979 91.8848L69.0935 91.8845L69.089 91.8842L69.0846 91.8839L69.0802 91.8836L69.0758 91.8833L69.0714 91.883L69.067 91.8827L69.0626 91.8824L69.0582 91.8821L69.0538 91.8818L69.0494 91.8815L69.0451 91.8812L69.0407 91.8809L69.0363 91.8806L69.0319 91.8803L69.0276 91.8799L69.0232 91.8796L69.0188 91.8793L69.0144 91.879L69.0101 91.8787L69.0057 91.8784L69.0013 91.8781L68.997 91.8778L68.9926 91.8775L68.9882 91.8772L68.9838 91.8769L68.9795 91.8766L68.9751 91.8763L68.9707 91.876L68.9663 91.8757L68.9619 91.8754L68.9575 91.8751L68.9531 91.8748L68.9487 91.8745L68.9443 91.8742L68.9399 91.8739L68.9355 91.8735L68.9311 91.8732L68.9266 91.8729L68.9222 91.8726L68.9178 91.8723L68.9133 91.872L68.9089 91.8717L68.9044 91.8714L68.8999 91.8711L68.8954 91.8708L68.8909 91.8704L68.8865 91.8701L68.8819 91.8698L68.8774 91.8695L68.8729 91.8692L68.8684 91.8689L68.8638 91.8686L68.8593 91.8682L68.8547 91.8679L68.8501 91.8676L68.8455 91.8673L68.8409 91.867L68.8363 91.8666L68.8316 91.8663L68.827 91.866L68.8223 91.8657L68.8177 91.8654L68.813 91.865L68.8083 91.8647L68.8036 91.8644L68.7988 91.864L68.7941 91.8637L68.7893 91.8634L68.7845 91.863L68.7797 91.8627L68.7749 91.8624L68.7701 91.862L68.7652 91.8617L68.7604 91.8614L68.7555 91.861L68.7506 91.8607L68.7457 91.8603L68.7407 91.86L68.7358 91.8597L68.7308 91.8593L68.7258 91.859L68.7208 91.8586L68.7157 91.8583L68.7107 91.8579L68.7056 91.8576L68.7005 91.8572L68.6953 91.8568L68.6902 91.8565L68.685 91.8561L68.6798 91.8558L68.6746 91.8554L68.6693 91.855L68.6641 91.8547L68.6588 91.8543L68.6535 91.8539L68.6481 91.8536L68.6427 91.8532L68.6373 91.8528L68.6319 91.8524L68.6265 91.8521L68.621 91.8517L68.6155 91.8513L68.61 91.8509L68.6044 91.8505L68.5988 91.8501L68.5932 91.8497L68.5876 91.8494L68.5819 91.849L68.5762 91.8486L68.5705 91.8482L68.5647 91.8478L68.5589 91.8474L68.5531 91.847L68.5473 91.8466L68.5414 91.8461L68.5355 91.8457L68.5295 91.8453L68.5235 91.8449L68.5175 91.8445L68.5115 91.8441L68.5054 91.8436L68.4993 91.8432L68.4931 91.8428L68.4869 91.8424L68.4807 91.8419L68.4745 91.8415L68.4682 91.8411L68.4619 91.8406L68.4555 91.8402L68.4491 91.8397L68.4427 91.8393L68.4362 91.8388L68.4297 91.8384L68.4232 91.8379L68.4166 91.8375L68.41 91.837L68.4033 91.8365L68.3966 91.8361L68.3899 91.8356L68.3831 91.8351L68.3763 91.8347L68.3694 91.8342L68.3625 91.8337L68.3556 91.8332L68.3486 91.8327L68.3416 91.8323L68.3345 91.8318L68.3274 91.8313L68.3203 91.8308L68.3131 91.8303L68.3059 91.8298L68.2986 91.8293L68.2913 91.8288L68.2839 91.8282L68.2765 91.8277L68.269 91.8272L68.2615 91.8267L68.254 91.8262L68.2464 91.8256L68.2388 91.8251L68.2311 91.8246L68.2234 91.824L68.2156 91.8235L68.2078 91.8229L68.1999 91.8224L68.192 91.8218L68.184 91.8213L68.176 91.8207L68.1679 91.8202L68.1598 91.8196L68.1516 91.819L68.1434 91.8185L68.1351 91.8179L68.1268 91.8173L68.1184 91.8167L68.11 91.8161L68.1016 91.8156L68.093 91.815L68.0845 91.8144L68.0758 91.8138L68.0671 91.8132L68.0584 91.8126L68.0496 91.8119L68.0408 91.8113L68.0319 91.8107L68.0229 91.8101L68.0139 91.8095L68.0048 91.8088L67.9957 91.8082L67.9866 91.8076L67.9773 91.8069L67.968 91.8063L67.9587 91.8056L67.9493 91.805L67.9398 91.8043L67.9303 91.8036L67.9207 91.803L67.9111 91.8023L67.9014 91.8016L67.8916 91.801L67.8818 91.8003L67.872 91.7996L67.862 91.7989L67.852 91.7982L67.842 91.7975L67.8319 91.7968L67.8217 91.7961L67.8114 91.7954L67.8011 91.7947L67.7908 91.7939L67.7803 91.7932L67.7698 91.7925L67.7593 91.7918L67.7487 91.791L67.738 91.7903L67.7272 91.7895L67.7164 91.7888L67.7055 91.788L67.6946 91.7873L67.6836 91.7865L67.6725 91.7857L67.6614 91.7849L67.6502 91.7842L67.6389 91.7834L67.6275 91.7826L67.6161 91.7818L67.6046 91.781L67.5931 91.7802L67.5815 91.7794L67.5698 91.7786L67.558 91.7778L67.5462 91.7769L67.5343 91.7761L67.5223 91.7753L67.5103 91.7744L67.4982 91.7736L67.486 91.7728L67.4738 91.7719L67.4614 91.771L67.449 91.7702L67.4366 91.7693L67.424 91.7684L67.4114 91.7676L67.3987 91.7667L67.3859 91.7658L67.3731 91.7649L67.3602 91.764L67.3472 91.7631L67.3341 91.7622L67.321 91.7613L67.3078 91.7604L67.2945 91.7594L67.2812 91.7585L67.268 91.7576L67.2548 91.7567L67.2417 91.7558L67.2287 91.7549L67.2158 91.754L67.2029 91.7531L67.1902 91.7522L67.1774 91.7513L67.1648 91.7504L67.1522 91.7495L67.1397 91.7487L67.1273 91.7478L67.1149 91.747L67.1026 91.7461L67.0904 91.7452L67.0782 91.7444L67.0662 91.7436L67.0541 91.7427L67.0422 91.7419L67.0303 91.7411L67.0185 91.7402L67.0067 91.7394L66.995 91.7386L66.9834 91.7378L66.9719 91.737L66.9604 91.7362L66.949 91.7354L66.9376 91.7346L66.9263 91.7338L66.9151 91.7331L66.9039 91.7323L66.8928 91.7315L66.8818 91.7307L66.8708 91.73L66.8599 91.7292L66.8491 91.7285L66.8383 91.7277L66.8275 91.727L66.8169 91.7262L66.8063 91.7255L66.7957 91.7248L66.7853 91.724L66.7748 91.7233L66.7645 91.7226L66.7542 91.7219L66.7439 91.7212L66.7338 91.7204L66.7236 91.7197L66.7136 91.719L66.7036 91.7183L66.6936 91.7177L66.6837 91.717L66.6739 91.7163L66.6641 91.7156L66.6544 91.7149L66.6448 91.7143L66.6351 91.7136L66.6256 91.7129L66.6161 91.7123L66.6067 91.7116L66.5973 91.711L66.5879 91.7103L66.5787 91.7097L66.5694 91.709L66.5603 91.7084L66.5512 91.7077L66.5421 91.7071L66.5331 91.7065L66.5241 91.7059L66.5152 91.7053L66.5064 91.7046L66.4976 91.704L66.4888 91.7034L66.4801 91.7028L66.4715 91.7022L66.4629 91.7016L66.4543 91.701L66.4458 91.7004L66.4373 91.6998L66.4289 91.6993L66.4206 91.6987L66.4123 91.6981L66.404 91.6975L66.3958 91.6969L66.3876 91.6964L66.3795 91.6958L66.3715 91.6953L66.3634 91.6947L66.3555 91.6941L66.3475 91.6936L66.3396 91.693L66.3318 91.6925L66.324 91.692L66.3162 91.6914L66.3085 91.6909L66.3009 91.6903L66.2932 91.6898L66.2857 91.6893L66.2781 91.6888L66.2706 91.6882L66.2632 91.6877L66.2558 91.6872L66.2484 91.6867L66.2411 91.6862L66.2338 91.6857L66.2266 91.6852L66.2194 91.6847L66.2122 91.6842L66.2051 91.6837L66.198 91.6832L66.191 91.6827L66.1839 91.6822L66.177 91.6817L66.1701 91.6812L66.1632 91.6808L66.1563 91.6803L66.1495 91.6798L66.1427 91.6793L66.136 91.6789L66.1293 91.6784L66.1226 91.6779L66.116 91.6775L66.1094 91.677L66.1028 91.6766L66.0963 91.6761L66.0898 91.6757L66.0833 91.6752L66.0769 91.6748L66.0705 91.6743L66.0642 91.6739L66.0578 91.6734L66.0515 91.673L66.0453 91.6726L66.0391 91.6721L66.0329 91.6717L66.0267 91.6713L66.0206 91.6709L66.0145 91.6704L66.0084 91.67L66.0023 91.6696L65.9963 91.6692L65.9903 91.6688L65.9844 91.6683L65.9785 91.6679L65.9726 91.6675L65.9667 91.6671L65.9609 91.6667L65.9551 91.6663L65.9493 91.6659L65.9435 91.6655L65.9378 91.6651L65.9321 91.6647L65.9264 91.6643L65.9207 91.6639L65.9151 91.6635L65.9095 91.6631L65.9039 91.6627L65.8984 91.6624L65.8929 91.662L65.8874 91.6616L65.8819 91.6612L65.8764 91.6608L65.871 91.6605L65.8656 91.6601L65.8602 91.6597L65.8548 91.6593L65.8495 91.659L65.8442 91.6586L65.8388 91.6582L65.8336 91.6579L65.8283 91.6575L65.8231 91.6571L65.8178 91.6568L65.8126 91.6564L65.8075 91.656L65.8023 91.6557L65.7972 91.6553L65.792 91.655L65.7869 91.6546L65.7818 91.6543L65.7768 91.6539L65.7717 91.6535L65.7667 91.6532L65.7616 91.6529L65.7566 91.6525L65.7516 91.6522L65.7467 91.6518L65.7417 91.6515L65.7368 91.6511L65.7318 91.6508L65.7269 91.6504L65.722 91.6501L65.7171 91.6498L65.7123 91.6494L65.7074 91.6491L65.7026 91.6487L65.6977 91.6484L65.6929 91.6481L65.6881 91.6477L65.6833 91.6474L65.6785 91.6471L65.6737 91.6467L65.6689 91.6464L65.6642 91.6461L65.6594 91.6457L65.6547 91.6454L65.65 91.6451L65.6453 91.6448L65.6405 91.6444L65.6358 91.6441L65.6312 91.6438L65.6265 91.6435L65.6218 91.6431L65.6171 91.6428L65.6124 91.6425L65.6078 91.6422L65.6031 91.6418L65.5985 91.6415L65.5939 91.6412L65.5892 91.6409L65.5846 91.6405L65.58 91.6402L65.5753 91.6399L65.5707 91.6396L65.5661 91.6393L65.5615 91.6389L65.5569 91.6386L65.5523 91.6383L65.5477 91.638L65.5431 91.6377L65.5385 91.6373L65.5339 91.637L65.5293 91.6367L65.5247 91.6364L65.5201 91.6361L65.5155 91.6357L65.5109 91.6354L65.5063 91.6351L65.5017 91.6348L65.4971 91.6345L65.4926 91.6341L65.488 91.6338L65.4834 91.6335L65.4788 91.6332L65.4741 91.6329L65.4695 91.6325L65.4649 91.6322L65.4603 91.6319L65.4557 91.6316L65.4511 91.6313L65.4465 91.6309L65.4418 91.6306L65.4372 91.6303L65.4326 91.63L65.4279 91.6296L65.4233 91.6293L65.4186 91.629L65.4139 91.6287L65.4093 91.6283L65.4046 91.628L65.3999 91.6277L65.3952 91.6274L65.3905 91.627L65.3858 91.6267L65.3811 91.6264L65.3763 91.6261L65.3716 91.6257L65.3669 91.6254L65.3621 91.6251L65.3573 91.6247L65.3526 91.6244L65.3478 91.6241L65.343 91.6237L65.3382 91.6234L65.3333 91.6231L65.3285 91.6227L65.3237 91.6224L65.3188 91.6221L65.3139 91.6217L65.309 91.6214L65.3041 91.621L65.2992 91.6207L65.2943 91.6204L65.2894 91.62L65.2844 91.6197L65.2794 91.6193L65.2744 91.619L65.2694 91.6186L65.2644 91.6183L65.2594 91.6179L65.2543 91.6176L65.2492 91.6172L65.2442 91.6169L65.239 91.6165L65.2339 91.6162L65.2288 91.6158L65.2236 91.6154L65.2184 91.6151L65.2132 91.6147L65.208 91.6144L65.2028 91.614L65.1975 91.6136L65.1922 91.6133L65.1869 91.6129L65.1816 91.6125L65.1763 91.6121L65.1709 91.6118L65.1655 91.6114L65.1601 91.611L65.1547 91.6106L65.1492 91.6103L65.1437 91.6099L65.1382 91.6095L65.1327 91.6091L65.1272 91.6087L65.1216 91.6083L65.116 91.608L65.1104 91.6076L65.1047 91.6072L65.099 91.6068L65.0933 91.6064L65.0876 91.606L65.0819 91.6056L65.0761 91.6052L65.0703 91.6048L65.0644 91.6044L65.0586 91.604L65.0527 91.6036L65.0467 91.6031L65.0408 91.6027L65.0348 91.6023L65.0288 91.6019L65.0228 91.6015L65.0167 91.601L65.0106 91.6006L65.0045 91.6002L64.9983 91.5998L64.9921 91.5993L64.9859 91.5989L64.9796 91.5985L64.9733 91.598L64.967 91.5976L64.9606 91.5972L64.9543 91.5967L64.9478 91.5963L64.9414 91.5958L64.9349 91.5954L64.9284 91.5949L64.9218 91.5945L64.9152 91.594L64.9086 91.5935L64.9019 91.5931L64.8952 91.5926L64.8885 91.5921L64.8817 91.5917L64.8749 91.5912L64.868 91.5907L64.8611 91.5902L64.8542 91.5898L64.8473 91.5893L64.8403 91.5888L64.8332 91.5883L64.8261 91.5878L64.819 91.5873L64.8119 91.5868L64.8047 91.5863L64.7974 91.5858L64.7901 91.5853L64.7828 91.5848L64.7754 91.5843L64.768 91.5838L64.7606 91.5832L64.7531 91.5827L64.7456 91.5822L64.738 91.5817L64.7304 91.5811L64.7227 91.5806L64.715 91.5801L64.7073 91.5795L64.6995 91.579L64.6916 91.5784L64.6837 91.5779L64.6758 91.5773L64.6678 91.5768L64.6598 91.5762L64.6518 91.5757L64.6436 91.5751L64.6355 91.5745L64.6273 91.574L64.619 91.5734L64.6107 91.5728L64.6024 91.5722L64.594 91.5717L64.5855 91.5711L64.577 91.5705L64.5685 91.5699L64.5599 91.5693L64.5512 91.5687L64.5425 91.5681L64.5338 91.5675L64.525 91.5669L64.5161 91.5662L64.5072 91.5656L64.4983 91.565L64.4893 91.5644L64.4802 91.5637L64.4711 91.5631L64.4619 91.5625L64.4527 91.5618L64.4434 91.5612L64.4341 91.5605L64.4247 91.5599L64.4153 91.5592L64.4058 91.5586L64.3962 91.5579L64.3866 91.5572L64.377 91.5566L64.3673 91.5559L64.3575 91.5552L64.3477 91.5545L64.3378 91.5538L64.3278 91.5531L64.3178 91.5525L64.3078 91.5518L64.2977 91.5511L64.2875 91.5503L64.2773 91.5496L64.267 91.5489L64.2566 91.5482L64.2462 91.5475L64.2357 91.5467L64.2252 91.546L64.2146 91.5453L64.2039 91.5445L64.1932 91.5438L64.1824 91.543L64.1716 91.5423L64.1607 91.5415L64.1497 91.5408L64.1387 91.54L64.1276 91.5392L64.1164 91.5384L64.1052 91.5377L64.0939 91.5369L64.0826 91.5361L64.0711 91.5353L64.0597 91.5345L64.0481 91.5337L64.0365 91.5329L64.0248 91.5321L64.0131 91.5313L64.0013 91.5304L63.9894 91.5296L63.9774 91.5288L63.9654 91.5279L63.9533 91.5271L63.9412 91.5263L63.9289 91.5254L63.9167 91.5246L63.9043 91.5237L63.8919 91.5228L63.8794 91.522L63.8668 91.5211L63.8542 91.5202L63.8414 91.5193L63.8287 91.5184L63.8158 91.5175L63.8029 91.5166L63.7899 91.5157L63.7768 91.5148L63.7637 91.5139L63.7505 91.513L63.7372 91.5121L63.7238 91.5111L63.7104 91.5102L63.6969 91.5093L63.6833 91.5083L63.6696 91.5074L63.6559 91.5064L63.6421 91.5055L63.6328 91.5048Z" fill="#E55B42" stroke="black" stroke-width="0.889789"/>
<path d="M78.1162 92.9569C78.0177 94.374 77.4948 95.6098 76.7501 96.4644C76.0055 97.3188 75.0604 97.7736 74.0922 97.7063C73.1241 97.6389 72.251 97.0578 71.6318 96.1085C71.0125 95.1591 70.6657 93.8627 70.7643 92.4457C70.8628 91.0286 71.3857 89.7928 72.1304 88.9382C72.875 88.0838 73.8201 87.629 74.7883 87.6964C75.7565 87.7637 76.6295 88.3449 77.2487 89.2941C77.868 90.2436 78.2148 91.5399 78.1162 92.9569Z" fill="white" stroke="black" stroke-width="0.889789"/>
<mask id="path-37-inside-3" fill="white">
<path fill-rule="evenodd" clip-rule="evenodd" d="M74.1982 96.5897C73.523 96.5427 73.034 95.6645 73.1061 94.6282C73.1782 93.5918 73.7839 92.7897 74.4591 92.8367C75.0151 92.8753 75.4448 93.4777 75.539 94.2678L74.6414 94.706L75.4787 95.2704C75.2856 96.0672 74.7665 96.6292 74.1982 96.5897Z"/>
</mask>
<path fill-rule="evenodd" clip-rule="evenodd" d="M74.1982 96.5897C73.523 96.5427 73.034 95.6645 73.1061 94.6282C73.1782 93.5918 73.7839 92.7897 74.4591 92.8367C75.0151 92.8753 75.4448 93.4777 75.539 94.2678L74.6414 94.706L75.4787 95.2704C75.2856 96.0672 74.7665 96.6292 74.1982 96.5897Z" fill="black"/>
<path d="M75.539 94.2678L75.8335 94.2327L75.8584 94.4419L75.6691 94.5343L75.539 94.2678ZM74.6414 94.706L74.4756 94.952L74.0496 94.6649L74.5113 94.4395L74.6414 94.706ZM75.4787 95.2704L75.6445 95.0244L75.8155 95.1397L75.767 95.3402L75.4787 95.2704ZM73.402 94.6487C73.3693 95.118 73.4652 95.5378 73.631 95.8357C73.7985 96.1364 74.0141 96.2796 74.2187 96.2938L74.1776 96.8856C73.7071 96.8528 73.3406 96.5335 73.1128 96.1242C72.8833 95.7121 72.7708 95.1747 72.8102 94.6076L73.402 94.6487ZM74.4386 93.1326C74.2339 93.1183 74.0005 93.2303 73.7931 93.5049C73.5877 93.7769 73.4346 94.1795 73.402 94.6487L72.8102 94.6076C72.8496 94.0405 73.0355 93.5238 73.3198 93.1474C73.6021 92.7737 74.0092 92.5081 74.4797 92.5408L74.4386 93.1326ZM75.2445 94.3029C75.2023 93.9488 75.0863 93.6523 74.9341 93.4472C74.7824 93.2428 74.6083 93.1444 74.4386 93.1326L74.4797 92.5408C74.866 92.5677 75.1848 92.7897 75.4104 93.0936C75.6356 93.397 75.7815 93.7966 75.8335 94.2327L75.2445 94.3029ZM75.6691 94.5343L74.7715 94.9726L74.5113 94.4395L75.4089 94.0013L75.6691 94.5343ZM74.8071 94.4601L75.6445 95.0244L75.3129 95.5163L74.4756 94.952L74.8071 94.4601ZM74.2187 96.2938C74.392 96.3058 74.5829 96.2288 74.7648 96.0386C74.9472 95.848 75.1038 95.5582 75.1905 95.2005L75.767 95.3402C75.6605 95.7794 75.461 96.169 75.1935 96.4487C74.9255 96.7288 74.5726 96.913 74.1776 96.8856L74.2187 96.2938Z" fill="black" mask="url(#path-37-inside-3)"/>
<path d="M70.8095 92.0029C70.9758 90.7718 71.4644 89.7025 72.1304 88.9382C72.875 88.0838 73.8201 87.629 74.7883 87.6964C75.7565 87.7637 76.6295 88.3449 77.2487 89.2941C77.8026 90.1432 78.1385 91.2698 78.1328 92.5121L78.1313 92.512L78.1167 92.511L78.1022 92.51L78.0878 92.509L78.0735 92.508L78.0593 92.507L78.0451 92.506L78.031 92.505L78.017 92.5041L78.0031 92.5031L77.9892 92.5021L77.9755 92.5012L77.9618 92.5002L77.9482 92.4993L77.9346 92.4983L77.9212 92.4974L77.9078 92.4965L77.8945 92.4955L77.8813 92.4946L77.8681 92.4937L77.855 92.4928L77.842 92.4919L77.8291 92.491L77.8163 92.4901L77.8035 92.4892L77.7908 92.4883L77.7782 92.4874L77.7656 92.4866L77.7531 92.4857L77.7407 92.4848L77.7284 92.484L77.7161 92.4831L77.7039 92.4823L77.6918 92.4814L77.6798 92.4806L77.6678 92.4798L77.6559 92.4789L77.644 92.4781L77.6323 92.4773L77.6206 92.4765L77.609 92.4757L77.5974 92.4749L77.5859 92.4741L77.5745 92.4733L77.5631 92.4725L77.5519 92.4717L77.5406 92.4709L77.5295 92.4702L77.5184 92.4694L77.5074 92.4686L77.4964 92.4679L77.4855 92.4671L77.4747 92.4663L77.464 92.4656L77.4533 92.4649L77.4426 92.4641L77.4321 92.4634L77.4216 92.4626L77.4111 92.4619L77.4008 92.4612L77.3905 92.4605L77.3802 92.4598L77.37 92.4591L77.3599 92.4584L77.3498 92.4577L77.3398 92.457L77.3299 92.4563L77.32 92.4556L77.3102 92.4549L77.3004 92.4542L77.2907 92.4535L77.2811 92.4529L77.2715 92.4522L77.262 92.4515L77.2525 92.4509L77.2431 92.4502L77.2337 92.4496L77.2244 92.4489L77.2152 92.4483L77.206 92.4477L77.1969 92.447L77.1878 92.4464L77.1788 92.4458L77.1699 92.4451L77.1609 92.4445L77.1521 92.4439L77.1433 92.4433L77.1346 92.4427L77.1259 92.4421L77.1172 92.4415L77.1086 92.4409L77.1001 92.4403L77.0916 92.4397L77.0832 92.4391L77.0748 92.4385L77.0665 92.438L77.0582 92.4374L77.05 92.4368L77.0418 92.4362L77.0337 92.4357L77.0256 92.4351L77.0176 92.4346L77.0096 92.434L77.0017 92.4335L76.9938 92.4329L76.986 92.4324L76.9782 92.4318L76.9705 92.4313L76.9628 92.4307L76.9552 92.4302L76.9476 92.4297L76.94 92.4292L76.9325 92.4286L76.925 92.4281L76.9176 92.4276L76.9103 92.4271L76.9029 92.4266L76.8957 92.4261L76.8884 92.4256L76.8812 92.4251L76.8741 92.4246L76.867 92.4241L76.8599 92.4236L76.8529 92.4231L76.8459 92.4226L76.8389 92.4221L76.832 92.4217L76.8252 92.4212L76.8184 92.4207L76.8116 92.4202L76.8048 92.4198L76.7981 92.4193L76.7915 92.4188L76.7848 92.4184L76.7783 92.4179L76.7717 92.4175L76.7652 92.417L76.7587 92.4166L76.7523 92.4161L76.7459 92.4157L76.7395 92.4152L76.7332 92.4148L76.7269 92.4143L76.7207 92.4139L76.7144 92.4135L76.7083 92.413L76.7021 92.4126L76.696 92.4122L76.6899 92.4118L76.6839 92.4113L76.6778 92.4109L76.6719 92.4105L76.6659 92.4101L76.66 92.4097L76.6541 92.4093L76.6482 92.4089L76.6424 92.4085L76.6366 92.4081L76.6309 92.4077L76.6251 92.4073L76.6194 92.4069L76.6137 92.4065L76.6081 92.4061L76.6025 92.4057L76.5969 92.4053L76.5913 92.4049L76.5858 92.4045L76.5803 92.4041L76.5748 92.4038L76.5694 92.4034L76.5639 92.403L76.5585 92.4026L76.5532 92.4023L76.5478 92.4019L76.5425 92.4015L76.5372 92.4012L76.5319 92.4008L76.5267 92.4004L76.5215 92.4001L76.5163 92.3997L76.5111 92.3993L76.5059 92.399L76.5008 92.3986L76.4957 92.3983L76.4906 92.3979L76.4855 92.3976L76.4805 92.3972L76.4755 92.3969L76.4705 92.3965L76.4655 92.3962L76.4605 92.3958L76.4556 92.3955L76.4506 92.3951L76.4457 92.3948L76.4408 92.3945L76.436 92.3941L76.4311 92.3938L76.4263 92.3934L76.4215 92.3931L76.4167 92.3928L76.4119 92.3924L76.4071 92.3921L76.4024 92.3918L76.3976 92.3914L76.3929 92.3911L76.3882 92.3908L76.3835 92.3905L76.3789 92.3901L76.3742 92.3898L76.3696 92.3895L76.3649 92.3892L76.3603 92.3889L76.3557 92.3885L76.3511 92.3882L76.3465 92.3879L76.3419 92.3876L76.3374 92.3873L76.3328 92.3869L76.3283 92.3866L76.3238 92.3863L76.3192 92.386L76.3147 92.3857L76.3102 92.3854L76.3057 92.3851L76.3013 92.3847L76.2968 92.3844L76.2923 92.3841L76.2879 92.3838L76.2834 92.3835L76.279 92.3832L76.2745 92.3829L76.2701 92.3826L76.2657 92.3823L76.2613 92.382L76.2568 92.3817L76.2524 92.3814L76.248 92.381L76.2436 92.3807L76.2392 92.3804L76.2349 92.3801L76.2305 92.3798L76.2261 92.3795L76.2217 92.3792L76.2173 92.3789L76.2129 92.3786L76.2086 92.3783L76.2042 92.378L76.1998 92.3777L76.1955 92.3774L76.1911 92.3771L76.1867 92.3768L76.1823 92.3765L76.178 92.3762L76.1736 92.3759L76.1692 92.3756L76.1649 92.3753L76.1605 92.375L76.1561 92.3747L76.1517 92.3743L76.1473 92.374L76.1429 92.3737L76.1386 92.3734L76.1342 92.3731L76.1298 92.3728L76.1254 92.3725L76.121 92.3722L76.1165 92.3719L76.1121 92.3716L76.1077 92.3713L76.1033 92.371L76.0988 92.3707L76.0944 92.3704L76.0899 92.3701L76.0855 92.3697L76.081 92.3694L76.0766 92.3691L76.0721 92.3688L76.0676 92.3685L76.0631 92.3682L76.0586 92.3679L76.0541 92.3676L76.0495 92.3672L76.045 92.3669L76.0404 92.3666L76.0359 92.3663L76.0313 92.366L76.0267 92.3657L76.0221 92.3653L76.0175 92.365L76.0129 92.3647L76.0083 92.3644L76.0036 92.364L75.999 92.3637L75.9943 92.3634L75.9896 92.3631L75.9849 92.3627L75.9802 92.3624L75.9755 92.3621L75.9707 92.3618L75.9659 92.3614L75.9612 92.3611L75.9564 92.3608L75.9516 92.3604L75.9467 92.3601L75.9419 92.3598L75.937 92.3594L75.9321 92.3591L75.9272 92.3587L75.9223 92.3584L75.9174 92.3581L75.9124 92.3577L75.9074 92.3574L75.9024 92.357L75.8974 92.3567L75.8924 92.3563L75.8873 92.356L75.8822 92.3556L75.8771 92.3553L75.872 92.3549L75.8668 92.3545L75.8616 92.3542L75.8564 92.3538L75.8512 92.3535L75.846 92.3531L75.8407 92.3527L75.8354 92.3524L75.8301 92.352L75.8247 92.3516L75.8194 92.3512L75.814 92.3509L75.8086 92.3505L75.8031 92.3501L75.7976 92.3497L75.7921 92.3493L75.7866 92.349L75.7811 92.3486L75.7755 92.3482L75.7699 92.3478L75.7642 92.3474L75.7585 92.347L75.7528 92.3466L75.7471 92.3462L75.7414 92.3458L75.7356 92.3454L75.7297 92.345L75.7239 92.3446L75.718 92.3442L75.7121 92.3438L75.7061 92.3434L75.7002 92.3429L75.6941 92.3425L75.6881 92.3421L75.682 92.3417L75.6759 92.3413L75.6698 92.3408L75.6636 92.3404L75.6574 92.34L75.6511 92.3395L75.6448 92.3391L75.6385 92.3387L75.6321 92.3382L75.6258 92.3378L75.6193 92.3373L75.6129 92.3369L75.6064 92.3364L75.5998 92.336L75.5932 92.3355L75.5866 92.3351L75.5799 92.3346L75.5733 92.3341L75.5665 92.3337L75.5597 92.3332L75.5529 92.3327L75.5461 92.3322L75.5392 92.3318L75.5322 92.3313L75.5253 92.3308L75.5182 92.3303L75.5112 92.3298L75.5041 92.3293L75.4969 92.3288L75.4897 92.3283L75.4825 92.3278L75.4752 92.3273L75.4679 92.3268L75.4605 92.3263L75.4531 92.3258L75.4457 92.3253L75.4382 92.3247L75.4306 92.3242L75.423 92.3237L75.4154 92.3231L75.4077 92.3226L75.4 92.3221L75.3922 92.3215L75.3844 92.321L75.3765 92.3204L75.3686 92.3199L75.3606 92.3193L75.3526 92.3188L75.3445 92.3182L75.3364 92.3177L75.3283 92.3171L75.32 92.3165L75.3118 92.3159L75.3035 92.3154L75.2951 92.3148L75.2867 92.3142L75.2782 92.3136L75.2697 92.313L75.2611 92.3124L75.2525 92.3118L75.2438 92.3112L75.235 92.3106L75.2263 92.31L75.2174 92.3094L75.2085 92.3088L75.1996 92.3081L75.1905 92.3075L75.1815 92.3069L75.1724 92.3062L75.1632 92.3056L75.154 92.305L75.1447 92.3043L75.1353 92.3037L75.1259 92.303L75.1165 92.3024L75.1069 92.3017L75.0974 92.301L75.0877 92.3004L75.078 92.2997L75.0683 92.299L75.0585 92.2983L75.0486 92.2976L75.0387 92.2969L75.0287 92.2963L75.0186 92.2956L75.0085 92.2949L74.9983 92.2941L74.9881 92.2934L74.9778 92.2927L74.9674 92.292L74.957 92.2913L74.9465 92.2905L74.9359 92.2898L74.9253 92.2891L74.9146 92.2883L74.9039 92.2876L74.8931 92.2868L74.8822 92.2861L74.8712 92.2853L74.8602 92.2845L74.8491 92.2838L74.838 92.283L74.8268 92.2822L74.8155 92.2814L74.8042 92.2806L74.7928 92.2799L74.7813 92.2791L74.7697 92.2782L74.7581 92.2774L74.7464 92.2766L74.7347 92.2758L74.7228 92.275L74.7109 92.2742L74.699 92.2733L74.6869 92.2725L74.6748 92.2716L74.6626 92.2708L74.6504 92.27L74.6381 92.2691L74.6257 92.2682L74.6132 92.2674L74.6007 92.2665L74.588 92.2656L74.5753 92.2647L74.5626 92.2638L74.5497 92.263L74.5368 92.2621L74.5238 92.2612L74.5108 92.2602L74.4976 92.2593L74.4844 92.2584L74.4711 92.2575L74.4578 92.2566L74.4446 92.2556L74.4315 92.2547L74.4184 92.2538L74.4054 92.2529L74.3924 92.252L74.3796 92.2511L74.3668 92.2502L74.3541 92.2493L74.3414 92.2485L74.3289 92.2476L74.3164 92.2467L74.3039 92.2459L74.2916 92.245L74.2793 92.2441L74.267 92.2433L74.2549 92.2424L74.2428 92.2416L74.2308 92.2408L74.2188 92.2399L74.2069 92.2391L74.1951 92.2383L74.1834 92.2375L74.1717 92.2367L74.1601 92.2359L74.1485 92.2351L74.137 92.2343L74.1256 92.2335L74.1142 92.2327L74.1029 92.2319L74.0917 92.2311L74.0806 92.2303L74.0695 92.2296L74.0584 92.2288L74.0474 92.228L74.0365 92.2273L74.0257 92.2265L74.0149 92.2258L74.0042 92.225L73.9935 92.2243L73.9829 92.2235L73.9724 92.2228L73.9619 92.2221L73.9515 92.2214L73.9411 92.2206L73.9308 92.2199L73.9206 92.2192L73.9104 92.2185L73.9003 92.2178L73.8902 92.2171L73.8802 92.2164L73.8703 92.2157L73.8604 92.215L73.8505 92.2143L73.8408 92.2137L73.831 92.213L73.8214 92.2123L73.8118 92.2116L73.8022 92.211L73.7927 92.2103L73.7833 92.2097L73.7739 92.209L73.7646 92.2084L73.7553 92.2077L73.7461 92.2071L73.7369 92.2064L73.7278 92.2058L73.7187 92.2052L73.7097 92.2045L73.7008 92.2039L73.6919 92.2033L73.683 92.2027L73.6742 92.2021L73.6654 92.2015L73.6567 92.2009L73.6481 92.2003L73.6395 92.1997L73.6309 92.1991L73.6224 92.1985L73.614 92.1979L73.6056 92.1973L73.5972 92.1967L73.5889 92.1961L73.5807 92.1956L73.5724 92.195L73.5643 92.1944L73.5562 92.1939L73.5481 92.1933L73.5401 92.1927L73.5321 92.1922L73.5242 92.1916L73.5163 92.1911L73.5084 92.1905L73.5006 92.19L73.4929 92.1895L73.4852 92.1889L73.4775 92.1884L73.4699 92.1879L73.4623 92.1873L73.4548 92.1868L73.4473 92.1863L73.4398 92.1858L73.4324 92.1853L73.4251 92.1847L73.4177 92.1842L73.4104 92.1837L73.4032 92.1832L73.396 92.1827L73.3888 92.1822L73.3817 92.1817L73.3746 92.1812L73.3676 92.1807L73.3606 92.1803L73.3536 92.1798L73.3467 92.1793L73.3398 92.1788L73.3329 92.1783L73.3261 92.1779L73.3194 92.1774L73.3126 92.1769L73.3059 92.1765L73.2992 92.176L73.2926 92.1755L73.286 92.1751L73.2794 92.1746L73.2729 92.1742L73.2664 92.1737L73.26 92.1733L73.2535 92.1728L73.2472 92.1724L73.2408 92.1719L73.2345 92.1715L73.2282 92.1711L73.2219 92.1706L73.2157 92.1702L73.2095 92.1698L73.2033 92.1693L73.1972 92.1689L73.1911 92.1685L73.185 92.1681L73.179 92.1676L73.173 92.1672L73.167 92.1668L73.161 92.1664L73.1551 92.166L73.1492 92.1656L73.1433 92.1652L73.1375 92.1648L73.1317 92.1643L73.1259 92.1639L73.1201 92.1635L73.1144 92.1631L73.1087 92.1627L73.103 92.1624L73.0974 92.162L73.0918 92.1616L73.0862 92.1612L73.0806 92.1608L73.075 92.1604L73.0695 92.16L73.064 92.1596L73.0585 92.1593L73.0531 92.1589L73.0476 92.1585L73.0422 92.1581L73.0368 92.1577L73.0315 92.1574L73.0261 92.157L73.0208 92.1566L73.0155 92.1563L73.0102 92.1559L73.0049 92.1555L72.9997 92.1552L72.9945 92.1548L72.9893 92.1544L72.9841 92.1541L72.9789 92.1537L72.9738 92.1534L72.9687 92.153L72.9636 92.1527L72.9585 92.1523L72.9534 92.1519L72.9483 92.1516L72.9433 92.1512L72.9383 92.1509L72.9333 92.1505L72.9283 92.1502L72.9233 92.1499L72.9184 92.1495L72.9134 92.1492L72.9085 92.1488L72.9036 92.1485L72.8987 92.1481L72.8938 92.1478L72.8889 92.1475L72.884 92.1471L72.8792 92.1468L72.8744 92.1465L72.8695 92.1461L72.8647 92.1458L72.8599 92.1454L72.8551 92.1451L72.8504 92.1448L72.8456 92.1445L72.8408 92.1441L72.8361 92.1438L72.8313 92.1435L72.8266 92.1431L72.8219 92.1428L72.8172 92.1425L72.8125 92.1421L72.8078 92.1418L72.8031 92.1415L72.7984 92.1412L72.7937 92.1408L72.7891 92.1405L72.7844 92.1402L72.7798 92.1399L72.7751 92.1396L72.7705 92.1392L72.7659 92.1389L72.7612 92.1386L72.7566 92.1383L72.752 92.1379L72.7474 92.1376L72.7427 92.1373L72.7381 92.137L72.7335 92.1367L72.7289 92.1363L72.7243 92.136L72.7197 92.1357L72.7151 92.1354L72.7105 92.1351L72.7059 92.1347L72.7013 92.1344L72.6967 92.1341L72.6922 92.1338L72.6876 92.1335L72.683 92.1331L72.6784 92.1328L72.6738 92.1325L72.6692 92.1322L72.6646 92.1319L72.66 92.1315L72.6554 92.1312L72.6508 92.1309L72.6462 92.1306L72.6416 92.1303L72.637 92.1299L72.6323 92.1296L72.6277 92.1293L72.6231 92.129L72.6185 92.1287L72.6138 92.1283L72.6092 92.128L72.6045 92.1277L72.5999 92.1274L72.5952 92.127L72.5906 92.1267L72.5859 92.1264L72.5812 92.1261L72.5765 92.1257L72.5718 92.1254L72.5671 92.1251L72.5624 92.1248L72.5577 92.1244L72.553 92.1241L72.5482 92.1238L72.5435 92.1234L72.5387 92.1231L72.534 92.1228L72.5292 92.1225L72.5244 92.1221L72.5196 92.1218L72.5148 92.1214L72.51 92.1211L72.5051 92.1208L72.5003 92.1204L72.4954 92.1201L72.4906 92.1198L72.4857 92.1194L72.4808 92.1191L72.4759 92.1187L72.4709 92.1184L72.466 92.1181L72.461 92.1177L72.4561 92.1174L72.4511 92.117L72.4461 92.1167L72.441 92.1163L72.436 92.116L72.4309 92.1156L72.4259 92.1153L72.4208 92.1149L72.4157 92.1146L72.4106 92.1142L72.4054 92.1138L72.4003 92.1135L72.3951 92.1131L72.3899 92.1128L72.3847 92.1124L72.3794 92.112L72.3742 92.1117L72.3689 92.1113L72.3636 92.1109L72.3583 92.1106L72.3529 92.1102L72.3475 92.1098L72.3422 92.1094L72.3367 92.1091L72.3313 92.1087L72.3259 92.1083L72.3204 92.1079L72.3149 92.1075L72.3094 92.1072L72.3038 92.1068L72.2982 92.1064L72.2926 92.106L72.287 92.1056L72.2814 92.1052L72.2757 92.1048L72.27 92.1044L72.2642 92.104L72.2585 92.1036L72.2527 92.1032L72.2469 92.1028L72.2411 92.1024L72.2352 92.102L72.2293 92.1016L72.2234 92.1012L72.2174 92.1008L72.2114 92.1004L72.2054 92.0999L72.1994 92.0995L72.1933 92.0991L72.1872 92.0987L72.1811 92.0982L72.1749 92.0978L72.1687 92.0974L72.1625 92.097L72.1563 92.0965L72.15 92.0961L72.1436 92.0956L72.1373 92.0952L72.1309 92.0948L72.1245 92.0943L72.118 92.0939L72.1115 92.0934L72.105 92.093L72.0984 92.0925L72.0918 92.092L72.0852 92.0916L72.0785 92.0911L72.0718 92.0906L72.0651 92.0902L72.0583 92.0897L72.0515 92.0892L72.0447 92.0888L72.0378 92.0883L72.0309 92.0878L72.0239 92.0873L72.0169 92.0868L72.0098 92.0863L72.0028 92.0858L71.9956 92.0854L71.9885 92.0849L71.9813 92.0844L71.974 92.0838L71.9668 92.0833L71.9594 92.0828L71.9521 92.0823L71.9447 92.0818L71.9372 92.0813L71.9297 92.0808L71.9222 92.0802L71.9146 92.0797L71.907 92.0792L71.8994 92.0787L71.8917 92.0781L71.8839 92.0776L71.8761 92.077L71.8683 92.0765L71.8604 92.0759L71.8525 92.0754L71.8445 92.0748L71.8365 92.0743L71.8284 92.0737L71.8203 92.0732L71.8121 92.0726L71.8039 92.072L71.7957 92.0714L71.7873 92.0709L71.779 92.0703L71.7706 92.0697L71.7621 92.0691L71.7536 92.0685L71.7451 92.0679L71.7365 92.0673L71.7279 92.0667L71.7192 92.0661L71.7104 92.0655L71.7016 92.0649L71.6928 92.0643L71.6839 92.0637L71.6749 92.063L71.6659 92.0624L71.6568 92.0618L71.6477 92.0612L71.6386 92.0605L71.6293 92.0599L71.6201 92.0592L71.6107 92.0586L71.6014 92.0579L71.5919 92.0573L71.5824 92.0566L71.5729 92.056L71.5633 92.0553L71.5536 92.0546L71.5439 92.0539L71.5341 92.0533L71.5243 92.0526L71.5144 92.0519L71.5045 92.0512L71.4945 92.0505L71.4844 92.0498L71.4743 92.0491L71.4641 92.0484L71.4539 92.0477L71.4436 92.047L71.4332 92.0462L71.4228 92.0455L71.4123 92.0448L71.4018 92.0441L71.3912 92.0433L71.3806 92.0426L71.3698 92.0418L71.3591 92.0411L71.3482 92.0403L71.3373 92.0396L71.3263 92.0388L71.3153 92.038L71.3042 92.0373L71.2931 92.0365L71.2818 92.0357L71.2705 92.0349L71.2592 92.0341L71.2478 92.0333L71.2363 92.0325L71.2247 92.0317L71.2131 92.0309L71.2014 92.0301L71.1897 92.0293L71.1779 92.0285L71.166 92.0277L71.1541 92.0268L71.142 92.026L71.13 92.0252L71.1178 92.0243L71.1056 92.0235L71.0933 92.0226L71.0809 92.0217L71.0685 92.0209L71.056 92.02L71.0434 92.0191L71.0308 92.0183L71.0181 92.0174L71.0053 92.0165L70.9924 92.0156L70.9795 92.0147L70.9665 92.0138L70.9535 92.0129L70.9403 92.012L70.9271 92.011L70.9138 92.0101L70.9004 92.0092L70.887 92.0083L70.8735 92.0073L70.8599 92.0064L70.8462 92.0054L70.8325 92.0045L70.8187 92.0035L70.8095 92.0029Z" fill="#E55B42" stroke="black" stroke-width="0.889789"/>
<path d="M71.019 107.101C68.6507 106.993 67.9668 104.556 68.1403 103.18C70.087 103.443 72.897 103.354 75.4661 101.985C76.4357 105.082 74.9118 106.262 73.9266 106.627C72.973 106.957 71.8417 107.112 71.019 107.101Z" fill="black"/>
<path d="M66.5163 102.832C66.9332 102.965 67.4883 103.092 68.1403 103.18M76.7655 101.159C76.3433 101.476 75.9082 101.749 75.4661 101.985M76.7655 101.159C76.7193 100.876 76.8973 100.595 77.0048 100.568M76.7655 101.159C76.7719 101.275 77.0996 101.652 77.503 101.563M68.1403 103.18C67.9668 104.556 68.6507 106.993 71.019 107.101C71.8417 107.112 72.973 106.957 73.9266 106.627C74.9118 106.262 76.4357 105.082 75.4661 101.985M68.1403 103.18C70.087 103.443 72.897 103.354 75.4661 101.985" stroke="black" stroke-width="0.889789"/>
<path d="M74.9701 105.933C74.5529 103.819 69.8082 105.719 69.8092 106.775C70.5228 107.124 71.5539 107.101 71.9416 107.038C72.0401 107.031 72.2905 106.981 72.5231 106.943C72.8139 106.895 73.2137 106.83 73.745 106.656C74.17 106.517 74.5212 106.306 74.6437 106.219C74.6769 106.194 74.8179 106.097 74.9701 105.933Z" fill="#E55B42" stroke="black" stroke-width="0.296596"/>
<path d="M73.467 104.774C73.213 104.845 72.5733 105.188 72.0473 105.987" stroke="black" stroke-width="0.296596"/>
<path d="M120.794 96.2949C120.69 97.8039 120.133 99.1191 119.341 100.028C118.549 100.937 117.546 101.418 116.519 101.347C115.493 101.276 114.566 100.66 113.908 99.6502C113.249 98.6404 112.88 97.2608 112.985 95.7518C113.09 94.2429 113.646 92.9277 114.438 92.0188C115.23 91.1102 116.234 90.6284 117.26 90.6997C118.286 90.7711 119.213 91.3871 119.871 92.3966C120.53 93.4063 120.899 94.786 120.794 96.2949Z" fill="white" stroke="black" stroke-width="0.988923"/>
<mask id="path-45-inside-4" fill="white">
<path fill-rule="evenodd" clip-rule="evenodd" d="M116.348 100.154C115.627 100.104 115.105 99.1664 115.182 98.0601C115.259 96.9537 115.905 96.0974 116.626 96.1475C117.22 96.1888 117.679 96.8321 117.779 97.6759L116.821 98.1436L117.715 98.7459C117.508 99.5965 116.954 100.196 116.348 100.154Z"/>
</mask>
<path fill-rule="evenodd" clip-rule="evenodd" d="M116.348 100.154C115.627 100.104 115.105 99.1664 115.182 98.0601C115.259 96.9537 115.905 96.0974 116.626 96.1475C117.22 96.1888 117.679 96.8321 117.779 97.6759L116.821 98.1436L117.715 98.7459C117.508 99.5965 116.954 100.196 116.348 100.154Z" fill="black"/>
<path d="M117.779 97.6759L118.106 97.637L118.134 97.8694L117.924 97.9721L117.779 97.6759ZM116.821 98.1436L116.637 98.417L116.163 98.0979L116.676 97.8474L116.821 98.1436ZM117.715 98.7459L117.899 98.4725L118.089 98.6007L118.035 98.8235L117.715 98.7459ZM115.511 98.0829C115.476 98.5817 115.578 99.0274 115.754 99.3428C115.931 99.6614 116.158 99.8105 116.37 99.8252L116.325 100.483C115.817 100.448 115.422 100.103 115.177 99.6635C114.931 99.2211 114.811 98.6447 114.853 98.0372L115.511 98.0829ZM116.603 96.4764C116.391 96.4616 116.145 96.5778 115.926 96.8688C115.708 97.1569 115.545 97.5841 115.511 98.0829L114.853 98.0372C114.895 97.4296 115.094 96.8755 115.399 96.4714C115.702 96.0702 116.141 95.7833 116.649 95.8187L116.603 96.4764ZM117.452 97.7148C117.407 97.3385 117.284 97.0241 117.123 96.8072C116.963 96.5911 116.78 96.4886 116.603 96.4764L116.649 95.8187C117.066 95.8477 117.41 96.0875 117.652 96.4143C117.894 96.7404 118.051 97.1695 118.106 97.637L117.452 97.7148ZM117.924 97.9721L116.966 98.4399L116.676 97.8474L117.634 97.3797L117.924 97.9721ZM117.005 97.8703L117.899 98.4725L117.53 99.0192L116.637 98.417L117.005 97.8703ZM116.37 99.8252C116.551 99.8378 116.751 99.7579 116.943 99.5569C117.136 99.3554 117.302 99.0482 117.394 98.6682L118.035 98.8235C117.921 99.2942 117.707 99.7121 117.419 100.013C117.132 100.314 116.751 100.513 116.325 100.483L116.37 99.8252Z" fill="black" mask="url(#path-45-inside-4)"/>
<path d="M113.036 95.2597C113.215 93.9576 113.734 92.8274 114.438 92.0188C115.23 91.1102 116.234 90.6284 117.26 90.6997C118.286 90.7711 119.213 91.3871 119.871 92.3966C120.457 93.2949 120.814 94.486 120.812 95.8005L120.8 95.7997L120.785 95.7986L120.77 95.7975L120.754 95.7965L120.739 95.7954L120.724 95.7944L120.709 95.7933L120.694 95.7923L120.68 95.7913L120.665 95.7902L120.65 95.7892L120.636 95.7882L120.621 95.7872L120.607 95.7862L120.593 95.7852L120.579 95.7842L120.564 95.7833L120.55 95.7823L120.536 95.7813L120.523 95.7803L120.509 95.7794L120.495 95.7784L120.481 95.7775L120.468 95.7765L120.454 95.7756L120.441 95.7747L120.428 95.7737L120.414 95.7728L120.401 95.7719L120.388 95.771L120.375 95.7701L120.362 95.7692L120.349 95.7683L120.336 95.7674L120.324 95.7665L120.311 95.7656L120.299 95.7648L120.286 95.7639L120.274 95.763L120.261 95.7622L120.249 95.7613L120.237 95.7605L120.225 95.7596L120.213 95.7588L120.201 95.758L120.189 95.7571L120.177 95.7563L120.165 95.7555L120.154 95.7547L120.142 95.7539L120.13 95.7531L120.119 95.7523L120.107 95.7515L120.096 95.7507L120.085 95.7499L120.074 95.7491L120.063 95.7484L120.051 95.7476L120.04 95.7468L120.029 95.7461L120.019 95.7453L120.008 95.7446L119.997 95.7438L119.986 95.7431L119.976 95.7423L119.965 95.7416L119.955 95.7409L119.944 95.7401L119.934 95.7394L119.924 95.7387L119.913 95.738L119.903 95.7373L119.893 95.7366L119.883 95.7359L119.873 95.7352L119.863 95.7345L119.853 95.7338L119.844 95.7331L119.834 95.7325L119.824 95.7318L119.814 95.7311L119.805 95.7304L119.795 95.7298L119.786 95.7291L119.777 95.7285L119.767 95.7278L119.758 95.7272L119.749 95.7265L119.74 95.7259L119.73 95.7253L119.721 95.7246L119.712 95.724L119.703 95.7234L119.695 95.7228L119.686 95.7222L119.677 95.7215L119.668 95.7209L119.66 95.7203L119.651 95.7197L119.642 95.7191L119.634 95.7186L119.625 95.718L119.617 95.7174L119.609 95.7168L119.6 95.7162L119.592 95.7156L119.584 95.7151L119.576 95.7145L119.568 95.7139L119.56 95.7134L119.552 95.7128L119.544 95.7123L119.536 95.7117L119.528 95.7112L119.52 95.7106L119.512 95.7101L119.504 95.7096L119.497 95.709L119.489 95.7085L119.482 95.708L119.474 95.7074L119.467 95.7069L119.459 95.7064L119.452 95.7059L119.444 95.7054L119.437 95.7049L119.43 95.7044L119.422 95.7038L119.415 95.7033L119.408 95.7029L119.401 95.7024L119.394 95.7019L119.387 95.7014L119.38 95.7009L119.373 95.7004L119.366 95.6999L119.359 95.6994L119.352 95.699L119.346 95.6985L119.339 95.698L119.332 95.6976L119.325 95.6971L119.319 95.6966L119.312 95.6962L119.306 95.6957L119.299 95.6953L119.293 95.6948L119.286 95.6944L119.28 95.6939L119.273 95.6935L119.267 95.693L119.261 95.6926L119.254 95.6922L119.248 95.6917L119.242 95.6913L119.236 95.6909L119.23 95.6904L119.223 95.69L119.217 95.6896L119.211 95.6892L119.205 95.6887L119.199 95.6883L119.193 95.6879L119.187 95.6875L119.181 95.6871L119.176 95.6867L119.17 95.6863L119.164 95.6859L119.158 95.6855L119.152 95.6851L119.147 95.6847L119.141 95.6843L119.135 95.6839L119.13 95.6835L119.124 95.6831L119.118 95.6827L119.113 95.6823L119.107 95.6819L119.102 95.6815L119.096 95.6812L119.091 95.6808L119.085 95.6804L119.08 95.68L119.074 95.6796L119.069 95.6793L119.064 95.6789L119.058 95.6785L119.053 95.6782L119.048 95.6778L119.042 95.6774L119.037 95.6771L119.032 95.6767L119.027 95.6763L119.021 95.676L119.016 95.6756L119.011 95.6752L119.006 95.6749L119.001 95.6745L118.996 95.6742L118.991 95.6738L118.986 95.6735L118.981 95.6731L118.976 95.6728L118.97 95.6724L118.965 95.6721L118.96 95.6717L118.956 95.6714L118.951 95.671L118.946 95.6707L118.941 95.6703L118.936 95.67L118.931 95.6697L118.926 95.6693L118.921 95.669L118.916 95.6686L118.911 95.6683L118.906 95.668L118.902 95.6676L118.897 95.6673L118.892 95.667L118.887 95.6666L118.882 95.6663L118.878 95.666L118.873 95.6656L118.868 95.6653L118.863 95.665L118.859 95.6646L118.854 95.6643L118.849 95.664L118.844 95.6637L118.84 95.6633L118.835 95.663L118.83 95.6627L118.826 95.6623L118.821 95.662L118.816 95.6617L118.811 95.6614L118.807 95.661L118.802 95.6607L118.797 95.6604L118.793 95.6601L118.788 95.6597L118.783 95.6594L118.779 95.6591L118.774 95.6588L118.769 95.6584L118.765 95.6581L118.76 95.6578L118.755 95.6575L118.751 95.6571L118.746 95.6568L118.741 95.6565L118.737 95.6562L118.732 95.6558L118.727 95.6555L118.723 95.6552L118.718 95.6549L118.713 95.6545L118.709 95.6542L118.704 95.6539L118.699 95.6536L118.695 95.6532L118.69 95.6529L118.685 95.6526L118.68 95.6523L118.676 95.6519L118.671 95.6516L118.666 95.6513L118.662 95.6509L118.657 95.6506L118.652 95.6503L118.647 95.6499L118.643 95.6496L118.638 95.6493L118.633 95.649L118.628 95.6486L118.623 95.6483L118.619 95.648L118.614 95.6476L118.609 95.6473L118.604 95.6469L118.599 95.6466L118.594 95.6463L118.589 95.6459L118.585 95.6456L118.58 95.6452L118.575 95.6449L118.57 95.6446L118.565 95.6442L118.56 95.6439L118.555 95.6435L118.55 95.6432L118.545 95.6428L118.54 95.6425L118.535 95.6421L118.53 95.6418L118.525 95.6414L118.52 95.6411L118.515 95.6407L118.509 95.6404L118.504 95.64L118.499 95.6396L118.494 95.6393L118.489 95.6389L118.484 95.6386L118.478 95.6382L118.473 95.6378L118.468 95.6375L118.463 95.6371L118.457 95.6367L118.452 95.6364L118.446 95.636L118.441 95.6356L118.436 95.6352L118.43 95.6349L118.425 95.6345L118.419 95.6341L118.414 95.6337L118.408 95.6333L118.403 95.6329L118.397 95.6326L118.392 95.6322L118.386 95.6318L118.38 95.6314L118.375 95.631L118.369 95.6306L118.363 95.6302L118.357 95.6298L118.352 95.6294L118.346 95.629L118.34 95.6286L118.334 95.6282L118.328 95.6278L118.322 95.6273L118.316 95.6269L118.31 95.6265L118.304 95.6261L118.298 95.6257L118.292 95.6253L118.286 95.6248L118.28 95.6244L118.274 95.624L118.268 95.6235L118.261 95.6231L118.255 95.6227L118.249 95.6222L118.242 95.6218L118.236 95.6213L118.23 95.6209L118.223 95.6204L118.217 95.62L118.21 95.6195L118.203 95.6191L118.197 95.6186L118.19 95.6182L118.184 95.6177L118.177 95.6172L118.17 95.6168L118.163 95.6163L118.156 95.6158L118.15 95.6153L118.143 95.6149L118.136 95.6144L118.129 95.6139L118.122 95.6134L118.115 95.6129L118.108 95.6124L118.1 95.6119L118.093 95.6114L118.086 95.6109L118.079 95.6104L118.071 95.6099L118.064 95.6094L118.057 95.6089L118.049 95.6084L118.042 95.6078L118.034 95.6073L118.027 95.6068L118.019 95.6063L118.011 95.6057L118.004 95.6052L117.996 95.6046L117.988 95.6041L117.98 95.6036L117.972 95.603L117.964 95.6025L117.956 95.6019L117.948 95.6013L117.94 95.6008L117.932 95.6002L117.924 95.5996L117.915 95.5991L117.907 95.5985L117.899 95.5979L117.89 95.5973L117.882 95.5967L117.873 95.5961L117.865 95.5955L117.856 95.5949L117.848 95.5943L117.839 95.5937L117.83 95.5931L117.821 95.5925L117.812 95.5919L117.803 95.5913L117.794 95.5906L117.785 95.59L117.776 95.5894L117.767 95.5887L117.758 95.5881L117.749 95.5875L117.739 95.5868L117.73 95.5862L117.721 95.5855L117.711 95.5848L117.701 95.5842L117.692 95.5835L117.682 95.5828L117.672 95.5822L117.663 95.5815L117.653 95.5808L117.643 95.5801L117.633 95.5794L117.623 95.5787L117.613 95.578L117.603 95.5773L117.592 95.5766L117.582 95.5759L117.572 95.5752L117.561 95.5744L117.551 95.5737L117.54 95.573L117.53 95.5722L117.519 95.5715L117.508 95.5707L117.498 95.57L117.487 95.5692L117.476 95.5685L117.465 95.5677L117.454 95.5669L117.443 95.5662L117.431 95.5654L117.42 95.5646L117.409 95.5638L117.397 95.563L117.386 95.5622L117.374 95.5614L117.363 95.5606L117.351 95.5598L117.339 95.559L117.327 95.5582L117.316 95.5573L117.304 95.5565L117.292 95.5557L117.279 95.5548L117.267 95.554L117.255 95.5531L117.243 95.5523L117.23 95.5514L117.218 95.5505L117.205 95.5497L117.193 95.5488L117.18 95.5479L117.167 95.547L117.154 95.5461L117.141 95.5452L117.128 95.5443L117.115 95.5434L117.102 95.5425L117.089 95.5416L117.076 95.5407L117.062 95.5397L117.049 95.5388L117.035 95.5378L117.021 95.5369L117.008 95.5359L116.994 95.535L116.98 95.534L116.966 95.533L116.952 95.5321L116.938 95.5311L116.924 95.5301L116.91 95.5291L116.896 95.5281L116.881 95.5272L116.868 95.5262L116.854 95.5252L116.84 95.5243L116.826 95.5233L116.812 95.5224L116.799 95.5214L116.785 95.5205L116.772 95.5195L116.759 95.5186L116.745 95.5177L116.732 95.5168L116.719 95.5159L116.706 95.515L116.693 95.5141L116.68 95.5132L116.667 95.5123L116.654 95.5114L116.642 95.5105L116.629 95.5096L116.617 95.5087L116.604 95.5079L116.592 95.507L116.579 95.5062L116.567 95.5053L116.555 95.5045L116.543 95.5036L116.531 95.5028L116.519 95.5019L116.507 95.5011L116.495 95.5003L116.483 95.4995L116.472 95.4987L116.46 95.4978L116.448 95.497L116.437 95.4962L116.425 95.4954L116.414 95.4947L116.403 95.4939L116.391 95.4931L116.38 95.4923L116.369 95.4915L116.358 95.4908L116.347 95.49L116.336 95.4892L116.325 95.4885L116.314 95.4877L116.304 95.487L116.293 95.4862L116.282 95.4855L116.272 95.4848L116.261 95.484L116.251 95.4833L116.241 95.4826L116.23 95.4819L116.22 95.4812L116.21 95.4805L116.2 95.4797L116.19 95.479L116.18 95.4783L116.17 95.4777L116.16 95.477L116.15 95.4763L116.14 95.4756L116.13 95.4749L116.121 95.4743L116.111 95.4736L116.101 95.4729L116.092 95.4723L116.082 95.4716L116.073 95.4709L116.064 95.4703L116.054 95.4697L116.045 95.469L116.036 95.4684L116.027 95.4677L116.018 95.4671L116.009 95.4665L116 95.4659L115.991 95.4652L115.982 95.4646L115.973 95.464L115.964 95.4634L115.956 95.4628L115.947 95.4622L115.938 95.4616L115.93 95.461L115.921 95.4604L115.913 95.4598L115.904 95.4592L115.896 95.4586L115.888 95.4581L115.88 95.4575L115.871 95.4569L115.863 95.4563L115.855 95.4558L115.847 95.4552L115.839 95.4547L115.831 95.4541L115.823 95.4535L115.815 95.453L115.807 95.4525L115.799 95.4519L115.792 95.4514L115.784 95.4508L115.776 95.4503L115.768 95.4498L115.761 95.4492L115.753 95.4487L115.746 95.4482L115.738 95.4477L115.731 95.4471L115.723 95.4466L115.716 95.4461L115.709 95.4456L115.701 95.4451L115.694 95.4446L115.687 95.4441L115.68 95.4436L115.673 95.4431L115.666 95.4426L115.659 95.4421L115.652 95.4416L115.645 95.4412L115.638 95.4407L115.631 95.4402L115.624 95.4397L115.617 95.4392L115.61 95.4388L115.604 95.4383L115.597 95.4378L115.59 95.4374L115.584 95.4369L115.577 95.4365L115.57 95.436L115.564 95.4355L115.557 95.4351L115.551 95.4346L115.544 95.4342L115.538 95.4337L115.532 95.4333L115.525 95.4329L115.519 95.4324L115.513 95.432L115.506 95.4315L115.5 95.4311L115.494 95.4307L115.488 95.4302L115.482 95.4298L115.475 95.4294L115.469 95.429L115.463 95.4285L115.457 95.4281L115.451 95.4277L115.445 95.4273L115.439 95.4269L115.433 95.4265L115.428 95.4261L115.422 95.4256L115.416 95.4252L115.41 95.4248L115.404 95.4244L115.398 95.424L115.393 95.4236L115.387 95.4232L115.381 95.4228L115.376 95.4224L115.37 95.422L115.364 95.4217L115.359 95.4213L115.353 95.4209L115.347 95.4205L115.342 95.4201L115.336 95.4197L115.331 95.4193L115.325 95.419L115.32 95.4186L115.314 95.4182L115.309 95.4178L115.304 95.4174L115.298 95.4171L115.293 95.4167L115.287 95.4163L115.282 95.4159L115.277 95.4156L115.271 95.4152L115.266 95.4148L115.261 95.4145L115.256 95.4141L115.25 95.4137L115.245 95.4134L115.24 95.413L115.235 95.4127L115.23 95.4123L115.224 95.4119L115.219 95.4116L115.214 95.4112L115.209 95.4109L115.204 95.4105L115.199 95.4101L115.194 95.4098L115.188 95.4094L115.183 95.4091L115.178 95.4087L115.173 95.4084L115.168 95.408L115.163 95.4077L115.158 95.4073L115.153 95.407L115.148 95.4066L115.143 95.4063L115.138 95.4059L115.133 95.4056L115.128 95.4052L115.123 95.4049L115.118 95.4046L115.113 95.4042L115.108 95.4039L115.103 95.4035L115.098 95.4032L115.093 95.4028L115.089 95.4025L115.084 95.4021L115.079 95.4018L115.074 95.4015L115.069 95.4011L115.064 95.4008L115.059 95.4004L115.054 95.4001L115.049 95.3998L115.044 95.3994L115.039 95.3991L115.034 95.3987L115.03 95.3984L115.025 95.398L115.02 95.3977L115.015 95.3974L115.01 95.397L115.005 95.3967L115 95.3963L114.995 95.396L114.99 95.3957L114.985 95.3953L114.981 95.395L114.976 95.3946L114.971 95.3943L114.966 95.3939L114.961 95.3936L114.956 95.3933L114.951 95.3929L114.946 95.3926L114.941 95.3922L114.936 95.3919L114.931 95.3915L114.926 95.3912L114.921 95.3909L114.916 95.3905L114.911 95.3902L114.906 95.3898L114.901 95.3895L114.896 95.3891L114.891 95.3888L114.886 95.3884L114.881 95.3881L114.876 95.3877L114.871 95.3874L114.866 95.387L114.861 95.3867L114.856 95.3863L114.851 95.3859L114.846 95.3856L114.84 95.3852L114.835 95.3849L114.83 95.3845L114.825 95.3842L114.82 95.3838L114.815 95.3834L114.809 95.3831L114.804 95.3827L114.799 95.3824L114.794 95.382L114.789 95.3816L114.783 95.3813L114.778 95.3809L114.773 95.3805L114.767 95.3801L114.762 95.3798L114.757 95.3794L114.751 95.379L114.746 95.3787L114.74 95.3783L114.735 95.3779L114.73 95.3775L114.724 95.3771L114.719 95.3768L114.713 95.3764L114.708 95.376L114.702 95.3756L114.696 95.3752L114.691 95.3748L114.685 95.3744L114.68 95.374L114.674 95.3737L114.668 95.3733L114.663 95.3729L114.657 95.3725L114.651 95.3721L114.645 95.3717L114.639 95.3713L114.634 95.3709L114.628 95.3704L114.622 95.37L114.616 95.3696L114.61 95.3692L114.604 95.3688L114.598 95.3684L114.592 95.368L114.586 95.3676L114.58 95.3671L114.574 95.3667L114.568 95.3663L114.562 95.3659L114.556 95.3654L114.549 95.365L114.543 95.3646L114.537 95.3641L114.531 95.3637L114.524 95.3632L114.518 95.3628L114.511 95.3624L114.505 95.3619L114.499 95.3615L114.492 95.361L114.486 95.3606L114.479 95.3601L114.473 95.3597L114.466 95.3592L114.459 95.3587L114.453 95.3583L114.446 95.3578L114.439 95.3573L114.432 95.3569L114.426 95.3564L114.419 95.3559L114.412 95.3554L114.405 95.3549L114.398 95.3545L114.391 95.354L114.384 95.3535L114.377 95.353L114.37 95.3525L114.362 95.352L114.355 95.3515L114.348 95.351L114.341 95.3505L114.333 95.35L114.326 95.3495L114.319 95.349L114.311 95.3484L114.304 95.3479L114.296 95.3474L114.289 95.3469L114.281 95.3463L114.273 95.3458L114.266 95.3453L114.258 95.3447L114.25 95.3442L114.242 95.3437L114.235 95.3431L114.227 95.3426L114.219 95.342L114.211 95.3414L114.203 95.3409L114.195 95.3403L114.187 95.3398L114.178 95.3392L114.17 95.3386L114.162 95.338L114.154 95.3375L114.145 95.3369L114.137 95.3363L114.128 95.3357L114.12 95.3351L114.111 95.3345L114.103 95.3339L114.094 95.3333L114.085 95.3327L114.076 95.3321L114.068 95.3315L114.059 95.3309L114.05 95.3303L114.041 95.3296L114.032 95.329L114.023 95.3284L114.014 95.3277L114.004 95.3271L113.995 95.3265L113.986 95.3258L113.977 95.3252L113.967 95.3245L113.958 95.3239L113.948 95.3232L113.939 95.3225L113.929 95.3219L113.919 95.3212L113.91 95.3205L113.9 95.3198L113.89 95.3191L113.88 95.3185L113.87 95.3178L113.86 95.3171L113.85 95.3164L113.84 95.3157L113.83 95.315L113.82 95.3142L113.809 95.3135L113.799 95.3128L113.788 95.3121L113.778 95.3114L113.767 95.3106L113.757 95.3099L113.746 95.3091L113.735 95.3084L113.725 95.3076L113.714 95.3069L113.703 95.3061L113.692 95.3054L113.681 95.3046L113.67 95.3038L113.658 95.303L113.647 95.3023L113.636 95.3015L113.624 95.3007L113.613 95.2999L113.602 95.2991L113.59 95.2983L113.578 95.2975L113.567 95.2967L113.555 95.2958L113.543 95.295L113.531 95.2942L113.519 95.2934L113.507 95.2925L113.495 95.2917L113.483 95.2908L113.47 95.29L113.458 95.2891L113.446 95.2883L113.433 95.2874L113.421 95.2865L113.408 95.2856L113.395 95.2848L113.383 95.2839L113.37 95.283L113.357 95.2821L113.344 95.2812L113.331 95.2803L113.318 95.2794L113.305 95.2784L113.291 95.2775L113.278 95.2766L113.265 95.2757L113.251 95.2747L113.238 95.2738L113.224 95.2728L113.21 95.2719L113.196 95.2709L113.182 95.2699L113.169 95.269L113.154 95.268L113.14 95.267L113.126 95.266L113.112 95.265L113.098 95.264L113.083 95.263L113.069 95.262L113.054 95.261L113.039 95.26L113.036 95.2597Z" fill="#E55B42" stroke="black" stroke-width="0.988923"/>
<path d="M128.456 96.8279C128.351 98.3368 127.794 99.652 127.002 100.561C126.21 101.47 125.207 101.951 124.181 101.88C123.155 101.809 122.228 101.193 121.569 100.183C120.91 99.1734 120.541 97.7938 120.646 96.2848C120.751 94.7759 121.308 93.4606 122.1 92.5518C122.892 91.6431 123.895 91.1613 124.921 91.2327C125.947 91.304 126.874 91.9201 127.533 92.9295C128.191 93.9393 128.561 95.3189 128.456 96.8279Z" fill="white" stroke="black" stroke-width="0.988923"/>
<mask id="path-49-inside-5" fill="white">
<path fill-rule="evenodd" clip-rule="evenodd" d="M124.292 100.706C123.572 100.656 123.05 99.7187 123.127 98.6123C123.203 97.5059 123.85 96.6497 124.571 96.6998C125.165 96.7411 125.624 97.3844 125.724 98.2282L124.766 98.6959L125.659 99.2981C125.453 100.149 124.899 100.749 124.292 100.706Z"/>
</mask>
<path fill-rule="evenodd" clip-rule="evenodd" d="M124.292 100.706C123.572 100.656 123.05 99.7187 123.127 98.6123C123.203 97.5059 123.85 96.6497 124.571 96.6998C125.165 96.7411 125.624 97.3844 125.724 98.2282L124.766 98.6959L125.659 99.2981C125.453 100.149 124.899 100.749 124.292 100.706Z" fill="black"/>
<path d="M125.724 98.2282L126.051 98.1893L126.079 98.4217L125.869 98.5244L125.724 98.2282ZM124.766 98.6959L124.582 98.9693L124.108 98.6502L124.621 98.3997L124.766 98.6959ZM125.659 99.2981L125.844 99.0247L126.034 99.1529L125.98 99.3757L125.659 99.2981ZM123.455 98.6352C123.421 99.134 123.523 99.5796 123.698 99.8951C123.876 100.214 124.103 100.363 124.315 100.377L124.27 101.035C123.761 101 123.367 100.655 123.122 100.216C122.876 99.7733 122.755 99.197 122.798 98.5894L123.455 98.6352ZM124.548 97.0286C124.335 97.0138 124.09 97.13 123.87 97.421C123.653 97.7091 123.49 98.1363 123.455 98.6352L122.798 98.5894C122.84 97.9819 123.039 97.4278 123.344 97.0237C123.647 96.6225 124.086 96.3356 124.594 96.3709L124.548 97.0286ZM125.397 98.2671C125.352 97.8908 125.229 97.5763 125.068 97.3595C124.907 97.1434 124.725 97.0409 124.548 97.0286L124.594 96.3709C125.011 96.3999 125.355 96.6398 125.597 96.9666C125.839 97.2927 125.996 97.7218 126.051 98.1893L125.397 98.2671ZM125.869 98.5244L124.911 98.9921L124.621 98.3997L125.579 97.932L125.869 98.5244ZM124.95 98.4225L125.844 99.0247L125.475 99.5714L124.582 98.9693L124.95 98.4225ZM124.315 100.377C124.495 100.39 124.696 100.31 124.888 100.109C125.081 99.9076 125.247 99.6004 125.339 99.2204L125.98 99.3757C125.866 99.8463 125.652 100.264 125.364 100.565C125.076 100.866 124.696 101.065 124.27 101.035L124.315 100.377Z" fill="black" mask="url(#path-49-inside-5)"/>
<path d="M120.697 95.7927C120.877 94.4906 121.395 93.3604 122.1 92.5518C122.892 91.6431 123.895 91.1613 124.921 91.2327C125.947 91.304 126.874 91.9201 127.533 92.9295C128.119 93.8279 128.476 95.019 128.473 96.3334L128.462 96.3326L128.446 96.3315L128.431 96.3305L128.416 96.3294L128.401 96.3284L128.386 96.3273L128.371 96.3263L128.356 96.3253L128.341 96.3242L128.326 96.3232L128.312 96.3222L128.297 96.3212L128.283 96.3202L128.268 96.3192L128.254 96.3182L128.24 96.3172L128.226 96.3162L128.212 96.3152L128.198 96.3143L128.184 96.3133L128.17 96.3123L128.156 96.3114L128.143 96.3104L128.129 96.3095L128.116 96.3086L128.102 96.3076L128.089 96.3067L128.076 96.3058L128.063 96.3049L128.049 96.304L128.036 96.3031L128.024 96.3022L128.011 96.3013L127.998 96.3004L127.985 96.2995L127.973 96.2986L127.96 96.2977L127.947 96.2969L127.935 96.296L127.923 96.2951L127.91 96.2943L127.898 96.2934L127.886 96.2926L127.874 96.2918L127.862 96.2909L127.85 96.2901L127.838 96.2893L127.827 96.2885L127.815 96.2876L127.803 96.2868L127.792 96.286L127.78 96.2852L127.769 96.2844L127.758 96.2837L127.746 96.2829L127.735 96.2821L127.724 96.2813L127.713 96.2805L127.702 96.2798L127.691 96.279L127.68 96.2783L127.669 96.2775L127.658 96.2768L127.648 96.276L127.637 96.2753L127.627 96.2746L127.616 96.2738L127.606 96.2731L127.595 96.2724L127.585 96.2717L127.575 96.2709L127.565 96.2702L127.555 96.2695L127.544 96.2688L127.534 96.2681L127.525 96.2675L127.515 96.2668L127.505 96.2661L127.495 96.2654L127.485 96.2647L127.476 96.2641L127.466 96.2634L127.457 96.2627L127.447 96.2621L127.438 96.2614L127.429 96.2608L127.419 96.2601L127.41 96.2595L127.401 96.2589L127.392 96.2582L127.383 96.2576L127.374 96.257L127.365 96.2563L127.356 96.2557L127.347 96.2551L127.338 96.2545L127.33 96.2539L127.321 96.2533L127.312 96.2527L127.304 96.2521L127.295 96.2515L127.287 96.2509L127.278 96.2503L127.27 96.2498L127.262 96.2492L127.253 96.2486L127.245 96.248L127.237 96.2475L127.229 96.2469L127.221 96.2463L127.213 96.2458L127.205 96.2452L127.197 96.2447L127.189 96.2441L127.181 96.2436L127.174 96.243L127.166 96.2425L127.158 96.242L127.151 96.2414L127.143 96.2409L127.135 96.2404L127.128 96.2399L127.12 96.2394L127.113 96.2388L127.106 96.2383L127.098 96.2378L127.091 96.2373L127.084 96.2368L127.077 96.2363L127.069 96.2358L127.062 96.2353L127.055 96.2348L127.048 96.2343L127.041 96.2338L127.034 96.2334L127.027 96.2329L127.021 96.2324L127.014 96.2319L127.007 96.2315L127 96.231L126.993 96.2305L126.987 96.2301L126.98 96.2296L126.974 96.2291L126.967 96.2287L126.96 96.2282L126.954 96.2278L126.947 96.2273L126.941 96.2269L126.935 96.2264L126.928 96.226L126.922 96.2256L126.916 96.2251L126.909 96.2247L126.903 96.2242L126.897 96.2238L126.891 96.2234L126.885 96.223L126.879 96.2225L126.873 96.2221L126.867 96.2217L126.861 96.2213L126.855 96.2209L126.849 96.2205L126.843 96.22L126.837 96.2196L126.831 96.2192L126.825 96.2188L126.819 96.2184L126.814 96.218L126.808 96.2176L126.802 96.2172L126.797 96.2168L126.791 96.2164L126.785 96.216L126.78 96.2157L126.774 96.2153L126.769 96.2149L126.763 96.2145L126.758 96.2141L126.752 96.2137L126.747 96.2134L126.741 96.213L126.736 96.2126L126.73 96.2122L126.725 96.2119L126.72 96.2115L126.714 96.2111L126.709 96.2107L126.704 96.2104L126.698 96.21L126.693 96.2096L126.688 96.2093L126.683 96.2089L126.678 96.2086L126.673 96.2082L126.667 96.2078L126.662 96.2075L126.657 96.2071L126.652 96.2068L126.647 96.2064L126.642 96.2061L126.637 96.2057L126.632 96.2054L126.627 96.205L126.622 96.2047L126.617 96.2043L126.612 96.204L126.607 96.2036L126.602 96.2033L126.597 96.203L126.592 96.2026L126.587 96.2023L126.582 96.2019L126.578 96.2016L126.573 96.2013L126.568 96.2009L126.563 96.2006L126.558 96.2003L126.553 96.1999L126.549 96.1996L126.544 96.1993L126.539 96.1989L126.534 96.1986L126.529 96.1983L126.525 96.1979L126.52 96.1976L126.515 96.1973L126.51 96.1969L126.506 96.1966L126.501 96.1963L126.496 96.196L126.492 96.1956L126.487 96.1953L126.482 96.195L126.477 96.1946L126.473 96.1943L126.468 96.194L126.463 96.1937L126.459 96.1933L126.454 96.193L126.449 96.1927L126.445 96.1924L126.44 96.192L126.435 96.1917L126.431 96.1914L126.426 96.1911L126.421 96.1907L126.417 96.1904L126.412 96.1901L126.407 96.1898L126.403 96.1894L126.398 96.1891L126.393 96.1888L126.389 96.1885L126.384 96.1881L126.379 96.1878L126.375 96.1875L126.37 96.1872L126.365 96.1868L126.361 96.1865L126.356 96.1862L126.351 96.1859L126.347 96.1855L126.342 96.1852L126.337 96.1849L126.332 96.1846L126.328 96.1842L126.323 96.1839L126.318 96.1836L126.313 96.1832L126.309 96.1829L126.304 96.1826L126.299 96.1822L126.294 96.1819L126.29 96.1816L126.285 96.1812L126.28 96.1809L126.275 96.1806L126.27 96.1802L126.265 96.1799L126.261 96.1796L126.256 96.1792L126.251 96.1789L126.246 96.1785L126.241 96.1782L126.236 96.1779L126.231 96.1775L126.226 96.1772L126.221 96.1768L126.216 96.1765L126.211 96.1761L126.206 96.1758L126.201 96.1754L126.196 96.1751L126.191 96.1747L126.186 96.1744L126.181 96.174L126.176 96.1737L126.171 96.1733L126.166 96.173L126.161 96.1726L126.155 96.1722L126.15 96.1719L126.145 96.1715L126.14 96.1712L126.134 96.1708L126.129 96.1704L126.124 96.1701L126.119 96.1697L126.113 96.1693L126.108 96.1689L126.102 96.1686L126.097 96.1682L126.092 96.1678L126.086 96.1674L126.081 96.1671L126.075 96.1667L126.07 96.1663L126.064 96.1659L126.059 96.1655L126.053 96.1651L126.047 96.1647L126.042 96.1643L126.036 96.1639L126.03 96.1636L126.025 96.1632L126.019 96.1628L126.013 96.1623L126.007 96.1619L126.001 96.1615L125.995 96.1611L125.99 96.1607L125.984 96.1603L125.978 96.1599L125.972 96.1595L125.966 96.1591L125.96 96.1586L125.954 96.1582L125.947 96.1578L125.941 96.1574L125.935 96.1569L125.929 96.1565L125.923 96.1561L125.916 96.1556L125.91 96.1552L125.904 96.1547L125.897 96.1543L125.891 96.1539L125.884 96.1534L125.878 96.153L125.871 96.1525L125.865 96.152L125.858 96.1516L125.852 96.1511L125.845 96.1507L125.838 96.1502L125.831 96.1497L125.825 96.1493L125.818 96.1488L125.811 96.1483L125.804 96.1478L125.797 96.1473L125.79 96.1469L125.783 96.1464L125.776 96.1459L125.769 96.1454L125.762 96.1449L125.755 96.1444L125.747 96.1439L125.74 96.1434L125.733 96.1429L125.725 96.1424L125.718 96.1418L125.711 96.1413L125.703 96.1408L125.696 96.1403L125.688 96.1397L125.68 96.1392L125.673 96.1387L125.665 96.1381L125.657 96.1376L125.649 96.1371L125.641 96.1365L125.634 96.136L125.626 96.1354L125.618 96.1349L125.61 96.1343L125.601 96.1337L125.593 96.1332L125.585 96.1326L125.577 96.132L125.569 96.1314L125.56 96.1309L125.552 96.1303L125.543 96.1297L125.535 96.1291L125.526 96.1285L125.518 96.1279L125.509 96.1273L125.5 96.1267L125.491 96.1261L125.483 96.1255L125.474 96.1249L125.465 96.1242L125.456 96.1236L125.447 96.123L125.438 96.1223L125.429 96.1217L125.419 96.1211L125.41 96.1204L125.401 96.1198L125.391 96.1191L125.382 96.1185L125.372 96.1178L125.363 96.1171L125.353 96.1165L125.344 96.1158L125.334 96.1151L125.324 96.1144L125.314 96.1138L125.304 96.1131L125.294 96.1124L125.284 96.1117L125.274 96.111L125.264 96.1103L125.254 96.1096L125.243 96.1088L125.233 96.1081L125.223 96.1074L125.212 96.1067L125.202 96.1059L125.191 96.1052L125.18 96.1045L125.17 96.1037L125.159 96.103L125.148 96.1022L125.137 96.1014L125.126 96.1007L125.115 96.0999L125.104 96.0991L125.093 96.0984L125.081 96.0976L125.07 96.0968L125.059 96.096L125.047 96.0952L125.036 96.0944L125.024 96.0936L125.012 96.0928L125.001 96.092L124.989 96.0911L124.977 96.0903L124.965 96.0895L124.953 96.0886L124.941 96.0878L124.929 96.0869L124.916 96.0861L124.904 96.0852L124.892 96.0844L124.879 96.0835L124.867 96.0826L124.854 96.0818L124.841 96.0809L124.828 96.08L124.816 96.0791L124.803 96.0782L124.79 96.0773L124.777 96.0764L124.763 96.0755L124.75 96.0745L124.737 96.0736L124.724 96.0727L124.71 96.0717L124.696 96.0708L124.683 96.0699L124.669 96.0689L124.655 96.0679L124.641 96.067L124.628 96.066L124.614 96.065L124.599 96.0641L124.585 96.0631L124.571 96.0621L124.557 96.0611L124.543 96.0601L124.529 96.0592L124.515 96.0582L124.501 96.0572L124.488 96.0563L124.474 96.0553L124.46 96.0544L124.447 96.0534L124.433 96.0525L124.42 96.0516L124.407 96.0507L124.394 96.0497L124.38 96.0488L124.367 96.0479L124.354 96.047L124.341 96.0461L124.329 96.0452L124.316 96.0443L124.303 96.0435L124.291 96.0426L124.278 96.0417L124.266 96.0408L124.253 96.04L124.241 96.0391L124.229 96.0383L124.216 96.0374L124.204 96.0366L124.192 96.0357L124.18 96.0349L124.168 96.0341L124.156 96.0332L124.145 96.0324L124.133 96.0316L124.121 96.0308L124.11 96.03L124.098 96.0292L124.087 96.0284L124.075 96.0276L124.064 96.0268L124.053 96.026L124.042 96.0253L124.03 96.0245L124.019 96.0237L124.008 96.023L123.997 96.0222L123.987 96.0214L123.976 96.0207L123.965 96.0199L123.954 96.0192L123.944 96.0185L123.933 96.0177L123.923 96.017L123.912 96.0163L123.902 96.0156L123.892 96.0148L123.881 96.0141L123.871 96.0134L123.861 96.0127L123.851 96.012L123.841 96.0113L123.831 96.0106L123.821 96.0099L123.811 96.0092L123.801 96.0086L123.792 96.0079L123.782 96.0072L123.772 96.0065L123.763 96.0059L123.753 96.0052L123.744 96.0046L123.734 96.0039L123.725 96.0033L123.716 96.0026L123.707 96.002L123.697 96.0013L123.688 96.0007L123.679 96.0001L123.67 95.9994L123.661 95.9988L123.652 95.9982L123.643 95.9976L123.635 95.997L123.626 95.9964L123.617 95.9957L123.608 95.9951L123.6 95.9945L123.591 95.9939L123.583 95.9934L123.574 95.9928L123.566 95.9922L123.557 95.9916L123.549 95.991L123.541 95.9904L123.533 95.9899L123.524 95.9893L123.516 95.9887L123.508 95.9882L123.5 95.9876L123.492 95.9871L123.484 95.9865L123.476 95.986L123.468 95.9854L123.461 95.9849L123.453 95.9843L123.445 95.9838L123.437 95.9833L123.43 95.9827L123.422 95.9822L123.415 95.9817L123.407 95.9811L123.4 95.9806L123.392 95.9801L123.385 95.9796L123.377 95.9791L123.37 95.9786L123.363 95.9781L123.356 95.9776L123.348 95.9771L123.341 95.9766L123.334 95.9761L123.327 95.9756L123.32 95.9751L123.313 95.9746L123.306 95.9741L123.299 95.9736L123.292 95.9732L123.285 95.9727L123.279 95.9722L123.272 95.9717L123.265 95.9713L123.258 95.9708L123.252 95.9703L123.245 95.9699L123.238 95.9694L123.232 95.969L123.225 95.9685L123.219 95.968L123.212 95.9676L123.206 95.9671L123.199 95.9667L123.193 95.9663L123.187 95.9658L123.18 95.9654L123.174 95.9649L123.168 95.9645L123.161 95.9641L123.155 95.9636L123.149 95.9632L123.143 95.9628L123.137 95.9624L123.131 95.9619L123.125 95.9615L123.119 95.9611L123.113 95.9607L123.107 95.9603L123.101 95.9598L123.095 95.9594L123.089 95.959L123.083 95.9586L123.077 95.9582L123.071 95.9578L123.066 95.9574L123.06 95.957L123.054 95.9566L123.048 95.9562L123.043 95.9558L123.037 95.9554L123.031 95.955L123.026 95.9546L123.02 95.9542L123.014 95.9538L123.009 95.9534L123.003 95.9531L122.998 95.9527L122.992 95.9523L122.987 95.9519L122.981 95.9515L122.976 95.9512L122.97 95.9508L122.965 95.9504L122.96 95.95L122.954 95.9496L122.949 95.9493L122.943 95.9489L122.938 95.9485L122.933 95.9482L122.928 95.9478L122.922 95.9474L122.917 95.9471L122.912 95.9467L122.907 95.9463L122.901 95.946L122.896 95.9456L122.891 95.9452L122.886 95.9449L122.881 95.9445L122.875 95.9442L122.87 95.9438L122.865 95.9435L122.86 95.9431L122.855 95.9427L122.85 95.9424L122.845 95.942L122.84 95.9417L122.835 95.9413L122.83 95.941L122.825 95.9406L122.82 95.9403L122.815 95.9399L122.81 95.9396L122.805 95.9392L122.8 95.9389L122.795 95.9385L122.79 95.9382L122.785 95.9379L122.78 95.9375L122.775 95.9372L122.77 95.9368L122.765 95.9365L122.76 95.9361L122.755 95.9358L122.75 95.9354L122.745 95.9351L122.74 95.9348L122.735 95.9344L122.73 95.9341L122.725 95.9337L122.72 95.9334L122.715 95.9331L122.711 95.9327L122.706 95.9324L122.701 95.932L122.696 95.9317L122.691 95.9313L122.686 95.931L122.681 95.9307L122.676 95.9303L122.671 95.93L122.666 95.9296L122.662 95.9293L122.657 95.929L122.652 95.9286L122.647 95.9283L122.642 95.9279L122.637 95.9276L122.632 95.9273L122.627 95.9269L122.622 95.9266L122.617 95.9262L122.612 95.9259L122.607 95.9255L122.602 95.9252L122.597 95.9248L122.593 95.9245L122.588 95.9242L122.583 95.9238L122.578 95.9235L122.573 95.9231L122.568 95.9228L122.563 95.9224L122.558 95.9221L122.553 95.9217L122.548 95.9214L122.543 95.921L122.537 95.9207L122.532 95.9203L122.527 95.92L122.522 95.9196L122.517 95.9193L122.512 95.9189L122.507 95.9186L122.502 95.9182L122.497 95.9178L122.492 95.9175L122.486 95.9171L122.481 95.9168L122.476 95.9164L122.471 95.916L122.466 95.9157L122.46 95.9153L122.455 95.9149L122.45 95.9146L122.445 95.9142L122.439 95.9138L122.434 95.9135L122.429 95.9131L122.423 95.9127L122.418 95.9124L122.413 95.912L122.407 95.9116L122.402 95.9112L122.396 95.9109L122.391 95.9105L122.385 95.9101L122.38 95.9097L122.374 95.9093L122.369 95.909L122.363 95.9086L122.358 95.9082L122.352 95.9078L122.347 95.9074L122.341 95.907L122.335 95.9066L122.33 95.9062L122.324 95.9058L122.318 95.9054L122.312 95.905L122.307 95.9046L122.301 95.9042L122.295 95.9038L122.289 95.9034L122.283 95.903L122.277 95.9026L122.271 95.9022L122.266 95.9018L122.26 95.9013L122.254 95.9009L122.248 95.9005L122.241 95.9001L122.235 95.8997L122.229 95.8992L122.223 95.8988L122.217 95.8984L122.211 95.898L122.204 95.8975L122.198 95.8971L122.192 95.8966L122.186 95.8962L122.179 95.8958L122.173 95.8953L122.166 95.8949L122.16 95.8944L122.154 95.894L122.147 95.8935L122.14 95.8931L122.134 95.8926L122.127 95.8922L122.121 95.8917L122.114 95.8912L122.107 95.8908L122.1 95.8903L122.094 95.8898L122.087 95.8893L122.08 95.8889L122.073 95.8884L122.066 95.8879L122.059 95.8874L122.052 95.8869L122.045 95.8864L122.038 95.886L122.031 95.8855L122.024 95.885L122.017 95.8845L122.009 95.884L122.002 95.8834L121.995 95.8829L121.987 95.8824L121.98 95.8819L121.973 95.8814L121.965 95.8809L121.958 95.8804L121.95 95.8798L121.942 95.8793L121.935 95.8788L121.927 95.8782L121.919 95.8777L121.912 95.8772L121.904 95.8766L121.896 95.8761L121.888 95.8755L121.88 95.875L121.872 95.8744L121.864 95.8738L121.856 95.8733L121.848 95.8727L121.84 95.8722L121.831 95.8716L121.823 95.871L121.815 95.8704L121.807 95.8698L121.798 95.8693L121.79 95.8687L121.781 95.8681L121.773 95.8675L121.764 95.8669L121.755 95.8663L121.747 95.8657L121.738 95.8651L121.729 95.8645L121.72 95.8638L121.711 95.8632L121.702 95.8626L121.693 95.862L121.684 95.8613L121.675 95.8607L121.666 95.8601L121.657 95.8594L121.647 95.8588L121.638 95.8581L121.629 95.8575L121.619 95.8568L121.61 95.8562L121.6 95.8555L121.59 95.8548L121.581 95.8541L121.571 95.8535L121.561 95.8528L121.551 95.8521L121.542 95.8514L121.532 95.8507L121.522 95.85L121.511 95.8493L121.501 95.8486L121.491 95.8479L121.481 95.8472L121.471 95.8465L121.46 95.8458L121.45 95.845L121.439 95.8443L121.429 95.8436L121.418 95.8428L121.407 95.8421L121.397 95.8414L121.386 95.8406L121.375 95.8398L121.364 95.8391L121.353 95.8383L121.342 95.8376L121.331 95.8368L121.32 95.836L121.309 95.8352L121.297 95.8344L121.286 95.8336L121.274 95.8328L121.263 95.832L121.251 95.8312L121.24 95.8304L121.228 95.8296L121.216 95.8288L121.204 95.828L121.192 95.8271L121.18 95.8263L121.168 95.8255L121.156 95.8246L121.144 95.8238L121.132 95.8229L121.12 95.8221L121.107 95.8212L121.095 95.8203L121.082 95.8195L121.069 95.8186L121.057 95.8177L121.044 95.8168L121.031 95.8159L121.018 95.815L121.005 95.8141L120.992 95.8132L120.979 95.8123L120.966 95.8114L120.953 95.8105L120.939 95.8095L120.926 95.8086L120.912 95.8077L120.899 95.8067L120.885 95.8058L120.872 95.8048L120.858 95.8039L120.844 95.8029L120.83 95.8019L120.816 95.801L120.802 95.8L120.788 95.799L120.773 95.798L120.759 95.797L120.745 95.796L120.73 95.795L120.715 95.794L120.701 95.793L120.697 95.7927Z" fill="#E55B42" stroke="black" stroke-width="0.988923"/>
<path d="M125.896 105.916C124.605 107.395 120.628 109.513 115.044 106.16" stroke="black" stroke-width="0.988923"/>
<path fill-rule="evenodd" clip-rule="evenodd" d="M94.832 171.313L97.9572 171.864C95.6701 177.993 94.6944 181.609 94.8998 189.197L94.8897 189.195C94.982 189.557 95.0007 189.932 94.9345 190.307C94.6209 192.085 92.519 193.2 90.2398 192.798C87.9605 192.396 86.367 190.629 86.6806 188.851C86.9942 187.073 89.0961 185.958 91.3754 186.36C91.5308 186.387 91.6831 186.421 91.8317 186.461C92.0031 181.901 92.4982 178.671 93.7026 174.704L81.6473 172.577C80.2388 176.85 79.6373 180.343 79.7779 186.28C79.9663 186.75 80.0299 187.251 79.9413 187.754C79.6277 189.531 77.5258 190.647 75.2465 190.245C72.9673 189.843 71.3738 188.076 71.6874 186.298C72.001 184.52 74.1029 183.405 76.3821 183.807C76.4945 183.826 76.6053 183.85 76.7142 183.876C76.9284 178.055 77.6643 174.406 79.7169 168.662L82.8422 169.213L82.8421 169.214L94.8267 171.328L94.8279 171.324L94.832 171.313Z" fill="black"/>
<path fill-rule="evenodd" clip-rule="evenodd" d="M122.589 169.628L125.72 169.108C125.602 175.65 125.886 179.384 128.604 186.471L128.594 186.473C128.801 186.783 128.944 187.13 129.006 187.506C129.302 189.287 127.691 191.038 125.408 191.417C123.125 191.797 121.034 190.66 120.738 188.879C120.442 187.099 122.053 185.347 124.336 184.968C124.492 184.942 124.647 184.923 124.8 184.911C123.445 180.554 122.837 177.344 122.652 173.202L110.576 175.209C110.67 179.706 111.265 183.2 113.373 188.752C113.707 189.133 113.934 189.584 114.017 190.087C114.313 191.868 112.702 193.619 110.419 193.999C108.136 194.378 106.045 193.242 105.749 191.461C105.454 189.68 107.065 187.929 109.348 187.55C109.46 187.531 109.572 187.516 109.684 187.505C107.949 181.944 107.429 178.258 107.453 172.159L110.584 171.639L110.584 171.639L122.589 169.644L122.589 169.642L122.589 169.628Z" fill="black"/>
</svg>
