<svg width="231" height="200" viewBox="0 0 231 200" fill="none" xmlns="http://www.w3.org/2000/svg">
<path fill-rule="evenodd" clip-rule="evenodd" d="M221.514 73.1437C227.3 87.13 230.278 102.12 230.278 117.259H230.219C230.258 117.693 230.278 118.132 230.278 118.575V185.207C230.278 193.223 223.781 199.721 215.765 199.721H14.5131C6.49774 199.721 0 193.223 0 185.207V118.575C0 118.132 0.0199095 117.693 0.058884 117.259H0C0 102.12 2.97816 87.13 8.76444 73.1437C14.5507 59.1575 23.0318 46.4492 33.7235 35.7446C44.4151 25.04 57.108 16.5486 71.0773 10.7553C85.0466 4.962 100.019 1.98022 115.139 1.98022C130.259 1.98022 145.232 4.962 159.201 10.7553C173.17 16.5486 185.863 25.04 196.555 35.7446C207.247 46.4492 215.728 59.1575 221.514 73.1437Z" fill="#FD8BA4"/>
<path d="M29.7674 136.612C30.5583 136.487 31.2234 135.462 31.2234 133.736C31.2234 131.741 29.9651 130.411 28.0777 130.411H19.7191V144.791H28.9764C31.1335 144.791 32.5715 142.994 32.5715 140.297C32.5715 138.104 31.3672 136.702 29.7674 136.612ZM24.213 133.467H25.4533C26.0105 133.467 26.37 133.862 26.37 134.455C26.37 135.049 26.0285 135.444 25.4533 135.444H24.213V133.467ZM25.8307 141.016H24.213V138.68H25.8307C26.4419 138.68 26.8733 139.147 26.8733 139.848C26.9093 140.549 26.4419 141.016 25.8307 141.016ZM38.7751 145.061C42.2623 145.061 44.5991 143.407 44.6171 140.927H39.6739C39.6739 141.466 39.3144 141.825 38.7751 141.825C38.2359 141.825 37.8763 141.214 37.8763 140.297H44.6171C44.6171 137.421 42.2623 135.516 38.7751 135.534C35.2699 135.534 32.9331 137.439 32.9331 140.297C32.9331 143.156 35.2699 145.061 38.7751 145.061ZM37.8763 139.399C37.8763 138.859 38.2359 138.5 38.7751 138.5C39.3144 138.5 39.6739 138.859 39.6739 139.399H37.8763ZM51.716 135.804V136.145C51.0689 135.804 50.3139 135.624 49.469 135.624C46.7548 135.624 44.9752 137.493 44.9752 140.297C44.9752 143.102 46.7727 144.971 49.469 144.971C50.3139 144.971 51.0689 144.791 51.716 144.45V144.791H57.1086V135.804H51.716ZM50.8172 141.646C50.2779 141.646 49.9184 141.106 49.9184 140.297C49.9184 139.489 50.2779 138.949 50.8172 138.949C51.3385 138.949 51.698 139.489 51.716 140.297C51.716 141.106 51.3565 141.646 50.8172 141.646ZM65.7382 137.601V134.006H63.9406V130.411H58.548V134.006H57.6492V137.601H58.548V141.196C58.548 143.353 59.986 144.791 62.1431 144.791H65.7382V140.297H64.8394C64.1204 140.297 63.9406 140.118 63.9406 139.399V137.601H65.7382ZM78.8686 137.601V134.006H77.0711V130.411H71.6784V134.006H70.7797V137.601H71.6784V141.196C71.6784 143.353 73.1165 144.791 75.2735 144.791H78.8686V140.297H77.9698C77.2508 140.297 77.0711 140.118 77.0711 139.399V137.601H78.8686ZM87.8647 135.624C86.7502 135.624 85.7796 135.84 84.9886 136.235V130.411H79.596V144.791H84.9886V139.848C84.9886 139.309 85.3481 138.949 85.8874 138.949C86.4267 138.949 86.7862 139.309 86.7862 139.848V144.791H92.1788V139.848C92.1788 137.314 90.4531 135.624 87.8647 135.624ZM98.5642 145.061C102.051 145.061 104.388 143.407 104.406 140.927H99.463C99.463 141.466 99.1035 141.825 98.5642 141.825C98.025 141.825 97.6655 141.214 97.6655 140.297H104.406C104.406 137.421 102.051 135.516 98.5642 135.534C95.0591 135.534 92.7223 137.439 92.7223 140.297C92.7223 143.156 95.0591 145.061 98.5642 145.061ZM97.6655 139.399C97.6655 138.859 98.025 138.5 98.5642 138.5C99.1035 138.5 99.463 138.859 99.463 139.399H97.6655ZM109.438 130.411V144.791H114.831V130.411H109.438ZM118.243 134.905C119.753 134.905 120.939 133.7 120.939 132.209C120.939 130.717 119.753 129.512 118.243 129.512C116.733 129.512 115.547 130.717 115.547 132.209C115.547 133.7 116.733 134.905 118.243 134.905ZM115.547 135.804V144.791H120.939V135.804H115.547ZM129.924 135.624C128.81 135.624 127.839 135.84 127.048 136.235V135.804H121.656V144.791H127.048V139.848C127.048 139.309 127.408 138.949 127.947 138.949C128.486 138.949 128.846 139.309 128.846 139.848V144.791H134.238V139.848C134.238 137.314 132.513 135.624 129.924 135.624ZM140.448 145.061C143.935 145.061 146.272 143.407 146.29 140.927H141.347C141.347 141.466 140.987 141.825 140.448 141.825C139.909 141.825 139.549 141.214 139.549 140.297H146.29C146.29 137.421 143.935 135.516 140.448 135.534C136.943 135.534 134.606 137.439 134.606 140.297C134.606 143.156 136.943 145.061 140.448 145.061ZM139.549 139.399C139.549 138.859 139.909 138.5 140.448 138.5C140.987 138.5 141.347 138.859 141.347 139.399H139.549ZM28.7068 152.411V157.786L25.1117 152.411H19.7191V166.791H25.1117V161.399L28.7068 166.791H34.0994V152.411H28.7068ZM42.7248 167.151C47.5781 167.151 50.8137 164.131 50.8137 159.601C50.8137 155.053 47.5781 152.033 42.7248 152.051C37.8714 152.051 34.6359 155.071 34.6359 159.601C34.6359 164.131 37.8714 167.151 42.7248 167.151ZM42.7248 161.848C41.3766 161.848 40.4779 160.949 40.4779 159.601C40.4779 158.253 41.3766 157.354 42.7248 157.354C44.0729 157.354 44.9717 158.253 44.9717 159.601C44.9717 160.949 44.0729 161.848 42.7248 161.848ZM71.3042 157.624C69.6505 157.624 68.3023 158.109 67.4035 158.954C66.6486 158.109 65.4982 157.624 64.1141 157.624C62.9996 157.624 62.0289 157.84 61.238 158.235V157.804H55.8454V166.791H61.238V161.848C61.238 161.309 61.5975 160.949 62.1368 160.949C62.676 160.949 63.0355 161.309 63.0355 161.848V166.791H68.4281V161.848C68.4281 161.309 68.7876 160.949 69.3269 160.949C69.8662 160.949 70.2257 161.309 70.2257 161.848V166.791H75.6183V161.848C75.6183 159.314 73.8926 157.624 71.3042 157.624ZM81.9932 167.061C85.5344 167.061 87.8352 165.138 87.8352 162.297C87.8352 159.421 85.5164 157.516 81.9932 157.534C78.47 157.534 76.1512 159.457 76.1512 162.297C76.1512 165.138 78.47 167.061 81.9932 167.061ZM81.9752 163.646C81.454 163.646 81.0944 163.088 81.0944 162.297C81.0944 161.507 81.454 160.949 81.9752 160.949C82.4965 160.949 82.892 161.507 82.874 162.297C82.874 163.088 82.4965 163.646 81.9752 163.646ZM95.743 157.624C95.006 157.624 94.3409 157.768 93.7657 158.037V157.804H88.3731V166.791H93.7657V161.848C93.7657 161.309 94.1252 160.949 94.6644 160.949C95.1138 160.949 95.4733 161.201 95.5632 161.578L99.4279 159.601C99.4279 159.242 97.9539 157.624 95.743 157.624ZM104.726 167.061C108.213 167.061 110.55 165.407 110.568 162.927H105.624C105.624 163.466 105.265 163.825 104.726 163.825C104.186 163.825 103.827 163.214 103.827 162.297H110.568C110.568 159.421 108.213 157.516 104.726 157.534C101.221 157.534 98.8837 159.439 98.8837 162.297C98.8837 165.156 101.221 167.061 104.726 167.061ZM103.827 161.399C103.827 160.859 104.186 160.5 104.726 160.5C105.265 160.5 105.624 160.859 105.624 161.399H103.827ZM115.779 163.915C115.779 165.749 117.792 166.971 121.352 166.971C125.126 166.971 127.283 165.677 127.283 163.735V163.646C127.283 159.601 120.902 161.848 120.902 160.5V160.23C120.902 159.961 121.082 159.781 121.352 159.781C121.621 159.781 121.801 159.961 121.801 160.23V160.5H126.924V159.871C126.924 158.523 124.911 157.624 121.352 157.624C117.577 157.624 115.42 158.666 115.42 160.23V160.5C115.42 163.915 122.071 162.297 122.071 163.735V163.915C122.071 164.293 121.783 164.544 121.352 164.544C120.92 164.544 120.633 164.293 120.633 163.915V163.376H115.779V163.915ZM135.551 159.601V156.006H133.753V152.411H128.361V156.006H127.462V159.601H128.361V163.196C128.361 165.353 129.799 166.791 131.956 166.791H135.551V162.297H134.652C133.933 162.297 133.753 162.118 133.753 161.399V159.601H135.551ZM142.839 157.804V158.145C142.192 157.804 141.437 157.624 140.592 157.624C137.878 157.624 136.098 159.493 136.098 162.297C136.098 165.102 137.896 166.971 140.592 166.971C141.437 166.971 142.192 166.791 142.839 166.45V166.791H148.232V157.804H142.839ZM141.94 163.646C141.401 163.646 141.042 163.106 141.042 162.297C141.042 161.489 141.401 160.949 141.94 160.949C142.462 160.949 142.821 161.489 142.839 162.297C142.839 163.106 142.48 163.646 141.94 163.646ZM157.221 157.624C156.106 157.624 155.136 157.84 154.345 158.235V157.804H148.952V166.791H154.345V161.848C154.345 161.309 154.704 160.949 155.244 160.949C155.783 160.949 156.142 161.309 156.142 161.848V166.791H161.535V161.848C161.535 159.314 159.809 157.624 157.221 157.624ZM168.644 152.411V158.145C167.996 157.804 167.241 157.624 166.397 157.624C163.7 157.624 161.903 159.493 161.903 162.297C161.903 165.102 163.7 166.971 166.397 166.971C167.241 166.971 167.996 166.791 168.644 166.45V166.791H174.036V152.411H168.644ZM167.745 163.646C167.206 163.646 166.846 163.106 166.846 162.297C166.846 161.489 167.206 160.949 167.745 160.949C168.284 160.949 168.644 161.489 168.644 162.297C168.644 163.106 168.284 163.646 167.745 163.646ZM177.453 156.905C178.963 156.905 180.149 155.7 180.149 154.209C180.149 152.717 178.963 151.512 177.453 151.512C175.943 151.512 174.757 152.717 174.757 154.209C174.757 155.7 175.943 156.905 177.453 156.905ZM174.757 157.804V166.791H180.149V157.804H174.757ZM189.134 157.624C188.02 157.624 187.049 157.84 186.258 158.235V157.804H180.865V166.791H186.258V161.848C186.258 161.309 186.618 160.949 187.157 160.949C187.696 160.949 188.056 161.309 188.056 161.848V166.791H193.448V161.848C193.448 159.314 191.723 157.624 189.134 157.624ZM200.107 157.804V158.235C199.478 157.84 198.723 157.624 197.843 157.624C195.398 157.606 193.816 159.385 193.816 161.938C193.816 164.49 195.434 166.216 197.843 166.216C198.705 166.216 199.478 166 200.107 165.605V165.892C200.107 166.612 199.64 166.791 197.807 166.791H195.793V170.386H200.826C203.091 170.386 204.601 168.589 204.601 165.892V157.804H200.107ZM198.975 163.268C198.31 163.268 197.861 162.711 197.861 161.92C197.861 161.129 198.31 160.572 198.975 160.572C199.622 160.572 200.089 161.129 200.107 161.92C200.107 162.711 199.64 163.268 198.975 163.268ZM205.678 162.297H208.913L209.273 152.411H205.318L205.678 162.297ZM207.296 166.971C208.374 166.971 209.273 166.072 209.273 164.994C209.273 163.915 208.374 163.016 207.296 163.016C206.217 163.016 205.318 163.915 205.318 164.994C205.318 166.072 206.217 166.971 207.296 166.971ZM29.0843 188.791H33.9197L30.3246 174.411H23.1344L19.5394 188.791H24.3747L24.8062 186.994H28.6529L29.0843 188.791ZM25.651 183.399L26.7295 178.905L27.808 183.399H25.651ZM39.8571 185.196V174.411H34.4645V188.791H45.2498V185.196H39.8571ZM51.1795 185.196V174.411H45.7869V188.791H56.5721V185.196H51.1795ZM70.9503 174.411L68.6135 184.423L66.2767 174.411H61.4234L64.8387 188.791H72.3883L75.8037 174.411H70.9503ZM78.6938 178.905C80.2037 178.905 81.3901 177.7 81.3901 176.209C81.3901 174.717 80.2037 173.512 78.6938 173.512C77.1838 173.512 75.9974 174.717 75.9974 176.209C75.9974 177.7 77.1838 178.905 78.6938 178.905ZM75.9974 179.804V188.791H81.3901V179.804H75.9974ZM89.4762 179.624C88.7392 179.624 88.0741 179.768 87.4989 180.037V179.804H82.1063V188.791H87.4989V183.848C87.4989 183.309 87.8584 182.949 88.3976 182.949C88.847 182.949 89.2065 183.201 89.2964 183.578L93.1611 181.601C93.1611 181.242 91.6871 179.624 89.4762 179.624ZM101.426 181.601V178.006H99.628V174.411H94.2354V178.006H93.3366V181.601H94.2354V185.196C94.2354 187.353 95.6734 188.791 97.8305 188.791H101.426V184.297H100.527C99.8078 184.297 99.628 184.118 99.628 183.399V181.601H101.426ZM109.519 179.804V185.286C109.519 185.825 109.159 186.185 108.62 186.185C108.081 186.185 107.721 185.825 107.721 185.286V179.804H102.329V184.747C102.329 187.281 104.198 188.971 107.002 188.971C108.009 188.971 108.872 188.701 109.519 188.198V188.791H114.911V179.804H109.519ZM122.196 179.804V180.145C121.548 179.804 120.793 179.624 119.949 179.624C117.234 179.624 115.455 181.493 115.455 184.297C115.455 187.102 117.252 188.971 119.949 188.971C120.793 188.971 121.548 188.791 122.196 188.45V188.791H127.588V179.804H122.196ZM121.297 185.646C120.757 185.646 120.398 185.106 120.398 184.297C120.398 183.489 120.757 182.949 121.297 182.949C121.818 182.949 122.178 183.489 122.196 184.297C122.196 185.106 121.836 185.646 121.297 185.646ZM128.484 174.411V188.791H133.877V174.411H128.484Z" fill="black"/>
<path d="M28.7484 135.084C29.5393 134.958 30.2044 133.934 30.2044 132.208C30.2044 130.213 28.9462 128.883 27.0587 128.883H18.7002V143.263H27.9575C30.1146 143.263 31.5526 141.465 31.5526 138.769C31.5526 136.576 30.3482 135.174 28.7484 135.084ZM23.194 131.938H24.4343C24.9916 131.938 25.3511 132.334 25.3511 132.927C25.3511 133.52 25.0096 133.916 24.4343 133.916H23.194V131.938ZM24.8118 139.488H23.194V137.151H24.8118C25.423 137.151 25.8544 137.619 25.8544 138.32C25.8903 139.021 25.423 139.488 24.8118 139.488ZM37.7562 143.533C41.2434 143.533 43.5802 141.879 43.5982 139.398H38.655C38.655 139.937 38.2955 140.297 37.7562 140.297C37.2169 140.297 36.8574 139.686 36.8574 138.769H43.5982C43.5982 135.893 41.2434 133.988 37.7562 134.006C34.251 134.006 31.9142 135.911 31.9142 138.769C31.9142 141.627 34.251 143.533 37.7562 143.533ZM36.8574 137.87C36.8574 137.331 37.2169 136.972 37.7562 136.972C38.2955 136.972 38.655 137.331 38.655 137.87H36.8574ZM50.697 134.275V134.617C50.0499 134.275 49.295 134.096 48.4501 134.096C45.7358 134.096 43.9563 135.965 43.9563 138.769C43.9563 141.573 45.7538 143.443 48.4501 143.443C49.295 143.443 50.0499 143.263 50.697 142.921V143.263H56.0897V134.275H50.697ZM49.7983 140.117C49.259 140.117 48.8995 139.578 48.8995 138.769C48.8995 137.96 49.259 137.421 49.7983 137.421C50.3196 137.421 50.6791 137.96 50.697 138.769C50.697 139.578 50.3375 140.117 49.7983 140.117ZM64.7192 136.073V132.478H62.9217V128.883H57.5291V132.478H56.6303V136.073H57.5291V139.668C57.5291 141.825 58.9671 143.263 61.1242 143.263H64.7192V138.769H63.8205C63.1014 138.769 62.9217 138.589 62.9217 137.87V136.073H64.7192ZM77.8497 136.073V132.478H76.0521V128.883H70.6595V132.478H69.7608V136.073H70.6595V139.668C70.6595 141.825 72.0976 143.263 74.2546 143.263H77.8497V138.769H76.9509C76.2319 138.769 76.0521 138.589 76.0521 137.87V136.073H77.8497ZM86.8458 134.096C85.7313 134.096 84.7606 134.311 83.9697 134.707V128.883H78.5771V143.263H83.9697V138.32C83.9697 137.78 84.3292 137.421 84.8685 137.421C85.4077 137.421 85.7673 137.78 85.7673 138.32V143.263H91.1599V138.32C91.1599 135.785 89.4342 134.096 86.8458 134.096ZM97.5453 143.533C101.033 143.533 103.369 141.879 103.387 139.398H98.4441C98.4441 139.937 98.0846 140.297 97.5453 140.297C97.0061 140.297 96.6466 139.686 96.6466 138.769H103.387C103.387 135.893 101.033 133.988 97.5453 134.006C94.0401 134.006 91.7033 135.911 91.7033 138.769C91.7033 141.627 94.0401 143.533 97.5453 143.533ZM96.6466 137.87C96.6466 137.331 97.0061 136.972 97.5453 136.972C98.0846 136.972 98.4441 137.331 98.4441 137.87H96.6466ZM108.419 128.883V143.263H113.812V128.883H108.419ZM117.224 133.376C118.734 133.376 119.92 132.172 119.92 130.68C119.92 129.188 118.734 127.984 117.224 127.984C115.714 127.984 114.528 129.188 114.528 130.68C114.528 132.172 115.714 133.376 117.224 133.376ZM114.528 134.275V143.263H119.92V134.275H114.528ZM128.905 134.096C127.791 134.096 126.82 134.311 126.029 134.707V134.275H120.637V143.263H126.029V138.32C126.029 137.78 126.389 137.421 126.928 137.421C127.467 137.421 127.827 137.78 127.827 138.32V143.263H133.219V138.32C133.219 135.785 131.494 134.096 128.905 134.096ZM139.429 143.533C142.917 143.533 145.253 141.879 145.271 139.398H140.328C140.328 139.937 139.969 140.297 139.429 140.297C138.89 140.297 138.531 139.686 138.531 138.769H145.271C145.271 135.893 142.917 133.988 139.429 134.006C135.924 134.006 133.587 135.911 133.587 138.769C133.587 141.627 135.924 143.533 139.429 143.533ZM138.531 137.87C138.531 137.331 138.89 136.972 139.429 136.972C139.969 136.972 140.328 137.331 140.328 137.87H138.531ZM27.6879 150.883V156.257L24.0928 150.883H18.7002V165.263H24.0928V159.87L27.6879 165.263H33.0805V150.883H27.6879ZM41.7059 165.622C46.5592 165.622 49.7948 162.603 49.7948 158.073C49.7948 153.525 46.5592 150.505 41.7059 150.523C36.8525 150.523 33.6169 153.543 33.6169 158.073C33.6169 162.603 36.8525 165.622 41.7059 165.622ZM41.7059 160.32C40.3577 160.32 39.4589 159.421 39.4589 158.073C39.4589 156.725 40.3577 155.826 41.7059 155.826C43.054 155.826 43.9528 156.725 43.9528 158.073C43.9528 159.421 43.054 160.32 41.7059 160.32ZM70.2853 156.096C68.6315 156.096 67.2834 156.581 66.3846 157.426C65.6297 156.581 64.4792 156.096 63.0951 156.096C61.9807 156.096 61.01 156.311 60.2191 156.707V156.275H54.8265V165.263H60.2191V160.32C60.2191 159.78 60.5786 159.421 61.1178 159.421C61.6571 159.421 62.0166 159.78 62.0166 160.32V165.263H67.4092V160.32C67.4092 159.78 67.7687 159.421 68.308 159.421C68.8472 159.421 69.2068 159.78 69.2068 160.32V165.263H74.5994V160.32C74.5994 157.785 72.8737 156.096 70.2853 156.096ZM80.9743 165.533C84.5154 165.533 86.8163 163.609 86.8163 160.769C86.8163 157.893 84.4975 155.988 80.9743 156.006C77.4511 156.006 75.1323 157.929 75.1323 160.769C75.1323 163.609 77.4511 165.533 80.9743 165.533ZM80.9563 162.117C80.435 162.117 80.0755 161.56 80.0755 160.769C80.0755 159.978 80.435 159.421 80.9563 159.421C81.4776 159.421 81.8731 159.978 81.8551 160.769C81.8551 161.56 81.4776 162.117 80.9563 162.117ZM94.724 156.096C93.9871 156.096 93.322 156.239 92.7468 156.509V156.275H87.3541V165.263H92.7468V160.32C92.7468 159.78 93.1063 159.421 93.6455 159.421C94.0949 159.421 94.4544 159.673 94.5443 160.05L98.409 158.073C98.409 157.713 96.935 156.096 94.724 156.096ZM103.707 165.533C107.194 165.533 109.531 163.879 109.549 161.398H104.606C104.606 161.937 104.246 162.297 103.707 162.297C103.168 162.297 102.808 161.686 102.808 160.769H109.549C109.549 157.893 107.194 155.988 103.707 156.006C100.202 156.006 97.8648 157.911 97.8648 160.769C97.8648 163.627 100.202 165.533 103.707 165.533ZM102.808 159.87C102.808 159.331 103.168 158.972 103.707 158.972C104.246 158.972 104.606 159.331 104.606 159.87H102.808ZM114.76 162.387C114.76 164.22 116.773 165.443 120.333 165.443C124.107 165.443 126.264 164.148 126.264 162.207V162.117C126.264 158.073 119.883 160.32 119.883 158.972V158.702C119.883 158.432 120.063 158.253 120.333 158.253C120.602 158.253 120.782 158.432 120.782 158.702V158.972H125.905V158.342C125.905 156.994 123.892 156.096 120.333 156.096C116.558 156.096 114.401 157.138 114.401 158.702V158.972C114.401 162.387 121.052 160.769 121.052 162.207V162.387C121.052 162.764 120.764 163.016 120.333 163.016C119.901 163.016 119.614 162.764 119.614 162.387V161.848H114.76V162.387ZM134.532 158.073V154.478H132.734V150.883H127.342V154.478H126.443V158.073H127.342V161.668C127.342 163.825 128.78 165.263 130.937 165.263H134.532V160.769H133.633C132.914 160.769 132.734 160.589 132.734 159.87V158.073H134.532ZM141.82 156.275V156.617C141.173 156.275 140.418 156.096 139.573 156.096C136.859 156.096 135.079 157.965 135.079 160.769C135.079 163.573 136.877 165.443 139.573 165.443C140.418 165.443 141.173 165.263 141.82 164.921V165.263H147.213V156.275H141.82ZM140.921 162.117C140.382 162.117 140.023 161.578 140.023 160.769C140.023 159.96 140.382 159.421 140.921 159.421C141.443 159.421 141.802 159.96 141.82 160.769C141.82 161.578 141.461 162.117 140.921 162.117ZM156.202 156.096C155.087 156.096 154.117 156.311 153.326 156.707V156.275H147.933V165.263H153.326V160.32C153.326 159.78 153.685 159.421 154.225 159.421C154.764 159.421 155.123 159.78 155.123 160.32V165.263H160.516V160.32C160.516 157.785 158.79 156.096 156.202 156.096ZM167.625 150.883V156.617C166.978 156.275 166.223 156.096 165.378 156.096C162.681 156.096 160.884 157.965 160.884 160.769C160.884 163.573 162.681 165.443 165.378 165.443C166.223 165.443 166.978 165.263 167.625 164.921V165.263H173.017V150.883H167.625ZM166.726 162.117C166.187 162.117 165.827 161.578 165.827 160.769C165.827 159.96 166.187 159.421 166.726 159.421C167.265 159.421 167.625 159.96 167.625 160.769C167.625 161.578 167.265 162.117 166.726 162.117ZM176.434 155.376C177.944 155.376 179.13 154.172 179.13 152.68C179.13 151.188 177.944 149.984 176.434 149.984C174.924 149.984 173.738 151.188 173.738 152.68C173.738 154.172 174.924 155.376 176.434 155.376ZM173.738 156.275V165.263H179.13V156.275H173.738ZM188.115 156.096C187.001 156.096 186.03 156.311 185.239 156.707V156.275H179.846V165.263H185.239V160.32C185.239 159.78 185.599 159.421 186.138 159.421C186.677 159.421 187.037 159.78 187.037 160.32V165.263H192.429V160.32C192.429 157.785 190.704 156.096 188.115 156.096ZM199.089 156.275V156.707C198.459 156.311 197.704 156.096 196.824 156.096C194.379 156.078 192.797 157.857 192.797 160.41C192.797 162.962 194.415 164.688 196.824 164.688C197.686 164.688 198.459 164.472 199.089 164.077V164.364C199.089 165.083 198.621 165.263 196.788 165.263H194.774V168.858H199.808C202.072 168.858 203.582 167.06 203.582 164.364V156.275H199.089ZM197.956 161.74C197.291 161.74 196.842 161.183 196.842 160.392C196.842 159.601 197.291 159.043 197.956 159.043C198.603 159.043 199.071 159.601 199.089 160.392C199.089 161.183 198.621 161.74 197.956 161.74ZM204.659 160.769H207.894L208.254 150.883H204.299L204.659 160.769ZM206.277 165.443C207.355 165.443 208.254 164.544 208.254 163.465C208.254 162.387 207.355 161.488 206.277 161.488C205.198 161.488 204.299 162.387 204.299 163.465C204.299 164.544 205.198 165.443 206.277 165.443ZM28.0654 187.263H32.9007L29.3057 172.883H22.1155L18.5205 187.263H23.3558L23.7872 185.465H27.634L28.0654 187.263ZM24.6321 181.87L25.7106 177.376L26.7891 181.87H24.6321ZM38.8382 183.668V172.883H33.4456V187.263H44.2308V183.668H38.8382ZM50.1606 183.668V172.883H44.768V187.263H55.5532V183.668H50.1606ZM69.9314 172.883L67.5946 182.895L65.2578 172.883H60.4044L63.8198 187.263H71.3694L74.7847 172.883H69.9314ZM77.6748 177.376C79.1848 177.376 80.3711 176.172 80.3711 174.68C80.3711 173.188 79.1848 171.984 77.6748 171.984C76.1649 171.984 74.9785 173.188 74.9785 174.68C74.9785 176.172 76.1649 177.376 77.6748 177.376ZM74.9785 178.275V187.263H80.3711V178.275H74.9785ZM88.4572 178.096C87.7202 178.096 87.0552 178.239 86.4799 178.509V178.275H81.0873V187.263H86.4799V182.32C86.4799 181.78 86.8395 181.421 87.3787 181.421C87.8281 181.421 88.1876 181.673 88.2775 182.05L92.1422 180.073C92.1422 179.713 90.6682 178.096 88.4572 178.096ZM100.407 180.073V176.478H98.6091V172.883H93.2165V176.478H92.3177V180.073H93.2165V183.668C93.2165 185.825 94.6545 187.263 96.8116 187.263H100.407V182.769H99.5079C98.7889 182.769 98.6091 182.589 98.6091 181.87V180.073H100.407ZM108.5 178.275V183.758C108.5 184.297 108.14 184.657 107.601 184.657C107.062 184.657 106.702 184.297 106.702 183.758V178.275H101.31V183.218C101.31 185.753 103.179 187.443 105.983 187.443C106.99 187.443 107.853 187.173 108.5 186.67V187.263H113.892V178.275H108.5ZM121.177 178.275V178.617C120.529 178.275 119.775 178.096 118.93 178.096C116.215 178.096 114.436 179.965 114.436 182.769C114.436 185.573 116.233 187.443 118.93 187.443C119.775 187.443 120.529 187.263 121.177 186.921V187.263H126.569V178.275H121.177ZM120.278 184.117C119.739 184.117 119.379 183.578 119.379 182.769C119.379 181.96 119.739 181.421 120.278 181.421C120.799 181.421 121.159 181.96 121.177 182.769C121.177 183.578 120.817 184.117 120.278 184.117ZM127.465 172.883V187.263H132.858V172.883H127.465Z" fill="#EFC404"/>
<path d="M208.709 104.97C209.465 104.97 210.08 104.356 210.069 103.6C209.713 78.8922 199.756 55.2723 182.279 37.7738C164.479 19.9522 140.337 9.94019 115.164 9.94019C89.9907 9.94018 65.8487 19.9522 48.0487 37.7738C30.5714 55.2723 20.614 78.8922 20.2586 103.6C20.2478 104.356 20.8618 104.97 21.6179 104.97L115.164 104.97H208.709Z" fill="#F98548"/>
<path d="M192.993 105.039C192.993 83.7432 184.79 63.3193 170.19 48.2607C155.59 33.202 135.787 24.7422 115.139 24.7422C94.4914 24.7422 74.6891 33.202 60.0887 48.2607C45.4884 63.3193 37.286 83.7432 37.286 105.039L115.139 105.039H192.993Z" fill="#FFF4D4"/>
<path d="M176.569 104.97C176.569 88.1738 170.1 72.0655 158.585 60.1888C147.07 48.3121 131.452 41.6399 115.167 41.6399C98.8818 41.6399 83.2638 48.3121 71.7486 60.1888C60.2333 72.0655 53.7642 88.1737 53.7642 104.97L115.167 104.97H176.569Z" fill="#F98548"/>
<path d="M159.228 105.04C159.228 93.003 154.592 81.459 146.34 72.9476C138.087 64.4362 126.895 59.6545 115.224 59.6545C103.554 59.6545 92.361 64.4362 84.1086 72.9476C75.8562 81.459 71.2201 93.003 71.2201 105.04L115.224 105.04H159.228Z" fill="#FFF4D4"/>
<path d="M37.984 94.4963H192.294L210.029 105.04H20.2488L37.984 94.4963Z" fill="black"/>
<g clip-path="url(#clip0)">
<path d="M97.6203 100.752C77.851 90.8307 80.6366 60.2195 91.3107 48.8966L116.497 41.4153L118.294 41.2768L121.318 98.2047C119.271 98.2225 108.898 102.665 97.6203 100.752Z" fill="#E55B42" stroke="#FFF4D4" stroke-width="0.959654"/>
<path d="M139.002 90.7571L126.057 88.9006L123.785 92.9319C127.325 93.5154 130.646 93.9003 134.616 94.5232C136.571 94.8299 140.798 94.5232 139.372 98.5014L136.096 113.99C137.1 114.574 140.851 114.945 143.493 115.369C157.23 117.576 153.267 106.458 142.542 109.64C142.718 108.527 143.44 105.132 144.655 98.9788C145.357 95.4249 144.285 92.1363 139.002 90.7571Z" fill="#E55B42" stroke="black" stroke-width="1.44653"/>
<ellipse cx="119.903" cy="69.8144" rx="24.8552" ry="29.3533" transform="rotate(1.21553 119.903 69.8144)" fill="#FCFCFC"/>
<path d="M144.14 69.9262C143.799 85.9872 132.536 98.4717 119.318 98.1912C106.1 97.9108 95.3768 84.9598 95.7175 68.8988C96.0583 52.8378 107.322 40.3534 120.539 40.6338C133.757 40.9143 144.481 53.8653 144.14 69.9262Z" stroke="#FFF4D4" stroke-width="2.0564"/>
<path d="M119.45 97.8725C132.78 98.1554 143.783 85.6378 144.115 70.0151C144.446 54.3925 133.984 41.4195 120.654 41.1366C107.323 40.8538 96.3204 53.3713 95.9889 68.994C95.6574 84.6167 106.119 97.5897 119.45 97.8725Z" stroke="black" stroke-width="0.548373"/>
<path d="M129.526 75.9998C129.142 76.2527 127.617 73.3712 124.821 73.7057C122.025 74.0402 120.172 78.1128 119.996 76.6432C119.956 76.305 121.967 73.5503 124.762 73.2158C127.558 72.8813 130.384 75.4341 129.526 75.9998Z" fill="black"/>
<path d="M109.845 70.0391C109.823 69.3777 110.341 68.8232 111.002 68.8005L122.863 68.3941L111.323 71.1632C110.585 71.3401 109.871 70.7967 109.845 70.0391ZM124.216 68.2106L136.257 65.3212C137.225 65.089 138.063 66.0252 137.725 66.9612C137.552 67.4422 137.103 67.769 136.592 67.7865L124.216 68.2106Z" fill="black" stroke="black" stroke-width="0.137093" stroke-linejoin="round"/>
<path d="M116.877 43.3821C117.197 45.6098 118.167 47.5123 119.458 48.7908C120.748 50.069 122.336 50.707 123.92 50.4794C125.505 50.2519 126.849 49.1929 127.727 47.6033C128.606 46.0134 129.002 43.9147 128.682 41.687C128.362 39.4593 127.391 37.5568 126.101 36.2783C124.811 35.0001 123.223 34.3622 121.638 34.5897C120.054 34.8172 118.71 35.8762 117.831 37.4658C116.953 39.0557 116.557 41.1544 116.877 43.3821Z" fill="white" stroke="black" stroke-width="0.866925"/>
<mask id="path-17-inside-1" fill="white">
<path fill-rule="evenodd" clip-rule="evenodd" d="M123.133 45.4886C124.171 45.3396 124.827 43.9276 124.598 42.3349C124.369 40.7422 123.343 39.5718 122.305 39.7208C121.45 39.8436 120.854 40.8235 120.799 42.0556L122.233 42.63L121.006 43.595C121.394 44.8045 122.26 45.614 123.133 45.4886Z"/>
</mask>
<path fill-rule="evenodd" clip-rule="evenodd" d="M123.133 45.4886C124.171 45.3396 124.827 43.9276 124.598 42.3349C124.369 40.7422 123.343 39.5718 122.305 39.7208C121.45 39.8436 120.854 40.8235 120.799 42.0556L122.233 42.63L121.006 43.595C121.394 44.8045 122.26 45.614 123.133 45.4886Z" fill="black"/>
<path d="M120.799 42.0556L120.51 42.0426L120.501 42.2475L120.692 42.3238L120.799 42.0556ZM122.233 42.63L122.412 42.8572L122.805 42.5479L122.341 42.3618L122.233 42.63ZM121.006 43.595L120.827 43.3678L120.669 43.492L120.73 43.6834L121.006 43.595ZM124.312 42.376C124.42 43.1251 124.317 43.8185 124.078 44.3314C123.839 44.8472 123.483 45.1465 123.092 45.2026L123.174 45.7746C123.822 45.6817 124.312 45.2005 124.603 44.5749C124.895 43.9464 125.005 43.1375 124.884 42.2938L124.312 42.376ZM122.346 40.0069C122.736 39.9508 123.163 40.1377 123.538 40.5653C123.911 40.9904 124.204 41.6269 124.312 42.376L124.884 42.2938C124.763 41.4502 124.429 40.7051 123.972 40.1842C123.517 39.6656 122.911 39.3418 122.264 39.4348L122.346 40.0069ZM121.088 42.0686C121.114 41.4928 121.265 40.9909 121.496 40.627C121.727 40.2637 122.023 40.0532 122.346 40.0069L122.264 39.4348C121.732 39.5112 121.303 39.8521 121.008 40.3175C120.713 40.7822 120.54 41.3864 120.51 42.0426L121.088 42.0686ZM120.692 42.3238L122.126 42.8983L122.341 42.3618L120.906 41.7873L120.692 42.3238ZM122.054 42.4028L120.827 43.3678L121.184 43.8222L122.412 42.8572L122.054 42.4028ZM123.092 45.2026C122.763 45.2499 122.41 45.1252 122.081 44.8279C121.752 44.5303 121.462 44.0724 121.281 43.5066L120.73 43.6834C120.937 44.327 121.275 44.8787 121.694 45.2569C122.113 45.6354 122.63 45.8528 123.174 45.7746L123.092 45.2026Z" fill="black" mask="url(#path-17-inside-1)"/>
<path d="M128.612 41.2592C128.235 39.2159 127.308 37.4742 126.101 36.2783C124.811 35.0001 123.223 34.3622 121.638 34.5897C120.054 34.8172 118.71 35.8762 117.831 37.4658C117.01 38.9529 116.61 40.8852 116.824 42.9518L116.838 42.9498L116.862 42.9464L116.885 42.943L116.909 42.9396L116.932 42.9363L116.955 42.9329L116.979 42.9296L117.002 42.9263L117.025 42.923L117.047 42.9197L117.07 42.9165L117.093 42.9132L117.115 42.91L117.137 42.9068L117.159 42.9036L117.181 42.9005L117.203 42.8973L117.225 42.8942L117.247 42.8911L117.268 42.888L117.29 42.8849L117.311 42.8819L117.332 42.8788L117.353 42.8758L117.374 42.8728L117.395 42.8698L117.415 42.8669L117.436 42.8639L117.456 42.861L117.477 42.8581L117.497 42.8552L117.517 42.8523L117.537 42.8494L117.557 42.8465L117.577 42.8437L117.596 42.8409L117.616 42.8381L117.635 42.8353L117.655 42.8325L117.674 42.8298L117.693 42.827L117.712 42.8243L117.731 42.8216L117.749 42.8189L117.768 42.8162L117.786 42.8136L117.805 42.8109L117.823 42.8083L117.841 42.8057L117.859 42.8031L117.877 42.8005L117.895 42.798L117.913 42.7954L117.931 42.7929L117.948 42.7904L117.966 42.7879L117.983 42.7854L118 42.7829L118.017 42.7804L118.034 42.778L118.051 42.7755L118.068 42.7731L118.085 42.7707L118.102 42.7683L118.118 42.766L118.135 42.7636L118.151 42.7613L118.167 42.7589L118.183 42.7566L118.199 42.7543L118.215 42.752L118.231 42.7497L118.247 42.7475L118.262 42.7452L118.278 42.743L118.294 42.7408L118.309 42.7386L118.324 42.7364L118.339 42.7342L118.354 42.732L118.369 42.7299L118.384 42.7277L118.399 42.7256L118.414 42.7235L118.429 42.7214L118.443 42.7193L118.458 42.7172L118.472 42.7152L118.486 42.7131L118.5 42.7111L118.515 42.709L118.529 42.707L118.542 42.705L118.556 42.703L118.57 42.7011L118.584 42.6991L118.597 42.6971L118.611 42.6952L118.624 42.6933L118.638 42.6914L118.651 42.6894L118.664 42.6876L118.677 42.6857L118.69 42.6838L118.703 42.6819L118.716 42.6801L118.729 42.6783L118.742 42.6764L118.754 42.6746L118.767 42.6728L118.779 42.671L118.792 42.6692L118.804 42.6675L118.816 42.6657L118.829 42.664L118.841 42.6622L118.853 42.6605L118.865 42.6588L118.877 42.6571L118.888 42.6554L118.9 42.6537L118.912 42.652L118.923 42.6503L118.935 42.6487L118.946 42.647L118.958 42.6454L118.969 42.6438L118.98 42.6422L118.992 42.6406L119.003 42.639L119.014 42.6374L119.025 42.6358L119.036 42.6342L119.046 42.6327L119.057 42.6311L119.068 42.6296L119.079 42.628L119.089 42.6265L119.1 42.625L119.11 42.6235L119.121 42.622L119.131 42.6205L119.141 42.619L119.152 42.6176L119.162 42.6161L119.172 42.6146L119.182 42.6132L119.192 42.6118L119.202 42.6103L119.212 42.6089L119.222 42.6075L119.231 42.6061L119.241 42.6047L119.251 42.6033L119.26 42.6019L119.27 42.6006L119.28 42.5992L119.289 42.5978L119.298 42.5965L119.308 42.5951L119.317 42.5938L119.326 42.5925L119.335 42.5912L119.345 42.5898L119.354 42.5885L119.363 42.5872L119.372 42.586L119.381 42.5847L119.39 42.5834L119.398 42.5821L119.407 42.5808L119.416 42.5796L119.425 42.5783L119.433 42.5771L119.442 42.5759L119.451 42.5746L119.459 42.5734L119.468 42.5722L119.476 42.571L119.485 42.5697L119.493 42.5685L119.501 42.5673L119.51 42.5662L119.518 42.565L119.526 42.5638L119.534 42.5626L119.542 42.5614L119.551 42.5603L119.559 42.5591L119.567 42.558L119.575 42.5568L119.583 42.5557L119.59 42.5545L119.598 42.5534L119.606 42.5523L119.614 42.5512L119.622 42.55L119.63 42.5489L119.637 42.5478L119.645 42.5467L119.653 42.5456L119.66 42.5445L119.668 42.5434L119.675 42.5423L119.683 42.5413L119.69 42.5402L119.698 42.5391L119.705 42.538L119.713 42.537L119.72 42.5359L119.728 42.5349L119.735 42.5338L119.742 42.5327L119.75 42.5317L119.757 42.5307L119.764 42.5296L119.771 42.5286L119.779 42.5275L119.786 42.5265L119.793 42.5255L119.8 42.5244L119.807 42.5234L119.814 42.5224L119.821 42.5214L119.828 42.5204L119.835 42.5194L119.843 42.5184L119.85 42.5173L119.857 42.5163L119.863 42.5153L119.87 42.5143L119.877 42.5133L119.884 42.5124L119.891 42.5114L119.898 42.5104L119.905 42.5094L119.912 42.5084L119.919 42.5074L119.926 42.5064L119.932 42.5054L119.939 42.5045L119.946 42.5035L119.953 42.5025L119.96 42.5015L119.966 42.5006L119.973 42.4996L119.98 42.4986L119.987 42.4976L119.994 42.4967L120 42.4957L120.007 42.4947L120.014 42.4938L120.021 42.4928L120.027 42.4918L120.034 42.4909L120.041 42.4899L120.047 42.4889L120.054 42.488L120.061 42.487L120.068 42.486L120.074 42.4851L120.081 42.4841L120.088 42.4831L120.094 42.4822L120.101 42.4812L120.108 42.4802L120.115 42.4793L120.121 42.4783L120.128 42.4773L120.135 42.4764L120.142 42.4754L120.148 42.4744L120.155 42.4735L120.162 42.4725L120.169 42.4715L120.175 42.4706L120.182 42.4696L120.189 42.4686L120.196 42.4676L120.202 42.4667L120.209 42.4657L120.216 42.4647L120.223 42.4637L120.23 42.4627L120.237 42.4618L120.243 42.4608L120.25 42.4598L120.257 42.4588L120.264 42.4578L120.271 42.4568L120.278 42.4558L120.285 42.4548L120.292 42.4538L120.299 42.4528L120.306 42.4518L120.313 42.4508L120.32 42.4498L120.327 42.4488L120.334 42.4478L120.341 42.4468L120.348 42.4457L120.355 42.4447L120.362 42.4437L120.37 42.4427L120.377 42.4416L120.384 42.4406L120.391 42.4396L120.398 42.4385L120.406 42.4375L120.413 42.4364L120.42 42.4354L120.428 42.4343L120.435 42.4333L120.442 42.4322L120.45 42.4311L120.457 42.4301L120.465 42.429L120.472 42.4279L120.48 42.4268L120.487 42.4257L120.495 42.4247L120.503 42.4236L120.51 42.4225L120.518 42.4214L120.526 42.4203L120.533 42.4191L120.541 42.418L120.549 42.4169L120.557 42.4158L120.565 42.4146L120.573 42.4135L120.581 42.4124L120.589 42.4112L120.597 42.4101L120.605 42.4089L120.613 42.4077L120.621 42.4066L120.629 42.4054L120.637 42.4042L120.646 42.403L120.654 42.4018L120.662 42.4006L120.671 42.3994L120.679 42.3982L120.687 42.397L120.696 42.3958L120.704 42.3946L120.713 42.3933L120.722 42.3921L120.73 42.3909L120.739 42.3896L120.748 42.3884L120.757 42.3871L120.766 42.3858L120.774 42.3845L120.783 42.3833L120.792 42.382L120.801 42.3807L120.81 42.3794L120.82 42.378L120.829 42.3767L120.838 42.3754L120.847 42.3741L120.857 42.3727L120.866 42.3714L120.876 42.37L120.885 42.3687L120.895 42.3673L120.904 42.3659L120.914 42.3645L120.924 42.3631L120.933 42.3617L120.943 42.3603L120.953 42.3589L120.963 42.3575L120.973 42.356L120.983 42.3546L120.993 42.3531L121.003 42.3517L121.014 42.3502L121.024 42.3487L121.034 42.3472L121.045 42.3457L121.055 42.3442L121.066 42.3427L121.076 42.3412L121.087 42.3397L121.098 42.3381L121.108 42.3366L121.119 42.335L121.13 42.3335L121.141 42.3319L121.152 42.3303L121.163 42.3287L121.175 42.3271L121.186 42.3255L121.197 42.3238L121.208 42.3222L121.22 42.3206L121.231 42.3189L121.243 42.3172L121.255 42.3156L121.266 42.3139L121.278 42.3122L121.29 42.3105L121.302 42.3088L121.314 42.307L121.326 42.3053L121.338 42.3036L121.351 42.3018L121.363 42.3L121.375 42.2982L121.388 42.2965L121.4 42.2947L121.413 42.2928L121.426 42.291L121.438 42.2892L121.451 42.2873L121.464 42.2855L121.477 42.2836L121.49 42.2817L121.504 42.2798L121.517 42.2779L121.53 42.276L121.544 42.2741L121.557 42.2721L121.571 42.2702L121.584 42.2682L121.598 42.2663L121.612 42.2643L121.626 42.2623L121.64 42.2603L121.654 42.2582L121.668 42.2562L121.683 42.2541L121.697 42.2521L121.711 42.25L121.726 42.2479L121.741 42.2458L121.755 42.2437L121.77 42.2416L121.785 42.2394L121.8 42.2373L121.815 42.2351L121.83 42.2329L121.845 42.2307L121.861 42.2285L121.876 42.2263L121.892 42.2241L121.907 42.2218L121.923 42.2196L121.939 42.2173L121.955 42.215L121.971 42.2127L121.987 42.2104L122.003 42.2081L122.02 42.2057L122.036 42.2034L122.053 42.201L122.069 42.1986L122.086 42.1962L122.103 42.1938L122.12 42.1914L122.137 42.1889L122.154 42.1865L122.171 42.184L122.188 42.1815L122.206 42.179L122.223 42.1765L122.241 42.1739L122.259 42.1714L122.277 42.1688L122.295 42.1663L122.313 42.1637L122.331 42.161L122.349 42.1584L122.367 42.1558L122.386 42.1531L122.405 42.1505L122.423 42.1478L122.442 42.1451L122.461 42.1423L122.48 42.1396L122.499 42.1369L122.519 42.1341L122.538 42.1313L122.557 42.1285L122.577 42.1257L122.597 42.1228L122.617 42.12L122.637 42.1171L122.657 42.1142L122.677 42.1113L122.697 42.1084L122.718 42.1055L122.738 42.1026L122.758 42.0996L122.779 42.0967L122.799 42.0939L122.819 42.091L122.839 42.0881L122.858 42.0853L122.878 42.0825L122.898 42.0797L122.917 42.0769L122.936 42.0741L122.956 42.0713L122.975 42.0686L122.994 42.0659L123.013 42.0632L123.031 42.0605L123.05 42.0578L123.069 42.0551L123.087 42.0525L123.105 42.0498L123.124 42.0472L123.142 42.0446L123.16 42.042L123.178 42.0394L123.196 42.0369L123.213 42.0343L123.231 42.0318L123.249 42.0292L123.266 42.0267L123.283 42.0242L123.301 42.0218L123.318 42.0193L123.335 42.0169L123.352 42.0144L123.369 42.012L123.386 42.0096L123.402 42.0072L123.419 42.0048L123.435 42.0025L123.452 42.0001L123.468 41.9978L123.484 41.9954L123.5 41.9931L123.516 41.9908L123.532 41.9885L123.548 41.9863L123.564 41.984L123.579 41.9818L123.595 41.9795L123.61 41.9773L123.626 41.9751L123.641 41.9729L123.656 41.9707L123.671 41.9685L123.686 41.9664L123.701 41.9642L123.716 41.9621L123.731 41.96L123.746 41.9579L123.76 41.9558L123.775 41.9537L123.789 41.9516L123.804 41.9496L123.818 41.9475L123.832 41.9455L123.846 41.9435L123.86 41.9415L123.874 41.9395L123.888 41.9375L123.902 41.9355L123.915 41.9335L123.929 41.9316L123.942 41.9296L123.956 41.9277L123.969 41.9258L123.983 41.9239L123.996 41.922L124.009 41.9201L124.022 41.9182L124.035 41.9163L124.048 41.9145L124.061 41.9126L124.073 41.9108L124.086 41.909L124.099 41.9072L124.111 41.9054L124.124 41.9036L124.136 41.9018L124.149 41.9L124.161 41.8983L124.173 41.8965L124.185 41.8948L124.197 41.893L124.209 41.8913L124.221 41.8896L124.233 41.8879L124.245 41.8862L124.256 41.8845L124.268 41.8829L124.28 41.8812L124.291 41.8796L124.303 41.8779L124.314 41.8763L124.325 41.8746L124.337 41.873L124.348 41.8714L124.359 41.8698L124.37 41.8682L124.381 41.8667L124.392 41.8651L124.403 41.8635L124.414 41.862L124.424 41.8604L124.435 41.8589L124.446 41.8574L124.456 41.8558L124.467 41.8543L124.477 41.8528L124.488 41.8513L124.498 41.8498L124.508 41.8484L124.519 41.8469L124.529 41.8454L124.539 41.844L124.549 41.8425L124.559 41.8411L124.569 41.8396L124.579 41.8382L124.589 41.8368L124.599 41.8354L124.608 41.834L124.618 41.8326L124.628 41.8312L124.637 41.8298L124.647 41.8284L124.657 41.8271L124.666 41.8257L124.675 41.8244L124.685 41.823L124.694 41.8217L124.703 41.8203L124.713 41.819L124.722 41.8177L124.731 41.8164L124.74 41.8151L124.749 41.8138L124.758 41.8125L124.767 41.8112L124.776 41.8099L124.785 41.8086L124.794 41.8074L124.803 41.8061L124.811 41.8048L124.82 41.8036L124.829 41.8023L124.838 41.8011L124.846 41.7999L124.855 41.7986L124.863 41.7974L124.872 41.7962L124.88 41.795L124.889 41.7938L124.897 41.7926L124.905 41.7914L124.914 41.7902L124.922 41.789L124.93 41.7878L124.938 41.7866L124.947 41.7854L124.955 41.7843L124.963 41.7831L124.971 41.7819L124.979 41.7808L124.987 41.7796L124.995 41.7785L125.003 41.7773L125.011 41.7762L125.019 41.7751L125.027 41.7739L125.035 41.7728L125.042 41.7717L125.05 41.7706L125.058 41.7694L125.066 41.7683L125.073 41.7672L125.081 41.7661L125.089 41.765L125.096 41.7639L125.104 41.7628L125.112 41.7617L125.119 41.7606L125.127 41.7596L125.134 41.7585L125.142 41.7574L125.149 41.7563L125.157 41.7553L125.164 41.7542L125.172 41.7531L125.179 41.7521L125.186 41.751L125.194 41.7499L125.201 41.7489L125.209 41.7478L125.216 41.7468L125.223 41.7457L125.23 41.7447L125.238 41.7436L125.245 41.7426L125.252 41.7415L125.26 41.7405L125.267 41.7395L125.274 41.7384L125.281 41.7374L125.288 41.7364L125.296 41.7353L125.303 41.7343L125.31 41.7333L125.317 41.7322L125.324 41.7312L125.331 41.7302L125.338 41.7292L125.346 41.7282L125.353 41.7271L125.36 41.7261L125.367 41.7251L125.374 41.7241L125.381 41.7231L125.388 41.722L125.395 41.721L125.402 41.72L125.409 41.719L125.416 41.718L125.423 41.717L125.43 41.716L125.438 41.7149L125.445 41.7139L125.452 41.7129L125.459 41.7119L125.466 41.7109L125.473 41.7099L125.48 41.7089L125.487 41.7078L125.494 41.7068L125.501 41.7058L125.508 41.7048L125.515 41.7038L125.522 41.7028L125.529 41.7017L125.536 41.7007L125.544 41.6997L125.551 41.6987L125.558 41.6977L125.565 41.6966L125.572 41.6956L125.579 41.6946L125.586 41.6936L125.593 41.6925L125.601 41.6915L125.608 41.6905L125.615 41.6895L125.622 41.6884L125.629 41.6874L125.637 41.6864L125.644 41.6853L125.651 41.6843L125.658 41.6832L125.666 41.6822L125.673 41.6812L125.68 41.6801L125.687 41.6791L125.695 41.678L125.702 41.6769L125.709 41.6759L125.717 41.6748L125.724 41.6738L125.732 41.6727L125.739 41.6716L125.747 41.6706L125.754 41.6695L125.761 41.6684L125.769 41.6673L125.777 41.6663L125.784 41.6652L125.792 41.6641L125.799 41.663L125.807 41.6619L125.815 41.6608L125.822 41.6597L125.83 41.6586L125.838 41.6575L125.845 41.6564L125.853 41.6553L125.861 41.6541L125.869 41.653L125.877 41.6519L125.884 41.6508L125.892 41.6496L125.9 41.6485L125.908 41.6473L125.916 41.6462L125.924 41.6451L125.932 41.6439L125.94 41.6427L125.948 41.6416L125.957 41.6404L125.965 41.6392L125.973 41.638L125.981 41.6369L125.99 41.6357L125.998 41.6345L126.006 41.6333L126.015 41.6321L126.023 41.6309L126.031 41.6297L126.04 41.6284L126.048 41.6272L126.057 41.626L126.066 41.6247L126.074 41.6235L126.083 41.6223L126.092 41.621L126.1 41.6197L126.109 41.6185L126.118 41.6172L126.127 41.6159L126.136 41.6147L126.145 41.6134L126.154 41.6121L126.163 41.6108L126.172 41.6095L126.181 41.6081L126.19 41.6068L126.2 41.6055L126.209 41.6042L126.218 41.6028L126.228 41.6015L126.237 41.6001L126.247 41.5988L126.256 41.5974L126.266 41.596L126.275 41.5946L126.285 41.5933L126.295 41.5919L126.304 41.5905L126.314 41.5891L126.324 41.5876L126.334 41.5862L126.344 41.5848L126.354 41.5833L126.364 41.5819L126.374 41.5804L126.384 41.579L126.395 41.5775L126.405 41.576L126.415 41.5745L126.426 41.573L126.436 41.5715L126.447 41.57L126.457 41.5685L126.468 41.567L126.479 41.5654L126.489 41.5639L126.5 41.5623L126.511 41.5608L126.522 41.5592L126.533 41.5576L126.544 41.556L126.555 41.5544L126.566 41.5528L126.578 41.5512L126.589 41.5496L126.6 41.548L126.612 41.5463L126.623 41.5447L126.635 41.543L126.647 41.5413L126.658 41.5396L126.67 41.538L126.682 41.5363L126.694 41.5345L126.706 41.5328L126.718 41.5311L126.73 41.5294L126.742 41.5276L126.754 41.5258L126.767 41.5241L126.779 41.5223L126.792 41.5205L126.804 41.5187L126.817 41.5169L126.829 41.5151L126.842 41.5132L126.855 41.5114L126.868 41.5095L126.881 41.5077L126.894 41.5058L126.907 41.5039L126.92 41.502L126.934 41.5001L126.947 41.4982L126.96 41.4963L126.974 41.4943L126.988 41.4924L127.001 41.4904L127.015 41.4884L127.029 41.4864L127.043 41.4844L127.057 41.4824L127.071 41.4804L127.085 41.4784L127.099 41.4763L127.114 41.4743L127.128 41.4722L127.143 41.4701L127.157 41.468L127.172 41.4659L127.187 41.4638L127.201 41.4617L127.216 41.4595L127.231 41.4574L127.246 41.4552L127.262 41.453L127.277 41.4508L127.292 41.4486L127.308 41.4464L127.323 41.4442L127.339 41.4419L127.355 41.4396L127.371 41.4374L127.386 41.4351L127.402 41.4328L127.419 41.4305L127.435 41.4282L127.451 41.4258L127.467 41.4235L127.484 41.4211L127.5 41.4187L127.517 41.4163L127.534 41.4139L127.551 41.4115L127.568 41.4091L127.585 41.4066L127.602 41.4042L127.619 41.4017L127.636 41.3992L127.654 41.3967L127.671 41.3942L127.689 41.3916L127.707 41.3891L127.725 41.3865L127.743 41.3839L127.761 41.3813L127.779 41.3787L127.797 41.3761L127.815 41.3735L127.834 41.3708L127.853 41.3682L127.871 41.3655L127.89 41.3628L127.909 41.3601L127.928 41.3573L127.947 41.3546L127.966 41.3518L127.985 41.3491L128.005 41.3463L128.024 41.3435L128.044 41.3407L128.064 41.3378L128.084 41.335L128.104 41.3321L128.124 41.3292L128.144 41.3263L128.164 41.3234L128.185 41.3205L128.205 41.3175L128.226 41.3145L128.247 41.3116L128.268 41.3086L128.289 41.3055L128.31 41.3025L128.331 41.2995L128.352 41.2964L128.374 41.2933L128.395 41.2902L128.417 41.2871L128.439 41.284L128.461 41.2808L128.483 41.2777L128.505 41.2745L128.527 41.2713L128.55 41.2681L128.572 41.2648L128.595 41.2616L128.612 41.2592Z" fill="#E55B42" stroke="black" stroke-width="0.866925"/>
<path d="M105.848 44.9639C106.168 47.1916 107.138 49.0941 108.429 50.3726C109.719 51.6508 111.307 52.2887 112.891 52.0612C114.476 51.8337 115.82 50.7747 116.698 49.1851C117.577 47.5952 117.973 45.4965 117.653 43.2688C117.333 41.0411 116.362 39.1386 115.072 37.8601C113.782 36.5819 112.194 35.9439 110.61 36.1715C109.025 36.399 107.681 37.458 106.802 39.0476C105.924 40.6375 105.528 42.7362 105.848 44.9639Z" fill="white" stroke="black" stroke-width="0.866925"/>
<mask id="path-21-inside-2" fill="white">
<path fill-rule="evenodd" clip-rule="evenodd" d="M111.866 46.9085C112.904 46.7595 113.56 45.3476 113.331 43.7548C113.102 42.1621 112.076 40.9917 111.038 41.1408C110.183 41.2635 109.587 42.2435 109.532 43.4756L110.966 44.05L109.738 45.0149C110.127 46.2244 110.993 47.034 111.866 46.9085Z"/>
</mask>
<path fill-rule="evenodd" clip-rule="evenodd" d="M111.866 46.9085C112.904 46.7595 113.56 45.3476 113.331 43.7548C113.102 42.1621 112.076 40.9917 111.038 41.1408C110.183 41.2635 109.587 42.2435 109.532 43.4756L110.966 44.05L109.738 45.0149C110.127 46.2244 110.993 47.034 111.866 46.9085Z" fill="black"/>
<path d="M109.532 43.4756L109.243 43.4627L109.234 43.6676L109.424 43.7439L109.532 43.4756ZM110.966 44.05L111.144 44.2772L111.538 43.9679L111.073 43.7818L110.966 44.05ZM109.738 45.0149L109.56 44.7877L109.402 44.9119L109.463 45.1033L109.738 45.0149ZM113.045 43.7959C113.152 44.545 113.05 45.2384 112.811 45.7513C112.572 46.2672 112.215 46.5664 111.825 46.6225L111.907 47.1946C112.555 47.1016 113.045 46.6204 113.336 45.9948C113.627 45.3663 113.738 44.5574 113.617 43.7138L113.045 43.7959ZM111.079 41.4268C111.469 41.3707 111.896 41.5577 112.271 41.9852C112.643 42.4104 112.937 43.0468 113.045 43.7959L113.617 43.7138C113.496 42.8701 113.162 42.125 112.705 41.6041C112.25 41.0855 111.644 40.7618 110.997 40.8547L111.079 41.4268ZM109.821 43.4886C109.846 42.9128 109.998 42.4109 110.229 42.0469C110.459 41.6836 110.756 41.4731 111.079 41.4268L110.997 40.8547C110.465 40.9311 110.036 41.2721 109.741 41.7375C109.446 42.2022 109.273 42.8064 109.243 43.4627L109.821 43.4886ZM109.424 43.7439L110.858 44.3183L111.073 43.7818L109.639 43.2074L109.424 43.7439ZM110.787 43.8228L109.56 44.7877L109.917 45.2421L111.144 44.2772L110.787 43.8228ZM111.825 46.6225C111.495 46.6698 111.143 46.5451 110.814 46.2478C110.484 45.9502 110.195 45.4923 110.014 44.9265L109.463 45.1033C109.67 45.7469 110.008 46.2986 110.427 46.6768C110.846 47.0553 111.363 47.2727 111.907 47.1946L111.825 46.6225Z" fill="black" mask="url(#path-21-inside-2)"/>
<path d="M117.583 42.8409C117.206 40.7977 116.279 39.056 115.072 37.8601C113.782 36.5819 112.194 35.9439 110.61 36.1715C109.025 36.399 107.681 37.458 106.802 39.0476C105.981 40.5347 105.581 42.467 105.795 44.5336L105.809 44.5316L105.833 44.5282L105.856 44.5248L105.88 44.5214L105.903 44.518L105.927 44.5147L105.95 44.5114L105.973 44.5081L105.996 44.5048L106.018 44.5015L106.041 44.4983L106.064 44.495L106.086 44.4918L106.108 44.4886L106.13 44.4854L106.152 44.4823L106.174 44.4791L106.196 44.476L106.218 44.4729L106.239 44.4698L106.261 44.4667L106.282 44.4637L106.303 44.4606L106.324 44.4576L106.345 44.4546L106.366 44.4516L106.387 44.4487L106.407 44.4457L106.428 44.4428L106.448 44.4398L106.468 44.4369L106.488 44.4341L106.508 44.4312L106.528 44.4283L106.548 44.4255L106.567 44.4227L106.587 44.4199L106.606 44.4171L106.626 44.4143L106.645 44.4116L106.664 44.4088L106.683 44.4061L106.702 44.4034L106.72 44.4007L106.739 44.398L106.758 44.3954L106.776 44.3927L106.794 44.3901L106.812 44.3875L106.831 44.3849L106.848 44.3823L106.866 44.3798L106.884 44.3772L106.902 44.3747L106.919 44.3721L106.937 44.3696L106.954 44.3672L106.971 44.3647L106.988 44.3622L107.006 44.3598L107.022 44.3573L107.039 44.3549L107.056 44.3525L107.073 44.3501L107.089 44.3478L107.106 44.3454L107.122 44.343L107.138 44.3407L107.154 44.3384L107.17 44.3361L107.186 44.3338L107.202 44.3315L107.218 44.3293L107.234 44.327L107.249 44.3248L107.265 44.3226L107.28 44.3204L107.295 44.3182L107.31 44.316L107.326 44.3138L107.341 44.3117L107.355 44.3095L107.37 44.3074L107.385 44.3053L107.4 44.3032L107.414 44.3011L107.429 44.299L107.443 44.2969L107.457 44.2949L107.471 44.2929L107.486 44.2908L107.5 44.2888L107.514 44.2868L107.527 44.2848L107.541 44.2828L107.555 44.2809L107.568 44.2789L107.582 44.277L107.595 44.2751L107.609 44.2731L107.622 44.2712L107.635 44.2693L107.648 44.2675L107.661 44.2656L107.674 44.2637L107.687 44.2619L107.7 44.26L107.713 44.2582L107.725 44.2564L107.738 44.2546L107.75 44.2528L107.763 44.251L107.775 44.2493L107.787 44.2475L107.8 44.2457L107.812 44.244L107.824 44.2423L107.836 44.2406L107.848 44.2389L107.859 44.2372L107.871 44.2355L107.883 44.2338L107.894 44.2321L107.906 44.2305L107.917 44.2288L107.929 44.2272L107.94 44.2256L107.951 44.2239L107.963 44.2223L107.974 44.2207L107.985 44.2192L107.996 44.2176L108.007 44.216L108.018 44.2144L108.028 44.2129L108.039 44.2114L108.05 44.2098L108.06 44.2083L108.071 44.2068L108.081 44.2053L108.092 44.2038L108.102 44.2023L108.112 44.2008L108.123 44.1993L108.133 44.1979L108.143 44.1964L108.153 44.195L108.163 44.1936L108.173 44.1921L108.183 44.1907L108.193 44.1893L108.203 44.1879L108.212 44.1865L108.222 44.1851L108.232 44.1837L108.241 44.1823L108.251 44.181L108.26 44.1796L108.269 44.1783L108.279 44.1769L108.288 44.1756L108.297 44.1743L108.307 44.1729L108.316 44.1716L108.325 44.1703L108.334 44.169L108.343 44.1677L108.352 44.1665L108.361 44.1652L108.37 44.1639L108.378 44.1626L108.387 44.1614L108.396 44.1601L108.405 44.1589L108.413 44.1576L108.422 44.1564L108.43 44.1552L108.439 44.154L108.447 44.1527L108.456 44.1515L108.464 44.1503L108.472 44.1491L108.481 44.1479L108.489 44.1468L108.497 44.1456L108.505 44.1444L108.513 44.1432L108.522 44.1421L108.53 44.1409L108.538 44.1398L108.546 44.1386L108.554 44.1375L108.562 44.1363L108.569 44.1352L108.577 44.1341L108.585 44.1329L108.593 44.1318L108.601 44.1307L108.608 44.1296L108.616 44.1285L108.624 44.1274L108.631 44.1263L108.639 44.1252L108.647 44.1241L108.654 44.123L108.662 44.122L108.669 44.1209L108.676 44.1198L108.684 44.1188L108.691 44.1177L108.699 44.1166L108.706 44.1156L108.713 44.1145L108.721 44.1135L108.728 44.1124L108.735 44.1114L108.742 44.1104L108.75 44.1093L108.757 44.1083L108.764 44.1073L108.771 44.1062L108.778 44.1052L108.785 44.1042L108.792 44.1032L108.799 44.1022L108.807 44.1012L108.814 44.1001L108.821 44.0991L108.828 44.0981L108.835 44.0971L108.842 44.0961L108.848 44.0951L108.855 44.0941L108.862 44.0931L108.869 44.0922L108.876 44.0912L108.883 44.0902L108.89 44.0892L108.897 44.0882L108.904 44.0872L108.91 44.0862L108.917 44.0853L108.924 44.0843L108.931 44.0833L108.938 44.0823L108.944 44.0814L108.951 44.0804L108.958 44.0794L108.965 44.0784L108.971 44.0775L108.978 44.0765L108.985 44.0755L108.992 44.0746L108.998 44.0736L109.005 44.0726L109.012 44.0717L109.019 44.0707L109.025 44.0697L109.032 44.0688L109.039 44.0678L109.045 44.0669L109.052 44.0659L109.059 44.0649L109.066 44.064L109.072 44.063L109.079 44.062L109.086 44.0611L109.092 44.0601L109.099 44.0591L109.106 44.0582L109.113 44.0572L109.119 44.0562L109.126 44.0553L109.133 44.0543L109.14 44.0533L109.146 44.0523L109.153 44.0514L109.16 44.0504L109.167 44.0494L109.174 44.0485L109.18 44.0475L109.187 44.0465L109.194 44.0455L109.201 44.0445L109.208 44.0435L109.215 44.0426L109.221 44.0416L109.228 44.0406L109.235 44.0396L109.242 44.0386L109.249 44.0376L109.256 44.0366L109.263 44.0356L109.27 44.0346L109.277 44.0336L109.284 44.0326L109.291 44.0316L109.298 44.0306L109.305 44.0296L109.312 44.0286L109.319 44.0275L109.326 44.0265L109.333 44.0255L109.341 44.0245L109.348 44.0234L109.355 44.0224L109.362 44.0214L109.37 44.0203L109.377 44.0193L109.384 44.0182L109.391 44.0172L109.399 44.0161L109.406 44.0151L109.414 44.014L109.421 44.0129L109.428 44.0119L109.436 44.0108L109.443 44.0097L109.451 44.0086L109.458 44.0075L109.466 44.0064L109.474 44.0054L109.481 44.0043L109.489 44.0031L109.497 44.002L109.505 44.0009L109.512 43.9998L109.52 43.9987L109.528 43.9976L109.536 43.9964L109.544 43.9953L109.552 43.9941L109.56 43.993L109.568 43.9918L109.576 43.9907L109.584 43.9895L109.592 43.9884L109.6 43.9872L109.608 43.986L109.617 43.9848L109.625 43.9836L109.633 43.9824L109.642 43.9812L109.65 43.98L109.659 43.9788L109.667 43.9776L109.676 43.9764L109.684 43.9751L109.693 43.9739L109.701 43.9726L109.71 43.9714L109.719 43.9701L109.728 43.9689L109.737 43.9676L109.745 43.9663L109.754 43.965L109.763 43.9637L109.772 43.9625L109.782 43.9611L109.791 43.9598L109.8 43.9585L109.809 43.9572L109.818 43.9559L109.828 43.9545L109.837 43.9532L109.847 43.9518L109.856 43.9504L109.866 43.9491L109.875 43.9477L109.885 43.9463L109.895 43.9449L109.904 43.9435L109.914 43.9421L109.924 43.9407L109.934 43.9392L109.944 43.9378L109.954 43.9364L109.964 43.9349L109.974 43.9335L109.985 43.932L109.995 43.9305L110.005 43.929L110.016 43.9275L110.026 43.926L110.037 43.9245L110.047 43.923L110.058 43.9215L110.069 43.9199L110.079 43.9184L110.09 43.9168L110.101 43.9152L110.112 43.9137L110.123 43.9121L110.134 43.9105L110.146 43.9089L110.157 43.9073L110.168 43.9056L110.18 43.904L110.191 43.9024L110.203 43.9007L110.214 43.899L110.226 43.8974L110.238 43.8957L110.249 43.894L110.261 43.8923L110.273 43.8906L110.285 43.8888L110.297 43.8871L110.309 43.8853L110.322 43.8836L110.334 43.8818L110.346 43.88L110.359 43.8782L110.371 43.8764L110.384 43.8746L110.397 43.8728L110.41 43.871L110.422 43.8691L110.435 43.8673L110.448 43.8654L110.461 43.8635L110.475 43.8616L110.488 43.8597L110.501 43.8578L110.515 43.8559L110.528 43.8539L110.542 43.852L110.555 43.85L110.569 43.848L110.583 43.8461L110.597 43.8441L110.611 43.842L110.625 43.84L110.639 43.838L110.654 43.8359L110.668 43.8339L110.682 43.8318L110.697 43.8297L110.712 43.8276L110.726 43.8255L110.741 43.8234L110.756 43.8212L110.771 43.8191L110.786 43.8169L110.801 43.8147L110.817 43.8125L110.832 43.8103L110.847 43.8081L110.863 43.8059L110.879 43.8036L110.894 43.8014L110.91 43.7991L110.926 43.7968L110.942 43.7945L110.958 43.7922L110.974 43.7899L110.991 43.7875L111.007 43.7852L111.024 43.7828L111.04 43.7804L111.057 43.778L111.074 43.7756L111.091 43.7732L111.108 43.7707L111.125 43.7682L111.142 43.7658L111.159 43.7633L111.177 43.7608L111.194 43.7583L111.212 43.7557L111.23 43.7532L111.248 43.7506L111.266 43.748L111.284 43.7454L111.302 43.7428L111.32 43.7402L111.339 43.7376L111.357 43.7349L111.376 43.7322L111.394 43.7296L111.413 43.7268L111.432 43.7241L111.451 43.7214L111.47 43.7186L111.49 43.7159L111.509 43.7131L111.529 43.7103L111.548 43.7075L111.568 43.7046L111.588 43.7018L111.608 43.6989L111.628 43.696L111.648 43.6931L111.668 43.6902L111.689 43.6873L111.709 43.6844L111.729 43.6814L111.75 43.6785L111.77 43.6756L111.79 43.6728L111.81 43.6699L111.829 43.6671L111.849 43.6643L111.869 43.6615L111.888 43.6587L111.907 43.6559L111.927 43.6531L111.946 43.6504L111.965 43.6477L111.984 43.6449L112.002 43.6422L112.021 43.6396L112.04 43.6369L112.058 43.6342L112.076 43.6316L112.095 43.629L112.113 43.6264L112.131 43.6238L112.149 43.6212L112.167 43.6186L112.185 43.6161L112.202 43.6136L112.22 43.611L112.237 43.6085L112.255 43.606L112.272 43.6036L112.289 43.6011L112.306 43.5986L112.323 43.5962L112.34 43.5938L112.357 43.5914L112.373 43.589L112.39 43.5866L112.406 43.5842L112.423 43.5819L112.439 43.5795L112.455 43.5772L112.471 43.5749L112.487 43.5726L112.503 43.5703L112.519 43.5681L112.535 43.5658L112.55 43.5635L112.566 43.5613L112.581 43.5591L112.597 43.5569L112.612 43.5547L112.627 43.5525L112.642 43.5503L112.657 43.5482L112.672 43.546L112.687 43.5439L112.702 43.5418L112.717 43.5397L112.731 43.5376L112.746 43.5355L112.76 43.5334L112.775 43.5314L112.789 43.5293L112.803 43.5273L112.817 43.5253L112.831 43.5232L112.845 43.5212L112.859 43.5193L112.873 43.5173L112.886 43.5153L112.9 43.5134L112.913 43.5114L112.927 43.5095L112.94 43.5076L112.954 43.5057L112.967 43.5038L112.98 43.5019L112.993 43.5L113.006 43.4981L113.019 43.4963L113.032 43.4944L113.045 43.4926L113.057 43.4908L113.07 43.489L113.082 43.4872L113.095 43.4854L113.107 43.4836L113.12 43.4818L113.132 43.4801L113.144 43.4783L113.156 43.4766L113.168 43.4748L113.18 43.4731L113.192 43.4714L113.204 43.4697L113.216 43.468L113.227 43.4663L113.239 43.4647L113.251 43.463L113.262 43.4613L113.274 43.4597L113.285 43.4581L113.296 43.4564L113.308 43.4548L113.319 43.4532L113.33 43.4516L113.341 43.45L113.352 43.4484L113.363 43.4469L113.374 43.4453L113.385 43.4438L113.395 43.4422L113.406 43.4407L113.417 43.4391L113.427 43.4376L113.438 43.4361L113.448 43.4346L113.459 43.4331L113.469 43.4316L113.479 43.4301L113.49 43.4287L113.5 43.4272L113.51 43.4258L113.52 43.4243L113.53 43.4229L113.54 43.4214L113.55 43.42L113.56 43.4186L113.57 43.4172L113.58 43.4158L113.589 43.4144L113.599 43.413L113.609 43.4116L113.618 43.4102L113.628 43.4089L113.637 43.4075L113.647 43.4062L113.656 43.4048L113.665 43.4035L113.675 43.4021L113.684 43.4008L113.693 43.3995L113.702 43.3982L113.711 43.3969L113.72 43.3956L113.729 43.3943L113.738 43.393L113.747 43.3917L113.756 43.3904L113.765 43.3891L113.774 43.3879L113.783 43.3866L113.791 43.3854L113.8 43.3841L113.809 43.3829L113.817 43.3816L113.826 43.3804L113.834 43.3792L113.843 43.378L113.851 43.3768L113.86 43.3755L113.868 43.3743L113.876 43.3731L113.885 43.3719L113.893 43.3708L113.901 43.3696L113.909 43.3684L113.918 43.3672L113.926 43.3661L113.934 43.3649L113.942 43.3637L113.95 43.3626L113.958 43.3614L113.966 43.3603L113.974 43.3591L113.982 43.358L113.99 43.3569L113.998 43.3557L114.006 43.3546L114.013 43.3535L114.021 43.3523L114.029 43.3512L114.037 43.3501L114.044 43.349L114.052 43.3479L114.06 43.3468L114.067 43.3457L114.075 43.3446L114.083 43.3435L114.09 43.3424L114.098 43.3414L114.105 43.3403L114.113 43.3392L114.12 43.3381L114.128 43.337L114.135 43.336L114.143 43.3349L114.15 43.3338L114.158 43.3328L114.165 43.3317L114.172 43.3307L114.18 43.3296L114.187 43.3286L114.194 43.3275L114.202 43.3265L114.209 43.3254L114.216 43.3244L114.223 43.3233L114.231 43.3223L114.238 43.3213L114.245 43.3202L114.252 43.3192L114.259 43.3181L114.267 43.3171L114.274 43.3161L114.281 43.3151L114.288 43.314L114.295 43.313L114.302 43.312L114.309 43.311L114.317 43.3099L114.324 43.3089L114.331 43.3079L114.338 43.3069L114.345 43.3059L114.352 43.3048L114.359 43.3038L114.366 43.3028L114.373 43.3018L114.38 43.3008L114.387 43.2998L114.394 43.2988L114.402 43.2977L114.409 43.2967L114.416 43.2957L114.423 43.2947L114.43 43.2937L114.437 43.2927L114.444 43.2917L114.451 43.2906L114.458 43.2896L114.465 43.2886L114.472 43.2876L114.479 43.2866L114.486 43.2856L114.493 43.2846L114.5 43.2835L114.508 43.2825L114.515 43.2815L114.522 43.2805L114.529 43.2795L114.536 43.2784L114.543 43.2774L114.55 43.2764L114.557 43.2754L114.565 43.2743L114.572 43.2733L114.579 43.2723L114.586 43.2712L114.593 43.2702L114.6 43.2692L114.608 43.2681L114.615 43.2671L114.622 43.2661L114.629 43.265L114.637 43.264L114.644 43.2629L114.651 43.2619L114.658 43.2608L114.666 43.2598L114.673 43.2587L114.681 43.2577L114.688 43.2566L114.695 43.2556L114.703 43.2545L114.71 43.2534L114.718 43.2524L114.725 43.2513L114.733 43.2502L114.74 43.2491L114.748 43.248L114.755 43.247L114.763 43.2459L114.77 43.2448L114.778 43.2437L114.786 43.2426L114.793 43.2415L114.801 43.2404L114.809 43.2393L114.816 43.2382L114.824 43.2371L114.832 43.2359L114.84 43.2348L114.848 43.2337L114.855 43.2326L114.863 43.2314L114.871 43.2303L114.879 43.2291L114.887 43.228L114.895 43.2268L114.903 43.2257L114.911 43.2245L114.92 43.2234L114.928 43.2222L114.936 43.221L114.944 43.2198L114.952 43.2186L114.961 43.2175L114.969 43.2163L114.977 43.2151L114.986 43.2139L114.994 43.2127L115.003 43.2114L115.011 43.2102L115.02 43.209L115.028 43.2078L115.037 43.2065L115.045 43.2053L115.054 43.204L115.063 43.2028L115.072 43.2015L115.08 43.2003L115.089 43.199L115.098 43.1977L115.107 43.1964L115.116 43.1951L115.125 43.1939L115.134 43.1926L115.143 43.1912L115.152 43.1899L115.161 43.1886L115.171 43.1873L115.18 43.186L115.189 43.1846L115.199 43.1833L115.208 43.1819L115.218 43.1806L115.227 43.1792L115.237 43.1778L115.246 43.1764L115.256 43.175L115.266 43.1737L115.275 43.1722L115.285 43.1708L115.295 43.1694L115.305 43.168L115.315 43.1666L115.325 43.1651L115.335 43.1637L115.345 43.1622L115.355 43.1608L115.366 43.1593L115.376 43.1578L115.386 43.1563L115.397 43.1548L115.407 43.1533L115.418 43.1518L115.428 43.1503L115.439 43.1488L115.45 43.1472L115.461 43.1457L115.471 43.1441L115.482 43.1426L115.493 43.141L115.504 43.1394L115.515 43.1378L115.526 43.1362L115.538 43.1346L115.549 43.133L115.56 43.1314L115.571 43.1297L115.583 43.1281L115.594 43.1264L115.606 43.1248L115.618 43.1231L115.629 43.1214L115.641 43.1197L115.653 43.118L115.665 43.1163L115.677 43.1146L115.689 43.1129L115.701 43.1111L115.713 43.1094L115.725 43.1076L115.738 43.1059L115.75 43.1041L115.763 43.1023L115.775 43.1005L115.788 43.0987L115.801 43.0969L115.813 43.095L115.826 43.0932L115.839 43.0913L115.852 43.0895L115.865 43.0876L115.878 43.0857L115.891 43.0838L115.905 43.0819L115.918 43.08L115.932 43.078L115.945 43.0761L115.959 43.0741L115.972 43.0722L115.986 43.0702L116 43.0682L116.014 43.0662L116.028 43.0642L116.042 43.0622L116.056 43.0602L116.07 43.0581L116.085 43.056L116.099 43.054L116.114 43.0519L116.128 43.0498L116.143 43.0477L116.158 43.0456L116.172 43.0434L116.187 43.0413L116.202 43.0391L116.218 43.037L116.233 43.0348L116.248 43.0326L116.263 43.0304L116.279 43.0282L116.294 43.0259L116.31 43.0237L116.326 43.0214L116.342 43.0192L116.357 43.0169L116.373 43.0146L116.39 43.0123L116.406 43.0099L116.422 43.0076L116.438 43.0053L116.455 43.0029L116.471 43.0005L116.488 42.9981L116.505 42.9957L116.522 42.9933L116.539 42.9909L116.556 42.9884L116.573 42.9859L116.59 42.9835L116.608 42.981L116.625 42.9785L116.643 42.9759L116.66 42.9734L116.678 42.9709L116.696 42.9683L116.714 42.9657L116.732 42.9631L116.75 42.9605L116.768 42.9579L116.787 42.9553L116.805 42.9526L116.824 42.9499L116.842 42.9473L116.861 42.9446L116.88 42.9419L116.899 42.9391L116.918 42.9364L116.937 42.9336L116.957 42.9309L116.976 42.9281L116.996 42.9253L117.015 42.9224L117.035 42.9196L117.055 42.9167L117.075 42.9139L117.095 42.911L117.115 42.9081L117.135 42.9052L117.156 42.9022L117.176 42.8993L117.197 42.8963L117.218 42.8933L117.239 42.8904L117.26 42.8873L117.281 42.8843L117.302 42.8813L117.323 42.8782L117.345 42.8751L117.366 42.872L117.388 42.8689L117.41 42.8658L117.432 42.8626L117.454 42.8594L117.476 42.8563L117.498 42.8531L117.521 42.8498L117.543 42.8466L117.566 42.8434L117.583 42.8409Z" fill="#E55B42" stroke="black" stroke-width="0.866925"/>
<path d="M104.652 48.9399L103.095 47.3227C103.043 47.2689 102.958 47.2664 102.903 47.3172L102.05 48.1074C101.994 48.1593 101.991 48.2469 102.044 48.3023L103.676 50.0247C103.732 50.0834 103.826 50.0814 103.879 50.0202L104.656 49.1249C104.703 49.0713 104.701 48.9911 104.652 48.9399Z" fill="#FFF4D4" stroke="black" stroke-width="0.274187"/>
<path d="M98.9961 58.0818L96.9567 57.1162C96.8841 57.0818 96.7977 57.1169 96.7696 57.1921L96.1621 58.8156C96.1365 58.8841 96.1692 58.9607 96.2364 58.9896L98.3522 59.8988C98.4257 59.9304 98.5105 59.8926 98.5362 59.8169L99.0672 58.2497C99.0896 58.1838 99.059 58.1116 98.9961 58.0818Z" fill="#FFF4D4" stroke="black" stroke-width="0.274187"/>
<path d="M97.2326 71.1033L94.5841 71.073C94.507 71.0721 94.4443 71.135 94.4455 71.2122L94.4726 73.0143C94.4738 73.093 94.5408 73.1545 94.6194 73.1489L97.2361 72.964C97.3077 72.9589 97.3633 72.8995 97.3635 72.8276L97.3681 71.2408C97.3683 71.1656 97.3078 71.1042 97.2326 71.1033Z" fill="#FFF4D4" stroke="black" stroke-width="0.274187"/>
<path d="M100.469 83.9975L98.2735 85.4369C98.2124 85.477 98.1935 85.5581 98.2305 85.6211L99.045 87.0053C99.0862 87.0754 99.1792 87.0944 99.2446 87.046L101.319 85.5135C101.374 85.473 101.391 85.3984 101.359 85.3383L100.665 84.0472C100.627 83.9764 100.536 83.9534 100.469 83.9975Z" fill="#FFF4D4" stroke="black" stroke-width="0.274187"/>
<path d="M109.279 93.6416L107.935 96.1129L109.583 96.8553L110.765 94.4335L109.279 93.6416Z" fill="#FFF4D4" stroke="black" stroke-width="0.274187"/>
<path d="M123.61 96.4579L124.252 99.035L126.029 98.5651L125.074 96.0121L123.61 96.4579Z" fill="#FFF4D4" stroke="black" stroke-width="0.274187"/>
<path d="M135.219 89.4039L137.113 91.4221L138.442 89.9508L136.523 88.0826L135.219 89.4039Z" fill="#FFF4D4" stroke="black" stroke-width="0.274187"/>
<path d="M141.325 78.8707L143.722 79.7402L144.265 77.9042L141.716 77.4717L141.325 78.8707Z" fill="#FFF4D4" stroke="black" stroke-width="0.274187"/>
<path d="M142.587 65.9733L145.213 65.9559L144.993 64.0676L142.429 64.6352L142.587 65.9733Z" fill="#FFF4D4" stroke="black" stroke-width="0.274187"/>
<path d="M139.244 54.7627L141.71 53.8698L140.765 52.1669L138.373 53.5351L139.244 54.7627Z" fill="#FFF4D4" stroke="black" stroke-width="0.274187"/>
<path d="M131.333 45.4764L132.839 43.4181L131.142 42.5131L130.021 44.7985L131.333 45.4764Z" fill="#FFF4D4" stroke="black" stroke-width="0.274187"/>
<path d="M90.8415 50.0224C95.406 48.5755 102.802 46.8068 103.113 47.2452C103.337 47.7459 102.973 48.1624 102.372 48.4307C101.771 48.699 91.6083 51.4122 89.0596 52.3424C88.9181 52.267 89.8797 50.5996 90.8415 50.0224Z" fill="#FFF4D4"/>
<path d="M83.336 73.3523L94.5249 71.0669C94.6071 71.0502 94.685 71.1105 94.6892 71.1943L94.7876 73.1355L83.2416 75.7272L83.336 73.3523Z" fill="#FFF4D4" stroke="#FFF4D4" stroke-width="0.137093"/>
<path d="M85.9042 88.6739C86.767 88.5889 93.2452 87.6826 98.2521 85.447C98.8659 85.0112 99.8084 85.9115 99.3853 86.9504C97.1309 88.419 88.674 90.5321 86.9725 91.0147C87.0401 89.2523 86.8775 89.3018 85.9042 88.6739Z" fill="#FFF4D4" stroke="#FFF4D4" stroke-width="0.137093"/>
<path d="M96.6602 99.8305C102.162 99.4064 106.444 97.1712 107.934 96.1129C108.548 95.6772 109.711 95.643 109.57 96.9302C106.593 99.2018 101.171 100.519 98.8571 100.974C98.6195 101.011 97.8474 100.834 96.6602 99.8305Z" fill="#FFF4D4" stroke="#FFF4D4" stroke-width="0.137093"/>
<path d="M85.239 59.4068C86.0282 58.8466 95.9862 56.5253 97.0345 57.1659C97.425 57.592 97.7875 58.7282 96.2667 58.9638C93.4173 58.4804 84.6564 61.9303 84.6452 61.5428C84.5829 61.4551 84.4459 60.4446 85.239 59.4068Z" fill="#FFF4D4" stroke="#FFF4D4" stroke-width="0.137093"/>
<path d="M114.017 94.9651L101.084 93.1174L98.8136 97.1294C102.35 97.7101 105.668 98.0932 109.635 98.7131C111.589 99.0183 115.812 98.7131 114.386 102.672L111.113 118.087C112.116 118.667 115.864 119.037 118.504 119.459C132.229 121.655 128.27 110.591 117.554 113.758C117.73 112.649 118.451 109.271 119.665 103.147C120.367 99.6105 119.296 96.3376 114.017 94.9651Z" fill="#E55B42" stroke="black" stroke-width="1.44653"/>
<path d="M99.1941 98.1098L102.449 92.396L100.661 92.0615L97.5306 97.7482L99.1941 98.1098Z" fill="#E55B42"/>
</g>
<mask id="path-42-inside-3" fill="white">
<path fill-rule="evenodd" clip-rule="evenodd" d="M140.551 3.34833C139.593 3.64713 139.059 4.66577 139.358 5.62354L144.345 21.6079L139.907 18.9138C139.049 18.3932 137.932 18.6663 137.411 19.524C136.891 20.3816 137.164 21.4989 138.021 22.0195L142.7 24.8595L137.495 26.5497C136.54 26.8596 136.018 27.8844 136.328 28.8386C136.638 29.7928 137.662 30.3152 138.617 30.0054L144.103 28.224L142.195 33.6673C141.863 34.6141 142.362 35.6506 143.309 35.9825C144.255 36.3143 145.292 35.8157 145.624 34.8689L147.136 30.5545L151.91 45.8566C152.208 46.8143 153.227 47.3485 154.185 47.0497C155.143 46.7509 155.677 45.7323 155.378 44.7745L150.676 29.7015L154.153 31.8127C155.011 32.3334 156.128 32.0602 156.649 31.2026C157.17 30.3449 156.896 29.2276 156.039 28.707L151.361 25.8671L156.566 24.1769C157.52 23.8671 158.042 22.8423 157.733 21.8881C157.423 20.9338 156.398 20.4115 155.444 20.7213L149.958 22.5028L151.865 17.0591C152.197 16.1123 151.699 15.0757 150.752 14.7439C149.805 14.4121 148.768 14.9107 148.437 15.8575L147.336 18.9974L142.826 4.54149C142.527 3.58373 141.509 3.04953 140.551 3.34833Z"/>
</mask>
<path fill-rule="evenodd" clip-rule="evenodd" d="M140.551 3.34833C139.593 3.64713 139.059 4.66577 139.358 5.62354L144.345 21.6079L139.907 18.9138C139.049 18.3932 137.932 18.6663 137.411 19.524C136.891 20.3816 137.164 21.4989 138.021 22.0195L142.7 24.8595L137.495 26.5497C136.54 26.8596 136.018 27.8844 136.328 28.8386C136.638 29.7928 137.662 30.3152 138.617 30.0054L144.103 28.224L142.195 33.6673C141.863 34.6141 142.362 35.6506 143.309 35.9825C144.255 36.3143 145.292 35.8157 145.624 34.8689L147.136 30.5545L151.91 45.8566C152.208 46.8143 153.227 47.3485 154.185 47.0497C155.143 46.7509 155.677 45.7323 155.378 44.7745L150.676 29.7015L154.153 31.8127C155.011 32.3334 156.128 32.0602 156.649 31.2026C157.17 30.3449 156.896 29.2276 156.039 28.707L151.361 25.8671L156.566 24.1769C157.52 23.8671 158.042 22.8423 157.733 21.8881C157.423 20.9338 156.398 20.4115 155.444 20.7213L149.958 22.5028L151.865 17.0591C152.197 16.1123 151.699 15.0757 150.752 14.7439C149.805 14.4121 148.768 14.9107 148.437 15.8575L147.336 18.9974L142.826 4.54149C142.527 3.58373 141.509 3.04953 140.551 3.34833Z" fill="#FCFCFC"/>
<path d="M139.358 5.62354L140.059 5.40496L140.059 5.40496L139.358 5.62354ZM140.551 3.34833L140.77 4.04894L140.551 3.34833ZM144.345 21.6079L143.964 22.2352L145.623 23.2428L145.045 21.3893L144.345 21.6079ZM139.907 18.9138L140.288 18.2864L139.907 18.9138ZM137.411 19.524L138.039 19.9048L137.411 19.524ZM138.021 22.0195L137.641 22.6469L137.641 22.6469L138.021 22.0195ZM142.7 24.8595L142.926 25.5576L144.449 25.0631L143.081 24.2322L142.7 24.8595ZM137.495 26.5497L137.721 27.2478L137.495 26.5497ZM136.328 28.8386L135.63 29.0653L136.328 28.8386ZM138.617 30.0054L138.843 30.7034L138.617 30.0054ZM144.103 28.224L144.795 28.4667L145.285 27.0683L143.876 27.5259L144.103 28.224ZM142.195 33.6673L141.502 33.4245L142.195 33.6673ZM143.309 35.9825L143.066 36.6751L143.066 36.6751L143.309 35.9825ZM145.624 34.8689L146.316 35.1116L146.316 35.1116L145.624 34.8689ZM147.136 30.5545L147.836 30.336L147.176 28.22L146.443 30.3118L147.136 30.5545ZM151.91 45.8566L151.209 46.0751L151.91 45.8566ZM154.185 47.0497L154.403 47.7503L154.185 47.0497ZM155.378 44.7745L156.079 44.5559L155.378 44.7745ZM150.676 29.7015L151.056 29.0741L149.397 28.0666L149.975 29.9201L150.676 29.7015ZM154.153 31.8127L153.773 32.4401L154.153 31.8127ZM156.649 31.2026L156.022 30.8217L156.649 31.2026ZM156.039 28.707L155.658 29.3344L156.039 28.707ZM151.361 25.8671L151.134 25.1691L149.611 25.6636L150.98 26.4945L151.361 25.8671ZM156.566 24.1769L156.339 23.4789L156.566 24.1769ZM155.444 20.7213L155.217 20.0233L155.444 20.7213ZM149.958 22.5028L149.265 22.2601L148.775 23.6585L150.184 23.2008L149.958 22.5028ZM151.865 17.0591L151.173 16.8164L151.173 16.8164L151.865 17.0591ZM148.437 15.8575L147.744 15.6148L148.437 15.8575ZM147.336 18.9974L146.636 19.216L147.296 21.3319L148.029 19.2401L147.336 18.9974ZM142.826 4.54149L142.126 4.76007L142.126 4.76007L142.826 4.54149ZM140.059 5.40496C139.88 4.83414 140.199 4.22703 140.77 4.04894L140.333 2.64772C138.988 3.06723 138.238 4.49741 138.657 5.84211L140.059 5.40496ZM145.045 21.3893L140.059 5.40496L138.657 5.84211L143.644 21.8264L145.045 21.3893ZM139.526 19.5412L143.964 22.2352L144.725 20.9805L140.288 18.2864L139.526 19.5412ZM138.039 19.9048C138.349 19.3937 139.015 19.2309 139.526 19.5412L140.288 18.2864C139.084 17.5555 137.515 17.939 136.784 19.1431L138.039 19.9048ZM138.402 21.3922C137.891 21.0819 137.728 20.416 138.039 19.9048L136.784 19.1431C136.053 20.3472 136.436 21.9159 137.641 22.6469L138.402 21.3922ZM143.081 24.2322L138.402 21.3922L137.641 22.6469L142.319 25.4869L143.081 24.2322ZM137.721 27.2478L142.926 25.5576L142.473 24.1615L137.268 25.8517L137.721 27.2478ZM137.026 28.6119C136.841 28.0432 137.152 27.4325 137.721 27.2478L137.268 25.8517C135.928 26.2868 135.195 27.7255 135.63 29.0653L137.026 28.6119ZM138.39 29.3073C137.821 29.492 137.21 29.1807 137.026 28.6119L135.63 29.0653C136.065 30.405 137.504 31.1384 138.843 30.7034L138.39 29.3073ZM143.876 27.5259L138.39 29.3073L138.843 30.7034L144.329 28.922L143.876 27.5259ZM143.41 27.9812L141.502 33.4245L142.888 33.91L144.795 28.4667L143.41 27.9812ZM141.502 33.4245C141.037 34.7539 141.736 36.2092 143.066 36.6751L143.551 35.2898C142.987 35.0921 142.69 34.4743 142.888 33.91L141.502 33.4245ZM143.066 36.6751C144.395 37.1409 145.851 36.441 146.316 35.1116L144.931 34.6262C144.733 35.1905 144.116 35.4876 143.551 35.2898L143.066 36.6751ZM146.316 35.1116L147.828 30.7973L146.443 30.3118L144.931 34.6262L146.316 35.1116ZM152.61 45.638L147.836 30.336L146.435 30.7731L151.209 46.0751L152.61 45.638ZM153.966 46.3491C153.395 46.5272 152.788 46.2088 152.61 45.638L151.209 46.0751C151.629 47.4198 153.059 48.1698 154.403 47.7503L153.966 46.3491ZM154.677 44.9931C154.855 45.5639 154.537 46.171 153.966 46.3491L154.403 47.7503C155.748 47.3308 156.498 45.9006 156.079 44.5559L154.677 44.9931ZM149.975 29.9201L154.677 44.9931L156.079 44.5559L151.376 29.4829L149.975 29.9201ZM154.534 31.1854L151.056 29.0741L150.295 30.3289L153.773 32.4401L154.534 31.1854ZM156.022 30.8217C155.711 31.3329 155.045 31.4957 154.534 31.1854L153.773 32.4401C154.977 33.1711 156.545 32.7875 157.276 31.5834L156.022 30.8217ZM155.658 29.3344C156.169 29.6447 156.332 30.3106 156.022 30.8217L157.276 31.5834C158.007 30.3793 157.624 28.8106 156.42 28.0796L155.658 29.3344ZM150.98 26.4945L155.658 29.3344L156.42 28.0796L151.742 25.2398L150.98 26.4945ZM156.339 23.4789L151.134 25.1691L151.587 26.5652L156.793 24.875L156.339 23.4789ZM157.035 22.1147C157.219 22.6835 156.908 23.2942 156.339 23.4789L156.793 24.875C158.132 24.4399 158.866 23.0012 158.431 21.6614L157.035 22.1147ZM155.67 21.4194C156.239 21.2347 156.85 21.546 157.035 22.1147L158.431 21.6614C157.996 20.3217 156.557 19.5883 155.217 20.0233L155.67 21.4194ZM150.184 23.2008L155.67 21.4194L155.217 20.0233L149.731 21.8047L150.184 23.2008ZM150.65 22.7455L152.558 17.3019L151.173 16.8164L149.265 22.2601L150.65 22.7455ZM152.558 17.3019C153.024 15.9725 152.324 14.5172 150.995 14.0513L150.509 15.4365C151.073 15.6343 151.371 16.2521 151.173 16.8164L152.558 17.3019ZM150.995 14.0513C149.665 13.5854 148.21 14.2854 147.744 15.6148L149.129 16.1002C149.327 15.5359 149.945 15.2388 150.509 15.4365L150.995 14.0513ZM147.744 15.6148L146.644 18.7547L148.029 19.2401L149.129 16.1002L147.744 15.6148ZM142.126 4.76007L146.636 19.216L148.037 18.7788L143.527 4.32292L142.126 4.76007ZM140.77 4.04894C141.34 3.87086 141.948 4.18924 142.126 4.76007L143.527 4.32292C143.107 2.97822 141.677 2.22821 140.333 2.64772L140.77 4.04894Z" fill="black" mask="url(#path-42-inside-3)"/>
<mask id="path-44-inside-4" fill="white">
<path fill-rule="evenodd" clip-rule="evenodd" d="M151.636 123.868C151.224 123.962 150.967 124.371 151.061 124.782L152.625 131.646L150.853 130.371C150.511 130.124 150.034 130.202 149.787 130.544C149.541 130.887 149.619 131.364 149.961 131.61L151.828 132.955L149.591 133.492C149.181 133.59 148.928 134.002 149.027 134.413C149.125 134.823 149.538 135.075 149.948 134.977L152.306 134.411L151.327 136.629C151.157 137.015 151.332 137.466 151.717 137.636C152.103 137.807 152.554 137.632 152.724 137.246L153.5 135.487L154.997 142.058C155.091 142.469 155.5 142.727 155.912 142.633C156.323 142.539 156.58 142.13 156.487 141.718L155.012 135.247L156.4 136.246C156.742 136.492 157.219 136.414 157.466 136.072C157.712 135.73 157.635 135.253 157.292 135.006L155.425 133.662L157.662 133.125C158.072 133.026 158.325 132.614 158.227 132.204C158.128 131.794 157.716 131.541 157.306 131.64L154.948 132.206L155.926 129.987C156.097 129.601 155.922 129.15 155.536 128.98C155.15 128.81 154.699 128.985 154.529 129.37L153.964 130.65L152.55 124.443C152.456 124.032 152.047 123.774 151.636 123.868Z"/>
</mask>
<path fill-rule="evenodd" clip-rule="evenodd" d="M151.636 123.868C151.224 123.962 150.967 124.371 151.061 124.782L152.625 131.646L150.853 130.371C150.511 130.124 150.034 130.202 149.787 130.544C149.541 130.887 149.619 131.364 149.961 131.61L151.828 132.955L149.591 133.492C149.181 133.59 148.928 134.002 149.027 134.413C149.125 134.823 149.538 135.075 149.948 134.977L152.306 134.411L151.327 136.629C151.157 137.015 151.332 137.466 151.717 137.636C152.103 137.807 152.554 137.632 152.724 137.246L153.5 135.487L154.997 142.058C155.091 142.469 155.5 142.727 155.912 142.633C156.323 142.539 156.58 142.13 156.487 141.718L155.012 135.247L156.4 136.246C156.742 136.492 157.219 136.414 157.466 136.072C157.712 135.73 157.635 135.253 157.292 135.006L155.425 133.662L157.662 133.125C158.072 133.026 158.325 132.614 158.227 132.204C158.128 131.794 157.716 131.541 157.306 131.64L154.948 132.206L155.926 129.987C156.097 129.601 155.922 129.15 155.536 128.98C155.15 128.81 154.699 128.985 154.529 129.37L153.964 130.65L152.55 124.443C152.456 124.032 152.047 123.774 151.636 123.868Z" fill="#FCFCFC"/>
<path d="M151.061 124.782L150.76 124.851L150.76 124.851L151.061 124.782ZM151.636 123.868L151.567 123.567L151.636 123.868ZM152.625 131.646L152.444 131.896L153.107 132.373L152.926 131.577L152.625 131.646ZM150.853 130.371L150.673 130.621L150.673 130.621L150.853 130.371ZM149.787 130.544L149.537 130.364L149.537 130.364L149.787 130.544ZM149.961 131.61L150.141 131.36L149.961 131.61ZM151.828 132.955L151.9 133.255L152.555 133.097L152.008 132.704L151.828 132.955ZM149.591 133.492L149.519 133.192L149.519 133.192L149.591 133.492ZM149.027 134.413L148.727 134.485L149.027 134.413ZM149.948 134.977L150.02 135.277L150.02 135.277L149.948 134.977ZM152.306 134.411L152.588 134.535L152.839 133.965L152.234 134.111L152.306 134.411ZM151.327 136.629L151.045 136.505L151.045 136.505L151.327 136.629ZM151.717 137.636L151.593 137.919L151.593 137.919L151.717 137.636ZM152.724 137.246L153.007 137.37L153.007 137.37L152.724 137.246ZM153.5 135.487L153.801 135.419L153.594 134.51L153.218 135.363L153.5 135.487ZM154.997 142.058L154.696 142.126L154.997 142.058ZM155.912 142.633L155.843 142.332L155.843 142.332L155.912 142.633ZM156.487 141.718L156.787 141.65L156.487 141.718ZM155.012 135.247L155.192 134.996L154.53 134.519L154.711 135.315L155.012 135.247ZM156.4 136.246L156.22 136.496L156.22 136.496L156.4 136.246ZM157.292 135.006L157.472 134.756L157.472 134.756L157.292 135.006ZM155.425 133.662L155.353 133.362L154.698 133.519L155.245 133.912L155.425 133.662ZM157.662 133.125L157.59 132.825L157.662 133.125ZM157.306 131.64L157.234 131.34L157.306 131.64ZM154.948 132.206L154.665 132.081L154.414 132.651L155.02 132.506L154.948 132.206ZM155.926 129.987L156.209 130.111L156.209 130.111L155.926 129.987ZM154.529 129.37L154.247 129.246L154.529 129.37ZM153.964 130.65L153.664 130.719L153.871 131.627L154.247 130.775L153.964 130.65ZM152.55 124.443L152.249 124.512L152.249 124.512L152.55 124.443ZM151.362 124.714C151.306 124.469 151.459 124.225 151.704 124.169L151.567 123.567C150.99 123.699 150.628 124.274 150.76 124.851L151.362 124.714ZM152.926 131.577L151.362 124.714L150.76 124.851L152.324 131.715L152.926 131.577ZM150.673 130.621L152.444 131.896L152.805 131.396L151.034 130.12L150.673 130.621ZM150.038 130.725C150.185 130.521 150.469 130.474 150.673 130.621L151.034 130.12C150.553 129.774 149.883 129.884 149.537 130.364L150.038 130.725ZM150.141 131.36C149.937 131.213 149.891 130.929 150.038 130.725L149.537 130.364C149.191 130.845 149.3 131.515 149.781 131.861L150.141 131.36ZM152.008 132.704L150.141 131.36L149.781 131.861L151.648 133.205L152.008 132.704ZM149.663 133.792L151.9 133.255L151.756 132.655L149.519 133.192L149.663 133.792ZM149.327 134.341C149.268 134.096 149.419 133.85 149.663 133.792L149.519 133.192C148.943 133.33 148.589 133.909 148.727 134.485L149.327 134.341ZM149.876 134.677C149.631 134.736 149.385 134.585 149.327 134.341L148.727 134.485C148.865 135.06 149.444 135.415 150.02 135.277L149.876 134.677ZM152.234 134.111L149.876 134.677L150.02 135.277L152.378 134.711L152.234 134.111ZM152.023 134.286L151.045 136.505L151.609 136.754L152.588 134.535L152.023 134.286ZM151.045 136.505C150.806 137.047 151.051 137.68 151.593 137.919L151.842 137.354C151.612 137.253 151.508 136.984 151.609 136.754L151.045 136.505ZM151.593 137.919C152.135 138.158 152.768 137.912 153.007 137.37L152.442 137.121C152.341 137.351 152.072 137.456 151.842 137.354L151.593 137.919ZM153.007 137.37L153.782 135.612L153.218 135.363L152.442 137.121L153.007 137.37ZM155.298 141.989L153.801 135.419L153.199 135.556L154.696 142.126L155.298 141.989ZM155.843 142.332C155.598 142.388 155.354 142.234 155.298 141.989L154.696 142.126C154.828 142.704 155.403 143.065 155.98 142.934L155.843 142.332ZM156.186 141.787C156.242 142.032 156.088 142.276 155.843 142.332L155.98 142.934C156.558 142.802 156.919 142.227 156.787 141.65L156.186 141.787ZM154.711 135.315L156.186 141.787L156.787 141.65L155.313 135.178L154.711 135.315ZM156.58 135.995L155.192 134.996L154.832 135.497L156.22 136.496L156.58 135.995ZM157.215 135.892C157.069 136.096 156.784 136.142 156.58 135.995L156.22 136.496C156.7 136.842 157.37 136.733 157.716 136.252L157.215 135.892ZM157.112 135.257C157.316 135.403 157.362 135.688 157.215 135.892L157.716 136.252C158.062 135.772 157.953 135.102 157.472 134.756L157.112 135.257ZM155.245 133.912L157.112 135.257L157.472 134.756L155.605 133.412L155.245 133.912ZM157.59 132.825L155.353 133.362L155.497 133.962L157.734 133.425L157.59 132.825ZM157.927 132.276C157.985 132.52 157.835 132.766 157.59 132.825L157.734 133.425C158.31 133.287 158.665 132.708 158.527 132.132L157.927 132.276ZM157.378 131.94C157.622 131.881 157.868 132.031 157.927 132.276L158.527 132.132C158.388 131.556 157.81 131.201 157.234 131.34L157.378 131.94ZM155.02 132.506L157.378 131.94L157.234 131.34L154.876 131.906L155.02 132.506ZM155.23 132.33L156.209 130.111L155.644 129.862L154.665 132.081L155.23 132.33ZM156.209 130.111C156.448 129.57 156.202 128.937 155.66 128.698L155.411 129.262C155.641 129.364 155.746 129.632 155.644 129.862L156.209 130.111ZM155.66 128.698C155.119 128.459 154.486 128.704 154.247 129.246L154.811 129.495C154.913 129.265 155.181 129.161 155.411 129.262L155.66 128.698ZM154.247 129.246L153.682 130.526L154.247 130.775L154.811 129.495L154.247 129.246ZM152.249 124.512L153.664 130.719L154.265 130.582L152.851 124.375L152.249 124.512ZM151.704 124.169C151.949 124.113 152.193 124.267 152.249 124.512L152.851 124.375C152.719 123.797 152.145 123.436 151.567 123.567L151.704 124.169Z" fill="black" mask="url(#path-44-inside-4)"/>
<defs>
<clipPath id="clip0">
<rect width="84.3919" height="89.8508" fill="white" transform="translate(74.851 33.946)"/>
</clipPath>
</defs>
</svg>
