<svg width="125" height="218" viewBox="0 0 125 218" fill="none" xmlns="http://www.w3.org/2000/svg">
<path fill-rule="evenodd" clip-rule="evenodd" d="M119.465 40.0136C122.585 48.0743 124.192 56.7137 124.192 65.4385H124.191V217.159H0V65.358H0.000133294C0.00997504 56.6606 1.61583 48.0495 4.72684 40.0136C7.84744 31.9529 12.4214 24.6288 18.1875 18.4594C23.9536 12.29 30.799 7.39618 38.3328 4.05733C45.8666 0.718483 53.9413 -1 62.0958 -1C70.2503 -1 78.325 0.718481 85.8588 4.05733C93.3926 7.39617 100.238 12.29 106.004 18.4594C111.77 24.6288 116.344 31.9529 119.465 40.0136Z" fill="#F98548"/>
<mask id="path-2-inside-1" fill="white">
<path fill-rule="evenodd" clip-rule="evenodd" d="M2.74744 67.9577C2.74744 67.9318 2.74746 67.906 2.74749 67.8801C2.75689 59.5003 4.28896 51.2038 7.25702 43.4614C10.2342 35.6951 14.598 28.6385 20.0992 22.6945C25.6004 16.7504 32.1313 12.0353 39.319 8.81842C46.5066 5.60152 54.2103 3.9458 61.9902 3.9458C69.77 3.9458 77.4737 5.60152 84.6614 8.81842C91.849 12.0353 98.3799 16.7504 103.881 22.6945C109.382 28.6385 113.746 35.6951 116.723 43.4614C119.691 51.2038 121.223 59.5003 121.233 67.8801H121.233V214.137H2.74749L2.74744 67.9577Z"/>
</mask>
<path fill-rule="evenodd" clip-rule="evenodd" d="M2.74744 67.9577C2.74744 67.9318 2.74746 67.906 2.74749 67.8801C2.75689 59.5003 4.28896 51.2038 7.25702 43.4614C10.2342 35.6951 14.598 28.6385 20.0992 22.6945C25.6004 16.7504 32.1313 12.0353 39.319 8.81842C46.5066 5.60152 54.2103 3.9458 61.9902 3.9458C69.77 3.9458 77.4737 5.60152 84.6614 8.81842C91.849 12.0353 98.3799 16.7504 103.881 22.6945C109.382 28.6385 113.746 35.6951 116.723 43.4614C119.691 51.2038 121.223 59.5003 121.233 67.8801H121.233V214.137H2.74749L2.74744 67.9577Z" fill="#FFF4D4"/>
<path d="M2.74749 67.8801L1.37369 67.8785L2.74749 67.8801ZM2.74744 67.9577H1.37364H2.74744ZM7.25702 43.4614L5.97425 42.9697L7.25702 43.4614ZM20.0992 22.6945L19.091 21.7613L20.0992 22.6945ZM39.319 8.81842L38.7577 7.56448V7.56448L39.319 8.81842ZM84.6614 8.81842L84.1002 10.0724L84.6614 8.81842ZM103.881 22.6945L104.889 21.7613L103.881 22.6945ZM116.723 43.4614L115.441 43.9532V43.9532L116.723 43.4614ZM121.233 67.8801L119.859 67.8816L119.861 69.2539H121.233V67.8801ZM121.233 67.8801H122.607V66.5063H121.233V67.8801ZM121.233 214.137V215.511H122.607V214.137H121.233ZM2.74749 214.137H1.37369L1.37369 215.511H2.74749V214.137ZM1.37369 67.8785C1.37366 67.9046 1.37364 67.9311 1.37364 67.9577H4.12124C4.12124 67.9326 4.12126 67.9073 4.12129 67.8816L1.37369 67.8785ZM5.97425 42.9697C2.94555 50.8702 1.38328 59.333 1.37369 67.8785L4.12129 67.8816C4.13051 59.6676 5.63237 51.5374 8.53979 43.9532L5.97425 42.9697ZM19.091 21.7613C13.4678 27.8372 9.01234 35.0446 5.97425 42.9697L8.53979 43.9532C11.4562 36.3457 15.7283 29.4398 21.1075 23.6276L19.091 21.7613ZM38.7577 7.56448C31.3961 10.8592 24.7144 15.6852 19.091 21.7613L21.1075 23.6276C26.4865 17.8156 32.8665 13.2114 39.8802 10.0724L38.7577 7.56448ZM61.9902 2.572C54.0145 2.572 46.1197 4.26956 38.7577 7.56448L39.8802 10.0724C46.8935 6.93348 54.4061 5.3196 61.9902 5.3196V2.572ZM85.2226 7.56448C77.8606 4.26955 69.9659 2.572 61.9902 2.572V5.3196C69.5742 5.3196 77.0868 6.93348 84.1002 10.0724L85.2226 7.56448ZM104.889 21.7613C99.266 15.6852 92.5842 10.8592 85.2226 7.56448L84.1002 10.0724C91.1138 13.2114 97.4938 17.8156 102.873 23.6276L104.889 21.7613ZM118.006 42.9697C114.968 35.0446 110.513 27.8372 104.889 21.7613L102.873 23.6276C108.252 29.4398 112.524 36.3456 115.441 43.9532L118.006 42.9697ZM122.607 67.8785C122.597 59.333 121.035 50.8702 118.006 42.9697L115.441 43.9532C118.348 51.5374 119.85 59.6676 119.859 67.8816L122.607 67.8785ZM121.233 69.2539H121.233V66.5063H121.233V69.2539ZM119.859 67.8801V214.137H122.607V67.8801H119.859ZM121.233 212.763H2.74749V215.511H121.233V212.763ZM4.12129 214.137L4.12124 67.9577H1.37364L1.37369 214.137H4.12129Z" fill="black" mask="url(#path-2-inside-1)"/>
<mask id="path-4-inside-2" fill="white">
<path fill-rule="evenodd" clip-rule="evenodd" d="M112.418 43.6345C115.154 50.2468 116.562 57.3338 116.562 64.4909H116.5V159.433H7.69312V64.2602H7.69362C7.72355 57.1815 9.13052 50.1757 11.8367 43.6345C14.5723 37.0222 18.5819 31.0141 23.6366 25.9533C28.6913 20.8925 34.6921 16.878 41.2964 14.1391C47.9007 11.4002 54.9791 9.99048 62.1276 9.99048C69.276 9.99048 76.3544 11.4002 82.9587 14.1391C89.563 16.878 95.5638 20.8925 100.619 25.9533C105.673 31.0141 109.683 37.0222 112.418 43.6345Z"/>
</mask>
<path fill-rule="evenodd" clip-rule="evenodd" d="M112.418 43.6345C115.154 50.2468 116.562 57.3338 116.562 64.4909H116.5V159.433H7.69312V64.2602H7.69362C7.72355 57.1815 9.13052 50.1757 11.8367 43.6345C14.5723 37.0222 18.5819 31.0141 23.6366 25.9533C28.6913 20.8925 34.6921 16.878 41.2964 14.1391C47.9007 11.4002 54.9791 9.99048 62.1276 9.99048C69.276 9.99048 76.3544 11.4002 82.9587 14.1391C89.563 16.878 95.5638 20.8925 100.619 25.9533C105.673 31.0141 109.683 37.0222 112.418 43.6345Z" fill="#F98548"/>
<path d="M116.562 64.4909V65.7883H117.859V64.4909H116.562ZM112.418 43.6345L111.22 44.1305L112.418 43.6345ZM116.5 64.4909V63.1936H115.202V64.4909H116.5ZM116.5 159.433V160.73H117.797V159.433H116.5ZM7.69312 159.433H6.39577V160.73H7.69312V159.433ZM7.69312 64.2602V62.9628H6.39577V64.2602H7.69312ZM7.69362 64.2602V65.5575H8.98549L8.99095 64.2656L7.69362 64.2602ZM11.8367 43.6345L10.6379 43.1386L11.8367 43.6345ZM23.6366 25.9533L22.7187 25.0365L23.6366 25.9533ZM41.2964 14.1391L40.7994 12.9407V12.9407L41.2964 14.1391ZM82.9587 14.1391L82.4617 15.3375L82.9587 14.1391ZM100.619 25.9533L101.536 25.0365V25.0365L100.619 25.9533ZM117.859 64.4909C117.859 57.1637 116.418 49.9081 113.617 43.1385L111.22 44.1305C113.89 50.5855 115.265 57.504 115.265 64.4909H117.859ZM116.5 65.7883H116.562V63.1936H116.5V65.7883ZM115.202 64.4909V159.433H117.797V64.4909H115.202ZM116.5 158.135H7.69312V160.73H116.5V158.135ZM8.99046 159.433V64.2602H6.39577V159.433H8.99046ZM7.69312 65.5575H7.69362V62.9628H7.69312V65.5575ZM10.6379 43.1386C7.86735 49.8354 6.42694 57.0078 6.39629 64.2547L8.99095 64.2656C9.02017 57.3553 10.3937 50.5161 13.0355 44.1305L10.6379 43.1386ZM22.7187 25.0365C17.5436 30.2179 13.4386 36.369 10.6379 43.1386L13.0355 44.1305C15.706 37.6755 19.6202 31.8104 24.5545 26.8701L22.7187 25.0365ZM40.7994 12.9407C34.0376 15.7449 27.8938 19.8551 22.7187 25.0365L24.5545 26.8701C29.4888 21.9298 35.3466 18.011 41.7934 15.3375L40.7994 12.9407ZM62.1276 8.69314C54.8085 8.69314 47.5612 10.1365 40.7994 12.9407L41.7934 15.3375C48.2402 12.6639 55.1497 11.2878 62.1276 11.2878V8.69314ZM83.4557 12.9407C76.6939 10.1365 69.4466 8.69314 62.1276 8.69314V11.2878C69.1054 11.2878 76.015 12.6639 82.4617 15.3375L83.4557 12.9407ZM101.536 25.0365C96.3613 19.8551 90.2175 15.7449 83.4557 12.9407L82.4617 15.3375C88.9085 18.011 94.7663 21.9298 99.7006 26.8701L101.536 25.0365ZM113.617 43.1385C110.817 36.369 106.712 30.2179 101.536 25.0365L99.7006 26.8701C104.635 31.8104 108.549 37.6755 111.22 44.1305L113.617 43.1385Z" fill="black" mask="url(#path-4-inside-2)"/>
<g clip-path="url(#clip0)">
<ellipse cx="68.5935" cy="142.77" rx="41.4149" ry="7.99403" fill="black"/>
<path d="M84.052 79.85C82.0663 75.2678 79.0616 73.265 76.5516 71.8181L69.76 95.6774L75.1933 144.37C81.4534 144.37 88.0011 143.155 90.4007 139.587C96.0407 131.201 90.4007 129.104 86.5619 121.751C85.6868 120.075 83.9634 117.411 84.9083 114.31C88.3041 109.467 89.692 107.725 83.4319 107.725C80.8333 106.603 80.5735 107.767 79.0616 103.443C77.3844 98.6008 76.5516 96.4747 82.4869 100.077C84.987 93.8663 86.7391 86.051 84.052 79.85Z" fill="black" stroke="black" stroke-width="0.0590577"/>
<path d="M52.2541 92.6068C49.1624 86.619 50.8336 66.5937 67.9894 68.8523C87.5167 71.4231 82.6281 93.3402 81.2068 96.4482C80.997 96.1237 80.1212 95.1653 78.2967 93.9277C76.4722 92.6901 75.1963 92.8665 74.7675 93.1959C74.3841 93.4904 74.081 93.9664 73.8087 94.7024C73.4565 95.6545 73.638 98.7369 73.8249 100.315C73.8684 100.627 74.0235 101.659 74.2964 103.286C74.6747 106.115 76.0516 108.099 76.8787 108.851C77.217 109.158 77.7687 109.324 78.5123 109.185C78.9909 109.04 81.6009 109.294 82.122 109.482C83.9114 110.002 83.8728 111.216 83.6298 111.758C83.5781 112.009 83.2984 112.736 82.5935 113.64C81.9974 114.251 82.2261 115.502 82.415 116.051C82.3232 115.92 82.7441 117.495 85.1613 124.843C90.2652 140.358 82.3761 143.564 76.6029 144.11C75.7422 144.234 72.2422 144.694 64.5426 143.68C57.3026 142.905 51.3014 140.72 49.3335 139.6C47.4999 138.745 43.6793 135.845 43.0668 131.086C42.4542 126.327 44.9572 120.302 46.2853 117.885L48.3258 113.582C48.3936 113.403 48.622 112.837 48.9932 112.007C49.3644 111.177 49.4016 110.112 49.3738 109.682C49.3498 109.57 49.2364 109.243 48.9741 108.828C48.7118 108.414 48.4637 107.633 48.3724 107.295C48.1651 106.723 48.1046 105.567 49.6796 105.3C50.8419 105.037 52.4448 105.397 54.0901 106.088C55.1382 106.345 56.094 105.491 56.7293 104.565C59.0435 100.684 59.7404 95.6407 59.7327 93.3242C59.7253 91.0969 57.7316 88.5189 52.2541 92.6068Z" fill="#8C74B7" stroke="black" stroke-width="0.590577"/>
<rect x="68.9386" y="29.8239" width="5.72859" height="7.61844" rx="0.885865" transform="rotate(5.26648 68.9386 29.8239)" fill="#8C74B7" stroke="black" stroke-width="0.590577"/>
<rect x="70.936" y="27.4576" width="2.71665" height="4.96084" rx="0.885865" transform="rotate(5.26648 70.936 27.4576)" fill="#8C74B7" stroke="black" stroke-width="0.590577"/>
<path d="M61.787 119.014C61.7709 119.177 61.8906 119.322 62.0538 119.337L65.6358 119.668C65.7994 119.683 65.9439 119.561 65.9572 119.397L72.7637 35.3329C72.7767 35.1716 72.6576 35.0298 72.4965 35.015L70.4329 34.8248C70.2713 34.8099 70.1279 34.9282 70.1119 35.0897L61.787 119.014Z" fill="black"/>
<path d="M70.4911 34.5338L62.3382 118.8" stroke="#FCFCFC" stroke-width="0.295288"/>
<path d="M72.4745 34.8945L65.4579 119.058" stroke="#FCFCFC" stroke-width="0.295288"/>
<path d="M71.1954 33.6497L63.338 118.892" stroke="#FCFCFC" stroke-width="0.295288"/>
<path d="M71.96 33.72L64.3672 118.987" stroke="#FCFCFC" stroke-width="0.295288"/>
<circle cx="72.5094" cy="34.8385" r="0.295288" transform="rotate(5.26648 72.5094 34.8385)" fill="black"/>
<circle cx="70.451" cy="34.6485" r="0.295288" transform="rotate(5.26648 70.451 34.6485)" fill="black"/>
<circle cx="71.1954" cy="33.6495" r="0.295288" transform="rotate(5.26648 71.1954 33.6495)" fill="black"/>
<circle cx="71.9602" cy="33.7201" r="0.295288" transform="rotate(5.26648 71.9602 33.7201)" fill="black"/>
<path d="M52.7837 116.789C53.3707 113.646 55.8315 114.799 58.2697 116.201C60.4596 117.196 66.8712 116.992 71.6122 115.025C73.7795 113.751 78.105 112.655 76.2628 118.1C74.8541 121.7 73.2151 122.758 71.6122 124.024C69.5352 124.974 61.809 126.124 58.6664 125.147C54.7382 123.926 52.3769 118.967 52.7837 116.789Z" fill="black" stroke="black" stroke-width="0.0590577"/>
<path d="M71.3935 123.701C70.7289 118.694 58.7017 122.294 58.5484 124.764C60.3201 125.325 62.6824 125.147 64.0408 125.088C64.6313 125.063 65.0561 125.025 65.6058 124.97C66.1964 124.912 67.4661 124.764 68.7654 124.468C69.7875 124.236 70.1828 124.143 70.6553 123.996C70.862 123.907 70.921 123.907 71.3935 123.701Z" fill="#E55B42" stroke="black" stroke-width="0.124486"/>
<path d="M66.406 120.995C66.2313 120.874 65.7302 121.3 65.2867 121.945C64.8432 122.59 64.6252 123.21 64.7999 123.33C64.9746 123.451 65.0865 122.757 65.53 122.112C65.9735 121.467 66.5807 121.115 66.406 120.995Z" fill="black"/>
<path d="M67.0302 32.9141C67.0469 33.8608 67.8827 34.0054 68.3123 34.045L68.2776 34.4215C67.805 34.378 66.9107 34.2111 66.8644 34.7132C66.8258 35.1316 66.4117 34.9247 66.4778 34.6776L66.6436 32.8784C66.6783 32.5019 67.0688 32.4957 67.0302 32.9141Z" fill="black" stroke="black" stroke-width="0.0590577"/>
<path d="M66.6353 37.1983C66.8248 36.2706 67.6729 36.2812 68.1025 36.3208L68.1372 35.9442C67.6646 35.9007 66.7548 35.9012 66.8011 35.3991C66.8397 34.9807 66.3947 35.1085 66.4145 35.3635L66.2487 37.1626C66.2139 37.5392 66.5967 37.6167 66.6353 37.1983Z" fill="black" stroke="black" stroke-width="0.0590577"/>
<path d="M75.9543 33.7365C75.7648 34.6643 74.9167 34.6536 74.4871 34.614L74.4524 34.9906C74.925 35.0341 75.8348 35.0336 75.7885 35.5357C75.7499 35.9541 76.1949 35.8263 76.1751 35.5713L76.3409 33.7722C76.3757 33.3956 75.9929 33.3181 75.9543 33.7365Z" fill="black" stroke="black" stroke-width="0.0590577"/>
<path d="M75.5595 38.0207C75.5428 37.074 74.707 36.9294 74.2774 36.8899L74.3122 36.5133C74.7847 36.5568 75.6791 36.7237 75.7253 36.2216C75.7639 35.8032 76.178 36.0101 76.112 36.2572L75.9461 38.0564C75.9114 38.4329 75.5209 38.4392 75.5595 38.0207Z" fill="black" stroke="black" stroke-width="0.0590577"/>
<path d="M66.4799 27.867C66.356 29.2107 66.5987 30.4503 67.0805 31.3668C67.5633 32.2854 68.2704 32.8555 69.072 32.9294C69.8735 33.0032 70.6729 32.5721 71.3155 31.7572C71.9567 30.9442 72.4219 29.7698 72.5458 28.4262C72.6696 27.0825 72.4269 25.8429 71.9452 24.9264C71.4623 24.0078 70.7552 23.4377 69.9537 23.3638C69.1521 23.2899 68.3527 23.7211 67.7101 24.536C67.069 25.349 66.6037 26.5234 66.4799 27.867Z" fill="white" stroke="black" stroke-width="0.413404" stroke-linecap="round"/>
<path fill-rule="evenodd" clip-rule="evenodd" d="M67.9036 30.8475C66.8599 30.7513 66.1329 29.3816 66.2798 27.7883C66.4266 26.195 67.3918 24.9813 68.4354 25.0775C69.2953 25.1568 69.9402 26.1004 70.0585 27.3214L68.6566 27.9632L69.9312 28.8601C69.6053 30.0809 68.7823 30.9285 67.9036 30.8475Z" fill="black"/>
<path d="M71.8875 28.3653C71.7636 29.709 72.0063 30.9486 72.4881 31.8651C72.9709 32.7837 73.678 33.3538 74.4795 33.4277C75.2811 33.5015 76.0805 33.0703 76.7231 32.2555C77.3643 31.4424 77.8295 30.2681 77.9534 28.9245C78.0772 27.5808 77.8345 26.3412 77.3528 25.4247C76.8699 24.5061 76.1628 23.936 75.3613 23.8621C74.5597 23.7882 73.7603 24.2194 73.1177 25.0343C72.4765 25.8473 72.0113 27.0216 71.8875 28.3653Z" fill="white" stroke="black" stroke-width="0.413404" stroke-linecap="round"/>
<path fill-rule="evenodd" clip-rule="evenodd" d="M73.3111 31.3455C72.2674 31.2493 71.5404 29.8797 71.6873 28.2863C71.8341 26.693 72.7992 25.4794 73.8429 25.5756C74.7028 25.6548 75.3478 26.5986 75.4661 27.8197L74.0642 28.4615L75.3386 29.3583C75.0127 30.5791 74.1897 31.4265 73.3111 31.3455Z" fill="black"/>
<mask id="path-31-inside-3" fill="white">
<path fill-rule="evenodd" clip-rule="evenodd" d="M81.1784 17.0148C80.8285 17.085 80.6017 17.4257 80.672 17.7757L81.8449 23.6164L80.3742 22.4988C80.09 22.2828 79.6846 22.3381 79.4686 22.6223C79.2526 22.9065 79.3079 23.312 79.5921 23.528L81.1423 24.706L79.2379 25.1114C78.8888 25.1857 78.666 25.529 78.7403 25.8781C78.8147 26.2273 79.1579 26.4501 79.5071 26.3757L81.5144 25.9484L80.6378 27.8041C80.4853 28.1269 80.6233 28.5121 80.9461 28.6646C81.2689 28.817 81.6541 28.679 81.8066 28.3562L82.5013 26.8855L83.6241 32.4769C83.6944 32.8268 84.0351 33.0536 84.3851 32.9833C84.735 32.913 84.9618 32.5723 84.8915 32.2224L83.7855 26.7147L84.9379 27.5905C85.2221 27.8065 85.6276 27.7512 85.8436 27.467C86.0596 27.1828 86.0042 26.7773 85.72 26.5613L84.1697 25.3832L86.0742 24.9778C86.4233 24.9034 86.6461 24.5602 86.5718 24.211C86.4975 23.8619 86.1542 23.6391 85.8051 23.7135L83.7979 24.1407L84.6744 22.2853C84.8269 21.9625 84.6889 21.5773 84.3661 21.4248C84.0433 21.2723 83.6581 21.4104 83.5056 21.7331L83.0001 22.8034L81.9394 17.5212C81.8691 17.1712 81.5284 16.9445 81.1784 17.0148Z"/>
</mask>
<path fill-rule="evenodd" clip-rule="evenodd" d="M81.1784 17.0148C80.8285 17.085 80.6017 17.4257 80.672 17.7757L81.8449 23.6164L80.3742 22.4988C80.09 22.2828 79.6846 22.3381 79.4686 22.6223C79.2526 22.9065 79.3079 23.312 79.5921 23.528L81.1423 24.706L79.2379 25.1114C78.8888 25.1857 78.666 25.529 78.7403 25.8781C78.8147 26.2273 79.1579 26.4501 79.5071 26.3757L81.5144 25.9484L80.6378 27.8041C80.4853 28.1269 80.6233 28.5121 80.9461 28.6646C81.2689 28.817 81.6541 28.679 81.8066 28.3562L82.5013 26.8855L83.6241 32.4769C83.6944 32.8268 84.0351 33.0536 84.3851 32.9833C84.735 32.913 84.9618 32.5723 84.8915 32.2224L83.7855 26.7147L84.9379 27.5905C85.2221 27.8065 85.6276 27.7512 85.8436 27.467C86.0596 27.1828 86.0042 26.7773 85.72 26.5613L84.1697 25.3832L86.0742 24.9778C86.4233 24.9034 86.6461 24.5602 86.5718 24.211C86.4975 23.8619 86.1542 23.6391 85.8051 23.7135L83.7979 24.1407L84.6744 22.2853C84.8269 21.9625 84.6889 21.5773 84.3661 21.4248C84.0433 21.2723 83.6581 21.4104 83.5056 21.7331L83.0001 22.8034L81.9394 17.5212C81.8691 17.1712 81.5284 16.9445 81.1784 17.0148Z" fill="#FCFCFC"/>
<path d="M80.672 17.7757L80.2997 17.8505L80.2997 17.8505L80.672 17.7757ZM81.1784 17.0148L81.1037 16.6424L81.1784 17.0148ZM81.8449 23.6164L81.6151 23.9188L82.415 24.5267L82.2172 23.5416L81.8449 23.6164ZM80.3742 22.4988L80.1445 22.8012L80.3742 22.4988ZM79.5921 23.528L79.8219 23.2256L79.8219 23.2256L79.5921 23.528ZM81.1423 24.706L81.2214 25.0775L82.0317 24.905L81.3721 24.4037L81.1423 24.706ZM79.2379 25.1114L79.1588 24.74L79.2379 25.1114ZM78.7403 25.8781L78.3689 25.9572L78.7403 25.8781ZM79.5071 26.3757L79.5861 26.7472L79.5861 26.7472L79.5071 26.3757ZM81.5144 25.9484L81.8578 26.1106L82.1853 25.4173L81.4353 25.577L81.5144 25.9484ZM80.6378 27.8041L80.9812 27.9663L80.9812 27.9663L80.6378 27.8041ZM81.8066 28.3562L81.4632 28.194L81.4632 28.194L81.8066 28.3562ZM82.5013 26.8855L82.8737 26.8107L82.6479 25.6862L82.1579 26.7233L82.5013 26.8855ZM83.6241 32.4769L83.2518 32.5516L83.6241 32.4769ZM84.3851 32.9833L84.4598 33.3556L84.3851 32.9833ZM84.8915 32.2224L84.5191 32.2971L84.8915 32.2224ZM83.7855 26.7147L84.0153 26.4124L83.2153 25.8045L83.4132 26.7895L83.7855 26.7147ZM84.9379 27.5905L85.1677 27.2881L84.9379 27.5905ZM85.72 26.5613L85.9498 26.259L85.72 26.5613ZM84.1697 25.3832L84.0907 25.0117L83.2803 25.1842L83.94 25.6855L84.1697 25.3832ZM86.0742 24.9778L85.9951 24.6063L86.0742 24.9778ZM86.5718 24.211L86.2003 24.2901L86.5718 24.211ZM85.8051 23.7135L85.8841 24.0849L85.8051 23.7135ZM83.7979 24.1407L83.4545 23.9785L83.127 24.6718L83.877 24.5122L83.7979 24.1407ZM84.6744 22.2853L84.331 22.123L84.6744 22.2853ZM83.5056 21.7331L83.1623 21.5709L83.5056 21.7331ZM83.0001 22.8034L82.6277 22.8781L82.8535 24.0027L83.3435 22.9656L83.0001 22.8034ZM81.9394 17.5212L82.3117 17.4464L82.3117 17.4464L81.9394 17.5212ZM81.0443 17.7009C81.0154 17.5566 81.1089 17.4161 81.2532 17.3871L81.1037 16.6424C80.5481 16.754 80.1881 17.2948 80.2997 17.8505L81.0443 17.7009ZM82.2172 23.5416L81.0443 17.7009L80.2997 17.8505L81.4725 23.6912L82.2172 23.5416ZM80.1445 22.8012L81.6151 23.9188L82.0747 23.314L80.604 22.1964L80.1445 22.8012ZM79.771 22.8521C79.86 22.7349 80.0273 22.7121 80.1445 22.8012L80.604 22.1964C80.1528 21.8536 79.5091 21.9414 79.1662 22.3926L79.771 22.8521ZM79.8219 23.2256C79.7047 23.1366 79.6819 22.9693 79.771 22.8521L79.1662 22.3926C78.8233 22.8438 78.9111 23.4875 79.3623 23.8304L79.8219 23.2256ZM81.3721 24.4037L79.8219 23.2256L79.3623 23.8304L80.9125 25.0084L81.3721 24.4037ZM79.317 25.4829L81.2214 25.0775L81.0632 24.3346L79.1588 24.74L79.317 25.4829ZM79.1118 25.7991C79.0811 25.6551 79.173 25.5135 79.317 25.4829L79.1588 24.74C78.6046 24.858 78.2509 25.4029 78.3689 25.9572L79.1118 25.7991ZM79.428 26.0043C79.284 26.0349 79.1424 25.9431 79.1118 25.7991L78.3689 25.9572C78.4869 26.5115 79.0319 26.8652 79.5861 26.7472L79.428 26.0043ZM81.4353 25.577L79.428 26.0043L79.5861 26.7472L81.5934 26.3199L81.4353 25.577ZM81.171 25.7862L80.2944 27.6419L80.9812 27.9663L81.8578 26.1106L81.171 25.7862ZM80.2944 27.6419C80.0523 28.1543 80.2715 28.7659 80.7839 29.008L81.1083 28.3212C80.9752 28.2583 80.9183 28.0994 80.9812 27.9663L80.2944 27.6419ZM80.7839 29.008C81.2963 29.25 81.9079 29.0309 82.15 28.5185L81.4632 28.194C81.4003 28.3271 81.2414 28.3841 81.1083 28.3212L80.7839 29.008ZM82.15 28.5185L82.8447 27.0477L82.1579 26.7233L81.4632 28.194L82.15 28.5185ZM83.9965 32.4021L82.8737 26.8107L82.129 26.9603L83.2518 32.5516L83.9965 32.4021ZM84.3103 32.611C84.166 32.6399 84.0255 32.5464 83.9965 32.4021L83.2518 32.5516C83.3634 33.1072 83.9042 33.4672 84.4598 33.3556L84.3103 32.611ZM84.5191 32.2971C84.5481 32.4415 84.4546 32.582 84.3103 32.611L84.4598 33.3556C85.0154 33.2441 85.3754 32.7032 85.2638 32.1476L84.5191 32.2971ZM83.4132 26.7895L84.5191 32.2971L85.2638 32.1476L84.1578 26.64L83.4132 26.7895ZM85.1677 27.2881L84.0153 26.4124L83.5557 27.0171L84.7081 27.8929L85.1677 27.2881ZM85.5412 27.2372C85.4521 27.3544 85.2849 27.3772 85.1677 27.2881L84.7081 27.8929C85.1593 28.2358 85.8031 28.148 86.1459 27.6968L85.5412 27.2372ZM85.4903 26.8637C85.6075 26.9528 85.6303 27.12 85.5412 27.2372L86.1459 27.6968C86.4888 27.2456 86.401 26.6018 85.9498 26.259L85.4903 26.8637ZM83.94 25.6855L85.4903 26.8637L85.9498 26.259L84.3995 25.0808L83.94 25.6855ZM85.9951 24.6063L84.0907 25.0117L84.2488 25.7546L86.1533 25.3492L85.9951 24.6063ZM86.2003 24.2901C86.231 24.4341 86.1391 24.5757 85.9951 24.6063L86.1533 25.3492C86.7075 25.2312 87.0612 24.6862 86.9432 24.132L86.2003 24.2901ZM85.8841 24.0849C86.0281 24.0543 86.1697 24.1461 86.2003 24.2901L86.9432 24.132C86.8252 23.5777 86.2803 23.224 85.726 23.342L85.8841 24.0849ZM83.877 24.5122L85.8841 24.0849L85.726 23.342L83.7189 23.7693L83.877 24.5122ZM84.1413 24.3029L85.0178 22.4475L84.331 22.123L83.4545 23.9785L84.1413 24.3029ZM85.0178 22.4475C85.2599 21.9351 85.0407 21.3235 84.5283 21.0814L84.2039 21.7682C84.337 21.8311 84.3939 21.9899 84.331 22.123L85.0178 22.4475ZM84.5283 21.0814C84.0159 20.8394 83.4043 21.0585 83.1623 21.5709L83.849 21.8953C83.9119 21.7622 84.0708 21.7053 84.2039 21.7682L84.5283 21.0814ZM83.1623 21.5709L82.6567 22.6412L83.3435 22.9656L83.849 21.8953L83.1623 21.5709ZM81.567 17.596L82.6277 22.8781L83.3724 22.7286L82.3117 17.4464L81.567 17.596ZM81.2532 17.3871C81.3975 17.3581 81.538 17.4516 81.567 17.596L82.3117 17.4464C82.2001 16.8908 81.6593 16.5309 81.1037 16.6424L81.2532 17.3871Z" fill="black" mask="url(#path-31-inside-3)"/>
</g>
<path fill-rule="evenodd" clip-rule="evenodd" d="M36.3828 93.3147L37.6765 92.968C37.8952 95.7206 38.167 97.2778 39.5992 100.143L39.5949 100.145C39.6947 100.267 39.7688 100.407 39.8104 100.562C40.0076 101.298 39.4026 102.099 38.459 102.352C37.5155 102.605 36.5907 102.213 36.3935 101.478C36.1963 100.742 36.8013 99.94 37.7449 99.6871C37.8093 99.6699 37.8736 99.6556 37.9376 99.6443C37.1896 97.8693 36.8028 96.5456 36.5557 94.8131L31.5651 96.1503C31.7885 98.0359 32.1815 99.4793 33.2946 101.725C33.4504 101.872 33.5642 102.052 33.6199 102.26C33.8171 102.996 33.212 103.797 32.2685 104.05C31.3249 104.303 30.4002 103.911 30.203 103.175C30.0058 102.439 30.6108 101.638 31.5544 101.385C31.6009 101.373 31.6474 101.362 31.6938 101.352C30.7373 99.0875 30.3678 97.5604 30.1283 94.9973L30.397 94.9253L30.397 94.9252L36.3834 93.3211L36.3828 93.3147Z" fill="white"/>
<path fill-rule="evenodd" clip-rule="evenodd" d="M34.4182 98.0829L35.712 98.4296C34.525 100.923 33.9819 102.407 33.7893 105.605L33.7851 105.604C33.8106 105.759 33.8047 105.918 33.7631 106.073C33.5659 106.809 32.6411 107.201 31.6976 106.948C30.754 106.695 30.149 105.893 30.3462 105.158C30.5434 104.422 31.4682 104.03 32.4117 104.283C32.4761 104.3 32.5388 104.32 32.5999 104.342C32.8396 102.431 33.1665 101.091 33.8187 99.4671L28.8282 98.1299C28.0789 99.8745 27.6976 101.321 27.5385 103.822C27.6004 104.027 27.6087 104.24 27.553 104.448C27.3558 105.184 26.431 105.576 25.4875 105.323C24.5439 105.07 23.9389 104.269 24.1361 103.533C24.3333 102.797 25.2581 102.405 26.2016 102.658C26.2481 102.67 26.2938 102.684 26.3387 102.699C26.6427 100.26 27.0862 98.7524 28.1604 96.413L28.4291 96.485L28.4291 96.4848L34.4155 98.0889L34.4182 98.0829Z" fill="#EFC404"/>
<path fill-rule="evenodd" clip-rule="evenodd" d="M34.1773 97.9312L35.4711 98.2778C34.2842 100.771 33.741 102.255 33.5484 105.453L33.5443 105.452C33.5697 105.607 33.5638 105.766 33.5222 105.921C33.325 106.657 32.4003 107.048 31.4567 106.796C30.5132 106.543 29.9081 105.741 30.1053 105.005C30.3025 104.269 31.2273 103.878 32.1708 104.13C32.2352 104.148 32.298 104.167 32.3591 104.19C32.5988 102.279 32.9257 100.939 33.5778 99.3154L28.5872 97.9781C27.838 99.7227 27.4567 101.169 27.2976 103.671C27.3594 103.875 27.3677 104.088 27.312 104.296C27.1148 105.032 26.1901 105.424 25.2465 105.171C24.303 104.918 23.6979 104.117 23.8951 103.381C24.0923 102.645 25.0171 102.253 25.9606 102.506C26.0072 102.518 26.0529 102.532 26.0978 102.547C26.4018 100.108 26.8454 98.6003 27.9195 96.2609L29.2133 96.6076L29.2132 96.6077L34.1746 97.9371L34.1773 97.9312Z" fill="black"/>
<path fill-rule="evenodd" clip-rule="evenodd" d="M44.6004 108.005L45.3459 107.805C45.4719 109.391 45.6286 110.289 46.4539 111.94L46.4515 111.941C46.509 112.011 46.5516 112.091 46.5756 112.181C46.6893 112.605 46.3406 113.067 45.7969 113.213C45.2531 113.358 44.7202 113.133 44.6066 112.709C44.4929 112.284 44.8416 111.823 45.3853 111.677C45.4109 111.67 45.4364 111.664 45.4619 111.659C45.4734 111.656 45.4848 111.654 45.4963 111.652C45.0653 110.629 44.8424 109.867 44.7 108.868L41.8241 109.639C41.9528 110.725 42.1793 111.557 42.8206 112.851C42.9105 112.936 42.9761 113.04 43.0082 113.16C43.1218 113.584 42.7732 114.046 42.2294 114.191C41.6857 114.337 41.1528 114.111 41.0391 113.687C40.9255 113.263 41.2742 112.801 41.8179 112.655C41.8447 112.648 41.8715 112.642 41.8982 112.637C41.347 111.331 41.1341 110.451 40.9961 108.974L41.1509 108.933L41.1509 108.933L44.6007 108.009L44.6004 108.005Z" fill="white"/>
<path fill-rule="evenodd" clip-rule="evenodd" d="M43.4682 110.753L44.2138 110.952C43.5298 112.389 43.2168 113.244 43.1058 115.087L43.1035 115.087C43.1182 115.176 43.1148 115.267 43.0908 115.357C42.9772 115.781 42.4443 116.007 41.9005 115.861C41.3568 115.715 41.0081 115.253 41.1217 114.829C41.2354 114.405 41.7683 114.179 42.312 114.325C42.3475 114.334 42.3821 114.345 42.4158 114.357L42.4204 114.359C42.5585 113.258 42.747 112.486 43.1229 111.55L40.2469 110.779C39.8151 111.785 39.5953 112.618 39.5036 114.06C39.5394 114.178 39.5442 114.301 39.5121 114.42C39.3984 114.845 38.8655 115.07 38.3218 114.925C37.778 114.779 37.4294 114.317 37.543 113.893C37.6566 113.469 38.1896 113.243 38.7333 113.389C38.7492 113.393 38.7649 113.397 38.7805 113.402C38.7912 113.406 38.8017 113.409 38.8122 113.412C38.9874 112.007 39.243 111.138 39.862 109.79L40.0169 109.831L40.017 109.831L43.4668 110.756L43.4682 110.753Z" fill="#EFC404"/>
<path fill-rule="evenodd" clip-rule="evenodd" d="M43.3293 110.665L44.0749 110.865C43.3909 112.302 43.0778 113.157 42.9669 115L42.9645 114.999C42.9791 115.089 42.9757 115.18 42.9518 115.269C42.8381 115.693 42.3052 115.919 41.7615 115.773C41.2177 115.628 40.8691 115.166 40.9827 114.742C41.0964 114.318 41.6293 114.092 42.173 114.238L42.1802 114.24C42.2148 114.249 42.2486 114.26 42.2815 114.272C42.4196 113.17 42.608 112.398 42.984 111.462L40.108 110.692C39.6762 111.697 39.4564 112.531 39.3647 113.972C39.4003 114.09 39.4051 114.213 39.373 114.333C39.2594 114.757 38.7265 114.983 38.1827 114.837C37.639 114.691 37.2903 114.229 37.404 113.805C37.5176 113.381 38.0505 113.155 38.5943 113.301C38.6211 113.308 38.6475 113.316 38.6733 113.325C38.8485 111.919 39.1041 111.051 39.7231 109.703L39.878 109.744L39.8781 109.744L43.3279 110.668L43.3293 110.665Z" fill="black"/>
<path fill-rule="evenodd" clip-rule="evenodd" d="M27.5057 123.695L28.5951 123.596C28.3893 125.842 28.3921 127.133 29.1474 129.638L29.1439 129.638C29.2073 129.75 29.2474 129.873 29.2594 130.004C29.316 130.623 28.7179 131.185 27.9234 131.257C27.1288 131.33 26.4388 130.886 26.3822 130.267C26.3256 129.647 26.9237 129.086 27.7182 129.013L27.7336 129.012C27.7825 129.008 27.8311 129.006 27.8791 129.005C27.5233 127.473 27.3956 126.354 27.437 124.925L23.2348 125.309C23.153 126.858 23.2692 128.074 23.8535 130.037C23.9587 130.176 24.0252 130.337 24.0412 130.512C24.0979 131.132 23.4997 131.693 22.7052 131.765C21.9107 131.838 21.2207 131.395 21.164 130.775C21.1074 130.155 21.7055 129.594 22.5001 129.521L22.5256 129.519C22.5562 129.517 22.5866 129.515 22.6168 129.514C22.1611 127.559 22.0754 126.278 22.2382 124.182L22.4645 124.161L22.4645 124.161L27.5053 123.7L27.5057 123.695Z" fill="#EFC404"/>
<path fill-rule="evenodd" clip-rule="evenodd" d="M27.2783 123.648L28.3677 123.548C28.1619 125.794 28.1648 127.085 28.92 129.59L28.9164 129.591C28.9798 129.703 29.02 129.826 29.0319 129.956C29.0886 130.576 28.4904 131.137 27.6959 131.21C26.9014 131.283 26.2114 130.839 26.1547 130.219C26.0981 129.6 26.6963 129.038 27.4908 128.966C27.545 128.961 27.5987 128.958 27.6518 128.958C27.296 127.426 27.1683 126.307 27.2097 124.878L23.0073 125.262C22.9256 126.811 23.0417 128.027 23.6259 129.989C23.7312 130.128 23.7978 130.289 23.8138 130.464C23.8704 131.084 23.2722 131.645 22.4777 131.718C21.6832 131.79 20.9932 131.347 20.9366 130.727C20.8799 130.108 21.4781 129.546 22.2726 129.474C22.3118 129.47 22.3507 129.468 22.3893 129.467C21.9336 127.511 21.848 126.231 22.0108 124.135L23.1002 124.035L23.1002 124.035L27.2779 123.653L27.2783 123.648Z" fill="black"/>
<path d="M21.8929 170.592H17.5143C17.2901 171.185 16.6702 171.581 15.9581 171.581C14.9821 171.581 14.3227 170.921 14.3227 169.932C14.3227 168.943 14.9821 168.284 15.9581 168.284C16.6702 168.284 17.2769 168.679 17.5011 169.273H21.8929C21.8929 166.464 19.3871 164.38 15.9581 164.393C12.5291 164.393 10.0232 166.741 10.0232 169.932C10.0232 173.124 12.5291 175.458 15.9581 175.458C19.3871 175.458 21.8929 173.388 21.8929 170.592ZM26.5707 175.405C29.1688 175.405 30.8569 173.994 30.8569 171.91C30.8569 169.8 29.1556 168.402 26.5707 168.415C23.9857 168.415 22.2844 169.827 22.2844 171.91C22.2844 173.994 23.9857 175.405 26.5707 175.405ZM26.5575 172.9C26.175 172.9 25.9112 172.491 25.9112 171.91C25.9112 171.33 26.175 170.921 26.5575 170.921C26.9399 170.921 27.2301 171.33 27.2169 171.91C27.2169 172.491 26.9399 172.9 26.5575 172.9ZM37.3182 168.481C36.5005 168.481 35.7884 168.64 35.2081 168.93V168.613H31.2515V175.208H35.2081V171.581C35.2081 171.185 35.4718 170.921 35.8675 170.921C36.2631 170.921 36.5269 171.185 36.5269 171.581V175.208H40.4835V171.581C40.4835 169.721 39.2174 168.481 37.3182 168.481ZM47.0808 168.481C46.2631 168.481 45.5509 168.64 44.9706 168.93V168.613H41.0141V175.208H44.9706V171.581C44.9706 171.185 45.2344 170.921 45.6301 170.921C46.0257 170.921 46.2895 171.185 46.2895 171.581V175.208H50.246V171.581C50.246 169.721 48.9799 168.481 47.0808 168.481ZM54.8022 175.405C57.3608 175.405 59.0753 174.192 59.0885 172.372H55.4616C55.4616 172.768 55.1979 173.031 54.8022 173.031C54.4066 173.031 54.1428 172.583 54.1428 171.91H59.0885C59.0885 169.8 57.3608 168.402 54.8022 168.415C52.2305 168.415 50.516 169.813 50.516 171.91C50.516 174.007 52.2305 175.405 54.8022 175.405ZM54.1428 171.251C54.1428 170.855 54.4066 170.592 54.8022 170.592C55.1979 170.592 55.4616 170.855 55.4616 171.251H54.1428ZM67.9105 172.24H64.2573C64.165 172.636 63.9144 172.9 63.6375 172.9C63.2418 172.9 62.978 172.504 62.978 171.91C62.978 171.317 63.2418 170.921 63.6375 170.921C63.9276 170.921 64.1782 171.185 64.2573 171.581H67.9105C67.9105 169.668 66.196 168.402 63.6375 168.415C61.0657 168.415 59.3512 169.813 59.3512 171.91C59.3512 174.007 61.0657 175.405 63.6375 175.405C66.196 175.405 67.9105 174.139 67.9105 172.24ZM73.9796 169.932V167.294H72.6608V164.657H68.7042V167.294H68.0448V169.932H68.7042V172.57C68.7042 174.152 69.7593 175.208 71.3419 175.208H73.9796V171.91H73.3202C72.7926 171.91 72.6608 171.779 72.6608 171.251V169.932H73.9796ZM76.4916 167.954C77.5994 167.954 78.4699 167.07 78.4699 165.976C78.4699 164.881 77.5994 163.997 76.4916 163.997C75.3838 163.997 74.5133 164.881 74.5133 165.976C74.5133 167.07 75.3838 167.954 76.4916 167.954ZM74.5133 168.613V175.208H78.4699V168.613H74.5133ZM83.1497 175.405C85.7478 175.405 87.436 173.994 87.436 171.91C87.436 169.8 85.7347 168.402 83.1497 168.415C80.5648 168.415 78.8635 169.827 78.8635 171.91C78.8635 173.994 80.5648 175.405 83.1497 175.405ZM83.1365 172.9C82.7541 172.9 82.4903 172.491 82.4903 171.91C82.4903 171.33 82.7541 170.921 83.1365 170.921C83.519 170.921 83.8091 171.33 83.7959 171.91C83.7959 172.491 83.519 172.9 83.1365 172.9ZM93.8973 168.481C93.0796 168.481 92.3674 168.64 91.7871 168.93V168.613H87.8306V175.208H91.7871V171.581C91.7871 171.185 92.0509 170.921 92.4466 170.921C92.8422 170.921 93.106 171.185 93.106 171.581V175.208H97.0625V171.581C97.0625 169.721 95.7964 168.481 93.8973 168.481ZM97.5962 173.097C97.5962 174.443 99.0733 175.339 101.685 175.339C104.454 175.339 106.037 174.39 106.037 172.965V172.9C106.037 169.932 101.355 171.581 101.355 170.592V170.394C101.355 170.196 101.487 170.064 101.685 170.064C101.882 170.064 102.014 170.196 102.014 170.394V170.592H105.773V170.13C105.773 169.141 104.296 168.481 101.685 168.481C98.9151 168.481 97.3325 169.246 97.3325 170.394V170.592C97.3325 173.097 102.212 171.91 102.212 172.965V173.097C102.212 173.374 102.001 173.559 101.685 173.559C101.368 173.559 101.157 173.374 101.157 173.097V172.702H97.5962V173.097ZM15.4437 180.657H10.1551V191.208H15.4437C18.6089 191.208 20.7059 189.097 20.7059 185.932C20.7059 182.767 18.6089 180.657 15.4437 180.657ZM15.3118 187.581H14.1117V184.284H15.3118C16.1691 184.284 16.7494 184.943 16.7494 185.932C16.7494 186.921 16.1691 187.581 15.3118 187.581ZM25.1282 191.405C27.6867 191.405 29.4012 190.192 29.4144 188.372H25.7876C25.7876 188.768 25.5238 189.031 25.1282 189.031C24.7325 189.031 24.4687 188.583 24.4687 187.91H29.4144C29.4144 185.8 27.6867 184.402 25.1282 184.415C22.5564 184.415 20.8419 185.813 20.8419 187.91C20.8419 190.007 22.5564 191.405 25.1282 191.405ZM24.4687 187.251C24.4687 186.855 24.7325 186.592 25.1282 186.592C25.5238 186.592 25.7876 186.855 25.7876 187.251H24.4687ZM33.9634 191.405C36.522 191.405 38.2365 190.192 38.2497 188.372H34.6228C34.6228 188.768 34.3591 189.031 33.9634 189.031C33.5678 189.031 33.304 188.583 33.304 187.91H38.2497C38.2497 185.8 36.522 184.402 33.9634 184.415C31.3917 184.415 29.6772 185.813 29.6772 187.91C29.6772 190.007 31.3917 191.405 33.9634 191.405ZM33.304 187.251C33.304 186.855 33.5678 186.592 33.9634 186.592C34.3591 186.592 34.6228 186.855 34.6228 187.251H33.304ZM44.0911 184.481C43.5372 184.481 43.036 184.6 42.6008 184.824V184.613H38.6443V193.845H42.6008V190.997C43.036 191.221 43.5372 191.339 44.0911 191.339C45.9639 191.339 47.2168 189.968 47.2168 187.91C47.2168 185.853 45.9639 184.481 44.0911 184.481ZM43.2603 188.9C42.8646 188.9 42.6008 188.504 42.6008 187.91C42.6008 187.317 42.8646 186.921 43.2603 186.921C43.6559 186.921 43.9197 187.317 43.9197 187.91C43.9197 188.504 43.6559 188.9 43.2603 188.9ZM51.7627 191.405C54.3213 191.405 56.0358 190.192 56.049 188.372H52.4221C52.4221 188.768 52.1584 189.031 51.7627 189.031C51.367 189.031 51.1033 188.583 51.1033 187.91H56.049C56.049 185.8 54.3213 184.402 51.7627 184.415C49.1909 184.415 47.4764 185.813 47.4764 187.91C47.4764 190.007 49.1909 191.405 51.7627 191.405ZM51.1033 187.251C51.1033 186.855 51.367 186.592 51.7627 186.592C52.1584 186.592 52.4221 186.855 52.4221 187.251H51.1033ZM61.8508 184.481C61.3101 184.481 60.8221 184.587 60.4001 184.785V184.613H56.4436V191.208H60.4001V187.581C60.4001 187.185 60.6639 186.921 61.0595 186.921C61.3892 186.921 61.653 187.106 61.719 187.383L64.5545 185.932C64.5545 185.668 63.473 184.481 61.8508 184.481ZM74.044 185.932V183.294H72.7252V180.657H68.7686V183.294H68.1092V185.932H68.7686V188.57C68.7686 190.152 69.8237 191.208 71.4063 191.208H74.044V187.91H73.3846C72.857 187.91 72.7252 187.779 72.7252 187.251V185.932H74.044ZM80.6444 184.481C79.8267 184.481 79.1146 184.64 78.5343 184.93V180.657H74.5777V191.208H78.5343V187.581C78.5343 187.185 78.798 186.921 79.1937 186.921C79.5893 186.921 79.8531 187.185 79.8531 187.581V191.208H83.8096V187.581C83.8096 185.721 82.5436 184.481 80.6444 184.481ZM89.1541 184.613V184.864C88.6793 184.613 88.1254 184.481 87.5055 184.481C85.5141 184.481 84.2084 185.853 84.2084 187.91C84.2084 189.968 85.5272 191.339 87.5055 191.339C88.1254 191.339 88.6793 191.208 89.1541 190.957V191.208H93.1106V184.613H89.1541ZM88.4947 188.9C88.099 188.9 87.8352 188.504 87.8352 187.91C87.8352 187.317 88.099 186.921 88.4947 186.921C88.8771 186.921 89.1409 187.317 89.1541 187.91C89.1541 188.504 88.8903 188.9 88.4947 188.9ZM99.7059 184.481C98.8882 184.481 98.176 184.64 97.5957 184.93V184.613H93.6392V191.208H97.5957V187.581C97.5957 187.185 97.8595 186.921 98.2551 186.921C98.6508 186.921 98.9146 187.185 98.9146 187.581V191.208H102.871V187.581C102.871 185.721 101.605 184.481 99.7059 184.481ZM15.9581 201.932V199.294H14.6392V196.657H10.6827V199.294H10.0232V201.932H10.6827V204.57C10.6827 206.152 11.7377 207.208 13.3204 207.208H15.9581V203.91H15.2986C14.7711 203.91 14.6392 203.779 14.6392 203.251V201.932H15.9581ZM22.5585 200.481C21.7408 200.481 21.0286 200.64 20.4483 200.93V196.657H16.4918V207.208H20.4483V203.581C20.4483 203.185 20.7121 202.921 21.1077 202.921C21.5034 202.921 21.7672 203.185 21.7672 203.581V207.208H25.7237V203.581C25.7237 201.721 24.4576 200.481 22.5585 200.481ZM30.4087 207.405C32.9673 207.405 34.6818 206.192 34.695 204.372H31.0681C31.0681 204.768 30.8044 205.031 30.4087 205.031C30.0131 205.031 29.7493 204.583 29.7493 203.91H34.695C34.695 201.8 32.9673 200.402 30.4087 200.415C27.837 200.415 26.1225 201.813 26.1225 203.91C26.1225 206.007 27.837 207.405 30.4087 207.405ZM29.7493 203.251C29.7493 202.855 30.0131 202.592 30.4087 202.592C30.8044 202.592 31.0681 202.855 31.0681 203.251H29.7493ZM45.7591 201.207C46.3393 201.114 46.8273 200.363 46.8273 199.097C46.8273 197.633 45.9041 196.657 44.5193 196.657H38.3867V207.208H45.1788C46.7614 207.208 47.8165 205.889 47.8165 203.91C47.8165 202.301 46.9328 201.273 45.7591 201.207ZM41.6838 198.899H42.5938C43.0027 198.899 43.2664 199.189 43.2664 199.624C43.2664 200.059 43.0159 200.35 42.5938 200.35H41.6838V198.899ZM42.8708 204.438H41.6838V202.723H42.8708C43.3192 202.723 43.6357 203.066 43.6357 203.581C43.6621 204.095 43.3192 204.438 42.8708 204.438ZM53.0274 200.613V200.864C52.5527 200.613 51.9987 200.481 51.3789 200.481C49.3874 200.481 48.0818 201.853 48.0818 203.91C48.0818 205.968 49.4006 207.339 51.3789 207.339C51.9987 207.339 52.5527 207.208 53.0274 206.957V207.208H56.984V200.613H53.0274ZM52.368 204.9C51.9724 204.9 51.7086 204.504 51.7086 203.91C51.7086 203.317 51.9724 202.921 52.368 202.921C52.7505 202.921 53.0143 203.317 53.0274 203.91C53.0274 204.504 52.7637 204.9 52.368 204.9ZM57.6444 205.097C57.6444 206.443 59.1216 207.339 61.7329 207.339C64.5025 207.339 66.0851 206.39 66.0851 204.965V204.9C66.0851 201.932 61.4032 203.581 61.4032 202.592V202.394C61.4032 202.196 61.535 202.064 61.7329 202.064C61.9307 202.064 62.0626 202.196 62.0626 202.394V202.592H65.8213V202.13C65.8213 201.141 64.3442 200.481 61.7329 200.481C58.9633 200.481 57.3807 201.246 57.3807 202.394V202.592C57.3807 205.097 62.2604 203.91 62.2604 204.965V205.097C62.2604 205.374 62.0494 205.559 61.7329 205.559C61.4163 205.559 61.2053 205.374 61.2053 205.097V204.702H57.6444V205.097ZM66.6085 205.097C66.6085 206.443 68.0856 207.339 70.6969 207.339C73.4665 207.339 75.0491 206.39 75.0491 204.965V204.9C75.0491 201.932 70.3672 203.581 70.3672 202.592V202.394C70.3672 202.196 70.4991 202.064 70.6969 202.064C70.8947 202.064 71.0266 202.196 71.0266 202.394V202.592H74.7853V202.13C74.7853 201.141 73.3082 200.481 70.6969 200.481C67.9273 200.481 66.3447 201.246 66.3447 202.394V202.592C66.3447 205.097 71.2244 203.91 71.2244 204.965V205.097C71.2244 205.374 71.0134 205.559 70.6969 205.559C70.3804 205.559 70.1694 205.374 70.1694 205.097V204.702H66.6085V205.097Z" fill="black"/>
<path d="M21.0685 169.492H16.69C16.4657 170.086 15.8459 170.482 15.1337 170.482C14.1578 170.482 13.4983 169.822 13.4983 168.833C13.4983 167.844 14.1578 167.184 15.1337 167.184C15.8459 167.184 16.4526 167.58 16.6768 168.174H21.0685C21.0685 165.364 18.5627 163.281 15.1337 163.294C11.7047 163.294 9.1989 165.641 9.1989 168.833C9.1989 172.025 11.7047 174.359 15.1337 174.359C18.5627 174.359 21.0685 172.288 21.0685 169.492ZM25.7463 174.306C28.3444 174.306 30.0326 172.895 30.0326 170.811C30.0326 168.701 28.3313 167.303 25.7463 167.316C23.1614 167.316 21.4601 168.728 21.4601 170.811C21.4601 172.895 23.1614 174.306 25.7463 174.306ZM25.7331 171.8C25.3507 171.8 25.0869 171.392 25.0869 170.811C25.0869 170.231 25.3507 169.822 25.7331 169.822C26.1156 169.822 26.4057 170.231 26.3925 170.811C26.3925 171.392 26.1156 171.8 25.7331 171.8ZM36.4939 167.382C35.6762 167.382 34.964 167.541 34.3837 167.831V167.514H30.4272V174.108H34.3837V170.482C34.3837 170.086 34.6475 169.822 35.0432 169.822C35.4388 169.822 35.7026 170.086 35.7026 170.482V174.108H39.6591V170.482C39.6591 168.622 38.393 167.382 36.4939 167.382ZM46.2564 167.382C45.4388 167.382 44.7266 167.541 44.1463 167.831V167.514H40.1897V174.108H44.1463V170.482C44.1463 170.086 44.4101 169.822 44.8057 169.822C45.2014 169.822 45.4651 170.086 45.4651 170.482V174.108H49.4217V170.482C49.4217 168.622 48.1556 167.382 46.2564 167.382ZM53.9779 174.306C56.5364 174.306 58.2509 173.093 58.2641 171.273H54.6373C54.6373 171.669 54.3735 171.932 53.9779 171.932C53.5822 171.932 53.3185 171.484 53.3185 170.811H58.2641C58.2641 168.701 56.5364 167.303 53.9779 167.316C51.4061 167.316 49.6916 168.714 49.6916 170.811C49.6916 172.908 51.4061 174.306 53.9779 174.306ZM53.3185 170.152C53.3185 169.756 53.5822 169.492 53.9779 169.492C54.3735 169.492 54.6373 169.756 54.6373 170.152H53.3185ZM67.0862 171.141H63.433C63.3407 171.537 63.0901 171.8 62.8131 171.8C62.4175 171.8 62.1537 171.405 62.1537 170.811C62.1537 170.218 62.4175 169.822 62.8131 169.822C63.1033 169.822 63.3539 170.086 63.433 170.482H67.0862C67.0862 168.569 65.3717 167.303 62.8131 167.316C60.2414 167.316 58.5269 168.714 58.5269 170.811C58.5269 172.908 60.2414 174.306 62.8131 174.306C65.3717 174.306 67.0862 173.04 67.0862 171.141ZM73.1553 168.833V166.195H71.8364V163.558H67.8799V166.195H67.2205V168.833H67.8799V171.471C67.8799 173.053 68.935 174.108 70.5176 174.108H73.1553V170.811H72.4958C71.9683 170.811 71.8364 170.679 71.8364 170.152V168.833H73.1553ZM75.6673 166.855C76.7751 166.855 77.6455 165.971 77.6455 164.876C77.6455 163.782 76.7751 162.898 75.6673 162.898C74.5594 162.898 73.689 163.782 73.689 164.876C73.689 165.971 74.5594 166.855 75.6673 166.855ZM73.689 167.514V174.108H77.6455V167.514H73.689ZM82.3254 174.306C84.9235 174.306 86.6116 172.895 86.6116 170.811C86.6116 168.701 84.9103 167.303 82.3254 167.316C79.7404 167.316 78.0391 168.728 78.0391 170.811C78.0391 172.895 79.7404 174.306 82.3254 174.306ZM82.3122 171.8C81.9297 171.8 81.6659 171.392 81.6659 170.811C81.6659 170.231 81.9297 169.822 82.3122 169.822C82.6946 169.822 82.9848 170.231 82.9716 170.811C82.9716 171.392 82.6946 171.8 82.3122 171.8ZM93.0729 167.382C92.2553 167.382 91.5431 167.541 90.9628 167.831V167.514H87.0062V174.108H90.9628V170.482C90.9628 170.086 91.2266 169.822 91.6222 169.822C92.0179 169.822 92.2816 170.086 92.2816 170.482V174.108H96.2382V170.482C96.2382 168.622 94.9721 167.382 93.0729 167.382ZM96.7719 171.998C96.7719 173.343 98.249 174.24 100.86 174.24C103.63 174.24 105.213 173.291 105.213 171.866V171.8C105.213 168.833 100.531 170.482 100.531 169.492V169.295C100.531 169.097 100.662 168.965 100.86 168.965C101.058 168.965 101.19 169.097 101.19 169.295V169.492H104.949V169.031C104.949 168.042 103.472 167.382 100.86 167.382C98.0907 167.382 96.5081 168.147 96.5081 169.295V169.492C96.5081 171.998 101.388 170.811 101.388 171.866V171.998C101.388 172.275 101.177 172.46 100.86 172.46C100.544 172.46 100.333 172.275 100.333 171.998V171.603H96.7719V171.998ZM14.6194 179.558H9.33079V190.108H14.6194C17.7846 190.108 19.8816 187.998 19.8816 184.833C19.8816 181.668 17.7846 179.558 14.6194 179.558ZM14.4875 186.482H13.2873V183.184H14.4875C15.3447 183.184 15.925 183.844 15.925 184.833C15.925 185.822 15.3447 186.482 14.4875 186.482ZM24.3038 190.306C26.8624 190.306 28.5769 189.093 28.5901 187.273H24.9632C24.9632 187.669 24.6995 187.932 24.3038 187.932C23.9082 187.932 23.6444 187.484 23.6444 186.811H28.5901C28.5901 184.701 26.8624 183.303 24.3038 183.316C21.7321 183.316 20.0176 184.714 20.0176 186.811C20.0176 188.908 21.7321 190.306 24.3038 190.306ZM23.6444 186.152C23.6444 185.756 23.9082 185.492 24.3038 185.492C24.6995 185.492 24.9632 185.756 24.9632 186.152H23.6444ZM33.1391 190.306C35.6976 190.306 37.4121 189.093 37.4253 187.273H33.7985C33.7985 187.669 33.5347 187.932 33.1391 187.932C32.7434 187.932 32.4796 187.484 32.4796 186.811H37.4253C37.4253 184.701 35.6976 183.303 33.1391 183.316C30.5673 183.316 28.8528 184.714 28.8528 186.811C28.8528 188.908 30.5673 190.306 33.1391 190.306ZM32.4796 186.152C32.4796 185.756 32.7434 185.492 33.1391 185.492C33.5347 185.492 33.7985 185.756 33.7985 186.152H32.4796ZM43.2668 183.382C42.7129 183.382 42.2117 183.501 41.7765 183.725V183.514H37.8199V192.746H41.7765V189.897C42.2117 190.122 42.7129 190.24 43.2668 190.24C45.1395 190.24 46.3925 188.869 46.3925 186.811C46.3925 184.754 45.1395 183.382 43.2668 183.382ZM42.4359 187.8C42.0403 187.8 41.7765 187.405 41.7765 186.811C41.7765 186.218 42.0403 185.822 42.4359 185.822C42.8316 185.822 43.0953 186.218 43.0953 186.811C43.0953 187.405 42.8316 187.8 42.4359 187.8ZM50.9384 190.306C53.4969 190.306 55.2114 189.093 55.2246 187.273H51.5978C51.5978 187.669 51.334 187.932 50.9384 187.932C50.5427 187.932 50.2789 187.484 50.2789 186.811H55.2246C55.2246 184.701 53.4969 183.303 50.9384 183.316C48.3666 183.316 46.6521 184.714 46.6521 186.811C46.6521 188.908 48.3666 190.306 50.9384 190.306ZM50.2789 186.152C50.2789 185.756 50.5427 185.492 50.9384 185.492C51.334 185.492 51.5978 185.756 51.5978 186.152H50.2789ZM61.0265 183.382C60.4858 183.382 59.9978 183.488 59.5758 183.686V183.514H55.6192V190.108H59.5758V186.482C59.5758 186.086 59.8395 185.822 60.2352 185.822C60.5649 185.822 60.8287 186.007 60.8946 186.284L63.7301 184.833C63.7301 184.569 62.6487 183.382 61.0265 183.382ZM73.2197 184.833V182.195H71.9008V179.558H67.9443V182.195H67.2848V184.833H67.9443V187.471C67.9443 189.053 68.9993 190.108 70.582 190.108H73.2197V186.811H72.5602C72.0327 186.811 71.9008 186.679 71.9008 186.152V184.833H73.2197ZM79.8201 183.382C79.0024 183.382 78.2902 183.541 77.7099 183.831V179.558H73.7534V190.108H77.7099V186.482C77.7099 186.086 77.9737 185.822 78.3693 185.822C78.765 185.822 79.0288 186.086 79.0288 186.482V190.108H82.9853V186.482C82.9853 184.622 81.7192 183.382 79.8201 183.382ZM88.3297 183.514V183.765C87.855 183.514 87.301 183.382 86.6812 183.382C84.6897 183.382 83.3841 184.754 83.3841 186.811C83.3841 188.869 84.7029 190.24 86.6812 190.24C87.301 190.24 87.855 190.108 88.3297 189.858V190.108H92.2863V183.514H88.3297ZM87.6703 187.8C87.2747 187.8 87.0109 187.405 87.0109 186.811C87.0109 186.218 87.2747 185.822 87.6703 185.822C88.0528 185.822 88.3165 186.218 88.3297 186.811C88.3297 187.405 88.066 187.8 87.6703 187.8ZM98.8815 183.382C98.0639 183.382 97.3517 183.541 96.7714 183.831V183.514H92.8148V190.108H96.7714V186.482C96.7714 186.086 97.0352 185.822 97.4308 185.822C97.8265 185.822 98.0902 186.086 98.0902 186.482V190.108H102.047V186.482C102.047 184.622 100.781 183.382 98.8815 183.382ZM15.1337 200.833V198.195H13.8149V195.558H9.85832V198.195H9.1989V200.833H9.85832V203.471C9.85832 205.053 10.9134 206.108 12.496 206.108H15.1337V202.811H14.4743C13.9468 202.811 13.8149 202.679 13.8149 202.152V200.833H15.1337ZM21.7341 199.382C20.9164 199.382 20.2043 199.541 19.624 199.831V195.558H15.6674V206.108H19.624V202.482C19.624 202.086 19.8877 201.822 20.2834 201.822C20.6791 201.822 20.9428 202.086 20.9428 202.482V206.108H24.8994V202.482C24.8994 200.622 23.6333 199.382 21.7341 199.382ZM29.5844 206.306C32.1429 206.306 33.8574 205.093 33.8706 203.273H30.2438C30.2438 203.669 29.98 203.932 29.5844 203.932C29.1887 203.932 28.9249 203.484 28.9249 202.811H33.8706C33.8706 200.701 32.1429 199.303 29.5844 199.316C27.0126 199.316 25.2981 200.714 25.2981 202.811C25.2981 204.908 27.0126 206.306 29.5844 206.306ZM28.9249 202.152C28.9249 201.756 29.1887 201.492 29.5844 201.492C29.98 201.492 30.2438 201.756 30.2438 202.152H28.9249ZM44.9347 200.108C45.515 200.015 46.003 199.264 46.003 197.997C46.003 196.534 45.0798 195.558 43.695 195.558H37.5624V206.108H44.3544C45.937 206.108 46.9921 204.79 46.9921 202.811C46.9921 201.202 46.1085 200.174 44.9347 200.108ZM40.8595 197.8H41.7695C42.1783 197.8 42.4421 198.09 42.4421 198.525C42.4421 198.96 42.1915 199.25 41.7695 199.25H40.8595V197.8ZM42.0464 203.339H40.8595V201.624H42.0464C42.4948 201.624 42.8114 201.967 42.8114 202.482C42.8377 202.996 42.4948 203.339 42.0464 203.339ZM52.2031 199.514V199.765C51.7283 199.514 51.1744 199.382 50.5545 199.382C48.5631 199.382 47.2574 200.754 47.2574 202.811C47.2574 204.869 48.5763 206.24 50.5545 206.24C51.1744 206.24 51.7283 206.108 52.2031 205.858V206.108H56.1596V199.514H52.2031ZM51.5437 203.8C51.148 203.8 50.8843 203.405 50.8843 202.811C50.8843 202.218 51.148 201.822 51.5437 201.822C51.9261 201.822 52.1899 202.218 52.2031 202.811C52.2031 203.405 51.9393 203.8 51.5437 203.8ZM56.8201 203.998C56.8201 205.343 58.2972 206.24 60.9085 206.24C63.6781 206.24 65.2607 205.291 65.2607 203.866V203.8C65.2607 200.833 60.5788 202.482 60.5788 201.492V201.295C60.5788 201.097 60.7107 200.965 60.9085 200.965C61.1064 200.965 61.2382 201.097 61.2382 201.295V201.492H64.997V201.031C64.997 200.042 63.5198 199.382 60.9085 199.382C58.139 199.382 56.5563 200.147 56.5563 201.295V201.492C56.5563 203.998 61.4361 202.811 61.4361 203.866V203.998C61.4361 204.275 61.2251 204.46 60.9085 204.46C60.592 204.46 60.381 204.275 60.381 203.998V203.603H56.8201V203.998ZM65.7841 203.998C65.7841 205.343 67.2613 206.24 69.8726 206.24C72.6421 206.24 74.2248 205.291 74.2248 203.866V203.8C74.2248 200.833 69.5429 202.482 69.5429 201.492V201.295C69.5429 201.097 69.6747 200.965 69.8726 200.965C70.0704 200.965 70.2023 201.097 70.2023 201.295V201.492H73.961V201.031C73.961 200.042 72.4839 199.382 69.8726 199.382C67.103 199.382 65.5204 200.147 65.5204 201.295V201.492C65.5204 203.998 70.4001 202.811 70.4001 203.866V203.998C70.4001 204.275 70.1891 204.46 69.8726 204.46C69.556 204.46 69.345 204.275 69.345 203.998V203.603H65.7841V203.998Z" fill="#F98548"/>
<defs>
<clipPath id="clip0">
<rect width="89.5717" height="141.003" fill="white" transform="translate(23.9039 16.3098)"/>
</clipPath>
</defs>
</svg>
