<svg width="139" height="200" viewBox="0 0 139 200" fill="none" xmlns="http://www.w3.org/2000/svg">
<rect x="1.6156" y="2.07739" width="134.911" height="197.923" rx="4.93364" fill="#E55B42"/>
<ellipse cx="65.8649" cy="174.957" rx="35.5345" ry="7.66013" fill="black"/>
<path d="M62.0388 107.281C57.191 106.917 53.1835 104.281 50.4498 99.6539C49.1862 97.5069 48.2801 95.1687 47.767 92.7308C47.7591 92.6864 47.7603 92.6409 47.7704 92.597C47.7805 92.5531 47.7994 92.5117 47.8259 92.4752C47.8527 92.4392 47.8863 92.4088 47.9249 92.3858C47.9635 92.3629 48.0063 92.3478 48.0507 92.3414L51.5966 91.853C51.6122 91.8517 51.6278 91.8517 51.6434 91.853C51.7176 91.8533 51.7896 91.8782 51.8482 91.9237C51.9067 91.9692 51.9486 92.0328 51.9672 92.1046C54.3061 101.185 61.2079 101.447 61.9866 101.447H62.0642C62.1528 101.447 62.2377 101.483 62.3004 101.545C62.363 101.608 62.3984 101.693 62.3987 101.781V106.948C62.3984 107.036 62.363 107.121 62.3004 107.184C62.2377 107.247 62.1528 107.282 62.0642 107.282L62.0388 107.281Z" fill="#F8BC00"/>
<path d="M51.6434 92.1832C54.0439 101.507 61.1664 101.782 61.988 101.782H62.0642V106.947C50.4846 106.079 48.0962 92.6729 48.0962 92.6729L51.6434 92.1832ZM51.6434 91.5142C51.6125 91.5144 51.5817 91.5166 51.5511 91.5208L48.0052 92.0146C47.916 92.0269 47.8301 92.0571 47.7529 92.1033C47.6756 92.1496 47.6084 92.211 47.5555 92.2839C47.5025 92.3567 47.4647 92.4395 47.4445 92.5273C47.4243 92.6151 47.4221 92.706 47.4379 92.7947C47.9582 95.2717 48.8783 97.6475 50.1622 99.8289C51.3985 101.916 52.8865 103.614 54.5978 104.887C56.7559 106.491 59.3314 107.438 62.0147 107.614H62.0642C62.2417 107.614 62.4118 107.543 62.5373 107.418C62.6628 107.292 62.7333 107.122 62.7333 106.945V101.782C62.7333 101.605 62.6628 101.435 62.5373 101.309C62.4118 101.184 62.2417 101.113 62.0642 101.113H61.988C61.2346 101.113 54.5671 100.859 52.291 92.0226C52.2542 91.8788 52.1706 91.7513 52.0533 91.6602C51.9361 91.5691 51.7919 91.5196 51.6434 91.5195V91.5142Z" fill="#291637"/>
<path d="M71.476 70.0318C71.476 70.0318 79.5779 68.5908 83.1961 78.5004C83.6296 73.8025 78.2747 63.8152 71.476 70.0318Z" fill="#F8BC00" stroke="#291637" stroke-width="0.631982" stroke-miterlimit="10"/>
<path d="M49.3272 92.3281C49.3272 92.3281 52.2214 104.198 61.9197 104.921L62.0642 106.948C58.3016 106.948 49.6095 104.435 48.0962 92.6733L49.3272 92.3281Z" fill="#FF7138"/>
<path d="M72.2441 157.066C72.2441 157.066 70.906 161.915 73.6169 167.613C73.6169 167.613 64.0177 170.85 67.7816 175.626C71.7142 180.619 79.3599 173.639 79.2154 171.14C79.0709 168.64 74.0839 164.969 74.9858 158.284C75.8876 151.599 72.2441 157.066 72.2441 157.066Z" fill="#291637" stroke="#291637" stroke-width="0.631982" stroke-miterlimit="10"/>
<path d="M56.2235 155.739C56.2235 155.739 53.6237 160.043 54.6767 166.261C54.6767 166.261 44.5596 166.767 46.8839 172.387C49.3111 178.261 58.5665 173.623 59.1071 171.183C59.6476 168.742 55.8462 163.849 58.5303 157.668C61.2145 151.488 56.2235 155.739 56.2235 155.739Z" fill="#291637" stroke="#291637" stroke-width="0.631982" stroke-miterlimit="10"/>
<path d="M98.8275 54.1167C98.8275 54.1167 95.2147 58.4587 80.8078 47.8933C64.5958 35.998 63.1454 65.9853 63.1454 65.9853L63.0008 127.789C63.0008 127.789 61.6253 126.343 61.4808 118.816C61.3363 111.289 46.3607 109.264 40.2765 126.632C36.178 138.341 40.2765 145.014 48.0922 143.711C48.0922 143.711 58.0072 167.303 68.7184 162.382C79.4296 157.461 80.9483 155.725 81.3831 141.107C81.818 126.488 79.9354 68.45 79.9354 68.45C79.9354 68.45 78.9987 52.8188 84.351 56.1479C89.7032 59.477 97.5229 60.9234 101.069 58.3182C103.731 56.3606 104.184 51.8018 98.8275 54.1167Z" fill="#F8BC00" stroke="#291637" stroke-width="0.631982" stroke-miterlimit="10"/>
<path d="M83.6297 55.5645C83.6297 55.5645 75.6695 50.7876 75.5291 69.0977C75.4648 77.3629 75.8515 101.95 76.2489 111.723C77.6954 147.33 74.8011 159.199 74.8011 159.199C74.8011 159.199 83.0516 158.33 81.3938 127.167C80.702 114.227 80.3795 94.7711 80.1561 79.5908C79.9674 66.6704 78.2748 56.5774 83.6297 55.5645Z" fill="#291637" stroke="#291637" stroke-width="0.631982" stroke-miterlimit="10"/>
<path d="M46.6926 121.134C43.6819 124.895 39.0509 136.908 44.6226 139.297C50.1943 141.685 60.9791 124.823 57.8694 118.583C57.2459 117.332 54.3677 122.901 50.9115 123.174C47.4553 123.447 49.7019 117.373 46.6926 121.134Z" fill="#291637" stroke="#291637" stroke-width="0.631982" stroke-miterlimit="10"/>
<path d="M48.0962 143.422C48.0962 143.422 53.597 141.757 55.6228 136.98C55.6228 136.98 61.8568 164.475 71.1885 160.932C71.1885 160.932 65.9567 164.812 60.6459 161.248C55.3351 157.683 48.8201 145.955 48.0962 143.422Z" fill="#FF7138"/>
<path d="M98.8275 54.117C98.8275 54.117 94.4841 58.17 80.8078 47.8936C64.7323 35.8149 63.1454 65.9856 63.1454 65.9856L63.0009 127.789C63.0009 127.789 61.6253 126.343 61.4808 118.816C61.3363 111.29 46.3607 109.264 40.2765 126.632C36.178 138.341 40.2765 145.014 48.0922 143.711C48.0922 143.711 58.0072 167.304 68.7184 162.382C79.4296 157.461 80.9483 155.725 81.3832 141.107C81.818 126.489 79.9354 68.4503 79.9354 68.4503C79.9354 68.4503 79.067 53.3971 84.4219 56.7262C89.7768 60.0553 98.4622 60.339 101.067 58.3185C103.673 56.298 104.184 51.8021 98.8275 54.117Z" stroke="#291637" stroke-width="0.631982" stroke-miterlimit="10"/>
<path d="M67.747 85.3811H67.5985C67.0997 85.3811 66.6953 85.7855 66.6953 86.2843V133.256C66.6953 133.754 67.0997 134.159 67.5985 134.159H67.747C68.2458 134.159 68.6502 133.754 68.6502 133.256V86.2843C68.6502 85.7855 68.2458 85.3811 67.747 85.3811Z" fill="#FF7138" stroke="#291637" stroke-width="0.631982" stroke-linecap="round" stroke-linejoin="round"/>
<path d="M67.4581 85.3811H67.3096C66.8107 85.3811 66.4064 85.7855 66.4064 86.2843V133.256C66.4064 133.754 66.8107 134.159 67.3096 134.159H67.4581C67.9569 134.159 68.3613 133.754 68.3613 133.256V86.2843C68.3613 85.7855 67.9569 85.3811 67.4581 85.3811Z" fill="#FF7138" stroke="#291637" stroke-width="0.631982" stroke-linecap="round" stroke-linejoin="round"/>
<path d="M63.5496 84.5125H63.4011C62.9023 84.5125 62.4979 84.9168 62.4979 85.4156V132.387C62.4979 132.886 62.9023 133.29 63.4011 133.29H63.5496C64.0485 133.29 64.4528 132.886 64.4528 132.387V85.4156C64.4528 84.9168 64.0485 84.5125 63.5496 84.5125Z" fill="#F8BC00" stroke="#291637" stroke-width="0.631982" stroke-linecap="round" stroke-linejoin="round"/>
<path d="M78.2061 85.3846L78.0576 85.3888C77.559 85.4029 77.1662 85.8185 77.1803 86.3171L78.5082 133.27C78.5223 133.768 78.938 134.161 79.4366 134.147L79.5851 134.143C80.0837 134.129 80.4764 133.713 80.4623 133.214L79.1344 86.2619C79.1203 85.7633 78.7047 85.3705 78.2061 85.3846Z" fill="#FF7138" stroke="#291637" stroke-width="0.631982" stroke-linecap="round" stroke-linejoin="round"/>
<path d="M61.4849 118.816C61.4849 118.816 61.7753 125.474 59.3146 131.698L63.2217 138.935C65.6824 134.738 64.6013 133.709 63.005 127.789C63.005 127.789 61.6294 124.171 61.4849 118.816Z" fill="#291637" stroke="#291637" stroke-width="0.631982" stroke-miterlimit="10"/>
<path d="M62.0643 69.2224C62.0643 69.2224 61.0554 58.455 65.9728 53.5389C70.6038 48.9066 72.1961 45.718 74.3678 45.1439C75.4529 44.8536 77.9806 44.1297 80.3021 46.1568C80.4533 46.2906 82.1312 48.2977 81.604 48.473C80.8708 48.7219 78.2589 46.387 76.8807 46.1421C74.5123 45.722 72.0302 49.6211 72.3406 52.815C72.92 58.7494 75.9534 64.9727 77.4962 68.3673C77.4962 68.3673 74.1162 68.4396 74.0828 68.3673C71.4695 62.8023 71.4347 55.6959 69.3019 54.6964C67.1315 53.6808 63.6017 65.4704 64.5156 68.3834C64.5116 68.3834 62.7882 68.5493 62.0643 69.2224Z" fill="#FF7138" stroke="#291637" stroke-width="0.631982" stroke-miterlimit="10"/>
<path d="M64.814 89.145C68.9708 89.145 72.3406 84.5764 72.3406 78.9409C72.3406 73.3053 68.9708 68.7368 64.814 68.7368C60.6571 68.7368 57.2874 73.3053 57.2874 78.9409C57.2874 84.5764 60.6571 89.145 64.814 89.145Z" fill="#FFF2CD" stroke="#291637" stroke-width="0.631982" stroke-miterlimit="10"/>
<path d="M62.5045 78.7492L66.433 77.2452C65.9647 74.4861 64.3844 72.4482 62.5045 72.4482C60.2552 72.4482 58.4327 75.3599 58.4327 78.9512C58.4327 82.5426 60.2565 85.4582 62.5045 85.4582C64.3617 85.4582 65.9272 83.4712 66.417 80.7549L62.5045 78.7492Z" fill="#291637"/>
<path d="M60.765 70.6182C60.765 70.6182 68.6797 68.9082 72.2978 78.8219C72.7286 74.1186 67.5597 64.4016 60.765 70.6182Z" fill="#291637" stroke="#291637" stroke-width="0.631982" stroke-miterlimit="10"/>
<path d="M75.6697 88.7097C79.8265 88.7097 83.1963 84.1411 83.1963 78.5056C83.1963 72.87 79.8265 68.3015 75.6697 68.3015C71.5128 68.3015 68.1431 72.87 68.1431 78.5056C68.1431 84.1411 71.5128 88.7097 75.6697 88.7097Z" fill="#FFF2CD" stroke="#291637" stroke-width="0.631982" stroke-miterlimit="10"/>
<path d="M73.8124 78.6707L77.9136 77.1159C77.4239 74.2604 75.7727 72.165 73.8124 72.165C71.4668 72.165 69.5641 75.173 69.5641 78.8848C69.5641 82.5966 71.4668 85.6045 73.8124 85.6045C75.7513 85.6045 77.3864 83.5506 77.8962 80.7434L73.8124 78.6707Z" fill="#291637"/>
<path d="M71.476 70.0318C71.476 70.0318 79.5779 68.5908 83.1961 78.5004C83.6296 73.8025 78.2747 63.8152 71.476 70.0318Z" fill="#291637" stroke="#291637" stroke-width="0.631982" stroke-miterlimit="10"/>
<path d="M49.0836 121.743C49.0836 121.743 52.6536 136.258 54.6098 132.639C56.5661 129.019 59.8965 124.229 58.3738 119.033C56.8511 113.837 52.584 126.415 49.0836 121.743Z" fill="#FF7138"/>
<path d="M75.2 100.29C76.5789 100.29 77.6968 98.7343 77.6968 96.8159C77.6968 94.8975 76.5789 93.3423 75.2 93.3423C73.821 93.3423 72.7031 94.8975 72.7031 96.8159C72.7031 98.7343 73.821 100.29 75.2 100.29Z" fill="#F8BC00" stroke="#291637" stroke-width="0.631982" stroke-miterlimit="10"/>
<path d="M75.2 109.697C76.5789 109.697 77.6968 108.142 77.6968 106.224C77.6968 104.305 76.5789 102.75 75.2 102.75C73.821 102.75 72.7031 104.305 72.7031 106.224C72.7031 108.142 73.821 109.697 75.2 109.697Z" fill="#F8BC00" stroke="#291637" stroke-width="0.631982" stroke-miterlimit="10"/>
<path d="M74.5603 120.551C76.226 120.551 77.5763 118.672 77.5763 116.355C77.5763 114.037 76.226 112.158 74.5603 112.158C72.8946 112.158 71.5443 114.037 71.5443 116.355C71.5443 118.672 72.8946 120.551 74.5603 120.551Z" fill="#F8BC00" stroke="#291637" stroke-width="0.631982" stroke-miterlimit="10"/>
<path d="M75.778 100.29C77.1569 100.29 78.2748 98.7343 78.2748 96.8159C78.2748 94.8975 77.1569 93.3423 75.778 93.3423C74.399 93.3423 73.2811 94.8975 73.2811 96.8159C73.2811 98.7343 74.399 100.29 75.778 100.29Z" fill="#F8BC00" stroke="#291637" stroke-width="0.631982" stroke-miterlimit="10"/>
<path d="M78.5277 104.776C79.3317 104.776 79.9835 103.869 79.9835 102.75C79.9835 101.631 79.3317 100.724 78.5277 100.724C77.7237 100.724 77.0719 101.631 77.0719 102.75C77.0719 103.869 77.7237 104.776 78.5277 104.776Z" fill="#FFF2CD" stroke="#291637" stroke-width="0.631982" stroke-miterlimit="10"/>
<path d="M77.6459 125.405C79.0973 125.405 80.2739 123.768 80.2739 121.748C80.2739 119.728 79.0973 118.091 77.6459 118.091C76.1945 118.091 75.0179 119.728 75.0179 121.748C75.0179 123.768 76.1945 125.405 77.6459 125.405Z" fill="#FFF2CD" stroke="#291637" stroke-width="0.631982" stroke-miterlimit="10"/>
<path d="M77.0678 125.405C78.5192 125.405 79.6957 123.768 79.6957 121.748C79.6957 119.728 78.5192 118.091 77.0678 118.091C75.6164 118.091 74.4398 119.728 74.4398 121.748C74.4398 123.768 75.6164 125.405 77.0678 125.405Z" fill="#FFF2CD" stroke="#291637" stroke-width="0.631982" stroke-miterlimit="10"/>
<path d="M77.5015 125.405C78.9529 125.405 80.1294 123.768 80.1294 121.748C80.1294 119.728 78.9529 118.091 77.5015 118.091C76.0501 118.091 74.8735 119.728 74.8735 121.748C74.8735 123.768 76.0501 125.405 77.5015 125.405Z" fill="#FFF2CD" stroke="#291637" stroke-width="0.631982" stroke-miterlimit="10"/>
<path d="M72.9331 103.473C73.8451 103.473 74.5843 102.566 74.5843 101.447C74.5843 100.328 73.8451 99.4211 72.9331 99.4211C72.0212 99.4211 71.282 100.328 71.282 101.447C71.282 102.566 72.0212 103.473 72.9331 103.473Z" fill="#FFF2CD" stroke="#291637" stroke-width="0.631982" stroke-miterlimit="10"/>
<path d="M73.0776 103.473C73.9895 103.473 74.7287 102.566 74.7287 101.447C74.7287 100.328 73.9895 99.4211 73.0776 99.4211C72.1656 99.4211 71.4264 100.328 71.4264 101.447C71.4264 102.566 72.1656 103.473 73.0776 103.473Z" fill="#FFF2CD" stroke="#291637" stroke-width="0.631982" stroke-miterlimit="10"/>
<path d="M75.778 109.697C77.1569 109.697 78.2748 108.142 78.2748 106.224C78.2748 104.305 77.1569 102.75 75.778 102.75C74.399 102.75 73.2811 104.305 73.2811 106.224C73.2811 108.142 74.399 109.697 75.778 109.697Z" fill="#F8BC00" stroke="#291637" stroke-width="0.631982" stroke-miterlimit="10"/>
<path d="M75.259 120.551C76.9247 120.551 78.275 118.672 78.275 116.355C78.275 114.037 76.9247 112.158 75.259 112.158C73.5933 112.158 72.243 114.037 72.243 116.355C72.243 118.672 73.5933 120.551 75.259 120.551Z" fill="#F8BC00" stroke="#291637" stroke-width="0.631982" stroke-miterlimit="10"/>
<path d="M73.6171 132.92C75.6405 132.92 77.2807 130.637 77.2807 127.822C77.2807 125.006 75.6405 122.724 73.6171 122.724C71.5937 122.724 69.9535 125.006 69.9535 127.822C69.9535 130.637 71.5937 132.92 73.6171 132.92Z" fill="#291637" stroke="#291637" stroke-width="0.631982" stroke-miterlimit="10"/>
<path d="M74.4666 132.92C76.49 132.92 78.1302 130.637 78.1302 127.822C78.1302 125.006 76.49 122.724 74.4666 122.724C72.4432 122.724 70.803 125.006 70.803 127.822C70.803 130.637 72.4432 132.92 74.4666 132.92Z" fill="#F8BC00" stroke="#291637" stroke-width="0.631982" stroke-miterlimit="10"/>
<path d="M72.7873 148.415C75.3449 148.415 77.4183 145.531 77.4183 141.973C77.4183 138.414 75.3449 135.53 72.7873 135.53C70.2296 135.53 68.1562 138.414 68.1562 141.973C68.1562 145.531 70.2296 148.415 72.7873 148.415Z" fill="#291637" stroke="#291637" stroke-width="0.631982" stroke-miterlimit="10"/>
<path d="M73.8605 148.415C76.4182 148.415 78.4916 145.531 78.4916 141.973C78.4916 138.414 76.4182 135.53 73.8605 135.53C71.3029 135.53 69.2295 138.414 69.2295 141.973C69.2295 145.531 71.3029 148.415 73.8605 148.415Z" fill="#F8BC00" stroke="#291637" stroke-width="0.631982" stroke-miterlimit="10"/>
<path d="M78.2748 95.6009C78.2748 95.6009 80.8801 95.3681 81.1704 94.2107C81.1704 94.2107 82.0388 95.6571 81.0246 96.381C80.0103 97.1049 76.8217 97.3939 76.3935 97.3939C75.9653 97.3939 75.0648 96.8159 75.0648 96.8159C75.0648 96.8159 76.055 95.803 76.6585 95.803C77.2015 95.7759 77.7418 95.7084 78.2748 95.6009Z" fill="#F8BC00" stroke="#291637" stroke-width="0.631982" stroke-linecap="round" stroke-linejoin="round"/>
<path d="M78.4192 105.155C78.4192 105.155 81.0244 104.921 81.3148 103.763C81.3148 103.763 82.1832 105.211 81.1703 105.935C80.1574 106.659 76.9728 106.948 76.5379 106.948C76.1031 106.948 75.2092 106.369 75.2092 106.369C75.2092 106.369 76.1994 105.356 76.8029 105.356C77.3459 105.329 77.8861 105.262 78.4192 105.155Z" fill="#F8BC00" stroke="#291637" stroke-width="0.631982" stroke-linecap="round" stroke-linejoin="round"/>
<path d="M65.2795 112.246C65.2795 112.246 62.6743 112.013 62.3839 110.855C62.3839 110.855 61.5155 112.303 62.5284 113.026C63.5414 113.75 66.7259 114.039 67.1608 114.039C67.5957 114.039 68.4895 113.46 68.4895 113.46C68.4895 113.46 67.4993 112.447 66.8959 112.447C66.3529 112.42 65.8126 112.353 65.2795 112.246Z" fill="#F8BC00" stroke="#291637" stroke-width="0.631982" stroke-linecap="round" stroke-linejoin="round"/>
<path d="M65.2795 98.2059C65.2795 98.2059 62.6743 97.9731 62.3839 96.8157C62.3839 96.8157 61.5155 98.2635 62.5284 98.986C63.5414 99.7086 66.7259 100 67.1608 100C67.5957 100 68.4895 99.4209 68.4895 99.4209C68.4895 99.4209 67.4993 98.408 66.8959 98.408C66.3528 98.3809 65.8125 98.3134 65.2795 98.2059Z" fill="#F8BC00" stroke="#291637" stroke-width="0.631982" stroke-linecap="round" stroke-linejoin="round"/>
<path d="M78.8543 115.287C78.8543 115.287 81.4595 115.052 81.7485 113.895C81.7485 113.895 82.6169 115.343 81.604 116.067C80.5911 116.791 77.4065 117.08 76.973 117.08C76.5394 117.08 75.6443 116.502 75.6443 116.502C75.6443 116.502 76.6331 115.489 77.2379 115.489C77.781 115.461 78.3212 115.394 78.8543 115.287Z" fill="#F8BC00" stroke="#291637" stroke-width="0.631982" stroke-linecap="round" stroke-linejoin="round"/>
<path d="M80.4464 123.303C80.4464 123.303 81.7483 122.869 81.7483 122.001C81.7483 121.132 82.5124 122.723 82.5124 122.723C82.5124 122.723 82.697 128.691 82.5124 129.181C82.3277 129.671 81.2947 129.704 80.8706 129.181C80.4464 128.658 80.4464 123.303 80.4464 123.303Z" fill="#F8BC00" stroke="#291637" stroke-width="0.631982" stroke-miterlimit="10"/>
<path d="M80.4464 107.092C80.4464 107.092 81.7483 106.658 81.7483 105.789C81.7483 104.921 82.5124 106.513 82.5124 106.513C82.5124 106.513 82.697 112.481 82.5124 112.971C82.3277 113.46 81.2947 113.494 80.8706 112.971C80.4464 112.447 80.4464 107.092 80.4464 107.092Z" fill="#F8BC00" stroke="#291637" stroke-width="0.631982" stroke-miterlimit="10"/>
<path d="M80.5908 130.953C80.5908 130.953 81.8928 130.697 81.8928 130.187C81.8928 129.677 82.6568 130.613 82.6568 130.613C82.6568 130.613 82.8414 134.118 82.6568 134.406C82.4721 134.694 81.4392 134.713 81.015 134.406C80.5908 134.1 80.5908 130.953 80.5908 130.953Z" fill="#F8BC00" stroke="#291637" stroke-width="0.631982" stroke-miterlimit="10"/>
<path d="M51.064 77.854C49.6443 81.1872 47.3054 86.4176 46.714 88.7419C45.7987 88.7218 44.8019 88.3404 43.9723 87.1629C44.7812 88.4007 45.5248 89.6798 46.2002 90.9952C46.2002 91.0045 46.6016 92.0094 47.5382 92.2315C48.113 92.4296 48.7318 92.463 49.3245 92.3279C53.6666 92.0388 52.8035 91.1704 52.6536 90.1575C52.5038 89.1446 53.233 82.6309 55.2589 78.4334C57.2847 74.2359 52.9132 73.512 51.064 77.854Z" fill="white" stroke="#291637" stroke-width="0.631982" stroke-miterlimit="10"/>
<path d="M46.7942 88.8546C48.5929 88.8546 50.051 87.9476 50.051 86.8288C50.051 85.71 48.5929 84.803 46.7942 84.803C44.9955 84.803 43.5374 85.71 43.5374 86.8288C43.5374 87.9476 44.9955 88.8546 46.7942 88.8546Z" fill="white" stroke="#291637" stroke-width="0.631982" stroke-miterlimit="10"/>
<path d="M47.2278 85.5251C49.0265 85.5251 50.4846 84.7799 50.4846 83.8606C50.4846 82.9413 49.0265 82.196 47.2278 82.196C45.4291 82.196 43.9709 82.9413 43.9709 83.8606C43.9709 84.7799 45.4291 85.5251 47.2278 85.5251Z" fill="white" stroke="#291637" stroke-width="0.631982" stroke-miterlimit="10"/>
<path d="M48.0962 82.6308C49.8949 82.6308 51.353 81.8532 51.353 80.894C51.353 79.9348 49.8949 79.1572 48.0962 79.1572C46.2975 79.1572 44.8394 79.9348 44.8394 80.894C44.8394 81.8532 46.2975 82.6308 48.0962 82.6308Z" fill="white" stroke="#291637" stroke-width="0.631982" stroke-miterlimit="10"/>
<path d="M46.2001 90.9952C46.2001 90.9952 48.4587 91.6054 52.7031 90.4038C52.7031 90.4038 53.3801 91.315 52.8007 91.7499C51.6821 92.5889 46.8704 92.9675 46.0863 92.4109C45.5632 92.0389 45.709 91.315 46.2001 90.9952Z" fill="white" stroke="#291637" stroke-width="0.631982" stroke-miterlimit="10"/>
<path d="M97.8147 54.5492C97.8147 54.5492 100.975 55.8177 98.8851 59.2324C98.8851 59.2324 103.269 58.0629 104.592 55.5086C105.915 52.9542 103.311 51.6509 102.299 51.9413C101.286 52.2317 99.118 53.1041 97.8147 54.5492Z" fill="#291637" stroke="#291637" stroke-width="0.631982" stroke-miterlimit="10"/>
<path d="M102.541 52.9285L104.617 51.8018L108.526 51.5115L103.71 55.5605L102.541 52.9285Z" fill="#291637" stroke="#291637" stroke-width="0.631982" stroke-linecap="round" stroke-linejoin="round"/>
<path d="M10.3679 181.349C10.2351 180.514 9.15368 179.812 7.33239 179.812C5.22653 179.812 3.82262 181.14 3.82262 183.132L3.82262 191.954H19V182.184C19 179.907 17.1028 178.389 14.2571 178.389C11.9425 178.389 10.4627 179.66 10.3679 181.349ZM7.04782 187.211V185.902C7.04782 185.314 7.46519 184.935 8.09126 184.935C8.71733 184.935 9.1347 185.295 9.1347 185.902V187.211H7.04782ZM15.0159 185.504V187.211H12.5496V185.504C12.5496 184.859 13.0429 184.403 13.7828 184.403C14.5227 184.365 15.0159 184.859 15.0159 185.504ZM3.82262 177.818H19V172.126H3.82262L3.82262 177.818ZM19.2846 165.209C19.2846 161.472 17.2546 159.043 14.2571 159.043C11.2216 159.043 9.21059 161.491 9.22956 165.209C9.22956 168.928 11.2595 171.375 14.2571 171.375C17.2546 171.375 19.2846 168.928 19.2846 165.209ZM15.6799 165.228C15.6799 165.778 15.0918 166.158 14.2571 166.158C13.4223 166.158 12.8342 165.778 12.8342 165.228C12.8342 164.678 13.4223 164.261 14.2571 164.28C15.0918 164.28 15.6799 164.678 15.6799 165.228ZM9.51414 148.322L14.6175 149.328L12.3599 150.124V152.97L14.6175 153.767L9.51414 154.772V159.61L19 156.859V152.591L17.1028 151.642L19 150.694V146.235L9.51414 143.484V148.322ZM19 128.286V123.182L3.82262 126.977L3.82262 134.565L19 138.36V133.256L17.1028 132.801V128.741L19 128.286ZM13.3085 131.909L8.56555 130.771L13.3085 129.633V131.909ZM9.51414 112.843L14.6175 113.848L12.3599 114.645V117.491L14.6175 118.288L9.51414 119.293L9.51414 124.131L19 121.38V117.111L17.1028 116.163L19 115.214V110.756L9.51414 108.005V112.843ZM9.51414 101.083H9.8746C9.51414 101.766 9.32442 102.563 9.32442 103.455C9.32442 106.319 11.2975 108.198 14.2571 108.198C17.2167 108.198 19.1897 106.3 19.1897 103.455C19.1897 102.563 19 101.766 18.6395 101.083H19V95.3917H9.51414V101.083ZM15.6799 102.032C15.6799 102.601 15.1108 102.98 14.2571 102.98C13.4033 102.98 12.8342 102.601 12.8342 102.032C12.8342 101.482 13.4033 101.102 14.2571 101.083C15.1108 101.083 15.6799 101.463 15.6799 102.032ZM9.51414 86.9478L13.5172 88.2758L9.51414 89.6039L9.51414 94.8211L18.0514 90.5524C19.3794 90.0212 19.4743 90.837 19.4743 91.3113V92.829H22.7943C22.7943 88.0861 21.2956 87.3652 18.0514 85.8095L9.51414 81.7306V86.9478Z" fill="black"/>
<path d="M126.286 81.3445V75.3815C125.478 75.0761 124.939 74.232 124.939 73.2621C124.939 71.933 125.837 71.0349 127.184 71.0349C128.531 71.0349 129.43 71.933 129.43 73.2621C129.43 74.232 128.891 75.0582 128.082 75.3635V81.3445C131.908 81.3445 134.746 77.9319 134.728 73.2621C134.728 68.5922 131.531 65.1796 127.184 65.1796C122.838 65.1796 119.659 68.5922 119.659 73.2621C119.659 77.9319 122.479 81.3445 126.286 81.3445ZM119.731 87.7151C119.731 91.2534 121.652 93.5524 124.49 93.5524C127.364 93.5524 129.268 91.2354 129.25 87.7151C129.25 84.1947 127.328 81.8777 124.49 81.8777C121.652 81.8777 119.731 84.1947 119.731 87.7151ZM123.143 87.6971C123.143 87.1762 123.7 86.817 124.49 86.817C125.281 86.817 125.837 87.1762 125.837 87.6971C125.837 88.218 125.281 88.6131 124.49 88.5952C123.7 88.5952 123.143 88.218 123.143 87.6971ZM129.16 109.536C129.16 107.884 128.675 106.537 127.831 105.639C128.675 104.884 129.16 103.735 129.16 102.352C129.16 101.238 128.945 100.268 128.549 99.4781H128.981V94.0898H120V99.4781H124.939C125.478 99.4781 125.837 99.8374 125.837 100.376C125.837 100.915 125.478 101.274 124.939 101.274H120V106.663H124.939C125.478 106.663 125.837 107.022 125.837 107.561C125.837 108.099 125.478 108.459 124.939 108.459H120L120 113.847H124.939C127.472 113.847 129.16 112.123 129.16 109.536ZM129.16 121.977C129.16 121.223 128.998 120.54 128.693 119.947H128.981V114.559L116.408 114.559V119.947H120.287C119.982 120.54 119.82 121.223 119.82 121.977C119.82 124.527 121.688 126.234 124.49 126.234C127.292 126.234 129.16 124.527 129.16 121.977ZM123.143 120.845C123.143 120.307 123.682 119.947 124.49 119.947C125.299 119.947 125.837 120.307 125.837 120.845C125.837 121.384 125.299 121.743 124.49 121.743C123.682 121.743 123.143 121.384 123.143 120.845ZM119.731 132.425C119.731 135.909 121.383 138.244 123.862 138.262V133.323C123.323 133.323 122.964 132.964 122.964 132.425C122.964 131.886 123.574 131.527 124.49 131.527V138.262C127.364 138.262 129.268 135.909 129.25 132.425C129.25 128.922 127.346 126.587 124.49 126.587C121.634 126.587 119.731 128.922 119.731 132.425ZM125.388 131.527C125.927 131.527 126.286 131.886 126.286 132.425C126.286 132.964 125.927 133.323 125.388 133.323V131.527ZM127.184 146.527H130.777L130.777 144.731H134.369L134.369 139.342H130.777V138.444H127.184V139.342H123.592C121.437 139.342 120 140.779 120 142.935V146.527H124.49V145.629C124.49 144.91 124.67 144.731 125.388 144.731H127.184V146.527ZM129.879 149.948C129.879 151.457 131.082 152.642 132.573 152.642C134.063 152.642 135.267 151.457 135.267 149.948C135.267 148.439 134.063 147.254 132.573 147.254C131.082 147.254 129.879 148.439 129.879 149.948ZM128.981 147.254H120V152.642H128.981V147.254ZM127.184 161.261H130.777V159.464H134.369V154.076H130.777V153.178H127.184V154.076H123.592C121.437 154.076 120 155.513 120 157.668V161.261H124.49V160.363C124.49 159.644 124.67 159.464 125.388 159.464H127.184V161.261ZM129.879 164.682C129.879 166.19 131.082 167.376 132.573 167.376C134.063 167.376 135.267 166.19 135.267 164.682C135.267 163.173 134.063 161.987 132.573 161.987C131.082 161.987 129.879 163.173 129.879 164.682ZM128.981 161.987H120V167.376H128.981V161.987ZM119.731 173.749C119.731 177.287 121.652 179.586 124.49 179.586C127.364 179.586 129.268 177.269 129.25 173.749C129.25 170.229 127.328 167.912 124.49 167.912C121.652 167.912 119.731 170.229 119.731 173.749ZM123.143 173.731C123.143 173.21 123.7 172.851 124.49 172.851C125.281 172.851 125.837 173.21 125.837 173.731C125.837 174.252 125.281 174.647 124.49 174.629C123.7 174.629 123.143 174.252 123.143 173.731ZM129.16 188.386C129.16 187.272 128.945 186.302 128.549 185.512H128.981V180.124H120V185.512H124.939C125.478 185.512 125.837 185.871 125.837 186.41C125.837 186.949 125.478 187.308 124.939 187.308H120V192.697H124.939C127.472 192.697 129.16 190.972 129.16 188.386Z" fill="black"/>
<path d="M47.5022 7.33091V11.0369H51.2082V22.155H56.7673V11.0369H60.4733V7.33091H47.5022ZM69.548 12.7047C68.3991 12.7047 67.3985 12.927 66.5832 13.3347V7.33091H61.0241V22.155H66.5832V17.0592C66.5832 16.5033 66.9538 16.1327 67.5097 16.1327C68.0656 16.1327 68.4362 16.5033 68.4362 17.0592V22.155H73.9952V17.0592C73.9952 14.4465 72.2164 12.7047 69.548 12.7047ZM80.5778 22.433C84.1726 22.433 86.5816 20.7282 86.6001 18.171H81.5043C81.5043 18.727 81.1337 19.0976 80.5778 19.0976C80.0219 19.0976 79.6513 18.4675 79.6513 17.5225H86.6001C86.6001 14.5577 84.1726 12.5935 80.5778 12.612C76.9644 12.612 74.5555 14.5762 74.5555 17.5225C74.5555 20.4688 76.9644 22.433 80.5778 22.433ZM79.6513 16.596C79.6513 16.0401 80.0219 15.6695 80.5778 15.6695C81.1337 15.6695 81.5043 16.0401 81.5043 16.596H79.6513Z" fill="black"/>
<path fill-rule="evenodd" clip-rule="evenodd" d="M30.9061 8.39884L34.0764 9.24831C31.1679 15.3575 29.8369 18.9952 29.3651 26.8313L29.3545 26.8285C29.4169 27.2092 29.4025 27.597 29.3005 27.9776C28.8173 29.781 26.5512 30.7408 24.2391 30.1212C21.927 29.5017 20.4444 27.5375 20.9277 25.7341C21.4109 23.9306 23.677 22.9709 25.9891 23.5904C26.1469 23.6327 26.3008 23.6812 26.4505 23.7356C27.0378 19.0529 27.8389 15.77 29.437 11.791L17.2077 8.51412C15.3717 12.7891 14.4373 16.3336 14.0474 22.4632C14.1991 22.9645 14.2195 23.4869 14.083 23.9965C13.5998 25.7999 11.3337 26.7597 9.02159 26.1402C6.70949 25.5206 5.2269 23.5564 5.71013 21.753C6.19336 19.9496 8.45942 18.9898 10.7715 19.6093C10.8855 19.6399 10.9975 19.6737 11.1074 19.7106C11.8524 13.7326 12.9393 10.0393 15.5714 4.3067L16.2299 4.48315L16.2299 4.48305L30.8993 8.4137L30.8998 8.41266L30.9061 8.39884Z" fill="black"/>
<path fill-rule="evenodd" clip-rule="evenodd" d="M130.963 8.3989L134.134 9.24837C131.225 15.3576 129.894 18.9953 129.422 26.8314L129.412 26.8286C129.475 27.2093 129.46 27.5971 129.358 27.9776C128.875 29.7811 126.609 30.7408 124.297 30.1213C121.985 29.5018 120.502 27.5376 120.985 25.7341C121.468 23.9307 123.735 22.9709 126.047 23.5905C126.204 23.6327 126.358 23.6812 126.508 23.7355C127.095 19.053 127.896 15.7702 129.494 11.7912L117.265 8.51447C115.429 12.7894 114.495 16.3339 114.105 22.4637C114.257 22.9648 114.277 23.4871 114.141 23.9966C113.657 25.8 111.391 26.7597 109.079 26.1402C106.767 25.5207 105.284 23.5565 105.768 21.7531C106.251 19.9496 108.517 18.9899 110.829 19.6094C110.943 19.64 111.055 19.6738 111.165 19.7107C111.91 13.7327 112.997 10.0393 115.629 4.30676L118.799 5.15623L118.799 5.15642L130.957 8.41394L130.957 8.41275L130.963 8.3989Z" fill="black"/>
<mask id="path-63-inside-1" fill="white">
<path fill-rule="evenodd" clip-rule="evenodd" d="M6.42056 43.9869C6.27179 44.543 6.60204 45.1144 7.15818 45.2632L16.4399 47.746L13.7723 49.0723C13.2568 49.3287 13.0467 49.9543 13.303 50.4698C13.5593 50.9853 14.185 51.1954 14.7005 50.9391L17.5126 49.5409L16.7362 52.5839C16.5939 53.1417 16.9307 53.7093 17.4885 53.8516C18.0464 53.9939 18.6139 53.6571 18.7563 53.0993L19.5745 49.8923L21.6294 52.4864C21.9869 52.9377 22.6425 53.0137 23.0937 52.6563C23.545 52.2988 23.6211 51.6432 23.2636 51.1919L21.6347 49.1356L30.5201 51.5124C31.0763 51.6612 31.6477 51.3309 31.7965 50.7748C31.9452 50.2187 31.615 49.6472 31.0589 49.4985L22.3066 47.1573L24.3968 46.118C24.9123 45.8617 25.1224 45.236 24.8661 44.7205C24.6098 44.205 23.9841 43.9949 23.4687 44.2512L20.657 45.6492L21.4333 42.6066C21.5756 42.0488 21.2388 41.4812 20.681 41.3389C20.1232 41.1966 19.5556 41.5334 19.4133 42.0912L18.595 45.2983L16.5397 42.7036C16.1822 42.2524 15.5266 42.1763 15.0753 42.5338C14.6241 42.8913 14.548 43.5469 14.9055 43.9981L16.0909 45.4946L7.6969 43.2492C7.14076 43.1005 6.56932 43.4307 6.42056 43.9869Z"/>
</mask>
<path fill-rule="evenodd" clip-rule="evenodd" d="M6.42056 43.9869C6.27179 44.543 6.60204 45.1144 7.15818 45.2632L16.4399 47.746L13.7723 49.0723C13.2568 49.3287 13.0467 49.9543 13.303 50.4698C13.5593 50.9853 14.185 51.1954 14.7005 50.9391L17.5126 49.5409L16.7362 52.5839C16.5939 53.1417 16.9307 53.7093 17.4885 53.8516C18.0464 53.9939 18.6139 53.6571 18.7563 53.0993L19.5745 49.8923L21.6294 52.4864C21.9869 52.9377 22.6425 53.0137 23.0937 52.6563C23.545 52.2988 23.6211 51.6432 23.2636 51.1919L21.6347 49.1356L30.5201 51.5124C31.0763 51.6612 31.6477 51.3309 31.7965 50.7748C31.9452 50.2187 31.615 49.6472 31.0589 49.4985L22.3066 47.1573L24.3968 46.118C24.9123 45.8617 25.1224 45.236 24.8661 44.7205C24.6098 44.205 23.9841 43.9949 23.4687 44.2512L20.657 45.6492L21.4333 42.6066C21.5756 42.0488 21.2388 41.4812 20.681 41.3389C20.1232 41.1966 19.5556 41.5334 19.4133 42.0912L18.595 45.2983L16.5397 42.7036C16.1822 42.2524 15.5266 42.1763 15.0753 42.5338C14.6241 42.8913 14.548 43.5469 14.9055 43.9981L16.0909 45.4946L7.6969 43.2492C7.14076 43.1005 6.56932 43.4307 6.42056 43.9869Z" fill="#FCFCFC"/>
<path d="M7.15818 45.2632L7.02285 45.7691L7.02285 45.7691L7.15818 45.2632ZM6.42056 43.9869L6.92646 44.1222L6.42056 43.9869ZM16.4399 47.746L16.673 48.2149L17.9136 47.5981L16.5752 47.2401L16.4399 47.746ZM13.7723 49.0723L14.0055 49.5413L13.7723 49.0723ZM13.303 50.4698L12.8341 50.703L12.8341 50.703L13.303 50.4698ZM14.7005 50.9391L14.9336 51.408L14.9336 51.408L14.7005 50.9391ZM17.5126 49.5409L18.02 49.6704L18.3025 48.5633L17.2794 49.072L17.5126 49.5409ZM16.7362 52.5839L16.2288 52.4544L16.2288 52.4544L16.7362 52.5839ZM17.4885 53.8516L17.3591 54.359L17.4885 53.8516ZM18.7563 53.0993L18.2488 52.9698L18.2488 52.9698L18.7563 53.0993ZM19.5745 49.8923L19.985 49.5671L19.3284 48.7383L19.067 49.7628L19.5745 49.8923ZM21.6294 52.4864L21.2189 52.8116L21.2189 52.8116L21.6294 52.4864ZM23.2636 51.1919L23.6741 50.8668L23.6741 50.8668L23.2636 51.1919ZM21.6347 49.1356L21.77 48.6297L20.2421 48.221L21.2242 49.4608L21.6347 49.1356ZM30.5201 51.5124L30.3848 52.0183L30.5201 51.5124ZM31.7965 50.7748L32.3024 50.9101L31.7965 50.7748ZM31.0589 49.4985L31.1942 48.9926L31.0589 49.4985ZM22.3066 47.1573L22.0734 46.6883L20.8329 47.3052L22.1713 47.6632L22.3066 47.1573ZM24.3968 46.118L24.1637 45.6491L24.3968 46.118ZM24.8661 44.7205L25.335 44.4874L25.335 44.4874L24.8661 44.7205ZM23.4687 44.2512L23.7018 44.7202L23.4687 44.2512ZM20.657 45.6492L20.1496 45.5197L19.8672 46.6268L20.8902 46.1181L20.657 45.6492ZM21.4333 42.6066L21.9407 42.7361L21.4333 42.6066ZM19.4133 42.0912L19.9207 42.2207L19.4133 42.0912ZM18.595 45.2983L18.1845 45.6235L18.841 46.4523L19.1024 45.4278L18.595 45.2983ZM16.5397 42.7036L16.9502 42.3785L16.5397 42.7036ZM15.0753 42.5338L15.4005 42.9443L15.4005 42.9443L15.0753 42.5338ZM14.9055 43.9981L15.316 43.673L14.9055 43.9981ZM16.0909 45.4946L15.9556 46.0005L17.4835 46.4092L16.5014 45.1694L16.0909 45.4946ZM7.6969 43.2492L7.56158 43.7551L7.56158 43.7551L7.6969 43.2492ZM7.2935 44.7573C7.01676 44.6833 6.85243 44.3989 6.92646 44.1222L5.91466 43.8515C5.69116 44.6871 6.18731 45.5456 7.02285 45.7691L7.2935 44.7573ZM16.5752 47.2401L7.2935 44.7573L7.02285 45.7691L16.3045 48.2519L16.5752 47.2401ZM14.0055 49.5413L16.673 48.2149L16.2067 47.2771L13.5392 48.6034L14.0055 49.5413ZM13.7719 50.2367C13.6444 49.9801 13.7489 49.6688 14.0055 49.5413L13.5392 48.6034C12.7647 48.9885 12.449 49.9285 12.8341 50.703L13.7719 50.2367ZM14.4673 50.4702C14.2108 50.5977 13.8995 50.4932 13.7719 50.2367L12.8341 50.703C13.2192 51.4774 14.1592 51.7931 14.9336 51.408L14.4673 50.4702ZM17.2794 49.072L14.4673 50.4702L14.9336 51.408L17.7457 50.0098L17.2794 49.072ZM17.2436 52.7133L18.02 49.6704L17.0051 49.4114L16.2288 52.4544L17.2436 52.7133ZM17.618 53.3442C17.3404 53.2733 17.1728 52.9909 17.2436 52.7133L16.2288 52.4544C16.015 53.2925 16.521 54.1452 17.3591 54.359L17.618 53.3442ZM18.2488 52.9698C18.178 53.2474 17.8956 53.415 17.618 53.3442L17.3591 54.359C18.1971 54.5728 19.0499 54.0668 19.2637 53.2287L18.2488 52.9698ZM19.067 49.7628L18.2488 52.9698L19.2637 53.2287L20.0819 50.0217L19.067 49.7628ZM19.164 50.2175L21.2189 52.8116L22.0399 52.1613L19.985 49.5671L19.164 50.2175ZM21.2189 52.8116C21.756 53.4896 22.7409 53.6038 23.4189 53.0668L22.7686 52.2458C22.544 52.4236 22.2178 52.3858 22.0399 52.1613L21.2189 52.8116ZM23.4189 53.0668C24.0969 52.5297 24.2111 51.5447 23.6741 50.8668L22.8531 51.5171C23.031 51.7417 22.9931 52.0679 22.7686 52.2458L23.4189 53.0668ZM23.6741 50.8668L22.0452 48.8104L21.2242 49.4608L22.8531 51.5171L23.6741 50.8668ZM30.6555 51.0065L21.77 48.6297L21.4994 49.6415L30.3848 52.0183L30.6555 51.0065ZM31.2906 50.6395C31.2165 50.9162 30.9322 51.0805 30.6555 51.0065L30.3848 52.0183C31.2203 52.2418 32.0789 51.7457 32.3024 50.9101L31.2906 50.6395ZM30.9235 50.0044C31.2003 50.0784 31.3646 50.3627 31.2906 50.6395L32.3024 50.9101C32.5259 50.0746 32.0297 49.2161 31.1942 48.9926L30.9235 50.0044ZM22.1713 47.6632L30.9235 50.0044L31.1942 48.9926L22.4419 46.6514L22.1713 47.6632ZM24.1637 45.6491L22.0734 46.6883L22.5397 47.6262L24.63 46.5869L24.1637 45.6491ZM24.3972 44.9537C24.5247 45.2102 24.4202 45.5215 24.1637 45.6491L24.63 46.5869C25.4044 46.2018 25.7201 45.2618 25.335 44.4874L24.3972 44.9537ZM23.7018 44.7202C23.9583 44.5926 24.2696 44.6972 24.3972 44.9537L25.335 44.4874C24.95 43.7129 24.01 43.3972 23.2355 43.7823L23.7018 44.7202ZM20.8902 46.1181L23.7018 44.7202L23.2355 43.7823L20.4239 45.1803L20.8902 46.1181ZM20.9259 42.4771L20.1496 45.5197L21.1645 45.7787L21.9407 42.7361L20.9259 42.4771ZM20.5515 41.8463C20.8291 41.9171 20.9967 42.1996 20.9259 42.4771L21.9407 42.7361C22.1546 41.898 21.6485 41.0453 20.8104 40.8315L20.5515 41.8463ZM19.9207 42.2207C19.9915 41.9431 20.2739 41.7755 20.5515 41.8463L20.8104 40.8315C19.9724 40.6176 19.1196 41.1237 18.9058 41.9618L19.9207 42.2207ZM19.1024 45.4278L19.9207 42.2207L18.9058 41.9618L18.0876 45.1689L19.1024 45.4278ZM19.0055 44.9731L16.9502 42.3785L16.1292 43.0288L18.1845 45.6235L19.0055 44.9731ZM16.9502 42.3785C16.4131 41.7005 15.4281 41.5862 14.7501 42.1233L15.4005 42.9443C15.625 42.7664 15.9513 42.8043 16.1292 43.0288L16.9502 42.3785ZM14.7501 42.1233C14.0722 42.6604 13.9579 43.6453 14.495 44.3233L15.316 43.673C15.1381 43.4484 15.1759 43.1222 15.4005 42.9443L14.7501 42.1233ZM14.495 44.3233L15.6804 45.8198L16.5014 45.1694L15.316 43.673L14.495 44.3233ZM7.56158 43.7551L15.9556 46.0005L16.2262 44.9887L7.83223 42.7434L7.56158 43.7551ZM6.92646 44.1222C7.00048 43.8455 7.28484 43.6811 7.56158 43.7551L7.83223 42.7434C6.99669 42.5198 6.13816 43.016 5.91466 43.8515L6.92646 44.1222Z" fill="black" mask="url(#path-63-inside-1)"/>
</svg>
