<svg width="189" height="252" viewBox="0 0 189 252" fill="none" xmlns="http://www.w3.org/2000/svg">
<g clip-path="url(#clip0)">
<mask id="mask0" mask-type="alpha" maskUnits="userSpaceOnUse" x="17" y="-30" width="205" height="278">
<path d="M67.5302 149.029C77.3044 173.298 129.636 164.928 137.69 142.254L148.044 138.728C130.859 177.29 87.0828 182.189 62.9595 164.171C50.1794 205.732 3.03397 220.119 22.3185 189.014C42.3232 156.747 61.6176 128.835 67.5302 149.029Z" fill="black"/>
<path d="M154.807 141.536C160.204 134.858 196.528 53.2374 214.016 13.262C224.666 3.78613 221.199 -3.56002 218.133 -6.0486L217.029 -19.6388C208.254 -36.0606 158.05 -30.5923 141.276 -19.5844C140.305 -18.7504 136.388 -14.3011 130.652 -3.29281C119.843 -0.216443 121.05 12.1954 125.248 14.7146C115.413 55.9173 96.8013 140.162 101.037 147.52C107.767 154.57 148.061 149.884 154.807 141.536Z" fill="black"/>
<path d="M152.934 142.015C153.974 140.338 159.573 127.759 168.347 111.243C133.527 125.344 121.164 116.576 105.757 114.06C105.012 112.728 103.884 118.426 104.175 119.308C105.649 122.849 140.032 125.832 154.118 122.538C157.004 121.437 153.551 131.229 148.125 139.13C129.596 149.084 109.649 145.615 101.961 143.657C101 145.206 102.269 147.562 103.958 148.043C118.019 152.054 145.541 148.027 152.934 142.015Z" fill="black"/>
<path d="M194.705 52.1378L208.005 21.7401C209.035 19.3853 206.824 17.0324 204.417 17.8618C172.086 29.0039 144.762 26.6004 130.535 17.0302C128.632 15.7502 125.645 16.8376 125.266 19.1837C125.182 19.705 125.102 20.2314 125.031 20.7686C124.904 21.7128 125.273 22.6317 126.01 23.1822C143.589 36.3104 173.213 32.2305 190.502 27.2656C192.901 26.5767 195.024 28.9381 194.019 31.2554L184.479 53.254C183.486 55.5438 185.542 57.8319 187.884 57.0436L189.423 56.5256C189.748 56.4164 190.053 56.2513 190.326 56.0377L193.78 53.3318C194.182 53.0166 194.501 52.6051 194.705 52.1378Z" fill="black"/>
<path d="M146.217 223.34C142.481 195.881 123.38 155.212 114.296 138.31L105.174 140.273C121.062 174.953 132.782 202.705 141.337 245.912C142.885 253.73 175.252 224.286 184.793 209.646C194.334 195.007 185.412 173.491 146.217 223.34Z" fill="black"/>
<path d="M115.378 133.115L117.408 139.292L104.189 142.162L102.235 138.863L115.378 133.115Z" fill="black"/>
<path d="M156.486 -4.08257C166.643 -1.88364 215.706 -8.21389 217.029 -19.6388L218.133 -6.0486C217.546 -3.86275 215.492 1.18506 211.972 3.88956C207.572 7.27019 195.099 11.003 186.659 12.9607C176.018 15.4292 164.34 14.8392 158.407 14.7787C150.602 14.6992 139.373 11.5987 134.968 8.32804C131.239 5.55903 129.844 2.06567 130.652 -3.29281C132.378 -6.92066 136.553 -14.8042 140.396 -18.1648C137.227 -7.13973 151.426 -6.05637 156.486 -4.08257Z" fill="black"/>
<path d="M130.652 -3.29281C119.843 -0.216443 121.05 12.1954 125.248 14.7146C151.014 35.4883 194.651 22.5376 214.016 13.262C224.666 3.78613 221.199 -3.56002 218.133 -6.0486C217.546 -3.86275 215.492 1.18506 211.972 3.88956C207.572 7.27019 195.099 11.003 186.659 12.9607C176.018 15.4292 164.34 14.8392 158.407 14.7787C150.602 14.6992 139.373 11.5987 134.968 8.32804C131.239 5.55903 129.844 2.06567 130.652 -3.29281Z" fill="black"/>
<path d="M217.029 -19.6388C208.254 -36.0606 158.05 -30.5923 141.276 -19.5844C135.875 -9.01341 148.268 -5.86172 156.486 -4.08257C166.643 -1.88364 215.706 -8.21389 217.029 -19.6388Z" fill="black"/>
<path d="M195.174 -13.2741C214.757 -17.8322 204.988 -20.4892 197.35 -21.1766C187.608 -22.2416 172.128 -23.7384 155.513 -20.2503C145.684 -18.1869 148.643 -14.5743 151.512 -13.7969C152.432 -13.4816 153.601 -13.1452 154.989 -12.8163C162.935 -10.9331 178.086 -9.29661 195.174 -13.2741Z" fill="black"/>
<path d="M194.716 -13.5488C177.629 -9.57131 163.229 -11.0682 155.282 -12.9514C174.571 -20.8197 189.358 -16.6747 194.716 -13.5488Z" fill="black"/>
<path d="M173.775 106.167C184.167 86.1951 204.205 45.9793 199.788 46.5162C192.418 62.4583 158.051 64.6798 140.841 63.384C131.877 62.709 114.746 58.9875 117.186 48.8351C113.102 51.8743 107.267 82.019 102.733 110.111C109.483 121.386 139.278 119.172 152.466 116.933C160.628 115.547 170.188 109.115 173.775 106.167Z" fill="black"/>
<path d="M155.475 69.188C149.85 86.9632 147.414 78.1676 140.789 78.7572C134.164 79.3469 125.859 89.0984 131.484 71.3232C137.109 53.5479 147.04 38.6603 153.665 38.0707C160.289 37.4811 161.1 51.4128 155.475 69.188Z" fill="black"/>
<path d="M155.475 69.188C149.85 86.9632 147.414 78.1676 140.789 78.7572C134.164 79.3469 125.859 89.0984 131.484 71.3232C137.109 53.5479 147.04 38.6603 153.665 38.0707C160.289 37.4811 161.1 51.4128 155.475 69.188Z" fill="black"/>
<path d="M139.137 83.6256C143.075 83.275 148.333 76.4658 150.88 68.4166C153.427 60.3675 152.299 54.1265 148.361 54.477C145.116 54.7658 140.976 59.4393 138.194 65.5782L141.995 68.9929L135.682 73.3479C134.498 79.5432 135.821 83.9207 139.137 83.6256Z" fill="black"/>
<path d="M186.708 66.4082C181.083 84.1835 178.647 75.3879 172.023 75.9775C165.398 76.5671 157.092 86.3186 162.717 68.5434C168.342 50.7682 178.273 35.8806 184.898 35.2909C191.523 34.7013 192.333 48.633 186.708 66.4082Z" fill="black"/>
<path d="M186.708 66.4082C181.083 84.1835 178.647 75.3879 172.023 75.9775C165.398 76.5671 157.092 86.3186 162.717 68.5434C168.342 50.7682 178.273 35.8806 184.898 35.2909C191.523 34.7013 192.333 48.633 186.708 66.4082Z" fill="black"/>
<path d="M170.37 80.8458C174.309 80.4953 179.566 73.6861 182.113 65.6369C184.661 57.5877 183.533 51.3468 179.595 51.6973C176.35 51.9861 172.209 56.6595 169.427 62.7985L173.228 66.2132L166.916 70.5682C165.731 76.7634 167.054 81.141 170.37 80.8458Z" fill="black"/>
<path d="M167.739 21.0702C164.061 26.3066 159.003 18.4835 149.124 26.6828C139.245 34.882 132.337 45.8696 131.398 42.1672C130.987 40.5455 138.662 32.584 148.541 24.3847C158.421 16.1855 167.327 19.4485 167.739 21.0702Z" fill="black"/>
<path d="M178.901 18.6058C179.143 23.6257 189.731 14.9383 194.386 22.3345C199.042 29.7308 198.711 40.3549 202.212 36.4072C203.746 34.6781 201.215 27.2805 196.559 19.8842C191.904 12.488 180.434 16.8767 178.901 18.6058Z" fill="black"/>
<path d="M168.817 104.37C158.433 137.213 150.678 119.31 140.871 120.188C132.723 120.917 110.484 143.724 121.591 108.596C124.727 98.6785 137.841 89.6925 150.882 88.5253C163.923 87.3582 171.953 94.4519 168.817 104.37Z" fill="black"/>
<path d="M152.793 115.433C150.576 124.88 147.377 118.535 141.991 118.625C136.605 118.716 128.843 128.267 133.288 115.761C135.304 110.088 141.305 105.416 146.691 105.326C152.077 105.235 154.104 109.85 152.793 115.433Z" fill="black"/>
</mask>
<g mask="url(#mask0)">
<path d="M208.62 155.872L47.7052 134.066L-15.0818 225.05L205.989 275.43L208.62 155.872Z" fill="#29193E" stroke="black" stroke-width="0.75194"/>
</g>
<mask id="mask1" mask-type="alpha" maskUnits="userSpaceOnUse" x="-1" y="0" width="206" height="234">
<path d="M43.3321 124.145C62.6896 148.008 121.926 157.088 124.176 140.133L135.297 140.325C127.342 168.076 77.1147 158.676 42.7852 135.719C41.0057 167.41 -10.1622 165.106 2.67059 144.407C15.9826 122.935 29.8524 104.979 43.3321 124.145Z" fill="black" stroke="black" stroke-width="2.16043"/>
<path d="M144.2 144.836C148.442 140.783 165.22 82.0323 173.079 53.1637C182.639 48.342 176.177 40.9607 171.752 37.8728L166.081 25.8678C150.426 9.04951 92.7755 -1.85868 76.4613 2.37479C75.5802 2.78878 72.3732 5.38937 69.1205 13.0532C57.3177 12.3342 62.7307 23.3598 68.5072 26.8261C70.0974 59.1258 75.1213 125.633 82.4953 133.263C92.723 141.403 138.897 149.903 144.2 144.836Z" fill="black"/>
<path d="M173.079 53.1637C165.22 82.0323 148.442 140.783 144.2 144.836C138.897 149.903 92.723 141.403 82.4953 133.263C75.1213 125.633 70.0974 59.1258 68.5072 26.8261M173.079 53.1637C182.639 48.342 176.177 40.9607 171.752 37.8728M173.079 53.1637C153.142 55.1054 105.665 52.6585 68.5072 26.8261M68.5072 26.8261C62.7307 23.3598 57.3177 12.3342 69.1205 13.0533M69.1205 13.0533C72.3732 5.38937 75.5802 2.78878 76.4613 2.37478M69.1205 13.0533C69.884 17.4001 72.6562 20.8312 77.9579 24.3661C84.22 28.5414 98.5033 34.6915 107.765 37.1852C114.804 39.0804 128.811 43.2155 140.611 44.4042C149.97 45.347 163.53 46.0197 167.651 44.4861C170.948 43.2592 171.758 39.566 171.752 37.8728M76.4613 2.37478C92.7755 -1.85868 150.426 9.04951 166.081 25.8678M76.4613 2.37478C73.4633 9.76721 89.1407 16.323 99.436 20.4033C112.161 25.4464 168.184 35.2603 166.081 25.8678M166.081 25.8678L171.752 37.8728" stroke="black" stroke-width="2.16043"/>
<path d="M142.138 144.666C142.83 143.549 145.417 134.496 150.496 123.049C113.821 124.33 96.3767 112.964 77.3386 106.017C76.0293 104.643 76.5238 109.182 77.1511 110.029C80.0326 113.526 121.675 126.77 137.285 128.32C140.347 128.272 139.405 135.602 135.521 140.695C116.792 143.479 92.0747 134.304 82.3487 130.235C81.7097 131.266 83.9672 133.681 86.1206 134.62C104.046 142.43 135.321 147.527 142.138 144.666Z" fill="black"/>
<path d="M162.978 79.5407L168.921 57.7142C169.422 55.8766 168.096 54.1387 166.231 54.1445C129.762 54.2571 94.6563 43.0336 74.3293 29.6963C72.5122 28.504 69.8037 30.108 70.2587 32.2731C70.3754 32.8284 70.7157 33.3684 71.1753 33.6838C97.6738 51.8669 134.492 57.3601 152.788 58.0183C154.611 58.0838 155.883 59.7931 155.404 61.5962L150.771 79.041C150.298 80.8225 151.538 82.5168 153.342 82.5536L157.826 82.645C158.202 82.6527 158.58 82.5853 158.937 82.4466L161.128 81.5964C162.03 81.2466 162.723 80.4766 162.978 79.5407Z" fill="black"/>
<path d="M160.3 212.363C147.064 187.64 111.405 146.807 95.2298 129.48L85.0652 128.33C115 163.026 137.777 190.481 161.773 230.216C166.114 237.405 194.961 222.197 201.551 212.6C208.141 203.003 190.676 181.768 160.3 212.363Z" fill="black" stroke="black" stroke-width="2.16043"/>
<path d="M94.8414 125.358L99.2267 131.289L84.5059 129.644L81.1342 126.207L94.8414 125.358Z" fill="black"/>
<path d="M99.4365 20.4032C112.161 25.4463 168.184 35.2602 166.082 25.8677L171.752 37.8727C171.759 39.5659 170.949 43.2591 167.652 44.486C163.531 46.0197 149.97 45.3469 140.612 44.4041C128.812 43.2154 114.804 39.0803 107.765 37.1851C98.5038 34.6914 84.2205 28.5413 77.9584 24.366C72.6567 20.8311 69.8845 17.4 69.121 13.0532C69.998 10.4763 72.4076 5.00892 75.876 3.31931C75.6649 11.7949 92.8154 17.1372 99.4365 20.4032Z" fill="black" stroke="black" stroke-width="2.16043"/>
<path d="M69.1208 13.053C57.318 12.334 62.731 23.3596 68.5076 26.8259C105.665 52.6583 153.143 55.1052 173.079 53.1635C182.64 48.3418 176.178 40.9605 171.752 37.8726C171.759 39.5658 170.949 43.259 167.652 44.4859C163.531 46.0195 149.97 45.3468 140.612 44.404C128.812 43.2153 114.804 39.0802 107.765 37.1849C98.5036 34.6912 84.2204 28.5412 77.9582 24.3659C72.6565 20.831 69.8843 17.3999 69.1208 13.053Z" fill="black" stroke="black" stroke-width="2.16043"/>
<path d="M166.082 25.8676C150.426 9.04931 92.776 -1.85888 76.4618 2.37459C73.4638 9.76701 89.1412 16.3228 99.4365 20.4031C112.161 25.4462 168.184 35.2601 166.082 25.8676Z" fill="black" stroke="black" stroke-width="2.16043"/>
<path d="M142.264 24.5382C163.973 26.7121 151.561 21.3967 142.302 18.4334C130.432 14.492 111.635 8.39753 93.094 6.22752C82.1258 4.9438 86.7867 8.96321 90.4316 10.5219C91.622 11.0785 93.1122 11.7302 94.8601 12.4437C104.868 16.5291 123.321 22.6413 142.264 24.5382Z" fill="black"/>
<path d="M142.264 24.5382C163.973 26.7121 151.561 21.3967 142.302 18.4334C130.432 14.492 111.635 8.39753 93.094 6.22752C82.1258 4.9438 86.7867 8.96321 90.4316 10.5219C91.622 11.0785 93.1122 11.7302 94.8601 12.4437M142.264 24.5382C123.321 22.6413 104.868 16.5291 94.8601 12.4437M142.264 24.5382C134.92 20.1909 115.158 11.6858 94.8601 12.4437" stroke="black" stroke-width="2.16043"/>
<path d="M141.634 24.1602C122.691 22.2633 105.172 16.5043 95.1641 12.4189C115.462 11.661 134.291 19.8129 141.634 24.1602Z" fill="black" stroke="black" stroke-width="2.16043"/>
<path d="M155.29 120.381C161.175 106.472 171.975 78.1899 166.92 77.2779C163.317 88.6676 123.365 79.8946 102.584 73.4348C91.7597 70.0699 70.294 61.5531 69.9221 53.5996C66.0658 54.9386 68.8392 78.9925 72.4924 101.689C84.0995 113.462 118.646 120.821 133.532 122.997C142.745 124.345 151.992 121.796 155.29 120.381Z" fill="black" stroke="black" stroke-width="2.16043"/>
<rect width="66.0257" height="32.6143" transform="matrix(0.965814 0.196032 -0.0705823 1.00414 95.7792 52.8867)" fill="black"/>
<path d="M120.459 82.6977C120.224 86.0364 119.704 87.7308 119.127 88.5324C118.865 88.8976 118.608 89.0535 118.362 89.1229C118.099 89.1973 117.748 89.1999 117.255 89.085C116.334 88.8707 115.257 88.3461 113.861 87.6662C113.651 87.5639 113.433 87.4581 113.208 87.3493C111.572 86.5582 109.645 85.679 107.553 85.2544C105.461 84.8298 103.467 84.9131 101.767 85.027C101.533 85.0427 101.307 85.0586 101.089 85.0739C99.6375 85.1759 98.518 85.2546 97.5929 85.0942C97.0975 85.0083 96.7576 84.8657 96.512 84.688C96.2829 84.5222 96.0542 84.2677 95.8498 83.8077C95.4009 82.7981 95.1298 80.943 95.3645 77.6043C95.8251 71.0509 97.7449 65.49 100.408 61.7884C103.091 58.0592 106.36 56.4096 109.535 57.054C112.71 57.6984 115.659 60.6101 117.749 65.3081C119.825 69.9715 120.92 76.1443 120.459 82.6977Z" fill="black" stroke="black" stroke-width="2.70053"/>
<mask id="mask2" maskUnits="userSpaceOnUse" x="93" y="55" width="29" height="36">
<path d="M120.459 82.6977C120.224 86.0364 119.704 87.7308 119.127 88.5324C118.865 88.8976 118.608 89.0535 118.362 89.1229C118.099 89.1973 117.748 89.1999 117.255 89.085C116.334 88.8707 115.257 88.3461 113.861 87.6662C113.651 87.5639 113.433 87.4581 113.208 87.3493C111.572 86.5582 109.645 85.679 107.553 85.2544C105.461 84.8298 103.467 84.9131 101.767 85.027C101.533 85.0427 101.307 85.0586 101.089 85.0739C99.6375 85.1759 98.518 85.2546 97.5929 85.0942C97.0975 85.0083 96.7576 84.8657 96.512 84.688C96.2829 84.5222 96.0542 84.2677 95.8498 83.8077C95.4009 82.7981 95.1298 80.943 95.3645 77.6043C95.8251 71.0509 97.7449 65.49 100.408 61.7884C103.091 58.0592 106.36 56.4096 109.535 57.054C112.71 57.6984 115.659 60.6101 117.749 65.3081C119.825 69.9715 120.92 76.1443 120.459 82.6977Z" fill="white" stroke="black" stroke-width="2.70053"/>
</mask>
<g mask="url(#mask2)">
<path fill-rule="evenodd" clip-rule="evenodd" d="M107.066 90.2745C111.613 91.1975 115.648 86.9882 116.078 80.8728C116.508 74.7574 113.17 69.0515 108.622 68.1285C104.875 67.368 101.476 70.0916 100.155 74.4949L105.749 78.6062L99.6782 80.3818C100.265 85.3297 103.237 89.4973 107.066 90.2745Z" fill="black"/>
</g>
<path d="M156.525 90.018C156.29 93.3567 155.769 95.0511 155.193 95.8527C154.931 96.218 154.673 96.3738 154.428 96.4432C154.164 96.5176 153.814 96.5202 153.321 96.4054C152.4 96.191 151.322 95.6665 149.926 94.9866C149.716 94.8843 149.499 94.7784 149.274 94.6696C147.638 93.8785 145.711 92.9993 143.619 92.5747C141.527 92.1501 139.532 92.2334 137.832 92.3473C137.599 92.363 137.373 92.3789 137.154 92.3942C135.703 92.4962 134.584 92.5749 133.659 92.4145C133.163 92.3286 132.823 92.186 132.578 92.0084C132.349 91.8426 132.12 91.5881 131.916 91.1281C131.467 90.1184 131.196 88.2633 131.43 84.9246C131.891 78.3712 133.811 72.8103 136.474 69.1087C139.157 65.3795 142.426 63.7299 145.601 64.3743C148.776 65.0187 151.725 67.9304 153.815 72.6285C155.89 77.2919 156.985 83.4647 156.525 90.018Z" fill="black" stroke="black" stroke-width="2.70053"/>
<mask id="mask3" maskUnits="userSpaceOnUse" x="130" y="62" width="28" height="36">
<path d="M156.525 90.018C156.29 93.3567 155.769 95.0511 155.193 95.8527C154.931 96.218 154.673 96.3738 154.428 96.4432C154.164 96.5176 153.814 96.5202 153.321 96.4054C152.4 96.191 151.322 95.6665 149.926 94.9866C149.716 94.8843 149.499 94.7784 149.274 94.6696C147.638 93.8785 145.711 92.9993 143.619 92.5747C141.527 92.1501 139.532 92.2334 137.832 92.3473C137.599 92.363 137.373 92.3789 137.154 92.3942C135.703 92.4962 134.584 92.5749 133.659 92.4145C133.163 92.3286 132.823 92.186 132.578 92.0084C132.349 91.8426 132.12 91.5881 131.916 91.1281C131.467 90.1184 131.196 88.2633 131.43 84.9246C131.891 78.3712 133.811 72.8103 136.474 69.1087C139.157 65.3795 142.426 63.7299 145.601 64.3743C148.776 65.0187 151.725 67.9304 153.815 72.6285C155.89 77.2919 156.985 83.4647 156.525 90.018Z" fill="white" stroke="black" stroke-width="2.70053"/>
</mask>
<g mask="url(#mask3)">
<path fill-rule="evenodd" clip-rule="evenodd" d="M143.132 97.5948C147.679 98.5178 151.714 94.3086 152.144 88.1931C152.574 82.0777 149.236 76.3719 144.688 75.4488C140.941 74.6883 137.542 77.4119 136.221 81.8152L141.815 85.9265L135.744 87.7021C136.331 92.65 139.303 96.8176 143.132 97.5948Z" fill="black"/>
</g>
<path d="M120.826 45.4836C118.156 48.8343 109.659 40.5496 100.602 44.5154C91.544 48.4813 86.8973 55.763 84.5978 52.2943C83.5906 50.7749 90.1167 46.3283 99.1743 42.3624C108.232 38.3966 119.819 43.9643 120.826 45.4836Z" fill="black"/>
<path d="M133.243 46.8373C135.141 51.2201 144.881 47.0556 152.764 54.849C160.648 62.6425 163.668 71.6563 166.543 69.3567C167.803 68.3495 162.433 61.2151 154.549 53.4217C146.666 45.6283 134.503 45.8301 133.243 46.8373Z" fill="black"/>
<path d="M148.846 117.298C147.103 142.254 132.179 124.482 120.856 122.187C111.449 120.281 92.456 132.941 94.3205 106.25C94.8469 98.7136 107.48 95.0778 122.537 98.1288C137.594 101.18 149.373 109.762 148.846 117.298Z" fill="black"/>
<path d="M133.437 121.812C133.847 129.229 128.024 122.79 121.68 121.194C115.336 119.598 109.217 125.382 110.462 116.032C111.027 111.791 116.628 109.647 122.972 111.243C129.317 112.839 133.196 117.428 133.437 121.812Z" fill="black"/>
</mask>
<g mask="url(#mask1)">
<path d="M51.0887 135.569L29.2825 -17.0745L195.085 -0.155804L195.085 153.616L51.0887 135.569Z" fill="#29193E"/>
</g>
<path d="M34.1208 181.965C51.9407 199.086 101.098 192.546 101.511 176.354L110.612 173.732C106.446 201.31 64.622 205.287 34.6468 192.769C35.8567 222.425 -6.13885 233.178 2.60518 210.872C11.6757 187.733 21.4975 167.694 34.1208 181.965Z" fill="#64CD6E" stroke="black" stroke-width="2.16043"/>
<path d="M118.264 175.649C121.389 170.846 130.158 112.478 134.152 83.8941C141.557 77.0443 135.658 71.8678 131.782 70.1358L126.141 60.4988C111.937 48.9387 63.9229 53.3942 50.9508 61.4016C50.2657 62.0049 47.8644 65.2088 45.8512 73.0905C36.1484 75.3982 41.4973 84.1973 46.5078 85.9382C50.5217 115.306 60.216 175.336 66.8815 180.512C75.9214 185.441 114.358 181.653 118.264 175.649Z" fill="#64CD6E"/>
<path d="M134.152 83.8941C130.158 112.478 121.389 170.846 118.264 175.649C114.358 181.653 75.9214 185.441 66.8815 180.512C60.216 175.336 50.5217 115.306 46.5078 85.9382M134.152 83.8941C141.557 77.0443 135.658 71.8678 131.782 70.1358M134.152 83.8941C118.028 90.701 79.0353 100.394 46.5078 85.9382M46.5078 85.9382C41.4973 84.1973 36.1484 75.3982 45.8512 73.0905M45.8512 73.0905C47.8644 65.2088 50.2657 62.0049 50.9508 61.4016M45.8512 73.0905C46.8403 76.9045 49.3934 79.369 54.0218 81.2926C59.4886 83.5646 71.6743 85.638 79.4502 85.6054C85.3598 85.5807 97.1512 85.8664 106.891 83.9923C114.616 82.5059 125.751 79.7131 128.989 77.2625C131.579 75.3021 131.93 71.6945 131.782 70.1358M50.9508 61.4016C63.9229 53.3942 111.937 48.9387 126.141 60.4988M50.9508 61.4016C49.1229 68.9691 62.4816 71.0655 71.2354 72.235C82.0546 73.6805 128.648 68.626 126.141 60.4988M126.141 60.4988L131.782 70.1358" stroke="black" stroke-width="2.16043"/>
<path d="M116.566 176.011C117.037 174.808 118.39 165.813 121.577 153.986C91.7227 164.396 76.5159 158.311 60.3789 156.7C59.1936 155.763 59.9792 159.821 60.5628 160.445C63.2108 162.942 98.3441 164.668 111.227 162.168C113.725 161.353 113.571 168.346 110.826 174.017C95.7589 181.297 74.7951 179.061 66.5074 177.759C66.072 178.869 68.1193 180.528 69.9574 180.85C85.2582 183.537 111.236 180.364 116.566 176.011Z" fill="#488B4D"/>
<path d="M128.079 111.015L131.021 89.9667C131.312 87.8913 129.371 86.3084 127.346 86.9185C98.2843 95.6733 69.5374 94.2203 52.0156 87.3224C50.1034 86.5696 47.7707 88.3339 48.337 90.3132C48.5119 90.9246 48.9683 91.4615 49.551 91.7115C72.0541 101.368 101.375 97.6766 116.713 93.8046C118.719 93.2981 120.588 94.8731 120.314 96.9086L118.206 112.592C117.935 114.602 119.758 116.158 121.726 115.599L124.068 114.933C124.442 114.826 124.795 114.647 125.106 114.405L126.923 112.994C127.554 112.504 127.97 111.79 128.079 111.015Z" fill="#488B4D"/>
<path d="M137.093 233.832C124.202 214.378 91.6377 185.719 76.9672 173.822L68.5665 175.32C95.9378 199.763 116.854 219.334 139.797 249.915C143.948 255.448 166.236 234.172 170.813 223.669C175.39 213.166 159.337 197.99 137.093 233.832Z" fill="#64CD6E" stroke="black" stroke-width="2.16043"/>
<path d="M76.3035 170.121L80.3846 174.483L68.2201 176.672L65.1766 174.352L76.3035 170.121Z" fill="#64CD6E"/>
<path d="M71.2353 72.2354C82.0546 73.6808 128.648 68.6263 126.141 60.4991L131.782 70.1361C131.93 71.6948 131.579 75.3024 128.989 77.2629C125.751 79.7135 114.616 82.5062 106.891 83.9926C97.1512 85.8667 85.3598 85.581 79.4501 85.6058C71.6743 85.6383 59.4886 83.5649 54.0218 81.2929C49.3934 79.3693 46.8402 76.9048 45.8511 73.0909C46.351 70.4953 47.8601 64.85 50.5516 62.4199C51.0915 70.2844 65.5517 70.8916 71.2353 72.2354Z" fill="#428248" stroke="black" stroke-width="2.16043"/>
<path d="M45.8517 73.091C36.149 75.3987 41.4979 84.1978 46.5084 85.9387C79.0359 100.395 118.028 90.7015 134.153 83.8945C141.558 77.0448 135.658 71.8683 131.783 70.1362C131.931 71.695 131.579 75.3026 128.989 77.263C125.751 79.7136 114.616 82.5064 106.892 83.9927C97.1518 85.8669 85.3604 85.5811 79.4508 85.6059C71.6749 85.6385 59.4892 83.5651 54.0224 81.2931C49.394 79.3695 46.8408 76.905 45.8517 73.091Z" fill="#64CD6E" stroke="black" stroke-width="2.16043"/>
<path d="M126.141 60.4991C111.938 48.9389 63.9233 53.3945 50.9511 61.4019C49.1232 68.9694 62.482 71.0658 71.2357 72.2353C82.055 73.6808 128.648 68.6263 126.141 60.4991Z" fill="#64CD6E" stroke="black" stroke-width="2.16043"/>
<path d="M106.571 65.2675C124.489 61.8076 113.902 60.0325 106.09 59.6316C96.0607 58.9865 80.1921 58.1004 64.8626 60.7666C55.7942 62.3439 59.9398 64.8752 63.0485 65.3944C64.0678 65.6078 65.34 65.8334 66.8279 66.0511C75.3475 67.2975 90.9366 68.2866 106.571 65.2675Z" fill="#428248"/>
<path d="M106.571 65.2675C124.489 61.8076 113.902 60.0325 106.09 59.6316C96.0607 58.9865 80.1921 58.1004 64.8626 60.7666C55.7942 62.3439 59.9398 64.8752 63.0485 65.3944C64.0678 65.6078 65.34 65.8334 66.8279 66.0511M106.571 65.2675C90.9366 68.2866 75.3475 67.2975 66.8279 66.0511M106.571 65.2675C100.207 63.1091 83.3469 60.2442 66.8279 66.0511" stroke="black" stroke-width="2.16043"/>
<path d="M106.025 65.0779C90.3898 68.097 75.5933 67.1985 67.0737 65.952C83.5927 60.1451 99.6598 62.9195 106.025 65.0779Z" fill="#64CD6E" stroke="black" stroke-width="2.16043"/>
<path d="M125.268 150.32C128.907 136.02 135.353 107.237 131.147 107.669C129.161 119.072 95.784 121.042 78.2644 120.318C69.1384 119.941 50.886 117.494 49.9137 110.257C46.8758 112.462 51.1633 133.933 56.0555 153.931C66.5275 161.86 95.3689 159.948 107.713 158.207C115.353 157.13 122.693 152.454 125.268 150.32Z" fill="#F98548" stroke="black" stroke-width="2.16043"/>
<path d="M93.3827 124.377C93.4719 127.523 93.188 129.239 92.7791 130.135C92.5925 130.543 92.4098 130.714 92.2795 130.798C92.1419 130.887 91.9342 130.962 91.578 130.978C90.8685 131.009 90.0058 130.811 88.7952 130.534C88.6161 130.493 88.4294 130.45 88.2344 130.406C86.8294 130.088 85.1291 129.749 83.3157 129.89C81.5024 130.03 79.8287 130.631 78.4478 131.164C78.2562 131.238 78.0727 131.309 77.8967 131.378C76.7071 131.842 75.8594 132.172 75.1512 132.25C74.7957 132.289 74.5846 132.247 74.4427 132.18C74.3081 132.116 74.1166 131.975 73.9077 131.596C73.4499 130.768 73.0702 129.104 72.981 125.957C72.8058 119.778 73.9117 114.153 75.7784 110.067C77.6831 105.897 80.1659 103.729 82.5689 103.543C84.9719 103.357 87.5665 105.131 89.6987 108.988C91.7883 112.768 93.2076 118.198 93.3827 124.377Z" fill="white" stroke="black" stroke-width="2.70053"/>
<mask id="mask4" mask-type="alpha" maskUnits="userSpaceOnUse" x="71" y="102" width="24" height="32">
<path d="M93.3827 124.377C93.4719 127.523 93.188 129.239 92.7791 130.135C92.5925 130.543 92.4098 130.714 92.2795 130.798C92.1419 130.887 91.9342 130.962 91.578 130.978C90.8685 131.009 90.0058 130.811 88.7952 130.534C88.6161 130.493 88.4294 130.45 88.2344 130.406C86.8294 130.088 85.1291 129.749 83.3157 129.89C81.5024 130.03 79.8287 130.631 78.4478 131.164C78.2562 131.238 78.0727 131.309 77.8967 131.378C76.7071 131.842 75.8594 132.172 75.1512 132.25C74.7957 132.289 74.5846 132.247 74.4427 132.18C74.3081 132.116 74.1166 131.975 73.9077 131.596C73.4499 130.768 73.0702 129.104 72.981 125.957C72.8058 119.778 73.9117 114.153 75.7784 110.067C77.6831 105.897 80.1659 103.729 82.5689 103.543C84.9719 103.357 87.5665 105.131 89.6987 108.988C91.7883 112.768 93.2076 118.198 93.3827 124.377Z" fill="white" stroke="black" stroke-width="2.70053"/>
</mask>
<g mask="url(#mask4)">
<path fill-rule="evenodd" clip-rule="evenodd" d="M83.3416 134.71C87.1344 134.416 90.0771 129.521 89.9142 123.777C89.7514 118.033 86.5447 113.614 82.7519 113.908C79.6268 114.15 77.0789 117.516 76.3696 121.906L81.2853 124.288L76.4748 127.452C77.3703 131.864 80.1482 134.957 83.3416 134.71Z" fill="black"/>
</g>
<path d="M123.462 122.047C123.551 125.193 123.267 126.909 122.859 127.805C122.672 128.213 122.489 128.384 122.359 128.468C122.221 128.557 122.014 128.632 121.657 128.648C120.948 128.679 120.085 128.481 118.875 128.204C118.696 128.163 118.509 128.12 118.314 128.076C116.909 127.758 115.209 127.419 113.395 127.56C111.582 127.7 109.908 128.3 108.527 128.834C108.336 128.908 108.152 128.979 107.976 129.048C106.787 129.512 105.939 129.842 105.231 129.92C104.875 129.959 104.664 129.917 104.522 129.849C104.388 129.786 104.196 129.645 103.987 129.266C103.529 128.438 103.15 126.774 103.06 123.627C102.885 117.448 103.991 111.823 105.858 107.737C107.763 103.567 110.245 101.399 112.648 101.213C115.051 101.027 117.646 102.801 119.778 106.658C121.868 110.438 123.287 115.868 123.462 122.047Z" fill="white" stroke="black" stroke-width="2.70053"/>
<mask id="mask5" mask-type="alpha" maskUnits="userSpaceOnUse" x="101" y="99" width="24" height="33">
<path d="M123.462 122.047C123.551 125.193 123.267 126.909 122.859 127.805C122.672 128.213 122.489 128.384 122.359 128.468C122.221 128.557 122.014 128.632 121.657 128.648C120.948 128.679 120.085 128.481 118.875 128.204C118.696 128.163 118.509 128.12 118.314 128.076C116.909 127.758 115.209 127.419 113.395 127.56C111.582 127.7 109.908 128.3 108.527 128.834C108.336 128.908 108.152 128.979 107.976 129.048C106.787 129.512 105.939 129.842 105.231 129.92C104.875 129.959 104.664 129.917 104.522 129.849C104.388 129.786 104.196 129.645 103.987 129.266C103.529 128.438 103.15 126.774 103.06 123.627C102.885 117.448 103.991 111.823 105.858 107.737C107.763 103.567 110.245 101.399 112.648 101.213C115.051 101.027 117.646 102.801 119.778 106.658C121.868 110.438 123.287 115.868 123.462 122.047Z" fill="white" stroke="black" stroke-width="2.70053"/>
</mask>
<g mask="url(#mask5)">
<path fill-rule="evenodd" clip-rule="evenodd" d="M113.421 132.38C117.214 132.086 120.157 127.191 119.994 121.447C119.831 115.703 116.624 111.284 112.831 111.578C109.706 111.82 107.158 115.186 106.449 119.576L111.365 121.958L106.554 125.122C107.45 129.534 110.228 132.627 113.421 132.38Z" fill="black"/>
</g>
<path d="M90.8188 89.9665C88.9189 93.7266 81.2812 88.2296 74.2149 94.1641C67.1485 100.099 63.9644 107.979 61.7943 105.361C60.8437 104.214 65.8015 98.4735 72.8679 92.539C79.9342 86.6045 89.8682 88.8197 90.8188 89.9665Z" fill="black"/>
<path d="M101.077 88.0892C102.996 91.6508 110.603 85.3616 117.698 90.5601C124.794 95.7586 128.018 103.306 130.174 100.463C131.118 99.2177 126.132 93.994 119.036 88.7955C111.941 83.597 102.021 86.844 101.077 88.0892Z" fill="black"/>
<path d="M119.746 149.1C120.419 172.539 106.733 159.915 97.2901 160.65C89.4448 161.261 74.9924 177.709 74.2721 152.64C74.0688 145.562 84.0836 139.032 96.6409 138.054C109.198 137.077 119.543 142.022 119.746 149.1Z" fill="black"/>
<path d="M107.536 157.138C108.494 163.871 103.196 159.402 97.8788 159.528C92.5616 159.654 88.0493 166.524 88.2806 157.593C88.3856 153.543 92.7809 150.157 98.0981 150.031C103.415 149.906 106.97 153.159 107.536 157.138Z" fill="#F98548"/>
</g>
<defs>
<clipPath id="clip0">
<rect width="189" height="252" fill="white"/>
</clipPath>
</defs>
</svg>
