<svg fill="none" height="97" viewBox="0 0 98 97" width="98" xmlns="http://www.w3.org/2000/svg" xmlns:xlink="http://www.w3.org/1999/xlink"><mask id="a" height="25" maskUnits="userSpaceOnUse" width="47" x="26" y="30"><path d="m69.6495 48.6389c-.0443.1439-.3272.5273-1.5512.7992-1.1361.2525-2.7608.3294-4.7907.2023-4.0438-.2531-9.4695-1.2998-15.3031-3.0961-5.8335-1.7962-10.9082-3.9828-14.394-6.0481-1.7498-1.0368-3.0499-2.0143-3.8472-2.8621-.859-.9133-.8772-1.3894-.8329-1.5333s.3272-.5272 1.5511-.7992c1.1361-.2524 2.7608-.3293 4.7908-.2022 4.0438.2531 9.4695 1.2998 15.303 3.096 5.8336 1.7963 10.9083 3.9828 14.394 6.0482 1.7499 1.0368 3.0499 2.0143 3.8473 2.862.8589.9134.8772 1.3894.8329 1.5333z" fill="#fdffff" stroke="#29193e" stroke-linejoin="round" stroke-width="2"/></mask><mask id="b" fill="#fff"><path d="m23.6565 57.8266c.053 1.3758.469 2.6199 1.1641 3.482.6951.8622 1.6179 1.2784 2.5826 1.1649.9648-.1134 1.8998-.7481 2.6171-1.7764s1.1636-2.3738 1.2491-3.7659c.0854-1.392-.1963-2.7272-.7884-3.737-.5922-1.0098-1.4509-1.6192-2.4034-1.7056-.9524-.0864-1.9279.3567-2.7302 1.24-.8024.8833-1.3719 2.1413-1.5941 3.521l3.7142.7353z" fill="#fff"/></mask><mask id="c" fill="#fff"><path d="m43.2669 64.7566c.053 1.3757.469 2.6199 1.1641 3.482.6952.8622 1.6179 1.2784 2.5827 1.1649.9647-.1135 1.8998-.7482 2.617-1.7765.7173-1.0283 1.1636-2.3738 1.2491-3.7658.0854-1.392-.1963-2.7273-.7884-3.7371-.5922-1.0097-1.4509-1.6191-2.4033-1.7055-.9525-.0864-1.928.3566-2.7303 1.2399-.8023.8834-1.3719 2.1414-1.5941 3.521l3.7142.7354z" fill="#fff"/></mask><path d="m75.3939 50.8072c-.2823.9449-1.1555 1.8226-2.8275 2.505-1.6613.6779-3.9606 1.0947-6.7724 1.2012-5.6132.2126-13.039-.8185-20.9262-3.1746s-14.6618-5.567-19.2386-8.8237c-2.2927-1.6313-3.9866-3.2409-5.0039-4.719-1.0238-1.4877-1.2724-2.7006-.9901-3.6455.2822-.9449 1.1554-1.8227 2.8274-2.505 1.6614-.678 3.9606-1.0947 6.7724-1.2012 5.6132-.2127 13.039.8185 20.9262 3.1746s14.6618 5.567 19.2386 8.8236c2.2927 1.6314 3.9866 3.241 5.0039 4.7191 1.0238 1.4876 1.2724 2.7006.9902 3.6455z" fill="#fcfcfc" stroke="#000" stroke-linejoin="round" stroke-width="2"/><path d="m71.0929 49.4175c-.0845.2744-.4848.7266-1.8028 1.0543-1.2483.3103-3.0219.4269-5.228.3185-4.3965-.2161-10.2806-1.3127-16.5939-3.2567-6.3133-1.9439-11.7952-4.3471-15.5518-6.6415-1.8849-1.1513-3.2857-2.2453-4.1432-3.2041-.9055-1.0123-.982-1.6113-.8975-1.8857s.4847-.7266 1.8027-1.0543c1.2483-.3104 3.0219-.4269 5.228-.3185 4.3965.216 10.2807 1.3127 16.594 3.2567 6.3133 1.9439 11.7951 4.3471 15.5517 6.6415 1.885 1.1513 3.2858 2.2453 4.1433 3.2041.9054 1.0123.982 1.6113.8975 1.8857z" fill="#fcfcfc" stroke="#000" stroke-linejoin="round" stroke-width="2"/><path d="m19.5 34.5c-21.89683 47.1899 43.3691 70.347 55.5 17.5-12.6677 9.4209-55.0547-5.6511-55.5-17.5z" fill="#fcfcfc" stroke="#000" stroke-linejoin="round" stroke-width="2"/><path d="m58.1939 78.2378c17.8135 9.3099 28.6464-19.1853 16.6491-22.6896-.4738 1.965-1.8559 5.6679-2.9912 7.8403 3.0217 2.6855.0468 8.7362-5.2062 8.2034-3.3919 4.0152-6.0291 5.3265-8.4517 6.6459z" fill="#fcfcfc" stroke="#000" stroke-linejoin="round" stroke-width="2"/><g mask="url(#a)"><path d="m47.7047 42.2133c-10.4304-.9616-13.7937-3.0628-20.8964-6.1165l.3545 11.3956 43.6196 15.3231 2.3244-12.1308c-8.0289-4.3601-11.2903-7.4948-25.4021-8.4714z" fill="#e55b42" stroke="#e55b42" stroke-linejoin="round" stroke-width="2"/></g><g stroke="#000" stroke-linejoin="round"><path d="m34.8208 71.7482c-.3602.8108-1.2741 1.1497-2.0175.8194-.7434-.3304-1.1044-1.2357-.7442-2.0464.0908-.2045.1667-.2671.1884-.2825.015-.0107.0443-.0294.1332-.0318.2479-.0068.6436.112 1.2934.4007.6499.2887 1.0032.5028 1.1644.6913.0577.0676.0635.1019.0656.1201.0031.0264.0075.1248-.0833.3292z" fill="#000" stroke-width="2"/><path d="m45.7704 13.803s8.0609 6.8026-3.066 13.2754-2.6589 12.4963-2.6589 12.4963" stroke-linecap="round" stroke-width="2"/><path d="m64.5905 15.8948s8.0609 6.8026-3.066 13.2754-2.6588 12.4963-2.6588 12.4963" stroke-linecap="round" stroke-width="2"/><path d="m54.9534 15.2833s8.0609 6.8027-3.066 13.2754c-11.1269 6.4728-2.6589 12.4964-2.6589 12.4964" stroke-linecap="round" stroke-width="2"/><path d="m31.1901 57.1778c-.2341 2.3414-1.1352 4.3504-2.354 5.7115-1.2194 1.3616-2.6988 2.0243-4.1508 1.8762-1.4521-.1482-2.7705-1.0963-3.6956-2.6766-.9247-1.5797-1.4099-3.7301-1.1758-6.0716.2341-2.3414 1.1353-4.3504 2.3541-5.7114 1.2193-1.3616 2.6987-2.0243 4.1508-1.8762s2.7704 1.0962 3.6955 2.6766c.9248 1.5797 1.41 3.7301 1.1758 6.0715z" fill="#fff" stroke-width="2"/><path d="m23.6565 57.8266c.053 1.3758.469 2.6199 1.1641 3.482.6951.8622 1.6179 1.2784 2.5826 1.1649.9648-.1134 1.8998-.7481 2.6171-1.7764s1.1636-2.3738 1.2491-3.7659c.0854-1.392-.1963-2.7272-.7884-3.737-.5922-1.0098-1.4509-1.6192-2.4034-1.7056-.9524-.0864-1.9279.3567-2.7302 1.24-.8024.8833-1.3719 2.1413-1.5941 3.521l3.7142.7353z" fill="#000" mask="url(#b)" stroke-width="4"/><path d="m50.8006 64.1078c-.2341 2.3414-1.1353 4.3504-2.3541 5.7114-1.2193 1.3616-2.6987 2.0243-4.1508 1.8762s-2.7704-1.0962-3.6955-2.6766c-.9248-1.5796-1.41-3.7301-1.1758-6.0715.2341-2.3414 1.1352-4.3504 2.354-5.7114 1.2194-1.3617 2.6988-2.0244 4.1509-1.8762 1.452.1481 2.7704 1.0962 3.6955 2.6765.9247 1.5797 1.4099 3.7301 1.1758 6.0716z" fill="#fff" stroke-width="2"/><path d="m43.2669 64.7566c.053 1.3757.469 2.6199 1.1641 3.482.6952.8622 1.6179 1.2784 2.5827 1.1649.9647-.1135 1.8998-.7482 2.617-1.7765.7173-1.0283 1.1636-2.3738 1.2491-3.7658.0854-1.392-.1963-2.7273-.7884-3.7371-.5922-1.0097-1.4509-1.6191-2.4033-1.7055-.9525-.0864-1.928.3566-2.7303 1.2399-.8023.8834-1.3719 2.1414-1.5941 3.521l3.7142.7354z" fill="#000" mask="url(#c)" stroke-width="4"/></g></svg>