<?xml version="1.0" encoding="utf-8"?>
<!-- Generator: Adobe Illustrator 22.1.0, SVG Export Plug-In . SVG Version: 6.00 Build 0)  -->
<svg version="1.1" id="Layer_1" xmlns="http://www.w3.org/2000/svg" xmlns:xlink="http://www.w3.org/1999/xlink" x="0px" y="0px"
	 viewBox="0 0 320 390" style="enable-background:new 0 0 320 390;" xml:space="preserve">
<style type="text/css">
	.st0{fill:#FFFFFF;}
	.st1{fill:url(#Bg_1_);}
	.st2{opacity:0.5;}
	.st3{opacity:0.5;fill:#80D8FF;enable-background:new    ;}
	.st4{opacity:0.4;fill:url(#Vector_2_1_);enable-background:new    ;}
	.st5{opacity:0.3;fill:#80D8FF;enable-background:new    ;}
	.st6{opacity:0.75;fill:#80D8FF;enable-background:new    ;}
	.st7{opacity:0.4;fill:#80D8FF;enable-background:new    ;}
	.st8{opacity:0.8;fill:#80D8FF;enable-background:new    ;}
	.st9{opacity:0.1;fill:#80D8FF;enable-background:new    ;}
	.st10{opacity:0.6;fill:#80D8FF;enable-background:new    ;}
	.st11{opacity:0.2;fill:#80D8FF;enable-background:new    ;}
	.st12{opacity:5.000000e-02;fill:#80D8FF;enable-background:new    ;}
	.st13{fill:#5B2D00;}
	.st14{fill:#3F1900;}
	.st15{fill:#632A00;}
	.st16{fill:#713C00;}
	.st17{fill:#006633;}
	.st18{fill:url(#Vector_120_1_);}
	.st19{fill:url(#Vector_121_1_);}
	.st20{fill:#00BD00;}
	.st21{fill:url(#Vector_123_1_);}
	.st22{fill:url(#Vector_124_1_);}
	.st23{fill:url(#Vector_125_1_);}
	.st24{fill:url(#Vector_126_1_);}
	.st25{fill:url(#Vector_127_1_);}
	.st26{fill:#7A2222;}
	.st27{fill:#932927;}
	.st28{opacity:0.4;fill:url(#Vector_130_1_);enable-background:new    ;}
	.st29{opacity:0.4;fill:url(#Vector_131_1_);enable-background:new    ;}
	.st30{opacity:0.4;fill:url(#Vector_132_1_);enable-background:new    ;}
	.st31{opacity:0.4;fill:url(#Vector_133_1_);enable-background:new    ;}
	.st32{opacity:0.4;fill:url(#Vector_134_1_);enable-background:new    ;}
	.st33{fill:#4F290D;}
	.st34{fill:#CC6F28;}
	.st35{fill:#123177;}
	.st36{fill:#303030;}
	.st37{fill:#262626;}
	.st38{fill:#C19874;}
	.st39{fill:#244F9B;}
	.st40{fill:#E5B789;}
	.st41{fill:#152B51;}
	.st42{fill:#CECECE;}
	.st43{fill:#66CCCC;}
	.st44{fill:#183054;}
	.st45{fill:#A87343;}
	.st46{fill:#1FA046;}
	.st47{fill:#A08D80;}
	.st48{fill:#C4C5C6;}
	.st49{fill:#20396E;}
	.st50{fill:#E2D6CF;}
	.st51{fill:#1C0F0A;}
	.st52{fill:#915E39;}
	.st53{fill:#663333;}
	.st54{fill:#B7A497;}
	.st55{fill:#1D264F;}
	.st56{fill:#2D4891;}
	.st57{fill:#333399;}
	.st58{fill:#5FFBFF;}
	.st59{fill:#58BDF4;}
	.st60{fill:#56E8E4;}
	.st61{fill:#33D1A0;}
	.st62{opacity:0.5;fill:#FFFFFF;enable-background:new    ;}
	.st63{fill:#602626;}
	.st64{fill:#774444;}
	.st65{fill:#141414;}
	.st66{fill:#444444;}
	.st67{fill:#0AE20F;}
	.st68{fill:#C42A2A;}
	.st69{fill:#FFE05F;}
	.st70{fill:#81D35B;}
	.st71{fill-opacity:0.1;}
	.st72{fill:#FFFFFF;filter:url(#Adobe_OpacityMaskFilter);}
	.st73{mask:url(#mask0_1_);}
</style>
<g id="Event_Card">
	<g id="Rectangle_6">
		<path class="st0" d="M40.1,1.1h240c21,0,38,17,38,38v311c0,21-17,38-38,38h-240c-21,0-38-17-38-38v-311
			C2.1,18.1,19.1,1.1,40.1,1.1z"/>
	</g>
	<g id="Object">
		
			<linearGradient id="Bg_1_" gradientUnits="userSpaceOnUse" x1="-43.1662" y1="139.6131" x2="363.3018" y2="359.0001" gradientTransform="matrix(1 0 0 -1 0 443.9029)">
			<stop  offset="0" style="stop-color:#2F5F8E"/>
			<stop  offset="0.9948" style="stop-color:#3399FF"/>
		</linearGradient>
		<path id="Bg" class="st1" d="M40.1,1.1h240c21,0,38,17,38,38v311c0,21-17,38-38,38h-240c-21,0-38-17-38-38v-311
			C2.1,18.1,19.1,1.1,40.1,1.1z"/>
		<g id="decaf2019_hero">
			<g id="deco">
				<g id="foundation_glow" class="st2">
					<path id="Vector" class="st3" d="M163,366.9c57.1,0,103.3-23,103.3-51.3c0-28.3-46.3-51.3-103.3-51.3
						c-57.1,0-103.3,23-103.3,51.3C59.6,343.9,105.9,366.9,163,366.9z"/>
					
						<linearGradient id="Vector_2_1_" gradientUnits="userSpaceOnUse" x1="160.6543" y1="408.4012" x2="160.6543" y2="77.1575" gradientTransform="matrix(1 0 0 -1 0 443.9029)">
						<stop  offset="0" style="stop-color:#FFFFFF;stop-opacity:1.000000e-02"/>
						<stop  offset="0.1505" style="stop-color:#FFFFF7;stop-opacity:0.159"/>
						<stop  offset="0.3835" style="stop-color:#FFFFE1;stop-opacity:0.3897"/>
						<stop  offset="0.6699" style="stop-color:#FFFFBE;stop-opacity:0.6732"/>
						<stop  offset="0.9961" style="stop-color:#FFFF8D;stop-opacity:0.9961"/>
						<stop  offset="1" style="stop-color:#FFFF8C"/>
					</linearGradient>
					<path id="Vector_2" class="st4" d="M41.5,35.5l17.6,280.2c0,0-1.5,22.1,32.4,37.2c15.4,6.9,38.4,13.8,71.8,13.8
						c33.4,0,57.7-8.3,72.9-15.1c33.5-15.1,29.7-35.9,29.7-35.9l14-280.2L41.5,35.5z"/>
				</g>
				<g id="rectangles" class="st2">
					<path id="Vector_3" class="st5" d="M68,206.9h-6.8v27.8H68V206.9z"/>
					<path id="Vector_4" class="st5" d="M73,236.6h-3.1v21.7H73V236.6z"/>
					<path id="Vector_5" class="st3" d="M43.3,251.4h-1.9v17.3h1.9V251.4z"/>
					<path id="Vector_6" class="st3" d="M58.8,224.8h-7.4v26.6h7.4V224.8z"/>
					<path id="Vector_7" class="st3" d="M48.9,244.6h-3.7v18.6h3.7V244.6z"/>
					<path id="Vector_8" class="st3" d="M43.3,231h-1.2v16.1h1.2V231z"/>
					<path id="Vector_9" class="st5" d="M246,23.1h-6.9v29.1h6.9V23.1z"/>
					<path id="Vector_10" class="st3" d="M252.4,38h-3v22.9h3V38z"/>
					<path id="Vector_11" class="st3" d="M264.2,29.9h-8.3v26h8.3V29.9z"/>
					<path id="Vector_12" class="st3" d="M266.5,41.7h-0.7v19.2h0.7V41.7z"/>
					<path id="Vector_13" class="st3" d="M271.8,46.6h-3v20.4h3V46.6z"/>
					<path id="Vector_14" class="st5" d="M237.3,219.3h-4.3v20.4h4.3V219.3z"/>
					<path id="Vector_15" class="st5" d="M242.2,223h-2.5v23.5h2.5V223z"/>
					<path id="Vector_16" class="st6" d="M255.8,216.8h-9.9v22.9h9.9V216.8z"/>
					<path id="Vector_17" class="st6" d="M265.7,224.2h-8v23.5h8V224.2z"/>
					<path id="Vector_18" class="st3" d="M271.9,212.4h-3.1v30.3h3.1V212.4z"/>
					<path id="Vector_19" class="st3" d="M276.4,232.2h-1.6v22.3h1.6V232.2z"/>
					<path id="Vector_20" class="st3" d="M276.5,206.9h-0.6v22.3h0.6V206.9z"/>
					<path id="Vector_21" class="st3" d="M83.5,138.8h-5.6v29.1h5.6V138.8z"/>
					<path id="Vector_22" class="st3" d="M75.1,134.5h-2.4v22.9h2.4V134.5z"/>
					<path id="Vector_23" class="st7" d="M69.9,135.7h-6.8v26h6.8V135.7z"/>
					<path id="Vector_24" class="st7" d="M61.3,130.2h-0.6v19.2h0.6V130.2z"/>
					<path id="Vector_25" class="st8" d="M58.8,122.1h-2.5v20.4h2.5V122.1z"/>
					<path id="Vector_26" class="st3" d="M91.5,149.3h-6.2v30.9h6.2V149.3z"/>
					<path id="Vector_27" class="st7" d="M66.2,106.7h-5.6v18.6h5.6V106.7z"/>
					<path id="Vector_28" class="st3" d="M267.5,62.7h-6.8v24.7h6.8V62.7z"/>
					<path id="Vector_29" class="st3" d="M276.2,81.9h-4.3v20.4h4.3V81.9z"/>
					<path id="Vector_30" class="st3" d="M55.1,260.1h-3.7v19.8h3.7V260.1z"/>
					<path id="Vector_31" class="st3" d="M64.3,266.9h-5.6v24.7h5.6V266.9z"/>
					<path id="Vector_32" class="st3" d="M263.8,252.7h-4.3V283h4.3V252.7z"/>
					<path id="Vector_33" class="st3" d="M271.9,250.2h-3.1v17.9h3.1V250.2z"/>
					<path id="Vector_34" class="st3" d="M268.8,250.2h-3.1v17.9h3.1V250.2z"/>
					<path id="Vector_35" class="st5" d="M91.5,182.7H86v29.1h5.6V182.7z"/>
					<path id="Vector_36" class="st3" d="M80.4,216.2h-5.6v30.3h5.6V216.2z"/>
					<path id="Vector_37" class="st3" d="M87.8,195.7h-3.1V218h3.1V195.7z"/>
					<path id="Vector_38" class="st3" d="M87.8,229.2h-3.1v14.2h3.1V229.2z"/>
					<path id="Vector_39" class="st5" d="M98.3,202.5h-6.8v19.8h6.8V202.5z"/>
					<path id="Vector_40" class="st9" d="M103.9,225.4h-6.8v33.4h6.8V225.4z"/>
					<path id="Vector_41" class="st3" d="M267.5,98h-8.6v21.7h8.6V98z"/>
					<path id="Vector_42" class="st3" d="M255.8,110.4h-4.9v19.2h4.9V110.4z"/>
					<path id="Vector_43" class="st3" d="M248.4,125.2h-4.3v16.7h4.3V125.2z"/>
					<path id="Vector_44" class="st3" d="M255.2,135.1h-3.1v16.7h3.1V135.1z"/>
					<path id="Vector_45" class="st7" d="M70.5,62.1H60v34h10.5V62.1z"/>
					<path id="Vector_46" class="st7" d="M78.5,78.8h-4.3V106h4.3V78.8z"/>
					<path id="Vector_47" class="st10" d="M80.4,47.3h-6.2v23.5h6.2V47.3z"/>
					<path id="Vector_48" class="st3" d="M249.6,146.2h-6.8V163h6.8V146.2z"/>
					<path id="Vector_49" class="st3" d="M235.4,167.9h-4.9v17.9h4.9V167.9z"/>
					<path id="Vector_50" class="st10" d="M205.8,188.9H199v27.8h6.8V188.9z"/>
					<path id="Vector_51" class="st3" d="M213.8,211.8h-5.6v13.6h5.6V211.8z"/>
					<path id="Vector_52" class="st3" d="M226.8,206.9h-4.3v13.6h4.3V206.9z"/>
					<path id="Vector_53" class="st7" d="M48.9,101.7h-7.4v15.5h7.4V101.7z"/>
					<path id="Vector_54" class="st3" d="M115.6,216.2h-4.9v23.5h4.9V216.2z"/>
					<path id="Vector_55" class="st3" d="M132.9,220.5h-3.7v14.2h3.7V220.5z"/>
					<path id="Vector_56" class="st3" d="M123,209.4h-4.3v15.5h4.3V209.4z"/>
					<path id="Vector_57" class="st5" d="M124.2,234.1h-3.7v13.6h3.7V234.1z"/>
					<path id="Vector_58" class="st5" d="M160.7,193.3h-4.9v18.6h4.9V193.3z"/>
					<path id="Vector_59" class="st3" d="M145.9,208.7h-3.1v13.6h3.1V208.7z"/>
					<path id="Vector_60" class="st3" d="M184.8,203.2h-4.3V218h4.3V203.2z"/>
					<path id="Vector_61" class="st3" d="M194,210h-1.9v15.5h1.9V210z"/>
					<path id="Vector_62" class="st8" d="M174.9,215.5h-4.3v14.2h4.3V215.5z"/>
					<path id="Vector_63" class="st11" d="M90.5,43.1h-6.1v32.5h6.1V43.1z"/>
					<path id="Vector_64" class="st9" d="M98,39.2h-3.6v24.1H98V39.2z"/>
					<path id="Vector_65" class="st11" d="M236.8,29.9h-6.9V59h6.9V29.9z"/>
					<path id="Vector_66" class="st9" d="M226.3,24.4H223V46h3.3V24.4z"/>
					<path id="Vector_67" class="st12" d="M104.8,44.2h-3.6v24.1h3.6V44.2z"/>
				</g>
			</g>
			<g id="coffee">
				<g id="XMLID_98">
					<g id="Group">
						<path id="Vector_68" class="st13" d="M132.4,278.5c0.4,1.9,0.2,4.1-1.3,5.4c-2.7,2.2-8.2,0.6-10.8-1.1c-0.8-0.5-1.5-1.1-2-1.9
							c-0.7-1.1-0.7-2.5-0.2-3.7c1.2-2.8,4.8-3,7.5-3.3c1.6-0.2,3.3-0.1,4.7,0.8C131.4,275.6,132.1,277,132.4,278.5z"/>
					</g>
				</g>
				<g id="XMLID_97">
					<g id="Group_2">
						<path id="Vector_69" class="st14" d="M211,285.6c-0.1,2-2.2,4.5-4.4,4.8c-2.3,0.3-5.6-1.5-7.2-3c-0.4-0.4-0.7-0.7-0.9-1.2
							c-0.1-0.6,0.1-1.1,0.2-1.6c0.2-0.4,0.3-0.9,0.5-1.4c0.7-2,6.1-1.6,8-1.2c1.1,0.2,2.1,0.6,2.8,1.2
							C210.6,283.8,211,284.7,211,285.6z"/>
					</g>
				</g>
				<g id="XMLID_96">
					<g id="Group_3">
						<path id="Vector_70" class="st14" d="M124.1,280.8c0.7,0.9,0.3,2.1-0.7,2.9c-1,0.8-2.3,1.2-3.8,1.6c-1.4,0.3-2.8,0.6-4.3,0.4
							c-1.1-0.1-4.1-1.1-4.3-1.7c-0.7-3,4.6-4.4,7.9-4.5C121,279.4,123.2,279.7,124.1,280.8z"/>
					</g>
				</g>
				<g id="XMLID_95">
					<g id="Group_4">
						<path id="Vector_71" class="st14" d="M129,280.1c0.6,0.4,1,0.9,1.3,1.6c-1.9-0.4-3.7-0.9-5.4-1.6c-1.6-0.7-3.6-1.7-4.2-3.5
							l0.2-0.1c0.6,0.1,1.1,0.1,1.6,0.2c0.4,0.1,0.9,0.1,1.4,0.2c0.7,0.2,1.4,0.6,2.1,1.1C127,278.7,128,279.3,129,280.1z"/>
					</g>
				</g>
				<g id="Layer_15">
					<g id="XMLID_106">
						<g id="Group_5">
							<path id="Vector_72" class="st13" d="M115.6,283.7c1,2,0.2,4.5-1.5,6c-1.6,1.5-3.9,2.1-6.1,2.5c-1.7,0.3-3.5,0.4-5.2,0.1
								c-1.7-0.3-3.4-1.2-4.4-2.6c-3.7-5.1,1.3-9.5,6.2-9.7C108.2,279.8,113.7,280.1,115.6,283.7z"/>
						</g>
					</g>
					<g id="XMLID_105">
						<g id="Group_6">
							<path id="Vector_73" class="st14" d="M108.9,284.3c1.2,0,4.3,0,5.1,0.9c-2.2,1.4-6.3,2.5-8.8,2.8c-0.5,0.1-1,0.1-1.5,0.1
								c-0.9-0.2-4.1-1.2-4.6-1.9C101.5,284.8,106,284.2,108.9,284.3z"/>
						</g>
					</g>
				</g>
				<g id="XMLID_94">
					<g id="Group_7">
						<path id="Vector_74" class="st13" d="M140.7,288c0.4,1.9-0.9,4.8-2.8,5.7c-2,0.9-5.2-0.1-6.9-1.1c-0.4-0.2-0.8-0.6-1-1
							c-0.2-0.5-0.2-1.1-0.2-1.7c0.1-0.5,0.1-1,0.1-1.5c0.2-2.2,4.9-3,6.6-3.1c0.9-0.1,2,0,2.8,0.5
							C140.1,286.4,140.5,287.2,140.7,288z"/>
					</g>
				</g>
				<g id="XMLID_93">
					<g id="Group_8">
						<path id="Vector_75" class="st15" d="M142.7,277.3c0.9,1.2,1.1,3.2,0.6,4.8c-0.6,1.5-1.7,2.7-2.9,3.3c-1.2,0.6-2.7,0.7-4,0.6
							c-1.1-0.1-2.3-0.4-3.2-1.2c-2.3-2.1-1.4-6,0.9-7.4c1.5-1,3.3-1.5,5.1-1.5C140.4,275.8,141.7,276.1,142.7,277.3z"/>
					</g>
				</g>
				<g id="XMLID_92">
					<g id="Group_9">
						<path id="Vector_76" class="st14" d="M117.3,294.4c0.4,5.5-7.3,8.4-11.4,5c-0.8-0.6-1.3-1.5-1.6-2.5c-0.5-1.5-0.6-3.2,0.1-4.6
							c0.7-1.5,2.3-2.4,3.8-2.8c2-0.7,4.2-0.4,6.1,0.5c0.6,0.2,1.2,0.6,1.6,1.1C116.8,291.8,117.2,293.1,117.3,294.4z"/>
					</g>
				</g>
				<g id="XMLID_91">
					<g id="Group_10">
						<path id="Vector_77" class="st14" d="M129.2,296.2c1.9-0.1,3,1.9,2.7,3.5c-0.2,1.3-1.1,2.5-2.2,3.2c-1.7,1.2-4,1.5-6,0.7
							c-1.1-0.4-1.5-0.7-1.6-1.9c-0.1-1.1,0.2-2.2,0.9-3c0.3-0.3,0.6-0.6,1-0.8C125.5,297.1,127.6,296.3,129.2,296.2z"/>
					</g>
				</g>
				<g id="XMLID_90">
					<g id="Group_11">
						<path id="Vector_78" class="st13" d="M102.1,303.8c0.9,0.7,1.8,1.9,1.7,3.1c-0.4,3.8-7.3,3.5-9.6,2.3
							c-2.9-1.6-5.2-5.6-1.1-7.1C95.9,301.2,100,302,102.1,303.8z"/>
					</g>
				</g>
				<g id="XMLID_89">
					<g id="Group_12">
						<path id="Vector_79" class="st13" d="M90,310.5c2.3,1,3.1,3.6,0.8,5c-1.2,0.7-2.7,1.2-4.1,1.2c-1.7,0.1-4.3-1.5-3.6-3.6
							c0.2-0.7,0.8-1.2,1.4-1.7C86,310.5,88.3,309.8,90,310.5z"/>
					</g>
				</g>
				<g id="XMLID_88">
					<g id="Group_13">
						<path id="Vector_80" class="st13" d="M102.1,314c0.1,0.5,0.1,1-0.1,1.5c-0.4,0.9-1.4,1.3-2.3,1.5c-2.8,0.7-5.3,0.9-7.1-1.9
							c-1.4-2.2-0.6-4.3,1.9-5c2.2-0.6,4.8-0.7,6.4,0.9C101.6,311.8,102,312.9,102.1,314z"/>
					</g>
				</g>
				<g id="XMLID_87">
					<g id="Group_14">
						<path id="Vector_81" class="st13" d="M106.4,294.1c0.7,1.5-0.1,3.5-1.4,4.5c-1.4,1.1-3.2,1.3-4.9,1.4c-2.5,0.1-8.1-1.9-5-5.4
							c1.4-1.5,4.3-2.5,6.3-2.6c0.9-0.1,1.9,0,2.8,0.3C105.1,292.6,106,293.2,106.4,294.1z"/>
					</g>
				</g>
				<g id="XMLID_86">
					<g id="Group_15">
						<path id="Vector_82" class="st14" d="M101.9,306.7c-1.2,0-2.4,0-3.6,0c-0.9,0-1.8,0-2.6-0.3c-1.3-0.5-1.9-1.5-3-2.2
							c0.6,0.4,2.2,0.1,2.9,0.1c1.1,0,2.1,0.2,3.2,0.6C99.9,305.4,100.9,306.1,101.9,306.7z"/>
					</g>
				</g>
				<g id="XMLID_85">
					<g id="Group_16">
						<path id="Vector_83" class="st14" d="M99.5,313.8c0.7,0.2,1.4,0.5,1.7,1.1c-1.1-0.4-2.2-0.6-3.3-0.7c-0.9-0.1-1.9-0.1-2.7-0.5
							c-0.7-0.4-0.8-1.1-1.5-1.5c0.9,0.1,1.6,0.2,2.5,0.5C97.3,313,98.4,313.4,99.5,313.8z"/>
					</g>
				</g>
				<g id="XMLID_84">
					<g id="Group_17">
						<path id="Vector_84" class="st14" d="M89.3,312.1c0.3,0,1.4,0.4,1.7,0.3c-1.1,0.5-2.1,0.9-3.2,1.2c-0.7,0-1.4,0.3-2.2,0.2
							c-0.6-0.1-1.1-0.2-1.7-0.2c0.9-0.9,2.2-1.3,3.4-1.5C87.9,312.1,88.6,312,89.3,312.1z"/>
					</g>
				</g>
				<g id="XMLID_83">
					<g id="Group_18">
						<path id="Vector_85" class="st13" d="M120.1,316.3c0,1.1-0.5,2.2-1.3,2.8c-0.4,0.3-0.9,0.6-1.4,0.7c-0.9,0.3-2,0.4-3,0.5
							c-2.3,0.2-8.3,0.1-8.8-3.2c-0.5-3.3,3.9-4.1,6.2-4.3C114.7,312.7,120,312.4,120.1,316.3z"/>
					</g>
				</g>
				<g id="XMLID_82">
					<g id="Group_19">
						<path id="Vector_86" class="st14" d="M115,315.1c0.9,0.1,1.9,0.2,2.5,0.9c0,0-4.8,0.9-5.4,0.8c-1.4-0.2-3-0.6-4.3-1.1
							C109.9,314.5,112.5,315,115,315.1z"/>
					</g>
				</g>
				<g id="XMLID_81">
					<g id="Group_20">
						<path id="Vector_87" class="st14" d="M118.5,303.8c0.2,1.4-2.7,1.8-2.8,0.1C115.5,302,118.3,302.6,118.5,303.8z"/>
					</g>
				</g>
				<g id="XMLID_78">
					<g id="Group_21">
						<path id="Vector_88" class="st13" d="M112.5,305.1c1.5,1.1-1,2.8-1.7,1.3C110.2,305.1,111.5,304.3,112.5,305.1z"/>
					</g>
				</g>
				<g id="XMLID_77">
					<g id="Group_22">
						<path id="Vector_89" class="st14" d="M116.3,307.5c1.4-1.9,4.1,0.7,2.1,1.7c-0.3,0.2-0.7,0.2-1,0.1
							C116.7,309.2,115.8,308.2,116.3,307.5z"/>
					</g>
				</g>
				<g id="XMLID_73">
					<g id="Group_23">
						<path id="Vector_90" class="st14" d="M80.3,303c0.2,0.5-0.1,1.1-0.4,1.4c-0.6,0.7-1.9,1.5-2.8,1.2
							C74,304.5,79.3,300.5,80.3,303z"/>
					</g>
				</g>
				<g id="XMLID_72">
					<g id="Group_24">
						<path id="Vector_91" class="st13" d="M106.6,320.7c1,1.2-0.9,2.4-2,1.9C102.6,321.5,105.7,319.5,106.6,320.7z"/>
					</g>
				</g>
				<g id="XMLID_71">
					<g id="Group_25">
						<path id="Vector_92" class="st14" d="M83.2,300.7c1.2-0.2,2.8,0.7,2.2,2c-0.6,1.2-1.9,1.1-3,0.6
							C81,302.6,82.1,300.9,83.2,300.7z"/>
					</g>
				</g>
				<g id="XMLID_70">
					<g id="Group_26">
						<path id="Vector_93" class="st14" d="M93.7,291c1.6,0,1.2,1.8-0.2,1.8c-0.7,0-1.4-1.1-0.7-1.5C93,291.1,93.4,291,93.7,291z"/>
					</g>
				</g>
				<g id="XMLID_69">
					<g id="Group_27">
						<path id="Vector_94" class="st14" d="M91.1,294.1c0.5-0.2,1.3,0.2,1.3,0.8c0,0.3-0.2,0.6-0.5,0.8c-0.7,0.5-1.4,0.1-1.4-0.7
							C90.6,294.6,90.8,294.2,91.1,294.1z"/>
					</g>
				</g>
				<g id="XMLID_68">
					<g id="Group_28">
						<path id="Vector_95" class="st13" d="M124.2,324.8c0.5,2.3-1.2,4.1-3.4,4.8c-1.2,0.3-2.4,0.3-3.6,0.2c-1.1-0.1-2.2-0.2-2.9-1
							c-0.1-0.1-0.2-0.3-0.3-0.5c-0.1-0.2,0-0.4,0.1-0.6c0.9-3,4.1-5.1,7.2-5c0.8,0,1.7,0.2,2.3,0.8
							C123.9,323.8,124.1,324.3,124.2,324.8z"/>
					</g>
				</g>
				<g id="XMLID_67">
					<g id="Group_29">
						<path id="Vector_96" class="st14" d="M122.9,324.4c-0.9,1.2-2,1.7-3.2,2.4c-0.4,0.2-0.8,0.6-1.2,0.7c-0.2,0.1-1.9,0-1.8-0.2
							c0.5-1,1.3-1.5,2.3-1.9C119.7,325.1,122.7,324.8,122.9,324.4z"/>
					</g>
				</g>
				<g id="XMLID_66">
					<g id="Group_30">
						<path id="Vector_97" class="st13" d="M207.6,292.2c0.3,0.6,0.5,1.1,0.4,1.7c-0.2,1.2-1.7,1.7-2.9,1.9c-2.5,0.2-5.8-0.4-7-3
							c-1.8-3.7,2-4.5,4.9-4C204.8,289.2,206.6,290.4,207.6,292.2z"/>
					</g>
				</g>
				<g id="XMLID_65">
					<g id="Group_31">
						<path id="Vector_98" class="st14" d="M206.1,292.9c-2.1,0.6-5.3,0.2-6.6-1.7C202.1,291.1,204.3,290.6,206.1,292.9z"/>
					</g>
				</g>
				<g id="XMLID_64">
					<g id="Group_32">
						<path id="Vector_99" class="st13" d="M224.5,309.2c0.1,5.1-7.7,3.3-10.9,2.6c-0.4-0.1-1-0.2-1.2-0.7c-0.2-0.3-0.2-0.7-0.1-1.1
							c0.1-0.7,0.1-1.4,0.4-2c0.5-1.1,1.6-1.4,2.7-1.8c1.9-0.7,3.9-0.9,5.8-0.6c1.2,0.2,2.5,0.7,3.1,1.9
							C224.4,308,224.5,308.7,224.5,309.2z"/>
					</g>
				</g>
				<g id="XMLID_63">
					<g id="Group_33">
						<path id="Vector_100" class="st14" d="M216.8,307.7c2-0.7,4.1-0.9,6.2-0.8c-2.5,1.5-5.4,2.5-8.3,2.5c-0.2,0-0.4-0.2-0.3-0.3
							l0.1-0.1C215.1,308.3,216,308,216.8,307.7z"/>
					</g>
				</g>
				<g id="XMLID_62">
					<g id="Group_34">
						<path id="Vector_101" class="st14" d="M211.9,297.8c0.6,3.2-4.4,3.8-4.9,0.7C206.5,295.5,211.3,294.7,211.9,297.8z"/>
					</g>
				</g>
				<g id="XMLID_61">
					<g id="Group_35">
						<path id="Vector_102" class="st13" d="M214.7,291.8c0.3,0.4,0.3,1.1,0.1,1.5c-0.4,1.4-2,2.7-3.5,2.3c-0.9-0.3-1.6-1.2-1.7-2.1
							c-0.4-2.5,2.3-3.3,4.3-2.4C214.2,291.3,214.5,291.5,214.7,291.8z"/>
					</g>
				</g>
				<g id="XMLID_58">
					<g id="Group_36">
						<path id="Vector_103" class="st16" d="M213.4,299.3c1.5-1.9,4.4,0.1,2.4,2C214.4,302.8,212.1,300.9,213.4,299.3z"/>
					</g>
				</g>
				<g id="XMLID_57">
					<g id="Group_37">
						<path id="Vector_104" class="st15" d="M219.2,321.8c1.4-0.7,3.4,0.1,1.9,1.6C219.4,325.2,217.4,322.7,219.2,321.8z"/>
					</g>
				</g>
				<g id="XMLID_56">
					<g id="Group_38">
						<path id="Vector_105" class="st13" d="M200.8,282.2c0.7,1.4,0.4,3.2-0.6,4.5c-1,1.2-2.6,1.9-4.1,2.1c-1.3,0.2-2.7,0-3.8-0.7
							c-1.1-0.7-2.5-2-2-3.3c0.8-1.9,2.4-3.7,4.4-4.3c1.1-0.3,2.3-0.4,3.4-0.2C199.3,280.5,200.3,281.2,200.8,282.2z"/>
					</g>
				</g>
				<g id="XMLID_14">
					<g id="Group_39">
						<path id="Vector_106" class="st14" d="M190.9,284.6c2.7-2.2,8.5-2.2,8.5-2.2S193.3,285.4,190.9,284.6z"/>
					</g>
				</g>
				<g id="XMLID_13">
					<g id="Group_40">
						<path id="Vector_107" class="st14" d="M107.4,318.4c0.6,1.4-2.7,1.9-3.3,0.7C102.9,317.2,106.6,316.6,107.4,318.4z"/>
					</g>
				</g>
				<g id="Group_41">
					<path id="Vector_108" class="st15" d="M112.6,324.4c2.5,0.1,0-4.1-1.2-1.5c-0.1,0.3-0.1,0.6,0.1,0.9
						C111.7,324.1,112.1,324.4,112.6,324.4z"/>
				</g>
				<g id="XMLID_12">
					<g id="Group_42">
						<path id="Vector_109" class="st14" d="M135.8,283c0.4,1.9-1,4.8-3.1,5.7c-2.2,0.9-5.8-0.1-7.7-1.1c-0.4-0.2-0.9-0.6-1.1-1
							c-0.2-0.5-0.2-1.1-0.2-1.7c0.1-0.5,0.1-1,0.1-1.5c0.2-2.2,5.5-3,7.4-3.1c1.1-0.1,2.2,0,3.1,0.5
							C135.1,281.4,135.6,282.2,135.8,283z"/>
					</g>
				</g>
				<g id="Layer_17">
					<g id="XMLID_60">
						<g id="Group_43">
							<path id="Vector_110" class="st13" d="M126.7,282.9c4.1,1.3,5.8,5.4,3.6,9.1c-2.1,3.5-6.4,5.8-10.4,5.4
								c-2.3-0.2-4.5-1.4-5.8-3.3c-1.2-1.8-2.2-4.8-1.1-6.8c0.8-1.5,2.2-2.6,3.8-3.3c1.1-0.4,2.1-0.7,3.2-1c0.6-0.1,1.2-0.2,1.8-0.2
								C123.4,282.5,125,282.4,126.7,282.9z"/>
						</g>
					</g>
					<g id="XMLID_59">
						<g id="Group_44">
							<path id="Vector_111" class="st14" d="M113.9,289.3c1.2-0.9,2.5-1.9,4.1-2.4c3.1-1,6.7-1.3,10.1-0.9c-2,1.1-4.4,1.9-6.9,2.4
								c-1.1,0.2-2.3,0.6-3.5,0.7c-0.7,0.1-1.4,0.1-2.2,0.1C115.5,289.3,114.1,289.2,113.9,289.3z"/>
						</g>
					</g>
				</g>
				<g id="XMLID_11">
					<g id="Group_45">
						<path id="Vector_112" class="st14" d="M201.2,289.6c0.4,1.9-1,4.8-3.1,5.7c-2.2,0.9-5.8-0.1-7.7-1.1c-0.4-0.2-0.9-0.6-1.1-1
							c-0.2-0.5-0.2-1.1-0.2-1.7c0.1-0.5,0.1-1,0.1-1.5c0.2-2.2,5.5-3,7.4-3.1c1.1-0.1,2.2,0,3.1,0.5
							C200.5,287.9,201,288.7,201.2,289.6z"/>
					</g>
				</g>
			</g>
			<g id="plant_1">
				<g id="plant">
					<g id="XMLID_118">
						<g id="Group_46">
							<path id="Vector_113" class="st17" d="M260.7,168.3c0.2,0.7-0.6,1.2-1.1,1.6c-3.6,2.2-7.5,3.8-11.2,5.6
								c-4.4,2.2-8.4,5.6-12.7,8.1c-8.4,4.8-19,7.6-28.7,7.2c-3.9-0.2-7.8-0.7-11.5-1.7c-2.5-0.7-7.4-1.8-8.9-4.1
								c-5-7.9,6.7-17.8,12.9-20.5c4.8-2,10-3.1,15.2-3.3c4.6-0.2,10.3-0.6,14.8,0c10.2,1.3,20.1,3.1,29.9,6.2
								C260,167.5,260.6,167.8,260.7,168.3z"/>
						</g>
					</g>
					<g id="Group_47">
						<path id="Vector_114" class="st17" d="M216.3,123.8c11.9-4.5,20.3-12.1,29-20.8c0.4-0.4,0.9-1.1,0.5-1.6
							c-0.2-0.3-0.7-0.3-1.2-0.3c-10.6,0.9-21.2-1.6-31.9-2c-9.9-0.4-20.4,2.2-28.2,8.5c-3.2,2.7-6.1,6.4-6.4,10.6
							c-0.4,4.9,2.7,6.9,7,8.5c4.9,1.8,10.6,0.9,15.6,0.6C206.1,126.9,211.3,125.6,216.3,123.8z"/>
					</g>
					<g id="Group_48">
						<path id="Vector_115" class="st17" d="M117.4,118.6c-12,0.4-23.8,4.7-34.6,9.5c-0.6,0.2-1.1,0.5-1.5,1
							c-0.4,0.4-0.6,1.2-0.3,1.7c0.3,0.6,1,0.7,1.5,0.9c9.6,2.2,19.1,6.1,27.9,11c3.3,1.8,6.4,3.8,9.9,5.3
							c4.9,2.1,10.4,2.9,15.7,2.5c5.2-0.4,9.8-1.7,14.1-4.6c3.4-2.2,4.6-7.9,2.5-11.3c-2.4-4-6.4-7.2-10.3-9.6
							C134.9,120.3,126,118.3,117.4,118.6z"/>
					</g>
					<g id="Group_49">
						<path id="Vector_116" class="st17" d="M146.3,184.6c6.4,4.2,12.6,13,7.4,20.5c-3.5,5.1-11.2,5.8-16.6,6.4
							c-5.7,0.7-11.6,0.1-17.2-1.3c-9.9-2.5-18.3-8.5-27.9-12.2c-6.2-2.4-12.6-4.3-19-6.1c-1.6-0.4-3.3-0.9-4.5-2
							c0.4-1.9,4-2.7,5.4-3.2c10.7-3.9,21.9-7.7,33.2-9.3C120.5,175.5,134.7,177,146.3,184.6z"/>
					</g>
					<g id="XMLID_117">
						<g id="Group_50">
							<path id="Vector_117" class="st17" d="M214,50.4c1,1.2-4.6,8.8-5.6,10.1c-3.1,4.1-6.5,7.8-10.3,11.3
								c-0.1,0.1-0.2,0.2-0.4,0.4c-4.8,4.5-10.3,8.2-16.5,10.2c-2.3,0.7-5,1.2-7.2,0.2c-7.4-3.4,1.2-15,4.3-18.3
								c7.5-7.7,16.7-10.4,26.8-12.7c2.3-0.5,4.5-1,6.8-1.5C212.7,49.9,213.6,49.8,214,50.4z"/>
						</g>
					</g>
					<g id="XMLID_116">
						<g id="Group_51">
							<path id="Vector_118" class="st17" d="M152.5,86.6c0.5,1.6,1.3,4.8-0.6,5.8c-1.5,0.7-4.4,0.5-6.1,0.6
								c-4.6,0.1-9.6-0.2-13.8-2.3c-4.3-2.1-7.4-5.8-10.3-9.5c-3.1-4.1-5.2-8.2-9.7-10.9c-0.2-0.1-0.4-0.3-0.6-0.6
								c-0.2-0.6,0.6-1,1.2-1.1c6.9-0.8,12.9-0.2,19.6,1.4c3.6,0.9,6.5,2.4,9.5,4.3c0.9,0.6,1.8,1.2,2.7,1.8
								C148.3,78.6,151.2,82.3,152.5,86.6z"/>
						</g>
					</g>
					<g id="XMLID_115">
						<g id="Group_52">
							<path id="Vector_119" class="st17" d="M158.5,38.7c5.9,8.1,8.8,18.5,7.7,28.5c-0.2,2.2-1.1,8.7-3,10.3
								c-2.1,1.8-3.6-2.2-5.1-4.1c-4.4-5.4-9-10.3-9-17.7c0-2.5,0.4-5.1,0.8-7.5c0.6-3.8,1.2-7.5,1.8-11.3c0.2-1.2,0.7-2.7,1.9-2.8
								c0.8-0.1,1.5,0.6,2,1.1C156.5,36.2,157.5,37.4,158.5,38.7z"/>
						</g>
					</g>
					<g id="XMLID_114">
						<g id="Group_53">
							
								<linearGradient id="Vector_120_1_" gradientUnits="userSpaceOnUse" x1="165.4284" y1="349.5793" x2="130.3071" y2="347.7713" gradientTransform="matrix(1 0 0 -1 0 443.9029)">
								<stop  offset="1.302080e-03" style="stop-color:#00BD00"/>
								<stop  offset="1" style="stop-color:#006633"/>
							</linearGradient>
							<path id="Vector_120" class="st18" d="M130.4,77.6c-1.2,0-1.2,1.2-0.6,1.9c0.6,0.6,2.5,1.9,8.2,4.3
								c6.9,2.9,13.4,7.4,18.2,13.2c1.7,2.1,3.2,4.3,4.7,6.6c0.7,1.1,5.4,9.3,5.4,9.3c0.5-2.4-1.5-8.8-1.6-11.3
								c-0.1-0.9-0.2-1.8-0.7-2.4c-6.4-7.7-6.4-7.8-13.4-12.4C143.5,82.2,131.7,77.6,130.4,77.6z"/>
						</g>
					</g>
					<g id="XMLID_113">
						<g id="Group_54">
							
								<linearGradient id="Vector_121_1_" gradientUnits="userSpaceOnUse" x1="167.1509" y1="361.613" x2="200.1579" y2="365.1971" gradientTransform="matrix(1 0 0 -1 0 443.9029)">
								<stop  offset="1.302080e-03" style="stop-color:#00BD00"/>
								<stop  offset="1" style="stop-color:#006633"/>
							</linearGradient>
							<path id="Vector_121" class="st19" d="M197.9,63.6c1.3,0.5,0.8,1.1-1.1,2c-2.2,1-1,0-5.3,2.5c-6.5,3.8-12.1,9.4-15.8,16
								c-1.3,2.4-2.5,4.8-3.6,7.2c-0.5,1.1-1,2.3-1.4,3.5c-0.1,0.3-1.3,2.7-1.3,2.8c-0.9-2.3-1.1-5.1-1.3-7.5
								c-0.1-0.9-0.1-1.8,0.3-2.5c5.1-8.6,5.1-8.7,11.3-14.4C185.8,67.4,196.6,63.1,197.9,63.6z"/>
						</g>
					</g>
					<g id="XMLID_112">
						<g id="Group_55">
							<path id="Vector_122" class="st20" d="M173,129c0.7,10.8,0.4,22.3,0.1,33.1c-0.5,14.5-2.5,28.7-3.7,43.1
								c-0.5,5.9-0.5,11.9-0.4,17.9c0,5.6,0.3,11.3,0.7,16.9c0.2,2.5,1.1,4.3-0.4,5.4c-1.2,0.9-4.2,0-5.6,0
								c-2.7,0-2.2-13.3-2.3-15.9c-0.2-7.3,0.2-14.6,0.9-21.8c1.1-11.4,3.5-22.4,4.9-33.7c1.4-10.3,1.4-21.1,0.9-31.6
								c-0.4-11.1-1.2-21.8-2.3-32.9c-0.6-5.8-1.6-11.4-2.1-17.1c-0.2-2.7-6.4-31.6-4.2-33.5c0.7-0.7,4.4,17.6,4.9,18.6
								c1.7,3.4,3.1,10.8,3.8,14.9C170.1,104.5,172.2,116.6,173,129z"/>
						</g>
					</g>
					<g id="XMLID_111">
						<g id="Group_56">
							
								<linearGradient id="Vector_123_1_" gradientUnits="userSpaceOnUse" x1="172.6566" y1="321.0161" x2="228.7803" y2="321.0161" gradientTransform="matrix(1 0 0 -1 0 443.9029)">
								<stop  offset="1.302080e-03" style="stop-color:#00BD00"/>
								<stop  offset="1" style="stop-color:#006633"/>
							</linearGradient>
							<path id="Vector_123" class="st21" d="M227.7,105.5c0.6,0,1.7,0.7,0.7,1.1c-0.9,0.4-1.9,0.6-2.9,0.7
								c-8.9,1.2-17.4,2.2-25.7,5.9c-6.9,3-14.5,8.4-18.8,14.5c-1.6,2.2-3,4.5-4.4,6.8c-0.6,1.1-1.2,2.2-1.8,3.3
								c-0.1,0.3-1.6,2.6-1.6,2.7c-0.6-2.4-0.5-5.2-0.5-7.6c0-0.9,0.1-1.8,0.6-2.5c6-8,14.3-14.6,23.4-18.7
								C206.2,107.1,217.2,105,227.7,105.5z"/>
						</g>
					</g>
					<g id="Group_57">
						
							<linearGradient id="Vector_124_1_" gradientUnits="userSpaceOnUse" x1="167.3201" y1="255.0795" x2="236.8976" y2="255.0795" gradientTransform="matrix(1 0 0 -1 0 443.9029)">
							<stop  offset="1.302080e-03" style="stop-color:#00BD00"/>
							<stop  offset="1" style="stop-color:#006633"/>
						</linearGradient>
						<path id="Vector_124" class="st22" d="M194.5,181.8c-5.9,3.1-11.6,6.7-16.4,11.4c-2.3,2.3-4.4,4.8-6,7.6
							c-1.3,2.4-2,5.1-3.3,7.6c-1-2.1-1.6-5.4-1.4-7.8c0.1-2,1.7-3.6,2.8-5.1c3.1-4.2,7.2-7.7,11.5-10.5c8.6-5.7,18-10,28-12.7
							c4.9-1.3,9.9-2.3,14.9-2.8c2.3-0.2,4.7-0.4,7-0.4c1.5,0,4.5-0.4,5.2,1.2c-2.4,1.1-6.2,0.9-8.8,1.2c-3.1,0.4-6.2,0.8-9.2,1.4
							C210.3,174.7,202.2,177.8,194.5,181.8z"/>
					</g>
					<g id="XMLID_110">
						<g id="Group_58">
							
								<linearGradient id="Vector_125_1_" gradientUnits="userSpaceOnUse" x1="103.909" y1="300.4148" x2="168.897" y2="300.4148" gradientTransform="matrix(1 0 0 -1 0 443.9029)">
								<stop  offset="0" style="stop-color:#006633"/>
								<stop  offset="1" style="stop-color:#00BD00"/>
							</linearGradient>
							<path id="Vector_125" class="st23" d="M168.6,151.7c0.3,2,0.4,4,0.2,6.1c-1.8-1.6-3-3.6-4.8-5.3c-1.9-1.7-3.8-3.3-5.9-4.7
								c-1.2-0.8-2.5-1.5-3.7-2.2c-2.1-1.2-4.2-2.4-6.2-3.6c-1.5-0.9-3.1-1.8-4.7-2.5c-2-0.9-4.2-1.7-6.3-2.3
								c-5.4-1.7-10.8-3.3-16.4-4.1c-3.4-0.6-6.8-0.7-10.2-1.1c-1.9-0.2-3.6-0.4-5.4-0.7c-0.5-0.1-1.1-0.2-1.2-0.7
								c-0.6-2.1,11.5-0.8,13-0.6c11.7,1.5,23.3,4.3,34,9.3c3.6,1.7,7,3.7,10.3,5.9C163.6,146.6,168.2,148.5,168.6,151.7z"/>
						</g>
					</g>
					<g id="Group_59">
						
							<linearGradient id="Vector_126_1_" gradientUnits="userSpaceOnUse" x1="104.5657" y1="243.058" x2="163.0926" y2="243.058" gradientTransform="matrix(1 0 0 -1 0 443.9029)">
							<stop  offset="0" style="stop-color:#006633"/>
							<stop  offset="1" style="stop-color:#00BD00"/>
						</linearGradient>
						<path id="Vector_126" class="st24" d="M155.6,200.6c2.5,1.4,4.8,3,6.5,4.9c1.8,2,0.9,5.9,0.3,8.2c-1.2-1.4-2-3-3.5-4.2
							c-1.4-1.2-2.9-2.5-4.4-3.6c-3-2.3-6.2-4.3-9.6-6.2c-2.3-1.3-4.8-2.4-7.3-3.3c-1.8-0.6-3.6-1.2-5.4-1.6
							c-8.3-2.2-16.7-3.6-25.3-4.7c-0.5-0.1-2.8-0.2-2.2-1.4c0.2-0.4,0.7-0.6,1.1-0.6c1.7-0.1,3.2-0.3,4.9-0.3
							c6.9,0.2,13.8,0.8,20.4,2.4c5.7,1.4,11.2,3.5,16.5,6.1C150.1,197.8,153,199.1,155.6,200.6z"/>
					</g>
					<g id="XMLID_107">
						<g id="Group_60">
							
								<linearGradient id="Vector_127_1_" gradientUnits="userSpaceOnUse" x1="150.7755" y1="341.927" x2="172.4866" y2="383.4344" gradientTransform="matrix(1 0 0 -1 0 443.9029)">
								<stop  offset="1.302080e-03" style="stop-color:#00BD00"/>
								<stop  offset="0.2309" style="stop-color:#00B902"/>
								<stop  offset="0.44" style="stop-color:#00AE09"/>
								<stop  offset="0.6411" style="stop-color:#009C13"/>
								<stop  offset="0.8361" style="stop-color:#008223"/>
								<stop  offset="1" style="stop-color:#006633"/>
							</linearGradient>
							<path id="Vector_127" class="st25" d="M157.6,52.8c1.1-0.8,3.1,9.3,3.1,9.3s3.7,13.6,4.9,18.6c1.2,4.9,2.5,11.1,3.1,15.5
								c0.6,4.3-3.1,13.6-3.1,13.6s-3.1-20.8-4.3-29.1C160.1,72.4,156.5,53.6,157.6,52.8z"/>
						</g>
					</g>
				</g>
				<g id="pot">
					<g id="XMLID_25">
						<g id="Group_61">
							<path id="Vector_128" class="st26" d="M199.2,248c-0.1,0-0.1,0-0.1,0c-0.4,0-0.8,0-1.2,0c-0.4,0-0.8,0-1.2,0
								c-0.1,0-0.1,0-0.1,0c-4.1,0-8.2,0.1-12.3,0.1c-7.7,0-15.4,0-23,0c-5.9,0-11.8,0-17.7,0c-3.5,0-6.9-0.1-10.4-0.1
								c-1.1,0-2.1-0.1-3.1-0.1c-0.6,0-1.1,0-1.5-0.4c-1.5-1.2-2-4.1-2.5-5.9c-0.4-1.5-0.9-3.2-1.2-4.7c-0.2-0.8-1.1-3.2-0.5-3.9
								c0.2-0.3,0.7-0.4,1.2-0.4c2.8-0.3,5.6-0.1,8.3-0.1c3.3,0,6.6,0.1,9.9,0.1c11.9,0,23.7,0,35.6,0c4.3,0,8.6-0.1,12.8-0.1
								c4.1-0.1,8,0.1,12-0.1c0.6,0,1.2-0.1,1.7,0.2c1.7,1,0.6,3.8,0.3,5.3c-0.5,2.8-1.9,5.6-3,8.2C202.4,248,201.1,248,199.2,248z"
								/>
							<path id="Vector_129" class="st27" d="M197.9,248c0.4,0,0.8,0,1.2,0c0.1,0,0.1,0,0.1,0c-3.3,18.1-8,53.6-9.4,55.9
								c-1.4,2.4-2.8,2.5-8,2.8c-8.3,0.6-24.1,0-32.2,0c-2,0-4.8,0-6.1-2c-1.4-2-6.9-38.3-10.3-56.7c3.5,0.1,6.9,0.1,10.4,0.1
								c5.9,0,11.8,0,17.7,0c7.7,0,15.4,0,23,0c4.1,0,8.2-0.1,12.3-0.1c0.1,0,0.1,0,0.1,0C197.1,248,197.6,248,197.9,248z"/>
						</g>
					</g>
				</g>
			</g>
			<g id="glows">
				
					<linearGradient id="Vector_130_1_" gradientUnits="userSpaceOnUse" x1="119.6865" y1="348.5125" x2="119.6865" y2="309.4734" gradientTransform="matrix(1 0 0 -1 0 443.9029)">
					<stop  offset="0" style="stop-color:#FFFFFF;stop-opacity:1.000000e-02"/>
					<stop  offset="0.1505" style="stop-color:#FFFFF7;stop-opacity:0.159"/>
					<stop  offset="0.3835" style="stop-color:#FFFFE1;stop-opacity:0.3897"/>
					<stop  offset="0.6699" style="stop-color:#FFFFBE;stop-opacity:0.6732"/>
					<stop  offset="0.9961" style="stop-color:#FFFF8D;stop-opacity:0.9961"/>
					<stop  offset="1" style="stop-color:#FFFF8C"/>
				</linearGradient>
				<path id="Vector_130" class="st28" d="M100.3,95.4l0.8,31.9c0,0-1.2,6.9,19.5,7.2c19.8,0,18.4-7.2,18.4-7.2l-0.6-31.1
					L100.3,95.4z"/>
				
					<linearGradient id="Vector_131_1_" gradientUnits="userSpaceOnUse" x1="213.9867" y1="369.3004" x2="213.9867" y2="331.1274" gradientTransform="matrix(1 0 0 -1 0 443.9029)">
					<stop  offset="0" style="stop-color:#FFFFFF;stop-opacity:1.000000e-02"/>
					<stop  offset="0.1505" style="stop-color:#FFFFF7;stop-opacity:0.159"/>
					<stop  offset="0.3835" style="stop-color:#FFFFE1;stop-opacity:0.3897"/>
					<stop  offset="0.6699" style="stop-color:#FFFFBE;stop-opacity:0.6732"/>
					<stop  offset="0.9961" style="stop-color:#FFFF8D;stop-opacity:0.9961"/>
					<stop  offset="1" style="stop-color:#FFFF8C"/>
				</linearGradient>
				<path id="Vector_131" class="st29" d="M199.5,75.2l-0.4,30.3c0,0-0.9,7.1,15.3,7.3c15.4,0,14.4-7.3,14.4-7.3l-0.3-30.9
					L199.5,75.2z"/>
				
					<linearGradient id="Vector_132_1_" gradientUnits="userSpaceOnUse" x1="116.6601" y1="287.3864" x2="116.6601" y2="249.2135" gradientTransform="matrix(1 0 0 -1 0 443.9029)">
					<stop  offset="0" style="stop-color:#FFFFFF;stop-opacity:1.000000e-02"/>
					<stop  offset="0.1505" style="stop-color:#FFFFF7;stop-opacity:0.159"/>
					<stop  offset="0.3835" style="stop-color:#FFFFE1;stop-opacity:0.3897"/>
					<stop  offset="0.6699" style="stop-color:#FFFFBE;stop-opacity:0.6732"/>
					<stop  offset="0.9961" style="stop-color:#FFFF8D;stop-opacity:0.9961"/>
					<stop  offset="1" style="stop-color:#FFFF8C"/>
				</linearGradient>
				<path id="Vector_132" class="st30" d="M96.1,156.5l0.8,31.8c0,0-1.2,6.2,20.8,6.4c21,0,19.6-6.4,19.6-6.4l-0.6-31.8H96.1
					L96.1,156.5z"/>
				
					<linearGradient id="Vector_133_1_" gradientUnits="userSpaceOnUse" x1="218.995" y1="307.9885" x2="218.995" y2="268.1454" gradientTransform="matrix(1 0 0 -1 0 443.9029)">
					<stop  offset="0" style="stop-color:#FFFFFF;stop-opacity:1.000000e-02"/>
					<stop  offset="0.1505" style="stop-color:#FFFFF7;stop-opacity:0.159"/>
					<stop  offset="0.3835" style="stop-color:#FFFFE1;stop-opacity:0.3897"/>
					<stop  offset="0.6699" style="stop-color:#FFFFBE;stop-opacity:0.6732"/>
					<stop  offset="0.9961" style="stop-color:#FFFF8D;stop-opacity:0.9961"/>
					<stop  offset="1" style="stop-color:#FFFF8C"/>
				</linearGradient>
				<path id="Vector_133" class="st31" d="M202.9,135.9l0.6,33.8c0,0-1,5.8,16.2,6c16.4,0,15.3-6,15.3-6l-0.3-33.8H202.9z"/>
				
					<linearGradient id="Vector_134_1_" gradientUnits="userSpaceOnUse" x1="164.9776" y1="191.2425" x2="164.9776" y2="110.6905" gradientTransform="matrix(1 0 0 -1 0 443.9029)">
					<stop  offset="0" style="stop-color:#FFFFFF;stop-opacity:1.000000e-02"/>
					<stop  offset="0.1505" style="stop-color:#FFFFF7;stop-opacity:0.159"/>
					<stop  offset="0.3835" style="stop-color:#FFFFE1;stop-opacity:0.3897"/>
					<stop  offset="0.6699" style="stop-color:#FFFFBE;stop-opacity:0.6732"/>
					<stop  offset="0.9961" style="stop-color:#FFFF8D;stop-opacity:0.9961"/>
					<stop  offset="1" style="stop-color:#FFFF8C"/>
				</linearGradient>
				<path id="Vector_134" class="st32" d="M114,252.7c0,0,9.3,55.4,10,60.1c0.7,4.6,6.7,20.5,42.7,20.5c35.9,0,40.6-17.1,41.9-21.8
					c1.3-4.6,7.4-57.5,7.4-57.5L114,252.7z"/>
			</g>
			<g id="people_1">
				<g id="XMLID_9">
					<g id="Group_62">
						<path id="Vector_135" class="st33" d="M193.4,312.2c0.6,1.4,0.2,3,0.7,4.5c-1,0.4-2.1,0.5-3.1,0.4l-0.6,0.1
							c-0.1-0.6-0.1-1.1-0.2-1.7h-0.1c0-0.2,0.1-0.7,0.1-1.4l0.4,0.1c0.9-0.2,1.7-0.4,2.6-0.7c0.1,0,0.1-0.1,0.2-0.1
							c0-0.1,0-0.1,0-0.1C193.4,312.8,193.4,312.5,193.4,312.2z"/>
						<path id="Vector_136" class="st34" d="M182.4,262.2c0-0.1-0.1-0.1-0.1-0.2c-0.5-1.1-0.9-2.4-1-3.7c-0.1-0.8,4.5,1.7,4.8,1.7
							c2,0.8,4.6,1.1,6.7,1.7c0.2,0.1,0.3,0.1,0.4,0.2c0.1,0.1,0.1,0.3,0.1,0.4c0,2.2-0.1,4.5-0.1,6.7c0,0.2,0,0.4-0.1,0.5
							c-0.1,0.1-0.2,0.2-0.4,0.3c-0.6,0.4-1.3,0.9-1.9,1.2c-0.1,0.1-0.2,0.1-0.2,0.1c-0.2,0.1-0.4,0.2-0.7,0.2
							c-0.2-0.1-0.2-0.2-0.4-0.3c-0.6-0.9-0.9-1.9-0.8-3c0.1-0.7,0.3-1.5-0.1-2c-0.2-0.4-0.6-0.6-0.9-0.7c-1.2-0.7-2.4-1.7-3.8-2
							c-0.4-0.1-0.7-0.1-1.1-0.3C182.7,262.8,182.5,262.5,182.4,262.2z"/>
						<path id="Vector_137" class="st35" d="M192.4,284.8c0.1-0.1,0.1-0.2,0.2-0.4l0.2,0.1c-0.1,3.8,0.6,7.3-0.1,10.8
							c-0.2,0.7-0.4,1.1-0.8,1.5c-0.4,0.4-0.8,0.6-1.3,0.8c-1.6,0.6-3.8,0.1-5.7,0.4c-0.4,0.1-0.7,0.1-1.1,0.2
							c-1.2-2.4-0.6-4.7-0.8-6.9l-0.1-0.4c0.4-0.1,0.7-0.1,1.1-0.3c0,0.1,0,0.1,0,0.1c0-0.1,0.6-0.3,1.2-0.7c0.5-0.2,1-0.6,1.5-0.8
							c0.9-0.4,1.6-0.9,1.8-1C190.3,287.4,191.5,286.3,192.4,284.8z"/>
						<path id="Vector_138" class="st36" d="M190.8,306.9c0.1-3.1-0.2-6.2-0.1-9.2c0.5-0.2,0.9-0.4,1.3-0.8l0.1,0.1
							c0.6,5.1,1.1,10.1,1.2,15.3c0,0.3,0,0.6,0,0.9c0,0.1,0,0.1,0,0.1c-0.1,0.1-0.1,0.1-0.2,0.1c-0.9,0.3-1.7,0.6-2.6,0.7l-0.4-0.1
							C190.4,311.7,190.8,307.4,190.8,306.9z"/>
						<path id="Vector_139" class="st37" d="M185.5,315.6c0.9-3.9,0.2-7.9-0.2-12c-0.2-1.9-0.3-3.8-0.2-5.6c1.9-0.3,4.1,0.2,5.7-0.4
							c-0.1,3.1,0.1,6.2,0.1,9.2c0,0.5-0.4,4.8-0.6,7.2c-0.1,0.7-0.1,1.2-0.1,1.4c0,0.1,0,0.1,0,0.1
							C188.5,315.5,187,315.6,185.5,315.6z"/>
						<path id="Vector_140" class="st33" d="M190.1,315.5C190.1,315.5,190.1,315.5,190.1,315.5L190.1,315.5c0.1,0.5,0.2,1.1,0.3,1.7
							c0.1,1.1,0.2,2.1,0.2,3.2v0.1h-0.1c-0.6,0.1-1.3,0.2-1.9,0.2c0-0.4-0.1-0.7-0.1-1.1c-0.2,0.1-0.3,0.4-0.4,0.7
							c-0.4,0.9-2.3,0.5-3.1,0.4c-0.3,0-3.6-0.4-3.7-0.4c0.3-1,0.7-2.1,1.6-2.6c0.8-0.4,2-0.5,2.3-1.4c0.1-0.2,0.1-0.5,0.2-0.7
							c0-0.1,0-0.1,0.1-0.1C187,315.6,188.5,315.5,190.1,315.5z"/>
						<path id="Vector_141" class="st38" d="M190.4,273c0.1,0.4,0.1,0.9,0.1,1.3v0.1c-0.2,0.1-0.4,0.1-0.6,0.2
							c-0.8,0.2-1.7,0.2-2.4,0.6c-0.2,0.1-0.5,0.2-0.7,0.3l-0.2-2.4c1.3,0.2,2.9,0.2,3.8-0.4L190.4,273z"/>
						<path id="Vector_142" class="st39" d="M187.1,289.4c-0.5,0.2-1,0.6-1.5,0.8l-0.1-0.1c-0.3-1-0.6-2-0.9-3l-0.1-0.1
							c0.8-0.7,1.5-1.4,2-2.2c0.2-0.4,0.4-0.7,0.7-1.2c0.6-1.2,1-3.2,2-4.2c0.4-0.4,1.1-0.6,1.7-0.4c0.6,0.2,1.1,0.7,1.4,1.3
							c0.1,0.2,0.2,0.5,0.4,0.7c0.2,0.4,0.4,0.8,0.4,1.2c0.1,0.7-0.2,1.4-0.6,2c-0.1,0.1-0.1,0.2-0.2,0.4c-0.9,1.5-2.2,2.5-3.5,3.6
							C188.7,288.5,188,289,187.1,289.4z"/>
						<path id="Vector_143" class="st0" d="M184.9,276c0.6-0.2,1.2-0.3,1.7-0.6c0.2-0.1,0.5-0.2,0.7-0.3c0.7-0.4,1.7-0.4,2.4-0.6
							c0.2-0.1,0.4-0.1,0.6-0.2c1.2-0.2,1.3,0.2,1.4,1.8c-0.8-0.6-4,0.1-4.8,0.4c-0.9,0.2-1.6,0.3-2,0.7l-0.1-0.1c0-0.3,0-0.6,0-0.9
							C184.9,276.1,184.9,276,184.9,276z"/>
						<path id="Vector_144" class="st39" d="M184.9,276.2c0,0.3,0,0.6,0,0.9l0.1,0.1c-0.3,0.2-0.5,0.7-0.5,1.4l0.1,0.2
							c-0.6,0.4-1.2,0.8-1.9,1.3c-0.6,0.4-1.1,0.8-1.8,1.1c-0.2,0.1-0.4,0.2-0.5,0.4c-0.1,0.2,0.1,0.5,0.2,0.7l-0.2,0.1
							c-2.3,0.8-4.8,1.5-7.2,1.9c-0.3-0.9-0.7-2.4-1.1-3.2l-0.1-0.1c2.2-1.3,4.9-2.5,7.2-3.3c0.9-0.3,1.9-0.6,2.9-0.9
							C183,276.5,184,276.4,184.9,276.2z"/>
						<path id="Vector_145" class="st35" d="M192.4,280.5c-0.4-0.6-0.8-1.1-1.4-1.3c-0.6-0.2-1.2,0-1.7,0.4c-1.1,1-1.4,2.9-2,4.2
							c-0.2,0.4-0.4,0.8-0.7,1.2c-0.1-2.3-0.4-4.6-1-6.9c-0.4,0.2-0.7,0.4-1.1,0.7l-0.1-0.2c0-0.7,0.2-1.1,0.5-1.4
							c0.4-0.4,1.2-0.6,2-0.7c0.9-0.2,4-0.9,4.8-0.4c0,0,0,0,0.1,0c0.6,0.5,0.6,3.5,0.7,4.3L192.4,280.5z"/>
						<path id="Vector_146" class="st0" d="M185.5,290.1C185.5,290.1,185.5,290.2,185.5,290.1l0.1,0.1c-0.7,0.4-1.2,0.6-1.2,0.7
							c0-0.1,0-0.1,0-0.1c0.1-0.9-0.4-1.7-0.7-2.5c0-0.1-0.1-0.1-0.1-0.2c0,0,0-0.1,0-0.1c0-0.1,0.1-0.2,0.2-0.3
							c0.2-0.2,0.5-0.4,0.7-0.6l0.1,0.1C184.9,288.1,185.2,289.1,185.5,290.1z"/>
						<path id="Vector_147" class="st40" d="M191,271.4c-0.1,0.6-0.3,1.1-0.7,1.3c-0.9,0.6-2.5,0.6-3.8,0.4
							c-0.7-0.1-1.3-0.2-1.7-0.4c-4.1-1.3-2.4-7.3-2.3-10.5c0.1,0.3,0.3,0.6,0.6,0.7c0.3,0.2,0.7,0.2,1.1,0.3c1.4,0.2,2.6,1.3,3.8,2
							c0.3,0.2,0.7,0.4,0.9,0.7c0.4,0.6,0.1,1.4,0.1,2c-0.1,1.1,0.2,2.1,0.8,3c0.1,0.1,0.2,0.2,0.4,0.3c0.2,0.1,0.5-0.1,0.7-0.2
							c0.1-0.1,0.2-0.1,0.2-0.1L191,271.4z"/>
						<path id="Vector_148" class="st41" d="M169.5,324.1c-0.1,0.1-0.1,0.1-0.2,0.2l-0.4-0.1c-0.5-6.1-1.5-12.2-1.9-18.4l-0.2-0.4
							l0.5-0.1c5-6.4,8.5-12.9,13.9-19.4h0.1c0.1,0.5,0.2,1.1,0.2,1.5v0.2c-0.1,0-0.2,0.1-0.2,0.1c-0.1,0.1-0.1,0.3-0.1,0.4
							c-0.1,1.2-0.1,2.7,1.5,2.8c0.2,0,0.3,0,0.5,0l0.1,0.4c0.2,2.2-0.4,4.5,0.8,6.9c0.3-0.1,0.7-0.2,1-0.2c-0.1,1.9,0,3.7,0.2,5.6
							l-0.5,0.1c-0.7,1.7-0.1,4-3,3.4c-0.6,1.7-0.6,5.3-3.5,4.6c0,0.1,0,0.1,0,0.1c0,1.2,0.5,2.9-0.7,4c-0.7,0.7-2,0.6-2.9,0.6
							c-0.1,1.1-0.5,2.4-0.9,3.5c-0.1,0.1-0.1,0.2-0.2,0.4c-0.3,0.2-0.8-0.1-1.2-0.1c-0.4-0.1-0.8,0.2-1,0.6
							c-0.2,0.3-0.4,0.7-0.6,1.1C170.5,322.6,170,323.4,169.5,324.1z"/>
						<path id="Vector_149" class="st42" d="M183.6,288c0,0.1,0,0.1,0,0.1c-0.2,0-0.5,0.1-0.7,0.2c-0.3,0.1-0.8,0.1-0.9-0.2
							c-0.1-0.1-0.1-0.3-0.2-0.4c-0.1,0-0.1-0.1-0.1-0.1v-0.2c-0.1-0.5-0.2-1.1-0.2-1.5c-0.1-0.2-0.1-0.6-0.1-0.8
							c-0.1-0.4-0.1-0.7-0.2-1.1c-0.1-0.5-0.1-1-0.3-1.5c0-0.1-0.1-0.2-0.1-0.3c-0.1-0.2-0.3-0.6-0.2-0.7c0.1-0.2,0.3-0.2,0.5-0.4
							c0.6-0.3,1.2-0.7,1.8-1.1c0.6-0.5,1.2-0.9,1.9-1.3c0.4-0.2,0.7-0.4,1.1-0.7c0.6,2.2,0.9,4.6,1,6.9c-0.6,0.8-1.2,1.5-2,2.2
							c-0.2,0.2-0.5,0.4-0.7,0.6C183.7,287.7,183.6,287.9,183.6,288z"/>
						<path id="Vector_150" class="st40" d="M183.7,288.2c0.3,0.8,0.7,1.6,0.7,2.5c-0.4,0.1-0.7,0.2-1.1,0.3c-0.2,0-0.3,0-0.5,0
							c-1.5-0.1-1.5-1.6-1.5-2.8c0-0.1,0-0.3,0.1-0.4c0.1-0.1,0.2-0.1,0.2-0.1c0.1,0,0.1,0,0.1,0.1c0.1,0.1,0.1,0.2,0.2,0.4
							c0.2,0.3,0.6,0.3,0.9,0.2C183.1,288.3,183.4,288.2,183.7,288.2C183.6,288.2,183.7,288.2,183.7,288.2z"/>
						<path id="Vector_151" class="st43" d="M174.4,287.4l-1.7,2.9h-5.9l2.2-3.1C170.6,287.2,172.7,287.4,174.4,287.4z"/>
						<path id="Vector_152" class="st0" d="M171.7,284.5c-0.2-0.9-0.7-2-0.9-2.8c0.4-0.2,0.7-0.5,1.1-0.7l0.1,0.1
							c0.4,0.8,0.7,2.3,1,3.2C172.7,284.3,172.2,284.4,171.7,284.5C171.8,284.5,171.7,284.5,171.7,284.5z"/>
						<path id="Vector_153" class="st40" d="M168.7,285.3c0.5-0.2,0.8-0.6,0.7-1.3c-0.1-0.4-0.2-0.9-0.6-1.3
							c-0.2-0.2-0.6-0.4-0.9-0.4c0.6-0.7,2.2-0.7,3-0.7c0.1,0.9,0.6,2,0.9,2.8c-0.2,0.2-0.4,0.3-0.7,0.4
							C170.3,285.3,169.5,285.4,168.7,285.3z"/>
						<path id="Vector_154" class="st44" d="M148,323.6c-0.2-0.9-0.2-1.9-0.3-2.8c-0.2-5,0.9-10-0.6-15.1l0.1-0.3c0.1,0,0.1,0,0.1,0
							c6.5,0,13,0,19.5,0l0.2,0.4c0.4,6.2,1.4,12.2,1.9,18.4l0.4,0.1c-0.2,0.2-0.4,0.4-0.7,0.4c-0.6,0.1-1-0.4-1.5-0.5
							c-1.4-0.3-2.2,1.5-3.8,0.9c-1-0.4-1.4-1.5-2.7-1.1c-0.7,0.2-1.2,1-2,1c-0.7,0-1.2-0.8-1.9-0.9c-1-0.2-1.7,1.2-2.7,1.1
							c-0.4-0.1-0.8-0.4-1.2-0.6c-1.5-1.1-3.2-0.2-4.6,0.7C148.1,324.7,148,324.2,148,323.6z"/>
						<path id="Vector_155" class="st45" d="M167.8,282.2c0.3,0.1,0.6,0.2,0.9,0.4c0.3,0.4,0.5,0.8,0.6,1.3c0.1,0.6-0.2,1.1-0.7,1.3
							c-0.2,0.1-0.5,0.2-0.8,0.4c-1,0.4-2.6,0.1-3.5-0.5h-0.2c-0.1-0.5-0.1-1.1-0.1-1.2c0-0.2,0-0.4,0.1-0.5h0.2
							c0.4-0.2,0.8-0.5,1.2-0.7c0.2-0.1,0.4-0.2,0.6-0.2c0.2-0.1,0.4-0.1,0.6-0.1C167,282.3,167.5,282.2,167.8,282.2z"/>
						<path id="Vector_156" class="st46" d="M166,293.2c-0.6-0.1-1.3-0.1-1.9-0.3c0.1-0.4,0.2-0.7,0.7-0.9c0.2-0.1,0.4,0,0.5,0
							c1.4,0.1,2.7,0.2,4.1,0.4c0.7,0.1,1.5,0.2,2,0.8c0.1,0.1-0.6,0.2-0.9,0.2c-0.1,0-0.2,0-0.2,0c-0.6,0-1.2,0-1.8-0.1
							C167.5,293.4,166.7,293.2,166,293.2z"/>
						<path id="Vector_157" class="st0" d="M162.8,294.5c0.7,1.1,1.4,2.2,2,3.2c0,0,0.1,0.1,0.1,0.1c0,0.1,0,0.1-0.1,0.1
							c-0.4,0.6-0.9,1.2-1.2,1.9c-0.1,0.2-0.9,1.4-1,1.3c-0.4-0.6-0.9-1-1.3-1.5c-0.2-0.2-0.4-0.6-0.7-0.9c-0.1-0.2-0.3-0.4-0.4-0.6
							c-0.1-0.1-0.1-0.2-0.1-0.3c-0.1-0.2,0.1-0.3,0.3-0.6C161.2,296.3,162,295.4,162.8,294.5z"/>
						<path id="Vector_158" class="st47" d="M161,286.3l0.1,0.3c-0.4,0.5-1.8,2.4-3.5,4.8c-0.1-1.4-0.3-2.7-0.7-4.1v-0.6
							C158.2,286.6,159.6,286.5,161,286.3z"/>
						<path id="Vector_159" class="st48" d="M160.6,298.8c0.2,0.3,0.4,0.6,0.7,0.9l-0.1,0.1c-0.4,0.6-0.9,1.1-1.4,1.5
							c0.1-1.1,0.2-2.2,0.1-3.4h0.1c0,0.1,0.1,0.2,0.1,0.3C160.3,298.3,160.5,298.6,160.6,298.8z"/>
						<path id="Vector_160" class="st49" d="M160.4,297.3c-0.2,0.2-0.3,0.4-0.3,0.6H160c0.1,1.1,0,2.3-0.1,3.4
							c0.4-0.5,0.9-1.1,1.4-1.5l0.1-0.1c0.4,0.5,0.9,1,1.3,1.5c0.1,0.1,0.9-1.2,1-1.3c0.3-0.7,0.8-1.2,1.2-1.9
							c0-0.1,0.1-0.1,0.1-0.1c0-0.1,0-0.1-0.1-0.1c-0.7-1.1-1.4-2.2-2-3.2C162,295.4,161.2,296.3,160.4,297.3z M164.4,285.7
							c-0.1,0-0.2-0.2-0.2-0.6h0.2c0.9,0.6,2.5,0.9,3.5,0.5c0.2-0.1,0.6-0.2,0.8-0.4v0.1c0.8,0.1,1.6-0.1,2.3-0.4l0.1,0.2
							c3.3,0,6.5,0,9.8,0l0.2-0.1c0.1,0.2,0.1,0.6,0.1,0.8h-0.1c-5.4,6.6-8.9,13-13.9,19.4l-0.5,0.1c-6.5,0-13,0-19.5,0v-0.1
							c0.2-0.4,1.5-2.1,3.1-4.4c2.1-2.8,4.8-6.6,7-9.5c1.8-2.4,3.2-4.3,3.5-4.8l-0.1-0.3C162.1,286.1,163.2,285.9,164.4,285.7z
							 M172.6,290.3l1.7-2.9c-1.7,0-3.7-0.2-5.4-0.2l-2.2,3.1H172.6z M170.4,293.4c0.4-0.1,1.1-0.2,0.9-0.2c-0.4-0.6-1.3-0.7-2-0.8
							c-1.4-0.1-2.7-0.2-4.1-0.4c-0.2,0-0.4-0.1-0.5,0c-0.4,0.1-0.6,0.5-0.7,0.9c0.6,0.2,1.3,0.2,1.9,0.3c0.8,0.1,1.5,0.1,2.3,0.2
							c0.6,0.1,1.2,0.1,1.8,0.1C170.1,293.5,170.3,293.5,170.4,293.4z"/>
						<path id="Vector_161" class="st50" d="M156.8,287.2c0.4,1.4,0.6,2.7,0.7,4.1c-2.2,3-4.9,6.7-7,9.5l-0.1-0.1
							c-1.1,0.2-1.9,1.2-3,1.6c-0.6,0.2-1.2,0.2-1.9,0.2c-0.1,0-0.3,0-0.5,0c-0.4,0-0.7-0.1-0.9-0.4c-0.1-0.2-0.1-0.4-0.1-0.7
							c0-1.5,0.1-2.8,0.4-4.3c0.7-5.2-1-10-1.4-15.1h0.1c0.1,0.5,0.2,1,0.4,1.4c0.5,0.9,1.4,1.4,2.3,1.7c1.7,0.6,3.6,0.8,5.4,1.1
							c1.4,0.2,2.7,0.3,4.1,0.4c0.4,0,0.9,0,1.4,0L156.8,287.2z"/>
						<path id="Vector_162" class="st50" d="M154.4,274.9c2,1.1,1.2,4.7,1.9,6.5v0.1c-0.3-0.1-0.6-0.2-0.8-0.4
							c-1.1-0.7-2-1.7-3.2-2.3c-1.1-0.6-2.3-0.9-3.6-1.1c-0.7-0.1-1.4-0.2-2.2-0.2c1-0.6,2.4-1.6,3.9-2.2
							C151.8,274.6,153.3,274.4,154.4,274.9z"/>
						<path id="Vector_163" class="st45" d="M152.2,264c0.1-0.1,0.1-0.2,0.2-0.2l0.4,0.1c0.7,2,1.1,7.2-0.6,8.7
							c-0.5,0.4-1.1,0.7-1.9,0.8c-1.5,0.2-3.2-0.2-4.5-0.8c-0.4-0.2-0.9-0.4-1.2-0.6l-0.1-0.1c0.1-0.1,0.2-0.1,0.4-0.2
							c1.1-0.7,0.6-2.6,1.4-3.7c0.3-0.4,0.8-0.7,1.3-1.1C149.3,266.1,151,265.5,152.2,264z"/>
						<path id="Vector_164" class="st51" d="M150.9,260.3c2.2,0.4,2.7,1.9,1.5,3.5c-0.1,0.1-0.1,0.2-0.2,0.2c-1.2,1.4-3,2.1-4.6,3
							c-0.5,0.2-1,0.6-1.3,1.1c-0.7,1.1-0.2,3-1.4,3.7c-0.1,0.1-0.2,0.1-0.4,0.2c-0.6,0.2-1.4,0.1-2,0.3c-1.8,0.5-2.2,2.8-2,4.8
							c0.2,1.9,0.5,4-0.8,5.4c-0.6,0.6-1.5,0.9-2.3,1.2c-1.4,0.5-3.4,0.7-4.1-0.6c-0.7-1.5,1-3,1.1-4.6c0.1-1.4-1.2-2.7-1.4-4.1
							c-0.3-1.9,1.2-3.7,2.9-4.6c0.9-0.6,4.7-1.7,5.1-2.7c0.5-1.4-1.5-1.3-2.2-2.1c-3.1-4.3,4.9-8.8,6.4-4.7
							c0.1,0.2,0.1,0.5,0.3,0.7c0.7,0.9,1.7-0.3,2.4-0.6c0.7-0.2,2-0.2,2.7-0.1C150.7,260.3,150.8,260.3,150.9,260.3z"/>
						<path id="Vector_165" class="st47" d="M153.4,274.2c3.8-0.4,4.3,5.5,5.3,8v0.1c-0.9-0.1-1.7-0.4-2.5-0.7v-0.1
							c-0.6-1.9,0.2-5.4-1.9-6.5c-1.2-0.6-2.6-0.3-4,0.3c0-0.1,0-0.2,0-0.2h0.2C151.3,274.4,152.5,274.3,153.4,274.2z"/>
						<path id="Vector_166" class="st52" d="M150.4,273.4c0,0.4,0,1.1,0,1.5c0,0.1,0,0.2,0,0.2c-1.5,0.6-2.9,1.6-3.9,2.2
							c-0.1,0-0.2,0-0.3,0c0-1.6,0.1-3.1-0.4-4.7l0.1-0.1C147.2,273.3,148.9,273.7,150.4,273.4z"/>
						<path id="Vector_167" class="st53" d="M148,323.6c-0.7,0-1.4-0.1-2-0.3c-0.1,0-0.2-0.1-0.2-0.1c-0.1-0.1-0.1-0.2-0.1-0.4
							c0-0.7,0-1.4,0.1-2c0.6,0,1.2,0,1.9,0h0.2C147.7,321.7,147.8,322.7,148,323.6z"/>
						<path id="Vector_168" class="st54" d="M146.5,277.5c0.7-0.1,1.4,0.1,2.2,0.2c1.2,0.2,2.5,0.5,3.6,1.1c1.2,0.6,2.1,1.6,3.2,2.3
							c0.2,0.2,0.6,0.3,0.8,0.4c0.8,0.4,1.6,0.6,2.5,0.7c1.5,0.2,3.1,0.2,4.7,0.4c0.7,0.1,0.8,0.4,0.7,0.8c0,0.1,0,0.3-0.1,0.5
							c0,0.1,0,0.7,0.1,1.2c0.1,0.3,0.1,0.6,0.2,0.6c-1.2,0.2-2.3,0.4-3.4,0.6c-1.4,0.2-2.8,0.4-4.2,0.4c-0.4,0-0.9,0-1.4,0
							c-1.4-0.1-2.7-0.2-4.1-0.4c-1.9-0.2-3.6-0.4-5.4-1.1c-0.9-0.3-1.9-0.8-2.3-1.7c-0.2-0.4-0.4-0.9-0.4-1.4
							c-0.1-1.7,0.6-3.8,2-4.5c0.3-0.1,0.6-0.2,0.9-0.2C146.3,277.5,146.4,277.5,146.5,277.5z"/>
						<path id="Vector_169" class="st55" d="M150.5,300.9c-1.7,2.2-2.9,4-3.2,4.4v0.1c-0.1,0-0.1,0-0.1,0l-0.1,0.3
							c1.4,5.2,0.3,10.1,0.6,15.1h-0.2c-0.6,0-1.2,0-1.9,0c-0.1,0-0.1,0-0.2,0c-0.1,0-0.2,0-0.2-0.1c-0.1-0.1-0.1-0.2-0.1-0.3
							c0.2-5.9,0.4-11.8,0-17.7c0.2,0,0.3,0,0.5,0c0.6,0,1.2-0.1,1.9-0.2c1.1-0.4,1.9-1.4,3-1.6H150.5L150.5,300.9z"/>
					</g>
				</g>
			</g>
			<g id="symbols">
				<g id="wrench">
					<g id="Group_63">
						<g id="XMLID_6">
							<g id="Group_64">
								<path id="Vector_170" class="st56" d="M227.2,142.5c0.1,0.2,0.1,0.4,0.1,0.6c0.1,0.4,0.1,0.8,0.2,1.2c0.1,1.4-0.1,3-0.7,4.6
									c-0.2,0.7-0.6,1.3-1,1.7c-0.6,0.6-1.2,1.1-2.1,1.4c-0.7,0.4-1.2,0.6-1.4,1.3c-0.2,0.9-0.2,1.8-0.3,2.7c0,0.3,0,0.6-0.1,0.9
									c-0.2,2.5-0.4,4.8-0.6,7.2c0,0.4-0.1,0.7-0.1,1.1c-0.1,0.4-0.1,0.9-0.1,1.4c0,0.6-0.1,1.2-0.7,1.6c-0.1,0.1-0.2,0.1-0.4,0.2
									c-0.2,0.1-0.6,0.1-0.9,0.1H219c-1,0-2,0-3-0.7c-0.6-0.6-0.5-1.5-0.4-2.4c0-0.1,0.1-0.3,0.1-0.4c0.1-1.5,0.1-2.6,0.2-3.6
									c0.1-1.7,0.4-3.5,0.6-4.9c0.1-0.4,0.1-0.9,0.1-1.3c0.1-0.4,0.1-0.9,0.1-1.3c0-0.1,0-0.2,0.1-0.2c0.1-0.5,0.1-1.1-0.1-1.4
									c-0.1-0.1-0.2-0.2-0.4-0.3c-0.1-0.1-0.1-0.1-0.2-0.1c-1.9-1.1-3-2.5-3.4-4.3c-0.4-1.8-0.2-3.6,0.4-5.1
									c0.7-1.6,2.5-3.3,4.6-3.2c0.3,0,0.6,0.1,0.8,0.3c0.2,0.2,0.2,0.6,0.2,0.9c-0.1,0.9-0.2,1.7-0.3,2.5
									c-0.1,0.7-0.2,1.4-0.2,2.1c0,0.1,0,0.1,0,0.2s0,0.1,0,0.2c0.2,0.7,1.1,0.9,2.8,0.8c0.2-0.1,0.4-0.1,0.6-0.2
									c0.1-0.1,0.2-0.3,0.2-0.6c0.1-1,0.2-1.9,0.3-2.8c0.1-0.5,0.1-1,0.1-1.4c0-0.1,0-0.2,0-0.2c0-0.3,0-0.7,0.2-1
									c0.2-0.2,0.6-0.4,1.1-0.3c1.1,0.1,2.5,1.2,3,1.8C226.7,141.4,227,141.9,227.2,142.5z M227,143.2c-0.1-0.2-0.1-0.4-0.1-0.5
									c-0.2-0.6-0.5-1.1-0.7-1.4c-0.4-0.5-1.7-1.5-2.7-1.6c-0.3,0-0.6,0.1-0.8,0.2c-0.1,0.1-0.1,0.4-0.1,0.7c0,0.1,0,0.2,0,0.2
									c0,0.4-0.1,0.9-0.1,1.4c-0.1,0.9-0.2,1.9-0.3,2.8c-0.1,0.2-0.1,0.6-0.3,0.8c-0.2,0.2-0.6,0.2-0.8,0.3
									c-0.7,0.1-2.8,0.2-3.2-1.1c-0.1-0.1,0-0.2,0-0.3c0-0.1,0-0.1,0-0.1c0.1-0.7,0.2-1.5,0.2-2.2c0.1-0.8,0.2-1.6,0.2-2.5
									c0-0.2,0-0.5-0.1-0.6c-0.1-0.1-0.3-0.2-0.5-0.2c-0.4,0-0.9,0-1.3,0.1c-1.4,0.4-2.5,1.6-3,2.8c-0.6,1.4-0.8,3.2-0.4,4.9
									c0.4,1.7,1.4,3,3.2,4.1c0.1,0.1,0.1,0.1,0.2,0.1c0.2,0.1,0.3,0.2,0.5,0.4c0.4,0.5,0.3,1.2,0.2,1.7c0,0.1,0,0.2-0.1,0.2
									c-0.1,0.4-0.1,0.9-0.1,1.3s-0.1,0.9-0.1,1.3c-0.2,1.5-0.4,3.2-0.6,4.9c-0.1,1.1-0.2,2.2-0.2,3.7c0,0.1,0,0.3-0.1,0.4
									c-0.1,0.7-0.2,1.6,0.3,2c0.7,0.6,1.7,0.7,2.7,0.7h0.2c0.4,0,0.7,0,1.1-0.2c0.5-0.2,0.5-0.7,0.5-1.2c0-0.5,0.1-1,0.1-1.5
									c0.1-0.4,0.1-0.7,0.1-1.1c0.2-2.4,0.4-4.6,0.6-7.2c0-0.2,0.1-0.6,0.1-0.8c0.1-0.9,0.1-1.9,0.3-2.8c0.2-0.9,0.8-1.2,1.6-1.5
									c0.8-0.3,1.5-0.8,2-1.4c0.4-0.4,0.7-1,0.9-1.6c0.6-1.5,0.8-3,0.7-4.4C227.1,144,227,143.5,227,143.2z"/>
								<path id="Vector_171" class="st57" d="M226.8,142.7c0,0.2,0.1,0.3,0.1,0.5c0.1,0.4,0.1,0.8,0.2,1.2c0.1,1.4-0.1,2.9-0.7,4.4
									c-0.2,0.6-0.6,1.2-0.9,1.6c-0.5,0.6-1.2,1-2,1.4c-0.7,0.4-1.4,0.6-1.6,1.5c-0.2,0.9-0.2,1.9-0.3,2.8c0,0.3,0,0.6-0.1,0.8
									c-0.2,2.5-0.4,4.8-0.6,7.2c0,0.4-0.1,0.7-0.1,1.1c-0.1,0.5-0.1,0.9-0.1,1.5c0,0.6,0,1-0.5,1.2c-0.2,0.2-0.7,0.2-1.1,0.2
									h-0.2c-1,0-1.9,0-2.7-0.7c-0.5-0.4-0.4-1.3-0.3-2c0-0.2,0.1-0.3,0.1-0.4c0.1-1.5,0.1-2.6,0.2-3.6c0.1-1.7,0.4-3.5,0.6-5
									c0.1-0.4,0.1-0.9,0.1-1.3c0.1-0.4,0.1-0.9,0.1-1.3c0-0.1,0-0.2,0.1-0.2c0.1-0.6,0.2-1.3-0.2-1.7c-0.1-0.1-0.3-0.2-0.5-0.4
									c-0.1-0.1-0.1-0.1-0.2-0.1c-1.8-1.1-2.8-2.4-3.2-4.1c-0.4-1.7-0.2-3.5,0.4-4.9c0.5-1.2,1.6-2.4,3-2.8
									c0.4-0.1,0.8-0.2,1.3-0.1c0.2,0,0.4,0.1,0.5,0.2c0.1,0.1,0.1,0.4,0.1,0.6c-0.1,0.8-0.2,1.7-0.2,2.5
									c-0.1,0.7-0.2,1.4-0.2,2.2c0,0.1,0,0.1,0,0.1c0,0.1,0,0.2,0,0.3c0.4,1.3,2.5,1.1,3.2,1.1c0.2-0.1,0.6-0.1,0.8-0.3
									c0.2-0.2,0.2-0.5,0.3-0.8c0.2-1,0.2-2,0.3-2.8c0.1-0.5,0.1-1,0.1-1.4c0-0.1,0-0.2,0-0.2c0-0.2,0-0.6,0.1-0.7
									c0.2-0.2,0.4-0.2,0.8-0.2c1,0.1,2.3,1.1,2.7,1.6C226.4,141.6,226.6,142,226.8,142.7z M219.8,164.7c0-0.5-0.2-0.9-0.6-1.1
									c-0.4-0.2-1.1-0.2-1.5,0.1c-0.4,0.2-0.6,0.7-0.6,1.1c0.1,0.7,0.7,1.1,1.4,1.1c0.1,0,0.3,0,0.4-0.1c0.4-0.1,0.7-0.4,0.8-0.9
									C219.8,164.9,219.8,164.8,219.8,164.7z"/>
							</g>
						</g>
					</g>
				</g>
				<g id="flask">
					<g id="XMLID_4">
						<g id="Group_65">
							<path id="Vector_172" class="st58" d="M224.6,100.5c0.7,4-7.3,4.8-9.8,4.8c-2.2,0-4.4-0.3-6.4-1.1c-1.4-0.6-3.1-1.7-3.7-3.2
								c-0.7-1.8,1.4-4.6,2.2-6.1c0.2-0.4,0.8-1.3,1.4-2.3c0,0.1-0.1,0.1-0.1,0.2c0,1.1,2.8,1.9,6.3,1.9c3.5,0,6.3-0.9,6.3-1.9
								c0-0.1-0.1-0.2-0.1-0.4l0.1-0.1l1.1,1.7C221.8,94.2,224.2,98.5,224.6,100.5z"/>
							<path id="Vector_173" class="st59" d="M217.9,87.7l2.9,4.8l-0.1,0.1c-0.6-0.9-3.2-1.5-6.2-1.5c-3,0-5.4,0.6-6.1,1.4
								c1.1-1.9,2.4-4.1,2.4-4.4c0.1-1.4,0.1-2.7,0.1-4.1c0.1-2,0.4-3.9-1.5-5.3c-0.5-0.4-0.9-0.7-0.7-1.4c0.2-0.8,3.5-0.7,4.1-0.7
								c1.9-0.1,3.9,0,5.8,0.1c0.2,0,0.5,0,0.7,0.1c0.6,0.2,0.7,0.9,0.3,1.4c-0.2,0.2-0.4,0.4-0.7,0.6c-0.3,0.2-0.5,0.5-0.7,0.8
								c-0.6,0.9-0.6,2-0.6,3.2C217.8,84.6,217.9,85.8,217.9,87.7z"/>
							<path id="Vector_174" class="st60" d="M220.7,92.5c0.1,0.1,0.1,0.2,0.1,0.4c0,1.1-2.8,1.9-6.3,1.9c-3.5,0-6.3-0.9-6.3-1.9
								c0-0.1,0-0.1,0.1-0.2c0.1-0.1,0.1-0.2,0.1-0.2c0.7-0.8,3.1-1.4,6.1-1.4C217.6,91.1,220.1,91.7,220.7,92.5z"/>
							<path id="Vector_175" class="st61" d="M208.4,92.5c-0.1,0.1-0.1,0.2-0.1,0.2C208.3,92.6,208.4,92.5,208.4,92.5z"/>
						</g>
					</g>
					<g id="bubbles">
						<path id="Vector_176" class="st62" d="M214.7,86.6c0.6,0,1-0.5,1-1.1s-0.5-1.1-1-1.1s-1.1,0.5-1.1,1.1S214.1,86.6,214.7,86.6z
							"/>
						<path id="Vector_177" class="st62" d="M211,72.6c0.6,0,1.1-0.5,1.1-1.1c0-0.6-0.5-1.1-1.1-1.1S210,71,210,71.6
							C210,72.2,210.4,72.6,211,72.6z"/>
						<path id="Vector_178" class="st62" d="M217.8,69c0.9,0,1.7-0.7,1.7-1.7c0-0.9-0.7-1.7-1.7-1.7s-1.7,0.7-1.7,1.7
							C216.1,68.2,216.9,69,217.8,69z"/>
						<path id="Vector_179" class="st62" d="M214.1,81c0.3,0,0.6-0.3,0.6-0.6c0-0.3-0.3-0.6-0.6-0.6c-0.3,0-0.6,0.3-0.6,0.6
							C213.5,80.8,213.8,81,214.1,81z"/>
						<path id="Vector_180" class="st62" d="M212.5,100.7c0.6,0,1-0.5,1-1.1c0-0.6-0.5-1.1-1-1.1c-0.6,0-1,0.5-1,1.1
							C211.5,100.2,211.9,100.7,212.5,100.7z"/>
						<path id="Vector_181" class="st62" d="M217,103.6c0.3,0,0.6-0.3,0.6-0.6c0-0.3-0.3-0.6-0.6-0.6c-0.3,0-0.6,0.3-0.6,0.6
							C216.4,103.3,216.7,103.6,217,103.6z"/>
					</g>
				</g>
				<g id="gear">
					<g id="circle_2">
						<g id="XMLID_5">
							<g id="Group_66">
								<path id="Vector_182" class="st63" d="M121.3,123.3c-0.7-1.2-1.7-1.3-3-1.5h-0.1H118c-1.5-0.2-2.5-0.4-3.8,1.1
									c-0.1,0.1-0.2,0.2-0.4,0.4c-0.3,0.3-0.6,0.7-0.8,0.7c-0.1,0-0.6,0-1.7-0.9c-0.6-0.5-0.8-0.9-0.9-1.1
									c-0.2-0.4-0.2-0.6,0.4-1.2c0.1-0.1,0.2-0.2,0.2-0.3c0.9-1.1,1.1-1.9,0.3-4.1c-0.2-0.7-0.4-1.2-0.7-1.5
									c-0.7-1.2-1.5-1.5-2.5-1.5c-0.1,0-0.1,0-0.2,0c-0.6,0-0.9-0.1-1.1-0.4c-0.2-0.3-0.2-0.9-0.1-1.7c0.2-1.4,0.6-1.7,0.7-1.8
									c0.2-0.1,0.7-0.1,1.1,0.1h0.1c0.2,0.1,0.3,0.1,0.5,0.1c1.4,0.2,2.5-0.4,3.6-2c1.4-1.8,1.2-2.8,0.9-3.8
									c-0.1-0.1-0.1-0.1-0.1-0.2c-0.1-0.1-0.1-0.2-0.1-0.4c-0.2-0.4-0.3-0.8-0.2-1.1c0.1-0.3,0.6-0.6,1.3-0.9
									c1.9-0.7,2.1-0.2,2.3,0.1c0.1,0.2,0.2,0.4,0.3,0.6l0.1,0.2c0.1,0.2,0.2,0.5,0.4,0.7c0.7,1.2,1.6,1.5,3.1,1.8
									c1.9,0.3,3.3,0.6,4.4-1.3c0.1-0.2,0.3-0.4,0.4-0.6c0.1-0.2,0.3-0.2,0.4-0.3c0.1-0.1,0.6,0,1.4,0.6c0.7,0.5,1.1,0.9,1.4,1.4
									c0.2,0.4,0.3,0.7-0.4,1.5c-1.4,1.4-1.5,2-0.7,4.1c0.2,0.6,0.4,1.1,0.6,1.5c0.7,1.4,1.6,1.5,2.3,1.6c0.1,0,0.1,0.1,0.2,0.1
									c0.1,0,0.2,0,0.2,0.1c0.6,0.1,1.1,0.2,1.2,0.5c0.1,0.2,0.2,0.6-0.1,1.7c-0.3,1.4-0.7,1.7-1,1.9c-0.2,0.1-0.6,0.1-1-0.1
									c-1.8-0.6-3.1,0.5-4.2,1.7c-1.5,1.7-1.4,2.8-1,3.7l0.1,0.1c0.1,0.2,0.2,0.5,0.3,0.7c0.1,0.3,0.3,0.7,0.2,0.8
									c0,0.1-0.2,0.4-1.3,0.8c-2,0.8-2.2,0.3-2.4,0.1c-0.1-0.2-0.2-0.5-0.4-0.8C121.5,123.8,121.4,123.5,121.3,123.3z
									 M121.2,116.4c1.7-1,2.3-3.2,1.4-4.9c-1-1.7-3.2-2.4-4.9-1.4c-1.7,1-2.3,3.2-1.4,4.9C117.3,116.7,119.5,117.4,121.2,116.4z"
									/>
								<path id="Vector_183" class="st64" d="M110.3,119.9c0.6-0.7,0.9-1.1,0.1-3.2c-0.2-0.6-0.4-1.1-0.6-1.4
									c-0.4-0.8-0.9-1-1.7-1.1c-0.3,0-1.5,0-2.1-1c-0.3-0.5-0.4-1.2-0.2-2.4c0.6-3.5,2.4-2.8,3.3-2.5c0.8,0.2,1.7,0.2,3-1.5
									c1.2-1.7,0.9-2.3,0.6-3.1c-0.2-0.7-1.4-2.5,1.6-3.7c2.3-0.9,3.1-0.2,3.6,0.6c0.1,0.2,0.3,0.6,0.4,0.9
									c0.1,0.2,0.2,0.4,0.3,0.6c0.4,0.7,0.9,1.1,2.4,1.2c1.9,0.3,2.6,0.4,3.3-0.9c0.7-1,1.5-2.2,3.8-0.4c0.7,0.6,1.2,1.2,1.5,1.6
									c0.7,1.2,0.1,2-0.5,2.6c-1,1-1.2,1.2-0.4,3c0.2,0.6,0.4,1,0.6,1.4c0.6,1.1,1.1,1,1.9,1.2c0.6,0.1,1.7,0.2,2.2,1.1
									c0.3,0.5,0.4,1.3,0.1,2.5c-0.8,3.2-2.4,2.8-3.3,2.5c-0.9-0.3-1.7-0.1-3.1,1.4c-1.4,1.5-1,2.2-0.8,2.8
									c0.3,1.1,1.7,2.4-1.4,3.7c-2.3,0.9-3.1,0.5-3.6-0.4c-0.1-0.2-0.3-0.6-0.4-1c-0.1-0.3-0.2-0.6-0.3-0.7
									c-0.4-0.7-1.1-0.7-2.5-1c-1.5-0.2-1.9-0.4-3,0.8c-1.1,1.1-1.6,2.5-4.3,0.2c-0.6-0.5-1-0.9-1.2-1.4
									C108.8,121.2,109.8,120.4,110.3,119.9z M106.7,111c-0.1,0.8-0.1,1.4,0.1,1.7c0.2,0.3,0.6,0.4,1.1,0.4c0.1,0,0.1,0,0.2,0
									c1.1,0.1,1.9,0.4,2.5,1.5c0.2,0.4,0.4,0.9,0.7,1.5c0.8,2.3,0.6,3.1-0.3,4.1c-0.1,0.1-0.2,0.2-0.2,0.3
									c-0.6,0.6-0.6,0.8-0.4,1.2c0.1,0.2,0.4,0.6,0.9,1.1c1.1,0.9,1.6,1,1.7,0.9c0.2,0,0.5-0.4,0.8-0.7c0.1-0.1,0.2-0.2,0.4-0.4
									c1.4-1.5,2.3-1.4,3.8-1.1h0.1h0.1c1.4,0.2,2.4,0.3,3,1.5c0.1,0.2,0.2,0.6,0.4,1c0.1,0.3,0.2,0.6,0.4,0.8
									c0.2,0.3,0.4,0.7,2.4-0.1c1.1-0.4,1.3-0.7,1.3-0.8c0.1-0.2-0.1-0.5-0.2-0.8c-0.1-0.2-0.2-0.5-0.3-0.7l-0.1-0.1
									c-0.3-0.9-0.5-2,1.1-3.7c1.1-1.2,2.4-2.4,4.2-1.7c0.4,0.1,0.7,0.2,1,0.1c0.2-0.1,0.7-0.6,1-1.9c0.2-1.1,0.1-1.5,0.1-1.7
									c-0.2-0.3-0.7-0.4-1.2-0.5c-0.1,0-0.2,0-0.2-0.1c-0.1,0-0.1-0.1-0.2-0.1c-0.7-0.1-1.6-0.2-2.3-1.6c-0.2-0.4-0.4-0.9-0.6-1.5
									c-0.8-2.1-0.7-2.8,0.7-4.1c0.7-0.7,0.7-1,0.4-1.5c-0.2-0.4-0.6-0.9-1.4-1.4c-0.9-0.6-1.2-0.7-1.4-0.6
									c-0.1,0-0.3,0.1-0.4,0.3c-0.1,0.1-0.3,0.4-0.4,0.6c-1.1,1.9-2.5,1.6-4.4,1.3c-1.6-0.2-2.5-0.6-3.1-1.8
									c-0.1-0.2-0.2-0.5-0.4-0.7l-0.1-0.2c-0.1-0.2-0.2-0.4-0.3-0.6c-0.2-0.4-0.4-0.8-2.3-0.1c-0.7,0.2-1.2,0.6-1.3,0.9
									c-0.1,0.2,0,0.6,0.2,1.1c0.1,0.1,0.1,0.2,0.1,0.4c0,0,0,0.1,0.1,0.2c0.3,1,0.6,2-0.9,3.8c-1.1,1.5-2.2,2.2-3.6,2
									c-0.2,0-0.3-0.1-0.5-0.1h-0.1c-0.4-0.1-0.8-0.2-1.1-0.1C107.3,109.2,107,109.7,106.7,111z"/>
							</g>
						</g>
					</g>
				</g>
				<g id="terminal">
					<g id="XMLID_1">
						<g id="Group_67">
							<path id="Vector_184" class="st65" d="M131.2,169.6v12.6c0,1.2-1,2.2-2.2,2.2h-24c-1.2,0-2.2-1-2.2-2.2v-12.6
								c9.3,0,18.7,0,27.9,0H131.2z"/>
							<path id="Vector_185" class="st66" d="M131.2,166.6v3h-0.4c-9.3,0-18.7,0-27.9,0v-3c0-1.2,1-2.2,2.2-2.2h24
								C130.2,164.4,131.2,165.4,131.2,166.6z"/>
						</g>
					</g>
					<g id="Layer_23">
						<g id="Group_68">
							<g id="Group_69">
								<g id="Group_70">
									<path id="Vector_186" class="st67" d="M119.3,177.5c0.1-1.2,0-3.5-1.6-3.8c-1.7-0.3-2,1.9-2.1,3.2c-0.1,1.2,0,4,1.9,3.9
										C119,180.6,119.2,178.5,119.3,177.5c0.1-0.4-0.7-0.4-0.7,0c-0.1,0.5-0.1,1.5-0.4,1.9c-1.2,1.7-1.8-0.7-1.9-1.2
										c-0.1-0.4,0-0.9,0-1.3c0-0.7,0.6-3.7,1.9-1.9c0.5,0.7,0.4,1.7,0.4,2.5C118.6,177.9,119.3,177.9,119.3,177.5z"/>
								</g>
							</g>
							<g id="Group_71">
								<g id="Group_72">
									<path id="Vector_187" class="st67" d="M118.4,175c-0.8,1.1-1.7,2.1-2.5,3.1c-0.3,0.4,0.2,0.9,0.5,0.5
										c0.9-1.1,1.7-2,2.5-3.1C119.2,175.2,118.7,174.6,118.4,175z"/>
								</g>
							</g>
						</g>
						<g id="Group_73">
							<g id="Group_74">
								<g id="Group_75">
									<path id="Vector_188" class="st67" d="M112.9,174c0,2,0,4.1,0,6.2c0,0.4,0.7,0.4,0.7,0c0-2,0-4.1,0-6.2
										C113.6,173.6,112.9,173.6,112.9,174z"/>
								</g>
							</g>
							<g id="Group_76">
								<g id="Group_77">
									<path id="Vector_189" class="st67" d="M112.9,173.8c-0.2,0.3-0.4,0.7-0.6,1.1c-0.2,0.4,0.4,0.7,0.6,0.4
										c0.2-0.4,0.4-0.7,0.6-1.1C113.7,173.8,113.1,173.5,112.9,173.8z"/>
								</g>
							</g>
							<g id="Group_78">
								<g id="Group_79">
									<path id="Vector_190" class="st67" d="M112.4,180.6c0.6,0,1.2,0,1.9,0c0.4,0,0.4-0.7,0-0.7c-0.6,0-1.2,0-1.9,0
										C111.9,179.9,111.9,180.6,112.4,180.6z"/>
								</g>
							</g>
						</g>
						<g id="Group_80">
							<g id="Group_81">
								<g id="Group_82">
									<path id="Vector_191" class="st67" d="M121.4,174c0,2,0,4.1,0,6.2c0,0.4,0.7,0.4,0.7,0c0-2,0-4.1,0-6.2
										C122.1,173.6,121.4,173.6,121.4,174z"/>
								</g>
							</g>
							<g id="Group_83">
								<g id="Group_84">
									<path id="Vector_192" class="st67" d="M121.3,173.8c-0.2,0.3-0.4,0.7-0.6,1.1c-0.2,0.4,0.4,0.7,0.6,0.4
										c0.2-0.4,0.4-0.7,0.6-1.1C122.3,173.8,121.7,173.5,121.3,173.8z"/>
								</g>
							</g>
							<g id="Group_85">
								<g id="Group_86">
									<path id="Vector_193" class="st67" d="M120.8,180.6c0.6,0,1.2,0,1.9,0c0.4,0,0.4-0.7,0-0.7c-0.6,0-1.2,0-1.9,0
										C120.4,179.9,120.4,180.6,120.8,180.6z"/>
								</g>
							</g>
						</g>
						<g id="Group_87">
							<g id="Group_88">
								<g id="Group_89">
									<path id="Vector_194" class="st67" d="M127.8,177.5c0.1-1.2,0-3.5-1.6-3.8c-1.7-0.3-2,1.9-2.1,3.2c-0.1,1.2,0,4,1.9,3.9
										C127.5,180.6,127.7,178.5,127.8,177.5c0.1-0.4-0.7-0.4-0.7,0c-0.1,0.5-0.1,1.5-0.4,1.9c-1.2,1.7-1.8-0.7-1.9-1.2
										c-0.1-0.4,0-0.9,0-1.3c0-0.7,0.6-3.7,1.9-1.9c0.5,0.7,0.4,1.7,0.4,2.5C127.1,177.9,127.8,177.9,127.8,177.5z"/>
								</g>
							</g>
							<g id="Group_90">
								<g id="Group_91">
									<path id="Vector_195" class="st67" d="M126.9,175c-0.8,1.1-1.7,2.1-2.5,3.1c-0.3,0.4,0.2,0.9,0.5,0.5
										c0.9-1.1,1.7-2,2.5-3.1C127.7,175.2,127.2,174.6,126.9,175z"/>
								</g>
							</g>
						</g>
						<g id="zero_0">
							<g id="Group_92">
								<g id="Group_93">
									<path id="Vector_196" class="st67" d="M110.5,177.5c0.1-1.2,0-3.5-1.6-3.8c-1.7-0.3-2,1.9-2.1,3.2c-0.1,1.2,0,4,1.9,3.9
										C110.2,180.6,110.4,178.5,110.5,177.5c0.1-0.4-0.7-0.4-0.7,0c-0.1,0.5-0.1,1.5-0.4,1.9c-1.2,1.7-1.8-0.7-1.9-1.2
										c-0.1-0.4,0-0.9,0-1.3c0-0.7,0.6-3.7,1.9-1.9c0.5,0.7,0.4,1.7,0.4,2.5C109.7,177.9,110.5,177.9,110.5,177.5z"/>
								</g>
							</g>
							<g id="Group_94">
								<g id="Group_95">
									<path id="Vector_197" class="st67" d="M109.5,175c-0.8,1.1-1.7,2.1-2.5,3.1c-0.3,0.4,0.2,0.9,0.5,0.5
										c0.9-1.1,1.7-2,2.5-3.1C110.4,175.2,109.9,174.6,109.5,175z"/>
								</g>
							</g>
						</g>
					</g>
					<g id="buttons_2">
						<g id="red_2">
							<g id="Group_96">
								<path id="Vector_198" class="st68" d="M106.8,168.5c1.4,0,1.4-2.2,0-2.2C105.3,166.3,105.3,168.5,106.8,168.5z"/>
							</g>
						</g>
						<g id="yellow_2">
							<g id="Group_97">
								<path id="Vector_199" class="st69" d="M109.5,168.5c1.4,0,1.4-2.2,0-2.2C108.1,166.3,108.1,168.5,109.5,168.5z"/>
							</g>
						</g>
						<g id="green_2">
							<g id="Group_98">
								<path id="Vector_200" class="st70" d="M112.3,168.5c1.4,0,1.4-2.2,0-2.2C111,166.3,111,168.5,112.3,168.5z"/>
							</g>
						</g>
					</g>
				</g>
			</g>
		</g>
	</g>
	<g id="Overlay">
		<path class="st71" d="M40.1,1.1h240c21,0,38,17,38,38v311c0,21-17,38-38,38h-240c-21,0-38-17-38-38v-311
			C2.1,18.1,19.1,1.1,40.1,1.1z"/>
	</g>
	<defs>
		<filter id="Adobe_OpacityMaskFilter" filterUnits="userSpaceOnUse" x="36.9" y="301.1" width="114.7" height="55.7">
			<feColorMatrix  type="matrix" values="1 0 0 0 0  0 1 0 0 0  0 0 1 0 0  0 0 0 1 0"/>
		</filter>
	</defs>
	<mask maskUnits="userSpaceOnUse" x="36.9" y="301.1" width="114.7" height="55.7" id="mask0_1_">
		<path id="Overlay_2_1_" class="st72" d="M40.1,1.1h240c21,0,38,17,38,38v311c0,21-17,38-38,38h-240c-21,0-38-17-38-38v-311
			C2.1,18.1,19.1,1.1,40.1,1.1z"/>
	</mask>
	<g class="st73">
		<path id="FRI_x2C__JUNE_1" class="st0" d="M36.9,301.3h5.8v1.7h-3.9v2.4h3.6v1.7h-3.6v4h-1.9V301.3z M45,301.4
			c0.2,0,0.4-0.1,0.7-0.1c0.3,0,0.5-0.1,0.7-0.1c0.3,0,0.5,0,0.7,0c0.2,0,0.4,0,0.6,0c0.5,0,0.9,0,1.3,0.1c0.4,0.1,0.8,0.2,1.2,0.4
			c0.4,0.2,0.6,0.5,0.8,0.9c0.2,0.4,0.3,0.8,0.3,1.3c0,0.8-0.2,1.5-0.6,2c-0.4,0.5-0.9,0.9-1.5,1l0.7,0.4l2.2,3.7h-2.2l-2.2-3.8
			l-1-0.2v4H45V301.4z M47.9,302.9c-0.2,0-0.4,0-0.6,0c-0.2,0-0.3,0-0.4,0.1v2.8h0.8c0.5,0,1-0.1,1.3-0.4c0.3-0.2,0.5-0.6,0.5-1.2
			c0-0.4-0.1-0.7-0.4-1C48.8,303,48.4,302.9,47.9,302.9z M54.5,301.3h1.9v9.8h-1.9V301.3z M64.7,301.3h1.9v7.2c0,0.4,0,0.7-0.1,1.1
			s-0.2,0.6-0.4,0.9c-0.2,0.3-0.4,0.5-0.7,0.6c-0.3,0.1-0.7,0.2-1.1,0.2c-0.3,0-0.6,0-0.9-0.1c-0.3-0.1-0.6-0.1-0.8-0.2l0.4-1.6
			c0.2,0.1,0.5,0.2,0.8,0.2c0.4,0,0.6-0.1,0.7-0.4c0.1-0.3,0.2-0.7,0.2-1.1V301.3z M74.1,308.9h-3l-0.7,2.2h-1.9l3.5-9.9h1.4
			l3.5,9.9h-2L74.1,308.9z M71.6,307.4h2.1l-0.7-2.2l-0.3-1.5h-0.1l-0.3,1.6L71.6,307.4z M81.2,306l-0.8-1.5h-0.1l0.2,1.5v5.1h-1.8
			v-9.9h1.4l3.7,5.2l0.7,1.5h0.1l-0.2-1.5v-5.2h1.8v9.9h-1.4L81.2,306z M93.9,309.6h1.9V304l0.2-1l-0.7,0.8l-1.2,0.9l-0.8-1l3.2-2.6
			h1v8.4h1.9v1.5h-5.6V309.6z M102.2,308.7c0-0.3,0-0.6,0.1-0.9c0.1-0.3,0.2-0.5,0.4-0.7c0.2-0.2,0.3-0.4,0.5-0.6
			c0.2-0.2,0.4-0.3,0.7-0.5c-0.5-0.3-0.8-0.6-1.1-1c-0.3-0.4-0.4-0.9-0.4-1.4c0-0.4,0.1-0.7,0.2-1c0.1-0.3,0.3-0.6,0.6-0.8
			c0.3-0.2,0.6-0.4,0.9-0.5c0.4-0.1,0.8-0.2,1.2-0.2c0.4,0,0.8,0.1,1.1,0.2c0.3,0.1,0.6,0.3,0.9,0.5c0.3,0.2,0.4,0.5,0.6,0.8
			c0.1,0.3,0.2,0.6,0.2,1c0,0.6-0.1,1-0.4,1.4c-0.2,0.4-0.6,0.7-1.1,1.1c0.6,0.3,1,0.7,1.3,1.1c0.3,0.4,0.4,0.9,0.4,1.5
			c0,0.4-0.1,0.8-0.2,1.1c-0.1,0.3-0.4,0.6-0.6,0.9c-0.3,0.2-0.6,0.4-1,0.6c-0.4,0.1-0.8,0.2-1.3,0.2c-0.5,0-0.9-0.1-1.3-0.2
			c-0.4-0.1-0.7-0.3-1-0.5c-0.3-0.2-0.5-0.5-0.6-0.8C102.3,309.4,102.2,309.1,102.2,308.7z M106.7,308.5c0-0.2-0.1-0.4-0.2-0.6
			c-0.1-0.2-0.2-0.3-0.4-0.5c-0.2-0.1-0.3-0.3-0.5-0.4c-0.2-0.1-0.4-0.2-0.6-0.4c-0.4,0.3-0.7,0.5-0.9,0.8c-0.2,0.3-0.2,0.6-0.2,0.9
			c0,0.4,0.1,0.7,0.4,1c0.3,0.3,0.6,0.4,1.1,0.4c0.4,0,0.8-0.1,1-0.3C106.6,309.2,106.7,308.9,106.7,308.5z M104.2,303.7
			c0,0.2,0,0.4,0.1,0.6s0.2,0.3,0.3,0.4c0.2,0.1,0.3,0.2,0.5,0.4c0.2,0.1,0.4,0.2,0.6,0.3c0.6-0.5,0.8-1,0.8-1.6
			c0-0.4-0.1-0.7-0.4-0.9c-0.2-0.2-0.5-0.3-0.8-0.3c-0.4,0-0.7,0.1-0.9,0.3C104.3,303.2,104.2,303.4,104.2,303.7z M121.4,303.7
			c0,0.5-0.1,1-0.3,1.4c-0.2,0.5-0.4,1-0.7,1.4c-0.3,0.5-0.6,0.9-0.9,1.4c-0.3,0.4-0.6,0.8-0.9,1.2l-0.7,0.6v0.1l1-0.2h2.7v1.5h-5.9
			v-0.9c0.2-0.2,0.5-0.5,0.8-0.8c0.3-0.3,0.6-0.6,0.8-1c0.3-0.4,0.6-0.7,0.8-1.1c0.3-0.4,0.5-0.7,0.7-1.1c0.2-0.4,0.4-0.8,0.5-1.1
			c0.1-0.4,0.2-0.7,0.2-1c0-0.4-0.1-0.7-0.3-0.9c-0.2-0.3-0.6-0.4-1-0.4c-0.3,0-0.6,0.1-0.9,0.2c-0.3,0.1-0.6,0.3-0.8,0.5l-0.7-1.3
			c0.4-0.3,0.8-0.5,1.2-0.7c0.5-0.2,1-0.3,1.6-0.3c0.4,0,0.8,0.1,1.1,0.2s0.6,0.3,0.9,0.5c0.2,0.2,0.4,0.5,0.6,0.8
			C121.3,302.9,121.4,303.3,121.4,303.7z M124.2,306.2c0-1.7,0.3-3,0.9-3.8c0.6-0.8,1.4-1.3,2.5-1.3c1.2,0,2,0.4,2.6,1.2
			c0.6,0.8,0.8,2.1,0.8,3.8c0,1.7-0.3,3-0.9,3.9c-0.6,0.8-1.4,1.3-2.5,1.3c-1.2,0-2-0.4-2.6-1.3
			C124.4,309.1,124.2,307.8,124.2,306.2z M126,306.2c0,1.1,0.1,2,0.4,2.6c0.3,0.6,0.7,0.9,1.2,0.9c0.6,0,1-0.3,1.2-0.9
			c0.3-0.6,0.4-1.5,0.4-2.7c0-1.1-0.1-2-0.4-2.6c-0.2-0.6-0.7-0.9-1.2-0.9c-0.6,0-1,0.3-1.2,0.9C126.1,304.1,126,305,126,306.2z
			 M133.9,309.6h1.9V304l0.2-1l-0.7,0.8l-1.2,0.9l-0.8-1l3.2-2.6h1v8.4h1.9v1.5h-5.6V309.6z M142,304.4c0-0.5,0.1-0.9,0.2-1.3
			c0.1-0.4,0.4-0.7,0.6-1c0.3-0.3,0.6-0.5,1-0.7c0.4-0.2,0.9-0.3,1.4-0.3c1.1,0,1.9,0.3,2.5,1c0.6,0.6,0.9,1.5,0.9,2.7
			c0,1.1-0.1,2-0.4,2.8c-0.3,0.8-0.6,1.4-1.1,2c-0.5,0.5-1,0.9-1.6,1.2c-0.6,0.3-1.2,0.4-1.9,0.5l-0.4-1.4c0.5-0.1,1-0.2,1.4-0.4
			c0.4-0.2,0.7-0.4,1-0.7c0.3-0.3,0.5-0.6,0.7-0.9c0.2-0.4,0.3-0.7,0.4-1.1c-0.2,0.2-0.5,0.4-0.7,0.5c-0.3,0.1-0.6,0.1-1,0.1
			c-0.4,0-0.7-0.1-1.1-0.2c-0.3-0.1-0.7-0.3-0.9-0.5c-0.3-0.3-0.5-0.6-0.7-0.9C142.1,305.3,142,304.9,142,304.4z M143.7,304.3
			c0,0.5,0.1,0.9,0.4,1.2c0.3,0.3,0.7,0.4,1.1,0.4c0.4,0,0.7-0.1,0.9-0.2c0.2-0.1,0.4-0.3,0.6-0.4c0-0.2,0-0.4,0-0.6
			c0-0.3,0-0.5-0.1-0.8c-0.1-0.3-0.2-0.5-0.3-0.7c-0.1-0.2-0.3-0.4-0.5-0.5c-0.2-0.1-0.5-0.2-0.7-0.2c-0.5,0-0.8,0.1-1.1,0.4
			C143.9,303.3,143.7,303.7,143.7,304.3z"/>
		<path id="Decaf" class="st0" d="M36.9,322.5c0.7-0.1,1.4-0.2,2.3-0.2c0.9-0.1,1.7-0.1,2.6-0.1c0.9,0,1.8,0,2.6,0
			c0.9,0,1.6,0,2.3,0c3,0,5.5,0.4,7.6,1.2s3.8,2,5.1,3.5c1.3,1.5,2.3,3.3,2.9,5.4c0.6,2.1,0.9,4.4,0.9,6.9c0,2.3-0.3,4.5-0.9,6.6
			c-0.6,2.1-1.5,4-2.9,5.6c-1.3,1.6-3.1,2.9-5.3,3.9c-2.2,1-4.9,1.5-8.1,1.5c-0.5,0-1.2,0-2.1,0c-0.8,0-1.7-0.1-2.6-0.1
			c-0.9,0-1.8-0.1-2.6-0.1c-0.8,0-1.5-0.1-1.9-0.1V322.5z M47.3,327.9c-0.7,0-1.4,0-2.2,0c-0.7,0-1.2,0.1-1.6,0.1v22.5
			c0.1,0,0.3,0.1,0.6,0.1c0.3,0,0.7,0,1,0c0.4,0,0.7,0,1,0c0.3,0,0.6,0,0.7,0c1.9,0,3.4-0.3,4.6-1c1.2-0.7,2.2-1.6,2.9-2.6
			c0.7-1.1,1.2-2.3,1.5-3.7c0.3-1.4,0.4-2.9,0.4-4.4c0-1.3-0.1-2.6-0.4-3.9c-0.3-1.3-0.7-2.5-1.4-3.6c-0.7-1.1-1.6-1.9-2.8-2.6
			C50.6,328.2,49.1,327.9,47.3,327.9z M87.1,354c-1,0.8-2.3,1.4-3.9,2c-1.6,0.5-3.4,0.8-5.2,0.8c-3.9,0-6.7-1.1-8.5-3.4
			c-1.8-2.3-2.7-5.4-2.7-9.3c0-4.2,1-7.4,3-9.5c2-2.1,4.8-3.2,8.5-3.2c1.2,0,2.4,0.2,3.6,0.5c1.2,0.3,2.2,0.8,3.1,1.6
			c0.9,0.7,1.6,1.7,2.2,3c0.5,1.2,0.8,2.8,0.8,4.7c0,0.7,0,1.4-0.1,2.2c-0.1,0.8-0.2,1.6-0.3,2.4H73c0.1,2,0.6,3.5,1.5,4.6
			c1,1,2.5,1.5,4.6,1.5c1.3,0,2.5-0.2,3.5-0.6c1.1-0.4,1.9-0.8,2.4-1.2L87.1,354z M78.2,336.4c-1.6,0-2.8,0.5-3.6,1.5
			c-0.8,1-1.2,2.3-1.4,3.9H82c0.1-1.7-0.1-3.1-0.8-4C80.6,336.9,79.6,336.4,78.2,336.4z M109,354.6c-1,0.7-2.1,1.2-3.5,1.6
			c-1.3,0.4-2.7,0.6-4.2,0.6c-1.9,0-3.6-0.3-4.9-0.9c-1.3-0.6-2.4-1.5-3.2-2.5c-0.8-1.1-1.4-2.5-1.8-4c-0.4-1.6-0.5-3.3-0.5-5.2
			c0-4.1,0.9-7.2,2.7-9.4c1.8-2.2,4.5-3.3,8-3.3c1.8,0,3.2,0.1,4.2,0.4c1.1,0.3,2.1,0.7,2.9,1.1l-1.5,5.1c-0.7-0.4-1.5-0.6-2.2-0.8
			c-0.7-0.2-1.5-0.3-2.4-0.3c-1.7,0-3,0.6-3.9,1.7c-0.9,1.1-1.3,2.9-1.3,5.4c0,1,0.1,2,0.3,2.8s0.6,1.6,1,2.3c0.4,0.6,1,1.2,1.7,1.5
			c0.7,0.4,1.6,0.5,2.5,0.5c1.1,0,2-0.1,2.7-0.4c0.7-0.3,1.4-0.6,2-1L109,354.6z M112.6,333.5c1.3-0.6,2.8-1,4.6-1.3
			c1.8-0.4,3.6-0.5,5.5-0.5c1.7,0,3.1,0.2,4.2,0.6c1.1,0.4,2,0.9,2.6,1.7c0.7,0.7,1.1,1.6,1.4,2.6c0.3,1,0.4,2.2,0.4,3.5
			c0,1.4,0,2.8-0.1,4.3c-0.1,1.4-0.2,2.8-0.2,4.2c0,1.4,0,2.7,0.1,4c0.1,1.3,0.3,2.5,0.7,3.6h-5.1l-1-3.3h-0.2
			c-0.6,1-1.5,1.9-2.7,2.6c-1.1,0.7-2.6,1.1-4.4,1.1c-1.1,0-2.1-0.2-3-0.5c-0.9-0.4-1.7-0.8-2.3-1.4c-0.6-0.6-1.1-1.4-1.5-2.2
			c-0.4-0.9-0.5-1.8-0.5-2.9c0-1.5,0.3-2.7,1-3.7c0.7-1,1.6-1.8,2.8-2.4c1.2-0.6,2.7-1.1,4.4-1.3c1.7-0.3,3.6-0.3,5.8-0.2
			c0.2-1.8,0.1-3.1-0.4-3.8c-0.5-0.8-1.6-1.2-3.2-1.2c-1.2,0-2.6,0.1-4,0.4c-1.4,0.3-2.5,0.6-3.4,1L112.6,333.5z M120.6,351.3
			c1.2,0,2.2-0.3,3-0.8c0.7-0.6,1.3-1.2,1.6-1.8v-3.1c-1-0.1-2-0.1-2.9,0c-0.9,0.1-1.7,0.2-2.4,0.4c-0.7,0.2-1.3,0.5-1.7,1
			c-0.4,0.4-0.6,0.9-0.6,1.6c0,0.9,0.3,1.6,0.8,2.1C118.9,351.1,119.6,351.3,120.6,351.3z M134.4,332.1h3.3v-1.3
			c0-3,0.6-5.2,1.9-6.6c1.3-1.4,3.1-2.1,5.6-2.1c2.6,0,4.7,0.3,6.4,0.9l-1.2,5c-0.7-0.3-1.4-0.4-2-0.5c-0.5-0.1-1.1-0.1-1.7-0.1
			c-0.6,0-1.2,0.1-1.5,0.3c-0.4,0.2-0.6,0.5-0.8,0.9c-0.2,0.4-0.3,0.9-0.3,1.5c0,0.6,0,1.2,0,2h5.3v5.3h-5.3v18.7h-6.2v-18.7h-3.3
			V332.1z"/>
	</g>
</g>
</svg>
