<?xml version="1.0" encoding="utf-8"?>
<!-- Generator: Adobe Illustrator 21.1.0, SVG Export Plug-In . SVG Version: 6.00 Build 0)  -->
<svg version="1.1" id="Layer_1" xmlns="http://www.w3.org/2000/svg" xmlns:xlink="http://www.w3.org/1999/xlink" x="0px" y="0px"
	 viewBox="0 0 481 149" style="enable-background:new 0 0 481 149;" xml:space="preserve">
<style type="text/css">
	.st0{enable-background:new    ;}
	.st1{fill:#FFFFFF;}
</style>
<g class="st0">
	<path class="st1" d="M4,8.6h36.7c13.7,0,25.8,2.6,36.3,7.7s18.7,12.6,24.5,22.4c5.9,9.8,8.8,21.4,8.8,34.6
		c0,13.3-2.9,24.8-8.8,34.6c-5.9,9.8-14,17.3-24.5,22.4c-10.5,5.1-22.6,7.7-36.3,7.7H4V8.6z M40.2,116.1c6.7,0,12.8-0.8,18.3-2.3
		c5.5-1.5,10.5-3.9,14.9-7.2c4.4-3.3,7.9-7.7,10.3-13.4c2.5-5.6,3.7-12.2,3.7-19.8c0-7.6-1.2-14.2-3.7-19.8
		c-2.5-5.6-5.9-10.1-10.3-13.3C69,37,64.1,34.6,58.5,33s-11.6-2.3-18.3-2.3H26.9v85.4H40.2z"/>
	<path class="st1" d="M128.3,80.6c2-5.3,4.9-10,8.5-14c3.6-4,8.2-7.2,13.6-9.6c5.4-2.4,11.4-3.5,17.8-3.5c8,0,15.2,2,21.6,6
		s11.4,9.3,15,15.9c3.5,6.6,5.3,13.8,5.3,21.6c0,2.5-0.2,4.7-0.5,6.8h-63.4c1.3,5.2,3.9,9.4,8,12.6c4.1,3.1,9.1,4.7,15.2,4.7
		c4,0,7.8-0.8,11.5-2.3c3.6-1.5,6.6-3.8,9-6.9l14.7,11.7c-3.8,5.3-8.7,9.5-15,12.5s-12.9,4.5-20,4.5c-8.2,0-15.7-1.9-22.5-5.6
		s-12.1-8.9-16-15.6c-3.9-6.6-5.8-13.9-5.8-21.9C125.3,91.5,126.3,85.9,128.3,80.6z M188.4,87.9c-0.6-4.2-2.9-7.7-6.8-10.6
		s-8.4-4.3-13.6-4.3c-5,0-9.3,1.4-13.1,4.1s-6.4,6.3-8,10.8H188.4z"/>
	<path class="st1" d="M236.9,66.1c8.6-8.4,19-12.6,31.2-12.6c7.7,0,14.9,1.8,21.4,5.3c6.6,3.6,11.8,8.4,15.8,14.4L287,83.9
		c-2.1-3-4.8-5.4-8.1-7.2c-3.3-1.8-6.9-2.6-10.8-2.6c-6.3,0-11.7,2.3-16.2,6.8c-4.5,4.5-6.8,9.9-6.8,16c0,6.2,2.3,11.6,6.8,16.1
		c4.5,4.5,9.9,6.8,16.2,6.8c4,0,7.8-1,11.2-2.9s6.2-4.5,8.2-7.8l18.2,10.9c-3.9,6.2-9.2,11.2-15.9,14.9s-13.9,5.6-21.7,5.6
		c-8,0-15.4-2-22.2-5.9s-12.1-9.2-16-15.9s-5.9-14-5.9-21.8C224,84.8,228.3,74.5,236.9,66.1z"/>
	<path class="st1" d="M329.1,66.1c8.6-8.4,19-12.6,31.2-12.6c8.9,0,16.6,2.6,23.1,7.7V55h21.5v83.1h-21.5v-5.4
		c-6.3,5.1-14,7.7-23.1,7.7c-8,0-15.4-2-22.2-5.9s-12.1-9.2-16-15.9s-5.9-14-5.9-21.8C316.2,84.8,320.5,74.5,329.1,66.1z M344.1,113
		c4.5,4.5,9.9,6.8,16.2,6.8c6.4,0,11.8-2.3,16.3-6.8c4.5-4.5,6.8-9.9,6.8-16.1c0-6.2-2.2-11.5-6.8-16c-4.5-4.5-9.9-6.8-16.3-6.8
		c-6.3,0-11.7,2.3-16.2,6.8c-4.5,4.5-6.8,9.9-6.8,16C337.4,103.1,339.6,108.4,344.1,113z"/>
	<path class="st1" d="M421.5,55h12.2V35.6c0-8.5,2.1-15.1,6.3-19.9c4.2-4.8,10.7-7.1,19.4-7.1c6.4,0,11.8,0.7,16.2,2.1v19.1
		c-4.1-0.6-7.5-0.9-10.2-0.9c-3.5,0-6,0.8-7.7,2.5c-1.7,1.7-2.5,4.6-2.5,8.7V55h18.5v20.7h-18.5v62.5h-21.5V75.7h-12.2V55z"/>
</g>
</svg>
