<?xml version="1.0" encoding="utf-8"?>
<!-- Generator: Adobe Illustrator 22.1.0, SVG Export Plug-In . SVG Version: 6.00 Build 0)  -->
<svg version="1.1" id="HERO" xmlns="http://www.w3.org/2000/svg" xmlns:xlink="http://www.w3.org/1999/xlink" x="0px" y="0px"
	 viewBox="0 0 388.6 564.1" style="enable-background:new 0 0 388.6 564.1;" xml:space="preserve">
<style type="text/css">
	.st0{opacity:0.5;}
	.st1{fill:#86D5F7;}
	.st2{opacity:0.4;fill:url(#SVGID_1_);}
	.st3{opacity:0.3;fill:#86D5F7;}
	.st4{opacity:0.5;fill:#86D5F7;}
	.st5{opacity:0.75;fill:#86D5F7;}
	.st6{opacity:0.4;fill:#86D5F7;}
	.st7{opacity:0.8;fill:#86D5F7;}
	.st8{opacity:0.1;fill:#86D5F7;}
	.st9{opacity:0.6;fill:#86D5F7;}
	.st10{opacity:0.2;fill:#86D5F7;}
	.st11{opacity:5.000000e-02;fill:#86D5F7;}
	.st12{opacity:0.4;fill:url(#SVGID_2_);}
	.st13{opacity:0.4;fill:url(#SVGID_3_);}
	.st14{opacity:0.4;fill:url(#SVGID_4_);}
	.st15{opacity:0.4;fill:url(#SVGID_5_);}
	.st16{opacity:0.4;fill:url(#SVGID_6_);}
	.st17{fill:#7B2322;}
	.st18{fill:#942B28;}
	.st19{fill:#026735;}
	.st20{fill:url(#SVGID_7_);}
	.st21{fill:url(#SVGID_8_);}
	.st22{fill:#2AB34B;}
	.st23{fill:url(#SVGID_9_);}
	.st24{fill:url(#SVGID_10_);}
	.st25{fill:url(#SVGID_11_);}
	.st26{fill:url(#SVGID_12_);}
	.st27{fill:url(#SVGID_13_);}
	.st28{fill:#593111;}
	.st29{fill:#3C1D0E;}
	.st30{fill:#622E10;}
	.st31{fill:#703F19;}
	.st32{fill:#4E2B14;}
	.st33{fill:#CC7028;}
	.st34{fill:#263774;}
	.st35{fill:#303030;}
	.st36{fill:#272626;}
	.st37{fill:#C29974;}
	.st38{fill:#26509C;}
	.st39{fill:#FFFFFF;}
	.st40{fill:#E4B789;}
	.st41{fill:#142C51;}
	.st42{fill:#CFCFCE;}
	.st43{fill:#69C9CA;}
	.st44{fill:#183154;}
	.st45{fill:#A87343;}
	.st46{fill:#22A049;}
	.st47{fill:#A08D80;}
	.st48{fill:#C4C5C6;}
	.st49{fill:#1F3A6E;}
	.st50{fill:#E2D6CF;}
	.st51{fill:#321910;}
	.st52{fill:#925F39;}
	.st53{fill:#673434;}
	.st54{fill:#B7A497;}
	.st55{fill:#1C274F;}
	.st56{fill:#2E4991;}
	.st57{fill:#363896;}
	.st58{fill:#87D3E3;}
	.st59{fill:#77CDD3;}
	.st60{fill:#60BBEA;}
	.st61{fill:#52BF99;}
	.st62{opacity:0.5;fill:#FFFFFF;}
	.st63{fill:#774545;}
	.st64{fill:#6E3131;}
	.st65{fill:#161616;}
	.st66{fill:#454545;}
	.st67{fill:#C42C2B;}
	.st68{fill:#56B947;}
	.st69{fill:#FEE060;}
	.st70{fill:#87C65D;}
	.st71{fill:#CC3533;}
</style>
<g id="deco">
	<g id="foundation_glow" class="st0">
		<ellipse class="st1" cx="199.3" cy="476.3" rx="167.3" ry="82.9"/>
		<linearGradient id="SVGID_1_" gradientUnits="userSpaceOnUse" x1="195.6414" y1="23.5817" x2="195.6414" y2="558.9652">
			<stop  offset="0" style="stop-color:#FFFFFF;stop-opacity:1.000000e-02"/>
			<stop  offset="0.1313" style="stop-color:#FFFEF6;stop-opacity:0.14"/>
			<stop  offset="0.3347" style="stop-color:#FDFCE5;stop-opacity:0.3414"/>
			<stop  offset="0.5847" style="stop-color:#FCF8CA;stop-opacity:0.5888"/>
			<stop  offset="0.8691" style="stop-color:#FAF4A4;stop-opacity:0.8704"/>
			<stop  offset="1" style="stop-color:#FAF290"/>
		</linearGradient>
		<path class="st2" d="M2.6,23.6l28.5,452.9c0,0-2.4,35.8,52.5,60.2c25,11.1,62.2,22.3,116.2,22.3s93.4-13.4,118-24.4
			c54.2-24.4,48.1-58,48.1-58l22.6-452.9H2.6z"/>
	</g>
	<g id="rectangles" class="st0">
		<rect x="34.6" y="300.6" class="st3" width="11" height="45"/>
		<rect x="48.6" y="348.6" class="st3" width="5" height="35"/>
		<rect x="2.6" y="372.6" class="st1" width="3" height="28"/>
		<rect x="18.6" y="329.6" class="st4" width="12" height="43"/>
		<rect x="8.6" y="361.6" class="st1" width="6" height="30"/>
		<rect x="3.6" y="339.6" class="st1" width="2" height="26"/>
		<rect x="322.7" y="3.6" class="st3" width="11.1" height="47"/>
		<rect x="339.4" y="27.6" class="st4" width="4.8" height="37"/>
		<rect x="349.8" y="14.6" class="st4" width="13.5" height="42"/>
		<rect x="365.7" y="33.6" class="st4" width="1.2" height="31"/>
		<rect x="370.6" y="41.6" class="st4" width="4.9" height="33"/>
		<rect x="312.6" y="320.6" class="st3" width="7" height="33"/>
		<rect x="323.6" y="326.6" class="st3" width="4" height="38"/>
		<rect x="333.6" y="316.6" class="st5" width="16" height="37"/>
		<rect x="352.6" y="328.6" class="st5" width="13" height="38"/>
		<rect x="370.6" y="309.6" class="st1" width="5" height="49"/>
		
			<rect x="380.3" y="341.6" transform="matrix(-1 -1.224647e-16 1.224647e-16 -1 763.2827 719.1633)" class="st1" width="2.6" height="36"/>
		
			<rect x="382.1" y="300.6" transform="matrix(-1 -1.224647e-16 1.224647e-16 -1 765.2827 637.1633)" class="st1" width="1" height="36"/>
		
			<rect x="61.6" y="190.6" transform="matrix(-1 -4.486867e-11 4.486867e-11 -1 132.2827 428.1633)" class="st1" width="9" height="47"/>
		
			<rect x="53.2" y="183.6" transform="matrix(-1 -4.572799e-11 4.572799e-11 -1 110.2827 404.1633)" class="st1" width="3.9" height="37"/>
		
			<rect x="37.6" y="185.6" transform="matrix(-1 -4.497881e-11 4.497881e-11 -1 86.2827 413.1633)" class="st6" width="11" height="42"/>
		
			<rect x="33.6" y="176.6" transform="matrix(-1 -4.365587e-11 4.365587e-11 -1 68.2827 384.1633)" class="st6" width="1" height="31"/>
		
			<rect x="26.6" y="163.6" transform="matrix(-1 -4.456536e-11 4.456536e-11 -1 57.2827 360.1633)" class="st7" width="4" height="33"/>
		<rect x="73.6" y="207.6" class="st1" width="10" height="50"/>
		<rect x="33.6" y="138.6" class="st6" width="9" height="30"/>
		<rect x="357.6" y="67.6" class="st4" width="11" height="40"/>
		<rect x="375.6" y="98.6" class="st4" width="7" height="33"/>
		<rect x="18.6" y="386.6" class="st1" width="6" height="32"/>
		<rect x="30.6" y="397.6" class="st1" width="9" height="40"/>
		<rect x="355.6" y="374.6" class="st1" width="7" height="49"/>
		<rect x="370.6" y="370.6" class="st1" width="5" height="29"/>
		<rect x="365.6" y="370.6" class="st1" width="5" height="29"/>
		
			<rect x="74.6" y="261.6" transform="matrix(-1 -4.486867e-11 4.486867e-11 -1 158.2827 570.1633)" class="st3" width="9" height="47"/>
		<rect x="56.6" y="315.6" class="st1" width="9" height="49"/>
		<rect x="72.6" y="282.6" class="st1" width="5" height="36"/>
		<rect x="72.6" y="336.6" class="st1" width="5" height="23"/>
		<rect x="83.6" y="293.6" class="st3" width="11" height="32"/>
		<rect x="92.6" y="330.6" class="st8" width="11" height="54"/>
		<rect x="354.6" y="124.6" class="st1" width="14" height="35"/>
		<rect x="341.6" y="144.6" class="st1" width="8" height="31"/>
		<rect x="330.6" y="168.6" class="st1" width="7" height="27"/>
		<rect x="343.6" y="184.6" class="st1" width="5" height="27"/>
		<rect x="32.6" y="66.6" class="st6" width="17" height="55"/>
		<rect x="55.6" y="93.6" class="st6" width="7" height="44"/>
		<rect x="55.6" y="42.6" class="st9" width="10" height="38"/>
		<rect x="328.6" y="202.6" class="st1" width="11" height="27"/>
		<rect x="308.6" y="237.6" class="st1" width="8" height="29"/>
		<rect x="257.6" y="271.6" class="st9" width="11" height="45"/>
		<rect x="272.6" y="308.6" class="st1" width="9" height="22"/>
		<rect x="295.6" y="300.6" class="st1" width="7" height="22"/>
		<rect x="2.6" y="130.6" class="st6" width="12" height="25"/>
		<rect x="114.6" y="315.6" class="st4" width="8" height="38"/>
		<rect x="144.6" y="322.6" class="st1" width="6" height="23"/>
		<rect x="127.6" y="304.6" class="st1" width="7" height="25"/>
		<rect x="130.6" y="344.6" class="st3" width="6" height="22"/>
		<rect x="187.6" y="278.6" class="st3" width="8" height="30"/>
		<rect x="166.6" y="303.6" class="st1" width="5" height="22"/>
		<rect x="227.6" y="294.6" class="st4" width="7" height="24"/>
		<rect x="246.6" y="305.6" class="st4" width="3" height="25"/>
		<rect x="211.6" y="314.6" class="st7" width="7" height="23"/>
		<rect x="72.3" y="35.8" class="st10" width="9.8" height="52.5"/>
		<rect x="88.2" y="29.6" class="st8" width="5.9" height="39"/>
		<rect x="307.7" y="14.6" class="st10" width="11.1" height="47"/>
		<rect x="296.6" y="5.7" class="st8" width="5.4" height="34.8"/>
		<rect x="99.2" y="37.6" class="st11" width="5.9" height="39"/>
	</g>
	<g id="glows">
		<linearGradient id="SVGID_2_" gradientUnits="userSpaceOnUse" x1="129.3215" y1="120.402" x2="129.3215" y2="183.5485">
			<stop  offset="0" style="stop-color:#FFFFFF;stop-opacity:1.000000e-02"/>
			<stop  offset="0.1313" style="stop-color:#FFFEF6;stop-opacity:0.14"/>
			<stop  offset="0.3347" style="stop-color:#FDFCE5;stop-opacity:0.3414"/>
			<stop  offset="0.5847" style="stop-color:#FCF8CA;stop-opacity:0.5888"/>
			<stop  offset="0.8691" style="stop-color:#FAF4A4;stop-opacity:0.8704"/>
			<stop  offset="1" style="stop-color:#FAF290"/>
		</linearGradient>
		<path class="st12" d="M98,120.4l1.3,51.5c0,0-1.9,11.2,31.5,11.6c32,0,29.8-11.6,29.8-11.6l-1-50.3L98,120.4z"/>
		<linearGradient id="SVGID_3_" gradientUnits="userSpaceOnUse" x1="282.0087" y1="86.7814" x2="282.0087" y2="148.4875">
			<stop  offset="0" style="stop-color:#FFFFFF;stop-opacity:1.000000e-02"/>
			<stop  offset="0.1313" style="stop-color:#FFFEF6;stop-opacity:0.14"/>
			<stop  offset="0.3347" style="stop-color:#FDFCE5;stop-opacity:0.3414"/>
			<stop  offset="0.5847" style="stop-color:#FCF8CA;stop-opacity:0.5888"/>
			<stop  offset="0.8691" style="stop-color:#FAF4A4;stop-opacity:0.8704"/>
			<stop  offset="1" style="stop-color:#FAF290"/>
		</linearGradient>
		<path class="st13" d="M258.6,87.6l-0.6,49c0,0-1.5,11.4,24.7,11.8c25,0,23.3-11.8,23.3-11.8l-0.5-49.9L258.6,87.6z"/>
		<linearGradient id="SVGID_4_" gradientUnits="userSpaceOnUse" x1="124.3396" y1="219.17" x2="124.3396" y2="280.9231">
			<stop  offset="0" style="stop-color:#FFFFFF;stop-opacity:1.000000e-02"/>
			<stop  offset="0.1313" style="stop-color:#FFFEF6;stop-opacity:0.14"/>
			<stop  offset="0.3347" style="stop-color:#FDFCE5;stop-opacity:0.3414"/>
			<stop  offset="0.5847" style="stop-color:#FCF8CA;stop-opacity:0.5888"/>
			<stop  offset="0.8691" style="stop-color:#FAF4A4;stop-opacity:0.8704"/>
			<stop  offset="1" style="stop-color:#FAF290"/>
		</linearGradient>
		<path class="st14" d="M91.1,219.2l1.3,51.4c0,0-2,10,33.6,10.3c34,0,31.7-10.3,31.7-10.3l-1-51.4H91.1z"/>
		<linearGradient id="SVGID_5_" gradientUnits="userSpaceOnUse" x1="290.0536" y1="185.856" x2="290.0536" y2="250.2206">
			<stop  offset="0" style="stop-color:#FFFFFF;stop-opacity:1.000000e-02"/>
			<stop  offset="0.1313" style="stop-color:#FFFEF6;stop-opacity:0.14"/>
			<stop  offset="0.3347" style="stop-color:#FDFCE5;stop-opacity:0.3414"/>
			<stop  offset="0.5847" style="stop-color:#FCF8CA;stop-opacity:0.5888"/>
			<stop  offset="0.8691" style="stop-color:#FAF4A4;stop-opacity:0.8704"/>
			<stop  offset="1" style="stop-color:#FAF290"/>
		</linearGradient>
		<path class="st15" d="M264,185.9l1,54.7c0,0-1.6,9.3,26.2,9.7c26.6,0,24.8-9.7,24.8-9.7l-0.5-54.7H264z"/>
		<linearGradient id="SVGID_6_" gradientUnits="userSpaceOnUse" x1="202.6414" y1="374.5598" x2="202.6414" y2="504.7594">
			<stop  offset="0" style="stop-color:#FFFFFF;stop-opacity:1.000000e-02"/>
			<stop  offset="0.1313" style="stop-color:#FFFEF6;stop-opacity:0.14"/>
			<stop  offset="0.3347" style="stop-color:#FDFCE5;stop-opacity:0.3414"/>
			<stop  offset="0.5847" style="stop-color:#FCF8CA;stop-opacity:0.5888"/>
			<stop  offset="0.8691" style="stop-color:#FAF4A4;stop-opacity:0.8704"/>
			<stop  offset="1" style="stop-color:#FAF290"/>
		</linearGradient>
		<path class="st16" d="M120.1,374.6c0,0,15.1,89.6,16.2,97.1c1.1,7.5,10.9,33.1,69.1,33.1s65.8-27.7,67.9-35.2
			c2.1-7.5,11.9-92.9,11.9-92.9L120.1,374.6z"/>
	</g>
</g>
<g id="plant_1_">
	<g id="pot">
		<g id="XMLID_120_">
			<g>
				<path class="st17" d="M151.1,367c-1.7,0-3.4-0.1-5.1-0.1c-0.9,0-1.8,0-2.5-0.6c-2.5-1.9-3.3-6.7-4.1-9.5c-0.7-2.5-1.4-5.1-2-7.6
					c-0.3-1.3-1.8-5.1-0.8-6.3c0.4-0.5,1.2-0.7,1.9-0.7c4.5-0.5,9.1-0.2,13.5-0.2c5.3,0,10.7,0.1,16,0.1c19.2,0,38.4,0,57.7,0
					c7,0,13.9-0.1,20.8-0.1c6.6-0.1,13,0.1,19.5-0.1c1,0,2-0.1,2.8,0.4c2.8,1.6,1,6.2,0.5,8.6c-0.8,4.6-3,9-4.9,13.2
					c-1.3,2.9-3.5,2.9-6.4,2.9c-0.1,0-0.2,0-0.2,0c-0.6,0-1.3,0-1.9,0c-0.6,0-1.2,0-1.9,0c-0.1,0-0.1,0-0.2,0
					c-6.7,0-13.2,0.2-19.9,0.2c-12.5,0-24.9,0-37.3,0c-9.6,0-19.2,0-28.7,0C162.3,367.2,156.7,367.1,151.1,367z"/>
				<path class="st18" d="M257.8,367c0.1,0,0.2,0,0.2,0c-5.4,29.3-13,86.6-15.3,90.4c-2.3,3.8-4.5,4-13,4.6c-13.4,0.9-39,0-52.1,0
					c-3.2,0-7.7,0-9.9-3.3c-2.2-3.3-11.2-61.8-16.6-91.7c5.6,0.1,11.2,0.2,16.9,0.2c9.6,0,19.1,0,28.7,0c12.4,0,24.9,0,37.3,0
					c6.7,0,13.2-0.2,19.9-0.2c0.1,0,0.1,0,0.2,0c0.6,0,1.2,0,1.9,0C256.6,367,257.2,367,257.8,367z"/>
			</g>
			<g>
			</g>
		</g>
	</g>
	<g id="plant">
		<g id="XMLID_118_">
			<g>
				<path class="st19" d="M357.7,238.3c0.3,1.1-0.9,2-1.8,2.6c-5.9,3.5-12.1,6.1-18.2,9.1c-7.2,3.6-13.6,9.1-20.6,13.1
					c-13.6,7.7-30.7,12.3-46.4,11.7c-6.3-0.3-12.6-1.1-18.6-2.8c-4.1-1.2-11.9-2.9-14.4-6.7c-8.1-12.8,10.8-28.8,20.9-33.2
					c7.8-3.4,16.2-5,24.6-5.4c7.5-0.4,16.6-1,23.9,0c16.5,2.1,32.6,5,48.4,10C356.4,236.9,357.5,237.3,357.7,238.3z"/>
			</g>
			<g>
			</g>
		</g>
		<g>
			<path class="st19" d="M285.7,166.3c19.2-7.2,32.8-19.5,46.9-33.7c0.7-0.7,1.4-1.8,0.8-2.6c-0.4-0.5-1.2-0.5-1.9-0.5
				c-17.1,1.5-34.4-2.6-51.6-3.2c-16-0.6-33.1,3.5-45.7,13.7c-5.2,4.3-9.8,10.3-10.3,17.2c-0.6,7.9,4.3,11.2,11.3,13.7
				c8,2.9,17.1,1.5,25.3,0.9C269.2,171.3,277.7,169.3,285.7,166.3z"/>
		</g>
		<g>
			<path class="st19" d="M125.5,157.8c-19.4,0.7-38.5,7.6-56.1,15.4c-0.9,0.4-1.8,0.8-2.5,1.6c-0.7,0.7-1,1.9-0.5,2.7
				c0.5,0.9,1.6,1.2,2.5,1.4c15.6,3.5,31,9.9,45.1,17.7c5.3,2.9,10.4,6.2,16,8.6c8,3.4,16.8,4.7,25.4,4c8.5-0.7,15.9-2.7,22.9-7.4
				c5.5-3.6,7.5-12.7,4.1-18.3c-3.9-6.4-10.3-11.6-16.6-15.5C153.9,160.6,139.5,157.4,125.5,157.8z"/>
		</g>
		<g>
			<path class="st19" d="M172.3,264.6c10.3,6.8,20.4,21,12,33.2c-5.7,8.3-18.1,9.4-26.9,10.4c-9.3,1.1-18.8,0.2-27.9-2.1
				c-16-4-29.7-13.7-45.1-19.7c-10-3.9-20.4-7-30.7-9.9c-2.6-0.7-5.3-1.5-7.3-3.3c0.7-3,6.4-4.3,8.7-5.1
				c17.3-6.3,35.5-12.4,53.8-15.1C130.6,249.9,153.6,252.2,172.3,264.6z"/>
		</g>
		<g id="XMLID_113_">
			<g>
				<path class="st19" d="M282,47.5c1.7,2-7.4,14.2-9,16.4c-5,6.6-10.6,12.6-16.6,18.2c-0.2,0.2-0.4,0.4-0.6,0.6
					c-7.7,7.2-16.6,13.3-26.7,16.5c-3.8,1.2-8.1,2-11.7,0.3c-12-5.5,1.9-24.2,7-29.5c12.1-12.5,27-16.8,43.4-20.5
					c3.7-0.8,7.3-1.6,11-2.5C279.9,46.9,281.2,46.7,282,47.5z"/>
			</g>
			<g>
			</g>
		</g>
		<g id="XMLID_112_">
			<g>
				<path class="st19" d="M182.5,106.2c0.8,2.6,2.1,7.7-1,9.3c-2.5,1.2-7.1,0.8-9.8,0.9c-7.5,0.2-15.5-0.4-22.3-3.7
					c-6.9-3.4-12-9.3-16.6-15.3c-5.1-6.6-8.5-13.2-15.7-17.6c-0.4-0.2-0.8-0.5-0.9-0.9c-0.3-1,1-1.6,2-1.7
					c11.2-1.3,20.9-0.3,31.7,2.2c5.8,1.4,10.6,4,15.4,7c1.5,0.9,2.9,1.9,4.4,2.9C175.7,93.1,180.3,99.2,182.5,106.2z"/>
			</g>
			<g>
			</g>
		</g>
		<g id="XMLID_116_">
			<g>
				<path class="st19" d="M192,28.7c9.6,13.1,14.2,29.9,12.4,46.1c-0.4,3.6-1.8,14-4.8,16.6c-3.4,2.9-5.8-3.6-8.3-6.7
					c-7.1-8.7-14.6-16.6-14.6-28.6c0-4.1,0.6-8.2,1.3-12.2c1-6.1,2-12.2,3-18.2c0.3-2,1.1-4.4,3.1-4.5c1.3-0.1,2.4,0.9,3.3,1.8
					C189,24.8,190.6,26.7,192,28.7z"/>
			</g>
			<g>
			</g>
		</g>
		<g id="XMLID_2_">
			<g>
				<linearGradient id="SVGID_7_" gradientUnits="userSpaceOnUse" x1="203.3401" y1="118.6502" x2="146.4548" y2="121.584">
					<stop  offset="1.302083e-03" style="stop-color:#2AB34B"/>
					<stop  offset="1" style="stop-color:#026735"/>
				</linearGradient>
				<path class="st20" d="M146.6,91.6c-2,0-2,2-1,3c1,1,4,3,13.2,6.9c11.2,4.7,21.7,11.9,29.4,21.4c2.7,3.4,5.2,7,7.6,10.6
					c1.1,1.7,8.8,14.9,8.8,15.1c0.8-3.8-2.3-14.3-2.6-18.2c-0.1-1.4-0.3-2.9-1.2-3.9c-10.4-12.4-10.4-12.6-21.7-20.1
					C167.7,99,148.6,91.6,146.6,91.6z"/>
			</g>
			<g>
			</g>
		</g>
		<g id="XMLID_1_">
			<g>
				<linearGradient id="SVGID_8_" gradientUnits="userSpaceOnUse" x1="206.1108" y1="99.157" x2="259.547" y2="93.3451">
					<stop  offset="1.302083e-03" style="stop-color:#2AB34B"/>
					<stop  offset="1" style="stop-color:#026735"/>
				</linearGradient>
				<path class="st21" d="M255.8,68.9c2.1,0.8,1.3,1.8-1.7,3.2c-3.5,1.6-1.7,0-8.6,4c-10.5,6.1-19.6,15.2-25.6,25.8
					c-2.1,3.8-4.1,7.7-5.8,11.7c-0.8,1.8-1.6,3.7-2.3,5.6c-0.2,0.5-2.1,4.4-2.1,4.5c-1.4-3.7-1.7-8.2-2.1-12.2
					c-0.1-1.4-0.2-2.9,0.5-4.1c8.3-13.9,8.2-14.1,18.3-23.3C236.4,75.1,253.7,68.2,255.8,68.9z"/>
			</g>
			<g>
			</g>
		</g>
		<g id="XMLID_117_">
			<g>
				<path class="st22" d="M215.5,174.7c1.1,17.5,0.7,36,0.1,53.5c-0.8,23.5-4.1,46.4-6,69.7c-0.8,9.6-0.8,19.3-0.7,29
					c0,9.1,0.5,18.3,1.2,27.3c0.3,4,1.7,7-0.6,8.7c-1.9,1.4-6.8,0-9,0c-4.4,0-3.6-21.5-3.7-25.7c-0.3-11.8,0.3-23.6,1.4-35.2
					c1.8-18.5,5.6-36.2,8-54.5c2.2-16.6,2.2-34.1,1.5-51c-0.7-18-2-35.3-3.8-53.1c-0.9-9.3-2.6-18.4-3.4-27.6
					c-0.3-4.3-10.4-51.1-6.8-54.2c1.2-1.1,7.2,28.4,8,30c2.7,5.5,5,17.5,6,24.1C210.9,135.2,214.3,154.7,215.5,174.7z"/>
			</g>
			<g>
			</g>
		</g>
		<g id="XMLID_115_">
			<g>
				<linearGradient id="SVGID_9_" gradientUnits="userSpaceOnUse" x1="214.9501" y1="164.8091" x2="305.8727" y2="164.8091">
					<stop  offset="1.302083e-03" style="stop-color:#2AB34B"/>
					<stop  offset="1" style="stop-color:#026735"/>
				</linearGradient>
				<path class="st23" d="M304.1,136.7c1,0,2.7,1.1,1.1,1.8c-1.5,0.7-3.1,0.9-4.7,1.1c-14.4,1.9-28.1,3.6-41.6,9.5
					c-11.1,4.9-23.4,13.5-30.5,23.4c-2.6,3.5-4.9,7.2-7.1,11c-1,1.7-2,3.5-2.9,5.3c-0.2,0.5-2.6,4.1-2.6,4.3
					c-1-3.8-0.8-8.4-0.8-12.3c0-1.4,0.1-2.9,1-4c9.7-12.9,23.2-23.6,37.9-30.3C269.4,139.3,287.1,135.9,304.1,136.7z"/>
			</g>
			<g>
			</g>
		</g>
		<g>
			<linearGradient id="SVGID_10_" gradientUnits="userSpaceOnUse" x1="206.4307" y1="271.433" x2="319.1795" y2="271.433">
				<stop  offset="1.302083e-03" style="stop-color:#2AB34B"/>
				<stop  offset="1" style="stop-color:#026735"/>
			</linearGradient>
			<path class="st24" d="M250.4,260.1c-9.5,5-18.8,10.9-26.5,18.5c-3.7,3.7-7.2,7.7-9.7,12.3c-2.1,3.9-3.2,8.3-5.4,12.3
				c-1.7-3.4-2.6-8.8-2.3-12.6c0.2-3.2,2.8-5.9,4.6-8.3c5.1-6.8,11.7-12.4,18.7-17c13.9-9.2,29.2-16.2,45.3-20.5
				c7.9-2.1,16-3.7,24.1-4.5c3.8-0.4,7.6-0.6,11.4-0.6c2.5,0,7.3-0.6,8.5,1.9c-3.9,1.8-10,1.4-14.3,2c-5,0.6-10,1.3-14.9,2.3
				C276,248.5,262.9,253.5,250.4,260.1z"/>
		</g>
		<g id="XMLID_114_">
			<g>
				<linearGradient id="SVGID_11_" gradientUnits="userSpaceOnUse" x1="103.6616" y1="198.0224" x2="208.9074" y2="198.0224">
					<stop  offset="0" style="stop-color:#026735"/>
					<stop  offset="1" style="stop-color:#2AB34B"/>
				</linearGradient>
				<path class="st25" d="M208.4,211.4c0.4,3.2,0.6,6.5,0.4,9.8c-2.9-2.6-4.9-5.9-7.8-8.5c-3-2.8-6.1-5.4-9.5-7.6
					c-1.9-1.3-4-2.5-6-3.6c-3.4-1.9-6.8-3.9-10.1-5.8c-2.5-1.4-5-2.9-7.6-4.1c-3.3-1.5-6.8-2.7-10.3-3.7c-8.8-2.8-17.5-5.3-26.6-6.7
					c-5.5-0.9-11-1.2-16.5-1.8c-3-0.3-5.9-0.7-8.8-1.2c-0.8-0.1-1.8-0.4-2-1.2c-0.9-3.4,18.7-1.3,21-1c18.9,2.5,37.8,6.9,55.1,15.1
					c5.8,2.8,11.3,6,16.7,9.5C200.5,203,207.7,206.2,208.4,211.4z"/>
			</g>
			<g>
			</g>
		</g>
		<g>
			<linearGradient id="SVGID_12_" gradientUnits="userSpaceOnUse" x1="104.8209" y1="290.8559" x2="199.6212" y2="290.8559">
				<stop  offset="0" style="stop-color:#026735"/>
				<stop  offset="1" style="stop-color:#2AB34B"/>
			</linearGradient>
			<path class="st26" d="M187.4,290.5c4,2.3,7.7,4.9,10.5,8c2.9,3.2,1.4,9.5,0.5,13.3c-2-2.3-3.3-4.8-5.6-6.8c-2.3-2-4.7-4-7.2-5.8
				c-4.9-3.7-10.1-7-15.5-10c-3.8-2.1-7.8-3.9-11.8-5.4c-2.9-1-5.8-1.9-8.8-2.6c-13.5-3.5-27.1-5.8-40.9-7.6
				c-0.8-0.1-4.6-0.3-3.6-2.2c0.3-0.6,1.1-0.9,1.8-1c2.7-0.2,5.2-0.5,7.9-0.5c11.1,0.3,22.3,1.3,33.1,3.9c9.2,2.2,18.2,5.6,26.7,9.9
				C178.5,285.9,183.1,288,187.4,290.5z"/>
		</g>
		<g id="XMLID_3_">
			<g>
				<linearGradient id="SVGID_13_" gradientUnits="userSpaceOnUse" x1="179.6422" y1="131.0515" x2="214.6995" y2="63.9104">
					<stop  offset="1.302083e-03" style="stop-color:#2AB34B"/>
					<stop  offset="0.2313" style="stop-color:#2AAD49"/>
					<stop  offset="0.4408" style="stop-color:#26A247"/>
					<stop  offset="0.6423" style="stop-color:#1E9143"/>
					<stop  offset="0.8376" style="stop-color:#127C3D"/>
					<stop  offset="1" style="stop-color:#026735"/>
				</linearGradient>
				<path class="st27" d="M190.6,51.6c1.8-1.3,5,15,5,15s6,22,8,30c2,8,4,18,5,25c1,7-5,22-5,22s-5-33.6-7-47
					C194.6,83.1,188.8,52.9,190.6,51.6z"/>
			</g>
			<g>
			</g>
		</g>
	</g>
</g>
<g id="coffee">
	<g id="XMLID_55_">
		<g>
			<path class="st28" d="M149.9,416.3c0.7,3.1,0.3,6.7-2.1,8.7c-4.4,3.6-13.2,0.8-17.5-1.8c-1.3-0.8-2.5-1.7-3.3-3
				c-1.1-1.8-1.2-4.1-0.4-6c1.9-4.5,7.8-4.9,12.1-5.4c2.6-0.3,5.4-0.2,7.6,1.3C148.3,411.6,149.4,414,149.9,416.3z"/>
		</g>
		<g>
		</g>
	</g>
	<g id="XMLID_54_">
		<g>
			<path class="st29" d="M277,427.8c-0.1,3.2-3.5,7.2-7.1,7.7c-3.8,0.5-9-2.4-11.6-4.8c-0.6-0.6-1.2-1.3-1.4-2
				c-0.2-0.9,0.1-1.8,0.4-2.6c0.3-0.7,0.5-1.5,0.8-2.2c1.1-3.4,9.8-2.6,12.9-1.9c1.7,0.3,3.4,0.9,4.6,2
				C276.6,424.9,277,426.4,277,427.8z"/>
		</g>
		<g>
		</g>
	</g>
	<g id="XMLID_53_">
		<g>
			<path class="st29" d="M136.4,420.1c1.1,1.5,0.5,3.4-1.1,4.7c-1.6,1.3-3.8,2-6.1,2.6c-2.2,0.5-4.6,0.9-6.9,0.7
				c-1.6-0.2-6.6-1.7-6.9-2.8c-1.2-4.8,7.5-7.1,12.9-7.3C131.3,417.8,134.9,418.2,136.4,420.1z"/>
		</g>
		<g>
		</g>
	</g>
	<g id="XMLID_52_">
		<g>
			<path class="st29" d="M144.3,418.9c0.9,0.7,1.7,1.5,2.1,2.6c-3-0.5-6-1.4-8.8-2.6c-2.6-1.1-5.8-2.7-6.8-5.6l0.4-0.1
				c0.8,0.1,1.7,0.2,2.6,0.3c0.7,0.1,1.5,0.2,2.2,0.4c1.2,0.4,2.3,1,3.4,1.7C141.1,416.7,142.8,417.7,144.3,418.9z"/>
		</g>
		<g>
		</g>
	</g>
	<g id="Layer_15">
		<g id="XMLID_63_">
			<g>
				<path class="st28" d="M122.6,424.7c1.6,3.2,0.3,7.3-2.4,9.7c-2.6,2.4-6.2,3.4-9.8,4c-2.8,0.5-5.6,0.7-8.4,0.2
					c-2.8-0.5-5.5-1.9-7.1-4.2c-6-8.2,2.1-15.4,10.1-15.7C110.6,418.3,119.7,419,122.6,424.7z"/>
			</g>
			<g>
			</g>
		</g>
		<g id="XMLID_58_">
			<g>
				<path class="st29" d="M111.8,425.7c2,0,6.9,0,8.2,1.5c-3.5,2.2-10.2,4-14.3,4.6c-0.8,0.1-1.7,0.2-2.5,0c-1.4-0.3-6.6-1.9-7.5-3
					C99.8,426.4,107,425.6,111.8,425.7z"/>
			</g>
			<g>
			</g>
		</g>
	</g>
	<g id="XMLID_51_">
		<g>
			<path class="st28" d="M163.2,431.8c0.6,3.1-1.4,7.8-4.5,9.2c-3.2,1.4-8.4-0.1-11.1-1.8c-0.7-0.4-1.3-0.9-1.6-1.6
				c-0.4-0.8-0.3-1.7-0.3-2.6c0.1-0.8,0.1-1.6,0.2-2.4c0.3-3.5,8-4.9,10.7-5.1c1.5-0.1,3.2,0,4.4,0.8
				C162.2,429.1,162.9,430.4,163.2,431.8z"/>
		</g>
		<g>
		</g>
	</g>
	<g id="XMLID_50_">
		<g>
			<path class="st30" d="M166.4,414.4c1.5,2,1.7,5.2,0.9,7.7c-0.9,2.5-2.7,4.4-4.7,5.3s-4.3,1.1-6.4,0.9c-1.8-0.2-3.7-0.6-5.2-2
				c-3.7-3.4-2.2-9.7,1.5-11.9c2.6-1.6,5.4-2.4,8.2-2.4C162.7,411.9,165,412.4,166.4,414.4z"/>
		</g>
		<g>
		</g>
	</g>
	<g id="XMLID_49_">
		<g>
			<path class="st29" d="M125.3,442c0.6,8.9-11.8,13.6-18.4,8.1c-1.3-1-2.1-2.5-2.6-4.1c-0.8-2.4-1-5.2,0.1-7.5
				c1.2-2.5,3.7-3.8,6.2-4.6c3.2-1.1,6.8-0.6,9.8,0.7c1,0.4,1.9,0.9,2.6,1.7C124.6,437.8,125.2,440,125.3,442z"/>
		</g>
		<g>
		</g>
	</g>
	<g id="XMLID_48_">
		<g>
			<path class="st29" d="M144.7,445c3-0.1,4.8,3,4.4,5.7c-0.3,2.1-1.8,4-3.6,5.2c-2.8,1.9-6.5,2.4-9.7,1.1c-1.7-0.7-2.5-1.2-2.6-3.1
				c-0.1-1.7,0.3-3.5,1.5-4.8c0.5-0.5,1-0.9,1.6-1.3C138.7,446.3,142.1,445.1,144.7,445z"/>
		</g>
		<g>
		</g>
	</g>
	<g id="XMLID_47_">
		<g>
			<path class="st28" d="M100.8,457.3c1.5,1.3,2.9,3,2.7,5c-0.6,6.2-11.9,5.6-15.5,3.7c-4.7-2.6-8.5-9.1-1.7-11.4
				C90.8,453.1,97.3,454.4,100.8,457.3z"/>
		</g>
		<g>
		</g>
	</g>
	<g id="XMLID_46_">
		<g>
			<path class="st28" d="M81.2,468.1c3.7,1.6,5,5.9,1.3,8.1c-2,1.2-4.4,1.9-6.7,1.9c-2.8,0.1-6.9-2.5-5.9-5.9c0.4-1.1,1.3-2,2.3-2.7
				C74.6,468,78.4,466.8,81.2,468.1z"/>
		</g>
		<g>
		</g>
	</g>
	<g id="XMLID_45_">
		<g>
			<path class="st28" d="M100.9,473.7c0.1,0.8,0.2,1.6-0.1,2.4c-0.6,1.5-2.3,2.1-3.8,2.4c-4.6,1.1-8.6,1.5-11.5-3.1
				c-2.2-3.5-1-6.9,3.1-8c3.5-0.9,7.8-1.2,10.3,1.5C100.1,470.2,100.6,471.9,100.9,473.7z"/>
		</g>
		<g>
		</g>
	</g>
	<g id="XMLID_44_">
		<g>
			<path class="st28" d="M107.7,441.5c1.2,2.5-0.1,5.7-2.3,7.4c-2.2,1.7-5.1,2.1-7.9,2.2c-4.1,0.2-13.1-3.1-8.1-8.8
				c2.2-2.5,7-4,10.2-4.2c1.6-0.1,3.1,0,4.6,0.5C105.7,439.1,107,440.1,107.7,441.5z"/>
		</g>
		<g>
		</g>
	</g>
	<g id="XMLID_43_">
		<g>
			<path class="st29" d="M100.4,461.9c-1.9,0-3.9,0-5.8,0c-1.4,0-2.9,0-4.2-0.5c-2.1-0.8-3-2.4-4.8-3.5c0.9,0.6,3.6,0.2,4.7,0.2
				c1.8,0,3.4,0.3,5.1,1C97.2,459.8,98.8,460.9,100.4,461.9z"/>
		</g>
		<g>
		</g>
	</g>
	<g id="XMLID_42_">
		<g>
			<path class="st29" d="M96.6,473.4c1.1,0.4,2.3,0.8,2.9,1.8c-1.8-0.6-3.6-1-5.4-1.2c-1.4-0.2-3.1-0.1-4.4-0.8
				c-1.1-0.6-1.3-1.8-2.5-2.4c1.4,0.1,2.6,0.4,4,0.8C93,472.1,94.8,472.7,96.6,473.4z"/>
		</g>
		<g>
		</g>
	</g>
	<g id="XMLID_41_">
		<g>
			<path class="st29" d="M80,470.6c0.5,0,2.3,0.7,2.7,0.5c-1.7,0.8-3.4,1.5-5.2,2c-1.2,0-2.2,0.5-3.5,0.4c-1-0.1-1.8-0.4-2.8-0.3
				c1.5-1.4,3.5-2.1,5.5-2.4C77.8,470.5,78.9,470.5,80,470.6z"/>
		</g>
		<g>
		</g>
	</g>
	<g id="XMLID_40_">
		<g>
			<path class="st28" d="M129.9,477.4c0,1.8-0.8,3.5-2.1,4.6c-0.7,0.5-1.4,0.9-2.2,1.2c-1.5,0.5-3.2,0.7-4.8,0.8
				c-3.8,0.3-13.5,0.2-14.3-5.1c-0.8-5.4,6.3-6.6,10.1-6.9C121.1,471.6,129.9,471.1,129.9,477.4z"/>
		</g>
		<g>
		</g>
	</g>
	<g id="XMLID_39_">
		<g>
			<path class="st29" d="M121.6,475.6c1.4,0.1,3,0.3,4,1.4c0,0-7.7,1.5-8.8,1.3c-2.2-0.4-4.8-1-7-1.7
				C113.4,474.6,117.6,475.2,121.6,475.6z"/>
		</g>
		<g>
		</g>
	</g>
	<g id="XMLID_38_">
		<g>
			<path class="st29" d="M127.3,457.1c0.4,2.3-4.4,2.9-4.6,0.1C122.5,454.3,127,455.3,127.3,457.1z"/>
		</g>
		<g>
		</g>
	</g>
	<g id="XMLID_37_">
		<g>
			<path class="st28" d="M117.7,459.3c2.4,1.7-1.6,4.5-2.7,2.1C114,459.4,116,458.1,117.7,459.3z"/>
		</g>
		<g>
		</g>
	</g>
	<g id="XMLID_36_">
		<g>
			<path class="st29" d="M123.8,463.2c2.2-3,6.6,1.2,3.4,2.8c-0.5,0.3-1.1,0.3-1.7,0.2C124.4,466,123,464.3,123.8,463.2z"/>
		</g>
		<g>
		</g>
	</g>
	<g id="XMLID_35_">
		<g>
			<path class="st29" d="M65.5,455.9c0.3,0.8-0.1,1.7-0.6,2.3c-0.9,1.1-3.1,2.5-4.6,1.9C55.4,458.3,63.9,451.9,65.5,455.9z"/>
		</g>
		<g>
		</g>
	</g>
	<g id="XMLID_34_">
		<g>
			<path class="st28" d="M108.1,484.5c1.6,1.9-1.5,3.8-3.2,3C101.6,485.9,106.6,482.6,108.1,484.5z"/>
		</g>
		<g>
		</g>
	</g>
	<g id="XMLID_33_">
		<g>
			<path class="st29" d="M70.1,452.2c1.9-0.3,4.5,1.1,3.5,3.3c-1,2-3.1,1.7-4.8,0.9C66.6,455.3,68.3,452.5,70.1,452.2z"/>
		</g>
		<g>
		</g>
	</g>
	<g id="XMLID_32_">
		<g>
			<path class="st29" d="M87.1,436.6c2.6,0,1.9,2.9-0.3,2.9c-1.2,0-2.2-1.7-1.1-2.5C86.1,436.7,86.6,436.6,87.1,436.6z"/>
		</g>
		<g>
		</g>
	</g>
	<g id="XMLID_31_">
		<g>
			<path class="st29" d="M83,441.6c0.8-0.4,2.1,0.4,2.1,1.3c0,0.5-0.3,1-0.8,1.3c-1.1,0.8-2.3,0.2-2.2-1.2
				C82.2,442.4,82.5,441.8,83,441.6z"/>
		</g>
		<g>
		</g>
	</g>
	<g id="XMLID_30_">
		<g>
			<path class="st28" d="M136.6,491.2c0.8,3.7-2,6.7-5.4,7.7c-1.9,0.5-3.9,0.5-5.9,0.4c-1.7-0.1-3.5-0.4-4.7-1.6
				c-0.2-0.2-0.5-0.5-0.5-0.8c-0.1-0.3,0-0.6,0.1-0.9c1.5-4.9,6.7-8.1,11.7-8.1c1.3,0,2.8,0.3,3.7,1.3
				C136.1,489.6,136.4,490.4,136.6,491.2z"/>
		</g>
		<g>
		</g>
	</g>
	<g id="XMLID_29_">
		<g>
			<path class="st29" d="M134.6,490.6c-1.4,1.9-3.2,2.8-5.2,3.9c-0.6,0.3-1.3,0.9-2,1.1c-0.3,0.1-3.1,0-2.9-0.3
				c0.8-1.6,2.1-2.4,3.8-3.1C129.2,491.7,134.1,491.2,134.6,490.6z"/>
		</g>
		<g>
		</g>
	</g>
	<g id="XMLID_28_">
		<g>
			<path class="st28" d="M271.6,438.4c0.5,0.9,0.8,1.9,0.6,2.8c-0.4,1.9-2.7,2.7-4.7,3c-4,0.4-9.4-0.7-11.4-4.8
				c-2.9-6,3.3-7.3,7.9-6.4C267.2,433.7,270.1,435.6,271.6,438.4z"/>
		</g>
		<g>
		</g>
	</g>
	<g id="XMLID_27_">
		<g>
			<path class="st29" d="M269.3,439.5c-3.4,1-8.6,0.3-10.7-2.8C262.6,436.7,266.3,435.9,269.3,439.5z"/>
		</g>
		<g>
		</g>
	</g>
	<g id="XMLID_26_">
		<g>
			<path class="st28" d="M299,466c0.3,8.2-12.4,5.3-17.6,4.2c-0.7-0.2-1.6-0.4-1.9-1.1c-0.3-0.5-0.3-1.1-0.2-1.7
				c0.1-1.1,0.1-2.2,0.6-3.3c0.8-1.9,2.6-2.2,4.3-2.9c3-1.2,6.3-1.5,9.4-1c2,0.3,4.1,1.2,5,3C298.9,464.1,298.9,465,299,466z"/>
		</g>
		<g>
		</g>
	</g>
	<g id="XMLID_24_">
		<g>
			<path class="st29" d="M286.5,463.5c3.2-1.1,6.7-1.5,10.1-1.3c-4,2.5-8.7,4-13.4,4.1c-0.3,0-0.7-0.3-0.5-0.5l0.1-0.1
				C283.7,464.6,285.1,463.9,286.5,463.5z"/>
		</g>
		<g>
		</g>
	</g>
	<g id="XMLID_23_">
		<g>
			<path class="st29" d="M278.5,447.6c0.9,5.2-7.2,6.1-7.9,1.1C269.8,443.7,277.6,442.5,278.5,447.6z"/>
		</g>
		<g>
		</g>
	</g>
	<g id="XMLID_22_">
		<g>
			<path class="st28" d="M283.1,437.8c0.5,0.7,0.5,1.7,0.2,2.5c-0.7,2.2-3.2,4.4-5.6,3.7c-1.5-0.5-2.6-1.9-2.8-3.5
				c-0.6-4.1,3.8-5.3,6.9-3.8C282.3,437.1,282.7,437.4,283.1,437.8z"/>
		</g>
		<g>
		</g>
	</g>
	<g id="XMLID_21_">
		<g>
			<path class="st31" d="M281,450c2.5-3.1,7.1,0.1,3.9,3.3C282.6,455.6,278.9,452.6,281,450z"/>
		</g>
		<g>
		</g>
	</g>
	<g id="XMLID_20_">
		<g>
			<path class="st30" d="M290.4,486.3c2.2-1.1,5.5,0.1,3.1,2.6C290.7,491.8,287.4,487.8,290.4,486.3z"/>
		</g>
		<g>
		</g>
	</g>
	<g id="XMLID_19_">
		<g>
			<path class="st28" d="M260.7,422.4c1.2,2.3,0.6,5.2-1,7.2c-1.6,2-4.2,3.1-6.7,3.4c-2.1,0.3-4.4,0-6.1-1.2
				c-1.7-1.2-4.1-3.3-3.2-5.4c1.3-3,3.8-6,7.1-6.9c1.8-0.5,3.7-0.7,5.5-0.3C258.1,419.6,259.8,420.7,260.7,422.4z"/>
		</g>
		<g>
		</g>
	</g>
	<g id="XMLID_18_">
		<g>
			<path class="st29" d="M244.6,426.2c4.4-3.6,13.7-3.6,13.7-3.6S248.4,427.5,244.6,426.2z"/>
		</g>
		<g>
		</g>
	</g>
	<g id="XMLID_17_">
		<g>
			<path class="st29" d="M109.4,480.8c1,2.3-4.3,3-5.3,1.2C102.2,478.8,108.2,477.9,109.4,480.8z"/>
		</g>
		<g>
		</g>
	</g>
	<g>
		<path class="st30" d="M117.8,490.5c4.1,0.2,0-6.6-1.9-2.4c-0.2,0.5-0.2,1,0.1,1.4C116.3,490,117,490.4,117.8,490.5z"/>
	</g>
	<g id="XMLID_16_">
		<g>
			<path class="st29" d="M155.3,423.7c0.7,3.1-1.6,7.8-5,9.2c-3.6,1.4-9.4-0.1-12.4-1.8c-0.7-0.4-1.5-0.9-1.8-1.6
				c-0.4-0.8-0.4-1.7-0.3-2.6c0.1-0.8,0.1-1.6,0.2-2.4c0.3-3.5,8.9-4.9,12-5.1c1.7-0.1,3.5,0,5,0.8C154.2,421,155,422.3,155.3,423.7
				z"/>
		</g>
		<g>
		</g>
	</g>
	<g id="Layer_17">
		<g id="XMLID_60_">
			<g>
				<path class="st28" d="M140.6,423.4c6.6,2,9.4,8.8,5.9,14.7c-3.4,5.5-10.4,9.4-16.9,8.7c-3.8-0.4-7.3-2.2-9.5-5.3
					c-2-2.9-3.6-7.8-1.8-11c1.3-2.4,3.6-4.2,6.2-5.4c1.7-0.7,3.4-1.2,5.2-1.6c1-0.2,1.9-0.3,2.9-0.4
					C135.2,422.8,138,422.6,140.6,423.4z"/>
			</g>
			<g>
			</g>
		</g>
		<g id="XMLID_59_">
			<g>
				<path class="st29" d="M119.9,433.9c2-1.4,4.1-3,6.7-3.9c5-1.6,10.8-2.1,16.3-1.4c-3.3,1.7-7.1,3-11.1,3.9
					c-1.8,0.4-3.7,0.9-5.6,1.1c-1.1,0.1-2.3,0.2-3.5,0.2C122.4,433.9,120.2,433.7,119.9,433.9z"/>
			</g>
			<g>
			</g>
		</g>
	</g>
	<g id="XMLID_15_">
		<g>
			<path class="st29" d="M261.3,434.2c0.7,3.1-1.6,7.8-5,9.2c-3.6,1.4-9.4-0.1-12.4-1.8c-0.7-0.4-1.5-0.9-1.8-1.6
				c-0.4-0.8-0.4-1.7-0.3-2.6c0.1-0.8,0.1-1.6,0.2-2.4c0.3-3.5,8.9-4.9,12-5.1c1.7-0.1,3.5,0,5,0.8
				C260.2,431.5,261,432.9,261.3,434.2z"/>
		</g>
		<g>
		</g>
	</g>
</g>
<g id="people_1_">
	<g id="XMLID_9_">
		<g>
			<path class="st32" d="M248.6,470.8c1,2.2,0.4,4.9,1.1,7.3c-1.6,0.6-3.4,0.8-5.1,0.6l-0.9,0.1c-0.1-0.9-0.2-1.8-0.4-2.8h-0.1
				c0-0.3,0.1-1.1,0.2-2.2l0.6,0.1c1.4-0.3,2.8-0.7,4.2-1.2c0.1,0,0.2-0.1,0.3-0.2c0-0.1,0-0.2,0-0.3c0-0.5,0-0.9,0-1.4H248.6z"/>
			<path class="st33" d="M230.8,390c-0.1-0.1-0.1-0.2-0.2-0.4c-0.8-1.8-1.5-3.9-1.6-5.9c-0.1-1.3,7.3,2.7,7.7,2.8
				c3.3,1.3,7.3,1.8,10.8,2.7c0.3,0.1,0.6,0.1,0.7,0.4c0.1,0.2,0.1,0.5,0.1,0.7c0,3.6-0.1,7.2-0.1,10.8c0,0.3,0,0.6-0.1,0.8
				c-0.1,0.2-0.3,0.4-0.6,0.5c-1,0.7-2.1,1.4-3.1,2c-0.1,0.1-0.3,0.2-0.4,0.2c-0.4,0.2-0.7,0.4-1.1,0.3c-0.3-0.1-0.4-0.3-0.6-0.5
				c-1-1.4-1.4-3.1-1.3-4.8c0.1-1.1,0.5-2.4-0.1-3.3c-0.3-0.6-0.9-0.9-1.4-1.2c-1.9-1.2-3.9-2.8-6.1-3.2c-0.6-0.1-1.2-0.2-1.6-0.5
				C231.3,391,231.1,390.5,230.8,390z"/>
			<path class="st34" d="M235.1,447.9c-0.6,0.1-1.1,0.2-1.7,0.4c-1.9-3.8-0.9-7.6-1.3-11.1l-0.1-0.6c0.6-0.1,1.2-0.2,1.8-0.5
				c0,0.1,0,0.2,0,0.2c0-0.1,0.9-0.5,2-1.1c0.8-0.4,1.7-0.9,2.5-1.3c1.4-0.7,2.6-1.4,2.9-1.6c2.2-1.7,4.3-3.4,5.7-5.8
				c0.1-0.2,0.2-0.4,0.4-0.6l0.4,0.2c-0.1,6.1,0.9,11.8-0.1,17.5c-0.3,1.1-0.7,1.8-1.3,2.4c-0.6,0.6-1.3,1-2.1,1.3
				C241.7,448.2,238.1,447.4,235.1,447.9z"/>
			<path class="st35" d="M244.4,462.2c0.1-5-0.3-10-0.1-14.9c0.8-0.3,1.5-0.7,2.1-1.3l0.1,0.1c1,8.2,1.8,16.4,2.1,24.7
				c0,0.5,0,0.9,0,1.4c0,0.1,0,0.2,0,0.3c-0.1,0.1-0.2,0.2-0.3,0.2c-1.4,0.5-2.8,0.9-4.2,1.2l-0.6-0.1
				C243.7,470.1,244.4,463,244.4,462.2z"/>
			<path class="st36" d="M235.8,476.3c1.5-6.3,0.3-12.8-0.4-19.3c-0.3-3-0.5-6.1-0.3-9c3-0.5,6.6,0.3,9.2-0.6
				c-0.2,5,0.2,10,0.1,14.9c0,0.8-0.7,7.8-1,11.6c-0.1,1.1-0.2,1.9-0.2,2.2c0,0.1,0,0.1,0,0.1C240.8,476.2,238.3,476.2,235.8,476.3
				C235.8,476.3,235.8,476.3,235.8,476.3z"/>
			<path class="st32" d="M243.3,476c0.1,0.9,0.2,1.8,0.4,2.8c0.2,1.7,0.4,3.4,0.4,5.2c0,0,0,0.1,0,0.1c0,0-0.1,0-0.1,0
				c-1,0.1-2.1,0.3-3.1,0.4c-0.1-0.6-0.1-1.2-0.2-1.7c-0.4,0.2-0.5,0.7-0.7,1.1c-0.7,1.4-3.7,0.8-5,0.7c-0.5,0-6-0.6-6-0.6
				c0.5-1.6,1.2-3.4,2.6-4.2c1.3-0.7,3.2-0.8,3.8-2.1c0.2-0.4,0.2-0.8,0.3-1.1c0-0.1,0.1-0.1,0.1-0.2c0,0,0,0,0,0
				c2.5-0.1,5-0.1,7.5-0.2c0,0,0,0,0-0.1H243.3z"/>
			<path class="st37" d="M237.4,407.6c2.1,0.3,4.7,0.4,6.2-0.6l0.2,0.3c0.1,0.7,0.1,1.4,0.1,2.1l0,0.1c-0.3,0.1-0.6,0.2-1,0.3
				c-1.3,0.4-2.7,0.4-3.9,1c-0.4,0.2-0.8,0.4-1.2,0.5L237.4,407.6z"/>
			<path class="st38" d="M235.8,435.1L235.8,435.1C235.8,435.1,235.8,435.1,235.8,435.1c-0.5-1.7-1-3.3-1.4-4.9l-0.1-0.1
				c1.3-1.1,2.4-2.1,3.3-3.5v0c0.4-0.6,0.7-1.2,1.1-1.9c1-2,1.6-5.2,3.3-6.8c0.7-0.7,1.8-0.9,2.8-0.6c1,0.3,1.7,1.1,2.3,2.1
				c0.2,0.4,0.4,0.8,0.6,1.2c0.3,0.7,0.6,1.3,0.7,2c0.1,1.1-0.3,2.2-0.9,3.2c-0.1,0.2-0.2,0.4-0.4,0.6c-1.5,2.4-3.5,4.1-5.7,5.8
				c-0.3,0.2-1.5,0.9-2.9,1.6c-0.8,0.4-1.7,0.9-2.5,1.3L235.8,435.1z"/>
			<path class="st39" d="M234.9,412.3c1-0.3,1.9-0.5,2.8-0.9c0.4-0.2,0.8-0.3,1.2-0.5c1.2-0.6,2.7-0.6,3.9-1c0.4-0.1,0.7-0.2,1-0.3
				c2-0.4,2.2,0.4,2.2,2.9c-1.3-1-6.4,0.2-7.8,0.6c-1.4,0.3-2.6,0.5-3.3,1.2l-0.1-0.1c0-0.5,0-1,0-1.5
				C234.8,412.5,234.9,412.4,234.9,412.3z"/>
			<path class="st38" d="M227.5,422.5c-3.8,1.3-7.7,2.4-11.7,3.1c-0.5-1.5-1.2-3.9-1.7-5.2l-0.1-0.2c3.6-2.1,7.9-4,11.7-5.3
				c1.5-0.5,3.1-1,4.7-1.4c1.5-0.4,3-0.6,4.6-0.9c0,0.5,0,1,0,1.5l0.1,0.1c-0.5,0.4-0.8,1.1-0.8,2.2l0.2,0.3c-1,0.6-2,1.3-3,2.1
				c-0.9,0.7-1.8,1.3-2.9,1.7c-0.3,0.2-0.7,0.3-0.8,0.6c-0.2,0.3,0.1,0.8,0.3,1.2L227.5,422.5z"/>
			<path class="st39" d="M232.8,431.8c0,0,0-0.1,0-0.2c0-0.2,0.2-0.4,0.4-0.5c0.4-0.3,0.8-0.7,1.2-1l0.1,0.1
				c0.5,1.6,0.9,3.2,1.4,4.8c0,0,0,0,0,0h0l0.1,0.1c-1.1,0.6-2,1-2,1.1c0-0.1,0-0.2,0-0.2c0.1-1.4-0.6-2.8-1.1-4.1
				C232.8,432,232.8,431.9,232.8,431.8z"/>
			<path class="st34" d="M236,415.6c-0.6,0.4-1.1,0.7-1.7,1.1l-0.2-0.3c0-1.1,0.3-1.8,0.8-2.2c0.7-0.7,1.9-0.9,3.3-1.2
				c1.4-0.3,6.5-1.5,7.8-0.6c0,0,0,0,0.1,0c0.9,0.8,1,5.6,1.2,6.9l-0.2,0.1c-0.6-0.9-1.3-1.8-2.3-2.1c-0.9-0.3-2,0-2.8,0.6
				c-1.7,1.6-2.3,4.7-3.3,6.8c-0.3,0.7-0.7,1.3-1.1,1.9C237.4,422.9,236.9,419.2,236,415.6z"/>
			<path class="st40" d="M234.6,407c-6.6-2.1-3.9-11.8-3.8-17c0.2,0.5,0.5,0.9,0.9,1.2c0.5,0.3,1.1,0.4,1.6,0.5
				c2.3,0.4,4.2,2.1,6.1,3.2c0.5,0.3,1.1,0.7,1.4,1.2c0.6,1,0.2,2.2,0.1,3.3c-0.2,1.7,0.3,3.4,1.3,4.8c0.2,0.2,0.3,0.4,0.6,0.5
				c0.4,0.1,0.8-0.1,1.1-0.3c0.1-0.1,0.3-0.2,0.4-0.2l0.3,0.5c-0.1,1-0.6,1.7-1.3,2.1c-1.5,0.9-4.1,0.9-6.2,0.6
				C236.3,407.5,235.3,407.2,234.6,407z"/>
			<path class="st41" d="M209,490.2c-0.8-9.9-2.5-19.8-3-29.8l-0.3-0.7l0.8-0.1c8.1-10.3,13.8-20.8,22.5-31.3l0.2,0
				c0.1,0.8,0.3,1.7,0.4,2.5l0,0.4c-0.2,0-0.3,0.1-0.4,0.2c-0.1,0.2-0.2,0.5-0.2,0.7c-0.1,1.9-0.1,4.3,2.4,4.6c0.3,0,0.5,0,0.8,0
				l0.1,0.6c0.3,3.5-0.6,7.3,1.3,11.1c0.5-0.2,1.1-0.4,1.7-0.4c-0.2,3,0,6,0.3,9l-0.8,0.1c-1.1,2.7-0.2,6.5-4.9,5.5
				c-0.9,2.8-0.9,8.5-5.6,7.5c0,0.1,0,0.2,0,0.2c0,2,0.8,4.7-1.1,6.5c-1.1,1.1-3.2,0.9-4.7,1c-0.1,1.8-0.8,3.9-1.4,5.6
				c-0.1,0.2-0.2,0.4-0.3,0.6c-0.5,0.4-1.3-0.1-1.9-0.1c-0.6-0.1-1.3,0.3-1.7,0.9c-0.4,0.5-0.6,1.1-0.9,1.7
				c-0.6,1.3-1.3,2.6-2.2,3.7c-0.1,0.1-0.2,0.2-0.3,0.4L209,490.2z"/>
			<path class="st42" d="M232.7,431.7c0,0.1,0,0.1,0,0.2c-0.4,0-0.8,0.2-1.2,0.3c-0.5,0.2-1.3,0.1-1.5-0.4c-0.1-0.2-0.1-0.5-0.3-0.6
				c-0.1,0-0.1-0.1-0.2-0.1l0-0.4c-0.1-0.8-0.3-1.7-0.4-2.5c-0.1-0.4-0.1-0.9-0.2-1.3c-0.1-0.6-0.2-1.1-0.3-1.7
				c-0.1-0.8-0.3-1.6-0.5-2.4c0-0.1-0.1-0.3-0.2-0.5c-0.2-0.4-0.5-0.9-0.3-1.2c0.2-0.3,0.5-0.4,0.8-0.6c1-0.5,2-1.1,2.9-1.7
				c1-0.7,2-1.4,3-2.1c0.6-0.4,1.1-0.7,1.7-1.1c0.9,3.6,1.4,7.4,1.6,11.1v0c-0.9,1.3-2,2.4-3.3,3.5c-0.4,0.3-0.8,0.7-1.2,1
				C232.9,431.3,232.8,431.5,232.7,431.7z"/>
			<path class="st40" d="M231.5,432.1c0.4-0.1,0.8-0.3,1.2-0.3c0,0.1,0,0.2,0.1,0.3c0.5,1.3,1.2,2.6,1.1,4.1
				c-0.6,0.2-1.2,0.4-1.8,0.5c-0.2,0-0.5,0-0.8,0c-2.5-0.2-2.5-2.6-2.4-4.6c0-0.2,0-0.5,0.2-0.7c0.1-0.1,0.3-0.2,0.4-0.2
				c0.1,0,0.1,0,0.2,0.1c0.2,0.1,0.2,0.4,0.3,0.6C230.3,432.3,231,432.3,231.5,432.1z"/>
			<path class="st43" d="M217.8,430.8l-2.8,4.7h-9.5l3.6-5C211.8,430.5,215.1,430.8,217.8,430.8z"/>
			<path class="st39" d="M214,420.3c0.6,1.3,1.2,3.7,1.7,5.2c-0.7,0.1-1.4,0.2-2.1,0.4l0,0c0,0,0,0-0.1,0.1l0,0
				c-0.4-1.4-1.2-3.2-1.4-4.6l0,0c0.6-0.4,1.2-0.8,1.8-1.1L214,420.3z"/>
			<path class="st40" d="M212.4,426.6c-1.2,0.6-2.5,0.8-3.8,0.7l0,0c0.8-0.4,1.3-1,1.1-2.1c-0.1-0.8-0.4-1.5-1-2.1
				c-0.4-0.4-0.9-0.6-1.5-0.7c1-1.1,3.5-1.1,4.9-1.1c0.2,1.5,1,3.2,1.4,4.6l0,0C213.2,426.2,212.8,426.5,212.4,426.6z"/>
			<path class="st44" d="M175,489.3c-0.3-1.5-0.4-3.1-0.5-4.6c-0.4-8,1.4-16.1-0.9-24.4l0.2-0.5c0.1,0,0.2,0,0.2,0
				c10.5,0,21.1,0,31.6,0l0.3,0.7c0.6,10,2.3,19.8,3,29.8l0.6,0.2c-0.3,0.3-0.7,0.6-1.1,0.7c-0.9,0.1-1.6-0.6-2.4-0.8
				c-2.3-0.5-3.6,2.4-6.1,1.4c-1.7-0.6-2.2-2.5-4.3-1.8c-1.2,0.4-1.9,1.6-3.3,1.6c-1.2,0-1.9-1.3-3-1.4c-1.6-0.3-2.8,2-4.4,1.8
				c-0.7-0.1-1.3-0.6-1.9-1.1c-2.5-1.7-5.2-0.3-7.4,1.2C175.3,491.1,175.1,490.2,175,489.3z"/>
			<path class="st45" d="M204.3,422.7c0.3-0.1,0.6-0.1,0.9-0.2c0.7-0.1,1.3-0.2,2-0.1c0.5,0.1,1,0.3,1.5,0.7c0.5,0.6,0.8,1.3,1,2.1
				c0.2,1-0.4,1.7-1.1,2.1c-0.4,0.2-0.8,0.4-1.3,0.5c-1.6,0.6-4.2,0.2-5.6-0.8l-0.4,0c-0.1-0.8-0.1-1.8-0.1-2c0-0.3,0-0.6,0.1-0.8
				l0.3,0c0.6-0.4,1.3-0.8,1.9-1.2C203.7,422.9,204,422.8,204.3,422.7z"/>
			<path class="st46" d="M203,438.2c2.2,0.2,4.4,0.4,6.7,0.6c1.2,0.1,2.5,0.3,3.3,1.3c0.1,0.2-0.9,0.4-1.5,0.4c-0.2,0-0.4,0-0.4,0
				c-1,0-2,0-3-0.1c-1.3-0.1-2.5-0.2-3.8-0.4c-1-0.1-2.1-0.2-3.1-0.4c0.1-0.6,0.4-1.2,1.1-1.4C202.4,438.1,202.7,438.2,203,438.2z"
				/>
			<path class="st39" d="M202.3,447.3c0,0,0.1,0.1,0.1,0.2c0,0.1,0,0.2-0.1,0.2c-0.6,1-1.4,2-1.9,3.1c-0.1,0.3-1.5,2.3-1.6,2.1
				c-0.7-0.9-1.4-1.6-2.1-2.4c-0.4-0.4-0.7-0.9-1.1-1.4c-0.2-0.3-0.5-0.7-0.7-1c-0.1-0.2-0.2-0.3-0.2-0.4c-0.1-0.3,0.1-0.5,0.5-0.9
				c1.3-1.5,2.6-3,3.9-4.6C200.2,443.8,201.2,445.6,202.3,447.3z"/>
			<path class="st47" d="M196.1,428.9l0.1,0.5c-0.6,0.8-2.9,3.8-5.7,7.7c-0.2-2.2-0.5-4.4-1.1-6.6l0-0.9
				C191.6,429.5,193.9,429.2,196.1,428.9z"/>
			<path class="st48" d="M195.6,449.1c0.3,0.5,0.7,0.9,1.1,1.4l-0.1,0.1c-0.7,0.9-1.4,1.7-2.2,2.5c0.2-1.8,0.3-3.6,0.2-5.5l0.1,0
				c0,0.1,0.1,0.3,0.2,0.4C195.1,448.4,195.4,448.8,195.6,449.1z"/>
			<path class="st49" d="M195.1,446.7c-0.4,0.4-0.5,0.6-0.5,0.9l-0.1,0c0.1,1.8,0,3.7-0.2,5.5c0.7-0.8,1.5-1.7,2.2-2.5l0.1-0.1
				c0.7,0.8,1.4,1.6,2.1,2.4c0.2,0.2,1.5-1.9,1.6-2.1c0.5-1.1,1.3-2,1.9-3.1c0-0.1,0.1-0.1,0.1-0.2c0-0.1,0-0.1-0.1-0.2
				c-1.2-1.7-2.2-3.5-3.3-5.2C197.7,443.7,196.4,445.2,195.1,446.7z M201.6,428c-0.2,0-0.3-0.4-0.4-1l0.4,0c1.4,1,4,1.4,5.6,0.8
				c0.4-0.2,0.9-0.3,1.3-0.5l0,0c1.3,0.2,2.7-0.1,3.8-0.7l0.2,0.3c5.3,0,10.6,0,15.9,0l0.4-0.1c0.1,0.4,0.1,0.9,0.2,1.3l-0.2,0
				c-8.8,10.6-14.4,21-22.5,31.3l-0.8,0.1c-10.5,0-21.1,0-31.6,0v-0.2c0.4-0.6,2.4-3.4,5.1-7.1c3.4-4.6,7.8-10.6,11.3-15.4
				c2.9-3.9,5.1-6.9,5.7-7.7l-0.1-0.5C198,428.6,199.8,428.3,201.6,428z M215,435.5l2.8-4.7c-2.7,0-6-0.3-8.7-0.3l-3.6,5H215z
				 M211.3,440.5c0.6-0.1,1.7-0.3,1.5-0.4c-0.7-1-2.1-1.2-3.3-1.3c-2.2-0.2-4.4-0.4-6.7-0.6c-0.3,0-0.6,0-0.8,0
				c-0.7,0.2-0.9,0.8-1.1,1.4c1,0.2,2.1,0.3,3.1,0.4c1.3,0.1,2.5,0.2,3.8,0.4c1,0.1,2,0.1,3,0.1C211,440.5,211.1,440.5,211.3,440.5z
				"/>
			<path class="st50" d="M170.4,455.4c-0.6,0-1.1-0.2-1.4-0.7c-0.2-0.3-0.2-0.7-0.2-1.1c0-2.4,0.2-4.6,0.6-6.9
				c1.2-8.4-1.7-16.1-2.3-24.4l0.2,0c0.1,0.8,0.3,1.6,0.6,2.2c0.8,1.4,2.3,2.2,3.8,2.7c2.8,0.9,5.8,1.3,8.7,1.7
				c2.2,0.3,4.4,0.5,6.6,0.6c0.7,0,1.5,0,2.2,0l0,0.9c0.6,2.2,0.9,4.4,1.1,6.6c-3.5,4.8-7.9,10.8-11.3,15.4l-0.1-0.1
				c-1.8,0.4-3.1,1.9-4.8,2.6c-0.9,0.4-2,0.4-3,0.4C171,455.4,170.7,455.4,170.4,455.4z"/>
			<path class="st50" d="M187.1,420.5c-1.8-1.1-3.3-2.7-5.2-3.7c-1.8-1-3.8-1.4-5.8-1.7c-1.1-0.2-2.3-0.4-3.5-0.4
				c1.6-1,3.9-2.6,6.3-3.6c2.3-1,4.6-1.4,6.5-0.5c3.3,1.8,2,7.6,3,10.5l0,0.1C187.9,421,187.5,420.8,187.1,420.5z"/>
			<path class="st45" d="M181.9,393c0.1-0.1,0.2-0.3,0.3-0.4l0.7,0.2c1.1,3.2,1.8,11.6-1,14.1c-0.8,0.7-1.8,1.1-3,1.3
				c-2.4,0.3-5.2-0.4-7.3-1.3c-0.7-0.3-1.3-0.7-1.9-1l-0.1-0.2v0c0.2-0.1,0.4-0.2,0.6-0.3c1.8-1.2,0.9-4.2,2.2-6
				c0.5-0.7,1.3-1.2,2.1-1.6C177.2,396.4,179.9,395.3,181.9,393z"/>
			<path class="st51" d="M179.8,386.9c3.6,0.7,4.4,3.1,2.5,5.7c-0.1,0.1-0.2,0.3-0.3,0.4c-2,2.3-4.8,3.4-7.5,4.8
				c-0.8,0.4-1.6,0.9-2.1,1.6c-1.2,1.8-0.4,4.8-2.2,6c-0.2,0.1-0.4,0.2-0.6,0.3v0c-1,0.4-2.3,0.2-3.3,0.5c-2.9,0.8-3.6,4.6-3.3,7.7
				c0.3,3,0.8,6.5-1.3,8.7c-1,1-2.4,1.5-3.7,2c-2.3,0.8-5.5,1.2-6.6-1c-1.1-2.4,1.6-4.9,1.7-7.5c0.1-2.3-1.9-4.3-2.3-6.6
				c-0.5-3.1,2-5.9,4.7-7.5c1.5-0.9,7.6-2.7,8.2-4.3c0.8-2.2-2.5-2.1-3.5-3.4c-5.1-6.9,7.9-14.3,10.5-7.6c0.1,0.4,0.2,0.8,0.5,1.1
				c1.2,1.5,2.8-0.5,3.9-0.9c1.2-0.4,3.2-0.3,4.4-0.1C179.5,386.8,179.6,386.9,179.8,386.9z"/>
			<path class="st47" d="M179.2,410.6c1.2-0.8,3.2-1.1,4.6-1.2c6.1-0.7,7,8.9,8.6,12.9l0,0.2c-1.4-0.2-2.8-0.6-4-1.2l0-0.1
				c-1-3,0.4-8.8-3-10.5c-1.9-1-4.2-0.5-6.5,0.5c0-0.1,0-0.3,0-0.4L179.2,410.6z"/>
			<path class="st52" d="M171.6,406.9c2.2,1,5,1.7,7.3,1.3c0,0.6,0,1.7,0,2.5c0,0.2,0,0.3,0,0.4c-2.4,1-4.7,2.6-6.3,3.6
				c-0.2,0-0.3,0-0.5,0c0-2.6,0.1-5-0.7-7.6L171.6,406.9z"/>
			<path class="st53" d="M175,489.3c-1.1,0-2.2-0.1-3.2-0.5c-0.1,0-0.3-0.1-0.4-0.2c-0.2-0.2-0.2-0.4-0.2-0.7c0-1.1,0-2.2,0.1-3.3
				c1,0,2,0,3,0l0.3,0C174.6,486.2,174.7,487.7,175,489.3z"/>
			<path class="st54" d="M172.1,414.7c0.2,0,0.3,0,0.5,0c1.1-0.1,2.3,0.2,3.5,0.4c2,0.4,4,0.8,5.8,1.7c1.9,1,3.4,2.6,5.2,3.7
				c0.4,0.3,0.9,0.5,1.3,0.7c1.3,0.6,2.6,1,4,1.2c2.5,0.4,5.1,0.5,7.6,0.6c1.2,0.1,1.3,0.6,1.2,1.3c0,0.2,0,0.5-0.1,0.8
				c0,0.2,0,1.2,0.1,2c0.1,0.5,0.2,1,0.4,1c-1.9,0.3-3.7,0.7-5.5,0.9c-2.3,0.3-4.5,0.6-6.8,0.6c-0.7,0-1.5,0-2.2,0
				c-2.2-0.1-4.4-0.3-6.6-0.6c-3-0.4-5.9-0.7-8.7-1.7c-1.5-0.5-3-1.3-3.8-2.7c-0.4-0.6-0.6-1.4-0.6-2.2c-0.2-2.8,1-6.2,3.3-7.2
				C171.2,414.9,171.6,414.8,172.1,414.7z"/>
			<path class="st55" d="M170.4,484c0.4-9.5,0.7-19.1,0-28.6c0.3,0,0.5,0,0.8,0c1,0,2.1-0.1,3-0.4c1.7-0.6,3-2.2,4.8-2.6l0.1,0.1
				c-2.6,3.6-4.7,6.4-5.1,7.1v0.2c-0.1,0-0.2,0-0.2,0l-0.2,0.5c2.2,8.4,0.5,16.4,0.9,24.4l-0.3,0c-1,0-2,0-3,0c-0.1,0-0.2,0-0.3,0
				c-0.1,0-0.2,0-0.4-0.1C170.4,484.4,170.4,484.2,170.4,484z"/>
		</g>
		<g>
		</g>
	</g>
</g>
<g id="symbols">
	<g id="wrench">
		<g>
			<g id="XMLID_13_">
				<g>
					<path class="st56" d="M303.4,196.6L303.4,196.6L303.4,196.6c0,0.3,0.1,0.6,0.1,0.9c0.1,0.6,0.2,1.3,0.3,2
						c0.1,1.2,0.1,2.4-0.1,3.6c-0.2,1.2-0.5,2.5-1,3.7c-0.4,1.1-1,2.1-1.6,2.8c-0.9,1-2.1,1.7-3.4,2.3c-1.2,0.6-2,0.9-2.2,2.1
						c-0.3,1.4-0.4,2.9-0.5,4.4c0,0.5,0,0.9-0.1,1.3c-0.4,4-0.7,7.8-0.9,11.6c0,0.6-0.1,1.2-0.2,1.8c-0.1,0.7-0.2,1.5-0.2,2.3
						c0,1,0,2-1.1,2.6c-0.2,0.1-0.4,0.2-0.6,0.3c-0.4,0.1-0.9,0.2-1.4,0.2l-0.4,0c-1.6,0-3.3,0-4.8-1.2c-1-0.9-0.8-2.5-0.7-3.8
						c0-0.2,0.1-0.5,0.1-0.7c0.1-2.4,0.2-4.2,0.4-5.9c0.2-2.8,0.6-5.6,0.9-8c0.1-0.7,0.2-1.4,0.2-2.1c0.1-0.7,0.2-1.4,0.2-2.1
						c0-0.1,0-0.3,0.1-0.4c0.1-0.8,0.2-1.8-0.2-2.3c-0.2-0.2-0.4-0.3-0.7-0.5c-0.1-0.1-0.2-0.1-0.3-0.2c-3.1-1.8-4.9-4.1-5.5-7
						c-0.7-2.9-0.4-5.9,0.7-8.3c1.2-2.6,4-5.3,7.5-5.1c0.5,0,1,0.2,1.3,0.5c0.3,0.4,0.3,0.9,0.3,1.4c-0.1,1.4-0.3,2.7-0.5,4
						c-0.2,1.1-0.3,2.3-0.4,3.4c0,0.1,0,0.2,0,0.3c0,0.1,0,0.2,0,0.3c0.3,1.1,1.8,1.5,4.5,1.3c0.4-0.1,0.7-0.1,1-0.3
						c0.2-0.2,0.3-0.5,0.3-0.9c0.2-1.6,0.4-3.1,0.5-4.6c0.1-0.8,0.2-1.6,0.2-2.3c0-0.1,0-0.3,0-0.4c0-0.5,0-1.2,0.4-1.6
						c0.5-0.4,1-0.6,1.7-0.5c1.8,0.2,4,1.9,4.8,2.9C302.5,194.7,302.9,195.5,303.4,196.6z M302.9,197.6c0-0.3-0.1-0.6-0.1-0.8
						c-0.4-1-0.8-1.7-1.2-2.3c-0.7-0.8-2.7-2.5-4.3-2.6c-0.5,0-1,0.1-1.3,0.4c-0.2,0.2-0.2,0.7-0.2,1.1c0,0.2,0,0.3,0,0.4
						c0,0.7-0.1,1.5-0.2,2.3c-0.1,1.5-0.3,3-0.5,4.6c-0.1,0.4-0.2,0.9-0.5,1.3c-0.4,0.3-0.9,0.4-1.3,0.5c-1.2,0.1-4.6,0.4-5.2-1.7
						c-0.1-0.2,0-0.4,0-0.5c0-0.1,0-0.2,0-0.2c0.1-1.2,0.3-2.4,0.4-3.5c0.2-1.3,0.4-2.6,0.5-4c0-0.4,0-0.8-0.2-1
						c-0.2-0.2-0.5-0.3-0.8-0.3c-0.7,0-1.4,0.1-2.1,0.2c-2.3,0.7-4,2.6-4.9,4.5c-1,2.3-1.3,5.2-0.6,7.9c0.6,2.8,2.3,4.9,5.2,6.6
						c0.1,0.1,0.2,0.1,0.3,0.2c0.3,0.2,0.5,0.3,0.8,0.6c0.7,0.8,0.5,1.9,0.4,2.8c0,0.1,0,0.3,0,0.4c-0.1,0.7-0.2,1.4-0.2,2.2
						c-0.1,0.7-0.2,1.4-0.2,2.1c-0.3,2.4-0.7,5.2-0.9,8c-0.1,1.7-0.3,3.5-0.4,5.9c0,0.2,0,0.5-0.1,0.7c-0.1,1.1-0.3,2.5,0.5,3.2
						c1.2,1,2.8,1.1,4.4,1.1l0.4,0c0.6,0,1.2,0,1.7-0.3c0.8-0.5,0.8-1.1,0.8-2c0-0.8,0.1-1.6,0.2-2.4c0.1-0.6,0.2-1.2,0.2-1.8
						c0.3-3.8,0.6-7.5,0.9-11.6c0-0.4,0.1-0.9,0.1-1.3c0.1-1.5,0.2-3,0.5-4.5c0.3-1.4,1.3-1.9,2.6-2.5c1.3-0.5,2.4-1.3,3.2-2.2
						c0.6-0.7,1.1-1.6,1.5-2.6c0.9-2.4,1.3-4.9,1.1-7.1C303.1,198.9,303,198.2,302.9,197.6z"/>
					<path class="st57" d="M302.8,196.7c0,0.3,0.1,0.5,0.1,0.8c0.1,0.6,0.2,1.3,0.3,1.9c0.2,2.2-0.2,4.7-1.1,7.1
						c-0.4,1-0.9,1.9-1.5,2.6c-0.8,0.9-1.9,1.6-3.2,2.2c-1.2,0.6-2.2,1-2.6,2.5c-0.3,1.4-0.4,3-0.5,4.5c0,0.5,0,0.9-0.1,1.3
						c-0.4,4-0.7,7.8-0.9,11.6c0,0.6-0.1,1.2-0.2,1.8c-0.1,0.8-0.2,1.5-0.2,2.4c0,0.9,0,1.6-0.8,2c-0.4,0.3-1.1,0.3-1.7,0.3l-0.4,0
						c-1.6,0-3.1,0-4.4-1.1c-0.8-0.7-0.6-2.1-0.5-3.2c0-0.3,0.1-0.5,0.1-0.7c0.1-2.4,0.2-4.2,0.4-5.9c0.2-2.8,0.6-5.6,0.9-8
						c0.1-0.7,0.2-1.4,0.2-2.1c0.1-0.7,0.2-1.4,0.2-2.2c0-0.1,0-0.3,0-0.4c0.1-0.9,0.3-2.1-0.4-2.8c-0.2-0.2-0.5-0.4-0.8-0.6
						c-0.1-0.1-0.2-0.1-0.3-0.2c-2.9-1.7-4.6-3.9-5.2-6.6c-0.6-2.7-0.4-5.6,0.6-7.9c0.8-1.9,2.6-3.8,4.9-4.5
						c0.7-0.2,1.4-0.3,2.1-0.2c0.4,0,0.7,0.1,0.8,0.3c0.2,0.2,0.2,0.6,0.2,1c-0.1,1.3-0.3,2.7-0.5,4c-0.2,1.1-0.3,2.3-0.4,3.5
						c0,0.1,0,0.2,0,0.2c0,0.2,0,0.3,0,0.5c0.6,2.1,4,1.8,5.2,1.7c0.4-0.1,0.9-0.1,1.3-0.5c0.4-0.3,0.5-0.8,0.5-1.3
						c0.2-1.6,0.4-3.2,0.5-4.6c0.1-0.8,0.2-1.6,0.2-2.3c0-0.1,0-0.3,0-0.4c0-0.4,0-0.9,0.2-1.1c0.3-0.3,0.8-0.4,1.3-0.4
						c1.6,0.1,3.7,1.8,4.3,2.6C302,195,302.4,195.7,302.8,196.7z M291.3,232.4c0-0.8-0.3-1.4-0.9-1.8c-0.7-0.4-1.7-0.4-2.4,0.1
						c-0.6,0.4-0.9,1.1-0.9,1.8c0.1,1.2,1.2,1.8,2.2,1.8c0.2,0,0.5,0,0.7-0.1c0.6-0.2,1.2-0.7,1.3-1.5
						C291.3,232.6,291.4,232.5,291.3,232.4z"/>
				</g>
				<g>
				</g>
			</g>
		</g>
	</g>
	<g id="flask">
		<g id="XMLID_12_">
			<g>
				<path class="st58" d="M293.1,116.4c0-0.2,0-0.3-0.1-0.5l0.1-0.1l1.6,2.6c0,0,3.9,7,4.5,10.1c1.2,6.4-11.8,7.7-15.9,7.7
					c-3.5,0-7.1-0.5-10.4-1.8c-2.2-0.9-5.1-2.7-6-5.1c-1.1-2.9,2.3-7.5,3.6-9.8c0.4-0.7,1.3-2.1,2.2-3.7c0,0.1-0.1,0.2-0.1,0.3
					c0,1.7,4.6,3,10.2,3C288.5,119.4,293.1,118,293.1,116.4z"/>
				<path class="st59" d="M292.9,115.9c0.1,0.2,0.1,0.3,0.1,0.5c0,1.7-4.6,3-10.2,3c-5.6,0-10.2-1.4-10.2-3c0-0.1,0-0.2,0.1-0.3
					c0.1-0.1,0.2-0.2,0.2-0.4c1.1-1.3,5.1-2.3,9.9-2.3C287.9,113.3,292.2,114.4,292.9,115.9z"/>
				<path class="st60" d="M282.8,113.3c-4.8,0-8.8,1-9.9,2.3c1.8-3,3.9-6.6,3.9-7.1c0.1-2.2,0.1-4.4,0.1-6.6
					c0.1-3.3,0.6-6.3-2.4-8.6c-0.8-0.6-1.4-1.1-1.1-2.3c0.3-1.3,5.6-1.1,6.6-1.1c3.1-0.1,6.3,0,9.4,0.2c0.4,0,0.8,0,1.2,0.2
					c1,0.4,1.1,1.5,0.5,2.3c-0.3,0.4-0.7,0.7-1.1,1c-0.5,0.4-0.8,0.8-1.1,1.3c-0.9,1.5-0.9,3.3-0.9,5.1c0,3.1,0.3,4.9,0.3,8l4.8,7.9
					l-0.1,0.1C292.2,114.4,287.9,113.3,282.8,113.3z"/>
				<path class="st61" d="M272.7,116c0.1-0.1,0.1-0.2,0.2-0.4C272.8,115.8,272.8,115.9,272.7,116z"/>
			</g>
			<g>
			</g>
		</g>
		<circle class="st62" cx="283.2" cy="104.4" r="1.7"/>
		<circle class="st62" cx="277.2" cy="81.9" r="1.7"/>
		<circle class="st62" cx="288.1" cy="74.9" r="2.7"/>
		<circle class="st62" cx="282.2" cy="96.1" r="1"/>
		<circle class="st62" cx="279.5" cy="127.3" r="1.7"/>
		<circle class="st62" cx="286.8" cy="132.6" r="1"/>
	</g>
	<g id="gear">
		<g id="circle_1_">
			<g id="XMLID_10_">
				<g>
					<path class="st63" d="M151.4,149c0.5,0.8,0.6,2.1,0.1,4c-1.1,4.5-3.2,4.6-4.7,4.2l0.3-1.5c0.4,0.1,0.7,0.1,0.9-0.1
						c0.4-0.2,1.1-0.9,1.6-3c0.4-1.7,0.2-2.4,0.1-2.7c-0.3-0.5-1.1-0.6-2-0.8c-0.1,0-0.3,0-0.4-0.1c-0.1,0-0.2-0.1-0.4-0.1
						c-1.1-0.2-2.6-0.4-3.8-2.6c-0.4-0.6-0.7-1.4-1-2.4c-1.3-3.4-1.1-4.5,1.1-6.7c1.1-1.2,1.1-1.6,0.7-2.4c-0.4-0.6-1-1.4-2.2-2.2
						c-1.4-1-2-1.1-2.3-1c-0.2,0-0.5,0.2-0.7,0.5c-0.2,0.2-0.5,0.6-0.7,0.9c-1.8,3-4.1,2.6-7.1,2.1c-2.6-0.4-4-0.9-5.1-2.9
						c-0.2-0.4-0.4-0.8-0.6-1.1l-0.1-0.3c-0.2-0.3-0.3-0.7-0.5-1c-0.3-0.6-0.7-1.3-3.7-0.2c-1.1,0.4-1.9,0.9-2.1,1.4
						c-0.2,0.4,0,1,0.3,1.8c0.1,0.2,0.1,0.4,0.2,0.6c0,0,0,0.2,0.1,0.3c0.6,1.6,0.9,3.2-1.4,6.1c-1.8,2.5-3.6,3.5-5.8,3.2
						c-0.2,0-0.5-0.1-0.8-0.1l-0.2,0c-0.7-0.2-1.3-0.3-1.8-0.1c-0.2,0.1-0.9,0.7-1.2,2.9c-0.2,1.3-0.1,2.3,0.2,2.8
						c0.3,0.5,0.9,0.7,1.8,0.7c0.1,0,0.2,0,0.3,0c1.7,0.1,3,0.6,4,2.5c0.4,0.6,0.7,1.4,1.1,2.5c1.3,3.7,0.9,5-0.5,6.7
						c-0.1,0.2-0.3,0.3-0.4,0.5c-0.5,0.6-0.8,0.9-0.8,1.3l-1.5-0.3c0.2-1.1,1.1-1.9,1.6-2.5c0.9-1.2,1.4-1.8,0.2-5.1
						c-0.4-1-0.7-1.7-1-2.3c-0.7-1.3-1.5-1.6-2.7-1.7c-0.5,0-2.5,0-3.4-1.6c-0.5-0.8-0.7-2-0.3-3.9c1-5.6,3.9-4.5,5.3-4.1
						c1.3,0.3,2.8,0.3,4.8-2.4c2-2.7,1.4-3.7,1-5c-0.4-1.2-2.2-4.1,2.6-5.9c3.7-1.4,5-0.4,5.8,1c0.2,0.4,0.5,1,0.7,1.4
						c0.1,0.4,0.3,0.7,0.5,1c0.7,1.2,1.5,1.7,3.9,2c3.1,0.6,4.2,0.6,5.4-1.4c1.1-1.6,2.4-3.6,6.1-0.7c1.2,1,1.9,1.9,2.4,2.6
						c1.1,1.9,0.2,3.2-0.8,4.2c-1.6,1.6-1.9,1.9-0.7,4.9c0.3,1,0.7,1.6,1,2.2c1,1.7,1.8,1.6,3,1.9
						C148.8,147.5,150.6,147.6,151.4,149z"/>
					<path class="st64" d="M149.7,149.9c0.2,0.3,0.4,1-0.1,2.7c-0.5,2.2-1.2,2.8-1.6,3c-0.3,0.1-0.6,0.1-0.9,0.1
						c-0.2,0-0.4-0.1-0.7-0.2c-2.9-1-5,0.8-6.8,2.8c-2.5,2.8-2.2,4.6-1.7,6l0.1,0.1c0.1,0.4,0.3,0.8,0.5,1.2
						c0.2,0.5,0.5,1.1,0.4,1.3c0,0.1-0.3,0.6-2.1,1.3c-3.2,1.3-3.6,0.6-3.9,0.1c-0.2-0.3-0.4-0.8-0.6-1.3c-0.2-0.6-0.4-1.1-0.6-1.6
						c-1.1-1.9-2.7-2.1-4.9-2.4l-0.2,0l-0.2,0c-2.6-0.4-4-0.6-6.2,1.8c-0.2,0.2-0.4,0.4-0.6,0.7c-0.5,0.5-0.9,1.1-1.3,1.1
						c-0.2,0-0.9,0-2.7-1.5c-0.9-0.8-1.3-1.4-1.5-1.7c-0.2-0.3-0.2-0.5-0.2-0.7c0-0.3,0.3-0.7,0.8-1.3c0.2-0.2,0.3-0.3,0.4-0.5
						c1.4-1.7,1.8-3,0.5-6.7c-0.4-1.1-0.7-1.9-1.1-2.5c-1.1-1.9-2.4-2.4-4-2.5c-0.1,0-0.2,0-0.3,0c-0.9,0-1.5-0.2-1.8-0.7
						c-0.3-0.5-0.3-1.5-0.2-2.8c0.4-2.2,1-2.8,1.2-2.9c0.4-0.2,1.1-0.2,1.8,0.1l0.2,0c0.3,0.1,0.5,0.1,0.8,0.1
						c2.2,0.3,4-0.7,5.8-3.2c2.2-2.9,1.9-4.6,1.4-6.1c-0.1-0.1-0.1-0.2-0.1-0.3c-0.1-0.2-0.1-0.4-0.2-0.6c-0.3-0.7-0.5-1.3-0.3-1.8
						c0.2-0.5,1-1,2.1-1.4c3-1.1,3.4-0.4,3.7,0.2c0.2,0.3,0.3,0.6,0.5,1l0.1,0.3c0.1,0.4,0.4,0.8,0.6,1.1c1.1,2,2.6,2.5,5.1,2.9
						c3,0.5,5.3,0.9,7.1-2.1c0.2-0.3,0.5-0.6,0.7-0.9c0.2-0.3,0.5-0.4,0.7-0.5c0.2-0.1,0.9,0,2.3,1c1.2,0.8,1.8,1.5,2.2,2.2
						c0.4,0.7,0.5,1.2-0.7,2.4c-2.2,2.2-2.4,3.3-1.1,6.7c0.4,1,0.7,1.8,1,2.4c1.2,2.2,2.6,2.4,3.8,2.6c0.1,0,0.2,0.1,0.4,0.1
						c0.2,0,0.3,0,0.4,0.1C148.6,149.3,149.4,149.4,149.7,149.9z M131.8,154.3c2.8-1.6,3.8-5.2,2.2-8s-5.2-3.8-8-2.2
						c-2.8,1.6-3.8,5.2-2.2,8C125.4,154.9,128.9,155.9,131.8,154.3z"/>
					<path class="st63" d="M147.1,155.7l-0.3,1.5c-0.2-0.1-0.5-0.1-0.6-0.2c-1.5-0.5-2.8-0.1-5,2.3c-2.2,2.4-1.6,3.5-1.3,4.5
						c0.5,1.8,2.8,3.9-2.2,5.9c-3.8,1.5-5.1,0.8-5.9-0.6c-0.2-0.4-0.5-1-0.7-1.6c-0.1-0.5-0.3-0.9-0.5-1.3c-0.7-1.2-1.7-1.2-4-1.6
						c-2.4-0.4-3.1-0.6-4.9,1.3c-1.7,1.8-2.6,4-6.9,0.4c-1-0.8-1.6-1.6-1.9-2.2c-0.4-0.7-0.5-1.3-0.4-1.8l1.5,0.3
						c0,0.2,0,0.4,0.2,0.7c0.2,0.3,0.6,0.9,1.5,1.7c1.8,1.5,2.6,1.6,2.7,1.5c0.4,0,0.8-0.6,1.3-1.1c0.2-0.2,0.4-0.4,0.6-0.7
						c2.2-2.4,3.7-2.3,6.2-1.8l0.2,0l0.2,0c2.3,0.3,3.9,0.5,4.9,2.4c0.2,0.4,0.4,0.9,0.6,1.6c0.2,0.5,0.4,1,0.6,1.3
						c0.3,0.5,0.7,1.2,3.9-0.1c1.8-0.7,2.1-1.2,2.1-1.3c0.1-0.3-0.2-0.8-0.4-1.3c-0.2-0.4-0.4-0.8-0.5-1.2l-0.1-0.1
						c-0.5-1.5-0.8-3.2,1.7-6c1.7-1.9,3.9-3.8,6.8-2.8C146.7,155.6,146.9,155.7,147.1,155.7z"/>
				</g>
				<g>
				</g>
			</g>
		</g>
	</g>
	<g id="terminal">
		<g id="XMLID_4_">
			<g>
				<path class="st65" d="M148,240.4v20.4c0,1.9-1.6,3.5-3.5,3.5h-38.8c-1.9,0-3.5-1.6-3.5-3.5v-20.4c15,0,30.2,0,45.2,0H148z"/>
				<path class="st66" d="M148,235.5v4.9h-0.6c-15,0-30.2,0-45.2,0v-4.9c0-1.9,1.6-3.5,3.5-3.5h38.8
					C146.4,231.9,148,233.5,148,235.5z"/>
			</g>
			<g>
			</g>
		</g>
		<g>
			<path class="st39" d="M108.3,236.7"/>
			<g>
				<path class="st67" d="M108.3,238.5c2.3,0,2.3-3.5,0-3.5C106.1,235,106.1,238.5,108.3,238.5L108.3,238.5z"/>
			</g>
		</g>
		<g>
			<g>
				<path class="st68" d="M118.3,247.5c0,3.3,0,6.7,0,10c0,0.7,1.2,0.7,1.2,0c0-3.3,0-6.7,0-10C119.4,246.7,118.3,246.7,118.3,247.5
					L118.3,247.5z"/>
			</g>
		</g>
		<g>
			<g>
				<path class="st68" d="M128.6,253.1c0.1-2,0-5.6-2.6-6.1c-2.7-0.5-3.3,3.1-3.4,5.1c-0.1,2,0,6.5,3.1,6.3
					C128.1,258.2,128.5,254.8,128.6,253.1c0.1-0.7-1.1-0.7-1.2,0c-0.1,0.8-0.2,2.4-0.7,3.1c-2,2.8-2.9-1.1-3-1.9
					c-0.1-0.7,0-1.4,0-2.1c0-1.2,0.9-6,3.1-3c0.8,1.1,0.7,2.7,0.6,4C127.5,253.8,128.6,253.8,128.6,253.1z"/>
			</g>
		</g>
		<g>
			<g>
				<path class="st68" d="M132,247.5c0,3.3,0,6.7,0,10c0,0.7,1.2,0.7,1.2,0c0-3.3,0-6.7,0-10C133.2,246.7,132,246.7,132,247.5
					L132,247.5z"/>
			</g>
		</g>
		<g>
			<g>
				<path class="st68" d="M127.2,249.1c-1.3,1.7-2.7,3.4-4.1,5c-0.5,0.6,0.3,1.4,0.8,0.8c1.4-1.7,2.7-3.3,4.1-5
					C128.5,249.3,127.6,248.5,127.2,249.1L127.2,249.1z"/>
			</g>
		</g>
		<g>
			<g>
				<path class="st68" d="M118.2,247.1c-0.4,0.5-0.7,1.1-1,1.7c-0.3,0.7,0.7,1.2,1,0.6c0.3-0.6,0.6-1.1,1-1.7
					C119.6,247.1,118.6,246.5,118.2,247.1L118.2,247.1z"/>
			</g>
		</g>
		<g>
			<g>
				<path class="st68" d="M117.4,258.1c1,0,2,0,3.1,0c0.7,0,0.7-1.2,0-1.2c-1,0-2,0-3.1,0C116.7,256.9,116.7,258.1,117.4,258.1
					L117.4,258.1z"/>
			</g>
		</g>
		<g>
			<g>
				<path class="st68" d="M132,247.1c-0.4,0.5-0.7,1.1-1,1.7c-0.3,0.7,0.7,1.2,1,0.6c0.3-0.6,0.6-1.1,1-1.7
					C133.4,247.1,132.4,246.5,132,247.1L132,247.1z"/>
			</g>
		</g>
		<g>
			<g>
				<path class="st68" d="M131.2,258.1c1,0,2,0,3.1,0c0.7,0,0.7-1.2,0-1.2c-1,0-2,0-3.1,0C130.4,256.9,130.4,258.1,131.2,258.1
					L131.2,258.1z"/>
			</g>
		</g>
		<g>
			<g>
				<path class="st68" d="M142.4,253.1c0.1-2,0-5.6-2.6-6.1c-2.7-0.5-3.3,3.1-3.4,5.1c-0.1,2,0,6.5,3.1,6.3
					C141.8,258.2,142.2,254.8,142.4,253.1c0.1-0.7-1.1-0.7-1.2,0c-0.1,0.8-0.2,2.4-0.7,3.1c-2,2.8-2.9-1.1-3-1.9
					c-0.1-0.7,0-1.4,0-2.1c0-1.2,0.9-6,3.1-3c0.8,1.1,0.7,2.7,0.6,4C141.2,253.8,142.4,253.8,142.4,253.1z"/>
			</g>
		</g>
		<g>
			<g>
				<path class="st68" d="M140.9,249.1c-1.3,1.7-2.7,3.4-4.1,5c-0.5,0.6,0.3,1.4,0.8,0.8c1.4-1.7,2.7-3.3,4.1-5
					C142.2,249.3,141.4,248.5,140.9,249.1L140.9,249.1z"/>
			</g>
		</g>
		<g>
			<g>
				<path class="st68" d="M114.4,253.1c0.1-2,0-5.6-2.6-6.1c-2.7-0.5-3.3,3.1-3.4,5.1c-0.1,2,0,6.5,3.1,6.3
					C113.8,258.2,114.2,254.8,114.4,253.1c0.1-0.7-1.1-0.7-1.2,0c-0.1,0.8-0.2,2.4-0.7,3.1c-2,2.8-2.9-1.1-3-1.9
					c-0.1-0.7,0-1.4,0-2.1c0-1.2,0.9-6,3.1-3c0.8,1.1,0.7,2.7,0.6,4C113.2,253.8,114.3,253.8,114.4,253.1z"/>
			</g>
		</g>
		<g>
			<g>
				<path class="st68" d="M112.9,249.1c-1.3,1.7-2.7,3.4-4.1,5c-0.5,0.6,0.3,1.4,0.8,0.8c1.4-1.7,2.7-3.3,4.1-5
					C114.2,249.3,113.3,248.5,112.9,249.1L112.9,249.1z"/>
			</g>
		</g>
		<g>
			<g>
				<path class="st69" d="M112.8,238.5c2.3,0,2.3-3.5,0-3.5C110.6,235,110.6,238.5,112.8,238.5L112.8,238.5z"/>
			</g>
		</g>
		<g>
			<g>
				<path class="st70" d="M117.4,238.5c2.3,0,2.3-3.5,0-3.5C115.1,235,115.1,238.5,117.4,238.5L117.4,238.5z"/>
			</g>
		</g>
		<path class="st71" d="M-361.8,366.1"/>
	</g>
</g>
</svg>
