<svg width="317" height="394" viewBox="0 0 317 394" fill="none" xmlns="http://www.w3.org/2000/svg">
<path d="M38 394H278C299 394 316 377 316 356V45C316 24 299 7 278 7H38C17 7 0 24 0 45V356C0 377 17 394 38 394Z" fill="#FFFFF7"/>
<mask id="mask0" mask-type="alpha" maskUnits="userSpaceOnUse" x="0" y="7" width="316" height="387">
<path d="M38 394H278C299 394 316 377 316 356V45C316 24 299 7 278 7H38C17 7 0 24 0 45V356C0 377 17 394 38 394Z" fill="#FFFFF7"/>
</mask>
<g mask="url(#mask0)">
<g filter="url(#filter0_i)">
<path d="M357.62 94.6585L425 715L29.7974 715L-18.144 268.52C-53.7678 138.017 27.7613 243.482 55.3946 250.662C83.0279 257.842 88.0324 237.825 100.652 209.105C113.272 180.384 153.308 177.773 196.39 182.342C239.472 186.912 260.577 184.301 270.804 152.534C281.03 120.768 289.951 89.0015 357.62 94.6585Z" fill="#EDAFB0"/>
</g>
<path d="M58.6925 81.665C58.6925 84.05 58.2875 86.2475 57.4775 88.2575C56.6825 90.2525 55.55 91.97 54.08 93.41C52.625 94.85 50.87 95.975 48.815 96.785C46.76 97.595 44.48 98 41.975 98H29.42V65.3525H41.975C44.48 65.3525 46.76 65.7575 48.815 66.5675C50.87 67.3775 52.625 68.51 54.08 69.965C55.55 71.405 56.6825 73.1225 57.4775 75.1175C58.2875 77.1125 58.6925 79.295 58.6925 81.665ZM51.7625 81.665C51.7625 79.955 51.5375 78.4175 51.0875 77.0525C50.6375 75.6875 49.9925 74.5325 49.1525 73.5875C48.3125 72.6425 47.285 71.915 46.07 71.405C44.87 70.895 43.505 70.64 41.975 70.64H36.215V92.7125H41.975C43.505 92.7125 44.87 92.465 46.07 91.97C47.285 91.46 48.3125 90.7325 49.1525 89.7875C49.9925 88.8275 50.6375 87.665 51.0875 86.3C51.5375 84.935 51.7625 83.39 51.7625 81.665ZM77.2497 83.6675C77.2497 83.0225 77.1597 82.4075 76.9797 81.8225C76.8147 81.2375 76.5447 80.72 76.1697 80.27C75.7947 79.82 75.3222 79.4675 74.7522 79.2125C74.1822 78.9425 73.4997 78.8075 72.7047 78.8075C71.2197 78.8075 70.0572 79.2275 69.2172 80.0675C68.3772 80.9075 67.8297 82.1075 67.5747 83.6675H77.2497ZM67.4847 87.3575C67.6797 89.5325 68.2947 91.1225 69.3297 92.1275C70.3797 93.1325 71.7447 93.635 73.4247 93.635C74.2797 93.635 75.0147 93.5375 75.6297 93.3425C76.2597 93.1325 76.8072 92.9075 77.2722 92.6675C77.7522 92.4125 78.1797 92.1875 78.5547 91.9925C78.9447 91.7825 79.3272 91.6775 79.7022 91.6775C80.1822 91.6775 80.5572 91.8575 80.8272 92.2175L82.6272 94.4675C81.9672 95.2325 81.2397 95.87 80.4447 96.38C79.6497 96.875 78.8247 97.2725 77.9697 97.5725C77.1147 97.8575 76.2522 98.0525 75.3822 98.1575C74.5122 98.2775 73.6722 98.3375 72.8622 98.3375C71.2422 98.3375 69.7272 98.075 68.3172 97.55C66.9222 97.01 65.6997 96.2225 64.6497 95.1875C63.6147 94.1375 62.7972 92.84 62.1972 91.295C61.5972 89.75 61.2972 87.9575 61.2972 85.9175C61.2972 84.3425 61.5522 82.8575 62.0622 81.4625C62.5872 80.0675 63.3372 78.8525 64.3122 77.8175C65.2872 76.7825 66.4722 75.965 67.8672 75.365C69.2622 74.75 70.8372 74.4425 72.5922 74.4425C74.0772 74.4425 75.4422 74.6825 76.6872 75.1625C77.9472 75.6275 79.0272 76.31 79.9272 77.21C80.8422 78.11 81.5472 79.22 82.0422 80.54C82.5522 81.845 82.8072 83.3375 82.8072 85.0175C82.8072 85.4825 82.7847 85.865 82.7397 86.165C82.6947 86.465 82.6197 86.705 82.5147 86.885C82.4097 87.065 82.2672 87.1925 82.0872 87.2675C81.9072 87.3275 81.6747 87.3575 81.3897 87.3575H67.4847ZM101.083 79.5725C100.918 79.8275 100.746 80.015 100.566 80.135C100.401 80.24 100.168 80.2925 99.8682 80.2925C99.5682 80.2925 99.2607 80.2175 98.9457 80.0675C98.6307 79.9175 98.2782 79.76 97.8882 79.595C97.4982 79.415 97.0482 79.25 96.5382 79.1C96.0432 78.95 95.4657 78.875 94.8057 78.875C93.8007 78.875 93.0207 79.085 92.4657 79.505C91.9107 79.91 91.6332 80.45 91.6332 81.125C91.6332 81.59 91.7907 81.98 92.1057 82.295C92.4207 82.61 92.8332 82.8875 93.3432 83.1275C93.8682 83.3525 94.4607 83.57 95.1207 83.78C95.7807 83.975 96.4557 84.1925 97.1457 84.4325C97.8507 84.6725 98.5332 84.95 99.1932 85.265C99.8532 85.58 100.438 85.9775 100.948 86.4575C101.473 86.9225 101.893 87.4925 102.208 88.1675C102.523 88.8275 102.681 89.63 102.681 90.575C102.681 91.7 102.471 92.7425 102.051 93.7025C101.646 94.6475 101.046 95.465 100.251 96.155C99.4557 96.845 98.4657 97.385 97.2807 97.775C96.0957 98.165 94.7307 98.36 93.1857 98.36C92.3907 98.36 91.6032 98.285 90.8232 98.135C90.0432 98 89.3007 97.805 88.5957 97.55C87.8907 97.28 87.2307 96.9725 86.6157 96.6275C86.0007 96.2825 85.4682 95.9075 85.0182 95.5025L86.4582 93.185C86.6232 92.915 86.8257 92.705 87.0657 92.555C87.3207 92.405 87.6432 92.33 88.0332 92.33C88.4082 92.33 88.7532 92.4275 89.0682 92.6225C89.3832 92.8025 89.7357 93.005 90.1257 93.23C90.5157 93.44 90.9732 93.6425 91.4982 93.8375C92.0382 94.0175 92.7057 94.1075 93.5007 94.1075C94.1007 94.1075 94.6182 94.04 95.0532 93.905C95.4882 93.77 95.8407 93.59 96.1107 93.365C96.3807 93.125 96.5757 92.8625 96.6957 92.5775C96.8307 92.2775 96.8982 91.97 96.8982 91.655C96.8982 91.145 96.7332 90.7325 96.4032 90.4175C96.0882 90.0875 95.6682 89.8025 95.1432 89.5625C94.6332 89.3225 94.0407 89.105 93.3657 88.91C92.6907 88.715 92.0007 88.4975 91.2957 88.2575C90.6057 88.0175 89.9232 87.7325 89.2482 87.4025C88.5882 87.0725 87.9957 86.66 87.4707 86.165C86.9607 85.655 86.5407 85.0325 86.2107 84.2975C85.8957 83.5625 85.7382 82.67 85.7382 81.62C85.7382 80.66 85.9257 79.7525 86.3007 78.8975C86.6757 78.0275 87.2382 77.2625 87.9882 76.6025C88.7382 75.9425 89.6682 75.4175 90.7782 75.0275C91.9032 74.6375 93.2007 74.4425 94.6707 74.4425C96.3207 74.4425 97.8207 74.7125 99.1707 75.2525C100.521 75.7925 101.631 76.4975 102.501 77.3675L101.083 79.5725ZM114.578 98.36C113.528 98.36 112.598 98.21 111.788 97.91C110.978 97.595 110.295 97.1525 109.74 96.5825C109.185 96.0125 108.765 95.3225 108.48 94.5125C108.195 93.7025 108.053 92.7875 108.053 91.7675V79.2575H105.87C105.54 79.2575 105.255 79.1525 105.015 78.9425C104.79 78.7325 104.678 78.4175 104.678 77.9975V75.5675L108.39 74.8925L109.65 68.885C109.815 68.21 110.273 67.8725 111.023 67.8725H114.263V74.9375H120.248V79.2575H114.263V91.3625C114.263 92.0075 114.413 92.5175 114.713 92.8925C115.028 93.2675 115.47 93.455 116.04 93.455C116.34 93.455 116.595 93.425 116.805 93.365C117.015 93.29 117.195 93.215 117.345 93.14C117.495 93.05 117.63 92.975 117.75 92.915C117.885 92.84 118.02 92.8025 118.155 92.8025C118.335 92.8025 118.485 92.8475 118.605 92.9375C118.725 93.0125 118.845 93.1475 118.965 93.3425L120.833 96.3125C119.978 96.9875 119.01 97.4975 117.93 97.8425C116.85 98.1875 115.733 98.36 114.578 98.36ZM129.402 78.6275C130.137 77.3075 130.985 76.265 131.945 75.5C132.905 74.735 134.03 74.3525 135.32 74.3525C136.37 74.3525 137.225 74.6 137.885 75.095L137.48 79.685C137.405 79.985 137.285 80.195 137.12 80.315C136.97 80.42 136.76 80.4725 136.49 80.4725C136.25 80.4725 135.905 80.4425 135.455 80.3825C135.005 80.3075 134.585 80.27 134.195 80.27C133.625 80.27 133.115 80.3525 132.665 80.5175C132.23 80.6825 131.84 80.915 131.495 81.215C131.15 81.515 130.835 81.8825 130.55 82.3175C130.28 82.7525 130.025 83.2475 129.785 83.8025V98H123.575V74.8025H127.242C127.872 74.8025 128.307 74.915 128.547 75.14C128.787 75.365 128.96 75.755 129.065 76.31L129.402 78.6275ZM154.725 83.6675C154.725 83.0225 154.635 82.4075 154.455 81.8225C154.29 81.2375 154.02 80.72 153.645 80.27C153.27 79.82 152.798 79.4675 152.228 79.2125C151.658 78.9425 150.975 78.8075 150.18 78.8075C148.695 78.8075 147.533 79.2275 146.693 80.0675C145.853 80.9075 145.305 82.1075 145.05 83.6675H154.725ZM144.96 87.3575C145.155 89.5325 145.77 91.1225 146.805 92.1275C147.855 93.1325 149.22 93.635 150.9 93.635C151.755 93.635 152.49 93.5375 153.105 93.3425C153.735 93.1325 154.283 92.9075 154.748 92.6675C155.228 92.4125 155.655 92.1875 156.03 91.9925C156.42 91.7825 156.803 91.6775 157.178 91.6775C157.658 91.6775 158.033 91.8575 158.303 92.2175L160.103 94.4675C159.443 95.2325 158.715 95.87 157.92 96.38C157.125 96.875 156.3 97.2725 155.445 97.5725C154.59 97.8575 153.728 98.0525 152.858 98.1575C151.988 98.2775 151.148 98.3375 150.338 98.3375C148.718 98.3375 147.203 98.075 145.793 97.55C144.398 97.01 143.175 96.2225 142.125 95.1875C141.09 94.1375 140.273 92.84 139.673 91.295C139.073 89.75 138.773 87.9575 138.773 85.9175C138.773 84.3425 139.028 82.8575 139.538 81.4625C140.063 80.0675 140.813 78.8525 141.788 77.8175C142.763 76.7825 143.948 75.965 145.343 75.365C146.738 74.75 148.313 74.4425 150.068 74.4425C151.553 74.4425 152.918 74.6825 154.163 75.1625C155.423 75.6275 156.503 76.31 157.403 77.21C158.318 78.11 159.023 79.22 159.518 80.54C160.028 81.845 160.283 83.3375 160.283 85.0175C160.283 85.4825 160.26 85.865 160.215 86.165C160.17 86.465 160.095 86.705 159.99 86.885C159.885 87.065 159.743 87.1925 159.563 87.2675C159.383 87.3275 159.15 87.3575 158.865 87.3575H144.96ZM178.559 79.5725C178.394 79.8275 178.221 80.015 178.041 80.135C177.876 80.24 177.644 80.2925 177.344 80.2925C177.044 80.2925 176.736 80.2175 176.421 80.0675C176.106 79.9175 175.754 79.76 175.364 79.595C174.974 79.415 174.524 79.25 174.014 79.1C173.519 78.95 172.941 78.875 172.281 78.875C171.276 78.875 170.496 79.085 169.941 79.505C169.386 79.91 169.109 80.45 169.109 81.125C169.109 81.59 169.266 81.98 169.581 82.295C169.896 82.61 170.309 82.8875 170.819 83.1275C171.344 83.3525 171.936 83.57 172.596 83.78C173.256 83.975 173.931 84.1925 174.621 84.4325C175.326 84.6725 176.009 84.95 176.669 85.265C177.329 85.58 177.914 85.9775 178.424 86.4575C178.949 86.9225 179.369 87.4925 179.684 88.1675C179.999 88.8275 180.156 89.63 180.156 90.575C180.156 91.7 179.946 92.7425 179.526 93.7025C179.121 94.6475 178.521 95.465 177.726 96.155C176.931 96.845 175.941 97.385 174.756 97.775C173.571 98.165 172.206 98.36 170.661 98.36C169.866 98.36 169.079 98.285 168.299 98.135C167.519 98 166.776 97.805 166.071 97.55C165.366 97.28 164.706 96.9725 164.091 96.6275C163.476 96.2825 162.944 95.9075 162.494 95.5025L163.934 93.185C164.099 92.915 164.301 92.705 164.541 92.555C164.796 92.405 165.119 92.33 165.509 92.33C165.884 92.33 166.229 92.4275 166.544 92.6225C166.859 92.8025 167.211 93.005 167.601 93.23C167.991 93.44 168.449 93.6425 168.974 93.8375C169.514 94.0175 170.181 94.1075 170.976 94.1075C171.576 94.1075 172.094 94.04 172.529 93.905C172.964 93.77 173.316 93.59 173.586 93.365C173.856 93.125 174.051 92.8625 174.171 92.5775C174.306 92.2775 174.374 91.97 174.374 91.655C174.374 91.145 174.209 90.7325 173.879 90.4175C173.564 90.0875 173.144 89.8025 172.619 89.5625C172.109 89.3225 171.516 89.105 170.841 88.91C170.166 88.715 169.476 88.4975 168.771 88.2575C168.081 88.0175 167.399 87.7325 166.724 87.4025C166.064 87.0725 165.471 86.66 164.946 86.165C164.436 85.655 164.016 85.0325 163.686 84.2975C163.371 83.5625 163.214 82.67 163.214 81.62C163.214 80.66 163.401 79.7525 163.776 78.8975C164.151 78.0275 164.714 77.2625 165.464 76.6025C166.214 75.9425 167.144 75.4175 168.254 75.0275C169.379 74.6375 170.676 74.4425 172.146 74.4425C173.796 74.4425 175.296 74.7125 176.646 75.2525C177.996 75.7925 179.106 76.4975 179.976 77.3675L178.559 79.5725ZM198.466 79.5725C198.301 79.8275 198.129 80.015 197.949 80.135C197.784 80.24 197.551 80.2925 197.251 80.2925C196.951 80.2925 196.644 80.2175 196.329 80.0675C196.014 79.9175 195.661 79.76 195.271 79.595C194.881 79.415 194.431 79.25 193.921 79.1C193.426 78.95 192.849 78.875 192.189 78.875C191.184 78.875 190.404 79.085 189.849 79.505C189.294 79.91 189.016 80.45 189.016 81.125C189.016 81.59 189.174 81.98 189.489 82.295C189.804 82.61 190.216 82.8875 190.726 83.1275C191.251 83.3525 191.844 83.57 192.504 83.78C193.164 83.975 193.839 84.1925 194.529 84.4325C195.234 84.6725 195.916 84.95 196.576 85.265C197.236 85.58 197.821 85.9775 198.331 86.4575C198.856 86.9225 199.276 87.4925 199.591 88.1675C199.906 88.8275 200.064 89.63 200.064 90.575C200.064 91.7 199.854 92.7425 199.434 93.7025C199.029 94.6475 198.429 95.465 197.634 96.155C196.839 96.845 195.849 97.385 194.664 97.775C193.479 98.165 192.114 98.36 190.569 98.36C189.774 98.36 188.986 98.285 188.206 98.135C187.426 98 186.684 97.805 185.979 97.55C185.274 97.28 184.614 96.9725 183.999 96.6275C183.384 96.2825 182.851 95.9075 182.401 95.5025L183.841 93.185C184.006 92.915 184.209 92.705 184.449 92.555C184.704 92.405 185.026 92.33 185.416 92.33C185.791 92.33 186.136 92.4275 186.451 92.6225C186.766 92.8025 187.119 93.005 187.509 93.23C187.899 93.44 188.356 93.6425 188.881 93.8375C189.421 94.0175 190.089 94.1075 190.884 94.1075C191.484 94.1075 192.001 94.04 192.436 93.905C192.871 93.77 193.224 93.59 193.494 93.365C193.764 93.125 193.959 92.8625 194.079 92.5775C194.214 92.2775 194.281 91.97 194.281 91.655C194.281 91.145 194.116 90.7325 193.786 90.4175C193.471 90.0875 193.051 89.8025 192.526 89.5625C192.016 89.3225 191.424 89.105 190.749 88.91C190.074 88.715 189.384 88.4975 188.679 88.2575C187.989 88.0175 187.306 87.7325 186.631 87.4025C185.971 87.0725 185.379 86.66 184.854 86.165C184.344 85.655 183.924 85.0325 183.594 84.2975C183.279 83.5625 183.121 82.67 183.121 81.62C183.121 80.66 183.309 79.7525 183.684 78.8975C184.059 78.0275 184.621 77.2625 185.371 76.6025C186.121 75.9425 187.051 75.4175 188.161 75.0275C189.286 74.6375 190.584 74.4425 192.054 74.4425C193.704 74.4425 195.204 74.7125 196.554 75.2525C197.904 75.7925 199.014 76.4975 199.884 77.3675L198.466 79.5725ZM62.1575 128.802L54.8675 152H49.85C49.595 152 49.3625 151.917 49.1525 151.752C48.9575 151.587 48.8075 151.31 48.7025 150.92L44.9225 138.365C44.7725 137.885 44.6375 137.412 44.5175 136.947C44.4125 136.467 44.315 135.987 44.225 135.507C44.12 135.987 44.0075 136.475 43.8875 136.97C43.7825 137.45 43.655 137.93 43.505 138.41L39.68 150.92C39.47 151.64 39.02 152 38.33 152H33.56L26.27 128.802H31.22C31.67 128.802 32.045 128.907 32.345 129.117C32.66 129.327 32.87 129.597 32.975 129.927L35.8325 141.402C36.0125 142.137 36.17 142.85 36.305 143.54C36.44 144.23 36.5675 144.912 36.6875 145.587C36.8675 144.912 37.055 144.23 37.25 143.54C37.46 142.85 37.6775 142.137 37.9025 141.402L41.3 129.882C41.405 129.567 41.6075 129.305 41.9075 129.095C42.2075 128.885 42.56 128.78 42.965 128.78H45.71C46.145 128.78 46.5125 128.885 46.8125 129.095C47.1275 129.305 47.3375 129.567 47.4425 129.882L50.7275 141.402C50.9375 142.122 51.14 142.835 51.335 143.54C51.53 144.23 51.71 144.927 51.875 145.632C51.995 144.942 52.1225 144.252 52.2575 143.562C52.4075 142.857 52.58 142.137 52.775 141.402L55.7675 129.927C55.8725 129.597 56.075 129.327 56.375 129.117C56.675 128.907 57.0275 128.802 57.4325 128.802H62.1575ZM71.3857 128.802V152H65.1757V128.802H71.3857ZM72.1282 122.21C72.1282 122.735 72.0232 123.222 71.8132 123.672C71.6032 124.122 71.3182 124.52 70.9582 124.865C70.6132 125.21 70.2007 125.48 69.7207 125.675C69.2557 125.87 68.7532 125.967 68.2132 125.967C67.7032 125.967 67.2157 125.87 66.7507 125.675C66.3007 125.48 65.9032 125.21 65.5582 124.865C65.2132 124.52 64.9357 124.122 64.7257 123.672C64.5307 123.222 64.4332 122.735 64.4332 122.21C64.4332 121.685 64.5307 121.197 64.7257 120.747C64.9357 120.282 65.2132 119.877 65.5582 119.532C65.9032 119.187 66.3007 118.917 66.7507 118.722C67.2157 118.527 67.7032 118.43 68.2132 118.43C68.7532 118.43 69.2557 118.527 69.7207 118.722C70.2007 118.917 70.6132 119.187 70.9582 119.532C71.3182 119.877 71.6032 120.282 71.8132 120.747C72.0232 121.197 72.1282 121.685 72.1282 122.21ZM84.6951 152.36C83.6451 152.36 82.7151 152.21 81.9051 151.91C81.0951 151.595 80.4126 151.152 79.8576 150.582C79.3026 150.012 78.8826 149.322 78.5976 148.512C78.3126 147.702 78.1701 146.787 78.1701 145.767V133.257H75.9876C75.6576 133.257 75.3726 133.152 75.1326 132.942C74.9076 132.732 74.7951 132.417 74.7951 131.997V129.567L78.5076 128.892L79.7676 122.885C79.9326 122.21 80.3901 121.872 81.1401 121.872H84.3801V128.937H90.3651V133.257H84.3801V145.362C84.3801 146.007 84.5301 146.517 84.8301 146.892C85.1451 147.267 85.5876 147.455 86.1576 147.455C86.4576 147.455 86.7126 147.425 86.9226 147.365C87.1326 147.29 87.3126 147.215 87.4626 147.14C87.6126 147.05 87.7476 146.975 87.8676 146.915C88.0026 146.84 88.1376 146.802 88.2726 146.802C88.4526 146.802 88.6026 146.847 88.7226 146.937C88.8426 147.012 88.9626 147.147 89.0826 147.342L90.9501 150.312C90.0951 150.987 89.1276 151.497 88.0476 151.842C86.9676 152.188 85.8501 152.36 84.6951 152.36ZM99.902 131.075C100.337 130.685 100.787 130.332 101.252 130.017C101.732 129.687 102.234 129.41 102.759 129.185C103.299 128.945 103.869 128.765 104.469 128.645C105.084 128.51 105.744 128.442 106.449 128.442C107.709 128.442 108.827 128.66 109.802 129.095C110.777 129.53 111.594 130.137 112.254 130.917C112.929 131.697 113.432 132.627 113.762 133.707C114.107 134.787 114.279 135.972 114.279 137.262V152H108.092V137.262C108.092 135.972 107.792 134.975 107.192 134.27C106.592 133.55 105.707 133.19 104.537 133.19C103.667 133.19 102.849 133.377 102.084 133.752C101.319 134.127 100.592 134.652 99.902 135.327V152H93.692V118.452H99.902V131.075ZM152.503 124.797H142.963V152H136.191V124.797H126.651V119.352H152.503V124.797ZM163.349 124.64V133.032H174.239V138.14H163.349V146.712H177.344V152H156.554V119.352H177.344V124.64H163.349ZM200.079 125.607C199.869 125.952 199.651 126.207 199.426 126.372C199.216 126.522 198.939 126.597 198.594 126.597C198.264 126.597 197.904 126.485 197.514 126.26C197.139 126.02 196.696 125.765 196.186 125.495C195.676 125.225 195.091 124.977 194.431 124.752C193.771 124.512 192.999 124.392 192.114 124.392C190.554 124.392 189.384 124.745 188.604 125.45C187.824 126.14 187.434 127.047 187.434 128.172C187.434 128.892 187.644 129.492 188.064 129.972C188.499 130.437 189.061 130.842 189.751 131.187C190.456 131.532 191.251 131.84 192.136 132.11C193.021 132.38 193.929 132.68 194.859 133.01C195.789 133.325 196.696 133.7 197.581 134.135C198.466 134.57 199.254 135.117 199.944 135.777C200.649 136.437 201.211 137.247 201.631 138.207C202.066 139.152 202.284 140.307 202.284 141.672C202.284 143.157 202.021 144.552 201.496 145.857C200.986 147.147 200.244 148.28 199.269 149.255C198.294 150.215 197.086 150.972 195.646 151.527C194.221 152.082 192.601 152.36 190.786 152.36C189.751 152.36 188.716 152.255 187.681 152.045C186.661 151.835 185.671 151.542 184.711 151.167C183.766 150.792 182.874 150.342 182.034 149.817C181.194 149.292 180.459 148.707 179.829 148.062L181.809 144.867C181.974 144.627 182.191 144.432 182.461 144.282C182.731 144.117 183.016 144.035 183.316 144.035C183.721 144.035 184.149 144.185 184.599 144.485C185.049 144.785 185.566 145.115 186.151 145.475C186.736 145.835 187.411 146.165 188.176 146.465C188.956 146.765 189.886 146.915 190.966 146.915C192.541 146.915 193.756 146.555 194.611 145.835C195.481 145.115 195.916 144.042 195.916 142.617C195.916 141.792 195.699 141.125 195.264 140.615C194.844 140.105 194.289 139.677 193.599 139.332C192.909 138.987 192.121 138.695 191.236 138.455C190.351 138.2 189.444 137.922 188.514 137.622C187.584 137.322 186.676 136.962 185.791 136.542C184.906 136.122 184.119 135.567 183.429 134.877C182.739 134.187 182.176 133.332 181.741 132.312C181.321 131.292 181.111 130.025 181.111 128.51C181.111 127.295 181.351 126.117 181.831 124.977C182.311 123.837 183.016 122.825 183.946 121.94C184.876 121.055 186.016 120.342 187.366 119.802C188.731 119.262 190.291 118.992 192.046 118.992C194.011 118.992 195.826 119.3 197.491 119.915C199.171 120.515 200.589 121.355 201.744 122.435L200.079 125.607ZM229.409 143.967C229.784 143.967 230.099 144.102 230.354 144.372L233.031 147.23C231.711 148.91 230.069 150.185 228.104 151.055C226.154 151.925 223.829 152.36 221.129 152.36C218.684 152.36 216.486 151.948 214.536 151.122C212.586 150.282 210.929 149.12 209.564 147.635C208.199 146.15 207.149 144.387 206.414 142.347C205.679 140.307 205.311 138.08 205.311 135.665C205.311 134.045 205.484 132.507 205.829 131.052C206.189 129.582 206.706 128.232 207.381 127.002C208.056 125.772 208.866 124.662 209.811 123.672C210.771 122.682 211.851 121.842 213.051 121.152C214.251 120.447 215.556 119.915 216.966 119.555C218.391 119.18 219.906 118.992 221.511 118.992C222.711 118.992 223.844 119.097 224.909 119.307C225.989 119.517 226.994 119.81 227.924 120.185C228.854 120.56 229.709 121.017 230.489 121.557C231.284 122.082 231.996 122.66 232.626 123.29L230.354 126.395C230.219 126.59 230.046 126.762 229.836 126.912C229.626 127.062 229.341 127.137 228.981 127.137C228.621 127.137 228.254 127.01 227.879 126.755C227.519 126.5 227.069 126.215 226.529 125.9C226.004 125.585 225.336 125.3 224.526 125.045C223.731 124.79 222.719 124.662 221.489 124.662C220.124 124.662 218.871 124.91 217.731 125.405C216.591 125.9 215.609 126.62 214.784 127.565C213.974 128.495 213.344 129.642 212.894 131.007C212.444 132.372 212.219 133.925 212.219 135.665C212.219 137.42 212.459 138.987 212.939 140.367C213.434 141.732 214.101 142.887 214.941 143.832C215.796 144.777 216.786 145.497 217.911 145.992C219.051 146.472 220.266 146.712 221.556 146.712C222.321 146.712 223.011 146.675 223.626 146.6C224.256 146.525 224.834 146.397 225.359 146.218C225.899 146.037 226.401 145.805 226.866 145.52C227.346 145.235 227.826 144.875 228.306 144.44C228.471 144.305 228.644 144.192 228.824 144.102C229.004 144.012 229.199 143.967 229.409 143.967Z" fill="#FF8D8F"/>
<path d="M44.936 40.941L40.886 54H38.447L35.774 45.459C35.732 45.339 35.69 45.207 35.648 45.063C35.606 44.919 35.567 44.766 35.531 44.604C35.495 44.766 35.456 44.919 35.414 45.063C35.372 45.207 35.33 45.339 35.288 45.459L32.588 54H30.14L26.099 40.941H28.367C28.601 40.941 28.796 40.995 28.952 41.103C29.114 41.211 29.219 41.355 29.267 41.535L31.292 48.897C31.34 49.101 31.388 49.323 31.436 49.563C31.49 49.797 31.541 50.046 31.589 50.31C31.643 50.04 31.7 49.788 31.76 49.554C31.82 49.32 31.886 49.101 31.958 48.897L34.316 41.535C34.364 41.385 34.466 41.25 34.622 41.13C34.784 41.004 34.979 40.941 35.207 40.941H35.999C36.233 40.941 36.422 40.998 36.566 41.112C36.716 41.22 36.827 41.361 36.899 41.535L39.248 48.897C39.32 49.089 39.386 49.299 39.446 49.527C39.506 49.749 39.563 49.986 39.617 50.238C39.665 49.986 39.71 49.749 39.752 49.527C39.8 49.299 39.848 49.089 39.896 48.897L41.921 41.535C41.963 41.379 42.065 41.241 42.227 41.121C42.389 41.001 42.584 40.941 42.812 40.941H44.936ZM49.1231 43.056V46.413H53.4791V48.456H49.1231V51.885H54.7211V54H46.4051V40.941H54.7211V43.056H49.1231ZM68.45 47.466C68.45 48.42 68.288 49.299 67.964 50.103C67.646 50.901 67.193 51.588 66.605 52.164C66.023 52.74 65.321 53.19 64.499 53.514C63.677 53.838 62.765 54 61.763 54H56.741V40.941H61.763C62.765 40.941 63.677 41.103 64.499 41.427C65.321 41.751 66.023 42.204 66.605 42.786C67.193 43.362 67.646 44.049 67.964 44.847C68.288 45.645 68.45 46.518 68.45 47.466ZM65.678 47.466C65.678 46.782 65.588 46.167 65.408 45.621C65.228 45.075 64.97 44.613 64.634 44.235C64.298 43.857 63.887 43.566 63.401 43.362C62.921 43.158 62.375 43.056 61.763 43.056H59.459V51.885H61.763C62.375 51.885 62.921 51.786 63.401 51.588C63.887 51.384 64.298 51.093 64.634 50.715C64.97 50.331 65.228 49.866 65.408 49.32C65.588 48.774 65.678 48.156 65.678 47.466ZM85.8929 40.941V54H84.4979C84.2879 54 84.1109 53.967 83.9669 53.901C83.8229 53.829 83.6819 53.709 83.5439 53.541L77.0369 45.261C77.0549 45.471 77.0669 45.678 77.0729 45.882C77.0849 46.086 77.0909 46.275 77.0909 46.449V54H74.7059V40.941H76.1279C76.2419 40.941 76.3379 40.947 76.4159 40.959C76.4999 40.965 76.5749 40.986 76.6409 41.022C76.7069 41.052 76.7699 41.094 76.8299 41.148C76.8899 41.202 76.9559 41.274 77.0279 41.364L83.5799 49.68C83.5559 49.452 83.5379 49.233 83.5259 49.023C83.5139 48.807 83.5079 48.603 83.5079 48.411V40.941H85.8929ZM101.246 47.466C101.246 48.42 101.084 49.305 100.76 50.121C100.442 50.937 99.9888 51.642 99.4008 52.236C98.8188 52.83 98.1168 53.298 97.2948 53.64C96.4728 53.976 95.5608 54.144 94.5588 54.144C93.5568 54.144 92.6448 53.976 91.8228 53.64C91.0008 53.298 90.2958 52.83 89.7078 52.236C89.1198 51.642 88.6638 50.937 88.3398 50.121C88.0218 49.305 87.8628 48.42 87.8628 47.466C87.8628 46.512 88.0218 45.63 88.3398 44.82C88.6638 44.004 89.1198 43.299 89.7078 42.705C90.2958 42.111 91.0008 41.646 91.8228 41.31C92.6448 40.968 93.5568 40.797 94.5588 40.797C95.5608 40.797 96.4728 40.968 97.2948 41.31C98.1168 41.646 98.8188 42.114 99.4008 42.714C99.9888 43.308 100.442 44.013 100.76 44.829C101.084 45.639 101.246 46.518 101.246 47.466ZM98.4828 47.466C98.4828 46.782 98.3928 46.17 98.2128 45.63C98.0328 45.084 97.7718 44.622 97.4298 44.244C97.0938 43.86 96.6828 43.569 96.1968 43.371C95.7168 43.167 95.1708 43.065 94.5588 43.065C93.9468 43.065 93.3978 43.167 92.9118 43.371C92.4258 43.569 92.0118 43.86 91.6698 44.244C91.3338 44.622 91.0758 45.084 90.8958 45.63C90.7158 46.17 90.6258 46.782 90.6258 47.466C90.6258 48.156 90.7158 48.774 90.8958 49.32C91.0758 49.86 91.3338 50.319 91.6698 50.697C92.0118 51.075 92.4258 51.366 92.9118 51.57C93.3978 51.768 93.9468 51.867 94.5588 51.867C95.1708 51.867 95.7168 51.768 96.1968 51.57C96.6828 51.366 97.0938 51.075 97.4298 50.697C97.7718 50.319 98.0328 49.86 98.2128 49.32C98.3928 48.774 98.4828 48.156 98.4828 47.466ZM114.191 40.941L108.935 54H106.487L101.231 40.941H103.409C103.643 40.941 103.832 40.998 103.976 41.112C104.126 41.22 104.237 41.361 104.309 41.535L107.135 49.059C107.243 49.341 107.348 49.65 107.45 49.986C107.558 50.316 107.657 50.664 107.747 51.03C107.825 50.664 107.909 50.316 107.999 49.986C108.095 49.65 108.197 49.341 108.305 49.059L111.113 41.535C111.173 41.385 111.278 41.25 111.428 41.13C111.584 41.004 111.776 40.941 112.004 40.941H114.191ZM127.013 52.173V54H119.687V52.173H122.279V45.027C122.279 44.871 122.282 44.712 122.288 44.55C122.294 44.388 122.303 44.223 122.315 44.055L120.605 45.477C120.485 45.567 120.368 45.624 120.254 45.648C120.14 45.672 120.032 45.675 119.93 45.657C119.828 45.633 119.738 45.597 119.66 45.549C119.582 45.495 119.522 45.441 119.48 45.387L118.697 44.334L122.711 40.932H124.754V52.173H127.013ZM137.454 52.173V54H130.128V52.173H132.72V45.027C132.72 44.871 132.723 44.712 132.729 44.55C132.735 44.388 132.744 44.223 132.756 44.055L131.046 45.477C130.926 45.567 130.809 45.624 130.695 45.648C130.581 45.672 130.473 45.675 130.371 45.657C130.269 45.633 130.179 45.597 130.101 45.549C130.023 45.495 129.963 45.441 129.921 45.387L129.138 44.334L133.152 40.932H135.195V52.173H137.454ZM151.6 51.723C151.87 51.723 152.08 51.798 152.23 51.948C152.386 52.098 152.464 52.296 152.464 52.542V54H143.41V53.19C143.41 53.034 143.443 52.866 143.509 52.686C143.575 52.5 143.686 52.332 143.842 52.182L147.712 48.303C148.042 47.973 148.333 47.658 148.585 47.358C148.837 47.052 149.047 46.755 149.215 46.467C149.383 46.173 149.509 45.876 149.593 45.576C149.677 45.276 149.719 44.961 149.719 44.631C149.719 44.049 149.569 43.608 149.269 43.308C148.969 43.002 148.546 42.849 148 42.849C147.76 42.849 147.538 42.885 147.334 42.957C147.136 43.023 146.956 43.116 146.794 43.236C146.638 43.356 146.503 43.497 146.389 43.659C146.275 43.821 146.191 43.998 146.137 44.19C146.029 44.49 145.882 44.691 145.696 44.793C145.516 44.889 145.258 44.91 144.922 44.856L143.608 44.622C143.704 43.986 143.884 43.428 144.148 42.948C144.412 42.468 144.742 42.069 145.138 41.751C145.534 41.433 145.987 41.196 146.497 41.04C147.007 40.878 147.556 40.797 148.144 40.797C148.762 40.797 149.323 40.89 149.827 41.076C150.337 41.256 150.772 41.511 151.132 41.841C151.492 42.165 151.771 42.558 151.969 43.02C152.167 43.482 152.266 43.992 152.266 44.55C152.266 45.03 152.197 45.474 152.059 45.882C151.921 46.29 151.732 46.68 151.492 47.052C151.258 47.418 150.985 47.775 150.673 48.123C150.361 48.471 150.031 48.822 149.683 49.176L146.911 52.011C147.217 51.921 147.52 51.852 147.82 51.804C148.12 51.75 148.402 51.723 148.666 51.723H151.6ZM163.265 47.466C163.265 48.606 163.142 49.596 162.896 50.436C162.65 51.276 162.311 51.972 161.879 52.524C161.447 53.07 160.934 53.478 160.34 53.748C159.752 54.012 159.116 54.144 158.432 54.144C157.748 54.144 157.112 54.012 156.524 53.748C155.936 53.478 155.429 53.07 155.003 52.524C154.577 51.972 154.241 51.276 153.995 50.436C153.755 49.596 153.635 48.606 153.635 47.466C153.635 46.326 153.755 45.339 153.995 44.505C154.241 43.665 154.577 42.972 155.003 42.426C155.429 41.874 155.936 41.466 156.524 41.202C157.112 40.932 157.748 40.797 158.432 40.797C159.116 40.797 159.752 40.932 160.34 41.202C160.934 41.466 161.447 41.874 161.879 42.426C162.311 42.972 162.65 43.665 162.896 44.505C163.142 45.339 163.265 46.326 163.265 47.466ZM160.7 47.466C160.7 46.542 160.634 45.78 160.502 45.18C160.376 44.58 160.208 44.106 159.998 43.758C159.788 43.41 159.545 43.167 159.269 43.029C158.999 42.891 158.72 42.822 158.432 42.822C158.144 42.822 157.865 42.891 157.595 43.029C157.331 43.167 157.094 43.41 156.884 43.758C156.68 44.106 156.515 44.58 156.389 45.18C156.263 45.78 156.2 46.542 156.2 47.466C156.2 48.396 156.263 49.161 156.389 49.761C156.515 50.361 156.68 50.835 156.884 51.183C157.094 51.531 157.331 51.774 157.595 51.912C157.865 52.05 158.144 52.119 158.432 52.119C158.72 52.119 158.999 52.05 159.269 51.912C159.545 51.774 159.788 51.531 159.998 51.183C160.208 50.835 160.376 50.361 160.502 49.761C160.634 49.161 160.7 48.396 160.7 47.466ZM172.483 51.723C172.753 51.723 172.963 51.798 173.113 51.948C173.269 52.098 173.347 52.296 173.347 52.542V54H164.293V53.19C164.293 53.034 164.326 52.866 164.392 52.686C164.458 52.5 164.569 52.332 164.725 52.182L168.595 48.303C168.925 47.973 169.216 47.658 169.468 47.358C169.72 47.052 169.93 46.755 170.098 46.467C170.266 46.173 170.392 45.876 170.476 45.576C170.56 45.276 170.602 44.961 170.602 44.631C170.602 44.049 170.452 43.608 170.152 43.308C169.852 43.002 169.429 42.849 168.883 42.849C168.643 42.849 168.421 42.885 168.217 42.957C168.019 43.023 167.839 43.116 167.677 43.236C167.521 43.356 167.386 43.497 167.272 43.659C167.158 43.821 167.074 43.998 167.02 44.19C166.912 44.49 166.765 44.691 166.579 44.793C166.399 44.889 166.141 44.91 165.805 44.856L164.491 44.622C164.587 43.986 164.767 43.428 165.031 42.948C165.295 42.468 165.625 42.069 166.021 41.751C166.417 41.433 166.87 41.196 167.38 41.04C167.89 40.878 168.439 40.797 169.027 40.797C169.645 40.797 170.206 40.89 170.71 41.076C171.22 41.256 171.655 41.511 172.015 41.841C172.375 42.165 172.654 42.558 172.852 43.02C173.05 43.482 173.149 43.992 173.149 44.55C173.149 45.03 173.08 45.474 172.942 45.882C172.804 46.29 172.615 46.68 172.375 47.052C172.141 47.418 171.868 47.775 171.556 48.123C171.244 48.471 170.914 48.822 170.566 49.176L167.794 52.011C168.1 51.921 168.403 51.852 168.703 51.804C169.003 51.75 169.285 51.723 169.549 51.723H172.483ZM184.148 47.466C184.148 48.606 184.025 49.596 183.779 50.436C183.533 51.276 183.194 51.972 182.762 52.524C182.33 53.07 181.817 53.478 181.223 53.748C180.635 54.012 179.999 54.144 179.315 54.144C178.631 54.144 177.995 54.012 177.407 53.748C176.819 53.478 176.312 53.07 175.886 52.524C175.46 51.972 175.124 51.276 174.878 50.436C174.638 49.596 174.518 48.606 174.518 47.466C174.518 46.326 174.638 45.339 174.878 44.505C175.124 43.665 175.46 42.972 175.886 42.426C176.312 41.874 176.819 41.466 177.407 41.202C177.995 40.932 178.631 40.797 179.315 40.797C179.999 40.797 180.635 40.932 181.223 41.202C181.817 41.466 182.33 41.874 182.762 42.426C183.194 42.972 183.533 43.665 183.779 44.505C184.025 45.339 184.148 46.326 184.148 47.466ZM181.583 47.466C181.583 46.542 181.517 45.78 181.385 45.18C181.259 44.58 181.091 44.106 180.881 43.758C180.671 43.41 180.428 43.167 180.152 43.029C179.882 42.891 179.603 42.822 179.315 42.822C179.027 42.822 178.748 42.891 178.478 43.029C178.214 43.167 177.977 43.41 177.767 43.758C177.563 44.106 177.398 44.58 177.272 45.18C177.146 45.78 177.083 46.542 177.083 47.466C177.083 48.396 177.146 49.161 177.272 49.761C177.398 50.361 177.563 50.835 177.767 51.183C177.977 51.531 178.214 51.774 178.478 51.912C178.748 52.05 179.027 52.119 179.315 52.119C179.603 52.119 179.882 52.05 180.152 51.912C180.428 51.774 180.671 51.531 180.881 51.183C181.091 50.835 181.259 50.361 181.385 49.761C181.517 49.161 181.583 48.396 181.583 47.466Z" fill="#FF8D8F"/>
<path d="M53.4899 343.068L280.187 345.421L307.99 369.374H12L53.4899 343.068Z" fill="#E19396"/>
<path d="M56.6979 341.357H275.91L300.932 363.599H20.7686L56.6979 341.357Z" fill="#FEFEFE"/>
<path d="M79.4579 353.655C81.5354 352.863 81.1854 338.683 81.1854 330.982L80.9695 328.606C77.5146 327.743 68.4454 326.879 68.4454 330.982C68.4454 335.084 60.6717 343.29 54.4096 344.801C48.1475 348.256 37.5668 351.279 39.5102 355.382C46.4201 355.382 50.3068 355.382 58.9443 354.302C69.0931 354.302 74.9233 355.382 79.4579 353.655Z" fill="#924953"/>
<path d="M277.253 345.449C274.835 347.695 270.775 346.961 269.048 346.961H266.889C265.089 350.128 263.133 359.355 267.536 359.269C278.549 359.053 309.427 359.701 308.996 358.189C308.598 356.796 303.681 355.102 299.063 353.87C292.585 352.143 288.266 349.12 287.402 348.256C286.538 347.392 280.276 342.642 277.253 345.449Z" fill="#924953"/>
<path d="M128.971 264.906C122.021 279.094 118.759 286.371 117.894 301.615L155.035 291.03C153.514 287.201 152.428 281.571 152.428 277.517C149.933 275.792 135.487 268.809 128.971 264.906Z" fill="#924953"/>
<path fill-rule="evenodd" clip-rule="evenodd" d="M118.326 300.319L120.054 286.931C107.529 278.078 83.3448 262.099 76.003 263.826C57.7549 268.12 65.8542 316.514 68.4454 331.198H81.1855C81.7028 328.666 82.3813 325.471 83.097 322.102C85.1694 312.344 87.5526 301.122 87.2316 300.319C87.1799 300.19 87.2639 300.315 87.4921 300.655C89.3888 303.484 101.252 321.175 128.043 331.198C129.974 332.474 131.914 333.828 133.916 335.224C145.794 343.511 159.86 353.322 187.209 357.757C218.5 362.832 238.194 361.287 252.538 360.162C258.536 359.691 263.6 359.294 268.184 359.485V346.745C248.318 343.866 219.383 340.051 203.188 340.051C195.872 336.034 186.269 328.968 178.114 322.968C173.993 319.936 170.242 317.176 167.343 315.219C167.152 315.09 166.945 314.959 166.722 314.826C166.988 313.412 167.127 311.956 167.127 310.468C167.127 301.605 162.192 293.845 154.811 289.572L118.626 299.995C118.568 300.112 118.511 300.23 118.454 300.348C118.411 300.338 118.369 300.329 118.326 300.319Z" fill="#666D47"/>
<mask id="mask1" mask-type="alpha" maskUnits="userSpaceOnUse" x="64" y="263" width="205" height="99">
<path fill-rule="evenodd" clip-rule="evenodd" d="M118.326 300.319L120.054 286.931C107.529 278.078 83.3448 262.099 76.003 263.826C57.7549 268.12 65.8542 316.514 68.4454 331.198H81.1855C81.7028 328.666 82.3813 325.471 83.097 322.102C85.1694 312.344 87.5526 301.122 87.2316 300.319C87.1799 300.19 87.2639 300.315 87.4921 300.655C89.3888 303.484 101.252 321.175 128.043 331.198C129.974 332.474 131.914 333.828 133.916 335.224C145.794 343.511 159.86 353.322 187.209 357.757C218.5 362.832 238.194 361.287 252.538 360.162C258.536 359.691 263.6 359.294 268.184 359.485V346.745C248.318 343.866 219.383 340.051 203.188 340.051C195.872 336.034 186.269 328.968 178.114 322.968C173.993 319.936 170.242 317.176 167.343 315.219C167.152 315.09 166.945 314.959 166.722 314.826C166.988 313.412 167.127 311.956 167.127 310.468C167.127 301.605 162.192 293.845 154.811 289.572L118.626 299.995C118.568 300.112 118.511 300.23 118.454 300.348C118.411 300.338 118.369 300.329 118.326 300.319Z" fill="#666D47"/>
</mask>
<g mask="url(#mask1)">
<path d="M118.758 299.456C116.383 305.286 114.483 320.272 127.611 330.982" stroke="#72845E" stroke-width="2.24555"/>
<path d="M145.749 291.898C156.884 302.754 163.459 311.905 168.207 331.198C178.079 338.269 185.453 342.208 206.859 349.12C230.85 349.295 244.365 350.122 268.616 353.223" stroke="#72845E" stroke-width="2.24555"/>
<path d="M120.701 322.776C116.42 318.93 106.732 316.37 100.835 311.332C94.0411 305.527 88.1232 279.751 85.72 279.374C79.7608 278.437 82.3486 304.859 82.6969 311.332C82.9675 316.361 81.0414 327.743 80.7535 333.141" stroke="#72845E" stroke-width="2.24555"/>
<path d="M85.2881 284.34C87.4474 292.33 87.4042 301.701 87.2315 304.638" stroke="#8BA370" stroke-width="1.12277"/>
</g>
<path d="M178.355 225.39C174.493 225.39 160.721 231.077 156.33 232.3C156.33 240.074 160.865 239.167 165.184 239.858C169.502 240.549 182.602 235.107 189.152 237.267L194.982 232.3C196.71 232.948 199.085 232.985 199.085 234.244C199.085 237.267 201.676 239.858 204.915 239.858C208.397 239.858 211.393 237.699 211.393 235.107C211.393 232.516 209.234 230.429 207.291 229.925C213.984 230.717 227.509 232.511 227.156 230.573C226.725 228.197 224.781 225.39 223.27 224.527C221.974 223.015 222.406 217.617 222.838 214.81C221.758 214.81 220.247 215.241 218.951 216.105L217.223 214.81C215.28 215.241 214.2 216.321 212.041 217.617C213.121 214.378 213.984 213.442 215.28 212.218C213.625 210.923 214.416 211.355 209.234 208.116C205.563 205.821 202.54 207.252 201.46 210.707C197.789 210.275 183.106 225.39 178.355 225.39Z" fill="#954854"/>
<mask id="mask2" mask-type="alpha" maskUnits="userSpaceOnUse" x="156" y="207" width="72" height="33">
<path d="M178.355 225.426C174.493 225.426 160.721 231.112 156.33 232.336C156.33 240.109 160.865 239.202 165.184 239.893C169.502 240.584 182.602 235.143 189.152 237.302L194.982 232.336C196.71 232.983 199.085 233.02 199.085 234.279C199.085 237.302 201.676 239.893 204.915 239.893C208.397 239.893 211.393 237.734 211.393 235.143C211.393 232.552 209.234 230.464 207.291 229.96C213.984 230.752 227.509 232.546 227.156 230.608C226.725 228.233 224.781 225.426 223.27 224.562C221.974 223.05 222.406 217.652 222.838 214.845C221.758 214.845 220.247 215.277 218.951 216.141L217.223 214.845C215.28 215.277 214.2 216.357 212.041 217.652C213.121 214.413 213.984 213.477 215.28 212.254C213.625 210.958 214.416 211.39 209.234 208.151C205.563 205.857 202.54 207.287 201.46 210.742C197.789 210.31 183.106 225.426 178.355 225.426Z" fill="#954854"/>
</mask>
<g mask="url(#mask2)">
<path d="M222.838 223.447L218.951 216.105C219.124 214.896 221.614 214.737 222.838 214.809V223.447Z" fill="#7C3540"/>
<path d="M212.041 217.616C211.631 215.401 211.92 213.952 214.201 211.354C214.956 210.394 214.821 210.911 215.844 211.585L212.041 217.616Z" fill="#7C3540"/>
<path d="M197.79 224.094C196.838 220.106 196.392 216.991 194.119 214.593C194.292 213.384 200.237 210.419 201.461 210.491L197.79 224.094Z" fill="#7C3540"/>
<path d="M212.041 217.616C214.201 217.4 215.064 216.752 217.871 215.025C218.734 214.16 218.881 214.448 218.087 213.513L212.041 217.616Z" fill="#7C3540"/>
</g>
<path d="M201.676 231.868C201.353 233.114 201.182 234.763 201.892 236.187M206.643 231.652C206.822 231.771 208.071 232.611 208.802 233.596M201.892 236.187C202.29 236.983 203.152 237.574 204.268 237.698C205.871 237.876 207.507 237.698 208.586 236.619C209.398 235.807 209.443 234.459 208.802 233.596M201.892 236.187C203.493 235.035 205.525 233.423 208.802 233.596" stroke="#522129" stroke-width="1.12277"/>
<path d="M152.444 277.862C142.77 277.69 132.722 269.297 128.907 265.122C130.418 262.315 129.771 259.292 134.305 255.405C133.657 241.801 141.863 229.493 168.423 227.981C166.911 229.709 163.888 231.652 168.423 233.596C174.685 235.107 182.243 233.38 189.152 237.267C188.721 245.904 188.721 261.883 188.073 263.827C186.864 264.345 172.885 265.482 166.911 265.986V263.827C163.456 268.361 155.467 270.952 152.444 277.862Z" fill="#DB466C"/>
<mask id="mask3" mask-type="alpha" maskUnits="userSpaceOnUse" x="128" y="227" width="62" height="51">
<path d="M152.444 277.862C142.77 277.69 132.722 269.297 128.907 265.122C130.418 262.315 129.771 259.292 134.305 255.405C133.657 241.801 141.863 229.493 168.423 227.981C166.911 229.709 163.888 231.652 168.423 233.596C174.685 235.107 182.243 233.38 189.152 237.267C188.721 245.904 188.721 261.883 188.073 263.827C186.864 264.345 172.885 265.482 166.911 265.986V263.827C163.456 268.361 155.467 270.952 152.444 277.862Z" fill="#DB466C"/>
</mask>
<g mask="url(#mask3)">
<path d="M167.127 265.77C167.127 261.451 167.343 253.246 165.615 249.791" stroke="#661C2F" stroke-width="1.12277"/>
<path d="M190.232 248.279C190.232 243.961 185.913 240.074 182.674 237.698" stroke="#661C2F" stroke-width="1.12277"/>
<path d="M151.796 278.51C155.298 269.05 158.624 264.853 167.127 258.212" stroke="#661C2F" stroke-width="1.12277"/>
</g>
<path d="M162.161 339.835C162.333 336.553 165.4 289.234 166.911 265.986C174.181 264.258 188.591 261.494 188.073 264.258C187.425 267.713 181.379 283.26 180.299 284.124C179.701 284.602 173.365 318.044 170.15 340.483C169.613 344.229 171.491 349.557 171.014 352.359C170.22 357.019 169.641 361.644 168.639 361.644C167.127 361.644 168.29 354.46 168.207 354.087C167.991 356.03 167.127 365.099 166.911 365.747C166.617 366.192 166.047 366.179 165.615 365.747C165.399 366.827 164.968 367.258 164.536 367.258C163.888 367.258 163.588 365.783 163.456 366.179C163.217 366.897 162.97 368.122 162.161 368.122C161.297 368.122 161.371 366.611 160.865 366.611C160.696 366.611 159.785 368.842 158.922 368.77C156.849 368.597 157.626 357.47 158.49 352.143C156.978 353.223 155.691 354.992 152.659 355.598C151.58 355.814 151.364 354.518 152.012 353.439C152.723 352.253 161.945 343.938 162.161 339.835Z" fill="#924953"/>
<mask id="mask4" mask-type="alpha" maskUnits="userSpaceOnUse" x="151" y="263" width="38" height="106">
<path d="M162.16 339.835C162.332 336.553 165.399 289.234 166.91 265.986C174.18 264.258 188.59 261.494 188.072 264.258C187.424 267.713 181.378 283.26 180.298 284.124C179.434 284.815 170.149 359.701 168.854 359.701C167.558 359.701 168.073 355.972 167.99 355.598C167.774 357.541 167.126 365.099 166.91 365.747C166.616 366.192 166.046 366.179 165.615 365.747C165.399 366.827 164.967 367.258 164.535 367.258C163.887 367.258 163.587 365.783 163.455 366.179C163.216 366.897 162.969 368.122 162.16 368.122C161.296 368.122 161.371 366.611 160.864 366.611C160.695 366.611 159.784 368.842 158.921 368.77C156.848 368.597 158.057 357.901 158.921 352.575C158.417 353.439 156.475 355.598 152.659 355.598C152.011 355.598 151.363 354.518 152.011 353.439C152.722 352.253 161.944 343.938 162.16 339.835Z" fill="#924953"/>
</mask>
<g mask="url(#mask4)">
<path d="M160.865 367.259C160.501 364.588 160.604 360.179 161.081 354.519" stroke="#482328" stroke-width="0.84208"/>
<path d="M163.672 367.69C163.503 363.618 163.142 359.845 163.456 355.814M165.615 367.699C165.473 363.741 165.301 360.571 165.615 356.462" stroke="#482328" stroke-width="0.84208"/>
</g>
<path d="M187.857 241.585C186.561 235.755 190.232 234.891 194.983 232.084C199.949 233.38 199.517 234.028 200.381 236.403C201.193 238.635 203.541 240.632 208.37 238.562C211.394 237.267 210.746 234.891 210.53 233.596C210.314 232.3 208.046 230.644 206.643 229.709C207.507 229.277 210.098 229.061 212.257 229.709C215.28 230.616 218.519 227.981 226.077 229.709C233.635 231.436 231.691 236.187 232.555 241.585C233.419 246.984 219.599 249.575 221.758 253.678C230.612 273.328 224.35 303.558 204.484 302.695C190.899 302.104 200.813 279.158 208.37 275.055C203.188 272.464 198.653 268.361 200.381 262.963C201.43 259.685 208.082 256.053 209.882 254.757C196.278 256.269 188.7 245.38 187.857 241.585Z" fill="#15141A"/>
<mask id="mask5" mask-type="alpha" maskUnits="userSpaceOnUse" x="187" y="229" width="46" height="74">
<path d="M187.857 241.585C186.561 235.755 190.232 234.891 194.983 232.084C199.949 233.38 199.517 234.028 200.381 236.403C201.193 238.635 203.541 240.632 208.37 238.562C211.394 237.267 210.746 234.891 210.53 233.596C210.314 232.3 208.046 230.644 206.643 229.709C207.507 229.277 210.098 229.061 212.257 229.709C215.28 230.616 218.519 227.981 226.077 229.709C233.635 231.436 231.691 236.187 232.555 241.585C233.419 246.984 219.599 249.575 221.758 253.678C230.612 273.328 224.35 303.558 204.484 302.695C190.899 302.104 200.813 279.158 208.37 275.055C203.188 272.464 198.653 268.361 200.381 262.963C201.43 259.685 208.082 256.053 209.882 254.757C196.278 256.269 188.7 245.38 187.857 241.585Z" fill="#15141A"/>
</mask>
<g mask="url(#mask5)">
<path d="M231.02 252.233L204.776 255.397V256.753L205.065 256.723C214.063 255.81 231.762 254.012 231.481 253.589C231.188 253.149 231.161 252.695 231.02 252.233Z" fill="#666D47"/>
</g>
<path d="M223.949 225.842C224.572 225.375 223.445 224.258 222.222 224.978C220.998 225.698 219.415 226.921 217.687 227.137C217.255 227.785 221.358 227.785 223.949 225.842Z" fill="#191A1C"/>
<path d="M221.542 223.879C221.542 224.356 221.155 224.742 220.678 224.742C220.201 224.742 219.815 224.356 219.815 223.879C219.815 223.402 220.201 223.015 220.678 223.015C221.155 223.015 221.542 223.402 221.542 223.879Z" fill="#191A1C"/>
</g>
<defs>
<filter id="filter0_i" x="-27" y="94" width="457" height="646" filterUnits="userSpaceOnUse" color-interpolation-filters="sRGB">
<feFlood flood-opacity="0" result="BackgroundImageFix"/>
<feBlend mode="normal" in="SourceGraphic" in2="BackgroundImageFix" result="shape"/>
<feColorMatrix in="SourceAlpha" type="matrix" values="0 0 0 0 0 0 0 0 0 0 0 0 0 0 0 0 0 0 127 0" result="hardAlpha"/>
<feOffset dx="5" dy="25"/>
<feGaussianBlur stdDeviation="16"/>
<feComposite in2="hardAlpha" operator="arithmetic" k2="-1" k3="1"/>
<feColorMatrix type="matrix" values="0 0 0 0 0.866667 0 0 0 0 0.39 0 0 0 0 0.39 0 0 0 0.25 0"/>
<feBlend mode="normal" in2="shape" result="effect1_innerShadow"/>
</filter>
</defs>
</svg>
