<svg width="316" height="388" viewBox="0 0 316 388" fill="none" xmlns="http://www.w3.org/2000/svg">
<g clip-path="url(#clip0)">
<rect width="316" height="388" rx="38" fill="url(#paint0_linear)"/>
<rect x="-11.9182" y="312.547" width="81.0701" height="3.10104" rx="1.55052" fill="#172E52"/>
<rect width="35.0642" height="3.10104" rx="1.55052" transform="matrix(0.707108 -0.707106 0.707108 0.707106 65.8296 313.834)" fill="#172E52"/>
<path fill-rule="evenodd" clip-rule="evenodd" d="M93.5174 292.391C95.8417 292.391 97.726 290.507 97.726 288.182C97.726 285.858 95.8417 283.974 93.5174 283.974C91.1931 283.974 89.3088 285.858 89.3088 288.182C89.3088 290.507 91.1931 292.391 93.5174 292.391ZM93.5173 290.841C94.9853 290.841 96.1754 289.65 96.1754 288.182C96.1754 286.714 94.9853 285.524 93.5173 285.524C92.0493 285.524 90.8593 286.714 90.8593 288.182C90.8593 289.65 92.0493 290.841 93.5173 290.841Z" fill="#172E52"/>
<rect x="-16.7917" y="303.31" width="81.0701" height="3.10104" rx="1.55052" fill="#172E52"/>
<rect width="35.0642" height="3.10104" rx="1.55052" transform="matrix(0.707108 -0.707106 0.707108 0.707106 60.9561 304.595)" fill="#172E52"/>
<path fill-rule="evenodd" clip-rule="evenodd" d="M88.6436 283.152C90.9679 283.152 92.8522 281.268 92.8522 278.943C92.8522 276.619 90.9679 274.735 88.6436 274.735C86.3193 274.735 84.4351 276.619 84.4351 278.943C84.4351 281.268 86.3193 283.152 88.6436 283.152ZM88.6436 281.602C90.1116 281.602 91.3016 280.412 91.3016 278.944C91.3016 277.476 90.1116 276.286 88.6436 276.286C87.1756 276.286 85.9856 277.476 85.9856 278.944C85.9856 280.412 87.1756 281.602 88.6436 281.602Z" fill="#172E52"/>
<rect x="-21" y="293.342" width="81.0701" height="3.10104" rx="1.55052" fill="#172E52"/>
<rect width="35.0642" height="3.10104" rx="1.55052" transform="matrix(0.707108 -0.707106 0.707108 0.707106 56.7476 294.628)" fill="#172E52"/>
<path fill-rule="evenodd" clip-rule="evenodd" d="M84.4354 273.185C86.7597 273.185 88.6439 271.301 88.6439 268.977C88.6439 266.652 86.7597 264.768 84.4354 264.768C82.111 264.768 80.2268 266.652 80.2268 268.977C80.2268 271.301 82.111 273.185 84.4354 273.185ZM84.4355 271.635C85.9035 271.635 87.0935 270.445 87.0935 268.977C87.0935 267.509 85.9035 266.319 84.4355 266.319C82.9675 266.319 81.7774 267.509 81.7774 268.977C81.7774 270.445 82.9675 271.635 84.4355 271.635Z" fill="#172E52"/>
<rect x="249.898" y="169.899" width="34.776" height="3.10104" rx="1.55052" transform="rotate(-90 249.898 169.899)" fill="#172E52"/>
<rect x="251.25" y="138.445" width="19.5407" height="3.10104" rx="1.55052" transform="rotate(-135 251.25 138.445)" fill="#172E52"/>
<path fill-rule="evenodd" clip-rule="evenodd" d="M240.595 122.054C240.595 119.73 238.71 117.846 236.386 117.846C234.062 117.846 232.177 119.73 232.177 122.054C232.177 124.378 234.062 126.263 236.386 126.263C238.71 126.263 240.595 124.378 240.595 122.054ZM239.044 122.055C239.044 120.587 237.854 119.397 236.386 119.397C234.918 119.397 233.728 120.587 233.728 122.055C233.728 123.523 234.918 124.713 236.386 124.713C237.854 124.713 239.044 123.523 239.044 122.055Z" fill="#172E52"/>
<rect x="252.999" y="167.905" width="71.9885" height="3.10104" rx="1.55052" transform="rotate(90 252.999 167.905)" fill="#172E52"/>
<rect width="19.5407" height="3.10104" rx="1.55052" transform="matrix(0.707107 0.707106 -0.707107 0.707106 251.648 236.571)" fill="#172E52"/>
<path fill-rule="evenodd" clip-rule="evenodd" d="M262.302 252.962C262.302 255.287 264.186 257.171 266.511 257.171C268.835 257.171 270.719 255.287 270.719 252.962C270.719 250.638 268.835 248.754 266.511 248.754C264.186 248.754 262.302 250.638 262.302 252.962ZM263.852 252.963C263.852 254.431 265.042 255.621 266.51 255.621C267.978 255.621 269.168 254.431 269.168 252.963C269.168 251.495 267.978 250.305 266.51 250.305C265.042 250.305 263.852 251.495 263.852 252.963Z" fill="#172E52"/>
<path fill-rule="evenodd" clip-rule="evenodd" d="M115.004 326.944C117.328 326.944 119.213 325.06 119.213 322.736C119.213 320.412 117.328 318.527 115.004 318.527C112.68 318.527 110.795 320.412 110.795 322.736C110.795 325.06 112.68 326.944 115.004 326.944ZM115.004 325.394C116.472 325.394 117.662 324.204 117.662 322.736C117.662 321.268 116.472 320.078 115.004 320.078C113.536 320.078 112.346 321.268 112.346 322.736C112.346 324.204 113.536 325.394 115.004 325.394Z" fill="#172E52"/>
<rect x="-18.1196" y="321.186" width="130.465" height="3.10104" rx="1.55052" fill="#172E52"/>
<path fill-rule="evenodd" clip-rule="evenodd" d="M115.004 337.798C117.328 337.798 119.213 335.914 119.213 333.589C119.213 331.265 117.328 329.381 115.004 329.381C112.68 329.381 110.795 331.265 110.795 333.589C110.795 335.914 112.68 337.798 115.004 337.798ZM115.004 336.247C116.472 336.247 117.662 335.057 117.662 333.589C117.662 332.121 116.472 330.931 115.004 330.931C113.536 330.931 112.346 332.121 112.346 333.589C112.346 335.057 113.536 336.247 115.004 336.247Z" fill="#172E52"/>
<rect x="-18.1196" y="332.039" width="130.465" height="3.10104" rx="1.55052" fill="#172E52"/>
<rect x="97.126" y="-36.7637" width="81.0701" height="3.10104" rx="1.55052" transform="rotate(90 97.126 -36.7637)" fill="#172E52"/>
<rect width="35.0642" height="3.10104" rx="1.55052" transform="matrix(0.707105 0.707108 -0.707105 0.707108 95.8396 40.9839)" fill="#172E52"/>
<path fill-rule="evenodd" clip-rule="evenodd" d="M117.283 68.6719C117.283 70.9963 119.167 72.8805 121.491 72.8805C123.815 72.8805 125.7 70.9963 125.7 68.6719C125.7 66.3476 123.815 64.4634 121.491 64.4634C119.167 64.4634 117.283 66.3476 117.283 68.6719ZM118.833 68.6721C118.833 70.1401 120.023 71.3301 121.491 71.3301C122.959 71.3301 124.149 70.1401 124.149 68.6721C124.149 67.2041 122.959 66.014 121.491 66.014C120.023 66.014 118.833 67.2041 118.833 68.6721Z" fill="#172E52"/>
<rect x="106.365" y="-41.6362" width="81.0701" height="3.10104" rx="1.55052" transform="rotate(90 106.365 -41.6362)" fill="#172E52"/>
<rect width="35.0642" height="3.10104" rx="1.55052" transform="matrix(0.707105 0.707108 -0.707105 0.707108 105.078 36.1113)" fill="#172E52"/>
<path fill-rule="evenodd" clip-rule="evenodd" d="M126.522 63.7989C126.522 66.1232 128.406 68.0074 130.73 68.0074C133.054 68.0074 134.939 66.1232 134.939 63.7989C134.939 61.4746 133.054 59.5903 130.73 59.5903C128.406 59.5903 126.522 61.4746 126.522 63.7989ZM128.072 63.7992C128.072 65.2672 129.262 66.4572 130.73 66.4572C132.198 66.4572 133.388 65.2672 133.388 63.7992C133.388 62.3312 132.198 61.1411 130.73 61.1411C129.262 61.1411 128.072 62.3312 128.072 63.7992Z" fill="#172E52"/>
<path fill-rule="evenodd" clip-rule="evenodd" d="M90.859 68.6714C90.859 70.9958 88.9748 72.88 86.6505 72.88C84.3261 72.88 82.4419 70.9958 82.4419 68.6714C82.4419 66.3471 84.3261 64.4629 86.6505 64.4629C88.9748 64.4629 90.859 66.3471 90.859 68.6714ZM89.3087 68.6716C89.3087 70.1396 88.1186 71.3296 86.6506 71.3296C85.1826 71.3296 83.9926 70.1396 83.9926 68.6716C83.9926 67.2036 85.1826 66.0136 86.6506 66.0136C88.1186 66.0136 89.3087 67.2036 89.3087 68.6716Z" fill="#172E52"/>
<rect width="130.465" height="3.10104" rx="1.55052" transform="matrix(8.7422e-08 1 1 -8.74236e-08 85.1006 -64.4517)" fill="#172E52"/>
<path fill-rule="evenodd" clip-rule="evenodd" d="M118.768 32.1241C118.768 34.4484 116.884 36.3326 114.56 36.3326C112.235 36.3326 110.351 34.4484 110.351 32.1241C110.351 29.7998 112.235 27.9155 114.56 27.9155C116.884 27.9155 118.768 29.7998 118.768 32.1241ZM117.218 32.1242C117.218 33.5922 116.028 34.7822 114.56 34.7822C113.092 34.7822 111.902 33.5922 111.902 32.1242C111.902 30.6562 113.092 29.4662 114.56 29.4662C116.028 29.4662 117.218 30.6562 117.218 32.1242Z" fill="#172E52"/>
<rect width="130.465" height="3.10104" rx="1.55052" transform="matrix(8.7422e-08 1 1 -8.74236e-08 113.01 -101)" fill="#172E52"/>
<path fill-rule="evenodd" clip-rule="evenodd" d="M128.958 32.1241C128.958 34.4484 127.073 36.3326 124.749 36.3326C122.425 36.3326 120.541 34.4484 120.541 32.1241C120.541 29.7998 122.425 27.9155 124.749 27.9155C127.073 27.9155 128.958 29.7998 128.958 32.1241ZM127.407 32.1242C127.407 33.5922 126.217 34.7822 124.749 34.7822C123.281 34.7822 122.091 33.5922 122.091 32.1242C122.091 30.6562 123.281 29.4662 124.749 29.4662C126.217 29.4662 127.407 30.6562 127.407 32.1242Z" fill="#172E52"/>
<rect width="130.465" height="3.10104" rx="1.55052" transform="matrix(8.7422e-08 1 1 -8.74236e-08 123.199 -101)" fill="#172E52"/>
<rect width="81.0701" height="3.10104" rx="1.55052" transform="matrix(8.74218e-08 1 1 -8.74238e-08 236.765 -8.18994)" fill="#172E52"/>
<rect width="35.0642" height="3.10104" rx="1.55052" transform="matrix(-0.707107 0.707106 0.707108 0.707106 238.051 69.5576)" fill="#172E52"/>
<path fill-rule="evenodd" clip-rule="evenodd" d="M216.608 97.2457C216.608 99.57 214.724 101.454 212.399 101.454C210.075 101.454 208.191 99.57 208.191 97.2457C208.191 94.9213 210.075 93.0371 212.399 93.0371C214.724 93.0371 216.608 94.9213 216.608 97.2457ZM215.057 97.2458C215.057 98.7138 213.867 99.9038 212.399 99.9038C210.931 99.9038 209.741 98.7138 209.741 97.2458C209.741 95.7778 210.931 94.5878 212.399 94.5878C213.867 94.5878 215.057 95.7778 215.057 97.2458Z" fill="#172E52"/>
<rect width="81.0701" height="3.10104" rx="1.55052" transform="matrix(8.74218e-08 1 1 -8.74238e-08 227.526 -13.0635)" fill="#172E52"/>
<rect width="35.0642" height="3.10104" rx="1.55052" transform="matrix(-0.707107 0.707107 0.707107 0.707107 228.813 64.6846)" fill="#172E52"/>
<path fill-rule="evenodd" clip-rule="evenodd" d="M207.37 92.3721C207.37 94.6965 205.486 96.5807 203.161 96.5807C200.837 96.5807 198.953 94.6965 198.953 92.3721C198.953 90.0478 200.837 88.1636 203.161 88.1636C205.486 88.1636 207.37 90.0478 207.37 92.3721ZM205.819 92.3723C205.819 93.8403 204.629 95.0304 203.161 95.0304C201.693 95.0304 200.503 93.8403 200.503 92.3723C200.503 90.9044 201.693 89.7143 203.161 89.7143C204.629 89.7143 205.819 90.9044 205.819 92.3723Z" fill="#172E52"/>
<path fill-rule="evenodd" clip-rule="evenodd" d="M243.031 97.2452C243.031 99.5695 244.915 101.454 247.24 101.454C249.564 101.454 251.448 99.5695 251.448 97.2452C251.448 94.9209 249.564 93.0366 247.24 93.0366C244.915 93.0366 243.031 94.9209 243.031 97.2452ZM244.582 97.2453C244.582 98.7133 245.772 99.9034 247.24 99.9034C248.708 99.9034 249.898 98.7133 249.898 97.2453C249.898 95.7773 248.708 94.5873 247.24 94.5873C245.772 94.5873 244.582 95.7773 244.582 97.2453Z" fill="#172E52"/>
<rect x="248.79" y="-35.8779" width="130.465" height="3.10104" rx="1.55052" transform="rotate(90 248.79 -35.8779)" fill="#172E52"/>
<rect x="129.622" y="328.716" width="38.0985" height="3.10104" rx="1.55052" transform="rotate(90 129.622 328.716)" fill="#172E52"/>
<rect width="52.0532" height="3.10104" rx="1.55052" transform="matrix(-8.74228e-08 -1 -1 8.74228e-08 129.622 366.815)" fill="#172E52"/>
<rect width="23.1784" height="3.10104" rx="1.55052" transform="matrix(0.707109 -0.707105 -0.707109 -0.707105 128.27 318.306)" fill="#172E52"/>
<path fill-rule="evenodd" clip-rule="evenodd" d="M141.309 299.022C141.309 296.698 143.193 294.814 145.518 294.814C147.842 294.814 149.726 296.698 149.726 299.022C149.726 301.347 147.842 303.231 145.518 303.231C143.193 303.231 141.309 301.347 141.309 299.022ZM142.86 299.022C142.86 297.554 144.05 296.364 145.518 296.364C146.986 296.364 148.176 297.554 148.176 299.022C148.176 300.49 146.986 301.68 145.518 301.68C144.05 301.68 142.86 300.49 142.86 299.022Z" fill="#172E52"/>
<rect x="128.27" y="363.259" width="23.1784" height="3.10104" rx="1.55052" transform="rotate(45 128.27 363.259)" fill="#172E52"/>
<path fill-rule="evenodd" clip-rule="evenodd" d="M141.309 382.542C141.309 384.866 143.193 386.75 145.518 386.75C147.842 386.75 149.726 384.866 149.726 382.542C149.726 380.217 147.842 378.333 145.518 378.333C143.193 378.333 141.309 380.217 141.309 382.542ZM142.86 382.542C142.86 384.01 144.05 385.2 145.518 385.2C146.986 385.2 148.176 384.01 148.176 382.542C148.176 381.074 146.986 379.884 145.518 379.884C144.05 379.884 142.86 381.074 142.86 382.542Z" fill="#172E52"/>
<rect x="139.811" y="332.925" width="38.0985" height="3.10104" rx="1.55052" transform="rotate(90 139.811 332.925)" fill="#172E52"/>
<rect width="52.0532" height="3.10104" rx="1.55052" transform="matrix(-8.74228e-08 -1 -1 8.74228e-08 139.812 371.023)" fill="#172E52"/>
<rect width="23.1784" height="3.10104" rx="1.55052" transform="matrix(0.707107 -0.707106 -0.707107 -0.707106 138.46 322.514)" fill="#172E52"/>
<path fill-rule="evenodd" clip-rule="evenodd" d="M151.499 303.23C151.499 300.906 153.383 299.022 155.707 299.022C158.032 299.022 159.916 300.906 159.916 303.23C159.916 305.555 158.032 307.439 155.707 307.439C153.383 307.439 151.499 305.555 151.499 303.23ZM153.049 303.23C153.049 301.762 154.239 300.572 155.707 300.572C157.175 300.572 158.365 301.762 158.365 303.23C158.365 304.698 157.175 305.889 155.707 305.889C154.239 305.889 153.049 304.698 153.049 303.23Z" fill="#172E52"/>
<rect x="138.46" y="367.467" width="23.1784" height="3.10104" rx="1.55052" transform="rotate(45 138.46 367.467)" fill="#172E52"/>
<path fill-rule="evenodd" clip-rule="evenodd" d="M151.499 386.75C151.499 389.074 153.383 390.958 155.707 390.958C158.032 390.958 159.916 389.074 159.916 386.75C159.916 384.425 158.032 382.541 155.707 382.541C153.383 382.541 151.499 384.425 151.499 386.75ZM153.049 386.75C153.049 388.218 154.239 389.408 155.707 389.408C157.175 389.408 158.365 388.218 158.365 386.75C158.365 385.282 157.175 384.092 155.707 384.092C154.239 384.092 153.049 385.282 153.049 386.75Z" fill="#172E52"/>
<rect x="150.444" y="336.469" width="38.0985" height="3.10104" rx="1.55052" transform="rotate(90 150.444 336.469)" fill="#172E52"/>
<rect width="52.0532" height="3.10104" rx="1.55052" transform="matrix(-8.74228e-08 -1 -1 8.74228e-08 150.444 374.568)" fill="#172E52"/>
<rect width="23.1784" height="3.10104" rx="1.55052" transform="matrix(0.707107 -0.707106 -0.707107 -0.707106 149.092 326.059)" fill="#172E52"/>
<path fill-rule="evenodd" clip-rule="evenodd" d="M162.131 306.775C162.131 304.451 164.015 302.567 166.34 302.567C168.664 302.567 170.548 304.451 170.548 306.775C170.548 309.1 168.664 310.984 166.34 310.984C164.015 310.984 162.131 309.1 162.131 306.775ZM163.682 306.775C163.682 305.307 164.872 304.117 166.34 304.117C167.808 304.117 168.998 305.307 168.998 306.775C168.998 308.243 167.808 309.433 166.34 309.433C164.872 309.433 163.682 308.243 163.682 306.775Z" fill="#172E52"/>
<rect x="149.092" y="371.012" width="23.1784" height="3.10104" rx="1.55052" transform="rotate(45 149.092 371.012)" fill="#172E52"/>
<path fill-rule="evenodd" clip-rule="evenodd" d="M162.131 390.294C162.131 392.619 164.015 394.503 166.34 394.503C168.664 394.503 170.548 392.619 170.548 390.294C170.548 387.97 168.664 386.086 166.34 386.086C164.015 386.086 162.131 387.97 162.131 390.294ZM163.681 390.294C163.681 391.762 164.871 392.952 166.339 392.952C167.807 392.952 168.998 391.762 168.998 390.294C168.998 388.826 167.807 387.636 166.339 387.636C164.871 387.636 163.681 388.826 163.681 390.294Z" fill="#172E52"/>
<rect width="38.0985" height="3.10104" rx="1.55052" transform="matrix(8.74226e-08 1 1 -8.7423e-08 282.186 328.717)" fill="#172E52"/>
<rect x="282.185" y="366.815" width="52.0532" height="3.10104" rx="1.55052" transform="rotate(-90 282.185 366.815)" fill="#172E52"/>
<rect width="23.1784" height="3.10104" rx="1.55052" transform="matrix(-0.707107 -0.707106 0.707107 -0.707106 283.536 318.306)" fill="#172E52"/>
<path fill-rule="evenodd" clip-rule="evenodd" d="M270.498 299.022C270.498 296.698 268.613 294.814 266.289 294.814C263.965 294.814 262.081 296.698 262.081 299.022C262.081 301.347 263.965 303.231 266.289 303.231C268.613 303.231 270.498 301.347 270.498 299.022ZM268.947 299.022C268.947 297.554 267.757 296.364 266.289 296.364C264.821 296.364 263.631 297.554 263.631 299.022C263.631 300.49 264.821 301.68 266.289 301.68C267.757 301.68 268.947 300.49 268.947 299.022Z" fill="#172E52"/>
<rect width="23.1784" height="3.10104" rx="1.55052" transform="matrix(-0.707107 0.707107 0.707107 0.707107 283.537 363.259)" fill="#172E52"/>
<path fill-rule="evenodd" clip-rule="evenodd" d="M270.498 382.542C270.498 384.866 268.613 386.75 266.289 386.75C263.965 386.75 262.081 384.866 262.081 382.542C262.081 380.217 263.965 378.333 266.289 378.333C268.613 378.333 270.498 380.217 270.498 382.542ZM268.947 382.542C268.947 384.01 267.757 385.2 266.289 385.2C264.821 385.2 263.631 384.01 263.631 382.542C263.631 381.074 264.821 379.884 266.289 379.884C267.757 379.884 268.947 381.074 268.947 382.542Z" fill="#172E52"/>
<rect width="38.0985" height="3.10104" rx="1.55052" transform="matrix(8.74226e-08 1 1 -8.7423e-08 271.996 332.925)" fill="#172E52"/>
<rect x="271.996" y="371.023" width="52.0532" height="3.10104" rx="1.55052" transform="rotate(-90 271.996 371.023)" fill="#172E52"/>
<rect width="23.1784" height="3.10104" rx="1.55052" transform="matrix(-0.707107 -0.707106 0.707107 -0.707106 273.347 322.514)" fill="#172E52"/>
<path fill-rule="evenodd" clip-rule="evenodd" d="M260.309 303.23C260.309 300.906 258.425 299.022 256.1 299.022C253.776 299.022 251.892 300.906 251.892 303.23C251.892 305.555 253.776 307.439 256.1 307.439C258.425 307.439 260.309 305.555 260.309 303.23ZM258.759 303.231C258.759 301.763 257.569 300.573 256.101 300.573C254.633 300.573 253.443 301.763 253.443 303.231C253.443 304.699 254.633 305.889 256.101 305.889C257.569 305.889 258.759 304.699 258.759 303.231Z" fill="#172E52"/>
<rect width="23.1784" height="3.10104" rx="1.55052" transform="matrix(-0.707107 0.707107 0.707107 0.707107 273.347 367.467)" fill="#172E52"/>
<path fill-rule="evenodd" clip-rule="evenodd" d="M260.308 386.75C260.308 389.074 258.424 390.958 256.1 390.958C253.776 390.958 251.891 389.074 251.891 386.75C251.891 384.425 253.776 382.541 256.1 382.541C258.424 382.541 260.308 384.425 260.308 386.75ZM258.758 386.75C258.758 388.218 257.568 389.408 256.1 389.408C254.632 389.408 253.442 388.218 253.442 386.75C253.442 385.282 254.632 384.092 256.1 384.092C257.568 384.092 258.758 385.282 258.758 386.75Z" fill="#172E52"/>
<rect width="38.0985" height="3.10104" rx="1.55052" transform="matrix(8.74226e-08 1 1 -8.7423e-08 261.363 336.47)" fill="#172E52"/>
<rect x="261.363" y="374.568" width="52.0532" height="3.10104" rx="1.55052" transform="rotate(-90 261.363 374.568)" fill="#172E52"/>
<rect width="23.1784" height="3.10104" rx="1.55052" transform="matrix(-0.707107 -0.707106 0.707107 -0.707106 262.715 326.059)" fill="#172E52"/>
<path fill-rule="evenodd" clip-rule="evenodd" d="M249.676 306.775C249.676 304.451 247.792 302.567 245.468 302.567C243.143 302.567 241.259 304.451 241.259 306.775C241.259 309.1 243.143 310.984 245.468 310.984C247.792 310.984 249.676 309.1 249.676 306.775ZM248.125 306.775C248.125 305.307 246.935 304.117 245.467 304.117C243.999 304.117 242.809 305.307 242.809 306.775C242.809 308.243 243.999 309.433 245.467 309.433C246.935 309.433 248.125 308.243 248.125 306.775Z" fill="#172E52"/>
<rect width="23.1784" height="3.10104" rx="1.55052" transform="matrix(-0.707107 0.707107 0.707107 0.707107 262.715 371.012)" fill="#172E52"/>
<path fill-rule="evenodd" clip-rule="evenodd" d="M249.676 390.294C249.676 392.619 247.792 394.503 245.468 394.503C243.144 394.503 241.259 392.619 241.259 390.294C241.259 387.97 243.144 386.086 245.468 386.086C247.792 386.086 249.676 387.97 249.676 390.294ZM248.126 390.294C248.126 391.762 246.936 392.952 245.468 392.952C244 392.952 242.809 391.762 242.809 390.294C242.809 388.826 244 387.636 245.468 387.636C246.936 387.636 248.126 388.826 248.126 390.294Z" fill="#172E52"/>
<path fill-rule="evenodd" clip-rule="evenodd" d="M194.301 299.036C194.301 296.711 196.185 294.827 198.509 294.827C200.834 294.827 202.718 296.711 202.718 299.036C202.718 301.36 200.834 303.244 198.509 303.244C196.185 303.244 194.301 301.36 194.301 299.036ZM195.852 299.035C195.852 297.567 197.042 296.377 198.51 296.377C199.978 296.377 201.168 297.567 201.168 299.035C201.168 300.503 199.978 301.693 198.51 301.693C197.042 301.693 195.852 300.503 195.852 299.035Z" fill="#172E52"/>
<rect width="130.465" height="3.10104" rx="1.55052" transform="matrix(0 -1 -1 0 200.059 432.159)" fill="#172E52"/>
<path fill-rule="evenodd" clip-rule="evenodd" d="M184.112 315.427C184.112 313.102 185.996 311.218 188.32 311.218C190.645 311.218 192.529 313.102 192.529 315.427C192.529 317.751 190.645 319.635 188.32 319.635C185.996 319.635 184.112 317.751 184.112 315.427ZM185.662 315.427C185.662 313.959 186.852 312.769 188.32 312.769C189.788 312.769 190.978 313.959 190.978 315.427C190.978 316.895 189.788 318.085 188.32 318.085C186.852 318.085 185.662 316.895 185.662 315.427Z" fill="#172E52"/>
<rect width="130.465" height="3.10104" rx="1.55052" transform="matrix(0 -1 -1 0 189.87 448.55)" fill="#172E52"/>
<path fill-rule="evenodd" clip-rule="evenodd" d="M213.35 299.036C213.35 296.711 215.234 294.827 217.559 294.827C219.883 294.827 221.767 296.711 221.767 299.036C221.767 301.36 219.883 303.244 217.559 303.244C215.234 303.244 213.35 301.36 213.35 299.036ZM214.901 299.035C214.901 297.567 216.091 296.377 217.559 296.377C219.027 296.377 220.217 297.567 220.217 299.035C220.217 300.503 219.027 301.693 217.559 301.693C216.091 301.693 214.901 300.503 214.901 299.035Z" fill="#172E52"/>
<rect width="130.465" height="3.10104" rx="1.55052" transform="matrix(0 -1 -1 0 219.109 432.159)" fill="#172E52"/>
<path fill-rule="evenodd" clip-rule="evenodd" d="M223.761 315.205C223.761 312.88 225.645 310.996 227.969 310.996C230.293 310.996 232.178 312.88 232.178 315.205C232.178 317.529 230.293 319.413 227.969 319.413C225.645 319.413 223.761 317.529 223.761 315.205ZM225.312 315.205C225.312 313.737 226.502 312.547 227.97 312.547C229.438 312.547 230.628 313.737 230.628 315.205C230.628 316.673 229.438 317.863 227.97 317.863C226.502 317.863 225.312 316.673 225.312 315.205Z" fill="#172E52"/>
<rect width="130.465" height="3.10104" rx="1.55052" transform="matrix(0 -1 -1 0 229.52 448.328)" fill="#172E52"/>
<path fill-rule="evenodd" clip-rule="evenodd" d="M288.44 319.414C288.44 317.089 290.325 315.205 292.649 315.205C294.973 315.205 296.857 317.089 296.857 319.414C296.857 321.738 294.973 323.622 292.649 323.622C290.325 323.622 288.44 321.738 288.44 319.414ZM289.991 319.413C289.991 317.945 291.181 316.755 292.649 316.755C294.117 316.755 295.307 317.945 295.307 319.413C295.307 320.881 294.117 322.071 292.649 322.071C291.181 322.071 289.991 320.881 289.991 319.413Z" fill="#172E52"/>
<rect width="130.465" height="3.10104" rx="1.55052" transform="matrix(0 -1 -1 0 294.199 452.537)" fill="#172E52"/>
<path fill-rule="evenodd" clip-rule="evenodd" d="M300.179 310.997C300.179 308.673 302.064 306.788 304.388 306.788C306.712 306.788 308.596 308.673 308.596 310.997C308.596 313.321 306.712 315.206 304.388 315.206C302.064 315.206 300.179 313.321 300.179 310.997ZM301.73 310.997C301.73 309.529 302.92 308.339 304.388 308.339C305.856 308.339 307.046 309.529 307.046 310.997C307.046 312.465 305.856 313.655 304.388 313.655C302.92 313.655 301.73 312.465 301.73 310.997Z" fill="#172E52"/>
<rect width="130.465" height="3.10104" rx="1.55052" transform="matrix(0 -1 -1 0 305.939 444.12)" fill="#172E52"/>
<path fill-rule="evenodd" clip-rule="evenodd" d="M204.49 287.518C204.49 285.193 206.374 283.309 208.698 283.309C211.023 283.309 212.907 285.193 212.907 287.518C212.907 289.842 211.023 291.726 208.698 291.726C206.374 291.726 204.49 289.842 204.49 287.518ZM206.04 287.517C206.04 286.049 207.23 284.859 208.698 284.859C210.166 284.859 211.356 286.049 211.356 287.517C211.356 288.985 210.166 290.175 208.698 290.175C207.23 290.175 206.04 288.985 206.04 287.517Z" fill="#172E52"/>
<rect width="130.465" height="3.10104" rx="1.55052" transform="matrix(0 -1 -1 0 210.249 420.641)" fill="#172E52"/>
<path fill-rule="evenodd" clip-rule="evenodd" d="M30.389 133.573C30.389 131.249 32.2733 129.365 34.5976 129.365C36.9219 129.365 38.8062 131.249 38.8062 133.573C38.8062 135.898 36.9219 137.782 34.5976 137.782C32.2733 137.782 30.389 135.898 30.389 133.573ZM31.9399 133.574C31.9399 132.106 33.1299 130.916 34.5979 130.916C36.0659 130.916 37.2559 132.106 37.2559 133.574C37.2559 135.042 36.0659 136.232 34.5979 136.232C33.1299 136.232 31.9399 135.042 31.9399 133.574Z" fill="#172E52"/>
<rect width="74.425" height="3.10104" rx="1.55052" transform="matrix(0 -1 -1 0 36.1482 210.656)" fill="#172E52"/>
<path fill-rule="evenodd" clip-rule="evenodd" d="M30.389 249.639C30.389 251.964 32.2733 253.848 34.5976 253.848C36.9219 253.848 38.8062 251.964 38.8062 249.639C38.8062 247.315 36.9219 245.431 34.5976 245.431C32.2733 245.431 30.389 247.315 30.389 249.639ZM31.9399 249.639C31.9399 251.107 33.1299 252.297 34.5979 252.297C36.0659 252.297 37.2559 251.107 37.2559 249.639C37.2559 248.171 36.0659 246.981 34.5979 246.981C33.1299 246.981 31.9399 248.171 31.9399 249.639Z" fill="#172E52"/>
<rect x="36.1482" y="172.556" width="74.425" height="3.10104" rx="1.55052" transform="rotate(90 36.1482 172.556)" fill="#172E52"/>
<path fill-rule="evenodd" clip-rule="evenodd" d="M50.767 145.533C50.767 143.208 52.6512 141.324 54.9755 141.324C57.2998 141.324 59.1841 143.208 59.1841 145.533C59.1841 147.857 57.2998 149.741 54.9755 149.741C52.6512 149.741 50.767 147.857 50.767 145.533ZM52.3173 145.533C52.3173 144.065 53.5074 142.875 54.9754 142.875C56.4433 142.875 57.6334 144.065 57.6334 145.533C57.6334 147.001 56.4433 148.191 54.9754 148.191C53.5074 148.191 52.3173 147.001 52.3173 145.533Z" fill="#172E52"/>
<rect width="62.4638" height="3.10104" rx="1.55052" transform="matrix(0 -1 -1 0 56.5256 210.655)" fill="#172E52"/>
<path fill-rule="evenodd" clip-rule="evenodd" d="M50.767 237.677C50.767 240.002 52.6512 241.886 54.9755 241.886C57.2998 241.886 59.1841 240.002 59.1841 237.677C59.1841 235.353 57.2998 233.469 54.9755 233.469C52.6512 233.469 50.767 235.353 50.767 237.677ZM52.3173 237.677C52.3173 239.145 53.5074 240.336 54.9754 240.336C56.4433 240.336 57.6334 239.145 57.6334 237.677C57.6334 236.21 56.4433 235.019 54.9754 235.019C53.5074 235.019 52.3173 236.21 52.3173 237.677Z" fill="#172E52"/>
<rect x="56.5256" y="172.556" width="62.4638" height="3.10104" rx="1.55052" transform="rotate(90 56.5256 172.556)" fill="#172E52"/>
<path fill-rule="evenodd" clip-rule="evenodd" d="M40.5775 161.925C40.5775 159.6 42.4618 157.716 44.7861 157.716C47.1104 157.716 48.9946 159.6 48.9946 161.925C48.9946 164.249 47.1104 166.133 44.7861 166.133C42.4618 166.133 40.5775 164.249 40.5775 161.925ZM42.1283 161.925C42.1283 160.457 43.3184 159.267 44.7864 159.267C46.2544 159.267 47.4444 160.457 47.4444 161.925C47.4444 163.393 46.2544 164.583 44.7864 164.583C43.3184 164.583 42.1283 163.393 42.1283 161.925Z" fill="#172E52"/>
<rect width="46.0726" height="3.10104" rx="1.55052" transform="matrix(0 -1 -1 0 46.3359 210.655)" fill="#172E52"/>
<path fill-rule="evenodd" clip-rule="evenodd" d="M40.5773 221.287C40.5773 223.611 42.4615 225.495 44.7858 225.495C47.1101 225.495 48.9944 223.611 48.9944 221.287C48.9944 218.962 47.1101 217.078 44.7858 217.078C42.4615 217.078 40.5773 218.962 40.5773 221.287ZM42.128 221.287C42.128 222.755 43.3181 223.945 44.7861 223.945C46.2541 223.945 47.4441 222.755 47.4441 221.287C47.4441 219.819 46.2541 218.629 44.7861 218.629C43.3181 218.629 42.128 219.819 42.128 221.287Z" fill="#172E52"/>
<rect x="46.3359" y="172.556" width="46.0726" height="3.10104" rx="1.55052" transform="rotate(90 46.3359 172.556)" fill="#172E52"/>
<path fill-rule="evenodd" clip-rule="evenodd" d="M303.138 291.504C305.296 291.504 307.046 289.755 307.046 287.596C307.046 285.438 305.296 283.688 303.138 283.688C300.98 283.688 299.23 285.438 299.23 287.596C299.23 289.755 300.98 291.504 303.138 291.504ZM303.138 290.065C304.501 290.065 305.606 288.96 305.606 287.597C305.606 286.233 304.501 285.128 303.138 285.128C301.775 285.128 300.67 286.233 300.67 287.597C300.67 288.96 301.775 290.065 303.138 290.065Z" fill="#172E52"/>
<rect x="291.825" y="286.157" width="8.8443" height="2.87954" rx="1.43977" fill="#172E52"/>
<path fill-rule="evenodd" clip-rule="evenodd" d="M282.158 291.504C280 291.504 278.25 289.755 278.25 287.596C278.25 285.438 280 283.688 282.158 283.688C284.316 283.688 286.066 285.438 286.066 287.596C286.066 289.755 284.316 291.504 282.158 291.504ZM282.158 290.065C280.795 290.065 279.69 288.96 279.69 287.597C279.69 286.233 280.795 285.128 282.158 285.128C283.521 285.128 284.626 286.233 284.626 287.597C284.626 288.96 283.521 290.065 282.158 290.065Z" fill="#172E52"/>
<rect width="8.8443" height="2.87954" rx="1.43977" transform="matrix(-1 4.37106e-08 4.37122e-08 1 293.471 286.156)" fill="#172E52"/>
<path fill-rule="evenodd" clip-rule="evenodd" d="M303.138 281.314C305.296 281.314 307.046 279.565 307.046 277.406C307.046 275.248 305.296 273.499 303.138 273.499C300.98 273.499 299.23 275.248 299.23 277.406C299.23 279.565 300.98 281.314 303.138 281.314ZM303.138 279.874C304.501 279.874 305.606 278.769 305.606 277.406C305.606 276.043 304.501 274.938 303.138 274.938C301.775 274.938 300.67 276.043 300.67 277.406C300.67 278.769 301.775 279.874 303.138 279.874Z" fill="#172E52"/>
<rect x="291.825" y="275.967" width="8.8443" height="2.87954" rx="1.43977" fill="#172E52"/>
<path fill-rule="evenodd" clip-rule="evenodd" d="M282.158 281.314C280 281.314 278.25 279.565 278.25 277.406C278.25 275.248 280 273.499 282.158 273.499C284.316 273.499 286.066 275.248 286.066 277.406C286.066 279.565 284.316 281.314 282.158 281.314ZM282.158 279.874C280.795 279.874 279.69 278.769 279.69 277.406C279.69 276.043 280.795 274.938 282.158 274.938C283.521 274.938 284.626 276.043 284.626 277.406C284.626 278.769 283.521 279.874 282.158 279.874Z" fill="#172E52"/>
<rect width="8.8443" height="2.87954" rx="1.43977" transform="matrix(-1 4.37106e-08 4.37122e-08 1 293.471 275.966)" fill="#172E52"/>
<path fill-rule="evenodd" clip-rule="evenodd" d="M303.137 271.347C305.296 271.347 307.045 269.597 307.045 267.439C307.045 265.281 305.296 263.531 303.137 263.531C300.979 263.531 299.229 265.281 299.229 267.439C299.229 269.597 300.979 271.347 303.137 271.347ZM303.137 269.908C304.501 269.908 305.606 268.803 305.606 267.439C305.606 266.076 304.501 264.971 303.137 264.971C301.774 264.971 300.669 266.076 300.669 267.439C300.669 268.803 301.774 269.908 303.137 269.908Z" fill="#172E52"/>
<rect x="291.825" y="266" width="8.8443" height="2.87954" rx="1.43977" fill="#172E52"/>
<path fill-rule="evenodd" clip-rule="evenodd" d="M282.158 271.347C280 271.347 278.25 269.597 278.25 267.439C278.25 265.281 280 263.531 282.158 263.531C284.316 263.531 286.066 265.281 286.066 267.439C286.066 269.597 284.316 271.347 282.158 271.347ZM282.158 269.908C280.795 269.908 279.69 268.803 279.69 267.439C279.69 266.076 280.795 264.971 282.158 264.971C283.521 264.971 284.626 266.076 284.626 267.439C284.626 268.803 283.521 269.908 282.158 269.908Z" fill="#172E52"/>
<rect width="8.8443" height="2.87954" rx="1.43977" transform="matrix(-1 4.37106e-08 4.37122e-08 1 293.471 266)" fill="#172E52"/>
<path fill-rule="evenodd" clip-rule="evenodd" d="M55.2761 281.095C57.4344 281.095 59.1841 279.345 59.1841 277.187C59.1841 275.028 57.4344 273.279 55.2761 273.279C53.1178 273.279 51.3682 275.028 51.3682 277.187C51.3682 279.345 53.1178 281.095 55.2761 281.095ZM55.276 279.655C56.6391 279.655 57.7441 278.55 57.7441 277.187C57.7441 275.824 56.6391 274.719 55.276 274.719C53.9128 274.719 52.8078 275.824 52.8078 277.187C52.8078 278.55 53.9128 279.655 55.276 279.655Z" fill="#172E52"/>
<rect x="43.9634" y="275.747" width="8.8443" height="2.87954" rx="1.43977" fill="#172E52"/>
<path fill-rule="evenodd" clip-rule="evenodd" d="M34.2964 281.095C32.1381 281.095 30.3885 279.345 30.3885 277.187C30.3885 275.028 32.1381 273.279 34.2964 273.279C36.4547 273.279 38.2043 275.028 38.2043 277.187C38.2043 279.345 36.4547 281.095 34.2964 281.095ZM34.2965 279.655C32.9334 279.655 31.8284 278.55 31.8284 277.187C31.8284 275.824 32.9334 274.719 34.2965 274.719C35.6597 274.719 36.7647 275.824 36.7647 277.187C36.7647 278.55 35.6597 279.655 34.2965 279.655Z" fill="#172E52"/>
<rect width="8.8443" height="2.87954" rx="1.43977" transform="matrix(-1 4.37106e-08 4.37122e-08 1 45.6091 275.747)" fill="#172E52"/>
<path fill-rule="evenodd" clip-rule="evenodd" d="M55.2761 270.905C57.4344 270.905 59.1841 269.155 59.1841 266.997C59.1841 264.839 57.4344 263.089 55.2761 263.089C53.1178 263.089 51.3682 264.839 51.3682 266.997C51.3682 269.155 53.1178 270.905 55.2761 270.905ZM55.276 269.465C56.6391 269.465 57.7442 268.36 57.7442 266.997C57.7442 265.634 56.6391 264.529 55.276 264.529C53.9129 264.529 52.8078 265.634 52.8078 266.997C52.8078 268.36 53.9129 269.465 55.276 269.465Z" fill="#172E52"/>
<rect x="43.9634" y="265.557" width="8.8443" height="2.87954" rx="1.43977" fill="#172E52"/>
<path fill-rule="evenodd" clip-rule="evenodd" d="M34.2969 270.905C32.1386 270.905 30.3889 269.155 30.3889 266.997C30.3889 264.839 32.1386 263.089 34.2969 263.089C36.4552 263.089 38.2048 264.839 38.2048 266.997C38.2048 269.155 36.4552 270.905 34.2969 270.905ZM34.2971 269.465C32.9339 269.465 31.8289 268.36 31.8289 266.997C31.8289 265.634 32.9339 264.529 34.2971 264.529C35.6602 264.529 36.7652 265.634 36.7652 266.997C36.7652 268.36 35.6602 269.465 34.2971 269.465Z" fill="#172E52"/>
<rect width="8.8443" height="2.87954" rx="1.43977" transform="matrix(-1 4.37106e-08 4.37122e-08 1 45.6096 265.557)" fill="#172E52"/>
<path fill-rule="evenodd" clip-rule="evenodd" d="M294.721 110.757C296.879 110.757 298.629 109.007 298.629 106.849C298.629 104.691 296.879 102.941 294.721 102.941C292.563 102.941 290.813 104.691 290.813 106.849C290.813 109.007 292.563 110.757 294.721 110.757ZM294.72 109.317C296.084 109.317 297.189 108.212 297.189 106.849C297.189 105.486 296.084 104.381 294.72 104.381C293.357 104.381 292.252 105.486 292.252 106.849C292.252 108.212 293.357 109.317 294.72 109.317Z" fill="#172E52"/>
<rect x="283.408" y="105.409" width="8.8443" height="2.87954" rx="1.43977" fill="#172E52"/>
<path fill-rule="evenodd" clip-rule="evenodd" d="M273.741 110.757C271.583 110.757 269.833 109.007 269.833 106.849C269.833 104.691 271.583 102.941 273.741 102.941C275.9 102.941 277.649 104.691 277.649 106.849C277.649 109.007 275.9 110.757 273.741 110.757ZM273.742 109.317C272.378 109.317 271.273 108.212 271.273 106.849C271.273 105.486 272.378 104.381 273.742 104.381C275.105 104.381 276.21 105.486 276.21 106.849C276.21 108.212 275.105 109.317 273.742 109.317Z" fill="#172E52"/>
<rect width="8.8443" height="2.87954" rx="1.43977" transform="matrix(-1 4.37106e-08 4.37122e-08 1 285.054 105.409)" fill="#172E52"/>
<path fill-rule="evenodd" clip-rule="evenodd" d="M294.721 100.568C296.879 100.568 298.629 98.8187 298.629 96.6604C298.629 94.5021 296.879 92.7524 294.721 92.7524C292.562 92.7524 290.813 94.5021 290.813 96.6604C290.813 98.8187 292.562 100.568 294.721 100.568ZM294.721 99.1285C296.084 99.1285 297.189 98.0235 297.189 96.6603C297.189 95.2972 296.084 94.1921 294.721 94.1921C293.358 94.1921 292.253 95.2972 292.253 96.6603C292.253 98.0235 293.358 99.1285 294.721 99.1285Z" fill="#172E52"/>
<rect x="283.408" y="95.2207" width="8.8443" height="2.87954" rx="1.43977" fill="#172E52"/>
<path fill-rule="evenodd" clip-rule="evenodd" d="M273.741 100.568C271.583 100.568 269.833 98.8187 269.833 96.6604C269.833 94.5021 271.583 92.7524 273.741 92.7524C275.9 92.7524 277.649 94.5021 277.649 96.6604C277.649 98.8187 275.9 100.568 273.741 100.568ZM273.742 99.1285C272.378 99.1285 271.273 98.0235 271.273 96.6603C271.273 95.2972 272.378 94.1921 273.742 94.1921C275.105 94.1921 276.21 95.2972 276.21 96.6603C276.21 98.0235 275.105 99.1285 273.742 99.1285Z" fill="#172E52"/>
<rect width="8.8443" height="2.87954" rx="1.43977" transform="matrix(-1 4.37106e-08 4.37122e-08 1 285.054 95.2207)" fill="#172E52"/>
<path fill-rule="evenodd" clip-rule="evenodd" d="M39.9922 105.441C42.1505 105.441 43.9001 103.692 43.9001 101.533C43.9001 99.3751 42.1505 97.6255 39.9922 97.6255C37.8339 97.6255 36.0842 99.3751 36.0842 101.533C36.0842 103.692 37.8339 105.441 39.9922 105.441ZM39.9919 104.001C41.3551 104.001 42.4601 102.896 42.4601 101.533C42.4601 100.17 41.3551 99.0651 39.9919 99.0651C38.6288 99.0651 37.5238 100.17 37.5238 101.533C37.5238 102.896 38.6288 104.001 39.9919 104.001Z" fill="#172E52"/>
<rect x="28.6794" y="100.094" width="8.8443" height="2.87954" rx="1.43977" fill="#172E52"/>
<path fill-rule="evenodd" clip-rule="evenodd" d="M19.0132 105.441C16.8549 105.441 15.1053 103.692 15.1053 101.533C15.1052 99.3751 16.8549 97.6255 19.0132 97.6255C21.1715 97.6255 22.9211 99.3751 22.9211 101.533C22.9211 103.692 21.1715 105.441 19.0132 105.441ZM19.0133 104.001C17.6501 104.001 16.5451 102.896 16.5451 101.533C16.5451 100.17 17.6501 99.0651 19.0133 99.0651C20.3764 99.0651 21.4814 100.17 21.4814 101.533C21.4814 102.896 20.3764 104.001 19.0133 104.001Z" fill="#172E52"/>
<rect width="8.8443" height="2.87954" rx="1.43977" transform="matrix(-1 4.37106e-08 4.37122e-08 1 30.3259 100.094)" fill="#172E52"/>
<path fill-rule="evenodd" clip-rule="evenodd" d="M39.9922 95.2524C42.1505 95.2524 43.9001 93.5028 43.9001 91.3445C43.9001 89.1862 42.1505 87.4365 39.9922 87.4365C37.8339 87.4365 36.0842 89.1862 36.0842 91.3445C36.0842 93.5028 37.8339 95.2524 39.9922 95.2524ZM39.9919 93.8125C41.3551 93.8125 42.4601 92.7074 42.4601 91.3443C42.4601 89.9812 41.3551 88.8761 39.9919 88.8761C38.6288 88.8761 37.5238 89.9812 37.5238 91.3443C37.5238 92.7074 38.6288 93.8125 39.9919 93.8125Z" fill="#172E52"/>
<rect x="28.6794" y="89.9043" width="8.8443" height="2.87954" rx="1.43977" fill="#172E52"/>
<path fill-rule="evenodd" clip-rule="evenodd" d="M19.0132 95.2524C16.8549 95.2524 15.1053 93.5028 15.1053 91.3445C15.1052 89.1862 16.8549 87.4365 19.0132 87.4365C21.1715 87.4365 22.9211 89.1862 22.9211 91.3445C22.9211 93.5028 21.1715 95.2524 19.0132 95.2524ZM19.0133 93.8125C17.6501 93.8125 16.5451 92.7074 16.5451 91.3443C16.5451 89.9812 17.6501 88.8761 19.0133 88.8761C20.3764 88.8761 21.4814 89.9812 21.4814 91.3443C21.4814 92.7074 20.3764 93.8125 19.0133 93.8125Z" fill="#172E52"/>
<rect width="8.8443" height="2.87954" rx="1.43977" transform="matrix(-1 4.37106e-08 4.37122e-08 1 30.3259 89.9043)" fill="#172E52"/>
<rect x="66.7163" y="203.79" width="34.776" height="3.10104" rx="1.55052" transform="rotate(90 66.7163 203.79)" fill="#172E52"/>
<rect width="19.5407" height="3.10104" rx="1.55052" transform="matrix(0.707105 0.707109 -0.707105 0.707108 65.365 235.243)" fill="#172E52"/>
<path fill-rule="evenodd" clip-rule="evenodd" d="M76.0197 251.634C76.0197 253.959 77.9039 255.843 80.2282 255.843C82.5525 255.843 84.4368 253.959 84.4368 251.634C84.4368 249.31 82.5525 247.426 80.2282 247.426C77.9039 247.426 76.0197 249.31 76.0197 251.634ZM77.5704 251.635C77.5704 253.103 78.7605 254.293 80.2285 254.293C81.6965 254.293 82.8865 253.103 82.8865 251.635C82.8865 250.167 81.6965 248.977 80.2285 248.977C78.7605 248.977 77.5704 250.167 77.5704 251.635Z" fill="#172E52"/>
<rect x="63.6152" y="205.782" width="71.9885" height="3.10104" rx="1.55052" transform="rotate(-90 63.6152 205.782)" fill="#172E52"/>
<rect width="19.5407" height="3.10104" rx="1.55052" transform="matrix(-0.707104 -0.707109 0.707104 -0.707109 64.9663 137.116)" fill="#172E52"/>
<path fill-rule="evenodd" clip-rule="evenodd" d="M54.3119 120.725C54.3119 118.401 52.4277 116.516 50.1033 116.516C47.779 116.516 45.8948 118.401 45.8948 120.725C45.8948 123.049 47.779 124.934 50.1033 124.934C52.4277 124.934 54.3119 123.049 54.3119 120.725ZM52.7616 120.725C52.7616 119.257 51.5715 118.067 50.1036 118.067C48.6356 118.067 47.4455 119.257 47.4455 120.725C47.4455 122.193 48.6356 123.383 50.1036 123.383C51.5715 123.383 52.7616 122.193 52.7616 120.725Z" fill="#172E52"/>
<path fill-rule="evenodd" clip-rule="evenodd" d="M286.225 240.116C286.225 242.44 284.341 244.324 282.017 244.324C279.692 244.324 277.808 242.44 277.808 240.116C277.808 237.791 279.692 235.907 282.017 235.907C284.341 235.907 286.225 237.791 286.225 240.116ZM284.675 240.116C284.675 241.584 283.485 242.774 282.017 242.774C280.549 242.774 279.359 241.584 279.359 240.116C279.359 238.648 280.549 237.458 282.017 237.458C283.485 237.458 284.675 238.648 284.675 240.116Z" fill="#172E52"/>
<rect width="74.425" height="3.10104" rx="1.55052" transform="matrix(0 1 1 0 280.466 163.033)" fill="#172E52"/>
<path fill-rule="evenodd" clip-rule="evenodd" d="M286.226 124.047C286.226 121.723 284.341 119.839 282.017 119.839C279.693 119.839 277.809 121.723 277.809 124.047C277.809 126.372 279.693 128.256 282.017 128.256C284.341 128.256 286.226 126.372 286.226 124.047ZM284.675 124.047C284.675 122.579 283.485 121.389 282.017 121.389C280.549 121.389 279.359 122.579 279.359 124.047C279.359 125.515 280.549 126.705 282.017 126.705C283.485 126.705 284.675 125.515 284.675 124.047Z" fill="#172E52"/>
<rect x="280.466" y="201.13" width="74.425" height="3.10104" rx="1.55052" transform="rotate(-90 280.466 201.13)" fill="#172E52"/>
<path fill-rule="evenodd" clip-rule="evenodd" d="M265.846 228.154C265.846 230.479 263.962 232.363 261.638 232.363C259.313 232.363 257.429 230.479 257.429 228.154C257.429 225.83 259.313 223.946 261.638 223.946C263.962 223.946 265.846 225.83 265.846 228.154ZM264.295 228.154C264.295 229.622 263.105 230.812 261.637 230.812C260.169 230.812 258.979 229.622 258.979 228.154C258.979 226.686 260.169 225.496 261.637 225.496C263.105 225.496 264.295 226.686 264.295 228.154Z" fill="#172E52"/>
<rect width="62.4638" height="3.10104" rx="1.55052" transform="matrix(0 1 1 0 260.087 163.033)" fill="#172E52"/>
<path fill-rule="evenodd" clip-rule="evenodd" d="M265.846 136.009C265.846 133.684 263.962 131.8 261.638 131.8C259.313 131.8 257.429 133.684 257.429 136.009C257.429 138.333 259.313 140.217 261.638 140.217C263.962 140.217 265.846 138.333 265.846 136.009ZM264.295 136.009C264.295 134.541 263.105 133.351 261.637 133.351C260.169 133.351 258.979 134.541 258.979 136.009C258.979 137.477 260.169 138.667 261.637 138.667C263.105 138.667 264.295 137.477 264.295 136.009Z" fill="#172E52"/>
<rect x="260.087" y="201.13" width="62.4638" height="3.10104" rx="1.55052" transform="rotate(-90 260.087 201.13)" fill="#172E52"/>
<path fill-rule="evenodd" clip-rule="evenodd" d="M276.036 211.764C276.036 214.088 274.152 215.972 271.827 215.972C269.503 215.972 267.619 214.088 267.619 211.764C267.619 209.439 269.503 207.555 271.827 207.555C274.152 207.555 276.036 209.439 276.036 211.764ZM274.486 211.764C274.486 213.232 273.296 214.422 271.828 214.422C270.36 214.422 269.169 213.232 269.169 211.764C269.169 210.296 270.36 209.106 271.828 209.106C273.296 209.106 274.486 210.296 274.486 211.764Z" fill="#172E52"/>
<rect width="46.0726" height="3.10104" rx="1.55052" transform="matrix(0 1 1 0 270.277 163.033)" fill="#172E52"/>
<path fill-rule="evenodd" clip-rule="evenodd" d="M276.036 152.401C276.036 150.076 274.152 148.192 271.827 148.192C269.503 148.192 267.619 150.076 267.619 152.401C267.619 154.725 269.503 156.609 271.827 156.609C274.152 156.609 276.036 154.725 276.036 152.401ZM274.486 152.401C274.486 150.933 273.296 149.743 271.828 149.743C270.36 149.743 269.169 150.933 269.169 152.401C269.169 153.869 270.36 155.059 271.828 155.059C273.296 155.059 274.486 153.869 274.486 152.401Z" fill="#172E52"/>
<rect x="270.277" y="201.131" width="46.0726" height="3.10104" rx="1.55052" transform="rotate(-90 270.277 201.131)" fill="#172E52"/>
<path fill-rule="evenodd" clip-rule="evenodd" d="M170.599 50.9507C170.599 53.2751 168.715 55.1593 166.391 55.1593C164.067 55.1593 162.182 53.2751 162.182 50.9507C162.182 48.6264 164.067 46.7422 166.391 46.7422C168.715 46.7422 170.599 48.6264 170.599 50.9507ZM169.049 50.951C169.049 52.419 167.859 53.6091 166.391 53.6091C164.923 53.6091 163.733 52.419 163.733 50.951C163.733 49.483 164.923 48.293 166.391 48.293C167.859 48.293 169.049 49.483 169.049 50.951Z" fill="#172E52"/>
<rect width="130.465" height="3.10104" rx="1.55052" transform="matrix(0 1 1 0 164.84 -82.1724)" fill="#172E52"/>
<path fill-rule="evenodd" clip-rule="evenodd" d="M180.788 34.5616C180.788 36.8859 178.904 38.7701 176.58 38.7701C174.255 38.7701 172.371 36.8859 172.371 34.5616C172.371 32.2373 174.255 30.353 176.58 30.353C178.904 30.353 180.788 32.2373 180.788 34.5616ZM179.238 34.5606C179.238 36.0286 178.048 37.2186 176.58 37.2186C175.112 37.2186 173.922 36.0286 173.922 34.5606C173.922 33.0926 175.112 31.9026 176.58 31.9026C178.048 31.9026 179.238 33.0926 179.238 34.5606Z" fill="#172E52"/>
<rect width="130.465" height="3.10104" rx="1.55052" transform="matrix(0 1 1 0 175.029 -98.5635)" fill="#172E52"/>
<path fill-rule="evenodd" clip-rule="evenodd" d="M160.41 62.4708C160.41 64.7951 158.526 66.6793 156.202 66.6793C153.877 66.6793 151.993 64.7951 151.993 62.4708C151.993 60.1464 153.877 58.2622 156.202 58.2622C158.526 58.2622 160.41 60.1464 160.41 62.4708ZM158.859 62.4707C158.859 63.9387 157.669 65.1287 156.201 65.1287C154.733 65.1287 153.543 63.9387 153.543 62.4707C153.543 61.0027 154.733 59.8127 156.201 59.8127C157.669 59.8127 158.859 61.0027 158.859 62.4707Z" fill="#172E52"/>
<rect width="130.465" height="3.10104" rx="1.55052" transform="matrix(0 1 1 0 154.652 -70.6523)" fill="#172E52"/>
<rect x="129.622" y="328.716" width="38.0985" height="3.10104" rx="1.55052" transform="rotate(90 129.622 328.716)" fill="#172E52"/>
<rect width="52.0532" height="3.10104" rx="1.55052" transform="matrix(-8.74228e-08 -1 -1 8.74228e-08 129.622 366.815)" fill="#172E52"/>
<rect width="23.1784" height="3.10104" rx="1.55052" transform="matrix(0.707109 -0.707105 -0.707109 -0.707105 128.27 318.306)" fill="#172E52"/>
<path fill-rule="evenodd" clip-rule="evenodd" d="M141.309 299.022C141.309 296.698 143.193 294.814 145.518 294.814C147.842 294.814 149.726 296.698 149.726 299.022C149.726 301.347 147.842 303.231 145.518 303.231C143.193 303.231 141.309 301.347 141.309 299.022ZM142.86 299.022C142.86 297.554 144.05 296.364 145.518 296.364C146.986 296.364 148.176 297.554 148.176 299.022C148.176 300.49 146.986 301.68 145.518 301.68C144.05 301.68 142.86 300.49 142.86 299.022Z" fill="#172E52"/>
<rect x="128.27" y="363.259" width="23.1784" height="3.10104" rx="1.55052" transform="rotate(45 128.27 363.259)" fill="#172E52"/>
<path fill-rule="evenodd" clip-rule="evenodd" d="M141.309 382.542C141.309 384.866 143.193 386.75 145.518 386.75C147.842 386.75 149.726 384.866 149.726 382.542C149.726 380.217 147.842 378.333 145.518 378.333C143.193 378.333 141.309 380.217 141.309 382.542ZM142.86 382.542C142.86 384.01 144.05 385.2 145.518 385.2C146.986 385.2 148.176 384.01 148.176 382.542C148.176 381.074 146.986 379.884 145.518 379.884C144.05 379.884 142.86 381.074 142.86 382.542Z" fill="#172E52"/>
<rect width="81.0701" height="3.10104" rx="1.55052" transform="matrix(8.74218e-08 1 1 -8.74238e-08 236.765 -8.18994)" fill="#172E52"/>
<rect width="35.0642" height="3.10104" rx="1.55052" transform="matrix(-0.707107 0.707106 0.707108 0.707106 238.051 69.5576)" fill="#172E52"/>
<path fill-rule="evenodd" clip-rule="evenodd" d="M216.608 97.2457C216.608 99.57 214.724 101.454 212.399 101.454C210.075 101.454 208.191 99.57 208.191 97.2457C208.191 94.9213 210.075 93.0371 212.399 93.0371C214.724 93.0371 216.608 94.9213 216.608 97.2457ZM215.057 97.2458C215.057 98.7138 213.867 99.9038 212.399 99.9038C210.931 99.9038 209.741 98.7138 209.741 97.2458C209.741 95.7778 210.931 94.5878 212.399 94.5878C213.867 94.5878 215.057 95.7778 215.057 97.2458Z" fill="#172E52"/>
<rect width="81.0701" height="3.10104" rx="1.55052" transform="matrix(8.74218e-08 1 1 -8.74238e-08 227.526 -13.0635)" fill="#172E52"/>
<rect width="35.0642" height="3.10104" rx="1.55052" transform="matrix(-0.707107 0.707107 0.707107 0.707107 228.813 64.6846)" fill="#172E52"/>
<path fill-rule="evenodd" clip-rule="evenodd" d="M207.37 92.3721C207.37 94.6965 205.486 96.5807 203.161 96.5807C200.837 96.5807 198.953 94.6965 198.953 92.3721C198.953 90.0478 200.837 88.1636 203.161 88.1636C205.486 88.1636 207.37 90.0478 207.37 92.3721ZM205.819 92.3723C205.819 93.8403 204.629 95.0304 203.161 95.0304C201.693 95.0304 200.503 93.8403 200.503 92.3723C200.503 90.9044 201.693 89.7143 203.161 89.7143C204.629 89.7143 205.819 90.9044 205.819 92.3723Z" fill="#172E52"/>
<path fill-rule="evenodd" clip-rule="evenodd" d="M243.031 97.2452C243.031 99.5695 244.915 101.454 247.24 101.454C249.564 101.454 251.448 99.5695 251.448 97.2452C251.448 94.9209 249.564 93.0366 247.24 93.0366C244.915 93.0366 243.031 94.9209 243.031 97.2452ZM244.582 97.2453C244.582 98.7133 245.772 99.9034 247.24 99.9034C248.708 99.9034 249.898 98.7133 249.898 97.2453C249.898 95.7773 248.708 94.5873 247.24 94.5873C245.772 94.5873 244.582 95.7773 244.582 97.2453Z" fill="#172E52"/>
<rect x="248.79" y="-35.8779" width="130.465" height="3.10104" rx="1.55052" transform="rotate(90 248.79 -35.8779)" fill="#172E52"/>
<path fill-rule="evenodd" clip-rule="evenodd" d="M215.122 60.6968C215.122 63.0212 217.006 64.9054 219.331 64.9054C221.655 64.9054 223.539 63.0212 223.539 60.6968C223.539 58.3725 221.655 56.4883 219.331 56.4883C217.006 56.4883 215.122 58.3725 215.122 60.6968ZM216.673 60.6968C216.673 62.1648 217.863 63.3549 219.331 63.3549C220.799 63.3549 221.989 62.1648 221.989 60.6968C221.989 59.2288 220.799 58.0388 219.331 58.0388C217.863 58.0388 216.673 59.2288 216.673 60.6968Z" fill="#172E52"/>
<rect x="220.881" y="-72.4263" width="130.465" height="3.10104" rx="1.55052" transform="rotate(90 220.881 -72.4263)" fill="#172E52"/>
<path fill-rule="evenodd" clip-rule="evenodd" d="M204.933 60.6968C204.933 63.0212 206.818 64.9054 209.142 64.9054C211.466 64.9054 213.351 63.0212 213.351 60.6968C213.351 58.3725 211.466 56.4883 209.142 56.4883C206.818 56.4883 204.933 58.3725 204.933 60.6968ZM206.484 60.6968C206.484 62.1648 207.674 63.3549 209.142 63.3549C210.61 63.3549 211.8 62.1648 211.8 60.6968C211.8 59.2288 210.61 58.0388 209.142 58.0388C207.674 58.0388 206.484 59.2288 206.484 60.6968Z" fill="#172E52"/>
<rect x="210.692" y="-72.4263" width="130.465" height="3.10104" rx="1.55052" transform="rotate(90 210.692 -72.4263)" fill="#172E52"/>
<path fill-rule="evenodd" clip-rule="evenodd" d="M215.122 60.6968C215.122 63.0212 217.006 64.9054 219.331 64.9054C221.655 64.9054 223.539 63.0212 223.539 60.6968C223.539 58.3725 221.655 56.4883 219.331 56.4883C217.006 56.4883 215.122 58.3725 215.122 60.6968ZM216.673 60.6968C216.673 62.1648 217.863 63.3549 219.331 63.3549C220.799 63.3549 221.989 62.1648 221.989 60.6968C221.989 59.2288 220.799 58.0388 219.331 58.0388C217.863 58.0388 216.673 59.2288 216.673 60.6968Z" fill="#172E52"/>
<rect x="220.881" y="-72.4263" width="130.465" height="3.10104" rx="1.55052" transform="rotate(90 220.881 -72.4263)" fill="#172E52"/>
<path fill-rule="evenodd" clip-rule="evenodd" d="M204.933 60.6968C204.933 63.0212 206.818 64.9054 209.142 64.9054C211.466 64.9054 213.351 63.0212 213.351 60.6968C213.351 58.3725 211.466 56.4883 209.142 56.4883C206.818 56.4883 204.933 58.3725 204.933 60.6968ZM206.484 60.6968C206.484 62.1648 207.674 63.3549 209.142 63.3549C210.61 63.3549 211.8 62.1648 211.8 60.6968C211.8 59.2288 210.61 58.0388 209.142 58.0388C207.674 58.0388 206.484 59.2288 206.484 60.6968Z" fill="#172E52"/>
<rect x="210.692" y="-72.4263" width="130.465" height="3.10104" rx="1.55052" transform="rotate(90 210.692 -72.4263)" fill="#172E52"/>
<g filter="url(#filter0_d)">
<g filter="url(#filter1_d)">
<path d="M141.218 92.7623C138.704 92.5621 136.162 92.76 133.716 93.3745C99.6192 101.94 91.5684 123.085 94.0831 136.88C94.6324 139.893 96.7779 142.272 99.3755 143.895L103.533 146.492C105.14 147.496 106.844 148.353 108.631 148.984C128.14 155.87 140.946 154.322 163.079 145.26C164.448 144.699 165.768 144.02 167.03 143.248L176.512 137.44C180.26 135.145 182.9 131.279 182.991 126.884C183.302 111.804 176.897 95.6026 141.218 92.7623Z" fill="url(#paint1_radial)"/>
<path d="M161.775 128.395L128.782 129.44C161.783 178.67 170.899 217.71 173.589 274.815C183.468 248.475 181.719 224.166 209.16 247.351C213.095 209.448 173.042 185.102 161.775 128.395Z" fill="#9DF8B6" fill-opacity="0.8"/>
<path d="M110.096 139.001L124.666 130.67C132.227 216.44 146.739 274.632 173.279 353.621C155.485 323.592 144.488 289.619 142.108 336.867C121.636 287.734 132.159 222.39 110.096 139.001Z" fill="#C9DECF" fill-opacity="0.9"/>
<path d="M146.969 132.565C139.28 136.276 121.544 136.451 113.593 136.497C118.543 174.344 157.324 221.342 169.314 268.476C170.219 272.032 174.187 273.949 177.447 272.264C178.599 271.668 179.525 270.675 179.96 269.453C188.121 246.527 161.996 246.677 148.92 204.254C147.33 199.093 154.105 195.365 157.357 199.676C162.747 206.822 165.561 212.779 170.782 227.335C172.269 231.481 177.535 232.76 180.714 229.711C182.606 227.896 183.124 225.039 181.866 222.738C170.183 201.368 160.204 205.255 157.387 184.881C157.119 182.947 158.594 181.221 160.543 181.096C161.425 181.039 162.313 181.315 162.955 181.924C169.002 187.653 165.325 192.109 168.241 198.055C168.886 199.371 170.373 199.976 171.829 199.801C173.488 199.602 174.92 198.393 174.87 196.722C174.371 180.206 137.561 155.458 146.969 132.565Z" fill="url(#paint2_linear)"/>
<path d="M160.476 136.844C167.935 166.508 217.383 188.121 218.591 217.973C219.43 238.712 272.451 261.324 271.434 274.85" stroke="url(#paint3_linear)" stroke-width="1.45245"/>
<path d="M122.608 142.582C112.193 186.823 159.404 231.553 157.428 268.867C156.055 294.79 177.31 275.518 180.301 329.768" stroke="url(#paint4_linear)" stroke-width="1.45245"/>
<path d="M117.214 140.191C102.164 158.84 132.147 182.407 111.141 199.746C96.548 211.791 129.114 236.739 118.141 244.241" stroke="url(#paint5_linear)" stroke-width="1.45245"/>
<path d="M106.269 139.344C105.962 142.915 117.356 150.434 134.879 150.132C152.402 149.83 174.642 137.865 174.949 134.295C175.255 130.724 163.44 124.57 145.916 124.872C128.393 125.173 106.575 135.774 106.269 139.344Z" fill="url(#paint6_radial)" fill-opacity="0.8"/>
<path d="M165.894 126.792C154.987 134.303 152.709 132.268 139.635 132.747C159.772 167.191 168.804 180.204 173.98 205.127C174.463 207.455 177.006 208.749 179.14 207.701C179.852 207.351 180.443 206.773 180.744 206.039C186.299 192.503 168.129 187.891 160.745 163.934C160.355 162.669 162.271 161.723 163.104 162.752C169.59 170.764 174.734 174.092 179.567 184.842C180.867 187.733 184.477 188.897 187.06 187.06C188.988 185.689 189.653 183.077 188.298 181.137C180.308 169.699 168.133 169.986 167.186 156.831C167.174 156.659 167.181 156.48 167.206 156.309C167.427 154.813 168.926 153.824 170.348 154.339C174.894 155.986 174.171 157.494 178.046 164.67C178.792 166.052 180.425 166.687 181.926 166.224C191.709 162.474 169.741 148.427 165.894 126.792Z" fill="url(#paint7_linear)"/>
<path d="M168.42 132.483C167.537 131.192 165.566 130.883 164.293 131.848C163.29 132.609 163.074 133.919 163.788 134.928C179.689 157.41 192.046 168.574 213.951 186.47C214.967 187.3 216.514 187.339 217.545 186.557C218.793 185.611 218.772 183.884 217.508 182.912C192.943 164.022 181.934 152.237 168.42 132.483Z" fill="url(#paint8_linear)"/>
<path d="M174.394 130.276C175.117 131.014 176.453 130.962 177.104 130.044C177.558 129.403 177.506 128.561 176.949 128.103C166.699 119.689 145.483 117.921 127.866 123.418C127.143 123.644 126.72 124.426 126.933 125.118C127.127 125.749 127.784 126.08 128.448 125.894C145.01 121.266 166.949 122.687 174.394 130.276Z" fill="#76DFCF" fill-opacity="0.5"/>
<path d="M119.47 136.214C119.563 134.501 117.967 133.196 116.321 133.658C115.248 133.959 114.497 134.954 114.485 136.071C113.995 182.945 120.163 206.587 143.683 244.605C144.284 245.577 145.461 246.041 146.564 245.732C148.225 245.266 148.988 243.322 148.112 241.841C123.47 200.154 117.292 176.277 119.47 136.214Z" fill="url(#paint9_linear)"/>
<ellipse rx="2.68482" ry="2.27051" transform="matrix(-0.955639 0.294542 0.294542 0.955639 220.481 188.135)" fill="#37C3A4"/>
<rect width="5.329" height="12.849" rx="2.6645" transform="matrix(-0.879034 0.476759 0.541701 0.840571 150.09 244.994)" fill="#34C2A3"/>
<path d="M138.917 136.015C199.512 195.016 154.595 237.32 219.568 276.325" stroke="#89E4C4" stroke-width="1.45245"/>
</g>
<circle cx="187.046" cy="169.683" r="2.70575" transform="rotate(-25.9523 187.046 169.683)" fill="#14BCAA"/>
<circle cx="109.966" cy="165.471" r="2.70575" transform="rotate(-25.9523 109.966 165.471)" fill="white"/>
<circle cx="127.697" cy="227.457" r="2.70575" transform="rotate(-25.9523 127.697 227.457)" fill="#14BCAA"/>
<circle cx="190.282" cy="274.434" r="2.70575" transform="rotate(-25.9523 190.282 274.434)" fill="#349D92"/>
<circle cx="185.809" cy="141.999" r="1.44307" transform="rotate(-25.9523 185.809 141.999)" fill="white"/>
<circle cx="230.294" cy="221.859" r="1.44307" transform="rotate(-25.9523 230.294 221.859)" fill="#01B29F"/>
<circle cx="135.819" cy="169.539" r="1.44307" transform="rotate(-25.9523 135.819 169.539)" fill="white"/>
</g>
<path d="M34.65 83H60.3V75.1H42.75V69.25H58.8V61.35H42.75V55.9H60.05V48H34.65V83ZM73.0691 59.2C71.1691 60.65 70.4691 63.9 69.6191 66.15L68.3191 65.65C69.1691 63.4 70.4191 60.6 70.4191 58.2V58H62.5191V83H70.4191V71.55C70.4191 67.25 73.2191 65.3 76.6191 65.3C79.7191 65.3 81.1691 67.2 81.1691 71.55V83H89.0691V65.85C89.0691 60.15 85.2191 57.25 80.1691 57.25C77.2191 57.25 74.9191 57.8 73.0691 59.2ZM118.225 74.15C118.225 64.15 100.275 67.05 100.275 64.65C100.275 63.55 102.375 63.35 104.275 63.35C108.225 63.35 109.875 64.65 109.875 65.85H117.775C117.825 63.05 115.975 57.25 104.875 57.25C95.825 57.25 92.425 60.9 92.425 64.8C92.425 73.05 110.225 71.35 110.225 74.6C110.225 74.9 109.925 76.45 106.325 76.45C101.375 76.45 100.275 74.3 100.275 73.5H92.375C92.375 77.35 94.625 83.8 105.225 83.8C114.325 83.8 118.225 78.65 118.225 74.15ZM130.624 81.05C130.624 79.55 129.624 77.85 129.124 76.4L130.424 75.95C130.924 77.35 131.124 79.45 132.174 80.5C134.024 82.35 136.524 83.75 139.874 83.75C146.874 83.75 152.124 77.45 152.374 70.45C152.674 63.05 147.274 57.2 139.824 57.2C136.474 57.2 133.924 58.35 132.124 60.25C131.074 61.35 130.974 63.45 130.474 64.85L129.174 64.45C129.674 63 130.624 61.3 130.624 59.8V58L122.724 58.05V95.55L130.624 95.5V81.05ZM138.424 64.5C142.124 64.5 144.474 66.95 144.474 70.3C144.474 73.65 142.124 76.45 138.424 76.45C134.724 76.45 132.474 73.65 132.474 70.3C132.474 66.95 134.724 64.5 138.424 64.5ZM155.491 55.75H163.841V48H155.491V55.75ZM155.791 83H163.591V58H155.791V83ZM179.231 59.35C177.181 60.65 176.081 63.75 175.031 65.95L173.781 65.35C174.831 63.2 176.081 60.4 176.131 58V57.9C176.131 57.95 176.131 57.95 176.131 58H168.281V83H176.131V73.9C176.131 67 183.231 64.55 189.781 64.55V57.25C185.381 57.25 182.181 57.6 179.231 59.35ZM208.89 83.8C217.49 83.8 221.54 78.45 222.29 75.85H213.09C212.59 76.55 210.89 77.3 208.14 77.3C203.84 77.3 201.74 74.8 201.74 72.6L222.84 72.65C222.84 72.2 222.84 71 222.84 70.45C222.89 63.45 217.04 57.25 207.59 57.25C198.39 57.25 191.89 62.9 191.89 70.35C191.89 77.8 197.89 83.8 208.89 83.8ZM201.74 68C201.74 65.35 204.24 63.1 207.79 63.1C211.29 63.1 213.44 65.1 213.44 68H201.74Z" fill="white"/>
<path d="M38.39 42.18C42.962 42.18 44.78 40.38 44.78 34.8V27.6H39.542L39.578 34.8C39.578 36.798 39.092 37.716 38.012 37.716C36.932 37.716 36.464 36.798 36.518 34.8H32.18C32.18 40.344 33.962 42.18 38.39 42.18ZM52.0784 33V33.342C51.4304 33 50.6744 32.82 49.8284 32.82C47.1104 32.82 45.3284 34.692 45.3284 37.5C45.3284 40.308 47.1284 42.18 49.8284 42.18C50.6744 42.18 51.4304 42 52.0784 41.658V42H57.4784V33H52.0784ZM51.1784 38.85C50.6384 38.85 50.2784 38.31 50.2784 37.5C50.2784 36.69 50.6384 36.15 51.1784 36.15C51.7004 36.15 52.0604 36.69 52.0784 37.5C52.0784 38.31 51.7184 38.85 51.1784 38.85ZM66.4798 32.82C65.3638 32.82 64.3918 33.036 63.5998 33.432V33H58.1998V42H63.5998V37.05C63.5998 36.51 63.9598 36.15 64.4998 36.15C65.0398 36.15 65.3998 36.51 65.3998 37.05V42H70.7998V37.05C70.7998 34.512 69.0718 32.82 66.4798 32.82ZM82.1441 42.36C85.9241 42.36 88.4441 40.488 88.4441 37.68C88.4441 36.006 87.4001 34.89 85.8341 34.89V34.71C87.4001 34.71 88.4441 33.522 88.4441 31.74C88.4441 29.148 85.9241 27.42 82.1441 27.42C78.3641 27.42 75.8441 29.652 75.8441 33H80.2541C80.2541 31.812 81.0101 31.02 82.1441 31.02C83.2781 31.02 84.0341 31.488 84.0341 32.55C84.0341 33.36 83.2781 33.9 82.1441 33.9V35.7C83.2781 35.7 84.0341 36.24 84.0341 37.05C84.0341 37.968 83.2781 38.58 82.1441 38.58C81.0101 38.58 80.2541 37.788 80.2541 36.6H75.8441C75.8441 40.056 78.3641 42.36 82.1441 42.36ZM96.1925 42.36C100.513 42.36 103.393 39.336 103.393 34.8C103.393 30.372 100.513 27.42 96.1925 27.42C91.8725 27.42 88.9925 30.372 88.9925 34.8C88.9925 39.336 91.8725 42.36 96.1925 42.36ZM96.2285 38.85C95.3285 38.85 94.6985 37.23 94.6985 34.8C94.6985 32.37 95.3285 30.75 96.2285 30.75C97.2365 30.75 97.8485 32.37 97.7765 34.8C97.7765 37.23 97.1645 38.85 96.2285 38.85ZM104.208 45.33C105.72 45.33 106.728 44.538 106.728 43.35V40.65H103.758V43.35H105.108C105.108 43.782 104.748 44.07 104.208 44.07V45.33ZM125.62 32.64C125.62 29.4 122.812 27.24 118.6 27.24C114.388 27.24 111.58 29.04 111.58 32.28H116.62C116.62 31.416 117.304 30.84 118.33 30.84C119.464 30.84 120.22 31.416 120.22 32.28C120.22 34.98 111.58 33.072 111.58 39.84V42H125.62V38.4H119.014C119.842 37.05 125.62 37.392 125.62 32.64ZM133.353 42.36C137.673 42.36 140.553 39.336 140.553 34.8C140.553 30.372 137.673 27.42 133.353 27.42C129.033 27.42 126.153 30.372 126.153 34.8C126.153 39.336 129.033 42.36 133.353 42.36ZM133.389 38.85C132.489 38.85 131.859 37.23 131.859 34.8C131.859 32.37 132.489 30.75 133.389 30.75C134.397 30.75 135.009 32.37 134.937 34.8C134.937 37.23 134.325 38.85 133.389 38.85ZM154.958 32.64C154.958 29.4 152.15 27.24 147.938 27.24C143.726 27.24 140.918 29.04 140.918 32.28H145.958C145.958 31.416 146.642 30.84 147.668 30.84C148.802 30.84 149.558 31.416 149.558 32.28C149.558 34.98 140.918 33.072 140.918 39.84V42H154.958V38.4H148.352C149.18 37.05 154.958 37.392 154.958 32.64ZM156.931 42H161.431V27.6H155.491V31.2H156.931V42Z" fill="white"/>
<g filter="url(#filter2_d)">
<path d="M39.2555 252.967C40.6692 252.314 42.2358 252.051 43.7844 252.218C65.7767 254.581 75.0668 265.612 75.8072 275.235C75.9915 277.63 74.7959 279.849 73.1609 281.61L71.288 283.626C70.2165 284.78 69.0373 285.839 67.7355 286.725C56.195 294.576 47.6279 295.618 32.2271 292.974C30.9194 292.749 29.633 292.396 28.3853 291.945L22.8501 289.941C19.38 288.686 16.4763 285.925 16.1365 282.25C15.2126 272.259 20.7594 261.518 39.2555 252.967Z" fill="url(#paint10_radial)"/>
<path d="M32.4182 280.844L53.1821 276.032C39.1808 316.58 38.7379 345.865 44.7437 386.908C35.0226 369.848 32.8432 352.275 18.8111 373.375C11.2496 347.096 33.0085 323.048 32.4182 280.844Z" fill="#9DF8B6" fill-opacity="0.8"/>
<path d="M66.1497 279.682L55.9206 276.214C62.7401 338.452 61.503 382.258 55.5459 442.871C62.6265 418.531 64.9272 392.532 72.7753 425.715C78.9579 387.345 63.5837 342.67 66.1497 279.682Z" fill="#F1D7F5" fill-opacity="0.9"/>
<path d="M42.2344 281.315C47.5401 282.659 58.6501 279.798 63.6269 278.492C65.6402 306.409 47.4763 346.687 46.5421 382.382C46.4814 384.701 44.2665 386.397 42.037 385.758C41.2083 385.521 40.4844 384.977 40.068 384.222C31.8133 369.258 48.1997 364.994 50.6651 332.601C50.9357 329.045 45.9734 327.746 44.6581 331.06C42.3087 336.98 41.367 341.759 40.0603 353.089C39.7238 356.007 36.4118 357.541 33.9836 355.888C32.6774 354.999 32.0321 353.392 32.414 351.858C36.8637 333.992 43.8442 335.393 42.7454 319.97C42.6571 318.731 41.4897 317.863 40.271 318.099C39.7207 318.205 39.2259 318.525 38.9372 319.005C35.7913 324.242 38.8849 326.791 37.6966 331.696C37.484 332.573 36.6997 333.169 35.8044 333.285C34.7228 333.425 33.6481 332.839 33.4561 331.765C31.3508 319.995 51.2349 296.067 42.2344 281.315Z" fill="url(#paint11_linear)"/>
<path d="M34.3679 286.631C33.6984 308.972 5.69837 332.658 8.96186 354.081C11.229 368.963 -18.8697 393.961 -16.4134 403.404" stroke="url(#paint12_linear)" stroke-width="1.20574"/>
<path d="M58.8107 284.334C71.2764 314.027 47.7868 353.769 54.0453 379.959C58.3931 398.154 42.5122 388.034 47.9453 427.098" stroke="url(#paint13_linear)" stroke-width="1.20574"/>
<path d="M61.8604 281.727C73.7786 292.449 58.209 314.248 73.6736 323.036C84.417 329.141 67.4187 352.357 75.2874 355.842" stroke="url(#paint14_linear)" stroke-width="1.20574"/>
<path d="M68.5883 279.282C69.2605 281.769 63.1508 289.031 52.1566 291.767C41.1625 294.502 25.6495 289.741 24.9773 287.255C24.3051 284.769 30.8624 278.405 41.8566 275.67C52.8507 272.934 67.9161 276.796 68.5883 279.282Z" fill="url(#paint15_radial)" fill-opacity="0.8"/>
<path d="M29.6278 280.398C37.4567 283.901 38.6068 282.07 46.8438 280.21C38.8279 308.311 34.9355 319.028 35.1224 337.898C35.1373 339.398 33.7297 340.527 32.2782 340.148C31.763 340.013 31.3026 339.7 31.0246 339.245C25.7028 330.55 36.4548 324.217 37.8465 305.932C37.9121 305.07 36.5304 304.765 36.1824 305.557C33.1801 312.384 30.3934 315.618 28.8352 324.29C28.4631 326.36 26.2505 327.614 24.3446 326.722C23.0301 326.108 22.304 324.645 22.7718 323.271C26.1444 313.368 34.0832 311.629 32.859 301.929C32.8464 301.829 32.8231 301.727 32.7917 301.632C32.4608 300.631 31.2609 300.189 30.4206 300.826C27.9203 302.723 28.5787 303.74 27.0718 309.599C26.8235 310.564 25.9084 311.201 24.9145 311.125C18.2943 310.107 30.1356 296.423 29.6278 280.398Z" fill="url(#paint16_linear)"/>
<path d="M28.8854 284.67C29.2283 283.701 30.3681 283.243 31.2871 283.712C32.0268 284.089 32.364 284.95 32.0768 285.726C25.1348 304.485 18.9004 314.51 7.55339 331.006C7.07014 331.709 6.12653 331.952 5.36881 331.566C4.46626 331.105 4.20137 329.96 4.80077 329.139C17.7509 311.406 23.0517 301.152 28.8854 284.67Z" fill="url(#paint17_linear)"/>
<path d="M24.8471 284.191C24.4705 284.857 23.5118 285.062 22.9685 284.505C22.6413 284.17 22.5764 283.66 22.8341 283.278C28.0641 275.529 41.1222 270.662 52.9098 271.595C53.4209 271.636 53.7989 272.087 53.7603 272.594C53.722 273.098 53.2857 273.471 52.7762 273.45C41.8891 272.996 28.5556 277.631 24.8471 284.191Z" fill="#76DFCF" fill-opacity="0.5"/>
<path d="M59.8339 278.943C59.5798 277.891 60.3998 276.88 61.4799 276.931C62.2209 276.965 62.8468 277.512 62.9919 278.24C69.637 311.576 68.9631 329.426 59.3394 360.503C59.1147 361.229 58.4241 361.719 57.665 361.684C56.5776 361.633 55.8287 360.562 56.1325 359.517C66.0572 325.386 66.6971 307.34 59.8339 278.943Z" fill="url(#paint18_linear)"/>
<ellipse cx="3.76351" cy="333.19" rx="1.71521" ry="1.65965" transform="rotate(4.35222 3.76351 333.19)" fill="#37C3A4"/>
<rect width="3.42474" height="9.31087" rx="1.71237" transform="matrix(0.954865 0.297041 -0.311132 0.950367 55.4182 361.755)" fill="#34C2A3"/>
<path d="M47.7324 282.412C17.7971 334.551 51.5692 357.059 16.2062 395.722" stroke="#89E4C4" stroke-width="1.20574"/>
</g>
<circle cx="31.6255" cy="321.438" r="1.38347" transform="rotate(11.9893 31.6255 321.438)" fill="white"/>
<circle cx="42.8783" cy="373.234" r="1.01454" transform="rotate(11.9893 42.8783 373.234)" fill="#BDEADD"/>
<circle cx="15.3623" cy="374.934" r="1.38347" transform="rotate(11.9893 15.3623 374.934)" fill="#9EEBE3"/>
<circle cx="71.0095" cy="334.893" r="1.38347" transform="rotate(11.9893 71.0095 334.893)" fill="white"/>
<circle cx="51.9137" cy="316.035" r="0.737849" transform="rotate(11.9893 51.9137 316.035)" fill="white"/>
<circle cx="70.0617" cy="365.995" r="1.01454" transform="rotate(11.9893 70.0617 365.995)" fill="white"/>
<circle cx="225.5" cy="91.1587" r="1.5" fill="#91F3E9"/>
<ellipse cx="189" cy="46.1587" rx="3" ry="2.5" fill="white"/>
<circle cx="222.5" cy="43.1587" r="1.5" fill="white"/>
<circle cx="243" cy="78.6587" r="1" fill="white"/>
<circle cx="202.847" cy="29.4595" r="1.0824" transform="rotate(42.1573 202.847 29.4595)" fill="white"/>
<path d="M267.748 22.8555C272.031 18.209 278.236 15.6098 284.549 15.8936C294.557 16.3434 300.383 20.6521 302.57 25.4967C303.6 27.7789 302.866 30.3584 301.613 32.5263C300.806 33.9231 299.876 35.2535 298.761 36.4194C292.376 43.0948 286.703 45.2474 276.375 46.0681C274.728 46.199 273.071 46.1497 271.428 45.9782C266.763 45.4913 262.041 42.9594 261.5 38.3011C260.963 33.6781 262.593 28.4468 267.748 22.8555Z" fill="url(#paint19_radial)"/>
<path d="M273.45 37.8014L287.247 31.0103C284.164 61.1489 288.736 81.2881 299.803 108.399C290.123 98.3464 285.66 86.6723 279.313 103.491C269.614 86.7574 280.903 66.6191 273.45 37.8014Z" fill="#98F1B1" fill-opacity="0.8"/>
<path d="M296.973 31.33L289.202 30.6751C304.376 72.1707 310.811 102.393 316.73 144.927C317.65 127.058 314.932 108.857 325.983 130.272C323.932 102.942 305.672 74.9191 296.973 31.33Z" fill="#C3ABC7" fill-opacity="0.9"/>
<path d="M280.43 36.4729C284.385 36.5006 291.719 32.6705 295.001 30.9381C301.065 49.706 295.031 80.3117 300.295 104.912C300.647 106.555 299.381 108.13 297.703 108.067C297.084 108.044 296.485 107.791 296.062 107.339C287.774 98.4792 298.578 92.7974 294.91 70.1931C294.5 67.6629 290.816 67.5761 290.436 70.111C289.766 74.5719 289.897 77.997 290.865 85.9679C291.119 88.0595 289.08 89.6923 287.101 88.9696C286.015 88.5732 285.275 87.5416 285.29 86.386C285.458 73.4823 290.563 73.2351 287.247 62.9055C286.972 62.0504 286.005 61.6375 285.186 62.0052C284.815 62.1715 284.518 62.478 284.393 62.8644C283.068 66.9593 285.643 68.1915 285.641 71.7236C285.641 72.3809 285.183 72.9337 284.568 73.1656C283.833 73.4427 282.982 73.2173 282.664 72.4991C279.244 64.776 289.212 45.0588 280.43 36.4729Z" fill="url(#paint20_linear)"/>
<path d="M275.786 41.439C279.04 56.859 263.304 77.8003 269.171 91.9292C273.246 101.745 256.253 123.938 259.554 129.995" stroke="url(#paint21_linear)" stroke-width="5"/>
<path d="M292.589 35.7524C306.305 53.9992 296.417 85.1823 305.184 102.074C311.276 113.808 298.422 109.547 308.757 135.399" stroke="url(#paint22_linear)" stroke-width="5"/>
<path d="M294.298 33.4528C304.466 38.7934 297.154 56.3493 309.493 59.7684C318.064 62.1436 309.984 80.9106 316.098 81.9742" stroke="url(#paint23_linear)" stroke-width="5"/>
<path d="M298.621 30.6452C299.508 32.2357 296.424 38.2399 289.15 41.9643C281.876 45.6888 270.175 45.0376 269.288 43.4471C268.4 41.8567 271.95 36.3931 279.223 32.6686C286.497 28.9442 297.734 29.0548 298.621 30.6452Z" fill="url(#paint24_radial)" fill-opacity="0.8"/>
<path d="M271.414 37.9658C277.502 39.048 278.006 37.6005 283.487 34.9399C282.538 55.5134 281.59 63.5181 284.851 76.3832C285.119 77.4371 284.323 78.4742 283.236 78.4584C282.854 78.4529 282.48 78.3152 282.206 78.0485C277.019 72.9865 283.52 66.8378 281.45 54.0775C281.35 53.4629 280.334 53.4798 280.219 54.0918C279.249 59.2688 277.831 61.9531 278.173 68.1301C278.257 69.6381 276.931 70.8883 275.448 70.5995C274.41 70.3973 273.642 69.4847 273.749 68.4325C274.492 61.1292 279.745 58.5973 277.277 52.1784C277.251 52.1096 277.216 52.0411 277.177 51.9788C276.775 51.3449 275.875 51.2387 275.391 51.8127C273.935 53.5417 274.566 54.1188 274.486 58.373C274.473 59.0945 273.936 59.6966 273.224 59.8122C268.399 60.2283 274.443 48.8604 271.414 37.9658Z" fill="url(#paint25_linear)"/>
<path d="M271.601 41.0444C271.682 40.3097 272.411 39.7912 273.136 39.9578C273.717 40.0914 274.096 40.6297 274.022 41.2183C272.27 55.2259 269.56 63.1423 264.338 76.3416C264.112 76.9128 263.488 77.2444 262.892 77.1074C262.18 76.9439 261.806 76.1917 262.096 75.5163C268.231 61.2122 270.249 53.2972 271.601 41.0444Z" fill="url(#paint26_linear)"/>
<path d="M268.68 41.3852C268.529 41.9022 267.904 42.198 267.431 41.909C267.138 41.7301 267.002 41.3802 267.122 41.0693C269.514 34.8836 277.881 29.3578 286.32 28.0154C286.682 27.9578 287.023 28.2078 287.081 28.5642C287.138 28.9131 286.902 29.2366 286.55 29.3056C278.806 30.8231 270.181 36.2574 268.68 41.3852Z" fill="#64BAAC" fill-opacity="0.5"/>
<path d="M292.429 31.9239C292.066 31.2288 292.469 30.3758 293.238 30.2283C293.761 30.128 294.291 30.4023 294.518 30.8845C304.742 52.5951 307.245 64.9379 305.663 87.8371C305.625 88.3812 305.225 88.838 304.689 88.9408C303.914 89.0894 303.205 88.4593 303.245 87.6721C304.525 62.6626 301.968 50.1942 292.429 31.9239Z" fill="url(#paint27_linear)"/>
<ellipse cx="262.032" cy="78.4901" rx="1.2402" ry="1.17016" transform="rotate(-9.21611 262.032 78.4901)" fill="#2EBD9E"/>
<rect width="2.47325" height="6.5744" rx="1.23663" transform="matrix(0.99824 0.0593114 -0.0853619 0.99635 303.114 89.3696)" fill="#34C2A3"/>
<path d="M284.479 36.2997C272.126 77.0614 299.624 86.8 281.208 119.242" stroke="#6EBA9F" stroke-width="5"/>
<circle cx="251.021" cy="316.269" r="4.43802" transform="rotate(47.7693 251.021 316.269)" fill="white"/>
<circle cx="289.959" cy="352.85" r="1.73662" transform="rotate(47.7693 289.959 352.85)" fill="white"/>
<circle cx="285.241" cy="314.84" r="1.73662" transform="rotate(89.9267 285.241 314.84)" fill="white"/>
<circle cx="219.453" cy="353.263" r="1.73662" transform="rotate(47.7693 219.453 353.263)" fill="white"/>
</g>
<defs>
<filter id="filter0_d" x="84.018" y="81.6919" width="189.354" height="275.996" filterUnits="userSpaceOnUse" color-interpolation-filters="sRGB">
<feFlood flood-opacity="0" result="BackgroundImageFix"/>
<feColorMatrix in="SourceAlpha" type="matrix" values="0 0 0 0 0 0 0 0 0 0 0 0 0 0 0 0 0 0 127 0"/>
<feOffset dy="2.90491"/>
<feGaussianBlur stdDeviation="0.580982"/>
<feColorMatrix type="matrix" values="0 0 0 0 0 0 0 0 0 0 0 0 0 0 0 0 0 0 0.25 0"/>
<feBlend mode="normal" in2="BackgroundImageFix" result="effect1_dropShadow"/>
<feBlend mode="normal" in="SourceGraphic" in2="effect1_dropShadow" result="shape"/>
</filter>
<filter id="filter1_d" x="85.1799" y="81.6919" width="188.483" height="273.382" filterUnits="userSpaceOnUse" color-interpolation-filters="sRGB">
<feFlood flood-opacity="0" result="BackgroundImageFix"/>
<feColorMatrix in="SourceAlpha" type="matrix" values="0 0 0 0 0 0 0 0 0 0 0 0 0 0 0 0 0 0 127 0"/>
<feOffset dx="1.45245" dy="1.45245"/>
<feColorMatrix type="matrix" values="0 0 0 0 0.987833 0 0 0 0 0.391667 0 0 0 0 1 0 0 0 0.86 0"/>
<feBlend mode="normal" in2="BackgroundImageFix" result="effect1_dropShadow"/>
<feBlend mode="normal" in="SourceGraphic" in2="effect1_dropShadow" result="shape"/>
</filter>
<filter id="filter2_d" x="-17.1636" y="250.271" width="96.3263" height="193.807" filterUnits="userSpaceOnUse" color-interpolation-filters="sRGB">
<feFlood flood-opacity="0" result="BackgroundImageFix"/>
<feColorMatrix in="SourceAlpha" type="matrix" values="0 0 0 0 0 0 0 0 0 0 0 0 0 0 0 0 0 0 127 0"/>
<feOffset dx="1.20574" dy="1.20574"/>
<feColorMatrix type="matrix" values="0 0 0 0 0.108333 0 0 0 0 0.4115 0 0 0 0 1 0 0 0 0.86 0"/>
<feBlend mode="normal" in2="BackgroundImageFix" result="effect1_dropShadow"/>
<feBlend mode="normal" in="SourceGraphic" in2="effect1_dropShadow" result="shape"/>
</filter>
<linearGradient id="paint0_linear" x1="158" y1="107.5" x2="158" y2="474" gradientUnits="userSpaceOnUse">
<stop stop-color="#031930"/>
<stop offset="1" stop-color="#202C61"/>
</linearGradient>
<radialGradient id="paint1_radial" cx="0" cy="0" r="1" gradientUnits="userSpaceOnUse" gradientTransform="translate(138.683 134.704) rotate(-95.4996) scale(44.2757 84.7294)">
<stop stop-color="#76F0C8"/>
<stop offset="0.838542" stop-color="#003F8B"/>
</radialGradient>
<linearGradient id="paint2_linear" x1="161.038" y1="223.913" x2="117.587" y2="134.496" gradientUnits="userSpaceOnUse">
<stop offset="0.474557" stop-color="#3ABFB1"/>
<stop offset="1" stop-color="#0C15FE" stop-opacity="0"/>
</linearGradient>
<linearGradient id="paint3_linear" x1="231.457" y1="202.717" x2="157.67" y2="102.209" gradientUnits="userSpaceOnUse">
<stop stop-color="#00B29F"/>
<stop offset="1" stop-color="#00B29F" stop-opacity="0"/>
</linearGradient>
<linearGradient id="paint4_linear" x1="188.144" y1="238.881" x2="113.624" y2="94.8086" gradientUnits="userSpaceOnUse">
<stop stop-color="#42D5A0"/>
<stop offset="1" stop-color="#00B29F" stop-opacity="0"/>
</linearGradient>
<linearGradient id="paint5_linear" x1="134.421" y1="193.942" x2="124.976" y2="121.758" gradientUnits="userSpaceOnUse">
<stop stop-color="#00B29F"/>
<stop offset="1" stop-color="#00B29F" stop-opacity="0"/>
</linearGradient>
<radialGradient id="paint6_radial" cx="0" cy="0" r="1" gradientUnits="userSpaceOnUse" gradientTransform="translate(145.159 120.591) rotate(91.3619) scale(47.4035 129.434)">
<stop stop-color="#BEFECA"/>
<stop offset="1" stop-color="#BEFECA" stop-opacity="0"/>
</radialGradient>
<linearGradient id="paint7_linear" x1="169.378" y1="184.485" x2="145.675" y2="133.407" gradientUnits="userSpaceOnUse">
<stop offset="0.515472" stop-color="#26E9D4"/>
<stop offset="1" stop-color="#02D1FF" stop-opacity="0"/>
</linearGradient>
<linearGradient id="paint8_linear" x1="223.58" y1="186.91" x2="152.939" y2="103.87" gradientUnits="userSpaceOnUse">
<stop stop-color="#29BF9E"/>
<stop offset="1" stop-color="#29BF9E" stop-opacity="0"/>
</linearGradient>
<linearGradient id="paint9_linear" x1="160.313" y1="248.127" x2="102.588" y2="93.0993" gradientUnits="userSpaceOnUse">
<stop stop-color="#29BF9E"/>
<stop offset="1" stop-color="#29BF9E" stop-opacity="0"/>
</linearGradient>
<radialGradient id="paint10_radial" cx="0" cy="0" r="1" gradientUnits="userSpaceOnUse" gradientTransform="translate(46.2422 281.33) rotate(-96.3715) scale(32.2627 57.1642)">
<stop stop-color="#76F0C8"/>
<stop offset="0.838542" stop-color="#003F8B"/>
</radialGradient>
<linearGradient id="paint11_linear" x1="45.7371" y1="348.614" x2="63.7218" y2="278.476" gradientUnits="userSpaceOnUse">
<stop offset="0.474557" stop-color="#3ABFB1"/>
<stop offset="1" stop-color="#0C15FE" stop-opacity="0"/>
</linearGradient>
<linearGradient id="paint12_linear" x1="-1.13457" y1="345.402" x2="38.2059" y2="264.834" gradientUnits="userSpaceOnUse">
<stop stop-color="#00B29F"/>
<stop offset="1" stop-color="#00B29F" stop-opacity="0"/>
</linearGradient>
<linearGradient id="paint13_linear" x1="30.8082" y1="363.816" x2="63.3462" y2="250.399" gradientUnits="userSpaceOnUse">
<stop stop-color="#42D5A0"/>
<stop offset="1" stop-color="#00B29F" stop-opacity="0"/>
</linearGradient>
<linearGradient id="paint14_linear" x1="58.3402" y1="322.83" x2="52.1711" y2="270.208" gradientUnits="userSpaceOnUse">
<stop stop-color="#00B29F"/>
<stop offset="1" stop-color="#00B29F" stop-opacity="0"/>
</linearGradient>
<radialGradient id="paint15_radial" cx="0" cy="0" r="1" gradientUnits="userSpaceOnUse" gradientTransform="translate(41.7538 272.499) rotate(78.0588) scale(34.236 83.6895)">
<stop stop-color="#BEFECA"/>
<stop offset="1" stop-color="#BEFECA" stop-opacity="0"/>
</radialGradient>
<linearGradient id="paint16_linear" x1="35.2165" y1="321.993" x2="44.6021" y2="282.036" gradientUnits="userSpaceOnUse">
<stop offset="0.515472" stop-color="#26E9D4"/>
<stop offset="1" stop-color="#02D1FF" stop-opacity="0"/>
</linearGradient>
<linearGradient id="paint17_linear" x1="1.66174" y1="332.841" x2="41.2106" y2="265.801" gradientUnits="userSpaceOnUse">
<stop stop-color="#29BF9E"/>
<stop offset="1" stop-color="#29BF9E" stop-opacity="0"/>
</linearGradient>
<linearGradient id="paint18_linear" x1="49.4498" y1="365.704" x2="66.5173" y2="246.057" gradientUnits="userSpaceOnUse">
<stop stop-color="#29BF9E"/>
<stop offset="1" stop-color="#29BF9E" stop-opacity="0"/>
</linearGradient>
<radialGradient id="paint19_radial" cx="0" cy="0" r="1" gradientUnits="userSpaceOnUse" gradientTransform="translate(283.25 35.8084) rotate(-110.207) scale(22.7677 41.2963)">
<stop stop-color="#5FC0A0"/>
<stop offset="0.838542" stop-color="#042E60"/>
</radialGradient>
<linearGradient id="paint20_linear" x1="294.116" y1="81.9942" x2="294.623" y2="30.9067" gradientUnits="userSpaceOnUse">
<stop offset="0.474557" stop-color="#3ABFB1"/>
<stop offset="1" stop-color="#0C15FE" stop-opacity="0"/>
</linearGradient>
<linearGradient id="paint21_linear" x1="260.625" y1="87.6823" x2="273.776" y2="25.6314" gradientUnits="userSpaceOnUse">
<stop stop-color="#028779"/>
<stop offset="1" stop-color="#00B29F" stop-opacity="0"/>
</linearGradient>
<linearGradient id="paint22_linear" x1="286.154" y1="94.9236" x2="289.289" y2="11.7067" gradientUnits="userSpaceOnUse">
<stop stop-color="#42D5A0"/>
<stop offset="1" stop-color="#00B29F" stop-opacity="0"/>
</linearGradient>
<linearGradient id="paint23_linear" x1="298.677" y1="62.2074" x2="285.897" y2="27.0697" gradientUnits="userSpaceOnUse">
<stop stop-color="#028779"/>
<stop offset="1" stop-color="#00B29F" stop-opacity="0"/>
</linearGradient>
<radialGradient id="paint24_radial" cx="0" cy="0" r="1" gradientUnits="userSpaceOnUse" gradientTransform="translate(278.622 30.5137) rotate(64.0974) scale(24.1878 60.39)">
<stop stop-color="#8EC498"/>
<stop offset="1" stop-color="#BEFECA" stop-opacity="0"/>
</radialGradient>
<linearGradient id="paint25_linear" x1="282.279" y1="65.5245" x2="281.993" y2="36.5699" gradientUnits="userSpaceOnUse">
<stop offset="0.515472" stop-color="#1EBBAA"/>
<stop offset="1" stop-color="#02D1FF" stop-opacity="0"/>
</linearGradient>
<linearGradient id="paint26_linear" x1="260.496" y1="78.6049" x2="276.067" y2="25.7041" gradientUnits="userSpaceOnUse">
<stop stop-color="#29BF9E"/>
<stop offset="1" stop-color="#29BF9E" stop-opacity="0"/>
</linearGradient>
<linearGradient id="paint27_linear" x1="299.576" y1="93.0787" x2="291.344" y2="8.25544" gradientUnits="userSpaceOnUse">
<stop stop-color="#1D846D"/>
<stop offset="1" stop-color="#29BF9E" stop-opacity="0"/>
</linearGradient>
<clipPath id="clip0">
<rect width="316" height="388" rx="38" fill="white"/>
</clipPath>
</defs>
</svg>
