<?xml version="1.0" encoding="utf-8"?>
<!-- Generator: Adobe Illustrator 22.1.0, SVG Export Plug-In . SVG Version: 6.00 Build 0)  -->
<svg version="1.1" id="Layer_1" xmlns="http://www.w3.org/2000/svg" xmlns:xlink="http://www.w3.org/1999/xlink" x="0px" y="0px"
	 viewBox="0 0 320 390" style="enable-background:new 0 0 320 390;" xml:space="preserve">
<style type="text/css">
	.st0{fill:#FFFFFF;}
	.st1{fill:none;stroke:#FFFFFF;}
	.st2{fill:url(#Bg_1_);}
	.st3{clip-path:url(#SVGID_2_);}
	.st4{fill:#FFCC00;}
	.st5{fill:#FFC104;}
	.st6{fill:#FFD42A;}
	.st7{fill:#0044AA;}
	.st8{fill-opacity:0.1;}
	.st9{fill:#FFFFFF;filter:url(#Adobe_OpacityMaskFilter);}
	.st10{mask:url(#mask0_1_);}
</style>
<g id="Event_Card">
	<g id="Rectangle_6">
		<path class="st0" d="M40,1.5h240c21,0,38,17,38,38v311c0,21-17,38-38,38H40c-21,0-38-17-38-38v-311C2,18.5,19,1.5,40,1.5z"/>
		<path class="st1" d="M40,1.5h240c21,0,38,17,38,38v311c0,21-17,38-38,38H40c-21,0-38-17-38-38v-311C2,18.5,19,1.5,40,1.5z"/>
	</g>
	<g id="Object">
		
			<linearGradient id="Bg_1_" gradientUnits="userSpaceOnUse" x1="318" y1="414.2441" x2="2" y2="27.2441" gradientTransform="matrix(1 0 0 -1 0 415.7441)">
			<stop  offset="0" style="stop-color:#FFEDA6"/>
			<stop  offset="1" style="stop-color:#FFD42A"/>
		</linearGradient>
		<path id="Bg" class="st2" d="M40,1.5h240c21,0,38,17,38,38v311c0,21-17,38-38,38H40c-21,0-38-17-38-38v-311C2,18.5,19,1.5,40,1.5z
			"/>
		<g>
			<defs>
				<rect id="SVGID_1_" x="39" y="133.5" width="241" height="123"/>
			</defs>
			<clipPath id="SVGID_2_">
				<use xlink:href="#SVGID_1_"  style="overflow:visible;"/>
			</clipPath>
			<g id="logo" class="st3">
				<g id="enspire_2">
					<g id="sunshine_2">
						<g id="foundation_2">
							<g id="XMLID_1">
								<g id="Group">
									<path id="Vector" class="st4" d="M280,184.8v20.8h-11.9c0,0-0.8,4.2-2.6,8.8s-4.8,8.2-4.8,8.2l8.4,8.3l-14.6,14.5l-7.7-7.7
										c0,0-4.5,2.8-8.5,4.5c-4.1,1.8-9.5,2.8-9.5,2.8v11.5h-20.6V245c0,0-4.3-0.4-10-2.8c-5.6-2.4-8.4-4.4-8.4-4.4l-8.1,7.9
										l-14.5-14.6l8.1-8c0,0-1.1-1.4-2.5-4.2c-1.6-2.8-2.4-5.3-2.4-5.3h11.3c0,0,12.3,24.4,38.8,22.5
										c26.4-1.9,38.6-24.3,38.8-41.2c0.3-17.1-14.4-40.2-40.9-40.2c-26.5,0-36.5,22.4-36.5,22.4l-10.8-0.1c0,0,0.3-2.1,1.5-4.9
										c1.2-2.7,3.3-5.1,3.3-5.1l-8.2-8.1l14.7-14.7l8.4,8.3c0,0,5.1-3.2,8.4-4.5c3.3-1.4,9.3-2.6,9.3-2.6v-11.8h20.6v12
										c0,0,5.2,1.1,9,2.7c3.8,1.7,7.9,4.6,7.9,4.6l8.7-8.7l14.4,14.6l-8.4,8.3c0,0,3.5,5.3,5,9.1c1.5,3.6,2.8,8.6,2.8,8.6
										L280,184.8z"/>
								</g>
							</g>
						</g>
						<path id="shadow_1" class="st5" d="M260.3,180.4l3.4-3.3c0,0,0.8,2,1.7,5.1c0.8,3.1,1.2,5.9,1.2,5.9h10.3V203H267
							c0,0-2.4,8.4-3.7,11.5c-1.3,3-4.4,9.2-4.4,9.2l7.2,7.2l-11,10.9l-7.3-7.3c0,0-2.1,2.6-10.1,5.8c-7.9,3.2-11,3.3-11,3.3v9.6
							h-16.7v-9.5c0,0-3.3-0.5-4.8-0.9s-5-1.8-5-1.8l3.3-3.8c0,0,5,2.8,15,3c10.2,0,43.3-7.6,44.6-43.1
							C262.9,196.5,262.7,186,260.3,180.4z"/>
						<path id="highlight_1" class="st6" d="M237.3,149.5l-3.6,3.8c0,0-17.6-7.1-33.7,1.2s-20.9,20.6-20.9,20.6h-5
							c0,0,0.3-2.1,1.7-4.4s2.3-3.9,2.3-3.9l-7.2-7.2l11.1-11.1l7.1,7.1c0,0,3.3-3,9.1-5.4c5.9-2.4,12.1-3.5,12.1-3.5v-9.5H227v9.3
							c0,0,1.9,0.3,4.8,1.1C235,148.5,237.3,149.5,237.3,149.5z"/>
					</g>
					<g id="text_2">
						<g id="Group_2">
							<g id="Group_3">
								<path id="Vector_2" class="st7" d="M42.8,174.7h22.2v7.6H51.9v5.4h11.2v7.6H51.9v6.1h13.7v7.6H42.8V174.7z"/>
								<path id="Vector_3" class="st7" d="M71.5,182.7h7.4l0.6,3.2h0.2c2.1-2,4.8-3.8,8.4-3.8c5.8,0,8.3,4.2,8.3,10.8V209h-9.1
									v-15.1c0-3.4-0.8-4.2-2.6-4.2c-1.7,0-2.6,0.7-4,2V209h-9.1V182.7L71.5,182.7z"/>
								<path id="Vector_4" class="st7" d="M100.2,206l4-5.6c2.4,1.8,4.7,2.6,6.5,2.6c1.9,0,2.6-0.5,2.6-1.6c0-1.4-2.4-2-5.1-3.1
									c-3.1-1.3-6.7-3.5-6.7-7.8c0-5.2,4.2-8.5,10.5-8.5c4.3,0,7.4,1.7,9.7,3.5l-4,5.4c-1.9-1.4-3.7-2.2-5.4-2.2
									c-1.6,0-2.3,0.4-2.3,1.5c0,1.4,2.3,1.9,5,2.8c3.2,1.2,6.8,3.2,6.8,7.9c0,5-3.9,8.8-11.3,8.8
									C107.1,209.7,103,208.2,100.2,206z"/>
								<path id="Vector_5" class="st7" d="M126.3,182.7h7.4l0.6,2.4h0.2c1.9-1.8,4.6-3.1,7.2-3.1c6.2,0,10.3,5.3,10.3,13.4
									c0,9.1-5.4,14.2-11,14.2c-2.2,0-4.2-0.9-5.9-2.6l0.3,4v7.3h-9.1V182.7z M142.7,195.5c0-4.3-1.3-6.1-3.7-6.1
									c-1.4,0-2.4,0.5-3.6,1.9v9.7c1.1,0.9,2.2,1.3,3.4,1.3C140.9,202.3,142.7,200.6,142.7,195.5z"/>
								<path id="Vector_6" class="st7" d="M156.5,174.9c0-2.6,2.1-4.5,5.1-4.5c3,0,5.1,1.9,5.1,4.5c0,2.6-2.1,4.5-5.1,4.5
									C158.6,179.4,156.5,177.5,156.5,174.9z M157,182.7h9.1V209H157V182.7z"/>
								<path id="Vector_7" class="st7" d="M172.3,182.7h7.4l0.6,4.5h0.2c2-3.6,5-5.2,7.5-5.2c1.6,0,2.5,0.2,3.3,0.5l-1.5,7.8
									c-1-0.2-1.8-0.4-3-0.4c-1.9,0-4.2,1.2-5.5,4.4V209h-9.1V182.7L172.3,182.7z"/>
								<path id="Vector_8" class="st7" d="M193,195.8c0-8.5,6.2-13.8,12.7-13.8c7.8,0,11.5,5.7,11.5,12.8c0,1.6-0.2,3.2-0.4,3.8
									h-15.1c0.8,3.2,3.2,4.2,6.1,4.2c1.8,0,3.5-0.5,5.4-1.6l3,5.4c-2.9,2-6.7,3.1-9.6,3.1C199,209.7,193,204.6,193,195.8z
									 M209.6,192.7c0-2-0.8-3.8-3.6-3.8c-2,0-3.7,1.2-4.2,3.8H209.6z"/>
							</g>
						</g>
						<g id="Group_4">
							<g id="Group_5">
								<g id="Group_6">
									<path id="Vector_9" class="st7" d="M43.6,224.2h1.3v9.7h-1.3V224.2z"/>
									<path id="Vector_10" class="st7" d="M47.5,226.8h1.1l0.1,1.1c0.6-0.6,1.4-1.3,2.4-1.3c1.5,0,2.2,0.9,2.2,2.8v4.5H52v-4.4
										c0-1.4-0.4-1.9-1.4-1.9c-0.7,0-1.3,0.4-2,1.1v5.2h-1.2V226.8z"/>
									<path id="Vector_11" class="st7" d="M54.9,233.1l0.6-0.8c0.6,0.5,1.3,0.8,2.1,0.8c1,0,1.4-0.5,1.4-1.2
										c0-0.7-0.8-1.1-1.7-1.4c-1.1-0.3-2.1-0.8-2.1-2.1c0-1.2,1-2,2.4-2c0.8,0,1.7,0.3,2.2,0.8l-0.6,0.7c-0.5-0.3-1-0.6-1.7-0.6
										c-1,0-1.4,0.5-1.4,1.1c0,0.6,0.7,0.9,1.6,1.3c1.1,0.4,2.2,0.8,2.2,2.2c0,1.2-1,2.1-2.6,2.1
										C56.6,234.1,55.5,233.6,54.9,233.1z"/>
									<path id="Vector_12" class="st7" d="M62.1,226.8h1.1l0.1,0.8c0.6-0.5,1.5-1.1,2.3-1.1c1.9,0,2.9,1.5,2.9,3.7
										c0,2.4-1.5,3.9-3.1,3.9c-0.6,0-1.4-0.3-2-0.8v1.3v2.4h-1.3V226.8L62.1,226.8z M67.1,230.2c0-1.6-0.5-2.6-1.9-2.6
										c-0.6,0-1.3,0.3-1.9,0.9v3.8c0.6,0.5,1.3,0.7,1.8,0.7C66.2,233.1,67.1,232,67.1,230.2z"/>
									<path id="Vector_13" class="st7" d="M70.3,224.4c0-0.5,0.3-0.7,0.8-0.7c0.5,0,0.8,0.3,0.8,0.7s-0.3,0.7-0.8,0.7
										C70.6,225.2,70.3,225,70.3,224.4z M70.5,226.8h1.3v7.2h-1.3V226.8z"/>
									<path id="Vector_14" class="st7" d="M74.3,226.8h1.1l0.1,1.3c0.5-0.9,1.3-1.5,2-1.5c0.3,0,0.5,0,0.7,0.1l-0.2,1.1
										c-0.2-0.1-0.4-0.1-0.7-0.1c-0.6,0-1.4,0.4-1.8,1.7v4.6h-1.3v-7.2H74.3z"/>
									<path id="Vector_15" class="st7" d="M79.4,224.4c0-0.5,0.3-0.7,0.8-0.7c0.4,0,0.8,0.3,0.8,0.7s-0.3,0.7-0.8,0.7
										C79.7,225.3,79.4,225,79.4,224.4z M79.6,226.8h1.3v7.2h-1.3V226.8z"/>
									<path id="Vector_16" class="st7" d="M83.4,226.8h1.1l0.1,1.1c0.6-0.6,1.4-1.3,2.4-1.3c1.5,0,2.2,0.9,2.2,2.8v4.5h-1.3v-4.4
										c0-1.4-0.4-1.9-1.4-1.9c-0.7,0-1.3,0.4-2,1.1v5.2h-1.3v-7.1H83.4z"/>
									<path id="Vector_17" class="st7" d="M91,235.3c0-0.6,0.4-1.2,1.1-1.6v-0.1c-0.3-0.2-0.6-0.6-0.6-1.2c0-0.6,0.4-1.1,0.8-1.4
										V231c-0.5-0.4-1-1.1-1-1.9c0-1.6,1.3-2.5,2.8-2.5c0.4,0,0.7,0.1,1.1,0.2h2.5v0.9h-1.5c0.3,0.3,0.6,0.8,0.6,1.5
										c0,1.6-1.2,2.5-2.6,2.5c-0.3,0-0.7-0.1-1.1-0.2c-0.2,0.2-0.4,0.4-0.4,0.8s0.3,0.7,1.3,0.7h1.2c1.7,0,2.5,0.5,2.5,1.7
										c0,1.4-1.4,2.5-3.6,2.5C92.3,237.2,91,236.6,91,235.3z M96.5,234.9c0-0.6-0.5-0.8-1.5-0.8h-1.3c-0.3,0-0.6,0-1-0.1
										c-0.5,0.3-0.7,0.8-0.7,1.2c0,0.7,0.7,1.3,2.1,1.3S96.5,235.7,96.5,234.9z M95.6,229.1c0-1.1-0.6-1.7-1.5-1.7
										c-0.8,0-1.5,0.6-1.5,1.7c0,1.1,0.7,1.7,1.5,1.7C94.8,230.8,95.6,230.1,95.6,229.1z"/>
									<path id="Vector_18" class="st7" d="M102.5,224.2h5.6v1.1h-4.3v3.1h3.7v1.1h-3.7v3.5h4.6v1.1h-5.7v-9.7H102.5z"/>
									<path id="Vector_19" class="st7" d="M110.3,226.8h1.1l0.1,1.1c0.6-0.6,1.4-1.3,2.4-1.3c1.5,0,2.2,0.9,2.2,2.8v4.5h-1.3
										v-4.4c0-1.4-0.4-1.9-1.4-1.9c-0.7,0-1.3,0.4-2,1.1v5.2h-1.3v-7.1H110.3z"/>
									<path id="Vector_20" class="st7" d="M118,235.3c0-0.6,0.4-1.2,1.1-1.6v-0.1c-0.3-0.2-0.6-0.6-0.6-1.2
										c0-0.6,0.4-1.1,0.8-1.4V231c-0.5-0.4-1-1.1-1-1.9c0-1.6,1.3-2.5,2.8-2.5c0.4,0,0.7,0.1,1.1,0.2h2.5v0.9h-1.5
										c0.3,0.3,0.6,0.8,0.6,1.5c0,1.6-1.2,2.5-2.6,2.5c-0.3,0-0.7-0.1-1.1-0.2c-0.2,0.2-0.4,0.4-0.4,0.8s0.3,0.7,1.3,0.7h1.4
										c1.7,0,2.5,0.5,2.5,1.7c0,1.4-1.4,2.5-3.6,2.5C119.2,237.2,118,236.6,118,235.3z M123.4,234.9c0-0.6-0.5-0.8-1.5-0.8h-1.3
										c-0.3,0-0.6,0-1-0.1c-0.5,0.3-0.7,0.8-0.7,1.2c0,0.7,0.7,1.3,2.1,1.3C122.6,236.4,123.4,235.7,123.4,234.9z M122.5,229.1
										c0-1.1-0.6-1.7-1.5-1.7s-1.5,0.6-1.5,1.7c0,1.1,0.7,1.7,1.5,1.7C121.7,230.8,122.5,230.1,122.5,229.1z"/>
									<path id="Vector_21" class="st7" d="M126,224.4c0-0.5,0.3-0.7,0.8-0.7c0.4,0,0.8,0.3,0.8,0.7s-0.3,0.7-0.8,0.7
										C126.3,225.3,126,225,126,224.4z M126.2,226.8h1.3v7.2h-1.3V226.8z"/>
									<path id="Vector_22" class="st7" d="M130,226.8h1.1l0.1,1.1c0.6-0.6,1.4-1.3,2.4-1.3c1.5,0,2.2,0.9,2.2,2.8v4.5h-1.3v-4.4
										c0-1.4-0.4-1.9-1.4-1.9c-0.7,0-1.3,0.4-2,1.1v5.2h-1.3v-7.1H130z"/>
									<path id="Vector_23" class="st7" d="M137.7,230.3c0-2.3,1.6-3.8,3.3-3.8c1.8,0,2.9,1.3,2.9,3.4c0,0.2,0,0.5-0.1,0.7h-4.9
										c0.1,1.5,1.1,2.5,2.4,2.5c0.7,0,1.3-0.2,1.8-0.5l0.4,0.8c-0.6,0.4-1.4,0.7-2.3,0.7C139.2,234.1,137.7,232.7,137.7,230.3z
										 M142.7,229.7c0-1.5-0.6-2.2-1.8-2.2c-1.1,0-1.9,0.8-2.1,2.2H142.7z"/>
									<path id="Vector_24" class="st7" d="M145.1,230.3c0-2.3,1.6-3.8,3.3-3.8c1.8,0,2.9,1.3,2.9,3.4c0,0.2,0,0.5-0.1,0.7h-4.9
										c0.1,1.5,1.1,2.5,2.4,2.5c0.7,0,1.3-0.2,1.8-0.5l0.4,0.8c-0.6,0.4-1.4,0.7-2.3,0.7C146.7,234.1,145.1,232.7,145.1,230.3z
										 M150.2,229.7c0-1.5-0.6-2.2-1.8-2.2c-1.1,0-1.9,0.8-2.1,2.2H150.2z"/>
									<path id="Vector_25" class="st7" d="M153.2,226.8h1.1l0.1,1.3c0.5-0.9,1.3-1.5,2-1.5c0.3,0,0.5,0,0.7,0.1l-0.2,1.1
										c-0.2-0.1-0.4-0.1-0.7-0.1c-0.6,0-1.4,0.4-1.8,1.7v4.6h-1.3v-7.2H153.2z"/>
									<path id="Vector_26" class="st7" d="M157.8,233.1l0.6-0.8c0.6,0.5,1.3,0.8,2.1,0.8c1,0,1.4-0.5,1.4-1.2
										c0-0.7-0.8-1.1-1.7-1.4c-1.1-0.3-2.1-0.8-2.1-2.1c0-1.2,1-2,2.4-2c0.8,0,1.7,0.3,2.2,0.8l-0.6,0.7
										c-0.5-0.3-1.1-0.6-1.7-0.6c-1,0-1.4,0.5-1.4,1.1c0,0.6,0.7,0.9,1.6,1.3c1.1,0.4,2.2,0.8,2.2,2.2c0,1.2-1,2.1-2.6,2.1
										C159.4,234.1,158.4,233.6,157.8,233.1z"/>
								</g>
							</g>
						</g>
					</g>
				</g>
			</g>
		</g>
	</g>
	<g id="Overlay">
		<path class="st8" d="M40,1.5h240c21,0,38,17,38,38v311c0,21-17,38-38,38H40c-21,0-38-17-38-38v-311C2,18.5,19,1.5,40,1.5z"/>
		<path class="st1" d="M40,1.5h240c21,0,38,17,38,38v311c0,21-17,38-38,38H40c-21,0-38-17-38-38v-311C2,18.5,19,1.5,40,1.5z"/>
	</g>
	<defs>
		<filter id="Adobe_OpacityMaskFilter" filterUnits="userSpaceOnUse" x="36.8" y="301.5" width="147" height="64.6">
			<feColorMatrix  type="matrix" values="1 0 0 0 0  0 1 0 0 0  0 0 1 0 0  0 0 0 1 0"/>
		</filter>
	</defs>
	<mask maskUnits="userSpaceOnUse" x="36.8" y="301.5" width="147" height="64.6" id="mask0_1_">
		<path id="Overlay_2_1_" class="st9" d="M40,1.5h240c21,0,38,17,38,38v311c0,21-17,38-38,38H40c-21,0-38-17-38-38v-311
			C2,18.5,19,1.5,40,1.5z"/>
	</mask>
	<g class="st10">
		<path id="FRI_x2C__JUNE_1" class="st0" d="M44.4,306.4l0.2-1.9h-0.1L44,306l-2.1,3.7h-0.6l-2.2-3.7l-0.6-1.6h-0.1l0.3,1.9v5.1
			h-1.8v-9.8h1.8l2.6,4.5l0.5,1.1h0.1l0.4-1.1l2.5-4.5h1.7v9.8h-1.9V306.4z M48.7,306.6c0-1.6,0.4-2.9,1.1-3.8
			c0.7-0.9,1.7-1.3,3.1-1.3c0.7,0,1.3,0.1,1.8,0.4c0.5,0.2,1,0.6,1.3,1c0.3,0.4,0.6,1,0.8,1.6s0.3,1.3,0.3,2.1
			c0,1.6-0.4,2.9-1.1,3.8c-0.7,0.9-1.7,1.3-3.1,1.3c-0.7,0-1.3-0.1-1.8-0.4c-0.5-0.2-1-0.6-1.3-1c-0.3-0.4-0.6-1-0.8-1.6
			C48.7,308.1,48.7,307.4,48.7,306.6z M50.7,306.6c0,0.5,0,1,0.1,1.4c0.1,0.4,0.2,0.8,0.4,1.1c0.2,0.3,0.4,0.5,0.7,0.7
			s0.6,0.3,1,0.3c0.7,0,1.2-0.3,1.6-0.8c0.4-0.5,0.6-1.4,0.6-2.6c0-0.5,0-0.9-0.1-1.3c-0.1-0.4-0.2-0.8-0.4-1.1
			c-0.2-0.3-0.4-0.5-0.7-0.7c-0.3-0.2-0.6-0.3-1-0.3c-0.7,0-1.2,0.3-1.6,0.8C50.9,304.6,50.7,305.4,50.7,306.6z M61.7,306.4
			l-0.8-1.5h-0.1l0.2,1.5v5.1h-1.8v-9.9h1.4l3.7,5.2l0.7,1.5h0.1l-0.2-1.5v-5.2h1.8v9.9h-1.4L61.7,306.4z M74.9,301.7h1.9v7.2
			c0,0.4,0,0.7-0.1,1.1s-0.2,0.6-0.4,0.9c-0.2,0.3-0.4,0.5-0.7,0.6c-0.3,0.1-0.7,0.2-1.1,0.2c-0.3,0-0.6,0-0.9-0.1
			c-0.3-0.1-0.6-0.1-0.8-0.2l0.4-1.6c0.2,0.1,0.5,0.2,0.8,0.2c0.4,0,0.6-0.1,0.7-0.4c0.1-0.3,0.2-0.7,0.2-1.1V301.7z M84.3,309.3h-3
			l-0.7,2.2h-1.9l3.5-9.9h1.4l3.5,9.9h-2L84.3,309.3z M81.8,307.8h2.1l-0.7-2.2l-0.3-1.5h-0.1l-0.3,1.6L81.8,307.8z M91.3,306.4
			l-0.8-1.5h-0.1l0.2,1.5v5.1h-1.8v-9.9h1.4l3.7,5.2l0.7,1.5h0.1l-0.2-1.5v-5.2h1.8v9.9H95L91.3,306.4z M109.3,304.1
			c0,0.5-0.1,1-0.3,1.4c-0.2,0.5-0.4,1-0.7,1.4c-0.3,0.5-0.6,0.9-0.9,1.4c-0.3,0.4-0.6,0.8-0.9,1.2l-0.7,0.6v0.1l1-0.2h2.7v1.5h-5.9
			v-0.9c0.2-0.2,0.5-0.5,0.8-0.8c0.3-0.3,0.6-0.6,0.8-1c0.3-0.4,0.6-0.7,0.8-1.1c0.3-0.4,0.5-0.7,0.7-1.1c0.2-0.4,0.4-0.8,0.5-1.1
			c0.1-0.4,0.2-0.7,0.2-1c0-0.4-0.1-0.7-0.3-0.9c-0.2-0.3-0.6-0.4-1-0.4c-0.3,0-0.6,0.1-0.9,0.2c-0.3,0.1-0.6,0.3-0.8,0.5l-0.7-1.3
			c0.4-0.3,0.8-0.5,1.2-0.7c0.5-0.2,1-0.3,1.6-0.3c0.4,0,0.8,0.1,1.1,0.2c0.3,0.1,0.6,0.3,0.9,0.5c0.2,0.2,0.4,0.5,0.6,0.8
			C109.3,303.3,109.3,303.7,109.3,304.1z M112.4,309.1c0-0.3,0-0.6,0.1-0.9c0.1-0.3,0.2-0.5,0.4-0.7c0.2-0.2,0.3-0.4,0.5-0.6
			c0.2-0.2,0.4-0.3,0.7-0.5c-0.5-0.3-0.8-0.6-1.1-1c-0.3-0.4-0.4-0.9-0.4-1.4c0-0.4,0.1-0.7,0.2-1c0.1-0.3,0.3-0.6,0.6-0.8
			c0.3-0.2,0.6-0.4,0.9-0.5c0.4-0.1,0.8-0.2,1.2-0.2c0.4,0,0.8,0.1,1.1,0.2c0.3,0.1,0.6,0.3,0.9,0.5c0.3,0.2,0.4,0.5,0.6,0.8
			c0.1,0.3,0.2,0.6,0.2,1c0,0.6-0.1,1-0.4,1.4c-0.2,0.4-0.6,0.7-1.1,1.1c0.6,0.3,1,0.7,1.3,1.1c0.3,0.4,0.4,0.9,0.4,1.5
			c0,0.4-0.1,0.8-0.2,1.1c-0.1,0.3-0.4,0.6-0.6,0.9c-0.3,0.2-0.6,0.4-1,0.6c-0.4,0.1-0.8,0.2-1.3,0.2c-0.5,0-0.9-0.1-1.3-0.2
			c-0.4-0.1-0.7-0.3-1-0.5c-0.3-0.2-0.5-0.5-0.6-0.8C112.5,309.9,112.4,309.5,112.4,309.1z M116.9,308.9c0-0.2-0.1-0.4-0.2-0.6
			c-0.1-0.2-0.2-0.3-0.4-0.5c-0.2-0.1-0.3-0.3-0.5-0.4c-0.2-0.1-0.4-0.2-0.6-0.4c-0.4,0.3-0.7,0.5-0.9,0.8c-0.2,0.3-0.2,0.6-0.2,0.9
			c0,0.4,0.1,0.7,0.4,1c0.3,0.3,0.6,0.4,1.1,0.4c0.4,0,0.8-0.1,1-0.3C116.8,309.6,116.9,309.3,116.9,308.9z M114.4,304.1
			c0,0.2,0,0.4,0.1,0.6s0.2,0.3,0.3,0.4c0.2,0.1,0.3,0.2,0.5,0.4c0.2,0.1,0.4,0.2,0.6,0.3c0.6-0.5,0.8-1,0.8-1.6
			c0-0.4-0.1-0.7-0.4-0.9c-0.2-0.2-0.5-0.3-0.8-0.3c-0.4,0-0.7,0.1-0.9,0.3C114.5,303.6,114.4,303.8,114.4,304.1z M131.6,304.1
			c0,0.5-0.1,1-0.3,1.4c-0.2,0.5-0.4,1-0.7,1.4c-0.3,0.5-0.6,0.9-0.9,1.4c-0.3,0.4-0.6,0.8-0.9,1.2l-0.7,0.6v0.1l1-0.2h2.7v1.5h-5.9
			v-0.9c0.2-0.2,0.5-0.5,0.8-0.8c0.3-0.3,0.6-0.6,0.8-1c0.3-0.4,0.6-0.7,0.8-1.1c0.3-0.4,0.5-0.7,0.7-1.1c0.2-0.4,0.4-0.8,0.5-1.1
			c0.1-0.4,0.2-0.7,0.2-1c0-0.4-0.1-0.7-0.3-0.9c-0.2-0.3-0.6-0.4-1-0.4c-0.3,0-0.6,0.1-0.9,0.2c-0.3,0.1-0.6,0.3-0.8,0.5l-0.7-1.3
			c0.4-0.3,0.8-0.5,1.2-0.7c0.5-0.2,1-0.3,1.6-0.3c0.4,0,0.8,0.1,1.1,0.2s0.6,0.3,0.9,0.5c0.2,0.2,0.4,0.5,0.6,0.8
			C131.5,303.3,131.6,303.7,131.6,304.1z M134.3,306.6c0-1.7,0.3-3,0.9-3.8c0.6-0.8,1.4-1.3,2.5-1.3c1.2,0,2,0.4,2.6,1.2
			c0.6,0.8,0.8,2.1,0.8,3.8c0,1.7-0.3,3-0.9,3.9c-0.6,0.8-1.4,1.3-2.5,1.3c-1.2,0-2-0.4-2.6-1.3
			C134.6,309.5,134.3,308.2,134.3,306.6z M136.2,306.6c0,1.1,0.1,2,0.4,2.6c0.3,0.6,0.7,0.9,1.2,0.9c0.6,0,1-0.3,1.2-0.9
			c0.3-0.6,0.4-1.5,0.4-2.7c0-1.1-0.1-2-0.4-2.6c-0.2-0.6-0.7-0.9-1.2-0.9c-0.6,0-1,0.3-1.2,0.9
			C136.3,304.5,136.2,305.4,136.2,306.6z M144.1,310h1.9v-5.5l0.2-1l-0.7,0.8l-1.2,0.9l-0.8-1l3.2-2.6h1v8.4h1.9v1.5h-5.6V310z
			 M152.2,304.8c0-0.5,0.1-0.9,0.2-1.3c0.1-0.4,0.4-0.7,0.6-1c0.3-0.3,0.6-0.5,1-0.7c0.4-0.2,0.9-0.3,1.4-0.3c1.1,0,1.9,0.3,2.5,1
			c0.6,0.6,0.9,1.5,0.9,2.7c0,1.1-0.1,2-0.4,2.8c-0.3,0.8-0.6,1.4-1.1,2c-0.5,0.5-1,0.9-1.6,1.2c-0.6,0.3-1.2,0.4-1.9,0.5l-0.4-1.4
			c0.5-0.1,1-0.2,1.4-0.4c0.4-0.2,0.7-0.4,1-0.7c0.3-0.3,0.5-0.6,0.7-0.9c0.2-0.4,0.3-0.7,0.4-1.1c-0.2,0.2-0.5,0.4-0.7,0.5
			c-0.3,0.1-0.6,0.1-1,0.1c-0.4,0-0.7-0.1-1.1-0.2c-0.3-0.1-0.7-0.3-0.9-0.5c-0.3-0.3-0.5-0.6-0.7-0.9
			C152.3,305.7,152.2,305.3,152.2,304.8z M153.9,304.7c0,0.5,0.1,0.9,0.4,1.2c0.3,0.3,0.7,0.4,1.1,0.4c0.4,0,0.7-0.1,0.9-0.2
			c0.2-0.1,0.4-0.3,0.6-0.4c0-0.2,0-0.4,0-0.6c0-0.3,0-0.5-0.1-0.8c-0.1-0.3-0.2-0.5-0.3-0.7c-0.1-0.2-0.3-0.4-0.5-0.5
			c-0.2-0.1-0.5-0.2-0.7-0.2c-0.5,0-0.8,0.1-1.1,0.4C154.1,303.7,153.9,304.1,153.9,304.7z"/>
		<path id="Decaf" class="st0" d="M36.9,322.9h19.9v5.9H43.5v7.8h12.1v5.9H43.5v8.2H57v5.9H36.9V322.9z M76.5,356.5v-13.6
			c0-2-0.3-3.4-0.9-4.2c-0.5-0.9-1.5-1.3-2.8-1.3c-1.2,0-2.2,0.4-3,1.1c-0.8,0.7-1.4,1.5-1.7,2.5v15.6h-6.2v-24h4.9l0.7,3.2h0.2
			c0.7-1,1.7-1.9,2.9-2.7c1.2-0.8,2.8-1.2,4.7-1.2c1.2,0,2.2,0.2,3.2,0.5c0.9,0.3,1.7,0.8,2.4,1.6s1.1,1.7,1.4,3
			c0.3,1.2,0.5,2.8,0.5,4.7v14.9H76.5z M97.9,349.9c0-0.6-0.3-1.2-0.8-1.5c-0.5-0.4-1.2-0.7-2-1.1c-0.8-0.3-1.7-0.6-2.6-1
			c-1-0.4-1.8-0.8-2.6-1.4c-0.8-0.6-1.5-1.4-2-2.3c-0.5-0.9-0.8-2.1-0.8-3.6c0-2.4,0.7-4.2,2.1-5.4c1.4-1.2,3.4-1.9,6.1-1.9
			c1.8,0,3.5,0.2,4.9,0.6s2.6,0.8,3.5,1.3l-1.4,4.5c-0.7-0.3-1.7-0.6-2.8-0.9c-1.1-0.3-2.3-0.5-3.4-0.5c-1.9,0-2.8,0.7-2.8,2.2
			c0,0.6,0.3,1,0.8,1.4c0.5,0.4,1.2,0.7,2,1c0.8,0.3,1.7,0.6,2.6,1c1,0.4,1.8,0.8,2.6,1.4c0.8,0.5,1.5,1.3,2,2.2
			c0.5,0.9,0.8,2,0.8,3.5c0,2.4-0.8,4.4-2.4,5.8c-1.5,1.4-3.9,2.1-7,2.1c-1.7,0-3.3-0.2-4.8-0.7c-1.5-0.4-2.7-0.9-3.6-1.5l1.7-4.7
			c0.7,0.4,1.7,0.8,2.9,1.2c1.2,0.4,2.5,0.6,3.7,0.6c0.9,0,1.7-0.2,2.2-0.5C97.6,351.3,97.9,350.7,97.9,349.9z M108.2,332.5h4.6
			l0.7,2.9h0.2c0.8-1.2,1.8-2.1,2.9-2.7c1.2-0.6,2.5-0.9,4.2-0.9c3,0,5.3,1,6.8,2.9c1.5,1.9,2.3,4.9,2.3,9.2c0,2-0.2,3.9-0.7,5.6
			c-0.5,1.6-1.2,3-2.2,4.2c-0.9,1.2-2.1,2-3.5,2.6c-1.3,0.6-2.9,0.9-4.7,0.9c-1,0-1.8-0.1-2.4-0.2c-0.6-0.1-1.3-0.4-1.9-0.7v9.8
			h-6.2V332.5z M118.9,337.1c-1.2,0-2.2,0.3-2.9,0.9c-0.7,0.6-1.2,1.5-1.6,2.7v10c0.4,0.4,0.9,0.6,1.4,0.9c0.5,0.2,1.2,0.3,2.1,0.3
			c1.8,0,3.1-0.6,4-1.9c0.9-1.3,1.3-3.4,1.3-6.3c0-2.1-0.4-3.7-1.1-4.9S120.5,337.1,118.9,337.1z M134.7,332.5h6.2v24h-6.2V332.5z
			 M133.8,325.7c0-0.9,0.3-1.7,1-2.4c0.7-0.7,1.7-1,2.9-1s2.2,0.3,2.9,1c0.8,0.6,1.2,1.4,1.2,2.4s-0.4,1.7-1.2,2.4
			c-0.7,0.6-1.7,0.9-2.9,0.9s-2.2-0.3-2.9-0.9C134.1,327.4,133.8,326.7,133.8,325.7z M160.3,338.4c-1-0.4-1.9-0.5-2.7-0.5
			c-1.1,0-2.1,0.3-2.8,0.9c-0.7,0.6-1.2,1.3-1.5,2.3v15.5H147v-24h4.8l0.7,3.2h0.2c0.5-1.2,1.3-2.1,2.2-2.7c0.9-0.6,2-1,3.3-1
			c0.8,0,1.8,0.2,2.8,0.5L160.3,338.4z M183.1,354.4c-1,0.8-2.3,1.4-3.9,2c-1.6,0.5-3.4,0.8-5.2,0.8c-3.9,0-6.7-1.1-8.5-3.4
			c-1.8-2.3-2.7-5.4-2.7-9.3c0-4.2,1-7.4,3-9.5c2-2.1,4.8-3.2,8.5-3.2c1.2,0,2.4,0.2,3.6,0.5c1.2,0.3,2.2,0.8,3.1,1.6s1.6,1.7,2.2,3
			c0.5,1.2,0.8,2.8,0.8,4.7c0,0.7,0,1.4-0.1,2.2c-0.1,0.8-0.2,1.6-0.3,2.4h-14.4c0.1,2,0.6,3.5,1.5,4.6c1,1,2.5,1.5,4.6,1.5
			c1.3,0,2.5-0.2,3.5-0.6c1.1-0.4,1.9-0.8,2.4-1.2L183.1,354.4z M174.1,336.8c-1.6,0-2.8,0.5-3.6,1.5c-0.8,1-1.2,2.3-1.4,3.9h8.9
			c0.1-1.7-0.1-3.1-0.8-4C176.6,337.3,175.5,336.8,174.1,336.8z"/>
	</g>
</g>
</svg>
