<?xml version="1.0" encoding="utf-8"?>
<!-- Generator: Adobe Illustrator 22.1.0, SVG Export Plug-In . SVG Version: 6.00 Build 0)  -->
<svg version="1.1" xmlns="http://www.w3.org/2000/svg" xmlns:xlink="http://www.w3.org/1999/xlink" x="0px" y="0px"
	 viewBox="0 0 316 388" style="enable-background:new 0 0 316 388;" xml:space="preserve">
<style type="text/css">
	.st0{fill:#50CDF2;}
	.st1{fill:#D9F6FF;}
	.st2{fill:#616161;}
	.st3{fill:#757575;}
	.st4{fill:#8A8A8A;}
	.st5{fill:#474747;}
	.st6{fill:#444444;}
	.st7{fill:#FF7053;}
	.st8{fill:#424242;}
	.st9{fill:#040404;}
	.st10{fill:#DDDDDD;}
	.st11{fill:#535453;}
	.st12{fill:#707271;}
	.st13{fill:url(#SVGID_1_);}
	.st14{fill:url(#SVGID_2_);}
	.st15{fill:url(#SVGID_3_);}
	.st16{fill:url(#SVGID_4_);}
	.st17{fill:url(#SVGID_5_);}
	.st18{fill:url(#SVGID_6_);}
	.st19{fill:url(#SVGID_7_);}
	.st20{fill:url(#SVGID_8_);}
	.st21{fill:#07AB00;}
	.st22{fill:url(#SVGID_9_);}
	.st23{fill:url(#SVGID_10_);}
	.st24{fill:#2384BB;}
	.st25{fill:#DEF6FE;}
	.st26{fill:#FFFFFF;}
	.st27{fill:#0DB04B;}
	.st28{fill:#089046;}
	.st29{fill:#DEDEDE;}
	.st30{fill:url(#Bg_2_);}
</style>
<g id="Layer_1">
	<path id="Bg" class="st0" d="M38,0.5h240c21,0,38,17,38,38v311c0,21-17,38-38,38H38c-21,0-38-17-38-38v-311C0,17.5,17,0.5,38,0.5z"
		/>
	<path class="st1" d="M38,388h240c21,0,38-17,38-38V52.2c-11.5-3.9-19.7-6.4-42.6-5.3c-25,1.2-62.4,17.3-82.3,31.4
		c-38.2,27-33.5,54.5-94.2,69.4c-16.7,4.1-65.3-0.7-96.9-2.8V350C0,371,17,388,38,388z"/>
	<g>
		<g>
			<polygon class="st2" points="59.3,99.6 59.3,221.4 108.1,249.9 108.1,128.5 			"/>
			<polygon class="st3" points="217.5,66.1 217.5,187.6 108.1,249.9 108.1,128.5 			"/>
			<polygon class="st4" points="168,38 217.5,66.1 108.1,128.5 59.3,99.6 			"/>
			<polygon class="st3" points="62,108.8 62,119.6 105.4,144.7 105.4,133.8 			"/>
			
				<ellipse transform="matrix(0.9979 -6.552356e-02 6.552356e-02 0.9979 -12.3519 5.8132)" class="st5" cx="82.4" cy="191.2" rx="4.2" ry="5.8"/>
			<polygon class="st6" points="81.2,122.1 83.7,123.8 83.7,130.5 81.2,128.8 			"/>
			<polygon class="st6" points="63.7,113.8 63.7,116.3 77.8,124.7 77.8,122.1 			"/>
			
				<ellipse transform="matrix(0.9881 -0.1541 0.1541 0.9881 -19.5986 16.4995)" class="st7" cx="96.6" cy="134.7" rx="1.7" ry="2.1"/>
			<polygon class="st3" points="62,124.5 62,135.3 105.4,160.4 105.4,149.5 			"/>
			<polygon class="st3" points="62,139.8 62,150.6 105.4,175.7 105.4,164.8 			"/>
			<polygon class="st3" points="68.3,211.8 68.3,219.1 97.4,235.9 97.4,228.6 			"/>
			<g>
				<g>
					<g>
						<g id="XMLID_6_">
							<g>
								<path class="st8" d="M202,101.3c0.3,2.4,0.2,5.2-0.4,8c-4.9,5.4-10.3,4.1-10.3,4.1c-1.2,6.2,6.8,5.4,6.8,5.4
									c-1.7,3-3.9,5.6-6.4,7.6c-5.8-2.7-4.9-8-4.9-8c-4.5,2.9-3.3,11.9-3.3,12.1c-1.9,0.4-3.8,0.2-5.4-0.5
									c-0.2-0.1-0.5-0.2-0.7-0.4c-1.9-6.2,6-13.3,6-13.3c-3.8-0.4-8.8,5.5-9.6,6.4c-0.3-2.7,0.1-5.9,1-9.1
									c3.4-3.8,10.7-2.8,10.7-2.8c-0.4-5.7-6.4-6-6.6-6c1.7-2.5,3.6-4.7,5.8-6.5c4.9,2,4.2,7.9,4.2,7.9c2.9-2.4,2.8-11.6,2.8-11.9
									c2.3-0.7,4.5-0.7,6.4,0.2v0c1.4,3.2-5.5,13.4-5.5,13.4C195.4,109.3,202,101.3,202,101.3z"/>
								<path class="st9" d="M201.6,109.3c-0.6,3-1.7,6.2-3.3,9c-0.1,0.2-0.2,0.3-0.3,0.5c0,0-8,0.8-6.8-5.4
									C191.3,113.4,196.7,114.7,201.6,109.3z"/>
								<path class="st9" d="M198.5,94.9c2,1.1,3.2,3.4,3.6,6.4c0,0-6.6,8-9.5,6.8c0,0,6.9-10.2,5.5-13.4
									C198.2,94.7,198.3,94.8,198.5,94.9z"/>
								<path class="st9" d="M191.7,94.5c0,0.2,0,9.4-2.8,11.9c0,0,0.8-6-4.2-7.9C186.9,96.6,189.4,95.2,191.7,94.5z"/>
								<path class="st9" d="M186.8,118.4c0,0-0.9,5.3,4.9,8c-2.6,2.1-5.5,3.6-8.2,4.1C183.4,130.2,182.3,121.2,186.8,118.4z"/>
								<path class="st9" d="M185.5,110.9c0,0-7.3-1.1-10.7,2.8c0.7-2.5,1.8-5,3.1-7.3c0.3-0.5,0.6-1,0.9-1.5
									C179.1,104.9,185.1,105.2,185.5,110.9z"/>
								<path class="st9" d="M173.9,122.7c0.8-0.9,5.8-6.8,9.6-6.4c0,0-8,7.1-6,13.3C175.3,128.2,174.2,125.8,173.9,122.7z"/>
							</g>
							<g>
							</g>
						</g>
					</g>
					<g>
						<g>
							<path class="st10" d="M182.4,128.5c-1.1,0-2.2-0.2-3.1-0.7c-1.6-0.7-2.8-2.2-3.4-4.2c-1.4-4.4-0.1-11,3.1-16.6
								c2.2-3.7,5.3-7,8.7-9c3.6-2.1,6.9-2.5,9.5-1.1c1.3,0.7,2.4,2.1,2.9,4c1.3,4.5,0.2,11.2-2.9,16.7l0,0
								C193.8,124.1,187.5,128.5,182.4,128.5z M193.9,97c-4.6,0-10.5,4.2-14.2,10.4c-3.1,5.4-4.4,11.8-3.1,15.9c0.6,1.8,1.6,3,3,3.7
								c4.9,2.3,12.8-2.3,16.9-9.8l0,0c2.9-5.4,4.1-11.8,2.8-16.1c-0.5-1.7-1.4-2.9-2.5-3.5C195.9,97.2,195,97,193.9,97z"/>
						</g>
						<path class="st10" d="M184,124.1c-0.8,0-1.6-0.2-2.3-0.5c-1.2-0.5-2-1.6-2.5-3.1c-1-3.2-0.1-8,2.3-12
							c3.1-5.3,9.1-9.5,13.2-7.3c1,0.5,1.7,1.6,2.2,3c1,3.2,0.1,8.1-2.1,12.1C192.3,120.9,187.7,124.1,184,124.1z M192.3,101.4
							c-3.2,0-7.5,3-10.1,7.4c-2.2,3.8-3.1,8.4-2.2,11.4c0.4,1.3,1.1,2.1,2.1,2.6c3.5,1.6,9.1-1.6,12-7l0,0c2.1-3.8,2.9-8.5,2-11.5
							c-0.4-1.2-0.9-2-1.8-2.5C193.7,101.6,193,101.4,192.3,101.4z"/>
						<path class="st10" d="M185.5,120.1c-0.5,0-1.1-0.1-1.5-0.3c-0.8-0.4-1.4-1.1-1.7-2.1c-0.7-2.1-0.1-5.3,1.5-7.9
							c2-3.5,6-6.2,8.7-4.8c0.7,0.4,1.2,1.1,1.5,2c0.6,2.1,0.1,5.3-1.3,7.9l0,0l0,0C190.9,118,187.9,120.1,185.5,120.1z
							 M190.8,105.4c-2,0-4.7,1.9-6.4,4.7c-1.4,2.5-2,5.4-1.4,7.2c0.2,0.8,0.7,1.3,1.3,1.6c2.1,1,5.7-1.1,7.6-4.4l0,0
							c1.3-2.4,1.8-5.4,1.3-7.3c-0.2-0.7-0.6-1.2-1.1-1.5C191.7,105.5,191.3,105.4,190.8,105.4z"/>
						<path class="st10" d="M186.7,116.7c-0.3,0-0.6-0.1-0.9-0.2c-0.5-0.2-0.8-0.6-1-1.2c-0.4-1.2,0-2.9,0.8-4.4
							c1.4-2.5,3.7-3.3,4.9-2.6c0.4,0.2,0.7,0.6,0.9,1.2c0.4,1.2,0.1,3-0.7,4.4l0,0C189.8,115.4,188.2,116.7,186.7,116.7z
							 M189.6,108.8c-1,0-2.4,1-3.2,2.4c-0.7,1.3-1,2.8-0.7,3.7c0.1,0.4,0.3,0.6,0.6,0.7c1.1,0.5,2.9-0.6,3.8-2.3l0,0
							c0.7-1.3,1-2.8,0.7-3.8c-0.1-0.2-0.2-0.5-0.5-0.7C190,108.9,189.8,108.8,189.6,108.8z"/>
						<path class="st10" d="M176.1,134.4l-0.7-0.4c0.1-0.1,7.9-13.3,10.1-17.9c1.9-3.7,0.2-4.8,0.2-4.8l-9.7-5.6l0.4-0.7l9.7,5.6
							c0.1,0.1,2.4,1.5,0.2,5.9C184,121.1,176.2,134.3,176.1,134.4z"/>
						<path class="st10" d="M201,120.4c-0.3-0.2-8-4.4-10.8-6.2c-2.8-1.8-0.2-6.2-0.1-6.3l10.3-17.3l0.7,0.4l-10.3,17.3
							c0,0-2.2,3.8-0.1,5.2c2.7,1.8,10.6,6.1,10.7,6.2L201,120.4z"/>
					</g>
				</g>
				<g>
					<g>
						<path class="st11" d="M203.8,121.5c-0.7,1.4-2.2,2.3-3.2,1.8s-0.8-2.3,0-3.7c0.8-1.4,2.3-2.3,3.2-1.8
							C204.6,118.3,204.6,120.1,203.8,121.5z"/>
						<path class="st12" d="M204.2,122c-0.7,1.4-2.2,2.3-3.2,1.8s-0.8-2.3,0-3.7c0.8-1.4,2.3-2.3,3.2-1.8
							C205.1,118.7,205,120.6,204.2,122z"/>
					</g>
					<path class="st11" d="M202.7,120c-0.2,0.4-0.5,0.7-0.9,0.8c-0.1,0-0.2,0.2-0.1,0.3c0.2,0.2,0.4,0.4,0.5,0.9
						c0,0.1,0.2,0.2,0.3,0.1c0.2-0.3,0.5-0.5,1-0.5c0.1,0,0.2-0.1,0.1-0.2c-0.2-0.3-0.4-0.7-0.5-1.2
						C203.1,119.9,202.9,119.8,202.7,120z"/>
				</g>
				<g>
					<g>
						<path class="st11" d="M175.9,137.1c-0.6,1.2-1.9,2-2.8,1.6c-0.8-0.4-0.7-2,0-3.2c0.7-1.2,2-2,2.8-1.6
							C176.6,134.3,176.6,135.9,175.9,137.1z"/>
						<path class="st12" d="M176.3,137.5c-0.6,1.2-1.9,2-2.8,1.6c-0.8-0.4-0.7-2,0-3.2c0.7-1.2,2-2,2.8-1.6
							C177,134.7,177,136.3,176.3,137.5z"/>
					</g>
					<path class="st11" d="M175.1,135.7c-0.2,0.4-0.5,0.7-0.9,0.8c-0.1,0-0.2,0.2-0.1,0.3c0.2,0.2,0.4,0.4,0.5,0.9
						c0,0.1,0.2,0.2,0.3,0.1c0.2-0.3,0.5-0.5,1-0.5c0.1,0,0.2-0.1,0.1-0.2c-0.2-0.3-0.4-0.7-0.5-1.2
						C175.4,135.6,175.2,135.5,175.1,135.7z"/>
				</g>
				<g>
					<g>
						<path class="st11" d="M175.9,104.9c-0.6,1.2-1.9,2-2.8,1.6c-0.8-0.4-0.7-2,0-3.2c0.7-1.2,2-2,2.8-1.6
							C176.6,102.1,176.6,103.7,175.9,104.9z"/>
						<path class="st12" d="M176.3,105.3c-0.6,1.2-1.9,2-2.8,1.6c-0.8-0.4-0.7-2,0-3.2c0.7-1.2,2-2,2.8-1.6
							C177,102.5,177,104.1,176.3,105.3z"/>
					</g>
					<path class="st11" d="M175.1,103.5c-0.2,0.4-0.5,0.7-0.9,0.8c-0.1,0-0.2,0.2-0.1,0.3c0.2,0.2,0.4,0.4,0.5,0.9
						c0,0.1,0.2,0.2,0.3,0.1c0.2-0.3,0.5-0.5,1-0.5c0.1,0,0.2-0.1,0.1-0.2c-0.2-0.3-0.4-0.7-0.5-1.2
						C175.4,103.3,175.2,103.3,175.1,103.5z"/>
				</g>
				<g>
					<g>
						<path class="st11" d="M203.6,89.2c-0.6,1.2-1.9,2-2.8,1.6c-0.8-0.4-0.7-2,0-3.2c0.7-1.2,2-2,2.8-1.6
							C204.3,86.4,204.3,88,203.6,89.2z"/>
						<path class="st12" d="M204,89.6c-0.6,1.2-1.9,2-2.8,1.6c-0.8-0.4-0.7-2,0-3.2c0.7-1.2,2-2,2.8-1.6
							C204.7,86.8,204.7,88.4,204,89.6z"/>
					</g>
					<path class="st11" d="M202.7,87.8c-0.2,0.4-0.5,0.7-0.9,0.8c-0.1,0-0.2,0.2-0.1,0.3c0.2,0.2,0.4,0.4,0.5,0.9
						c0,0.1,0.2,0.2,0.3,0.1c0.2-0.3,0.5-0.5,1-0.5c0.1,0,0.2-0.1,0.1-0.2c-0.2-0.3-0.4-0.7-0.5-1.2
						C203.1,87.6,202.9,87.6,202.7,87.8z"/>
				</g>
			</g>
			<g>
				<g>
					<g>
						<g id="XMLID_5_">
							<g>
								<path class="st8" d="M202,167.4c0.3,2.4,0.2,5.2-0.4,8c-4.9,5.4-10.3,4.1-10.3,4.1c-1.2,6.2,6.8,5.4,6.8,5.4
									c-1.7,3-3.9,5.6-6.4,7.6c-5.8-2.7-4.9-8-4.9-8c-4.5,2.9-3.3,11.9-3.3,12.1c-1.9,0.4-3.8,0.2-5.4-0.5
									c-0.2-0.1-0.5-0.2-0.7-0.4c-1.9-6.2,6-13.3,6-13.3c-3.8-0.4-8.8,5.5-9.6,6.4c-0.3-2.7,0.1-5.9,1-9.1
									c3.4-3.8,10.7-2.8,10.7-2.8c-0.4-5.7-6.4-6-6.6-6c1.7-2.5,3.6-4.7,5.8-6.5c4.9,2,4.2,7.9,4.2,7.9c2.9-2.4,2.8-11.6,2.8-11.9
									c2.3-0.7,4.5-0.7,6.4,0.2v0c1.4,3.2-5.5,13.4-5.5,13.4C195.4,175.4,202,167.4,202,167.4z"/>
								<path class="st9" d="M201.6,175.4c-0.6,3-1.7,6.2-3.3,9c-0.1,0.2-0.2,0.3-0.3,0.5c0,0-8,0.8-6.8-5.4
									C191.3,179.5,196.7,180.8,201.6,175.4z"/>
								<path class="st9" d="M198.5,161c2,1.1,3.2,3.4,3.6,6.4c0,0-6.6,8-9.5,6.8c0,0,6.9-10.2,5.5-13.4
									C198.2,160.8,198.3,160.9,198.5,161z"/>
								<path class="st9" d="M191.7,160.6c0,0.2,0,9.4-2.8,11.9c0,0,0.8-6-4.2-7.9C186.9,162.7,189.4,161.3,191.7,160.6z"/>
								<path class="st9" d="M186.8,184.5c0,0-0.9,5.3,4.9,8c-2.6,2.1-5.5,3.6-8.2,4.1C183.4,196.3,182.3,187.3,186.8,184.5z"/>
								<path class="st9" d="M185.5,177c0,0-7.3-1.1-10.7,2.8c0.7-2.5,1.8-5,3.1-7.3c0.3-0.5,0.6-1,0.9-1.5
									C179.1,171,185.1,171.3,185.5,177z"/>
								<path class="st9" d="M173.9,188.8c0.8-0.9,5.8-6.8,9.6-6.4c0,0-8,7.1-6,13.3C175.3,194.4,174.2,191.9,173.9,188.8z"/>
							</g>
							<g>
							</g>
						</g>
					</g>
					<g>
						<g>
							<path class="st10" d="M182.4,194.6c-1.1,0-2.2-0.2-3.1-0.7c-1.6-0.7-2.8-2.2-3.4-4.2c-1.4-4.4-0.1-11,3.1-16.6
								c2.2-3.7,5.3-7,8.7-9c3.6-2.1,6.9-2.5,9.5-1.1c1.3,0.7,2.4,2.1,2.9,4c1.3,4.5,0.2,11.2-2.9,16.7l0,0
								C193.8,190.2,187.5,194.6,182.4,194.6z M193.9,163.1c-4.6,0-10.5,4.2-14.2,10.4c-3.1,5.4-4.4,11.8-3.1,15.9
								c0.6,1.8,1.6,3,3,3.7c4.9,2.3,12.8-2.3,16.9-9.8l0,0c2.9-5.4,4.1-11.8,2.8-16.1c-0.5-1.7-1.4-2.9-2.5-3.5
								C195.9,163.3,195,163.1,193.9,163.1z"/>
						</g>
						<path class="st10" d="M184,190.2c-0.8,0-1.6-0.2-2.3-0.5c-1.2-0.5-2-1.6-2.5-3.1c-1-3.2-0.1-8,2.3-12
							c3.1-5.3,9.1-9.5,13.2-7.3c1,0.5,1.7,1.6,2.2,3c1,3.2,0.1,8.1-2.1,12.1C192.3,187,187.7,190.2,184,190.2z M192.3,167.5
							c-3.2,0-7.5,3-10.1,7.4c-2.2,3.8-3.1,8.4-2.2,11.4c0.4,1.3,1.1,2.1,2.1,2.6c3.5,1.6,9.1-1.6,12-7l0,0c2.1-3.8,2.9-8.5,2-11.5
							c-0.4-1.2-0.9-2-1.8-2.5C193.7,167.7,193,167.5,192.3,167.5z"/>
						<path class="st10" d="M185.5,186.2c-0.5,0-1.1-0.1-1.5-0.3c-0.8-0.4-1.4-1.1-1.7-2.1c-0.7-2.1-0.1-5.3,1.5-7.9
							c2-3.5,6-6.2,8.7-4.8c0.7,0.4,1.2,1.1,1.5,2c0.6,2.1,0.1,5.3-1.3,7.9l0,0l0,0C190.9,184.1,187.9,186.2,185.5,186.2z
							 M190.8,171.5c-2,0-4.7,1.9-6.4,4.7c-1.4,2.5-2,5.4-1.4,7.2c0.2,0.8,0.7,1.3,1.3,1.6c2.1,1,5.7-1.1,7.6-4.4l0,0
							c1.3-2.4,1.8-5.4,1.3-7.3c-0.2-0.7-0.6-1.2-1.1-1.5C191.7,171.6,191.3,171.5,190.8,171.5z"/>
						<path class="st10" d="M186.7,182.8c-0.3,0-0.6-0.1-0.9-0.2c-0.5-0.2-0.8-0.6-1-1.2c-0.4-1.2,0-2.9,0.8-4.4
							c1.4-2.5,3.7-3.3,4.9-2.6c0.4,0.2,0.7,0.6,0.9,1.2c0.4,1.2,0.1,3-0.7,4.4l0,0C189.8,181.5,188.2,182.8,186.7,182.8z
							 M189.6,174.9c-1,0-2.4,1-3.2,2.4c-0.7,1.3-1,2.8-0.7,3.7c0.1,0.4,0.3,0.6,0.6,0.7c1.1,0.5,2.9-0.6,3.8-2.3l0,0
							c0.7-1.3,1-2.8,0.7-3.8c-0.1-0.2-0.2-0.5-0.5-0.7C190,175,189.8,174.9,189.6,174.9z"/>
						<path class="st10" d="M176.1,200.5l-0.7-0.4c0.1-0.1,7.9-13.3,10.1-17.9c1.9-3.7,0.2-4.8,0.2-4.8l-9.7-5.6l0.4-0.7l9.7,5.6
							c0.1,0.1,2.4,1.5,0.2,5.9C184,187.2,176.2,200.4,176.1,200.5z"/>
						<path class="st10" d="M201,186.5c-0.3-0.2-8-4.4-10.8-6.2c-2.8-1.8-0.2-6.2-0.1-6.3l10.3-17.3l0.7,0.4l-10.3,17.3
							c0,0-2.2,3.8-0.1,5.2c2.7,1.8,10.6,6.1,10.7,6.2L201,186.5z"/>
					</g>
				</g>
				<g>
					<g>
						<path class="st11" d="M203.8,187.6c-0.7,1.4-2.2,2.3-3.2,1.8s-0.8-2.3,0-3.7c0.8-1.4,2.3-2.3,3.2-1.8
							C204.6,184.4,204.6,186.2,203.8,187.6z"/>
						<path class="st12" d="M204.2,188.1c-0.7,1.4-2.2,2.3-3.2,1.8s-0.8-2.3,0-3.7c0.8-1.4,2.3-2.3,3.2-1.8
							C205.1,184.8,205,186.7,204.2,188.1z"/>
					</g>
					<path class="st11" d="M202.7,186.1c-0.2,0.4-0.5,0.7-0.9,0.8c-0.1,0-0.2,0.2-0.1,0.3c0.2,0.2,0.4,0.4,0.5,0.9
						c0,0.1,0.2,0.2,0.3,0.1c0.2-0.3,0.5-0.5,1-0.5c0.1,0,0.2-0.1,0.1-0.2c-0.2-0.3-0.4-0.7-0.5-1.2
						C203.1,186,202.9,185.9,202.7,186.1z"/>
				</g>
				<g>
					<g>
						<path class="st11" d="M175.9,203.2c-0.6,1.2-1.9,2-2.8,1.6c-0.8-0.4-0.7-2,0-3.2c0.7-1.2,2-2,2.8-1.6
							C176.6,200.4,176.6,202,175.9,203.2z"/>
						<path class="st12" d="M176.3,203.6c-0.6,1.2-1.9,2-2.8,1.6c-0.8-0.4-0.7-2,0-3.2c0.7-1.2,2-2,2.8-1.6
							C177,200.8,177,202.4,176.3,203.6z"/>
					</g>
					<path class="st11" d="M175.1,201.8c-0.2,0.4-0.5,0.7-0.9,0.8c-0.1,0-0.2,0.2-0.1,0.3c0.2,0.2,0.4,0.4,0.5,0.9
						c0,0.1,0.2,0.2,0.3,0.1c0.2-0.3,0.5-0.5,1-0.5c0.1,0,0.2-0.1,0.1-0.2c-0.2-0.3-0.4-0.7-0.5-1.2
						C175.4,201.7,175.2,201.6,175.1,201.8z"/>
				</g>
				<g>
					<g>
						<path class="st11" d="M175.9,171c-0.6,1.2-1.9,2-2.8,1.6c-0.8-0.4-0.7-2,0-3.2c0.7-1.2,2-2,2.8-1.6
							C176.6,168.2,176.6,169.8,175.9,171z"/>
						<path class="st12" d="M176.3,171.4c-0.6,1.2-1.9,2-2.8,1.6c-0.8-0.4-0.7-2,0-3.2c0.7-1.2,2-2,2.8-1.6
							C177,168.6,177,170.2,176.3,171.4z"/>
					</g>
					<path class="st11" d="M175.1,169.6c-0.2,0.4-0.5,0.7-0.9,0.8c-0.1,0-0.2,0.2-0.1,0.3c0.2,0.2,0.4,0.4,0.5,0.9
						c0,0.1,0.2,0.2,0.3,0.1c0.2-0.3,0.5-0.5,1-0.5c0.1,0,0.2-0.1,0.1-0.2c-0.2-0.3-0.4-0.7-0.5-1.2
						C175.4,169.4,175.2,169.4,175.1,169.6z"/>
				</g>
				<g>
					<g>
						<path class="st11" d="M203.6,155.3c-0.6,1.2-1.9,2-2.8,1.6s-0.7-2,0-3.2c0.7-1.2,2-2,2.8-1.6
							C204.3,152.5,204.3,154.1,203.6,155.3z"/>
						<path class="st12" d="M204,155.7c-0.6,1.2-1.9,2-2.8,1.6s-0.7-2,0-3.2c0.7-1.2,2-2,2.8-1.6C204.7,152.9,204.7,154.5,204,155.7
							z"/>
					</g>
					<path class="st11" d="M202.7,153.9c-0.2,0.4-0.5,0.7-0.9,0.8c-0.1,0-0.2,0.2-0.1,0.3c0.2,0.2,0.4,0.4,0.5,0.9
						c0,0.1,0.2,0.2,0.3,0.1c0.2-0.3,0.5-0.5,1-0.5c0.1,0,0.2-0.1,0.1-0.2c-0.2-0.3-0.4-0.7-0.5-1.2
						C203.1,153.7,202.9,153.7,202.7,153.9z"/>
				</g>
			</g>
			<linearGradient id="SVGID_1_" gradientUnits="userSpaceOnUse" x1="122.9359" y1="182.3939" x2="125.8279" y2="182.3939">
				<stop  offset="2.415865e-02" style="stop-color:#413D3E"/>
				<stop  offset="1" style="stop-color:#575455"/>
			</linearGradient>
			<polygon class="st13" points="122.9,131 125.8,129.3 125.8,233.4 122.9,235.5 			"/>
			<linearGradient id="SVGID_2_" gradientUnits="userSpaceOnUse" x1="116.9453" y1="186.5253" x2="119.8373" y2="186.5253">
				<stop  offset="2.415865e-02" style="stop-color:#413D3E"/>
				<stop  offset="1" style="stop-color:#575455"/>
			</linearGradient>
			<polygon class="st14" points="116.9,135.1 119.8,133.4 119.8,237.5 116.9,239.6 			"/>
			<linearGradient id="SVGID_3_" gradientUnits="userSpaceOnUse" x1="129.3396" y1="179.0887" x2="132.2316" y2="179.0887">
				<stop  offset="2.415865e-02" style="stop-color:#413D3E"/>
				<stop  offset="1" style="stop-color:#575455"/>
			</linearGradient>
			<polygon class="st15" points="129.3,127.7 132.2,126 132.2,230.1 129.3,232.2 			"/>
			<linearGradient id="SVGID_4_" gradientUnits="userSpaceOnUse" x1="135.5368" y1="175.3704" x2="138.4288" y2="175.3704">
				<stop  offset="2.415865e-02" style="stop-color:#413D3E"/>
				<stop  offset="1" style="stop-color:#575455"/>
			</linearGradient>
			<polygon class="st16" points="135.5,123.9 138.4,122.3 138.4,226.4 135.5,228.5 			"/>
			<linearGradient id="SVGID_5_" gradientUnits="userSpaceOnUse" x1="141.7339" y1="171.6521" x2="144.6259" y2="171.6521">
				<stop  offset="2.415865e-02" style="stop-color:#413D3E"/>
				<stop  offset="1" style="stop-color:#575455"/>
			</linearGradient>
			<polygon class="st17" points="141.7,120.2 144.6,118.6 144.6,222.7 141.7,224.7 			"/>
			<linearGradient id="SVGID_6_" gradientUnits="userSpaceOnUse" x1="147.9311" y1="167.9338" x2="150.8231" y2="167.9338">
				<stop  offset="2.415865e-02" style="stop-color:#413D3E"/>
				<stop  offset="1" style="stop-color:#575455"/>
			</linearGradient>
			<polygon class="st18" points="147.9,116.5 150.8,114.8 150.8,219 147.9,221 			"/>
			<linearGradient id="SVGID_7_" gradientUnits="userSpaceOnUse" x1="154.1283" y1="164.6287" x2="157.0202" y2="164.6287">
				<stop  offset="2.415865e-02" style="stop-color:#413D3E"/>
				<stop  offset="1" style="stop-color:#575455"/>
			</linearGradient>
			<polygon class="st19" points="154.1,113.2 157,111.5 157,215.7 154.1,217.7 			"/>
			<linearGradient id="SVGID_8_" gradientUnits="userSpaceOnUse" x1="160.3254" y1="160.9104" x2="163.2174" y2="160.9104">
				<stop  offset="2.415865e-02" style="stop-color:#413D3E"/>
				<stop  offset="1" style="stop-color:#575455"/>
			</linearGradient>
			<polygon class="st20" points="160.3,109.5 163.2,107.8 163.2,211.9 160.3,214 			"/>
			<polygon class="st6" points="84.9,124.2 87.4,125.9 87.4,132.6 84.9,130.9 			"/>
			<polygon class="st6" points="88.6,126.3 91.1,127.9 91.1,134.6 88.6,133 			"/>
			
				<ellipse transform="matrix(0.9881 -0.1541 0.1541 0.9881 -19.9263 17.2295)" class="st21" cx="101.2" cy="137.1" rx="1.7" ry="2.1"/>
			<linearGradient id="SVGID_9_" gradientUnits="userSpaceOnUse" x1="95.4224" y1="134.6534" x2="97.8109" y2="134.6534">
				<stop  offset="0" style="stop-color:#575455"/>
				<stop  offset="0.9758" style="stop-color:#413D3E"/>
			</linearGradient>
			<path class="st22" d="M97.8,134.5c0.1,0.8-0.3,1.5-0.9,1.6c-0.6,0.1-1.3-0.5-1.4-1.3c-0.1-0.8,0.3-1.5,0.9-1.6
				C97,133.1,97.7,133.7,97.8,134.5z"/>
			<linearGradient id="SVGID_10_" gradientUnits="userSpaceOnUse" x1="100.0719" y1="137.1322" x2="102.2505" y2="137.1322">
				<stop  offset="0" style="stop-color:#575455"/>
				<stop  offset="0.9758" style="stop-color:#413D3E"/>
			</linearGradient>
			<path class="st23" d="M102.2,137c0.1,0.7-0.3,1.4-0.9,1.5c-0.6,0.1-1.2-0.4-1.3-1.2s0.3-1.4,0.9-1.5
				C101.5,135.7,102.1,136.2,102.2,137z"/>
			<polygon class="st24" points="81.6,123.1 82.5,123.7 82.4,128.9 81.6,128.2 			"/>
			<polygon class="st24" points="89.1,127.2 89.9,127.9 89.9,133 89,132.4 			"/>
			<polygon class="st24" points="85.3,125.2 86.2,125.8 86.2,131 85.3,130.3 			"/>
		</g>
		<g>
			<path class="st25" d="M103.4,250.9c2.3-2.4,4.9-4.6,7.8-6.2c2.5-1.4,5.2-2.4,7.8-3.6c5.4-2.5,10.4-5.9,15.4-9.2
				c10.5-6.8,21.4-13,32.7-18.5c3.5-1.7,7.1-3.4,10.5-5.4c6.5-3.9,12.1-9,18.7-12.5c3-1.6,6.2-3,8.9-5.1c2.7-2.1,4.8-7.8,7.3-10.2
				c2.5-2.4,4.4-12.5,7.8-12.4l1,19.2l-116.1,66.9L103.4,250.9z"/>
		</g>
		<g>
			<path class="st25" d="M57.7,218.7c2.8,2.1,5.9,3.6,9.3,4.6c1,0.3,2,0.5,2.9,0.9c1,0.4,1.9,1,2.8,1.6c3.2,2,6.3,4,9.5,6
				c1.7,1.1,3.4,2.2,5.4,2.8c1.4,0.5,3,0.7,4.4,1.2c2.9,1.1,5.1,3.6,8,4.9c2.3,1.1,4.9,1.4,7,2.7c2.4,1.5,4.1,4,6.7,5.2l-8.3,5.3
				L55,223.3L57.7,218.7z"/>
		</g>
	</g>
	<g>
		<ellipse class="st26" cx="107.9" cy="45.6" rx="2.4" ry="3"/>
		<ellipse class="st26" cx="142.3" cy="93.6" rx="1" ry="1.2"/>
		<ellipse class="st26" cx="73.9" cy="141.3" rx="0.7" ry="0.9"/>
		<ellipse class="st26" cx="51.7" cy="204.3" rx="0.6" ry="0.7"/>
		<ellipse class="st26" cx="160.5" cy="25" rx="0.8" ry="1"/>
		<path class="st26" d="M83.4,151c-0.2,0.3,0.3,1.9,0.5,2.2c0.3,0.2,0.6,0.2,0.9,0.1c0.7-0.3,1-1.6,0.6-2.4
			C85.1,150.2,84,150.4,83.4,151"/>
		<path class="st26" d="M290,161.5c0.3,0.6,1.1,0.7,1.4,0.1s0.1-1.5-0.5-1.6c-0.5-0.1-1.1,0.6-1,1.2"/>
		<path class="st26" d="M94.5,156.5c0,1,1,1.4,1.5,1.2s0.8-1,0.6-1.6C96.3,155.6,94.5,155.1,94.5,156.5"/>
		<path class="st26" d="M30.4,178.5c-0.3,0.4-0.3,1.2,0,1.6c0.3,0.3,0.7,0.5,1.2,0.4c0.4,0,0.9-0.2,1.1-0.7
			C32.9,179.1,31.2,177.1,30.4,178.5"/>
		<path class="st26" d="M41.5,97.4c-0.1,0.2,0,0.6,0.2,0.7c0.3,0.1,0.6-0.2,0.6-0.6c-0.1-0.4-0.5-0.6-0.7-0.3"/>
		<path class="st26" d="M259.1,180.8c-0.3,0.4-0.5,1.2-0.2,1.7c0.3,0.4,0.9,0.4,1.2,0C260.4,181.9,259.8,180.4,259.1,180.8"/>
		<path class="st26" d="M61.1,190.3c0.3,1.1,2.7,1.4,3.1,0.3c0.4-1-0.3-2.5-1.3-2.5C61.9,188.1,61.1,189.2,61.1,190.3"/>
		<path class="st26" d="M152.3,173.3c-0.6,1,0.2,2.4,0.5,2.5c0.3,0.1,0.6-0.1,0.8-0.4c0.4-0.6,0.5-1.5,0.1-2.1
			c-0.4-0.6-1.2-0.6-1.5,0.1"/>
		<path class="st26" d="M88.5,137.9c0.4,0.4,1.6-0.8,1.4-1.4c-0.1-0.7-0.9-1-1.3-0.6C88.1,136.3,87.8,137.5,88.5,137.9"/>
		<path class="st26" d="M38.3,104.4c-0.3,0.4-0.5,0.7-0.3,1.4c0.2,0.7,0.9,1.2,1.4,0.9c0.5-0.3,0.6-1.2,0.3-1.8
			C39.3,104.4,38.8,104.1,38.3,104.4"/>
		<path class="st26" d="M148.2,49.5c-0.2,0.5,0.1,1,0.4,1.4c0.3,0.4,0.9,0.4,1.1,0c0.3-0.4,0.1-1.1-0.3-1.4
			C149,49.3,148.5,49.1,148.2,49.5"/>
		<path class="st26" d="M173.5,127.3c-0.3,1,0,2.3,0.8,2.4c0.3,0,0.5-0.1,0.8-0.2c0.5-0.4,1-1.1,0.8-1.8
			C175.7,127,174,125.9,173.5,127.3"/>
		<path class="st26" d="M163,138.1c0.5,0.3,1.3,0.2,1.4-0.4c0.2-0.6-0.2-1.4-0.7-1.4C163.2,136.1,162.5,137,163,138.1"/>
		<path class="st26" d="M119.2,183.3c-0.1,0.7-0.1,1,0.1,1.7c0.2,0.7,0.8,1.1,1.3,0.8c0.5-0.3,0.7-2.4,0.3-2.9
			C120.5,182.5,119.8,182.6,119.2,183.3"/>
		<path class="st26" d="M130.1,198.9c-0.5,0.9,0,2.3,0.8,2.4c0.8,0.2,1.7-1,1.4-2c-0.3-1-1.4-1.4-2.1-0.7"/>
		<path class="st26" d="M196.9,193.6c-0.6,0-0.8,0.3-0.8,0.8c-0.3,1,0.9,2.2,1.6,1.5C198.5,195.2,197.8,193.5,196.9,193.6"/>
		<path class="st26" d="M219.1,168.9c0,1.4,2.1,2.2,2.5,1.5c0.3-0.7-0.1-1.7-0.7-2C220.3,168,219.7,167.8,219.1,168.9"/>
		<path class="st26" d="M180.1,234.8c-0.5,0.6-0.6,0.9-1,1.7s-0.3,1.8,0.2,2.4c0.7,1,2.2,0.3,2.5-1S181.8,234.4,180.1,234.8"/>
		<path class="st26" d="M184.9,63.9c-0.4,0.7-0.2,2.4,0.5,2.4s1.4,0,1.8-0.7c0.1-0.2,0.3-1.4-0.5-1.8
			C186.1,63.5,185.5,63.2,184.9,63.9"/>
		<path class="st26" d="M243.6,61.3c0.3,0,0.7-0.1,0.9-0.2c0.2-0.2,0.2-0.5,0.1-0.8c-0.1-0.7-0.6-1.4-1.2-1.3s-1,0.9-0.7,1.6
			C243,60.9,243.2,61.3,243.6,61.3"/>
		<path class="st26" d="M230.6,37.7c0,0.9,0.5,2.5,1.2,2.7c1.1,0.2,2.2-1.3,1.9-2.6C233.4,36.4,231.1,36,230.6,37.7"/>
		<path class="st26" d="M278.9,108.7c-0.9,1.1-0.3,2.1,0.1,2.9c0.4,0.9,1.6,1.3,2,0.4c0.1-0.3,0.2-0.6,0.2-1c0-0.6-0.1-1.6-0.5-2
			S279.7,108,278.9,108.7"/>
		<path class="st26" d="M301,82.6c-0.8,0.3-0.7,2.1-0.1,2.2s1.3-0.5,1.2-1.3C302.1,82.6,301.5,82.4,301,82.6"/>
		<path class="st26" d="M12.7,248.4c-0.4,0.4-1.3,1.6-1.4,2.2c-0.5,1.7-0.4,2.8,0.9,3.7c0.8,0.7,1.9,0.3,2.6-0.5
			c0.7-0.8,1.1-1.9,1.4-3c0.1-0.4,0.3-0.9,0.2-1.3c-0.1-0.4-0.4-0.7-0.6-0.9C14.6,247.6,13.4,247.5,12.7,248.4"/>
		<path class="st26" d="M124.8,70.9c0.5,0.3,1.5-0.3,1.4-1s-1-0.7-1.4-0.2C124.5,70.1,124.5,70.5,124.8,70.9"/>
		<path class="st26" d="M253.7,145.6c-0.5,0.9,0.1,2.3,0.9,2.5c0.8,0.2,1.7-0.3,2.5-0.8c0.3-0.2,0.5-1,0.5-1.4
			c0-0.4-0.6-1.2-0.8-1.4C255.9,144,254.5,144.9,253.7,145.6"/>
		<path class="st26" d="M62.6,73.6c-0.8,1-1.4,2.7-0.6,3.5c0.2,0.2,0.8,0.3,1,0.5c0.1,0.1,0.3,0.1,0.4,0c0.4-0.1,0.7-0.3,1-0.7
			C65.5,74.8,63.8,72.8,62.6,73.6"/>
		<path class="st26" d="M24.7,87.1c0.2,1.2,1.4,2,2.3,1.5c0.9-0.5,1.2-2.2,0.6-3.1c-0.6-1-2.2,0.6-2.8,1.6"/>
		<path class="st26" d="M13,66.7c0.6,0.4,1.7,0,1.7-0.9c0-0.9-0.9-1.6-1.5-1.3C12.7,65.5,12.4,65.9,13,66.7"/>
		<path class="st26" d="M271.5,283.4c-0.8,1.1,1.5,3,2.6,2.5c1.1-0.5,1.3-2.7,0.4-3.5C273.4,281.6,271.9,282,271.5,283.4"/>
		<path class="st26" d="M286.3,261c0.4,1.8,2.3,1.1,2.9-0.2c0.6-1.3-0.2-3.1-1.3-3.4C286.7,257.2,285.6,259.3,286.3,261"/>
		<path class="st26" d="M112.9,18.3c-0.6,0.4-0.5,2.4,0.2,3.1s1.7-0.3,1.6-1.3C114.5,19.1,113.2,18.1,112.9,18.3"/>
		<path class="st26" d="M219.5,277.7c-0.1,0.3,0.7,1.8,1.3,1.4c0.8-0.5,0.8-0.5,1-1.2C221.4,277.1,220.1,277,219.5,277.7"/>
		<path class="st26" d="M53.8,242.9c-0.6,0.7,0.1,2.2,1,2.1c0.9-0.1,1.4-1.4,1-2.4C55.3,241.7,54.6,242.5,53.8,242.9"/>
		<path class="st26" d="M69.3,289c-0.5-0.7-1.9-0.1-2.1,0.9c-0.2,1.2-0.2,2.1,0.7,2.8c0.8,0.7,2,0,2.3-1.1
			C70.4,290.6,70.2,289.5,69.3,289"/>
		<path class="st26" d="M27.6,274.3c0.5,0.5,2,0,1.9-0.7c0-0.8-0.9-1.3-1.4-1C27.6,272.9,27.3,273.6,27.6,274.3"/>
		<ellipse class="st26" cx="208.6" cy="116.8" rx="1.7" ry="2.1"/>
		<ellipse class="st26" cx="50.7" cy="45.6" rx="1" ry="1.2"/>
		<path class="st26" d="M40.3,41.6l-1.1-0.3l0.5-0.3c0.1-0.1,0.1-0.2,0.1-0.4c-0.1-0.1-0.2-0.1-0.4-0.1l-0.8,0.6l-1.9-0.4l1-0.9
			c0.1-0.1,0.1-0.3,0-0.4c-0.1-0.1-0.3-0.1-0.4,0L36,40.6l-2.2-0.5l1.6-1.6c0.1-0.1,0.1-0.3,0-0.4c-0.1-0.1-0.3-0.1-0.4,0l-1.9,1.8
			l-2.5-0.6l2.8-2.5c0.1-0.1,0.1-0.2,0.1-0.3c0-0.1-0.1-0.2-0.2-0.2L29.4,36l1.7-2l2.7,0.3c0,0,0.1,0,0.1,0c0.1,0,0.2-0.1,0.2-0.2
			c0-0.1-0.1-0.3-0.2-0.3l-2.3-0.2l1.4-1.7l1.9,0c0,0,0.1,0,0.1,0c0.1,0,0.2-0.1,0.2-0.2c0-0.1-0.1-0.3-0.3-0.3l-1.5,0l1.3-1.5
			l1,0.1c0,0,0.1,0,0.1,0c0.1,0,0.2-0.1,0.2-0.2c0-0.1-0.1-0.3-0.2-0.3L35,29.2l0.9-1.1c0.1-0.1,0.1-0.3,0-0.4
			c-0.1-0.1-0.3-0.1-0.4,0l-0.8,1l-0.1-0.5c0-0.1-0.2-0.2-0.3-0.2c-0.1,0-0.2,0.2-0.2,0.3l0.2,0.9L33,30.9l-0.3-1.4
			c0-0.1-0.2-0.2-0.3-0.2c-0.1,0-0.2,0.2-0.2,0.3l0.4,1.8l-1.4,1.7l-0.6-2.2c0-0.1-0.2-0.2-0.3-0.2c-0.1,0-0.2,0.2-0.2,0.3l0.7,2.6
			l-1.7,2L28.4,32c0-0.1-0.1-0.2-0.2-0.2c-0.1,0-0.2,0-0.3,0.1l-2,3l-0.8-2.4l1.6-2.2c0.1-0.1,0.1-0.3-0.1-0.4
			c-0.1-0.1-0.3-0.1-0.4,0.1l-1.4,1.9l-0.7-2.1l1-1.6c0.1-0.1,0-0.3-0.1-0.4c-0.1-0.1-0.3,0-0.4,0.1L24,29.1l-0.6-1.8l0.5-0.9
			c0.1-0.1,0-0.3-0.1-0.4c-0.1-0.1-0.3,0-0.4,0.1l-0.3,0.5l-0.4-1.2c0-0.1-0.2-0.2-0.3-0.2s-0.2,0.2-0.2,0.3l0.4,1.2l-0.6-0.2
			c-0.1-0.1-0.3,0-0.3,0.1c-0.1,0.1,0,0.3,0.1,0.3l1,0.4l0.6,1.8l-1.4-0.5c-0.1-0.1-0.3,0-0.3,0.1c-0.1,0.1,0,0.3,0.1,0.3l1.8,0.7
			l0.7,2.1l-2.3-0.7c-0.1,0-0.3,0-0.3,0.2c0,0.1,0,0.3,0.2,0.3l2.6,0.8l0.8,2.5l-3.6-1.4c-0.1,0-0.2,0-0.3,0.1
			c-0.1,0.1-0.1,0.2,0,0.3l1.6,3.5L20.6,37l-0.9-2.5c0-0.1-0.2-0.2-0.3-0.2c-0.1,0-0.2,0.2-0.2,0.3l0.8,2.1l-2.2-0.5L17,34.7
			c-0.1-0.1-0.2-0.2-0.3-0.1c-0.1,0.1-0.2,0.2-0.1,0.3l0.6,1.4l-1.8-0.4l-0.6-1c-0.1-0.1-0.2-0.2-0.3-0.1c-0.1,0.1-0.2,0.2-0.1,0.3
			l0.3,0.7l-1.3-0.3c-0.1,0-0.3,0.1-0.3,0.2c0,0.1,0.1,0.3,0.2,0.3l1.3,0.3L14,36.5c-0.1,0.1-0.2,0.2-0.1,0.4
			c0.1,0.1,0.2,0.1,0.3,0.1c0,0,0,0,0.1,0l0.9-0.6l1.8,0.4l-1.1,0.9c-0.1,0.1-0.1,0.3,0,0.4c0.1,0.1,0.2,0.1,0.3,0.1
			c0,0,0.1,0,0.1,0l1.4-1.2l2.2,0.5L18.2,39c-0.1,0.1-0.1,0.3,0,0.4c0.1,0.1,0.2,0.1,0.3,0.1c0,0,0.1,0,0.1-0.1l1.9-1.8l2.4,0.6
			l-2.8,2.4C20,40.6,20,40.7,20,40.8c0,0.1,0.1,0.2,0.2,0.2l3.9,0.6l-1.6,2l-2.7-0.3c-0.1,0-0.3,0.1-0.3,0.2c0,0.1,0.1,0.3,0.2,0.3
			l2.4,0.2l-1.4,1.6l-2,0.1c-0.1,0-0.3,0.1-0.2,0.3s0.1,0.3,0.3,0.2l1.6,0L19,47.7l-1-0.1c-0.1,0-0.3,0.1-0.3,0.2
			c0,0.1,0.1,0.3,0.2,0.3l0.7,0.1l-0.8,0.9c-0.1,0.1-0.1,0.3,0,0.4c0.1,0.1,0.2,0.1,0.2,0c0,0,0.1,0,0.1-0.1l0.7-0.9l0.1,0.6
			c0,0.1,0.2,0.2,0.3,0.2c0,0,0,0,0,0c0.1,0,0.2-0.2,0.2-0.3l-0.2-1l1.3-1.6l0.2,1.4c0,0.1,0.1,0.2,0.3,0.2c0,0,0,0,0.1,0
			c0.1,0,0.2-0.1,0.2-0.3l-0.2-1.9l1.4-1.6l0.6,2.3c0,0.1,0.2,0.2,0.3,0.2c0,0,0,0,0,0c0.1,0,0.2-0.2,0.2-0.3l-0.7-2.6l1.6-1.9
			l0.8,3.5c0,0.1,0.1,0.2,0.2,0.2c0.1,0,0.2,0,0.3-0.1l2-3l0.7,2.3L27,47c-0.1,0.1-0.1,0.3,0.1,0.4c0.1,0.1,0.2,0.1,0.2,0
			c0,0,0.1,0,0.1-0.1l1.4-1.8l0.7,2.1l-1,1.5c-0.1,0.1,0,0.3,0.1,0.4c0.1,0.1,0.3,0,0.4-0.1l0.8-1.2l0.6,1.9L29.7,51
			c-0.1,0.1,0,0.3,0.1,0.4c0.1,0.1,0.3,0,0.4-0.1l0.3-0.5l0.4,1.3c0,0.1,0.2,0.2,0.3,0.2c0.1,0,0.2-0.2,0.2-0.3L31,50.6l0.6,0.2
			c0.1,0,0.1,0,0.2,0c0.1,0,0.1-0.1,0.2-0.1c0.1-0.1,0-0.3-0.1-0.3L30.8,50l-0.6-1.9l1.4,0.6c0.1,0,0.1,0,0.2,0
			c0.1,0,0.1-0.1,0.2-0.1c0.1-0.1,0-0.3-0.1-0.3l-1.8-0.8l-0.7-2.1l2.1,0.7c0.1,0,0.3,0,0.3-0.2c0-0.1,0-0.3-0.2-0.3L29,44.7
			l-0.7-2.3l3.5,1.3c0.1,0,0.1,0,0.2,0c0,0,0.1,0,0.1-0.1c0.1-0.1,0.1-0.2,0-0.3l-1.5-3.5l2.4,0.6l0.9,2.5c0,0.1,0.2,0.2,0.3,0.2
			c0,0,0,0,0,0c0.1,0,0.2-0.2,0.1-0.3l-0.8-2.1l2.2,0.5l0.7,1.6c0.1,0.1,0.2,0.2,0.3,0.1c0,0,0,0,0,0c0.1-0.1,0.2-0.2,0.1-0.3
			l-0.6-1.3l1.9,0.4l0.4,0.9c0.1,0.1,0.2,0.2,0.3,0.1c0,0,0,0,0,0c0.1-0.1,0.2-0.2,0.1-0.3L39,41.8l1.2,0.3c0,0,0.1,0,0.1,0
			c0.1,0,0.1-0.1,0.2-0.2C40.5,41.8,40.4,41.6,40.3,41.6z M32.7,36.9l-2.6,2.4l-2.8-0.7l1.8-2.1L32.7,36.9z M28,32.7l0.7,3.4
			l-1.7,2.1l-0.9-2.7L28,32.7z M22.1,34.4l3.4,1.3l0.9,2.6l-2.8-0.6L22.1,34.4z M20.9,40.5l2.7-2.3l2.8,0.6l-1.8,2.2L20.9,40.5z
			 M25.7,44.7l-0.7-3.3l1.8-2.2l0.9,2.7L25.7,44.7z M31.4,43l-3.3-1.2l-0.9-2.7l2.8,0.6L31.4,43z"/>
		<path class="st26" d="M232.1,110.3l-0.7,0.2l0.2-0.3c0-0.1,0-0.2-0.1-0.2c-0.1,0-0.2,0-0.2,0.1l-0.3,0.6l-1.2,0.3l0.3-0.8
			c0-0.1,0-0.2-0.1-0.2c-0.1,0-0.2,0-0.2,0.1l-0.4,1l-1.4,0.3l0.5-1.4c0-0.1,0-0.2-0.1-0.2c-0.1,0-0.2,0-0.2,0.1l-0.5,1.6l-1.5,0.4
			l0.8-2.2c0-0.1,0-0.1,0-0.2c0,0-0.1-0.1-0.2,0l-2.3,0.9l0.4-1.6l1.6-0.6c0,0,0,0,0.1,0c0,0,0.1-0.1,0-0.2c0-0.1-0.1-0.1-0.2-0.1
			l-1.4,0.5l0.3-1.4l1.1-0.5c0,0,0,0,0,0c0,0,0.1-0.1,0-0.2c0-0.1-0.1-0.1-0.2-0.1l-0.8,0.4l0.3-1.2l0.6-0.2c0,0,0,0,0.1,0
			c0,0,0.1-0.1,0-0.2c0-0.1-0.1-0.1-0.2-0.1l-0.4,0.2l0.2-0.8c0-0.1,0-0.2-0.1-0.2c-0.1,0-0.2,0-0.2,0.1l-0.2,0.8l-0.2-0.2
			c-0.1-0.1-0.2-0.1-0.2,0c-0.1,0.1-0.1,0.2,0,0.2l0.3,0.4l-0.3,1.3l-0.6-0.7c-0.1-0.1-0.2-0.1-0.2,0c-0.1,0.1-0.1,0.2,0,0.2
			l0.8,0.9l-0.3,1.4l-1-1.1c-0.1-0.1-0.2-0.1-0.2,0c-0.1,0.1-0.1,0.2,0,0.2l1.1,1.3l-0.4,1.6l-1.4-1.8c0-0.1-0.1-0.1-0.2-0.1
			c-0.1,0-0.1,0.1-0.1,0.1l-0.3,2.3l-1.1-1.1l0.3-1.7c0-0.1,0-0.2-0.1-0.2c-0.1,0-0.2,0-0.2,0.1l-0.3,1.5l-1-1l0.1-1.2
			c0-0.1-0.1-0.2-0.1-0.2c-0.1,0-0.2,0.1-0.2,0.1l-0.1,0.9l-0.9-0.9l0-0.6c0-0.1-0.1-0.2-0.1-0.2c-0.1,0-0.2,0.1-0.2,0.1l0,0.4
			l-0.6-0.6c-0.1-0.1-0.2-0.1-0.2,0c-0.1,0.1-0.1,0.2,0,0.2l0.6,0.6l-0.4,0c-0.1,0-0.2,0.1-0.1,0.2c0,0.1,0.1,0.2,0.2,0.1l0.7-0.1
			l0.8,0.8l-0.9,0.1c-0.1,0-0.2,0.1-0.1,0.2c0,0.1,0.1,0.2,0.2,0.1l1.2-0.1l1,1l-1.5,0.2c-0.1,0-0.1,0.1-0.1,0.2
			c0,0.1,0.1,0.1,0.2,0.1l1.7-0.3l1.1,1.1l-2.4,0.2c-0.1,0-0.1,0.1-0.1,0.1c0,0.1,0,0.1,0.1,0.2l1.9,1.5l-1.5,0.4l-1.2-1.1
			c-0.1-0.1-0.2-0.1-0.2,0c-0.1,0.1-0.1,0.2,0,0.2l1,1l-1.4,0.3l-0.9-0.8c-0.1-0.1-0.2,0-0.2,0c-0.1,0.1,0,0.2,0,0.2l0.7,0.6
			l-1.1,0.3l-0.6-0.4c-0.1-0.1-0.2,0-0.2,0c-0.1,0.1,0,0.2,0,0.2l0.4,0.3l-0.8,0.2c-0.1,0-0.1,0.1-0.1,0.2c0,0.1,0.1,0.1,0.2,0.1
			l0.8-0.2l-0.2,0.3c0,0.1,0,0.2,0.1,0.2c0.1,0,0.1,0,0.2,0c0,0,0,0,0,0l0.4-0.6l1.1-0.3l-0.4,0.8c0,0.1,0,0.2,0.1,0.2
			c0.1,0,0.1,0,0.2,0c0,0,0,0,0,0l0.5-1l1.4-0.3l-0.5,1.3c0,0.1,0,0.2,0.1,0.2c0.1,0,0.1,0,0.2,0c0,0,0,0,0-0.1l0.6-1.5l1.5-0.4
			l-0.9,2.2c0,0.1,0,0.1,0,0.2c0,0,0.1,0.1,0.2,0l2.4-0.8l-0.4,1.6l-1.6,0.6c-0.1,0-0.1,0.1-0.1,0.2c0,0.1,0.1,0.1,0.2,0.1l1.4-0.5
			l-0.3,1.3l-1.1,0.6c-0.1,0-0.1,0.1-0.1,0.2c0,0.1,0.1,0.1,0.2,0.1l0.9-0.5l-0.3,1.3l-0.6,0.2c-0.1,0-0.1,0.1-0.1,0.2
			c0,0.1,0.1,0.1,0.2,0.1l0.4-0.1l-0.2,0.8c0,0.1,0,0.2,0.1,0.2c0.1,0,0.1,0,0.1,0c0,0,0,0,0-0.1l0.2-0.7l0.2,0.3
			c0.1,0.1,0.2,0.1,0.2,0c0,0,0,0,0,0c0.1-0.1,0.1-0.1,0-0.2l-0.4-0.5l0.3-1.3l0.5,0.8c0,0.1,0.1,0.1,0.2,0c0,0,0,0,0,0
			c0.1-0.1,0.1-0.1,0-0.2l-0.7-1l0.3-1.3l1,1.1c0.1,0.1,0.2,0.1,0.2,0c0,0,0,0,0,0c0.1-0.1,0.1-0.2,0-0.2l-1.2-1.3l0.3-1.5l1.4,1.8
			c0,0,0.1,0.1,0.2,0.1c0.1,0,0.1-0.1,0.1-0.1l0.3-2.2l1.1,1.1l-0.3,1.6c0,0.1,0,0.2,0.1,0.2c0.1,0,0.1,0,0.1,0c0,0,0-0.1,0-0.1
			l0.3-1.4l1,1l-0.1,1.2c0,0.1,0.1,0.2,0.1,0.2c0.1,0,0.2-0.1,0.2-0.1l0.1-0.9l0.9,0.9l-0.1,0.6c0,0.1,0.1,0.2,0.1,0.2
			c0.1,0,0.2-0.1,0.2-0.1l0-0.4l0.6,0.6c0.1,0.1,0.2,0.1,0.2,0s0.1-0.2,0-0.2l-0.6-0.6l0.4,0c0,0,0.1,0,0.1,0c0,0,0.1-0.1,0-0.1
			c0-0.1-0.1-0.2-0.2-0.1l-0.6,0.1l-0.9-0.9l0.9-0.1c0,0,0.1,0,0.1,0c0,0,0.1-0.1,0-0.1c0-0.1-0.1-0.2-0.2-0.2l-1.2,0.1l-1-1
			l1.4-0.2c0.1,0,0.1-0.1,0.1-0.2s-0.1-0.1-0.2-0.1l-1.6,0.2l-1.1-1.1l2.3-0.3c0,0,0.1,0,0.1,0c0,0,0,0,0-0.1c0-0.1,0-0.1-0.1-0.2
			l-1.8-1.5l1.5-0.4l1.2,1.1c0.1,0.1,0.2,0.1,0.2,0c0,0,0,0,0,0c0.1-0.1,0.1-0.2,0-0.2l-1.1-1l1.4-0.3l0.9,0.7c0.1,0.1,0.2,0,0.2,0
			c0,0,0,0,0,0c0.1-0.1,0-0.2,0-0.2l-0.7-0.6l1.2-0.3l0.5,0.4c0.1,0,0.2,0,0.2,0c0,0,0,0,0,0c0.1-0.1,0-0.2,0-0.2l-0.3-0.2l0.7-0.2
			c0,0,0.1,0,0.1,0c0,0,0.1-0.1,0-0.2C232.3,110.4,232.2,110.3,232.1,110.3z M226.5,109.8l-0.8,2.1l-1.8,0.4l0.4-1.7L226.5,109.8z
			 M222.7,108.8l1.3,1.7l-0.4,1.6l-1.2-1.2L222.7,108.8z M219.9,111.4l2.3-0.2l1.2,1.2l-1.7,0.4L219.9,111.4z M220.9,115.2l0.9-2
			l1.8-0.4l-0.4,1.7L220.9,115.2z M224.8,116.2l-1.4-1.7l0.4-1.7l1.3,1.3L224.8,116.2z M227.6,113.6l-2.2,0.3l-1.3-1.3l1.7-0.4
			L227.6,113.6z"/>
		<path class="st26" d="M112.3,209.9l-0.9,0l0.3-0.3c0.1-0.1,0.1-0.2,0-0.3c-0.1-0.1-0.2-0.1-0.3,0l-0.5,0.6l-1.5,0l0.6-0.9
			c0.1-0.1,0-0.2,0-0.3c-0.1-0.1-0.2,0-0.3,0l-0.8,1.1l-1.8,0l1-1.5c0.1-0.1,0-0.2-0.1-0.3c-0.1-0.1-0.2,0-0.3,0.1l-1.1,1.7l-2,0
			l1.7-2.4c0-0.1,0-0.2,0-0.2c0-0.1-0.1-0.1-0.2-0.1l-3.1,0.4l0.9-1.9l2.1-0.3c0,0,0.1,0,0.1,0c0.1,0,0.1-0.1,0.1-0.2
			c0-0.1-0.1-0.2-0.2-0.2l-1.8,0.3l0.8-1.6l1.4-0.3c0,0,0,0,0.1,0c0.1,0,0.1-0.1,0.1-0.2c0-0.1-0.1-0.2-0.2-0.2l-1.1,0.2l0.7-1.4
			l0.8-0.1c0,0,0.1,0,0.1,0c0.1,0,0.1-0.1,0.1-0.2c0-0.1-0.1-0.2-0.2-0.2l-0.5,0.1l0.5-1c0-0.1,0-0.2-0.1-0.3c-0.1,0-0.2,0-0.3,0.1
			l-0.5,0.9l-0.1-0.3c0-0.1-0.2-0.1-0.3-0.1c-0.1,0-0.1,0.2-0.1,0.3l0.3,0.6l-0.7,1.4l-0.5-1c-0.1-0.1-0.2-0.1-0.3-0.1
			c-0.1,0.1-0.1,0.2-0.1,0.3l0.7,1.3l-0.8,1.6l-0.9-1.6c-0.1-0.1-0.2-0.1-0.3-0.1c-0.1,0.1-0.1,0.2-0.1,0.3l1,1.9l-0.9,1.8l-1.2-2.6
			c0-0.1-0.1-0.1-0.2-0.1c-0.1,0-0.2,0.1-0.2,0.1l-1,2.7l-1-1.7l0.9-2c0-0.1,0-0.2-0.1-0.3c-0.1,0-0.2,0-0.3,0.1l-0.7,1.7l-0.9-1.5
			l0.5-1.4c0-0.1,0-0.2-0.1-0.3c-0.1,0-0.2,0-0.3,0.1l-0.4,1.1l-0.8-1.3l0.2-0.8c0-0.1,0-0.2-0.1-0.3c-0.1,0-0.2,0-0.3,0.1l-0.1,0.4
			l-0.5-0.8c-0.1-0.1-0.2-0.1-0.3-0.1c-0.1,0.1-0.1,0.2-0.1,0.3l0.5,0.9l-0.5-0.1c-0.1,0-0.2,0.1-0.2,0.2c0,0.1,0.1,0.2,0.2,0.2
			l0.9,0.1l0.8,1.3l-1.1-0.2c-0.1,0-0.2,0.1-0.2,0.2c0,0.1,0.1,0.2,0.2,0.2l1.5,0.2l0.9,1.5l-1.9-0.1c-0.1,0-0.2,0.1-0.2,0.2
			c0,0.1,0.1,0.2,0.2,0.2l2.2,0.2l1.1,1.7l-3.1-0.4c-0.1,0-0.2,0-0.2,0.1c0,0.1,0,0.2,0,0.2l1.9,2.4l-2,0l-1.1-1.7
			c-0.1-0.1-0.2-0.1-0.3-0.1c-0.1,0.1-0.1,0.2-0.1,0.3l1,1.5l-1.8,0l-0.9-1.2c-0.1-0.1-0.2-0.1-0.3,0c-0.1,0.1-0.1,0.2,0,0.3
			l0.7,0.9l-1.4,0l-0.6-0.7c-0.1-0.1-0.2-0.1-0.3,0c-0.1,0.1-0.1,0.2,0,0.3l0.4,0.4l-1.1,0c-0.1,0-0.2,0.1-0.2,0.2
			c0,0.1,0.1,0.2,0.2,0.2l1,0l-0.3,0.3c-0.1,0.1-0.1,0.2,0,0.3c0.1,0.1,0.2,0.1,0.2,0c0,0,0,0,0,0l0.6-0.6l1.4,0l-0.7,0.9
			c-0.1,0.1,0,0.2,0,0.3c0.1,0.1,0.2,0.1,0.2,0c0,0,0,0,0.1-0.1l0.9-1.1l1.8,0l-1,1.5c-0.1,0.1,0,0.2,0.1,0.3c0.1,0,0.2,0,0.2,0
			c0,0,0,0,0.1-0.1l1.1-1.7l2,0l-1.7,2.4c0,0.1-0.1,0.2,0,0.2c0,0.1,0.1,0.1,0.2,0.1l3.1-0.3l-0.9,1.8l-2.1,0.3
			c-0.1,0-0.2,0.1-0.2,0.2c0,0.1,0.1,0.2,0.2,0.2l1.9-0.2l-0.8,1.5l-1.5,0.4c-0.1,0-0.2,0.1-0.1,0.2s0.1,0.2,0.2,0.1l1.2-0.3
			l-0.7,1.5l-0.8,0.1c-0.1,0-0.2,0.1-0.2,0.2c0,0.1,0.1,0.2,0.2,0.2l0.6,0l-0.4,0.9c0,0.1,0,0.2,0.1,0.3c0.1,0,0.1,0,0.2,0
			c0,0,0.1,0,0.1-0.1l0.4-0.8l0.2,0.4c0,0.1,0.2,0.1,0.3,0.1c0,0,0,0,0,0c0.1-0.1,0.1-0.2,0.1-0.3l-0.3-0.7l0.7-1.5l0.4,1.1
			c0,0.1,0.2,0.2,0.3,0.1c0,0,0,0,0,0c0.1,0,0.1-0.1,0.1-0.2l-0.5-1.4l0.8-1.5l0.9,1.6c0.1,0.1,0.2,0.1,0.3,0.1c0,0,0,0,0,0
			c0.1-0.1,0.1-0.2,0.1-0.3l-1-1.9l0.9-1.8l1.2,2.6c0,0.1,0.1,0.1,0.2,0.1c0.1,0,0.2-0.1,0.2-0.1l1-2.6l1,1.6l-0.8,1.9
			c0,0.1,0,0.2,0.1,0.3c0.1,0,0.1,0,0.2,0c0,0,0.1-0.1,0.1-0.1l0.7-1.7l0.9,1.5l-0.5,1.4c0,0.1,0,0.2,0.1,0.3c0.1,0,0.2,0,0.3-0.1
			l0.4-1.1l0.8,1.4l-0.3,0.8c0,0.1,0,0.2,0.1,0.3c0.1,0,0.2,0,0.3-0.1l0.2-0.4l0.6,0.9c0.1,0.1,0.2,0.1,0.3,0.1
			c0.1-0.1,0.1-0.2,0.1-0.3l-0.6-0.9l0.5,0.1c0,0,0.1,0,0.1,0c0,0,0.1-0.1,0.1-0.1c0-0.1-0.1-0.2-0.2-0.2l-0.8-0.1l-0.8-1.4l1.2,0.2
			c0.1,0,0.1,0,0.1,0c0,0,0.1-0.1,0.1-0.1c0-0.1-0.1-0.2-0.2-0.2l-1.5-0.3l-0.9-1.5l1.7,0.1c0.1,0,0.2-0.1,0.2-0.2
			c0-0.1-0.1-0.2-0.2-0.2l-2-0.2l-1-1.6l2.9,0.3c0,0,0.1,0,0.1,0c0,0,0.1,0,0.1-0.1c0-0.1,0-0.2,0-0.2l-1.8-2.4l2,0l1.2,1.7
			c0.1,0.1,0.2,0.1,0.3,0.1c0,0,0,0,0,0c0.1-0.1,0.1-0.2,0.1-0.3l-1-1.5l1.8,0l0.9,1.1c0.1,0.1,0.2,0.1,0.3,0c0,0,0,0,0,0
			c0.1-0.1,0.1-0.2,0-0.3l-0.7-0.9l1.5,0l0.5,0.6c0.1,0.1,0.2,0.1,0.3,0c0,0,0,0,0,0c0.1-0.1,0.1-0.2,0-0.3l-0.3-0.4l0.9,0
			c0,0,0.1,0,0.1,0c0.1,0,0.1-0.1,0.1-0.2C112.5,209.9,112.4,209.8,112.3,209.9z M105.6,207.6l-1.6,2.3l-2.3,0l1-1.9L105.6,207.6z
			 M101.2,205.3l1.1,2.5l-0.9,1.9l-1.2-1.9L101.2,205.3z M97,207.6l2.9,0.4l1.1,1.9l-2.3,0L97,207.6z M97.2,212.6l1.7-2.2l2.3,0
			l-1,2L97.2,212.6z M101.6,214.9l-1.2-2.4l1-2l1.2,1.9L101.6,214.9z M105.7,212.5l-2.8-0.3l-1.2-1.9l2.2,0L105.7,212.5z"/>
		<g id="XMLID_7_">
			<g>
				<path class="st27" d="M292.9,171.3c3.4,5.6,3.5,15.4,3.5,15.4h3.1c0-1.7-0.3-3.4-0.7-4.9c0,0,0,0,0,0
					C297,175.5,292.9,171.4,292.9,171.3z"/>
				<path class="st28" d="M300.9,179.8c-2.1-6.9-6-12.2-6-12.2c2.8,5.2,3.6,11.6,3.8,14.1c0,0,0,0,0,0c0.4,1.5,0.7,3.2,0.7,4.9v0.1
					h1c0.3-4.6,1.1-8.4,2.1-11.5l0,0c-1.1-4.9-3-8.5-3.1-8.6C300.6,169.1,300.9,179.8,300.9,179.8z"/>
				<path class="st27" d="M300.5,186.7h1.1c0-3.1,1.1-6.5,2.4-9.4c0,0,0.6-7,5.2-13.3c-0.1,0.1-4,3.2-6.5,11.1
					C301.6,178.3,300.8,182.1,300.5,186.7z"/>
				<path class="st28" d="M301.6,186.7h2.5c0,0-0.1-2,0.8-5c0.2-2.2,0.6-6.2,3.1-11.7c-0.1,0.1-2.3,3.2-4.1,7.3
					C302.6,180.2,301.6,183.6,301.6,186.7z"/>
				<path class="st27" d="M304.9,181.8c-0.9,3-0.8,5-0.8,5h3.1c0-9.5,3.9-15.2,4-15.4C307.5,175.1,305.7,178.9,304.9,181.8z"/>
			</g>
			<g>
			</g>
		</g>
		<g id="XMLID_9_">
			<g>
				<path class="st27" d="M136.6,258c3.4,5.6,3.5,15.4,3.5,15.4h3.1c0-1.7-0.3-3.4-0.7-4.9c0,0,0,0,0,0
					C140.8,262.2,136.7,258.1,136.6,258z"/>
				<path class="st28" d="M144.7,266.5c-2.1-6.9-6-12.2-6-12.2c2.8,5.2,3.6,11.6,3.8,14.1c0,0,0,0,0,0c0.4,1.5,0.7,3.2,0.7,4.9v0.1
					h1c0.3-4.6,1.1-8.4,2.1-11.5l0,0c-1.1-4.9-3-8.5-3.1-8.6C144.3,255.8,144.7,266.5,144.7,266.5z"/>
				<path class="st27" d="M144.2,273.5h1.1c0-3.1,1.1-6.5,2.4-9.4c0-0.2,0.6-7.1,5.2-13.3c-0.1,0.1-4,3.2-6.5,11.1
					C145.3,265,144.5,268.8,144.2,273.5z"/>
				<path class="st28" d="M147.7,264.1c-1.3,2.9-2.4,6.2-2.4,9.4h2.5c0,0-0.1-2,0.8-5c0.2-2.2,0.6-6.2,3.1-11.7
					C151.7,256.9,149.5,260,147.7,264.1z"/>
				<path class="st27" d="M148.6,268.5c-0.9,3-0.8,5-0.8,5h3.1c0-9.5,3.9-15.2,4-15.4C151.3,261.8,149.5,265.6,148.6,268.5z"/>
			</g>
			<g>
			</g>
		</g>
	</g>
	<g>
		<path class="st29" d="M249,241.5c1.8,2.1,2.5,3,3.7,4.5c0.5,0.6,1.1,1.2,1.8,1.3c0.7,0.1,1.2-0.3,1.4-0.8s0.2-1.1,0.2-1.7
			c0-2.2,1.2-4.4,3.7-4.6c1.2-0.1,2.6,0.3,3.9,0.8c2,0.9,4.1,2.1,5,3.9c0.7,1.4,0.5,2.9-0.1,4.2c-0.6,1.2-1.5,2.3-2.2,3.4
			c-0.2,0.4-0.4,0.8-0.1,1.3c0.3,0.3,0.8,0.5,1.2,0.6c3.4,0.8,6.8,1.6,10.2,2.4c1.1,0.3,2.4,0.7,2.8,1.6c0.2,0.3,0.2,0.7,0.2,1
			c0.1,4.8-1.9,9.1-5.5,12.1c-0.8,0.7-1.8,1.3-3,1.2c-1.7-0.1-3.2-1.5-4.3-2.9c-1.7-2-3-4.2-4-6.4c-0.1-0.3-0.3-0.7-0.7-0.8
			c-0.4-0.1-0.7,0.1-0.9,0.3c-1.8,2-0.6,5.3,0.4,8.1c0.8,2.2,1.5,4.5,2,6.8c0.2,0.9,0.4,1.9,0.1,2.6c-0.4,1-1.4,1.5-2.6,1.7
			c-1.2,0.1-3.2,0-4.5-0.3c-4.2-1-6.7-1.9-10.7-3.7c-2.8-1.3-6.3-3.7-8.8-5.5c-2.4-1.8-4.5-4.2-5.5-6.7c-0.4-1-0.6-2.1-0.1-3
			c0.8-1.7,3.2-1.9,5.3-2.3c3.6-0.7,6.8-2.2,9.2-4.5c0.2-0.2,0.3-0.3,0.3-0.6c0-0.7-1-1.1-1.9-1.3c-3.2-0.7-6.5-1.7-9.6-2.9
			c-0.3-0.1-0.7-0.3-1-0.5c-0.4-0.4-0.4-1-0.4-1.5c0.4-3.9,1.8-7.5,4.1-10.6c0.7-1,1.7-2,3.1-2.2c1.7-0.3,2.7,0.2,4.1,1.5
			C247,239.5,247.7,240,249,241.5z"/>
	</g>
</g>
<g id="Layer_2">
	<linearGradient id="Bg_2_" gradientUnits="userSpaceOnUse" x1="156.3825" y1="349.9258" x2="159.3971" y2="59.3192">
		<stop  offset="0" style="stop-color:#000000;stop-opacity:0.4"/>
		<stop  offset="1" style="stop-color:#FFFFFF;stop-opacity:0"/>
	</linearGradient>
	<path id="Bg_1_" class="st30" d="M38,0.5h240c21,0,38,17,38,38v311c0,21-17,38-38,38H38c-21,0-38-17-38-38v-311
		C0,17.5,17,0.5,38,0.5z"/>
	<g>
		<path class="st26" d="M25,324.8h20.3v6H31.7v8h12.4v6H31.7v8.4h13.9v6H25V324.8z"/>
		<path class="st26" d="M49.5,341.9c0-5.7,1.3-10.1,3.8-13.2c2.5-3.1,6.1-4.6,10.8-4.6c2.5,0,4.6,0.4,6.4,1.3
			c1.8,0.8,3.3,2.1,4.6,3.6c1.2,1.6,2.1,3.4,2.7,5.6c0.6,2.2,0.9,4.6,0.9,7.3c0,5.7-1.3,10.1-3.8,13.2c-2.5,3.1-6.1,4.6-10.8,4.6
			c-2.5,0-4.6-0.4-6.5-1.3c-1.8-0.8-3.3-2.1-4.5-3.6c-1.2-1.6-2.1-3.4-2.7-5.6C49.8,347,49.5,344.6,49.5,341.9z M56.6,341.9
			c0,1.7,0.1,3.3,0.4,4.8s0.7,2.7,1.3,3.7c0.6,1,1.4,1.9,2.3,2.5c0.9,0.6,2.1,0.9,3.4,0.9c2.4,0,4.2-0.9,5.5-2.8
			c1.3-1.9,2-4.9,2-9.1c0-1.7-0.1-3.2-0.4-4.7c-0.3-1.4-0.7-2.7-1.3-3.8c-0.6-1.1-1.4-1.9-2.3-2.5c-0.9-0.6-2.1-0.9-3.5-0.9
			c-2.4,0-4.2,1-5.5,2.9C57.2,334.8,56.6,337.8,56.6,341.9z"/>
		<path class="st26" d="M105.9,330.7h-10v28.3h-6.7v-28.3h-10v-6h26.8V330.7z"/>
		<path class="st26" d="M119.6,341.2h12.8v15.3c-1.4,1.1-3,2-4.9,2.5c-1.9,0.5-3.8,0.8-5.7,0.8c-2.2,0-4.2-0.3-6.1-1
			c-1.9-0.7-3.5-1.8-4.9-3.2c-1.4-1.5-2.5-3.3-3.2-5.6c-0.8-2.3-1.2-4.9-1.2-8c0-3.2,0.5-6,1.4-8.3c0.9-2.3,2.2-4.1,3.7-5.5
			s3.2-2.5,5.1-3.1c1.9-0.6,3.8-1,5.8-1s3.7,0.1,5.2,0.4c1.5,0.3,2.7,0.6,3.6,0.9l-1.4,5.6c-0.8-0.3-1.7-0.6-2.7-0.8
			c-1-0.2-2.3-0.3-3.9-0.3c-1.4,0-2.7,0.2-3.9,0.6c-1.2,0.4-2.2,1.1-3.1,2.1c-0.9,1-1.5,2.2-2,3.7c-0.5,1.5-0.7,3.3-0.7,5.5
			c0,2.1,0.2,3.8,0.7,5.3c0.5,1.5,1.1,2.7,1.9,3.7c0.8,1,1.8,1.7,2.9,2.1c1.1,0.5,2.3,0.7,3.5,0.7c0.8,0,1.7-0.1,2.5-0.3
			c0.8-0.2,1.5-0.5,2.1-1V346l-7.4-0.8V341.2z"/>
	</g>
	<g>
		<path class="st26" d="M34.7,308.4l0.2-1.9h-0.1l-0.6,1.6l-2.1,3.7h-0.6l-2.2-3.7l-0.6-1.6h-0.1l0.3,1.9v5.1h-1.8v-9.8h1.8l2.6,4.5
			l0.5,1.1H32l0.4-1.1l2.5-4.5h1.7v9.8h-1.9V308.4z"/>
		<path class="st26" d="M38,308.6c0-1.6,0.4-2.9,1.1-3.8s1.7-1.3,3.1-1.3c0.7,0,1.3,0.1,1.8,0.4c0.5,0.2,1,0.6,1.3,1
			c0.3,0.4,0.6,1,0.8,1.6c0.2,0.6,0.3,1.3,0.3,2.1c0,1.6-0.4,2.9-1.1,3.8c-0.7,0.9-1.7,1.3-3.1,1.3c-0.7,0-1.3-0.1-1.8-0.4
			c-0.5-0.2-1-0.6-1.3-1s-0.6-1-0.8-1.6C38.1,310,38,309.4,38,308.6z M40,308.6c0,0.5,0,1,0.1,1.4c0.1,0.4,0.2,0.8,0.4,1.1
			c0.2,0.3,0.4,0.5,0.7,0.7c0.3,0.2,0.6,0.3,1,0.3c0.7,0,1.2-0.3,1.6-0.8c0.4-0.5,0.6-1.4,0.6-2.6c0-0.5,0-0.9-0.1-1.3
			c-0.1-0.4-0.2-0.8-0.4-1.1c-0.2-0.3-0.4-0.5-0.7-0.7c-0.3-0.2-0.6-0.3-1-0.3c-0.7,0-1.2,0.3-1.6,0.8C40.2,306.6,40,307.4,40,308.6
			z"/>
		<path class="st26" d="M50.2,308.4l-0.8-1.5h-0.1l0.2,1.5v5.1h-1.8v-9.9h1.4l3.7,5.2l0.7,1.5h0.1l-0.2-1.5v-5.2h1.8v9.9h-1.4
			L50.2,308.4z"/>
		<path class="st26" d="M61.5,303.7h1.9v7.2c0,0.4,0,0.7-0.1,1.1s-0.2,0.6-0.4,0.9s-0.4,0.5-0.7,0.6c-0.3,0.2-0.7,0.2-1.1,0.2
			c-0.3,0-0.6,0-0.9-0.1s-0.6-0.1-0.8-0.2l0.4-1.6c0.2,0.1,0.5,0.2,0.8,0.2c0.4,0,0.6-0.1,0.7-0.4c0.1-0.3,0.2-0.7,0.2-1.1V303.7z"
			/>
		<path class="st26" d="M70,311.3h-3l-0.7,2.2h-1.9l3.5-9.9h1.4l3.5,9.9h-2L70,311.3z M67.4,309.8h2.1l-0.7-2.2l-0.3-1.5h-0.1
			l-0.3,1.6L67.4,309.8z"/>
		<path class="st26" d="M76,308.4l-0.8-1.5h-0.1l0.2,1.5v5.1h-1.8v-9.9H75l3.7,5.2l0.7,1.5h0.1l-0.2-1.5v-5.2h1.8v9.9h-1.4L76,308.4
			z"/>
		<path class="st26" d="M86.9,311.9h1.9v-5.5l0.2-1l-0.7,0.8l-1.2,0.9l-0.8-1l3.2-2.6h1v8.4h1.9v1.5h-5.6V311.9z"/>
		<path class="st26" d="M96.8,312.1c0.6,0,1-0.2,1.3-0.5c0.3-0.3,0.5-0.7,0.5-1.1c0-0.5-0.2-0.9-0.5-1.2s-0.8-0.4-1.5-0.4h-1v-1
			l1.7-2.3l0.8-0.6l-1.1,0.1h-2.4v-1.5h5.3v1l-2,2.6l-0.6,0.4v0.1l0.6-0.1c0.3,0,0.6,0.1,0.9,0.2c0.3,0.1,0.6,0.3,0.8,0.5
			s0.4,0.5,0.5,0.8s0.2,0.7,0.2,1.2c0,0.6-0.1,1-0.3,1.4c-0.2,0.4-0.4,0.7-0.8,1c-0.3,0.3-0.7,0.5-1.1,0.6s-0.9,0.2-1.4,0.2
			c-0.4,0-0.8,0-1.3-0.1c-0.4-0.1-0.8-0.2-1.1-0.3l0.5-1.5c0.2,0.1,0.5,0.2,0.8,0.3C96.1,312.1,96.5,312.1,96.8,312.1z"/>
		<path class="st26" d="M111.6,306.1c0,0.5-0.1,1-0.3,1.4c-0.2,0.5-0.4,1-0.7,1.4s-0.6,0.9-0.9,1.4c-0.3,0.4-0.6,0.8-0.9,1.2
			l-0.7,0.6v0.1l1-0.2h2.7v1.5h-5.9v-0.9c0.2-0.2,0.5-0.5,0.8-0.8c0.3-0.3,0.6-0.6,0.8-1s0.6-0.7,0.8-1.1s0.5-0.7,0.7-1.1
			s0.4-0.7,0.5-1.1c0.1-0.4,0.2-0.7,0.2-1c0-0.4-0.1-0.7-0.3-0.9s-0.6-0.4-1-0.4c-0.3,0-0.6,0.1-0.9,0.2c-0.3,0.1-0.6,0.3-0.8,0.5
			l-0.7-1.3c0.4-0.3,0.8-0.5,1.2-0.7c0.5-0.2,1-0.3,1.6-0.3c0.4,0,0.8,0.1,1.1,0.2s0.6,0.3,0.9,0.5c0.2,0.2,0.4,0.5,0.6,0.8
			S111.6,305.7,111.6,306.1z"/>
		<path class="st26" d="M113.4,308.6c0-1.7,0.3-3,0.9-3.8c0.6-0.8,1.4-1.3,2.5-1.3c1.2,0,2,0.4,2.6,1.2s0.8,2.1,0.8,3.8
			c0,1.7-0.3,3-0.9,3.8c-0.6,0.8-1.4,1.3-2.5,1.3c-1.2,0-2-0.4-2.6-1.3C113.7,311.5,113.4,310.2,113.4,308.6z M115.2,308.6
			c0,1.1,0.1,2,0.4,2.6c0.2,0.6,0.7,0.9,1.2,0.9c0.6,0,1-0.3,1.2-0.9c0.3-0.6,0.4-1.5,0.4-2.7c0-1.1-0.1-2-0.4-2.6s-0.7-0.9-1.2-0.9
			c-0.6,0-1,0.3-1.2,0.9C115.4,306.5,115.2,307.4,115.2,308.6z"/>
		<path class="st26" d="M127.4,306.1c0,0.5-0.1,1-0.3,1.4c-0.2,0.5-0.4,1-0.7,1.4s-0.6,0.9-0.9,1.4c-0.3,0.4-0.6,0.8-0.9,1.2
			l-0.7,0.6v0.1l1-0.2h2.7v1.5h-5.9v-0.9c0.2-0.2,0.5-0.5,0.8-0.8c0.3-0.3,0.6-0.6,0.8-1s0.6-0.7,0.8-1.1s0.5-0.7,0.7-1.1
			s0.4-0.7,0.5-1.1c0.1-0.4,0.2-0.7,0.2-1c0-0.4-0.1-0.7-0.3-0.9s-0.6-0.4-1-0.4c-0.3,0-0.6,0.1-0.9,0.2c-0.3,0.1-0.6,0.3-0.8,0.5
			l-0.7-1.3c0.4-0.3,0.8-0.5,1.2-0.7c0.5-0.2,1-0.3,1.6-0.3c0.4,0,0.8,0.1,1.1,0.2s0.6,0.3,0.9,0.5c0.2,0.2,0.4,0.5,0.6,0.8
			S127.4,305.7,127.4,306.1z"/>
		<path class="st26" d="M129.3,308.6c0-1.7,0.3-3,0.9-3.8c0.6-0.8,1.4-1.3,2.5-1.3c1.2,0,2,0.4,2.6,1.2s0.8,2.1,0.8,3.8
			c0,1.7-0.3,3-0.9,3.8c-0.6,0.8-1.4,1.3-2.5,1.3c-1.2,0-2-0.4-2.6-1.3C129.6,311.5,129.3,310.2,129.3,308.6z M131.1,308.6
			c0,1.1,0.1,2,0.4,2.6c0.2,0.6,0.7,0.9,1.2,0.9c0.6,0,1-0.3,1.2-0.9c0.3-0.6,0.4-1.5,0.4-2.7c0-1.1-0.1-2-0.4-2.6s-0.7-0.9-1.2-0.9
			c-0.6,0-1,0.3-1.2,0.9C131.2,306.5,131.1,307.4,131.1,308.6z"/>
	</g>
</g>
</svg>
