<svg width="316" height="388" viewBox="0 0 316 388" fill="none" xmlns="http://www.w3.org/2000/svg">
<g clip-path="url(#clip0)">
<rect width="316" height="388" rx="38" fill="#959595"/>
<path d="M38 388H278C299 388 316 370.956 316 349.902V38.0982C316 17.0439 299 0 278 0H38C17 0 0 17.0439 0 38.0982V349.902C0 370.956 17 388 38 388Z" fill="white"/>
<g clip-path="url(#clip1)">
<path d="M324.126 107.685L372.564 122.378L324.126 137.03L275.937 122.378L324.126 107.685Z" fill="#AFC61E"/>
<path d="M275.98 122.336L275.897 210.37L324.086 225.106L324.169 137.072L275.98 122.336Z" fill="#799622"/>
<path d="M314.887 112.681L313.769 113.814C313.769 113.814 316.379 113.814 316.545 113.814C315.633 113.856 316.586 112.723 316.586 112.723C316.586 112.723 315.716 113.688 315.55 113.73C314.97 113.856 315.716 112.681 315.716 112.681C315.716 112.681 314.846 113.73 314.68 113.73C314.183 113.73 314.887 112.681 314.887 112.681Z" fill="#799622"/>
</g>
<g clip-path="url(#clip2)">
<path d="M270.249 140.302L303.783 150.447L270.249 160.564L236.887 150.447L270.249 140.302Z" fill="#AFC61E"/>
<path d="M270.248 160.564V221.349L303.782 211.233V150.447L270.248 160.564Z" fill="#8EB028"/>
<path d="M236.915 150.418L236.857 211.204L270.219 221.378L270.277 160.593L236.915 150.418Z" fill="#799622"/>
<path d="M271.252 157.462L270.277 158.448C270.277 158.448 272.543 158.448 272.715 158.448C271.912 158.477 272.772 157.52 272.772 157.52C272.772 157.52 272.026 158.361 271.854 158.39C271.338 158.505 271.998 157.462 271.998 157.462C271.998 157.462 271.223 158.39 271.08 158.39C270.621 158.39 271.252 157.462 271.252 157.462Z" fill="#799622"/>
<path d="M287.316 149.172L286.341 150.157C286.341 150.157 288.607 150.157 288.779 150.157C287.976 150.186 288.836 149.23 288.836 149.23C288.836 149.23 288.091 150.07 287.918 150.099C287.402 150.215 288.062 149.172 288.062 149.172C288.062 149.172 287.287 150.099 287.144 150.099C286.685 150.099 287.316 149.172 287.316 149.172Z" fill="#799622"/>
<path d="M263.851 143.751L263.076 144.534C263.076 144.534 264.884 144.534 264.998 144.534C264.367 144.563 265.027 143.78 265.027 143.78C265.027 143.78 264.425 144.447 264.31 144.476C263.908 144.563 264.425 143.751 264.425 143.751C264.425 143.751 263.822 144.476 263.707 144.476C263.363 144.476 263.851 143.751 263.851 143.751Z" fill="#799622"/>
</g>
<g clip-path="url(#clip3)">
<path d="M321.371 160.804L354.905 170.949L321.371 181.066L288.009 170.949L321.371 160.804Z" fill="#AFC61E"/>
<path d="M288.038 170.92L287.98 231.706L321.342 241.88L321.4 181.095L288.038 170.92Z" fill="#799622"/>
<path d="M314.974 164.253L314.199 165.036C314.199 165.036 316.007 165.036 316.121 165.036C315.49 165.065 316.15 164.282 316.15 164.282C316.15 164.282 315.548 164.949 315.433 164.978C315.031 165.065 315.548 164.253 315.548 164.253C315.548 164.253 314.945 164.978 314.83 164.978C314.486 164.978 314.974 164.253 314.974 164.253Z" fill="#799622"/>
</g>
<g clip-path="url(#clip4)">
<path d="M65.7399 185.033L107.657 197.744L65.7399 210.419L24.0375 197.744L65.7399 185.033Z" fill="#AFC61E"/>
<path d="M65.7382 210.419V286.575L107.656 273.901V197.744L65.7382 210.419Z" fill="#8EB028"/>
<path d="M24.0717 197.708L24 273.864L65.7024 286.612L65.7741 210.455L24.0717 197.708Z" fill="#799622"/>
<path d="M66.9932 206.533L65.7741 207.768C65.7741 207.768 68.6068 207.768 68.822 207.768C67.818 207.804 68.8937 206.606 68.8937 206.606C68.8937 206.606 67.9614 207.659 67.7462 207.695C67.1008 207.84 67.9255 206.533 67.9255 206.533C67.9255 206.533 66.9574 207.695 66.7781 207.695C66.2044 207.695 66.9932 206.533 66.9932 206.533Z" fill="#799622"/>
<path d="M87.0735 196.146L85.8543 197.381C85.8543 197.381 88.6871 197.381 88.9022 197.381C87.8982 197.418 88.9739 196.219 88.9739 196.219C88.9739 196.219 88.0416 197.272 87.8265 197.309C87.181 197.454 88.0058 196.146 88.0058 196.146C88.0058 196.146 87.0376 197.309 86.8583 197.309C86.2846 197.309 87.0735 196.146 87.0735 196.146Z" fill="#799622"/>
<path d="M57.742 189.355L56.7738 190.336C56.7738 190.336 59.0328 190.336 59.1763 190.336C58.3874 190.372 59.2121 189.391 59.2121 189.391C59.2121 189.391 58.4591 190.227 58.3157 190.263C57.8137 190.372 58.4591 189.355 58.4591 189.355C58.4591 189.355 57.7061 190.263 57.5627 190.263C57.1324 190.263 57.742 189.355 57.742 189.355Z" fill="#799622"/>
</g>
<g clip-path="url(#clip5)">
<path d="M141.96 146.825L183.877 159.419L141.96 171.978L100.257 159.419L141.96 146.825Z" fill="#AFC61E"/>
<path d="M141.958 171.978V247.435L183.875 234.877V159.419L141.958 171.978Z" fill="#8EB028"/>
<path d="M100.291 159.383L100.22 234.841L141.922 247.471L141.994 172.014L100.291 159.383Z" fill="#799622"/>
<path d="M143.213 168.127L141.994 169.351C141.994 169.351 144.826 169.351 145.042 169.351C144.038 169.387 145.113 168.199 145.113 168.199C145.113 168.199 144.181 169.243 143.966 169.279C143.32 169.423 144.145 168.127 144.145 168.127C144.145 168.127 143.177 169.279 142.998 169.279C142.424 169.279 143.213 168.127 143.213 168.127Z" fill="#799622"/>
<path d="M163.293 157.836L162.074 159.06C162.074 159.06 164.907 159.06 165.122 159.06C164.118 159.096 165.194 157.908 165.194 157.908C165.194 157.908 164.261 158.952 164.046 158.988C163.401 159.132 164.225 157.836 164.225 157.836C164.225 157.836 163.257 158.988 163.078 158.988C162.504 158.988 163.293 157.836 163.293 157.836Z" fill="#799622"/>
<path d="M133.962 151.107L132.993 152.079C132.993 152.079 135.252 152.079 135.396 152.079C134.607 152.115 135.432 151.143 135.432 151.143C135.432 151.143 134.679 151.971 134.535 152.007C134.033 152.115 134.679 151.107 134.679 151.107C134.679 151.107 133.926 152.007 133.782 152.007C133.352 152.007 133.962 151.107 133.962 151.107Z" fill="#799622"/>
</g>
<g clip-path="url(#clip6)">
<path d="M127.098 182.238L163.426 193.199L127.098 204.13L90.9558 193.199L127.098 182.238Z" fill="#AFC61E"/>
<path d="M127.098 204.13V269.806L163.426 258.876V193.199L127.098 204.13Z" fill="#8EB028"/>
<path d="M90.9867 193.168L90.9246 258.844L127.067 269.837L127.129 204.161L90.9867 193.168Z" fill="#799622"/>
<path d="M128.185 200.779L127.129 201.843C127.129 201.843 129.584 201.843 129.77 201.843C128.9 201.875 129.832 200.841 129.832 200.841C129.832 200.841 129.024 201.749 128.838 201.781C128.279 201.906 128.993 200.779 128.993 200.779C128.993 200.779 128.154 201.781 127.999 201.781C127.502 201.781 128.185 200.779 128.185 200.779Z" fill="#799622"/>
<path d="M145.588 191.821L144.532 192.886C144.532 192.886 146.987 192.886 147.173 192.886C146.303 192.918 147.235 191.884 147.235 191.884C147.235 191.884 146.427 192.792 146.241 192.824C145.681 192.949 146.396 191.821 146.396 191.821C146.396 191.821 145.557 192.824 145.402 192.824C144.905 192.824 145.588 191.821 145.588 191.821Z" fill="#799622"/>
<path d="M120.168 185.965L119.329 186.81C119.329 186.81 121.286 186.81 121.411 186.81C120.727 186.842 121.442 185.996 121.442 185.996C121.442 185.996 120.789 186.716 120.665 186.748C120.23 186.842 120.789 185.965 120.789 185.965C120.789 185.965 120.137 186.748 120.012 186.748C119.639 186.748 120.168 185.965 120.168 185.965Z" fill="#799622"/>
</g>
<g clip-path="url(#clip7)">
<path d="M77.4338 232L103.982 240.046L77.4338 248.07L51.0223 240.046L77.4338 232Z" fill="#AFC61E"/>
<path d="M77.4342 248.07V296.279L103.982 288.255V240.046L77.4342 248.07Z" fill="#8EB028"/>
<path d="M51.0454 240.023L51 288.232L77.4115 296.302L77.4569 248.093L51.0454 240.023Z" fill="#799622"/>
<path d="M78.229 245.61L77.4569 246.391C77.4569 246.391 79.251 246.391 79.3872 246.391C78.7514 246.414 79.4327 245.656 79.4327 245.656C79.4327 245.656 78.8422 246.322 78.7059 246.345C78.2972 246.437 78.8195 245.61 78.8195 245.61C78.8195 245.61 78.2063 246.345 78.0928 246.345C77.7294 246.345 78.229 245.61 78.229 245.61Z" fill="#799622"/>
<path d="M90.9465 239.035L90.1744 239.816C90.1744 239.816 91.9684 239.816 92.1047 239.816C91.4688 239.839 92.1501 239.081 92.1501 239.081C92.1501 239.081 91.5597 239.747 91.4234 239.77C91.0146 239.862 91.537 239.035 91.537 239.035C91.537 239.035 90.9238 239.77 90.8103 239.77C90.4469 239.77 90.9465 239.035 90.9465 239.035Z" fill="#799622"/>
<path d="M72.3699 234.736L71.7567 235.356C71.7567 235.356 73.1875 235.356 73.2783 235.356C72.7787 235.379 73.301 234.759 73.301 234.759C73.301 234.759 72.8241 235.287 72.7333 235.31C72.4153 235.379 72.8241 234.736 72.8241 234.736C72.8241 234.736 72.3472 235.31 72.2564 235.31C71.9838 235.31 72.3699 234.736 72.3699 234.736Z" fill="#799622"/>
</g>
<g clip-path="url(#clip8)">
<path d="M8.73986 228.796L50.6574 241.507L8.73986 254.181L-32.9625 241.507L8.73986 228.796Z" fill="#AFC61E"/>
<path d="M8.73822 254.181V330.338L50.6557 317.663V241.507L8.73822 254.181Z" fill="#8EB028"/>
<path d="M-32.9283 241.47L-33 317.627L8.70236 330.374L8.77408 254.218L-32.9283 241.47Z" fill="#799622"/>
<path d="M9.99323 250.295L8.77408 251.53C8.77408 251.53 11.6068 251.53 11.822 251.53C10.818 251.566 11.8937 250.368 11.8937 250.368C11.8937 250.368 10.9614 251.421 10.7462 251.457C10.1008 251.603 10.9255 250.295 10.9255 250.295C10.9255 250.295 9.95737 251.457 9.77809 251.457C9.20437 251.457 9.99323 250.295 9.99323 250.295Z" fill="#799622"/>
<path d="M30.0735 239.909L28.8543 241.143C28.8543 241.143 31.6871 241.143 31.9022 241.143C30.8982 241.18 31.9739 239.981 31.9739 239.981C31.9739 239.981 31.0416 241.035 30.8265 241.071C30.181 241.216 31.0058 239.909 31.0058 239.909C31.0058 239.909 30.0376 241.071 29.8583 241.071C29.2846 241.071 30.0735 239.909 30.0735 239.909Z" fill="#799622"/>
<path d="M0.741955 233.117L-0.226196 234.098C-0.226196 234.098 2.03283 234.098 2.17626 234.098C1.38739 234.134 2.21211 233.154 2.21211 233.154C2.21211 233.154 1.4591 233.989 1.31567 234.025C0.81367 234.134 1.45911 233.117 1.45911 233.117C1.45911 233.117 0.706098 234.025 0.562668 234.025C0.132378 234.025 0.741955 233.117 0.741955 233.117Z" fill="#799622"/>
</g>
<g clip-path="url(#clip9)">
<path d="M70.0978 226L106.426 236.962L70.0978 247.892L33.9558 236.962L70.0978 226Z" fill="#AFC61E"/>
<path d="M70.0977 247.892V313.568L106.426 302.638V236.962L70.0977 247.892Z" fill="#8EB028"/>
<path d="M33.9867 236.93L33.9246 302.607L70.0666 313.6L70.1287 247.923L33.9867 236.93Z" fill="#799622"/>
<path d="M71.1854 244.541L70.1288 245.606C70.1288 245.606 72.5838 245.606 72.7703 245.606C71.9001 245.637 72.8324 244.604 72.8324 244.604C72.8324 244.604 72.0244 245.512 71.838 245.543C71.2786 245.668 71.9933 244.541 71.9933 244.541C71.9933 244.541 71.1543 245.543 70.9989 245.543C70.5017 245.543 71.1854 244.541 71.1854 244.541Z" fill="#799622"/>
<path d="M88.5882 235.584L87.5316 236.648C87.5316 236.648 89.9867 236.648 90.1731 236.648C89.303 236.68 90.2353 235.646 90.2353 235.646C90.2353 235.646 89.4273 236.555 89.2408 236.586C88.6814 236.711 89.3962 235.584 89.3962 235.584C89.3962 235.584 88.5571 236.586 88.4018 236.586C87.9045 236.586 88.5882 235.584 88.5882 235.584Z" fill="#799622"/>
<path d="M63.1676 229.727L62.3286 230.573C62.3286 230.573 64.2864 230.573 64.4107 230.573C63.727 230.604 64.4418 229.758 64.4418 229.758C64.4418 229.758 63.7892 230.479 63.6648 230.51C63.2298 230.604 63.7892 229.727 63.7892 229.727C63.7892 229.727 63.1365 230.51 63.0122 230.51C62.6393 230.51 63.1676 229.727 63.1676 229.727Z" fill="#799622"/>
</g>
<g clip-path="url(#clip10)">
<path d="M20.4338 275.762L46.9816 283.809L20.4338 291.832L-5.97766 283.809L20.4338 275.762Z" fill="#AFC61E"/>
<path d="M20.4342 291.832V340.041L46.982 332.018V283.809L20.4342 291.832Z" fill="#8EB028"/>
<path d="M-5.95458 283.786L-6 331.995L20.4115 340.064L20.4569 291.855L-5.95458 283.786Z" fill="#799622"/>
<path d="M21.229 289.372L20.4569 290.154C20.4569 290.154 22.251 290.154 22.3872 290.154C21.7514 290.177 22.4327 289.418 22.4327 289.418C22.4327 289.418 21.8422 290.085 21.7059 290.108C21.2972 290.2 21.8195 289.372 21.8195 289.372C21.8195 289.372 21.2063 290.108 21.0928 290.108C20.7294 290.108 21.229 289.372 21.229 289.372Z" fill="#799622"/>
<path d="M33.9465 282.797L33.1744 283.579C33.1744 283.579 34.9684 283.579 35.1047 283.579C34.4688 283.602 35.1501 282.843 35.1501 282.843C35.1501 282.843 34.5597 283.51 34.4234 283.533C34.0146 283.625 34.537 282.797 34.537 282.797C34.537 282.797 33.9238 283.533 33.8103 283.533C33.4469 283.533 33.9465 282.797 33.9465 282.797Z" fill="#799622"/>
<path d="M15.3699 278.498L14.7567 279.119C14.7567 279.119 16.1875 279.119 16.2783 279.119C15.7787 279.142 16.301 278.521 16.301 278.521C16.301 278.521 15.8241 279.05 15.7333 279.073C15.4153 279.142 15.8241 278.498 15.8241 278.498C15.8241 278.498 15.3472 279.073 15.2564 279.073C14.9838 279.073 15.3699 278.498 15.3699 278.498Z" fill="#799622"/>
</g>
<path d="M307.856 188.547L370.97 207.509L307.856 226.471L245.067 207.509L307.856 188.547Z" fill="#AFC61E"/>
<path d="M307.856 226.471V340.235L370.97 321.273V207.509L307.856 226.471Z" fill="#8EB028"/>
<path d="M245.067 207.509V321.273L307.856 340.235V226.471L245.067 207.509Z" fill="#799622"/>
<path d="M220.425 158.763L300.286 182.756L220.425 206.748L140.977 182.756L220.425 158.763Z" fill="#AFC61E"/>
<path d="M220.425 206.748V350.7L300.286 326.708V182.756L220.425 206.748Z" fill="#8EB028"/>
<path d="M140.977 182.756V326.708L220.425 350.7V206.748L140.977 182.756Z" fill="#799622"/>
<path d="M125.005 247.451L173.131 261.909L125.005 276.366L77.1295 261.909L125.005 247.451Z" fill="#AFC61E"/>
<path d="M125.005 276.366V363.11L173.131 348.653V261.909L125.005 276.366Z" fill="#8EB028"/>
<path d="M77.1295 261.909V348.653L125.005 363.11V276.366L77.1295 261.909Z" fill="#799622"/>
<path d="M324.231 247.303L377.676 263.361L324.231 279.415L271.058 263.361L324.231 247.303Z" fill="#AFC61E"/>
<path d="M271.058 263.361V359.701L324.231 375.755V279.415L271.058 263.361Z" fill="#799622"/>
<path d="M189.617 190.321L187.707 192.27H192.532C190.922 192.311 192.635 190.425 192.635 190.425C192.635 190.425 191.136 192.079 190.823 192.141C189.819 192.344 191.124 190.321 191.124 190.321C191.124 190.321 189.617 192.141 189.317 192.141C188.411 192.141 189.617 190.321 189.617 190.321Z" fill="#799622"/>
<path d="M227.3 195.699L225.39 197.647H230.218C228.609 197.689 230.317 195.802 230.317 195.802C230.317 195.802 228.819 197.457 228.506 197.519C227.501 197.722 228.811 195.699 228.811 195.699C228.811 195.699 227.3 197.519 226.999 197.519C226.094 197.519 227.3 195.699 227.3 195.699Z" fill="#799622"/>
<path d="M126.437 271.932L125.05 273.346H128.557C127.384 273.375 128.627 272.006 128.627 272.006C128.627 272.006 127.54 273.21 127.314 273.247C126.585 273.392 127.532 271.923 127.532 271.923C127.532 271.923 126.437 273.247 126.219 273.247C125.56 273.255 126.437 271.932 126.437 271.932Z" fill="#799622"/>
<path d="M149.49 260.118L148.102 261.537H151.61C150.436 261.561 151.68 260.192 151.68 260.192C151.68 260.192 150.593 261.396 150.366 261.433C149.638 261.578 150.585 260.109 150.585 260.109C150.585 260.109 149.49 261.433 149.271 261.433C148.613 261.441 149.49 260.118 149.49 260.118Z" fill="#799622"/>
<path d="M115.825 252.374L114.73 253.491H117.5C116.578 253.516 117.562 252.432 117.562 252.432C117.249 252.795 116.9 253.125 116.52 253.416C115.94 253.532 116.693 252.374 116.693 252.374C116.693 252.374 115.825 253.416 115.644 253.416C115.125 253.416 115.825 252.374 115.825 252.374Z" fill="#799622"/>
<path d="M267.23 177.912L265.32 179.86H270.149C268.539 179.901 270.247 178.015 270.247 178.015C270.247 178.015 268.749 179.67 268.436 179.732C267.432 179.934 268.741 177.912 268.741 177.912C268.741 177.912 267.23 179.732 266.929 179.732C266.024 179.732 267.23 177.912 267.23 177.912Z" fill="#799622"/>
<path d="M285.166 262.298L283.256 264.246H288.08C286.471 264.287 288.183 262.401 288.183 262.401C288.183 262.401 286.685 264.056 286.372 264.118C285.367 264.32 286.672 262.298 286.672 262.298C286.672 262.298 285.166 264.118 284.865 264.118C283.96 264.118 285.166 262.298 285.166 262.298Z" fill="#799622"/>
<path d="M218.618 84.657C218.393 85.0912 218.069 85.4655 217.671 85.749L215.724 87.0438L212.822 88.9797L203.564 93.5299C203.164 93.7263 202.728 93.8359 202.283 93.8516C201.838 93.8672 201.395 93.7887 200.983 93.6209C200.919 93.5962 200.857 93.5672 200.798 93.5341C200.571 93.4238 200.359 93.2848 200.168 93.1204L200.114 93.0749C199.533 92.5989 199.111 91.9542 198.908 91.2286C198.705 90.503 198.729 89.7321 198.978 89.0211L200.452 84.839C201.312 82.402 203.081 80.3966 205.386 79.2471C207.691 78.0976 210.35 77.8941 212.801 78.6797L213.464 78.8948L217.021 80.3343C217.412 80.4891 217.767 80.7233 218.064 81.0222C218.36 81.3211 218.593 81.6784 218.746 82.0716C218.908 82.4872 218.98 82.9324 218.958 83.3781C218.936 83.8237 218.82 84.2596 218.618 84.657V84.657Z" fill="#FCF1DD"/>
<g style="mix-blend-mode:multiply">
<path d="M220.351 82.6176C219.965 83.4417 219.367 84.1472 218.618 84.661C218.204 84.9588 217.749 85.1943 217.268 85.3601C216.667 85.567 216.161 86.2288 215.724 87.0478L212.822 88.9838L203.564 93.534C203.164 93.7303 202.728 93.8399 202.283 93.8556C201.838 93.8713 201.395 93.7927 200.983 93.625C200.919 93.6003 200.857 93.5712 200.798 93.5381C201.358 92.8059 201.366 92.4295 201.707 92.0241C202.049 91.6187 202.835 90.688 203.659 90.6218C204.482 90.5556 205.61 89.2154 206.363 88.326C207.117 87.4367 207.561 87.8131 208.792 87.7097C210.023 87.6063 210.332 86.3405 211.529 85.8276C212.224 85.568 212.889 85.2352 213.514 84.8348C214.3 84.3549 214.749 84.7355 214.712 84.3218C214.674 83.9082 217.074 82.8823 218.437 82.2122C218.537 82.1613 218.64 82.1157 218.746 82.0757C219.927 81.5752 220.668 81.8192 220.351 82.6176Z" fill="#FCF1DD"/>
</g>
<path d="M216.339 169.949C216.236 170.921 215.721 171.765 214.713 173.349L214.536 173.63C213.712 174.913 213.169 175.752 212.197 176.576C211.372 177.257 210.432 177.787 209.423 178.139C207.686 178.797 206.443 179.318 205.459 179.761C202.911 180.894 202.03 181.494 198.592 182.474C194.114 183.757 191.87 184.394 188.758 184.328C185.315 184.226 181.947 183.286 178.944 181.589C178.533 181.357 178.183 181.134 177.874 180.923C176.248 179.802 175.783 178.954 175.573 178.47C174.795 176.7 175.231 174.88 175.779 172.592C175.832 172.373 175.931 171.972 176.104 171.438C176.531 170.115 177.09 168.839 177.771 167.628C178.883 165.655 179.566 164.443 180.92 163.492C181.851 162.83 182.254 162.896 187.535 161.837C191.043 161.134 192.027 160.869 192.813 160.637C195.579 159.81 195.324 159.587 196.839 159.252C199.44 158.681 201.552 159.099 205.051 159.789C207.451 160.261 208.649 160.497 209.962 161.159C212.054 162.202 213.812 163.816 215.034 165.816C215.771 167.082 216.516 168.336 216.339 169.949Z" fill="#FCF1DD"/>
<g style="mix-blend-mode:multiply">
<path d="M214.712 173.349L214.535 173.626C213.711 174.913 213.168 175.752 212.196 176.571C211.371 177.256 210.43 177.787 209.418 178.139C208.158 178.615 207.158 179.024 206.326 179.38C203.07 180.77 202.395 181.386 198.591 182.47C194.113 183.757 191.869 184.394 188.757 184.328C185.313 184.226 181.946 183.286 178.943 181.589C178.713 181.457 178.494 181.324 178.293 181.196C176.317 179.955 175.79 178.987 175.568 178.47C174.786 176.7 175.222 174.875 175.773 172.592C175.823 172.369 175.926 171.972 176.099 171.438C176.447 172.658 176.704 173.902 176.868 175.161C176.956 175.802 177.248 176.396 177.701 176.856C178.154 177.315 178.743 177.615 179.38 177.709L182.911 178.239L191.054 179.451C192.215 179.624 197.027 179.26 198.184 179.451C199.34 179.641 202.988 179.095 204.313 178.21C205.639 177.324 205.626 177.32 206.948 176.443C208.269 175.566 210.591 175.91 210.743 174.859C210.875 173.949 212.719 173.295 214.712 173.349Z" fill="#FCF1DD"/>
</g>
<g style="mix-blend-mode:multiply">
<path d="M206.326 179.38C203.07 180.77 202.395 181.386 198.591 182.47C194.113 183.757 191.869 184.394 188.757 184.328C185.313 184.226 181.946 183.286 178.943 181.589C178.713 181.457 178.494 181.324 178.293 181.196C179.075 181.196 180.03 181.32 181.866 182.172C186.069 184.117 186.361 182.619 187.975 182.127C189.588 181.635 190.63 182.64 194.714 182.689C198.509 182.739 198.106 180.853 199.715 180.348C200.625 180.067 203.556 179.699 206.326 179.38Z" fill="#FCF1DD"/>
</g>
<path d="M202.947 121.038L201.522 139.884L200.287 156.207C200.115 158.455 199.27 160.598 197.863 162.354L196.093 164.555L192.828 167.661C187.477 172.77 178.643 168.654 179.067 161.237C179.093 160.743 179.165 160.253 179.281 159.773L180.569 154.432L183.862 140.711L184.686 137.324L188.391 122.018C188.496 121.61 188.634 121.21 188.802 120.823L189.156 119.967L189.712 118.63C189.73 118.606 189.751 118.584 189.774 118.564C190.597 117.857 198.731 112.93 201.51 114.924C202.514 115.644 202.72 118.978 202.77 119.168C202.77 119.23 202.807 119.292 202.823 119.359C202.956 119.908 202.997 120.475 202.947 121.038V121.038Z" fill="#FCF1DD"/>
<g style="mix-blend-mode:multiply" opacity="0.37">
<path d="M202.947 121.038L201.992 133.667L201.522 139.872L200.287 156.195C200.115 158.443 199.27 160.586 197.863 162.342L196.093 164.542L192.828 167.649C187.477 172.758 178.643 168.642 179.067 161.225C179.093 160.731 179.165 160.241 179.281 159.76L180.569 154.42L183.862 140.699L184.686 137.311L188.391 122.006C188.496 121.597 188.634 121.198 188.802 120.811L189.712 118.618C189.73 118.594 189.751 118.572 189.774 118.552L189.572 120.289L185.455 144.695C185.044 145.522 184.632 148.832 184.632 149.245C184.632 149.659 184.221 152.968 184.221 153.382C184.221 153.796 182.986 156.278 182.986 156.691C182.986 157.105 182.162 157.932 182.162 159.173V161.655C182.162 162.482 182.986 162.896 182.986 163.31C182.986 163.723 182.986 164.551 183.809 164.551L187.102 165.378C187.925 165.378 190.395 164.137 190.395 164.137L192.454 157.932L196.57 155.45L197.393 150.486V146.35C197.009 145.861 196.729 145.297 196.57 144.695C196.158 143.454 196.982 141.386 196.57 140.972C196.158 140.559 197.393 135.181 197.393 135.181L202.77 119.156C202.77 119.218 202.807 119.28 202.823 119.346C202.957 119.899 202.999 120.471 202.947 121.038V121.038Z" fill="#FCF1DD"/>
</g>
<g style="mix-blend-mode:multiply" opacity="0.43">
<path d="M202.947 121.038L201.522 139.884L200.287 156.207C200.115 158.455 199.27 160.598 197.863 162.354L196.093 164.555L192.828 167.661C187.477 172.77 178.643 168.654 179.067 161.237C179.093 160.743 179.165 160.253 179.281 159.773L180.569 154.433L183.862 140.712L184.686 137.324L188.391 122.018C188.496 121.61 188.634 121.21 188.802 120.823L189.156 119.967C189.004 122.258 181.335 152.981 181.335 152.981C179.688 157.531 179.277 159.947 179.277 161.254C179.277 162.495 180.861 166.218 182.158 167.459C182.158 167.459 186.814 169.527 188.333 169.527C189.156 169.527 194.919 165.39 195.331 162.495C195.516 161.2 199.941 155.355 198.624 150.499C198.126 148.658 197.887 146.867 197.389 144.707C196.508 140.898 196.566 136.434 198.418 132.629L202.819 119.359C202.953 119.908 202.996 120.475 202.947 121.038V121.038Z" fill="#FCF1DD"/>
</g>
<path d="M263.29 148.836C263.262 150.255 263.2 151.512 263.109 152.637C262.772 156.774 262.06 159.136 261.302 161.113C261.216 161.341 261.129 161.556 261.043 161.775C260.594 162.908 260.145 163.967 259.771 165.229C258.536 169.452 251.867 174.11 251.867 174.11C251.867 174.11 250.764 174.685 249.146 175.442C246.697 176.58 243.074 178.119 240.292 178.693C239.176 178.922 238.042 179.042 236.904 179.053C233.775 179.091 231.013 178.338 228.127 177.961C224.245 177.461 221.199 177.064 216.412 173.75C211.624 170.437 210.69 166.78 205.77 161.188C200.851 155.595 201.333 152.964 200.213 151.827C199.283 150.883 198.385 144.381 198.081 139.938C198.019 139.028 197.978 138.201 197.97 137.531C197.983 136.794 198.077 136.062 198.25 135.346C198.402 134.647 198.612 133.874 198.863 133.051C198.933 132.811 199.015 132.563 199.093 132.314C199.382 131.437 199.703 130.519 200.049 129.576C200.744 127.673 201.539 125.696 202.288 123.859C203.161 121.716 203.972 119.772 204.494 118.37L204.531 118.279C205.046 116.954 205.757 115.714 206.639 114.602C206.96 114.188 207.294 113.774 207.619 113.427C207.89 113.125 208.158 112.848 208.417 112.599C208.784 112.235 209.134 111.913 209.447 111.636C209.908 111.225 210.39 110.838 210.891 110.477L211.184 110.138L212.563 108.554C214.209 106.643 220.66 108.049 220.66 108.049L231.017 108.541L231.165 108.604L235.43 110.386L237.175 111.627L238.447 112.533L241.741 114.887L242.214 115.189C242.807 115.57 243.889 116.289 245.058 117.195C246.549 118.349 248.175 119.805 249.097 121.224C250.172 122.856 251.527 124.283 253.098 125.439C253.555 125.774 253.843 125.944 253.843 125.944C255.723 128.488 257.408 131.172 258.882 133.973C261.179 138.345 263.389 143.859 263.29 148.836Z" fill="#F9ECD9"/>
<g style="mix-blend-mode:multiply" opacity="0.59">
<path d="M236.904 179.053C233.775 179.091 231.017 178.338 228.131 177.965C224.249 177.461 221.203 177.064 216.416 173.754C211.628 170.445 210.69 166.78 205.775 161.188C200.859 155.595 201.337 152.968 200.217 151.827C199.283 150.883 198.39 144.381 198.081 139.938C198.237 140.352 198.468 140.765 198.735 141.444C199.27 142.644 199.581 143.932 199.653 145.245C199.752 146.672 200.617 147.632 201.765 149.622C202.914 151.611 202.971 152.327 204.4 154.354C205.828 156.381 205.359 156.745 206.186 157.986C207.014 159.227 207.652 159.732 208.516 160.691C209.381 161.651 209.22 161.779 209.632 162.962C210.043 164.145 210.579 164.36 211.439 165.32C212.299 166.28 213.131 167.521 213.785 167.889C215.222 168.721 216.745 169.395 218.326 169.899C221.026 170.818 219.487 170.755 219.487 170.755C219.487 170.755 222.438 172.981 225.172 173.622C227.905 174.263 226.839 173.837 228.033 174.412C229.226 174.987 232.495 175.843 232.495 175.843L236.904 179.053Z" fill="#FFEFCC"/>
</g>
<g style="mix-blend-mode:multiply" opacity="0.42">
<path d="M261.302 161.113C261.216 161.341 261.129 161.56 261.043 161.779C260.594 162.913 260.15 163.967 259.775 165.229C258.54 169.457 251.871 174.11 251.871 174.11C251.871 174.11 250.768 174.685 249.146 175.442C246.701 176.58 243.078 178.123 240.291 178.694C239.177 178.926 238.042 179.047 236.904 179.053C233.775 179.091 231.017 178.338 228.131 177.966C224.249 177.461 221.203 177.064 216.416 173.754C211.628 170.445 210.69 166.78 205.775 161.188C200.859 155.595 201.337 152.968 200.217 151.827C199.283 150.883 198.39 144.381 198.081 139.938C198.019 139.028 197.982 138.205 197.974 137.531C197.983 136.794 198.077 136.061 198.254 135.346C198.406 134.652 198.612 133.878 198.863 133.055C200.431 134.416 202.494 136.439 202.494 136.439C202.494 136.439 205.75 138.209 208.738 138.296C211.727 138.383 213.468 138.106 218.108 137.357C222.747 136.608 220.697 138.66 224.447 139.777C228.197 140.894 229.844 140.054 229.844 140.054C229.844 140.054 236.27 143.032 238.95 144.898C241.629 146.763 243.815 149.278 246.586 151.702C249.356 154.126 247.343 152.732 248.994 153.907C250.645 155.082 250.113 155.148 250.381 156.836C250.649 158.524 254.403 159.632 254.403 159.632L256.14 159.351C257.317 159.144 259.82 160.335 261.302 161.113Z" fill="#FCF1DD"/>
</g>
<g style="mix-blend-mode:multiply">
<path d="M237.155 111.631L234.216 112.815L223.023 115.516C221.21 115.954 219.327 116.021 217.488 115.711C215.649 115.401 213.891 114.721 212.32 113.712L211.06 112.885L209.438 111.607C209.9 111.196 210.382 110.809 210.883 110.448L211.175 110.109L212.563 108.554C214.209 106.643 220.66 108.049 220.66 108.049L231.017 108.541L231.165 108.604L235.43 110.386L237.155 111.631Z" fill="#FCF1DD"/>
</g>
<path d="M262.932 175.587C262.932 175.649 262.932 175.707 262.912 175.769C262.796 176.776 262.51 177.755 262.064 178.665L261.24 180.319C261.01 180.799 260.734 181.257 260.417 181.684C259.2 183.327 257.455 184.496 255.477 184.994L249.109 186.561L239.983 188.812L232.927 190.553C232.4 190.683 231.863 190.766 231.322 190.801L228.345 190.963L227.934 190.987C227.199 191.024 226.474 190.81 225.875 190.379C223.944 188.98 222.389 187.121 221.347 184.969C221.203 184.675 221.067 184.369 220.936 184.063C220.672 183.411 220.456 182.74 220.289 182.057L220.207 181.705C220.082 181.19 220.015 180.663 220.009 180.133C220.009 180.133 220.009 180.133 220.009 180.112V179.997C220.011 179.691 220.033 179.385 220.075 179.082L220.306 177.428V177.337L220.425 176.472L220.993 172.423C221.225 170.769 221.921 169.215 222.998 167.943C224.075 166.671 225.49 165.732 227.078 165.237L240.024 161.204C241.75 160.662 243.601 160.671 245.322 161.229L254.465 164.199C255.13 164.416 255.757 164.739 256.321 165.155C256.321 165.155 256.346 165.155 256.354 165.179L257.107 165.742L258.915 167.082C259.315 167.385 259.69 167.721 260.034 168.087C260.179 168.232 260.316 168.384 260.446 168.542L260.858 169.035L260.961 169.155L261.076 169.304C261.129 169.366 261.179 169.432 261.228 169.498C262.197 170.814 262.786 172.372 262.932 174.003C262.979 174.53 262.979 175.06 262.932 175.587V175.587Z" fill="#FCF1DD"/>
<g style="mix-blend-mode:multiply">
<path d="M262.932 175.591C262.93 175.652 262.923 175.713 262.912 175.773C262.799 176.781 262.512 177.761 262.064 178.669L261.24 180.323C261.006 180.803 260.73 181.261 260.417 181.692C259.196 183.331 257.452 184.499 255.477 185.002L249.109 186.569L232.927 190.561C232.402 190.69 231.866 190.772 231.326 190.805L228.345 190.967L227.934 190.991C227.199 191.025 226.475 190.811 225.875 190.383C224.697 189.524 223.654 188.491 222.784 187.318C223.269 187.193 223.713 186.944 224.072 186.594C225.81 185.175 228.004 188.369 230.544 188.348C233.083 188.328 232.388 187.438 235.409 187.318C238.431 187.198 238.122 185.697 238.991 184.989C239.859 184.282 240.835 184.079 243.375 184.059C245.915 184.038 245.021 182.152 245.878 181.44C246.734 180.729 251.295 178.201 252.649 177.395C254.004 176.588 254.876 175.881 256.231 175.07C257.585 174.259 258.248 172.551 259.499 171.239C260.215 170.491 260.8 169.94 261.245 169.498C261.43 169.754 261.603 170.011 261.759 170.28C262.7 171.881 263.111 173.74 262.932 175.591V175.591Z" fill="#FCF1DD"/>
</g>
<g style="mix-blend-mode:multiply">
<path d="M262.932 175.591C262.834 176.663 262.54 177.708 262.064 178.673L261.24 180.327C261.006 180.807 260.73 181.265 260.417 181.697C259.196 183.335 257.452 184.503 255.477 185.006L249.109 186.574L232.927 190.565C232.402 190.694 231.866 190.776 231.326 190.81L228.345 190.971L229.391 190.098L233.211 188.179L245.149 186.739C245.149 186.739 254.699 182.905 258.997 180.025C260.626 178.866 261.972 177.35 262.932 175.591Z" fill="#FCF1DD"/>
</g>
<g style="mix-blend-mode:multiply">
<path d="M262.932 175.587C262.932 175.649 262.932 175.707 262.912 175.769C262.796 176.776 262.51 177.755 262.064 178.665L261.24 180.319C261.01 180.799 260.734 181.257 260.417 181.684C259.2 183.327 257.455 184.496 255.477 184.994L249.109 186.561L239.983 188.812L232.927 190.553C232.4 190.683 231.863 190.766 231.322 190.801L228.345 190.963L227.934 190.987C227.199 191.024 226.474 190.81 225.875 190.379C223.944 188.98 222.389 187.121 221.347 184.969C221.203 184.675 221.067 184.369 220.936 184.063C220.672 183.411 220.456 182.74 220.289 182.057C221.174 181.175 221.216 180.303 222.183 179.422C223.15 178.54 222.183 177.581 224.212 177.581H238.381C239.39 177.581 243.445 176.658 244.453 176.658C245.462 176.658 248.5 175.744 249.517 174.826L251.538 172.985C252.555 172.067 254.572 172.067 254.572 171.153C254.572 170.238 256.597 169.312 258.626 169.312H261.072C261.125 169.374 261.175 169.44 261.224 169.506C262.193 170.822 262.782 172.381 262.928 174.011C262.975 174.535 262.977 175.063 262.932 175.587Z" fill="#FCF1DD"/>
</g>
<g style="mix-blend-mode:saturation" opacity="0.51">
<path d="M261.302 161.113C261.216 161.341 261.129 161.56 261.043 161.779C259.685 161.31 258.279 160.994 256.852 160.836C251.414 160.067 249.253 159.012 245.939 158.883C242.626 158.755 237.521 157.134 235.846 156.865C234.17 156.596 233.845 152.89 228.407 152.12C222.969 151.351 221.973 149.365 218.939 147.984C215.905 146.602 216.226 145.316 211.986 144.029C207.746 142.743 205.211 142.13 203.531 141.861C201.852 141.593 201.181 140.745 199.785 140.281C199.222 140.122 198.646 140.01 198.064 139.946C198.003 139.036 197.966 138.213 197.957 137.539C197.966 136.802 198.06 136.069 198.237 135.355C198.39 134.66 198.595 133.886 198.846 133.063C198.921 132.823 199.003 132.575 199.077 132.327C199.902 132.452 200.716 132.644 201.51 132.902C202.37 133.245 205.314 133.82 207.434 134.461C209.554 135.102 213.551 133.51 218.503 133.489C223.455 133.468 228.308 132.215 231.626 132.335C234.944 132.455 242.399 132.637 244.145 133.729C245.89 134.821 249.694 135.735 250.924 135.628C252.155 135.52 256.161 133.911 257.844 134.176C258.203 134.207 258.563 134.14 258.886 133.981C261.191 138.345 263.414 143.859 263.303 148.84C263.274 150.259 263.212 151.512 263.122 152.641C262.784 156.774 262.06 159.144 261.302 161.113Z" fill="#FCF1DD"/>
</g>
<path d="M244.988 101.265C244.816 102.287 244.499 103.279 244.046 104.21C242.85 106.705 240.765 108.656 238.204 109.679L234.088 111.334L222.895 114.035C221.082 114.473 219.2 114.54 217.361 114.23C215.522 113.92 213.764 113.24 212.192 112.231L210.933 111.404L207.03 108.33L205.281 106.531L204.21 105.431C199.48 100.566 200.584 91.6436 206.956 89.3478L216.202 84.6114C220.318 82.5059 225.867 82.9816 230.198 84.5659L233.009 85.5959L236.714 86.9486C239.118 87.827 241.207 89.4064 242.712 91.4845C244.218 93.5626 245.072 96.0449 245.165 98.6137C245.196 99.5013 245.137 100.39 244.988 101.265V101.265Z" fill="#FCF1DD"/>
<path d="M212.151 85.3229C212.219 84.0422 212.539 82.7878 213.093 81.6326C213.648 80.4775 214.425 79.4446 215.381 78.5943C216.336 77.7439 217.45 77.093 218.658 76.6795C219.866 76.2659 221.144 76.0979 222.418 76.1852L225.596 76.4045L229.078 78.026C230.957 78.9003 232.436 80.458 233.217 82.3848C233.997 84.3117 234.022 86.4644 233.285 88.4088C232.531 88.9718 231.615 89.2737 230.675 89.2692H229.729L225.612 91.8918C225.274 92.1069 224.893 92.2422 224.495 92.2873C224.098 92.3324 223.696 92.2863 223.319 92.1524L216.478 89.7242C215.628 89.4245 214.735 89.2707 213.835 89.2692H206.709C206.59 89.2699 206.475 89.2305 206.382 89.1571C206.288 89.0838 206.222 88.9809 206.194 88.8652C206.166 88.7494 206.177 88.6274 206.227 88.5191C206.276 88.4108 206.361 88.3223 206.466 88.2682L212.151 85.3229Z" fill="#236184"/>
<path d="M222.194 76.5223C219.02 76.5223 213.439 81.1927 212.558 85.139" stroke="#0D547C"/>
<path d="M226.032 76.6444C228.263 79.7551 231.667 85.3891 229.704 89.0004" stroke="#0D547C"/>
<path d="M212.151 85.3064C219.231 85.054 222.508 85.8193 229.72 89.1286" stroke="#0D547C"/>
<path d="M225.114 76.5203C223.146 77.4097 220.277 81.5545 220.129 85.6911" stroke="#0D547C"/>
<path d="M226.25 76.5617C226.197 76.7685 225.863 76.8595 225.505 76.7726C225.147 76.6858 224.912 76.4458 224.953 76.2432C224.995 76.0405 225.34 75.9453 225.698 76.0322C226.057 76.1191 226.304 76.359 226.25 76.5617Z" fill="#10415C"/>
<g style="mix-blend-mode:multiply" opacity="0.43">
<path d="M244.046 104.211C242.85 106.705 240.765 108.656 238.204 109.679L234.088 111.334L222.895 114.035C221.082 114.473 219.2 114.54 217.361 114.23C215.522 113.92 213.764 113.24 212.192 112.231L210.933 111.404L207.03 108.331L205.281 106.531C206.166 106.204 207.121 105.704 207.524 105.634C208.347 105.48 210.76 105.021 210.681 104.612C210.603 104.202 210.529 104.566 210.937 103.722C211.904 101.72 213.46 101.559 213.942 101.89C214.172 102.047 214.983 102.763 215.765 103.47C216.594 104.252 217.623 104.786 218.738 105.013C219.203 105.096 219.322 105.522 219.746 105.84C221.265 107.04 221.677 107.454 223.039 107.739C224.25 107.995 226.205 106.539 226.205 106.539C226.205 106.539 228.625 106.258 229.498 106.515C230.371 106.771 232.231 107.677 232.964 107.119C233.697 106.56 237.011 106.353 237.011 106.353L239.53 105.675L244.046 104.211Z" fill="#FCF1DD"/>
</g>
<g style="mix-blend-mode:multiply">
<path d="M245.165 98.6137L241.012 97.5713L240.382 97.4183C239.248 97.1417 238.213 96.553 237.394 95.7182C235.92 94.1819 234.679 92.4354 233.713 90.535C233.144 89.41 232.691 88.229 232.363 87.0107L233.026 85.6042L236.731 86.9569C239.13 87.8375 241.215 89.4167 242.717 91.493C244.219 93.5693 245.072 96.0484 245.165 98.6137V98.6137Z" fill="#FCF1DD"/>
</g>
<path d="M251.439 91.8297L251.344 92.2434C251.168 93.3125 250.745 94.3253 250.109 95.201C249.333 96.2684 248.271 97.0913 247.046 97.5733C245.821 98.0554 244.485 98.1767 243.194 97.9229L242.259 97.7409L237.533 94.6137C235.971 93.5994 234.793 92.0869 234.188 90.319C233.583 88.5511 233.587 86.6303 234.199 84.865C234.811 83.0996 235.996 81.5921 237.563 80.5844C239.13 79.5768 240.988 79.1274 242.84 79.3084L243.791 79.3994C245.637 79.5783 247.353 80.4338 248.611 81.8027L248.858 82.0716C250.047 83.3634 250.904 84.9278 251.354 86.6286C251.804 88.3295 251.833 90.115 251.439 91.8297V91.8297Z" fill="#FCF1DD"/>
<g style="mix-blend-mode:multiply" opacity="0.43">
<path d="M248.376 96.8391C247.627 97.3552 246.783 97.7167 245.893 97.9027C245.003 98.0888 244.086 98.0956 243.194 97.9229L242.259 97.7409L237.533 94.6136C236.305 93.8037 235.314 92.6789 234.663 91.3554C234.011 90.032 233.723 88.5577 233.829 87.0851C233.893 87.1888 233.969 87.2846 234.055 87.3705C234.726 88.0323 234.841 89.0665 235.29 89.4388C235.739 89.8111 235.368 90.2661 235.813 90.6384C236.257 91.0107 237.566 91.7222 238.015 92.0945C238.464 92.4667 239.32 92.8059 239.732 93.1824C240.143 93.5588 241.115 94.7129 241.971 95.0521C242.827 95.3913 243.276 95.7636 244.507 95.6478C245.738 95.5319 245.812 96.3593 247.076 96.6571C247.503 96.7549 247.938 96.8158 248.376 96.8391V96.8391Z" fill="#FCF1DD"/>
</g>
<path d="M253.316 140.712L248.755 161.262C248.577 162.083 248.301 162.879 247.932 163.632L247.454 164.596C245.779 167.996 242.465 169.68 238.921 168.935L237.715 168.679C236.928 168.505 236.168 168.226 235.455 167.852L232.767 166.478C231.391 165.722 230.349 164.472 229.848 162.979L228.753 159.889C228.617 159.5 228.498 159.107 228.395 158.714C228.366 158.598 228.337 158.486 228.312 158.371C228.234 158.036 228.168 157.696 228.119 157.357C227.871 155.833 227.908 154.276 228.226 152.766L232.754 131.834C232.917 131.069 233.164 130.324 233.491 129.613L234.421 128.136C234.512 128 234.619 127.847 234.742 127.681C234.932 127.421 235.154 127.131 235.418 126.825C236.459 125.584 238.011 124.174 239.769 123.586L242.65 123.173C243.836 123.363 245.668 124.542 246.767 125.241L246.956 125.357L248.01 126.023L250.068 127.309C251.756 128.38 251.563 129.969 252.299 132.045L252.814 133.51C252.876 133.684 252.933 133.857 252.983 134.035C253.109 134.425 253.213 134.821 253.296 135.222C253.32 135.33 253.341 135.433 253.361 135.541C253.382 135.648 253.39 135.698 253.403 135.777C253.7 137.411 253.671 139.089 253.316 140.712Z" fill="#FCF1DD"/>
<g style="mix-blend-mode:multiply">
<path d="M253.316 140.712L248.755 161.262C248.577 162.083 248.301 162.879 247.932 163.632L247.454 164.596C245.779 167.996 242.465 169.68 238.921 168.935L237.715 168.679C236.928 168.505 236.168 168.226 235.455 167.852L232.767 166.478C231.391 165.722 230.349 164.472 229.848 162.979L228.753 159.889C228.617 159.5 228.498 159.107 228.395 158.714C229.213 159.198 229.969 159.783 230.642 160.455C234.096 163.947 237.525 166.42 238.501 166.909C239.476 167.397 242.86 167.322 244.264 165.275C245.859 162.955 247.228 160.487 248.352 157.903C249.879 154.515 251.233 150.428 251.686 147.88C252.139 145.332 250.682 145.866 251.571 141.787C252.048 139.75 252.658 137.746 253.398 135.789C253.696 137.419 253.668 139.092 253.316 140.712V140.712Z" fill="#FCF1DD"/>
</g>
<g style="mix-blend-mode:multiply" opacity="0.15">
<path d="M253.316 140.712L248.755 161.262C248.577 162.083 248.301 162.879 247.932 163.632L247.454 164.596C245.779 167.996 242.465 169.68 238.921 168.935L237.715 168.679C236.928 168.505 236.168 168.226 235.455 167.852L232.767 166.478C231.391 165.722 230.349 164.472 229.848 162.979L228.753 159.889C228.617 159.5 228.498 159.107 228.395 158.714C228.366 158.598 228.337 158.486 228.312 158.371C228.234 158.036 228.168 157.696 228.119 157.357C228.452 157.511 228.768 157.7 229.062 157.92C229.473 158.333 229.885 157.506 230.297 158.333C230.615 159.075 231.03 159.771 231.532 160.402C231.943 160.815 231.943 160.402 232.355 160.815C232.695 161.186 233.119 161.469 233.59 161.643C234.413 162.056 235.236 161.903 235.446 162.598C235.656 163.293 235.648 164.125 236.471 164.125H238.118C238.53 164.125 238.53 164.952 239.765 164.538C241 164.125 240.588 164.538 241 164.125C241.411 163.711 241.823 163.297 242.235 163.297C242.646 163.297 242.235 162.884 243.058 162.47C243.881 162.056 244.704 161.229 245.116 161.229C245.528 161.229 246.763 160.402 246.763 159.574C246.763 158.747 247.586 156.265 247.586 155.851C247.586 155.438 249.644 151.715 249.644 151.715C249.68 151.009 249.819 150.312 250.056 149.647C250.395 148.578 250.534 147.457 250.468 146.337V142.614C250.468 140.133 250.468 138.892 251.291 138.064C251.637 137.717 252.349 135.648 252.97 134.035C253.096 134.425 253.201 134.821 253.283 135.222C253.308 135.33 253.329 135.433 253.349 135.541C253.37 135.648 253.378 135.698 253.39 135.777C253.692 137.41 253.667 139.088 253.316 140.712V140.712Z" fill="#FCF1DD"/>
</g>
<g clip-path="url(#clip11)">
<path d="M269.319 280.088L302.853 290.35L269.319 300.583L235.957 290.35L269.319 280.088Z" fill="#AFC61E"/>
<path d="M269.318 300.583V362.067L302.852 351.834V290.35L269.318 300.583Z" fill="#8EB028"/>
<path d="M235.985 290.321L235.928 351.805L269.29 362.096L269.347 300.612L235.985 290.321Z" fill="#799622"/>
<path d="M270.322 297.446L269.347 298.443C269.347 298.443 271.613 298.443 271.785 298.443C270.982 298.472 271.843 297.504 271.843 297.504C271.843 297.504 271.097 298.355 270.925 298.384C270.408 298.501 271.068 297.446 271.068 297.446C271.068 297.446 270.294 298.384 270.15 298.384C269.691 298.384 270.322 297.446 270.322 297.446Z" fill="#799622"/>
<path d="M286.387 289.06L285.411 290.057C285.411 290.057 287.677 290.057 287.85 290.057C287.046 290.086 287.907 289.119 287.907 289.119C287.907 289.119 287.161 289.969 286.989 289.998C286.473 290.116 287.132 289.06 287.132 289.06C287.132 289.06 286.358 289.998 286.214 289.998C285.755 289.998 286.387 289.06 286.387 289.06Z" fill="#799622"/>
<path d="M262.921 283.577L262.147 284.369C262.147 284.369 263.954 284.369 264.069 284.369C263.438 284.398 264.098 283.607 264.098 283.607C264.098 283.607 263.495 284.281 263.38 284.31C262.979 284.398 263.495 283.577 263.495 283.577C263.495 283.577 262.893 284.31 262.778 284.31C262.434 284.31 262.921 283.577 262.921 283.577Z" fill="#799622"/>
</g>
<g clip-path="url(#clip12)">
<path d="M302.881 304L357.999 320.768L302.881 337.488L248.046 320.768L302.881 304Z" fill="#AFC61E"/>
<path d="M302.882 337.488V437.952L358 421.232V320.768L302.882 337.488Z" fill="#8EB028"/>
<path d="M248.094 320.72L248 421.184L302.835 438L302.929 337.536L248.094 320.72Z" fill="#799622"/>
<path d="M304.532 332.362L302.929 333.991C302.929 333.991 306.654 333.991 306.937 333.991C305.617 334.039 307.031 332.458 307.031 332.458C307.031 332.458 305.805 333.847 305.522 333.895C304.674 334.087 305.758 332.362 305.758 332.362C305.758 332.362 304.485 333.895 304.249 333.895C303.495 333.895 304.532 332.362 304.532 332.362Z" fill="#799622"/>
<path d="M292.368 309.701L291.095 310.995C291.095 310.995 294.065 310.995 294.254 310.995C293.216 311.043 294.301 309.749 294.301 309.749C294.301 309.749 293.311 310.851 293.122 310.899C292.462 311.043 293.311 309.701 293.311 309.701C293.311 309.701 292.321 310.899 292.132 310.899C291.566 310.899 292.368 309.701 292.368 309.701Z" fill="#799622"/>
</g>
<g clip-path="url(#clip13)">
<path d="M242.188 217.25L237.433 218.638V231.607L234.22 232.517V219.592L229.421 220.98V218.248L242.188 214.561V217.25Z" fill="white"/>
<path d="M248.529 212.696L258.255 209.877V212.609L251.742 214.474V218.161L257.655 216.426V219.158L251.742 220.893V224.754L258.383 222.845V225.534L248.529 228.397V212.696V212.696Z" fill="white"/>
<path d="M272.479 217.25C272.479 216.773 272.264 216.426 271.922 216.252C271.493 216.036 271.022 215.905 270.551 215.819C269.994 215.732 269.394 215.645 268.751 215.602C268.109 215.515 267.509 215.385 266.952 215.168C266.395 214.951 265.924 214.604 265.581 214.127C265.195 213.563 264.981 212.869 265.024 212.089C265.024 211.395 265.152 210.701 265.409 210.007C265.666 209.356 266.052 208.792 266.566 208.272C267.08 207.708 267.68 207.274 268.323 206.927C269.051 206.537 269.822 206.233 270.551 206.016C271.45 205.756 272.35 205.583 273.25 205.496C273.978 205.409 274.706 205.409 275.349 205.583L274.321 208.445C273.85 208.315 273.335 208.272 272.778 208.315C272.05 208.358 271.322 208.489 270.551 208.705C269.951 208.836 269.351 209.183 268.837 209.616C268.451 209.963 268.237 210.484 268.237 210.917C268.237 211.351 268.451 211.742 268.794 211.872C269.222 212.089 269.694 212.219 270.165 212.305C270.722 212.392 271.322 212.479 271.964 212.566C272.607 212.652 273.207 212.783 273.764 212.999C274.321 213.216 274.792 213.563 275.135 213.997C275.52 214.517 275.692 215.211 275.692 215.949C275.692 216.686 275.563 217.467 275.263 218.248C274.963 218.942 274.578 219.549 274.064 220.113C273.507 220.72 272.864 221.197 272.179 221.544C271.407 221.978 270.593 222.325 269.779 222.542C268.751 222.845 267.723 223.062 266.695 223.105C266.009 223.149 265.367 223.149 264.724 223.062L265.709 220.113C265.924 220.156 266.138 220.199 266.395 220.199C266.695 220.243 266.995 220.243 267.337 220.199C267.68 220.199 268.023 220.156 268.408 220.113C268.794 220.069 269.18 219.983 269.565 219.852C270.336 219.679 271.065 219.289 271.75 218.768C272.179 218.421 272.479 217.814 272.479 217.25Z" fill="white"/>
<path d="M293.557 214.69C292.958 215.254 292.315 215.688 291.629 215.991C290.858 216.382 290.044 216.685 289.273 216.902C288.33 217.163 287.388 217.293 286.488 217.249C285.631 217.206 284.817 216.946 284.175 216.512C283.489 215.991 282.932 215.297 282.589 214.43C282.161 213.346 281.947 212.131 281.99 210.83C281.947 209.529 282.161 208.141 282.632 206.753C283.018 205.669 283.618 204.671 284.389 203.76C285.074 202.936 285.846 202.242 286.745 201.722C287.602 201.201 288.459 200.811 289.359 200.551C290.173 200.29 290.944 200.16 291.715 200.03C292.272 199.987 292.786 199.943 293.3 199.987L292.7 202.763C292.272 202.719 291.844 202.719 291.415 202.763C290.815 202.849 290.216 202.979 289.616 203.196C288.416 203.5 287.302 204.324 286.488 205.408C285.674 206.536 285.289 208.011 285.289 209.876C285.289 210.613 285.374 211.351 285.589 212.001C285.76 212.565 286.06 213.085 286.445 213.476C286.831 213.823 287.302 214.083 287.859 214.17C288.502 214.257 289.144 214.213 289.83 213.996C290.43 213.823 291.03 213.606 291.587 213.259C292.015 212.999 292.443 212.738 292.829 212.391L293.557 214.69Z" fill="white"/>
</g>
<path d="M202.807 292.201L255.79 308.145L202.807 324.045L150.097 308.145L202.807 292.201Z" fill="#AFC61E"/>
<path d="M202.808 324.045V419.577L255.791 403.678V308.145L202.808 324.045Z" fill="#8EB028"/>
<path d="M150.143 308.1L150.052 403.633L202.763 419.623L202.853 324.09L150.143 308.1Z" fill="#799622"/>
<path d="M204.394 319.17L202.853 320.719C202.853 320.719 206.434 320.719 206.706 320.719C205.437 320.765 206.797 319.261 206.797 319.261C206.797 319.261 205.618 320.582 205.346 320.628C204.53 320.81 205.573 319.17 205.573 319.17C205.573 319.17 204.349 320.628 204.122 320.628C203.397 320.628 204.394 319.17 204.394 319.17Z" fill="#799622"/>
<path d="M229.775 306.141L228.234 307.69C228.234 307.69 231.815 307.69 232.087 307.69C230.818 307.735 232.177 306.232 232.177 306.232C232.177 306.232 230.999 307.553 230.727 307.599C229.911 307.781 230.954 306.141 230.954 306.141C230.954 306.141 229.73 307.599 229.503 307.599C228.778 307.599 229.775 306.141 229.775 306.141Z" fill="#799622"/>
<path d="M192.701 297.622L191.477 298.852C191.477 298.852 194.333 298.852 194.514 298.852C193.517 298.897 194.559 297.667 194.559 297.667C194.559 297.667 193.608 298.715 193.426 298.761C192.792 298.897 193.608 297.622 193.608 297.622C193.608 297.622 192.656 298.761 192.474 298.761C191.931 298.761 192.701 297.622 192.701 297.622Z" fill="#799622"/>
<path d="M40.2473 268L157.999 308.043L40.2473 347.971L-76.9002 308.043L40.2473 268Z" fill="#AFC61E"/>
<path d="M40.2482 347.971V587.886L158 547.957V308.043L40.2482 347.971Z" fill="#8EB028"/>
<path d="M-76.7985 307.928L-77 547.843L40.1475 588L40.3489 348.086L-76.7985 307.928Z" fill="#799622"/>
<path d="M43.7737 335.73L40.3489 339.62C40.3489 339.62 48.3065 339.62 48.9109 339.62C46.0905 339.734 49.1123 335.959 49.1123 335.959C49.1123 335.959 46.4934 339.276 45.889 339.391C44.0759 339.848 46.3926 335.73 46.3926 335.73C46.3926 335.73 43.673 339.391 43.1693 339.391C41.5577 339.391 43.7737 335.73 43.7737 335.73Z" fill="#799622"/>
<path d="M100.182 303.009L96.7569 306.899C96.7569 306.899 104.714 306.899 105.319 306.899C102.498 307.013 105.52 303.238 105.52 303.238C105.52 303.238 102.901 306.556 102.297 306.67C100.484 307.128 102.801 303.009 102.801 303.009C102.801 303.009 100.081 306.67 99.5773 306.67C97.9657 306.67 100.182 303.009 100.182 303.009Z" fill="#799622"/>
<path d="M17.7856 281.615L15.066 284.704C15.066 284.704 21.4119 284.704 21.8148 284.704C19.5988 284.818 21.9155 281.729 21.9155 281.729C21.9155 281.729 19.8002 284.36 19.3973 284.475C17.9871 284.818 19.8002 281.615 19.8002 281.615C19.8002 281.615 17.6849 284.475 17.282 284.475C16.0733 284.475 17.7856 281.615 17.7856 281.615Z" fill="#799622"/>
<path d="M43.45 76.575V83.075H28.5V91.575H39.95V97.825H28.5V106.5H43.45V113H20V76.575H43.45ZM84.2215 94.775C84.2215 97.4083 83.7632 99.8583 82.8465 102.125C81.9465 104.392 80.6715 106.367 79.0215 108.05C77.3715 109.717 75.3798 111.025 73.0465 111.975C70.7298 112.925 68.1548 113.4 65.3215 113.4C62.4882 113.4 59.9048 112.925 57.5715 111.975C55.2382 111.025 53.2382 109.717 51.5715 108.05C49.9215 106.367 48.6382 104.392 47.7215 102.125C46.8215 99.8583 46.3715 97.4083 46.3715 94.775C46.3715 92.1417 46.8215 89.6917 47.7215 87.425C48.6382 85.1583 49.9215 83.1917 51.5715 81.525C53.2382 79.8583 55.2382 78.55 57.5715 77.6C59.9048 76.65 62.4882 76.175 65.3215 76.175C68.1548 76.175 70.7298 76.6583 73.0465 77.625C75.3798 78.575 77.3715 79.8833 79.0215 81.55C80.6715 83.2167 81.9465 85.1833 82.8465 87.45C83.7632 89.7167 84.2215 92.1583 84.2215 94.775ZM75.5715 94.775C75.5715 92.975 75.3382 91.3583 74.8715 89.925C74.4048 88.475 73.7298 87.25 72.8465 86.25C71.9798 85.25 70.9132 84.4833 69.6465 83.95C68.3798 83.4167 66.9382 83.15 65.3215 83.15C63.6882 83.15 62.2298 83.4167 60.9465 83.95C59.6798 84.4833 58.6048 85.25 57.7215 86.25C56.8548 87.25 56.1882 88.475 55.7215 89.925C55.2548 91.3583 55.0215 92.975 55.0215 94.775C55.0215 96.5917 55.2548 98.225 55.7215 99.675C56.1882 101.108 56.8548 102.325 57.7215 103.325C58.6048 104.325 59.6798 105.092 60.9465 105.625C62.2298 106.142 63.6882 106.4 65.3215 106.4C66.9382 106.4 68.3798 106.142 69.6465 105.625C70.9132 105.092 71.9798 104.325 72.8465 103.325C73.7298 102.325 74.4048 101.108 74.8715 99.675C75.3382 98.225 75.5715 96.5917 75.5715 94.775ZM113.198 76.575V83.275H102.948V113H94.498V83.275H84.248V76.575H113.198ZM132.316 106.9C133.483 106.9 134.516 106.8 135.416 106.6C136.316 106.4 137.166 106.133 137.966 105.8V100.275H134.366C133.833 100.275 133.416 100.133 133.116 99.85C132.816 99.5667 132.666 99.2083 132.666 98.775V94.125H145.616V109.5C144.683 110.183 143.708 110.775 142.691 111.275C141.691 111.758 140.616 112.158 139.466 112.475C138.333 112.792 137.116 113.025 135.816 113.175C134.533 113.325 133.149 113.4 131.666 113.4C128.999 113.4 126.533 112.933 124.266 112C121.999 111.05 120.033 109.75 118.366 108.1C116.716 106.433 115.416 104.467 114.466 102.2C113.533 99.9167 113.066 97.4417 113.066 94.775C113.066 92.0583 113.516 89.5667 114.416 87.3C115.316 85.0167 116.599 83.05 118.266 81.4C119.949 79.75 121.974 78.4667 124.341 77.55C126.724 76.6333 129.383 76.175 132.316 76.175C133.833 76.175 135.258 76.3 136.591 76.55C137.924 76.8 139.149 77.1417 140.266 77.575C141.399 78.0083 142.433 78.525 143.366 79.125C144.299 79.725 145.133 80.375 145.866 81.075L143.416 84.8C143.183 85.15 142.899 85.425 142.566 85.625C142.249 85.825 141.899 85.925 141.516 85.925C141.016 85.925 140.499 85.7583 139.966 85.425C139.299 85.025 138.666 84.6833 138.066 84.4C137.483 84.1 136.883 83.8583 136.266 83.675C135.649 83.4917 134.999 83.3583 134.316 83.275C133.633 83.1917 132.866 83.15 132.016 83.15C130.433 83.15 129.008 83.4333 127.741 84C126.474 84.55 125.391 85.3333 124.491 86.35C123.608 87.3667 122.924 88.5917 122.441 90.025C121.958 91.4417 121.716 93.025 121.716 94.775C121.716 96.7083 121.983 98.425 122.516 99.925C123.049 101.425 123.783 102.692 124.716 103.725C125.666 104.758 126.783 105.55 128.066 106.1C129.366 106.633 130.783 106.9 132.316 106.9Z" fill="#AFC61E"/>
<path d="M34.022 38.439C34.022 39.387 33.857 40.269 33.527 41.085C33.203 41.901 32.744 42.612 32.15 43.218C31.556 43.818 30.839 44.289 29.999 44.631C29.165 44.973 28.238 45.144 27.218 45.144C26.198 45.144 25.268 44.973 24.428 44.631C23.588 44.289 22.868 43.818 22.268 43.218C21.674 42.612 21.212 41.901 20.882 41.085C20.558 40.269 20.396 39.387 20.396 38.439C20.396 37.491 20.558 36.609 20.882 35.793C21.212 34.977 21.674 34.269 22.268 33.669C22.868 33.069 23.588 32.598 24.428 32.256C25.268 31.914 26.198 31.743 27.218 31.743C28.238 31.743 29.165 31.917 29.999 32.265C30.839 32.607 31.556 33.078 32.15 33.678C32.744 34.278 33.203 34.986 33.527 35.802C33.857 36.618 34.022 37.497 34.022 38.439ZM30.908 38.439C30.908 37.791 30.824 37.209 30.656 36.693C30.488 36.171 30.245 35.73 29.927 35.37C29.615 35.01 29.231 34.734 28.775 34.542C28.319 34.35 27.8 34.254 27.218 34.254C26.63 34.254 26.105 34.35 25.643 34.542C25.187 34.734 24.8 35.01 24.482 35.37C24.17 35.73 23.93 36.171 23.762 36.693C23.594 37.209 23.51 37.791 23.51 38.439C23.51 39.093 23.594 39.681 23.762 40.203C23.93 40.719 24.17 41.157 24.482 41.517C24.8 41.877 25.187 42.153 25.643 42.345C26.105 42.531 26.63 42.624 27.218 42.624C27.8 42.624 28.319 42.531 28.775 42.345C29.231 42.153 29.615 41.877 29.927 41.517C30.245 41.157 30.488 40.719 30.656 40.203C30.824 39.681 30.908 39.093 30.908 38.439ZM42.2085 37.881C42.1245 37.983 42.0435 38.064 41.9655 38.124C41.8875 38.184 41.7765 38.214 41.6325 38.214C41.4945 38.214 41.3685 38.181 41.2545 38.115C41.1465 38.049 41.0235 37.977 40.8855 37.899C40.7475 37.815 40.5855 37.74 40.3995 37.674C40.2135 37.608 39.9825 37.575 39.7065 37.575C39.3645 37.575 39.0675 37.638 38.8155 37.764C38.5695 37.89 38.3655 38.07 38.2035 38.304C38.0415 38.538 37.9215 38.826 37.8435 39.168C37.7655 39.504 37.7265 39.885 37.7265 40.311C37.7265 41.205 37.8975 41.892 38.2395 42.372C38.5875 42.852 39.0645 43.092 39.6705 43.092C39.9945 43.092 40.2495 43.053 40.4355 42.975C40.6275 42.891 40.7895 42.801 40.9215 42.705C41.0535 42.603 41.1735 42.51 41.2815 42.426C41.3955 42.342 41.5365 42.3 41.7045 42.3C41.9265 42.3 42.0945 42.381 42.2085 42.543L43.0185 43.542C42.7305 43.872 42.4275 44.142 42.1095 44.352C41.7915 44.556 41.4645 44.718 41.1285 44.838C40.7985 44.952 40.4655 45.03 40.1295 45.072C39.7935 45.12 39.4665 45.144 39.1485 45.144C38.5785 45.144 38.0325 45.036 37.5105 44.82C36.9945 44.604 36.5385 44.292 36.1425 43.884C35.7525 43.47 35.4405 42.963 35.2065 42.363C34.9785 41.763 34.8645 41.079 34.8645 40.311C34.8645 39.639 34.9635 39.012 35.1615 38.43C35.3655 37.842 35.6625 37.335 36.0525 36.909C36.4485 36.477 36.9345 36.138 37.5105 35.892C38.0925 35.646 38.7645 35.523 39.5265 35.523C40.2585 35.523 40.9005 35.64 41.4525 35.874C42.0045 36.108 42.5025 36.45 42.9465 36.9L42.2085 37.881ZM47.5064 45.144C47.0624 45.144 46.6694 45.081 46.3274 44.955C45.9914 44.823 45.7064 44.64 45.4724 44.406C45.2444 44.166 45.0704 43.878 44.9504 43.542C44.8304 43.206 44.7704 42.831 44.7704 42.417V37.593H43.9784C43.8344 37.593 43.7114 37.548 43.6094 37.458C43.5074 37.362 43.4564 37.224 43.4564 37.044V35.955L44.9414 35.667L45.4904 33.39C45.5624 33.102 45.7664 32.958 46.1024 32.958H47.5604V35.685H49.8284V37.593H47.5604V42.228C47.5604 42.444 47.6114 42.624 47.7134 42.768C47.8214 42.906 47.9744 42.975 48.1724 42.975C48.2744 42.975 48.3584 42.966 48.4244 42.948C48.4964 42.924 48.5564 42.9 48.6044 42.876C48.6584 42.846 48.7064 42.822 48.7484 42.804C48.7964 42.78 48.8504 42.768 48.9104 42.768C48.9944 42.768 49.0604 42.789 49.1084 42.831C49.1624 42.867 49.2164 42.927 49.2704 43.011L50.1164 44.334C49.7564 44.604 49.3514 44.808 48.9014 44.946C48.4514 45.078 47.9864 45.144 47.5064 45.144ZM55.5954 35.523C56.3034 35.523 56.9484 35.634 57.5304 35.856C58.1124 36.078 58.6104 36.396 59.0244 36.81C59.4444 37.224 59.7684 37.728 59.9964 38.322C60.2304 38.91 60.3474 39.573 60.3474 40.311C60.3474 41.055 60.2304 41.727 59.9964 42.327C59.7684 42.921 59.4444 43.428 59.0244 43.848C58.6104 44.262 58.1124 44.583 57.5304 44.811C56.9484 45.033 56.3034 45.144 55.5954 45.144C54.8814 45.144 54.2304 45.033 53.6424 44.811C53.0604 44.583 52.5564 44.262 52.1304 43.848C51.7104 43.428 51.3834 42.921 51.1494 42.327C50.9214 41.727 50.8074 41.055 50.8074 40.311C50.8074 39.573 50.9214 38.91 51.1494 38.322C51.3834 37.728 51.7104 37.224 52.1304 36.81C52.5564 36.396 53.0604 36.078 53.6424 35.856C54.2304 35.634 54.8814 35.523 55.5954 35.523ZM55.5954 43.074C56.2374 43.074 56.7084 42.849 57.0084 42.399C57.3144 41.943 57.4674 41.253 57.4674 40.329C57.4674 39.405 57.3144 38.718 57.0084 38.268C56.7084 37.818 56.2374 37.593 55.5954 37.593C54.9354 37.593 54.4524 37.818 54.1464 38.268C53.8404 38.718 53.6874 39.405 53.6874 40.329C53.6874 41.253 53.8404 41.943 54.1464 42.399C54.4524 42.849 54.9354 43.074 55.5954 43.074ZM61.8788 45V31.527H64.6688V36.657C65.0168 36.315 65.4098 36.042 65.8478 35.838C66.2918 35.628 66.8108 35.523 67.4048 35.523C67.8908 35.523 68.3408 35.628 68.7548 35.838C69.1688 36.048 69.5258 36.357 69.8258 36.765C70.1258 37.167 70.3598 37.662 70.5278 38.25C70.7018 38.838 70.7888 39.507 70.7888 40.257C70.7888 40.959 70.6898 41.607 70.4918 42.201C70.2998 42.795 70.0268 43.311 69.6728 43.749C69.3248 44.187 68.9048 44.529 68.4128 44.775C67.9268 45.021 67.3868 45.144 66.7928 45.144C66.5168 45.144 66.2678 45.117 66.0458 45.063C65.8298 45.009 65.6288 44.934 65.4428 44.838C65.2628 44.736 65.0948 44.616 64.9388 44.478C64.7888 44.34 64.6418 44.19 64.4978 44.028L64.3988 44.496C64.3568 44.688 64.2788 44.82 64.1648 44.892C64.0568 44.964 63.9128 45 63.7328 45H61.8788ZM66.4328 37.62C66.2288 37.62 66.0428 37.641 65.8748 37.683C65.7128 37.719 65.5598 37.773 65.4158 37.845C65.2778 37.917 65.1488 38.01 65.0288 38.124C64.9088 38.232 64.7888 38.358 64.6688 38.502V42.462C64.8788 42.696 65.1068 42.861 65.3528 42.957C65.5988 43.047 65.8568 43.092 66.1268 43.092C66.3848 43.092 66.6218 43.041 66.8378 42.939C67.0538 42.837 67.2398 42.675 67.3958 42.453C67.5578 42.225 67.6838 41.931 67.7738 41.571C67.8638 41.211 67.9088 40.773 67.9088 40.257C67.9088 39.765 67.8728 39.351 67.8008 39.015C67.7288 38.679 67.6268 38.409 67.4948 38.205C67.3688 37.995 67.2158 37.845 67.0358 37.755C66.8558 37.665 66.6548 37.62 66.4328 37.62ZM76.3162 35.523C76.9342 35.523 77.4982 35.619 78.0082 35.811C78.5242 36.003 78.9652 36.282 79.3312 36.648C79.7032 37.014 79.9912 37.464 80.1952 37.998C80.4052 38.526 80.5102 39.126 80.5102 39.798C80.5102 40.008 80.5012 40.179 80.4832 40.311C80.4652 40.443 80.4322 40.548 80.3842 40.626C80.3362 40.704 80.2702 40.758 80.1862 40.788C80.1082 40.818 80.0062 40.833 79.8802 40.833H74.4982C74.5882 41.613 74.8252 42.18 75.2092 42.534C75.5932 42.882 76.0882 43.056 76.6942 43.056C77.0182 43.056 77.2972 43.017 77.5312 42.939C77.7652 42.861 77.9722 42.774 78.1522 42.678C78.3382 42.582 78.5062 42.495 78.6562 42.417C78.8122 42.339 78.9742 42.3 79.1422 42.3C79.3642 42.3 79.5322 42.381 79.6462 42.543L80.4562 43.542C80.1682 43.872 79.8562 44.142 79.5202 44.352C79.1902 44.556 78.8482 44.718 78.4942 44.838C78.1462 44.952 77.7952 45.03 77.4412 45.072C77.0932 45.12 76.7602 45.144 76.4422 45.144C75.7882 45.144 75.1732 45.039 74.5972 44.829C74.0272 44.613 73.5262 44.295 73.0942 43.875C72.6682 43.455 72.3292 42.933 72.0772 42.309C71.8312 41.685 71.7082 40.959 71.7082 40.131C71.7082 39.507 71.8132 38.916 72.0232 38.358C72.2392 37.8 72.5452 37.311 72.9412 36.891C73.3432 36.471 73.8262 36.138 74.3902 35.892C74.9602 35.646 75.6022 35.523 76.3162 35.523ZM76.3702 37.449C75.8362 37.449 75.4192 37.602 75.1192 37.908C74.8192 38.208 74.6212 38.643 74.5252 39.213H78.0082C78.0082 38.991 77.9782 38.775 77.9182 38.565C77.8642 38.355 77.7712 38.169 77.6392 38.007C77.5132 37.839 77.3452 37.704 77.1352 37.602C76.9252 37.5 76.6702 37.449 76.3702 37.449ZM82.1113 45V35.667H83.7673C83.9053 35.667 84.0193 35.679 84.1093 35.703C84.2053 35.727 84.2833 35.766 84.3433 35.82C84.4093 35.868 84.4573 35.934 84.4873 36.018C84.5233 36.102 84.5533 36.204 84.5773 36.324L84.7303 37.197C85.0723 36.669 85.4563 36.252 85.8823 35.946C86.3083 35.64 86.7733 35.487 87.2773 35.487C87.7033 35.487 88.0453 35.589 88.3033 35.793L87.9433 37.845C87.9193 37.971 87.8713 38.061 87.7993 38.115C87.7273 38.163 87.6313 38.187 87.5113 38.187C87.4093 38.187 87.2893 38.175 87.1513 38.151C87.0133 38.121 86.8393 38.106 86.6293 38.106C85.8973 38.106 85.3213 38.496 84.9013 39.276V45H82.1113ZM100.929 33.039C100.929 33.231 100.899 33.405 100.839 33.561C100.779 33.717 100.683 33.855 100.551 33.975C100.425 34.089 100.257 34.179 100.047 34.245C99.8373 34.305 99.5853 34.335 99.2913 34.335H96.1593L95.7903 36.504C96.0363 36.462 96.2733 36.432 96.5013 36.414C96.7293 36.39 96.9513 36.378 97.1673 36.378C97.8573 36.378 98.4663 36.483 98.9943 36.693C99.5223 36.903 99.9663 37.191 100.326 37.557C100.686 37.917 100.956 38.343 101.136 38.835C101.322 39.321 101.415 39.843 101.415 40.401C101.415 41.103 101.289 41.745 101.037 42.327C100.791 42.903 100.446 43.401 100.002 43.821C99.5583 44.241 99.0273 44.568 98.4093 44.802C97.7973 45.03 97.1253 45.144 96.3933 45.144C95.9673 45.144 95.5593 45.099 95.1693 45.009C94.7853 44.919 94.4223 44.799 94.0803 44.649C93.7443 44.493 93.4323 44.316 93.1443 44.118C92.8563 43.914 92.5953 43.698 92.3613 43.47L93.2253 42.318C93.3153 42.198 93.4203 42.108 93.5403 42.048C93.6603 41.982 93.7893 41.949 93.9273 41.949C94.1073 41.949 94.2753 42 94.4313 42.102C94.5933 42.198 94.7673 42.306 94.9533 42.426C95.1453 42.54 95.3673 42.645 95.6193 42.741C95.8713 42.837 96.1833 42.885 96.5553 42.885C96.9273 42.885 97.2453 42.825 97.5093 42.705C97.7733 42.579 97.9863 42.411 98.1483 42.201C98.3163 41.985 98.4363 41.736 98.5083 41.454C98.5863 41.166 98.6253 40.86 98.6253 40.536C98.6253 39.9 98.4453 39.417 98.0853 39.087C97.7253 38.751 97.2153 38.583 96.5553 38.583C95.9673 38.583 95.3913 38.694 94.8273 38.916L93.0993 38.448L94.2153 31.887H100.929V33.039ZM103.289 38.403H108.149V40.653H103.289V38.403ZM113.659 39.888C113.233 39.888 112.807 39.813 112.381 39.663C111.955 39.507 111.568 39.273 111.22 38.961C110.878 38.649 110.599 38.256 110.383 37.782C110.167 37.308 110.059 36.747 110.059 36.099C110.059 35.505 110.167 34.944 110.383 34.416C110.605 33.888 110.917 33.426 111.319 33.03C111.727 32.634 112.213 32.322 112.777 32.094C113.341 31.86 113.971 31.743 114.667 31.743C115.375 31.743 116.008 31.851 116.566 32.067C117.124 32.283 117.595 32.586 117.979 32.976C118.369 33.366 118.666 33.831 118.87 34.371C119.08 34.905 119.185 35.496 119.185 36.144C119.185 36.576 119.149 36.981 119.077 37.359C119.011 37.737 118.915 38.1 118.789 38.448C118.669 38.79 118.522 39.12 118.348 39.438C118.174 39.75 117.979 40.059 117.763 40.365L114.937 44.379C114.817 44.553 114.628 44.7 114.37 44.82C114.112 44.94 113.821 45 113.497 45H110.923L115.081 40.032C115.165 39.93 115.243 39.834 115.315 39.744C115.393 39.648 115.468 39.552 115.54 39.456C115.27 39.6 114.976 39.708 114.658 39.78C114.34 39.852 114.007 39.888 113.659 39.888ZM116.521 35.892C116.521 35.574 116.473 35.295 116.377 35.055C116.287 34.809 116.158 34.605 115.99 34.443C115.828 34.281 115.63 34.158 115.396 34.074C115.162 33.99 114.907 33.948 114.631 33.948C114.349 33.948 114.097 33.999 113.875 34.101C113.659 34.197 113.473 34.332 113.317 34.506C113.167 34.68 113.05 34.887 112.966 35.127C112.888 35.361 112.849 35.616 112.849 35.892C112.849 37.2 113.455 37.854 114.667 37.854C115.261 37.854 115.717 37.677 116.035 37.323C116.359 36.963 116.521 36.486 116.521 35.892ZM123.848 45.144C123.404 45.144 123.011 45.081 122.669 44.955C122.333 44.823 122.048 44.64 121.814 44.406C121.586 44.166 121.412 43.878 121.292 43.542C121.172 43.206 121.112 42.831 121.112 42.417V37.593H120.32C120.176 37.593 120.053 37.548 119.951 37.458C119.849 37.362 119.798 37.224 119.798 37.044V35.955L121.283 35.667L121.832 33.39C121.904 33.102 122.108 32.958 122.444 32.958H123.902V35.685H126.17V37.593H123.902V42.228C123.902 42.444 123.953 42.624 124.055 42.768C124.163 42.906 124.316 42.975 124.514 42.975C124.616 42.975 124.7 42.966 124.766 42.948C124.838 42.924 124.898 42.9 124.946 42.876C125 42.846 125.048 42.822 125.09 42.804C125.138 42.78 125.192 42.768 125.252 42.768C125.336 42.768 125.402 42.789 125.45 42.831C125.504 42.867 125.558 42.927 125.612 43.011L126.458 44.334C126.098 44.604 125.693 44.808 125.243 44.946C124.793 45.078 124.328 45.144 123.848 45.144ZM127.779 45V31.527H130.569V36.486C130.905 36.198 131.268 35.967 131.658 35.793C132.054 35.613 132.525 35.523 133.071 35.523C133.581 35.523 134.031 35.613 134.421 35.793C134.817 35.967 135.15 36.213 135.42 36.531C135.69 36.843 135.894 37.218 136.032 37.656C136.17 38.088 136.239 38.559 136.239 39.069V45H133.449V39.069C133.449 38.613 133.344 38.259 133.134 38.007C132.924 37.749 132.615 37.62 132.207 37.62C131.901 37.62 131.613 37.686 131.343 37.818C131.073 37.95 130.815 38.127 130.569 38.349V45H127.779Z" fill="#AFC61E"/>
<path d="M24.214 53.4486C24.718 53.4486 25.1707 53.5232 25.572 53.6726C25.978 53.8172 26.3233 54.0202 26.608 54.2816C26.8927 54.5429 27.1097 54.8556 27.259 55.2196C27.413 55.5789 27.49 55.9756 27.49 56.4096C27.49 56.7829 27.4363 57.1282 27.329 57.4456C27.2263 57.7629 27.084 58.0662 26.902 58.3556C26.72 58.6402 26.5077 58.9179 26.265 59.1886C26.027 59.4546 25.7727 59.7252 25.502 60.0006L23.507 62.0446C23.7637 61.9699 24.0157 61.9116 24.263 61.8696C24.515 61.8229 24.7507 61.7996 24.97 61.7996H26.874C27.1073 61.7996 27.2917 61.8649 27.427 61.9956C27.5623 62.1216 27.63 62.2896 27.63 62.4996V63.7596H20.462V63.0596C20.462 62.9242 20.49 62.7796 20.546 62.6256C20.602 62.4716 20.7 62.3316 20.84 62.2056L23.78 59.2446C24.032 58.9926 24.2513 58.7522 24.438 58.5236C24.6247 58.2949 24.7787 58.0709 24.9 57.8516C25.0213 57.6276 25.1123 57.4059 25.173 57.1866C25.2337 56.9626 25.264 56.7269 25.264 56.4796C25.264 56.0736 25.166 55.7632 24.97 55.5486C24.7787 55.3292 24.4847 55.2196 24.088 55.2196C23.9247 55.2196 23.7753 55.2429 23.64 55.2896C23.5047 55.3362 23.3833 55.3992 23.276 55.4786C23.1687 55.5579 23.0753 55.6512 22.996 55.7586C22.9213 55.8659 22.8607 55.9826 22.814 56.1086C22.7393 56.3186 22.6437 56.4702 22.527 56.5636C22.415 56.6569 22.261 56.7036 22.065 56.7036C22.0183 56.7036 21.967 56.7012 21.911 56.6966C21.8597 56.6919 21.806 56.6849 21.75 56.6756L20.602 56.4726C20.6767 55.9639 20.819 55.5206 21.029 55.1426C21.2437 54.7646 21.5073 54.4496 21.82 54.1976C22.1373 53.9456 22.499 53.7589 22.905 53.6376C23.311 53.5116 23.7473 53.4486 24.214 53.4486ZM31.5281 58.6286H35.3081V60.3786H31.5281V58.6286ZM43.5328 57.2986C43.9015 57.2986 44.2655 57.3592 44.6248 57.4806C44.9841 57.6019 45.3061 57.7886 45.5908 58.0406C45.8755 58.2926 46.1041 58.6122 46.2768 58.9996C46.4541 59.3822 46.5428 59.8349 46.5428 60.3576C46.5428 60.8336 46.4541 61.2862 46.2768 61.7156C46.0995 62.1402 45.8475 62.5136 45.5208 62.8356C45.1988 63.1529 44.8091 63.4049 44.3518 63.5916C43.8945 63.7782 43.3881 63.8716 42.8328 63.8716C42.2635 63.8716 41.7525 63.7829 41.2998 63.6056C40.8471 63.4236 40.4621 63.1716 40.1448 62.8496C39.8321 62.5276 39.5918 62.1426 39.4238 61.6946C39.2605 61.2466 39.1788 60.7542 39.1788 60.2176C39.1788 59.7089 39.2768 59.2026 39.4728 58.6986C39.6688 58.1946 39.9581 57.6812 40.3408 57.1586L42.6368 54.0576C42.7395 53.9176 42.8935 53.8009 43.0988 53.7076C43.3041 53.6096 43.5375 53.5606 43.7988 53.5606H45.7308L42.7068 57.1726C42.6601 57.2239 42.6135 57.2776 42.5668 57.3336C42.5248 57.3849 42.4828 57.4362 42.4408 57.4876C42.6041 57.4269 42.7745 57.3802 42.9518 57.3476C43.1338 57.3149 43.3275 57.2986 43.5328 57.2986ZM41.2648 60.5116C41.2648 60.7636 41.2951 60.9899 41.3558 61.1906C41.4165 61.3912 41.5098 61.5639 41.6358 61.7086C41.7618 61.8532 41.9205 61.9652 42.1118 62.0446C42.3031 62.1192 42.5295 62.1566 42.7908 62.1566C43.0148 62.1566 43.2225 62.1146 43.4138 62.0306C43.6098 61.9466 43.7778 61.8322 43.9178 61.6876C44.0578 61.5382 44.1675 61.3656 44.2468 61.1696C44.3308 60.9689 44.3728 60.7519 44.3728 60.5186C44.3728 60.2572 44.3331 60.0239 44.2538 59.8186C44.1791 59.6132 44.0718 59.4406 43.9318 59.3006C43.7918 59.1606 43.6215 59.0532 43.4208 58.9786C43.2248 58.9039 43.0055 58.8666 42.7628 58.8666C42.5435 58.8666 42.3428 58.9062 42.1608 58.9856C41.9788 59.0602 41.8201 59.1699 41.6848 59.3146C41.5541 59.4592 41.4515 59.6319 41.3768 59.8326C41.3021 60.0332 41.2648 60.2596 41.2648 60.5116ZM52.7509 60.3506V63.7596H50.3849V53.5606H53.9829C54.7016 53.5606 55.3176 53.6469 55.8309 53.8196C56.3489 53.9876 56.7736 54.2209 57.1049 54.5196C57.4409 54.8182 57.6883 55.1706 57.8469 55.5766C58.0056 55.9826 58.0849 56.4212 58.0849 56.8926C58.0849 57.4012 58.0033 57.8679 57.8399 58.2926C57.6766 58.7172 57.4269 59.0812 57.0909 59.3846C56.7549 59.6879 56.3279 59.9259 55.8099 60.0986C55.2966 60.2666 54.6876 60.3506 53.9829 60.3506H52.7509ZM52.7509 58.5656H53.9829C54.5989 58.5656 55.0423 58.4186 55.3129 58.1246C55.5836 57.8306 55.7189 57.4199 55.7189 56.8926C55.7189 56.6592 55.6839 56.4469 55.6139 56.2556C55.5439 56.0642 55.4366 55.9009 55.2919 55.7656C55.1519 55.6256 54.9723 55.5182 54.7529 55.4436C54.5383 55.3689 54.2816 55.3316 53.9829 55.3316H52.7509V58.5656ZM64.5277 59.0976C64.621 59.2749 64.7097 59.4592 64.7937 59.6506C64.8823 59.8419 64.9663 60.0379 65.0457 60.2386C65.125 60.0332 65.209 59.8349 65.2977 59.6436C65.3863 59.4476 65.4773 59.2586 65.5707 59.0766L68.1887 53.9246C68.2353 53.8359 68.282 53.7682 68.3287 53.7216C68.38 53.6702 68.436 53.6329 68.4967 53.6096C68.5573 53.5862 68.625 53.5722 68.6997 53.5676C68.779 53.5629 68.87 53.5606 68.9727 53.5606H70.7787V63.7596H68.6927V57.8936C68.6927 57.6089 68.7067 57.3009 68.7347 56.9696L66.0327 62.2126C65.9487 62.3759 65.8343 62.4996 65.6897 62.5836C65.5497 62.6676 65.3887 62.7096 65.2067 62.7096H64.8847C64.7027 62.7096 64.5393 62.6676 64.3947 62.5836C64.2547 62.4996 64.1427 62.3759 64.0587 62.2126L61.3427 56.9626C61.3613 57.1259 61.3753 57.2892 61.3847 57.4526C61.394 57.6112 61.3987 57.7582 61.3987 57.8936V63.7596H59.3127V53.5606H61.1187C61.2213 53.5606 61.31 53.5629 61.3847 53.5676C61.464 53.5722 61.534 53.5862 61.5947 53.6096C61.6553 53.6329 61.709 53.6702 61.7557 53.7216C61.807 53.7682 61.856 53.8359 61.9027 53.9246L64.5277 59.0976ZM78.28 56.3886C78.7607 56.3886 79.1994 56.4632 79.596 56.6126C79.9974 56.7619 80.3404 56.9789 80.625 57.2636C80.9144 57.5482 81.1384 57.8982 81.297 58.3136C81.4604 58.7242 81.542 59.1909 81.542 59.7136C81.542 59.8769 81.535 60.0099 81.521 60.1126C81.507 60.2152 81.4814 60.2969 81.444 60.3576C81.4067 60.4182 81.3554 60.4602 81.29 60.4836C81.2294 60.5069 81.15 60.5186 81.052 60.5186H76.866C76.936 61.1252 77.1204 61.5662 77.419 61.8416C77.7177 62.1122 78.1027 62.2476 78.574 62.2476C78.826 62.2476 79.043 62.2172 79.225 62.1566C79.407 62.0959 79.568 62.0282 79.708 61.9536C79.8527 61.8789 79.9834 61.8112 80.1 61.7506C80.2214 61.6899 80.3474 61.6596 80.478 61.6596C80.6507 61.6596 80.7814 61.7226 80.87 61.8486L81.5 62.6256C81.276 62.8822 81.0334 63.0922 80.772 63.2556C80.5154 63.4142 80.2494 63.5402 79.974 63.6336C79.7034 63.7222 79.4304 63.7829 79.155 63.8156C78.8844 63.8529 78.6254 63.8716 78.378 63.8716C77.8694 63.8716 77.391 63.7899 76.943 63.6266C76.4997 63.4586 76.11 63.2112 75.774 62.8846C75.4427 62.5579 75.179 62.1519 74.983 61.6666C74.7917 61.1812 74.696 60.6166 74.696 59.9726C74.696 59.4872 74.7777 59.0276 74.941 58.5936C75.109 58.1596 75.347 57.7792 75.655 57.4526C75.9677 57.1259 76.3434 56.8669 76.782 56.6756C77.2254 56.4842 77.7247 56.3886 78.28 56.3886ZM78.322 57.8866C77.9067 57.8866 77.5824 58.0056 77.349 58.2436C77.1157 58.4769 76.9617 58.8152 76.887 59.2586H79.596C79.596 59.0859 79.5727 58.9179 79.526 58.7546C79.484 58.5912 79.4117 58.4466 79.309 58.3206C79.211 58.1899 79.0804 58.0849 78.917 58.0056C78.7537 57.9262 78.5554 57.8866 78.322 57.8866ZM87.7993 63.7596C87.5939 63.7596 87.4376 63.7316 87.3303 63.6756C87.2276 63.6196 87.1413 63.5029 87.0713 63.3256L86.9173 62.9266C86.7353 63.0806 86.5603 63.2159 86.3923 63.3326C86.2243 63.4492 86.0493 63.5496 85.8673 63.6336C85.6899 63.7129 85.4986 63.7712 85.2933 63.8086C85.0926 63.8506 84.8686 63.8716 84.6213 63.8716C84.2899 63.8716 83.9889 63.8296 83.7183 63.7456C83.4476 63.6569 83.2166 63.5286 83.0253 63.3606C82.8386 63.1926 82.6939 62.9849 82.5913 62.7376C82.4886 62.4856 82.4373 62.1962 82.4373 61.8696C82.4373 61.6129 82.5026 61.3492 82.6333 61.0786C82.7639 60.8079 82.9903 60.5629 83.3123 60.3436C83.6343 60.1196 84.0683 59.9329 84.6143 59.7836C85.1603 59.6342 85.8486 59.5502 86.6793 59.5316V59.2236C86.6793 58.7989 86.5906 58.4932 86.4133 58.3066C86.2406 58.1152 85.9933 58.0196 85.6713 58.0196C85.4146 58.0196 85.2046 58.0476 85.0413 58.1036C84.8779 58.1596 84.7309 58.2226 84.6003 58.2926C84.4743 58.3626 84.3506 58.4256 84.2293 58.4816C84.1079 58.5376 83.9633 58.5656 83.7953 58.5656C83.6459 58.5656 83.5176 58.5306 83.4103 58.4606C83.3076 58.3859 83.2259 58.2949 83.1653 58.1876L82.7733 57.5086C83.2119 57.1212 83.6973 56.8342 84.2293 56.6476C84.7659 56.4562 85.3399 56.3606 85.9513 56.3606C86.3899 56.3606 86.7843 56.4329 87.1343 56.5776C87.4889 56.7176 87.7876 56.9159 88.0303 57.1726C88.2776 57.4246 88.4666 57.7256 88.5973 58.0756C88.7279 58.4256 88.7933 58.8082 88.7933 59.2236V63.7596H87.7993ZM85.3073 62.4366C85.5873 62.4366 85.8323 62.3876 86.0423 62.2896C86.2523 62.1916 86.4646 62.0329 86.6793 61.8136V60.8056C86.2453 60.8242 85.8883 60.8616 85.6083 60.9176C85.3283 60.9736 85.1066 61.0436 84.9433 61.1276C84.7799 61.2116 84.6656 61.3072 84.6003 61.4146C84.5396 61.5219 84.5093 61.6386 84.5093 61.7646C84.5093 62.0119 84.5769 62.1869 84.7123 62.2896C84.8476 62.3876 85.0459 62.4366 85.3073 62.4366ZM95.5701 58.2226C95.5048 58.3019 95.4418 58.3649 95.3811 58.4116C95.3205 58.4582 95.2341 58.4816 95.1221 58.4816C95.0148 58.4816 94.9168 58.4559 94.8281 58.4046C94.7441 58.3532 94.6485 58.2972 94.5411 58.2366C94.4338 58.1712 94.3078 58.1129 94.1631 58.0616C94.0185 58.0102 93.8388 57.9846 93.6241 57.9846C93.3581 57.9846 93.1271 58.0336 92.9311 58.1316C92.7398 58.2296 92.5811 58.3696 92.4551 58.5516C92.3291 58.7336 92.2358 58.9576 92.1751 59.2236C92.1145 59.4849 92.0841 59.7812 92.0841 60.1126C92.0841 60.8079 92.2171 61.3422 92.4831 61.7156C92.7538 62.0889 93.1248 62.2756 93.5961 62.2756C93.8481 62.2756 94.0465 62.2452 94.1911 62.1846C94.3405 62.1192 94.4665 62.0492 94.5691 61.9746C94.6718 61.8952 94.7651 61.8229 94.8491 61.7576C94.9378 61.6922 95.0475 61.6596 95.1781 61.6596C95.3508 61.6596 95.4815 61.7226 95.5701 61.8486L96.2001 62.6256C95.9761 62.8822 95.7405 63.0922 95.4931 63.2556C95.2458 63.4142 94.9915 63.5402 94.7301 63.6336C94.4735 63.7222 94.2145 63.7829 93.9531 63.8156C93.6918 63.8529 93.4375 63.8716 93.1901 63.8716C92.7468 63.8716 92.3221 63.7876 91.9161 63.6196C91.5148 63.4516 91.1601 63.2089 90.8521 62.8916C90.5488 62.5696 90.3061 62.1752 90.1241 61.7086C89.9468 61.2419 89.8581 60.7099 89.8581 60.1126C89.8581 59.5899 89.9351 59.1022 90.0891 58.6496C90.2478 58.1922 90.4788 57.7979 90.7821 57.4666C91.0901 57.1306 91.4681 56.8669 91.9161 56.6756C92.3688 56.4842 92.8915 56.3886 93.4841 56.3886C94.0535 56.3886 94.5528 56.4796 94.9821 56.6616C95.4115 56.8436 95.7988 57.1096 96.1441 57.4596L95.5701 58.2226ZM97.1427 63.7596V53.2806H99.3127V57.1376C99.5741 56.9136 99.8564 56.7339 100.16 56.5986C100.468 56.4586 100.834 56.3886 101.259 56.3886C101.655 56.3886 102.005 56.4586 102.309 56.5986C102.617 56.7339 102.876 56.9252 103.086 57.1726C103.296 57.4152 103.454 57.7069 103.562 58.0476C103.669 58.3836 103.723 58.7499 103.723 59.1466V63.7596H101.553V59.1466C101.553 58.7919 101.471 58.5166 101.308 58.3206C101.144 58.1199 100.904 58.0196 100.587 58.0196C100.349 58.0196 100.125 58.0709 99.9147 58.1736C99.7047 58.2762 99.5041 58.4139 99.3127 58.5866V63.7596H97.1427ZM113.067 63.7596C112.932 63.7596 112.817 63.7292 112.724 63.6686C112.635 63.6079 112.572 63.5169 112.535 63.3956L112.367 62.8426C112.222 62.9966 112.071 63.1366 111.912 63.2626C111.753 63.3886 111.581 63.4982 111.394 63.5916C111.212 63.6802 111.014 63.7479 110.799 63.7946C110.589 63.8459 110.36 63.8716 110.113 63.8716C109.735 63.8716 109.385 63.7876 109.063 63.6196C108.741 63.4516 108.463 63.2089 108.23 62.8916C107.997 62.5742 107.812 62.1869 107.677 61.7296C107.546 61.2676 107.481 60.7426 107.481 60.1546C107.481 59.6132 107.556 59.1116 107.705 58.6496C107.854 58.1829 108.064 57.7816 108.335 57.4456C108.61 57.1049 108.939 56.8389 109.322 56.6476C109.705 56.4562 110.127 56.3606 110.589 56.3606C110.962 56.3606 111.277 56.4166 111.534 56.5286C111.795 56.6359 112.031 56.7782 112.241 56.9556V53.2806H114.411V63.7596H113.067ZM110.869 62.2056C111.028 62.2056 111.17 62.1916 111.296 62.1636C111.427 62.1309 111.546 62.0866 111.653 62.0306C111.76 61.9746 111.861 61.9046 111.954 61.8206C112.052 61.7366 112.148 61.6386 112.241 61.5266V58.4466C112.073 58.2646 111.893 58.1386 111.702 58.0686C111.515 57.9939 111.317 57.9566 111.107 57.9566C110.906 57.9566 110.722 57.9962 110.554 58.0756C110.386 58.1549 110.239 58.2832 110.113 58.4606C109.992 58.6332 109.896 58.8596 109.826 59.1396C109.756 59.4196 109.721 59.7579 109.721 60.1546C109.721 60.5372 109.749 60.8592 109.805 61.1206C109.861 61.3819 109.938 61.5942 110.036 61.7576C110.139 61.9162 110.26 62.0306 110.4 62.1006C110.54 62.1706 110.696 62.2056 110.869 62.2056ZM121.104 63.7596C120.899 63.7596 120.742 63.7316 120.635 63.6756C120.532 63.6196 120.446 63.5029 120.376 63.3256L120.222 62.9266C120.04 63.0806 119.865 63.2159 119.697 63.3326C119.529 63.4492 119.354 63.5496 119.172 63.6336C118.995 63.7129 118.803 63.7712 118.598 63.8086C118.397 63.8506 118.173 63.8716 117.926 63.8716C117.595 63.8716 117.294 63.8296 117.023 63.7456C116.752 63.6569 116.521 63.5286 116.33 63.3606C116.143 63.1926 115.999 62.9849 115.896 62.7376C115.793 62.4856 115.742 62.1962 115.742 61.8696C115.742 61.6129 115.807 61.3492 115.938 61.0786C116.069 60.8079 116.295 60.5629 116.617 60.3436C116.939 60.1196 117.373 59.9329 117.919 59.7836C118.465 59.6342 119.153 59.5502 119.984 59.5316V59.2236C119.984 58.7989 119.895 58.4932 119.718 58.3066C119.545 58.1152 119.298 58.0196 118.976 58.0196C118.719 58.0196 118.509 58.0476 118.346 58.1036C118.183 58.1596 118.036 58.2226 117.905 58.2926C117.779 58.3626 117.655 58.4256 117.534 58.4816C117.413 58.5376 117.268 58.5656 117.1 58.5656C116.951 58.5656 116.822 58.5306 116.715 58.4606C116.612 58.3859 116.531 58.2949 116.47 58.1876L116.078 57.5086C116.517 57.1212 117.002 56.8342 117.534 56.6476C118.071 56.4562 118.645 56.3606 119.256 56.3606C119.695 56.3606 120.089 56.4329 120.439 56.5776C120.794 56.7176 121.092 56.9159 121.335 57.1726C121.582 57.4246 121.771 57.7256 121.902 58.0756C122.033 58.4256 122.098 58.8082 122.098 59.2236V63.7596H121.104ZM118.612 62.4366C118.892 62.4366 119.137 62.3876 119.347 62.2896C119.557 62.1916 119.769 62.0329 119.984 61.8136V60.8056C119.55 60.8242 119.193 60.8616 118.913 60.9176C118.633 60.9736 118.411 61.0436 118.248 61.1276C118.085 61.2116 117.97 61.3072 117.905 61.4146C117.844 61.5219 117.814 61.6386 117.814 61.7646C117.814 62.0119 117.882 62.1869 118.017 62.2896C118.152 62.3876 118.351 62.4366 118.612 62.4366ZM126.333 65.6426C126.268 65.7872 126.189 65.8922 126.095 65.9576C126.002 66.0276 125.853 66.0626 125.647 66.0626H124.023L125.423 63.1226L122.525 56.5006H124.443C124.611 56.5006 124.742 56.5379 124.835 56.6126C124.929 56.6872 124.994 56.7759 125.031 56.8786L126.221 60.0076C126.333 60.2969 126.424 60.5862 126.494 60.8756C126.541 60.7262 126.592 60.5792 126.648 60.4346C126.704 60.2899 126.758 60.1429 126.809 59.9936L127.887 56.8786C127.925 56.7712 127.997 56.6826 128.104 56.6126C128.216 56.5379 128.335 56.5006 128.461 56.5006H130.211L126.333 65.6426Z" fill="#AFC61E"/>
</g>
<defs>
<clipPath id="clip0">
<rect width="316" height="388" rx="38" fill="white"/>
</clipPath>
<clipPath id="clip1">
<rect width="96.6688" height="117.421" fill="white" transform="translate(275.897 107.685)"/>
</clipPath>
<clipPath id="clip2">
<rect width="66.9246" height="81.0762" fill="white" transform="translate(236.857 140.302)"/>
</clipPath>
<clipPath id="clip3">
<rect width="66.9246" height="81.0762" fill="white" transform="translate(287.98 160.804)"/>
</clipPath>
<clipPath id="clip4">
<rect width="83.6557" height="101.578" fill="white" transform="translate(24 185.033)"/>
</clipPath>
<clipPath id="clip5">
<rect width="83.6557" height="100.646" fill="white" transform="translate(100.22 146.825)"/>
</clipPath>
<clipPath id="clip6">
<rect width="72.5016" height="87.5995" fill="white" transform="translate(90.9246 182.238)"/>
</clipPath>
<clipPath id="clip7">
<rect width="52.9819" height="64.3018" fill="white" transform="translate(51 232)"/>
</clipPath>
<clipPath id="clip8">
<rect width="83.6557" height="101.578" fill="white" transform="translate(-33 228.796)"/>
</clipPath>
<clipPath id="clip9">
<rect width="72.5016" height="87.5995" fill="white" transform="translate(33.9246 226)"/>
</clipPath>
<clipPath id="clip10">
<rect width="52.9819" height="64.3018" fill="white" transform="translate(-6 275.762)"/>
</clipPath>
<clipPath id="clip11">
<rect width="66.9246" height="82.0081" fill="white" transform="translate(235.928 280.088)"/>
</clipPath>
<clipPath id="clip12">
<rect width="110" height="134" fill="white" transform="translate(248 304)"/>
</clipPath>
<clipPath id="clip13">
<rect width="64.136" height="32.6168" fill="white" transform="translate(229.421 199.944)"/>
</clipPath>
</defs>
</svg>
