<svg width="376" height="447" viewBox="0 0 376 447" fill="none" xmlns="http://www.w3.org/2000/svg">
<g id="FLO-1">
<g id="Rectangle 6" filter="url(#filter0_d)">
<rect x="30" y="20" width="316" height="387" rx="38" fill="white"/>
</g>
<g id="Object">
<rect id="Bg" x="30" y="20" width="316" height="387" rx="38" fill="url(#paint0_linear)"/>
</g>
<g id="Overlay" filter="url(#filter1_d)">
<rect x="30" y="20" width="316" height="387" rx="38" fill="black" fill-opacity="0.1"/>
</g>
<mask id="mask0" mask-type="alpha" maskUnits="userSpaceOnUse" x="30" y="20" width="316" height="387">
<rect id="Overlay_2" x="30" y="20" width="316" height="387" rx="38" fill="white"/>
</mask>
<g mask="url(#mask0)">
<path id="FRI, JUNE 1" d="M69.63 312.365L69.825 314.225H69.885L70.095 312.335L71.925 306.5H73.275L75.075 312.365L75.285 314.225H75.345L75.57 312.335L76.845 306.5H78.93L76.035 317.075H74.655L72.78 311.24L72.525 309.635H72.45L72.195 311.255L70.335 317.075H68.88L66 306.5H68.235L69.63 312.365ZM80.7679 306.5H86.9929V308.33H82.8229V310.775H86.6179V312.605H82.8229V315.17H87.0679V317H80.7679V306.5ZM89.5382 306.5C89.7482 306.47 89.9832 306.445 90.2432 306.425C90.5132 306.405 90.7882 306.39 91.0682 306.38C91.3482 306.37 91.6182 306.365 91.8782 306.365C92.1482 306.355 92.3882 306.35 92.5982 306.35C93.5282 306.35 94.3232 306.48 94.9832 306.74C95.6432 307 96.1782 307.365 96.5882 307.835C96.9982 308.305 97.2982 308.865 97.4882 309.515C97.6782 310.165 97.7732 310.88 97.7732 311.66C97.7732 312.37 97.6832 313.055 97.5032 313.715C97.3232 314.375 97.0232 314.96 96.6032 315.47C96.1832 315.98 95.6282 316.39 94.9382 316.7C94.2582 317.01 93.4132 317.165 92.4032 317.165C92.2432 317.165 92.0282 317.16 91.7582 317.15C91.4982 317.14 91.2232 317.125 90.9332 317.105C90.6532 317.095 90.3832 317.08 90.1232 317.06C89.8632 317.05 89.6682 317.035 89.5382 317.015V306.5ZM92.7632 308.18C92.5432 308.18 92.3182 308.185 92.0882 308.195C91.8682 308.205 91.7032 308.22 91.5932 308.24V315.275C91.6332 315.285 91.6982 315.295 91.7882 315.305C91.8882 315.305 91.9932 315.31 92.1032 315.32C92.2132 315.32 92.3182 315.325 92.4182 315.335C92.5182 315.335 92.5932 315.335 92.6432 315.335C93.2232 315.335 93.7032 315.235 94.0832 315.035C94.4732 314.825 94.7782 314.55 94.9982 314.21C95.2282 313.87 95.3882 313.48 95.4782 313.04C95.5682 312.59 95.6132 312.13 95.6132 311.66C95.6132 311.25 95.5732 310.84 95.4932 310.43C95.4132 310.01 95.2632 309.635 95.0432 309.305C94.8332 308.975 94.5432 308.705 94.1732 308.495C93.8032 308.285 93.3332 308.18 92.7632 308.18ZM105.785 306.5H107.84V314.18C107.84 314.58 107.795 314.96 107.705 315.32C107.615 315.68 107.465 316 107.255 316.28C107.055 316.55 106.795 316.77 106.475 316.94C106.155 317.1 105.765 317.18 105.305 317.18C105.015 317.18 104.7 317.15 104.36 317.09C104.02 317.03 103.725 316.945 103.475 316.835L103.925 315.155C104.185 315.285 104.48 315.35 104.81 315.35C105.23 315.35 105.495 315.195 105.605 314.885C105.725 314.575 105.785 314.165 105.785 313.655V306.5ZM115.838 314.675H112.613L111.818 317H109.763L113.543 306.425H115.058L118.838 317H116.678L115.838 314.675ZM113.138 313.025H115.388L114.608 310.685L114.293 309.035H114.218L113.903 310.7L113.138 313.025ZM123.289 311.525L122.464 309.875H122.389L122.629 311.525V317H120.679V306.425H122.179L126.154 312.02L126.949 313.625H127.024L126.784 312.02V306.5H128.734V317.075H127.234L123.289 311.525ZM135.898 311.735C135.898 309.895 136.213 308.53 136.843 307.64C137.473 306.74 138.378 306.29 139.558 306.29C140.818 306.29 141.743 306.735 142.333 307.625C142.923 308.505 143.218 309.875 143.218 311.735C143.218 313.585 142.898 314.96 142.258 315.86C141.628 316.76 140.723 317.21 139.543 317.21C138.293 317.21 137.373 316.74 136.783 315.8C136.193 314.85 135.898 313.495 135.898 311.735ZM137.848 311.735C137.848 312.955 137.978 313.9 138.238 314.57C138.508 315.23 138.948 315.56 139.558 315.56C140.148 315.56 140.578 315.255 140.848 314.645C141.128 314.035 141.268 313.065 141.268 311.735C141.268 310.525 141.138 309.59 140.878 308.93C140.618 308.27 140.173 307.94 139.543 307.94C138.943 307.94 138.508 308.25 138.238 308.87C137.978 309.49 137.848 310.445 137.848 311.735ZM145.417 309.785C145.417 309.275 145.492 308.805 145.642 308.375C145.802 307.945 146.027 307.58 146.317 307.28C146.617 306.97 146.977 306.73 147.397 306.56C147.827 306.38 148.317 306.29 148.867 306.29C149.997 306.29 150.882 306.63 151.522 307.31C152.172 307.98 152.497 308.96 152.497 310.25C152.497 311.41 152.347 312.415 152.047 313.265C151.757 314.105 151.362 314.81 150.862 315.38C150.372 315.94 149.802 316.37 149.152 316.67C148.502 316.97 147.817 317.15 147.097 317.21L146.677 315.68C147.227 315.61 147.717 315.475 148.147 315.275C148.577 315.075 148.947 314.83 149.257 314.54C149.567 314.24 149.817 313.905 150.007 313.535C150.207 313.155 150.347 312.75 150.427 312.32C150.187 312.58 149.927 312.76 149.647 312.86C149.377 312.96 149.012 313.01 148.552 313.01C148.172 313.01 147.792 312.945 147.412 312.815C147.042 312.685 146.707 312.49 146.407 312.23C146.117 311.96 145.877 311.625 145.687 311.225C145.507 310.815 145.417 310.335 145.417 309.785ZM147.307 309.68C147.307 310.25 147.467 310.68 147.787 310.97C148.107 311.26 148.507 311.405 148.987 311.405C149.397 311.405 149.732 311.34 149.992 311.21C150.252 311.08 150.452 310.92 150.592 310.73C150.622 310.52 150.637 310.32 150.637 310.13C150.637 309.85 150.602 309.575 150.532 309.305C150.462 309.035 150.352 308.795 150.202 308.585C150.062 308.375 149.877 308.21 149.647 308.09C149.427 307.96 149.162 307.895 148.852 307.895C148.362 307.895 147.982 308.055 147.712 308.375C147.442 308.685 147.307 309.12 147.307 309.68ZM166.038 309.065C166.038 309.575 165.943 310.09 165.753 310.61C165.573 311.13 165.338 311.64 165.048 312.14C164.768 312.64 164.453 313.125 164.103 313.595C163.763 314.055 163.428 314.48 163.098 314.87L162.303 315.485V315.56L163.383 315.35H166.263V317H159.948V315.995C160.188 315.745 160.458 315.455 160.758 315.125C161.058 314.785 161.358 314.43 161.658 314.06C161.968 313.68 162.268 313.29 162.558 312.89C162.848 312.49 163.108 312.09 163.338 311.69C163.568 311.28 163.748 310.885 163.878 310.505C164.018 310.125 164.088 309.765 164.088 309.425C164.088 309.015 163.968 308.68 163.728 308.42C163.498 308.15 163.128 308.015 162.618 308.015C162.298 308.015 161.968 308.085 161.628 308.225C161.298 308.355 161.018 308.525 160.788 308.735L160.008 307.355C160.398 307.035 160.838 306.78 161.328 306.59C161.828 306.39 162.413 306.29 163.083 306.29C163.513 306.29 163.908 306.35 164.268 306.47C164.628 306.59 164.938 306.765 165.198 306.995C165.458 307.225 165.663 307.515 165.813 307.865C165.963 308.205 166.038 308.605 166.038 309.065ZM168.957 311.735C168.957 309.895 169.272 308.53 169.902 307.64C170.532 306.74 171.437 306.29 172.617 306.29C173.877 306.29 174.802 306.735 175.392 307.625C175.982 308.505 176.277 309.875 176.277 311.735C176.277 313.585 175.957 314.96 175.317 315.86C174.687 316.76 173.782 317.21 172.602 317.21C171.352 317.21 170.432 316.74 169.842 315.8C169.252 314.85 168.957 313.495 168.957 311.735ZM170.907 311.735C170.907 312.955 171.037 313.9 171.297 314.57C171.567 315.23 172.007 315.56 172.617 315.56C173.207 315.56 173.637 315.255 173.907 314.645C174.187 314.035 174.327 313.065 174.327 311.735C174.327 310.525 174.197 309.59 173.937 308.93C173.677 308.27 173.232 307.94 172.602 307.94C172.002 307.94 171.567 308.25 171.297 308.87C171.037 309.49 170.907 310.445 170.907 311.735ZM179.316 315.35H181.401V309.425L181.626 308.405L180.906 309.29L179.571 310.205L178.746 309.08L182.166 306.32H183.261V315.35H185.301V317H179.316V315.35ZM187.92 309.785C187.92 309.275 187.995 308.805 188.145 308.375C188.305 307.945 188.53 307.58 188.82 307.28C189.12 306.97 189.48 306.73 189.9 306.56C190.33 306.38 190.82 306.29 191.37 306.29C192.5 306.29 193.385 306.63 194.025 307.31C194.675 307.98 195 308.96 195 310.25C195 311.41 194.85 312.415 194.55 313.265C194.26 314.105 193.865 314.81 193.365 315.38C192.875 315.94 192.305 316.37 191.655 316.67C191.005 316.97 190.32 317.15 189.6 317.21L189.18 315.68C189.73 315.61 190.22 315.475 190.65 315.275C191.08 315.075 191.45 314.83 191.76 314.54C192.07 314.24 192.32 313.905 192.51 313.535C192.71 313.155 192.85 312.75 192.93 312.32C192.69 312.58 192.43 312.76 192.15 312.86C191.88 312.96 191.515 313.01 191.055 313.01C190.675 313.01 190.295 312.945 189.915 312.815C189.545 312.685 189.21 312.49 188.91 312.23C188.62 311.96 188.38 311.625 188.19 311.225C188.01 310.815 187.92 310.335 187.92 309.785ZM189.81 309.68C189.81 310.25 189.97 310.68 190.29 310.97C190.61 311.26 191.01 311.405 191.49 311.405C191.9 311.405 192.235 311.34 192.495 311.21C192.755 311.08 192.955 310.92 193.095 310.73C193.125 310.52 193.14 310.32 193.14 310.13C193.14 309.85 193.105 309.575 193.035 309.305C192.965 309.035 192.855 308.795 192.705 308.585C192.565 308.375 192.38 308.21 192.15 308.09C191.93 307.96 191.665 307.895 191.355 307.895C190.865 307.895 190.485 308.055 190.215 308.375C189.945 308.685 189.81 309.12 189.81 309.68ZM206.819 312.26C206.819 311.91 206.929 311.635 207.149 311.435C207.369 311.225 207.659 311.12 208.019 311.12C208.399 311.12 208.699 311.225 208.919 311.435C209.139 311.635 209.249 311.91 209.249 312.26C209.249 312.61 209.139 312.89 208.919 313.1C208.699 313.31 208.399 313.415 208.019 313.415C207.659 313.415 207.369 313.31 207.149 313.1C206.929 312.89 206.819 312.61 206.819 312.26ZM223.626 315.485C224.286 315.485 224.791 315.325 225.141 315.005C225.491 314.685 225.666 314.245 225.666 313.685C225.666 313.085 225.461 312.645 225.051 312.365C224.641 312.085 224.056 311.945 223.296 311.945L222.111 311.99V306.5H227.271V308.33H223.791V310.355L224.406 310.295C224.896 310.315 225.336 310.405 225.726 310.565C226.126 310.725 226.466 310.95 226.746 311.24C227.026 311.52 227.241 311.865 227.391 312.275C227.541 312.675 227.616 313.125 227.616 313.625C227.616 314.215 227.516 314.735 227.316 315.185C227.116 315.635 226.836 316.01 226.476 316.31C226.126 316.61 225.711 316.835 225.231 316.985C224.751 317.135 224.226 317.21 223.656 317.21C223.206 317.21 222.776 317.17 222.366 317.09C221.966 317.02 221.626 316.92 221.346 316.79L221.871 315.17C222.101 315.27 222.351 315.35 222.621 315.41C222.901 315.46 223.236 315.485 223.626 315.485ZM230.58 311.825H234.345V313.55H230.58V311.825ZM237.024 314.435C237.024 314.085 237.069 313.775 237.159 313.505C237.249 313.225 237.374 312.975 237.534 312.755C237.704 312.525 237.899 312.32 238.119 312.14C238.349 311.96 238.594 311.795 238.854 311.645C238.364 311.335 237.979 310.98 237.699 310.58C237.419 310.17 237.279 309.665 237.279 309.065C237.279 308.675 237.349 308.31 237.489 307.97C237.639 307.63 237.849 307.335 238.119 307.085C238.399 306.835 238.734 306.64 239.124 306.5C239.514 306.36 239.954 306.29 240.444 306.29C240.894 306.29 241.304 306.35 241.674 306.47C242.044 306.59 242.359 306.76 242.619 306.98C242.889 307.2 243.094 307.47 243.234 307.79C243.384 308.1 243.459 308.445 243.459 308.825C243.459 309.415 243.324 309.915 243.054 310.325C242.794 310.735 242.409 311.11 241.899 311.45C242.499 311.8 242.949 312.185 243.249 312.605C243.559 313.025 243.714 313.565 243.714 314.225C243.714 314.675 243.629 315.085 243.459 315.455C243.299 315.815 243.069 316.125 242.769 316.385C242.469 316.645 242.109 316.85 241.689 317C241.269 317.14 240.809 317.21 240.309 317.21C239.809 317.21 239.354 317.14 238.944 317C238.544 316.87 238.199 316.685 237.909 316.445C237.629 316.205 237.409 315.915 237.249 315.575C237.099 315.235 237.024 314.855 237.024 314.435ZM241.854 314.24C241.854 314.01 241.799 313.8 241.689 313.61C241.579 313.42 241.434 313.25 241.254 313.1C241.084 312.94 240.889 312.795 240.669 312.665C240.459 312.535 240.244 312.41 240.024 312.29C239.554 312.56 239.229 312.855 239.049 313.175C238.879 313.485 238.794 313.795 238.794 314.105C238.794 314.505 238.929 314.85 239.199 315.14C239.479 315.42 239.864 315.56 240.354 315.56C240.804 315.56 241.164 315.45 241.434 315.23C241.714 315.01 241.854 314.68 241.854 314.24ZM239.139 309.095C239.139 309.335 239.184 309.545 239.274 309.725C239.364 309.905 239.484 310.065 239.634 310.205C239.794 310.335 239.969 310.46 240.159 310.58C240.359 310.69 240.564 310.795 240.774 310.895C241.374 310.385 241.674 309.825 241.674 309.215C241.674 308.795 241.549 308.48 241.299 308.27C241.059 308.05 240.764 307.94 240.414 307.94C239.974 307.94 239.649 308.055 239.439 308.285C239.239 308.515 239.139 308.785 239.139 309.095ZM246.948 310.58C246.948 310.23 247.058 309.955 247.278 309.755C247.498 309.545 247.788 309.44 248.148 309.44C248.528 309.44 248.828 309.545 249.048 309.755C249.268 309.955 249.378 310.23 249.378 310.58C249.378 310.93 249.268 311.21 249.048 311.42C248.828 311.63 248.528 311.735 248.148 311.735C247.788 311.735 247.498 311.63 247.278 311.42C247.058 311.21 246.948 310.93 246.948 310.58ZM246.948 316.01C246.948 315.66 247.058 315.385 247.278 315.185C247.498 314.975 247.788 314.87 248.148 314.87C248.528 314.87 248.828 314.975 249.048 315.185C249.268 315.385 249.378 315.66 249.378 316.01C249.378 316.36 249.268 316.64 249.048 316.85C248.828 317.06 248.528 317.165 248.148 317.165C247.788 317.165 247.498 317.06 247.278 316.85C247.058 316.64 246.948 316.36 246.948 316.01ZM254.129 315.56C254.749 315.56 255.219 315.395 255.539 315.065C255.869 314.735 256.034 314.335 256.034 313.865C256.034 313.295 255.864 312.875 255.524 312.605C255.184 312.335 254.649 312.2 253.919 312.2H252.839V311.165L254.654 308.69L255.509 308.015L254.324 308.15H251.804V306.5H257.534V307.565L255.419 310.4L254.759 310.805V310.88L255.389 310.79C255.739 310.82 256.069 310.9 256.379 311.03C256.699 311.16 256.974 311.35 257.204 311.6C257.444 311.84 257.634 312.14 257.774 312.5C257.914 312.86 257.984 313.275 257.984 313.745C257.984 314.335 257.884 314.845 257.684 315.275C257.494 315.705 257.224 316.065 256.874 316.355C256.534 316.645 256.134 316.86 255.674 317C255.214 317.14 254.719 317.21 254.189 317.21C253.749 317.21 253.294 317.17 252.824 317.09C252.354 317.01 251.974 316.895 251.684 316.745L252.209 315.125C252.469 315.255 252.754 315.36 253.064 315.44C253.384 315.52 253.739 315.56 254.129 315.56ZM260.558 311.735C260.558 309.895 260.873 308.53 261.503 307.64C262.133 306.74 263.038 306.29 264.218 306.29C265.478 306.29 266.403 306.735 266.993 307.625C267.583 308.505 267.878 309.875 267.878 311.735C267.878 313.585 267.558 314.96 266.918 315.86C266.288 316.76 265.383 317.21 264.203 317.21C262.953 317.21 262.033 316.74 261.443 315.8C260.853 314.85 260.558 313.495 260.558 311.735ZM262.508 311.735C262.508 312.955 262.638 313.9 262.898 314.57C263.168 315.23 263.608 315.56 264.218 315.56C264.808 315.56 265.238 315.255 265.508 314.645C265.788 314.035 265.928 313.065 265.928 311.735C265.928 310.525 265.798 309.59 265.538 308.93C265.278 308.27 264.833 307.94 264.203 307.94C263.603 307.94 263.168 308.25 262.898 308.87C262.638 309.49 262.508 310.445 262.508 311.735ZM275.03 306.605C275.45 306.525 275.91 306.465 276.41 306.425C276.92 306.375 277.425 306.35 277.925 306.35C278.445 306.35 278.965 306.395 279.485 306.485C280.015 306.565 280.49 306.735 280.91 306.995C281.33 307.245 281.67 307.6 281.93 308.06C282.2 308.51 282.335 309.1 282.335 309.83C282.335 310.49 282.22 311.05 281.99 311.51C281.76 311.96 281.455 312.33 281.075 312.62C280.695 312.91 280.26 313.12 279.77 313.25C279.29 313.38 278.79 313.445 278.27 313.445C278.22 313.445 278.14 313.445 278.03 313.445C277.92 313.445 277.805 313.445 277.685 313.445C277.565 313.435 277.445 313.425 277.325 313.415C277.215 313.405 277.135 313.395 277.085 313.385V317H275.03V306.605ZM278.09 308.12C277.89 308.12 277.7 308.13 277.52 308.15C277.34 308.16 277.195 308.175 277.085 308.195V311.6C277.125 311.61 277.185 311.62 277.265 311.63C277.345 311.64 277.43 311.65 277.52 311.66C277.61 311.66 277.695 311.66 277.775 311.66C277.865 311.66 277.93 311.66 277.97 311.66C278.24 311.66 278.505 311.635 278.765 311.585C279.035 311.535 279.275 311.445 279.485 311.315C279.695 311.175 279.86 310.985 279.98 310.745C280.11 310.505 280.175 310.19 280.175 309.8C280.175 309.47 280.115 309.2 279.995 308.99C279.875 308.77 279.715 308.595 279.515 308.465C279.325 308.335 279.105 308.245 278.855 308.195C278.605 308.145 278.35 308.12 278.09 308.12ZM292.692 311.555L292.917 309.47H292.827L292.182 311.15L289.947 315.065H289.287L286.932 311.135L286.272 309.47H286.197L286.497 311.54V317H284.547V306.5H286.422L289.227 311.3L289.722 312.5H289.782L290.232 311.27L292.887 306.5H294.747V317H292.692V311.555Z" fill="white"/>
<path id="Decaf" d="M65.7 109.815C66.39 109.695 67.125 109.59 67.905 109.5C68.715 109.38 69.51 109.29 70.29 109.23C71.1 109.17 71.88 109.125 72.63 109.095C73.38 109.065 74.07 109.05 74.7 109.05C76.17 109.05 77.61 109.185 79.02 109.455C80.46 109.725 81.735 110.19 82.845 110.85C83.985 111.51 84.885 112.425 85.545 113.595C86.235 114.735 86.58 116.175 86.58 117.915C86.58 120.495 85.98 122.595 84.78 124.215C83.58 125.835 81.975 126.96 79.965 127.59L82.17 128.985L89.37 141H82.26L75.105 128.67L71.865 128.085V141H65.7V109.815ZM75.15 114.54C74.52 114.54 73.89 114.555 73.26 114.585C72.66 114.615 72.195 114.675 71.865 114.765V123.9H74.475C76.185 123.9 77.55 123.51 78.57 122.73C79.59 121.95 80.1 120.66 80.1 118.86C80.1 117.51 79.68 116.46 78.84 115.71C78 114.93 76.77 114.54 75.15 114.54ZM108.482 139.065C107.582 139.785 106.352 140.4 104.792 140.91C103.262 141.39 101.627 141.63 99.887 141.63C96.257 141.63 93.602 140.58 91.922 138.48C90.242 136.35 89.402 133.44 89.402 129.75C89.402 125.79 90.347 122.82 92.237 120.84C94.127 118.86 96.782 117.87 100.202 117.87C101.342 117.87 102.452 118.02 103.532 118.32C104.612 118.62 105.572 119.115 106.412 119.805C107.252 120.495 107.927 121.425 108.437 122.595C108.947 123.765 109.202 125.22 109.202 126.96C109.202 127.59 109.157 128.265 109.067 128.985C109.007 129.705 108.902 130.455 108.752 131.235H95.252C95.342 133.125 95.822 134.55 96.692 135.51C97.592 136.47 99.032 136.95 101.012 136.95C102.242 136.95 103.337 136.77 104.297 136.41C105.287 136.02 106.037 135.63 106.547 135.24L108.482 139.065ZM100.112 122.55C98.582 122.55 97.442 123.015 96.692 123.945C95.972 124.845 95.537 126.06 95.387 127.59H103.757C103.877 125.97 103.622 124.725 102.992 123.855C102.392 122.985 101.432 122.55 100.112 122.55ZM122.649 134.79C122.649 134.19 122.394 133.71 121.884 133.35C121.374 132.99 120.744 132.66 119.994 132.36C119.244 132.06 118.419 131.76 117.519 131.46C116.619 131.13 115.794 130.695 115.044 130.155C114.294 129.585 113.664 128.88 113.154 128.04C112.644 127.17 112.389 126.06 112.389 124.71C112.389 122.49 113.049 120.795 114.369 119.625C115.689 118.455 117.594 117.87 120.084 117.87C121.794 117.87 123.339 118.05 124.719 118.41C126.099 118.77 127.179 119.175 127.959 119.625L126.654 123.855C125.964 123.585 125.094 123.3 124.044 123C122.994 122.7 121.929 122.55 120.849 122.55C119.109 122.55 118.239 123.225 118.239 124.575C118.239 125.115 118.494 125.55 119.004 125.88C119.514 126.21 120.144 126.525 120.894 126.825C121.644 127.095 122.469 127.395 123.369 127.725C124.269 128.055 125.094 128.49 125.844 129.03C126.594 129.54 127.224 130.215 127.734 131.055C128.244 131.895 128.499 132.975 128.499 134.295C128.499 136.575 127.764 138.375 126.294 139.695C124.854 140.985 122.679 141.63 119.769 141.63C118.179 141.63 116.679 141.42 115.269 141C113.889 140.61 112.764 140.145 111.894 139.605L113.514 135.24C114.204 135.63 115.119 136.02 116.259 136.41C117.399 136.77 118.569 136.95 119.769 136.95C120.639 136.95 121.329 136.785 121.839 136.455C122.379 136.125 122.649 135.57 122.649 134.79ZM137.943 118.5V131.28C137.943 133.11 138.153 134.43 138.573 135.24C139.023 136.05 139.878 136.455 141.138 136.455C142.248 136.455 143.163 136.125 143.883 135.465C144.633 134.805 145.188 133.995 145.548 133.035V118.5H151.398V134.16C151.398 135.39 151.458 136.605 151.578 137.805C151.698 138.975 151.878 140.04 152.118 141H147.708L146.673 137.67H146.493C145.803 138.81 144.843 139.755 143.613 140.505C142.383 141.255 140.928 141.63 139.248 141.63C138.108 141.63 137.088 141.48 136.188 141.18C135.288 140.88 134.538 140.385 133.938 139.695C133.338 139.005 132.873 138.075 132.543 136.905C132.243 135.735 132.093 134.265 132.093 132.495V118.5H137.943ZM169.312 141V128.76C169.312 126.69 169.117 125.22 168.727 124.35C168.337 123.48 167.527 123.045 166.297 123.045C165.277 123.045 164.452 123.33 163.822 123.9C163.192 124.44 162.712 125.145 162.382 126.015V141H156.532V118.5H161.077L161.752 121.47H161.932C162.622 120.51 163.492 119.67 164.542 118.95C165.622 118.23 167.002 117.87 168.682 117.87C170.122 117.87 171.292 118.17 172.192 118.77C173.122 119.34 173.842 120.315 174.352 121.695C175.042 120.525 175.927 119.595 177.007 118.905C178.087 118.215 179.392 117.87 180.922 117.87C182.182 117.87 183.247 118.02 184.117 118.32C185.017 118.62 185.737 119.145 186.277 119.895C186.847 120.615 187.267 121.59 187.537 122.82C187.807 124.05 187.942 125.61 187.942 127.5V141H182.092V128.355C182.092 126.585 181.897 125.265 181.507 124.395C181.147 123.495 180.322 123.045 179.032 123.045C177.982 123.045 177.142 123.33 176.512 123.9C175.912 124.47 175.462 125.25 175.162 126.24V141H169.312ZM210.743 139.065C209.843 139.785 208.613 140.4 207.053 140.91C205.523 141.39 203.888 141.63 202.148 141.63C198.518 141.63 195.863 140.58 194.183 138.48C192.503 136.35 191.663 133.44 191.663 129.75C191.663 125.79 192.608 122.82 194.498 120.84C196.388 118.86 199.043 117.87 202.463 117.87C203.603 117.87 204.713 118.02 205.793 118.32C206.873 118.62 207.833 119.115 208.673 119.805C209.513 120.495 210.188 121.425 210.698 122.595C211.208 123.765 211.463 125.22 211.463 126.96C211.463 127.59 211.418 128.265 211.328 128.985C211.268 129.705 211.163 130.455 211.013 131.235H197.513C197.603 133.125 198.083 134.55 198.953 135.51C199.853 136.47 201.293 136.95 203.273 136.95C204.503 136.95 205.598 136.77 206.558 136.41C207.548 136.02 208.298 135.63 208.808 135.24L210.743 139.065ZM202.373 122.55C200.843 122.55 199.703 123.015 198.953 123.945C198.233 124.845 197.798 126.06 197.648 127.59H206.018C206.138 125.97 205.883 124.725 205.253 123.855C204.653 122.985 203.693 122.55 202.373 122.55ZM228.551 132.27C228.551 131.13 228.731 130.05 229.091 129.03C229.481 127.98 230.006 127.005 230.666 126.105C231.356 125.205 232.166 124.365 233.096 123.585C234.026 122.805 235.031 122.115 236.111 121.515C235.361 120.525 234.746 119.52 234.266 118.5C233.786 117.48 233.546 116.4 233.546 115.26C233.546 114.51 233.681 113.76 233.951 113.01C234.251 112.23 234.701 111.54 235.301 110.94C235.931 110.31 236.741 109.815 237.731 109.455C238.721 109.065 239.921 108.87 241.331 108.87C242.711 108.87 243.881 109.035 244.841 109.365C245.831 109.695 246.626 110.13 247.226 110.67C247.826 111.21 248.261 111.825 248.531 112.515C248.801 113.205 248.936 113.91 248.936 114.63C248.936 115.86 248.501 117.15 247.631 118.5C246.761 119.82 245.276 121.095 243.176 122.325C244.226 123.945 245.276 125.43 246.326 126.78C247.376 128.13 248.546 129.465 249.836 130.785C250.526 130.035 251.141 129.105 251.681 127.995C252.251 126.855 252.746 125.7 253.166 124.53L257.396 126.78C257.216 127.32 256.961 127.92 256.631 128.58C256.331 129.21 255.986 129.855 255.596 130.515C255.236 131.175 254.861 131.805 254.471 132.405C254.081 132.975 253.721 133.47 253.391 133.89C254.351 134.76 255.191 135.45 255.911 135.96C256.631 136.44 257.366 136.89 258.116 137.31L255.011 141.63C254.171 141.24 253.301 140.73 252.401 140.1C251.531 139.44 250.661 138.69 249.791 137.85C248.711 138.84 247.361 139.725 245.741 140.505C244.121 141.255 242.126 141.63 239.756 141.63C238.196 141.63 236.726 141.42 235.346 141C233.996 140.58 232.811 139.965 231.791 139.155C230.801 138.345 230.006 137.37 229.406 136.23C228.836 135.06 228.551 133.74 228.551 132.27ZM246.281 134.295C244.751 132.705 243.356 131.13 242.096 129.57C240.836 127.98 239.741 126.48 238.811 125.07C237.371 126.18 236.276 127.26 235.526 128.31C234.776 129.33 234.401 130.485 234.401 131.775C234.401 133.305 234.956 134.505 236.066 135.375C237.206 136.245 238.691 136.68 240.521 136.68C241.721 136.68 242.846 136.44 243.896 135.96C244.946 135.45 245.741 134.895 246.281 134.295ZM239.396 115.53C239.396 116.79 239.936 118.14 241.016 119.58C242.186 118.83 243.026 118.125 243.536 117.465C244.076 116.805 244.346 116.175 244.346 115.575C244.346 114.855 244.136 114.285 243.716 113.865C243.326 113.445 242.681 113.235 241.781 113.235C240.971 113.235 240.371 113.445 239.981 113.865C239.591 114.285 239.396 114.84 239.396 115.53ZM65.7 156.5H84.375V161.99H71.865V169.325H83.25V174.815H71.865V182.51H84.6V188H65.7V156.5ZM95.1057 180.44C95.1057 181.49 95.2407 182.255 95.5107 182.735C95.7807 183.215 96.2157 183.455 96.8157 183.455C97.1757 183.455 97.5207 183.425 97.8507 183.365C98.2107 183.305 98.6457 183.17 99.1557 182.96L99.7857 187.55C99.3057 187.79 98.5707 188.03 97.5807 188.27C96.5907 188.51 95.5707 188.63 94.5207 188.63C92.8107 188.63 91.5057 188.24 90.6057 187.46C89.7057 186.65 89.2557 185.33 89.2557 183.5V156.5H95.1057V180.44ZM120.303 186.065C119.403 186.785 118.173 187.4 116.613 187.91C115.083 188.39 113.448 188.63 111.708 188.63C108.078 188.63 105.423 187.58 103.743 185.48C102.063 183.35 101.223 180.44 101.223 176.75C101.223 172.79 102.168 169.82 104.058 167.84C105.948 165.86 108.603 164.87 112.023 164.87C113.163 164.87 114.273 165.02 115.353 165.32C116.433 165.62 117.393 166.115 118.233 166.805C119.073 167.495 119.748 168.425 120.258 169.595C120.768 170.765 121.023 172.22 121.023 173.96C121.023 174.59 120.978 175.265 120.888 175.985C120.828 176.705 120.723 177.455 120.573 178.235H107.073C107.163 180.125 107.643 181.55 108.513 182.51C109.413 183.47 110.853 183.95 112.833 183.95C114.063 183.95 115.158 183.77 116.118 183.41C117.108 183.02 117.858 182.63 118.368 182.24L120.303 186.065ZM111.933 169.55C110.403 169.55 109.263 170.015 108.513 170.945C107.793 171.845 107.358 173.06 107.208 174.59H115.578C115.698 172.97 115.443 171.725 114.813 170.855C114.213 169.985 113.253 169.55 111.933 169.55ZM132.325 177.29L133.09 180.755H133.315L133.945 177.2L137.77 165.5H144.07L134.665 188.225H131.11L121.345 165.5H128.14L132.325 177.29ZM145.85 166.805C147.05 166.265 148.475 165.845 150.125 165.545C151.775 165.215 153.5 165.05 155.3 165.05C156.86 165.05 158.165 165.245 159.215 165.635C160.265 165.995 161.09 166.52 161.69 167.21C162.32 167.9 162.755 168.725 162.995 169.685C163.265 170.645 163.4 171.725 163.4 172.925C163.4 174.245 163.355 175.58 163.265 176.93C163.175 178.25 163.115 179.555 163.085 180.845C163.085 182.135 163.13 183.395 163.22 184.625C163.31 185.825 163.535 186.965 163.895 188.045H159.125L158.18 184.94H157.955C157.355 185.87 156.515 186.68 155.435 187.37C154.385 188.03 153.02 188.36 151.34 188.36C150.29 188.36 149.345 188.21 148.505 187.91C147.665 187.58 146.945 187.13 146.345 186.56C145.745 185.96 145.28 185.27 144.95 184.49C144.62 183.68 144.455 182.78 144.455 181.79C144.455 180.41 144.755 179.255 145.355 178.325C145.985 177.365 146.87 176.6 148.01 176.03C149.18 175.43 150.56 175.025 152.15 174.815C153.77 174.575 155.57 174.5 157.55 174.59C157.76 172.91 157.64 171.71 157.19 170.99C156.74 170.24 155.735 169.865 154.175 169.865C153.005 169.865 151.76 169.985 150.44 170.225C149.15 170.465 148.085 170.78 147.245 171.17L145.85 166.805ZM153.275 183.545C154.445 183.545 155.375 183.29 156.065 182.78C156.755 182.24 157.265 181.67 157.595 181.07V178.145C156.665 178.055 155.765 178.04 154.895 178.1C154.055 178.16 153.305 178.295 152.645 178.505C151.985 178.715 151.46 179.015 151.07 179.405C150.68 179.795 150.485 180.29 150.485 180.89C150.485 181.73 150.725 182.39 151.205 182.87C151.715 183.32 152.405 183.545 153.275 183.545ZM165.969 165.5H169.074V161.27L174.924 159.605V165.5H180.414V170.45H174.924V179.09C174.924 180.65 175.074 181.775 175.374 182.465C175.704 183.125 176.304 183.455 177.174 183.455C177.774 183.455 178.284 183.395 178.704 183.275C179.154 183.155 179.649 182.975 180.189 182.735L181.224 187.235C180.414 187.625 179.469 187.955 178.389 188.225C177.309 188.495 176.214 188.63 175.104 188.63C173.034 188.63 171.504 188.105 170.514 187.055C169.554 185.975 169.074 184.22 169.074 181.79V170.45H165.969V165.5ZM182.698 176.75C182.698 172.94 183.628 170.015 185.488 167.975C187.348 165.905 189.958 164.87 193.318 164.87C195.118 164.87 196.678 165.155 197.998 165.725C199.318 166.295 200.413 167.105 201.283 168.155C202.153 169.175 202.798 170.42 203.218 171.89C203.668 173.36 203.893 174.98 203.893 176.75C203.893 180.56 202.963 183.5 201.103 185.57C199.273 187.61 196.678 188.63 193.318 188.63C191.518 188.63 189.958 188.345 188.638 187.775C187.318 187.205 186.208 186.41 185.308 185.39C184.438 184.34 183.778 183.08 183.328 181.61C182.908 180.14 182.698 178.52 182.698 176.75ZM188.728 176.75C188.728 177.74 188.818 178.655 188.998 179.495C189.178 180.335 189.448 181.07 189.808 181.7C190.168 182.33 190.633 182.825 191.203 183.185C191.803 183.515 192.508 183.68 193.318 183.68C194.848 183.68 195.988 183.125 196.738 182.015C197.488 180.905 197.863 179.15 197.863 176.75C197.863 174.68 197.518 173.015 196.828 171.755C196.138 170.465 194.968 169.82 193.318 169.82C191.878 169.82 190.753 170.36 189.943 171.44C189.133 172.52 188.728 174.29 188.728 176.75ZM220.368 170.99C219.438 170.66 218.598 170.495 217.848 170.495C216.798 170.495 215.913 170.78 215.193 171.35C214.503 171.89 214.038 172.595 213.798 173.465V188H207.948V165.5H212.493L213.168 168.47H213.348C213.858 167.36 214.548 166.505 215.418 165.905C216.288 165.305 217.308 165.005 218.478 165.005C219.258 165.005 220.143 165.17 221.133 165.5L220.368 170.99ZM65.7 203.815C66.96 203.575 68.34 203.395 69.84 203.275C71.37 203.125 72.885 203.05 74.385 203.05C75.945 203.05 77.505 203.185 79.065 203.455C80.655 203.695 82.08 204.205 83.34 204.985C84.6 205.735 85.62 206.8 86.4 208.18C87.21 209.53 87.615 211.3 87.615 213.49C87.615 215.47 87.27 217.15 86.58 218.53C85.89 219.88 84.975 220.99 83.835 221.86C82.695 222.73 81.39 223.36 79.92 223.75C78.48 224.14 76.98 224.335 75.42 224.335C75.27 224.335 75.03 224.335 74.7 224.335C74.37 224.335 74.025 224.335 73.665 224.335C73.305 224.305 72.945 224.275 72.585 224.245C72.255 224.215 72.015 224.185 71.865 224.155V235H65.7V203.815ZM74.88 208.36C74.28 208.36 73.71 208.39 73.17 208.45C72.63 208.48 72.195 208.525 71.865 208.585V218.8C71.985 218.83 72.165 218.86 72.405 218.89C72.645 218.92 72.9 218.95 73.17 218.98C73.44 218.98 73.695 218.98 73.935 218.98C74.205 218.98 74.4 218.98 74.52 218.98C75.33 218.98 76.125 218.905 76.905 218.755C77.715 218.605 78.435 218.335 79.065 217.945C79.695 217.525 80.19 216.955 80.55 216.235C80.94 215.515 81.135 214.57 81.135 213.4C81.135 212.41 80.955 211.6 80.595 210.97C80.235 210.31 79.755 209.785 79.155 209.395C78.585 209.005 77.925 208.735 77.175 208.585C76.425 208.435 75.66 208.36 74.88 208.36ZM91.812 212.5H97.662V235H91.812V212.5ZM90.957 206.155C90.957 205.285 91.272 204.55 91.902 203.95C92.562 203.32 93.462 203.005 94.602 203.005C95.742 203.005 96.657 203.32 97.347 203.95C98.067 204.55 98.427 205.285 98.427 206.155C98.427 207.025 98.067 207.76 97.347 208.36C96.657 208.93 95.742 209.215 94.602 209.215C93.462 209.215 92.562 208.93 91.902 208.36C91.272 207.76 90.957 207.025 90.957 206.155ZM101.062 212.5H104.167V208.27L110.017 206.605V212.5H115.507V217.45H110.017V226.09C110.017 227.65 110.167 228.775 110.467 229.465C110.797 230.125 111.397 230.455 112.267 230.455C112.867 230.455 113.377 230.395 113.797 230.275C114.247 230.155 114.742 229.975 115.282 229.735L116.317 234.235C115.507 234.625 114.562 234.955 113.482 235.225C112.402 235.495 111.307 235.63 110.197 235.63C108.127 235.63 106.597 235.105 105.607 234.055C104.647 232.975 104.167 231.22 104.167 228.79V217.45H101.062V212.5ZM134.801 233.605C133.901 234.265 132.806 234.76 131.516 235.09C130.256 235.45 128.951 235.63 127.601 235.63C125.801 235.63 124.271 235.345 123.011 234.775C121.781 234.205 120.776 233.41 119.996 232.39C119.216 231.34 118.646 230.08 118.286 228.61C117.956 227.14 117.791 225.52 117.791 223.75C117.791 219.94 118.646 217.015 120.356 214.975C122.066 212.905 124.556 211.87 127.826 211.87C129.476 211.87 130.796 212.005 131.786 212.275C132.806 212.545 133.721 212.89 134.531 213.31L133.136 218.08C132.446 217.75 131.756 217.495 131.066 217.315C130.406 217.135 129.641 217.045 128.771 217.045C127.151 217.045 125.921 217.585 125.081 218.665C124.241 219.715 123.821 221.41 123.821 223.75C123.821 224.71 123.926 225.595 124.136 226.405C124.346 227.215 124.661 227.92 125.081 228.52C125.501 229.12 126.041 229.6 126.701 229.96C127.391 230.29 128.186 230.455 129.086 230.455C130.076 230.455 130.916 230.335 131.606 230.095C132.296 229.825 132.911 229.51 133.451 229.15L134.801 233.605ZM152.108 235V222.22C152.108 220.39 151.853 219.07 151.343 218.26C150.833 217.45 149.903 217.045 148.553 217.045C147.563 217.045 146.648 217.39 145.808 218.08C144.998 218.74 144.458 219.595 144.188 220.645V235H138.338V203.5H144.188V215.02H144.368C145.088 214.06 145.973 213.295 147.023 212.725C148.073 212.155 149.408 211.87 151.028 211.87C152.168 211.87 153.173 212.02 154.043 212.32C154.913 212.62 155.633 213.115 156.203 213.805C156.803 214.495 157.238 215.44 157.508 216.64C157.808 217.81 157.958 219.265 157.958 221.005V235H152.108ZM195.135 233.695C194.175 234.385 192.945 234.88 191.445 235.18C189.975 235.48 188.46 235.63 186.9 235.63C185.01 235.63 183.21 235.345 181.5 234.775C179.82 234.175 178.335 233.23 177.045 231.94C175.755 230.62 174.72 228.925 173.94 226.855C173.19 224.755 172.815 222.22 172.815 219.25C172.815 216.16 173.235 213.58 174.075 211.51C174.945 209.41 176.055 207.73 177.405 206.47C178.785 205.18 180.315 204.265 181.995 203.725C183.675 203.155 185.355 202.87 187.035 202.87C188.835 202.87 190.35 202.99 191.58 203.23C192.84 203.47 193.875 203.755 194.685 204.085L193.47 209.305C192.78 208.975 191.955 208.735 190.995 208.585C190.065 208.435 188.925 208.36 187.575 208.36C185.085 208.36 183.075 209.245 181.545 211.015C180.045 212.785 179.295 215.53 179.295 219.25C179.295 220.87 179.475 222.355 179.835 223.705C180.195 225.025 180.735 226.165 181.455 227.125C182.205 228.055 183.12 228.79 184.2 229.33C185.31 229.84 186.585 230.095 188.025 230.095C189.375 230.095 190.515 229.96 191.445 229.69C192.375 229.42 193.185 229.075 193.875 228.655L195.135 233.695ZM210.744 217.99C209.814 217.66 208.974 217.495 208.224 217.495C207.174 217.495 206.289 217.78 205.569 218.35C204.879 218.89 204.414 219.595 204.174 220.465V235H198.324V212.5H202.869L203.544 215.47H203.724C204.234 214.36 204.924 213.505 205.794 212.905C206.664 212.305 207.684 212.005 208.854 212.005C209.634 212.005 210.519 212.17 211.509 212.5L210.744 217.99ZM214.595 212.5H220.445V235H214.595V212.5ZM213.74 206.155C213.74 205.285 214.055 204.55 214.685 203.95C215.345 203.32 216.245 203.005 217.385 203.005C218.525 203.005 219.44 203.32 220.13 203.95C220.85 204.55 221.21 205.285 221.21 206.155C221.21 207.025 220.85 207.76 220.13 208.36C219.44 208.93 218.525 209.215 217.385 209.215C216.245 209.215 215.345 208.93 214.685 208.36C214.055 207.76 213.74 207.025 213.74 206.155ZM223.845 212.5H226.95V208.27L232.8 206.605V212.5H238.29V217.45H232.8V226.09C232.8 227.65 232.95 228.775 233.25 229.465C233.58 230.125 234.18 230.455 235.05 230.455C235.65 230.455 236.16 230.395 236.58 230.275C237.03 230.155 237.525 229.975 238.065 229.735L239.1 234.235C238.29 234.625 237.345 234.955 236.265 235.225C235.185 235.495 234.09 235.63 232.98 235.63C230.91 235.63 229.38 235.105 228.39 234.055C227.43 232.975 226.95 231.22 226.95 228.79V217.45H223.845V212.5ZM242.369 212.5H248.219V235H242.369V212.5ZM241.514 206.155C241.514 205.285 241.829 204.55 242.459 203.95C243.119 203.32 244.019 203.005 245.159 203.005C246.299 203.005 247.214 203.32 247.904 203.95C248.624 204.55 248.984 205.285 248.984 206.155C248.984 207.025 248.624 207.76 247.904 208.36C247.214 208.93 246.299 209.215 245.159 209.215C244.019 209.215 243.119 208.93 242.459 208.36C241.829 207.76 241.514 207.025 241.514 206.155ZM272.994 244H267.144V233.065H266.964C266.454 233.845 265.764 234.475 264.894 234.955C264.024 235.405 262.899 235.63 261.519 235.63C258.729 235.63 256.584 234.685 255.084 232.795C253.614 230.905 252.879 228.04 252.879 224.2C252.879 220.18 253.884 217.135 255.894 215.065C257.934 212.995 260.844 211.96 264.624 211.96C265.434 211.96 266.244 212.005 267.054 212.095C267.864 212.155 268.629 212.26 269.349 212.41C270.099 212.53 270.789 212.68 271.419 212.86C272.049 213.01 272.574 213.16 272.994 213.31V244ZM263.094 230.68C264.234 230.68 265.104 230.425 265.704 229.915C266.334 229.405 266.814 228.64 267.144 227.62V217.495C266.694 217.255 266.184 217.105 265.614 217.045C265.044 216.955 264.399 216.91 263.679 216.91C262.089 216.91 260.889 217.51 260.079 218.71C259.299 219.91 258.909 221.665 258.909 223.975C258.909 226.165 259.269 227.83 259.989 228.97C260.709 230.11 261.744 230.68 263.094 230.68ZM283.71 212.5V225.28C283.71 227.11 283.92 228.43 284.34 229.24C284.79 230.05 285.645 230.455 286.905 230.455C288.015 230.455 288.93 230.125 289.65 229.465C290.4 228.805 290.955 227.995 291.315 227.035V212.5H297.165V228.16C297.165 229.39 297.225 230.605 297.345 231.805C297.465 232.975 297.645 234.04 297.885 235H293.475L292.44 231.67H292.26C291.57 232.81 290.61 233.755 289.38 234.505C288.15 235.255 286.695 235.63 285.015 235.63C283.875 235.63 282.855 235.48 281.955 235.18C281.055 234.88 280.305 234.385 279.705 233.695C279.105 233.005 278.64 232.075 278.31 230.905C278.01 229.735 277.86 228.265 277.86 226.495V212.5H283.71ZM320.298 233.065C319.398 233.785 318.168 234.4 316.608 234.91C315.078 235.39 313.443 235.63 311.703 235.63C308.073 235.63 305.418 234.58 303.738 232.48C302.058 230.35 301.218 227.44 301.218 223.75C301.218 219.79 302.163 216.82 304.053 214.84C305.943 212.86 308.598 211.87 312.018 211.87C313.158 211.87 314.268 212.02 315.348 212.32C316.428 212.62 317.388 213.115 318.228 213.805C319.068 214.495 319.743 215.425 320.253 216.595C320.763 217.765 321.018 219.22 321.018 220.96C321.018 221.59 320.973 222.265 320.883 222.985C320.823 223.705 320.718 224.455 320.568 225.235H307.068C307.158 227.125 307.638 228.55 308.508 229.51C309.408 230.47 310.848 230.95 312.828 230.95C314.058 230.95 315.153 230.77 316.113 230.41C317.103 230.02 317.853 229.63 318.363 229.24L320.298 233.065ZM311.928 216.55C310.398 216.55 309.258 217.015 308.508 217.945C307.788 218.845 307.353 220.06 307.203 221.59H315.573C315.693 219.97 315.438 218.725 314.808 217.855C314.208 216.985 313.248 216.55 311.928 216.55Z" fill="white"/>
<path id="Fung Auditorium" d="M66.08 281.4H73.55V283.596H68.546V286.71H73.154V288.906H68.546V294H66.08V281.4ZM78.35 285V290.112C78.35 290.844 78.434 291.372 78.602 291.696C78.782 292.02 79.124 292.182 79.628 292.182C80.072 292.182 80.438 292.05 80.726 291.786C81.026 291.522 81.248 291.198 81.392 290.814V285H83.732V291.264C83.732 291.756 83.756 292.242 83.804 292.722C83.852 293.19 83.924 293.616 84.02 294H82.256L81.842 292.668H81.77C81.494 293.124 81.11 293.502 80.618 293.802C80.126 294.102 79.544 294.252 78.872 294.252C78.416 294.252 78.008 294.192 77.648 294.072C77.288 293.952 76.988 293.754 76.748 293.478C76.508 293.202 76.322 292.83 76.19 292.362C76.07 291.894 76.01 291.306 76.01 290.598V285H78.35ZM92.2268 294V288.888C92.2268 288.156 92.1188 287.628 91.9028 287.304C91.6988 286.98 91.3448 286.818 90.8408 286.818C90.3968 286.818 90.0188 286.95 89.7068 287.214C89.4068 287.466 89.1908 287.784 89.0588 288.168V294H86.7188V285H88.5728L88.8428 286.188H88.9148C89.1908 285.804 89.5568 285.468 90.0128 285.18C90.4688 284.892 91.0568 284.748 91.7768 284.748C92.2208 284.748 92.6168 284.808 92.9648 284.928C93.3128 285.048 93.6068 285.246 93.8468 285.522C94.0868 285.798 94.2668 286.176 94.3868 286.656C94.5068 287.124 94.5668 287.706 94.5668 288.402V294H92.2268ZM105.075 294C105.075 295.308 104.721 296.268 104.013 296.88C103.305 297.504 102.315 297.816 101.043 297.816C100.179 297.816 99.4948 297.756 98.9908 297.636C98.4988 297.516 98.1268 297.39 97.8748 297.258L98.3608 295.404C98.6368 295.512 98.9548 295.62 99.3148 295.728C99.6868 295.836 100.143 295.89 100.683 295.89C101.499 295.89 102.051 295.71 102.339 295.35C102.639 295.002 102.789 294.51 102.789 293.874V293.298H102.717C102.297 293.862 101.553 294.144 100.485 294.144C99.3208 294.144 98.4508 293.784 97.8748 293.064C97.3108 292.344 97.0288 291.216 97.0288 289.68C97.0288 288.072 97.4128 286.854 98.1808 286.026C98.9488 285.198 100.065 284.784 101.529 284.784C102.297 284.784 102.981 284.838 103.581 284.946C104.193 285.054 104.691 285.18 105.075 285.324V294ZM101.115 292.272C101.571 292.272 101.919 292.17 102.159 291.966C102.411 291.762 102.603 291.456 102.735 291.048V286.998C102.363 286.842 101.901 286.764 101.349 286.764C100.749 286.764 100.281 286.992 99.9448 287.448C99.6088 287.892 99.4408 288.606 99.4408 289.59C99.4408 290.466 99.5848 291.132 99.8728 291.588C100.161 292.044 100.575 292.272 101.115 292.272ZM119.074 291.21H115.204L114.25 294H111.784L116.32 281.31H118.138L122.674 294H120.082L119.074 291.21ZM115.834 289.23H118.534L117.598 286.422L117.22 284.442H117.13L116.752 286.44L115.834 289.23ZM126.892 285V290.112C126.892 290.844 126.976 291.372 127.144 291.696C127.324 292.02 127.666 292.182 128.17 292.182C128.614 292.182 128.98 292.05 129.268 291.786C129.568 291.522 129.79 291.198 129.934 290.814V285H132.274V291.264C132.274 291.756 132.298 292.242 132.346 292.722C132.394 293.19 132.466 293.616 132.562 294H130.798L130.384 292.668H130.312C130.036 293.124 129.652 293.502 129.16 293.802C128.668 294.102 128.086 294.252 127.414 294.252C126.958 294.252 126.55 294.192 126.19 294.072C125.83 293.952 125.53 293.754 125.29 293.478C125.05 293.202 124.864 292.83 124.732 292.362C124.612 291.894 124.552 291.306 124.552 290.598V285H126.892ZM142.911 290.832C142.911 291.336 142.917 291.84 142.929 292.344C142.941 292.848 142.995 293.406 143.091 294.018H141.417L141.093 292.848H141.021C140.781 293.268 140.433 293.61 139.977 293.874C139.533 294.126 139.005 294.252 138.393 294.252C137.265 294.252 136.389 293.88 135.765 293.136C135.141 292.392 134.829 291.228 134.829 289.644C134.829 288.108 135.177 286.914 135.873 286.062C136.569 285.21 137.589 284.784 138.933 284.784C139.305 284.784 139.611 284.808 139.851 284.856C140.091 284.892 140.331 284.958 140.571 285.054V281.4H142.911V290.832ZM138.933 292.272C139.389 292.272 139.749 292.164 140.013 291.948C140.277 291.72 140.463 291.396 140.571 290.976V287.16C140.403 287.028 140.217 286.932 140.013 286.872C139.809 286.8 139.545 286.764 139.221 286.764C138.561 286.764 138.063 286.986 137.727 287.43C137.403 287.874 137.241 288.636 137.241 289.716C137.241 290.484 137.373 291.102 137.637 291.57C137.913 292.038 138.345 292.272 138.933 292.272ZM146.095 285H148.435V294H146.095V285ZM145.753 282.462C145.753 282.114 145.879 281.82 146.131 281.58C146.395 281.328 146.755 281.202 147.211 281.202C147.667 281.202 148.033 281.328 148.309 281.58C148.597 281.82 148.741 282.114 148.741 282.462C148.741 282.81 148.597 283.104 148.309 283.344C148.033 283.572 147.667 283.686 147.211 283.686C146.755 283.686 146.395 283.572 146.131 283.344C145.879 283.104 145.753 282.81 145.753 282.462ZM150.728 285H151.97V283.308L154.31 282.642V285H156.506V286.98H154.31V290.436C154.31 291.06 154.37 291.51 154.49 291.786C154.622 292.05 154.862 292.182 155.21 292.182C155.45 292.182 155.654 292.158 155.822 292.11C156.002 292.062 156.2 291.99 156.416 291.894L156.83 293.694C156.506 293.85 156.128 293.982 155.696 294.09C155.264 294.198 154.826 294.252 154.382 294.252C153.554 294.252 152.942 294.042 152.546 293.622C152.162 293.19 151.97 292.488 151.97 291.516V286.98H150.728V285ZM158.353 289.5C158.353 287.976 158.725 286.806 159.469 285.99C160.213 285.162 161.257 284.748 162.601 284.748C163.321 284.748 163.945 284.862 164.473 285.09C165.001 285.318 165.439 285.642 165.787 286.062C166.135 286.47 166.393 286.968 166.561 287.556C166.741 288.144 166.831 288.792 166.831 289.5C166.831 291.024 166.459 292.2 165.715 293.028C164.983 293.844 163.945 294.252 162.601 294.252C161.881 294.252 161.257 294.138 160.729 293.91C160.201 293.682 159.757 293.364 159.397 292.956C159.049 292.536 158.785 292.032 158.605 291.444C158.437 290.856 158.353 290.208 158.353 289.5ZM160.765 289.5C160.765 289.896 160.801 290.262 160.873 290.598C160.945 290.934 161.053 291.228 161.197 291.48C161.341 291.732 161.527 291.93 161.755 292.074C161.995 292.206 162.277 292.272 162.601 292.272C163.213 292.272 163.669 292.05 163.969 291.606C164.269 291.162 164.419 290.46 164.419 289.5C164.419 288.672 164.281 288.006 164.005 287.502C163.729 286.986 163.261 286.728 162.601 286.728C162.025 286.728 161.575 286.944 161.251 287.376C160.927 287.808 160.765 288.516 160.765 289.5ZM174.354 287.196C173.982 287.064 173.646 286.998 173.346 286.998C172.926 286.998 172.572 287.112 172.284 287.34C172.008 287.556 171.822 287.838 171.726 288.186V294H169.386V285H171.204L171.474 286.188H171.546C171.75 285.744 172.026 285.402 172.374 285.162C172.722 284.922 173.13 284.802 173.598 284.802C173.91 284.802 174.264 284.868 174.66 285L174.354 287.196ZM176.828 285H179.168V294H176.828V285ZM176.486 282.462C176.486 282.114 176.612 281.82 176.864 281.58C177.128 281.328 177.488 281.202 177.944 281.202C178.4 281.202 178.766 281.328 179.042 281.58C179.33 281.82 179.474 282.114 179.474 282.462C179.474 282.81 179.33 283.104 179.042 283.344C178.766 283.572 178.4 283.686 177.944 283.686C177.488 283.686 177.128 283.572 176.864 283.344C176.612 283.104 176.486 282.81 176.486 282.462ZM184.648 285V290.112C184.648 290.844 184.732 291.372 184.9 291.696C185.08 292.02 185.422 292.182 185.926 292.182C186.37 292.182 186.736 292.05 187.024 291.786C187.324 291.522 187.546 291.198 187.69 290.814V285H190.03V291.264C190.03 291.756 190.054 292.242 190.102 292.722C190.15 293.19 190.222 293.616 190.318 294H188.554L188.14 292.668H188.068C187.792 293.124 187.408 293.502 186.916 293.802C186.424 294.102 185.842 294.252 185.17 294.252C184.714 294.252 184.306 294.192 183.946 294.072C183.586 293.952 183.286 293.754 183.046 293.478C182.806 293.202 182.62 292.83 182.488 292.362C182.368 291.894 182.308 291.306 182.308 290.598V285H184.648ZM198.128 294V289.104C198.128 288.276 198.05 287.688 197.894 287.34C197.738 286.992 197.414 286.818 196.922 286.818C196.514 286.818 196.184 286.932 195.932 287.16C195.68 287.376 195.488 287.658 195.356 288.006V294H193.016V285H194.834L195.104 286.188H195.176C195.452 285.804 195.8 285.468 196.22 285.18C196.652 284.892 197.204 284.748 197.876 284.748C198.452 284.748 198.92 284.868 199.28 285.108C199.652 285.336 199.94 285.726 200.144 286.278C200.42 285.81 200.774 285.438 201.206 285.162C201.638 284.886 202.16 284.748 202.772 284.748C203.276 284.748 203.702 284.808 204.05 284.928C204.41 285.048 204.698 285.258 204.914 285.558C205.142 285.846 205.31 286.236 205.418 286.728C205.526 287.22 205.58 287.844 205.58 288.6V294H203.24V288.942C203.24 288.234 203.162 287.706 203.006 287.358C202.862 286.998 202.532 286.818 202.016 286.818C201.596 286.818 201.26 286.932 201.008 287.16C200.768 287.388 200.588 287.7 200.468 288.096V294H198.128Z" fill="white"/>
<path id="Hosted by Theta Tau, Tau Beta Pi, and IEEE" d="M71.056 355.506H66.352V360H65.19V350.2H66.352V354.47H71.056V350.2H72.218V360H71.056V355.506ZM74.0923 356.5C74.0923 355.315 74.3536 354.409 74.8763 353.784C75.4083 353.149 76.1689 352.832 77.1583 352.832C77.6809 352.832 78.1336 352.921 78.5163 353.098C78.9083 353.266 79.2303 353.513 79.4823 353.84C79.7343 354.157 79.9209 354.545 80.0423 355.002C80.1636 355.45 80.2243 355.949 80.2243 356.5C80.2243 357.685 79.9583 358.595 79.4263 359.23C78.9036 359.855 78.1476 360.168 77.1583 360.168C76.6356 360.168 76.1783 360.084 75.7863 359.916C75.4036 359.739 75.0863 359.491 74.8343 359.174C74.5823 358.847 74.3956 358.46 74.2743 358.012C74.1529 357.555 74.0923 357.051 74.0923 356.5ZM75.2542 356.5C75.2542 356.855 75.2869 357.195 75.3523 357.522C75.4269 357.849 75.5389 358.133 75.6883 358.376C75.8376 358.619 76.0336 358.815 76.2763 358.964C76.5189 359.113 76.8129 359.188 77.1583 359.188C78.4276 359.197 79.0623 358.301 79.0623 356.5C79.0623 356.136 79.0249 355.791 78.9503 355.464C78.8849 355.137 78.7776 354.853 78.6283 354.61C78.4789 354.367 78.2829 354.176 78.0403 354.036C77.7976 353.887 77.5036 353.812 77.1583 353.812C75.8889 353.803 75.2542 354.699 75.2542 356.5ZM85.0701 358.096C85.0701 357.816 84.9861 357.597 84.8181 357.438C84.6501 357.279 84.4401 357.149 84.1881 357.046C83.9454 356.934 83.6748 356.831 83.3761 356.738C83.0868 356.635 82.8161 356.509 82.5641 356.36C82.3214 356.201 82.1161 356.001 81.9481 355.758C81.7801 355.515 81.6961 355.189 81.6961 354.778C81.6961 354.106 81.8874 353.616 82.2701 353.308C82.6528 352.991 83.1848 352.832 83.8661 352.832C84.3701 352.832 84.7901 352.879 85.1261 352.972C85.4714 353.056 85.7701 353.159 86.0221 353.28L85.7561 354.204C85.5414 354.101 85.2801 354.013 84.9721 353.938C84.6734 353.854 84.3514 353.812 84.0061 353.812C83.5954 353.812 83.2921 353.882 83.0961 354.022C82.9094 354.162 82.8161 354.405 82.8161 354.75C82.8161 354.993 82.9001 355.184 83.0681 355.324C83.2361 355.455 83.4414 355.576 83.6841 355.688C83.9361 355.791 84.2068 355.893 84.4961 355.996C84.7948 356.099 85.0654 356.234 85.3081 356.402C85.5601 356.57 85.7701 356.785 85.9381 357.046C86.1061 357.298 86.1901 357.634 86.1901 358.054C86.1901 358.353 86.1388 358.633 86.0361 358.894C85.9428 359.155 85.7934 359.379 85.5881 359.566C85.3828 359.753 85.1261 359.897 84.8181 360C84.5194 360.112 84.1648 360.168 83.7541 360.168C83.2221 360.168 82.7694 360.117 82.3961 360.014C82.0228 359.911 81.7101 359.79 81.4581 359.65L81.7941 358.698C82.0088 358.819 82.2888 358.931 82.6341 359.034C82.9794 359.137 83.3294 359.188 83.6841 359.188C84.0854 359.188 84.4168 359.109 84.6781 358.95C84.9394 358.791 85.0701 358.507 85.0701 358.096ZM86.9587 353H88.0507V351.614L89.1707 351.292V353H91.0747V353.98H89.1707V357.858C89.1707 358.343 89.2314 358.689 89.3527 358.894C89.474 359.09 89.6794 359.188 89.9687 359.188C90.2114 359.188 90.4167 359.165 90.5847 359.118C90.7527 359.062 90.9394 358.992 91.1447 358.908L91.3967 359.762C91.1447 359.883 90.8694 359.981 90.5707 360.056C90.272 360.131 89.95 360.168 89.6047 360.168C89.0354 360.168 88.634 360.009 88.4007 359.692C88.1674 359.365 88.0507 358.824 88.0507 358.068V353.98H86.9587V353ZM97.5864 359.44C97.3064 359.664 96.9518 359.841 96.5224 359.972C96.1024 360.103 95.6544 360.168 95.1784 360.168C94.6464 360.168 94.1844 360.084 93.7924 359.916C93.4004 359.739 93.0784 359.491 92.8264 359.174C92.5744 358.847 92.3878 358.46 92.2664 358.012C92.1451 357.564 92.0844 357.06 92.0844 356.5C92.0844 355.305 92.3504 354.395 92.8824 353.77C93.4144 353.145 94.1751 352.832 95.1644 352.832C95.4818 352.832 95.7991 352.869 96.1164 352.944C96.4338 353.009 96.7184 353.14 96.9704 353.336C97.2224 353.532 97.4278 353.812 97.5864 354.176C97.7451 354.531 97.8244 355.002 97.8244 355.59C97.8244 355.898 97.7964 356.239 97.7404 356.612H93.2464C93.2464 357.023 93.2884 357.387 93.3724 357.704C93.4564 358.021 93.5871 358.292 93.7644 358.516C93.9418 358.731 94.1704 358.899 94.4504 359.02C94.7398 359.132 95.0898 359.188 95.5004 359.188C95.8178 359.188 96.1351 359.132 96.4524 359.02C96.7698 358.908 97.0078 358.777 97.1664 358.628L97.5864 359.44ZM95.1784 353.812C94.6278 353.812 94.1844 353.957 93.8484 354.246C93.5218 354.535 93.3258 355.03 93.2604 355.73H96.7324C96.7324 355.021 96.5971 354.526 96.3264 354.246C96.0558 353.957 95.6731 353.812 95.1784 353.812ZM104.962 357.592C104.962 358.068 104.966 358.502 104.976 358.894C104.985 359.277 105.027 359.655 105.102 360.028H104.346L104.066 359.034H104.01C103.823 359.361 103.552 359.631 103.198 359.846C102.843 360.061 102.428 360.168 101.952 360.168C101.018 360.168 100.323 359.874 99.8658 359.286C99.4178 358.698 99.1938 357.779 99.1938 356.528C99.1938 355.333 99.4738 354.428 100.034 353.812C100.603 353.187 101.382 352.874 102.372 352.874C102.717 352.874 102.988 352.893 103.184 352.93C103.389 352.967 103.608 353.028 103.842 353.112V350.2H104.962V357.592ZM102.134 359.188C102.61 359.188 102.988 359.067 103.268 358.824C103.548 358.572 103.739 358.194 103.842 357.69V354.218C103.674 354.087 103.482 353.994 103.268 353.938C103.053 353.882 102.768 353.854 102.414 353.854C101.77 353.854 101.266 354.069 100.902 354.498C100.538 354.918 100.356 355.595 100.356 356.528C100.356 356.911 100.384 357.265 100.44 357.592C100.505 357.919 100.608 358.199 100.748 358.432C100.888 358.665 101.07 358.852 101.294 358.992C101.527 359.123 101.807 359.188 102.134 359.188ZM110.851 350.2H111.971V353.686H112.027C112.242 353.415 112.513 353.205 112.839 353.056C113.175 352.907 113.539 352.832 113.931 352.832C114.837 352.832 115.513 353.121 115.961 353.7C116.419 354.279 116.647 355.175 116.647 356.388C116.647 357.611 116.349 358.539 115.751 359.174C115.154 359.809 114.314 360.126 113.231 360.126C112.709 360.126 112.233 360.07 111.803 359.958C111.383 359.846 111.066 359.725 110.851 359.594V350.2ZM113.735 353.812C113.269 353.812 112.891 353.943 112.601 354.204C112.312 354.465 112.102 354.834 111.971 355.31V358.838C112.149 358.941 112.363 359.02 112.615 359.076C112.867 359.123 113.129 359.146 113.399 359.146C114.034 359.146 114.538 358.922 114.911 358.474C115.294 358.026 115.485 357.326 115.485 356.374C115.485 356.01 115.453 355.669 115.387 355.352C115.322 355.035 115.219 354.764 115.079 354.54C114.939 354.316 114.757 354.139 114.533 354.008C114.319 353.877 114.053 353.812 113.735 353.812ZM120.306 357.536L120.698 358.88H120.768L121.076 357.522L122.434 353H123.568L121.496 359.286C121.337 359.743 121.179 360.187 121.02 360.616C120.871 361.045 120.703 361.428 120.516 361.764C120.329 362.1 120.119 362.366 119.886 362.562C119.653 362.767 119.382 362.87 119.074 362.87C118.738 362.87 118.463 362.823 118.248 362.73L118.444 361.764C118.565 361.811 118.682 361.834 118.794 361.834C119.055 361.834 119.307 361.694 119.55 361.414C119.793 361.143 119.993 360.672 120.152 360L117.338 353H118.626L120.306 357.536ZM133.998 351.236H130.946V360H129.784V351.236H126.732V350.2H133.998V351.236ZM139.818 360V356.01C139.818 355.646 139.795 355.329 139.748 355.058C139.711 354.778 139.636 354.549 139.524 354.372C139.412 354.185 139.258 354.045 139.062 353.952C138.875 353.859 138.628 353.812 138.32 353.812C137.881 353.812 137.485 353.957 137.13 354.246C136.775 354.526 136.547 354.89 136.444 355.338V360H135.324V350.2H136.444V353.784H136.5C136.743 353.495 137.032 353.266 137.368 353.098C137.713 352.921 138.138 352.832 138.642 352.832C139.034 352.832 139.375 352.879 139.664 352.972C139.953 353.056 140.191 353.21 140.378 353.434C140.574 353.658 140.714 353.961 140.798 354.344C140.891 354.717 140.938 355.193 140.938 355.772V360H139.818ZM148.09 359.44C147.81 359.664 147.456 359.841 147.026 359.972C146.606 360.103 146.158 360.168 145.682 360.168C145.15 360.168 144.688 360.084 144.296 359.916C143.904 359.739 143.582 359.491 143.33 359.174C143.078 358.847 142.892 358.46 142.77 358.012C142.649 357.564 142.588 357.06 142.588 356.5C142.588 355.305 142.854 354.395 143.386 353.77C143.918 353.145 144.679 352.832 145.668 352.832C145.986 352.832 146.303 352.869 146.62 352.944C146.938 353.009 147.222 353.14 147.474 353.336C147.726 353.532 147.932 353.812 148.09 354.176C148.249 354.531 148.328 355.002 148.328 355.59C148.328 355.898 148.3 356.239 148.244 356.612H143.75C143.75 357.023 143.792 357.387 143.876 357.704C143.96 358.021 144.091 358.292 144.268 358.516C144.446 358.731 144.674 358.899 144.954 359.02C145.244 359.132 145.594 359.188 146.004 359.188C146.322 359.188 146.639 359.132 146.956 359.02C147.274 358.908 147.512 358.777 147.67 358.628L148.09 359.44ZM145.682 353.812C145.132 353.812 144.688 353.957 144.352 354.246C144.026 354.535 143.83 355.03 143.764 355.73H147.236C147.236 355.021 147.101 354.526 146.83 354.246C146.56 353.957 146.177 353.812 145.682 353.812ZM149.166 353H150.258V351.614L151.378 351.292V353H153.282V353.98H151.378V357.858C151.378 358.343 151.438 358.689 151.56 358.894C151.681 359.09 151.886 359.188 152.176 359.188C152.418 359.188 152.624 359.165 152.792 359.118C152.96 359.062 153.146 358.992 153.352 358.908L153.604 359.762C153.352 359.883 153.076 359.981 152.778 360.056C152.479 360.131 152.157 360.168 151.812 360.168C151.242 360.168 150.841 360.009 150.608 359.692C150.374 359.365 150.258 358.824 150.258 358.068V353.98H149.166V353ZM154.722 353.518C155.077 353.303 155.487 353.145 155.954 353.042C156.43 352.939 156.925 352.888 157.438 352.888C157.923 352.888 158.311 352.953 158.6 353.084C158.899 353.215 159.123 353.387 159.272 353.602C159.431 353.807 159.533 354.036 159.58 354.288C159.636 354.54 159.664 354.792 159.664 355.044C159.664 355.604 159.65 356.15 159.622 356.682C159.594 357.214 159.58 357.718 159.58 358.194C159.58 358.539 159.594 358.866 159.622 359.174C159.65 359.482 159.701 359.767 159.776 360.028H158.95L158.656 359.048H158.586C158.502 359.179 158.395 359.309 158.264 359.44C158.143 359.561 157.993 359.673 157.816 359.776C157.639 359.869 157.433 359.949 157.2 360.014C156.967 360.079 156.701 360.112 156.402 360.112C156.103 360.112 155.823 360.065 155.562 359.972C155.31 359.879 155.091 359.748 154.904 359.58C154.717 359.403 154.568 359.193 154.456 358.95C154.353 358.707 154.302 358.432 154.302 358.124C154.302 357.713 154.386 357.373 154.554 357.102C154.722 356.822 154.955 356.603 155.254 356.444C155.562 356.276 155.926 356.159 156.346 356.094C156.775 356.019 157.247 355.982 157.76 355.982C157.891 355.982 158.017 355.982 158.138 355.982C158.269 355.982 158.399 355.991 158.53 356.01C158.558 355.73 158.572 355.478 158.572 355.254C158.572 354.741 158.469 354.381 158.264 354.176C158.059 353.971 157.685 353.868 157.144 353.868C156.985 353.868 156.813 353.882 156.626 353.91C156.449 353.929 156.262 353.961 156.066 354.008C155.879 354.045 155.697 354.097 155.52 354.162C155.352 354.218 155.203 354.283 155.072 354.358L154.722 353.518ZM156.71 359.132C156.971 359.132 157.205 359.099 157.41 359.034C157.615 358.959 157.793 358.871 157.942 358.768C158.091 358.656 158.213 358.535 158.306 358.404C158.409 358.273 158.483 358.147 158.53 358.026V356.864C158.399 356.855 158.264 356.85 158.124 356.85C157.993 356.841 157.863 356.836 157.732 356.836C157.443 356.836 157.158 356.855 156.878 356.892C156.607 356.92 156.365 356.981 156.15 357.074C155.945 357.158 155.777 357.279 155.646 357.438C155.525 357.587 155.464 357.779 155.464 358.012C155.464 358.339 155.581 358.609 155.814 358.824C156.047 359.029 156.346 359.132 156.71 359.132ZM171.514 351.236H168.462V360H167.3V351.236H164.248V350.2H171.514V351.236ZM171.251 353.518C171.606 353.303 172.016 353.145 172.483 353.042C172.959 352.939 173.454 352.888 173.967 352.888C174.452 352.888 174.84 352.953 175.129 353.084C175.428 353.215 175.652 353.387 175.801 353.602C175.96 353.807 176.062 354.036 176.109 354.288C176.165 354.54 176.193 354.792 176.193 355.044C176.193 355.604 176.179 356.15 176.151 356.682C176.123 357.214 176.109 357.718 176.109 358.194C176.109 358.539 176.123 358.866 176.151 359.174C176.179 359.482 176.23 359.767 176.305 360.028H175.479L175.185 359.048H175.115C175.031 359.179 174.924 359.309 174.793 359.44C174.672 359.561 174.522 359.673 174.345 359.776C174.168 359.869 173.962 359.949 173.729 360.014C173.496 360.079 173.23 360.112 172.931 360.112C172.632 360.112 172.352 360.065 172.091 359.972C171.839 359.879 171.62 359.748 171.433 359.58C171.246 359.403 171.097 359.193 170.985 358.95C170.882 358.707 170.831 358.432 170.831 358.124C170.831 357.713 170.915 357.373 171.083 357.102C171.251 356.822 171.484 356.603 171.783 356.444C172.091 356.276 172.455 356.159 172.875 356.094C173.304 356.019 173.776 355.982 174.289 355.982C174.42 355.982 174.546 355.982 174.667 355.982C174.798 355.982 174.928 355.991 175.059 356.01C175.087 355.73 175.101 355.478 175.101 355.254C175.101 354.741 174.998 354.381 174.793 354.176C174.588 353.971 174.214 353.868 173.673 353.868C173.514 353.868 173.342 353.882 173.155 353.91C172.978 353.929 172.791 353.961 172.595 354.008C172.408 354.045 172.226 354.097 172.049 354.162C171.881 354.218 171.732 354.283 171.601 354.358L171.251 353.518ZM173.239 359.132C173.5 359.132 173.734 359.099 173.939 359.034C174.144 358.959 174.322 358.871 174.471 358.768C174.62 358.656 174.742 358.535 174.835 358.404C174.938 358.273 175.012 358.147 175.059 358.026V356.864C174.928 356.855 174.793 356.85 174.653 356.85C174.522 356.841 174.392 356.836 174.261 356.836C173.972 356.836 173.687 356.855 173.407 356.892C173.136 356.92 172.894 356.981 172.679 357.074C172.474 357.158 172.306 357.279 172.175 357.438C172.054 357.587 171.993 357.779 171.993 358.012C171.993 358.339 172.11 358.609 172.343 358.824C172.576 359.029 172.875 359.132 173.239 359.132ZM179.316 353V356.99C179.316 357.354 179.335 357.676 179.372 357.956C179.419 358.227 179.494 358.455 179.596 358.642C179.699 358.819 179.839 358.955 180.016 359.048C180.194 359.141 180.418 359.188 180.688 359.188C180.94 359.188 181.164 359.151 181.36 359.076C181.556 358.992 181.729 358.88 181.878 358.74C182.037 358.6 182.172 358.441 182.284 358.264C182.406 358.077 182.504 357.881 182.578 357.676V353H183.698V358.012C183.698 358.348 183.708 358.698 183.726 359.062C183.754 359.417 183.796 359.729 183.852 360H183.082L182.802 358.894H182.732C182.518 359.258 182.228 359.561 181.864 359.804C181.5 360.047 181.038 360.168 180.478 360.168C180.105 360.168 179.774 360.121 179.484 360.028C179.204 359.944 178.966 359.79 178.77 359.566C178.584 359.342 178.439 359.043 178.336 358.67C178.243 358.287 178.196 357.807 178.196 357.228V353H179.316ZM185.463 359.398C185.463 359.174 185.538 358.992 185.687 358.852C185.837 358.712 186.028 358.642 186.261 358.642C186.551 358.642 186.784 358.745 186.961 358.95C187.148 359.155 187.241 359.454 187.241 359.846C187.241 360.182 187.195 360.476 187.101 360.728C187.008 360.98 186.887 361.195 186.737 361.372C186.588 361.559 186.425 361.708 186.247 361.82C186.07 361.941 185.893 362.03 185.715 362.086L185.365 361.54C185.701 361.409 185.949 361.204 186.107 360.924C186.275 360.653 186.359 360.378 186.359 360.098C186.275 360.126 186.196 360.14 186.121 360.14C185.935 360.14 185.776 360.079 185.645 359.958C185.524 359.827 185.463 359.641 185.463 359.398ZM197.641 351.236H194.589V360H193.427V351.236H190.375V350.2H197.641V351.236ZM197.378 353.518C197.733 353.303 198.143 353.145 198.61 353.042C199.086 352.939 199.581 352.888 200.094 352.888C200.579 352.888 200.967 352.953 201.256 353.084C201.555 353.215 201.779 353.387 201.928 353.602C202.087 353.807 202.189 354.036 202.236 354.288C202.292 354.54 202.32 354.792 202.32 355.044C202.32 355.604 202.306 356.15 202.278 356.682C202.25 357.214 202.236 357.718 202.236 358.194C202.236 358.539 202.25 358.866 202.278 359.174C202.306 359.482 202.357 359.767 202.432 360.028H201.606L201.312 359.048H201.242C201.158 359.179 201.051 359.309 200.92 359.44C200.799 359.561 200.649 359.673 200.472 359.776C200.295 359.869 200.089 359.949 199.856 360.014C199.623 360.079 199.357 360.112 199.058 360.112C198.759 360.112 198.479 360.065 198.218 359.972C197.966 359.879 197.747 359.748 197.56 359.58C197.373 359.403 197.224 359.193 197.112 358.95C197.009 358.707 196.958 358.432 196.958 358.124C196.958 357.713 197.042 357.373 197.21 357.102C197.378 356.822 197.611 356.603 197.91 356.444C198.218 356.276 198.582 356.159 199.002 356.094C199.431 356.019 199.903 355.982 200.416 355.982C200.547 355.982 200.673 355.982 200.794 355.982C200.925 355.982 201.055 355.991 201.186 356.01C201.214 355.73 201.228 355.478 201.228 355.254C201.228 354.741 201.125 354.381 200.92 354.176C200.715 353.971 200.341 353.868 199.8 353.868C199.641 353.868 199.469 353.882 199.282 353.91C199.105 353.929 198.918 353.961 198.722 354.008C198.535 354.045 198.353 354.097 198.176 354.162C198.008 354.218 197.859 354.283 197.728 354.358L197.378 353.518ZM199.366 359.132C199.627 359.132 199.861 359.099 200.066 359.034C200.271 358.959 200.449 358.871 200.598 358.768C200.747 358.656 200.869 358.535 200.962 358.404C201.065 358.273 201.139 358.147 201.186 358.026V356.864C201.055 356.855 200.92 356.85 200.78 356.85C200.649 356.841 200.519 356.836 200.388 356.836C200.099 356.836 199.814 356.855 199.534 356.892C199.263 356.92 199.021 356.981 198.806 357.074C198.601 357.158 198.433 357.279 198.302 357.438C198.181 357.587 198.12 357.779 198.12 358.012C198.12 358.339 198.237 358.609 198.47 358.824C198.703 359.029 199.002 359.132 199.366 359.132ZM205.443 353V356.99C205.443 357.354 205.462 357.676 205.499 357.956C205.546 358.227 205.621 358.455 205.723 358.642C205.826 358.819 205.966 358.955 206.143 359.048C206.321 359.141 206.545 359.188 206.815 359.188C207.067 359.188 207.291 359.151 207.487 359.076C207.683 358.992 207.856 358.88 208.005 358.74C208.164 358.6 208.299 358.441 208.411 358.264C208.533 358.077 208.631 357.881 208.705 357.676V353H209.825V358.012C209.825 358.348 209.835 358.698 209.853 359.062C209.881 359.417 209.923 359.729 209.979 360H209.209L208.929 358.894H208.859C208.645 359.258 208.355 359.561 207.991 359.804C207.627 360.047 207.165 360.168 206.605 360.168C206.232 360.168 205.901 360.121 205.611 360.028C205.331 359.944 205.093 359.79 204.897 359.566C204.711 359.342 204.566 359.043 204.463 358.67C204.37 358.287 204.323 357.807 204.323 357.228V353H205.443ZM221.735 352.44C221.735 352.673 221.697 352.911 221.623 353.154C221.548 353.397 221.436 353.625 221.287 353.84C221.137 354.045 220.946 354.227 220.713 354.386C220.479 354.545 220.204 354.666 219.887 354.75V354.806C220.167 354.853 220.433 354.932 220.685 355.044C220.946 355.156 221.175 355.31 221.371 355.506C221.567 355.702 221.725 355.94 221.847 356.22C221.968 356.5 222.029 356.831 222.029 357.214C222.029 357.718 221.921 358.157 221.707 358.53C221.501 358.894 221.226 359.193 220.881 359.426C220.545 359.659 220.157 359.832 219.719 359.944C219.28 360.056 218.832 360.112 218.375 360.112C218.216 360.112 218.029 360.112 217.815 360.112C217.6 360.112 217.376 360.103 217.143 360.084C216.909 360.075 216.676 360.056 216.443 360.028C216.209 360.009 216.004 359.977 215.827 359.93V350.284C216.172 350.228 216.573 350.181 217.031 350.144C217.488 350.107 217.987 350.088 218.529 350.088C218.893 350.088 219.261 350.121 219.635 350.186C220.017 350.242 220.363 350.359 220.671 350.536C220.979 350.704 221.231 350.942 221.427 351.25C221.632 351.558 221.735 351.955 221.735 352.44ZM218.487 359.104C218.785 359.104 219.075 359.071 219.355 359.006C219.635 358.931 219.882 358.819 220.097 358.67C220.311 358.511 220.479 358.32 220.601 358.096C220.731 357.872 220.797 357.606 220.797 357.298C220.797 356.915 220.717 356.607 220.559 356.374C220.409 356.141 220.209 355.959 219.957 355.828C219.714 355.697 219.439 355.609 219.131 355.562C218.823 355.515 218.515 355.492 218.207 355.492H216.989V359.006C217.054 359.025 217.147 359.039 217.269 359.048C217.39 359.057 217.521 359.067 217.661 359.076C217.801 359.085 217.945 359.095 218.095 359.104C218.244 359.104 218.375 359.104 218.487 359.104ZM217.717 354.512C217.875 354.512 218.067 354.507 218.291 354.498C218.515 354.489 218.701 354.475 218.851 354.456C219.075 354.381 219.285 354.293 219.481 354.19C219.677 354.078 219.849 353.952 219.999 353.812C220.157 353.663 220.279 353.495 220.363 353.308C220.456 353.112 220.503 352.902 220.503 352.678C220.503 352.37 220.442 352.118 220.321 351.922C220.209 351.717 220.055 351.553 219.859 351.432C219.663 351.311 219.439 351.227 219.187 351.18C218.935 351.124 218.678 351.096 218.417 351.096C218.109 351.096 217.824 351.105 217.563 351.124C217.311 351.133 217.119 351.152 216.989 351.18V354.512H217.717ZM229.001 359.44C228.721 359.664 228.366 359.841 227.937 359.972C227.517 360.103 227.069 360.168 226.593 360.168C226.061 360.168 225.599 360.084 225.207 359.916C224.815 359.739 224.493 359.491 224.241 359.174C223.989 358.847 223.802 358.46 223.681 358.012C223.559 357.564 223.499 357.06 223.499 356.5C223.499 355.305 223.765 354.395 224.297 353.77C224.829 353.145 225.589 352.832 226.579 352.832C226.896 352.832 227.213 352.869 227.531 352.944C227.848 353.009 228.133 353.14 228.385 353.336C228.637 353.532 228.842 353.812 229.001 354.176C229.159 354.531 229.239 355.002 229.239 355.59C229.239 355.898 229.211 356.239 229.155 356.612H224.66C224.66 357.023 224.703 357.387 224.787 357.704C224.871 358.021 225.001 358.292 225.179 358.516C225.356 358.731 225.585 358.899 225.865 359.02C226.154 359.132 226.504 359.188 226.915 359.188C227.232 359.188 227.549 359.132 227.867 359.02C228.184 358.908 228.422 358.777 228.581 358.628L229.001 359.44ZM226.593 353.812C226.042 353.812 225.599 353.957 225.263 354.246C224.936 354.535 224.74 355.03 224.675 355.73H228.147C228.147 355.021 228.011 354.526 227.741 354.246C227.47 353.957 227.087 353.812 226.593 353.812ZM230.076 353H231.168V351.614L232.288 351.292V353H234.192V353.98H232.288V357.858C232.288 358.343 232.349 358.689 232.47 358.894C232.591 359.09 232.797 359.188 233.086 359.188C233.329 359.188 233.534 359.165 233.702 359.118C233.87 359.062 234.057 358.992 234.262 358.908L234.514 359.762C234.262 359.883 233.987 359.981 233.688 360.056C233.389 360.131 233.067 360.168 232.722 360.168C232.153 360.168 231.751 360.009 231.518 359.692C231.285 359.365 231.168 358.824 231.168 358.068V353.98H230.076V353ZM235.632 353.518C235.987 353.303 236.397 353.145 236.864 353.042C237.34 352.939 237.835 352.888 238.348 352.888C238.833 352.888 239.221 352.953 239.51 353.084C239.809 353.215 240.033 353.387 240.182 353.602C240.341 353.807 240.443 354.036 240.49 354.288C240.546 354.54 240.574 354.792 240.574 355.044C240.574 355.604 240.56 356.15 240.532 356.682C240.504 357.214 240.49 357.718 240.49 358.194C240.49 358.539 240.504 358.866 240.532 359.174C240.56 359.482 240.611 359.767 240.686 360.028H239.86L239.566 359.048H239.496C239.412 359.179 239.305 359.309 239.174 359.44C239.053 359.561 238.903 359.673 238.726 359.776C238.549 359.869 238.343 359.949 238.11 360.014C237.877 360.079 237.611 360.112 237.312 360.112C237.013 360.112 236.733 360.065 236.472 359.972C236.22 359.879 236.001 359.748 235.814 359.58C235.627 359.403 235.478 359.193 235.366 358.95C235.263 358.707 235.212 358.432 235.212 358.124C235.212 357.713 235.296 357.373 235.464 357.102C235.632 356.822 235.865 356.603 236.164 356.444C236.472 356.276 236.836 356.159 237.256 356.094C237.685 356.019 238.157 355.982 238.67 355.982C238.801 355.982 238.927 355.982 239.048 355.982C239.179 355.982 239.309 355.991 239.44 356.01C239.468 355.73 239.482 355.478 239.482 355.254C239.482 354.741 239.379 354.381 239.174 354.176C238.969 353.971 238.595 353.868 238.054 353.868C237.895 353.868 237.723 353.882 237.536 353.91C237.359 353.929 237.172 353.961 236.976 354.008C236.789 354.045 236.607 354.097 236.43 354.162C236.262 354.218 236.113 354.283 235.982 354.358L235.632 353.518ZM237.62 359.132C237.881 359.132 238.115 359.099 238.32 359.034C238.525 358.959 238.703 358.871 238.852 358.768C239.001 358.656 239.123 358.535 239.216 358.404C239.319 358.273 239.393 358.147 239.44 358.026V356.864C239.309 356.855 239.174 356.85 239.034 356.85C238.903 356.841 238.773 356.836 238.642 356.836C238.353 356.836 238.068 356.855 237.788 356.892C237.517 356.92 237.275 356.981 237.06 357.074C236.855 357.158 236.687 357.279 236.556 357.438C236.435 357.587 236.374 357.779 236.374 358.012C236.374 358.339 236.491 358.609 236.724 358.824C236.957 359.029 237.256 359.132 237.62 359.132ZM246.534 350.298C246.888 350.214 247.271 350.158 247.682 350.13C248.092 350.102 248.498 350.088 248.9 350.088C249.329 350.088 249.763 350.13 250.202 350.214C250.65 350.298 251.056 350.452 251.42 350.676C251.784 350.9 252.078 351.208 252.302 351.6C252.535 351.992 252.652 352.491 252.652 353.098C252.652 353.695 252.544 354.199 252.33 354.61C252.115 355.021 251.83 355.357 251.476 355.618C251.121 355.87 250.715 356.052 250.258 356.164C249.8 356.276 249.329 356.332 248.844 356.332C248.797 356.332 248.718 356.332 248.606 356.332C248.503 356.332 248.391 356.332 248.27 356.332C248.158 356.323 248.046 356.313 247.934 356.304C247.822 356.295 247.742 356.285 247.696 356.276V360H246.534V350.298ZM248.928 351.096C248.685 351.096 248.452 351.101 248.228 351.11C248.004 351.119 247.826 351.143 247.696 351.18V355.24C247.742 355.259 247.817 355.273 247.92 355.282C248.022 355.282 248.13 355.287 248.242 355.296C248.354 355.296 248.461 355.296 248.564 355.296C248.666 355.296 248.741 355.296 248.788 355.296C249.105 355.296 249.418 355.268 249.726 355.212C250.043 355.147 250.328 355.035 250.58 354.876C250.832 354.717 251.032 354.493 251.182 354.204C251.34 353.915 251.42 353.546 251.42 353.098C251.42 352.715 251.345 352.398 251.196 352.146C251.056 351.885 250.864 351.679 250.622 351.53C250.388 351.371 250.122 351.259 249.824 351.194C249.525 351.129 249.226 351.096 248.928 351.096ZM254.48 353H255.6V360H254.48V353ZM254.242 350.872C254.242 350.657 254.312 350.475 254.452 350.326C254.601 350.167 254.788 350.088 255.012 350.088C255.236 350.088 255.427 350.167 255.586 350.326C255.745 350.475 255.824 350.657 255.824 350.872C255.824 351.087 255.745 351.264 255.586 351.404C255.427 351.544 255.236 351.614 255.012 351.614C254.788 351.614 254.601 351.544 254.452 351.404C254.312 351.264 254.242 351.087 254.242 350.872ZM257.596 359.398C257.596 359.174 257.671 358.992 257.82 358.852C257.969 358.712 258.161 358.642 258.394 358.642C258.683 358.642 258.917 358.745 259.094 358.95C259.281 359.155 259.374 359.454 259.374 359.846C259.374 360.182 259.327 360.476 259.234 360.728C259.141 360.98 259.019 361.195 258.87 361.372C258.721 361.559 258.557 361.708 258.38 361.82C258.203 361.941 258.025 362.03 257.848 362.086L257.498 361.54C257.834 361.409 258.081 361.204 258.24 360.924C258.408 360.653 258.492 360.378 258.492 360.098C258.408 360.126 258.329 360.14 258.254 360.14C258.067 360.14 257.909 360.079 257.778 359.958C257.657 359.827 257.596 359.641 257.596 359.398ZM263.659 353.518C264.014 353.303 264.425 353.145 264.891 353.042C265.367 352.939 265.862 352.888 266.375 352.888C266.861 352.888 267.248 352.953 267.537 353.084C267.836 353.215 268.06 353.387 268.209 353.602C268.368 353.807 268.471 354.036 268.517 354.288C268.573 354.54 268.601 354.792 268.601 355.044C268.601 355.604 268.587 356.15 268.559 356.682C268.531 357.214 268.517 357.718 268.517 358.194C268.517 358.539 268.531 358.866 268.559 359.174C268.587 359.482 268.639 359.767 268.713 360.028H267.887L267.593 359.048H267.523C267.439 359.179 267.332 359.309 267.201 359.44C267.08 359.561 266.931 359.673 266.753 359.776C266.576 359.869 266.371 359.949 266.137 360.014C265.904 360.079 265.638 360.112 265.339 360.112C265.041 360.112 264.761 360.065 264.499 359.972C264.247 359.879 264.028 359.748 263.841 359.58C263.655 359.403 263.505 359.193 263.393 358.95C263.291 358.707 263.239 358.432 263.239 358.124C263.239 357.713 263.323 357.373 263.491 357.102C263.659 356.822 263.893 356.603 264.191 356.444C264.499 356.276 264.863 356.159 265.283 356.094C265.713 356.019 266.184 355.982 266.697 355.982C266.828 355.982 266.954 355.982 267.075 355.982C267.206 355.982 267.337 355.991 267.467 356.01C267.495 355.73 267.509 355.478 267.509 355.254C267.509 354.741 267.407 354.381 267.201 354.176C266.996 353.971 266.623 353.868 266.081 353.868C265.923 353.868 265.75 353.882 265.563 353.91C265.386 353.929 265.199 353.961 265.003 354.008C264.817 354.045 264.635 354.097 264.457 354.162C264.289 354.218 264.14 354.283 264.009 354.358L263.659 353.518ZM265.647 359.132C265.909 359.132 266.142 359.099 266.347 359.034C266.553 358.959 266.73 358.871 266.879 358.768C267.029 358.656 267.15 358.535 267.243 358.404C267.346 358.273 267.421 358.147 267.467 358.026V356.864C267.337 356.855 267.201 356.85 267.061 356.85C266.931 356.841 266.8 356.836 266.669 356.836C266.38 356.836 266.095 356.855 265.815 356.892C265.545 356.92 265.302 356.981 265.087 357.074C264.882 357.158 264.714 357.279 264.583 357.438C264.462 357.587 264.401 357.779 264.401 358.012C264.401 358.339 264.518 358.609 264.751 358.824C264.985 359.029 265.283 359.132 265.647 359.132ZM275.211 360V356.01C275.211 355.282 275.103 354.736 274.889 354.372C274.683 353.999 274.301 353.812 273.741 353.812C273.246 353.812 272.835 353.947 272.509 354.218C272.191 354.479 271.967 354.811 271.837 355.212V360H270.717V353H271.501L271.711 353.854H271.767C271.991 353.555 272.289 353.313 272.663 353.126C273.045 352.93 273.498 352.832 274.021 352.832C274.403 352.832 274.739 352.879 275.029 352.972C275.318 353.056 275.556 353.21 275.743 353.434C275.939 353.658 276.083 353.961 276.177 354.344C276.279 354.717 276.331 355.193 276.331 355.772V360H275.211ZM283.749 357.592C283.749 358.068 283.754 358.502 283.763 358.894C283.772 359.277 283.814 359.655 283.889 360.028H283.133L282.853 359.034H282.797C282.61 359.361 282.34 359.631 281.985 359.846C281.63 360.061 281.215 360.168 280.739 360.168C279.806 360.168 279.11 359.874 278.653 359.286C278.205 358.698 277.981 357.779 277.981 356.528C277.981 355.333 278.261 354.428 278.821 353.812C279.39 353.187 280.17 352.874 281.159 352.874C281.504 352.874 281.775 352.893 281.971 352.93C282.176 352.967 282.396 353.028 282.629 353.112V350.2H283.749V357.592ZM280.921 359.188C281.397 359.188 281.775 359.067 282.055 358.824C282.335 358.572 282.526 358.194 282.629 357.69V354.218C282.461 354.087 282.27 353.994 282.055 353.938C281.84 353.882 281.556 353.854 281.201 353.854C280.557 353.854 280.053 354.069 279.689 354.498C279.325 354.918 279.143 355.595 279.143 356.528C279.143 356.911 279.171 357.265 279.227 357.592C279.292 357.919 279.395 358.199 279.535 358.432C279.675 358.665 279.857 358.852 280.081 358.992C280.314 359.123 280.594 359.188 280.921 359.188ZM290.017 350.2H291.179V360H290.017V350.2ZM293.825 350.2H299.159V351.236H294.987V354.442H298.809V355.478H294.987V358.964H299.229V360H293.825V350.2ZM301.331 350.2H306.665V351.236H302.493V354.442H306.315V355.478H302.493V358.964H306.735V360H301.331V350.2ZM308.836 350.2H314.17V351.236H309.998V354.442H313.82V355.478H309.998V358.964H314.24V360H308.836V350.2Z" fill="white"/>
</g>
</g>
<defs>
<filter id="filter0_d" x="0" y="0" width="376" height="447" filterUnits="userSpaceOnUse" color-interpolation-filters="sRGB">
<feFlood flood-opacity="0" result="BackgroundImageFix"/>
<feColorMatrix in="SourceAlpha" type="matrix" values="0 0 0 0 0 0 0 0 0 0 0 0 0 0 0 0 0 0 127 0"/>
<feOffset dy="10"/>
<feGaussianBlur stdDeviation="15"/>
<feColorMatrix type="matrix" values="0 0 0 0 0 0 0 0 0 0 0 0 0 0 0 0 0 0 0.1 0"/>
<feBlend mode="normal" in2="BackgroundImageFix" result="effect1_dropShadow"/>
<feBlend mode="normal" in="SourceGraphic" in2="effect1_dropShadow" result="shape"/>
</filter>
<filter id="filter1_d" x="0" y="0" width="376" height="447" filterUnits="userSpaceOnUse" color-interpolation-filters="sRGB">
<feFlood flood-opacity="0" result="BackgroundImageFix"/>
<feColorMatrix in="SourceAlpha" type="matrix" values="0 0 0 0 0 0 0 0 0 0 0 0 0 0 0 0 0 0 127 0"/>
<feOffset dy="10"/>
<feGaussianBlur stdDeviation="15"/>
<feColorMatrix type="matrix" values="0 0 0 0 0 0 0 0 0 0 0 0 0 0 0 0 0 0 0.1 0"/>
<feBlend mode="normal" in2="BackgroundImageFix" result="effect1_dropShadow"/>
<feBlend mode="normal" in="SourceGraphic" in2="effect1_dropShadow" result="shape"/>
</filter>
<linearGradient id="paint0_linear" x1="30" y1="407" x2="436.468" y2="187.613" gradientUnits="userSpaceOnUse">
<stop stop-color="#2F5F8E"/>
<stop offset="0.994832" stop-color="#3399FF"/>
</linearGradient>
</defs>
</svg>
