<?xml version="1.0" encoding="utf-8"?>
<!-- Generator: Adobe Illustrator 22.1.0, SVG Export Plug-In . SVG Version: 6.00 Build 0)  -->
<svg version="1.1" id="Layer_1" xmlns="http://www.w3.org/2000/svg" xmlns:xlink="http://www.w3.org/1999/xlink" x="0px" y="0px"
	 viewBox="0 0 24 24" style="enable-background:new 0 0 24 24;" xml:space="preserve">
<style type="text/css">
	.st0{fill:#10436B;}
</style>
<g>
	<path class="st0" d="M12,8.9c-0.9,0-1.6,0.3-2.2,0.9S8.9,11.1,8.9,12c0,0.9,0.3,1.6,0.9,2.2c0.6,0.6,1.4,0.9,2.2,0.9
		c0.9,0,1.6-0.3,2.2-0.9c0.6-0.6,0.9-1.4,0.9-2.2c0-0.9-0.3-1.6-0.9-2.2S12.9,8.9,12,8.9z"/>
	<path class="st0" d="M19.7,9.8c0-0.3,0-0.7,0-1.2c0-0.5-0.1-0.9-0.1-1.3c-0.1-0.3-0.1-0.6-0.2-0.9c-0.2-0.4-0.4-0.8-0.7-1.1
		c-0.3-0.3-0.7-0.5-1.1-0.7c-0.2-0.1-0.5-0.2-0.9-0.2c-0.3-0.1-0.8-0.1-1.3-0.1c-0.5,0-0.9,0-1.2,0c-0.3,0-0.7,0-1.3,0
		c-0.6,0-0.9,0-0.9,0c-0.1,0-0.4,0-0.9,0c-0.6,0-1,0-1.3,0c-0.3,0-0.7,0-1.2,0c-0.5,0-0.9,0.1-1.3,0.1C7,4.5,6.7,4.6,6.4,4.7
		C6,4.8,5.7,5.1,5.4,5.4C5.1,5.7,4.8,6,4.7,6.4C4.6,6.7,4.5,7,4.4,7.3C4.4,7.7,4.3,8.1,4.3,8.6c0,0.5,0,0.9,0,1.2c0,0.3,0,0.7,0,1.3
		c0,0.6,0,0.9,0,0.9c0,0.1,0,0.4,0,0.9c0,0.6,0,1,0,1.3c0,0.3,0,0.7,0,1.2c0,0.5,0.1,0.9,0.1,1.3c0.1,0.3,0.1,0.6,0.2,0.9
		c0.2,0.4,0.4,0.8,0.7,1.1c0.3,0.3,0.7,0.5,1.1,0.7c0.2,0.1,0.5,0.2,0.9,0.2c0.3,0.1,0.8,0.1,1.3,0.1c0.5,0,0.9,0,1.2,0
		c0.3,0,0.7,0,1.3,0c0.6,0,0.9,0,0.9,0c0.1,0,0.4,0,0.9,0c0.6,0,1,0,1.3,0c0.3,0,0.7,0,1.2,0c0.5,0,0.9-0.1,1.3-0.1
		c0.3-0.1,0.6-0.1,0.9-0.2c0.4-0.2,0.8-0.4,1.1-0.7c0.3-0.3,0.5-0.7,0.7-1.1c0.1-0.2,0.2-0.5,0.2-0.9c0.1-0.3,0.1-0.8,0.1-1.3
		c0-0.5,0-0.9,0-1.2c0-0.3,0-0.7,0-1.3c0-0.6,0-0.9,0-0.9c0-0.1,0-0.4,0-0.9C19.7,10.5,19.7,10.1,19.7,9.8z M15.4,15.4
		c-0.9,0.9-2.1,1.4-3.4,1.4c-1.3,0-2.5-0.5-3.4-1.4c-0.9-0.9-1.4-2.1-1.4-3.4c0-1.3,0.5-2.5,1.4-3.4c0.9-0.9,2.1-1.4,3.4-1.4
		c1.3,0,2.5,0.5,3.4,1.4c0.9,0.9,1.4,2.1,1.4,3.4C16.8,13.3,16.4,14.5,15.4,15.4z M17.8,7.8C17.6,8,17.3,8.1,17,8.1
		c-0.3,0-0.6-0.1-0.8-0.3C16,7.5,15.9,7.3,15.9,7c0-0.3,0.1-0.6,0.3-0.8C16.5,6,16.7,5.8,17,5.8c0.3,0,0.6,0.1,0.8,0.3
		C18,6.4,18.2,6.7,18.2,7C18.2,7.3,18,7.5,17.8,7.8z"/>
	<path class="st0" d="M22.7,1.3C21.8,0.4,20.7,0,19.5,0h-15C3.3,0,2.2,0.4,1.3,1.3C0.4,2.2,0,3.3,0,4.5v15c0,1.2,0.4,2.3,1.3,3.2
		C2.2,23.6,3.3,24,4.5,24h15c1.2,0,2.3-0.4,3.2-1.3c0.9-0.9,1.3-1.9,1.3-3.2v-15C24,3.3,23.6,2.2,22.7,1.3z M21.4,15.9
		c-0.1,1.7-0.6,3-1.5,3.9c-0.9,0.9-2.2,1.4-3.9,1.5c-0.7,0-2,0.1-3.9,0.1c-1.9,0-3.2,0-3.9-0.1c-1.7-0.1-3-0.6-3.9-1.5
		c-0.9-0.9-1.4-2.2-1.5-3.9c0-0.7-0.1-2-0.1-3.9c0-1.9,0-3.2,0.1-3.9c0.1-1.7,0.6-3,1.5-3.9c0.9-0.9,2.2-1.4,3.9-1.5
		c0.7,0,2-0.1,3.9-0.1c1.9,0,3.2,0,3.9,0.1c1.7,0.1,3,0.6,3.9,1.5c0.9,0.9,1.4,2.2,1.5,3.9c0,0.7,0.1,2,0.1,3.9
		C21.4,13.9,21.4,15.2,21.4,15.9z"/>
</g>
</svg>
