<svg width="317" height="394" viewBox="0 0 317 394" fill="none" xmlns="http://www.w3.org/2000/svg">
<g clip-path="url(#clip0)">
<path d="M39 394H279C300 394 317 377 317 356V45C317 24 300 7 279 7H39C18 7 1 24 1 45V356C1 377 18 394 39 394Z" fill="#252026"/>
<path d="M160.999 100.648L160.999 69.8869L193.098 100.648L160.999 100.648Z" fill="#73C78B"/>
<path d="M226.761 38.8761L226.761 68.6114L194.662 38.8761L226.761 38.8761Z" fill="#73C78B"/>
<path d="M194.662 69.6368H227.831L194.662 101.423L194.662 69.6368Z" fill="#28534A"/>
<path d="M129.394 69.6368H162.563L129.394 101.423L129.394 69.6368Z" fill="#28534A"/>
<path d="M227.831 7.08997L261 7.08997L227.831 38.8761L227.831 7.08997Z" fill="#28534A"/>
<path d="M129.394 38.8761L129.394 8.11533L161.493 38.8761L129.394 38.8761Z" fill="#28534A"/>
<path d="M33.096 252.15L33.096 282.911L0.99688 252.15L33.096 252.15Z" fill="#73C78B"/>
<path d="M33.096 252.15H65.1952L33.096 282.911L33.096 252.15Z" fill="#28534A"/>
<path d="M193.592 38.8761L193.592 7.08997L225.691 38.8761L193.592 38.8761Z" fill="#28534A"/>
<path d="M161.493 38.8761H193.592L161.493 69.6368L161.493 38.8761Z" fill="#73C78B"/>
<path d="M193.592 191.654L161.493 191.654L193.592 160.894L193.592 191.654Z" fill="#28534A"/>
<path d="M160.999 130.02L160.999 99.2596L193.098 130.02L160.999 130.02Z" fill="#28534A"/>
<path d="M129.394 38.8761H161.493L129.394 69.6368L129.394 38.8761Z" fill="#73C78B"/>
<path d="M65.1952 252.15H98.3643L65.1952 282.911L65.1952 252.15Z" fill="#28534A"/>
<path d="M129.394 222.415L97.2944 222.415L129.394 190.629L129.394 222.415Z" fill="#28534A"/>
<path d="M161.493 222.415L129.394 222.415L161.493 190.629L161.493 222.415Z" fill="#28534A"/>
<path d="M161.493 253.176L129.394 253.176L161.493 222.415L161.493 253.176Z" fill="#28534A"/>
<path d="M129.394 130.133H160.423L129.394 159.868L129.394 130.133Z" fill="#73C78B"/>
<path d="M129.394 130.133L129.394 99.3722L161.493 130.133L129.394 130.133Z" fill="#28534A"/>
<path d="M65.0964 252.576L65.0964 221.815L32.9973 252.576L65.0964 252.576Z" fill="#28534A"/>
<path d="M0.996887 253.176L0.996888 222.415L33.096 253.176L0.996887 253.176Z" fill="#73C78B"/>
<path d="M64.1252 191.654H97.2943L64.1252 223.44L64.1252 191.654Z" fill="#73C78B"/>
<path d="M97.2943 222.415L97.2943 253.176L64.1252 222.415L97.2943 222.415Z" fill="#28534A"/>
<path d="M129.394 222.415L129.394 253.176L97.2944 222.415L129.394 222.415Z" fill="#73C78B"/>
<path d="M129.394 252.15L129.394 282.911L97.2944 252.15L129.394 252.15Z" fill="#73C78B"/>
<path d="M161.493 253.176L161.493 283.937L129.394 253.176L161.493 253.176Z" fill="#73C78B"/>
<path d="M129.394 222.415L97.2944 222.415L129.394 190.629L129.394 222.415Z" fill="#28534A"/>
<path d="M97.2944 222.415L64.1253 222.415L97.2944 190.629L97.2944 222.415Z" fill="#28534A"/>
<path d="M97.2943 191.654H129.394L97.2943 223.44L97.2943 191.654Z" fill="#73C78B"/>
<path d="M97.2943 253.176L97.2943 222.415L129.394 253.176L97.2943 253.176Z" fill="#28534A"/>
<path d="M64.9976 252.576L64.9976 221.815L98.1667 252.576L64.9976 252.576Z" fill="#73C78B"/>
<path d="M64.1252 68.6115H97.2943L64.1252 100.398L64.1252 68.6115Z" fill="#28534A"/>
<path d="M97.2943 100.398L97.2943 131.158L64.1252 100.398L97.2943 100.398Z" fill="#73C78B"/>
<path d="M129.394 100.398L129.394 131.158L97.2944 100.398L129.394 100.398Z" fill="#73C78B"/>
<path d="M193.592 191.654L193.592 223.44L161.493 191.654L193.592 191.654Z" fill="#73C78B"/>
<path d="M193.592 7.08997L193.592 38.8761L161.493 7.08996L193.592 7.08997Z" fill="#73C78B"/>
<path d="M161.493 159.868L161.493 189.604L129.394 159.868L161.493 159.868Z" fill="#73C78B"/>
<path d="M129.394 100.398L97.2944 100.398L129.394 68.6115L129.394 100.398Z" fill="#28534A"/>
<path d="M97.2944 100.398L64.1253 100.398L97.2944 68.6115L97.2944 100.398Z" fill="#73C78B"/>
<path d="M97.2943 68.6115H129.394L97.2943 100.398L97.2943 68.6115Z" fill="#73C78B"/>
<path d="M97.2943 131.158L97.2943 100.398L129.394 131.158L97.2943 131.158Z" fill="#28534A"/>
<path d="M161.493 284.962L161.493 254.201L193.592 284.962L161.493 284.962Z" fill="#28534A"/>
<path d="M63.9977 131.033L63.9977 100.272L97.1668 131.033L80.5822 131.033L63.9977 131.033Z" fill="#28534A"/>
<path d="M0.996887 131.158H33.096L0.996887 161.919L0.996887 131.158Z" fill="#73C78B"/>
<path d="M65.0264 131.033L65.0264 100.272L33.9972 131.033L65.0264 131.033Z" fill="#73C78B"/>
<path d="M0.996887 131.158L0.996888 100.398L33.096 131.158L0.996887 131.158Z" fill="#28534A"/>
<path d="M97.2943 7.08997L97.2943 37.8507L64.1252 7.08996L97.2943 7.08997Z" fill="#73C78B"/>
<path d="M97.2943 7.08997L129.393 7.08997L97.2943 37.8507L97.2943 7.08997Z" fill="#28534A"/>
<path d="M129.394 68.6115L129.394 37.8507L97.2944 68.6115L129.394 68.6115Z" fill="#28534A"/>
<path d="M33.096 38.8761L33.096 69.6368L0.99688 38.8761L33.096 38.8761Z" fill="#73C78B"/>
<path d="M64.1252 37.8507L64.1252 68.6114L32.026 37.8507L64.1252 37.8507Z" fill="#28534A"/>
<path d="M64.1252 38.8761L32.0261 38.8761L64.1252 8.11532L64.1252 38.8761Z" fill="#28534A"/>
<path d="M33.096 69.6368L33.096 101.423L0.996875 69.6368L33.096 69.6368Z" fill="#73C78B"/>
<path d="M33.096 68.6115H65.1952L33.096 100.398L33.096 68.6115Z" fill="#28534A"/>
<path d="M33.096 38.8761L0.996856 38.8761L33.096 8.11532L33.096 38.8761Z" fill="#28534A"/>
<path d="M32.9973 7.08997L64.9976 7.08997L32.9973 37.4756L32.9973 7.08997Z" fill="#73C78B"/>
<path d="M33.096 69.6368L33.096 38.876L65.1952 69.6368L33.096 69.6368Z" fill="#73C78B"/>
<path d="M0.996887 69.6368L0.996888 38.876L33.096 69.6368L0.996887 69.6368Z" fill="#28534A"/>
<path d="M64.1252 68.6115L64.1252 37.8507L97.2943 68.6115L64.1252 68.6115Z" fill="#73C78B"/>
<path d="M98.1668 130.658L98.1668 161.419L64.9977 130.658L98.1668 130.658Z" fill="#73C78B"/>
<path d="M97.2943 131.158H128.324L97.2943 160.894L97.2943 131.158Z" fill="#28534A"/>
<path d="M129.394 191.654L129.394 160.894L97.2944 191.654L129.394 191.654Z" fill="#28534A"/>
<path d="M33.096 160.894L33.096 191.654L0.99688 160.894L33.096 160.894Z" fill="#28534A"/>
<path d="M65.1952 160.894L65.1952 191.654L33.096 160.894L65.1952 160.894Z" fill="#73C78B"/>
<path d="M65.1952 160.894L33.0961 160.894L65.1952 130.133L65.1952 160.894Z" fill="#28534A"/>
<path d="M33.096 191.654L33.096 223.44L0.996875 191.654L33.096 191.654Z" fill="#28534A"/>
<path d="M33.096 191.654H65.1952L33.096 223.44L33.096 191.654Z" fill="#73C78B"/>
<path d="M33.096 160.894L0.996856 160.894L33.096 130.133L33.096 160.894Z" fill="#28534A"/>
<path d="M32.9973 130.658H65.0964L32.9973 161.419L32.9973 130.658Z" fill="#73C78B"/>
<path d="M33.096 191.654L33.096 160.894L65.1952 191.654L33.096 191.654Z" fill="#28534A"/>
<path d="M0.996887 191.654L0.996888 160.894L33.096 191.654L0.996887 191.654Z" fill="#73C78B"/>
<path d="M161.493 254.201L161.493 223.44L193.592 254.201L161.493 254.201Z" fill="#73C78B"/>
<path d="M193.592 284.962L193.592 254.201L225.691 284.962L193.592 284.962Z" fill="#73C78B"/>
<path d="M64.1252 191.654L64.1252 160.894L97.2943 191.654L64.1252 191.654Z" fill="#73C78B"/>
<path d="M129 37.982C129 42.0388 128.159 46.0559 126.526 49.8039C124.893 53.5519 122.499 56.9574 119.481 59.826C116.463 62.6945 112.88 64.97 108.937 66.5225C104.994 68.075 100.768 68.874 96.5 68.874C92.232 68.874 88.0059 68.075 84.0628 66.5225C80.1197 64.97 76.5369 62.6945 73.519 59.826C70.5011 56.9574 68.1072 53.5519 66.4739 49.8039C64.8406 46.0559 64 42.0388 64 37.982L96.5 37.982H129Z" fill="#252026"/>
<path d="M128.778 38.6707L96.8333 38.6707L128.778 8.05789L128.778 38.6707Z" fill="#252026"/>
<path d="M64.8889 99.8965C64.8889 103.917 64.0626 107.897 62.4573 111.612C60.8519 115.326 58.4989 118.7 55.5326 121.543C52.5663 124.386 49.0447 126.641 45.1691 128.179C41.2934 129.717 37.1394 130.509 32.9444 130.509C28.7494 130.509 24.5955 129.717 20.7198 128.179C16.8442 126.641 13.3226 124.386 10.3563 121.543C7.38999 118.7 5.03698 115.326 3.43163 111.612C1.82627 107.897 1 103.917 1 99.8965L32.9444 99.8965H64.8889Z" fill="#252026"/>
<path d="M64.8889 99.8965L32.9445 99.8965L64.8889 69.2836L64.8889 99.8965Z" fill="#252026"/>
<path d="M1 99.8965L1 69.2836L32.9444 99.8965L1 99.8965Z" fill="#252026"/>
<path d="M128.778 161.122C128.778 165.142 127.952 169.123 126.346 172.837C124.741 176.551 122.388 179.926 119.422 182.769C116.455 185.611 112.934 187.866 109.058 189.405C105.182 190.943 101.028 191.735 96.8334 191.735C92.6384 191.735 88.4844 190.943 84.6088 189.405C80.7331 187.866 77.2115 185.611 74.2452 182.769C71.2789 179.926 68.9259 176.551 67.3205 172.837C65.7152 169.123 64.8889 165.142 64.8889 161.122L96.8334 161.122H128.778Z" fill="#252026"/>
<path d="M128.778 161.122L96.8333 161.122L128.778 130.509L128.778 161.122Z" fill="#252026"/>
<path d="M64.8889 161.122L64.8889 130.509L96.8334 161.122L64.8889 161.122Z" fill="#252026"/>
<path d="M64.8889 222.348C64.8889 226.368 64.0626 230.349 62.4573 234.063C60.8519 237.777 58.4989 241.152 55.5326 243.994C52.5663 246.837 49.0447 249.092 45.1691 250.631C41.2934 252.169 37.1394 252.961 32.9444 252.961C28.7494 252.961 24.5955 252.169 20.7198 250.631C16.8442 249.092 13.3226 246.837 10.3563 243.994C7.38999 241.152 5.03698 237.777 3.43163 234.063C1.82627 230.349 1 226.368 1 222.348L32.9444 222.348H64.8889Z" fill="#252026"/>
<path d="M64.8889 222.348L32.9445 222.348L64.8889 191.735L64.8889 222.348Z" fill="#252026"/>
<path d="M1 222.348L1 191.735L32.9444 222.348L1 222.348Z" fill="#252026"/>
<path fill-rule="evenodd" clip-rule="evenodd" d="M316.703 187.511L316.703 187.215L347.251 205.215L316.962 223.107L316.962 223.392L286.423 205.41L316.703 187.511Z" fill="#73D3A6"/>
<path fill-rule="evenodd" clip-rule="evenodd" d="M316.735 223.303L316.735 223.295L347.267 205.195L338.411 317.671L317.061 348.357L317.062 348.861L316.886 348.609L316.816 348.71L316.816 348.508L295.427 317.853L286.425 205.389L316.735 223.303Z" fill="#4EA47B"/>
<path fill-rule="evenodd" clip-rule="evenodd" d="M317.183 125.582L332.248 112.718L332.501 158.124L317.225 203.717L317.225 203.631L301.898 158.084L301.869 112.751L317.183 125.527L317.183 125.582Z" fill="#4EA47B" fill-opacity="0.75"/>
<path fill-rule="evenodd" clip-rule="evenodd" d="M317.167 101.879L317.194 99.8551L332.138 112.881L317.182 125.58L317.182 125.723L317.098 125.652L316.841 125.869L316.847 125.439L301.869 112.756L317.165 99.7673L317.167 101.879Z" fill="#79E5B2"/>
<path fill-rule="evenodd" clip-rule="evenodd" d="M226.445 310.311L229.697 297.423L215.365 317.309L226.445 310.311Z" fill="#4EA47B"/>
<path fill-rule="evenodd" clip-rule="evenodd" d="M259.302 255.429L287.996 226.476L287.628 221.245L242.164 255.442L259.302 255.429Z" fill="#79E5B2"/>
<path fill-rule="evenodd" clip-rule="evenodd" d="M241.97 255.393L259.305 255.383L222.809 307.256L241.97 255.393Z" fill="#73D3A6"/>
<path fill-rule="evenodd" clip-rule="evenodd" d="M302.287 196.159L246.637 142.141L251.199 157.573L298.068 198.845L302.287 196.159Z" fill="#79E5B2"/>
<path fill-rule="evenodd" clip-rule="evenodd" d="M246.827 142.14L220.604 185.513L251.238 157.619L246.827 142.14Z" fill="#73D3A6"/>
<path fill-rule="evenodd" clip-rule="evenodd" d="M229.792 176.634L220.609 190.089L220.606 185.326L229.792 176.634Z" fill="#79E5B2"/>
<path fill-rule="evenodd" clip-rule="evenodd" d="M220.768 190.099L200.479 185.215L220.765 185.201" fill="#4EA47B"/>
<path fill-rule="evenodd" clip-rule="evenodd" d="M316.802 62.6646L316.802 62.6641L316.802 62.6653L330.15 76.4655L333.647 91.1331L316.829 105.154L316.829 105.19L299.974 91.1772L303.453 76.5045L316.783 62.6845L316.783 62.6447L316.802 62.6646Z" fill="#73D3A6" fill-opacity="0.81"/>
<path fill-rule="evenodd" clip-rule="evenodd" d="M299.677 77.9792L309.157 74.0902L306.656 96.3799L296.468 88.9175L299.677 77.9792Z" fill="#C7FCD7"/>
<path fill-rule="evenodd" clip-rule="evenodd" d="M286.012 22.7467L311.912 77.4326L313.619 76.5712L286.012 22.7467Z" fill="#4EA47B"/>
<path fill-rule="evenodd" clip-rule="evenodd" d="M301.882 112.819L264.117 137.074L301.889 123.97L301.882 112.819Z" fill="#79E5B2"/>
<path fill-rule="evenodd" clip-rule="evenodd" d="M264.117 137.057L273.733 130.87L268.891 82.2788L264.117 137.057Z" fill="#73D3A6"/>
<path fill-rule="evenodd" clip-rule="evenodd" d="M248.813 118.431L268.157 91.4417L268.88 82.4392L250.329 100.682L248.813 118.431Z" fill="#4EA47B"/>
<path d="M61.8 315.568V351.843H55.175V329.568C55.175 329.102 55.1833 328.602 55.2 328.068C55.2333 327.535 55.2833 326.993 55.35 326.443L44.975 346.118C44.4083 347.202 43.5333 347.743 42.35 347.743H41.3C40.7167 347.743 40.2 347.61 39.75 347.343C39.3 347.06 38.9417 346.652 38.675 346.118L28.25 326.368C28.3 326.952 28.3417 327.518 28.375 328.068C28.4083 328.602 28.425 329.102 28.425 329.568V351.843H21.8V315.568H27.5C27.8167 315.568 28.1 315.577 28.35 315.593C28.6 315.61 28.8167 315.66 29 315.743C29.2 315.81 29.375 315.927 29.525 316.093C29.6917 316.243 29.85 316.46 30 316.743L40.15 336.093C40.4667 336.677 40.7583 337.277 41.025 337.893C41.3083 338.51 41.575 339.143 41.825 339.793C42.075 339.127 42.3333 338.477 42.6 337.843C42.8833 337.21 43.1833 336.602 43.5 336.018L53.575 316.743C53.725 316.46 53.8833 316.243 54.05 316.093C54.2167 315.927 54.3917 315.81 54.575 315.743C54.775 315.66 54.9917 315.61 55.225 315.593C55.475 315.577 55.7667 315.568 56.1 315.568H61.8ZM81.2977 341.068C79.6143 341.152 78.2143 341.302 77.0977 341.518C75.981 341.718 75.0893 341.985 74.4227 342.318C73.7727 342.652 73.306 343.035 73.0227 343.468C72.756 343.885 72.6227 344.343 72.6227 344.843C72.6227 345.843 72.8977 346.552 73.4477 346.968C74.0143 347.385 74.7977 347.593 75.7977 347.593C76.9477 347.593 77.9393 347.393 78.7727 346.993C79.6227 346.577 80.4643 345.935 81.2977 345.068V341.068ZM67.2477 329.643C68.7643 328.277 70.4393 327.26 72.2727 326.593C74.106 325.91 76.0893 325.568 78.2227 325.568C79.756 325.568 81.1227 325.818 82.3227 326.318C83.5393 326.818 84.5643 327.518 85.3977 328.418C86.2477 329.302 86.8977 330.36 87.3477 331.593C87.7977 332.827 88.0227 334.177 88.0227 335.643V351.843H84.8727C84.2227 351.843 83.7227 351.752 83.3727 351.568C83.0393 351.385 82.7643 351.002 82.5477 350.418L81.9977 348.768C81.3477 349.335 80.7143 349.835 80.0977 350.268C79.4977 350.702 78.8727 351.068 78.2227 351.368C77.5727 351.652 76.8727 351.868 76.1227 352.018C75.3893 352.168 74.5643 352.243 73.6477 352.243C72.5143 352.243 71.481 352.093 70.5477 351.793C69.6143 351.493 68.806 351.052 68.1227 350.468C67.456 349.868 66.9393 349.127 66.5727 348.243C66.206 347.36 66.0227 346.343 66.0227 345.193C66.0227 344.243 66.2643 343.293 66.7477 342.343C67.231 341.393 68.056 340.535 69.2227 339.768C70.406 338.985 71.9727 338.343 73.9227 337.843C75.8893 337.327 78.3477 337.035 81.2977 336.968V335.643C81.2977 334.027 80.956 332.843 80.2727 332.093C79.5893 331.327 78.606 330.943 77.3227 330.943C76.3727 330.943 75.581 331.06 74.9477 331.293C74.3143 331.51 73.756 331.752 73.2727 332.018C72.806 332.268 72.3643 332.51 71.9477 332.743C71.531 332.96 71.0477 333.068 70.4977 333.068C70.0143 333.068 69.606 332.952 69.2727 332.718C68.956 332.468 68.6893 332.177 68.4727 331.843L67.2477 329.643ZM101.918 352.243C100.751 352.243 99.718 352.077 98.818 351.743C97.918 351.393 97.1596 350.902 96.543 350.268C95.9263 349.635 95.4596 348.868 95.143 347.968C94.8263 347.068 94.668 346.052 94.668 344.918V331.018H92.243C91.8763 331.018 91.5596 330.902 91.293 330.668C91.043 330.435 90.918 330.085 90.918 329.618V326.918L95.043 326.168L96.443 319.493C96.6263 318.743 97.1346 318.368 97.968 318.368H101.568V326.218H108.218V331.018H101.568V344.468C101.568 345.185 101.735 345.752 102.068 346.168C102.418 346.585 102.91 346.793 103.543 346.793C103.876 346.793 104.16 346.76 104.393 346.693C104.626 346.61 104.826 346.527 104.993 346.443C105.16 346.343 105.31 346.26 105.443 346.193C105.593 346.11 105.743 346.068 105.893 346.068C106.093 346.068 106.26 346.118 106.393 346.218C106.526 346.302 106.66 346.452 106.793 346.668L108.868 349.968C107.918 350.718 106.843 351.285 105.643 351.668C104.443 352.052 103.201 352.243 101.918 352.243ZM130.37 331.818C130.17 332.085 129.97 332.293 129.77 332.443C129.57 332.577 129.287 332.643 128.92 332.643C128.587 332.643 128.262 332.552 127.945 332.368C127.645 332.168 127.295 331.96 126.895 331.743C126.495 331.51 126.02 331.302 125.47 331.118C124.92 330.918 124.237 330.818 123.42 330.818C122.387 330.818 121.487 331.01 120.72 331.393C119.97 331.76 119.345 332.293 118.845 332.993C118.345 333.693 117.97 334.543 117.72 335.543C117.487 336.543 117.37 337.668 117.37 338.918C117.37 341.552 117.895 343.568 118.945 344.968C120.012 346.368 121.462 347.068 123.295 347.068C123.929 347.068 124.47 347.018 124.92 346.918C125.387 346.802 125.787 346.66 126.12 346.493C126.47 346.327 126.77 346.143 127.02 345.943C127.27 345.743 127.504 345.56 127.72 345.393C127.954 345.227 128.179 345.093 128.395 344.993C128.629 344.877 128.887 344.818 129.17 344.818C129.704 344.818 130.12 345.018 130.42 345.418L132.395 347.918C131.662 348.768 130.879 349.477 130.045 350.043C129.212 350.593 128.345 351.035 127.445 351.368C126.562 351.685 125.662 351.902 124.745 352.018C123.829 352.152 122.92 352.218 122.02 352.218C120.437 352.218 118.937 351.927 117.52 351.343C116.104 350.743 114.862 349.877 113.795 348.743C112.729 347.61 111.879 346.218 111.245 344.568C110.629 342.918 110.32 341.035 110.32 338.918C110.32 337.035 110.595 335.285 111.145 333.668C111.695 332.052 112.504 330.652 113.57 329.468C114.637 328.285 115.954 327.36 117.52 326.693C119.104 326.01 120.929 325.668 122.995 325.668C124.962 325.668 126.687 325.985 128.17 326.618C129.654 327.252 130.987 328.168 132.17 329.368L130.37 331.818ZM142.789 328.593C143.272 328.16 143.772 327.768 144.289 327.418C144.822 327.052 145.381 326.743 145.964 326.493C146.564 326.227 147.197 326.027 147.864 325.893C148.547 325.743 149.281 325.668 150.064 325.668C151.464 325.668 152.706 325.91 153.789 326.393C154.872 326.877 155.781 327.552 156.514 328.418C157.264 329.285 157.822 330.318 158.189 331.518C158.572 332.718 158.764 334.035 158.764 335.468V351.843H151.889V335.468C151.889 334.035 151.556 332.927 150.889 332.143C150.222 331.343 149.239 330.943 147.939 330.943C146.972 330.943 146.064 331.152 145.214 331.568C144.364 331.985 143.556 332.568 142.789 333.318V351.843H135.889V314.568H142.789V328.593ZM177.733 341.068C176.05 341.152 174.65 341.302 173.533 341.518C172.417 341.718 171.525 341.985 170.858 342.318C170.208 342.652 169.742 343.035 169.458 343.468C169.192 343.885 169.058 344.343 169.058 344.843C169.058 345.843 169.333 346.552 169.883 346.968C170.45 347.385 171.233 347.593 172.233 347.593C173.383 347.593 174.375 347.393 175.208 346.993C176.058 346.577 176.9 345.935 177.733 345.068V341.068ZM163.683 329.643C165.2 328.277 166.875 327.26 168.708 326.593C170.542 325.91 172.525 325.568 174.658 325.568C176.192 325.568 177.558 325.818 178.758 326.318C179.975 326.818 181 327.518 181.833 328.418C182.683 329.302 183.333 330.36 183.783 331.593C184.233 332.827 184.458 334.177 184.458 335.643V351.843H181.308C180.658 351.843 180.158 351.752 179.808 351.568C179.475 351.385 179.2 351.002 178.983 350.418L178.433 348.768C177.783 349.335 177.15 349.835 176.533 350.268C175.933 350.702 175.308 351.068 174.658 351.368C174.008 351.652 173.308 351.868 172.558 352.018C171.825 352.168 171 352.243 170.083 352.243C168.95 352.243 167.917 352.093 166.983 351.793C166.05 351.493 165.242 351.052 164.558 350.468C163.892 349.868 163.375 349.127 163.008 348.243C162.642 347.36 162.458 346.343 162.458 345.193C162.458 344.243 162.7 343.293 163.183 342.343C163.667 341.393 164.492 340.535 165.658 339.768C166.842 338.985 168.408 338.343 170.358 337.843C172.325 337.327 174.783 337.035 177.733 336.968V335.643C177.733 334.027 177.392 332.843 176.708 332.093C176.025 331.327 175.042 330.943 173.758 330.943C172.808 330.943 172.017 331.06 171.383 331.293C170.75 331.51 170.192 331.752 169.708 332.018C169.242 332.268 168.8 332.51 168.383 332.743C167.967 332.96 167.483 333.068 166.933 333.068C166.45 333.068 166.042 332.952 165.708 332.718C165.392 332.468 165.125 332.177 164.908 331.843L163.683 329.643Z" fill="white"/>
<path d="M30.253 299.265H27.285V307.728H25.178V299.265H22.21V297.571H30.253V299.265ZM40.2142 297.571V307.728H38.1002V303.353H33.6272V307.728H31.5132V297.571H33.6272V301.883H38.1002V297.571H40.2142ZM46.4993 306.048C46.84 306.048 47.1457 305.992 47.4163 305.88C47.687 305.763 47.9157 305.6 48.1023 305.39C48.289 305.18 48.4313 304.925 48.5293 304.627C48.6273 304.328 48.6763 303.992 48.6763 303.619V297.571H50.7763V303.619C50.7763 304.235 50.676 304.802 50.4753 305.32C50.2793 305.833 49.997 306.276 49.6283 306.65C49.2597 307.023 48.8117 307.315 48.2843 307.525C47.757 307.735 47.162 307.84 46.4993 307.84C45.8367 307.84 45.2393 307.735 44.7073 307.525C44.18 307.315 43.732 307.023 43.3633 306.65C42.9947 306.276 42.71 305.833 42.5093 305.32C42.3133 304.802 42.2153 304.235 42.2153 303.619V297.571H44.3153V303.619C44.3153 303.992 44.3643 304.328 44.4623 304.627C44.5603 304.925 44.7027 305.18 44.8893 305.39C45.076 305.6 45.3047 305.763 45.5753 305.88C45.846 305.992 46.154 306.048 46.4993 306.048ZM55.951 302.38C56.2917 302.38 56.5857 302.338 56.833 302.254C57.0803 302.165 57.2833 302.046 57.442 301.897C57.6007 301.743 57.7173 301.563 57.792 301.358C57.8667 301.152 57.904 300.928 57.904 300.686C57.904 300.205 57.743 299.832 57.421 299.566C57.1037 299.3 56.6183 299.167 55.965 299.167H54.873V302.38H55.951ZM60.872 307.728H58.975C58.6203 307.728 58.3637 307.592 58.205 307.322L56.273 304.207C56.1937 304.085 56.105 303.997 56.007 303.941C55.9137 303.885 55.7737 303.857 55.587 303.857H54.873V307.728H52.773V297.571H55.965C56.6743 297.571 57.281 297.645 57.785 297.795C58.289 297.939 58.702 298.142 59.024 298.404C59.346 298.665 59.5817 298.978 59.731 299.342C59.8803 299.701 59.955 300.098 59.955 300.532C59.955 300.868 59.906 301.187 59.808 301.491C59.7147 301.789 59.577 302.062 59.395 302.31C59.213 302.557 58.989 302.776 58.723 302.968C58.457 303.159 58.1537 303.313 57.813 303.43C57.9483 303.504 58.0743 303.595 58.191 303.703C58.3077 303.805 58.4127 303.929 58.506 304.074L60.872 307.728ZM67.3668 299.517C67.3014 299.624 67.2338 299.703 67.1638 299.755C67.0984 299.801 67.0121 299.825 66.9048 299.825C66.8021 299.825 66.6901 299.79 66.5688 299.72C66.4521 299.645 66.3144 299.566 66.1558 299.482C65.9971 299.398 65.8151 299.321 65.6098 299.251C65.4044 299.176 65.1641 299.139 64.8888 299.139C64.4034 299.139 64.0394 299.248 63.7968 299.468C63.5541 299.682 63.4328 299.965 63.4328 300.315C63.4328 300.539 63.4981 300.725 63.6288 300.875C63.7641 301.019 63.9391 301.145 64.1538 301.253C64.3731 301.36 64.6204 301.456 64.8958 301.54C65.1711 301.624 65.4534 301.717 65.7428 301.82C66.0321 301.918 66.3144 302.034 66.5898 302.17C66.8651 302.305 67.1101 302.475 67.3248 302.681C67.5441 302.886 67.7191 303.138 67.8498 303.437C67.9851 303.731 68.0528 304.09 68.0528 304.515C68.0528 304.977 67.9711 305.411 67.8078 305.817C67.6491 306.218 67.4181 306.57 67.1148 306.874C66.8114 307.172 66.4358 307.408 65.9878 307.581C65.5444 307.753 65.0404 307.84 64.4758 307.84C64.1538 307.84 63.8318 307.807 63.5098 307.742C63.1924 307.676 62.8844 307.585 62.5858 307.469C62.2918 307.352 62.0141 307.212 61.7528 307.049C61.4914 306.885 61.2628 306.703 61.0668 306.503L61.6828 305.509C61.7341 305.434 61.8018 305.373 61.8858 305.327C61.9698 305.275 62.0584 305.25 62.1518 305.25C62.2778 305.25 62.4108 305.296 62.5508 305.39C62.6908 305.483 62.8518 305.586 63.0338 305.698C63.2158 305.81 63.4258 305.912 63.6638 306.006C63.9064 306.099 64.1958 306.146 64.5318 306.146C65.0218 306.146 65.3998 306.034 65.6658 305.81C65.9364 305.586 66.0718 305.252 66.0718 304.809C66.0718 304.552 66.0041 304.344 65.8688 304.186C65.7381 304.027 65.5654 303.894 65.3508 303.787C65.1361 303.679 64.8911 303.588 64.6158 303.514C64.3404 303.434 64.0581 303.348 63.7688 303.255C63.4794 303.161 63.1971 303.049 62.9218 302.919C62.6464 302.788 62.4014 302.615 62.1868 302.401C61.9721 302.186 61.7971 301.92 61.6618 301.603C61.5311 301.285 61.4658 300.891 61.4658 300.42C61.4658 300.042 61.5404 299.675 61.6898 299.321C61.8391 298.966 62.0584 298.651 62.3478 298.376C62.6371 298.1 62.9918 297.879 63.4118 297.711C63.8364 297.543 64.3218 297.459 64.8678 297.459C65.4791 297.459 66.0438 297.554 66.5618 297.746C67.0844 297.932 67.5254 298.194 67.8848 298.53L67.3668 299.517ZM82.712 302.646C82.712 303.388 82.586 304.076 82.334 304.711C82.0867 305.345 81.7343 305.894 81.277 306.356C80.8243 306.818 80.2783 307.182 79.639 307.448C78.9997 307.709 78.2903 307.84 77.511 307.84C76.7317 307.84 76.0223 307.709 75.383 307.448C74.7437 307.182 74.1953 306.818 73.738 306.356C73.2807 305.894 72.926 305.345 72.674 304.711C72.4267 304.076 72.303 303.388 72.303 302.646C72.303 301.904 72.4267 301.218 72.674 300.588C72.926 299.953 73.2807 299.405 73.738 298.943C74.1953 298.481 74.7437 298.119 75.383 297.858C76.0223 297.592 76.7317 297.459 77.511 297.459C78.2903 297.459 78.9997 297.592 79.639 297.858C80.2783 298.119 80.8243 298.483 81.277 298.95C81.7343 299.412 82.0867 299.96 82.334 300.595C82.586 301.225 82.712 301.908 82.712 302.646ZM80.563 302.646C80.563 302.114 80.493 301.638 80.353 301.218C80.213 300.793 80.01 300.434 79.744 300.14C79.4827 299.841 79.163 299.615 78.785 299.461C78.4117 299.302 77.987 299.223 77.511 299.223C77.035 299.223 76.608 299.302 76.23 299.461C75.852 299.615 75.53 299.841 75.264 300.14C75.0027 300.434 74.802 300.793 74.662 301.218C74.522 301.638 74.452 302.114 74.452 302.646C74.452 303.182 74.522 303.663 74.662 304.088C74.802 304.508 75.0027 304.865 75.264 305.159C75.53 305.453 75.852 305.679 76.23 305.838C76.608 305.992 77.035 306.069 77.511 306.069C77.987 306.069 78.4117 305.992 78.785 305.838C79.163 305.679 79.4827 305.453 79.744 305.159C80.01 304.865 80.213 304.508 80.353 304.088C80.493 303.663 80.563 303.182 80.563 302.646ZM91.1616 305.229C91.2783 305.229 91.3763 305.271 91.4556 305.355L92.2886 306.244C91.878 306.766 91.367 307.163 90.7556 307.434C90.149 307.704 89.4256 307.84 88.5856 307.84C87.825 307.84 87.1413 307.711 86.5346 307.455C85.928 307.193 85.4123 306.832 84.9876 306.37C84.563 305.908 84.2363 305.359 84.0076 304.725C83.779 304.09 83.6646 303.397 83.6646 302.646C83.6646 302.142 83.7183 301.663 83.8256 301.211C83.9376 300.753 84.0986 300.333 84.3086 299.951C84.5186 299.568 84.7706 299.223 85.0646 298.915C85.3633 298.607 85.6993 298.345 86.0726 298.131C86.446 297.911 86.852 297.746 87.2906 297.634C87.734 297.517 88.2053 297.459 88.7046 297.459C89.078 297.459 89.4303 297.491 89.7616 297.557C90.0976 297.622 90.4103 297.713 90.6996 297.83C90.989 297.946 91.255 298.089 91.4976 298.257C91.745 298.42 91.9666 298.6 92.1626 298.796L91.4556 299.762C91.4136 299.822 91.36 299.876 91.2946 299.923C91.2293 299.969 91.1406 299.993 91.0286 299.993C90.9166 299.993 90.8023 299.953 90.6856 299.874C90.5736 299.794 90.4336 299.706 90.2656 299.608C90.1023 299.51 89.8946 299.421 89.6426 299.342C89.3953 299.262 89.0803 299.223 88.6976 299.223C88.273 299.223 87.8833 299.3 87.5286 299.454C87.174 299.608 86.8683 299.832 86.6116 300.126C86.3596 300.415 86.1636 300.772 86.0236 301.197C85.8836 301.621 85.8136 302.104 85.8136 302.646C85.8136 303.192 85.8883 303.679 86.0376 304.109C86.1916 304.533 86.3993 304.893 86.6606 305.187C86.9266 305.481 87.2346 305.705 87.5846 305.859C87.9393 306.008 88.3173 306.083 88.7186 306.083C88.9566 306.083 89.1713 306.071 89.3626 306.048C89.5586 306.024 89.7383 305.985 89.9016 305.929C90.0696 305.873 90.226 305.8 90.3706 305.712C90.52 305.623 90.6693 305.511 90.8186 305.376C90.87 305.334 90.9236 305.299 90.9796 305.271C91.0356 305.243 91.0963 305.229 91.1616 305.229ZM100.663 299.265H97.6952V307.728H95.5882V299.265H92.6202V297.571H100.663V299.265ZM110.611 305.957C110.821 305.957 110.984 306.015 111.101 306.132C111.222 306.248 111.283 306.402 111.283 306.594V307.728H104.241V307.098C104.241 306.976 104.266 306.846 104.318 306.706C104.369 306.561 104.455 306.43 104.577 306.314L107.587 303.297C107.843 303.04 108.07 302.795 108.266 302.562C108.462 302.324 108.625 302.093 108.756 301.869C108.886 301.64 108.984 301.409 109.05 301.176C109.115 300.942 109.148 300.697 109.148 300.441C109.148 299.988 109.031 299.645 108.798 299.412C108.564 299.174 108.235 299.055 107.811 299.055C107.624 299.055 107.451 299.083 107.293 299.139C107.139 299.19 106.999 299.262 106.873 299.356C106.751 299.449 106.646 299.559 106.558 299.685C106.469 299.811 106.404 299.948 106.362 300.098C106.278 300.331 106.163 300.487 106.019 300.567C105.879 300.641 105.678 300.658 105.417 300.616L104.395 300.434C104.469 299.939 104.609 299.505 104.815 299.132C105.02 298.758 105.277 298.448 105.585 298.201C105.893 297.953 106.245 297.769 106.642 297.648C107.038 297.522 107.465 297.459 107.923 297.459C108.403 297.459 108.84 297.531 109.232 297.676C109.628 297.816 109.967 298.014 110.247 298.271C110.527 298.523 110.744 298.828 110.898 299.188C111.052 299.547 111.129 299.944 111.129 300.378C111.129 300.751 111.075 301.096 110.968 301.414C110.86 301.731 110.713 302.034 110.527 302.324C110.345 302.608 110.132 302.886 109.89 303.157C109.647 303.427 109.39 303.7 109.12 303.976L106.964 306.181C107.202 306.111 107.437 306.057 107.671 306.02C107.904 305.978 108.123 305.957 108.329 305.957H110.611ZM118.732 305.957C118.942 305.957 119.105 306.015 119.222 306.132C119.343 306.248 119.404 306.402 119.404 306.594V307.728H112.362V307.098C112.362 306.976 112.388 306.846 112.439 306.706C112.49 306.561 112.577 306.43 112.698 306.314L115.708 303.297C115.965 303.04 116.191 302.795 116.387 302.562C116.583 302.324 116.746 302.093 116.877 301.869C117.008 301.64 117.106 301.409 117.171 301.176C117.236 300.942 117.269 300.697 117.269 300.441C117.269 299.988 117.152 299.645 116.919 299.412C116.686 299.174 116.357 299.055 115.932 299.055C115.745 299.055 115.573 299.083 115.414 299.139C115.26 299.19 115.12 299.262 114.994 299.356C114.873 299.449 114.768 299.559 114.679 299.685C114.59 299.811 114.525 299.948 114.483 300.098C114.399 300.331 114.285 300.487 114.14 300.567C114 300.641 113.799 300.658 113.538 300.616L112.516 300.434C112.591 299.939 112.731 299.505 112.936 299.132C113.141 298.758 113.398 298.448 113.706 298.201C114.014 297.953 114.366 297.769 114.763 297.648C115.16 297.522 115.587 297.459 116.044 297.459C116.525 297.459 116.961 297.531 117.353 297.676C117.75 297.816 118.088 298.014 118.368 298.271C118.648 298.523 118.865 298.828 119.019 299.188C119.173 299.547 119.25 299.944 119.25 300.378C119.25 300.751 119.196 301.096 119.089 301.414C118.982 301.731 118.835 302.034 118.648 302.324C118.466 302.608 118.254 302.886 118.011 303.157C117.768 303.427 117.512 303.7 117.241 303.976L115.085 306.181C115.323 306.111 115.559 306.057 115.792 306.02C116.025 305.978 116.245 305.957 116.45 305.957H118.732ZM130.175 305.957C130.385 305.957 130.549 306.015 130.665 306.132C130.787 306.248 130.847 306.402 130.847 306.594V307.728H123.805V307.098C123.805 306.976 123.831 306.846 123.882 306.706C123.934 306.561 124.02 306.43 124.141 306.314L127.151 303.297C127.408 303.04 127.634 302.795 127.83 302.562C128.026 302.324 128.19 302.093 128.32 301.869C128.451 301.64 128.549 301.409 128.614 301.176C128.68 300.942 128.712 300.697 128.712 300.441C128.712 299.988 128.596 299.645 128.362 299.412C128.129 299.174 127.8 299.055 127.375 299.055C127.189 299.055 127.016 299.083 126.857 299.139C126.703 299.19 126.563 299.262 126.437 299.356C126.316 299.449 126.211 299.559 126.122 299.685C126.034 299.811 125.968 299.948 125.926 300.098C125.842 300.331 125.728 300.487 125.583 300.567C125.443 300.641 125.243 300.658 124.981 300.616L123.959 300.434C124.034 299.939 124.174 299.505 124.379 299.132C124.585 298.758 124.841 298.448 125.149 298.201C125.457 297.953 125.81 297.769 126.206 297.648C126.603 297.522 127.03 297.459 127.487 297.459C127.968 297.459 128.404 297.531 128.796 297.676C129.193 297.816 129.531 298.014 129.811 298.271C130.091 298.523 130.308 298.828 130.462 299.188C130.616 299.547 130.693 299.944 130.693 300.378C130.693 300.751 130.64 301.096 130.532 301.414C130.425 301.731 130.278 302.034 130.091 302.324C129.909 302.608 129.697 302.886 129.454 303.157C129.212 303.427 128.955 303.7 128.684 303.976L126.528 306.181C126.766 306.111 127.002 306.057 127.235 306.02C127.469 305.978 127.688 305.957 127.893 305.957H130.175ZM139.248 302.646C139.248 303.532 139.153 304.302 138.961 304.956C138.77 305.609 138.506 306.15 138.17 306.58C137.834 307.004 137.435 307.322 136.973 307.532C136.516 307.737 136.021 307.84 135.489 307.84C134.957 307.84 134.463 307.737 134.005 307.532C133.548 307.322 133.154 307.004 132.822 306.58C132.491 306.15 132.23 305.609 132.038 304.956C131.852 304.302 131.758 303.532 131.758 302.646C131.758 301.759 131.852 300.991 132.038 300.343C132.23 299.689 132.491 299.15 132.822 298.726C133.154 298.296 133.548 297.979 134.005 297.774C134.463 297.564 134.957 297.459 135.489 297.459C136.021 297.459 136.516 297.564 136.973 297.774C137.435 297.979 137.834 298.296 138.17 298.726C138.506 299.15 138.77 299.689 138.961 300.343C139.153 300.991 139.248 301.759 139.248 302.646ZM137.253 302.646C137.253 301.927 137.202 301.334 137.099 300.868C137.001 300.401 136.871 300.032 136.707 299.762C136.544 299.491 136.355 299.302 136.14 299.195C135.93 299.087 135.713 299.034 135.489 299.034C135.265 299.034 135.048 299.087 134.838 299.195C134.633 299.302 134.449 299.491 134.285 299.762C134.127 300.032 133.998 300.401 133.9 300.868C133.802 301.334 133.753 301.927 133.753 302.646C133.753 303.369 133.802 303.964 133.9 304.431C133.998 304.897 134.127 305.266 134.285 305.537C134.449 305.807 134.633 305.996 134.838 306.104C135.048 306.211 135.265 306.265 135.489 306.265C135.713 306.265 135.93 306.211 136.14 306.104C136.355 305.996 136.544 305.807 136.707 305.537C136.871 305.266 137.001 304.897 137.099 304.431C137.202 303.964 137.253 303.369 137.253 302.646ZM146.417 305.957C146.627 305.957 146.791 306.015 146.907 306.132C147.029 306.248 147.089 306.402 147.089 306.594V307.728H140.047V307.098C140.047 306.976 140.073 306.846 140.124 306.706C140.176 306.561 140.262 306.43 140.383 306.314L143.393 303.297C143.65 303.04 143.876 302.795 144.072 302.562C144.268 302.324 144.432 302.093 144.562 301.869C144.693 301.64 144.791 301.409 144.856 301.176C144.922 300.942 144.954 300.697 144.954 300.441C144.954 299.988 144.838 299.645 144.604 299.412C144.371 299.174 144.042 299.055 143.617 299.055C143.431 299.055 143.258 299.083 143.099 299.139C142.945 299.19 142.805 299.262 142.679 299.356C142.558 299.449 142.453 299.559 142.364 299.685C142.276 299.811 142.21 299.948 142.168 300.098C142.084 300.331 141.97 300.487 141.825 300.567C141.685 300.641 141.485 300.658 141.223 300.616L140.201 300.434C140.276 299.939 140.416 299.505 140.621 299.132C140.827 298.758 141.083 298.448 141.391 298.201C141.699 297.953 142.052 297.769 142.448 297.648C142.845 297.522 143.272 297.459 143.729 297.459C144.21 297.459 144.646 297.531 145.038 297.676C145.435 297.816 145.773 298.014 146.053 298.271C146.333 298.523 146.55 298.828 146.704 299.188C146.858 299.547 146.935 299.944 146.935 300.378C146.935 300.751 146.882 301.096 146.774 301.414C146.667 301.731 146.52 302.034 146.333 302.324C146.151 302.608 145.939 302.886 145.696 303.157C145.454 303.427 145.197 303.7 144.926 303.976L142.77 306.181C143.008 306.111 143.244 306.057 143.477 306.02C143.711 305.978 143.93 305.957 144.135 305.957H146.417ZM155.491 302.646C155.491 303.532 155.395 304.302 155.204 304.956C155.012 305.609 154.749 306.15 154.413 306.58C154.077 307.004 153.678 307.322 153.216 307.532C152.758 307.737 152.264 307.84 151.732 307.84C151.2 307.84 150.705 307.737 150.248 307.532C149.79 307.322 149.396 307.004 149.065 306.58C148.733 306.15 148.472 305.609 148.281 304.956C148.094 304.302 148.001 303.532 148.001 302.646C148.001 301.759 148.094 300.991 148.281 300.343C148.472 299.689 148.733 299.15 149.065 298.726C149.396 298.296 149.79 297.979 150.248 297.774C150.705 297.564 151.2 297.459 151.732 297.459C152.264 297.459 152.758 297.564 153.216 297.774C153.678 297.979 154.077 298.296 154.413 298.726C154.749 299.15 155.012 299.689 155.204 300.343C155.395 300.991 155.491 301.759 155.491 302.646ZM153.496 302.646C153.496 301.927 153.444 301.334 153.342 300.868C153.244 300.401 153.113 300.032 152.95 299.762C152.786 299.491 152.597 299.302 152.383 299.195C152.173 299.087 151.956 299.034 151.732 299.034C151.508 299.034 151.291 299.087 151.081 299.195C150.875 299.302 150.691 299.491 150.528 299.762C150.369 300.032 150.241 300.401 150.143 300.868C150.045 301.334 149.996 301.927 149.996 302.646C149.996 303.369 150.045 303.964 150.143 304.431C150.241 304.897 150.369 305.266 150.528 305.537C150.691 305.807 150.875 305.996 151.081 306.104C151.291 306.211 151.508 306.265 151.732 306.265C151.956 306.265 152.173 306.211 152.383 306.104C152.597 305.996 152.786 305.807 152.95 305.537C153.113 305.266 153.244 304.897 153.342 304.431C153.444 303.964 153.496 303.369 153.496 302.646Z" fill="white"/>
</g>
<defs>
<clipPath id="clip0">
<rect width="317" height="394" fill="white"/>
</clipPath>
</defs>
</svg>
