<svg width="317" height="394" viewBox="0 0 317 394" fill="none" xmlns="http://www.w3.org/2000/svg">
<g clip-path="url(#clip0)">
<path d="M39 394H279C300 394 317 377 317 356V45C317 24 300 7 279 7H39C18 7 1 24 1 45V356C1 377 18 394 39 394Z" fill="#252026"/>
<path d="M160.999 100.648L160.999 69.8869L193.098 100.648L160.999 100.648Z" fill="#73C78B"/>
<path d="M226.761 38.8761L226.761 68.6114L194.662 38.8761L226.761 38.8761Z" fill="#73C78B"/>
<path d="M194.662 69.6368H227.831L194.662 101.423L194.662 69.6368Z" fill="#28534A"/>
<path d="M129.394 69.6368H162.563L129.394 101.423L129.394 69.6368Z" fill="#28534A"/>
<path d="M227.831 7.08996L261 7.08996L227.831 38.876L227.831 7.08996Z" fill="#28534A"/>
<path d="M129.394 38.8761L129.394 8.11532L161.493 38.8761L129.394 38.8761Z" fill="#28534A"/>
<path d="M33.0961 252.15L33.0961 282.911L0.99691 252.15L33.0961 252.15Z" fill="#73C78B"/>
<path d="M33.0961 252.15H65.1952L33.0961 282.911L33.0961 252.15Z" fill="#28534A"/>
<path d="M193.592 38.8761L193.592 7.08996L225.691 38.8761L193.592 38.8761Z" fill="#28534A"/>
<path d="M161.493 38.8761H193.592L161.493 69.6368L161.493 38.8761Z" fill="#73C78B"/>
<path d="M193.592 191.654L161.493 191.654L193.592 160.894L193.592 191.654Z" fill="#28534A"/>
<path d="M160.999 130.02L160.999 99.2596L193.098 130.02L160.999 130.02Z" fill="#28534A"/>
<path d="M129.394 38.8761H161.493L129.394 69.6368L129.394 38.8761Z" fill="#73C78B"/>
<path d="M65.1952 252.15H98.3643L65.1952 282.911L65.1952 252.15Z" fill="#28534A"/>
<path d="M129.394 222.415L97.2944 222.415L129.394 190.629L129.394 222.415Z" fill="#28534A"/>
<path d="M161.493 222.415L129.394 222.415L161.493 190.629L161.493 222.415Z" fill="#28534A"/>
<path d="M161.493 253.176L129.394 253.176L161.493 222.415L161.493 253.176Z" fill="#28534A"/>
<path d="M129.394 130.133H160.423L129.394 159.868L129.394 130.133Z" fill="#73C78B"/>
<path d="M129.394 130.133L129.394 99.3722L161.493 130.133L129.394 130.133Z" fill="#28534A"/>
<path d="M65.0964 252.576L65.0964 221.815L32.9973 252.576L65.0964 252.576Z" fill="#28534A"/>
<path d="M0.996948 253.176L0.996949 222.415L33.0961 253.176L0.996948 253.176Z" fill="#73C78B"/>
<path d="M64.1252 191.654H97.2944L64.1252 223.44L64.1252 191.654Z" fill="#73C78B"/>
<path d="M97.2944 222.415L97.2944 253.176L64.1253 222.415L97.2944 222.415Z" fill="#28534A"/>
<path d="M129.394 222.415L129.394 253.176L97.2944 222.415L129.394 222.415Z" fill="#73C78B"/>
<path d="M129.394 252.15L129.394 282.911L97.2944 252.15L129.394 252.15Z" fill="#73C78B"/>
<path d="M161.493 253.176L161.493 283.937L129.394 253.176L161.493 253.176Z" fill="#73C78B"/>
<path d="M129.394 222.415L97.2944 222.415L129.394 190.629L129.394 222.415Z" fill="#28534A"/>
<path d="M97.2944 222.415L64.1253 222.415L97.2944 190.629L97.2944 222.415Z" fill="#28534A"/>
<path d="M97.2944 191.654H129.394L97.2944 223.44L97.2944 191.654Z" fill="#73C78B"/>
<path d="M97.2944 253.176L97.2944 222.415L129.394 253.176L97.2944 253.176Z" fill="#28534A"/>
<path d="M64.9977 252.576L64.9977 221.815L98.1668 252.576L64.9977 252.576Z" fill="#73C78B"/>
<path d="M64.1252 68.6114H97.2944L64.1252 100.398L64.1252 68.6114Z" fill="#28534A"/>
<path d="M97.2944 100.398L97.2944 131.158L64.1253 100.398L97.2944 100.398Z" fill="#73C78B"/>
<path d="M129.394 100.398L129.394 131.158L97.2944 100.398L129.394 100.398Z" fill="#73C78B"/>
<path d="M193.592 191.654L193.592 223.44L161.493 191.654L193.592 191.654Z" fill="#73C78B"/>
<path d="M193.592 7.08996L193.592 38.876L161.493 7.08996L193.592 7.08996Z" fill="#73C78B"/>
<path d="M161.493 159.868L161.493 189.604L129.394 159.868L161.493 159.868Z" fill="#73C78B"/>
<path d="M129.394 100.398L97.2944 100.398L129.394 68.6114L129.394 100.398Z" fill="#28534A"/>
<path d="M97.2944 100.398L64.1253 100.398L97.2944 68.6114L97.2944 100.398Z" fill="#73C78B"/>
<path d="M97.2944 68.6114H129.394L97.2944 100.398L97.2944 68.6114Z" fill="#73C78B"/>
<path d="M97.2944 131.158L97.2944 100.398L129.394 131.158L97.2944 131.158Z" fill="#28534A"/>
<path d="M161.493 284.962L161.493 254.201L193.592 284.962L161.493 284.962Z" fill="#28534A"/>
<path d="M63.9977 131.033L63.9977 100.272L97.1668 131.033L80.5822 131.033L63.9977 131.033Z" fill="#28534A"/>
<path d="M0.996948 131.158H33.0961L0.996948 161.919L0.996948 131.158Z" fill="#73C78B"/>
<path d="M65.0265 131.033L65.0265 100.272L33.9973 131.033L65.0265 131.033Z" fill="#73C78B"/>
<path d="M0.996948 131.158L0.996949 100.398L33.0961 131.158L0.996948 131.158Z" fill="#28534A"/>
<path d="M97.2943 7.08996L97.2943 37.8507L64.1252 7.08996L97.2943 7.08996Z" fill="#73C78B"/>
<path d="M97.2943 7.08996L129.393 7.08996L97.2943 37.8507L97.2943 7.08996Z" fill="#28534A"/>
<path d="M129.394 68.6114L129.394 37.8507L97.2944 68.6114L129.394 68.6114Z" fill="#28534A"/>
<path d="M33.0961 38.8761L33.0961 69.6368L0.99691 38.8761L33.0961 38.8761Z" fill="#73C78B"/>
<path d="M64.1252 37.8507L64.1252 68.6114L32.0261 37.8507L64.1252 37.8507Z" fill="#28534A"/>
<path d="M64.1252 38.8761L32.0261 38.8761L64.1252 8.11532L64.1252 38.8761Z" fill="#28534A"/>
<path d="M33.0961 69.6368L33.0961 101.423L0.996906 69.6368L33.0961 69.6368Z" fill="#73C78B"/>
<path d="M33.0961 68.6114H65.1952L33.0961 100.398L33.0961 68.6114Z" fill="#28534A"/>
<path d="M33.0961 38.8761L0.996918 38.8761L33.0961 8.11532L33.0961 38.8761Z" fill="#28534A"/>
<path d="M32.9973 7.08996L64.9977 7.08996L32.9973 37.4756L32.9973 7.08996Z" fill="#73C78B"/>
<path d="M33.0961 69.6368L33.0961 38.876L65.1952 69.6368L33.0961 69.6368Z" fill="#73C78B"/>
<path d="M0.996948 69.6368L0.996949 38.876L33.0961 69.6368L0.996948 69.6368Z" fill="#28534A"/>
<path d="M64.1252 68.6114L64.1252 37.8507L97.2944 68.6114L64.1252 68.6114Z" fill="#73C78B"/>
<path d="M98.1668 130.658L98.1668 161.419L64.9977 130.658L98.1668 130.658Z" fill="#73C78B"/>
<path d="M97.2944 131.158H128.324L97.2944 160.894L97.2944 131.158Z" fill="#28534A"/>
<path d="M129.394 191.654L129.394 160.894L97.2944 191.654L129.394 191.654Z" fill="#28534A"/>
<path d="M33.0961 160.894L33.0961 191.654L0.99691 160.894L33.0961 160.894Z" fill="#28534A"/>
<path d="M65.1952 160.894L65.1952 191.654L33.096 160.894L65.1952 160.894Z" fill="#73C78B"/>
<path d="M65.1953 160.894L33.0961 160.894L65.1953 130.133L65.1953 160.894Z" fill="#28534A"/>
<path d="M33.0961 191.654L33.0961 223.44L0.996906 191.654L33.0961 191.654Z" fill="#28534A"/>
<path d="M33.0961 191.654H65.1952L33.0961 223.44L33.0961 191.654Z" fill="#73C78B"/>
<path d="M33.0961 160.894L0.996918 160.894L33.0961 130.133L33.0961 160.894Z" fill="#28534A"/>
<path d="M32.9973 130.658H65.0965L32.9973 161.419L32.9973 130.658Z" fill="#73C78B"/>
<path d="M33.0961 191.654L33.0961 160.894L65.1952 191.654L33.0961 191.654Z" fill="#28534A"/>
<path d="M0.996948 191.654L0.996949 160.894L33.0961 191.654L0.996948 191.654Z" fill="#73C78B"/>
<path d="M161.493 254.201L161.493 223.44L193.592 254.201L161.493 254.201Z" fill="#73C78B"/>
<path d="M193.592 284.962L193.592 254.201L225.691 284.962L193.592 284.962Z" fill="#73C78B"/>
<path d="M64.1252 191.654L64.1252 160.894L97.2944 191.654L64.1252 191.654Z" fill="#73C78B"/>
<path d="M129 37.982C129 42.0388 128.159 46.0559 126.526 49.8039C124.893 53.5518 122.499 56.9574 119.481 59.8259C116.463 62.6945 112.88 64.97 108.937 66.5225C104.994 68.075 100.768 68.874 96.5 68.874C92.232 68.874 88.0059 68.075 84.0628 66.5225C80.1197 64.97 76.5369 62.6945 73.519 59.8259C70.5011 56.9574 68.1072 53.5518 66.4739 49.8039C64.8406 46.0559 64 42.0388 64 37.982L96.5 37.982H129Z" fill="#252026"/>
<path d="M128.778 38.6708L96.8333 38.6708L128.778 8.0579L128.778 38.6708Z" fill="#252026"/>
<path d="M64.8889 99.8965C64.8889 103.917 64.0626 107.897 62.4573 111.612C60.8519 115.326 58.4989 118.7 55.5326 121.543C52.5663 124.386 49.0447 126.641 45.1691 128.179C41.2934 129.717 37.1395 130.509 32.9444 130.509C28.7494 130.509 24.5955 129.717 20.7198 128.179C16.8442 126.641 13.3226 124.386 10.3563 121.543C7.38999 118.7 5.03698 115.326 3.43163 111.612C1.82627 107.897 1 103.917 1 99.8965L32.9444 99.8965H64.8889Z" fill="#252026"/>
<path d="M64.8889 99.8965L32.9445 99.8965L64.8889 69.2836L64.8889 99.8965Z" fill="#252026"/>
<path d="M1 99.8965L1 69.2837L32.9444 99.8965L1 99.8965Z" fill="#252026"/>
<path d="M128.778 161.122C128.778 165.142 127.952 169.123 126.346 172.837C124.741 176.551 122.388 179.926 119.422 182.769C116.455 185.611 112.934 187.866 109.058 189.405C105.182 190.943 101.028 191.735 96.8334 191.735C92.6384 191.735 88.4845 190.943 84.6088 189.405C80.7331 187.866 77.2116 185.611 74.2453 182.769C71.279 179.926 68.926 176.551 67.3206 172.837C65.7152 169.123 64.889 165.142 64.889 161.122L96.8334 161.122H128.778Z" fill="#252026"/>
<path d="M128.778 161.122L96.8334 161.122L128.778 130.509L128.778 161.122Z" fill="#252026"/>
<path d="M64.889 161.122L64.889 130.509L96.8334 161.122L64.889 161.122Z" fill="#252026"/>
<path d="M64.8889 222.348C64.8889 226.368 64.0626 230.349 62.4573 234.063C60.8519 237.777 58.4989 241.152 55.5326 243.994C52.5663 246.837 49.0447 249.092 45.1691 250.63C41.2934 252.169 37.1395 252.961 32.9444 252.961C28.7494 252.961 24.5955 252.169 20.7198 250.63C16.8442 249.092 13.3226 246.837 10.3563 243.994C7.38999 241.152 5.03698 237.777 3.43163 234.063C1.82627 230.349 1 226.368 1 222.348L32.9444 222.348H64.8889Z" fill="#252026"/>
<path d="M64.8889 222.348L32.9445 222.348L64.8889 191.735L64.8889 222.348Z" fill="#252026"/>
<path d="M1 222.348L1 191.735L32.9444 222.348L1 222.348Z" fill="#252026"/>
<path fill-rule="evenodd" clip-rule="evenodd" d="M316.703 187.511L316.703 187.215L347.251 205.215L316.962 223.107L316.962 223.392L286.423 205.41L316.703 187.511Z" fill="#73D3A6"/>
<path fill-rule="evenodd" clip-rule="evenodd" d="M316.735 223.303L316.735 223.295L347.267 205.195L338.411 317.671L317.061 348.357L317.062 348.861L316.886 348.609L316.816 348.71L316.816 348.508L295.427 317.853L286.425 205.389L316.735 223.303Z" fill="#4EA47B"/>
<path fill-rule="evenodd" clip-rule="evenodd" d="M317.183 125.582L332.248 112.718L332.501 158.124L317.225 203.717L317.225 203.631L301.898 158.084L301.869 112.751L317.183 125.527L317.183 125.582Z" fill="#4EA47B" fill-opacity="0.75"/>
<path fill-rule="evenodd" clip-rule="evenodd" d="M317.167 101.879L317.194 99.8551L332.138 112.881L317.182 125.58L317.182 125.723L317.098 125.652L316.841 125.869L316.847 125.439L301.869 112.756L317.165 99.7673L317.167 101.879Z" fill="#79E5B2"/>
<path fill-rule="evenodd" clip-rule="evenodd" d="M226.445 310.311L229.697 297.422L215.365 317.309L226.445 310.311Z" fill="#4EA47B"/>
<path fill-rule="evenodd" clip-rule="evenodd" d="M259.302 255.429L287.996 226.476L287.628 221.245L242.164 255.442L259.302 255.429Z" fill="#79E5B2"/>
<path fill-rule="evenodd" clip-rule="evenodd" d="M241.97 255.393L259.305 255.383L222.809 307.256L241.97 255.393Z" fill="#73D3A6"/>
<path fill-rule="evenodd" clip-rule="evenodd" d="M302.287 196.159L246.637 142.141L251.199 157.573L298.069 198.845L302.287 196.159Z" fill="#79E5B2"/>
<path fill-rule="evenodd" clip-rule="evenodd" d="M246.827 142.14L220.604 185.513L251.238 157.619L246.827 142.14Z" fill="#73D3A6"/>
<path fill-rule="evenodd" clip-rule="evenodd" d="M229.792 176.634L220.609 190.089L220.606 185.326L229.792 176.634Z" fill="#79E5B2"/>
<path fill-rule="evenodd" clip-rule="evenodd" d="M220.768 190.099L200.479 185.215L220.765 185.201" fill="#4EA47B"/>
<path fill-rule="evenodd" clip-rule="evenodd" d="M316.802 62.6646L316.802 62.6641L316.802 62.6653L330.15 76.4655L333.647 91.1331L316.829 105.154L316.829 105.19L299.974 91.1772L303.453 76.5045L316.783 62.6845L316.783 62.6447L316.802 62.6646Z" fill="#73D3A6" fill-opacity="0.81"/>
<path fill-rule="evenodd" clip-rule="evenodd" d="M299.677 77.9792L309.157 74.0902L306.656 96.3799L296.468 88.9175L299.677 77.9792Z" fill="#C7FCD7"/>
<path fill-rule="evenodd" clip-rule="evenodd" d="M286.012 22.7467L311.912 77.4326L313.619 76.5712L286.012 22.7467Z" fill="#4EA47B"/>
<path fill-rule="evenodd" clip-rule="evenodd" d="M301.882 112.819L264.117 137.074L301.889 123.97L301.882 112.819Z" fill="#79E5B2"/>
<path fill-rule="evenodd" clip-rule="evenodd" d="M264.117 137.057L273.733 130.87L268.891 82.2788L264.117 137.057Z" fill="#73D3A6"/>
<path fill-rule="evenodd" clip-rule="evenodd" d="M248.813 118.43L268.157 91.4417L268.88 82.4392L250.329 100.682L248.813 118.43Z" fill="#4EA47B"/>
<path d="M61.8 315.568V351.843H55.175V329.568C55.175 329.102 55.1833 328.602 55.2 328.068C55.2333 327.535 55.2833 326.993 55.35 326.443L44.975 346.118C44.4083 347.202 43.5333 347.743 42.35 347.743H41.3C40.7167 347.743 40.2 347.61 39.75 347.343C39.3 347.06 38.9417 346.652 38.675 346.118L28.25 326.368C28.3 326.952 28.3417 327.518 28.375 328.068C28.4083 328.602 28.425 329.102 28.425 329.568V351.843H21.8V315.568H27.5C27.8167 315.568 28.1 315.577 28.35 315.593C28.6 315.61 28.8167 315.66 29 315.743C29.2 315.81 29.375 315.927 29.525 316.093C29.6917 316.243 29.85 316.46 30 316.743L40.15 336.093C40.4667 336.677 40.7583 337.277 41.025 337.893C41.3083 338.51 41.575 339.143 41.825 339.793C42.075 339.127 42.3333 338.477 42.6 337.843C42.8833 337.21 43.1833 336.602 43.5 336.018L53.575 316.743C53.725 316.46 53.8833 316.243 54.05 316.093C54.2167 315.927 54.3917 315.81 54.575 315.743C54.775 315.66 54.9917 315.61 55.225 315.593C55.475 315.577 55.7667 315.568 56.1 315.568H61.8ZM81.2977 341.068C79.6143 341.152 78.2143 341.302 77.0977 341.518C75.981 341.718 75.0893 341.985 74.4227 342.318C73.7727 342.652 73.306 343.035 73.0227 343.468C72.756 343.885 72.6227 344.343 72.6227 344.843C72.6227 345.843 72.8977 346.552 73.4477 346.968C74.0143 347.385 74.7977 347.593 75.7977 347.593C76.9477 347.593 77.9393 347.393 78.7727 346.993C79.6227 346.577 80.4643 345.935 81.2977 345.068V341.068ZM67.2477 329.643C68.7643 328.277 70.4393 327.26 72.2727 326.593C74.106 325.91 76.0893 325.568 78.2227 325.568C79.756 325.568 81.1227 325.818 82.3227 326.318C83.5393 326.818 84.5643 327.518 85.3977 328.418C86.2477 329.302 86.8977 330.36 87.3477 331.593C87.7977 332.827 88.0227 334.177 88.0227 335.643V351.843H84.8727C84.2227 351.843 83.7227 351.752 83.3727 351.568C83.0393 351.385 82.7643 351.002 82.5477 350.418L81.9977 348.768C81.3477 349.335 80.7143 349.835 80.0977 350.268C79.4977 350.702 78.8727 351.068 78.2227 351.368C77.5727 351.652 76.8727 351.868 76.1227 352.018C75.3893 352.168 74.5643 352.243 73.6477 352.243C72.5143 352.243 71.481 352.093 70.5477 351.793C69.6143 351.493 68.806 351.052 68.1227 350.468C67.456 349.868 66.9393 349.127 66.5727 348.243C66.206 347.36 66.0227 346.343 66.0227 345.193C66.0227 344.243 66.2643 343.293 66.7477 342.343C67.231 341.393 68.056 340.535 69.2227 339.768C70.406 338.985 71.9727 338.343 73.9227 337.843C75.8893 337.327 78.3477 337.035 81.2977 336.968V335.643C81.2977 334.027 80.956 332.843 80.2727 332.093C79.5893 331.327 78.606 330.943 77.3227 330.943C76.3727 330.943 75.581 331.06 74.9477 331.293C74.3143 331.51 73.756 331.752 73.2727 332.018C72.806 332.268 72.3643 332.51 71.9477 332.743C71.531 332.96 71.0477 333.068 70.4977 333.068C70.0143 333.068 69.606 332.952 69.2727 332.718C68.956 332.468 68.6893 332.177 68.4727 331.843L67.2477 329.643ZM101.918 352.243C100.751 352.243 99.718 352.077 98.818 351.743C97.918 351.393 97.1596 350.902 96.543 350.268C95.9263 349.635 95.4596 348.868 95.143 347.968C94.8263 347.068 94.668 346.052 94.668 344.918V331.018H92.243C91.8763 331.018 91.5596 330.902 91.293 330.668C91.043 330.435 90.918 330.085 90.918 329.618V326.918L95.043 326.168L96.443 319.493C96.6263 318.743 97.1346 318.368 97.968 318.368H101.568V326.218H108.218V331.018H101.568V344.468C101.568 345.185 101.735 345.752 102.068 346.168C102.418 346.585 102.91 346.793 103.543 346.793C103.876 346.793 104.16 346.76 104.393 346.693C104.626 346.61 104.826 346.527 104.993 346.443C105.16 346.343 105.31 346.26 105.443 346.193C105.593 346.11 105.743 346.068 105.893 346.068C106.093 346.068 106.26 346.118 106.393 346.218C106.526 346.302 106.66 346.452 106.793 346.668L108.868 349.968C107.918 350.718 106.843 351.285 105.643 351.668C104.443 352.052 103.201 352.243 101.918 352.243ZM130.37 331.818C130.17 332.085 129.97 332.293 129.77 332.443C129.57 332.577 129.287 332.643 128.92 332.643C128.587 332.643 128.262 332.552 127.945 332.368C127.645 332.168 127.295 331.96 126.895 331.743C126.495 331.51 126.02 331.302 125.47 331.118C124.92 330.918 124.237 330.818 123.42 330.818C122.387 330.818 121.487 331.01 120.72 331.393C119.97 331.76 119.345 332.293 118.845 332.993C118.345 333.693 117.97 334.543 117.72 335.543C117.487 336.543 117.37 337.668 117.37 338.918C117.37 341.552 117.895 343.568 118.945 344.968C120.012 346.368 121.462 347.068 123.295 347.068C123.929 347.068 124.47 347.018 124.92 346.918C125.387 346.802 125.787 346.66 126.12 346.493C126.47 346.327 126.77 346.143 127.02 345.943C127.27 345.743 127.504 345.56 127.72 345.393C127.954 345.227 128.179 345.093 128.395 344.993C128.629 344.877 128.887 344.818 129.17 344.818C129.704 344.818 130.12 345.018 130.42 345.418L132.395 347.918C131.662 348.768 130.879 349.477 130.045 350.043C129.212 350.593 128.345 351.035 127.445 351.368C126.562 351.685 125.662 351.902 124.745 352.018C123.829 352.152 122.92 352.218 122.02 352.218C120.437 352.218 118.937 351.927 117.52 351.343C116.104 350.743 114.862 349.877 113.795 348.743C112.729 347.61 111.879 346.218 111.245 344.568C110.629 342.918 110.32 341.035 110.32 338.918C110.32 337.035 110.595 335.285 111.145 333.668C111.695 332.052 112.504 330.652 113.57 329.468C114.637 328.285 115.954 327.36 117.52 326.693C119.104 326.01 120.929 325.668 122.995 325.668C124.962 325.668 126.687 325.985 128.17 326.618C129.654 327.252 130.987 328.168 132.17 329.368L130.37 331.818ZM142.789 328.593C143.272 328.16 143.772 327.768 144.289 327.418C144.822 327.052 145.381 326.743 145.964 326.493C146.564 326.227 147.197 326.027 147.864 325.893C148.547 325.743 149.281 325.668 150.064 325.668C151.464 325.668 152.706 325.91 153.789 326.393C154.872 326.877 155.781 327.552 156.514 328.418C157.264 329.285 157.822 330.318 158.189 331.518C158.572 332.718 158.764 334.035 158.764 335.468V351.843H151.889V335.468C151.889 334.035 151.556 332.927 150.889 332.143C150.222 331.343 149.239 330.943 147.939 330.943C146.972 330.943 146.064 331.152 145.214 331.568C144.364 331.985 143.556 332.568 142.789 333.318V351.843H135.889V314.568H142.789V328.593ZM177.733 341.068C176.05 341.152 174.65 341.302 173.533 341.518C172.417 341.718 171.525 341.985 170.858 342.318C170.208 342.652 169.742 343.035 169.458 343.468C169.192 343.885 169.058 344.343 169.058 344.843C169.058 345.843 169.333 346.552 169.883 346.968C170.45 347.385 171.233 347.593 172.233 347.593C173.383 347.593 174.375 347.393 175.208 346.993C176.058 346.577 176.9 345.935 177.733 345.068V341.068ZM163.683 329.643C165.2 328.277 166.875 327.26 168.708 326.593C170.542 325.91 172.525 325.568 174.658 325.568C176.192 325.568 177.558 325.818 178.758 326.318C179.975 326.818 181 327.518 181.833 328.418C182.683 329.302 183.333 330.36 183.783 331.593C184.233 332.827 184.458 334.177 184.458 335.643V351.843H181.308C180.658 351.843 180.158 351.752 179.808 351.568C179.475 351.385 179.2 351.002 178.983 350.418L178.433 348.768C177.783 349.335 177.15 349.835 176.533 350.268C175.933 350.702 175.308 351.068 174.658 351.368C174.008 351.652 173.308 351.868 172.558 352.018C171.825 352.168 171 352.243 170.083 352.243C168.95 352.243 167.917 352.093 166.983 351.793C166.05 351.493 165.242 351.052 164.558 350.468C163.892 349.868 163.375 349.127 163.008 348.243C162.642 347.36 162.458 346.343 162.458 345.193C162.458 344.243 162.7 343.293 163.183 342.343C163.667 341.393 164.492 340.535 165.658 339.768C166.842 338.985 168.408 338.343 170.358 337.843C172.325 337.327 174.783 337.035 177.733 336.968V335.643C177.733 334.027 177.392 332.843 176.708 332.093C176.025 331.327 175.042 330.943 173.758 330.943C172.808 330.943 172.017 331.06 171.383 331.293C170.75 331.51 170.192 331.752 169.708 332.018C169.242 332.268 168.8 332.51 168.383 332.743C167.967 332.96 167.483 333.068 166.933 333.068C166.45 333.068 166.042 332.952 165.708 332.718C165.392 332.468 165.125 332.177 164.908 331.843L163.683 329.643Z" fill="white"/>
<path d="M23.682 296.615C23.814 296.615 23.925 296.621 24.015 296.633C24.105 296.645 24.186 296.669 24.258 296.705C24.33 296.735 24.399 296.78 24.465 296.84C24.531 296.9 24.606 296.981 24.69 297.083L30.918 304.958C30.894 304.706 30.876 304.463 30.864 304.229C30.852 303.989 30.846 303.764 30.846 303.554V296.615H33.528V309.728H31.944C31.71 309.728 31.512 309.692 31.35 309.62C31.188 309.548 31.032 309.416 30.882 309.224L24.699 301.412C24.717 301.64 24.732 301.865 24.744 302.087C24.756 302.303 24.762 302.507 24.762 302.699V309.728H22.08V296.615H23.682ZM39.8435 300.251C40.5515 300.251 41.1965 300.362 41.7785 300.584C42.3605 300.806 42.8585 301.124 43.2725 301.538C43.6925 301.952 44.0165 302.456 44.2445 303.05C44.4785 303.638 44.5955 304.301 44.5955 305.039C44.5955 305.783 44.4785 306.455 44.2445 307.055C44.0165 307.649 43.6925 308.156 43.2725 308.576C42.8585 308.99 42.3605 309.311 41.7785 309.539C41.1965 309.761 40.5515 309.872 39.8435 309.872C39.1295 309.872 38.4785 309.761 37.8905 309.539C37.3085 309.311 36.8045 308.99 36.3785 308.576C35.9585 308.156 35.6315 307.649 35.3975 307.055C35.1695 306.455 35.0555 305.783 35.0555 305.039C35.0555 304.301 35.1695 303.638 35.3975 303.05C35.6315 302.456 35.9585 301.952 36.3785 301.538C36.8045 301.124 37.3085 300.806 37.8905 300.584C38.4785 300.362 39.1295 300.251 39.8435 300.251ZM39.8435 307.802C40.4855 307.802 40.9565 307.577 41.2565 307.127C41.5625 306.671 41.7155 305.981 41.7155 305.057C41.7155 304.133 41.5625 303.446 41.2565 302.996C40.9565 302.546 40.4855 302.321 39.8435 302.321C39.1835 302.321 38.7005 302.546 38.3945 302.996C38.0885 303.446 37.9355 304.133 37.9355 305.057C37.9355 305.981 38.0885 306.671 38.3945 307.127C38.7005 307.577 39.1835 307.802 39.8435 307.802ZM50.9413 309.728H48.4033L44.7853 300.395H47.1073C47.3053 300.395 47.4703 300.443 47.6023 300.539C47.7403 300.629 47.8333 300.743 47.8813 300.881L49.1773 305.066C49.2793 305.408 49.3753 305.741 49.4653 306.065C49.5613 306.389 49.6423 306.713 49.7083 307.037C49.7743 306.713 49.8553 306.389 49.9513 306.065C50.0473 305.741 50.1493 305.408 50.2573 305.066L51.6073 300.881C51.6553 300.743 51.7453 300.629 51.8773 300.539C52.0093 300.443 52.1653 300.395 52.3453 300.395H54.5593L50.9413 309.728ZM60.393 307.712H62.913V301.097C62.913 300.773 62.922 300.434 62.94 300.08L61.455 301.313C61.359 301.391 61.263 301.448 61.167 301.484C61.071 301.514 60.978 301.529 60.888 301.529C60.732 301.529 60.591 301.496 60.465 301.43C60.345 301.358 60.255 301.283 60.195 301.205L59.313 300.035L63.399 296.606H65.703V307.712H67.863V309.728H60.393V307.712ZM74.7584 301.421C75.2324 301.421 75.7004 301.499 76.1624 301.655C76.6244 301.811 77.0384 302.051 77.4044 302.375C77.7704 302.699 78.0644 303.11 78.2864 303.608C78.5144 304.1 78.6284 304.682 78.6284 305.354C78.6284 305.966 78.5144 306.548 78.2864 307.1C78.0584 307.646 77.7344 308.126 77.3144 308.54C76.9004 308.948 76.3994 309.272 75.8114 309.512C75.2234 309.752 74.5724 309.872 73.8584 309.872C73.1264 309.872 72.4694 309.758 71.8874 309.53C71.3054 309.296 70.8104 308.972 70.4024 308.558C70.0004 308.144 69.6914 307.649 69.4754 307.073C69.2654 306.497 69.1604 305.864 69.1604 305.174C69.1604 304.52 69.2864 303.869 69.5384 303.221C69.7904 302.573 70.1624 301.913 70.6544 301.241L73.6064 297.254C73.7384 297.074 73.9364 296.924 74.2004 296.804C74.4644 296.678 74.7644 296.615 75.1004 296.615H77.5844L73.6964 301.259C73.6364 301.325 73.5764 301.394 73.5164 301.466C73.4624 301.532 73.4084 301.598 73.3544 301.664C73.5644 301.586 73.7834 301.526 74.0114 301.484C74.2454 301.442 74.4944 301.421 74.7584 301.421ZM71.8424 305.552C71.8424 305.876 71.8814 306.167 71.9594 306.425C72.0374 306.683 72.1574 306.905 72.3194 307.091C72.4814 307.277 72.6854 307.421 72.9314 307.523C73.1774 307.619 73.4684 307.667 73.8044 307.667C74.0924 307.667 74.3594 307.613 74.6054 307.505C74.8574 307.397 75.0734 307.25 75.2534 307.064C75.4334 306.872 75.5744 306.65 75.6764 306.398C75.7844 306.14 75.8384 305.861 75.8384 305.561C75.8384 305.225 75.7874 304.925 75.6854 304.661C75.5894 304.397 75.4514 304.175 75.2714 303.995C75.0914 303.815 74.8724 303.677 74.6144 303.581C74.3624 303.485 74.0804 303.437 73.7684 303.437C73.4864 303.437 73.2284 303.488 72.9944 303.59C72.7604 303.686 72.5564 303.827 72.3824 304.013C72.2144 304.199 72.0824 304.421 71.9864 304.679C71.8904 304.937 71.8424 305.228 71.8424 305.552ZM83.3883 303.131H88.2483V305.381H83.3883V303.131ZM98.0489 296.471C98.6969 296.471 99.2789 296.567 99.7949 296.759C100.317 296.945 100.761 297.206 101.127 297.542C101.493 297.878 101.772 298.28 101.964 298.748C102.162 299.21 102.261 299.72 102.261 300.278C102.261 300.758 102.192 301.202 102.054 301.61C101.922 302.018 101.739 302.408 101.505 302.78C101.271 303.146 100.998 303.503 100.686 303.851C100.38 304.193 100.053 304.541 99.7049 304.895L97.1399 307.523C97.4699 307.427 97.7939 307.352 98.1119 307.298C98.4359 307.238 98.7389 307.208 99.0209 307.208H101.469C101.769 307.208 102.006 307.292 102.18 307.46C102.354 307.622 102.441 307.838 102.441 308.108V309.728H93.2249V308.828C93.2249 308.654 93.2609 308.468 93.3329 308.27C93.4049 308.072 93.5309 307.892 93.7109 307.73L97.4909 303.923C97.8149 303.599 98.0969 303.29 98.3369 302.996C98.5769 302.702 98.7749 302.414 98.9309 302.132C99.0869 301.844 99.2039 301.559 99.2819 301.277C99.3599 300.989 99.3989 300.686 99.3989 300.368C99.3989 299.846 99.2729 299.447 99.0209 299.171C98.7749 298.889 98.3969 298.748 97.8869 298.748C97.6769 298.748 97.4849 298.778 97.3109 298.838C97.1369 298.898 96.9809 298.979 96.8429 299.081C96.7049 299.183 96.5849 299.303 96.4829 299.441C96.3869 299.579 96.3089 299.729 96.2489 299.891C96.1529 300.161 96.0299 300.356 95.8799 300.476C95.7359 300.596 95.5379 300.656 95.2859 300.656C95.2259 300.656 95.1599 300.653 95.0879 300.647C95.0219 300.641 94.9529 300.632 94.8809 300.62L93.4049 300.359C93.5009 299.705 93.6839 299.135 93.9539 298.649C94.2299 298.163 94.5689 297.758 94.9709 297.434C95.3789 297.11 95.8439 296.87 96.3659 296.714C96.8879 296.552 97.4489 296.471 98.0489 296.471ZM113.152 303.167C113.152 304.313 113.029 305.306 112.783 306.146C112.537 306.986 112.195 307.682 111.757 308.234C111.325 308.786 110.809 309.197 110.209 309.467C109.615 309.737 108.97 309.872 108.274 309.872C107.578 309.872 106.933 309.737 106.339 309.467C105.751 309.197 105.241 308.786 104.809 308.234C104.377 307.682 104.038 306.986 103.792 306.146C103.552 305.306 103.432 304.313 103.432 303.167C103.432 302.021 103.552 301.028 103.792 300.188C104.038 299.348 104.377 298.652 104.809 298.1C105.241 297.548 105.751 297.14 106.339 296.876C106.933 296.606 107.578 296.471 108.274 296.471C108.97 296.471 109.615 296.606 110.209 296.876C110.809 297.14 111.325 297.548 111.757 298.1C112.195 298.652 112.537 299.348 112.783 300.188C113.029 301.028 113.152 302.021 113.152 303.167ZM110.272 303.167C110.272 302.261 110.215 301.52 110.101 300.944C109.987 300.362 109.834 299.906 109.642 299.576C109.456 299.246 109.243 299.021 109.003 298.901C108.763 298.775 108.52 298.712 108.274 298.712C108.028 298.712 107.785 298.775 107.545 298.901C107.311 299.021 107.101 299.246 106.915 299.576C106.735 299.906 106.588 300.362 106.474 300.944C106.366 301.52 106.312 302.261 106.312 303.167C106.312 304.079 106.366 304.823 106.474 305.399C106.588 305.975 106.735 306.431 106.915 306.767C107.101 307.097 107.311 307.325 107.545 307.451C107.785 307.571 108.028 307.631 108.274 307.631C108.52 307.631 108.763 307.571 109.003 307.451C109.243 307.325 109.456 307.097 109.642 306.767C109.834 306.431 109.987 305.975 110.101 305.399C110.215 304.823 110.272 304.079 110.272 303.167Z" fill="white"/>
</g>
<defs>
<clipPath id="clip0">
<rect width="317" height="394" fill="white"/>
</clipPath>
</defs>
</svg>
