<?xml version="1.0" encoding="utf-8"?>
<!-- Generator: Adobe Illustrator 22.1.0, SVG Export Plug-In . SVG Version: 6.00 Build 0)  -->
<svg version="1.1" id="Layer_1" xmlns="http://www.w3.org/2000/svg" xmlns:xlink="http://www.w3.org/1999/xlink" x="0px" y="0px"
	 viewBox="0 0 737.1 187.7" style="enable-background:new 0 0 737.1 187.7;" xml:space="preserve">
<style type="text/css">
	.st0{fill:#010101;}
	.st1{fill:#0068AF;}
</style>
<g>
	<path class="st0" d="M725.4,143.8c-0.6-7.4-5.3-11.6-16.8-11.6c-10.3,0-15.2,4.4-15.2,10.5c0,6.2,3.9,8.8,14.9,9.9
		c11,1.1,13.5,2.7,13.5,6.2c0,5.3-4.7,6.7-11.8,6.7c-9,0-12.4-2-13.2-7.9h-4.6c0,8.5,6.6,12.2,17.8,12.2c11.1,0,16.8-4.2,16.8-11.2
		c0-6.9-4.5-8.8-15.3-10.2c-10.7-1.4-13.1-2.2-13.1-5.8c0-4.9,4.9-6.1,10.2-6.1c7.3,0,10.9,1.6,12.1,7.3H725.4z M679.8,157.3
		c-1.8,5.4-5.6,8.2-14,8.2c-9,0-14.2-6-14.2-13.3h34.1c0-16-10.8-20-19.9-20c-13.2,0-19.2,8.9-19.2,18.8c0,8.6,4.8,18.8,19.2,18.8
		c11.7,0,17-6.1,19-12.4H679.8z M651.6,148.4c1.1-8.6,8.1-11.9,14.5-11.9c6.7,0,13.1,3.3,14.5,11.9H651.6z M624.5,133.3h-7.7v3.8
		h7.7v23.3c0,5.7,1.7,8.8,9.5,8.8c1.6,0,3.6-0.1,5.5-0.4v-4.2c-1,0.2-2.5,0.4-5,0.4c-4.1,0-5-1.4-5-4.5v-23.4h10v-3.8h-10v-11.1h-5
		V133.3z M605.8,127.2h5v-7.5h-5V127.2z M605.8,168.6h5v-35.3h-5V168.6z M596.3,143.8c-0.6-7.4-5.3-11.6-16.8-11.6
		c-10.3,0-15.2,4.4-15.2,10.5c0,6.2,3.9,8.8,14.9,9.9c11,1.1,13.5,2.7,13.5,6.2c0,5.3-4.7,6.7-11.7,6.7c-9,0-12.4-2-13.2-7.9h-4.6
		c0,8.5,6.7,12.2,17.9,12.2c11.1,0,16.8-4.2,16.8-11.2c0-6.9-4.5-8.8-15.3-10.2c-10.7-1.4-13.1-2.2-13.1-5.8c0-4.9,4.9-6.1,10.2-6.1
		c7.3,0,10.9,1.6,12.2,7.3H596.3z M516.1,151c0,9.8,6.4,18.8,20,18.8c13.6,0,20-8.9,20-18.8c0-9.9-6.4-18.8-20-18.8
		C522.6,132.2,516.1,141.1,516.1,151 M521.1,151c0-8.5,5.5-14.5,15-14.5c9.5,0,15,6.1,15,14.5c0,8.5-5.5,14.5-15,14.5
		C526.6,165.5,521.1,159.5,521.1,151 M474.1,151c0-9.3,6.5-14.5,14.8-14.5c10.2,0,14.2,7.5,14.2,14.5c0,9-6.2,14.5-14.2,14.5
		C478.6,165.5,474.1,158.2,474.1,151 M469.3,182.4h5v-20.8h0.1c2.3,4.5,7.8,8.2,14.4,8.2c13.2,0,19.2-8.9,19.2-18.8
		c0-8.6-4.8-18.8-19.2-18.8c-9.8,0-13,5.2-14.4,8.2h-0.1v-7.1h-5V182.4z M453.8,168.6h5v-24.1c0-7.3-4.6-12.3-14.5-12.3
		c-7.1,0-12.1,4.2-13.9,7.8c-1-3.5-4.7-7.8-12.6-7.8c-8.1,0-11.9,3.9-14,7.6h-0.1v-6.5h-5v35.3h5v-19.9c0-8.2,5.3-12.3,12.5-12.3
		c6.9,0,10,3.8,10,8.3v23.9h5v-20.9c0-6.9,4.3-11.3,12-11.3c7.3,0,10.5,3.3,10.5,9.8L453.8,168.6L453.8,168.6z M349.3,151
		c0,9.8,6.4,18.8,20,18.8c13.6,0,20-8.9,20-18.8c0-9.9-6.4-18.8-20-18.8C355.8,132.2,349.3,141.1,349.3,151 M354.3,151
		c0-8.5,5.5-14.5,15-14.5c9.5,0,15,6.1,15,14.5c0,8.5-5.5,14.5-15,14.5C359.9,165.5,354.3,159.5,354.3,151 M336.1,150.2
		c-1.7,9.2-7.4,15.1-18.9,15.1c-14.8,0-20.4-10.1-20.4-20.9c0-14.1,8.4-20.9,20.4-20.9c8.8,0,17.1,3.7,18.5,13h5
		c-1.5-12.8-13-17.6-23.6-17.6c-19,0-25.8,14.4-25.8,25.5c0,15.6,10.1,25.5,25.8,25.5c13.9,0,22.9-8.8,24-19.7H336.1z"/>
	<path class="st1" d="M723.1,21.9h-14.9v29.4H708c-4.4-6.9-13-9.7-21.9-9.7c-21.8,0-31.3,15.9-31.3,30.3c0,14.7,9.5,30.6,31.3,30.6
		c11.9,0,20.8-6.6,21.9-10h0.2v7.9h14.9V21.9z M670.3,71.9c0-9.5,5.3-18.9,19.3-18.9c13.9,0,19.2,9.4,19.2,18.9
		c0,9.7-5.3,19.1-19.2,19.1C675.6,91,670.3,81.6,670.3,71.9 M595.2,66c2.5-11.7,12.2-14.9,19.1-14.9c7.3,0,17.5,3.5,19.3,14.9H595.2
		z M649.2,75.5v-2.2c0-16.7-9.7-32.4-35.1-32.4c-20.3,0-34.4,12.2-34.4,31.3c0,15.2,9.6,30.2,35.4,30.2c21.8,0,29.6-12.6,32.8-19
		h-16.2c-2.9,4.7-7.2,8.2-17,8.2c-14.8,0-19.1-9.8-19.4-16.2H649.2z M558.4,34h14.9V21.9h-14.9V34z M558.4,100.3h14.9V43.1h-14.9
		V100.3z M532.7,100.3h14.9V21.9h-14.9V100.3z M458.7,122.1h14.9V92.4h0.2c1.1,3.5,10,10,21.9,10c21.8,0,31.3-15.9,31.3-30.6
		c0-14.4-9.5-30.3-31.3-30.3c-8.9,0-17.5,2.8-21.9,9.7h-0.2v-8.2h-14.9V122.1z M492.2,53c14,0,19.3,9.4,19.3,18.9
		c0,9.7-5.3,19.1-19.3,19.1c-13.9,0-19.2-9.4-19.2-19.1C472.9,62.4,478.2,53,492.2,53 M382.9,122.1h14.9V92.4h0.2
		c1.1,3.5,10,10,21.9,10c21.8,0,31.3-15.9,31.3-30.6c0-14.4-9.5-30.3-31.3-30.3c-8.9,0-17.5,2.8-21.9,9.7h-0.2v-8.2h-14.9V122.1z
		 M416.4,53c14,0,19.3,9.4,19.3,18.9c0,9.7-5.3,19.1-19.3,19.1c-13.9,0-19.2-9.4-19.2-19.1C397.2,62.4,402.5,53,416.4,53
		 M291.1,100.3h17.5l8-19.1h36.2l8.1,19.1h18l-34.3-77.1h-19.2L291.1,100.3z M321.4,69.1l13.4-32.5L348,69.1H321.4z"/>
	<path class="st0" d="M168.6,4.6c-7.4,0-14.5,3.2-19.3,8.7L6.4,174.7h101.7c5.9,0,11.5-2.5,15.5-7L268,4.6H168.6z"/>
	<path class="st1" d="M268,166v-144L143.7,164.4l0,0l4.6,10.3h111.1C264.1,174.7,268,170.8,268,166"/>
	<path class="st1" d="M148.7,174.7c3.5,0,6.4-2.9,6.4-6.4c0-3.6-2.9-6.4-6.4-6.4c-3.5,0-6.4,2.9-6.4,6.4
		C142.4,171.8,145.2,174.7,148.7,174.7"/>
</g>
</svg>
