<?xml version="1.0" encoding="utf-8"?>
<!-- Generator: Adobe Illustrator 22.1.0, SVG Export Plug-In . SVG Version: 6.00 Build 0)  -->
<svg version="1.1" id="Layer_1" xmlns="http://www.w3.org/2000/svg" xmlns:xlink="http://www.w3.org/1999/xlink" x="0px" y="0px"
	 viewBox="0 0 779.1 203" style="enable-background:new 0 0 779.1 203;" xml:space="preserve">
<style type="text/css">
	.st0{fill:#0068AF;}
	.st1{fill:#010101;}
</style>
<path class="st0" d="M169.7,184.5c3.5,0,6.4-2.9,6.4-6.4c0-3.6-2.9-6.4-6.4-6.4s-6.4,2.9-6.4,6.4
	C163.4,181.7,166.2,184.5,169.7,184.5"/>
<path class="st0" d="M283.7,179.7V28.1L152.8,177.9l0,0l4.8,10.8h117C279.6,188.8,283.7,184.8,283.7,179.7"/>
<path class="st1" d="M179,9.7c-7.8,0-15.3,3.4-20.3,9.2L8.2,188.8h107.1c6.2,0,12.1-2.6,16.3-7.4L283.7,9.7H179z"/>
<path class="st1" d="M765.5,156.3c-0.6-7.8-5.6-12.2-17.7-12.2c-10.8,0-16,4.6-16,11.1c0,6.5,4.1,9.3,15.7,10.4
	c11.6,1.2,14.2,2.8,14.2,6.5c0,5.6-5,7.1-12.4,7.1c-9.5,0-13.1-2.1-13.9-8.3h-4.8c0,9,7,12.9,18.7,12.9c11.7,0,17.7-4.4,17.7-11.8
	c0-7.3-4.7-9.3-16.1-10.7c-11.3-1.5-13.8-2.3-13.8-6.1c0-5.2,5.2-6.4,10.7-6.4c7.7,0,11.5,1.7,12.7,7.7L765.5,156.3L765.5,156.3z
	 M717.5,170.6c-1.9,5.7-5.9,8.6-14.7,8.6c-9.5,0-15-6.3-15-14h35.9c0-16.9-11.4-21.1-21-21.1c-13.9,0-20.2,9.4-20.2,19.8
	c0,9.1,5.1,19.8,20.2,19.8c12.3,0,17.9-6.4,20-13.1h-5.3V170.6z M687.8,161.2c1.2-9.1,8.5-12.5,15.3-12.5c7.1,0,13.8,3.5,15.3,12.5
	H687.8z M659.2,145.3h-8.1v4h8.1v24.5c0,6,1.8,9.3,10,9.3c1.7,0,3.8-0.1,5.8-0.4v-4.4c-1.1,0.2-2.6,0.4-5.3,0.4
	c-4.3,0-5.3-1.5-5.3-4.7v-24.6H675v-4h-10.5v-11.7h-5.3V145.3z M639.6,138.9h5.3V131h-5.3V138.9z M639.6,182.5h5.3v-37.2h-5.3V182.5
	z M629.5,156.3c-0.6-7.8-5.6-12.2-17.7-12.2c-10.8,0-16,4.6-16,11.1c0,6.5,4.1,9.3,15.7,10.4s14.2,2.8,14.2,6.5
	c0,5.6-5,7.1-12.3,7.1c-9.5,0-13.1-2.1-13.9-8.3h-4.8c0,9,7.1,12.9,18.9,12.9c11.7,0,17.7-4.4,17.7-11.8c0-7.3-4.7-9.3-16.1-10.7
	c-11.3-1.5-13.8-2.3-13.8-6.1c0-5.2,5.2-6.4,10.7-6.4c7.7,0,11.5,1.7,12.9,7.7L629.5,156.3L629.5,156.3z M545.1,163.9
	c0,10.3,6.7,19.8,21.1,19.8c14.3,0,21.1-9.4,21.1-19.8c0-10.4-6.7-19.8-21.1-19.8C551.9,144.1,545.1,153.5,545.1,163.9 M550.3,163.9
	c0-9,5.8-15.4,15.8-15.4c10,0,15.8,6.4,15.8,15.4s-5.8,15.3-15.8,15.3C556.1,179.2,550.3,172.9,550.3,163.9 M500.8,163.9
	c0-9.8,6.8-15.4,15.6-15.4c10.7,0,15,7.9,15,15.4c0,9.5-6.5,15.3-15,15.3C505.6,179.2,500.8,171.5,500.8,163.9 M495.8,196.9h5.3V175
	h0.1c2.4,4.7,8.2,8.6,15.2,8.6c13.9,0,20.2-9.4,20.2-19.8c0-9.1-5.1-19.8-20.2-19.8c-10.3,0-13.7,5.5-15.2,8.6H501v-7.5h-5.3V196.9z
	 M479.4,182.5h5.3v-25.4c0-7.7-4.8-13-15.3-13c-7.5,0-12.7,4.4-14.6,8.2c-1.1-3.7-5-8.2-13.3-8.2c-8.5,0-12.5,4.1-14.7,8h-0.1v-6.8
	h-5.3v37.2h5.3v-21c0-8.6,5.6-13,13.2-13c7.3,0,10.5,4,10.5,8.7v25.2h5.3v-22c0-7.3,4.5-11.9,12.6-11.9c7.7,0,11.1,3.5,11.1,10.3
	L479.4,182.5L479.4,182.5z M369.4,163.9c0,10.3,6.7,19.8,21.1,19.8c14.3,0,21.1-9.4,21.1-19.8c0-10.4-6.7-19.8-21.1-19.8
	C376.2,144.1,369.4,153.5,369.4,163.9 M374.6,163.9c0-9,5.8-15.4,15.8-15.4s15.8,6.4,15.8,15.4s-5.8,15.3-15.8,15.3
	C380.5,179.2,374.6,172.9,374.6,163.9 M355.5,163c-1.8,9.7-7.8,15.9-19.9,15.9c-15.6,0-21.5-10.6-21.5-22c0-14.9,8.8-22,21.5-22
	c9.3,0,18,3.9,19.5,13.7h5.3c-1.6-13.5-13.7-18.5-24.9-18.5c-20,0-27.2,15.2-27.2,26.9c0,16.4,10.6,26.9,27.2,26.9
	c14.6,0,24.1-9.3,25.3-20.8L355.5,163L355.5,163z"/>
<path class="st0" d="M763.1,28h-15.7v31h-0.2c-4.6-7.3-13.7-10.2-23.1-10.2c-23,0-33,16.7-33,31.9c0,15.5,10,32.2,33,32.2
	c12.5,0,21.9-7,23.1-10.5h0.2v8.3h15.7L763.1,28L763.1,28z M707.5,80.6c0-10,5.6-19.9,20.3-19.9c14.6,0,20.2,9.9,20.2,19.9
	c0,10.2-5.6,20.1-20.2,20.1C713.1,100.7,707.5,90.8,707.5,80.6 M628.4,74.4c2.6-12.3,12.9-15.7,20.1-15.7c7.7,0,18.4,3.7,20.3,15.7
	H628.4z M685.3,84.3V82c0-17.6-10.2-34.1-37-34.1c-21.4,0-36.2,12.9-36.2,33c0,16,10.1,31.8,37.3,31.8c23,0,31.2-13.3,34.5-20h-17.1
	c-3.1,5-7.6,8.6-17.9,8.6c-15.6,0-20.1-10.3-20.4-17.1h56.8V84.3z M589.6,40.7h15.7V28h-15.7V40.7z M589.6,110.5h15.7V50.3h-15.7
	V110.5z M562.6,110.5h15.7V28h-15.7V110.5z M484.6,133.5h15.7v-31.3h0.2c1.2,3.7,10.5,10.5,23.1,10.5c23,0,33-16.7,33-32.2
	c0-15.2-10-31.9-33-31.9c-9.4,0-18.4,2.9-23.1,10.2h-0.2v-8.6h-15.7V133.5z M519.9,60.7c14.7,0,20.3,9.9,20.3,19.9
	c0,10.2-5.6,20.1-20.3,20.1c-14.6,0-20.2-9.9-20.2-20.1C499.6,70.6,505.1,60.7,519.9,60.7 M404.8,133.5h15.7v-31.3h0.2
	c1.2,3.7,10.5,10.5,23.1,10.5c23,0,33-16.7,33-32.2c0-15.2-10-31.9-33-31.9c-9.4,0-18.4,2.9-23.1,10.2h-0.2v-8.6h-15.7V133.5z
	 M440.1,60.7c14.7,0,20.3,9.9,20.3,19.9c0,10.2-5.6,20.1-20.3,20.1c-14.6,0-20.2-9.9-20.2-20.1C419.8,70.6,425.4,60.7,440.1,60.7
	 M308.1,110.5h18.4l8.4-20.1h38.1l8.5,20.1h19l-36.1-81.2h-20.2L308.1,110.5z M340,77.7l14.1-34.2L368,77.7H340z"/>
</svg>
