<?xml version="1.0" encoding="UTF-8" standalone="no"?>
<svg
   xmlns:dc="http://purl.org/dc/elements/1.1/"
   xmlns:cc="http://creativecommons.org/ns#"
   xmlns:rdf="http://www.w3.org/1999/02/22-rdf-syntax-ns#"
   xmlns:svg="http://www.w3.org/2000/svg"
   xmlns="http://www.w3.org/2000/svg"
   viewBox="0 0 266.66666 41.653332"
   height="41.653332"
   width="266.66666"
   xml:space="preserve"
   id="svg2"
   version="1.1"><metadata
     id="metadata8"><rdf:RDF><cc:Work
         rdf:about=""><dc:format>image/svg+xml</dc:format><dc:type
           rdf:resource="http://purl.org/dc/dcmitype/StillImage" /></cc:Work></rdf:RDF></metadata><defs
     id="defs6" /><g
     transform="matrix(1.3333333,0,0,-1.3333333,0,41.653333)"
     id="g10"><g
       transform="scale(0.1)"
       id="g12"><path
         id="path14"
         style="fill:#0e315f;fill-opacity:1;fill-rule:evenodd;stroke:none"
         d="M 431.746,0.0585938 242.945,297.934 c -11.59,19.336 -42.554,19.336 -55.699,-0.782 L 0,0.0585938 H 61.8906 L 118.383,89.7969 h 120.703 l 31.727,51.0581 H 150.105 L 215.867,243.809 369.863,0.0585938 h 61.883 v 0" /><path
         id="path16"
         style="fill:#0e315f;fill-opacity:1;fill-rule:evenodd;stroke:none"
         d="m 2000,0 -188.82,297.887 c -11.59,19.359 -42.58,19.359 -55.71,-0.782 L 1568.21,0 h 61.92 l 56.47,89.7656 h 120.7 l 31.74,51.0544 H 1718.36 L 1784.13,243.719 1938.09,0 H 2000 v 0" /><path
         id="path18"
         style="fill:#0e315f;fill-opacity:1;fill-rule:evenodd;stroke:none"
         d="m 708.508,126.926 c 51.148,0 92.664,41.492 92.664,92.664 0,51.172 -41.516,92.683 -92.664,92.683 l -254.465,0.09 V 0.0585938 h 57.195 V 261.41 h 197.27 c 23.156,0 41.859,-18.715 41.859,-41.82 0,-23.07 -18.703,-41.82 -41.859,-41.82 H 545.813 L 729.387,0.390625 h 73.789 L 671.816,126.793 l 36.692,0.133 v 0" /><path
         id="path20"
         style="fill:#0e315f;fill-opacity:1;fill-rule:evenodd;stroke:none"
         d="m 1359.43,312.305 -33.51,-50.86 h 138.2 V 0.0585938 h 57.22 V 261.445 h 122.98 v 50.809 l -284.89,0.051" /><path
         id="path22"
         style="fill:#0e315f;fill-opacity:1;fill-rule:evenodd;stroke:none"
         d="m 1228.04,181.594 h -0.22 v 0 h -162.84 c 0,0 -0.03,0 -0.05,0 -21.91,0 -39.69,17.742 -39.69,39.644 0,21.895 17.78,39.649 39.69,39.649 l 202.26,0.019 31.69,51.09 -233.95,-0.047 c -50.11,0 -90.735,-40.625 -90.735,-90.711 0,-50.086 40.625,-90.711 90.735,-90.711 0.08,0 0.13,0 0.22,0 v 0 h 162.8 v 0 c 0.03,0 0.07,0 0.09,0 21.9,0 39.67,-17.75 39.67,-39.6715 0,-21.9102 -17.77,-39.625 -39.67,-39.625 -0.02,0 -0.06,0 -0.09,0 v 0 L 1014.11,51.0586 982.398,0 1228.04,0.144531 c 50.1,0 90.73,40.597669 90.73,90.710969 0,50.1135 -40.63,90.7385 -90.73,90.7385" /><path
         id="path24"
         style="fill:#0e315f;fill-opacity:1;fill-rule:evenodd;stroke:none"
         d="M 861.109,311.605 860.793,0 h 56.98 v 311.641 l -56.664,-0.036" /></g></g></svg>