<?xml version="1.0" encoding="utf-8"?>
<!-- Generator: Adobe Illustrator 22.1.0, SVG Export Plug-In . SVG Version: 6.00 Build 0)  -->
<svg version="1.1" id="Layer_1" xmlns="http://www.w3.org/2000/svg" xmlns:xlink="http://www.w3.org/1999/xlink" x="0px" y="0px"
	 viewBox="0 0 796 238.9" style="enable-background:new 0 0 796 238.9;" xml:space="preserve">
<style type="text/css">
	.st0{fill:#62BB46;}
</style>
<g>
	<path class="st0" d="M124.1,93.8c0,0,17.3-6.8,17.4-28.7c0.1-25.9-22.1-38.7-37.8-38.7c-13.1,0-80.4,0-80.4,0v57.9H6.1v25.5h17.2
		v60.7c0,0,77.7,0,87.6,0c9.9,0,38.7-11,38.4-39.7C148.9,102,129.4,96.3,124.1,93.8z M49.9,51.6c0,0,44.4,0,51.4,0
		c7.1,0,14.9,8.5,14.9,16.5s-8.5,16.5-14.2,16.5c-5.7,0-52.1,0-52.1,0L49.9,51.6L49.9,51.6z M107.4,146c-6,0-57.5,0-57.5,0v-36.5
		c0,0,50,0,57.9,0s15.2,8.5,15.6,18.3C123.7,137.4,113.4,146,107.4,146z"/>
	<path class="st0" d="M255.7,66.1c-29.3-18.9-58-4.1-71,4.9c-16.3,11.4-31.8,52.9-7.5,80.6c33.4,38.1,85.4,18.8,98.8-4.7L256.7,135
		c0,0-9.7,18.1-32.6,18.5c-22.8,0.4-33.8-18.5-33.8-30.1h92.5C282.9,123.3,284.3,84.6,255.7,66.1z M189.7,103.7
		c0,0,4.9-26.6,32.7-26.6c27.7,0,32.7,26.6,32.7,26.6H189.7z"/>
	<path class="st0" d="M307.5,59.7v110.7h22.7V101c0,0,6.4-21.8,28.4-21.4c22,0.4,25.9,18.8,25.9,24.9s0,66,0,66h23.4V101
		c0-7.1-6.9-44-44.4-44c-21.3,0.1-33.4,17.5-33.4,17.5V59.8L307.5,59.7z"/>
	<polygon class="st0" points="426.4,81.2 440.3,81.2 440.3,170.5 463.5,170.5 463.5,81.2 480.4,81.2 480.4,60.1 463.7,60.1 
		463.7,23.4 440.3,30.2 440.3,60.1 426.4,60.1 	"/>
	<path class="st0" d="M498.4,26.6h22.9v105.9c0,0-1.4,12.2,22.6,22.3l-9.8,18.4c-21.1-7.2-35.7-21.9-35.7-37.3
		C498.4,115.8,498.4,26.6,498.4,26.6z"/>
	<path class="st0" d="M641.3,66.6c-29.8-18.1-56.3-5.7-67.9,2c-10.1,6.7-32.9,35.6-17.9,69.3c20.8,46.9,82.5,43.6,106.3,9.5
		l-19.4-11.9c0,0-9.7,18.1-32.6,18.5c-22.8,0.4-33.8-18.5-33.8-30.1h93C669,123.8,671.1,84.7,641.3,66.6z M575.8,104.2
		c0,0,4.4-26.6,32.2-26.6s32.7,26.6,32.7,26.6H575.8z"/>
	<path class="st0" d="M689.2,60.1h23.5v69.5c0,0,1.8,22.1,25.2,22.5c23.5,0.4,28.1-16.5,28.4-21.4c0.4-4.9,0-70.5,0-70.5h23.5
		c0,0,0,101.5,0,108.5c0,10.3-10.2,46.9-50.3,46.9c-33.7,0-46.8-21.4-46.8-21.4l19.3-12.6c0,0,12.3,13,25.6,13
		c13.3,0,31.2-5.4,30.8-38c0,0-10.9,16.4-32.6,16.7c-21.8,0.3-46.6-13.4-46.6-47.5S689.2,60.1,689.2,60.1z"/>
</g>
</svg>
