<?xml version="1.0" encoding="utf-8"?>
<!-- Generator: Adobe Illustrator 22.1.0, SVG Export Plug-In . SVG Version: 6.00 Build 0)  -->
<svg version="1.1" id="Layer_1" xmlns="http://www.w3.org/2000/svg" xmlns:xlink="http://www.w3.org/1999/xlink" x="0px" y="0px"
	 viewBox="0 0 439.2 87" style="enable-background:new 0 0 439.2 87;" xml:space="preserve">
<style type="text/css">
	.st0{fill:#231F20;}
</style>
<g>
	<g>
		<path class="st0" d="M39.4,3.5v68.4l15.5,4.9V19.5c0-2.7,1.2-4.5,3.1-3.9c2.5,0.7,3,3.2,3,5.9v22.9c9.6,4.7,17.2,0,17.2-12.3
			c0-12.6-4.5-18.2-17.5-22.7C55.6,7.6,46,4.7,39.4,3.5"/>
		<path class="st0" d="M57.9,66.8L82.8,58c2.8-1,3.2-2.5,1-3.2c-2.3-0.8-6.4-0.5-9.3,0.5l-16.6,5.8v-9.3l0.9-0.3
			c0,0,4.8-1.7,11.5-2.4c6.7-0.7,15,0.1,21.5,2.5c7.3,2.3,8.1,5.7,6.3,8.1c-1.9,2.3-6.4,4-6.4,4L57.9,75.8V66.8z"/>
		<path class="st0" d="M11.1,65.9c-7.5-2.1-8.7-6.5-5.3-9c3.2-2.3,8.5-4.1,8.5-4.1l22.2-7.9v9l-16,5.7c-2.8,1-3.2,2.4-1,3.2
			c2.3,0.8,6.4,0.6,9.3-0.5l7.7-2.8v8c-0.5,0.1-1,0.2-1.5,0.3C27.3,69.1,19.1,68.5,11.1,65.9"/>
		<path class="st0" d="M93.2,76.7c1,0,1.9-0.4,2.6-1.1c0.7-0.7,1.1-1.6,1.1-2.6c0-1-0.4-1.9-1.1-2.6c-0.7-0.7-1.6-1.1-2.6-1.1
			c-2,0-3.6,1.6-3.6,3.6c0,1,0.4,1.9,1.1,2.6C91.3,76.3,92.2,76.7,93.2,76.7 M90.1,73.1c0-0.8,0.3-1.6,0.9-2.1
			c0.6-0.6,1.3-0.9,2.2-0.9c0.8,0,1.6,0.3,2.1,0.9c0.6,0.6,0.9,1.3,0.9,2.1c0,1.7-1.3,3-3,3c-0.8,0-1.6-0.3-2.2-0.9
			C90.4,74.6,90.1,73.9,90.1,73.1"/>
		<path class="st0" d="M94.9,74.8c-0.1,0-0.1-0.1-0.1-0.2c0-0.1,0-0.2,0-0.3l0-0.5c0-0.2-0.1-0.4-0.2-0.5c-0.1-0.1-0.1-0.1-0.2-0.2
			c0.1-0.1,0.2-0.2,0.3-0.3c0.1-0.2,0.2-0.4,0.2-0.6c0-0.5-0.2-0.8-0.6-1C94.1,71,93.8,71,93.5,71h-1.8h-0.1v0.1v3.9V75h0.1h0.5h0.1
			v-0.1v-1.6h1.1c0.2,0,0.3,0,0.4,0.1c0.1,0.1,0.2,0.2,0.2,0.4l0,0.6c0,0.2,0,0.3,0,0.3c0,0.1,0,0.1,0.1,0.1l0,0h0.1h0.6H95v-0.1
			L94.9,74.8L94.9,74.8L94.9,74.8z M94.1,72.2c0,0.2-0.1,0.4-0.2,0.5c-0.1,0.1-0.3,0.1-0.5,0.1h-1.1v-1.1h1.2c0.2,0,0.3,0,0.4,0.1
			C94.1,71.8,94.1,71.9,94.1,72.2"/>
	</g>
	<g>
		<path class="st0" d="M149.4,21.6l-18.7,0c-0.1,0-0.1,0.1-0.1,0.1v43.7c0,0.1,0.1,0.1,0.1,0.1h7.6c0.1,0,0.1-0.1,0.1-0.1l0-39
			c0,0,0-0.1,0-0.1l8.7,0c3.2,0,4.9,3.2,4.9,9c0,5.8-1.7,9-4.9,9l-5.2,0c-0.1,0-0.1,0.1-0.1,0.1V49c0,0.1,0.1,0.1,0.1,0.1h7.5
			c2.6,0,5.2-1.2,7.1-3.3c2.2-2.5,3.4-6.1,3.4-10.4C159.8,27.1,155.7,21.6,149.4,21.6"/>
		<path class="st0" d="M172.2,21.6h-7.6c-0.1,0-0.1,0.1-0.1,0.1v43.7c0,0.1,0.1,0.1,0.1,0.1h7.6c0.1,0,0.1-0.1,0.1-0.1V21.8
			C172.4,21.7,172.3,21.6,172.2,21.6"/>
		<path class="st0" d="M205.3,32.3c0-0.1-0.1-0.1-0.1-0.1h-13.5c-12.1,0-13.7,8.9-13.7,16.7l0,6.8c0,5.8,3.6,10,8.6,10h7.4
			c0.1,0,0.1-0.1,0.1-0.1V61c0-0.1-0.1-0.1-0.1-0.1l-5.3,0c-1.2,0-2.8-0.5-2.8-4.7v-7.3c0-4.8,0.4-7.9,1.5-9.7
			c1.1-1.9,2.8-2.2,4.4-2.2h5.8c0,0,0,0,0,0.1c0,0,0,28.5,0,28.5c0,0.1,0.1,0.1,0.1,0.1h7.6c0.1,0,0.1-0.1,0.1-0.1v-33V32.3z"/>
		<path class="st0" d="M259.9,39.9l-3.7-0.3c-2.8-0.2-4.9-1.8-4.9-6.4c0-5.4,2.4-6.8,5.6-6.8h10.3c0.1,0,0.1-0.1,0.1-0.1v-4.5
			c0-0.1-0.1-0.1-0.1-0.1H267h0l-11.2,0c-7.1,0-12.1,4.1-12.1,12.4v0.4c0,6.5,4,11.2,10,11.7l3.7,0.3c2.8,0.2,4.6,2.7,4.6,6.6V54
			c0,2.4-0.6,6.8-5.8,6.8h-10.5h-0.2c-0.1,0-0.1,0.1-0.1,0.1v4.5c0,0.1,0.1,0.1,0.1,0.1h13.3c4.1,0,11-1.7,11-12.8
			c0-4.1-0.9-7.2-2.8-9.6C265.5,41.3,263.1,40.2,259.9,39.9"/>
		<path class="st0" d="M322,32.3c0-0.1-0.1-0.1-0.1-0.1h-13.5c-12.1,0-13.6,8.9-13.6,16.7l0,6.8c0,5.8,3.6,10,8.6,10h7.3
			c0.1,0,0.1-0.1,0.1-0.1V61c0-0.1-0.1-0.1-0.1-0.1l-5.3,0c-1.2,0-2.8-0.5-2.8-4.7v-7.3c0-4.8,0.5-7.9,1.4-9.7
			c1.1-1.9,2.8-2.2,4.3-2.2h5.8c0,0,0,0,0.1,0.1l0,28.5c0,0.1,0.1,0.1,0.1,0.1h7.6c0.1,0,0.1-0.1,0.1-0.1V32.3z"/>
		<path class="st0" d="M291.5,32.2h-8.2c0,0,0,0,0-0.1v0v-5.5c0-0.1-0.1-0.1-0.1-0.1h-7.6c-0.1,0-0.1,0.1-0.1,0.1v29
			c0,5.8,3.6,10,8.6,10h5.4c0.1,0,0.1-0.1,0.1-0.1V61c0-0.1-0.1-0.1-0.1-0.1h-3.3c-0.9,0-2.9-0.1-2.9-4.3V37c0,0,0,0,0,0
			c2.5,0,8.2,0,8.2,0c0.1,0,0.1-0.1,0.1-0.1v-4.5C291.6,32.2,291.6,32.2,291.5,32.2"/>
		<path class="st0" d="M344.4,32.2h-8.2c0,0-0.1,0-0.1-0.1v0v-5.5c0-0.1-0.1-0.1-0.1-0.1h-7.6c-0.1,0-0.1,0.1-0.1,0.1v29
			c0,5.8,3.6,10,8.6,10h5.4c0.1,0,0.1-0.1,0.1-0.1V61c0-0.1-0.1-0.1-0.1-0.1H339c-0.9,0-2.8-0.1-2.8-4.3V37c0,0,0,0,0,0
			c2.5,0,8.2,0,8.2,0c0.1,0,0.1-0.1,0.1-0.1v-4.5C344.6,32.2,344.5,32.2,344.4,32.2"/>
		<path class="st0" d="M357,32.2h-7.6c-0.1,0-0.1,0.1-0.1,0.1v33.2c0,0.1,0.1,0.1,0.1,0.1h7.6c0.1,0,0.1-0.1,0.1-0.1V32.3
			C357.1,32.2,357,32.2,357,32.2"/>
		<path class="st0" d="M357,21.6h-7.6c-0.1,0-0.1,0.1-0.1,0.1v6.4c0,0.1,0.1,0.1,0.1,0.1h7.6c0.1,0,0.1-0.1,0.1-0.1v-6.4
			C357.1,21.7,357,21.6,357,21.6"/>
		<path class="st0" d="M409.4,32.2h-13.5c-0.1,0-0.1,0.1-0.1,0.1l0,33.2c0,0.1,0.1,0.1,0.1,0.1h7.6c0.1,0,0.1-0.1,0.1-0.1l0-28.5
			c0,0,0-0.1,0.1-0.1l5.8,0c1.6,0,3.3,0.3,4.4,2.1c1,1.6,1.5,4.5,1.5,9c0,0.2,0,17.5,0,17.5c0,0.1,0.1,0.1,0.1,0.1h7.6
			c0.1,0,0.1-0.1,0.1-0.1V48.9C423,41,421.5,32.2,409.4,32.2"/>
		<path class="st0" d="M376.4,32.2c-12.7,0-14.3,8.9-14.3,16.7c0,7.8,1.6,16.8,14.3,16.8c12.7,0,14.3-9,14.3-16.8
			C390.7,41.1,389.1,32.2,376.4,32.2 M381.2,58.6c-1.2,2-3.1,2.2-4.8,2.2c-1.7,0-3.6-0.3-4.8-2.2c-1.1-1.8-1.6-4.9-1.6-9.7v0
			c0-5.8,0.7-9,2.3-10.6c0.9-0.9,2.2-1.3,4.1-1.3c1.9,0,3.2,0.4,4.1,1.3c1.6,1.6,2.3,4.8,2.3,10.6C382.8,53.8,382.3,56.9,381.2,58.6
			"/>
		<path class="st0" d="M209.6,32.2c-0.1,0-0.1,0.1-0.1,0.1l11.2,32.9c0,0.1,0,0.2,0,0.3l-6.3,16.3c0,0.1,0,0.1,0.1,0.1h6.6
			c0.1,0,0.2-0.1,0.2-0.1L241,32.3c0-0.1,0-0.1-0.1-0.1h-7.2c-0.1,0-0.2,0.1-0.2,0.1l-8.4,21.6c0,0.1-0.1,0.1-0.1,0l-7.4-21.6
			c0-0.1-0.1-0.1-0.2-0.1H209.6z"/>
		<path class="st0" d="M431.8,65.7c1,0,1.9-0.4,2.6-1.1c0.7-0.7,1.1-1.6,1.1-2.6c0-1-0.4-1.9-1.1-2.6c-0.7-0.7-1.6-1.1-2.6-1.1
			c-2,0-3.6,1.6-3.6,3.6c0,1,0.4,1.9,1.1,2.6C429.9,65.3,430.8,65.7,431.8,65.7 M428.8,62c0-0.8,0.3-1.6,0.9-2.1
			c0.6-0.6,1.3-0.9,2.1-0.9c0.8,0,1.6,0.3,2.1,0.9c0.6,0.6,0.9,1.3,0.9,2.1c0,1.7-1.3,3-3,3c-0.8,0-1.6-0.3-2.1-0.9
			C429.1,63.6,428.8,62.8,428.8,62"/>
		<path class="st0" d="M433.6,63.7c-0.1,0-0.1-0.1-0.1-0.2c0-0.1,0-0.2,0-0.3l0-0.5c0-0.2-0.1-0.4-0.2-0.5c0-0.1-0.1-0.1-0.2-0.2
			c0.1-0.1,0.2-0.2,0.3-0.3c0.1-0.2,0.2-0.4,0.2-0.6c0-0.5-0.2-0.8-0.6-1c-0.2-0.1-0.5-0.1-0.8-0.1h-1.8h-0.1V60v3.9V64h0.1h0.5h0.1
			v-0.1v-1.6h1.1c0.2,0,0.3,0,0.4,0.1c0.1,0.1,0.2,0.2,0.2,0.4l0,0.6c0,0.2,0,0.3,0,0.3c0,0.1,0,0.1,0,0.1l0,0h0.1h0.6h0.1v-0.1
			L433.6,63.7L433.6,63.7L433.6,63.7z M432.8,61.1c0,0.2-0.1,0.4-0.2,0.4c-0.1,0.1-0.3,0.1-0.5,0.1H431v-1.1h1.2
			c0.2,0,0.3,0,0.4,0.1C432.7,60.7,432.8,60.9,432.8,61.1"/>
	</g>
</g>
</svg>
