<?xml version="1.0" encoding="UTF-8" standalone="no"?>
<svg
   xmlns:dc="http://purl.org/dc/elements/1.1/"
   xmlns:cc="http://creativecommons.org/ns#"
   xmlns:rdf="http://www.w3.org/1999/02/22-rdf-syntax-ns#"
   xmlns:svg="http://www.w3.org/2000/svg"
   xmlns="http://www.w3.org/2000/svg"
   viewBox="0 0 528 184.12"
   height="184.12"
   width="528"
   xml:space="preserve"
   id="svg2"
   version="1.1"><metadata
     id="metadata8"><rdf:RDF><cc:Work
         rdf:about=""><dc:format>image/svg+xml</dc:format><dc:type
           rdf:resource="http://purl.org/dc/dcmitype/StillImage" /></cc:Work></rdf:RDF></metadata><defs
     id="defs6" /><g
     transform="matrix(1.3333333,0,0,-1.3333333,0,184.12)"
     id="g10"><g
       transform="scale(0.1)"
       id="g12"><path
         id="path14"
         style="fill:#a5a3a2;fill-opacity:1;fill-rule:evenodd;stroke:none"
         d="M 416.047,414.242 V 260.031 h -52 V 208.02 c -34.668,0 -69.34,0 -104.008,0 V 104.012 H 208.031 V 52 c 34.664,0 69.34,0 104.004,0 V 0 h 52.012 v 52 h 52 v 52.012 h -52 V 52 H 312.035 V 156.012 H 208.031 v 104.019 h 52.008 v 52.008 h -52.008 v 450.375 h 208.016 v -14.23 c 0,-90.524 73.371,-163.891 163.898,-163.891 90.52,0 163.887,73.367 163.887,163.891 0,90.519 -73.371,163.89 -163.887,163.89 H 260.039 v 52.004 c -34.672,0 -69.34,0 -104.019,0 v -52.004 h 52.011 V 1016.09 H 156.02 v 104 h -52.004 v -52 h 104.015 v 52 h 52.008 v -52 h 52 v 52 h 267.906 c 205.399,0 371.91,-166.504 371.91,-371.906 0,-277.543 -291.851,-453.883 -535.808,-333.942 z m -52,-206.222 h 52 v -52.008 h -52 z M 52.0078,1068.09 H 0 v -52 h 52.0078 v -52.012 h 52.0082 v 52.012 H 52.0078 Z m 312.0392,-52 h -52.008 v -52.012 h 52.008 v 52.012" /><path
         id="path16"
         style="fill:#c91e25;fill-opacity:1;fill-rule:nonzero;stroke:none"
         d="m 1048.68,528.949 v 148.156 c 88.48,-32.929 188.49,-49.386 300.02,-49.386 135.4,0 203.1,45.265 203.1,135.816 0,65.84 -41.57,98.77 -124.7,98.77 h -138.28 c -180.68,0 -271.01,82.308 -271.01,246.925 0,181.08 128.61,271.63 385.83,271.63 98.77,0 192.4,-14.41 280.89,-43.21 v -148.16 c -88.49,32.92 -182.12,49.39 -280.89,49.39 -148.16,0 -222.23,-43.22 -222.23,-129.65 0,-65.85 35.8,-98.77 107.41,-98.77 h 138.28 c 192.19,0 288.29,-82.315 288.29,-246.925 0,-185.199 -122.23,-277.797 -366.69,-277.797 -111.53,0 -211.54,14.403 -300.02,43.211" /><path
         id="path18"
         style="fill:#c91e25;fill-opacity:1;fill-rule:nonzero;stroke:none"
         d="m 1971.58,872.184 h 276.56 v 4.937 c 0,89.715 -45.27,134.579 -135.82,134.579 -86.42,0 -133.33,-46.512 -140.74,-139.516 z m 140.74,267.916 c 196.72,0 295.09,-100.42 295.09,-301.252 0,-26.758 -1.84,-53.504 -5.55,-80.254 h -430.28 c 0,-91.364 67.07,-137.047 201.25,-137.047 65.43,0 130.87,6.172 196.31,18.527 V 510.426 c -57.21,-12.344 -126.77,-18.516 -208.65,-18.516 -235.01,0 -352.5,110.508 -352.5,331.504 0,211.126 101.44,316.686 304.33,316.686" /><path
         id="path20"
         style="fill:#c91e25;fill-opacity:1;fill-rule:nonzero;stroke:none"
         d="m 2530.26,491.91 v 648.19 h 126.56 l 19.13,-93.83 c 58.02,62.55 127.79,93.83 209.27,93.83 81.49,0 137.25,-29.63 167.3,-88.89 66.26,59.26 135.6,88.89 208.04,88.89 148.98,0 223.47,-82.1 223.47,-246.311 V 491.91 h -163.59 v 408.051 c 0,72.016 -32.52,108.029 -97.54,108.029 -48.56,0 -95.28,-21.814 -140.14,-65.431 V 491.91 h -163.58 v 406.199 c 0,73.25 -30.05,109.881 -90.14,109.881 -47.74,0 -92.8,-21.814 -135.18,-65.431 V 491.91 h -163.6" /><path
         id="path22"
         style="fill:#c91e25;fill-opacity:1;fill-rule:nonzero;stroke:none"
         d="M 3801.96,1140.1 V 491.91 h -163.59 v 648.19 z m 0,234.59 v -129.64 h -163.59 v 129.64 h 163.59" /><path
         id="path24"
         style="fill:#a5a3a2;fill-opacity:1;fill-rule:nonzero;stroke:none"
         d="M 1840.04,131.27 H 1810 l 67.04,157.921 h 31.47 l 68.47,-157.921 h -31.48 l -18,43.058 h -52.46 l 10.06,25.402 h 31.8 l -24.84,59.309 -52.02,-127.769" /><path
         id="path26"
         style="fill:#a5a3a2;fill-opacity:1;fill-rule:nonzero;stroke:none"
         d="m 2046,131.27 v 157.921 h 30.37 l 53.55,-119.832 52.46,119.832 h 29.27 V 131.27 h -27.06 V 241.262 L 2141.74,131.27 h -24.95 l -43.73,109.992 V 131.27 H 2046" /><path
         id="path28"
         style="fill:#a5a3a2;fill-opacity:1;fill-rule:nonzero;stroke:none"
         d="M 2346.38,247.219 V 131.27 h -22.86 l -3.54,14.8 c -13.33,-9.871 -27.46,-14.8 -42.41,-14.8 -23.7,0 -35.55,14.031 -35.55,42.07 v 73.879 h 29.26 v -73.11 c 0,-12.82 5.6,-19.199 16.79,-19.199 9.49,0 19.18,3.789 29.04,11.371 v 80.938 h 29.27" /><path
         id="path30"
         style="fill:#a5a3a2;fill-opacity:1;fill-rule:nonzero;stroke:none"
         d="m 2373.98,131.27 v 115.949 h 22.64 l 3.64,-14.797 c 10.16,9.867 20.91,14.797 32.25,14.797 v -23.641 c -10.9,0 -20.65,-4.519 -29.27,-13.578 v -78.73 h -29.26" /><path
         id="path32"
         style="fill:#a5a3a2;fill-opacity:1;fill-rule:nonzero;stroke:none"
         d="m 2493.92,182.059 c -14.07,0 -21.1,-4.778 -21.1,-14.36 0,-10.289 5.88,-15.449 17.67,-15.449 9.72,0 18.74,3.02 27.06,9.039 v 18.57 c -7.36,1.461 -15.25,2.2 -23.63,2.2 z m -50.37,-14.68 c 0,23.043 16.79,34.57 50.37,34.57 7.87,0 15.75,-0.738 23.63,-2.219 v 8.719 c 0,10.379 -7.48,15.582 -22.42,15.582 -12.66,0 -26.72,-1.84 -42.19,-5.519 v 23.187 c 15.47,3.68 29.53,5.52 42.19,5.52 34.45,0 51.68,-12.739 51.68,-38.207 V 131.27 h -17.01 l -10.38,10.378 c -10.08,-6.929 -21.2,-10.378 -33.36,-10.378 -28.33,0 -42.51,12.039 -42.51,36.109" /><path
         id="path34"
         style="fill:#a5a3a2;fill-opacity:1;fill-rule:nonzero;stroke:none"
         d="m 2572.76,265.988 h 21.65 l 4.42,-18.769 h 29.15 v -23.188 h -25.96 v -53.34 c 0,-10.82 4.68,-16.23 14.03,-16.23 h 11.93 V 131.27 h -26.07 c -19.43,0 -29.15,10.421 -29.15,31.25 v 103.468" /><path
         id="path36"
         style="fill:#a5a3a2;fill-opacity:1;fill-rule:nonzero;stroke:none"
         d="m 2692.7,182.059 c -14.07,0 -21.1,-4.778 -21.1,-14.36 0,-10.289 5.89,-15.449 17.67,-15.449 9.72,0 18.74,3.02 27.06,9.039 v 18.57 c -7.37,1.461 -15.25,2.2 -23.63,2.2 z m -50.37,-14.68 c 0,23.043 16.79,34.57 50.37,34.57 7.88,0 15.75,-0.738 23.63,-2.219 v 8.719 c 0,10.379 -7.48,15.582 -22.42,15.582 -12.66,0 -26.72,-1.84 -42.19,-5.519 v 23.187 c 15.47,3.68 29.53,5.52 42.19,5.52 34.45,0 51.68,-12.739 51.68,-38.207 V 131.27 h -17.01 l -10.38,10.378 c -10.08,-6.929 -21.2,-10.378 -33.36,-10.378 -28.33,0 -42.51,12.039 -42.51,36.109" /><path
         id="path38"
         style="fill:#a5a3a2;fill-opacity:1;fill-rule:nonzero;stroke:none"
         d="m 2951.55,137.898 c -13.62,-5.16 -29.09,-7.726 -46.37,-7.726 -56.7,0 -85.04,27.406 -85.04,82.258 0,51.898 28.34,77.859 85.04,77.859 17.28,0 32.75,-2.57 46.37,-7.73 v -26.5 c -13.62,5.882 -28.35,8.832 -44.18,8.832 -37.91,0 -56.87,-17.481 -56.87,-52.461 0,-37.91 18.96,-56.871 56.87,-56.871 15.83,0 30.56,2.941 44.18,8.839 v -26.5" /><path
         id="path40"
         style="fill:#a5a3a2;fill-opacity:1;fill-rule:nonzero;stroke:none"
         d="m 3028.29,153.352 c 18.78,0 28.17,12.109 28.17,36.328 0,23.64 -9.39,35.461 -28.17,35.461 -18.77,0 -28.15,-11.821 -28.15,-35.461 0,-24.219 9.38,-36.328 28.15,-36.328 z m -57.43,35.878 c 0,38.891 19.15,58.309 57.43,58.309 38.28,0 57.42,-19.418 57.42,-58.309 0,-38.789 -19.14,-58.191 -57.42,-58.191 -38.14,0 -57.27,19.402 -57.43,58.191" /><path
         id="path42"
         style="fill:#a5a3a2;fill-opacity:1;fill-rule:nonzero;stroke:none"
         d="m 3107.81,131.27 v 115.949 h 22.63 l 3.43,-16.778 c 10.38,11.188 22.87,16.778 37.44,16.778 14.58,0 24.55,-5.289 29.93,-15.899 11.86,10.61 24.26,15.899 37.21,15.899 26.66,0 39.98,-14.688 39.98,-44.059 v -71.89 h -29.27 v 72.992 c 0,12.879 -5.81,19.316 -17.44,19.316 -8.69,0 -17.05,-3.898 -25.07,-11.699 V 131.27 h -29.27 v 72.66 c 0,13.109 -5.38,19.648 -16.12,19.648 -8.55,0 -16.6,-3.898 -24.19,-11.699 V 131.27 h -29.26" /><path
         id="path44"
         style="fill:#a5a3a2;fill-opacity:1;fill-rule:nonzero;stroke:none"
         d="m 3335.29,161.52 c 7.3,-3.981 15.13,-5.961 23.52,-5.961 17.46,0 26.18,12.261 26.18,36.781 0,20.832 -9.65,31.238 -28.94,31.238 -8.33,0 -15.23,-0.508 -20.76,-1.539 z m -29.25,80.96 c 15.38,3.149 31.65,4.739 48.79,4.739 39.39,0 59.09,-18.367 59.09,-55.11 0,-40.558 -18.33,-60.839 -54.99,-60.839 -7.81,0 -15.69,1.832 -23.64,5.511 V 89.3008 h -29.25 V 242.48" /><path
         id="path46"
         style="fill:#a5a3a2;fill-opacity:1;fill-rule:nonzero;stroke:none"
         d="m 3480.85,182.059 c -14.06,0 -21.09,-4.778 -21.09,-14.36 0,-10.289 5.88,-15.449 17.66,-15.449 9.73,0 18.74,3.02 27.06,9.039 v 18.57 c -7.36,1.461 -15.24,2.2 -23.63,2.2 z m -50.36,-14.68 c 0,23.043 16.79,34.57 50.36,34.57 7.87,0 15.75,-0.738 23.63,-2.219 v 8.719 c 0,10.379 -7.48,15.582 -22.42,15.582 -12.66,0 -26.72,-1.84 -42.19,-5.519 v 23.187 c 15.47,3.68 29.53,5.52 42.19,5.52 34.45,0 51.68,-12.739 51.68,-38.207 V 131.27 h -17 l -10.38,10.378 c -10.09,-6.929 -21.2,-10.378 -33.36,-10.378 -28.33,0 -42.51,12.039 -42.51,36.109" /><path
         id="path48"
         style="fill:#a5a3a2;fill-opacity:1;fill-rule:nonzero;stroke:none"
         d="m 3561.36,131.27 v 115.949 h 22.62 l 3.66,-17.008 c 11.11,11.34 23.78,17.008 37.99,17.008 27.46,0 41.19,-14.278 41.19,-42.84 V 131.27 h -29.27 v 73.109 c 0,12.793 -6.37,19.199 -19.1,19.199 -9.5,0 -18.77,-3.777 -27.83,-11.367 V 131.27 h -29.26" /><path
         id="path50"
         style="fill:#a5a3a2;fill-opacity:1;fill-rule:nonzero;stroke:none"
         d="m 3680.62,247.219 h 31.02 l 29.28,-83.489 28.6,83.489 H 3800 L 3751.85,127.84 c -8.55,-21.059 -22.2,-36.0392 -40.98,-44.9416 l -14.13,19.9926 c 12.97,5.66 22.39,14.91 28.28,27.711 l -44.4,116.617" /><path
         id="path52"
         style="fill:#a5a3a2;fill-opacity:1;fill-rule:nonzero;stroke:none"
         d="m 3888.68,1346.03 h 2.73 c 9.99,0 22.09,-1.82 22.09,-14.53 0,-12.97 -11.22,-14.92 -21.56,-14.92 h -3.26 z m 14.78,-36.84 c 11.75,1.43 19.54,11.1 19.54,22.7 0,7.78 -3.86,15.44 -10.71,19.46 -6.43,3.63 -14.2,3.76 -21.45,3.76 h -12.26 v -81.27 h 10.1 v 34.38 h 4.22 l 23.96,-34.38 h 12.26 l -25.66,35.35" /><path
         id="path54"
         style="fill:#a5a3a2;fill-opacity:1;fill-rule:nonzero;stroke:none"
         d="m 3836.89,1313.79 c 0,-33.91 27.63,-61.55 61.58,-61.55 33.9,0 61.53,27.64 61.53,61.55 0,33.92 -27.63,61.5 -61.53,61.5 -33.95,0 -61.58,-27.58 -61.58,-61.5 m 7.57,0 c 0,29.78 24.21,53.97 54.01,53.97 29.75,0 53.96,-24.19 53.96,-53.97 0,-29.77 -24.21,-54.02 -53.96,-54.02 -29.8,0 -54.01,24.25 -54.01,54.02" /></g></g></svg>