<?xml version="1.0" encoding="utf-8"?>
<!-- Generator: Adobe Illustrator 22.1.0, SVG Export Plug-In . SVG Version: 6.00 Build 0)  -->
<svg version="1.1" id="Layer_1" xmlns="http://www.w3.org/2000/svg" xmlns:xlink="http://www.w3.org/1999/xlink" x="0px" y="0px"
	 viewBox="0 0 1000 193" style="enable-background:new 0 0 1000 193;" xml:space="preserve">
<style type="text/css">
	.st0{fill:#293F4D;}
	.st1{fill:#F1592A;}
</style>
<g>
	<path class="st0" d="M194.1,120.8h32.5v20.5c0,10.3,0,20.5,15.8,20.5c16,0,16-10.5,16-26.3c0-12.5-2.5-17.8-11-23.5l-31-20.8
		c-16.5-11.2-21-23.5-21-41.5c0-13.8,1.2-27,12.7-36.5c6.5-5.5,18.5-10.5,35.5-10.5c19,0,45,7.8,45,38v17.5h-32.3V45.5
		c0-8.5,0-18-14.2-18c-8.8,0-15,3.3-15,17.5c0,14.8,3.2,18,10.2,22.8l32,21.8c6.3,4.5,13,10.7,16.8,17.3c4.7,8,4.7,13.5,4.7,27.7
		c0,15.8,0,25.5-5.8,34.8c-9.7,15.8-30,17.5-42,17.5c-27.8,0-49.1-10.5-49.1-40.3V120.8z"/>
	<path class="st0" d="M326.5,6.2H412v27H359v41.5h49.8v26.8H359v54.3h55.3V183h-87.8V6.2z"/>
	<path class="st0" d="M449.4,6.3h32.3v176.6h-32.3V6.3z"/>
	<path class="st0" d="M516.2,120.8h32.5v20.5c0,10.3,0,20.5,15.8,20.5c16,0,16-10.5,16-26.3c0-12.5-2.5-17.8-11-23.5l-31-20.8
		c-16.5-11.2-21-23.5-21-41.5c0-13.8,1.3-27,12.7-36.5c6.5-5.5,18.5-10.5,35.5-10.5c19,0,45,7.8,45,38v17.5h-32.2V45.5
		c0-8.5,0-18-14.3-18c-8.7,0-15,3.3-15,17.5c0,14.8,3.2,18,10.2,22.8l32,21.8c6.3,4.5,13,10.7,16.8,17.3c4.7,8,4.7,13.5,4.7,27.7
		c0,15.8,0,25.5-5.8,34.8c-9.7,15.8-30,17.5-42,17.5c-27.8,0-49-10.5-49-40.3V120.8z"/>
	<path class="st0" d="M648.6,6.5h52.8l21,123.6L743.2,6.5h52.3V183h-32.2l3-153.1L737.7,183h-30.5L678.2,30l2.5,153.1h-32V6.5z"/>
	<path class="st0" d="M830.6,6.5h32.3V183h-32.3V6.5z"/>
	<path class="st0" d="M961.7,71V48.5c0-13.2-2.2-20.7-16.5-20.7c-14.2,0-15,11.2-15,19.3v94.5c0,10.5,1.7,20,16.2,20
		c15.3,0,15.3-11,15.3-21.8v-23H994v25c0,14.2,0,45-48,45c-9.3,0-24-1.7-34.3-8.5c-14-9.3-14-23-14-32.8v-96c0-14.3,0.8-24,8.8-32.8
		c12.7-13.8,32.8-14,39.5-14c48,0,48,28.5,48,41V71H961.7z"/>
	<path class="st0" d="M62.9,62.4h56.9c0-31.3-25.5-56.7-56.9-56.7C31.5,5.7,6,31.1,6,62.4c0,31.3,25.5,56.7,56.9,56.7V62.4z"/>
	<path class="st1" d="M73.9,130.3H17c0,31.3,25.5,56.7,56.9,56.7c31.4,0,56.9-25.4,56.9-56.7c0-31.3-25.5-56.7-56.9-56.7V130.3z"/>
</g>
</svg>
