<?xml version="1.0" encoding="utf-8"?>
<!-- Generator: Adobe Illustrator 22.1.0, SVG Export Plug-In . SVG Version: 6.00 Build 0)  -->
<svg version="1.1" id="Layer_1" xmlns="http://www.w3.org/2000/svg" xmlns:xlink="http://www.w3.org/1999/xlink" x="0px" y="0px"
	 viewBox="0 0 2000.6 331.4" style="enable-background:new 0 0 2000.6 331.4;" xml:space="preserve">
<style type="text/css">
	.st0{fill:#293E40;}
	.st1{fill:#81B5A1;}
</style>
<g transform="translate(0.000000,293.000000) scale(0.100000,-0.100000)">
	<path class="st0" d="M7701.4,2724.8c-166-63-257-235-214-403c27-108,88-181,191-229c52-24,72-28,145-27c64,0,97,6,133,22
		c70,32,140,102,173,175c59,129,28,294-71,386c-73,67-117,84-225,88C7768.4,2738.8,7726.4,2734.8,7701.4,2724.8z"/>
	<path class="st0" d="M813.4,1859.8c-269-26-504-173-599-373c-37-78-51-147-51-245c0-147,41-245,145-348c58-58,91-80,185-127
		c63-31,183-79,265-108c218-75,299-119,330-179c36-70,4-138-90-185c-53-26-69-29-150-29c-160,1-306,47-444,139l-80,54l-126-184
		c-69-101-125-190-125-197c0-16,89-74,196-127c289-144,657-181,916-92c322,111,488,347,450,643c-20,163-100,288-242,383
		c-91,61-160,91-375,165c-254,88-310,121-321,191s71,139,188,158c108,18,259-17,380-88l67-39l122,186c67,103,122,193,123,201
		c1,19-175,111-276,144C1146.4,1853.8,964.4,1874.8,813.4,1859.8z"/>
	<path class="st0" d="M2580.4,1859.8c-435-49-762-381-832-847c-57-374,47-701,296-939c139-132,298-213,487-250c97-18,326-18,435,1
		c202,35,401,137,548,280l60,59l-155,154l-154,155l-55-49c-111-99-232-154-379-175c-218-30-435,84-532,282c-20,41-39,95-42,122
		l-7,47h680h680l7,46c9,68,7,147-5,249c-47,381-281,696-605,814C2875.4,1856.8,2722.4,1874.8,2580.4,1859.8z M2794.4,1413.8
		c136-40,246-157,274-291l7-33h-396c-455,0-419-10-364,101C2405.4,1371.8,2611.4,1467.8,2794.4,1413.8z"/>
	<path class="st0" d="M11180.4,1858.8c-446-48-776-397-837-883c-17-130-8-327,19-429c43-164,121-303,240-429
		c144-152,316-248,520-290c138-29,373-21,516,16c115,30,261,97,351,161c74,53,174,143,174,157c0,12-282,308-293,308
		c-5,0-36-24-68-54c-101-91-224-146-373-167c-216-30-433,85-530,282c-20,41-39,95-42,122l-7,47h676c530,0,678,3,684,13
		c4,6,7,75,7,152c-1,103-7,164-22,233C12081.4,1600.8,11665.4,1912.8,11180.4,1858.8z M11438.4,1391.8c35-17,84-49,108-71
		c49-45,102-136,112-193l7-38h-397h-396l6,23c43,144,161,262,304,303C11255.4,1436.8,11362.4,1426.8,11438.4,1391.8z"/>
	<path class="st0" d="M13373.4,1858.8c-134-16-259-61-372-135l-68-44v70v70h-260h-260v-985v-985h270h270v643v643l58,56
		c116,113,254,171,412,171c185,0,300-75,372-244c23-54,23-55,26-661l3-608h269h270v533c0,673-13,813-89,980c-57,127-173,263-291,344
		C13804.4,1827.8,13581.4,1883.8,13373.4,1858.8z"/>
	<path class="st0" d="M9182.4,1843.8c-283-51-554-239-699-484c-56-93-95-199-120-320c-30-144-24-340,14-479c106-382,412-661,809-736
		c113-21,319-19,432,4c171,35,334,114,466,225c79,66,186,193,173,206c-5,4-92,72-194,150c-102,79-190,147-196,152c-8,6-38-17-91-70
		c-231-231-569-241-783-23c-158,162-194,405-89,612c44,88,154,196,239,236c210,99,443,57,614-109c38-38,71-68,73-68
		c12,0,363,313,363,324c0,19-156,167-225,213C9737.4,1831.8,9451.4,1892.8,9182.4,1843.8z"/>
	<path class="st0" d="M4753.4,1832.8c-114-19-261-79-357-145l-43-29v81v80h-260h-260v-985v-985h270h270v630v631l64,62
		c152,151,394,212,594,151l22-6v255c0,223-2,256-16,261C5020.4,1840.8,4793.4,1839.8,4753.4,1832.8z"/>
	<path class="st0" d="M5225.4,1802.8c3-10,204-453,448-986l443-967h187h187l443,968c244,532,445,975,448,985c4,16-12,17-272,15
		l-277-3l-261-582c-144-321-265-583-268-583c-4,0-116,244-250,543c-134,298-252,561-264,585l-20,42h-274
		C5239.4,1819.8,5221.4,1818.8,5225.4,1802.8z"/>
	<path class="st0" d="M7563.4,834.8v-985h265h265v985v985h-265h-265V834.8z"/>
	<path class="st0" d="M16705.4,1810.8c2-5,178-448,392-985l389-976h202h201l205,551c143,386,206,545,211,532c4-10,97-256,207-548
		l199-530h203h204l382,965c210,531,382,973,383,983c0,16-19,17-263,17h-262l-210-550c-139-365-213-546-219-537c-4,7-97,253-206,547
		l-197,535l-224,3l-224,2l-205-550c-113-302-207-550-210-550s-99,248-214,550l-210,550h-269
		C16819.4,1819.8,16703.4,1815.8,16705.4,1810.8z"/>
	<path class="st0" d="M19413.4,84.8c0-22,4-25,35-25h35v-105v-105h30h30v105v105h35c31,0,35,3,35,25v25h-100h-100V84.8z"/>
	<path class="st0" d="M19633.4-20.2v-130h30c30,0,30,0,30,58l1,57l22-37c29-50,58-50,92-1l25,38v-58c0-54,1-57,25-57h25v130
		c0,117-2,130-17,130c-12,0-33-26-59-71l-42-71l-46,71c-32,49-52,71-66,71C19634.4,109.8,19633.4,103.8,19633.4-20.2z"/>
</g>
<path class="st1" d="M1570,110.7c-63.2,0-114.5,51.3-114.5,114.5c0,31.9,13.2,60.5,34,81.5c11.7,11.8,25.2,11.5,38.6-0.6
	c9.2-8.3,31.1-11.7,41.8-11.7c14.5,0,26.6,1.8,37.9,9.5c21.9,15.1,32.1,13.3,43.4,1.9c20.5-20.7,33.2-49.2,33.2-80.6
	C1684.5,162,1633.2,110.7,1570,110.7z M1570,282.6c-31.7,0-57.3-25.7-57.3-57.3s25.7-57.3,57.3-57.3c31.7,0,57.3,25.7,57.3,57.3
	S1601.6,282.6,1570,282.6z"/>
</svg>
