<?xml version="1.0" encoding="UTF-8" standalone="no"?>
<svg
   xmlns:dc="http://purl.org/dc/elements/1.1/"
   xmlns:cc="http://creativecommons.org/ns#"
   xmlns:rdf="http://www.w3.org/1999/02/22-rdf-syntax-ns#"
   xmlns:svg="http://www.w3.org/2000/svg"
   xmlns="http://www.w3.org/2000/svg"
   viewBox="0 0 1281.7067 372.02667"
   height="372.02667"
   width="1281.7067"
   xml:space="preserve"
   id="svg2"
   version="1.1"><metadata
     id="metadata8"><rdf:RDF><cc:Work
         rdf:about=""><dc:format>image/svg+xml</dc:format><dc:type
           rdf:resource="http://purl.org/dc/dcmitype/StillImage" /></cc:Work></rdf:RDF></metadata><defs
     id="defs6" /><g
     transform="matrix(1.3333333,0,0,-1.3333333,0,372.02667)"
     id="g10"><g
       transform="scale(0.1)"
       id="g12"><path
         id="path14"
         style="fill:#0daa4c;fill-opacity:1;fill-rule:nonzero;stroke:none"
         d="m 1877.73,2305.63 c 0,0 -484.58,318.39 -997.011,318.39 -955.5276,0 -962.3596,-920.99 -803.2034,-920.99 131.5664,0 85.7034,640.3 796.2304,768.79 574.674,103.78 1003.984,-166.19 1003.984,-166.19" /><path
         id="path16"
         style="fill:#122638;fill-opacity:1;fill-rule:nonzero;stroke:none"
         d="m 1091.81,1683.19 283.21,-435.16 c 15.11,-22.54 22.69,-38.23 22.69,-47.11 0,-10.78 -4.81,-20.29 -14.12,-28.32 -10.85,-10.06 -24.59,-15.03 -41.19,-15.03 -17.05,0 -30.63,5.34 -40.53,16.31 -5.7,5.54 -13.22,15.69 -22.57,30.81 l -8.5,13.2 -258.38,397.42 -139.982,-104.35 v -304.31 c 0,-10.09 -2.594,-18.56 -7.692,-25.26 -11.012,-15.03 -26.824,-22.54 -47.516,-22.54 -20.847,0 -36.582,7.51 -47.39,22.54 -5.274,6.7 -7.883,15.17 -7.883,25.26 v 763.79 c 0,10.13 2.609,18.43 7.883,25.12 10.808,15.11 26.543,22.71 47.39,22.71 20.692,0 36.504,-7.6 47.516,-22.71 5.098,-6.69 7.692,-14.99 7.692,-25.12 V 1630.9 l 450.462,373.5 c 12.49,10.02 26.5,15.06 42.12,15.06 15.51,0 28.48,-4.39 38.82,-13.18 10.91,-8.35 16.35,-18.78 16.35,-31.47 0,-12.18 -6.26,-23.15 -18.78,-33.22 l -309.6,-258.4" /><path
         id="path18"
         style="fill:#122638;fill-opacity:1;fill-rule:nonzero;stroke:none"
         d="m 1584.29,1206.65 v 763.79 c 0,10.13 2.68,18.43 7.83,25.12 10.9,15.11 26.66,22.71 47.51,22.71 20.65,0 36.62,-7.6 47.43,-22.71 5.16,-6.69 7.81,-14.99 7.81,-25.12 v -763.79 c 0,-10.09 -2.65,-18.56 -7.81,-25.26 -10.81,-15.03 -26.78,-22.54 -47.43,-22.54 -20.85,0 -36.61,7.51 -47.51,22.54 -5.15,6.7 -7.83,15.17 -7.83,25.26" /><path
         id="path20"
         style="fill:#122638;fill-opacity:1;fill-rule:nonzero;stroke:none"
         d="m 2098.56,1585.7 h 195.33 c 67.94,0 122.4,13.89 163.43,41.46 48.33,32.32 72.39,75.87 72.39,130.86 0,54.87 -24.39,98.05 -73.25,129.43 -41.88,27.26 -97.93,40.91 -167.9,40.91 h -190 z m 347.05,-69.16 168.13,-273.41 c 11.34,-18.9 17.06,-34.33 17.06,-45.95 0,-10.91 -5.17,-20.13 -15.6,-27.6 -9.81,-7.11 -21.13,-10.73 -34.15,-10.73 -20.81,0 -38.7,11.88 -53.72,35.77 l -192.88,301.81 h -235.89 v -289.78 c 0,-10.09 -2.61,-18.56 -7.76,-25.26 -10.77,-15.03 -26.64,-22.54 -47.35,-22.54 -20.81,0 -36.58,7.51 -47.61,22.54 -5.04,6.7 -7.7,15.17 -7.7,25.26 v 756.29 c -1.11,18.42 4.99,32.88 17.86,43.34 11.99,7.95 28.57,11.74 49.98,11.31 h 234.01 c 52.99,0 97.3,-4.73 133.16,-14.17 35.8,-9.39 69.85,-25.24 102.69,-47.46 76.18,-52.37 114.32,-118.76 114.32,-199.21 0,-62.51 -24.59,-118.02 -73.96,-166.59 -28.99,-28.58 -69.27,-53.17 -120.59,-73.62" /><path
         id="path22"
         style="fill:#122638;fill-opacity:1;fill-rule:nonzero;stroke:none"
         d="m 2957.64,1454.96 h 313.5 l -153.2,380.31 z m 346.95,-89.28 h -383.53 l -70.04,-174.17 c -8.81,-22.22 -26.73,-33.34 -53.56,-33.34 -16.17,0 -29.73,4.74 -40.56,14.43 -9.95,8.79 -14.83,18.62 -14.83,29.6 0,5.39 1.4,11.3 3.89,17.67 l 309.7,743.07 c 15.07,36.79 35.76,55.33 62.28,55.33 23.31,0 39.38,-7.85 48.26,-23.31 4.52,-8.43 9.97,-19.71 16.33,-33.92 l 299.54,-741.17 c 2.58,-6.86 3.74,-12.79 3.74,-18.28 0,-10.89 -4.8,-20.71 -14.65,-29.59 -10.88,-9.16 -24.4,-13.83 -40.44,-13.83 -27.01,0 -44.87,11.41 -53.81,34.08 l -72.32,173.43" /><path
         id="path24"
         style="fill:#122638;fill-opacity:1;fill-rule:nonzero;stroke:none"
         d="m 4200.13,1378.21 v 592.23 c 0,10.13 2.64,18.43 7.81,25.12 10.92,15.11 26.8,22.71 47.46,22.71 20.71,0 36.61,-7.6 47.44,-22.71 5.09,-6.69 7.88,-14.99 7.88,-25.12 v -728.58 c 0,-55.4 -18.15,-83.01 -54.55,-83.01 -13.51,0 -25.29,4.37 -35.8,13.15 -8.74,8.41 -19.15,21.16 -31.02,38.38 l -414.01,601.02 v -604.75 c 0,-10.09 -2.6,-18.56 -7.73,-25.26 -10.97,-15.03 -26.7,-22.54 -47.54,-22.54 -20.64,0 -36.54,7.51 -47.42,22.54 -5.21,6.7 -7.83,15.17 -7.83,25.26 v 729.78 c 0,54.52 17.67,81.84 52.97,81.84 23.78,0 43.8,-11.68 59.79,-34.61 l 422.55,-605.45" /><path
         id="path26"
         style="fill:#838889;fill-opacity:1;fill-rule:nonzero;stroke:none"
         d="m 4983.17,1267.35 v 201.51 H 4840.2 c -51.77,0 -90.1,-8.25 -115.06,-24.8 -24.9,-16.69 -37.36,-42.12 -37.36,-76.33 0,-34.2 15.18,-60.85 45.43,-79.79 22.44,-13.66 51.04,-20.59 85.8,-20.59 z m 0,305.6 v 41.08 c -0.89,63.45 -9.56,103.83 -25.7,120.91 -18.51,22.06 -45.86,33.08 -82.03,33.08 h -229.4 c -11.77,0 -21.47,2.35 -29.44,7.35 -17.58,10.16 -26.27,25.08 -26.27,44.54 0,19.56 8.69,34.51 26.27,44.77 7.97,4.86 17.67,7.41 29.44,7.41 h 210.33 c 42.97,0 78.2,-4.64 105.47,-13.58 27.38,-9.1 50.69,-23.65 69.63,-43.62 37.17,-39.99 55.77,-98.27 55.77,-174.51 v -387.67 c 0,-31.73 -3.28,-53.51 -9.55,-65.19 -8.74,-18.75 -28.06,-27.91 -57.88,-27.91 h -182.54 c -69.35,0 -121.81,10.25 -157.58,30.87 -30.31,17.45 -54.97,42.68 -73.97,75.46 -19.54,33.62 -29.42,68.39 -29.42,103.95 0,50.9 17.65,96.35 52.95,136.42 39.49,44.46 98.32,66.64 176.56,66.64 h 177.36" /><path
         id="path28"
         style="fill:#838889;fill-opacity:1;fill-rule:nonzero;stroke:none"
         d="m 5373.11,1768.02 v -553.43 c 0,-11.75 -2.38,-21.55 -7.37,-29.28 -10.27,-17.58 -25.07,-26.46 -44.7,-26.46 -19.58,0 -34.55,8.88 -44.61,26.46 -5.02,7.73 -7.37,17.53 -7.37,29.28 v 582.6 c 0,26.88 4.58,45.33 13.84,54.95 11.78,12.81 37.46,19.39 77.02,19.95 h 192.01 c 85.98,-0.56 147.09,-24.73 183.27,-72.62 26.32,-34.68 39.98,-96.72 41,-186.14 v -398.74 c 0,-11.75 -2.4,-21.55 -7.35,-29.28 -10.34,-17.58 -25.18,-26.46 -44.75,-26.46 -19.55,0 -34.45,8.88 -44.61,26.46 -4.85,7.73 -7.32,17.53 -7.32,29.28 v 390.55 c -0.56,70.02 -11.81,114.75 -33.7,134.19 -21.98,19.13 -58.93,28.69 -110.62,28.69 h -154.74" /><path
         id="path30"
         style="fill:#838889;fill-opacity:1;fill-rule:nonzero;stroke:none"
         d="m 6335.46,1267.35 v 201.51 h -142.91 c -51.88,0 -90.17,-8.25 -115.13,-24.8 -24.92,-16.69 -37.38,-42.12 -37.38,-76.33 0,-34.2 15.23,-60.85 45.43,-79.79 22.45,-13.66 51.11,-20.59 85.86,-20.59 z m 0,305.6 v 41.08 c -0.97,63.45 -9.57,103.83 -25.77,120.91 -18.51,22.06 -45.82,33.08 -81.94,33.08 h -229.43 c -11.76,0 -21.56,2.35 -29.36,7.35 -17.66,10.16 -26.45,25.08 -26.45,44.54 0,19.56 8.79,34.51 26.45,44.77 7.8,4.86 17.6,7.41 29.36,7.41 h 210.34 c 43.03,0 78.13,-4.64 105.52,-13.58 27.35,-9.1 50.57,-23.65 69.57,-43.62 37.21,-39.99 55.74,-98.27 55.74,-174.51 v -387.67 c 0,-31.73 -3.21,-53.51 -9.54,-65.19 -8.78,-18.75 -28.09,-27.91 -57.85,-27.91 h -182.55 c -69.32,0 -121.88,10.25 -157.52,30.87 -30.41,17.45 -55.12,42.68 -74.03,75.46 -19.53,33.62 -29.42,68.39 -29.42,103.95 0,50.9 17.61,96.35 52.88,136.42 39.48,44.46 98.35,66.64 176.67,66.64 h 177.33" /><path
         id="path32"
         style="fill:#838889;fill-opacity:1;fill-rule:nonzero;stroke:none"
         d="m 6614,1365.52 v 739.65 c 0,11.64 2.34,21.38 7.29,29.19 10.28,17.64 25.17,26.36 44.72,26.36 19.52,0 34.51,-8.72 44.67,-26.36 4.89,-7.81 7.38,-17.55 7.38,-29.19 V 1382.4 c 0.44,-43.4 5.86,-73.75 16.08,-90.83 7.26,-12.83 18.11,-23.03 32.37,-30.78 l 28.53,-14.73 c 14.22,-7.79 21.2,-19.76 21.2,-35.82 0,-18.18 -4.9,-31.31 -14.58,-39.67 -8.83,-7.73 -19.23,-11.72 -31.56,-11.72 -21.04,0 -42.88,5.95 -65.63,17.67 -22.64,11.69 -40.97,26.58 -54.48,44.62 -24.03,31.31 -35.99,79.48 -35.99,144.38" /><path
         id="path34"
         style="fill:#838889;fill-opacity:1;fill-rule:nonzero;stroke:none"
         d="m 7164.03,1242.48 -197.87,558.55 c -2.46,7.22 -3.67,14.02 -3.67,20.43 0,12.65 4.67,24.52 13.97,35.11 9.79,11.25 22.44,16.92 38.15,16.92 24.86,0 41.63,-12.74 50.51,-38.08 l 153.23,-454.51 146.55,453.76 c 8.25,25.9 25.18,38.83 50.63,38.83 15.11,0 27.76,-5.67 38.13,-16.92 9.25,-10.19 13.83,-21.91 13.83,-35.11 0,-5.86 -1.46,-12.69 -4.42,-20.43 l -264.54,-778.45 c -20.97,-61.529 -43.22,-103.529 -66.71,-126.049 -24.91,-23.941 -57.17,-35.961 -96.68,-35.961 -48.35,0 -72.65,16.602 -72.65,49.782 0,14.738 6.9,26.929 20.74,36.726 5.14,3.91 24.68,9.57 58.51,16.832 17.01,3.981 30.05,13.469 38.73,28.641 1.96,4.879 7.08,20.059 15.55,45.449 l 68.01,204.48" /><path
         id="path36"
         style="fill:#838889;fill-opacity:1;fill-rule:nonzero;stroke:none"
         d="m 7855.19,1872.09 h 149.48 c 11.21,0 20.99,-2.55 29.34,-7.41 17.08,-10.26 25.64,-25.21 25.64,-44.77 0,-19.46 -8.56,-34.38 -25.64,-44.54 -7.85,-5 -17.57,-7.35 -29.34,-7.35 h -149.48 v -553.43 c 0,-11.75 -2.56,-21.55 -7.33,-29.28 -9.85,-17.58 -24.77,-26.46 -44.74,-26.46 -19.66,0 -34.47,8.88 -44.75,26.46 -4.79,7.73 -7.3,17.53 -7.3,29.28 v 553.43 h -44.76 c -12.09,0 -21.99,2.07 -29.13,6.58 -17.79,10.69 -26.61,25.85 -26.61,45.31 0,19.56 8.82,34.51 26.61,44.77 8.2,4.86 17.92,7.41 29.13,7.41 h 44.76 v 233.08 c 0,11.64 2.51,21.38 7.3,29.19 10.28,17.64 25.09,26.36 44.75,26.36 19.97,0 34.89,-8.72 44.74,-26.36 4.77,-7.81 7.33,-17.55 7.33,-29.19 v -233.08" /><path
         id="path38"
         style="fill:#838889;fill-opacity:1;fill-rule:nonzero;stroke:none"
         d="m 8238.43,1214.59 v 602.5 c 0,11.69 2.37,21.51 7.29,29.29 10.23,17.55 25.06,26.33 44.71,26.33 19.54,0 34.31,-8.78 44.77,-26.33 4.83,-7.78 7.22,-17.6 7.22,-29.29 v -602.5 c 0,-11.75 -2.39,-21.55 -7.22,-29.28 -10.46,-17.58 -25.23,-26.46 -44.77,-26.46 -19.65,0 -34.48,8.88 -44.71,26.46 -4.92,7.73 -7.29,17.53 -7.29,29.28 z m 53.46,966.01 c 16.95,0 31.75,-6.86 43.97,-20.56 10.25,-11.2 15.35,-24.61 15.35,-40.26 0,-18.07 -6.53,-33.23 -19.72,-45.51 -11.73,-10.2 -25.43,-15.34 -41.06,-15.34 -18.04,0 -33.18,6.58 -45.52,19.78 -10.22,11.79 -15.23,25.62 -15.23,41.79 0,17.04 6.81,32.06 20.51,44.71 11.27,10.25 25.07,15.39 41.7,15.39" /><path
         id="path40"
         style="fill:#838889;fill-opacity:1;fill-rule:nonzero;stroke:none"
         d="m 8730.96,1872.09 h 131.91 c 14.11,0 27.64,-5.51 40.31,-16.14 10.16,-9.32 15.43,-21.09 15.43,-35.21 0,-14.11 -6.11,-26.7 -18.36,-37.45 -11.62,-10.18 -24.45,-15.27 -38.07,-15.27 h -123.29 c -42.86,0 -73.9,-8.65 -93,-25.66 -13.64,-11.81 -22.43,-28.36 -26.35,-49.89 -2.83,-15.64 -4.43,-35.23 -4.43,-58.64 v -236.01 c 0,-30.21 2.4,-53.52 6.97,-69.57 4.81,-16.11 12.57,-29.13 23.81,-38.91 19.1,-17.17 50.14,-25.64 93,-25.64 h 126.13 c 14.2,0 26.73,-5.39 37.39,-16.05 10.77,-9.82 16.2,-22.28 16.2,-37.41 0,-17.2 -7.36,-30.54 -22.01,-40.38 -10.3,-6.8 -24.89,-10.25 -44.11,-10.25 h -121.53 c -147.09,0.52 -220.41,77.64 -219.88,231.58 v 249.19 c -0.53,153.98 72.79,231.15 219.88,231.71" /><path
         id="path42"
         style="fill:#838889;fill-opacity:1;fill-rule:nonzero;stroke:none"
         d="m 9335.42,1872.71 c 62.6,0 122.5,-13.42 179.61,-40.23 22.47,-10.25 33.81,-25.2 33.81,-44.77 0,-15.13 -4.64,-27.91 -14.05,-38.1 -8.7,-10.28 -20.9,-15.32 -36.64,-15.32 -15.71,0 -41.14,5.66 -76.12,16.81 -38.12,11.78 -69.7,17.62 -94.66,17.62 -33.63,0 -61.08,-6.86 -82.1,-20.54 -23.94,-14.74 -35.75,-33.43 -35.75,-56.49 0,-24.85 13.61,-46.88 40.96,-65.96 15.2,-10.19 53.25,-31.49 114.31,-63.77 76.78,-40.5 127.32,-70.01 151.8,-88.68 46.84,-36.61 70.2,-83.12 70.2,-139.92 0,-52.31 -22.28,-94.34 -67.45,-126.14 -44.75,-32.22 -100.61,-48.37 -167.01,-48.37 -71.81,0 -141.92,18.85 -210.27,56.46 -38.63,21.5 -58.02,44.21 -58.02,68.17 0,14.21 5.89,26.83 17.7,38.08 8.25,7.91 17.73,11.8 28.61,11.8 14.13,0 36.14,-8.34 65.9,-24.89 59.65,-32.29 117.76,-48.42 174.43,-48.42 39.56,0 68.36,7.3 86.33,21.97 17.18,13.71 25.87,30.12 25.87,49.13 0,29.25 -19.06,55.4 -57.08,78.39 -18.25,10.78 -59.04,32.75 -122.6,66.02 -66.36,34.12 -113.81,64.46 -142.19,90.76 -37.05,34.83 -55.62,76.3 -55.62,124.69 0,27.85 7.01,54.7 20.9,80.66 13.99,25.9 32.59,46.3 55.97,61.47 40.65,26.45 91.72,39.57 153.16,39.57" /><path
         id="path44"
         style="fill:#122638;fill-opacity:1;fill-rule:nonzero;stroke:none"
         d="m 2106.25,2471.69 c 0,0 -484.63,318.48 -997.06,318.48 -955.436,0 -962.331,-921.01 -803.178,-921.01 131.609,0 85.707,640.36 796.258,768.64 574.72,103.86 1003.98,-166.11 1003.98,-166.11" /><path
         id="path46"
         style="fill:#1b181a;fill-opacity:1;fill-rule:nonzero;stroke:none"
         d="m 3958.67,327.031 -79.79,196.508 h -1.21 L 3796.66,327.031 Z M 3854.7,598.488 h 52.59 l 183.16,-428.027 h -67.7 l -42.94,105.801 h -203.73 l -42.32,-105.801 h -67.7 l 188.64,428.027" /><path
         id="path48"
         style="fill:#1b181a;fill-opacity:1;fill-rule:nonzero;stroke:none"
         d="m 7351.23,506 c -12.09,15.711 -27.44,27.801 -45.98,36.25 -18.53,8.48 -37.67,12.691 -57.42,12.691 -24.19,0 -46.05,-4.543 -65.58,-13.589 -19.54,-9.051 -36.28,-21.461 -50.17,-37.18 -13.92,-15.703 -24.69,-34.172 -32.34,-55.313 -7.66,-21.179 -11.49,-43.828 -11.49,-68.019 0,-22.578 3.62,-43.93 10.88,-64.078 7.27,-20.153 17.71,-37.891 31.42,-53.203 13.7,-15.321 30.45,-27.411 50.19,-36.278 19.76,-8.84 42.11,-13.269 67.09,-13.269 24.58,0 46.15,5 64.69,15.09 18.53,10.089 34.24,24.179 47.16,42.328 l 48.98,-36.891 c -3.26,-4.437 -8.87,-10.769 -16.92,-19.039 -8.09,-8.262 -18.75,-16.52 -32.06,-24.789 -13.31,-8.27 -29.31,-15.492 -48.05,-21.75 -18.75,-6.231 -40.44,-9.379 -64.98,-9.379 -33.89,0 -64.4,6.438 -91.6,19.359 -27.23,12.879 -50.37,29.797 -69.51,50.77 -19.15,20.969 -33.78,44.617 -43.84,71.019 -10.09,26.411 -15.13,53.098 -15.13,80.11 0,33.07 5.43,63.59 16.35,91.601 10.88,28.008 26.08,52.161 45.62,72.52 19.54,20.359 43,36.18 70.44,47.48 27.38,11.27 57.61,16.93 90.68,16.93 28.19,0 55.92,-5.441 83.11,-16.32 27.23,-10.91 49.49,-27.621 66.8,-50.199 L 7351.23,506" /><path
         id="path50"
         style="fill:#1b181a;fill-opacity:1;fill-rule:nonzero;stroke:none"
         d="m 7508.98,313.75 c 0,-14.52 2.23,-27.941 6.66,-40.211 4.44,-12.309 10.67,-22.758 18.75,-31.449 8.05,-8.66 17.92,-15.5 29.62,-20.531 11.67,-5.047 24.77,-7.547 39.29,-7.547 14.49,0 27.59,2.5 39.29,7.547 11.7,5.031 21.58,11.871 29.63,20.531 8.04,8.691 14.3,19.14 18.75,31.449 4.43,12.27 6.65,25.691 6.65,40.211 0,14.488 -2.22,27.879 -6.65,40.191 -4.45,12.297 -10.71,22.75 -18.75,31.438 -8.05,8.672 -17.93,15.5 -29.63,20.543 -11.7,5.047 -24.8,7.558 -39.29,7.558 -14.52,0 -27.62,-2.511 -39.29,-7.558 -11.7,-5.043 -21.57,-11.871 -29.62,-20.543 -8.08,-8.688 -14.31,-19.141 -18.75,-31.438 -4.43,-12.312 -6.66,-25.703 -6.66,-40.191 z m -58.02,0 c 0,20.941 3.93,40.512 11.8,58.648 7.84,18.102 18.61,34.032 32.31,47.731 13.7,13.699 29.84,24.512 48.38,32.34 18.53,7.871 38.49,11.812 59.85,11.812 21.37,0 41.29,-3.941 59.86,-11.812 18.54,-7.828 34.64,-18.641 48.34,-32.34 13.71,-13.699 24.52,-29.629 32.35,-47.731 7.87,-18.136 11.8,-37.707 11.8,-58.648 0,-20.961 -3.93,-40.602 -11.8,-58.961 -7.83,-18.32 -18.64,-34.238 -32.35,-47.769 -13.7,-13.481 -29.8,-24.149 -48.34,-32.02 -18.57,-7.871 -38.49,-11.801 -59.86,-11.801 -21.36,0 -41.32,3.93 -59.85,11.801 -18.54,7.871 -34.68,18.539 -48.38,32.02 -13.7,13.531 -24.47,29.449 -32.31,47.769 -7.87,18.359 -11.8,38 -11.8,58.961" /><path
         id="path52"
         style="fill:#1b181a;fill-opacity:1;fill-rule:nonzero;stroke:none"
         d="m 7823.96,457.012 h 50.77 v -44.711 h 1.22 c 1.21,4 4.32,9.051 9.37,15.097 5.01,6.043 11.49,11.801 19.32,17.243 7.87,5.437 17.14,10.05 27.84,13.879 10.66,3.832 22.43,5.761 35.35,5.761 21.36,0 39.29,-4.429 53.81,-13.312 14.49,-8.867 26.37,-22.18 35.67,-39.887 9.27,17.707 22.37,31.02 39.29,39.887 16.93,8.883 34.03,13.312 51.38,13.312 22.15,0 40.29,-3.64 54.42,-10.883 14.09,-7.25 25.16,-16.839 33.24,-28.726 8.05,-11.871 13.6,-25.402 16.61,-40.5 3.03,-15.102 4.54,-30.731 4.54,-46.832 V 170.461 H 8202.4 V 330.07 c 0,10.879 -0.71,21.36 -2.15,31.418 -1.39,10.082 -4.32,18.961 -8.77,26.621 -4.43,7.653 -10.65,13.813 -18.71,18.43 -8.08,4.609 -18.75,6.941 -32.06,6.941 -26.19,0 -44.93,-8.058 -56.2,-24.16 -11.31,-16.129 -16.92,-36.89 -16.92,-62.289 v -156.57 h -54.43 v 149.91 c 0,13.699 -0.71,26.231 -2.11,37.5 -1.43,11.27 -4.22,21.039 -8.48,29.309 -4.22,8.261 -10.27,14.742 -18.11,19.359 -7.87,4.609 -18.45,6.941 -31.73,6.941 -9.69,0 -19.07,-1.91 -28.12,-5.73 -9.09,-3.828 -17.03,-9.59 -23.91,-17.25 -6.83,-7.66 -12.26,-17.422 -16.31,-29.301 -4.01,-11.879 -6.05,-25.898 -6.05,-42.008 v -148.73 h -54.38 v 286.551" /><path
         id="path54"
         style="fill:#1b181a;fill-opacity:1;fill-rule:nonzero;stroke:none"
         d="m 8487.74,413.48 c -14.52,0 -27.61,-2.511 -39.31,-7.558 -11.67,-5.043 -21.55,-11.871 -29.63,-20.543 -8.05,-8.688 -14.32,-19.141 -18.71,-31.438 -4.45,-12.312 -6.66,-25.703 -6.66,-40.191 0,-14.52 2.21,-27.941 6.66,-40.211 4.39,-12.309 10.66,-22.758 18.71,-31.449 8.08,-8.66 17.96,-15.5 29.63,-20.531 11.7,-5.047 24.79,-7.547 39.31,-7.547 14.5,0 27.59,2.5 39.29,7.547 11.67,5.031 21.54,11.871 29.63,20.531 8.05,8.691 14.28,19.14 18.75,31.449 4.39,12.27 6.61,25.691 6.61,40.211 0,14.488 -2.22,27.879 -6.61,40.191 -4.47,12.297 -10.7,22.75 -18.75,31.438 -8.09,8.672 -17.96,15.5 -29.63,20.543 -11.7,5.047 -24.79,7.558 -39.29,7.558 z m -148.73,43.532 h 54.42 V 415.91 h 1.22 c 10.45,15.309 24.86,27.192 43.22,35.672 18.32,8.438 37.18,12.699 56.5,12.699 22.18,0 42.21,-3.832 60.18,-11.48 17.92,-7.66 33.23,-18.352 45.94,-32.071 12.7,-13.699 22.43,-29.718 29.3,-48.039 6.87,-18.363 10.27,-38 10.27,-58.941 0,-21.391 -3.4,-41.211 -10.27,-59.57 -6.87,-18.321 -16.6,-34.239 -29.3,-47.731 -12.71,-13.519 -28.02,-24.109 -45.94,-31.73 -17.97,-7.66 -38,-11.52 -60.18,-11.52 -20.54,0 -39.9,4.36 -58.04,13.012 -18.11,8.668 -32.02,20.437 -41.68,35.348 h -1.22 V 0 h -54.42 v 457.012" /><path
         id="path56"
         style="fill:#1b181a;fill-opacity:1;fill-rule:nonzero;stroke:none"
         d="m 8863.14,308.309 c -12.91,0 -26.11,-0.707 -39.6,-2.137 -13.52,-1.391 -25.8,-4.121 -36.89,-8.16 -11.09,-4 -20.15,-9.66 -27.19,-16.922 -7.05,-7.27 -10.59,-16.531 -10.59,-27.809 0,-16.519 5.54,-28.402 16.64,-35.66 11.09,-7.269 26.08,-10.883 45.05,-10.883 14.88,0 27.57,2.5 38.06,7.551 10.48,5.039 18.93,11.59 25.4,19.641 6.45,8.082 11.06,17.031 13.89,26.91 2.82,9.879 4.26,19.64 4.26,29.34 v 18.129 z m -153.56,113.652 c 15.31,14.09 33.03,24.68 53.2,31.73 20.15,7.039 40.3,10.59 60.44,10.59 20.97,0 39,-2.652 54.13,-7.871 15.1,-5.23 27.48,-12.308 37.18,-21.14 9.66,-8.879 16.82,-19.079 21.47,-30.559 4.62,-11.481 6.94,-23.481 6.94,-35.961 V 222.441 c 0,-10.043 0.18,-19.312 0.6,-27.8 0.4,-8.442 1.01,-16.52 1.79,-24.18 h -48.34 c -1.21,14.519 -1.81,29.019 -1.81,43.551 h -1.22 c -12.09,-18.543 -26.41,-31.672 -42.91,-39.293 -16.53,-7.66 -35.67,-11.52 -57.42,-11.52 -13.31,0 -26.01,1.821 -38.1,5.461 -12.1,3.621 -22.69,9.059 -31.74,16.32 -9.05,7.27 -16.25,16.211 -21.48,26.911 -5.22,10.66 -7.83,23.039 -7.83,37.168 0,18.543 4.11,34.031 12.39,46.562 8.26,12.481 19.53,22.641 33.84,30.52 14.31,7.871 31.02,13.48 50.16,16.918 19.15,3.441 39.61,5.16 61.37,5.16 h 39.93 v 12.09 c 0,7.222 -1.44,14.492 -4.26,21.75 -2.83,7.261 -7.05,13.812 -12.7,19.64 -5.62,5.832 -12.67,10.492 -21.15,13.922 -8.44,3.399 -18.53,5.109 -30.23,5.109 -10.49,0 -19.65,-0.992 -27.48,-2.992 -7.87,-2.039 -15.03,-4.547 -21.47,-7.558 -6.47,-3.039 -12.31,-6.578 -17.54,-10.59 -5.25,-4.039 -10.26,-7.871 -15.12,-11.481 l -32.64,33.852" /><path
         id="path58"
         style="fill:#1b181a;fill-opacity:1;fill-rule:nonzero;stroke:none"
         d="m 9022.12,457.012 h 54.42 v -44.114 h 1.21 c 6.84,15.282 18.71,27.704 35.64,37.18 16.96,9.442 36.5,14.203 58.65,14.203 13.7,0 26.91,-2.109 39.6,-6.371 12.71,-4.219 23.8,-10.769 33.24,-19.64 9.49,-8.872 17.03,-20.25 22.69,-34.141 5.65,-13.91 8.45,-30.34 8.45,-49.258 v -184.41 h -54.39 V 339.73 c 0,13.309 -1.83,24.692 -5.44,34.168 -3.65,9.454 -8.48,17.114 -14.53,22.981 -6.04,5.832 -12.99,10.051 -20.86,12.691 -7.83,2.621 -16,3.91 -24.47,3.91 -11.27,0 -21.76,-1.8 -31.45,-5.441 -9.67,-3.609 -18.1,-9.379 -25.37,-17.219 -7.26,-7.871 -12.92,-17.851 -16.92,-29.941 -4.05,-12.059 -6.05,-26.379 -6.05,-42.899 V 170.461 h -54.42 v 286.551" /><path
         id="path60"
         style="fill:#1b181a;fill-opacity:1;fill-rule:nonzero;stroke:none"
         d="m 9324.42,457.012 h 62.87 l 84.83,-223.692 h 1.22 l 81.4,223.692 h 58.03 L 9476.74,108.809 c -4.8,-12.4887 -9.85,-23.9106 -15.07,-34.1684 -5.19,-10.2695 -11.41,-19.0312 -18.63,-26.3008 -7.24,-7.2187 -15.96,-12.8789 -26.19,-16.9179 -10.24,-4.0235 -22.77,-6.0508 -37.65,-6.0508 -8.01,0 -16.13,0.5 -24.37,1.5078 -8.23,1.0313 -16.17,3.1406 -23.79,6.3594 l 6.63,49.5625 c 10.8,-4.4102 21.6,-6.6524 32.45,-6.6524 8.41,0 15.49,1.1407 21.32,3.3204 5.8,2.2226 10.81,5.4296 14.99,9.6914 4.22,4.2304 7.73,9.1601 10.52,14.8198 2.79,5.649 5.62,12.102 8.41,19.321 l 17.6,45.359 -118.54,288.352" /><path
         id="path62"
         style="fill:#1b181a;fill-opacity:1;fill-rule:nonzero;stroke:none"
         d="m 4255.42,599.309 h 108.93 l 107.09,-283.938 h 1.22 l 108.92,283.938 h 102.19 l -178.69,-433.25 h -76.49 l -173.17,433.25" /><path
         id="path64"
         style="fill:#1b181a;fill-opacity:1;fill-rule:nonzero;stroke:none"
         d="m 4789.01,599.309 h 294.35 V 511.191 H 4884.49 V 430.41 h 187.85 v -88.109 h -187.85 v -88.129 h 209.89 v -88.113 h -305.37 v 433.25" /><path
         id="path66"
         style="fill:#1b181a;fill-opacity:1;fill-rule:nonzero;stroke:none"
         d="m 5306.72,420.012 h 56.29 c 8.56,0 17.63,0.297 27.22,0.918 9.59,0.621 18.26,2.449 26.03,5.5 7.73,3.058 14.15,7.859 19.27,14.39 5.09,6.52 7.64,15.7 7.64,27.532 0,11.019 -2.25,19.789 -6.72,26.32 -4.51,6.508 -10.2,11.519 -17.14,14.988 -6.94,3.461 -14.91,5.809 -23.87,7.031 -8.98,1.231 -17.74,1.848 -26.31,1.848 h -62.41 z m -95.47,179.289 h 167.67 c 22.04,0 42.94,-2.141 62.72,-6.422 19.79,-4.277 37.12,-11.418 52.01,-21.41 14.9,-10.008 26.72,-23.481 35.51,-40.387 8.77,-16.941 13.14,-38.051 13.14,-63.344 0,-30.59 -7.94,-56.597 -23.86,-78.019 -15.91,-21.418 -39.17,-34.989 -69.76,-40.688 L 5558.83,166.059 H 5444.4 l -90.57,173.171 h -47.11 V 166.059 h -95.47 v 433.242" /><path
         id="path68"
         style="fill:#1b181a;fill-opacity:1;fill-rule:nonzero;stroke:none"
         d="m 5667.74,599.309 h 95.47 v -433.25 h -95.47 v 433.25" /><path
         id="path70"
         style="fill:#1b181a;fill-opacity:1;fill-rule:nonzero;stroke:none"
         d="m 5911.3,599.309 h 129.74 L 6225.21,298.23 h 1.24 v 301.079 h 95.46 V 166.059 H 6197.07 L 6007.98,474.48 h -1.21 V 166.059 h -95.47 v 433.25" /><path
         id="path72"
         style="fill:#1b181a;fill-opacity:1;fill-rule:nonzero;stroke:none"
         d="M 6548.92,514.859 H 6425.3 v 84.45 H 6768 v -84.45 h -123.61 v -348.8 h -95.47 v 348.8" /><path
         id="path74"
         style="fill:#1b181a;fill-opacity:1;fill-rule:nonzero;stroke:none"
         d="m 6734.45,198.738 h 3.32 l 1.59,0.09 1.57,0.402 1.22,1.02 0.49,1.898 -0.49,1.911 -1.22,1.011 -1.57,0.399 -1.59,0.082 h -3.32 z m -8.19,13.141 h 11.19 c 0.86,0 2.05,-0.059 3.57,-0.168 1.51,-0.109 2.99,-0.492 4.45,-1.133 1.46,-0.656 2.72,-1.656 3.81,-3.039 1.08,-1.379 1.62,-3.34 1.62,-5.879 0,-1.621 -0.22,-2.961 -0.65,-4.012 -0.44,-1.058 -0.98,-1.918 -1.66,-2.589 l -2.35,-1.539 c -0.89,-0.348 -1.8,-0.579 -2.71,-0.692 l 8.1,-12.558 h -8.51 l -7.21,12.152 h -1.38 V 180.27 h -8.27 z m -10.28,-16.141 c 0,-3.129 0.56,-6.09 1.7,-8.859 1.13,-2.789 2.69,-5.207 4.69,-7.258 2.01,-2.051 4.33,-3.691 6.98,-4.902 2.64,-1.219 5.47,-1.828 8.5,-1.828 3.03,0 5.86,0.609 8.51,1.828 2.64,1.211 4.97,2.851 6.97,4.902 2,2.051 3.56,4.469 4.7,7.258 1.14,2.769 1.71,5.73 1.71,8.859 0,3.141 -0.57,6.102 -1.71,8.883 -1.14,2.777 -2.7,5.199 -4.7,7.258 -2,2.051 -4.33,3.68 -6.97,4.902 -2.65,1.207 -5.48,1.821 -8.51,1.821 -3.03,0 -5.86,-0.614 -8.5,-1.821 -2.65,-1.222 -4.97,-2.851 -6.98,-4.902 -2,-2.059 -3.56,-4.481 -4.69,-7.258 -1.14,-2.781 -1.7,-5.742 -1.7,-8.883 z m -8.27,0 c 0,4.16 0.8,8.071 2.39,11.711 1.59,3.66 3.75,6.84 6.48,9.571 2.73,2.73 5.92,4.89 9.56,6.48 3.65,1.602 7.55,2.391 11.71,2.391 4.16,0 8.07,-0.789 11.71,-2.391 3.65,-1.59 6.84,-3.75 9.56,-6.48 2.74,-2.731 4.89,-5.911 6.49,-9.571 1.59,-3.64 2.39,-7.551 2.39,-11.711 0,-4.16 -0.8,-8.047 -2.39,-11.699 -1.6,-3.648 -3.75,-6.84 -6.49,-9.559 -2.72,-2.73 -5.91,-4.898 -9.56,-6.492 -3.64,-1.59 -7.55,-2.386 -11.71,-2.386 -4.16,0 -8.06,0.796 -11.71,2.386 -3.64,1.594 -6.83,3.762 -9.56,6.492 -2.73,2.719 -4.89,5.911 -6.48,9.559 -1.59,3.652 -2.39,7.539 -2.39,11.699" /></g></g></svg>