<?xml version="1.0" encoding="utf-8"?>
<!-- Generator: Adobe Illustrator 22.1.0, SVG Export Plug-In . SVG Version: 6.00 Build 0)  -->
<svg version="1.1" id="Layer_1" xmlns="http://www.w3.org/2000/svg" xmlns:xlink="http://www.w3.org/1999/xlink" x="0px" y="0px"
	 viewBox="0 0 360.2 642.7" style="enable-background:new 0 0 360.2 642.7;" xml:space="preserve">
<style type="text/css">
	.st0{fill:#0051A0;}
	.st1{fill:#FF9E00;}
</style>
<g>
	<rect x="17" y="44.6" class="st0" width="284.4" height="455.9"/>
	<rect x="22" y="50" class="st1" width="274.4" height="445.6"/>
	<path class="st0" d="M329.2,38.6c0,0,6.9-0.7,14.3-5.7c0,0-6.9-1.7-14.5,0h-38l-24.3-21.1l1.3-2.6l-1.3-1L255,9.9l-0.9,1.6l2.7,1.3
		l3.9,27.3l-11.1,2L236,32.4c-1.7-1.2-3.9,0.3-3.5,2.3l2.7,13l3.4,1.2c0,0-2.4,0.7-3.7,2.1l0,0c0,0-88.1,12.9-159.8,101.8
		C46.1,188.9,16.6,247,16.6,320.6c0,119.7,91.2,179.9,179.1,179.9c56.9,0,105.6-52.1,105.6-104.9c0-40-23.1-59.3-42.8-67.5h40.2
		v-5.6h-276c0.4-115,76.5-229.6,213.1-265.7l0,0l0,0c0,0,2.6,1.1,4.4,0.8l0.7,2.6l-3.4,0.8l2.3,12c0.4,2,3,2.4,4,0.8l8.9-14.1
		l11.1-2.1l6.6,26.5l-2.2,2.4l1.5,1.1l12.8-2.6l0.7-1.5l-3.3-2l14.5-28.1L329.2,38.6z M235.7,329.3c20.8,0.4,57.2,17.6,58.9,59.8
		h-58.9V329.3z M220.5,378.6l8.7-0.1c-0.9,3.9-3.9,7.6-8.7,8.8V378.6z M219.3,373.4v-5c0.5,0.1,1.1,0.1,1.6,0.2v4.8H219.3z
		 M226.1,372.8v-2.3c1,0.6,1.8,1.4,2.4,2.3H226.1z M195.8,363c1.5-19.6,17.3-31.5,34.3-33.5V363H195.8z M214,369.6v18
		c-9.1-1.4-16.3-9.3-17.9-18H214z M195.7,328.1h17c-7.1,3.8-12.9,9.4-17,15.9V328.1z M195.7,383.9c1.8,2.1,4,3.8,6.2,5.2h-6.2V383.9
		z M195.7,394.3h99c-1.1,47.3-37.4,96.7-99,99.5V394.3z M189.2,328.1v165.9C108.4,493.3,25,432.4,22.8,328.1L189.2,328.1
		L189.2,328.1z"/>
</g>
<g>
	<path class="st0" d="M44.1,547.7h11.4l-13.4-30.4h-12l-13.5,30.4h11.3l1.8-5h12.6L44.1,547.7z M32.1,536.2l4-10.8l3.9,10.8H32.1z"
		/>
	<rect x="57.7" y="517.3" class="st0" width="11" height="30.4"/>
	<path class="st0" d="M104.7,538.6c-1.3-1.7-3.3-4.2-6.7-4.2c0,0,9.4-0.9,9.3-8.5c-0.1-7.7-7.2-8.5-11.7-8.6c-4.6-0.1-20.6,0-20.6,0
		v30.4h11.2v-12.3c0,0,1.1,0,1.7,0c0.7,0,1.8-0.3,4.4,3.7c2.6,4,5.5,8.5,5.5,8.5h12.8C110.3,547.7,105.9,540.3,104.7,538.6z
		 M91.9,529.6c-1.7,0-6,0-6,0v-6.2c0,0,4.3,0,6.1,0s4.2,0.6,4.1,3.1C96,529,93.6,529.6,91.9,529.6z"/>
	<polygon class="st0" points="126.5,517.2 126.5,547.7 137.7,547.7 137.7,535.4 151.6,535.4 151.6,529.4 137.7,529.2 137.8,523.8 
		154,523.8 154,517.2 	"/>
	<path class="st0" d="M175.3,516.8c-13.3,0-18.6,7-18.6,15.7c0,8.7,4.9,15.7,18.6,15.7c13.5,0,18.6-7,18.6-15.7
		C193.9,523.8,188.5,516.8,175.3,516.8z M175.2,541.3c-4.2,0-7.6-2.1-7.6-8.8c0-5.9,3.4-8.8,7.6-8.8c4.2,0,7.6,2.2,7.6,8.8
		C182.7,539.7,179.3,541.3,175.2,541.3z"/>
	<path class="st0" d="M227.7,538.8c-1.3-1.7-3.3-4.2-6.7-4.2c0,0,9.4-0.9,9.3-8.5c-0.1-7.7-7.2-8.5-11.7-8.6c-4.6-0.1-20.6,0-20.6,0
		v30.4h11.2v-12.3c0,0,1.1,0,1.7,0c0.7,0,1.8-0.3,4.4,3.7c2.6,4,5.5,8.5,5.5,8.5h12.8C233.4,547.8,229,540.4,227.7,538.8z
		 M215,529.8c-1.7,0-6,0-6,0v-6.2c0,0,4.3,0,6.1,0s4.2,0.6,4.1,3.1C219.1,529.1,216.7,529.8,215,529.8z"/>
	<g>
		<path class="st0" d="M250.9,541.3c-4,0-7.2-1.3-7.2-8.6c0-6.8,3.2-8.6,7.2-8.6c2.9,0,5.4,0.9,6.5,4l9.6-1.7
			c-1.9-5.6-6.9-9.6-16.4-9.6c-12.9,0-18,7.1-18,15.7c0,8.7,5,15.7,18,15.7c11,0,15.5-4.4,16.8-10.7l-9.6-2.4
			C257.2,539.4,254.3,541.3,250.9,541.3z"/>
	</g>
	<polygon class="st0" points="270.8,517.3 270.8,547.8 301.3,547.8 301.3,540.9 282.1,540.9 282.1,534.8 299.4,534.8 299.3,528.7 
		282.1,528.8 282.1,523.8 300.8,523.8 300.8,517.3 	"/>
	<path class="st0" d="M80.1,575v-12.5c0,0-32-0.1-39.6,0s-23.8,1-23.8,20.6c0,20.2,14.1,21.1,22.9,21.1s15,0,18.7,0
		c3.7,0,9.8,0.6,9.8,7.2c0,6.6-2.7,8.8-10.6,9c-7.9,0.1-37.9,0-37.9,0l-0.1,12.5c0,0,36,0,40.9,0s23.1-0.2,23.1-20.3
		c0.1-20.1-12.6-20.6-20.5-20.7c-7.8-0.1-17.7,0.1-21.8,0S32,590.5,32,584c0-6.5,3.9-9,11.2-9.1C50.6,574.8,80.1,575,80.1,575z"/>
	<polygon class="st0" points="87.5,562.4 87.5,574.8 110.3,574.8 110.3,632.8 125.5,632.8 125.5,574.7 148.2,574.7 148.2,562.4 	"/>
	<path class="st0" d="M208.7,562.4v12.3c0,0-18.7,0-25.4,0s-14.7,2.6-15.4,16.2h40.8v12.3h-40.9c0,0-2.4,17.7,15.7,17.6
		c18.2-0.1,25.1,0,25.1,0v12.1c0,0-16.1,0-28.8,0c-12.7,0-28.9-7.1-28.9-35.2s16.8-35.1,29.7-35.2
		C193.6,562.2,208.7,562.4,208.7,562.4z"/>
	<polygon class="st0" points="220.8,562.3 220.8,632.8 236,632.8 234.6,577.8 253.1,632.8 268.8,632.8 286.8,578.1 286,632.8 
		300.3,632.8 300.3,562.3 278.5,562.3 260.6,616.4 242.6,562.3 	"/>
</g>
</svg>
