<?xml version="1.0" encoding="utf-8"?>
<!-- Generator: Adobe Illustrator 22.1.0, SVG Export Plug-In . SVG Version: 6.00 Build 0)  -->
<svg version="1.1" id="Layer_1" xmlns="http://www.w3.org/2000/svg" xmlns:xlink="http://www.w3.org/1999/xlink" x="0px" y="0px"
	 viewBox="0 0 633 707.4" style="enable-background:new 0 0 633 707.4;" xml:space="preserve">
<style type="text/css">
	.st0{fill:#0052CC;}
	.st1{fill:url(#SVGID_1_);}
	.st2{fill:#2684FF;}
</style>
<g id="Logos">
	<g>
		<g>
			<g>
				<path class="st0" d="M287,641.6c0,11.1,5.2,19.7,25.2,23.6c12,2.4,14.4,4.3,14.4,8.3s-2.4,6.4-11.1,6.4c-9.8,0-21.5-3.4-28.9-8
					v18.1c6.2,3,14.1,6.2,28.9,6.2c20.9,0,29.1-9.2,29.1-23.3 M344.7,673.2c0-13.2-7.1-19.3-26.4-23.3c-10.7-2.4-13.5-4.9-13.5-8.3
					c0-4.3,4-6.2,11.1-6.2c8.6,0,17.2,2.8,25.2,6.2v-17.2c-5.8-2.8-14.4-5.2-24.6-5.2c-19.3,0-29.5,8.3-29.5,22.1"/>
				<polygon class="st0" points="555.9,620.4 555.9,695.3 571.9,695.3 571.9,638.2 578.6,653.2 601.1,695.3 621,695.3 621,620.4 
					605.1,620.4 605.1,668.6 599.2,654.7 581.1,620.4 				"/>
				<rect x="437.1" y="620.4" class="st0" width="17.5" height="74.6"/>
				<path class="st0" d="M417.2,673.2c0-13.2-7.1-19.3-26.4-23.3c-10.7-2.4-13.5-4.9-13.5-8.3c0-4.3,4-6.2,11.1-6.2
					c8.6,0,17.2,2.8,25.2,6.2v-17.2c-5.8-2.8-14.4-5.2-24.6-5.2c-19.3,0-29.5,8.3-29.5,22.1c0,11.1,5.2,19.7,25.2,23.6
					c12,2.4,14.4,4.3,14.4,8.3s-2.4,6.4-11.1,6.4c-9.8,0-21.5-3.4-28.9-8v18.1c6.2,3,14.1,6.2,28.9,6.2
					C408.9,696.2,417.2,687,417.2,673.2"/>
				<polygon class="st0" points="151.9,620.4 151.9,695.3 187.9,695.3 193.3,679.1 169.4,679.1 169.4,620.4 				"/>
				<polygon class="st0" points="81.3,620.4 81.3,636.7 100.6,636.7 100.6,695.3 118.1,695.3 118.1,636.7 139,636.7 139,620.4 				
					"/>
			</g>
		</g>
		<path class="st0" d="M56.1,620.4h-23L7,695.3h19.9l3.7-12.6c4.3,1.3,9.2,2.1,13.9,2.1c4.9,0,9.5-0.6,13.9-2.1l3.6,12.6h19.9
			L56.1,620.4z M44.5,669.2c-3.4,0-6.4-0.6-9.5-1.3l9.5-32.5l9.5,32.5C50.9,668.6,47.8,669.2,44.5,669.2z"/>
		<path class="st0" d="M249.5,620.4h-23.1l-26.1,74.6h19.9l3.7-12.6c4.3,1.3,9.2,2.1,13.9,2.1c4.9,0,9.5-0.6,13.9-2.1l3.7,12.6h19.9
			L249.5,620.4z M237.8,669.2c-3.4,0-6.4-0.6-9.5-1.3l9.5-32.5l9.5,32.5C244.3,668.6,241.2,669.2,237.8,669.2z"/>
		<path class="st0" d="M517.3,620.4h-23.1l-26.1,74.6h19.9l3.7-12.6c4.3,1.3,9.2,2.1,13.9,2.1c4.9,0,9.5-0.6,13.9-2.1l3.7,12.6H543
			L517.3,620.4z M505.9,669.2c-3.4,0-6.4-0.6-9.5-1.3l9.5-32.5l9.5,32.5C512.4,668.6,509.2,669.2,505.9,669.2z"/>
	</g>
	
		<linearGradient id="SVGID_1_" gradientUnits="userSpaceOnUse" x1="286.4139" y1="12640.6143" x2="141.516" y2="12389.5596" gradientTransform="matrix(1 0 0 -1 0 12954.1133)">
		<stop  offset="0" style="stop-color:#0052CC"/>
		<stop  offset="0.92" style="stop-color:#2684FF"/>
	</linearGradient>
	<path class="st1" d="M211.2,271.6c-5.2-7.1-15.4-8.3-22.4-3c-2.1,1.5-3.7,3.7-4.9,5.8l-137,274.5c-4,8-0.9,18.1,7.3,22.1
		c2.1,1.3,4.9,1.9,7.3,1.9h191c6.4,0,12-3.7,14.8-9.2C308.5,478.9,283.6,349,211.2,271.6z"/>
	<path class="st2" d="M311.9,22c-69.7,107.2-77.7,242.9-21.2,357.7l92.7,183.9c2.8,5.5,8.3,9.2,14.8,9.2h191.3
		c9.2-0.9,16.3-8.9,15.4-18.1c0-1.9-0.6-3.7-1.3-5.2L339.8,22c-3.7-7.7-12.9-11.1-20.6-7.3C316.1,16.4,313.4,18.9,311.9,22z"/>
</g>
</svg>
