<?xml version="1.0" encoding="utf-8"?>
<!-- Generator: Adobe Illustrator 22.1.0, SVG Export Plug-In . SVG Version: 6.00 Build 0)  -->
<svg version="1.1" id="Layer_1" xmlns="http://www.w3.org/2000/svg" xmlns:xlink="http://www.w3.org/1999/xlink" x="0px" y="0px"
	 viewBox="0 0 1802 738.6" style="enable-background:new 0 0 1802 738.6;" xml:space="preserve">
<style type="text/css">
	.st0{fill:#5A5A5A;}
	.st1{fill:url(#SVGID_1_);}
	.st2{fill:url(#SVGID_2_);}
</style>
<g>
	<path class="st0" d="M179.2,132.9c-32.6,0-62.7,11.2-86.8,30.1V16.4H17.8v406.5h74.6V401c24.1,18.9,54.2,30.1,86.8,30.1
		c79.6,0,144.1-66.7,144.1-149.1S258.8,132.9,179.2,132.9z M171.3,366.7c-39.4,0-72.2-30.1-78.9-69.8v-30.1
		c6.7-39.7,39.5-69.8,78.9-69.8c44.3,0,80.2,32,80.2,84.9C251.5,336.4,215.6,366.7,171.3,366.7z"/>
	<path class="st0" d="M466.5,148.8c-28,11.7-49.4,44.8-49.4,44.8v-52.7h-74.6v281.7H417V315.4c2.8-42.3,16.5-73.4,44.6-90.9
		c28.1-17.5,72.5-12.7,72.5-12.7l3.3-72.3C515.3,136.1,494.4,137.1,466.5,148.8z"/>
	<path class="st0" d="M768,140.7v23c-24.3-19.2-54.6-30.6-87.5-30.6c-79.6,0-144.1,66.7-144.1,149.1s64.5,149.1,144.1,149.1
		c32.9,0,63.2-11.4,87.5-30.6v22.3h74.7V140.7H768z M688.3,366.3c-33.6,0-79.7-19.9-79.7-84.2c0-63.2,46.2-84.6,79.7-84.6
		c44.8,0,79.7,37.7,79.7,84.3S735.4,366.3,688.3,366.3z"/>
	<rect x="889" y="140.7" class="st0" width="74.1" height="282.2"/>
	<ellipse class="st0" cx="926.4" cy="63.4" rx="44.9" ry="43.7"/>
	<path class="st0" d="M1284.1,230.6c-1.3-30.2-28.2-89.3-96.7-96.7c-68.5-7.4-102.8,32.9-102.8,32.9v-26.1h-74.1v282.2h74.1v-145
		c0-7.7,6.7-77.6,65.2-77.6c58.4,0,61.1,56.4,61.1,56.4l0.7,166.1h72.5C1284.1,422.9,1285.4,260.8,1284.1,230.6z"/>
	<path class="st0" d="M1194.9,525.7c-13.4-38.6-48-60.9-89.3-60.9c-58,0-96.3,44-96.3,98.2s38.3,98.2,96.3,98.2
		c41.4,0,76.2-22,89.5-61l-30.2,0c-10.7,23.7-32.4,35.5-59.1,35.5c-38.2,0-69.2-30.7-69.2-73c0-39.8,31-72,69.2-72
		c25.8,0,46.9,13.3,57.9,35.1L1194.9,525.7z"/>
	<path class="st0" d="M1315.8,465.3c-59.9,0-99.5,43.8-99.5,97.9c0,54.1,40.2,97.8,99.5,97.9c58.6,0.1,99.5-43.8,99.5-97.9
		C1415.3,509.1,1374.4,465.3,1315.8,465.3z M1315.8,635.7c-43.9-0.1-71.7-32.5-71.7-72.5c0-40.1,27.3-72.5,71.7-72.5
		c43.4,0,70.7,32.5,70.7,72.5C1386.5,603.3,1359.2,635.8,1315.8,635.7z"/>
	<path class="st0" d="M1516.3,476.6c-25.2,12.3-38.1,39.3-38.1,39.3v-47.5h-29.3v188.8h29.3v-73.3c0-24,7.1-56.1,31-74.2
		c24-18.1,57.7-13,57.7-13v-28.4C1562,467.8,1541.5,464.3,1516.3,476.6z"/>
	<path class="st0" d="M1692.1,464.4c-28.7,0-54.4,13.2-72,33.9v-29.9h-29.3v252.7h29.3v-93c17.6,20.4,43.3,33.3,72,33.3
		c57.6,0,94.8-43.9,94.8-98C1786.9,509.3,1748.9,464.4,1692.1,464.4z M1690,636.1c-37.2,0-66.8-29.2-69.9-66.5v-12.5
		c3-37.3,32.6-67.2,69.9-67.2c42.2,0,70.4,33.3,70.4,73.5C1760.3,603.5,1732.7,636.1,1690,636.1z"/>
	<linearGradient id="SVGID_1_" gradientUnits="userSpaceOnUse" x1="545.2831" y1="492.2534" x2="963.0623" y2="492.2534">
		<stop  offset="0" style="stop-color:#F47521"/>
		<stop  offset="1" style="stop-color:#F79720"/>
	</linearGradient>
	<rect x="545.3" y="469" class="st1" width="417.8" height="46.4"/>
	<linearGradient id="SVGID_2_" gradientUnits="userSpaceOnUse" x1="1326.6068" y1="244.9572" x2="1787.6178" y2="244.9572">
		<stop  offset="0" style="stop-color:#F47521"/>
		<stop  offset="1" style="stop-color:#F79720"/>
	</linearGradient>
	<path class="st2" d="M1780.8,193.1c-16.6-52.8-61.3-83.7-106.5-106c-45.2-22.3-108.4-28.5-152.1-20.9
		c-43.7,7.6-110.3,34.7-152.1,86.1c-41.8,51.3-49,95.6-39.9,152.6c9,57.1,69.4,114.1,133.5,120.8c64.1,6.7,103.3-12.8,132.7-44.7
		c2.9-3.1,5.5-6.2,7.9-9.2c2.1-0.1,4-0.2,5.9-0.3c32.3-1.9,78,2.4,126-30.9C1784.1,307.2,1797.4,245.9,1780.8,193.1z M1615.5,337.8
		c-45.3,1.2-74.5-2-93.9-17.4c-22.8-18.1-14.1-48.2,9.1-59.5c23.2-11.2,54-11.2,76.5,16C1626.6,300.3,1618.2,330,1615.5,337.8z
		 M1746.8,260.4c-6.5,39.5-47.9,73.6-108.8,76.5c-3.7,0.2-7.2,0.3-10.7,0.5c-1,0-1.9,0.1-2.9,0.1c3.6-10.7,5.9-21.9,5.9-25.9
		c0-9.2-0.5-36-23.3-56.8c-22.8-20.8-54-25.9-84.1-13.7c-26.2,10.6-55.1,49.7-29.9,89.2c20.5,32.1,65.8,40.4,99,41.2
		c-35.9,35.8-89,37.4-111.2,35.1c-27.9-2.9-70-15.6-100.5-58.8c-30.5-43.2-30.5-107.4,6.2-158.1c36.6-50.8,94.7-76.2,137.1-83.1
		c42.4-6.9,94.3-8,152.7,26.1C1734.8,166.8,1753.3,220.8,1746.8,260.4z"/>
</g>
</svg>
