<?xml version="1.0" encoding="UTF-8" standalone="no"?>
<svg
   xmlns:dc="http://purl.org/dc/elements/1.1/"
   xmlns:cc="http://creativecommons.org/ns#"
   xmlns:rdf="http://www.w3.org/1999/02/22-rdf-syntax-ns#"
   xmlns:svg="http://www.w3.org/2000/svg"
   xmlns="http://www.w3.org/2000/svg"
   viewBox="0 0 132.28188 162.52"
   height="162.52"
   width="132.28188"
   xml:space="preserve"
   id="svg2"
   version="1.1"><metadata
     id="metadata8"><rdf:RDF><cc:Work
         rdf:about=""><dc:format>image/svg+xml</dc:format><dc:type
           rdf:resource="http://purl.org/dc/dcmitype/StillImage" /></cc:Work></rdf:RDF></metadata><defs
     id="defs6"><clipPath
       id="clipPath18"
       clipPathUnits="userSpaceOnUse"><path
         id="path16"
         d="M 0,121.89 H 99.211 V 0 H 0 Z" /></clipPath></defs><g
     transform="matrix(1.3333333,0,0,-1.3333333,0,162.52)"
     id="g10"><g
       id="g12"><g
         clip-path="url(#clipPath18)"
         id="g14"><g
           transform="translate(59.9106,86.457)"
           id="g20"><path
             id="path22"
             style="fill:#0d6eb6;fill-opacity:1;fill-rule:nonzero;stroke:none"
             d="m 0,0 h -10.922 c -3.251,0 -5.879,2.633 -5.879,5.878 v 10.923 c 0,3.243 2.628,5.876 5.879,5.876 H 0 c 3.246,0 5.876,-2.633 5.876,-5.876 V 5.878 C 5.876,2.633 3.246,0 0,0" /></g><g
           transform="translate(31.6553,61.9736)"
           id="g24"><path
             id="path26"
             style="fill:#72217b;fill-opacity:1;fill-rule:nonzero;stroke:none"
             d="m 0,0 h -12.288 c -3.65,0 -6.611,2.954 -6.611,6.61 V 18.9 c 0,3.649 2.961,6.612 6.611,6.612 H 0 c 3.652,0 6.613,-2.963 6.613,-6.612 V 6.61 C 6.613,2.954 3.652,0 0,0" /></g><g
           transform="translate(30.4854,36.4702)"
           id="g28"><path
             id="path30"
             style="fill:#b12384;fill-opacity:1;fill-rule:nonzero;stroke:none"
             d="m 0,0 h -7.505 c -2.231,0 -4.044,1.806 -4.044,4.042 v 7.5 c 0,2.239 1.813,4.048 4.044,4.048 H 0 c 2.232,0 4.042,-1.809 4.042,-4.048 v -7.5 C 4.042,1.806 2.232,0 0,0" /></g><g
           transform="translate(50.6353,12.7563)"
           id="g32"><path
             id="path34"
             style="fill:#e72887;fill-opacity:1;fill-rule:nonzero;stroke:none"
             d="m 0,0 h -8.874 c -2.637,0 -4.775,2.133 -4.775,4.775 v 8.874 c 0,2.642 2.138,4.776 4.775,4.776 H 0 c 2.638,0 4.776,-2.134 4.776,-4.776 V 4.775 C 4.776,2.133 2.638,0 0,0" /></g><g
           transform="translate(83.1548,81.9883)"
           id="g36"><path
             id="path38"
             style="fill:#e72887;fill-opacity:1;fill-rule:nonzero;stroke:none"
             d="m 0,0 h -6.148 c -1.827,0 -3.306,1.484 -3.306,3.305 v 6.14 c 0,1.827 1.479,3.311 3.306,3.311 H 0 c 1.825,0 3.302,-1.484 3.302,-3.311 V 3.305 C 3.302,1.484 1.825,0 0,0" /></g><g
           transform="translate(63.8047,68.0337)"
           id="g40"><path
             id="path42"
             style="fill:#004691;fill-opacity:1;fill-rule:nonzero;stroke:none"
             d="M 0,0 C 5.311,0 9.723,-3.409 11.229,-8.158 H -11.299 C -9.793,-3.409 -5.375,0 0,0 M 17.6,-10.822 C 17.463,-1.849 9.452,5.821 0,5.821 c -9.864,0 -17.739,-7.876 -17.739,-17.601 0,-9.862 7.875,-17.736 17.739,-17.736 4.725,0 9.11,1.849 12.259,4.998 0.616,0.548 1.028,1.371 1.028,2.193 0,1.574 -1.37,2.944 -2.946,2.944 -0.889,0 -1.712,-0.548 -2.328,-1.165 -1.987,-2.122 -4.931,-3.081 -8.013,-3.081 -5.889,0 -10.68,4.036 -11.711,9.649 h 26.436 c 0.02,0 0.037,0.007 0.057,0.007 h 0.08 c 0.049,0.005 0.097,0.022 0.147,0.03 0.102,0.014 0.202,0.029 0.3,0.058 1.248,0.336 2.291,1.53 2.291,3.061" /></g><g
           transform="translate(81.8149,38.5068)"
           id="g44"><path
             id="path46"
             style="fill:#004691;fill-opacity:1;fill-rule:nonzero;stroke:none"
             d="m 0,0 c -0.213,0 -0.386,0.167 -0.386,0.373 v 3.943 h -0.882 c -0.205,0 -0.373,0.173 -0.373,0.386 0,0.22 0.161,0.386 0.373,0.386 h 2.549 c 0.213,0 0.373,-0.166 0.373,-0.386 0,-0.213 -0.168,-0.386 -0.373,-0.386 H 0.386 V 0.373 C 0.386,0.16 0.22,0 0,0" /></g><g
           transform="translate(86.3745,38.5)"
           id="g48"><path
             id="path50"
             style="fill:#004691;fill-opacity:1;fill-rule:nonzero;stroke:none"
             d="M 0,0 C -0.212,0 -0.336,0.155 -0.382,0.3 L -1.479,3.525 V 0.38 c 0,-0.213 -0.166,-0.373 -0.386,-0.373 -0.214,0 -0.387,0.167 -0.387,0.373 v 4.16 c 0,0.31 0.272,0.582 0.582,0.582 0.246,0 0.475,-0.177 0.557,-0.43 L 0,1.439 1.101,4.694 c 0.081,0.251 0.313,0.428 0.563,0.428 0.31,0 0.582,-0.272 0.582,-0.582 V 0.38 C 2.246,0.167 2.08,0.007 1.859,0.007 1.646,0.007 1.473,0.174 1.473,0.38 V 3.516 C 1.291,2.981 1.007,2.14 0.793,1.508 0.406,0.359 0.39,0.312 0.384,0.3 0.296,0.102 0.167,0 0,0" /></g></g></g></g></svg>