<?xml version="1.0" encoding="utf-8"?>
<!-- Generator: Adobe Illustrator 22.1.0, SVG Export Plug-In . SVG Version: 6.00 Build 0)  -->
<svg version="1.1" id="Layer_2_1_" xmlns="http://www.w3.org/2000/svg" xmlns:xlink="http://www.w3.org/1999/xlink" x="0px" y="0px"
	 viewBox="0 0 772.2 208.8" style="enable-background:new 0 0 772.2 208.8;" xml:space="preserve">
<style type="text/css">
	.st0{fill:#005DAC;}
	.st1{fill:none;}
</style>
<g>
	<g>
		<g>
			<rect x="79.6" y="8.1" class="st0" width="35.4" height="32.2"/>
			<polygon class="st0" points="40.9,50.5 40.9,8.1 5.5,8.1 5.5,125.6 40.9,125.6 40.9,80.5 79.6,80.5 79.6,125.6 115,125.6 
				115,50.5 			"/>
		</g>
		<rect x="456.8" y="8.1" class="st0" width="35.4" height="32.2"/>
		<g>
			<rect x="508.3" y="8.1" class="st0" width="103" height="32.2"/>
			<polygon class="st0" points="543.2,80.5 593.7,80.5 593.7,50.5 508.3,50.5 508.3,125.6 611.4,125.6 611.4,93.9 543.2,93.9 			"/>
		</g>
		<g>
			<rect x="205.1" y="8.1" class="st0" width="35.4" height="32.2"/>
			<rect x="130.5" y="8.1" class="st0" width="35.4" height="32.2"/>
		</g>
		<g>
			<path class="st0" d="M735.9,73.6c-4.8-13.4-16.1-23.1-29.5-23.6h-81c2.7,16.6,16.1,29.5,32.7,30.6h39.2c3.8,0,7,2.7,7,6.4
				c0,3.8-3.2,6.4-7,6.4h-70.8v32.2h78.4c18.2,0,33.3-17.2,33.3-38.1C738,82.7,737.5,77.8,735.9,73.6z M680.1,78.4L680.1,78.4
				L680.1,78.4L680.1,78.4z"/>
			<path class="st0" d="M734.8,8.6h-74.1c-18.2,0-33.8,14-35.4,31.7h109.5V8.6z"/>
		</g>
		<line class="st1" x1="185.8" y1="126.7" x2="185.8" y2="126.7"/>
		<path class="st0" d="M205.1,50.5V66c-0.5,12.9,3.2,27.9-19.9,27.9c-22.5,0-19.3-15-19.9-27.9V50.5H130v17.2
			c0,16.6,0.5,32.7,13.4,45.1c10.7,10.2,25.2,14.5,41.3,14.5l0,0l0,0l0,0l0,0c16.1,0,30.6-3.8,41.3-14.5
			c12.9-12.3,13.4-28.4,13.4-45.1V50.5H205.1z"/>
		<g>
			<path class="st0" d="M367.2,40.3V8.1h-59c-22,0-41.3,12.9-50.4,32.2H367.2z"/>
			<path class="st0" d="M311.9,80.5h20.4v13.4h-21.5c-13.4,0-23.6-11.3-23.6-24.7V65c0-5.9,1.6-10.7,4.8-15h-37.6
				c-1.1,4.3-1.6,9.1-1.6,14v5.9c0,30.6,24.7,55.8,55.8,55.8h59V50.5h-55.8V80.5z"/>
		</g>
		<g>
			<rect x="383.3" y="8.1" class="st0" width="35.4" height="32.2"/>
			<polygon class="st0" points="418.2,50.5 418.2,49.9 383.3,49.9 383.3,125.6 418.2,125.6 418.2,80.5 456.8,80.5 456.8,125.6 
				492.2,125.6 492.2,50.5 			"/>
		</g>
	</g>
	<g>
		<path class="st0" d="M755.2,101.5c6.4,0,11.8,5.4,11.8,11.8c0,7-5.4,11.8-11.8,11.8c-6.4,0-11.8-5.4-11.8-11.8
			S748.8,101.5,755.2,101.5L755.2,101.5z M755.2,103.6c-5.4,0-9.7,4.3-9.7,10.2c0,5.9,4.3,10.2,9.7,10.2s9.7-4.3,9.7-10.2
			C764.9,107.9,760.6,103.6,755.2,103.6L755.2,103.6z M753,120.2h-2.1v-13.4c1.1,0,2.1-0.5,3.8-0.5c2.1,0,3.2,0.5,4.3,1.1
			c0.5,0.5,1.1,1.6,1.1,2.7c0,1.6-1.1,2.7-2.7,3.2l0,0c1.1,0,2.1,1.1,2.1,3.2c0.5,2.1,0.5,2.7,1.1,3.2h-2.1
			c-0.5-0.5-0.5-1.6-1.1-3.2c-0.5-1.6-1.1-2.1-2.7-2.1H753V120.2z M753,113.3h1.6c1.6,0,3.2-0.5,3.2-2.1c0-1.1-1.1-2.1-3.2-2.1
			c-0.5,0-1.1,0-1.6,0V113.3z"/>
	</g>
</g>
<g>
	<path d="M266.3,157.3h5.9l12.9,32.7h-6.4l-3.2-8.6h-12.9l-2.7,8.6H254L266.3,157.3z M264.2,177.1h10.2l-4.8-14l0,0L264.2,177.1z"/>
	<path d="M287.2,166.4h4.8v3.8l0,0c0.5-1.1,1.6-2.1,3.2-3.2c1.1-0.5,2.7-1.1,4.3-1.1c2.7,0,4.8,0.5,6.4,2.1c1.6,1.6,2.1,3.2,2.1,5.9
		V190h-5.4v-15c0-2.1-0.5-3.2-1.1-4.3c-0.5-1.1-2.1-1.1-3.2-1.1c-1.1,0-1.6,0-2.1,0.5c-0.5,0.5-1.1,0.5-1.6,1.1
		c-1.1,1.1-1.1,1.6-1.6,2.7c-0.5,0.5-0.5,1.6-0.5,2.7V190h-5.4C287.2,190,287.2,166.4,287.2,166.4z"/>
	<path d="M327.5,157.3h23.6v4.8h-17.7v8.6H350v4.8h-16.6v9.7h18.2v4.8h-24.1C327.5,190,327.5,157.3,327.5,157.3z"/>
	<path d="M372,174.4c0-1.6-1.1-2.7-1.6-3.2c-1.1-0.5-2.1-1.1-3.8-1.1c-0.5,0-1.6,0-2.1,0.5c-0.5,0-1.6,0.5-2.1,1.1
		c-0.5,0.5-1.1,1.6-1.6,2.7c-0.5,1.1-0.5,2.7-0.5,4.3c0,1.1,0,2.1,0.5,2.7c0,1.1,0.5,1.6,1.1,2.7c0.5,0.5,1.1,1.6,2.1,1.6
		c0.5,0.5,1.6,0.5,2.7,0.5c1.6,0,2.7-0.5,3.8-1.6c1.1-1.1,1.6-2.1,1.6-3.8h5.4c-0.5,3.2-1.6,5.4-3.8,7c-1.6,1.6-4.3,2.7-7.5,2.7
		c-1.6,0-3.8-0.5-4.8-1.1c-1.6-0.5-2.7-1.6-3.8-2.7c-1.1-1.1-1.6-2.1-2.1-3.8c-0.5-1.6-0.5-3.2-0.5-4.8c0-1.6,0-3.2,0.5-4.8
		c0.5-1.6,1.1-2.7,2.1-4.3c1.1-1.1,2.1-2.1,3.8-2.7c1.6-0.5,3.2-1.1,5.4-1.1c1.6,0,2.7,0,3.8,0.5c1.1,0.5,2.1,1.1,3.2,1.6
		c1.1,0.5,1.6,1.6,2.1,2.7c0.5,1.1,1.1,2.1,1.1,3.8H372V174.4z"/>
	<path d="M381.7,157.3h5.4v12.3l0,0c0.5-1.1,1.6-2.1,2.7-2.7s2.7-1.1,4.3-1.1c2.7,0,4.8,0.5,6.4,2.1c1.6,1.6,2.1,3.2,2.1,5.9V190
		h-5.4v-15c0-2.1-0.5-3.2-1.1-4.3c-0.5-1.1-2.1-1.1-3.2-1.1s-1.6,0-2.1,0.5c-0.5,0.5-1.1,0.5-1.6,1.1c-0.5,0.5-1.1,1.1-1.1,2.1
		c-0.5,0.5-0.5,1.6-0.5,2.7v14h-5.4v-32.7H381.7z"/>
	<path d="M418.7,191.1c-2.1,0-3.8-0.5-5.4-1.1c-1.6-0.5-2.7-1.6-3.8-2.7c-1.1-1.1-1.6-2.7-2.1-3.8c-0.5-1.6-1.1-3.2-1.1-4.8
		c0-1.6,0.5-3.2,1.1-4.8c0.5-1.6,1.1-2.7,2.1-3.8c1.1-1.1,2.1-2.1,3.8-2.7c1.6-0.5,3.2-1.1,5.4-1.1c2.1,0,3.8,0.5,5.4,1.1
		s2.7,1.6,3.8,2.7c1.1,1.1,1.6,2.7,2.1,3.8c0.5,1.6,0.5,3.2,0.5,4.8c0,1.6,0,3.8-0.5,4.8c-0.5,1.6-1.1,2.7-2.1,3.8
		c-1.1,1.1-2.1,2.1-3.8,2.7C422.5,190.5,420.9,191.1,418.7,191.1z M418.7,186.8c1.1,0,2.1,0,3.2-0.5s1.6-1.1,2.1-2.1
		c0.5-0.5,1.1-1.6,1.1-2.7c0-1.1,0.5-2.1,0.5-3.2c0-1.1,0-2.1-0.5-3.2c0-1.1-0.5-2.1-1.1-2.7c-0.5-0.5-1.1-1.6-2.1-2.1
		c-1.1-0.5-1.6-0.5-3.2-0.5c-1.1,0-2.1,0-3.2,0.5c-1.1,0.5-1.6,1.1-2.1,2.1c-0.5,0.5-1.1,1.6-1.1,2.7c0,1.1-0.5,2.1-0.5,3.2
		c0,1.1,0,2.1,0.5,3.2c0,1.1,0.5,2.1,1.1,2.7c0.5,0.5,1.1,1.6,2.1,2.1C416.6,186.2,417.6,186.8,418.7,186.8z"/>
	<path d="M439.6,179.3c0,1.1,0,2.1,0.5,3.2c0.5,1.1,1.1,1.6,1.6,2.1c0.5,0.5,1.6,1.1,2.7,1.1s2.1,0.5,3.2,0.5s2.1,0,3.2-0.5
		s1.6-0.5,2.1-1.1c0.5-0.5,1.1-1.1,1.1-1.6s0.5-1.1,0.5-1.6c0-1.1-0.5-2.1-1.1-2.7c-0.5-0.5-1.1-1.1-1.6-1.1
		c-1.1-0.5-2.7-1.1-4.3-1.1c-1.6-0.5-3.2-1.1-5.9-1.6c-1.6-0.5-2.7-1.1-3.8-1.6c-1.1-0.5-1.6-1.1-2.1-2.1c-0.5-0.5-1.1-1.6-1.1-2.1
		c0-1.1-0.5-1.6-0.5-2.7c0-1.6,0.5-3.2,1.1-4.3c0.5-1.1,1.6-2.1,2.7-3.2c1.1-0.5,2.7-1.6,3.8-1.6c1.6-0.5,2.7-0.5,4.3-0.5
		c1.6,0,3.2,0,4.8,0.5s2.7,1.1,3.8,2.1c1.1,1.1,2.1,2.1,2.7,3.2c0.5,1.1,1.1,2.7,1.1,4.3h-5.9c0-2.1-1.1-3.8-2.1-4.3
		c-1.1-1.1-2.7-1.1-4.8-1.1c-0.5,0-1.6,0-2.1,0c-0.5,0-1.6,0.5-2.1,0.5c-0.5,0.5-1.1,0.5-1.6,1.1c-0.5,0.5-0.5,1.1-0.5,2.1
		s0.5,2.1,1.1,2.7c0.5,0.5,1.6,1.1,2.7,1.6c0,0,0.5,0,1.6,0.5c1.1,0,1.6,0.5,2.7,0.5c1.1,0.5,2.1,0.5,3.2,1.1c1.1,0,1.6,0.5,2.1,0.5
		c1.1,0.5,2.1,0.5,2.7,1.6c0.5,0.5,1.6,1.1,2.1,2.1c0.5,0.5,1.1,1.6,1.1,2.7c0,1.1,0.5,1.6,0.5,2.7c0,1.6-0.5,3.2-1.1,4.8
		c-0.5,1.1-1.6,2.1-3.2,3.2c-1.1,1.1-2.7,1.6-4.3,1.6c-1.6,0.5-3.2,0.5-4.8,0.5s-3.8,0-5.4-0.5s-3.2-1.1-4.3-2.1
		c-1.1-1.1-2.1-2.1-2.7-3.8c-0.5-1.6-1.1-3.2-1.1-5.4h7.5V179.3z"/>
	<path d="M462.7,166.4h3.8v-7h5.4v7h4.8v3.8h-4.8V183c0,0.5,0,1.1,0,1.6s0,0.5,0.5,1.1c0,0.5,0.5,0.5,0.5,0.5c0.5,0,1.1,0,1.6,0
		s0.5,0,1.1,0c0.5,0,0.5,0,1.1,0v3.8c-0.5,0-1.1,0-1.6,0c-0.5,0-1.1,0-1.6,0c-1.6,0-2.7,0-3.2-0.5c-1.1,0-1.6-0.5-2.1-1.1
		c-0.5-0.5-0.5-1.1-1.1-2.1c0-0.5-0.5-1.6-0.5-2.7v-14h-3.8C462.7,169.6,462.7,166.4,462.7,166.4z"/>
	<path d="M500.3,185.2c0,0.5,0,1.1,0,1.6s0.5,0.5,1.1,0.5h0.5h0.5v3.8h-0.5c-0.5,0-0.5,0-1.1,0s-0.5,0-1.1,0c-0.5,0-0.5,0-0.5,0
		c-1.1,0-2.1,0-2.7-0.5c-0.5-0.5-1.1-1.1-1.6-2.1c-1.1,1.1-2.1,1.6-3.8,2.1c-1.6,0.5-3.2,0.5-4.3,0.5c-1.1,0-2.1,0-3.2-0.5
		s-1.6-0.5-2.7-1.1c-0.5-0.5-1.6-1.1-1.6-2.1c-0.5-1.1-0.5-2.1-0.5-3.2c0-1.6,0.5-2.7,1.1-3.8c0.5-1.1,1.1-1.6,2.1-2.1
		c1.1-0.5,1.6-1.1,3.2-1.1c1.1,0,2.1-0.5,3.2-0.5s1.6-0.5,2.7-0.5s1.6,0,2.1-0.5c0.5,0,1.1-0.5,1.6-1.1c0.5-0.5,0.5-1.1,0.5-1.6
		c0-0.5,0-1.1-0.5-1.6c-0.5-0.5-0.5-0.5-1.1-1.1c-0.5,0-1.1-0.5-1.6-0.5c-0.5,0-1.1,0-1.6,0c-1.6,0-2.7,0.5-3.8,1.1
		c-1.1,0.5-1.6,1.6-1.6,2.7h-5.4c0-1.6,0.5-2.7,1.1-3.8c0.5-1.1,1.6-1.6,2.7-2.7c1.1-0.5,2.1-1.1,3.2-1.1s2.7-0.5,3.8-0.5
		s2.1,0,3.2,0.5c1.1,0,2.1,0.5,3.2,1.1s1.6,1.1,2.1,2.1c0.5,1.1,1.1,2.1,1.1,3.2L500.3,185.2L500.3,185.2z M495.5,178.2
		c-1.1,0.5-2.1,1.1-3.2,1.1s-2.1,0-3.8,0.5c-0.5,0-1.1,0-1.6,0.5c-0.5,0-1.1,0.5-1.6,0.5c-0.5,0.5-0.5,0.5-1.1,1.1
		c0,0.5-0.5,1.1-0.5,1.6c0,0.5,0,1.1,0.5,1.6c0.5,0.5,0.5,0.5,1.1,1.1c0.5,0,1.1,0.5,1.6,0.5s1.1,0,1.6,0c0.5,0,1.1,0,2.1,0
		c0.5,0,1.1-0.5,2.1-0.5c0.5-0.5,1.1-1.1,1.6-1.6c0.5-0.5,0.5-1.1,0.5-2.1v-4.3H495.5z"/>
	<path d="M506.2,166.4h4.8v4.8l0,0c0-0.5,0.5-1.1,1.1-2.1c0.5-0.5,1.1-1.1,1.6-1.6c0.5-0.5,1.1-1.1,2.1-1.1c0.5-0.5,1.6-0.5,2.1-0.5
		c0.5,0,1.1,0,1.1,0h0.5v4.8c-0.5,0-0.5,0-1.1,0s-0.5,0-1.1,0c-1.1,0-1.6,0-2.7,0.5c-0.5,0.5-1.6,1.1-2.1,1.6
		c-0.5,0.5-1.1,1.6-1.6,2.7c-0.5,1.1-0.5,2.1-0.5,3.8V190h-5.4v-23.6H506.2z"/>
	<path d="M555.6,168c0-1.1-0.5-1.6-1.1-2.7c-0.5-0.5-1.1-1.6-1.6-2.1s-1.6-1.1-2.1-1.6c-1.1-0.5-2.1-0.5-3.2-0.5
		c-1.6,0-3.2,0.5-4.3,1.1c-1.1,0.5-2.1,1.6-3.2,2.7c-0.5,1.1-1.6,2.7-1.6,4.3c-0.5,1.6-0.5,3.2-0.5,4.8c0,1.6,0,3.2,0.5,4.8
		c0.5,1.6,1.1,2.7,1.6,4.3c0.5,1.1,1.6,2.1,3.2,2.7c1.1,0.5,2.7,1.1,4.3,1.1c1.1,0,2.7,0,3.2-0.5c1.1-0.5,1.6-1.1,2.7-1.6
		c0.5-0.5,1.1-1.6,1.6-2.7c0.5-1.1,0.5-2.1,0.5-3.2h5.4c0,2.1-0.5,3.8-1.1,5.4c-0.5,1.6-1.6,3.2-2.7,4.3c-1.1,1.1-2.7,2.1-4.3,2.7
		c-1.6,0.5-3.2,1.1-5.4,1.1c-2.7,0-4.8-0.5-6.4-1.6c-2.1-1.1-3.8-2.1-4.8-3.8c-1.6-1.6-2.1-3.2-3.2-5.4c-0.5-2.1-1.1-4.3-1.1-6.4
		c0-2.1,0.5-4.3,1.1-6.4c0.5-2.1,1.6-3.8,3.2-5.4c1.6-1.6,3.2-2.7,4.8-3.8c2.1-1.1,4.3-1.6,6.4-1.6c1.6,0,3.8,0,5.4,0.5
		c1.6,0.5,3.2,1.1,4.3,2.1s2.1,2.1,3.2,3.8c0.5,1.6,1.1,3.2,1.6,4.8h-6.4V168z"/>
	<path d="M576.5,191.1c-2.1,0-3.8-0.5-5.4-1.1c-1.6-0.5-2.7-1.6-3.8-2.7c-1.1-1.1-1.6-2.7-2.1-3.8c-0.5-1.6-1.1-3.2-1.1-4.8
		c0-1.6,0-3.2,1.1-4.8c0.5-1.6,1.1-2.7,2.1-3.8c1.1-1.1,2.1-2.1,3.8-2.7s3.2-1.1,5.4-1.1s3.8,0.5,4.8,1.1c1.6,0.5,2.7,1.6,3.8,2.7
		c1.1,1.1,1.6,2.7,2.1,3.8c0.5,1.6,1.1,3.2,1.1,4.8c0,1.6,0,3.8-1.1,4.8c-0.5,1.6-1.1,2.7-2.1,3.8c-1.1,1.1-2.1,2.1-3.8,2.7
		C580.2,190.5,578.6,191.1,576.5,191.1z M576.5,186.8c1.1,0,2.1,0,3.2-0.5c1.1-0.5,1.6-1.1,2.1-2.1c0.5-0.5,1.1-1.6,1.1-2.7
		c0-1.1,0.5-2.1,0.5-3.2c0-1.1,0-2.1-0.5-3.2c0-1.1-0.5-2.1-1.1-2.7s-1.1-1.6-2.1-2.1c-1.1-0.5-1.6-0.5-3.2-0.5
		c-1.1,0-2.1,0-3.2,0.5c-1.1,0.5-1.6,1.1-2.1,2.1c-0.5,0.5-1.1,1.6-1.1,2.7c0,1.1-0.5,2.1-0.5,3.2c0,1.1,0,2.1,0.5,3.2
		c0,1.1,0.5,2.1,1.1,2.7s1.1,1.6,2.1,2.1C574.3,186.2,575.4,186.8,576.5,186.8z"/>
	<path d="M593.1,166.4h4.8v3.2l0,0c0.5-0.5,1.1-1.1,1.1-1.6c0.5-0.5,1.1-1.1,1.6-1.1c0.5-0.5,1.1-0.5,2.1-1.1c0.5,0,1.6-0.5,2.7-0.5
		c1.6,0,2.7,0.5,4.3,1.1c1.1,0.5,2.1,1.6,2.7,3.2c1.1-1.1,2.1-2.1,3.2-2.7c1.1-0.5,2.7-1.1,4.3-1.1c2.7,0,4.3,0.5,5.9,1.6
		s2.1,3.2,2.1,6.4V190h-5.4v-14c0-1.1,0-1.6,0-2.7c0-0.5,0-1.6-0.5-2.1s-0.5-1.1-1.1-1.1c-0.5-0.5-1.6-0.5-2.1-0.5
		c-1.6,0-3.2,0.5-3.8,1.6c-0.5,1.1-1.1,2.7-1.1,4.8v14h-5.4v-15.6c0-1.6-0.5-2.7-1.1-3.8c-0.5-1.1-1.6-1.1-3.2-1.1
		c-0.5,0-1.1,0-2.1,0.5c-0.5,0.5-1.1,0.5-1.6,1.1c-0.5,0.5-1.1,1.1-1.1,2.1c-0.5,0.5-0.5,1.6-0.5,2.7v14h-5.4v-23.6H593.1z"/>
	<path d="M633.4,166.4h4.8v3.2l0,0c0.5-1.6,1.6-2.1,3.2-3.2c1.1-0.5,2.7-1.1,4.3-1.1c1.6,0,3.8,0.5,4.8,1.1c1.6,0.5,2.7,1.6,3.2,2.7
		c1.1,1.1,1.6,2.7,2.1,4.3c0.5,1.6,0.5,3.2,0.5,4.8c0,1.6,0,3.2-0.5,4.8c-0.5,1.6-1.1,2.7-2.1,3.8c-1.1,1.1-2.1,2.1-3.2,2.7
		s-2.7,1.1-4.8,1.1c-0.5,0-1.6,0-2.1,0c-0.5,0-1.6-0.5-2.1-0.5c-0.5-0.5-1.6-0.5-2.1-1.1c-0.5-0.5-1.1-1.1-1.6-1.6l0,0v11.8h-5.4
		v-32.7H633.4z M651.6,178.2c0-1.1,0-2.1-0.5-3.2c-0.5-1.1-0.5-2.1-1.1-2.7c-0.5-0.5-1.1-1.6-2.1-2.1c-1.1-0.5-1.6-0.5-2.7-0.5
		c-2.1,0-3.8,0.5-4.8,2.1c-1.1,1.6-1.6,3.8-1.6,5.9c0,1.1,0,2.1,0.5,3.2c0.5,1.1,0.5,2.1,1.1,2.7s1.1,1.1,2.1,1.6
		c1.1,0.5,1.6,0.5,2.7,0.5c1.1,0,2.1,0,3.2-0.5c1.1-0.5,1.6-1.1,2.1-2.1c0.5-0.5,1.1-1.6,1.1-2.7
		C651.6,180.3,651.6,179.3,651.6,178.2z"/>
	<path d="M681.1,185.2c0,0.5,0,1.1,0,1.6s0.5,0.5,1.1,0.5h0.5h0.5v3.8h-0.5c-0.5,0-0.5,0-1.1,0s-0.5,0-1.1,0c-0.5,0-0.5,0-0.5,0
		c-1.1,0-2.1,0-2.7-0.5c-0.5-0.5-1.1-1.1-1.6-2.1c-1.1,1.1-2.1,1.6-3.8,2.1c-1.6,0.5-3.2,0.5-4.3,0.5s-2.1,0-3.2-0.5
		c-1.1-0.5-1.6-0.5-2.7-1.1c-0.5-0.5-1.6-1.1-1.6-2.1c0-1.1-0.5-2.1-0.5-3.2c0-1.6,0-2.7,1.1-3.8c0.5-1.1,1.1-1.6,2.1-2.1
		c1.1-0.5,1.6-1.1,2.7-1.1c1.1,0,2.1-0.5,3.2-0.5c1.1,0,1.6-0.5,2.7-0.5c1.1,0,1.6,0,2.1-0.5c0.5,0,1.1-0.5,1.6-1.1
		c0.5-0.5,0.5-1.1,0.5-1.6c0-0.5,0-1.1-0.5-1.6c-0.5-0.5-0.5-0.5-1.1-1.1c-0.5,0-1.1-0.5-1.6-0.5s-1.1,0-1.6,0
		c-1.6,0-2.7,0.5-3.8,1.1c-1.1,0.5-1.6,1.6-1.6,2.7h-5.4c0-1.6,0.5-2.7,1.1-3.8c0.5-1.1,1.6-1.6,2.7-2.7c1.1-0.5,2.1-1.1,3.2-1.1
		s2.7-0.5,3.8-0.5c1.1,0,2.1,0,3.2,0.5c1.1,0,2.1,0.5,3.2,1.1c1.1,0.5,1.6,1.1,2.1,2.1c0.5,1.1,1.1,2.1,1.1,3.2v12.9H681.1z
		 M676.3,178.2c-0.5,0.5-1.6,1.1-2.7,1.1c-1.1,0-2.1,0-3.8,0.5c-0.5,0-1.1,0-1.6,0.5c-0.5,0-1.1,0.5-1.6,0.5
		c-0.5,0.5-0.5,0.5-1.1,1.1c0,0.5-0.5,1.1-0.5,1.6c0,0.5,0,1.1,0.5,1.6s0.5,0.5,1.1,1.1c0.5,0,1.1,0.5,1.6,0.5c0.5,0,1.1,0,1.6,0
		s1.1,0,2.1,0c0.5,0,1.1-0.5,2.1-0.5c0.5-0.5,1.1-1.1,1.6-1.6s0.5-1.1,0.5-2.1C676.3,182.5,676.3,178.2,676.3,178.2z"/>
	<path d="M687,166.4h4.8v3.8l0,0c0.5-1.1,1.6-2.1,3.2-3.2c1.1-0.5,2.7-1.1,4.3-1.1c2.7,0,4.8,0.5,6.4,2.1c1.6,1.6,2.1,3.2,2.1,5.9
		V190h-5.4v-15c0-2.1-0.5-3.2-1.1-4.3c-0.5-1.1-2.1-1.1-3.2-1.1c-1.1,0-1.6,0-2.1,0.5c-0.5,0.5-1.1,0.5-1.6,1.1s-1.1,1.1-1.1,2.1
		c-0.5,0.5-0.5,1.6-0.5,2.7v14h-5.4v-23.6H687z"/>
	<path d="M710.7,166.4h5.9l6.4,17.7l0,0l5.9-17.7h5.4l-9.1,25.2c-0.5,1.1-1.1,2.1-1.1,3.2c-0.5,1.1-1.1,1.6-1.6,2.7
		c-0.5,0.5-1.1,1.6-2.1,1.6c-1.1,0.5-2.1,0.5-3.2,0.5c-1.1,0-2.7,0-3.8-0.5v-4.3c0.5,0,1.1,0,1.1,0c0.5,0,1.1,0,1.1,0
		c0.5,0,1.1,0,1.6,0s0.5-0.5,1.1-0.5c0-0.5,0.5-0.5,0.5-1.1c0-0.5,0.5-1.1,0.5-1.6l0.5-1.6L710.7,166.4z"/>
</g>
</svg>
