<?xml version="1.0" encoding="utf-8"?>
<!-- Generator: Adobe Illustrator 22.1.0, SVG Export Plug-In . SVG Version: 6.00 Build 0)  -->
<svg version="1.1" id="Layer_1" xmlns="http://www.w3.org/2000/svg" xmlns:xlink="http://www.w3.org/1999/xlink" x="0px" y="0px"
	 viewBox="0 0 601.7 481.7" style="enable-background:new 0 0 601.7 481.7;" xml:space="preserve">
<style type="text/css">
	.st0{fill:#D0D1CF;}
	.st1{fill:#0976B6;}
	.st2{fill:url(#path42_1_);}
	.st3{fill:#27ADEA;}
	.st4{fill:#8F9198;}
</style>
<g>
	<g>
		<path id="path14" class="st0" d="M331.4,91.1c0,0-189,128.7-217.7,176.9L36,245.9c0,0,102.6-136.7,227.8-154.9L331.4,91.1"/>
		<path id="path18" class="st0" d="M501.8,103.1C319.6,132.3,195.1,290,195.1,290l76.8,21.8c35.5-33.8,96.1-74.7,155.3-110.3
			c-40.5,62.6-70.3,133.9-70.3,133.9l97.2,27.3c0,0,31.9-163.3,142.9-255.4L501.8,103.1"/>
	</g>
	<g>
		<path id="path16" class="st1" d="M263.2,91.1h67.6c0,0-19-51.4-40.2-78.9l-64.7-3.2C246.1,29.2,258,70.3,263.2,91.1"/>
		<path id="path20" class="st1" d="M501.3,103.1l95.2,4.2c0,0-33.1-62.8-65-82.4l-66.6-3.3C485.2,41.9,496.1,82.3,501.3,103.1"/>
	</g>
	
		<linearGradient id="path42_1_" gradientUnits="userSpaceOnUse" x1="-220.8169" y1="666.9496" x2="-220.0332" y2="666.9496" gradientTransform="matrix(76.844 -268.5587 -268.5587 -76.844 196310.5781 -7704.0361)">
		<stop  offset="0" style="stop-color:#0976B6"/>
		<stop  offset="1" style="stop-color:#27ADEA"/>
	</linearGradient>
	<path id="path42" class="st2" d="M453.4,361.9v-0.1H453v-0.1h-0.3v-0.1h-0.4v-0.1h-0.4v-0.1h-0.3v-0.1h-0.4v-0.1h-0.3v-0.1h-0.4
		V361H450v-0.1h-0.4v-0.1h-0.4v-0.1h-0.3v-0.1h-0.4v-0.1h-0.3v-0.1h-0.4v-0.1h-0.4v-0.1H447V360h-0.4v-0.1h-0.3v-0.1h-0.4v-0.1h-0.3
		v-0.1h-0.4v-0.1h-0.4v-0.1h-0.3v-0.1H444v-0.1h-0.3v-0.1h-0.4V359h-0.3v-0.1h-0.4v-0.1h-0.4v-0.1h-0.3v-0.1h-0.4v-0.1h-0.3v-0.1
		h-0.4v-0.1h-0.3v-0.1h-0.4V358h-0.4v-0.1h-0.3v-0.1h-0.4v-0.1h-0.3v-0.1H438v-0.1h-0.3v-0.1h-0.4v-0.1h-0.4v-0.1h-0.3v-0.1h-0.4
		V357h-0.3v-0.1h-0.4v-0.1H435v-0.1h-0.3v-0.1h-0.4v-0.1h-0.3v-0.1h-0.4v-0.1h-0.3v-0.1h-0.4V356h-0.4v-0.1h-0.3v-0.1h-0.4v-0.1
		h-0.3v-0.1h-0.4v-0.1h-0.3v-0.1h-0.4v-0.1h-0.4v-0.1h-0.3v-0.1H429V355h-0.3v-0.1h-0.4v-0.1H428v-0.1h-0.4v-0.1h-0.4v-0.1h-0.3
		v-0.1h-0.4v-0.1h-0.3v-0.1h-0.4v-0.1h-0.3v-0.1H425v-0.1h-0.4v-0.1h-0.3v-0.1h-0.4v-0.1h-0.3v-0.1h-0.4v-0.1h-0.4v-0.1h-0.3v-0.1
		h-0.4V353h-0.3v-0.1h-0.4v-0.1h-0.3v-0.1h-0.4v-0.1H420v-0.1h-0.3v-0.1h-0.4v-0.1H419v-0.1h-0.4v-0.1h-0.3V352h-0.4v-0.1h-0.4v-0.1
		h-0.3v-0.1h-0.4v-0.1h-0.3v-0.1H416v-0.1h-0.3v-0.1h-0.4v-0.1h-0.4V351h-0.3v-0.1h-0.4v-0.1h-0.3v-0.1h-0.4v-0.1h-0.4v-0.1h-0.3
		v-0.1h-0.4v-0.1h-0.3v-0.1h-0.4v-0.1h-0.3V350h-0.4v-0.1h-0.4v-0.1H410v-0.1h-0.4v-0.1h-0.3v-0.1h-0.4v-0.1h-0.3v-0.1h-0.4v-0.1
		h-0.4V349h-0.3v-0.1H407v-0.1h-0.3v-0.1h-0.4v-0.1h-0.3v-0.1h-0.4v-0.1h-0.4v-0.1h-0.3v-0.1h-0.4v-0.1h-0.3V348h-0.4v-0.1h-0.3
		v-0.1h-0.4v-0.1h-0.4v-0.1h-0.3v-0.1h-0.4v-0.1h-0.3v-0.1H401v-0.1h-0.4v-0.1h-0.3v-0.1h-0.4v-0.1h-0.3v-0.1h-0.4v-0.1h-0.3v-0.1
		h-0.4v-0.1H398v-0.1h-0.3v-0.1h-0.4v-0.1H397V346h-0.4v-0.1h-0.3v-0.1h-0.4v-0.1h-0.4v-0.1h-0.3v-0.1h-0.4v-0.1h-0.3v-0.1h-0.4
		v-0.1h-0.3v-0.1h-0.4V345h-0.4v-0.1h-0.3v-0.1H392v-0.1h-0.3v-0.1h-0.4v-0.1H391v-0.1h-0.4v-0.1h-0.4v-0.1h-0.3V344h-0.4v-0.1h-0.3
		v-0.1h-0.4v-0.1h-0.4v-0.1H388v-0.1h-0.4v-0.1h-0.3v-0.1h-0.4v-0.1h-0.3v-0.1h-0.4V343h-0.4v-0.1h-0.3v-0.1h-0.4v-0.1h-0.3v-0.1
		h-0.4v-0.1h-0.3v-0.1h-0.4v-0.1h-0.4v-0.1h-0.3V342h-0.4v-0.1H382v-0.1h-0.4v-0.1h-0.3v-0.1h-0.4v-0.1h-0.4v-0.1h-0.3v-0.1h-0.4
		v-0.1h-0.3v-0.1H379V341h-0.4v-0.1h-0.3v-0.1h-0.4v-0.1h-0.3v-0.1h-0.4v-0.1h-0.3v-0.1h-0.4v-0.1H376v-0.1h-0.3v-0.1h-0.4v-0.1
		h-0.3v-0.1h-0.4v-0.1h-0.3v-0.1h-0.4v-0.1h-0.4v-0.1H373v-0.1h-0.4v-0.1h-0.3v-0.1h-0.4V339h-0.3v-0.1h-0.4v-0.1h-0.4v-0.1h-0.3
		v-0.1H370v-0.1h-0.3v-0.1h-0.4v-0.1H369v-0.1h-0.4v-0.1h-0.4V338h-0.3v-0.1h-0.4v-0.1h-0.3v-0.1h-0.4v-0.1h-0.4v-0.1h-0.3v-0.1
		h-0.4v-0.1h-0.3v-0.1h-0.4V337h-0.3v-0.1H364v-0.1h-0.4v-0.1h-0.3v-0.1h-0.4v-0.1h-0.3v-0.1h-0.4v-0.1h-0.3v-0.1h-0.4v-0.1H361V336
		h-0.3v-0.1h-0.4v-0.1H360v-0.1h-0.4v-0.1h-0.3v-0.1h-0.4v-0.1h-0.4v-0.1h-0.3v-0.1h-0.4V335h-0.3v-0.1H357v-3.1h0.1v-2.9h0.1v-2.6
		h0.1v-2.4h0.1v-2.3h0.1v-2.1h0.1v-2h0.1v-2h0.1v-1.9h0.1v-1.9h0.1V310h0.1v-1.7h0.1v-1.7h0.1v-1.7h0.1v-1.6h0.1v-1.6h0.1v-1.6h0.1
		v-1.5h0.1v-1.5h0.1v-1.5h0.1v-1.5h0.1V293h0.1v-1.4h0.1v-1.4h0.1V289h0.1v-1.3h0.1v-1.4h0.1v-1.3h0.1v-1.3h0.1v-1.3h0.1v-1.1h0.1
		v-1.3h0.1V279h0.1v-1.3h0.1v-1.1h0.1v-1.1h0.1v-1.1h0.1v-1h0.1v-1.1h0.1v-1h0.1v-1.1h0.1v-1h0.1v-1.1h0.1v-1h0.1v-1h0.1v-1h0.1v-1
		h0.1v-0.9h0.1v-1h0.1v-0.9h0.1v-1h0.1v-0.9h0.1v-1h0.1v-0.9h0.1v-0.9h0.1v-0.9h0.1v-0.9h0.1v-0.9h0.1V252h0.1V251h0.1v-0.9h0.1
		v-0.8h0.1v-0.9h0.1v-0.9h0.1v-0.8h0.1v-0.8h0.1v-0.9h0.1v-0.8h0.1V243h0.1v-0.8h0.1v-0.8h0.1v-0.8h0.1v-0.8h0.1v-0.8h0.1V238h0.1
		v-0.8h0.1v-0.8h0.1v-0.7h0.1v-0.8h0.1v-0.8h0.1v-0.7h0.1v-0.8h0.1v-0.8h0.1v-0.7h0.1V230h0.1v-0.8h0.1v-0.7h0.1v-0.8h0.1v-0.7h0.1
		v-0.7h0.1v-0.7h0.1v-0.7h0.1v-0.8h0.1v-0.7h0.1v-0.7h0.1v-0.7h0.1v-0.7h0.1v-0.7h0.1v-0.7h0.1v-0.6h0.1v-0.7h0.1v-0.7h0.1v-0.7h0.1
		V216h0.1v-0.7h0.1v-0.7h0.1v-0.6h0.1v-0.7h0.1v-0.6h0.1v-0.7h0.1v-0.6h0.1v-0.7h0.1v-0.6h0.1v-0.7h0.1v-0.6h0.1v-0.6h0.1v-0.7h0.1
		v-0.6h0.1v-0.6h0.1v-0.6h0.1v-0.6h0.1v-0.7h0.1v-0.6h0.1v-0.6h0.1V202h0.1v-0.6h0.1v-0.6h0.1v-0.6h0.1v-0.6h0.1v-0.6h0.1v-0.6h0.1
		v-0.6h0.1V197h0.1v-0.5h0.1v-0.6h0.1v-0.6h0.1v-0.5h0.1v-0.6h0.1v-0.6h0.1v-0.6h0.1v-0.5h0.1v-0.6h0.1v-0.6h0.1v-0.5h0.1v-0.6h0.1
		v-0.5h0.1v-0.6h0.1v-0.5h0.1v-0.6h0.1v-0.5h0.1v-0.5h0.1v-0.6h0.1v-0.5h0.1v-0.6h0.1v-0.5h0.1v-0.5h0.1v-0.6h0.1v-0.5h0.1v-0.5h0.1
		v-0.5h0.1V181h0.1v-0.6h0.1v-0.5h0.1v-0.5h0.1v-0.5h0.1v-0.5h0.1v-0.5h0.1v-0.5h0.1v-0.5h0.1v-0.5h0.1v-0.5h0.1v-0.6h0.1v-0.5h0.1
		V174h0.1v-0.5h0.1V173h0.1v-0.4h0.1V172h0.1v-0.5h0.1V171h0.1v-0.5h0.1v-0.4h0.1v-0.5h0.1V169h0.1v-0.5h0.1V168h0.1v-0.4h0.1V167
		h0.1v-0.5h0.1V166h0.1v-0.4h0.1V165h0.1v-0.4h0.1v-0.5h0.1v-0.5h0.1v-0.4h0.1v-0.5h0.1v-0.4h0.1v-0.5h0.1v-0.5h0.1v-0.4h0.1v-0.4
		h0.1v-0.5h0.1v-0.4h0.1v-0.5h0.1v-0.4h0.1v-0.5h0.1v-0.4h0.1v-0.4h0.1v-0.5h0.1v-0.4h0.1v-0.5h0.1v-0.4h0.1v-0.4h0.1v-0.5h0.1v-0.4
		h0.1v-0.4h0.1V153h0.1v-0.4h0.1v-0.5h0.1v-0.4h0.1v-0.4h0.1v-0.4h0.1v-0.5h0.1v-0.4h0.1v-0.4h0.1v-0.4h0.1v-0.4h0.1v-0.4h0.1v-0.4
		h0.1v-0.4h0.1V147h0.1v-0.4h0.1V146h0.1v-0.4h0.1v-0.4h0.1v-0.4h0.1v-0.4h0.1v-0.4h0.1v-0.4h0.1v-0.4h0.1v-0.4h0.1v-0.4h0.1v-0.3
		h0.1v-0.4h0.1v-0.4h0.1v-0.4h0.1v-0.4h0.1v-0.4h0.1v-0.4h0.1v-0.3h0.1v-0.4h0.1v-0.4h0.1v-0.4h0.1v-0.4h0.1V137h0.1v-0.3h0.1v-0.4
		h0.1v-0.4h0.1v-0.4h0.1v-0.3h0.1v-0.4h0.1v-0.4h0.1V134h0.1v-0.4h0.1v-0.4h0.1v-0.3h0.1v-0.4h0.1V132h0.1v-0.4h0.1v-0.3h0.1v-0.4
		h0.1v-0.3h0.1v-0.4h0.1v-0.3h0.1v-0.4h0.1v-0.3h0.1v-0.4h0.1v-0.4h0.1v-0.3h0.1v-0.4h0.1v-0.3h0.1v-0.4h0.1v-0.3h0.1v-0.4h0.1v-0.3
		h0.1v-0.4h0.1V125h0.1v-0.3h0.1v-0.4h0.1V124h0.1v-0.4h0.1v-0.3h0.1v-0.3h0.1v-0.4h0.1v-0.3h0.1v-0.4h0.1v-0.3h0.1v-0.3h0.1v-0.4
		h0.1v-0.3h0.1v-0.3h0.1v-0.4h0.1v-0.3h0.1v-0.3h0.1v-0.3h0.1v-0.4h0.1V118h0.1v-0.3h0.1v-0.3h0.1V117h0.1v-0.3h0.1v-0.3h0.1V116
		h0.1v-0.4h0.1v-0.3h0.1V115h0.1v-0.3h0.1v-0.3h0.1v-0.4h0.1v-0.3h0.1v-0.3h0.1V113h0.1v-0.3h0.1v-0.3h0.1v-0.3h0.1v-0.3h0.1v-0.3
		h0.1v-0.3h0.1v-0.3h0.1v-0.3h0.1v-0.4h0.1v-0.3h0.1v-0.3h0.1v-0.3h0.1v-0.3h0.1v-0.3h0.1v-0.3h0.1v-0.3h0.1v-0.3h0.1v-0.3h0.1v-0.3
		h0.1v-0.3h0.1v-0.3h0.1V106h0.1v-0.2h0.1v-0.3h0.1v-0.3h0.1v-0.3h0.1v-0.3h0.1v-0.3h0.1v-0.3h0.1v-0.3h0.1v-0.3h0.1V103h0.1v-0.3
		h0.1v-0.3h0.1v-0.2h0.1v-0.3h0.1v-0.3h0.1v-0.3h0.1v-0.3h0.1v-0.2h0.1v-0.3h0.1V100h0.1v-0.3h0.1v-0.3h0.1v-0.2h0.1v-0.3h0.1v-0.3
		h0.1v-0.3h0.1V98h0.1v-0.2h0.1v-0.3h0.1v-0.3h0.1v-0.2h0.1v-0.3h0.1v-0.3h0.1v-0.2h0.1v-0.3h0.1v-0.3h0.1v-0.2h0.1v-0.3h0.1v-0.3
		h0.1v-0.2h0.1v-0.3h0.1v-0.3h0.1v-0.2h0.1v-0.3h0.1v-0.3h0.1v-0.2h0.1v-0.3h0.1v-0.3h0.1v-0.2h0.1v-0.3h0.1v-0.3h0.1v-0.2h0.1v-0.3
		h0.1v-0.2h0.1v-0.3h0.1V90h0.1v-0.3h0.1v-0.2h0.1v-0.3h0.1V89h0.1v-0.3h0.1v-0.2h0.1v-0.3h0.1v-0.2h0.1v-0.3h0.1v-0.3h0.1v-0.2h0.1
		v-0.3h0.1v-0.2h0.1v-0.3h0.1V86h0.1v-0.2h0.1v-0.3h0.1v-0.2h0.1V85h0.1v-0.2h0.1v-0.2h0.1v-0.3h0.1v-0.2h0.1v-0.3h0.1v-0.2h0.1
		v-0.2h0.1V83h0.1v-0.2h0.1v-0.3h0.1v-0.2h0.1v-0.2h0.1v-0.3h0.1v-0.2h0.1v-0.3h0.1V81h0.1v-0.2h0.1v-0.3h0.1v-0.2h0.1v-0.2h0.1
		v-0.2h0.1v-0.3h0.1v-0.2h0.1v-0.2h0.1v-0.3h0.1v-0.2h0.1v-0.2h0.1v-0.2h0.1v-0.3h0.1v-0.2h0.1v-0.2h0.1v-0.3h0.1V77h0.1v-0.2h0.1
		v-0.2h0.1v-0.3h0.1V76h0.1v-0.2h0.1v-0.2h0.1v-0.2h0.1v-0.3h0.1v-0.2h0.1v-0.2h0.1v-0.2h0.1v-0.2h0.1V74h0.1v-0.3h0.1v-0.2h0.1
		v-0.2h0.1v-0.2h0.1v-0.2h0.1v-0.2h0.1v-0.3h0.1v-0.2h0.1v-0.2h0.1v-0.2h0.1v-0.2h0.1v-0.2h0.1v-0.2h0.1v-0.2h0.1v-0.3h0.1v-0.2h0.1
		v-0.2h0.1V70h0.1v-0.2h0.1v-0.2h0.1v-0.2h0.1v-0.2h0.1v-0.2h0.1v-0.2h0.1v-0.2h0.1v-0.2h0.1v-0.2h0.1v-0.2h0.1v-0.2h0.1v-0.2h0.1
		v-0.2h0.1V67h0.1v-0.2h0.1v-0.3h0.1v-0.2h0.1v-0.2h0.1V66h0.1v-0.2h0.1v-0.2h0.1v-0.2h0.1v-0.2h0.1v-0.2h0.1v-0.2h0.1v-0.2h0.1
		v-0.2h0.1v-0.2h0.1v-0.2h0.1v-0.2h0.1v-0.2h0.1v-0.2h0.1v-0.2h0.1v-0.2h0.1v-0.1h0.1v-0.2h0.1v-0.2h0.1v-0.2h0.1v-0.2h0.1v-0.2h0.1
		v-0.2h0.1v-0.2h0.1v-0.2h0.1v-0.2h0.1v-0.1h0.1v-0.2h0.1v-0.2h0.1v-0.2h0.1v-0.2h0.1v-0.2h0.1v-0.1h0.1v-0.2h0.1v-0.2h0.1V59h0.1
		v-0.2h0.1v-0.2h0.1v-0.1h0.1v-0.2h0.1V58h0.1v-0.2h0.1v-0.2h0.1v-0.1h0.1v-0.2h0.1v-0.2h0.1v-0.2h0.1v-0.2h0.1v-0.1h0.1v-0.2h0.1
		v-0.2h0.1V56h0.1v-0.1h0.1v-0.2h0.1v-0.2h0.1v-0.2h0.1v-0.1h0.1v-0.2h0.1v-0.2h0.1v-0.1h0.1v-0.2h0.1v-0.2h0.1V54h0.1v-0.1h0.1
		v-0.2h0.1v-0.2h0.1v-0.1h0.1v-0.2h0.1v-0.2h0.1v-0.2h0.1v-0.1h0.1v-0.2h0.1v-0.2h0.1v-0.1h0.1v-0.2h0.1v-0.2h0.1v-0.1h0.1v-0.2h0.1
		v-0.2h0.1V51h0.1v-0.2h0.1v-0.1h0.1v-0.2h0.1v-0.2h0.1v-0.1h0.1V50h0.1v-0.2h0.1v-0.1h0.1v-0.2h0.1v-0.2h0.1v-0.1h0.1V49h0.1v-0.1
		h0.1v-0.2h0.1v-0.1h0.1v-0.1h-0.1v0.1h-0.1v0.1h-0.1v0.1H419v0.1h-0.1V49h-0.1v0.1h-0.1v0.1h-0.1v0.1h-0.1v0.1h-0.1v0.1h-0.1v0.1
		h-0.1v0.1h-0.1v0.1H418v0.1h-0.1V50h-0.1v0.1h-0.1v0.1h-0.1v0.1h-0.1v0.1h-0.1v0.1h-0.1v0.1h-0.1v0.1H417v0.1h-0.1v0.1h-0.1V51
		h-0.1v0.1h-0.1v0.1h-0.1v0.1h-0.1v0.1h-0.1v0.1h-0.1v0.1h-0.1v0.1H416v0.1h-0.1V52h-0.1v0.1h-0.1v0.1h-0.1v0.1h-0.1v0.1h-0.1v0.1
		h-0.1v0.1H415v0.1h-0.1v0.1h-0.1v0.1h-0.1V53h-0.1v0.1h-0.1v0.1h-0.1v0.1h-0.1v0.1h-0.1v0.1h-0.1v0.1H414v0.1h-0.1v0.1h-0.1V54
		h-0.1v0.1h-0.1v0.1h-0.1v0.1h-0.1v0.1h-0.1v0.1h-0.1v0.1H413v0.1h-0.1v0.1h-0.1v0.1h-0.1v0.2h-0.1v0.1h-0.1v0.1h-0.1v0.1h-0.1v0.1
		h-0.1v0.1h-0.1v0.1H412v0.1h-0.1V56h-0.1v0.1h-0.1v0.1h-0.1v0.1h-0.1v0.1h-0.1v0.1h-0.1v0.1h-0.1v0.1h-0.1v0.1H411v0.1h-0.1V57
		h-0.1v0.1h-0.1v0.1h-0.1v0.1h-0.1v0.1h-0.1v0.1h-0.1v0.1h-0.1v0.1H410v0.1h-0.1v0.1h-0.1V58h-0.1v0.1h-0.1v0.1h-0.1v0.1h-0.1v0.1
		h-0.1v0.1h-0.1v0.1h-0.1v0.1H409v0.1h-0.1V59h-0.1v0.1h-0.1v0.1h-0.1v0.1h-0.1v0.1h-0.1v0.1h-0.1v0.1h-0.1v0.1H408v0.1h-0.1v0.1
		h-0.1V60h-0.1v0.1h-0.1v0.2h-0.1v0.1h-0.1v0.1h-0.1v0.1h-0.1v0.1h-0.1v0.1H407V61h-0.1v0.1h-0.1v0.1h-0.1v0.1h-0.1v0.1h-0.1v0.1
		h-0.1v0.1h-0.1v0.1h-0.1v0.1H406v0.1h-0.1V62h-0.1v0.1h-0.1v0.2h-0.1v0.1h-0.1v0.1h-0.1v0.1h-0.1v0.1h-0.1v0.1h-0.1V63H405v0.1
		h-0.1v0.1h-0.1v0.1h-0.1v0.1h-0.1v0.1h-0.1v0.1h-0.1v0.1h-0.1v0.1h-0.1v0.1h-0.1V64H404v0.1h-0.1v0.2h-0.1v0.1h-0.1v0.1h-0.1v0.1
		h-0.1v0.1h-0.1v0.1h-0.1v0.1h-0.1V65H403v0.1h-0.1v0.1h-0.1v0.1h-0.1v0.1h-0.1v0.1h-0.1v0.1h-0.1v0.1h-0.1v0.1h-0.1V66h-0.1v0.2
		H402v0.1h-0.1v0.1h-0.1v0.1h-0.1v0.1h-0.1v0.1h-0.1v0.1h-0.1v0.1h-0.1V67h-0.1v0.1H401v0.2h-0.1v0.1h-0.1v0.1h-0.1v0.1h-0.1v0.1
		h-0.1v0.1h-0.1V68h-0.1v0.1h-0.1v0.1h-0.1v0.1H400v0.1h-0.1v0.2h-0.1v0.1h-0.1v0.1h-0.1v0.1h-0.1V69h-0.1v0.1h-0.1v0.1h-0.1v0.1
		H399v0.1h-0.1v0.1h-0.1v0.2h-0.1v0.1h-0.1V70h-0.1v0.1h-0.1v0.1h-0.1v0.1h-0.1v0.1h-0.1v0.1H398v0.1h-0.1v0.1h-0.1v0.1h-0.1V71
		h-0.1v0.1h-0.1v0.1h-0.1v0.1h-0.1v0.1h-0.1v0.1h-0.1v0.1H397v0.1h-0.1v0.1h-0.1v0.1h-0.1v0.2h-0.1v0.1h-0.1v0.1h-0.1v0.1h-0.1v0.1
		h-0.1v0.1H396v0.1h-0.1v0.1h-0.1v0.2h-0.1v0.1h-0.1v0.1h-0.1v0.1h-0.1v0.1h-0.1v0.1h-0.1v0.1h-0.1v0.2H395V74h-0.1v0.1h-0.1v0.1
		h-0.1v0.1h-0.1v0.1h-0.1v0.1h-0.1v0.1h-0.1v0.2h-0.1V75H394v0.1h-0.1v0.1h-0.1v0.1h-0.1v0.1h-0.1v0.1h-0.1v0.2h-0.1v0.1h-0.1v0.1
		h-0.1V76h-0.1v0.1H393v0.1h-0.1v0.1h-0.1v0.2h-0.1v0.1h-0.1v0.1h-0.1v0.1h-0.1V77h-0.1v0.1h-0.1v0.1H392v0.1h-0.1v0.2h-0.1v0.1
		h-0.1v0.1h-0.1v0.1h-0.1v0.1h-0.1V78h-0.1v0.1h-0.1v0.2h-0.1v0.1H391v0.1h-0.1v0.1h-0.1v0.1h-0.1v0.1h-0.1v0.1h-0.1v0.2h-0.1v0.1
		h-0.1v0.1h-0.1v0.1h-0.1v0.1H390v0.1h-0.1v0.2h-0.1V80h-0.1v0.1h-0.1v0.1h-0.1v0.1h-0.1v0.2h-0.1v0.1h-0.1v0.1H389v0.1h-0.1v0.1
		h-0.1V81h-0.1v0.2h-0.1v0.1h-0.1v0.1h-0.1v0.1h-0.1v0.1h-0.1v0.1h-0.1V82H388v0.1h-0.1v0.1h-0.1v0.1h-0.1v0.1h-0.1v0.2h-0.1v0.1
		h-0.1v0.1h-0.1v0.1h-0.1V83H387v0.1h-0.1v0.2h-0.1v0.1h-0.1v0.1h-0.1v0.1h-0.1v0.1h-0.1v0.1h-0.1v0.2h-0.1v0.1h-0.1v0.1H386v0.1
		h-0.1v0.1h-0.1v0.2h-0.1v0.1h-0.1v0.1h-0.1V85h-0.1v0.1h-0.1v0.1h-0.1v0.2H385v0.1h-0.1v0.1h-0.1v0.1h-0.1v0.1h-0.1V86h-0.1v0.1
		h-0.1v0.1h-0.1v0.1h-0.1v0.1h-0.1v0.2H384v0.1h-0.1v0.1h-0.1V87h-0.1v0.2h-0.1v0.1h-0.1v0.1h-0.1v0.1h-0.1v0.1h-0.1v0.2h-0.1v0.1
		H383V88h-0.1v0.1h-0.1v0.2h-0.1v0.1h-0.1v0.1h-0.1v0.1h-0.1v0.1h-0.1V89h-0.1v0.1H382v0.1h-0.1v0.1h-0.1v0.1h-0.1v0.2h-0.1v0.1
		h-0.1v0.1h-0.1v0.1h-0.1v0.2h-0.1v0.1h-0.1v0.1H381v0.1h-0.1v0.1h-0.1v0.2h-0.1v0.1h-0.1V91h-0.1v0.1h-0.1v0.2h-0.1v0.1h-0.1v0.1
		H380v0.1h-0.1v0.1h-0.1v0.2h-0.1V92h-0.1v0.1h-0.1v0.1h-0.1v0.2h-0.1v0.1h-0.1v0.1h-0.1v0.1H379v0.1h-0.1V93h-0.1v0.1h-0.1v0.1
		h-0.1v0.2h-0.1v0.1h-0.1v0.1h-0.1v0.1h-0.1V94H378v0.1h-0.1v0.1h-0.1v0.1h-0.1v0.2h-0.1v0.1h-0.1v0.1h-0.1v0.1h-0.1V95h-0.1v0.1
		h-0.1v0.1H377v0.1h-0.1v0.2h-0.1v0.1h-0.1v0.1h-0.1v0.1h-0.1v0.2h-0.1v0.1h-0.1v0.1h-0.1v0.2h-0.1v0.1H376v0.1h-0.1v0.1h-0.1V97
		h-0.1v0.1h-0.1v0.1h-0.1v0.1h-0.1v0.2h-0.1v0.1h-0.1v0.1H375v0.1h-0.1v0.2h-0.1v0.1h-0.1v0.1h-0.1v0.1h-0.1v0.2h-0.1v0.1h-0.1v0.1
		h-0.1v0.1h-0.1v0.2H374v0.1h-0.1v0.1h-0.1v0.2h-0.1v0.1h-0.1v0.1h-0.1v0.1h-0.1v0.2h-0.1v0.1h-0.1v0.1H373v0.2h-0.1v0.1h-0.1v0.1
		h-0.1v0.1h-0.1v0.2h-0.1v0.1h-0.1v0.1h-0.1v0.2h-0.1v0.1h-0.1v0.1H372v0.2h-0.1v0.1h-0.1v0.1h-0.1v0.1h-0.1v0.2h-0.1v0.1h-0.1v0.1
		h-0.1v0.2h-0.1v0.1H371v0.1h-0.1v0.2h-0.1v0.1h-0.1v0.1h-0.1v0.2h-0.1v0.1h-0.1v0.1h-0.1v0.1h-0.1v0.2h-0.1v0.1H370v0.1h-0.1v0.2
		h-0.1v0.1h-0.1v0.1h-0.1v0.2h-0.1v0.1h-0.1v0.1h-0.1v0.2h-0.1v0.1h-0.1v0.1H369v0.1h-0.1v0.2h-0.1v0.1h-0.1v0.1h-0.1v0.2h-0.1v0.1
		h-0.1v0.1h-0.1v0.2h-0.1v0.1H368v0.1h-0.1v0.1h-0.1v0.2h-0.1v0.1h-0.1v0.1h-0.1v0.2h-0.1v0.1h-0.1v0.2h-0.1v0.1h-0.1v0.1H367v0.2
		h-0.1v0.1h-0.1v0.1h-0.1v0.2h-0.1v0.1h-0.1v0.1h-0.1v0.2h-0.1v0.1h-0.1v0.1H366v0.2h-0.1v0.1h-0.1v0.1h-0.1v0.2h-0.1v0.1h-0.1v0.1
		h-0.1v0.2h-0.1v0.1h-0.1v0.2h-0.1v0.1H365v0.1h-0.1v0.2h-0.1v0.1h-0.1v0.1h-0.1v0.2h-0.1v0.1h-0.1v0.1h-0.1v0.2h-0.1v0.1H364v0.1
		h-0.1v0.2h-0.1v0.1h-0.1v0.1h-0.1v0.2h-0.1v0.1h-0.1v0.2h-0.1v0.1h-0.1v0.1h-0.1v0.2H363v0.1h-0.1v0.1h-0.1v0.2h-0.1v0.1h-0.1v0.1
		h-0.1v0.2h-0.1v0.1h-0.1v0.1h-0.1v0.2h-0.1v0.1H362v0.2h-0.1v0.1h-0.1v0.1h-0.1v0.2h-0.1v0.1h-0.1v0.2h-0.1v0.1h-0.1v0.1h-0.1v0.2
		H361v0.1h-0.1v0.1h-0.1v0.2h-0.1v0.1h-0.1v0.2h-0.1v0.1h-0.1v0.1h-0.1v0.2h-0.1v0.1h-0.1v0.2H360v0.1h-0.1v0.1h-0.1v0.2h-0.1v0.1
		h-0.1v0.2h-0.1v0.1h-0.1v0.1h-0.1v0.2h-0.1v0.1H359v0.2h-0.1v0.1h-0.1v0.1h-0.1v0.2h-0.1v0.1h-0.1v0.2h-0.1v0.1h-0.1v0.1h-0.1v0.2
		h-0.1v0.1H358v0.2h-0.1v0.1h-0.1v0.1h-0.1v0.2h-0.1v0.1h-0.1v0.2h-0.1v0.1h-0.1v0.1h-0.1v0.2H357v0.1h-0.1v0.2h-0.1v0.1h-0.1v0.1
		h-0.1v0.2h-0.1v0.1h-0.1v0.2h-0.1v0.1h-0.1v0.2h-0.1v0.1H356v0.2h-0.1v0.1h-0.1v0.1h-0.1v0.2h-0.1v0.1h-0.1v0.2h-0.1v0.1h-0.1v0.2
		h-0.1v0.1h-0.1v0.2H355v0.1h-0.1v0.1h-0.1v0.2h-0.1v0.1h-0.1v0.2h-0.1v0.1h-0.1v0.2h-0.1v0.1h-0.1v0.2H354v0.1h-0.1v0.1h-0.1v0.2
		h-0.1v0.1h-0.1v0.2h-0.1v0.1h-0.1v0.2h-0.1v0.1h-0.1v0.2h-0.1v0.1H353v0.2h-0.1v0.1h-0.1v0.1h-0.1v0.2h-0.1v0.1h-0.1v0.2h-0.1v0.1
		h-0.1v0.2h-0.1v0.1H352v0.2h-0.1v0.1h-0.1v0.1h-0.1v0.2h-0.1v0.1h-0.1v0.2h-0.1v0.1h-0.1v0.2h-0.1v0.1h-0.1v0.2H351v0.1h-0.1v0.2
		h-0.1v0.1h-0.1v0.2h-0.1v0.1h-0.1v0.2h-0.1v0.1h-0.1v0.2h-0.1v0.1H350v0.2h-0.1v0.1h-0.1v0.2h-0.1v0.1h-0.1v0.2h-0.1v0.1h-0.1v0.2
		h-0.1v0.1h-0.1v0.2h-0.1v0.1H349v0.2h-0.1v0.1h-0.1v0.2h-0.1v0.1h-0.1v0.2h-0.1v0.1h-0.1v0.2h-0.1v0.1h-0.1v0.2h-0.1v0.1H348v0.2
		h-0.1v0.1h-0.1v0.2h-0.1v0.1h-0.1v0.2h-0.1v0.1h-0.1v0.2h-0.1v0.1h-0.1v0.2H347v0.1h-0.1v0.2h-0.1v0.1h-0.1v0.2h-0.1v0.1h-0.1v0.2
		h-0.1v0.1h-0.1v0.2h-0.1v0.1h-0.1v0.2H346v0.1h-0.1v0.2h-0.1v0.1h-0.1v0.2h-0.1v0.1h-0.1v0.2h-0.1v0.1h-0.1v0.2h-0.1v0.1H345v0.2
		h-0.1v0.2h-0.1v0.1h-0.1v0.2h-0.1v0.1h-0.1v0.2h-0.1v0.1h-0.1v0.2h-0.1v0.1h-0.1v0.2H344v0.2h-0.1v0.1h-0.1v0.2h-0.1v0.1h-0.1v0.2
		h-0.1v0.1h-0.1v0.2h-0.1v0.1h-0.1v0.2H343v0.2h-0.1v0.1h-0.1v0.2h-0.1v0.1h-0.1v0.2h-0.1v0.1h-0.1v0.2h-0.1v0.1h-0.1v0.2h-0.1v0.2
		H342v0.1h-0.1v0.2h-0.1v0.1h-0.1v0.2h-0.1v0.1h-0.1v0.2h-0.1v0.1h-0.1v0.2h-0.1v0.2h-0.1v0.1H341v0.2h-0.1v0.1h-0.1v0.2h-0.1v0.1
		h-0.1v0.2h-0.1v0.1h-0.1v0.2h-0.1v0.2h-0.1v0.1H340v0.2h-0.1v0.2h-0.1v0.1h-0.1v0.2h-0.1v0.1h-0.1v0.2h-0.1v0.2h-0.1v0.1h-0.1v0.2
		h-0.1v0.1H339v0.2h-0.1v0.2h-0.1v0.1h-0.1v0.2h-0.1v0.2h-0.1v0.1h-0.1v0.2h-0.1v0.1h-0.1v0.2H338v0.2h-0.1v0.1h-0.1v0.2h-0.1v0.1
		h-0.1v0.2h-0.1v0.2h-0.1v0.1h-0.1v0.2h-0.1v0.2h-0.1v0.1H337v0.2h-0.1v0.1h-0.1v0.2h-0.1v0.2h-0.1v0.1h-0.1v0.2h-0.1v0.1h-0.1v0.2
		h-0.1v0.2H336v0.1h-0.1v0.2h-0.1v0.2h-0.1v0.1h-0.1v0.2h-0.1v0.1h-0.1v0.2h-0.1v0.2h-0.1v0.1h-0.1v0.2H335v0.2h-0.1v0.1h-0.1v0.2
		h-0.1v0.2h-0.1v0.1h-0.1v0.2h-0.1v0.2h-0.1v0.1h-0.1v0.2h-0.1v0.2H334v0.1h-0.1v0.2h-0.1v0.2h-0.1v0.1h-0.1v0.2h-0.1v0.2h-0.1v0.1
		h-0.1v0.2h-0.1v0.2H333v0.1h-0.1v0.2h-0.1v0.2h-0.1v0.1h-0.1v0.2h-0.1v0.2h-0.1v0.1h-0.1v0.2h-0.1v0.2h-0.1v0.2H332v0.1h-0.1v0.2
		h-0.1v0.2h-0.1v0.1h-0.1v0.2h-0.1v0.2h-0.1v0.1h-0.1v0.2h-0.1v0.2H331v0.1h-0.1v0.2h-0.1v0.2h-0.1v0.1h-0.1v0.2h-0.1v0.2h-0.1v0.1
		h-0.1v0.2h-0.1v0.2h-0.1v0.1H330v0.2h-0.1v0.2h-0.1v0.2h-0.1v0.1h-0.1v0.2h-0.1v0.2h-0.1v0.2h-0.1v0.1h-0.1v0.2H329v0.2h-0.1v0.2
		h-0.1v0.1h-0.1v0.2h-0.1v0.2h-0.1v0.2h-0.1v0.1h-0.1v0.2h-0.1v0.2h-0.1v0.2H328v0.1h-0.1v0.2h-0.1v0.2h-0.1v0.2h-0.1v0.1h-0.1v0.2
		h-0.1v0.2h-0.1v0.2h-0.1v0.1h-0.1v0.2H327v0.2h-0.1v0.1h-0.1v0.2h-0.1v0.2h-0.1v0.2h-0.1v0.1h-0.1v0.2h-0.1v0.2h-0.1v0.2H326v0.1
		h-0.1v0.2h-0.1v0.2h-0.1v0.2h-0.1v0.1h-0.1v0.2h-0.1v0.2h-0.1v0.2h-0.1v0.1h-0.1v0.2H325v0.2h-0.1v0.2h-0.1v0.2h-0.1v0.2h-0.1v0.1
		h-0.1v0.2h-0.1v0.2h-0.1v0.2h-0.1v0.2H324v0.1h-0.1v0.2h-0.1v0.2h-0.1v0.2h-0.1v0.2h-0.1v0.1h-0.1v0.2h-0.1v0.2h-0.1v0.2h-0.1v0.2
		H323v0.2h-0.1v0.1h-0.1v0.2h-0.1v0.2h-0.1v0.2h-0.1v0.2h-0.1v0.1h-0.1v0.2h-0.1v0.2H322v0.2h-0.1v0.2h-0.1v0.1h-0.1v0.2h-0.1v0.2
		h-0.1v0.2h-0.1v0.2h-0.1v0.2h-0.1v0.1h-0.1v0.2H321v0.2h-0.1v0.2h-0.1v0.2h-0.1v0.1h-0.1v0.2h-0.1v0.2h-0.1v0.2h-0.1v0.2h-0.1v0.2
		h-0.1v0.2H320v0.2h-0.1v0.1h-0.1v0.2h-0.1v0.2h-0.1v0.2h-0.1v0.2h-0.1v0.2h-0.1v0.2h-0.1v0.2H319v0.2h-0.1v0.1h-0.1v0.2h-0.1v0.2
		h-0.1v0.2h-0.1v0.2h-0.1v0.2h-0.1v0.2h-0.1v0.2h-0.1v0.2H318v0.1h-0.1v0.2h-0.1v0.2h-0.1v0.2h-0.1v0.2h-0.1v0.2h-0.1v0.2h-0.1v0.2
		h-0.1v0.2H317v0.2h-0.1v0.1h-0.1v0.2h-0.1v0.2h-0.1v0.2h-0.1v0.2h-0.1v0.2h-0.1v0.2h-0.1v0.2h-0.1v0.2H316v0.1h-0.1v0.2h-0.1v0.2
		h-0.1v0.2h-0.1v0.2h-0.1v0.2h-0.1v0.2h-0.1v0.2h-0.1v0.2H315v0.2h-0.1v0.2h-0.1v0.2h-0.1v0.2h-0.1v0.2h-0.1v0.2h-0.1v0.2h-0.1v0.2
		h-0.1v0.2h-0.1v0.2H314v0.2h-0.1v0.2h-0.1v0.2h-0.1v0.2h-0.1v0.2h-0.1v0.2h-0.1v0.2h-0.1v0.2h-0.1v0.2h-0.1v0.2h-0.1v0.2h-0.1v0.2
		h-0.1v0.2h-0.1v0.2h-0.1v0.2h-0.1v0.2h-0.1v0.1h-0.1v0.2h-0.1v0.2H312v0.2h-0.1v0.2h-0.1v0.2h-0.1v0.2h-0.1v0.2h-0.1v0.2h-0.1v0.2
		h-0.1v0.2h-0.1v0.2h-0.1v0.2H311v0.2h-0.1v0.3h-0.1v0.2h-0.1v0.2h-0.1v0.2h-0.1v0.2h-0.1v0.2h-0.1v0.2h-0.1v0.2H310v0.2h-0.1v0.2
		h-0.1v0.2h-0.1v0.2h-0.1v0.2h-0.1v0.2h-0.1v0.3h-0.1v0.2h-0.1v0.2h-0.1v0.2H309v0.2h-0.1v0.2h-0.1v0.2h-0.1v0.2h-0.1v0.2h-0.1v0.2
		h-0.1v0.2h-0.1v0.2h-0.1v0.2H308v0.2h-0.1v0.3h-0.1v0.2h-0.1v0.2h-0.1v0.2h-0.1v0.2h-0.1v0.2h-0.1v0.2h-0.1v0.2h-0.1v0.2H307v0.2
		h-0.1v0.2h-0.1v0.2h-0.1v0.3h-0.1v0.2h-0.1v0.2h-0.1v0.2h-0.1v0.2h-0.1v0.2h-0.1v0.3h-0.1v0.2h-0.1v0.2h-0.1v0.2h-0.1v0.2h-0.1v0.2
		h-0.1v0.3h-0.1v0.2h-0.1v0.2h-0.1v0.2H305v0.2h-0.1v0.3h-0.1v0.2h-0.1v0.2h-0.1v0.2h-0.1v0.2h-0.1v0.2h-0.1v0.3h-0.1v0.2h-0.1v0.2
		H304v0.2h-0.1v0.2h-0.1v0.2h-0.1v0.3h-0.1v0.2h-0.1v0.2h-0.1v0.2h-0.1v0.2h-0.1v0.2H303v0.3h-0.1v0.2h-0.1v0.2h-0.1v0.2h-0.1v0.2
		h-0.1v0.3h-0.1v0.2h-0.1v0.2h-0.1v0.3h-0.1v0.2H302v0.2h-0.1v0.2h-0.1v0.3h-0.1v0.2h-0.1v0.2h-0.1v0.3h-0.1v0.2h-0.1v0.2h-0.1v0.2
		H301v0.3h-0.1v0.2h-0.1v0.2h-0.1v0.3h-0.1v0.2h-0.1v0.2h-0.1v0.2h-0.1v0.3h-0.1v0.2h-0.1v0.2H300v0.3h-0.1v0.2h-0.1v0.2h-0.1v0.2
		h-0.1v0.3h-0.1v0.2h-0.1v0.2h-0.1v0.3h-0.1v0.2h-0.1v0.2h-0.1v0.3h-0.1v0.2h-0.1v0.2h-0.1v0.2h-0.1v0.3h-0.1v0.2h-0.1v0.3h-0.1v0.2
		h-0.1v0.3H298v0.2h-0.1v0.2h-0.1v0.3h-0.1v0.2h-0.1v0.3h-0.1v0.2h-0.1v0.2h-0.1v0.3h-0.1v0.2h-0.1v0.3H297v0.2h-0.1v0.3h-0.1v0.2
		h-0.1v0.2h-0.1v0.3h-0.1v0.2h-0.1v0.3h-0.1v0.2h-0.1v0.2H296v0.3h-0.1v0.2h-0.1v0.3h-0.1v0.2h-0.1v0.3h-0.1v0.2h-0.1v0.2h-0.1v0.3
		h-0.1v0.2h-0.1v0.3H295v0.2h-0.1v0.2h-0.1v0.3h-0.1v0.3h-0.1v0.2h-0.1v0.3h-0.1v0.2h-0.1v0.3h-0.1v0.2H294v0.3h-0.1v0.2h-0.1v0.3
		h-0.1v0.3h-0.1v0.2h-0.1v0.3h-0.1v0.2h-0.1v0.3h-0.1v0.2h-0.1v0.3H293v0.3h-0.1v0.2h-0.1v0.3h-0.1v0.2h-0.1v0.3h-0.1v0.2h-0.1v0.3
		h-0.1v0.2h-0.1v0.3h-0.1v0.3h-0.1v0.2h-0.1v0.3h-0.1v0.2h-0.1v0.3h-0.1v0.2h-0.1v0.3h-0.1v0.3h-0.1v0.2h-0.1v0.3H291v0.3h-0.1v0.2
		h-0.1v0.3h-0.1v0.3h-0.1v0.2h-0.1v0.3h-0.1v0.3h-0.1v0.3h-0.1v0.2h-0.1v0.3H290v0.3h-0.1v0.3h-0.1v0.2h-0.1v0.3h-0.1v0.3h-0.1v0.3
		h-0.1v0.2h-0.1v0.3h-0.1v0.3H289v0.2h-0.1v0.3h-0.1v0.3h-0.1v0.3h-0.1v0.2h-0.1v0.3h-0.1v0.3h-0.1v0.3h-0.1v0.2h-0.1v0.3H288v0.3
		h-0.1v0.2h-0.1v0.3h-0.1v0.3h-0.1v0.3h-0.1v0.3h-0.1v0.3h-0.1v0.3h-0.1v0.3H287v0.3h-0.1v0.3h-0.1v0.3h-0.1v0.2h-0.1v0.3h-0.1v0.3
		h-0.1v0.3h-0.1v0.3h-0.1v0.3h-0.1v0.3H286v0.3h-0.1v0.3h-0.1v0.3h-0.1v0.3h-0.1v0.3h-0.1v0.3h-0.1v0.2h-0.1v0.3h-0.1v0.3h-0.1v0.3
		h-0.1v0.3h-0.1v0.3h-0.1v0.3h-0.1v0.3h-0.1v0.3h-0.1v0.3h-0.1v0.3h-0.1v0.3h-0.1v0.4H284v0.3h-0.1v0.3h-0.1v0.3h-0.1v0.3h-0.1v0.3
		h-0.1v0.3h-0.1v0.4h-0.1v0.3h-0.1v0.3h-0.1v0.3H283v0.3h-0.1v0.3h-0.1v0.4h-0.1v0.3h-0.1v0.3h-0.1v0.3h-0.1v0.3h-0.1v0.3h-0.1v0.3
		H282v0.4h-0.1v0.3h-0.1v0.3h-0.1v0.3h-0.1v0.3h-0.1v0.4h-0.1v0.3h-0.1v0.3h-0.1v0.4h-0.1v0.3H281v0.4h-0.1v0.3h-0.1v0.4h-0.1v0.3
		h-0.1v0.3h-0.1v0.4h-0.1v0.3h-0.1v0.4h-0.1v0.3H280v0.4h-0.1v0.3h-0.1v0.3h-0.1v0.4h-0.1v0.3h-0.1v0.4h-0.1v0.3h-0.1v0.4h-0.1v0.3
		h-0.1v0.3H279v0.4h-0.1v0.3h-0.1v0.4h-0.1v0.3h-0.1v0.4h-0.1v0.4h-0.1v0.4h-0.1v0.3h-0.1v0.4h-0.1v0.4h-0.1v0.4h-0.1v0.3h-0.1v0.4
		h-0.1v0.4h-0.1v0.4h-0.1v0.4h-0.1v0.3h-0.1v0.4h-0.1v0.4H277v0.4h-0.1v0.3h-0.1v0.4h-0.1v0.4h-0.1v0.4h-0.1v0.3h-0.1v0.4h-0.1v0.4
		h-0.1v0.4h-0.1v0.4H276v0.4h-0.1v0.5h-0.1v0.4h-0.1v0.4h-0.1v0.4h-0.1v0.4h-0.1v0.4h-0.1v0.5h-0.1v0.4H275v0.4h-0.1v0.4h-0.1v0.4
		h-0.1v0.4h-0.1v0.5h-0.1v0.4h-0.1v0.4h-0.1v0.4h-0.1v0.4h-0.1v0.5H274v0.4h-0.1v0.4h-0.1v0.5h-0.1v0.5h-0.1v0.4h-0.1v0.5h-0.1v0.4
		h-0.1v0.5h-0.1v0.5H273v0.4h-0.1v0.5h-0.1v0.4h-0.1v0.5h-0.1v0.5h-0.1v0.4h-0.1v0.5h-0.1v0.5h-0.1v0.5h-0.1v0.5H272v0.5h-0.1v0.3
		h-0.2v-0.1h-0.4V311h-0.3v-0.1h-0.4v-0.1h-0.4v-0.1h-0.3v-0.1h-0.4v-0.1h-0.3v-0.1h-0.4v-0.1h-0.3v-0.1h-0.4v-0.1h-0.4V310h-0.3
		v-0.1h-0.4v-0.1h-0.3v-0.1H266v-0.1h-0.3v-0.1h-0.4v-0.1h-0.4v-0.1h-0.3v-0.1h-0.4V309h-0.3v-0.1h-0.4v-0.1h-0.3v-0.1h-0.4v-0.1
		h-0.3v-0.1H262v-0.1h-0.4v-0.1h-0.3v-0.1h-0.4v-0.1h-0.3V308h-0.4v-0.1h-0.3v-0.1h-0.4v-0.1h-0.4v-0.1h-0.3v-0.1h-0.4v-0.1h-0.3
		v-0.1h-0.4v-0.1h-0.3V307h-0.4v-0.1h-0.4v-0.1H256v-0.1h-0.4v-0.1h-0.3v-0.1h-0.4v-0.1h-0.3v-0.1h-0.4v-0.1h-0.4v-0.1h-0.3V306H253
		v-0.1h-0.3v-0.1h-0.4v-0.1h-0.3v-0.1h-0.4v-0.1h-0.3v-0.1h-0.4v-0.1h-0.4v-0.1H250V305h-0.4v-0.1h-0.3v-0.1h-0.4v-0.1h-0.3v-0.1
		h-0.4v-0.1h-0.4v-0.1h-0.3v-0.1H247v-0.1h-0.3v-0.1h-0.4V304H246v-0.1h-0.4v-0.1h-0.4v-0.1h-0.3v-0.1h-0.4v-0.1h-0.3v-0.1h-0.4
		v-0.1h-0.3v-0.1h-0.4v-0.1h-0.3V303h-0.4v-0.1h-0.4v-0.1h-0.3v-0.1h-0.4v-0.1h-0.3v-0.1h-0.4v-0.1H240v-0.1h-0.4v-0.1h-0.4V302
		h-0.3v-0.1h-0.4v-0.1h-0.3v-0.1h-0.4v-0.1h-0.3v-0.1H237v-0.1h-0.4v-0.1h-0.3v-0.1h-0.4v-0.1h-0.3V301h-0.4v-0.1h-0.3v-0.1h-0.4
		v-0.1H234v-0.1h-0.3v-0.1h-0.4v-0.1h-0.3v-0.1h-0.4v-0.1h-0.3V300h-0.4v-0.1h-0.3v-0.1H231v-0.1h-0.4v-0.1h-0.3v-0.1h-0.4v-0.1
		h-0.3v-0.1h-0.4v-0.1h-0.3v-0.1h-0.4V299H228v-0.1h-0.3v-0.1h-0.4v-0.1H227v-0.1h-0.4v-0.1h-0.3v-0.1h-0.4v-0.1h-0.4v-0.1h-0.3V298
		h-0.4v-0.1h-0.3v-0.1h-0.4v-0.1h-0.3v-0.1h-0.4v-0.1h-0.3v-0.1h-0.4v-0.1H222v-0.1h-0.3v-0.1h-0.4V297H221v-0.1h-0.4v-0.1h-0.3
		v-0.1h-0.4v-0.1h-0.4v-0.1h-0.3v-0.1h-0.4v-0.1h-0.3v-0.1H218v-0.1h-0.3V296h-0.4v-0.1h-0.4v-0.1h-0.3v-0.1h-0.4v-0.1h-0.3v-0.1
		h-0.4v-0.1H215v-0.1h-0.4v-0.1h-0.4V295h-0.3v-0.1h-0.4v-0.1h-0.3v-0.1h-0.4v-0.1h-0.3v-0.1H212v-0.1h-0.3v-0.1h-0.4v-0.1h-0.4
		v-0.1h-0.3V294h-0.4v-0.1h-0.3v-0.1h-0.4v-0.1h-0.3v-0.1h-0.4v-0.1h-0.4v-0.1h-0.3v-0.1h-0.4v-0.1h-0.3V293h-0.4v-0.1h-0.3v-0.1
		h-0.4v-0.1h-0.4v-0.1h-0.3v-0.1h-0.4v-0.1h-0.3v-0.1h-0.4v-0.1h-0.3v-0.1h-0.4V292h-0.3v-0.1h-0.4v-0.1h-0.4v-0.1H202v-0.1h-0.4
		v-0.1h-0.3v-0.1h-0.4v-0.1h-0.3v-0.1h-0.4V291h-0.4v-0.1h-0.3v-0.1H199v-0.1h-0.3v-0.1h-0.4v-0.1h-0.3v-0.1h-0.4v-0.1h-0.4v-0.1
		h-0.3v-0.1h-0.4V290H196v-0.1h-0.4v-0.1h-0.3v-0.1H195v-0.1h-0.1v-1.7h-0.1v-1.8h-0.1v-2h-0.1v-2.1h-0.1v-2.4h-0.1v-2.5h-0.1v-2.7
		h-0.1v-3.2H194v-3.6h-0.1v-4.3h-0.1v-5.7h-0.1v-11.9h-0.1v-4.5h0.1v-12.3h0.1v-6h0.1v-4.5h0.1v-3.9h0.1v-3.3h0.1v-3.1h0.1v-2.8h0.1
		v-2.6h0.1v-2.5h0.1v-2.3h0.1v-2.3h0.1v-2.1h0.1v-2h0.1v-2h0.1v-1.9h0.1v-1.9h0.1v-1.7h0.1v-1.8h0.1v-1.7h0.1V179h0.1v-1.6h0.1v-1.6
		h0.1v-1.5h0.1V173h0.1v-1.5h0.1v-1.5h0.1v-1.4h0.1v-1.4h0.1V166h0.1v-1.3h0.1v-1.3h0.1v-1.4h0.1v-1.3h0.1v-1.1h0.1v-1.3h0.1v-1.1
		h0.1v-1.1h0.1v-1.3h0.1v-1h0.1v-1.1h0.1v-1h0.1v-1.1h0.1v-1.1h0.1v-1h0.1v-0.9h0.1v-1h0.1v-1h0.1v-1h0.1v-1h0.1v-0.9h0.1v-0.9h0.1
		v-1h0.1v-0.9h0.1v-0.9h0.1v-0.9h0.1v-0.9h0.1v-0.9h0.1v-0.9h0.1v-0.9h0.1v-0.8h0.1v-0.9h0.1v-0.8h0.1v-0.8h0.1v-0.9h0.1v-0.8h0.1
		v-0.8h0.1v-0.8h0.1V126h0.1v-0.8h0.1v-0.8h0.1v-0.8h0.1v-0.8h0.1v-0.7h0.1V121h0.1v-0.7h0.1v-0.8h0.1v-0.7h0.1v-0.8h0.1v-0.7h0.1
		v-0.8h0.1v-0.7h0.1v-0.7h0.1v-0.7h0.1v-0.7h0.1v-0.7h0.1V112h0.1v-0.8h0.1v-0.6h0.1v-0.7h0.1V109h0.1v-0.7h0.1v-0.6h0.1v-0.7h0.1
		v-0.7h0.1v-0.7h0.1v-0.6h0.1v-0.7h0.1v-0.6h0.1v-0.7h0.1v-0.6h0.1v-0.6h0.1v-0.7h0.1v-0.6h0.1v-0.7h0.1v-0.6h0.1v-0.6h0.1v-0.6h0.1
		v-0.6h0.1v-0.6h0.1v-0.6h0.1V95h0.1v-0.7h0.1v-0.5h0.1v-0.6h0.1v-0.6h0.1v-0.6h0.1v-0.6h0.1v-0.6h0.1V90h0.1v-0.5h0.1v-0.6h0.1
		v-0.6h0.1v-0.6h0.1v-0.5h0.1v-0.6h0.1v-0.5h0.1v-0.6h0.1v-0.5h0.1v-0.6h0.1v-0.6h0.1V83h0.1v-0.6h0.1v-0.5h0.1v-0.5h0.1v-0.5h0.1
		v-0.6h0.1v-0.5h0.1v-0.5h0.1v-0.6h0.1V78h0.1v-0.5h0.1v-0.6h0.1v-0.5h0.1v-0.5h0.1v-0.5h0.1v-0.5h0.1v-0.5h0.1v-0.5h0.1v-0.5h0.1
		v-0.5h0.1v-0.5h0.1v-0.5h0.1v-0.5h0.1v-0.5h0.1v-0.5h0.1v-0.5h0.1V69h0.1v-0.5h0.1V68h0.1v-0.4h0.1V67h0.1v-0.5h0.1V66h0.1v-0.5
		h0.1V65h0.1v-0.5h0.1V64h0.1v-0.4h0.1v-0.5h0.1v-0.5h0.1v-0.4h0.1v-0.5h0.1v-0.5h0.1v-0.4h0.1v-0.5h0.1v-0.4h0.1v-0.5h0.1v-0.4h0.1
		v-0.5h0.1v-0.4h0.1v-0.5h0.1v-0.4h0.1v-0.5h0.1V56h0.1v-0.4h0.1V55h0.1v-0.4h0.1v-0.5h0.1v-0.4h0.1v-0.4h0.1v-0.5h0.1v-0.4h0.1
		v-0.4h0.1v-0.4h0.1v-0.5h0.1v-0.4h0.1v-0.4h0.1v-0.4h0.1v-0.5h0.1v-0.4h0.1v-0.4h0.1v-0.4h0.1v-0.4h0.1v-0.4h0.1v-0.4h0.1v-0.4h0.1
		v-0.5h0.1v-0.4h0.1v-0.4h0.1v-0.4h0.1V44h0.1v-0.4h0.1v-0.4h0.1v-0.4h0.1v-0.4h0.1V42h0.1v-0.4h0.1v-0.4h0.1v-0.4h0.1v-0.4h0.1
		v-0.4h0.1v-0.4h0.1v-0.3h0.1v-0.4h0.1v-0.4h0.1v-0.4h0.1v-0.4h0.1v-0.3h-0.1v0.1h-0.1v0.1h-0.1v0.1H217v0.1h-0.2v0.1h-0.1v0.1h-0.1
		v0.1h-0.1V38h-0.2v0.1h-0.1v0.1h-0.1v0.1H216v0.1h-0.1v0.1h-0.2v0.1h-0.1v0.1h-0.1v0.1h-0.1v0.1h-0.1V39h-0.1v0.1h-0.2v0.1h-0.1
		v0.1h-0.1v0.1h-0.1v0.1h-0.1v0.1h-0.1v0.1h-0.2v0.1h-0.1V40H214v0.1h-0.1v0.1h-0.1v0.1h-0.1v0.1h-0.1v0.1h-0.2v0.1h-0.1v0.1h-0.1
		v0.1h-0.1v0.1H213V41h-0.1v0.1h-0.1v0.1h-0.1v0.1h-0.1v0.1h-0.2v0.1h-0.1v0.1h-0.1v0.1H212v0.1h-0.1V42h-0.1v0.1h-0.1v0.1h-0.1v0.1
		h-0.1v0.1h-0.1v0.1h-0.2v0.1h-0.1v0.1H211v0.1h-0.1v0.1h-0.1V43h-0.1v0.1h-0.1v0.1h-0.1v0.1h-0.1v0.1h-0.1v0.1h-0.1v0.1H210v0.1
		h-0.1v0.1h-0.1v0.1h-0.2V44h-0.1v0.1h-0.1v0.1h-0.1v0.1h-0.1v0.1h-0.1v0.1H209v0.1h-0.1v0.1h-0.1v0.1h-0.1V45h-0.1v0.1h-0.1v0.1
		h-0.1v0.1h-0.1v0.1h-0.1v0.1H208v0.1h-0.1v0.1h-0.1v0.1h-0.1v0.1h-0.1V46h-0.1v0.1h-0.1v0.1h-0.1v0.1h-0.1v0.1h-0.1v0.1H207v0.1
		h-0.1v0.1h-0.1v0.1h-0.1V47h-0.1v0.1h-0.1v0.1h-0.1v0.1h-0.1v0.1h-0.1v0.1h-0.1v0.1H206v0.1h-0.1v0.1h-0.1v0.1h-0.1V48h-0.1v0.1
		h-0.1v0.1h-0.1v0.1h-0.1v0.1h-0.1v0.1H205v0.1h-0.1v0.1h-0.1v0.1h-0.1V49h-0.1v0.1h-0.1v0.1h-0.1v0.1h-0.1v0.1h-0.1v0.1h-0.1v0.1
		H204v0.1h-0.1v0.1h-0.1v0.1h-0.1V50h-0.1v0.1h-0.1v0.1h-0.1v0.1h-0.1v0.1h-0.1v0.1H203v0.1h-0.1v0.1h-0.1v0.1h-0.1v0.1h-0.1V51
		h-0.1v0.2h-0.1v0.1h-0.1v0.1h-0.1v0.1h-0.1v0.1H202v0.1h-0.1v0.1h-0.1V52h-0.1v0.1h-0.1v0.1h-0.1v0.1h-0.1v0.1h-0.1v0.1h-0.1v0.1
		H201v0.1h-0.1v0.1h-0.1V53h-0.1v0.1h-0.1v0.1h-0.1v0.1h-0.1v0.1h-0.1v0.1h-0.1v0.1h-0.1v0.1H200v0.1h-0.1V54h-0.1v0.1h-0.1v0.2
		h-0.1v0.1h-0.1v0.1h-0.1v0.1h-0.1v0.1h-0.1v0.1h-0.1v0.1H199V55h-0.1v0.1h-0.1v0.1h-0.1v0.2h-0.1v0.1h-0.1v0.1h-0.1v0.1h-0.1v0.1
		h-0.1V56H198v0.1h-0.1v0.1h-0.1v0.1h-0.1v0.2h-0.1v0.1h-0.1v0.1h-0.1v0.1h-0.1v0.1h-0.1V57h-0.1v0.1H197v0.1h-0.1v0.2h-0.1v0.1
		h-0.1v0.1h-0.1v0.1h-0.1v0.1h-0.1v0.1h-0.1V58h-0.1v0.2H196v0.1h-0.1v0.1h-0.1v0.1h-0.1v0.1h-0.1v0.1h-0.1v0.1h-0.1v0.2h-0.1v0.1
		h-0.1v0.1h-0.1v0.1H195v0.1h-0.1v0.1h-0.1v0.2h-0.1v0.1h-0.1V60h-0.1v0.1h-0.1v0.1h-0.1v0.1h-0.1v0.2H194v0.1h-0.1v0.1h-0.1v0.1
		h-0.1V61h-0.1v0.2h-0.1v0.1h-0.1v0.1h-0.1v0.1h-0.1v0.1h-0.1v0.2H193v0.1h-0.1V62h-0.1v0.1h-0.1v0.1h-0.1v0.1h-0.1v0.2h-0.1v0.1
		h-0.1v0.1h-0.1v0.1h-0.1V63H192v0.2h-0.1v0.1h-0.1v0.1h-0.1v0.1h-0.1v0.2h-0.1v0.1h-0.1v0.1h-0.1V64h-0.1v0.1H191v0.2h-0.1v0.1
		h-0.1v0.1h-0.1v0.1h-0.1v0.2h-0.1v0.1h-0.1V65h-0.1v0.1h-0.1v0.1h-0.1v0.2H190v0.1h-0.1v0.1h-0.1v0.1h-0.1V66h-0.1v0.1h-0.1v0.1
		h-0.1v0.1h-0.1v0.2h-0.1v0.1H189v0.1h-0.1v0.1h-0.1V67h-0.1v0.1h-0.1v0.1h-0.1v0.1h-0.1v0.2h-0.1v0.1h-0.1v0.1h-0.1v0.1H188v0.2
		h-0.1v0.1h-0.1v0.1h-0.1v0.2h-0.1v0.1h-0.1v0.1h-0.1v0.1h-0.1V69h-0.1v0.1H187v0.1h-0.1v0.2h-0.1v0.1h-0.1v0.1h-0.1v0.1h-0.1V70
		h-0.1v0.1h-0.1v0.1h-0.1v0.2h-0.1v0.1H186v0.1h-0.1v0.2h-0.1v0.1h-0.1V71h-0.1v0.1h-0.1v0.2h-0.1v0.1h-0.1v0.1h-0.1v0.2h-0.1v0.1
		H185v0.1h-0.1v0.2h-0.1v0.1h-0.1v0.1h-0.1v0.2h-0.1v0.1h-0.1v0.1h-0.1V73h-0.1v0.1H184v0.1h-0.1v0.2h-0.1v0.1h-0.1v0.1h-0.1v0.2
		h-0.1v0.1h-0.1V74h-0.1v0.2h-0.1v0.1h-0.1v0.1H183v0.2h-0.1v0.1h-0.1v0.1h-0.1v0.2h-0.1v0.1h-0.1v0.2h-0.1v0.1h-0.1v0.1h-0.1v0.2
		H182v0.1h-0.1V76h-0.1v0.2h-0.1v0.1h-0.1v0.1h-0.1v0.2h-0.1v0.1h-0.1V77h-0.1v0.1h-0.1v0.1H181v0.2h-0.1v0.1h-0.1v0.2h-0.1v0.1
		h-0.1v0.1h-0.1v0.2h-0.1v0.1h-0.1v0.2h-0.1v0.1H180v0.1h-0.1v0.2h-0.1v0.1h-0.1v0.2h-0.1v0.1h-0.1v0.1h-0.1v0.2h-0.1v0.1h-0.1v0.2
		h-0.1V80H179v0.1h-0.1v0.2h-0.1v0.1h-0.1v0.2h-0.1v0.1h-0.1v0.2h-0.1V81h-0.1v0.1h-0.1v0.2h-0.1v0.1H178v0.2h-0.1v0.1h-0.1V82h-0.1
		v0.1h-0.1v0.2h-0.1v0.1h-0.1v0.1h-0.1v0.2h-0.1v0.1H177V83h-0.1v0.1h-0.1v0.2h-0.1v0.1h-0.1v0.2h-0.1v0.1h-0.1V84h-0.1v0.1h-0.1
		v0.2h-0.1v0.1H176v0.2h-0.1v0.1h-0.1v0.1h-0.1V85h-0.1v0.1h-0.1v0.2h-0.1v0.1h-0.1v0.2h-0.1v0.1H175v0.2h-0.1V86h-0.1v0.2h-0.1v0.1
		h-0.1v0.2h-0.1v0.2h-0.1v0.1h-0.1v0.2h-0.1v0.1h-0.1v0.2H174v0.1h-0.1v0.2h-0.1v0.1h-0.1V88h-0.1v0.1h-0.1v0.2h-0.1v0.1h-0.1v0.2
		h-0.1v0.1H173V89h-0.1v0.1h-0.1v0.2h-0.1v0.1h-0.1v0.2h-0.1v0.2h-0.1v0.1h-0.1v0.2h-0.1v0.1h-0.1v0.2H172v0.1h-0.1v0.2h-0.1v0.1
		h-0.1v0.2h-0.1v0.2h-0.1v0.1h-0.1v0.2h-0.1v0.1h-0.1v0.2h-0.1V92H171v0.2h-0.1v0.2h-0.1v0.1h-0.1v0.2h-0.1v0.1h-0.1V93h-0.1v0.2
		h-0.1v0.1h-0.1v0.2H170v0.1h-0.1v0.2h-0.1v0.2h-0.1v0.1h-0.1v0.2h-0.1v0.1h-0.1v0.2h-0.1v0.2h-0.1V95h-0.1v0.2H169v0.1h-0.1v0.2
		h-0.1v0.2h-0.1v0.1h-0.1v0.2h-0.1v0.2h-0.1v0.1h-0.1v0.2h-0.1v0.1H168v0.2h-0.1v0.2h-0.1v0.1h-0.1v0.2h-0.1v0.2h-0.1v0.1h-0.1V98
		h-0.1v0.2h-0.1v0.1h-0.1v0.2H167v0.2h-0.1v0.1h-0.1V99h-0.1v0.2h-0.1v0.1h-0.1v0.2h-0.1v0.2h-0.1v0.1h-0.1v0.2H166v0.2h-0.1v0.2
		h-0.1v0.1h-0.1v0.2h-0.1v0.2h-0.1v0.1h-0.1v0.2h-0.1v0.2h-0.1v0.1h-0.1v0.2H165v0.2h-0.1v0.2h-0.1v0.1h-0.1v0.2h-0.1v0.2h-0.1v0.1
		h-0.1v0.2h-0.1v0.2h-0.1v0.2h-0.1v0.1H164v0.2h-0.1v0.2h-0.1v0.2h-0.1v0.1h-0.1v0.2h-0.1v0.2h-0.1v0.2h-0.1v0.1h-0.1v0.2H163v0.2
		h-0.1v0.2h-0.1v0.1h-0.1v0.2h-0.1v0.2h-0.1v0.2h-0.1v0.1h-0.1v0.2h-0.1v0.2h-0.1v0.2H162v0.2h-0.1v0.1h-0.1v0.2h-0.1v0.2h-0.1v0.2
		h-0.1v0.2h-0.1v0.2h-0.1v0.1h-0.1v0.2H161v0.2h-0.1v0.2h-0.1v0.2h-0.1v0.1h-0.1v0.2h-0.1v0.2h-0.1v0.2h-0.1v0.2h-0.1v0.1h-0.1v0.2
		H160v0.2h-0.1v0.2h-0.1v0.2h-0.1v0.2h-0.1v0.2h-0.1v0.2h-0.1v0.1h-0.1v0.2h-0.1v0.2H159v0.2h-0.1v0.2h-0.1v0.2h-0.1v0.2h-0.1v0.1
		h-0.1v0.2h-0.1v0.2h-0.1v0.2h-0.1v0.2h-0.1v0.2H158v0.2h-0.1v0.2h-0.1v0.2h-0.1v0.1h-0.1v0.2h-0.1v0.2h-0.1v0.2h-0.1v0.2h-0.1v0.2
		h-0.1v0.2H157v0.2h-0.1v0.2h-0.1v0.2h-0.1v0.2h-0.1v0.2h-0.1v0.2h-0.1v0.2h-0.1v0.2h-0.1v0.2H156v0.1h-0.1v0.2h-0.1v0.2h-0.1v0.2
		h-0.1v0.2h-0.1v0.2h-0.1v0.2h-0.1v0.2h-0.1v0.2h-0.1v0.2H155v0.2h-0.1v0.2h-0.1v0.2h-0.1v0.2h-0.1v0.2h-0.1v0.2h-0.1v0.2h-0.1v0.2
		h-0.1v0.2H154v0.2h-0.1v0.2h-0.1v0.2h-0.1v0.2h-0.1v0.2h-0.1v0.2h-0.1v0.3h-0.1v0.2h-0.1v0.2h-0.1v0.2H153v0.2h-0.1v0.2h-0.1v0.2
		h-0.1v0.2h-0.1v0.2h-0.1v0.2h-0.1v0.2h-0.1v0.2h-0.1v0.2H152v0.3h-0.1v0.2h-0.1v0.2h-0.1v0.2h-0.1v0.2h-0.1v0.2h-0.1v0.2h-0.1v0.2
		h-0.1v0.2h-0.1v0.2H151v0.3h-0.1v0.2h-0.1v0.2h-0.1v0.2h-0.1v0.2h-0.1v0.2h-0.1v0.3h-0.1v0.2h-0.1v0.2h-0.1v0.2H150v0.2h-0.1v0.2
		h-0.1v0.3h-0.1v0.2h-0.1v0.2h-0.1v0.2h-0.1v0.2h-0.1v0.2h-0.1v0.3H149v0.2h-0.1v0.2h-0.1v0.2h-0.1v0.3h-0.1v0.2h-0.1v0.2h-0.1v0.2
		h-0.1v0.3h-0.1v0.2h-0.1v0.2H148v0.2h-0.1v0.2h-0.1v0.3h-0.1v0.2h-0.1v0.2h-0.1v0.2h-0.1v0.3h-0.1v0.2h-0.1v0.2H147v0.2h-0.1v0.3
		h-0.1v0.2h-0.1v0.2h-0.1v0.3h-0.1v0.2h-0.1v0.2h-0.1v0.3h-0.1v0.2h-0.1v0.2H146v0.3h-0.1v0.2h-0.1v0.2h-0.1v0.3h-0.1v0.2h-0.1v0.2
		h-0.1v0.3h-0.1v0.2h-0.1v0.2H145v0.3h-0.1v0.2h-0.1v0.3h-0.1v0.2h-0.1v0.2h-0.1v0.3h-0.1v0.2h-0.1v0.3h-0.1v0.2h-0.1v0.3H144v0.2
		h-0.1v0.2h-0.1v0.3h-0.1v0.2h-0.1v0.3h-0.1v0.2h-0.1v0.3h-0.1v0.2h-0.1v0.2h-0.1v0.3h-0.1v0.2h-0.1v0.3h-0.1v0.2h-0.1v0.3h-0.1v0.2
		h-0.1v0.3h-0.1v0.2h-0.1v0.3h-0.1v0.3H142v0.2h-0.1v0.3h-0.1v0.2h-0.1v0.3h-0.1v0.2h-0.1v0.3h-0.1v0.2h-0.1v0.3h-0.1v0.2h-0.1v0.3
		H141v0.2h-0.1v0.3h-0.1v0.3h-0.1v0.2h-0.1v0.3h-0.1v0.3h-0.1v0.2h-0.1v0.3h-0.1v0.2H140v0.3h-0.1v0.3h-0.1v0.2h-0.1v0.3h-0.1v0.3
		h-0.1v0.2h-0.1v0.3h-0.1v0.3h-0.1v0.2h-0.1v0.3H139v0.2h-0.1v0.3h-0.1v0.3h-0.1v0.3h-0.1v0.3h-0.1v0.2h-0.1v0.3h-0.1v0.3h-0.1v0.3
		H138v0.2h-0.1v0.3h-0.1v0.3h-0.1v0.3h-0.1v0.2h-0.1v0.3h-0.1v0.3h-0.1v0.3h-0.1v0.2h-0.1v0.3H137v0.3h-0.1v0.3h-0.1v0.3h-0.1v0.3
		h-0.1v0.3h-0.1v0.2h-0.1v0.3h-0.1v0.3h-0.1v0.3h-0.1v0.3h-0.1v0.3h-0.1v0.3h-0.1v0.3h-0.1v0.3h-0.1v0.3h-0.1v0.2h-0.1v0.3h-0.1v0.3
		h-0.1v0.3H135v0.3h-0.1v0.3h-0.1v0.3h-0.1v0.3h-0.1v0.3h-0.1v0.3h-0.1v0.3h-0.1v0.3h-0.1v0.3h-0.1v0.3H134v0.4h-0.1v0.3h-0.1v0.3
		h-0.1v0.3h-0.1v0.3h-0.1v0.3h-0.1v0.3h-0.1v0.3h-0.1v0.3H133v0.3h-0.1v0.3h-0.1v0.4h-0.1v0.3h-0.1v0.3h-0.1v0.3h-0.1v0.3h-0.1v0.4
		h-0.1v0.3h-0.1v0.3H132v0.3h-0.1v0.3h-0.1v0.4h-0.1v0.3h-0.1v0.3h-0.1v0.3h-0.1v0.3h-0.1v0.4h-0.1v0.3H131v0.4h-0.1v0.3h-0.1v0.3
		h-0.1v0.4h-0.1v0.3h-0.1v0.3h-0.1v0.4h-0.1v0.3h-0.1v0.4h-0.1v0.3H130v0.3h-0.1v0.4h-0.1v0.3h-0.1v0.3h-0.1v0.4h-0.1v0.4h-0.1v0.3
		h-0.1v0.4h-0.1v0.3h-0.1v0.4h-0.1v0.3h-0.1v0.4h-0.1v0.3h-0.1v0.4h-0.1v0.4h-0.1v0.3h-0.1v0.4h-0.1v0.3h-0.1v0.4H128v0.3h-0.1v0.4
		h-0.1v0.4h-0.1v0.4h-0.1v0.3h-0.1v0.4h-0.1v0.4h-0.1v0.4h-0.1v0.4h-0.1v0.3H127v0.4h-0.1v0.4h-0.1v0.4h-0.1v0.3h-0.1v0.4h-0.1v0.4
		h-0.1v0.4h-0.1v0.4h-0.1v0.4H126v0.4h-0.1v0.4h-0.1v0.4h-0.1v0.4h-0.1v0.4h-0.1v0.4h-0.1v0.4h-0.1v0.4h-0.1v0.4h-0.1v0.4H125v0.4
		h-0.1v0.4h-0.1v0.4h-0.1v0.4h-0.1v0.5h-0.1v0.4h-0.1v0.4h-0.1v0.5h-0.1v0.4H124v0.4h-0.1v0.4h-0.1v0.5h-0.1v0.4h-0.1v0.4h-0.1v0.5
		h-0.1v0.4h-0.1v0.4h-0.1v0.5h-0.1v0.4H123v0.5h-0.1v0.4h-0.1v0.5h-0.1v0.5h-0.1v0.4h-0.1v0.5h-0.1v0.4h-0.1v0.5h-0.1v0.4h-0.1v0.5
		h-0.1v0.5h-0.1v0.4h-0.1v0.5h-0.1v0.5h-0.1v0.5h-0.1v0.5h-0.1v0.5h-0.1v0.5h-0.1v0.5H121v0.5h-0.1v0.5h-0.1v0.5h-0.1v0.5h-0.1v0.4
		h-0.1v0.5h-0.1v0.6h-0.1v0.5h-0.1v0.5h-0.1v0.6H120v0.5h-0.1v0.5h-0.1v0.6h-0.1v0.5h-0.1v0.5h-0.1v0.6h-0.1v0.5h-0.1v0.6h-0.1v0.5
		H119v0.6h-0.1v0.6h-0.1v0.6h-0.1v0.5h-0.1v0.6h-0.1v0.6h-0.1v0.6h-0.1v0.6h-0.1v0.6h-0.1v0.5H118v0.6h-0.1v0.7h-0.1v0.6h-0.1v0.6
		h-0.1v0.7h-0.1v0.6h-0.1v0.6h-0.1v0.7h-0.1v0.6H117v0.7h-0.1v0.6h-0.1v0.7h-0.1v0.7h-0.1v0.7h-0.1v0.7h-0.1v0.7h-0.1v0.7h-0.1v0.7
		h-0.1v0.7H116v0.7h-0.1v0.7h-0.1v0.7h-0.1v0.8h-0.1v0.8h-0.1v0.8h-0.1v0.8h-0.1v0.8h-0.1v0.8h-0.1v0.8h-0.1v0.8h-0.1v0.8h-0.1v0.8
		h-0.1v0.9h-0.1v0.9h-0.1v0.9h-0.1v0.8h-0.1v0.9h-0.1v1H114v0.8h-0.1v-0.1h-0.4v-0.1h-0.4v-0.1h-0.3v-0.1h-0.4V267H112v-0.1h-0.4
		v-0.1h-0.3v-0.1h-0.4v-0.1h-0.3v-0.1h-0.4v-0.1h-0.3v-0.1h-0.4v-0.1h-0.3v-0.1h-0.4V266h-0.3v-0.1h-0.4v-0.1h-0.3v-0.1h-0.4v-0.1
		h-0.3v-0.1h-0.4v-0.1h-0.3v-0.1h-0.4v-0.1h-0.3V265H105v-0.1h-0.3v-0.1h-0.4v-0.1h-0.4v-0.1h-0.3v-0.1h-0.4v-0.1h-0.3v-0.1h-0.4
		v-0.1h-0.3v-0.1h-0.4V264h-0.3v-0.1h-0.4v-0.1h-0.3v-0.1h-0.4v-0.1h-0.3v-0.1h-0.4v-0.1h-0.3v-0.1h-0.4v-0.1h-0.3V263H98v-0.1h-0.3
		v-0.1h-0.4v-0.1H97v-0.1h-0.4v-0.1h-0.3v-0.1h-0.4v-0.1h-0.3v-0.1h-0.4v-0.1h-0.4V262h-0.3v-0.1h-0.4v-0.1h-0.3v-0.1h-0.4v-0.1
		h-0.3v-0.1h-0.4v-0.1h-0.3v-0.1h-0.4v-0.1h-0.3v-0.1H91V261h-0.3v-0.1h-0.4v-0.1H90v-0.1h-0.4v-0.1h-0.3v-0.1h-0.4v-0.1h-0.3v-0.1
		h-0.4v-0.1h-0.3V260h-0.4v-0.1H87v-0.1h-0.4v-0.1h-0.3v-0.1h-0.4v-0.1h-0.4v-0.1h-0.3v-0.1h-0.4v-0.1h-0.3v-0.1H84V259h-0.3v-0.1
		h-0.4v-0.1H83v-0.1h-0.4v-0.1h-0.3v-0.1h-0.4v-0.1h-0.3v-0.1h-0.4v-0.1h-0.3V258h-0.4v-0.1H80v-0.1h-0.4v-0.1h-0.3v-0.1h-0.4v-0.1
		h-0.3v-0.1h-0.4v-0.1h-0.3v-0.1h-0.4v-0.1h-0.3V257h-0.4v-0.1h-0.4v-0.1H76v-0.1h-0.4v-0.1h-0.3v-0.1h-0.4v-0.1h-0.3v-0.1h-0.4
		v-0.1h-0.3V256h-0.4v-0.1H73v-0.1h-0.4v-0.1h-0.3v-0.1h-0.4v-0.1h-0.3v-0.1h-0.4v-0.1h-0.3v-0.1h-0.4v-0.1h-0.3V255h-0.4v-0.1h-0.3
		v-0.1H69v-0.1h-0.3v-0.1h-0.4v-0.1h-0.4v-0.1h-0.3v-0.1h-0.4v-0.1h-0.3v-0.1h-0.4V254H66v-0.1h-0.4v-0.1h-0.3v-0.1h-0.4v-0.1h-0.3
		v-0.1h-0.4v-0.1h-0.3v-0.1h-0.4v-0.1h-0.3V253h-0.4v-0.1h-0.3v-0.1H62v-0.1h-0.3v-0.1h-0.4v-0.1h-0.3v-0.1h-0.4v-0.1h-0.3v-0.1
		h-0.4v-0.1h-0.3V252H59v-0.1h-0.4v-0.1h-0.3v-0.1h-0.4v-0.1h-0.3v-0.1h-0.4v-0.1h-0.3v-0.1h-0.4v-0.1h-0.3V251h-0.4v-0.1h-0.3v-0.1
		H55v-0.1h-0.3v-0.1h-0.4v-0.1h-0.3v-0.1h-0.4v-0.1h-0.3v-0.1h-0.4v-0.1h-0.3V250H52v-0.1h-0.3v-0.1h-0.4v-0.1H51v-0.1h-0.4v-0.1
		h-0.3v-0.1h-0.4v-0.1h-0.4v-0.1h-0.3V249h-0.4v-0.1h-0.3v-0.1H48v-0.1h-0.3v-0.1h-0.4v-0.1h-0.3v-0.1h-0.4v-0.1h-0.3v-0.1h-0.4
		v-0.1h-0.3V248H45v-0.1h-0.3v-0.1h-0.4v-0.1H44v-0.1h-0.4v-0.1h-0.3v-0.1h-0.4v-0.1h-0.3v-0.1h-0.4v-0.1h-0.3V247h-0.4v-0.1h-0.3
		v-0.1h-0.4v-0.1h-0.4v-0.1h-0.3v-0.1h-0.4v-0.1h-0.3v-0.1h-0.4v-0.1h-0.3V246H38v-0.1h-0.3v-0.1h-0.4v-0.1H37v-0.1h-0.4v-0.1h-0.3
		v-0.1h-0.1v-1.9h0.1v-1.9h0.1v-1.9h0.1V238h0.1v-1.6h0.1v-1.5h0.1v-1.4h0.1v-1.5H37v-1.5h0.1v-1.3h0.1v-1.1h0.1v-1.1h0.1v-1h0.1
		v-1.1h0.1v-1.1h0.1v-1.1h0.1v-0.9h0.1v-0.9H38v-0.8h0.1V219h0.1V218h0.1v-0.9h0.1v-0.9h0.1v-0.9h0.1v-0.7h0.1v-0.8h0.1v-0.7H39
		v-0.8h0.1v-0.7h0.1v-0.8h0.1v-0.7h0.1v-0.8h0.1v-0.7h0.1v-0.7h0.1v-0.7h0.1v-0.6h0.1v-0.7H40v-0.6h0.1V204h0.1v-0.6h0.1v-0.7h0.1
		V202h0.1v-0.6h0.1v-0.7h0.1V200h0.1v-0.5H41v-0.6h0.1v-0.6h0.1v-0.5h0.1v-0.6h0.1v-0.6h0.1v-0.6h0.1v-0.5h0.1v-0.6h0.1v-0.6h0.1
		v-0.5H42V193h0.1v-0.5h0.1V192h0.1v-0.5h0.1v-0.6h0.1v-0.5h0.1v-0.5h0.1v-0.5h0.1v-0.5H43v-0.5h0.1v-0.5h0.1v-0.5h0.1v-0.5h0.1
		v-0.5h0.1v-0.4h0.1v-0.5h0.1v-0.4h0.1v-0.5h0.1v-0.5H44v-0.4h0.1v-0.5h0.1v-0.4h0.1v-0.5h0.1v-0.5h0.1v-0.4h0.1v-0.5h0.1V180h0.1
		v-0.4h0.1v-0.4H45v-0.5h0.1v-0.4h0.1v-0.4h0.1v-0.4h0.1v-0.4h0.1v-0.5h0.1V176h0.1v-0.4h0.1v-0.4H46v-0.4h0.1v-0.5h0.1v-0.4h0.1
		v-0.3h0.1v-0.4h0.1v-0.4h0.1v-0.4h0.1v-0.4h0.1v-0.4h0.1V171H47v-0.3h0.1v-0.4h0.1v-0.4h0.1v-0.4h0.1V169h0.1v-0.4h0.1v-0.3h0.1
		v-0.4h0.1v-0.4H48V167h0.1v-0.3h0.1v-0.4h0.1V166h0.1v-0.4h0.1v-0.3h0.1v-0.4h0.1v-0.3h0.1v-0.4h0.1v-0.3H49v-0.4h0.1v-0.4h0.1
		v-0.3h0.1v-0.4h0.1v-0.3h0.1v-0.4h0.1v-0.3h0.1v-0.3h0.1v-0.4H50v-0.3h0.1v-0.3h0.1v-0.4h0.1v-0.3h0.1v-0.3h0.1v-0.3h0.1V158h0.1
		v-0.3h0.1v-0.3h0.1V157H51v-0.3h0.1v-0.3h0.1v-0.4h0.1v-0.3h0.1v-0.3h0.1V155h0.1v-0.3h0.1v-0.3h0.1v-0.3h0.1v-0.3H52v-0.3h0.1V153
		h0.1v-0.3h0.1v-0.3h0.1v-0.3h0.1v-0.3h0.1v-0.3h0.1v-0.3h0.1v-0.3H53v-0.3h0.1v-0.3h0.1v-0.3h0.1v-0.3h0.1v-0.3h0.1v-0.3h0.1v-0.3
		h0.1v-0.3h0.1V148h0.1v-0.3H54v-0.2h0.1v-0.3h0.1v-0.3h0.1v-0.3h0.1v-0.3h0.1v-0.3h0.1v-0.3h0.1v-0.3h0.1v-0.2H55v-0.3h0.1v-0.3
		h0.1v-0.3h0.1v-0.3h0.1v-0.3h0.1v-0.2h0.1V143h0.1v-0.3h0.1v-0.2h0.1v-0.3H56v-0.3h0.1v-0.3h0.1v-0.2h0.1V141h0.1v-0.3h0.1v-0.2
		h0.1v-0.3h0.1v-0.3h0.1v-0.2H57v-0.3h0.1V139h0.1v-0.3h0.1v-0.2h0.1v-0.3h0.1v-0.3h0.1v-0.2h0.1v-0.3h0.1v-0.2h0.1v-0.3H58v-0.2
		h0.1v-0.3h0.1v-0.2h0.1v-0.3h0.1v-0.2h0.1v-0.3h0.1v-0.3h0.1v-0.2h0.1v-0.3h0.1v-0.2H59v-0.3h0.1v-0.2h0.1v-0.3h0.1v-0.2h0.1v-0.3
		h0.1v-0.2h0.1v-0.3h0.1v-0.2h0.1v-0.3H60v-0.2h0.1v-0.2h0.1v-0.3h0.1v-0.2h0.1v-0.3h0.1v-0.2h0.1v-0.2h0.1v-0.3h0.1v-0.2h0.1v-0.3
		H61v-0.2h0.1v-0.2h0.1v-0.3h0.1v-0.2h0.1V128h0.1v-0.2h0.1v-0.2h0.1v-0.3h0.1v-0.2H62v-0.3h0.1v-0.2h0.1v-0.2h0.1v-0.2h0.1v-0.3
		h0.1v-0.2h0.1v-0.2h0.1v-0.2h0.1v-0.3h0.1v-0.2H63v-0.2h0.1v-0.3h0.1V124h0.1v-0.2h0.1v-0.2h0.1v-0.3h0.1V123h0.1v-0.2h0.1v-0.2H64
		v-0.3h0.1v-0.2h0.1v-0.2h0.1v-0.2h0.1v-0.3h0.1v-0.2h0.1v-0.2h0.1v-0.2h0.1v-0.2h0.1v-0.2H65V120h0.1v-0.2h0.1v-0.2h0.1v-0.2h0.1
		v-0.2h0.1V119h0.1v-0.2h0.1v-0.3h0.1v-0.2h0.1V118H66v-0.2h0.1v-0.2h0.1v-0.2h0.1v-0.3h0.1v-0.2h0.1v-0.2h0.1v-0.2h0.1v-0.2h0.1
		V116H67v-0.2h0.1v-0.2h0.1v-0.2h0.1v-0.2h0.1V115h0.1v-0.2h0.1v-0.2h0.1v-0.2h0.1V114h0.1v-0.2H68v-0.2h0.1v-0.2h0.1v-0.2h0.1V113
		h0.1v-0.2h0.1v-0.2h0.1v-0.2h0.1v-0.2h0.1V112H69v-0.2h0.1v-0.2h0.1v-0.2h0.1v-0.2h0.1v-0.2h0.1v-0.2h0.1v-0.2h0.1v-0.2h0.1v-0.2
		h0.1v-0.2H70v-0.2h0.1v-0.2h0.1v-0.2h0.1V109h0.1v-0.1h0.1v-0.2h0.1v-0.2h0.1v-0.2h0.1v-0.2H71v-0.2h0.1v-0.2h0.1v-0.2h0.1v-0.2
		h0.1V107h0.1v-0.2h0.1v-0.2h0.1v-0.2h0.1v-0.2h0.1v-0.1H72v-0.2h0.1v-0.2h0.1v-0.2h0.1v-0.2h0.1v-0.2h0.1v-0.2h0.1v-0.2h0.1v-0.1
		h0.1v-0.2h0.1v-0.2H73v-0.2h0.1v-0.2h0.1v-0.2h0.1v-0.2h0.1v-0.2h0.1V103h0.1v-0.2h0.1v-0.2h0.1v-0.2H74v-0.2h0.1v-0.2h0.1v-0.1
		h0.1v-0.2h0.1v-0.2h0.1v-0.2h0.1V101h0.1v-0.1h0.1v-0.2h0.1v-0.2H75v-0.2h0.1V100h0.1v-0.1h0.1v-0.2h0.1v-0.2h0.1v-0.2h0.1v-0.1
		h0.1V99h0.1v-0.2H76v-0.2h0.1v-0.2h0.1v-0.1h0.1v-0.2h0.1v-0.2h0.1v-0.2h0.1v-0.2h0.1v-0.1h0.1v-0.2h0.1v-0.2H77v-0.1h0.1v-0.2h0.1
		v-0.2h0.1v-0.1h0.1v-0.2h0.1v-0.2h0.1v-0.2h0.1v-0.1h0.1v-0.2H78v-0.2h0.1V95h0.1v-0.2h0.1v-0.2h0.1v-0.2h0.1v-0.1h0.1v-0.2h0.1
		v-0.2h0.1v-0.1h0.1v-0.2H79v-0.2h0.1v-0.2h0.1V93h0.1v-0.2h0.1v-0.2h0.1v-0.1h0.1v-0.2h0.1v-0.1h0.1V92h0.1v-0.2H80v-0.1h0.1v-0.2
		h0.1v-0.2h0.1v-0.1h0.1V91h0.1v-0.2h0.1v-0.1h0.1v-0.2h0.1v-0.2H81v-0.1h0.1v-0.2h0.1v-0.1h0.1v-0.2h0.1v-0.2h0.1v-0.1h0.1v-0.2
		h0.1v-0.2h0.1v-0.1h0.1v-0.2H82v-0.1h0.1v-0.2h0.1V88h0.1v-0.1h0.1v-0.2h0.1v-0.1h0.1v-0.2h0.1v-0.2h0.1v-0.1H83v-0.2h0.1v-0.1h0.1
		v-0.2h0.1v-0.1h0.1v-0.2h0.1V86h0.1v-0.1h0.1v-0.2h0.1v-0.1h0.1v-0.2H84v-0.1h0.1v-0.2h0.1v-0.2h0.1v-0.1h0.1v-0.2h0.1v-0.1h0.1
		v-0.2h0.1v-0.1h0.1V84H85v-0.1h0.1v-0.2h0.1v-0.1h0.1v-0.2h0.1v-0.1h0.1V83h0.1v-0.1h0.1v-0.2h0.1v-0.1h0.1v-0.2H86v-0.2h0.1v-0.1
		h0.1v-0.2h0.1v-0.1h0.1v-0.2h0.1v-0.1h0.1v-0.2h0.1v-0.1h0.1v-0.2h0.1v-0.1H87v-0.2h0.1v-0.1h0.1v-0.2h0.1v-0.1h0.1V80h0.1v-0.1
		h0.1v-0.2h0.1v-0.1h0.1v-0.1H88v-0.2h0.1v-0.1h0.1v-0.2h0.1v-0.1h0.1v-0.2h0.1v-0.1h0.1v-0.2h0.1v-0.1h0.1V78h0.1v-0.1H89v-0.1h0.1
		v-0.2h0.1v-0.1h0.1v-0.2h0.1v-0.1h0.1V77h0.1v-0.1h0.1v-0.2h0.1v-0.1H90v-0.2h0.1v-0.1h0.1v-0.1h0.1v-0.2h0.1v-0.1h0.1v-0.2h0.1
		v-0.1h0.1v-0.1h0.1v-0.2h0.1v-0.1H91v-0.2h0.1v-0.1h0.1v-0.1h0.1v-0.2h0.1v-0.1h0.1v-0.2h0.1V74h0.1v-0.2h0.1v-0.1H92v-0.1h0.1
		v-0.2h0.1v-0.1h0.1v-0.2h0.1V73h0.1v-0.1h0.1v-0.2h0.1v-0.1h0.1v-0.2h0.1v-0.1H93v-0.1h0.1v-0.2h0.1v-0.1h0.1v-0.1h0.1v-0.2h0.1
		v-0.1h0.1v-0.1h0.1v-0.2h0.1V71h0.1v-0.1h0.1v-0.2h0.1v-0.1h0.1v-0.2h0.1v-0.1h0.1v-0.1h0.1V70h0.1v-0.1h0.1v-0.1h0.1v-0.2H95v-0.1
		h0.1v-0.1h0.1v-0.2h0.1V69h0.1v-0.1h0.1v-0.2h0.1v-0.1h0.1v-0.1h0.1v-0.2h0.1v-0.1H96v-0.1h0.1v-0.2h0.1v-0.1h0.1v-0.1h0.1v-0.2
		h0.1v-0.1h0.1v-0.1h0.1v-0.1h0.1v-0.2H97v-0.1h0.1v-0.1h0.1v-0.2h0.1v-0.1h0.1v-0.1h0.1v-0.2h0.1V66h0.1v-0.1h0.1v-0.2h0.1v-0.1H98
		v-0.1h0.1v-0.1h0.1v-0.2h0.1V65h0.1v-0.1h0.1v-0.2h0.1v-0.1h0.1v-0.1h0.1v-0.1H99v-0.2h0.1v-0.1h0.1V64h0.1v-0.1h0.1v-0.2h0.1v-0.1
		h0.1v-0.1h0.1v-0.2h0.1v-0.1h0.1v-0.1h0.1V63h0.1v-0.2h0.1v-0.1h0.1v-0.1h0.1v-0.1h0.1v-0.2h0.1v-0.1h0.1V62h0.1v-0.1h0.1v-0.2h0.1
		v-0.1h0.1v-0.1h0.1v-0.1h0.1v-0.2h0.1v-0.1h0.1V61h0.1v-0.1h0.1v-0.2h0.1v-0.1h0.1v-0.1h0.1v-0.1h0.1v-0.1h0.1V60h0.1v-0.1h0.1
		v-0.1h0.1v-0.1h0.1v-0.1h0.1v-0.2h0.1v-0.1h0.1v-0.1h0.1v-0.1h0.1v-0.2h0.1v-0.1h0.1v-0.1h0.1v-0.1h0.1v-0.1h0.1v-0.2h0.1v-0.1h0.1
		V58h0.1v-0.1h0.1v-0.1h0.1v-0.2h0.1v-0.1h0.1v-0.1h0.1v-0.1h0.1v-0.1h0.1V57h0.1v-0.1h0.1v-0.1h0.1v-0.1h0.1v-0.1h0.1v-0.1h0.1
		v-0.2h0.1v-0.1h0.1v-0.1h0.1V56h0.1v-0.1h0.1v-0.2h0.1v-0.1h0.1v-0.1h0.1v-0.1h0.1v-0.1h0.1v-0.1h0.1v-0.2h0.1v-0.1h0.1v-0.1h0.1
		v-0.1h0.1v-0.1h0.1v-0.1h0.1v-0.2h0.1v-0.1h0.1V54h0.1v-0.1h0.1v-0.1h0.1v-0.1h0.1v-0.1h0.1v-0.2h0.1v-0.1h0.1v-0.1h0.1V53h0.1
		v-0.1h0.1v-0.1h0.1v-0.1h0.1v-0.2h0.1v-0.1h0.1v-0.1h0.1v-0.1h0.1v-0.1h0.1V52h0.1v-0.1h0.1v-0.2h0.1v-0.1h0.1v-0.1h0.1v-0.1h0.1
		v-0.1h0.1v-0.1h0.1V51h0.1v-0.1h0.1v-0.1h0.1v-0.2h0.1v-0.1h0.1v-0.1h0.1v-0.1h0.1v-0.1h0.1v-0.1h0.1V50h0.1v-0.1h0.1v-0.1h0.1
		v-0.2h0.1v-0.1h0.1v-0.1h0.1v-0.1h0.1v-0.1h0.1v-0.1h0.1V49h0.1v-0.1h0.1v-0.1h0.1v-0.2h0.1v-0.1h0.1v-0.1h0.1v-0.1h0.1v-0.1h0.1
		V48h0.1v-0.1h0.1v-0.1h0.1v-0.1h0.1v-0.1h0.1v-0.1h0.1v-0.1h0.1v-0.1h0.1v-0.2h0.1V47h0.1v-0.1h0.1v-0.1h0.1v-0.1h0.1v-0.1h0.1
		v-0.1h0.1v-0.1h0.1v-0.1h0.1v-0.1h0.1V46h0.1v-0.1h0.1v-0.1h0.1v-0.2h0.1v-0.1h0.1v-0.1h0.1v-0.1h0.1v-0.1h0.1v-0.1h0.1V45h0.1
		v-0.1h0.1v-0.1h0.1v-0.1h0.1v-0.1h0.1v-0.1h0.1v-0.1h0.1v-0.1h0.1v-0.1h0.1V44h0.1v-0.1h0.1v-0.1h0.1v-0.1h0.1v-0.1h0.1v-0.1h0.1
		v-0.1h0.1v-0.1h0.1v-0.1h0.1V43h0.1v-0.1h0.1v-0.1h0.1v-0.1h0.1v-0.1h0.1v-0.1h0.1v-0.1h0.1v-0.1h0.1v-0.1h0.1v-0.1h0.1V42h0.1
		v-0.1h0.1v-0.1h0.1v-0.1h0.1v-0.1h0.1v-0.1h0.1v-0.1h0.1v-0.1h0.1v-0.1h0.1V41h0.1v-0.1h0.1v-0.1h0.1v-0.1h0.1v-0.1h0.1v-0.1h0.1
		v-0.1h0.1v-0.1h0.1v-0.1h0.1v-0.1h0.1V40h0.1v-0.1h0.1v-0.1h0.1v-0.1h0.1v-0.1h0.1v-0.1h0.1v-0.1h0.1v-0.1h0.1v-0.1h0.1V39h0.1
		v-0.1h0.1v-0.1h0.1v-0.1h0.1v-0.1h0.1v-0.1h0.1v-0.1h0.1v-0.1h0.1v-0.1h0.1v-0.1h0.1V38h0.1v-0.1h0.1v-0.1h0.1v-0.1h0.1v-0.1h0.1
		v-0.1h0.1v-0.1h0.2v-0.1h0.1v-0.1h0.1V37h0.1v-0.1h0.1v-0.1h0.1v-0.1h0.1v-0.1h0.1v-0.1h0.1v-0.1h0.1v-0.1h0.1v-0.1h0.1v-0.1h0.1
		V36h0.1v-0.1h0.1v-0.1h0.1v-0.1h0.1v-0.1h0.1v-0.1h0.1v-0.1h0.1v-0.1h0.1v-0.1h0.2v-0.1h0.1V35h0.1v-0.1h0.1v-0.1h0.1v-0.1h0.1
		v-0.1h0.1v-0.1h0.1v-0.1h0.1v-0.1h0.1v-0.1h0.1V34h0.1v-0.1h0.1v-0.1h0.1v-0.1h0.2v-0.1h0.1v-0.1h0.1v-0.1h0.1v-0.1h0.1v-0.1h0.1
		v-0.1h0.1V33h0.1v-0.1h0.1v-0.1h0.1v-0.1h0.1v-0.1h0.1v-0.1h0.1v-0.1h0.2v-0.1h0.1v-0.1h0.1V32h0.1v-0.1h0.1v-0.1h0.1v-0.1h0.1
		v-0.1h0.1v-0.1h0.1v-0.1h0.2v-0.1h0.1v-0.1h0.1v-0.1h0.1V31h0.1v-0.1h0.1v-0.1h0.1v-0.1h0.1v-0.1h0.1v-0.1h0.2v-0.1h0.1v-0.1h0.1
		v-0.1h0.1V30h0.1v-0.1h0.1v-0.1h0.1v-0.1h0.1v-0.1h0.2v-0.1h0.1v-0.1h0.1v-0.1h0.1v-0.1h0.1v-0.1h0.1V29h0.1v-0.1h0.2v-0.1h0.1
		v-0.1h0.1v-0.1h0.1v-0.1h0.1v-0.1h0.1v-0.1h0.1v-0.1h0.2v-0.1h0.1V28h0.1v-0.1h0.1v-0.1h0.1v-0.1h0.1v-0.1h0.1v-0.1h0.2v-0.1h0.1
		v-0.1h0.1v-0.1h0.1V27h0.1v-0.1h0.2v-0.1h0.1v-0.1h0.1v-0.1h0.1v-0.1h0.1v-0.1h0.1v-0.1h0.2v-0.1h0.1v-0.1h0.1V26h0.1v-0.1h0.1
		v-0.1h0.1v-0.1h0.2v-0.1h0.1v-0.1h0.1v-0.1h0.1v-0.1h0.1v-0.1h0.2V25h0.1v-0.1h0.1v-0.1h0.1v-0.1h0.1v-0.1h0.2v-0.1h0.1v-0.1h0.1
		v-0.1h0.1v-0.1h0.1v-0.1h0.2V24h0.1v-0.1h0.1v-0.1h0.1v-0.1h0.2v-0.1h0.1v-0.1h0.1v-0.1h0.1v-0.1h0.1v-0.1h0.2V23h0.1v-0.1h0.1
		v-0.1h0.1v-0.1h0.2v-0.1h0.1v-0.1h0.1v-0.1h0.1v-0.1h0.2v-0.1h0.1v-0.1h0.1V22h0.1v-0.1h0.2v-0.1h0.1v-0.1h0.1v-0.1h0.1v-0.1h0.2
		v-0.1h0.1v-0.1h0.1v-0.1h0.1v-0.1h0.2V21h0.1v-0.1h0.1v-0.1h0.1v-0.1h0.2v-0.1h0.1v-0.1h0.1v-0.1h0.1v-0.1h0.2v-0.1h0.1V20h0.1
		v-0.1h0.2v-0.1h0.1v-0.1h0.1v-0.1h0.2v-0.1h0.1v-0.1h0.1v-0.1h0.1v-0.1h0.2v-0.1h0.1V19h0.1v-0.1h0.2v-0.1h0.1v-0.1h0.1v-0.1h0.2
		v-0.1h0.1v-0.1h0.1v-0.1h0.2v-0.1h0.1V18h0.1v-0.1h0.2v-0.1h0.1v-0.1h0.1v-0.1h0.1v-0.1h0.2v-0.1h0.1v-0.1h0.1v-0.1h0.2v-0.1h0.1
		V17h0.1v-0.1h0.2v-0.1h0.1v-0.1h0.2v-0.1h0.1v-0.1h0.1v-0.1h0.2v-0.1h0.1v-0.1h0.1V16h0.2v-0.1h0.1v-0.1h0.1v-0.1h0.2v-0.1h0.1
		v-0.1h0.2v-0.1h0.1v-0.1h0.1v-0.1h0.2v-0.1h0.1V15h0.2v-0.1h0.1v-0.1h0.1v-0.1h0.2v-0.1h0.1v-0.1h0.2v-0.1h0.1v-0.1h0.1v-0.1h0.2
		v-0.1h0.1V14h0.2v-0.1h0.1v-0.1h0.1v-0.1h0.2v-0.1h0.1v-0.1h0.2v-0.1h0.1v-0.1h0.2v-0.1h0.1V13h0.1v-0.1h0.2v-0.1h0.1v-0.1h0.2
		v-0.1h0.1v-0.1h0.2v-0.1h0.1v-0.1h0.2v-0.1h0.1v-0.1h0.2V12h0.1v-0.1h0.1v-0.1h0.2v-0.1h0.1v-0.1h0.2v-0.1h0.1v-0.1h0.2v-0.1h0.1
		v-0.1h0.2V11h0.1v-0.1h0.2v-0.1h0.1v-0.1h0.2v-0.1h0.1v-0.1h0.2v-0.1h0.1v-0.1h0.2v-0.1h0.2v-0.1h0.1V10h0.2V9.9h0.1V9.8h0.2V9.7
		h0.1V9.6h0.2V9.5h0.1V9.4h0.2V9.2h0.1V9.1h0.2V9h0.2V8.9h0.1V8.8h0.2V8.7h0.1V8.6h0.2V8.5h0.1V8.4h0.2V8.3h0.2V8.2h0.1V8.1h0.2V8
		h0.1V7.9h0.2V7.8h0.2V7.7h0.1V7.6h0.2V7.5h0.2V7.4h0.1V7.3h0.2V7.2h0.1V7.1h0.2V6.9h0.2V6.8h0.1V6.7h0.2V6.6h0.2V6.5h0.2V6.4h0.1
		V6.3h0.2V6.2h0.2V6.1h0.1V6h0.2V5.9h0.2V5.8h0.1V5.7h0.2V5.6h0.2V5.5h0.2V5.4h0.1V5.3h0.2V5.2h0.2V5.1h0.2V5h0.2V4.9h2.4V5h1.9v0.1
		h2v0.1h2v0.1h1.9v0.1h2v0.1h2v0.1h1.9v0.1h2v0.1h2v0.1h1.9V6h2v0.1h1.9v0.1h2v0.1h2v0.1h1.9v0.1h2v0.1h2v0.1h1.9v0.1h2v0.1h2v0.1
		h1.9v0.1h2v0.1h1.9v0.1h2v0.1h2v0.1h1.9v0.1h2v0.1h2v0.1h1.9V8h2v0.1h1.9v0.1h2v0.1h2v0.1h1.9v0.1h2v0.1h2v0.1h1.9v0.1h2v0.1h2V9
		h1.9v0.1h2v0.1h2v0.1h1.9v0.1h2v0.1h1.9v0.1h2v0.1h2v0.1h1.9V10h2v0.1h2v0.1h1.9v0.1h2v0.1h2v0.1h1.9v0.1h2v0.1h2v0.1h1.9v0.1h2V11
		h1.9v0.1h2v0.1h2v0.1h1.9v0.1h2v0.1h0.7v0.2h-0.1v0.1h-0.1v0.2H291v0.1h-0.1v0.2h-0.1v0.1h-0.1v0.2h-0.1v0.2h-0.1v0.2h-0.1v0.2
		h-0.1v0.2h-0.1v0.2h-0.1V14H290v0.2h-0.1v0.2h-0.1v0.3h-0.1v0.2h-0.1v0.2h-0.1v0.3h-0.1v0.2h-0.1v0.2h-0.1v0.3H289v0.2h-0.1v0.3
		h-0.1v0.2h-0.1v0.3h-0.1v0.3h-0.1v0.2h-0.1V18h-0.1v0.3h-0.1v0.2h-0.1v0.3H288v0.3h-0.1v0.3h-0.1v0.2h-0.1V20h-0.1v0.3h-0.1v0.3
		h-0.1V21h-0.1v0.3h-0.1v0.3H287v0.3h-0.1v0.3h-0.1v0.3h-0.1v0.3h-0.1v0.3h-0.1v0.3h-0.1v0.3h-0.1v0.3h-0.1v0.3h-0.1v0.3H286V25
		h-0.1v0.3h-0.1v0.3h-0.1v0.4h-0.1v0.3h-0.1v0.3h-0.1V27h-0.1v0.4h-0.1v0.3h-0.1v0.3h-0.1v0.4h-0.1v0.3h-0.1v0.3h-0.1v0.4h-0.1v0.3
		h-0.1v0.3h-0.1v0.4h-0.1v0.3h-0.1v0.4H284v0.3h-0.1V32h-0.1v0.3h-0.1v0.4h-0.1v0.3h-0.1v0.4h-0.1v0.3h-0.1v0.4h-0.1v0.4h-0.1V35
		H283v0.4h-0.1v0.4h-0.1v0.3h-0.1v0.4h-0.1v0.4h-0.1v0.4h-0.1v0.3h-0.1v0.4h-0.1v0.4H282v0.4h-0.1v0.4h-0.1v0.4h-0.1v0.3h-0.1v0.4
		h-0.1v0.4h-0.1v0.4h-0.1v0.4h-0.1v0.4h-0.1v0.4H281V43h-0.1v0.4h-0.1v0.4h-0.1v0.5h-0.1v0.4h-0.1v0.4h-0.1v0.4h-0.1V46h-0.1v0.4
		H280V47h-0.1v0.4h-0.1v0.4h-0.1v0.5h-0.1v0.4h-0.1v0.4h-0.1v0.5h-0.1v0.4h-0.1v0.5h-0.1V51H279v0.5h-0.1V52h-0.1v0.5h-0.1v0.4h-0.1
		v0.5h-0.1V54h-0.1v0.4h-0.1v0.5h-0.1v0.5h-0.1V56h-0.1v0.5h-0.1V57h-0.1v0.4h-0.1v0.5h-0.1v0.5h-0.1V59h-0.1v0.5h-0.1v0.6h-0.1v0.5
		H277v0.5h-0.1v0.5h-0.1v0.5h-0.1v0.5h-0.1v0.6h-0.1v0.5h-0.1v0.6h-0.1V65h-0.1v0.6h-0.1v0.5H276v0.6h-0.1v0.6h-0.1v0.6h-0.1v0.6
		h-0.1v0.6h-0.1V70h-0.1v0.6h-0.1v0.6h-0.1v0.6H275v0.6h-0.1v0.7h-0.1v0.6h-0.1v0.7h-0.1v0.6h-0.1v0.7h-0.1v0.7h-0.1v0.7h-0.1v0.7
		h-0.1v0.7H274v0.7h-0.1v0.8h-0.1v0.8h-0.1v0.8h-0.1v0.8h-0.1v0.7h-0.1v0.8h-0.1v0.9h-0.1v0.9H273v1h-0.1v0.9h-0.1v0.9h-0.1v1h-0.1
		v1.1h-0.1v1.1h-0.1v1h-0.1v1.5h-0.1v1.4h-0.1v1.4H272v1.7h-0.1v1.8h-0.1v2h-0.1v2.8h-0.1v4.7h-0.1v3.4h0.1v5.2h0.1v1.1h0.1v-0.2
		h0.1v-0.2h0.1v-0.1h0.1v-0.2h0.1v-0.2h0.1v-0.2h0.1v-0.1h0.1v-0.2h0.1V119h0.1v-0.1h0.1v-0.2h0.1v-0.2h0.1v-0.2h0.1v-0.1h0.1v-0.2
		h0.1v-0.1h0.1v-0.2h0.1v-0.2h0.1v-0.1h0.1v-0.2h0.1v-0.2h0.1v-0.1h0.1v-0.2h0.1v-0.2h0.1v-0.1h0.1V116h0.1v-0.1h0.1v-0.2h0.1v-0.2
		h0.1v-0.1h0.1v-0.2h0.1v-0.1h0.1v-0.2h0.1v-0.1h0.1v-0.2h0.1v-0.2h0.1v-0.1h0.1V114h0.1v-0.1h0.1v-0.2h0.1v-0.1h0.1v-0.2h0.1v-0.1
		h0.1v-0.2h0.1v-0.2h0.1v-0.1h0.1v-0.2h0.1v-0.1h0.1v-0.2h0.1v-0.1h0.1V112h0.1v-0.1h0.1v-0.2h0.1v-0.1h0.1v-0.2h0.1v-0.1h0.1V111
		h0.1v-0.1h0.1v-0.2h0.1v-0.1h0.1v-0.2h0.1v-0.1h0.1v-0.2h0.1V110h0.1v-0.2h0.1v-0.1h0.1v-0.2h0.1v-0.1h0.1v-0.1h0.1V109h0.1v-0.1
		h0.1v-0.2h0.1v-0.1h0.1v-0.2h0.1v-0.1h0.1v-0.2h0.1V108h0.1v-0.1h0.1v-0.2h0.1v-0.1h0.1v-0.2h0.1v-0.1h0.1V107h0.1v-0.1h0.1v-0.2
		h0.1v-0.1h0.1v-0.1h0.1v-0.2h0.1v-0.1h0.1V106h0.1v-0.1h0.1v-0.1h0.1v-0.2h0.1v-0.1h0.1v-0.2h0.1v-0.1h0.1v-0.1h0.1v-0.2h0.1v-0.1
		h0.1v-0.2h0.1v-0.1h0.1v-0.1h0.1v-0.2h0.1V104h0.1v-0.1h0.1v-0.2h0.1v-0.1h0.1v-0.2h0.1v-0.1h0.1v-0.1h0.1V103h0.1v-0.1h0.1v-0.1
		h0.1v-0.2h0.1v-0.1h0.1v-0.1h0.1v-0.2h0.1V102h0.1v-0.2h0.1v-0.1h0.1v-0.1h0.1v-0.2h0.1v-0.1h0.1v-0.1h0.1V101h0.1v-0.1h0.1v-0.1
		h0.1v-0.2h0.1v-0.1h0.1v-0.1h0.1v-0.2h0.1V100h0.1v-0.1h0.1v-0.2h0.1v-0.1h0.1v-0.1h0.1v-0.1h0.1v-0.2h0.1v-0.1h0.1V99h0.1v-0.2
		h0.1v-0.1h0.1v-0.1h0.1v-0.2h0.1v-0.1h0.1v-0.1h0.1V98h0.1v-0.1h0.1v-0.1h0.1v-0.2h0.1v-0.1h0.1v-0.1h0.1v-0.1h0.1V97h0.1v-0.1h0.1
		v-0.1h0.1v-0.1h0.1v-0.2h0.1v-0.1h0.1v-0.1h0.1v-0.2h0.1V96h0.1v-0.1h0.1v-0.1h0.1v-0.2h0.1v-0.1h0.1v-0.1h0.1v-0.2h0.1V95h0.1
		v-0.1h0.1v-0.1h0.1v-0.2h0.1v-0.1h0.1v-0.1h0.1v-0.1h0.1v-0.2h0.1V94h0.1v-0.1h0.1v-0.1h0.1v-0.2h0.1v-0.1h0.1v-0.1h0.1v-0.1h0.1
		V93h0.1v-0.1h0.1v-0.1h0.1v-0.1h0.1v-0.2h0.1v-0.1h0.1v-0.1h0.1v-0.1h0.1V92h0.1v-0.1h0.1v-0.1h0.1v-0.1h0.1v-0.2h0.1v-0.1h0.1
		v-0.1h0.1v-0.1h0.1v-0.1h0.1v-0.2h0.1v-0.1h0.1v-0.1h0.1v-0.1h0.1v-0.1h0.1v-0.2h0.1v-0.1h0.1V90h0.1v-0.1h0.1v-0.1h0.1v-0.2h0.1
		v-0.1h0.1v-0.1h0.1v-0.1h0.1v-0.1h0.1V89h0.1v-0.1h0.1v-0.1h0.1v-0.1h0.1v-0.2h0.1v-0.1h0.1v-0.1h0.1v-0.1h0.1V88h0.1v-0.2h0.1
		v-0.1h0.1v-0.1h0.1v-0.1h0.1v-0.1h0.1v-0.1h0.1v-0.2h0.1V87h0.1v-0.1h0.1v-0.1h0.1v-0.1h0.1v-0.1h0.1v-0.2h0.1v-0.1h0.1v-0.1h0.1
		V86h0.1v-0.1h0.1v-0.1h0.1v-0.2h0.1v-0.1h0.1v-0.1h0.1v-0.1h0.1v-0.1h0.1v-0.1h0.1v-0.2h0.1v-0.1h0.1v-0.1h0.1v-0.1h0.1v-0.1h0.1
		v-0.1h0.1v-0.2h0.1v-0.1h0.1V84h0.1v-0.1h0.1v-0.1h0.1v-0.1h0.1v-0.2h0.1v-0.1h0.1v-0.1h0.1v-0.1h0.1V83h0.1v-0.1h0.1v-0.1h0.1
		v-0.2h0.1v-0.1h0.1v-0.1h0.1v-0.1h0.1v-0.1h0.1v-0.1h0.1V82h0.1v-0.1h0.1v-0.2h0.1v-0.1h0.1v-0.1h0.1v-0.1h0.1v-0.1h0.1v-0.1h0.1
		V81h0.1v-0.1h0.1v-0.2h0.1v-0.1h0.1v-0.1h0.1v-0.1h0.1v-0.1h0.1v-0.1h0.1v-0.1h0.1v-0.2h0.1v-0.1h0.1v-0.1h0.1v-0.1h0.1v-0.1h0.1
		v-0.1h0.1v-0.1h0.1v-0.1h0.1V79h0.1v-0.1h0.1v-0.2h0.1v-0.1h0.1v-0.1h0.1v-0.1h0.1v-0.1h0.1v-0.1h0.1v-0.1h0.1V78h0.1v-0.1h0.1
		v-0.1h0.1v-0.1h0.1v-0.2h0.1v-0.1h0.1v-0.1h0.1v-0.1h0.1v-0.1h0.1V77h0.1v-0.1h0.1v-0.1h0.1v-0.1h0.1v-0.1h0.1v-0.1h0.1v-0.2h0.1
		v-0.1h0.1V76h0.1v-0.1h0.1v-0.1h0.1v-0.1h0.1v-0.1h0.1v-0.1h0.1v-0.1h0.1v-0.1h0.1v-0.1h0.1v-0.1h0.1V75h0.1v-0.2h0.1v-0.1h0.1
		v-0.1h0.1v-0.1h0.1v-0.1h0.1v-0.1h0.1v-0.1h0.1V74h0.1v-0.1h0.1v-0.1h0.1v-0.1h0.1v-0.1h0.1v-0.1h0.1v-0.1h0.1v-0.1h0.1v-0.1h0.1
		v-0.1h0.1v-0.2h0.1v-0.1h0.1v-0.1h0.1v-0.1h0.1v-0.1h0.1v-0.1h0.1v-0.1h0.1v-0.1h0.1V72h0.1v-0.1h0.1v-0.1h0.1v-0.1h0.1v-0.1h0.1
		v-0.1h0.1v-0.1h0.1v-0.1h0.1v-0.1h0.1v-0.1h0.1V71h0.1v-0.1h0.1v-0.1h0.1v-0.1h0.1v-0.2h0.1v-0.1h0.1v-0.1h0.1v-0.1h0.1v-0.1h0.1
		V70h0.1v-0.1h0.1v-0.1h0.1v-0.1h0.1v-0.1h0.1v-0.1h0.1v-0.1h0.1v-0.1h0.1v-0.1h0.1V69h0.1v-0.1h0.1v-0.1h0.1v-0.1h0.1v-0.1h0.1
		v-0.1h0.1v-0.1h0.1v-0.1h0.1v-0.1h0.1v-0.1h0.1V68h0.1v-0.1h0.1v-0.1h0.1v-0.1h0.1v-0.1h0.1v-0.1h0.1v-0.1h0.1v-0.1h0.1v-0.1h0.1
		V67h0.1v-0.1h0.1v-0.1h0.1v-0.1h0.1v-0.1h0.1v-0.1h0.1v-0.1h0.1v-0.1h0.1v-0.1h0.1v-0.1h0.1V66h0.1v-0.1h0.1v-0.1h0.1v-0.1h0.1
		v-0.1h0.1v-0.1h0.1v-0.1h0.1v-0.1h0.1v-0.1h0.1V65h0.1v-0.1h0.1v-0.1h0.1v-0.1h0.1v-0.1h0.1v-0.1h0.1v-0.1h0.1v-0.1h0.1v-0.1h0.1
		v-0.1h0.1V64h0.1v-0.1h0.1v-0.1h0.1v-0.1h0.1v-0.1h0.1v-0.1h0.1v-0.1h0.1v-0.1h0.1v-0.1h0.1v-0.1h0.1V63h0.1v-0.1h0.1v-0.1h0.1
		v-0.1h0.1v-0.1h0.1v-0.1h0.1v-0.1h0.1v-0.1h0.1v-0.1h0.1V62h0.2v-0.1h0.1v-0.1h0.1v-0.1h0.1v-0.1h0.1v-0.1h0.1v-0.1h0.1v-0.1h0.1
		v-0.1h0.1v-0.1h0.1V61h0.1v-0.1h0.1v-0.1h0.1v-0.1h0.1v-0.1h0.1v-0.1h0.1v-0.1h0.1v-0.1h0.1v-0.1h0.1V60h0.1v-0.1h0.1v-0.1h0.1
		v-0.1h0.1v-0.1h0.2v-0.1h0.1v-0.1h0.1v-0.1h0.1v-0.1h0.1v-0.1h0.1V59h0.1v-0.1h0.1v-0.1h0.1v-0.1h0.1v-0.1h0.1v-0.1h0.1v-0.1h0.1
		v-0.1h0.1v-0.1h0.1V58h0.1v-0.1h0.1v-0.1h0.2v-0.1h0.1v-0.1h0.1v-0.1h0.1v-0.1h0.1v-0.1h0.1v-0.1h0.1v-0.1h0.1V57h0.1v-0.1h0.1
		v-0.1h0.1v-0.1h0.1v-0.1h0.2v-0.1h0.1v-0.1h0.1v-0.1h0.1v-0.1h0.1v-0.1h0.1V56h0.1v-0.1h0.1v-0.1h0.1v-0.1h0.1v-0.1h0.1v-0.1h0.1
		v-0.1h0.1v-0.1h0.2v-0.1h0.1V55h0.1v-0.1h0.1v-0.1h0.1v-0.1h0.1v-0.1h0.1v-0.1h0.1v-0.1h0.1v-0.1h0.1v-0.1h0.1v-0.1h0.1V54h0.2
		v-0.1h0.1v-0.1h0.1v-0.1h0.1v-0.1h0.1v-0.1h0.1v-0.1h0.1v-0.1h0.1v-0.1h0.2V53h0.1v-0.1h0.1v-0.1h0.1v-0.1h0.1v-0.1h0.1v-0.1h0.1
		v-0.1h0.1v-0.1h0.1v-0.1h0.2v-0.1h0.1V52h0.1v-0.1h0.1v-0.1h0.1v-0.1h0.1v-0.1h0.1v-0.1h0.1v-0.1h0.2v-0.1h0.1v-0.1h0.1V51h0.1
		v-0.1h0.1v-0.1h0.1v-0.1h0.1v-0.1h0.1v-0.1h0.2v-0.1h0.1v-0.1h0.1v-0.1h0.1v-0.1h0.1V50h0.1v-0.1h0.1v-0.1h0.1v-0.1h0.2v-0.1h0.1
		v-0.1h0.1v-0.1h0.1v-0.1h0.1v-0.1h0.1v-0.1h0.1V49h0.2v-0.1h0.1v-0.1h0.1v-0.1h0.1v-0.1h0.1v-0.1h0.1v-0.1h0.1v-0.1h0.2v-0.1h0.1
		V48h0.1v-0.1h0.1v-0.1h0.1v-0.1h0.1v-0.1h0.2v-0.1h0.1v-0.1h0.1v-0.1h0.1v-0.1h0.1v-0.1h0.1V47h0.2v-0.1h0.1v-0.1h0.1v-0.1h0.1
		v-0.1h0.1v-0.1h0.1v-0.1h0.2v-0.1h0.1v-0.1h0.1V46h0.1v-0.1h0.1v-0.1h0.1v-0.1h0.2v-0.1h0.1v-0.1h0.1v-0.1h0.1v-0.1h0.1v-0.1h0.1
		v-0.1h0.2V45h0.1v-0.1h0.1v-0.1h0.1v-0.1h0.1v-0.1h0.1v-0.1h0.2v-0.1h0.1v-0.1h0.1v-0.1h0.1V44h0.1v-0.1h0.2v-0.1h0.1v-0.1h0.1
		v-0.1h0.1v-0.1h0.1v-0.1h0.2v-0.1h0.1v-0.1h0.1v-0.1h0.1V43h0.1v-0.1h0.2v-0.1h0.1v-0.1h0.1v-0.1h0.1v-0.1h0.2v-0.1h0.1v-0.1h0.1
		v-0.1h0.1v-0.1h0.1V42h0.2v-0.1h0.1v-0.1h0.1v-0.1h0.1v-0.1h0.1v-0.1h0.2v-0.1h0.1v-0.1h0.1v-0.1h0.1V41h0.1v-0.1h0.2v-0.1h0.1
		v-0.1h0.1v-0.1h0.1v-0.1h0.1v-0.1h0.2v-0.1h0.1v-0.1h0.1v-0.1h0.1V40h0.1v-0.1h0.2v-0.1h0.1v-0.1h0.1v-0.1h0.1v-0.1h0.2v-0.1h0.1
		v-0.1h0.1v-0.1h0.2V39h0.1v-0.1h0.1v-0.1h0.1v-0.1h0.2v-0.1h0.1v-0.1h0.1v-0.1h0.1v-0.1h0.2v-0.1h0.1v-0.1h0.1V38h0.1v-0.1h0.2
		v-0.1h0.1v-0.1h0.1v-0.1h0.1v-0.1h0.2v-0.1h0.1v-0.1h0.1v-0.1h0.1V37h0.2v-0.1h0.1v-0.1h0.1v-0.1h0.1v-0.1h0.2v-0.1h0.1v-0.1h0.1
		v-0.1h0.1v-0.1h0.2v-0.1h0.1V36h0.1v-0.1h0.1v-0.1h0.2v-0.1h0.1v-0.1h0.1v-0.1h0.1v-0.1h0.2v-0.1h0.1v-0.1h0.1v-0.1h0.1V35h0.2
		v-0.1h0.1v-0.1h0.1v-0.1h0.2v-0.1h0.1v-0.1h0.1v-0.1h0.2v-0.1h0.1v-0.1h0.1V34h0.2v-0.1h0.1v-0.1h0.1v-0.1h0.1v-0.1h0.2v-0.1h0.1
		v-0.1h0.1v-0.1h0.2v-0.1h0.1v-0.1h0.1V33h0.2v-0.1h0.1v-0.1h0.1v-0.1h0.1v-0.1h0.2v-0.1h0.1v-0.1h0.1v-0.1h0.2v-0.1h0.1V32h0.1
		v-0.1h0.2v-0.1h0.1v-0.1h0.1v-0.1h0.1v-0.1h0.2v-0.1h0.1v-0.1h0.1v-0.1h0.2v-0.1h0.1V31h0.1v-0.1h0.2v-0.1h0.1v-0.1h0.1v-0.1h0.2
		v-0.1h0.1v-0.1h0.1v-0.1h0.2v-0.1h0.1V30h0.1v-0.1h0.2v-0.1h0.1v-0.1h0.1v-0.1h0.2v-0.1h0.1v-0.1h0.1v-0.1h0.2v-0.1h0.1v-0.1h0.1
		V29h0.2v-0.1h0.1v-0.1h0.2v-0.1h0.1v-0.1h0.1v-0.1h0.2v-0.1h0.1v-0.1h0.1v-0.1h0.2v-0.1h0.1V28h0.1v-0.1h0.2v-0.1h0.1v-0.1h0.1
		v-0.1h0.2v-0.1h0.1v-0.1h0.2v-0.1h0.1v-0.1h0.1V27h0.2v-0.1h0.1v-0.1h0.1v-0.1h0.2v-0.1h0.1v-0.1h0.1v-0.1h0.2v-0.1h0.1v-0.1h0.1
		v-0.1h0.2V26h0.1v-0.1h0.1v-0.1h0.2v-0.1h0.1v-0.1h0.2v-0.1h0.1v-0.1h0.1v-0.1h0.2v-0.1h0.1V25h0.2v-0.1h0.1v-0.1h0.2v-0.1h0.1
		v-0.1h0.1v-0.1h0.2v-0.1h0.1v-0.1h0.2v-0.1h0.1v-0.1h0.1V24h0.2v-0.1h0.1v-0.1h0.2v-0.1h0.1v-0.1h0.1v-0.1h0.2v-0.1h0.1v-0.1h0.2
		v-0.1h0.1V23h0.2v-0.1h0.1v-0.1h0.1v-0.1h0.2v-0.1h0.1v-0.1h0.2v-0.1h0.1v-0.1h0.1v-0.1h0.2v-0.1h0.1V22h0.2v-0.1h0.1v-0.1h0.1
		v-0.1h0.2v-0.1h0.1v-0.1h0.2v-0.1h0.1v-0.1h0.2v-0.1h0.1v-0.1h0.1V21h0.2v-0.1h0.1v-0.1h0.2v-0.1h0.1v-0.1h0.2v-0.1h0.1v-0.1h0.2
		v-0.1h0.1v-0.1h0.1V20h0.2v-0.1h0.1v-0.1h0.2v-0.1h0.1v-0.1h0.2v-0.1h0.1v-0.1h0.2v-0.1h0.1v-0.1h0.2v-0.1h0.1V19h0.2v-0.1h0.1
		v-0.1h0.1v-0.1h0.2v-0.1h0.1v-0.1h0.2v-0.1h0.1v-0.1h0.2v-0.1h0.1V18h0.2v-0.1h0.1v-0.1h0.2v-0.1h0.1v-0.1h0.2v-0.1h0.1v-0.1h0.2
		v-0.1h0.1v-0.1h0.1v-0.1h0.2V17h0.2v-0.1h0.1v-0.1h0.2v-0.1h0.1v-0.1h0.2v-0.1h0.1v-0.1h0.2v-0.1h0.1v-0.1h2v0.1h2v0.1h2v0.1h2v0.1
		h1.9v0.1h2v0.1h2v0.1h2V17h1.9v0.1h2v0.1h2v0.1h2v0.1h1.9v0.1h2v0.1h2v0.1h2v0.1h1.9v0.1h2V18h2v0.1h2v0.1h1.9v0.1h2v0.1h2v0.1h2
		v0.1h2v0.1h1.9v0.1h2V19h2v0.1h2v0.1h2v0.1h2v0.1h1.9v0.1h2v0.1h2v0.1h2v0.1h2v0.1h2V20h1.9v0.1h2v0.1h2v0.1h2v0.1h2v0.1h2v0.1h2
		v0.1h2v0.1h1.9V21h2v0.1h2v0.1h2v0.1h2v0.1h2v0.1h2v0.1h2v0.1h2v0.1h2v0.1h2V22h2v0.1h2v0.1h2v0.1h2v0.1h2v0.1h2v0.1h2v0.1h2v0.1h2
		v0.1h2V23h2v0.1h2v0.1h2.1v0.1h2v0.1h2v0.1h2v0.1h2v0.1h2.1v0.1h2V24h2v0.1h2.1v0.1h2v0.1h1.5v0.1h-0.1v0.1h-0.1v0.1H532v0.1h-0.2
		v0.1h-0.1v0.1h-0.2V25h-0.1v0.1h-0.1v0.1H531v0.1h-0.1v0.1h-0.1v0.1h-0.2v0.1h-0.1v0.1h-0.2v0.1h-0.1V26h-0.1v0.1h-0.2v0.1h-0.1
		v0.1h-0.1v0.1h-0.1v0.1h-0.2v0.1h-0.1v0.1h-0.1v0.1H529v0.1h-0.1V27h-0.2v0.1h-0.1v0.1h-0.1v0.1h-0.1v0.1h-0.2v0.1h-0.1v0.1H528
		v0.1h-0.1v0.1h-0.1V28h-0.2v0.1h-0.1v0.1h-0.1v0.1h-0.1v0.1h-0.1v0.1H527v0.1h-0.1v0.1h-0.1v0.1h-0.2v0.1h-0.1V29h-0.1v0.1h-0.1
		v0.1h-0.1v0.1h-0.1v0.1H526v0.1h-0.1v0.1h-0.1v0.1h-0.1v0.1h-0.2v0.1h-0.1V30h-0.1v0.1h-0.1v0.1h-0.1v0.1H525v0.1h-0.1v0.1h-0.1
		v0.1h-0.1v0.1h-0.1v0.1h-0.1V31h-0.1v0.1h-0.1v0.1h-0.1v0.1H524v0.1h-0.1v0.1h-0.1v0.1h-0.1v0.1h-0.1v0.1h-0.1v0.1h-0.1V32h-0.1
		v0.1h-0.1v0.1h-0.1v0.1H523v0.1h-0.1v0.1h-0.1v0.2h-0.1v0.1h-0.1V33h-0.1v0.1h-0.1v0.1h-0.1v0.1h-0.1v0.1H522v0.1h-0.1v0.1h-0.1
		v0.1h-0.1v0.1h-0.1V34h-0.1v0.1h-0.1v0.1h-0.1v0.1h-0.1v0.1h-0.1v0.1H521v0.1h-0.1v0.1h-0.1v0.1h-0.1v0.2h-0.1v0.1h-0.1v0.1h-0.1
		v0.1h-0.1v0.1h-0.1v0.1H520v0.2h-0.1v0.1h-0.1V36h-0.1v0.1h-0.1v0.1h-0.1v0.2h-0.1v0.1h-0.1v0.1h-0.1v0.1h-0.1v0.1H519v0.1h-0.1
		v0.2h-0.1v0.1h-0.1v0.1h-0.1v0.1h-0.1v0.2h-0.1v0.1h-0.1v0.1h-0.1V38h-0.1v0.2H518v0.1h-0.1v0.1h-0.1v0.2h-0.1v0.1h-0.1v0.1h-0.1
		v0.1h-0.1v0.2h-0.1v0.1h-0.1v0.1H517v0.2h-0.1v0.1h-0.1v0.1h-0.1v0.1h-0.1v0.2h-0.1v0.1h-0.1v0.1h-0.1v0.2h-0.1v0.1h-0.1v0.1H516
		v0.2h-0.1V41h-0.1v0.2h-0.1v0.1h-0.1v0.1h-0.1v0.2h-0.1v0.1h-0.1v0.1h-0.1v0.2H515v0.1h-0.1v0.2h-0.1v0.1h-0.1v0.1h-0.1v0.2h-0.1
		v0.1h-0.1v0.2h-0.1v0.1h-0.1v0.1h-0.1v0.2H514v0.1h-0.1v0.2h-0.1v0.1h-0.1v0.2h-0.1v0.1h-0.1v0.2h-0.1v0.1h-0.1v0.2h-0.1v0.1H513
		v0.2h-0.1v0.1h-0.1v0.2h-0.1v0.1h-0.1v0.2h-0.1v0.1h-0.1v0.1h-0.1v0.2h-0.1v0.2h-0.1v0.1H512v0.2h-0.1v0.1h-0.1V47h-0.1v0.1h-0.1
		v0.2h-0.1v0.2h-0.1v0.1h-0.1v0.2h-0.1v0.1h-0.1v0.2H511v0.1h-0.1v0.2h-0.1v0.2h-0.1v0.1h-0.1V49h-0.1v0.1h-0.1v0.2h-0.1v0.1h-0.1
		v0.2H510v0.2h-0.1v0.1h-0.1v0.2h-0.1v0.2h-0.1v0.1h-0.1v0.2h-0.1v0.2h-0.1V51h-0.1v0.1h-0.1v0.2H509v0.2h-0.1v0.1h-0.1v0.2h-0.1
		v0.2h-0.1v0.1h-0.1v0.2h-0.1v0.2h-0.1v0.1h-0.1v0.2H508v0.2h-0.1v0.2h-0.1v0.1h-0.1v0.2h-0.1v0.2h-0.1v0.2h-0.1v0.1h-0.1v0.2h-0.1
		v0.2h-0.1v0.2H507v0.1h-0.1v0.2h-0.1v0.2h-0.1v0.2h-0.1v0.2h-0.1v0.1h-0.1v0.2h-0.1v0.2h-0.1v0.2H506v0.2h-0.1v0.2h-0.1V57h-0.1
		v0.2h-0.1v0.2h-0.1v0.2h-0.1v0.2h-0.1V58h-0.1v0.2h-0.1v0.2H505v0.1h-0.1v0.2h-0.1V59h-0.1v0.2h-0.1v0.2h-0.1v0.2h-0.1v0.2h-0.1V60
		h-0.1v0.2h-0.1v0.2H504v0.1h-0.1v0.2h-0.1V61h-0.1v0.2h-0.1v0.2h-0.1v0.2h-0.1v0.2h-0.1V62h-0.1v0.2H503v0.2h-0.1v0.2h-0.1v0.2
		h-0.1v0.2h-0.1v0.2h-0.1v0.2h-0.1v0.2h-0.1v0.2h-0.1v0.2h-0.1v0.2H502v0.3h-0.1v0.2h-0.1V65h-0.1v0.2h-0.1v0.2h-0.1v0.2h-0.1v0.2
		h-0.1v0.2h-0.1v0.2H501v0.2h-0.1v0.2h-0.1V67h-0.1v0.2h-0.1v0.2h-0.1v0.2h-0.1v0.2h-0.1v0.2h-0.1v0.2h-0.1v0.2H500v0.3h-0.1V69
		h-0.1v0.2h-0.1v0.2h-0.1v0.2h-0.1V70h-0.1v0.2h-0.1v0.2h-0.1v0.2H499v0.2h-0.1v0.3h-0.1v0.2h-0.1v0.2h-0.1v0.2h-0.1v0.2h-0.1v0.3
		h-0.1v0.2h-0.1v0.2h-0.1V73H498v0.2h-0.1v0.2h-0.1v0.3h-0.1v0.2h-0.1v0.2h-0.1v0.3h-0.1v0.2h-0.1v0.2h-0.1v0.3h-0.1v0.2H497v0.2
		h-0.1v0.2h-0.1v0.3h-0.1v0.2h-0.1v0.3h-0.1v0.2h-0.1v0.2h-0.1v0.3h-0.1v0.2H496v0.3h-0.1v0.2h-0.1v0.3h-0.1v0.2h-0.1v0.2h-0.1v0.3
		h-0.1v0.2h-0.1v0.3h-0.1v0.2h-0.1v0.3H495v0.2h-0.1v0.2h-0.1v0.3h-0.1v0.3h-0.1v0.2h-0.1v0.3h-0.1V82h-0.1v0.3h-0.1v0.2H494v0.3
		h-0.1V83h-0.1v0.3h-0.1v0.2h-0.1v0.3h-0.1v0.3h-0.1v0.2h-0.1v0.3h-0.1v0.2h-0.1v0.3H493v0.2h-0.1v0.3h-0.1V86h-0.1v0.2h-0.1v0.3
		h-0.1v0.3h-0.1v0.2h-0.1v0.3h-0.1v0.3H492v0.2h-0.1v0.3h-0.1v0.3h-0.1v0.2h-0.1v0.3h-0.1v0.3h-0.1v0.2h-0.1v0.3h-0.1v0.3h-0.1v0.3
		H491v0.2h-0.1v0.3h-0.1v0.3h-0.1v0.3h-0.1V92h-0.1v0.2h-0.1v0.3h-0.1v0.3h-0.1v0.3h-0.1v0.3h-0.1v0.2h-0.1V94h-0.1v0.3h-0.1v0.3
		h-0.1v0.3h-0.1v0.3h-0.1v0.3h-0.1v0.2h-0.1v0.3H489v0.3h-0.1v0.3h-0.1V97h-0.1v0.3h-0.1v0.3h-0.1V98h-0.1v0.3h-0.1v0.3h-0.1v0.3
		h-0.1v0.3H488v0.2h-0.1v0.4h-0.1v0.3h-0.1v0.3h-0.1v0.3h-0.1v0.3h-0.1v0.3h-0.1v0.3h-0.1v0.3H487v0.3h-0.1v0.3h-0.1v0.3h-0.1v0.3
		h-0.1v0.3h-0.1v0.3h-0.1v0.3h-0.1v0.3h-0.1v0.4h-0.1v0.3H486v0.3h-0.1v0.3h-0.1v0.3h-0.1v0.3h-0.1v0.4h-0.1v0.3h-0.1v0.3h-0.1v0.3
		h-0.1v0.3H485v0.4h-0.1v0.3h-0.1v0.3h-0.1v0.3h-0.1v0.3h-0.1v0.4h-0.1v0.3h-0.1v0.3h-0.1v0.4h-0.1v0.3H484v0.3h-0.1v0.4h-0.1v0.3
		h-0.1v0.3h-0.1v0.4h-0.1v0.3h-0.1v0.3h-0.1v0.4h-0.1v0.3h-0.1v0.3h-0.1v0.4h-0.1v0.3h-0.1v0.4h-0.1v0.3h-0.1v0.4h-0.1v0.3h-0.1v0.4
		h-0.1v0.3h-0.1v0.4H482v0.3h-0.1v0.4h-0.1v0.3h-0.1v0.4h-0.1v0.3h-0.1v0.4h-0.1v0.3h-0.1v0.4h-0.1v0.4h-0.1v0.3H481v0.4h-0.1v0.3
		h-0.1v0.4h-0.1v0.4h-0.1v0.3h-0.1v0.4h-0.1v0.4h-0.1v0.3h-0.1v0.4H480v0.4h-0.1v0.3h-0.1v0.4h-0.1v0.4h-0.1v0.4h-0.1v0.4h-0.1v0.3
		h-0.1v0.4h-0.1v0.4h-0.1v0.4H479v0.3h-0.1v0.4h-0.1v0.4h-0.1v0.4h-0.1v0.4h-0.1v0.4h-0.1v0.4h-0.1v0.4h-0.1v0.3H478v0.4h-0.1v0.4
		h-0.1v0.4h-0.1v0.4h-0.1v0.4h-0.1v0.4h-0.1v0.4h-0.1v0.4h-0.1v0.4h-0.1v0.4H477v0.4h-0.1v0.4h-0.1v0.4h-0.1v0.5h-0.1v0.4h-0.1v0.4
		h-0.1v0.4h-0.1v0.4h-0.1v0.4h-0.1v0.4h-0.1v0.4h-0.1v0.5h-0.1v0.4h-0.1v0.4h-0.1v0.4h-0.1v0.5h-0.1v0.4h-0.1v0.4h-0.1v0.5H475v0.4
		h-0.1v0.4h-0.1v0.4h-0.1v0.5h-0.1v0.4h-0.1v0.4h-0.1v0.5h-0.1v0.4h-0.1v0.5h-0.1v0.4H474v0.5h-0.1v0.4h-0.1v0.5h-0.1v0.4h-0.1v0.5
		h-0.1v0.4h-0.1v0.5h-0.1v0.4h-0.1v0.5H473v0.4h-0.1v0.5h-0.1v0.5h-0.1v0.4h-0.1v0.5h-0.1v0.5h-0.1v0.4h-0.1v0.5h-0.1v0.5h-0.1v0.5
		H472v0.4h-0.1v0.5h-0.1v0.5h-0.1v0.5h-0.1v0.5h-0.1v0.5h-0.1v0.4h-0.1v0.5h-0.1v0.5H471v0.5h-0.1v0.5h-0.1v0.5h-0.1v0.5h-0.1v0.5
		h-0.1v0.5h-0.1v0.5h-0.1v0.5h-0.1v0.5h-0.1v0.5H470v0.5h-0.1v0.6h-0.1v0.5h-0.1v0.5h-0.1v0.5h-0.1v0.5h-0.1v0.5h-0.1v0.6h-0.1v0.5
		h-0.1v0.5h-0.1v0.6h-0.1v0.5h-0.1v0.5h-0.1v0.6h-0.1v0.5h-0.1v0.5h-0.1v0.6h-0.1v0.5h-0.1v0.6H468v0.6h-0.1v0.5h-0.1v0.6h-0.1v0.5
		h-0.1v0.6h-0.1v0.6h-0.1v0.5h-0.1v0.6h-0.1v0.6h-0.1v0.5H467v0.6h-0.1v0.6h-0.1v0.6h-0.1v0.6h-0.1v0.6h-0.1v0.5h-0.1v0.6h-0.1v0.6
		h-0.1v0.6H466v0.6h-0.1v0.6h-0.1v0.7h-0.1v0.6h-0.1v0.6h-0.1v0.6h-0.1v0.6h-0.1v0.6h-0.1v0.6h-0.1v0.7H465v0.6h-0.1v0.7h-0.1v0.6
		h-0.1v0.6h-0.1v0.7h-0.1v0.6h-0.1v0.7h-0.1v0.6h-0.1v0.7H464v0.7h-0.1v0.6h-0.1v0.7h-0.1v0.7h-0.1v0.7h-0.1v0.6h-0.1v0.7h-0.1v0.7
		h-0.1v0.7h-0.1v0.7H463v0.7h-0.1v0.7h-0.1v0.7h-0.1v0.7h-0.1v0.7h-0.1v0.8h-0.1v0.7h-0.1v0.7h-0.1v0.8h-0.1v0.7h-0.1v0.8h-0.1v0.7
		h-0.1v0.8h-0.1v0.7h-0.1v0.8h-0.1v0.7h-0.1v0.8h-0.1v0.8h-0.1v0.8H461v0.8h-0.1v0.8h-0.1v0.8h-0.1v0.8h-0.1v0.8h-0.1v0.8h-0.1v0.9
		h-0.1v0.8h-0.1v0.9h-0.1v0.8H460v0.8h-0.1v0.9h-0.1v0.9h-0.1v0.9h-0.1v0.9h-0.1v0.9h-0.1v0.9h-0.1v0.9h-0.1v0.9H459v0.9h-0.1v1
		h-0.1v0.9h-0.1v1h-0.1v0.9h-0.1v1h-0.1v1h-0.1v1h-0.1v1h-0.1v1H458v1h-0.1v1h-0.1v1.1h-0.1v1.1h-0.1v1.1h-0.1v1.1h-0.1v1.1h-0.1
		v1.1h-0.1v1.1H457v1.3h-0.1v1.3h-0.1v1.1h-0.1v1.3h-0.1v1.3h-0.1v1.4h-0.1v1.4h-0.1v1.4h-0.1v1.3h-0.1v1.4H456v1.5h-0.1v1.6h-0.1
		v1.5h-0.1v1.5h-0.1v1.5h-0.1v1.7h-0.1v1.7h-0.1v1.6h-0.1v1.7h-0.1v1.9h-0.1v1.8h-0.1v1.9h-0.1v2h-0.1v2h-0.1v2.1h-0.1v2.2h-0.1v2.4
		h-0.1v2.4h-0.1v2.6H454v2.8h-0.1v2.9h-0.1v3.4h-0.1v3.9h-0.1v4.5h-0.1v6.1h-0.1V360h0.1v1.9"/>
	<path id="path44" class="st3" d="M112.9,267.9C127.7,106.8,216.7,37.5,216.7,37.5l0.9,0.2c-3,2.5-86.6,67.1-103.7,230.5
		L112.9,267.9"/>
	<path id="path46" class="st3" d="M453.1,362.5c-2.3-139.2,28.7-304,79.1-337.3l0.9,0.6c-50.4,33.4-81.1,197.9-78.8,337.2
		L453.1,362.5"/>
	<path id="path48" class="st3" d="M271.3,311.8c20.1-101.8,85.8-203.7,147.8-263l0.7,0c-62,59.3-127.5,161.4-147.7,263.2
		L271.3,311.8"/>
</g>
<g>
	<path id="path50" class="st4" d="M23.9,410.7c4.9-9.3,15.1-14.8,25.5-14.8c10.4,0,19,5.5,21.7,15.1c5.5-9.9,15.6-15.1,26.7-15.1
		c19,0,25.1,14.8,25.1,33.7v44.5h-20v-42.4c0-13.2-4.3-19.9-12.8-19.9c-9.5,0-16,9.1-16,24.5v37.8H54v-46.1
		c0-9.5-4.3-16.2-12.5-16.2c-9.2,0-16.3,9.6-16.3,23.7v38.6H5.4v-52.7c0-7.3-0.1-15.6-0.7-23.7h18.5c0.3,3.3,0.4,9.2,0.4,13.1H23.9"
		/>
	<path id="path54" class="st4" d="M183.9,412.3v-14.7h15v-16l18.7-6.4v22.4h18.2v14.7h-18.2v29.8c0,11.6,2.2,16.8,11.9,16.8
		c2.4,0,5-0.4,7.3-1.2l0.4,15.3c-3.7,1.3-8.6,1.9-13.6,1.9c-17.5,0-24.9-8.6-24.9-28.8v-33.8H183.9"/>
	<path id="path52" class="st4" d="M147.9,397.7h19.9v76.4h-19.9V397.7z M147.9,383.1v-19h19.9v19H147.9"/>
	<path id="path56" class="st4" d="M304,414c-3.6-1.5-7.1-2.4-12-2.4c-15,0-22.8,10.8-22.8,24.2c0,13.8,7.1,24,23.3,24
		c4.6,0,8.6-0.7,12.9-2.7l1,15.6c-5,1.6-9.6,2.4-16.2,2.4c-25.4,0-41.8-15.1-41.8-38.9c0-24.6,18.8-39.5,41.2-39.5
		c6.2,0,11.1,0.6,15.9,2.1L304,414"/>
	<path id="path58" class="st4" d="M345.5,392c0,6.7-0.3,13.9-0.4,18.5h0.3c5.5-8.8,13.6-14.7,24.6-14.7c20.3,0,27.9,13.2,27.9,33.8
		v44.4h-19.6v-36.8c0-14.5-1.2-25.5-14.2-25.5c-12.3,0-18.5,10.7-18.5,27.7v34.6h-19.6V361.9h19.6V392"/>
	<path id="path62" class="st4" d="M509.5,361.9h19.9v112.2h-19.9V361.9"/>
	<path id="path60" class="st4" d="M470.8,427.8c0-12.5-6.2-17.8-16-17.8c-8.8,0-16.5,5.9-17.5,17.8H470.8z M437.6,441.4
		c0.3,11.7,9.8,19.3,23.6,19.3c8.5,0,15.9-2.2,22.3-6.2l0.3,16.3c-6.5,3.1-15.3,5-24.9,5c-25.1,0-41.5-14.7-41.5-40.3
		c0-23,15.3-39.6,38.3-39.6c22.1,0,33.5,13.2,33.5,40.8c0,1.2-0.1,3.7-0.3,4.7H437.6"/>
	<path id="path64" class="st4" d="M555.5,361.9h19.9v112.2h-19.9V361.9"/>
</g>
</svg>
