<?xml version="1.0" encoding="utf-8"?>
<!-- Generator: Adobe Illustrator 22.1.0, SVG Export Plug-In . SVG Version: 6.00 Build 0)  -->
<svg version="1.1" id="Layer_1" xmlns="http://www.w3.org/2000/svg" xmlns:xlink="http://www.w3.org/1999/xlink" x="0px" y="0px"
	 viewBox="0 0 758.4 105.2" style="enable-background:new 0 0 758.4 105.2;" xml:space="preserve">
<style type="text/css">
	.st0{fill:#444444;}
</style>
<path class="st0" d="M14.7,15.8c0.4,0.8,1.2,1.2,2,1.2c5.8,0,28.2,0.1,32.1,0.2c4.5,0,15.4,4.5,15.4,16.7s-9.8,17.7-15.3,17.7
	c-4.4,0-12,0-15.1,0c-0.6,0-1,0.6-0.7,1.2l21.3,42.4c0.5,1,1.5,1.7,2.6,1.7h13c1.1,0,1.8-1.2,1.3-2.1l-15.8-31
	c0,0,22.3-5.8,21.9-29.6C77,10.6,56.6,3.9,49.6,3.9H10.5c-1,0-1.6,1.1-1.2,2L14.7,15.8z"/>
<path class="st0" d="M126.7,62.3l26.8-56.2c0.4-0.8,1.2-1.3,2.1-1.3H171c1.2,0,2,0.9,2,2V95c0,1.1-0.9,2-2,2h-11.3
	c-1.1,0-1.9-0.9-1.9-1.9v-59c0-0.1-0.2-0.2-0.2,0l-29.9,57.9c-0.6,1.2-2.3,1.2-2.9,0L81,6.8c-0.5-0.9,0.2-2,1.2-2h15
	c0.9,0,1.7,0.5,2.1,1.3l27.2,56.2C126.5,62.5,126.6,62.5,126.7,62.3z"/>
<path class="st0" d="M245.5,35.8l0.1,36c0,0.9-0.7,1.7-1.6,1.7h-4.5c-0.9,0-1.5-0.7-1.5-1.5V30.2c0-0.9,0.7-1.5,1.5-1.5h21.1
	c3.4,0,14.2,2.4,14.2,14c0,11.5-6.5,13-9.5,14c-0.1,0-0.1,0.1,0,0.2l10.4,14.7c0.5,0.6,0,1.5-0.8,1.5h-5.8c-1,0-1.9-0.5-2.5-1.3
	l-14-19.5c-0.3-0.3,0-0.8,0.4-0.8c1.6,0,4.7,0,5.8,0c1.5,0,9,0,8.9-7.6s-4.7-8.1-10.2-8.2c-5-0.1-10.7,0-11.6,0
	C245.5,35.7,245.5,35.8,245.5,35.8z"/>
<path class="st0" d="M291.9,29.1h4.6c0.9,0,1.6,0.7,1.6,1.6v41.2c0,0.9-0.7,1.6-1.6,1.6h-4.6c-0.9,0-1.6-0.7-1.6-1.6V30.7
	C290.3,29.8,291,29.1,291.9,29.1z"/>
<path class="st0" d="M333.4,28.6c-4.2,0-13.2,0-16.9,0c-1,0-1.7,0.8-1.7,1.7v41.8c0,1,0.8,1.8,1.8,1.8h4.2c0.9,0,1.5-0.7,1.5-1.5
	V61.1c0-0.2,0.2-0.4,0.4-0.4c1.3,0,5.4,0.1,9.4,0.1c4.9,0,17.7-1.2,17.9-15.2C350.2,31.5,338.8,28.7,333.4,28.6z M332.9,53h-10.2
	c-0.2,0-0.3-0.2-0.3-0.3v-17c0-0.2,0.2-0.4,0.4-0.4h9.8c2.6,0,9.4,0.4,9.5,8.9C342.1,52.6,336.3,53,332.9,53z"/>
<path class="st0" d="M381.7,28.6c-4.3,0-13.3,0-17.1,0c-0.9,0-1.6,0.7-1.6,1.6v42.3c0,0.8,0.6,1.5,1.5,1.5h4.7
	c0.8,0,1.5-0.6,1.5-1.5V61c0-0.2,0.1-0.3,0.3-0.3c1.1,0,5.4,0.1,9.6,0.1c4.9,0,17.7-1.2,17.9-15.2C398.5,31.5,387.1,28.7,381.7,28.6
	z M381.1,53h-10.2c-0.2,0-0.3-0.2-0.3-0.3v-17c0-0.2,0.1-0.3,0.3-0.3h9.9c2.6,0,9.4,0.4,9.5,8.9C390.3,52.6,384.5,53,381.1,53z"/>
<path class="st0" d="M419.6,65.9h18.6c0.9,0,1.5,0.7,1.5,1.5v4.1c0,0.9-0.7,1.5-1.5,1.5h-25.4c-0.6,0-1.1-0.5-1.1-1.1V30.1
	c0-0.9,0.7-1.5,1.5-1.5h4.6c0.9,0,1.5,0.7,1.5,1.5l-0.1,35.4C419.3,65.7,419.4,65.9,419.6,65.9z"/>
<path class="st0" d="M459.8,36.6v11.3c0,0.2,0.1,0.3,0.3,0.3h19.8c0.7,0,1.3,0.6,1.3,1.3v4.3c0,0.6-0.5,1.2-1.2,1.2h-19.9
	c-0.2,0-0.3,0.1-0.3,0.3v11.4c0,0.2,0.1,0.3,0.3,0.3h22.6c0.8,0,1.5,0.7,1.5,1.5v4.3c0,0.8-0.7,1.5-1.5,1.5h-29
	c-0.8,0-1.5-0.7-1.5-1.5V30.1c0-0.8,0.7-1.5,1.5-1.5h28c0.8,0,1.5,0.7,1.5,1.5l0,4.7c0,0.9-0.7,1.5-1.5,1.5h-21.7
	C459.9,36.3,459.8,36.4,459.8,36.6z"/>
<path class="st0" d="M506.1,39.7v32.2c0,0.9-0.7,1.6-1.6,1.6h-4.4c-0.9,0-1.6-0.7-1.6-1.6V30.2c0-0.9,0.7-1.6,1.6-1.6h8.8
	c0.4,0,0.8,0.2,1,0.6l13.3,27.3c0,0.1,0.3,0.1,0.3,0l12.7-26.1c0.4-0.9,1.3-1.4,2.3-1.4h8.1c0.9,0,1.6,0.7,1.6,1.6v41.2
	c0,0.9-0.7,1.6-1.6,1.6h-4.4c-0.9,0-1.6-0.7-1.6-1.6V39.6c0-0.2-0.3-0.3-0.4-0.1L526,67.6c-1.2,2.3-4.4,2.3-5.5,0l-14-28
	C506.4,39.4,506.1,39.5,506.1,39.7z"/>
<path class="st0" d="M583.1,38.4l15.4,33.4c0.5,1,1.5,1.7,2.6,1.7h4.8c0.6,0,1.1-0.7,0.8-1.3l-18.5-41.3c-0.5-1.2-1.7-1.9-3-1.9h-4
	c-1.3,0-2.5,0.8-3,2L560,72.2c-0.3,0.6,0.2,1.3,0.8,1.3h4.8c1.2,0,2.2-0.7,2.6-1.7l14.6-33.4C582.9,38.4,583.1,38.4,583.1,38.4z"/>
<path class="st0" d="M634.3,35.8h12.1c0.9,0,1.5-0.7,1.5-1.5v-4.2c0-0.9-0.7-1.5-1.5-1.5h-31.8c-0.9,0-1.5,0.7-1.5,1.5v4.2
	c0,0.9,0.7,1.5,1.5,1.5h11.6c0.1,0,0.3,0.1,0.3,0.3v36c0,0.9,0.7,1.5,1.5,1.5h4.6c0.9,0,1.5-0.7,1.5-1.5l-0.1-36
	C634.1,35.9,634.2,35.8,634.3,35.8z"/>
<path class="st0" d="M694.9,39l2.7-3.2c0.6-0.6,0.6-1.6,0-2.3c-2-2.1-7.4-6.3-17.2-6.3c-13,0-22.9,10.8-22.9,22.9
	c0,12.4,9.6,23.3,23.1,23.3c8.9,0,14.2-4.3,16.3-6.4c0.6-0.6,0.6-1.6,0-2.2l-2.2-2.6c-0.8-0.9-2.1-1-3-0.2
	c-1.9,1.8-5.6,4.4-10.7,4.4c-7.8,0-16.3-7.3-16.5-16.2s6.7-16,15.7-16.1c6.6-0.1,10.8,3.1,12.6,4.8C693.5,39.6,694.4,39.6,694.9,39z
	"/>
<path class="st0" d="M719.7,48.2h21.6c0.1,0,0.2-0.1,0.2-0.2V30.2c0-0.8,0.6-1.4,1.4-1.4h4.8c0.8,0,1.4,0.6,1.4,1.4v41.3
	c0,0.8-0.6,1.4-1.4,1.4H743c-0.8,0-1.4-0.6-1.4-1.4v-16c0-0.1-0.1-0.2-0.2-0.2h-21.6c-0.1,0-0.2,0.1-0.2,0.2v16.6
	c0,0.8-0.6,1.4-1.4,1.4h-4.9c-0.8,0-1.4-0.6-1.4-1.4V30.2c0-0.8,0.6-1.4,1.4-1.4h4.9c0.8,0,1.4,0.6,1.4,1.4V48
	C719.5,48.1,719.6,48.2,719.7,48.2z"/>
</svg>
