<?xml version="1.0" encoding="utf-8"?>
<!-- Generator: Adobe Illustrator 22.1.0, SVG Export Plug-In . SVG Version: 6.00 Build 0)  -->
<svg version="1.1" id="Layer_1" xmlns="http://www.w3.org/2000/svg" xmlns:xlink="http://www.w3.org/1999/xlink" x="0px" y="0px"
	 viewBox="0 0 782.8 193" style="enable-background:new 0 0 782.8 193;" xml:space="preserve">
<style type="text/css">
	.st0{fill:#FF9E18;}
	.st1{fill:#898A8D;}
</style>
<g>
	<g>
		<path class="st0" d="M630.6,31.3h-28.8l-48.9,97.5l-48.6-97.5h-28.3c30.5,61.1,77.2,154.4,77.2,154.4L630.6,31.3z"/>
		<path class="st0" d="M407.5,155.9c-23.9,0-44-16.4-49.4-38.6H483v-12.2c0-41.5-33.7-75.3-75.5-75.3c-41.5,0-75.5,33.7-75.5,75.3
			s33.7,75.3,75.5,75.3c28.6,0,54-15.9,66.7-40.3h-29.8C435.1,150,421.9,155.9,407.5,155.9 M407.5,54.2c23.9,0,44,16.4,49.4,38.6
			h-98.7C363.5,70.6,383.8,54.2,407.5,54.2"/>
		<path class="st0" d="M774,105.6c0-0.2,0-0.5,0-0.7V31.5h-24.4v18.6c-13.4-12.2-31.3-19.8-50.8-19.8c-41.5,0-75.5,33.7-75.5,75.5
			c0,41.5,33.7,75.3,75.5,75.3c19.5,0,37.4-7.6,50.8-19.8v18.8H774v-73.3C773.8,106.3,774,106,774,105.6 M698.5,156.6
			c-28.1,0-50.8-22.7-50.8-50.8S670.4,55,698.5,55c27.9,0,50.3,22.5,50.8,50.1v1.7C748.8,134.1,726.4,156.6,698.5,156.6"/>
		<path class="st0" d="M240.2,155.9c-23.9,0-44-16.4-49.4-38.6h124.8v-12.2c0-41.5-33.7-75.3-75.5-75.3c-41.5,0-75.5,33.7-75.5,75.3
			s33.7,75.3,75.5,75.3c28.6,0,54-15.9,66.7-40.3H277C267.8,150,254.6,155.9,240.2,155.9 M240.2,54.2c23.9,0,44,16.4,49.4,38.6
			h-98.7C196.4,70.6,216.5,54.2,240.2,54.2"/>
	</g>
	<polygon class="st0" points="7.8,8.3 38.1,8.3 95.8,124.1 152.9,8.3 182.5,8.3 95.3,185.4 	"/>
	<path class="st1" d="M55.9,8.6l39.3,78.7l39.3-78.7H55.9z"/>
</g>
</svg>
