<?xml version="1.0" encoding="iso-8859-1"?>
<!-- Generator: Adobe Illustrator 19.0.0, SVG Export Plug-In . SVG Version: 6.00 Build 0)  -->
<svg xmlns="http://www.w3.org/2000/svg" xmlns:xlink="http://www.w3.org/1999/xlink" version="1.1" id="Capa_1" x="0px" y="0px" viewBox="0 0 448 448" style="enable-background:new 0 0 448 448;" xml:space="preserve" width="512px" height="512px">
<g>
	<g>
		<path d="M416,96h-96V48c0-8.832-7.168-16-16-16H144c-8.832,0-16,7.168-16,16v48H32c-17.664,0-32,14.368-32,32v256    c0,17.632,14.336,32,32,32h384c17.664,0,32-14.368,32-32V128C448,110.368,433.664,96,416,96z M160,64h128v32H160V64z M416,400v-16    H32V128h384v256h0.032L416,400z" fill="#FFFFFF"/>
	</g>
</g>
<g>
</g>
<g>
</g>
<g>
</g>
<g>
</g>
<g>
</g>
<g>
</g>
<g>
</g>
<g>
</g>
<g>
</g>
<g>
</g>
<g>
</g>
<g>
</g>
<g>
</g>
<g>
</g>
<g>
</g>
</svg>
