<?xml version="1.0" encoding="utf-8"?>
<!-- Generator: Adobe Illustrator 22.1.0, SVG Export Plug-In . SVG Version: 6.00 Build 0)  -->
<svg version="1.1" id="Layer_1" xmlns="http://www.w3.org/2000/svg" xmlns:xlink="http://www.w3.org/1999/xlink" x="0px" y="0px"
	 viewBox="0 0 320 390" style="enable-background:new 0 0 320 390;" xml:space="preserve">
<style type="text/css">
	.st0{fill:#FFFFFF;}
	.st1{fill:url(#Bg_1_);}
	.st2{opacity:0.5;}
	.st3{opacity:0.5;fill:#80D8FF;enable-background:new    ;}
	.st4{opacity:0.4;fill:url(#Vector_2_1_);enable-background:new    ;}
	.st5{opacity:0.3;fill:#80D8FF;enable-background:new    ;}
	.st6{opacity:0.75;fill:#80D8FF;enable-background:new    ;}
	.st7{opacity:0.4;fill:#80D8FF;enable-background:new    ;}
	.st8{opacity:0.8;fill:#80D8FF;enable-background:new    ;}
	.st9{opacity:0.1;fill:#80D8FF;enable-background:new    ;}
	.st10{opacity:0.6;fill:#80D8FF;enable-background:new    ;}
	.st11{opacity:0.2;fill:#80D8FF;enable-background:new    ;}
	.st12{opacity:5.000000e-02;fill:#80D8FF;enable-background:new    ;}
	.st13{fill:#5B2D00;}
	.st14{fill:#3F1900;}
	.st15{fill:#632A00;}
	.st16{fill:#713C00;}
	.st17{fill:#006633;}
	.st18{fill:url(#Vector_120_1_);}
	.st19{fill:url(#Vector_121_1_);}
	.st20{fill:#00BD00;}
	.st21{fill:url(#Vector_123_1_);}
	.st22{fill:url(#Vector_124_1_);}
	.st23{fill:url(#Vector_125_1_);}
	.st24{fill:url(#Vector_126_1_);}
	.st25{fill:url(#Vector_127_1_);}
	.st26{fill:#7A2222;}
	.st27{fill:#932927;}
	.st28{opacity:0.4;fill:url(#Vector_130_1_);enable-background:new    ;}
	.st29{opacity:0.4;fill:url(#Vector_131_1_);enable-background:new    ;}
	.st30{opacity:0.4;fill:url(#Vector_132_1_);enable-background:new    ;}
	.st31{opacity:0.4;fill:url(#Vector_133_1_);enable-background:new    ;}
	.st32{opacity:0.4;fill:url(#Vector_134_1_);enable-background:new    ;}
	.st33{fill:#4F290D;}
	.st34{fill:#CC6F28;}
	.st35{fill:#123177;}
	.st36{fill:#303030;}
	.st37{fill:#262626;}
	.st38{fill:#C19874;}
	.st39{fill:#244F9B;}
	.st40{fill:#E5B789;}
	.st41{fill:#152B51;}
	.st42{fill:#CECECE;}
	.st43{fill:#66CCCC;}
	.st44{fill:#183054;}
	.st45{fill:#A87343;}
	.st46{fill:#1FA046;}
	.st47{fill:#A08D80;}
	.st48{fill:#C4C5C6;}
	.st49{fill:#20396E;}
	.st50{fill:#E2D6CF;}
	.st51{fill:#1C0F0A;}
	.st52{fill:#915E39;}
	.st53{fill:#663333;}
	.st54{fill:#B7A497;}
	.st55{fill:#1D264F;}
	.st56{fill:#2D4891;}
	.st57{fill:#333399;}
	.st58{fill:#5FFBFF;}
	.st59{fill:#58BDF4;}
	.st60{fill:#56E8E4;}
	.st61{fill:#33D1A0;}
	.st62{opacity:0.5;fill:#FFFFFF;enable-background:new    ;}
	.st63{fill:#602626;}
	.st64{fill:#774444;}
	.st65{fill:#141414;}
	.st66{fill:#444444;}
	.st67{fill:#0AE20F;}
	.st68{fill:#C42A2A;}
	.st69{fill:#FFE05F;}
	.st70{fill:#81D35B;}
	.st71{fill-opacity:0.1;}
	.st72{fill:#FFFFFF;filter:url(#Adobe_OpacityMaskFilter);}
	.st73{mask:url(#mask0_1_);}
</style>
<g id="Event_Card">
	<g id="Rectangle_6">
		<path class="st0" d="M40.2,1.3h240c21,0,38,17,38,38v311c0,21-17,38-38,38h-240c-21,0-38-17-38-38v-311
			C2.2,18.3,19.2,1.3,40.2,1.3z"/>
	</g>
	<g id="Object">
		
			<linearGradient id="Bg_1_" gradientUnits="userSpaceOnUse" x1="-43.0107" y1="86.4851" x2="363.4572" y2="305.8721" gradientTransform="matrix(1 0 0 -1 0 391)">
			<stop  offset="0" style="stop-color:#2F5F8E"/>
			<stop  offset="0.9948" style="stop-color:#3399FF"/>
		</linearGradient>
		<path id="Bg" class="st1" d="M40.2,1.3h240c21,0,38,17,38,38v311c0,21-17,38-38,38h-240c-21,0-38-17-38-38v-311
			C2.2,18.3,19.2,1.3,40.2,1.3z"/>
		<g id="decaf2019_hero">
			<g id="deco">
				<g id="foundation_glow" class="st2">
					<path id="Vector" class="st3" d="M163.1,367.1c57.1,0,103.3-23,103.3-51.3c0-28.3-46.3-51.3-103.3-51.3
						c-57.1,0-103.3,23-103.3,51.3C59.8,344.1,106.1,367.1,163.1,367.1z"/>
					
						<linearGradient id="Vector_2_1_" gradientUnits="userSpaceOnUse" x1="160.8097" y1="355.2733" x2="160.8097" y2="24.0295" gradientTransform="matrix(1 0 0 -1 0 391)">
						<stop  offset="0" style="stop-color:#FFFFFF;stop-opacity:1.000000e-02"/>
						<stop  offset="0.1505" style="stop-color:#FFFFF7;stop-opacity:0.159"/>
						<stop  offset="0.3835" style="stop-color:#FFFFE1;stop-opacity:0.3897"/>
						<stop  offset="0.6699" style="stop-color:#FFFFBE;stop-opacity:0.6732"/>
						<stop  offset="0.9961" style="stop-color:#FFFF8D;stop-opacity:0.9961"/>
						<stop  offset="1" style="stop-color:#FFFF8C"/>
					</linearGradient>
					<path id="Vector_2" class="st4" d="M41.6,35.7l17.6,280.2c0,0-1.5,22.1,32.4,37.2c15.4,6.9,38.4,13.8,71.8,13.8
						c33.4,0,57.7-8.3,72.9-15.1C269.8,336.8,266,316,266,316l14-280.2L41.6,35.7z"/>
				</g>
				<g id="rectangles" class="st2">
					<path id="Vector_3" class="st5" d="M68.2,207.1h-6.8v27.8h6.8V207.1z"/>
					<path id="Vector_4" class="st5" d="M73.1,236.8h-3.1v21.7h3.1V236.8z"/>
					<path id="Vector_5" class="st3" d="M43.5,251.6h-1.9V269h1.9V251.6z"/>
					<path id="Vector_6" class="st3" d="M58.9,225h-7.4v26.6h7.4V225z"/>
					<path id="Vector_7" class="st3" d="M49.1,244.8h-3.7v18.6h3.7V244.8z"/>
					<path id="Vector_8" class="st3" d="M43.5,231.2h-1.2v16.1h1.2V231.2z"/>
					<path id="Vector_9" class="st5" d="M246.2,23.4h-6.9v29.1h6.9V23.4z"/>
					<path id="Vector_10" class="st3" d="M252.6,38.2h-3v22.9h3V38.2z"/>
					<path id="Vector_11" class="st3" d="M264.4,30.2H256v26h8.3V30.2z"/>
					<path id="Vector_12" class="st3" d="M266.6,41.9h-0.7v19.2h0.7V41.9z"/>
					<path id="Vector_13" class="st3" d="M271.9,46.9h-3v20.4h3V46.9z"/>
					<path id="Vector_14" class="st5" d="M237.4,219.5h-4.3v20.4h4.3V219.5z"/>
					<path id="Vector_15" class="st5" d="M242.4,223.2h-2.5v23.5h2.5V223.2z"/>
					<path id="Vector_16" class="st6" d="M256,217h-9.9v22.9h9.9V217z"/>
					<path id="Vector_17" class="st6" d="M265.8,224.4h-8v23.5h8V224.4z"/>
					<path id="Vector_18" class="st3" d="M272,212.7h-3.1V243h3.1V212.7z"/>
					<path id="Vector_19" class="st3" d="M276.5,232.5h-1.6v22.3h1.6V232.5z"/>
					<path id="Vector_20" class="st3" d="M276.6,207.1H276v22.3h0.6V207.1z"/>
					<path id="Vector_21" class="st3" d="M83.6,139h-5.6v29.1h5.6V139z"/>
					<path id="Vector_22" class="st3" d="M75.2,134.7h-2.4v22.9h2.4V134.7z"/>
					<path id="Vector_23" class="st7" d="M70.1,136h-6.8v26h6.8V136z"/>
					<path id="Vector_24" class="st7" d="M61.4,130.4h-0.6v19.2h0.6V130.4z"/>
					<path id="Vector_25" class="st8" d="M58.9,122.3h-2.5v20.4h2.5V122.3z"/>
					<path id="Vector_26" class="st3" d="M91.7,149.6h-6.2v30.9h6.2V149.6z"/>
					<path id="Vector_27" class="st7" d="M66.3,106.9h-5.6v18.6h5.6V106.9z"/>
					<path id="Vector_28" class="st3" d="M267.7,62.9h-6.8v24.7h6.8V62.9z"/>
					<path id="Vector_29" class="st3" d="M276.3,82.1H272v20.4h4.3V82.1z"/>
					<path id="Vector_30" class="st3" d="M55.2,260.3h-3.7v19.8h3.7V260.3z"/>
					<path id="Vector_31" class="st3" d="M64.5,267.1h-5.6v24.7h5.6V267.1z"/>
					<path id="Vector_32" class="st3" d="M264,252.9h-4.3v30.3h4.3V252.9z"/>
					<path id="Vector_33" class="st3" d="M272,250.4h-3.1v17.9h3.1V250.4z"/>
					<path id="Vector_34" class="st3" d="M268.9,250.4h-3.1v17.9h3.1V250.4z"/>
					<path id="Vector_35" class="st5" d="M91.7,183h-5.6v29.1h5.6V183z"/>
					<path id="Vector_36" class="st3" d="M80.6,216.4H75v30.3h5.6V216.4z"/>
					<path id="Vector_37" class="st3" d="M88,196h-3.1v22.3H88V196z"/>
					<path id="Vector_38" class="st3" d="M88,229.4h-3.1v14.2H88V229.4z"/>
					<path id="Vector_39" class="st5" d="M98.5,202.8h-6.8v19.8h6.8V202.8z"/>
					<path id="Vector_40" class="st9" d="M104,225.7h-6.8v33.4h6.8V225.7z"/>
					<path id="Vector_41" class="st3" d="M267.7,98.2H259v21.7h8.6V98.2z"/>
					<path id="Vector_42" class="st3" d="M256,110.6H251v19.2h4.9V110.6z"/>
					<path id="Vector_43" class="st3" d="M248.5,125.4h-4.3v16.7h4.3V125.4z"/>
					<path id="Vector_44" class="st3" d="M255.3,135.3h-3.1V152h3.1V135.3z"/>
					<path id="Vector_45" class="st7" d="M70.7,62.3H60.2v34h10.5V62.3z"/>
					<path id="Vector_46" class="st7" d="M78.7,79h-4.3v27.2h4.3V79z"/>
					<path id="Vector_47" class="st10" d="M80.6,47.5h-6.2V71h6.2V47.5z"/>
					<path id="Vector_48" class="st3" d="M249.8,146.5H243v16.7h6.8V146.5z"/>
					<path id="Vector_49" class="st3" d="M235.6,168.1h-4.9v17.9h4.9V168.1z"/>
					<path id="Vector_50" class="st10" d="M205.9,189.2h-6.8V217h6.8V189.2z"/>
					<path id="Vector_51" class="st3" d="M214,212.1h-5.6v13.6h5.6V212.1z"/>
					<path id="Vector_52" class="st3" d="M226.9,207.1h-4.3v13.6h4.3V207.1z"/>
					<path id="Vector_53" class="st7" d="M49.1,101.9h-7.4v15.5h7.4V101.9z"/>
					<path id="Vector_54" class="st3" d="M115.8,216.4h-4.9v23.5h4.9V216.4z"/>
					<path id="Vector_55" class="st3" d="M133,220.7h-3.7v14.2h3.7V220.7z"/>
					<path id="Vector_56" class="st3" d="M123.2,209.6h-4.3V225h4.3V209.6z"/>
					<path id="Vector_57" class="st5" d="M124.4,234.3h-3.7v13.6h3.7V234.3z"/>
					<path id="Vector_58" class="st5" d="M160.8,193.5h-4.9v18.6h4.9V193.5z"/>
					<path id="Vector_59" class="st3" d="M146,209h-3.1v13.6h3.1V209z"/>
					<path id="Vector_60" class="st3" d="M184.9,203.4h-4.3v14.8h4.3V203.4z"/>
					<path id="Vector_61" class="st3" d="M194.2,210.2h-1.9v15.5h1.9V210.2z"/>
					<path id="Vector_62" class="st8" d="M175,215.8h-4.3V230h4.3V215.8z"/>
					<path id="Vector_63" class="st11" d="M90.7,43.3h-6.1v32.5h6.1V43.3z"/>
					<path id="Vector_64" class="st9" d="M98.2,39.4h-3.6v24.1h3.6V39.4z"/>
					<path id="Vector_65" class="st11" d="M236.9,30.2h-6.9v29.1h6.9V30.2z"/>
					<path id="Vector_66" class="st9" d="M226.5,24.7h-3.3v21.5h3.3V24.7z"/>
					<path id="Vector_67" class="st12" d="M104.9,44.4h-3.6v24.1h3.6V44.4z"/>
				</g>
			</g>
			<g id="coffee">
				<g id="XMLID_98">
					<g id="Group">
						<path id="Vector_68" class="st13" d="M132.6,278.7c0.4,1.9,0.2,4.1-1.3,5.4c-2.7,2.2-8.2,0.6-10.8-1.1c-0.8-0.5-1.5-1.1-2-1.9
							c-0.7-1.1-0.7-2.5-0.2-3.7c1.2-2.8,4.8-3,7.5-3.3c1.6-0.2,3.3-0.1,4.7,0.8C131.6,275.8,132.2,277.3,132.6,278.7z"/>
					</g>
				</g>
				<g id="XMLID_97">
					<g id="Group_2">
						<path id="Vector_69" class="st14" d="M211.1,285.8c-0.1,2-2.2,4.5-4.4,4.8c-2.3,0.3-5.6-1.5-7.2-3c-0.4-0.4-0.7-0.7-0.9-1.2
							c-0.1-0.6,0.1-1.1,0.2-1.6c0.2-0.4,0.3-0.9,0.5-1.4c0.7-2,6.1-1.6,8-1.2c1.1,0.2,2.1,0.6,2.8,1.2
							C210.8,284.1,211.1,284.9,211.1,285.8z"/>
					</g>
				</g>
				<g id="XMLID_96">
					<g id="Group_3">
						<path id="Vector_70" class="st14" d="M124.2,281c0.7,0.9,0.3,2.1-0.7,2.9c-1,0.8-2.3,1.2-3.8,1.6c-1.4,0.3-2.8,0.6-4.3,0.4
							c-1.1-0.1-4.1-1.1-4.3-1.7c-0.7-3,4.6-4.4,7.9-4.5C121.1,279.6,123.4,279.9,124.2,281z"/>
					</g>
				</g>
				<g id="XMLID_95">
					<g id="Group_4">
						<path id="Vector_71" class="st14" d="M129.2,280.4c0.6,0.4,1,0.9,1.3,1.6c-1.9-0.4-3.7-0.9-5.4-1.6c-1.6-0.7-3.6-1.7-4.2-3.5
							l0.2-0.1c0.6,0.1,1.1,0.1,1.6,0.2c0.4,0.1,0.9,0.1,1.4,0.2c0.7,0.2,1.4,0.6,2.1,1.1C127.1,278.9,128.2,279.6,129.2,280.4z"/>
					</g>
				</g>
				<g id="Layer_15">
					<g id="XMLID_106">
						<g id="Group_5">
							<path id="Vector_72" class="st13" d="M115.8,283.9c1,2,0.2,4.5-1.5,6c-1.6,1.5-3.9,2.1-6.1,2.5c-1.7,0.3-3.5,0.4-5.2,0.1
								c-1.7-0.3-3.4-1.2-4.4-2.6c-3.7-5.1,1.3-9.5,6.2-9.7C108.3,280,113.9,280.4,115.8,283.9z"/>
						</g>
					</g>
					<g id="XMLID_105">
						<g id="Group_6">
							<path id="Vector_73" class="st14" d="M109,284.5c1.2,0,4.3,0,5.1,0.9c-2.2,1.4-6.3,2.5-8.8,2.8c-0.5,0.1-1,0.1-1.5,0.1
								c-0.9-0.2-4.1-1.2-4.6-1.9C101.7,285,106.1,284.4,109,284.5z"/>
						</g>
					</g>
				</g>
				<g id="XMLID_94">
					<g id="Group_7">
						<path id="Vector_74" class="st13" d="M140.8,288.3c0.4,1.9-0.9,4.8-2.8,5.7c-2,0.9-5.2-0.1-6.9-1.1c-0.4-0.2-0.8-0.6-1-1
							c-0.2-0.5-0.2-1.1-0.2-1.7c0.1-0.5,0.1-1,0.1-1.5c0.2-2.2,4.9-3,6.6-3.1c0.9-0.1,2,0,2.8,0.5
							C140.2,286.6,140.6,287.5,140.8,288.3z"/>
					</g>
				</g>
				<g id="XMLID_93">
					<g id="Group_8">
						<path id="Vector_75" class="st15" d="M142.8,277.5c0.9,1.2,1.1,3.2,0.6,4.8c-0.6,1.5-1.7,2.7-2.9,3.3c-1.2,0.6-2.7,0.7-4,0.6
							c-1.1-0.1-2.3-0.4-3.2-1.2c-2.3-2.1-1.4-6,0.9-7.4c1.5-1,3.3-1.5,5.1-1.5C140.5,276,141.9,276.3,142.8,277.5z"/>
					</g>
				</g>
				<g id="XMLID_92">
					<g id="Group_9">
						<path id="Vector_76" class="st14" d="M117.4,294.6c0.4,5.5-7.3,8.4-11.4,5c-0.8-0.6-1.3-1.5-1.6-2.5c-0.5-1.5-0.6-3.2,0.1-4.6
							c0.7-1.5,2.3-2.4,3.8-2.8c2-0.7,4.2-0.4,6.1,0.5c0.6,0.2,1.2,0.6,1.6,1.1C117,292,117.4,293.3,117.4,294.6z"/>
					</g>
				</g>
				<g id="XMLID_91">
					<g id="Group_10">
						<path id="Vector_77" class="st14" d="M129.4,296.4c1.9-0.1,3,1.9,2.7,3.5c-0.2,1.3-1.1,2.5-2.2,3.2c-1.7,1.2-4,1.5-6,0.7
							c-1.1-0.4-1.5-0.7-1.6-1.9c-0.1-1.1,0.2-2.2,0.9-3c0.3-0.3,0.6-0.6,1-0.8C125.6,297.3,127.8,296.5,129.4,296.4z"/>
					</g>
				</g>
				<g id="XMLID_90">
					<g id="Group_11">
						<path id="Vector_78" class="st13" d="M102.3,304.1c0.9,0.7,1.8,1.9,1.7,3.1c-0.4,3.8-7.3,3.5-9.6,2.3
							c-2.9-1.6-5.2-5.6-1.1-7.1C96.1,301.5,100.1,302.3,102.3,304.1z"/>
					</g>
				</g>
				<g id="XMLID_89">
					<g id="Group_12">
						<path id="Vector_79" class="st13" d="M90.1,310.7c2.3,1,3.1,3.6,0.8,5c-1.2,0.7-2.7,1.2-4.1,1.2c-1.7,0.1-4.3-1.5-3.6-3.6
							c0.2-0.7,0.8-1.2,1.4-1.7C86.1,310.7,88.5,310,90.1,310.7z"/>
					</g>
				</g>
				<g id="XMLID_88">
					<g id="Group_13">
						<path id="Vector_80" class="st13" d="M102.3,314.2c0.1,0.5,0.1,1-0.1,1.5c-0.4,0.9-1.4,1.3-2.3,1.5c-2.8,0.7-5.3,0.9-7.1-1.9
							c-1.4-2.2-0.6-4.3,1.9-5c2.2-0.6,4.8-0.7,6.4,0.9C101.8,312,102.2,313.1,102.3,314.2z"/>
					</g>
				</g>
				<g id="XMLID_87">
					<g id="Group_14">
						<path id="Vector_81" class="st13" d="M106.6,294.3c0.7,1.5-0.1,3.5-1.4,4.5c-1.4,1.1-3.2,1.3-4.9,1.4c-2.5,0.1-8.1-1.9-5-5.4
							c1.4-1.5,4.3-2.5,6.3-2.6c0.9-0.1,1.9,0,2.8,0.3C105.3,292.8,106.1,293.4,106.6,294.3z"/>
					</g>
				</g>
				<g id="XMLID_86">
					<g id="Group_15">
						<path id="Vector_82" class="st14" d="M102,306.9c-1.2,0-2.4,0-3.6,0c-0.9,0-1.8,0-2.6-0.3c-1.3-0.5-1.9-1.5-3-2.2
							c0.6,0.4,2.2,0.1,2.9,0.1c1.1,0,2.1,0.2,3.2,0.6C100.1,305.6,101.1,306.3,102,306.9z"/>
					</g>
				</g>
				<g id="XMLID_85">
					<g id="Group_16">
						<path id="Vector_83" class="st14" d="M99.7,314c0.7,0.2,1.4,0.5,1.7,1.1c-1.1-0.4-2.2-0.6-3.3-0.7c-0.9-0.1-1.9-0.1-2.7-0.5
							c-0.7-0.4-0.8-1.1-1.5-1.5c0.9,0.1,1.6,0.2,2.5,0.5C97.4,313.2,98.6,313.6,99.7,314z"/>
					</g>
				</g>
				<g id="XMLID_84">
					<g id="Group_17">
						<path id="Vector_84" class="st14" d="M89.4,312.3c0.3,0,1.4,0.4,1.7,0.3c-1.1,0.5-2.1,0.9-3.2,1.2c-0.7,0-1.4,0.3-2.2,0.2
							c-0.6-0.1-1.1-0.2-1.7-0.2c0.9-0.9,2.2-1.3,3.4-1.5C88.1,312.3,88.8,312.2,89.4,312.3z"/>
					</g>
				</g>
				<g id="XMLID_83">
					<g id="Group_18">
						<path id="Vector_85" class="st13" d="M120.3,316.5c0,1.1-0.5,2.2-1.3,2.8c-0.4,0.3-0.9,0.6-1.4,0.7c-0.9,0.3-2,0.4-3,0.5
							c-2.3,0.2-8.3,0.1-8.8-3.2c-0.5-3.3,3.9-4.1,6.2-4.3C114.8,312.9,120.2,312.7,120.3,316.5z"/>
					</g>
				</g>
				<g id="XMLID_82">
					<g id="Group_19">
						<path id="Vector_86" class="st14" d="M115.1,315.4c0.9,0.1,1.9,0.2,2.5,0.9c0,0-4.8,0.9-5.4,0.8c-1.4-0.2-3-0.6-4.3-1.1
							C110.1,314.8,112.7,315.2,115.1,315.4z"/>
					</g>
				</g>
				<g id="XMLID_81">
					<g id="Group_20">
						<path id="Vector_87" class="st14" d="M118.7,304c0.2,1.4-2.7,1.8-2.8,0.1C115.7,302.2,118.4,302.9,118.7,304z"/>
					</g>
				</g>
				<g id="XMLID_78">
					<g id="Group_21">
						<path id="Vector_88" class="st13" d="M112.7,305.3c1.5,1.1-1,2.8-1.7,1.3C110.4,305.3,111.6,304.5,112.7,305.3z"/>
					</g>
				</g>
				<g id="XMLID_77">
					<g id="Group_22">
						<path id="Vector_89" class="st14" d="M116.5,307.7c1.4-1.9,4.1,0.7,2.1,1.7c-0.3,0.2-0.7,0.2-1,0.1
							C116.9,309.4,115.9,308.4,116.5,307.7z"/>
					</g>
				</g>
				<g id="XMLID_73">
					<g id="Group_23">
						<path id="Vector_90" class="st14" d="M80.4,303.2c0.2,0.5-0.1,1.1-0.4,1.4c-0.6,0.7-1.9,1.5-2.8,1.2
							C74.2,304.7,79.5,300.7,80.4,303.2z"/>
					</g>
				</g>
				<g id="XMLID_72">
					<g id="Group_24">
						<path id="Vector_91" class="st13" d="M106.8,320.9c1,1.2-0.9,2.4-2,1.9C102.8,321.7,105.8,319.8,106.8,320.9z"/>
					</g>
				</g>
				<g id="XMLID_71">
					<g id="Group_25">
						<path id="Vector_92" class="st14" d="M83.3,300.9c1.2-0.2,2.8,0.7,2.2,2c-0.6,1.2-1.9,1.1-3,0.6
							C81.1,302.8,82.2,301.1,83.3,300.9z"/>
					</g>
				</g>
				<g id="XMLID_70">
					<g id="Group_26">
						<path id="Vector_93" class="st14" d="M93.8,291.2c1.6,0,1.2,1.8-0.2,1.8c-0.7,0-1.4-1.1-0.7-1.5
							C93.2,291.3,93.5,291.2,93.8,291.2z"/>
					</g>
				</g>
				<g id="XMLID_69">
					<g id="Group_27">
						<path id="Vector_94" class="st14" d="M91.3,294.3c0.5-0.2,1.3,0.2,1.3,0.8c0,0.3-0.2,0.6-0.5,0.8c-0.7,0.5-1.4,0.1-1.4-0.7
							C90.7,294.8,90.9,294.5,91.3,294.3z"/>
					</g>
				</g>
				<g id="XMLID_68">
					<g id="Group_28">
						<path id="Vector_95" class="st13" d="M124.3,325c0.5,2.3-1.2,4.1-3.4,4.8c-1.2,0.3-2.4,0.3-3.6,0.2c-1.1-0.1-2.2-0.2-2.9-1
							c-0.1-0.1-0.2-0.3-0.3-0.5c-0.1-0.2,0-0.4,0.1-0.6c0.9-3,4.1-5.1,7.2-5c0.8,0,1.7,0.2,2.3,0.8
							C124.1,324,124.3,324.5,124.3,325z"/>
					</g>
				</g>
				<g id="XMLID_67">
					<g id="Group_29">
						<path id="Vector_96" class="st14" d="M123.1,324.7c-0.9,1.2-2,1.7-3.2,2.4c-0.4,0.2-0.8,0.6-1.2,0.7c-0.2,0.1-1.9,0-1.8-0.2
							c0.5-1,1.3-1.5,2.3-1.9C119.8,325.3,122.9,325,123.1,324.7z"/>
					</g>
				</g>
				<g id="XMLID_66">
					<g id="Group_30">
						<path id="Vector_97" class="st13" d="M207.7,292.4c0.3,0.6,0.5,1.1,0.4,1.7c-0.2,1.2-1.7,1.7-2.9,1.9c-2.5,0.2-5.8-0.4-7-3
							c-1.8-3.7,2-4.5,4.9-4C205,289.4,206.8,290.6,207.7,292.4z"/>
					</g>
				</g>
				<g id="XMLID_65">
					<g id="Group_31">
						<path id="Vector_98" class="st14" d="M206.3,293.1c-2.1,0.6-5.3,0.2-6.6-1.7C202.2,291.4,204.4,290.8,206.3,293.1z"/>
					</g>
				</g>
				<g id="XMLID_64">
					<g id="Group_32">
						<path id="Vector_99" class="st13" d="M224.6,309.4c0.1,5.1-7.7,3.3-10.9,2.6c-0.4-0.1-1-0.2-1.2-0.7c-0.2-0.3-0.2-0.7-0.1-1.1
							c0.1-0.7,0.1-1.4,0.4-2c0.5-1.1,1.6-1.4,2.7-1.8c1.9-0.7,3.9-0.9,5.8-0.6c1.2,0.2,2.5,0.7,3.1,1.9
							C224.6,308.3,224.6,308.9,224.6,309.4z"/>
					</g>
				</g>
				<g id="XMLID_63">
					<g id="Group_33">
						<path id="Vector_100" class="st14" d="M217,307.9c2-0.7,4.1-0.9,6.2-0.8c-2.5,1.5-5.4,2.5-8.3,2.5c-0.2,0-0.4-0.2-0.3-0.3
							l0.1-0.1C215.3,308.6,216.1,308.2,217,307.9z"/>
					</g>
				</g>
				<g id="XMLID_62">
					<g id="Group_34">
						<path id="Vector_101" class="st14" d="M212,298c0.6,3.2-4.4,3.8-4.9,0.7C206.7,295.7,211.5,294.9,212,298z"/>
					</g>
				</g>
				<g id="XMLID_61">
					<g id="Group_35">
						<path id="Vector_102" class="st13" d="M214.8,292c0.3,0.4,0.3,1.1,0.1,1.5c-0.4,1.4-2,2.7-3.5,2.3c-0.9-0.3-1.6-1.2-1.7-2.1
							c-0.4-2.5,2.3-3.3,4.3-2.4C214.3,291.6,214.6,291.7,214.8,292z"/>
					</g>
				</g>
				<g id="XMLID_58">
					<g id="Group_36">
						<path id="Vector_103" class="st16" d="M213.6,299.5c1.5-1.9,4.4,0.1,2.4,2C214.5,303,212.3,301.1,213.6,299.5z"/>
					</g>
				</g>
				<g id="XMLID_57">
					<g id="Group_37">
						<path id="Vector_104" class="st15" d="M219.4,322.1c1.4-0.7,3.4,0.1,1.9,1.6C219.6,325.4,217.5,322.9,219.4,322.1z"/>
					</g>
				</g>
				<g id="XMLID_56">
					<g id="Group_38">
						<path id="Vector_105" class="st13" d="M201,282.5c0.7,1.4,0.4,3.2-0.6,4.5c-1,1.2-2.6,1.9-4.1,2.1c-1.3,0.2-2.7,0-3.8-0.7
							c-1.1-0.7-2.5-2-2-3.3c0.8-1.9,2.4-3.7,4.4-4.3c1.1-0.3,2.3-0.4,3.4-0.2C199.4,280.7,200.4,281.5,201,282.5z"/>
					</g>
				</g>
				<g id="XMLID_14">
					<g id="Group_39">
						<path id="Vector_106" class="st14" d="M191.1,284.9c2.7-2.2,8.5-2.2,8.5-2.2S193.5,285.6,191.1,284.9z"/>
					</g>
				</g>
				<g id="XMLID_13">
					<g id="Group_40">
						<path id="Vector_107" class="st14" d="M107.6,318.6c0.6,1.4-2.7,1.9-3.3,0.7C103.1,317.4,106.8,316.8,107.6,318.6z"/>
					</g>
				</g>
				<g id="Group_41">
					<path id="Vector_108" class="st15" d="M112.7,324.6c2.5,0.1,0-4.1-1.2-1.5c-0.1,0.3-0.1,0.6,0.1,0.9
						C111.9,324.3,112.3,324.6,112.7,324.6z"/>
				</g>
				<g id="XMLID_12">
					<g id="Group_42">
						<path id="Vector_109" class="st14" d="M136,283.3c0.4,1.9-1,4.8-3.1,5.7c-2.2,0.9-5.8-0.1-7.7-1.1c-0.4-0.2-0.9-0.6-1.1-1
							c-0.2-0.5-0.2-1.1-0.2-1.7c0.1-0.5,0.1-1,0.1-1.5c0.2-2.2,5.5-3,7.4-3.1c1.1-0.1,2.2,0,3.1,0.5
							C135.3,281.7,135.8,282.5,136,283.3z"/>
					</g>
				</g>
				<g id="Layer_17">
					<g id="XMLID_60">
						<g id="Group_43">
							<path id="Vector_110" class="st13" d="M126.8,283.1c4.1,1.3,5.8,5.4,3.6,9.1c-2.1,3.5-6.4,5.8-10.4,5.4
								c-2.3-0.2-4.5-1.4-5.8-3.3c-1.2-1.8-2.2-4.8-1.1-6.8c0.8-1.5,2.2-2.6,3.8-3.3c1.1-0.4,2.1-0.7,3.2-1c0.6-0.1,1.2-0.2,1.8-0.2
								C123.5,282.7,125.2,282.6,126.8,283.1z"/>
						</g>
					</g>
					<g id="XMLID_59">
						<g id="Group_44">
							<path id="Vector_111" class="st14" d="M114.1,289.6c1.2-0.9,2.5-1.9,4.1-2.4c3.1-1,6.7-1.3,10.1-0.9c-2,1.1-4.4,1.9-6.9,2.4
								c-1.1,0.2-2.3,0.6-3.5,0.7c-0.7,0.1-1.4,0.1-2.2,0.1C115.6,289.6,114.2,289.4,114.1,289.6z"/>
						</g>
					</g>
				</g>
				<g id="XMLID_11">
					<g id="Group_45">
						<path id="Vector_112" class="st14" d="M201.4,289.8c0.4,1.9-1,4.8-3.1,5.7c-2.2,0.9-5.8-0.1-7.7-1.1c-0.4-0.2-0.9-0.6-1.1-1
							c-0.2-0.5-0.2-1.1-0.2-1.7c0.1-0.5,0.1-1,0.1-1.5c0.2-2.2,5.5-3,7.4-3.1c1.1-0.1,2.2,0,3.1,0.5
							C200.7,288.2,201.2,289,201.4,289.8z"/>
					</g>
				</g>
			</g>
			<g id="plant_1">
				<g id="plant">
					<g id="XMLID_118">
						<g id="Group_46">
							<path id="Vector_113" class="st17" d="M260.9,168.6c0.2,0.7-0.6,1.2-1.1,1.6c-3.6,2.2-7.5,3.8-11.2,5.6
								c-4.4,2.2-8.4,5.6-12.7,8.1c-8.4,4.8-19,7.6-28.7,7.2c-3.9-0.2-7.8-0.7-11.5-1.7c-2.5-0.7-7.4-1.8-8.9-4.1
								c-5-7.9,6.7-17.8,12.9-20.5c4.8-2,10-3.1,15.2-3.3c4.6-0.2,10.3-0.6,14.8,0c10.2,1.3,20.1,3.1,29.9,6.2
								C260.2,167.8,260.8,168,260.9,168.6z"/>
						</g>
					</g>
					<g id="Group_47">
						<path id="Vector_114" class="st17" d="M216.5,124c11.9-4.5,20.3-12.1,29-20.8c0.4-0.4,0.9-1.1,0.5-1.6
							c-0.2-0.3-0.7-0.3-1.2-0.3c-10.6,0.9-21.2-1.6-31.9-2c-9.9-0.4-20.4,2.2-28.2,8.5c-3.2,2.7-6.1,6.4-6.4,10.6
							c-0.4,4.9,2.7,6.9,7,8.5c4.9,1.8,10.6,0.9,15.6,0.6C206.2,127.1,211.5,125.9,216.5,124z"/>
					</g>
					<g id="Group_48">
						<path id="Vector_115" class="st17" d="M117.5,118.8c-12,0.4-23.8,4.7-34.6,9.5c-0.6,0.2-1.1,0.5-1.5,1
							c-0.4,0.4-0.6,1.2-0.3,1.7c0.3,0.6,1,0.7,1.5,0.9c9.6,2.2,19.1,6.1,27.9,11c3.3,1.8,6.4,3.8,9.9,5.3
							c4.9,2.1,10.4,2.9,15.7,2.5c5.2-0.4,9.8-1.7,14.1-4.6c3.4-2.2,4.6-7.9,2.5-11.3c-2.4-4-6.4-7.2-10.3-9.6
							C135,120.5,126.2,118.5,117.5,118.8z"/>
					</g>
					<g id="Group_49">
						<path id="Vector_116" class="st17" d="M146.5,184.8c6.4,4.2,12.6,13,7.4,20.5c-3.5,5.1-11.2,5.8-16.6,6.4
							c-5.7,0.7-11.6,0.1-17.2-1.3c-9.9-2.5-18.3-8.5-27.9-12.2c-6.2-2.4-12.6-4.3-19-6.1c-1.6-0.4-3.3-0.9-4.5-2
							c0.4-1.9,4-2.7,5.4-3.2c10.7-3.9,21.9-7.7,33.2-9.3C120.6,175.7,134.8,177.2,146.5,184.8z"/>
					</g>
					<g id="XMLID_117">
						<g id="Group_50">
							<path id="Vector_117" class="st17" d="M214.1,50.6c1,1.2-4.6,8.8-5.6,10.1c-3.1,4.1-6.5,7.8-10.3,11.3
								c-0.1,0.1-0.2,0.2-0.4,0.4c-4.8,4.5-10.3,8.2-16.5,10.2c-2.3,0.7-5,1.2-7.2,0.2c-7.4-3.4,1.2-15,4.3-18.3
								c7.5-7.7,16.7-10.4,26.8-12.7c2.3-0.5,4.5-1,6.8-1.5C212.9,50.1,213.7,50,214.1,50.6z"/>
						</g>
					</g>
					<g id="XMLID_116">
						<g id="Group_51">
							<path id="Vector_118" class="st17" d="M152.7,86.8c0.5,1.6,1.3,4.8-0.6,5.8c-1.5,0.7-4.4,0.5-6.1,0.6
								c-4.6,0.1-9.6-0.2-13.8-2.3c-4.3-2.1-7.4-5.8-10.3-9.5c-3.1-4.1-5.2-8.2-9.7-10.9c-0.2-0.1-0.4-0.3-0.6-0.6
								c-0.2-0.6,0.6-1,1.2-1.1c6.9-0.8,12.9-0.2,19.6,1.4c3.6,0.9,6.5,2.4,9.5,4.3c0.9,0.6,1.8,1.2,2.7,1.8
								C148.5,78.8,151.4,82.6,152.7,86.8z"/>
						</g>
					</g>
					<g id="XMLID_115">
						<g id="Group_52">
							<path id="Vector_119" class="st17" d="M158.6,38.9c5.9,8.1,8.8,18.5,7.7,28.5c-0.2,2.2-1.1,8.7-3,10.3
								c-2.1,1.8-3.6-2.2-5.1-4.1c-4.4-5.4-9-10.3-9-17.7c0-2.5,0.4-5.1,0.8-7.5c0.6-3.8,1.2-7.5,1.8-11.3c0.2-1.2,0.7-2.7,1.9-2.8
								c0.8-0.1,1.5,0.6,2,1.1C156.7,36.5,157.7,37.6,158.6,38.9z"/>
						</g>
					</g>
					<g id="XMLID_114">
						<g id="Group_53">
							
								<linearGradient id="Vector_120_1_" gradientUnits="userSpaceOnUse" x1="165.5839" y1="296.4513" x2="130.4625" y2="294.6433" gradientTransform="matrix(1 0 0 -1 0 391)">
								<stop  offset="1.302080e-03" style="stop-color:#00BD00"/>
								<stop  offset="1" style="stop-color:#006633"/>
							</linearGradient>
							<path id="Vector_120" class="st18" d="M130.6,77.8c-1.2,0-1.2,1.2-0.6,1.9c0.6,0.6,2.5,1.9,8.2,4.3
								c6.9,2.9,13.4,7.4,18.2,13.2c1.7,2.1,3.2,4.3,4.7,6.6c0.7,1.1,5.4,9.3,5.4,9.3c0.5-2.4-1.5-8.8-1.6-11.3
								c-0.1-0.9-0.2-1.8-0.7-2.4c-6.4-7.7-6.4-7.8-13.4-12.4C143.6,82.4,131.8,77.8,130.6,77.8z"/>
						</g>
					</g>
					<g id="XMLID_113">
						<g id="Group_54">
							
								<linearGradient id="Vector_121_1_" gradientUnits="userSpaceOnUse" x1="167.3063" y1="308.485" x2="200.3133" y2="312.0691" gradientTransform="matrix(1 0 0 -1 0 391)">
								<stop  offset="1.302080e-03" style="stop-color:#00BD00"/>
								<stop  offset="1" style="stop-color:#006633"/>
							</linearGradient>
							<path id="Vector_121" class="st19" d="M198,63.8c1.3,0.5,0.8,1.1-1.1,2c-2.2,1-1,0-5.3,2.5c-6.5,3.8-12.1,9.4-15.8,16
								c-1.3,2.4-2.5,4.8-3.6,7.2c-0.5,1.1-1,2.3-1.4,3.5c-0.1,0.3-1.3,2.7-1.3,2.8c-0.9-2.3-1.1-5.1-1.3-7.5
								c-0.1-0.9-0.1-1.8,0.3-2.5c5.1-8.6,5.1-8.7,11.3-14.4C186,67.6,196.7,63.3,198,63.8z"/>
						</g>
					</g>
					<g id="XMLID_112">
						<g id="Group_55">
							<path id="Vector_122" class="st20" d="M173.1,129.2c0.7,10.8,0.4,22.3,0.1,33.1c-0.5,14.5-2.5,28.7-3.7,43.1
								c-0.5,5.9-0.5,11.9-0.4,17.9c0,5.6,0.3,11.3,0.7,16.9c0.2,2.5,1.1,4.3-0.4,5.4c-1.2,0.9-4.2,0-5.6,0
								c-2.7,0-2.2-13.3-2.3-15.9c-0.2-7.3,0.2-14.6,0.9-21.8c1.1-11.4,3.5-22.4,4.9-33.7c1.4-10.3,1.4-21.1,0.9-31.6
								c-0.4-11.1-1.2-21.8-2.3-32.9c-0.6-5.8-1.6-11.4-2.1-17.1c-0.2-2.7-6.4-31.6-4.2-33.5c0.7-0.7,4.4,17.6,4.9,18.6
								c1.7,3.4,3.1,10.8,3.8,14.9C170.3,104.8,172.3,116.8,173.1,129.2z"/>
						</g>
					</g>
					<g id="XMLID_111">
						<g id="Group_56">
							
								<linearGradient id="Vector_123_1_" gradientUnits="userSpaceOnUse" x1="172.812" y1="267.8881" x2="228.9358" y2="267.8881" gradientTransform="matrix(1 0 0 -1 0 391)">
								<stop  offset="1.302080e-03" style="stop-color:#00BD00"/>
								<stop  offset="1" style="stop-color:#006633"/>
							</linearGradient>
							<path id="Vector_123" class="st21" d="M227.9,105.7c0.6,0,1.7,0.7,0.7,1.1c-0.9,0.4-1.9,0.6-2.9,0.7
								c-8.9,1.2-17.4,2.2-25.7,5.9c-6.9,3-14.5,8.4-18.8,14.5c-1.6,2.2-3,4.5-4.4,6.8c-0.6,1.1-1.2,2.2-1.8,3.3
								c-0.1,0.3-1.6,2.6-1.6,2.7c-0.6-2.4-0.5-5.2-0.5-7.6c0-0.9,0.1-1.8,0.6-2.5c6-8,14.3-14.6,23.4-18.7
								C206.4,107.4,217.4,105.2,227.9,105.7z"/>
						</g>
					</g>
					<g id="Group_57">
						
							<linearGradient id="Vector_124_1_" gradientUnits="userSpaceOnUse" x1="167.4756" y1="201.9515" x2="237.053" y2="201.9515" gradientTransform="matrix(1 0 0 -1 0 391)">
							<stop  offset="1.302080e-03" style="stop-color:#00BD00"/>
							<stop  offset="1" style="stop-color:#006633"/>
						</linearGradient>
						<path id="Vector_124" class="st22" d="M194.6,182c-5.9,3.1-11.6,6.7-16.4,11.4c-2.3,2.3-4.4,4.8-6,7.6c-1.3,2.4-2,5.1-3.3,7.6
							c-1-2.1-1.6-5.4-1.4-7.8c0.1-2,1.7-3.6,2.8-5.1c3.1-4.2,7.2-7.7,11.5-10.5c8.6-5.7,18-10,28-12.7c4.9-1.3,9.9-2.3,14.9-2.8
							c2.3-0.2,4.7-0.4,7-0.4c1.5,0,4.5-0.4,5.2,1.2c-2.4,1.1-6.2,0.9-8.8,1.2c-3.1,0.4-6.2,0.8-9.2,1.4
							C210.5,174.9,202.4,178,194.6,182z"/>
					</g>
					<g id="XMLID_110">
						<g id="Group_58">
							
								<linearGradient id="Vector_125_1_" gradientUnits="userSpaceOnUse" x1="104.0645" y1="247.2868" x2="169.0525" y2="247.2868" gradientTransform="matrix(1 0 0 -1 0 391)">
								<stop  offset="0" style="stop-color:#006633"/>
								<stop  offset="1" style="stop-color:#00BD00"/>
							</linearGradient>
							<path id="Vector_125" class="st23" d="M168.7,151.9c0.3,2,0.4,4,0.2,6.1c-1.8-1.6-3-3.6-4.8-5.3c-1.9-1.7-3.8-3.3-5.9-4.7
								c-1.2-0.8-2.5-1.5-3.7-2.2c-2.1-1.2-4.2-2.4-6.2-3.6c-1.5-0.9-3.1-1.8-4.7-2.5c-2-0.9-4.2-1.7-6.3-2.3
								c-5.4-1.7-10.8-3.3-16.4-4.1c-3.4-0.6-6.8-0.7-10.2-1.1c-1.9-0.2-3.6-0.4-5.4-0.7c-0.5-0.1-1.1-0.2-1.2-0.7
								c-0.6-2.1,11.5-0.8,13-0.6c11.7,1.5,23.3,4.3,34,9.3c3.6,1.7,7,3.7,10.3,5.9C163.8,146.8,168.3,148.7,168.7,151.9z"/>
						</g>
					</g>
					<g id="Group_59">
						
							<linearGradient id="Vector_126_1_" gradientUnits="userSpaceOnUse" x1="104.7211" y1="189.93" x2="163.2481" y2="189.93" gradientTransform="matrix(1 0 0 -1 0 391)">
							<stop  offset="0" style="stop-color:#006633"/>
							<stop  offset="1" style="stop-color:#00BD00"/>
						</linearGradient>
						<path id="Vector_126" class="st24" d="M155.7,200.9c2.5,1.4,4.8,3,6.5,4.9c1.8,2,0.9,5.9,0.3,8.2c-1.2-1.4-2-3-3.5-4.2
							c-1.4-1.2-2.9-2.5-4.4-3.6c-3-2.3-6.2-4.3-9.6-6.2c-2.3-1.3-4.8-2.4-7.3-3.3c-1.8-0.6-3.6-1.2-5.4-1.6
							c-8.3-2.2-16.7-3.6-25.3-4.7c-0.5-0.1-2.8-0.2-2.2-1.4c0.2-0.4,0.7-0.6,1.1-0.6c1.7-0.1,3.2-0.3,4.9-0.3
							c6.9,0.2,13.8,0.8,20.4,2.4c5.7,1.4,11.2,3.5,16.5,6.1C150.3,198,153.1,199.3,155.7,200.9z"/>
					</g>
					<g id="XMLID_107">
						<g id="Group_60">
							
								<linearGradient id="Vector_127_1_" gradientUnits="userSpaceOnUse" x1="150.931" y1="288.799" x2="172.642" y2="330.3064" gradientTransform="matrix(1 0 0 -1 0 391)">
								<stop  offset="1.302080e-03" style="stop-color:#00BD00"/>
								<stop  offset="0.2309" style="stop-color:#00B902"/>
								<stop  offset="0.44" style="stop-color:#00AE09"/>
								<stop  offset="0.6411" style="stop-color:#009C13"/>
								<stop  offset="0.8361" style="stop-color:#008223"/>
								<stop  offset="1" style="stop-color:#006633"/>
							</linearGradient>
							<path id="Vector_127" class="st25" d="M157.8,53c1.1-0.8,3.1,9.3,3.1,9.3s3.7,13.6,4.9,18.6c1.2,4.9,2.5,11.1,3.1,15.5
								c0.6,4.3-3.1,13.6-3.1,13.6s-3.1-20.8-4.3-29.1C160.2,72.6,156.6,53.9,157.8,53z"/>
						</g>
					</g>
				</g>
				<g id="pot">
					<g id="XMLID_25">
						<g id="Group_61">
							<path id="Vector_128" class="st26" d="M199.4,248.2c-0.1,0-0.1,0-0.1,0c-0.4,0-0.8,0-1.2,0c-0.4,0-0.8,0-1.2,0
								c-0.1,0-0.1,0-0.1,0c-4.1,0-8.2,0.1-12.3,0.1c-7.7,0-15.4,0-23,0c-5.9,0-11.8,0-17.7,0c-3.5,0-6.9-0.1-10.4-0.1
								c-1.1,0-2.1-0.1-3.1-0.1c-0.6,0-1.1,0-1.5-0.4c-1.5-1.2-2-4.1-2.5-5.9c-0.4-1.5-0.9-3.2-1.2-4.7c-0.2-0.8-1.1-3.2-0.5-3.9
								c0.2-0.3,0.7-0.4,1.2-0.4c2.8-0.3,5.6-0.1,8.3-0.1c3.3,0,6.6,0.1,9.9,0.1c11.9,0,23.7,0,35.6,0c4.3,0,8.6-0.1,12.8-0.1
								c4.1-0.1,8,0.1,12-0.1c0.6,0,1.2-0.1,1.7,0.2c1.7,1,0.6,3.8,0.3,5.3c-0.5,2.8-1.9,5.6-3,8.2
								C202.6,248.2,201.2,248.2,199.4,248.2z"/>
							<path id="Vector_129" class="st27" d="M198.1,248.2c0.4,0,0.8,0,1.2,0c0.1,0,0.1,0,0.1,0c-3.3,18.1-8,53.6-9.4,55.9
								c-1.4,2.4-2.8,2.5-8,2.8c-8.3,0.6-24.1,0-32.2,0c-2,0-4.8,0-6.1-2c-1.4-2-6.9-38.3-10.3-56.7c3.5,0.1,6.9,0.1,10.4,0.1
								c5.9,0,11.8,0,17.7,0c7.7,0,15.4,0,23,0c4.1,0,8.2-0.1,12.3-0.1c0.1,0,0.1,0,0.1,0C197.3,248.2,197.7,248.2,198.1,248.2z"/>
						</g>
					</g>
				</g>
			</g>
			<g id="glows">
				
					<linearGradient id="Vector_130_1_" gradientUnits="userSpaceOnUse" x1="119.842" y1="295.3845" x2="119.842" y2="256.3455" gradientTransform="matrix(1 0 0 -1 0 391)">
					<stop  offset="0" style="stop-color:#FFFFFF;stop-opacity:1.000000e-02"/>
					<stop  offset="0.1505" style="stop-color:#FFFFF7;stop-opacity:0.159"/>
					<stop  offset="0.3835" style="stop-color:#FFFFE1;stop-opacity:0.3897"/>
					<stop  offset="0.6699" style="stop-color:#FFFFBE;stop-opacity:0.6732"/>
					<stop  offset="0.9961" style="stop-color:#FFFF8D;stop-opacity:0.9961"/>
					<stop  offset="1" style="stop-color:#FFFF8C"/>
				</linearGradient>
				<path id="Vector_130" class="st28" d="M100.5,95.6l0.8,31.9c0,0-1.2,6.9,19.5,7.2c19.8,0,18.4-7.2,18.4-7.2l-0.6-31.1
					L100.5,95.6z"/>
				
					<linearGradient id="Vector_131_1_" gradientUnits="userSpaceOnUse" x1="214.1422" y1="316.1724" x2="214.1422" y2="277.9995" gradientTransform="matrix(1 0 0 -1 0 391)">
					<stop  offset="0" style="stop-color:#FFFFFF;stop-opacity:1.000000e-02"/>
					<stop  offset="0.1505" style="stop-color:#FFFFF7;stop-opacity:0.159"/>
					<stop  offset="0.3835" style="stop-color:#FFFFE1;stop-opacity:0.3897"/>
					<stop  offset="0.6699" style="stop-color:#FFFFBE;stop-opacity:0.6732"/>
					<stop  offset="0.9961" style="stop-color:#FFFF8D;stop-opacity:0.9961"/>
					<stop  offset="1" style="stop-color:#FFFF8C"/>
				</linearGradient>
				<path id="Vector_131" class="st29" d="M199.7,75.4l-0.4,30.3c0,0-0.9,7.1,15.3,7.3c15.4,0,14.4-7.3,14.4-7.3l-0.3-30.9
					L199.7,75.4z"/>
				
					<linearGradient id="Vector_132_1_" gradientUnits="userSpaceOnUse" x1="116.8156" y1="234.2585" x2="116.8156" y2="196.0855" gradientTransform="matrix(1 0 0 -1 0 391)">
					<stop  offset="0" style="stop-color:#FFFFFF;stop-opacity:1.000000e-02"/>
					<stop  offset="0.1505" style="stop-color:#FFFFF7;stop-opacity:0.159"/>
					<stop  offset="0.3835" style="stop-color:#FFFFE1;stop-opacity:0.3897"/>
					<stop  offset="0.6699" style="stop-color:#FFFFBE;stop-opacity:0.6732"/>
					<stop  offset="0.9961" style="stop-color:#FFFF8D;stop-opacity:0.9961"/>
					<stop  offset="1" style="stop-color:#FFFF8C"/>
				</linearGradient>
				<path id="Vector_132" class="st30" d="M96.2,156.7l0.8,31.8c0,0-1.2,6.2,20.8,6.4c21,0,19.6-6.4,19.6-6.4l-0.6-31.8H96.2z"/>
				
					<linearGradient id="Vector_133_1_" gradientUnits="userSpaceOnUse" x1="219.1504" y1="254.8605" x2="219.1504" y2="215.0175" gradientTransform="matrix(1 0 0 -1 0 391)">
					<stop  offset="0" style="stop-color:#FFFFFF;stop-opacity:1.000000e-02"/>
					<stop  offset="0.1505" style="stop-color:#FFFFF7;stop-opacity:0.159"/>
					<stop  offset="0.3835" style="stop-color:#FFFFE1;stop-opacity:0.3897"/>
					<stop  offset="0.6699" style="stop-color:#FFFFBE;stop-opacity:0.6732"/>
					<stop  offset="0.9961" style="stop-color:#FFFF8D;stop-opacity:0.9961"/>
					<stop  offset="1" style="stop-color:#FFFF8C"/>
				</linearGradient>
				<path id="Vector_133" class="st31" d="M203.1,136.1l0.6,33.8c0,0-1,5.8,16.2,6c16.4,0,15.3-6,15.3-6l-0.3-33.8H203.1z"/>
				
					<linearGradient id="Vector_134_1_" gradientUnits="userSpaceOnUse" x1="165.133" y1="138.1145" x2="165.133" y2="57.5625" gradientTransform="matrix(1 0 0 -1 0 391)">
					<stop  offset="0" style="stop-color:#FFFFFF;stop-opacity:1.000000e-02"/>
					<stop  offset="0.1505" style="stop-color:#FFFFF7;stop-opacity:0.159"/>
					<stop  offset="0.3835" style="stop-color:#FFFFE1;stop-opacity:0.3897"/>
					<stop  offset="0.6699" style="stop-color:#FFFFBE;stop-opacity:0.6732"/>
					<stop  offset="0.9961" style="stop-color:#FFFF8D;stop-opacity:0.9961"/>
					<stop  offset="1" style="stop-color:#FFFF8C"/>
				</linearGradient>
				<path id="Vector_134" class="st32" d="M114.2,252.9c0,0,9.3,55.4,10,60.1c0.7,4.6,6.7,20.5,42.7,20.5
					c35.9,0,40.6-17.1,41.9-21.8c1.3-4.6,7.4-57.5,7.4-57.5L114.2,252.9z"/>
			</g>
			<g id="people_1">
				<g id="XMLID_9">
					<g id="Group_62">
						<path id="Vector_135" class="st33" d="M193.6,312.4c0.6,1.4,0.2,3,0.7,4.5c-1,0.4-2.1,0.5-3.1,0.4l-0.6,0.1
							c-0.1-0.6-0.1-1.1-0.2-1.7h-0.1c0-0.2,0.1-0.7,0.1-1.4l0.4,0.1c0.9-0.2,1.7-0.4,2.6-0.7c0.1,0,0.1-0.1,0.2-0.1
							c0-0.1,0-0.1,0-0.1C193.5,313,193.5,312.8,193.6,312.4z"/>
						<path id="Vector_136" class="st34" d="M182.6,262.5c0-0.1-0.1-0.1-0.1-0.2c-0.5-1.1-0.9-2.4-1-3.7c-0.1-0.8,4.5,1.7,4.8,1.7
							c2,0.8,4.6,1.1,6.7,1.7c0.2,0.1,0.3,0.1,0.4,0.2c0.1,0.1,0.1,0.3,0.1,0.4c0,2.2-0.1,4.5-0.1,6.7c0,0.2,0,0.4-0.1,0.5
							c-0.1,0.1-0.2,0.2-0.4,0.3c-0.6,0.4-1.3,0.9-1.9,1.2c-0.1,0.1-0.2,0.1-0.2,0.1c-0.2,0.1-0.4,0.2-0.7,0.2
							c-0.2-0.1-0.2-0.2-0.4-0.3c-0.6-0.9-0.9-1.9-0.8-3c0.1-0.7,0.3-1.5-0.1-2c-0.2-0.4-0.6-0.6-0.9-0.7c-1.2-0.7-2.4-1.7-3.8-2
							c-0.4-0.1-0.7-0.1-1.1-0.3C182.9,263,182.7,262.7,182.6,262.5z"/>
						<path id="Vector_137" class="st35" d="M192.6,285.1c0.1-0.1,0.1-0.2,0.2-0.4l0.2,0.1c-0.1,3.8,0.6,7.3-0.1,10.8
							c-0.2,0.7-0.4,1.1-0.8,1.5c-0.4,0.4-0.8,0.6-1.3,0.8c-1.6,0.6-3.8,0.1-5.7,0.4c-0.4,0.1-0.7,0.1-1.1,0.2
							c-1.2-2.4-0.6-4.7-0.8-6.9l-0.1-0.4c0.4-0.1,0.7-0.1,1.1-0.3c0,0.1,0,0.1,0,0.1c0-0.1,0.6-0.3,1.2-0.7c0.5-0.2,1-0.6,1.5-0.8
							c0.9-0.4,1.6-0.9,1.8-1C190.4,287.6,191.7,286.5,192.6,285.1z"/>
						<path id="Vector_138" class="st36" d="M191,307.1c0.1-3.1-0.2-6.2-0.1-9.2c0.5-0.2,0.9-0.4,1.3-0.8l0.1,0.1
							c0.6,5.1,1.1,10.1,1.2,15.3c0,0.3,0,0.6,0,0.9c0,0.1,0,0.1,0,0.1c-0.1,0.1-0.1,0.1-0.2,0.1c-0.9,0.3-1.7,0.6-2.6,0.7l-0.4-0.1
							C190.5,312,190.9,307.6,191,307.1z"/>
						<path id="Vector_139" class="st37" d="M185.6,315.8c0.9-3.9,0.2-7.9-0.2-12c-0.2-1.9-0.3-3.8-0.2-5.6c1.9-0.3,4.1,0.2,5.7-0.4
							c-0.1,3.1,0.1,6.2,0.1,9.2c0,0.5-0.4,4.8-0.6,7.2c-0.1,0.7-0.1,1.2-0.1,1.4c0,0.1,0,0.1,0,0.1
							C188.7,315.7,187.2,315.8,185.6,315.8z"/>
						<path id="Vector_140" class="st33" d="M190.2,315.7C190.2,315.7,190.2,315.7,190.2,315.7L190.2,315.7c0.1,0.5,0.2,1.1,0.3,1.7
							c0.1,1.1,0.2,2.1,0.2,3.2v0.1h-0.1c-0.6,0.1-1.3,0.2-1.9,0.2c0-0.4-0.1-0.7-0.1-1.1c-0.2,0.1-0.3,0.4-0.4,0.7
							c-0.4,0.9-2.3,0.5-3.1,0.4c-0.3,0-3.6-0.4-3.7-0.4c0.3-1,0.7-2.1,1.6-2.6c0.8-0.4,2-0.5,2.3-1.4c0.1-0.2,0.1-0.5,0.2-0.7
							c0-0.1,0-0.1,0.1-0.1C187.2,315.8,188.7,315.7,190.2,315.7z"/>
						<path id="Vector_141" class="st38" d="M190.5,273.2c0.1,0.4,0.1,0.9,0.1,1.3v0.1c-0.2,0.1-0.4,0.1-0.6,0.2
							c-0.8,0.2-1.7,0.2-2.4,0.6c-0.2,0.1-0.5,0.2-0.7,0.3l-0.2-2.4c1.3,0.2,2.9,0.2,3.8-0.4L190.5,273.2z"/>
						<path id="Vector_142" class="st39" d="M187.3,289.6c-0.5,0.2-1,0.6-1.5,0.8l-0.1-0.1c-0.3-1-0.6-2-0.9-3l-0.1-0.1
							c0.8-0.7,1.5-1.4,2-2.2c0.2-0.4,0.4-0.7,0.7-1.2c0.6-1.2,1-3.2,2-4.2c0.4-0.4,1.1-0.6,1.7-0.4c0.6,0.2,1.1,0.7,1.4,1.3
							c0.1,0.2,0.2,0.5,0.4,0.7c0.2,0.4,0.4,0.8,0.4,1.2c0.1,0.7-0.2,1.4-0.6,2c-0.1,0.1-0.1,0.2-0.2,0.4c-0.9,1.5-2.2,2.5-3.5,3.6
							C188.9,288.8,188.1,289.2,187.3,289.6z"/>
						<path id="Vector_143" class="st0" d="M185.1,276.2c0.6-0.2,1.2-0.3,1.7-0.6c0.2-0.1,0.5-0.2,0.7-0.3c0.7-0.4,1.7-0.4,2.4-0.6
							c0.2-0.1,0.4-0.1,0.6-0.2c1.2-0.2,1.3,0.2,1.4,1.8c-0.8-0.6-4,0.1-4.8,0.4c-0.9,0.2-1.6,0.3-2,0.7l-0.1-0.1c0-0.3,0-0.6,0-0.9
							C185.1,276.3,185.1,276.3,185.1,276.2z"/>
						<path id="Vector_144" class="st39" d="M185.1,276.5c0,0.3,0,0.6,0,0.9l0.1,0.1c-0.3,0.2-0.5,0.7-0.5,1.4l0.1,0.2
							c-0.6,0.4-1.2,0.8-1.9,1.3c-0.6,0.4-1.1,0.8-1.8,1.1c-0.2,0.1-0.4,0.2-0.5,0.4c-0.1,0.2,0.1,0.5,0.2,0.7l-0.2,0.1
							c-2.3,0.8-4.8,1.5-7.2,1.9c-0.3-0.9-0.7-2.4-1.1-3.2l-0.1-0.1c2.2-1.3,4.9-2.5,7.2-3.3c0.9-0.3,1.9-0.6,2.9-0.9
							C183.1,276.8,184.1,276.6,185.1,276.5z"/>
						<path id="Vector_145" class="st35" d="M192.6,280.7c-0.4-0.6-0.8-1.1-1.4-1.3c-0.6-0.2-1.2,0-1.7,0.4c-1.1,1-1.4,2.9-2,4.2
							c-0.2,0.4-0.4,0.8-0.7,1.2c-0.1-2.3-0.4-4.6-1-6.9c-0.4,0.2-0.7,0.4-1.1,0.7l-0.1-0.2c0-0.7,0.2-1.1,0.5-1.4
							c0.4-0.4,1.2-0.6,2-0.7c0.9-0.2,4-0.9,4.8-0.4c0,0,0,0,0.1,0c0.6,0.5,0.6,3.5,0.7,4.3L192.6,280.7z"/>
						<path id="Vector_146" class="st0" d="M185.6,290.3C185.6,290.3,185.6,290.4,185.6,290.3l0.1,0.1c-0.7,0.4-1.2,0.6-1.2,0.7
							c0-0.1,0-0.1,0-0.1c0.1-0.9-0.4-1.7-0.7-2.5c0-0.1-0.1-0.1-0.1-0.2c0,0,0-0.1,0-0.1c0-0.1,0.1-0.2,0.2-0.3
							c0.2-0.2,0.5-0.4,0.7-0.6l0.1,0.1C185.1,288.3,185.4,289.3,185.6,290.3z"/>
						<path id="Vector_147" class="st40" d="M191.2,271.6c-0.1,0.6-0.3,1.1-0.7,1.3c-0.9,0.6-2.5,0.6-3.8,0.4
							c-0.7-0.1-1.3-0.2-1.7-0.4c-4.1-1.3-2.4-7.3-2.3-10.5c0.1,0.3,0.3,0.6,0.6,0.7c0.3,0.2,0.7,0.2,1.1,0.3c1.4,0.2,2.6,1.3,3.8,2
							c0.3,0.2,0.7,0.4,0.9,0.7c0.4,0.6,0.1,1.4,0.1,2c-0.1,1.1,0.2,2.1,0.8,3c0.1,0.1,0.2,0.2,0.4,0.3c0.2,0.1,0.5-0.1,0.7-0.2
							c0.1-0.1,0.2-0.1,0.2-0.1L191.2,271.6z"/>
						<path id="Vector_148" class="st41" d="M169.7,324.3c-0.1,0.1-0.1,0.1-0.2,0.2l-0.4-0.1c-0.5-6.1-1.5-12.2-1.9-18.4l-0.2-0.4
							l0.5-0.1c5-6.4,8.5-12.9,13.9-19.4h0.1c0.1,0.5,0.2,1.1,0.2,1.5v0.2c-0.1,0-0.2,0.1-0.2,0.1c-0.1,0.1-0.1,0.3-0.1,0.4
							c-0.1,1.2-0.1,2.7,1.5,2.8c0.2,0,0.3,0,0.5,0l0.1,0.4c0.2,2.2-0.4,4.5,0.8,6.9c0.3-0.1,0.7-0.2,1-0.2c-0.1,1.9,0,3.7,0.2,5.6
							l-0.5,0.1c-0.7,1.7-0.1,4-3,3.4c-0.6,1.7-0.6,5.3-3.5,4.6c0,0.1,0,0.1,0,0.1c0,1.2,0.5,2.9-0.7,4c-0.7,0.7-2,0.6-2.9,0.6
							c-0.1,1.1-0.5,2.4-0.9,3.5c-0.1,0.1-0.1,0.2-0.2,0.4c-0.3,0.2-0.8-0.1-1.2-0.1c-0.4-0.1-0.8,0.2-1,0.6
							c-0.2,0.3-0.4,0.7-0.6,1.1C170.7,322.9,170.2,323.6,169.7,324.3z"/>
						<path id="Vector_149" class="st42" d="M183.8,288.2c0,0.1,0,0.1,0,0.1c-0.2,0-0.5,0.1-0.7,0.2c-0.3,0.1-0.8,0.1-0.9-0.2
							c-0.1-0.1-0.1-0.3-0.2-0.4c-0.1,0-0.1-0.1-0.1-0.1v-0.2c-0.1-0.5-0.2-1.1-0.2-1.5c-0.1-0.2-0.1-0.6-0.1-0.8
							c-0.1-0.4-0.1-0.7-0.2-1.1c-0.1-0.5-0.1-1-0.3-1.5c0-0.1-0.1-0.2-0.1-0.3c-0.1-0.2-0.3-0.6-0.2-0.7c0.1-0.2,0.3-0.2,0.5-0.4
							c0.6-0.3,1.2-0.7,1.8-1.1c0.6-0.5,1.2-0.9,1.9-1.3c0.4-0.2,0.7-0.4,1.1-0.7c0.6,2.2,0.9,4.6,1,6.9c-0.6,0.8-1.2,1.5-2,2.2
							c-0.2,0.2-0.5,0.4-0.7,0.6C183.9,288,183.8,288.1,183.8,288.2z"/>
						<path id="Vector_150" class="st40" d="M183.8,288.5c0.3,0.8,0.7,1.6,0.7,2.5c-0.4,0.1-0.7,0.2-1.1,0.3c-0.2,0-0.3,0-0.5,0
							c-1.5-0.1-1.5-1.6-1.5-2.8c0-0.1,0-0.3,0.1-0.4c0.1-0.1,0.2-0.1,0.2-0.1c0.1,0,0.1,0,0.1,0.1c0.1,0.1,0.1,0.2,0.2,0.4
							c0.2,0.3,0.6,0.3,0.9,0.2C183.3,288.5,183.5,288.4,183.8,288.5C183.8,288.4,183.8,288.4,183.8,288.5z"/>
						<path id="Vector_151" class="st43" d="M174.6,287.7l-1.7,2.9H167l2.2-3.1C170.8,287.5,172.9,287.7,174.6,287.7z"/>
						<path id="Vector_152" class="st0" d="M171.9,284.7c-0.2-0.9-0.7-2-0.9-2.8c0.4-0.2,0.7-0.5,1.1-0.7l0.1,0.1
							c0.4,0.8,0.7,2.3,1,3.2C172.8,284.6,172.4,284.6,171.9,284.7C172,284.7,171.9,284.7,171.9,284.7z"/>
						<path id="Vector_153" class="st40" d="M168.8,285.5c0.5-0.2,0.8-0.6,0.7-1.3c-0.1-0.4-0.2-0.9-0.6-1.3
							c-0.2-0.2-0.6-0.4-0.9-0.4c0.6-0.7,2.2-0.7,3-0.7c0.1,0.9,0.6,2,0.9,2.8c-0.2,0.2-0.4,0.3-0.7,0.4
							C170.5,285.5,169.7,285.6,168.8,285.5z"/>
						<path id="Vector_154" class="st44" d="M148.1,323.8c-0.2-0.9-0.2-1.9-0.3-2.8c-0.2-5,0.9-10-0.6-15.1l0.1-0.3
							c0.1,0,0.1,0,0.1,0c6.5,0,13,0,19.5,0l0.2,0.4c0.4,6.2,1.4,12.2,1.9,18.4l0.4,0.1c-0.2,0.2-0.4,0.4-0.7,0.4
							c-0.6,0.1-1-0.4-1.5-0.5c-1.4-0.3-2.2,1.5-3.8,0.9c-1-0.4-1.4-1.5-2.7-1.1c-0.7,0.2-1.2,1-2,1c-0.7,0-1.2-0.8-1.9-0.9
							c-1-0.2-1.7,1.2-2.7,1.1c-0.4-0.1-0.8-0.4-1.2-0.6c-1.5-1.1-3.2-0.2-4.6,0.7C148.3,325,148.2,324.4,148.1,323.8z"/>
						<path id="Vector_155" class="st45" d="M168,282.5c0.3,0.1,0.6,0.2,0.9,0.4c0.3,0.4,0.5,0.8,0.6,1.3c0.1,0.6-0.2,1.1-0.7,1.3
							c-0.2,0.1-0.5,0.2-0.8,0.4c-1,0.4-2.6,0.1-3.5-0.5h-0.2c-0.1-0.5-0.1-1.1-0.1-1.2c0-0.2,0-0.4,0.1-0.5h0.2
							c0.4-0.2,0.8-0.5,1.2-0.7c0.2-0.1,0.4-0.2,0.6-0.2c0.2-0.1,0.4-0.1,0.6-0.1C167.2,282.5,167.6,282.5,168,282.5z"/>
						<path id="Vector_156" class="st46" d="M166.2,293.4c-0.6-0.1-1.3-0.1-1.9-0.3c0.1-0.4,0.2-0.7,0.7-0.9c0.2-0.1,0.4,0,0.5,0
							c1.4,0.1,2.7,0.2,4.1,0.4c0.7,0.1,1.5,0.2,2,0.8c0.1,0.1-0.6,0.2-0.9,0.2c-0.1,0-0.2,0-0.2,0c-0.6,0-1.2,0-1.8-0.1
							C167.7,293.6,166.9,293.5,166.2,293.4z"/>
						<path id="Vector_157" class="st0" d="M162.9,294.7c0.7,1.1,1.4,2.2,2,3.2c0,0,0.1,0.1,0.1,0.1c0,0.1,0,0.1-0.1,0.1
							c-0.4,0.6-0.9,1.2-1.2,1.9c-0.1,0.2-0.9,1.4-1,1.3c-0.4-0.6-0.9-1-1.3-1.5c-0.2-0.2-0.4-0.6-0.7-0.9c-0.1-0.2-0.3-0.4-0.4-0.6
							c-0.1-0.1-0.1-0.2-0.1-0.3c-0.1-0.2,0.1-0.3,0.3-0.6C161.3,296.6,162.1,295.6,162.9,294.7z"/>
						<path id="Vector_158" class="st47" d="M161.1,286.5l0.1,0.3c-0.4,0.5-1.8,2.4-3.5,4.8c-0.1-1.4-0.3-2.7-0.7-4.1v-0.6
							C158.4,286.9,159.7,286.7,161.1,286.5z"/>
						<path id="Vector_159" class="st48" d="M160.8,299c0.2,0.3,0.4,0.6,0.7,0.9l-0.1,0.1c-0.4,0.6-0.9,1.1-1.4,1.5
							c0.1-1.1,0.2-2.2,0.1-3.4h0.1c0,0.1,0.1,0.2,0.1,0.3C160.5,298.5,160.7,298.8,160.8,299z"/>
						<path id="Vector_160" class="st49" d="M160.5,297.5c-0.2,0.2-0.3,0.4-0.3,0.6h-0.1c0.1,1.1,0,2.3-0.1,3.4
							c0.4-0.5,0.9-1.1,1.4-1.5l0.1-0.1c0.4,0.5,0.9,1,1.3,1.5c0.1,0.1,0.9-1.2,1-1.3c0.3-0.7,0.8-1.2,1.2-1.9
							c0-0.1,0.1-0.1,0.1-0.1c0-0.1,0-0.1-0.1-0.1c-0.7-1.1-1.4-2.2-2-3.2C162.1,295.6,161.3,296.6,160.5,297.5z M164.5,285.9
							c-0.1,0-0.2-0.2-0.2-0.6h0.2c0.9,0.6,2.5,0.9,3.5,0.5c0.2-0.1,0.6-0.2,0.8-0.4v0.1c0.8,0.1,1.6-0.1,2.3-0.4l0.1,0.2
							c3.3,0,6.5,0,9.8,0l0.2-0.1c0.1,0.2,0.1,0.6,0.1,0.8h-0.1c-5.4,6.6-8.9,13-13.9,19.4l-0.5,0.1c-6.5,0-13,0-19.5,0v-0.1
							c0.2-0.4,1.5-2.1,3.1-4.4c2.1-2.8,4.8-6.6,7-9.5c1.8-2.4,3.2-4.3,3.5-4.8l-0.1-0.3C162.3,286.4,163.4,286.2,164.5,285.9z
							 M172.8,290.6l1.7-2.9c-1.7,0-3.7-0.2-5.4-0.2l-2.2,3.1H172.8z M170.5,293.7c0.4-0.1,1.1-0.2,0.9-0.2c-0.4-0.6-1.3-0.7-2-0.8
							c-1.4-0.1-2.7-0.2-4.1-0.4c-0.2,0-0.4-0.1-0.5,0c-0.4,0.1-0.6,0.5-0.7,0.9c0.6,0.2,1.3,0.2,1.9,0.3c0.8,0.1,1.5,0.1,2.3,0.2
							c0.6,0.1,1.2,0.1,1.8,0.1C170.3,293.7,170.4,293.7,170.5,293.7z"/>
						<path id="Vector_161" class="st50" d="M157,287.5c0.4,1.4,0.6,2.7,0.7,4.1c-2.2,3-4.9,6.7-7,9.5l-0.1-0.1
							c-1.1,0.2-1.9,1.2-3,1.6c-0.6,0.2-1.2,0.2-1.9,0.2c-0.1,0-0.3,0-0.5,0c-0.4,0-0.7-0.1-0.9-0.4c-0.1-0.2-0.1-0.4-0.1-0.7
							c0-1.5,0.1-2.8,0.4-4.3c0.7-5.2-1-10-1.4-15.1h0.1c0.1,0.5,0.2,1,0.4,1.4c0.5,0.9,1.4,1.4,2.3,1.7c1.7,0.6,3.6,0.8,5.4,1.1
							c1.4,0.2,2.7,0.3,4.1,0.4c0.4,0,0.9,0,1.4,0L157,287.5z"/>
						<path id="Vector_162" class="st50" d="M154.5,275.2c2,1.1,1.2,4.7,1.9,6.5v0.1c-0.3-0.1-0.6-0.2-0.8-0.4
							c-1.1-0.7-2-1.7-3.2-2.3c-1.1-0.6-2.3-0.9-3.6-1.1c-0.7-0.1-1.4-0.2-2.2-0.2c1-0.6,2.4-1.6,3.9-2.2
							C151.9,274.8,153.4,274.6,154.5,275.2z"/>
						<path id="Vector_163" class="st45" d="M152.4,264.3c0.1-0.1,0.1-0.2,0.2-0.2l0.4,0.1c0.7,2,1.1,7.2-0.6,8.7
							c-0.5,0.4-1.1,0.7-1.9,0.8c-1.5,0.2-3.2-0.2-4.5-0.8c-0.4-0.2-0.9-0.4-1.2-0.6l-0.1-0.1c0.1-0.1,0.2-0.1,0.4-0.2
							c1.1-0.7,0.6-2.6,1.4-3.7c0.3-0.4,0.8-0.7,1.3-1.1C149.4,266.4,151.1,265.7,152.4,264.3z"/>
						<path id="Vector_164" class="st51" d="M151,260.5c2.2,0.4,2.7,1.9,1.5,3.5c-0.1,0.1-0.1,0.2-0.2,0.2c-1.2,1.4-3,2.1-4.6,3
							c-0.5,0.2-1,0.6-1.3,1.1c-0.7,1.1-0.2,3-1.4,3.7c-0.1,0.1-0.2,0.1-0.4,0.2c-0.6,0.2-1.4,0.1-2,0.3c-1.8,0.5-2.2,2.8-2,4.8
							c0.2,1.9,0.5,4-0.8,5.4c-0.6,0.6-1.5,0.9-2.3,1.2c-1.4,0.5-3.4,0.7-4.1-0.6c-0.7-1.5,1-3,1.1-4.6c0.1-1.4-1.2-2.7-1.4-4.1
							c-0.3-1.9,1.2-3.7,2.9-4.6c0.9-0.6,4.7-1.7,5.1-2.7c0.5-1.4-1.5-1.3-2.2-2.1c-3.1-4.3,4.9-8.8,6.4-4.7
							c0.1,0.2,0.1,0.5,0.3,0.7c0.7,0.9,1.7-0.3,2.4-0.6c0.7-0.2,2-0.2,2.7-0.1C150.9,260.5,151,260.5,151,260.5z"/>
						<path id="Vector_165" class="st47" d="M153.6,274.4c3.8-0.4,4.3,5.5,5.3,8v0.1c-0.9-0.1-1.7-0.4-2.5-0.7v-0.1
							c-0.6-1.9,0.2-5.4-1.9-6.5c-1.2-0.6-2.6-0.3-4,0.3c0-0.1,0-0.2,0-0.2h0.2C151.5,274.7,152.7,274.5,153.6,274.4z"/>
						<path id="Vector_166" class="st52" d="M150.5,273.7c0,0.4,0,1.1,0,1.5c0,0.1,0,0.2,0,0.2c-1.5,0.6-2.9,1.6-3.9,2.2
							c-0.1,0-0.2,0-0.3,0c0-1.6,0.1-3.1-0.4-4.7l0.1-0.1C147.3,273.5,149,273.9,150.5,273.7z"/>
						<path id="Vector_167" class="st53" d="M148.1,323.8c-0.7,0-1.4-0.1-2-0.3c-0.1,0-0.2-0.1-0.2-0.1c-0.1-0.1-0.1-0.2-0.1-0.4
							c0-0.7,0-1.4,0.1-2c0.6,0,1.2,0,1.9,0h0.2C147.8,321.9,147.9,322.9,148.1,323.8z"/>
						<path id="Vector_168" class="st54" d="M146.6,277.7c0.7-0.1,1.4,0.1,2.2,0.2c1.2,0.2,2.5,0.5,3.6,1.1c1.2,0.6,2.1,1.6,3.2,2.3
							c0.2,0.2,0.6,0.3,0.8,0.4c0.8,0.4,1.6,0.6,2.5,0.7c1.5,0.2,3.1,0.2,4.7,0.4c0.7,0.1,0.8,0.4,0.7,0.8c0,0.1,0,0.3-0.1,0.5
							c0,0.1,0,0.7,0.1,1.2c0.1,0.3,0.1,0.6,0.2,0.6c-1.2,0.2-2.3,0.4-3.4,0.6c-1.4,0.2-2.8,0.4-4.2,0.4c-0.4,0-0.9,0-1.4,0
							c-1.4-0.1-2.7-0.2-4.1-0.4c-1.9-0.2-3.6-0.4-5.4-1.1c-0.9-0.3-1.9-0.8-2.3-1.7c-0.2-0.4-0.4-0.9-0.4-1.4
							c-0.1-1.7,0.6-3.8,2-4.5c0.3-0.1,0.6-0.2,0.9-0.2C146.5,277.7,146.5,277.7,146.6,277.7z"/>
						<path id="Vector_169" class="st55" d="M150.7,301.1c-1.7,2.2-2.9,4-3.2,4.4v0.1c-0.1,0-0.1,0-0.1,0l-0.1,0.3
							c1.4,5.2,0.3,10.1,0.6,15.1h-0.2c-0.6,0-1.2,0-1.9,0c-0.1,0-0.1,0-0.2,0c-0.1,0-0.2,0-0.2-0.1c-0.1-0.1-0.1-0.2-0.1-0.3
							c0.2-5.9,0.4-11.8,0-17.7c0.2,0,0.3,0,0.5,0c0.6,0,1.2-0.1,1.9-0.2c1.1-0.4,1.9-1.4,3-1.6H150.7z"/>
					</g>
				</g>
			</g>
			<g id="symbols">
				<g id="wrench">
					<g id="Group_63">
						<g id="XMLID_6">
							<g id="Group_64">
								<path id="Vector_170" class="st56" d="M227.4,142.8c0.1,0.2,0.1,0.4,0.1,0.6c0.1,0.4,0.1,0.8,0.2,1.2c0.1,1.4-0.1,3-0.7,4.6
									c-0.2,0.7-0.6,1.3-1,1.7c-0.6,0.6-1.2,1.1-2.1,1.4c-0.7,0.4-1.2,0.6-1.4,1.3c-0.2,0.9-0.2,1.8-0.3,2.7c0,0.3,0,0.6-0.1,0.9
									c-0.2,2.5-0.4,4.8-0.6,7.2c0,0.4-0.1,0.7-0.1,1.1c-0.1,0.4-0.1,0.9-0.1,1.4c0,0.6-0.1,1.2-0.7,1.6c-0.1,0.1-0.2,0.1-0.4,0.2
									c-0.2,0.1-0.6,0.1-0.9,0.1h-0.2c-1,0-2,0-3-0.7c-0.6-0.6-0.5-1.5-0.4-2.4c0-0.1,0.1-0.3,0.1-0.4c0.1-1.5,0.1-2.6,0.2-3.6
									c0.1-1.7,0.4-3.5,0.6-4.9c0.1-0.4,0.1-0.9,0.1-1.3c0.1-0.4,0.1-0.9,0.1-1.3c0-0.1,0-0.2,0.1-0.2c0.1-0.5,0.1-1.1-0.1-1.4
									c-0.1-0.1-0.2-0.2-0.4-0.3c-0.1-0.1-0.1-0.1-0.2-0.1c-1.9-1.1-3-2.5-3.4-4.3c-0.4-1.8-0.2-3.6,0.4-5.1
									c0.7-1.6,2.5-3.3,4.6-3.2c0.3,0,0.6,0.1,0.8,0.3c0.2,0.2,0.2,0.6,0.2,0.9c-0.1,0.9-0.2,1.7-0.3,2.5
									c-0.1,0.7-0.2,1.4-0.2,2.1c0,0.1,0,0.1,0,0.2s0,0.1,0,0.2c0.2,0.7,1.1,0.9,2.8,0.8c0.2-0.1,0.4-0.1,0.6-0.2
									c0.1-0.1,0.2-0.3,0.2-0.6c0.1-1,0.2-1.9,0.3-2.8c0.1-0.5,0.1-1,0.1-1.4c0-0.1,0-0.2,0-0.2c0-0.3,0-0.7,0.2-1
									c0.2-0.2,0.6-0.4,1.1-0.3c1.1,0.1,2.5,1.2,3,1.8C226.9,141.6,227.1,142.1,227.4,142.8z M227.1,143.4
									c-0.1-0.2-0.1-0.4-0.1-0.5c-0.2-0.6-0.5-1.1-0.7-1.4c-0.4-0.5-1.7-1.5-2.7-1.6c-0.3,0-0.6,0.1-0.8,0.2
									c-0.1,0.1-0.1,0.4-0.1,0.7c0,0.1,0,0.2,0,0.2c0,0.4-0.1,0.9-0.1,1.4c-0.1,0.9-0.2,1.9-0.3,2.8c-0.1,0.2-0.1,0.6-0.3,0.8
									c-0.2,0.2-0.6,0.2-0.8,0.3c-0.7,0.1-2.8,0.2-3.2-1.1c-0.1-0.1,0-0.2,0-0.3c0-0.1,0-0.1,0-0.1c0.1-0.7,0.2-1.5,0.2-2.2
									c0.1-0.8,0.2-1.6,0.2-2.5c0-0.2,0-0.5-0.1-0.6c-0.1-0.1-0.3-0.2-0.5-0.2c-0.4,0-0.9,0-1.3,0.1c-1.4,0.4-2.5,1.6-3,2.8
									c-0.6,1.4-0.8,3.2-0.4,4.9c0.4,1.7,1.4,3,3.2,4.1c0.1,0.1,0.1,0.1,0.2,0.1c0.2,0.1,0.3,0.2,0.5,0.4c0.4,0.5,0.3,1.2,0.2,1.7
									c0,0.1,0,0.2-0.1,0.2c-0.1,0.4-0.1,0.9-0.1,1.3s-0.1,0.9-0.1,1.3c-0.2,1.5-0.4,3.2-0.6,4.9c-0.1,1.1-0.2,2.2-0.2,3.7
									c0,0.1,0,0.3-0.1,0.4c-0.1,0.7-0.2,1.6,0.3,2c0.7,0.6,1.7,0.7,2.7,0.7h0.2c0.4,0,0.7,0,1.1-0.2c0.5-0.2,0.5-0.7,0.5-1.2
									c0-0.5,0.1-1,0.1-1.5c0.1-0.4,0.1-0.7,0.1-1.1c0.2-2.4,0.4-4.6,0.6-7.2c0-0.2,0.1-0.6,0.1-0.8c0.1-0.9,0.1-1.9,0.3-2.8
									c0.2-0.9,0.8-1.2,1.6-1.5c0.8-0.3,1.5-0.8,2-1.4c0.4-0.4,0.7-1,0.9-1.6c0.6-1.5,0.8-3,0.7-4.4
									C227.2,144.2,227.2,143.7,227.1,143.4z"/>
								<path id="Vector_171" class="st57" d="M227,142.9c0,0.2,0.1,0.3,0.1,0.5c0.1,0.4,0.1,0.8,0.2,1.2c0.1,1.4-0.1,2.9-0.7,4.4
									c-0.2,0.6-0.6,1.2-0.9,1.6c-0.5,0.6-1.2,1-2,1.4c-0.7,0.4-1.4,0.6-1.6,1.5c-0.2,0.9-0.2,1.9-0.3,2.8c0,0.3,0,0.6-0.1,0.8
									c-0.2,2.5-0.4,4.8-0.6,7.2c0,0.4-0.1,0.7-0.1,1.1c-0.1,0.5-0.1,0.9-0.1,1.5c0,0.6,0,1-0.5,1.2c-0.2,0.2-0.7,0.2-1.1,0.2
									h-0.2c-1,0-1.9,0-2.7-0.7c-0.5-0.4-0.4-1.3-0.3-2c0-0.2,0.1-0.3,0.1-0.4c0.1-1.5,0.1-2.6,0.2-3.6c0.1-1.7,0.4-3.5,0.6-5
									c0.1-0.4,0.1-0.9,0.1-1.3c0.1-0.4,0.1-0.9,0.1-1.3c0-0.1,0-0.2,0.1-0.2c0.1-0.6,0.2-1.3-0.2-1.7c-0.1-0.1-0.3-0.2-0.5-0.4
									c-0.1-0.1-0.1-0.1-0.2-0.1c-1.8-1.1-2.8-2.4-3.2-4.1c-0.4-1.7-0.2-3.5,0.4-4.9c0.5-1.2,1.6-2.4,3-2.8
									c0.4-0.1,0.8-0.2,1.3-0.1c0.2,0,0.4,0.1,0.5,0.2c0.1,0.1,0.1,0.4,0.1,0.6c-0.1,0.8-0.2,1.7-0.2,2.5
									c-0.1,0.7-0.2,1.4-0.2,2.2c0,0.1,0,0.1,0,0.1c0,0.1,0,0.2,0,0.3c0.4,1.3,2.5,1.1,3.2,1.1c0.2-0.1,0.6-0.1,0.8-0.3
									c0.2-0.2,0.2-0.5,0.3-0.8c0.2-1,0.2-2,0.3-2.8c0.1-0.5,0.1-1,0.1-1.4c0-0.1,0-0.2,0-0.2c0-0.2,0-0.6,0.1-0.7
									c0.2-0.2,0.4-0.2,0.8-0.2c1,0.1,2.3,1.1,2.7,1.6C226.6,141.8,226.8,142.3,227,142.9z M219.9,164.9c0-0.5-0.2-0.9-0.6-1.1
									c-0.4-0.2-1.1-0.2-1.5,0.1c-0.4,0.2-0.6,0.7-0.6,1.1c0.1,0.7,0.7,1.1,1.4,1.1c0.1,0,0.3,0,0.4-0.1c0.4-0.1,0.7-0.4,0.8-0.9
									C219.9,165.1,219.9,165,219.9,164.9z"/>
							</g>
						</g>
					</g>
				</g>
				<g id="flask">
					<g id="XMLID_4">
						<g id="Group_65">
							<path id="Vector_172" class="st58" d="M224.8,100.7c0.7,4-7.3,4.8-9.8,4.8c-2.2,0-4.4-0.3-6.4-1.1c-1.4-0.6-3.1-1.7-3.7-3.2
								c-0.7-1.8,1.4-4.6,2.2-6.1c0.2-0.4,0.8-1.3,1.4-2.3c0,0.1-0.1,0.1-0.1,0.2c0,1.1,2.8,1.9,6.3,1.9c3.5,0,6.3-0.9,6.3-1.9
								c0-0.1-0.1-0.2-0.1-0.4l0.1-0.1l1.1,1.7C222,94.4,224.4,98.8,224.8,100.7z"/>
							<path id="Vector_173" class="st59" d="M218,87.9l2.9,4.8l-0.1,0.1c-0.6-0.9-3.2-1.5-6.2-1.5c-3,0-5.4,0.6-6.1,1.4
								c1.1-1.9,2.4-4.1,2.4-4.4c0.1-1.4,0.1-2.7,0.1-4.1c0.1-2,0.4-3.9-1.5-5.3c-0.5-0.4-0.9-0.7-0.7-1.4c0.2-0.8,3.5-0.7,4.1-0.7
								c1.9-0.1,3.9,0,5.8,0.1c0.2,0,0.5,0,0.7,0.1c0.6,0.2,0.7,0.9,0.3,1.4c-0.2,0.2-0.4,0.4-0.7,0.6c-0.3,0.2-0.5,0.5-0.7,0.8
								c-0.6,0.9-0.6,2-0.6,3.2C217.9,84.9,218,86,218,87.9z"/>
							<path id="Vector_174" class="st60" d="M220.9,92.8c0.1,0.1,0.1,0.2,0.1,0.4c0,1.1-2.8,1.9-6.3,1.9c-3.5,0-6.3-0.9-6.3-1.9
								c0-0.1,0-0.1,0.1-0.2c0.1-0.1,0.1-0.2,0.1-0.2c0.7-0.8,3.1-1.4,6.1-1.4C217.7,91.3,220.3,91.9,220.9,92.8z"/>
							<path id="Vector_175" class="st61" d="M208.6,92.7c-0.1,0.1-0.1,0.2-0.1,0.2C208.5,92.8,208.5,92.8,208.6,92.7z"/>
						</g>
					</g>
					<g id="bubbles">
						<path id="Vector_176" class="st62" d="M214.9,86.8c0.6,0,1-0.5,1-1.1s-0.5-1.1-1-1.1s-1.1,0.5-1.1,1.1S214.3,86.8,214.9,86.8z
							"/>
						<path id="Vector_177" class="st62" d="M211.2,72.8c0.6,0,1.1-0.5,1.1-1.1c0-0.6-0.5-1.1-1.1-1.1s-1.1,0.5-1.1,1.1
							C210.1,72.4,210.6,72.8,211.2,72.8z"/>
						<path id="Vector_178" class="st62" d="M218,69.2c0.9,0,1.7-0.7,1.7-1.7c0-0.9-0.7-1.7-1.7-1.7s-1.7,0.7-1.7,1.7
							C216.3,68.4,217,69.2,218,69.2z"/>
						<path id="Vector_179" class="st62" d="M214.3,81.3c0.3,0,0.6-0.3,0.6-0.6c0-0.3-0.3-0.6-0.6-0.6c-0.3,0-0.6,0.3-0.6,0.6
							C213.6,81,213.9,81.3,214.3,81.3z"/>
						<path id="Vector_180" class="st62" d="M212.7,100.9c0.6,0,1-0.5,1-1.1c0-0.6-0.5-1.1-1-1.1c-0.6,0-1,0.5-1,1.1
							C211.6,100.5,212.1,100.9,212.7,100.9z"/>
						<path id="Vector_181" class="st62" d="M217.2,103.8c0.3,0,0.6-0.3,0.6-0.6c0-0.3-0.3-0.6-0.6-0.6c-0.3,0-0.6,0.3-0.6,0.6
							C216.5,103.5,216.8,103.8,217.2,103.8z"/>
					</g>
				</g>
				<g id="gear">
					<g id="circle_2">
						<g id="XMLID_5">
							<g id="Group_66">
								<path id="Vector_182" class="st63" d="M121.4,123.5c-0.7-1.2-1.7-1.3-3-1.5h-0.1h-0.1c-1.5-0.2-2.5-0.4-3.8,1.1
									c-0.1,0.1-0.2,0.2-0.4,0.4c-0.3,0.3-0.6,0.7-0.8,0.7c-0.1,0-0.6,0-1.7-0.9c-0.6-0.5-0.8-0.9-0.9-1.1
									c-0.2-0.4-0.2-0.6,0.4-1.2c0.1-0.1,0.2-0.2,0.2-0.3c0.9-1.1,1.1-1.9,0.3-4.1c-0.2-0.7-0.4-1.2-0.7-1.5
									c-0.7-1.2-1.5-1.5-2.5-1.5c-0.1,0-0.1,0-0.2,0c-0.6,0-0.9-0.1-1.1-0.4c-0.2-0.3-0.2-0.9-0.1-1.7c0.2-1.4,0.6-1.7,0.7-1.8
									c0.2-0.1,0.7-0.1,1.1,0.1h0.1c0.2,0.1,0.3,0.1,0.5,0.1c1.4,0.2,2.5-0.4,3.6-2c1.4-1.8,1.2-2.8,0.9-3.8
									c-0.1-0.1-0.1-0.1-0.1-0.2c-0.1-0.1-0.1-0.2-0.1-0.4c-0.2-0.4-0.3-0.8-0.2-1.1c0.1-0.3,0.6-0.6,1.3-0.9
									c1.9-0.7,2.1-0.2,2.3,0.1c0.1,0.2,0.2,0.4,0.3,0.6l0.1,0.2c0.1,0.2,0.2,0.5,0.4,0.7c0.7,1.2,1.6,1.5,3.1,1.8
									c1.9,0.3,3.3,0.6,4.4-1.3c0.1-0.2,0.3-0.4,0.4-0.6c0.1-0.2,0.3-0.2,0.4-0.3c0.1-0.1,0.6,0,1.4,0.6c0.7,0.5,1.1,0.9,1.4,1.4
									c0.2,0.4,0.3,0.7-0.4,1.5c-1.4,1.4-1.5,2-0.7,4.1c0.2,0.6,0.4,1.1,0.6,1.5c0.7,1.4,1.6,1.5,2.3,1.6c0.1,0,0.1,0.1,0.2,0.1
									c0.1,0,0.2,0,0.2,0.1c0.6,0.1,1.1,0.2,1.2,0.5c0.1,0.2,0.2,0.6-0.1,1.7c-0.3,1.4-0.7,1.7-1,1.9c-0.2,0.1-0.6,0.1-1-0.1
									c-1.8-0.6-3.1,0.5-4.2,1.7c-1.5,1.7-1.4,2.8-1,3.7l0.1,0.1c0.1,0.2,0.2,0.5,0.3,0.7c0.1,0.3,0.3,0.7,0.2,0.8
									c0,0.1-0.2,0.4-1.3,0.8c-2,0.8-2.2,0.3-2.4,0.1c-0.1-0.2-0.2-0.5-0.4-0.8C121.7,124.1,121.6,123.8,121.4,123.5z
									 M121.4,116.6c1.7-1,2.3-3.2,1.4-4.9c-1-1.7-3.2-2.4-4.9-1.4c-1.7,1-2.3,3.2-1.4,4.9C117.4,117,119.6,117.6,121.4,116.6z"/>
								<path id="Vector_183" class="st64" d="M110.4,120.1c0.6-0.7,0.9-1.1,0.1-3.2c-0.2-0.6-0.4-1.1-0.6-1.4
									c-0.4-0.8-0.9-1-1.7-1.1c-0.3,0-1.5,0-2.1-1c-0.3-0.5-0.4-1.2-0.2-2.4c0.6-3.5,2.4-2.8,3.3-2.5c0.8,0.2,1.7,0.2,3-1.5
									c1.2-1.7,0.9-2.3,0.6-3.1c-0.2-0.7-1.4-2.5,1.6-3.7c2.3-0.9,3.1-0.2,3.6,0.6c0.1,0.2,0.3,0.6,0.4,0.9
									c0.1,0.2,0.2,0.4,0.3,0.6c0.4,0.7,0.9,1.1,2.4,1.2c1.9,0.3,2.6,0.4,3.3-0.9c0.7-1,1.5-2.2,3.8-0.4c0.7,0.6,1.2,1.2,1.5,1.6
									c0.7,1.2,0.1,2-0.5,2.6c-1,1-1.2,1.2-0.4,3c0.2,0.6,0.4,1,0.6,1.4c0.6,1.1,1.1,1,1.9,1.2c0.6,0.1,1.7,0.2,2.2,1.1
									c0.3,0.5,0.4,1.3,0.1,2.5c-0.8,3.2-2.4,2.8-3.3,2.5c-0.9-0.3-1.7-0.1-3.1,1.4c-1.4,1.5-1,2.2-0.8,2.8
									c0.3,1.1,1.7,2.4-1.4,3.7c-2.3,0.9-3.1,0.5-3.6-0.4c-0.1-0.2-0.3-0.6-0.4-1c-0.1-0.3-0.2-0.6-0.3-0.7
									c-0.4-0.7-1.1-0.7-2.5-1c-1.5-0.2-1.9-0.4-3,0.8c-1.1,1.1-1.6,2.5-4.3,0.2c-0.6-0.5-1-0.9-1.2-1.4
									C109,121.4,110,120.7,110.4,120.1z M106.9,111.2c-0.1,0.8-0.1,1.4,0.1,1.7c0.2,0.3,0.6,0.4,1.1,0.4c0.1,0,0.1,0,0.2,0
									c1.1,0.1,1.9,0.4,2.5,1.5c0.2,0.4,0.4,0.9,0.7,1.5c0.8,2.3,0.6,3.1-0.3,4.1c-0.1,0.1-0.2,0.2-0.2,0.3
									c-0.6,0.6-0.6,0.8-0.4,1.2c0.1,0.2,0.4,0.6,0.9,1.1c1.1,0.9,1.6,1,1.7,0.9c0.2,0,0.5-0.4,0.8-0.7c0.1-0.1,0.2-0.2,0.4-0.4
									c1.4-1.5,2.3-1.4,3.8-1.1h0.1h0.1c1.4,0.2,2.4,0.3,3,1.5c0.1,0.2,0.2,0.6,0.4,1c0.1,0.3,0.2,0.6,0.4,0.8
									c0.2,0.3,0.4,0.7,2.4-0.1c1.1-0.4,1.3-0.7,1.3-0.8c0.1-0.2-0.1-0.5-0.2-0.8c-0.1-0.2-0.2-0.5-0.3-0.7l-0.1-0.1
									c-0.3-0.9-0.5-2,1.1-3.7c1.1-1.2,2.4-2.4,4.2-1.7c0.4,0.1,0.7,0.2,1,0.1c0.2-0.1,0.7-0.6,1-1.9c0.2-1.1,0.1-1.5,0.1-1.7
									c-0.2-0.3-0.7-0.4-1.2-0.5c-0.1,0-0.2,0-0.2-0.1c-0.1,0-0.1-0.1-0.2-0.1c-0.7-0.1-1.6-0.2-2.3-1.6c-0.2-0.4-0.4-0.9-0.6-1.5
									c-0.8-2.1-0.7-2.8,0.7-4.1c0.7-0.7,0.7-1,0.4-1.5c-0.2-0.4-0.6-0.9-1.4-1.4c-0.9-0.6-1.2-0.7-1.4-0.6
									c-0.1,0-0.3,0.1-0.4,0.3c-0.1,0.1-0.3,0.4-0.4,0.6c-1.1,1.9-2.5,1.6-4.4,1.3c-1.6-0.2-2.5-0.6-3.1-1.8
									c-0.1-0.2-0.2-0.5-0.4-0.7l-0.1-0.2c-0.1-0.2-0.2-0.4-0.3-0.6c-0.2-0.4-0.4-0.8-2.3-0.1c-0.7,0.2-1.2,0.6-1.3,0.9
									c-0.1,0.2,0,0.6,0.2,1.1c0.1,0.1,0.1,0.2,0.1,0.4c0,0,0,0.1,0.1,0.2c0.3,1,0.6,2-0.9,3.8c-1.1,1.5-2.2,2.2-3.6,2
									c-0.2,0-0.3-0.1-0.5-0.1h-0.1c-0.4-0.1-0.8-0.2-1.1-0.1C107.5,109.5,107.1,109.9,106.9,111.2z"/>
							</g>
						</g>
					</g>
				</g>
				<g id="terminal">
					<g id="XMLID_1">
						<g id="Group_67">
							<path id="Vector_184" class="st65" d="M131.4,169.9v12.6c0,1.2-1,2.2-2.2,2.2h-24c-1.2,0-2.2-1-2.2-2.2v-12.6
								c9.3,0,18.7,0,27.9,0H131.4z"/>
							<path id="Vector_185" class="st66" d="M131.4,166.8v3H131c-9.3,0-18.7,0-27.9,0v-3c0-1.2,1-2.2,2.2-2.2h24
								C130.4,164.7,131.4,165.7,131.4,166.8z"/>
						</g>
					</g>
					<g id="Layer_23">
						<g id="Group_68">
							<g id="Group_69">
								<g id="Group_70">
									<path id="Vector_186" class="st67" d="M119.5,177.7c0.1-1.2,0-3.5-1.6-3.8c-1.7-0.3-2,1.9-2.1,3.2c-0.1,1.2,0,4,1.9,3.9
										C119.2,180.9,119.3,178.8,119.5,177.7c0.1-0.4-0.7-0.4-0.7,0c-0.1,0.5-0.1,1.5-0.4,1.9c-1.2,1.7-1.8-0.7-1.9-1.2
										c-0.1-0.4,0-0.9,0-1.3c0-0.7,0.6-3.7,1.9-1.9c0.5,0.7,0.4,1.7,0.4,2.5C118.7,178.1,119.5,178.1,119.5,177.7z"/>
								</g>
							</g>
							<g id="Group_71">
								<g id="Group_72">
									<path id="Vector_187" class="st67" d="M118.5,175.2c-0.8,1.1-1.7,2.1-2.5,3.1c-0.3,0.4,0.2,0.9,0.5,0.5
										c0.9-1.1,1.7-2,2.5-3.1C119.3,175.4,118.8,174.9,118.5,175.2z"/>
								</g>
							</g>
						</g>
						<g id="Group_73">
							<g id="Group_74">
								<g id="Group_75">
									<path id="Vector_188" class="st67" d="M113,174.3c0,2,0,4.1,0,6.2c0,0.4,0.7,0.4,0.7,0c0-2,0-4.1,0-6.2
										C113.8,173.8,113,173.8,113,174.3z"/>
								</g>
							</g>
							<g id="Group_76">
								<g id="Group_77">
									<path id="Vector_189" class="st67" d="M113,174.1c-0.2,0.3-0.4,0.7-0.6,1.1c-0.2,0.4,0.4,0.7,0.6,0.4
										c0.2-0.4,0.4-0.7,0.6-1.1C113.9,174,113.3,173.7,113,174.1z"/>
								</g>
							</g>
							<g id="Group_78">
								<g id="Group_79">
									<path id="Vector_190" class="st67" d="M112.5,180.8c0.6,0,1.2,0,1.9,0c0.4,0,0.4-0.7,0-0.7c-0.6,0-1.2,0-1.9,0
										C112.1,180.1,112.1,180.8,112.5,180.8z"/>
								</g>
							</g>
						</g>
						<g id="Group_80">
							<g id="Group_81">
								<g id="Group_82">
									<path id="Vector_191" class="st67" d="M121.6,174.3c0,2,0,4.1,0,6.2c0,0.4,0.7,0.4,0.7,0c0-2,0-4.1,0-6.2
										C122.2,173.8,121.6,173.8,121.6,174.3z"/>
								</g>
							</g>
							<g id="Group_83">
								<g id="Group_84">
									<path id="Vector_192" class="st67" d="M121.5,174.1c-0.2,0.3-0.4,0.7-0.6,1.1c-0.2,0.4,0.4,0.7,0.6,0.4
										c0.2-0.4,0.4-0.7,0.6-1.1C122.4,174,121.8,173.7,121.5,174.1z"/>
								</g>
							</g>
							<g id="Group_85">
								<g id="Group_86">
									<path id="Vector_193" class="st67" d="M121,180.8c0.6,0,1.2,0,1.9,0c0.4,0,0.4-0.7,0-0.7c-0.6,0-1.2,0-1.9,0
										C120.6,180.1,120.6,180.8,121,180.8z"/>
								</g>
							</g>
						</g>
						<g id="Group_87">
							<g id="Group_88">
								<g id="Group_89">
									<path id="Vector_194" class="st67" d="M128,177.7c0.1-1.2,0-3.5-1.6-3.8c-1.7-0.3-2,1.9-2.1,3.2c-0.1,1.2,0,4,1.9,3.9
										C127.6,180.9,127.9,178.8,128,177.7c0.1-0.4-0.7-0.4-0.7,0c-0.1,0.5-0.1,1.5-0.4,1.9c-1.2,1.7-1.8-0.7-1.9-1.2
										c-0.1-0.4,0-0.9,0-1.3c0-0.7,0.6-3.7,1.9-1.9c0.5,0.7,0.4,1.7,0.4,2.5C127.2,178.1,127.9,178.1,128,177.7z"/>
								</g>
							</g>
							<g id="Group_90">
								<g id="Group_91">
									<path id="Vector_195" class="st67" d="M127.1,175.2c-0.8,1.1-1.7,2.1-2.5,3.1c-0.3,0.4,0.2,0.9,0.5,0.5
										c0.9-1.1,1.7-2,2.5-3.1C127.9,175.4,127.4,174.9,127.1,175.2z"/>
								</g>
							</g>
						</g>
						<g id="zero_0">
							<g id="Group_92">
								<g id="Group_93">
									<path id="Vector_196" class="st67" d="M110.6,177.7c0.1-1.2,0-3.5-1.6-3.8c-1.7-0.3-2,1.9-2.1,3.2c-0.1,1.2,0,4,1.9,3.9
										C110.3,180.9,110.5,178.8,110.6,177.7c0.1-0.4-0.7-0.4-0.7,0c-0.1,0.5-0.1,1.5-0.4,1.9c-1.2,1.7-1.8-0.7-1.9-1.2
										c-0.1-0.4,0-0.9,0-1.3c0-0.7,0.6-3.7,1.9-1.9c0.5,0.7,0.4,1.7,0.4,2.5C109.9,178.1,110.6,178.1,110.6,177.7z"/>
								</g>
							</g>
							<g id="Group_94">
								<g id="Group_95">
									<path id="Vector_197" class="st67" d="M109.7,175.2c-0.8,1.1-1.7,2.1-2.5,3.1c-0.3,0.4,0.2,0.9,0.5,0.5
										c0.9-1.1,1.7-2,2.5-3.1C110.5,175.4,110,174.9,109.7,175.2z"/>
								</g>
							</g>
						</g>
					</g>
					<g id="buttons_2">
						<g id="red_2">
							<g id="Group_96">
								<path id="Vector_198" class="st68" d="M106.9,168.7c1.4,0,1.4-2.2,0-2.2C105.5,166.5,105.5,168.7,106.9,168.7z"/>
							</g>
						</g>
						<g id="yellow_2">
							<g id="Group_97">
								<path id="Vector_199" class="st69" d="M109.7,168.7c1.4,0,1.4-2.2,0-2.2C108.3,166.5,108.3,168.7,109.7,168.7z"/>
							</g>
						</g>
						<g id="green_2">
							<g id="Group_98">
								<path id="Vector_200" class="st70" d="M112.5,168.7c1.4,0,1.4-2.2,0-2.2C111.1,166.5,111.1,168.7,112.5,168.7z"/>
							</g>
						</g>
					</g>
				</g>
			</g>
		</g>
	</g>
	<g id="Overlay">
		<path class="st71" d="M40.2,1.3h240c21,0,38,17,38,38v311c0,21-17,38-38,38h-240c-21,0-38-17-38-38v-311
			C2.2,18.3,19.2,1.3,40.2,1.3z"/>
	</g>
	<defs>
		<filter id="Adobe_OpacityMaskFilter" filterUnits="userSpaceOnUse" x="36.4" y="301.3" width="135.7" height="55.7">
			<feColorMatrix  type="matrix" values="1 0 0 0 0  0 1 0 0 0  0 0 1 0 0  0 0 0 1 0"/>
		</filter>
	</defs>
	<mask maskUnits="userSpaceOnUse" x="36.4" y="301.3" width="135.7" height="55.7" id="mask0_1_">
		<path id="Overlay_2_1_" class="st72" d="M40.2,1.3h240c21,0,38,17,38,38v311c0,21-17,38-38,38h-240c-21,0-38-17-38-38v-311
			C2.2,18.3,19.2,1.3,40.2,1.3z"/>
	</mask>
	<g class="st73">
		<path id="FRI_x2C__JUNE_1" class="st0" d="M44,303.2h-2.9v8.1h-1.9v-8.1h-2.9v-1.7H44V303.2z M51.5,307.2h-3.6v4.1H46v-9.8h1.9v4
			h3.6v-4h1.9v9.8h-1.9V307.2z M61.3,301.5h1.8v6.3c0,0.6-0.1,1.2-0.3,1.6c-0.2,0.5-0.4,0.8-0.7,1.1c-0.3,0.3-0.7,0.5-1.1,0.7
			c-0.4,0.1-0.9,0.2-1.4,0.2c-2.5,0-3.7-1.1-3.7-3.4v-6.6h1.9v6.2c0,0.4,0,0.7,0.1,1c0.1,0.3,0.2,0.5,0.3,0.6
			c0.1,0.2,0.3,0.3,0.6,0.4c0.2,0.1,0.5,0.1,0.8,0.1c0.6,0,1-0.2,1.3-0.5c0.3-0.3,0.4-0.9,0.4-1.6V301.5z M65.7,301.6
			c0.2,0,0.4-0.1,0.7-0.1c0.3,0,0.5-0.1,0.7-0.1c0.3,0,0.5,0,0.7,0s0.4,0,0.6,0c0.5,0,0.9,0,1.3,0.1c0.4,0.1,0.8,0.2,1.2,0.4
			c0.4,0.2,0.6,0.5,0.8,0.9c0.2,0.4,0.3,0.8,0.3,1.3c0,0.8-0.2,1.5-0.6,2c-0.4,0.5-0.9,0.9-1.5,1l0.7,0.4l2.2,3.7h-2.2l-2.2-3.8
			l-1-0.2v4h-1.9V301.6z M68.7,303.1c-0.2,0-0.4,0-0.6,0c-0.2,0-0.3,0-0.4,0.1v2.8h0.8c0.5,0,1-0.1,1.3-0.4c0.3-0.2,0.5-0.6,0.5-1.2
			c0-0.4-0.1-0.7-0.4-1C69.5,303.2,69.2,303.1,68.7,303.1z M79.3,308.7c0-0.3-0.1-0.5-0.3-0.7c-0.2-0.2-0.5-0.4-0.8-0.5
			c-0.3-0.2-0.7-0.3-1.1-0.5c-0.4-0.2-0.7-0.4-1.1-0.6c-0.3-0.2-0.6-0.5-0.8-0.9c-0.2-0.4-0.3-0.8-0.3-1.4c0-0.5,0.1-0.9,0.2-1.2
			c0.2-0.4,0.4-0.6,0.7-0.9c0.3-0.2,0.6-0.4,1-0.5c0.4-0.1,0.8-0.2,1.3-0.2c0.6,0,1.1,0.1,1.6,0.2c0.5,0.1,0.9,0.2,1.2,0.4l-0.6,1.6
			c-0.2-0.1-0.5-0.2-0.9-0.3c-0.4-0.1-0.9-0.2-1.3-0.2c-0.4,0-0.8,0.1-1,0.3c-0.2,0.2-0.3,0.4-0.3,0.7c0,0.3,0.1,0.5,0.3,0.7
			c0.2,0.2,0.5,0.4,0.8,0.5c0.3,0.2,0.7,0.3,1.1,0.5c0.4,0.2,0.8,0.4,1.1,0.6c0.3,0.2,0.6,0.5,0.8,0.9c0.2,0.3,0.3,0.8,0.3,1.3
			c0,0.5-0.1,1-0.3,1.4c-0.2,0.4-0.4,0.7-0.7,0.9c-0.3,0.3-0.7,0.4-1.1,0.6c-0.4,0.1-0.9,0.2-1.5,0.2c-0.7,0-1.3-0.1-1.8-0.2
			c-0.5-0.1-0.9-0.3-1.2-0.4l0.6-1.6c0.1,0.1,0.2,0.1,0.4,0.2c0.2,0.1,0.4,0.1,0.6,0.2c0.2,0.1,0.4,0.1,0.6,0.1
			c0.2,0,0.5,0.1,0.7,0.1c0.6,0,1-0.1,1.3-0.3C79.1,309.4,79.3,309.1,79.3,308.7z M88.9,301.5h1.9v7.2c0,0.4,0,0.7-0.1,1.1
			s-0.2,0.6-0.4,0.9c-0.2,0.3-0.4,0.5-0.7,0.6c-0.3,0.1-0.7,0.2-1.1,0.2c-0.3,0-0.6,0-0.9-0.1c-0.3-0.1-0.6-0.1-0.8-0.2l0.4-1.6
			c0.2,0.1,0.5,0.2,0.8,0.2c0.4,0,0.6-0.1,0.7-0.4c0.1-0.3,0.2-0.7,0.2-1.1V301.5z M98.3,309.2h-3l-0.7,2.2h-1.9l3.5-9.9h1.4
			l3.5,9.9h-2L98.3,309.2z M95.8,307.6h2.1l-0.7-2.2l-0.3-1.5h-0.1l-0.3,1.6L95.8,307.6z M105.4,306.2l-0.8-1.5h-0.1l0.2,1.5v5.1
			h-1.8v-9.9h1.4l3.7,5.2l0.7,1.5h0.1l-0.2-1.5v-5.2h1.8v9.9H109L105.4,306.2z M118.1,309.8h1.9v-5.5l0.2-1l-0.7,0.8l-1.2,0.9
			l-0.8-1l3.2-2.6h1v8.4h1.9v1.5h-5.6V309.8z M127,311.3l3.2-7.5l0.6-0.7l-0.8,0.1h-3.6v-1.7h6.3v0.5l-3.9,9.3H127z M144.8,303.9
			c0,0.5-0.1,1-0.3,1.4c-0.2,0.5-0.4,1-0.7,1.4c-0.3,0.5-0.6,0.9-0.9,1.4c-0.3,0.4-0.6,0.8-0.9,1.2l-0.7,0.6v0.1l1-0.2h2.7v1.5h-5.9
			v-0.9c0.2-0.2,0.5-0.5,0.8-0.8c0.3-0.3,0.6-0.6,0.8-1c0.3-0.4,0.6-0.7,0.8-1.1c0.3-0.4,0.5-0.7,0.7-1.1c0.2-0.4,0.4-0.8,0.5-1.1
			c0.1-0.4,0.2-0.7,0.2-1c0-0.4-0.1-0.7-0.3-0.9c-0.2-0.3-0.6-0.4-1-0.4c-0.3,0-0.6,0.1-0.9,0.2c-0.3,0.1-0.6,0.3-0.8,0.5l-0.7-1.3
			c0.4-0.3,0.8-0.5,1.2-0.7c0.5-0.2,1-0.3,1.6-0.3c0.4,0,0.8,0.1,1.1,0.2s0.6,0.3,0.9,0.5c0.2,0.2,0.4,0.5,0.6,0.8
			C144.7,303.1,144.8,303.5,144.8,303.9z M147.6,306.4c0-1.7,0.3-3,0.9-3.8c0.6-0.8,1.4-1.3,2.5-1.3c1.2,0,2,0.4,2.6,1.2
			c0.6,0.8,0.8,2.1,0.8,3.8c0,1.7-0.3,3-0.9,3.9c-0.6,0.8-1.4,1.3-2.5,1.3c-1.2,0-2-0.4-2.6-1.3
			C147.9,309.3,147.6,308.1,147.6,306.4z M149.4,306.4c0,1.1,0.1,2,0.4,2.6c0.3,0.6,0.7,0.9,1.2,0.9c0.6,0,1-0.3,1.2-0.9
			c0.3-0.6,0.4-1.5,0.4-2.7c0-1.1-0.1-2-0.4-2.6c-0.2-0.6-0.7-0.9-1.2-0.9c-0.6,0-1,0.3-1.2,0.9
			C149.5,304.3,149.4,305.2,149.4,306.4z M157.3,309.8h1.9v-5.5l0.2-1l-0.7,0.8l-1.2,0.9l-0.8-1l3.2-2.6h1v8.4h1.9v1.5h-5.6V309.8z
			 M165.4,304.6c0-0.5,0.1-0.9,0.2-1.3c0.1-0.4,0.4-0.7,0.6-1c0.3-0.3,0.6-0.5,1-0.7c0.4-0.2,0.9-0.3,1.4-0.3c1.1,0,1.9,0.3,2.5,1
			c0.6,0.6,0.9,1.5,0.9,2.7c0,1.1-0.1,2-0.4,2.8c-0.3,0.8-0.6,1.4-1.1,2c-0.5,0.5-1,0.9-1.6,1.2c-0.6,0.3-1.2,0.4-1.9,0.5l-0.4-1.4
			c0.5-0.1,1-0.2,1.4-0.4c0.4-0.2,0.7-0.4,1-0.7c0.3-0.3,0.5-0.6,0.7-0.9c0.2-0.4,0.3-0.7,0.4-1.1c-0.2,0.2-0.5,0.4-0.7,0.5
			c-0.3,0.1-0.6,0.1-1,0.1c-0.4,0-0.7-0.1-1.1-0.2c-0.3-0.1-0.7-0.3-0.9-0.5c-0.3-0.3-0.5-0.6-0.7-0.9
			C165.5,305.5,165.4,305.1,165.4,304.6z M167.2,304.5c0,0.5,0.1,0.9,0.4,1.2s0.7,0.4,1.1,0.4c0.4,0,0.7-0.1,0.9-0.2
			s0.4-0.3,0.6-0.4c0-0.2,0-0.4,0-0.6c0-0.3,0-0.5-0.1-0.8c-0.1-0.3-0.2-0.5-0.3-0.7c-0.1-0.2-0.3-0.4-0.5-0.5
			c-0.2-0.1-0.5-0.2-0.7-0.2c-0.5,0-0.8,0.1-1.1,0.4C167.3,303.6,167.2,304,167.2,304.5z"/>
		<path id="Decaf" class="st0" d="M37.1,322.7c0.7-0.1,1.4-0.2,2.3-0.2c0.9-0.1,1.7-0.1,2.6-0.1c0.9,0,1.8,0,2.6,0
			c0.9,0,1.6,0,2.3,0c3,0,5.5,0.4,7.6,1.2s3.8,2,5.1,3.5c1.3,1.5,2.3,3.3,2.9,5.4c0.6,2.1,0.9,4.4,0.9,6.9c0,2.3-0.3,4.5-0.9,6.6
			c-0.6,2.1-1.5,4-2.9,5.6c-1.3,1.6-3.1,2.9-5.3,3.9c-2.2,1-4.9,1.5-8.1,1.5c-0.5,0-1.2,0-2.1,0c-0.8,0-1.7-0.1-2.6-0.1
			c-0.9,0-1.8-0.1-2.6-0.1c-0.8,0-1.5-0.1-1.9-0.1V322.7z M47.4,328.1c-0.7,0-1.4,0-2.2,0c-0.7,0-1.2,0.1-1.6,0.1v22.5
			c0.1,0,0.3,0.1,0.6,0.1c0.3,0,0.7,0,1,0c0.4,0,0.7,0,1,0c0.3,0,0.6,0,0.7,0c1.9,0,3.4-0.3,4.6-1c1.2-0.7,2.2-1.6,2.9-2.6
			c0.7-1.1,1.2-2.3,1.5-3.7c0.3-1.4,0.4-2.9,0.4-4.4c0-1.3-0.1-2.6-0.4-3.9c-0.3-1.3-0.7-2.5-1.4-3.6c-0.7-1.1-1.6-1.9-2.8-2.6
			C50.8,328.4,49.2,328.1,47.4,328.1z M87.2,354.3c-1,0.8-2.3,1.4-3.9,2c-1.6,0.5-3.4,0.8-5.2,0.8c-3.9,0-6.7-1.1-8.5-3.4
			c-1.8-2.3-2.7-5.4-2.7-9.3c0-4.2,1-7.4,3-9.5c2-2.1,4.8-3.2,8.5-3.2c1.2,0,2.4,0.2,3.6,0.5c1.2,0.3,2.2,0.8,3.1,1.6
			c0.9,0.7,1.6,1.7,2.2,3c0.5,1.2,0.8,2.8,0.8,4.7c0,0.7,0,1.4-0.1,2.2c-0.1,0.8-0.2,1.6-0.3,2.4H73.1c0.1,2,0.6,3.5,1.5,4.6
			c1,1,2.5,1.5,4.6,1.5c1.3,0,2.5-0.2,3.5-0.6c1.1-0.4,1.9-0.8,2.4-1.2L87.2,354.3z M78.3,336.6c-1.6,0-2.8,0.5-3.6,1.5
			c-0.8,1-1.2,2.3-1.4,3.9h8.9c0.1-1.7-0.1-3.1-0.8-4C80.7,337.1,79.7,336.6,78.3,336.6z M109.2,354.8c-1,0.7-2.1,1.2-3.5,1.6
			c-1.3,0.4-2.7,0.6-4.2,0.6c-1.9,0-3.6-0.3-4.9-0.9c-1.3-0.6-2.4-1.5-3.2-2.5c-0.8-1.1-1.4-2.5-1.8-4c-0.4-1.6-0.5-3.3-0.5-5.2
			c0-4.1,0.9-7.2,2.7-9.4c1.8-2.2,4.5-3.3,8-3.3c1.8,0,3.2,0.1,4.2,0.4c1.1,0.3,2.1,0.7,2.9,1.1l-1.5,5.1c-0.7-0.4-1.5-0.6-2.2-0.8
			c-0.7-0.2-1.5-0.3-2.4-0.3c-1.7,0-3,0.6-3.9,1.7c-0.9,1.1-1.3,2.9-1.3,5.4c0,1,0.1,2,0.3,2.8s0.6,1.6,1,2.3c0.4,0.6,1,1.2,1.7,1.5
			c0.7,0.4,1.6,0.5,2.5,0.5c1.1,0,2-0.1,2.7-0.4c0.7-0.3,1.4-0.6,2-1L109.2,354.8z M112.8,333.7c1.3-0.6,2.8-1,4.6-1.3
			c1.8-0.4,3.6-0.5,5.5-0.5c1.7,0,3.1,0.2,4.2,0.6c1.1,0.4,2,0.9,2.6,1.7c0.7,0.7,1.1,1.6,1.4,2.6c0.3,1,0.4,2.2,0.4,3.5
			c0,1.4,0,2.8-0.1,4.3c-0.1,1.4-0.2,2.8-0.2,4.2c0,1.4,0,2.7,0.1,4c0.1,1.3,0.3,2.5,0.7,3.6H127l-1-3.3h-0.2
			c-0.6,1-1.5,1.9-2.7,2.6c-1.1,0.7-2.6,1.1-4.4,1.1c-1.1,0-2.1-0.2-3-0.5c-0.9-0.4-1.7-0.8-2.3-1.4c-0.6-0.6-1.1-1.4-1.5-2.2
			c-0.4-0.9-0.5-1.8-0.5-2.9c0-1.5,0.3-2.7,1-3.7c0.7-1,1.6-1.8,2.8-2.4c1.2-0.6,2.7-1.1,4.4-1.3c1.7-0.3,3.6-0.3,5.8-0.2
			c0.2-1.8,0.1-3.1-0.4-3.8c-0.5-0.8-1.6-1.2-3.2-1.2c-1.2,0-2.6,0.1-4,0.4c-1.4,0.3-2.5,0.6-3.4,1L112.8,333.7z M120.7,351.6
			c1.2,0,2.2-0.3,3-0.8c0.7-0.6,1.3-1.2,1.6-1.8v-3.1c-1-0.1-2-0.1-2.9,0c-0.9,0.1-1.7,0.2-2.4,0.4c-0.7,0.2-1.3,0.5-1.7,1
			c-0.4,0.4-0.6,0.9-0.6,1.6c0,0.9,0.3,1.6,0.8,2.1C119.1,351.3,119.8,351.6,120.7,351.6z M134.5,332.3h3.3V331c0-3,0.6-5.2,1.9-6.6
			c1.3-1.4,3.1-2.1,5.6-2.1c2.6,0,4.7,0.3,6.4,0.9l-1.2,5c-0.7-0.3-1.4-0.4-2-0.5c-0.5-0.1-1.1-0.1-1.7-0.1c-0.6,0-1.2,0.1-1.5,0.3
			c-0.4,0.2-0.6,0.5-0.8,0.9c-0.2,0.4-0.3,0.9-0.3,1.5c0,0.6,0,1.2,0,2h5.3v5.3h-5.3v18.7h-6.2v-18.7h-3.3V332.3z"/>
	</g>
</g>
</svg>
