<svg width="539" height="276" viewBox="0 0 539 276" fill="none" xmlns="http://www.w3.org/2000/svg">
<g clip-path="url(#clip0)">
<path d="M539 115.039V161.671H512.465C512.465 161.671 510.569 171.139 506.542 181.317C502.514 191.496 495.88 199.78 495.88 199.78L514.597 218.48L481.902 250.909L464.606 233.629C464.606 233.629 454.656 240.021 445.653 243.808C436.413 247.832 424.329 250.199 424.329 250.199V276H378.366V250.199C378.366 250.199 368.653 249.252 356.096 243.808C343.539 238.364 337.379 233.866 337.379 233.866L319.373 251.619L286.914 218.954L304.92 200.964C304.92 200.964 302.551 197.887 299.234 191.496C295.68 185.105 293.785 179.66 293.785 179.66H319.136C319.136 179.66 346.619 234.34 405.849 230.079C464.843 225.818 492.089 175.636 492.563 137.527C493.274 99.1801 460.342 47.3413 401.111 47.3413C341.88 47.3413 319.373 97.5232 319.373 97.5232L295.206 97.2864C295.206 97.2864 295.917 92.5523 298.523 86.3979C301.129 80.2436 305.868 75.036 305.868 75.036L287.625 56.8096L320.557 23.9074L339.274 42.6072C339.274 42.6072 350.646 35.506 357.991 32.4288C365.336 29.3516 378.84 26.5111 378.84 26.5111V0H424.803V26.9846C424.803 26.9846 436.413 29.3516 444.942 33.1389C453.471 36.9262 462.711 43.554 462.711 43.554L482.139 24.1441L514.36 56.8096L495.643 75.5094C495.643 75.5094 503.462 87.3448 506.779 95.8662C510.096 103.914 512.939 115.276 512.939 115.276L539 115.039Z" fill="#FFCC00"/>
<path d="M494.932 105.334L502.514 97.9966C502.514 97.9966 504.409 102.494 506.305 109.358C508.2 116.223 508.911 122.614 508.911 122.614H531.892V155.99H509.859C509.859 155.99 504.409 174.926 501.566 181.791C498.723 188.419 491.616 202.384 491.616 202.384L507.726 218.48L483.086 242.861L466.739 226.528C466.739 226.528 462 232.446 444.231 239.547C426.462 246.648 419.591 246.885 419.591 246.885V268.425H382.157V247.122C382.157 247.122 374.812 245.938 371.495 244.991C368.179 244.045 360.36 240.967 360.36 240.967L367.705 232.446C367.705 232.446 378.84 238.837 401.348 239.074C424.092 239.074 498.249 222.031 501.092 142.261C500.856 141.314 500.382 117.88 494.932 105.334Z" fill="#FFC104"/>
<path d="M443.52 35.9794L435.465 44.5009C435.465 44.5009 396.136 28.6415 360.123 47.1046C324.111 65.5678 313.449 93.2624 313.449 93.2624H302.314C302.314 93.2624 303.025 88.5283 306.105 83.3208C309.185 78.1132 311.317 74.5626 311.317 74.5626L295.206 58.4666L320.083 33.6124L335.957 49.4717C335.957 49.4717 343.302 42.8439 356.332 37.3997C369.6 31.9554 383.342 29.5883 383.342 29.5883V8.28474H420.539V29.1149C420.539 29.1149 424.803 29.825 431.2 31.482C438.308 33.6124 443.52 35.9794 443.52 35.9794Z" fill="#FFD42A"/>
<path d="M8.5293 92.5523H58.2831V109.595H28.9047V121.667H54.0185V138.71H28.9047V152.439H59.4678V169.482H8.5293V92.5523Z" fill="#0044AA"/>
<path d="M72.7354 110.305H89.32L90.7415 117.407H91.2154C95.9538 112.909 101.877 108.885 109.932 108.885C122.963 108.885 128.412 118.353 128.412 133.029V169.482H108.037V135.633C108.037 128.058 106.142 126.165 102.114 126.165C98.323 126.165 96.1907 127.822 93.1107 130.662V169.482H72.7354V110.305V110.305Z" fill="#0044AA"/>
<path d="M136.942 162.617L145.945 150.072C151.394 154.096 156.369 155.99 160.397 155.99C164.662 155.99 166.32 154.806 166.32 152.439C166.32 149.362 160.871 147.942 154.948 145.575C148.077 142.734 140.022 137.763 140.022 128.058C140.022 116.46 149.499 108.885 163.477 108.885C173.191 108.885 180.062 112.672 185.274 116.696L176.271 128.768C172.006 125.691 167.979 123.798 164.188 123.798C160.634 123.798 158.975 124.744 158.975 127.111C158.975 130.189 164.188 131.372 170.111 133.503C177.219 136.106 185.274 140.604 185.274 151.256C185.274 162.381 176.508 170.902 159.923 170.902C152.342 170.902 143.102 167.588 136.942 162.617Z" fill="#0044AA"/>
<path d="M195.225 110.305H211.809L213.231 115.75H213.705C217.969 111.726 223.892 108.885 229.815 108.885C243.794 108.885 252.797 120.72 252.797 138.947C252.797 159.304 240.714 170.902 228.157 170.902C223.182 170.902 218.68 168.772 214.889 164.985L215.6 173.979V190.312H195.225V110.305ZM231.948 139.184C231.948 129.479 229.105 125.455 223.655 125.455C220.575 125.455 218.206 126.638 215.6 129.715V151.492C217.969 153.623 220.575 154.333 223.182 154.333C227.92 154.333 231.948 150.545 231.948 139.184Z" fill="#0044AA"/>
<path d="M262.748 92.789C262.748 86.8713 267.486 82.6106 274.12 82.6106C280.754 82.6106 285.492 86.8713 285.492 92.789C285.492 98.7067 280.754 102.967 274.12 102.967C267.486 102.967 262.748 98.7067 262.748 92.789ZM263.932 110.305H284.308V169.482H263.932V110.305Z" fill="#0044AA"/>
<path d="M298.049 110.305H314.634L316.055 120.484H316.529C321.031 112.436 327.665 108.885 333.351 108.885C336.905 108.885 339.037 109.358 340.695 110.069L337.379 127.585C335.246 127.111 333.351 126.638 330.745 126.638C326.48 126.638 321.268 129.242 318.425 136.58V169.482H298.049V110.305V110.305Z" fill="#0044AA"/>
<path d="M344.486 139.894C344.486 120.72 358.465 108.885 372.917 108.885C390.449 108.885 398.742 121.667 398.742 137.527C398.742 141.077 398.268 144.628 397.794 146.048H363.914C365.809 153.149 371.022 155.516 377.656 155.516C381.683 155.516 385.474 154.333 389.739 151.966L396.372 164.038C389.976 168.535 381.446 170.902 374.812 170.902C357.754 170.902 344.486 159.54 344.486 139.894ZM381.446 132.792C381.446 128.295 379.551 124.271 373.391 124.271C368.889 124.271 365.099 126.875 363.914 132.792H381.446Z" fill="#0044AA"/>
<path d="M10.1877 203.568H13.0308V225.345H10.1877V203.568Z" fill="#0044AA"/>
<path d="M18.9539 209.249H21.3231L21.56 211.616C22.9816 210.196 24.64 208.775 27.0092 208.775C30.3262 208.775 31.9846 210.906 31.9846 215.166V225.345H29.1415V215.403C29.1415 212.326 28.1939 211.142 26.0615 211.142C24.4031 211.142 23.2185 212.089 21.56 213.509V225.108H18.9539V209.249Z" fill="#0044AA"/>
<path d="M35.5386 223.451L36.9601 221.557C38.3817 222.741 39.8032 223.451 41.6986 223.451C43.8309 223.451 44.7786 222.268 44.7786 220.847C44.7786 219.19 42.8832 218.48 40.9878 217.77C38.6186 217.06 36.2493 215.876 36.2493 213.036C36.2493 210.432 38.3817 208.539 41.6986 208.539C43.594 208.539 45.4893 209.249 46.674 210.432L45.2524 212.089C44.0678 211.379 43.1201 210.669 41.4617 210.669C39.3293 210.669 38.3817 211.852 38.3817 213.036C38.3817 214.456 40.0401 215.166 41.9355 215.876C44.3047 216.823 46.9109 217.77 46.9109 220.847C46.9109 223.451 44.7786 225.581 40.9878 225.581C39.3293 225.818 36.9601 224.635 35.5386 223.451Z" fill="#0044AA"/>
<path d="M51.6492 209.249H54.0184L54.2553 211.142C55.6769 209.959 57.5723 208.775 59.4676 208.775C63.7323 208.775 65.8646 212.089 65.8646 217.06C65.8646 222.504 62.5476 225.818 58.9938 225.818C57.5722 225.818 55.9138 225.108 54.4922 223.924V226.765V232.209H51.6492V209.249V209.249ZM62.7846 217.06C62.7846 213.509 61.5999 211.142 58.5199 211.142C57.0984 211.142 55.6769 211.852 54.2553 213.273V221.794C55.6769 222.978 57.0984 223.451 58.283 223.451C60.8892 223.451 62.7846 221.084 62.7846 217.06Z" fill="#0044AA"/>
<path d="M69.8923 204.041C69.8923 202.858 70.6031 202.384 71.7877 202.384C72.9723 202.384 73.6831 203.094 73.6831 204.041C73.6831 204.988 72.9723 205.698 71.7877 205.698C70.6031 205.698 69.8923 205.225 69.8923 204.041ZM70.3662 209.249H73.2093V225.345H70.3662V209.249Z" fill="#0044AA"/>
<path d="M78.8954 209.249H81.2646L81.5015 212.089C82.6861 209.959 84.3446 208.775 86.0031 208.775C86.7138 208.775 87.1877 208.775 87.6615 209.012L87.1877 211.379C86.7138 211.142 86.24 211.142 85.5292 211.142C84.1077 211.142 82.4492 212.089 81.5015 214.93V225.345H78.6584V209.249H78.8954Z" fill="#0044AA"/>
<path d="M90.2678 204.041C90.2678 202.858 90.9786 202.384 92.1632 202.384C93.1109 202.384 94.0586 203.094 94.0586 204.041C94.0586 204.988 93.3478 205.698 92.1632 205.698C90.9786 205.935 90.2678 205.225 90.2678 204.041ZM90.7417 209.249H93.5847V225.345H90.7417V209.249Z" fill="#0044AA"/>
<path d="M99.2709 209.249H101.64L101.877 211.616C103.299 210.196 104.957 208.775 107.326 208.775C110.643 208.775 112.302 210.906 112.302 215.166V225.345H109.459V215.403C109.459 212.326 108.511 211.142 106.379 211.142C104.72 211.142 103.535 212.089 101.877 213.509V225.108H99.0339V209.249H99.2709Z" fill="#0044AA"/>
<path d="M116.329 228.422C116.329 227.002 117.277 225.818 118.699 224.871V224.635C117.988 224.161 117.277 223.214 117.277 222.031C117.277 220.611 118.225 219.664 119.172 218.954V218.717C117.988 217.77 117.04 216.35 117.04 214.456C117.04 210.906 119.883 208.775 123.2 208.775C124.148 208.775 124.859 209.012 125.569 209.249H131.256V211.379H127.939C128.649 212.089 129.36 213.273 129.36 214.693C129.36 218.244 126.754 220.374 123.437 220.374C122.726 220.374 121.779 220.137 121.068 219.9C120.594 220.374 120.12 220.847 120.12 221.794C120.12 222.741 120.831 223.451 122.963 223.451H125.569C129.36 223.451 131.256 224.635 131.256 227.238C131.256 230.316 128.176 232.919 123.2 232.919C119.172 232.683 116.329 231.262 116.329 228.422ZM128.649 227.475C128.649 226.055 127.465 225.581 125.332 225.581H122.489C121.779 225.581 121.068 225.581 120.357 225.345C119.172 226.055 118.699 227.238 118.699 227.949C118.699 229.605 120.357 230.789 123.437 230.789C126.517 230.789 128.649 229.369 128.649 227.475ZM126.517 214.456C126.517 212.089 125.096 210.669 123.2 210.669C121.305 210.669 119.883 212.089 119.883 214.456C119.883 216.823 121.542 218.244 123.2 218.244C124.859 218.244 126.517 216.823 126.517 214.456Z" fill="#0044AA"/>
<path d="M141.917 203.568H154.474V205.935H144.76V212.799H153.052V215.166H144.76V222.978H154.948V225.345H142.154V203.568H141.917Z" fill="#0044AA"/>
<path d="M159.449 209.249H161.819L162.055 211.616C163.477 210.196 165.135 208.775 167.505 208.775C170.822 208.775 172.48 210.906 172.48 215.166V225.345H169.637V215.403C169.637 212.326 168.689 211.142 166.557 211.142C164.899 211.142 163.714 212.089 162.055 213.509V225.108H159.212V209.249H159.449Z" fill="#0044AA"/>
<path d="M176.745 228.422C176.745 227.002 177.692 225.818 179.114 224.871V224.635C178.403 224.161 177.692 223.214 177.692 222.031C177.692 220.611 178.64 219.664 179.588 218.954V218.717C178.403 217.77 177.455 216.35 177.455 214.456C177.455 210.906 180.298 208.775 183.615 208.775C184.563 208.775 185.274 209.012 185.985 209.249H191.671V211.379H188.354C189.065 212.089 189.775 213.273 189.775 214.693C189.775 218.244 187.169 220.374 183.852 220.374C183.142 220.374 182.194 220.137 181.483 219.9C181.009 220.374 180.535 220.847 180.535 221.794C180.535 222.741 181.246 223.451 183.378 223.451H186.458C190.249 223.451 192.145 224.635 192.145 227.238C192.145 230.316 189.065 232.919 184.089 232.919C179.351 232.683 176.745 231.262 176.745 228.422ZM188.828 227.475C188.828 226.055 187.643 225.581 185.511 225.581H182.668C181.957 225.581 181.246 225.581 180.535 225.345C179.351 226.055 178.877 227.238 178.877 227.949C178.877 229.605 180.535 230.789 183.615 230.789C186.932 230.789 188.828 229.369 188.828 227.475ZM186.695 214.456C186.695 212.089 185.274 210.669 183.378 210.669C181.483 210.669 180.062 212.089 180.062 214.456C180.062 216.823 181.72 218.244 183.378 218.244C185.037 218.244 186.695 216.823 186.695 214.456Z" fill="#0044AA"/>
<path d="M194.514 204.041C194.514 202.858 195.225 202.384 196.409 202.384C197.357 202.384 198.305 203.094 198.305 204.041C198.305 204.988 197.594 205.698 196.409 205.698C195.225 205.935 194.514 205.225 194.514 204.041ZM194.988 209.249H197.831V225.345H194.988V209.249Z" fill="#0044AA"/>
<path d="M203.517 209.249H205.886L206.123 211.616C207.545 210.196 209.203 208.775 211.572 208.775C214.889 208.775 216.548 210.906 216.548 215.166V225.345H213.705V215.403C213.705 212.326 212.757 211.142 210.625 211.142C208.966 211.142 207.782 212.089 206.123 213.509V225.108H203.28V209.249H203.517Z" fill="#0044AA"/>
<path d="M220.812 217.297C220.812 212.089 224.366 208.775 228.157 208.775C232.185 208.775 234.554 211.616 234.554 216.35C234.554 216.823 234.554 217.533 234.317 218.007H223.418C223.655 221.321 225.788 223.688 228.868 223.688C230.526 223.688 231.711 223.214 232.895 222.504L233.843 224.398C232.421 225.345 230.763 226.055 228.631 226.055C224.129 225.818 220.812 222.504 220.812 217.297ZM231.948 215.876C231.948 212.563 230.526 210.906 227.92 210.906C225.551 210.906 223.655 212.799 223.181 215.876H231.948Z" fill="#0044AA"/>
<path d="M237.397 217.297C237.397 212.089 240.951 208.775 244.742 208.775C248.769 208.775 251.139 211.616 251.139 216.35C251.139 216.823 251.139 217.533 250.902 218.007H240.003C240.24 221.321 242.372 223.688 245.452 223.688C247.111 223.688 248.295 223.214 249.48 222.504L250.428 224.398C249.006 225.345 247.348 226.055 245.215 226.055C240.951 225.818 237.397 222.504 237.397 217.297ZM248.769 215.876C248.769 212.563 247.348 210.906 244.742 210.906C242.372 210.906 240.477 212.799 240.003 215.876H248.769Z" fill="#0044AA"/>
<path d="M255.403 209.249H257.772L258.009 212.089C259.194 209.959 260.852 208.775 262.511 208.775C263.222 208.775 263.695 208.775 264.169 209.012L263.695 211.379C263.222 211.142 262.748 211.142 262.037 211.142C260.615 211.142 258.957 212.089 258.009 214.93V225.345H255.166V209.249H255.403Z" fill="#0044AA"/>
<path d="M265.591 223.451L267.012 221.557C268.434 222.741 269.855 223.451 271.751 223.451C273.883 223.451 274.831 222.268 274.831 220.847C274.831 219.19 272.935 218.48 271.04 217.77C268.671 217.06 266.302 215.876 266.302 213.036C266.302 210.432 268.434 208.539 271.751 208.539C273.646 208.539 275.542 209.249 276.726 210.432L275.305 212.089C274.12 211.379 272.935 210.669 271.514 210.669C269.382 210.669 268.434 211.852 268.434 213.036C268.434 214.456 270.092 215.166 271.988 215.876C274.357 216.823 276.963 217.77 276.963 220.847C276.963 223.451 274.831 225.581 271.04 225.581C269.382 225.818 267.012 224.635 265.591 223.451Z" fill="#0044AA"/>
</g>
<defs>
<clipPath id="clip0">
<rect width="539" height="276" fill="white"/>
</clipPath>
</defs>
</svg>
