<?xml version="1.0" encoding="utf-8"?>
<!-- Generator: Adobe Illustrator 22.1.0, SVG Export Plug-In . SVG Version: 6.00 Build 0)  -->
<svg version="1.1" id="HERO" xmlns="http://www.w3.org/2000/svg" xmlns:xlink="http://www.w3.org/1999/xlink" x="0px" y="0px"
	 viewBox="0 0 388.6 564.1" style="enable-background:new 0 0 388.6 564.1;" xml:space="preserve">
<g id="deco">
	<g id="foundation_glow" style="opacity:0.5;">
		<ellipse style="fill:#80D8FF;" cx="197.639" cy="471.726" rx="167.337" ry="82.934"/>
		<linearGradient id="SVGID_1_" gradientUnits="userSpaceOnUse" x1="193.9484" y1="19.0172" x2="193.9484" y2="554.4007">
			<stop  offset="0" style="stop-color:#FFFFFF;stop-opacity:0.01"/>
			<stop  offset="0.1505" style="stop-color:#FFFFF7;stop-opacity:0.159"/>
			<stop  offset="0.3835" style="stop-color:#FFFFE1;stop-opacity:0.3897"/>
			<stop  offset="0.6699" style="stop-color:#FFFFBE;stop-opacity:0.6732"/>
			<stop  offset="0.9961" style="stop-color:#FFFF8D;stop-opacity:0.9961"/>
			<stop  offset="1" style="stop-color:#FFFF8C"/>
		</linearGradient>
		<path style="opacity:0.4;fill:url(#SVGID_1_);" d="M0.948,19.017l28.533,452.949c0,0-2.408,35.832,52.524,60.184
			c24.969,11.069,62.18,22.25,116.157,22.25s93.383-13.37,118.014-24.439c54.188-24.352,48.147-57.996,48.147-57.996l22.625-452.949
			H0.948z"/>
	</g>
	<g id="rectangles" style="opacity:0.5;">
		<rect x="32.948" y="296.017" style="opacity:0.3;fill:#80D8FF;" width="11" height="45"/>
		<rect x="46.948" y="344.017" style="opacity:0.3;fill:#80D8FF;" width="5" height="35"/>
		<rect x="0.948" y="368.017" style="fill:#80D8FF;" width="3" height="28"/>
		<rect x="16.948" y="325.017" style="opacity:0.5;fill:#80D8FF;" width="12" height="43"/>
		<rect x="6.948" y="357.017" style="fill:#80D8FF;" width="6" height="30"/>
		<rect x="1.948" y="335.017" style="fill:#80D8FF;" width="2" height="26"/>
		<rect x="321.034" y="-0.983" style="opacity:0.3;fill:#80D8FF;" width="11.057" height="47"/>
		<rect x="337.682" y="23.017" style="opacity:0.5;fill:#80D8FF;" width="4.789" height="37"/>
		<rect x="348.063" y="10.017" style="opacity:0.5;fill:#80D8FF;" width="13.514" height="42"/>
		<rect x="364.034" y="29.017" style="opacity:0.5;fill:#80D8FF;" width="1.229" height="31"/>
		<rect x="368.948" y="37.017" style="opacity:0.5;fill:#80D8FF;" width="4.914" height="33"/>
		<rect x="310.948" y="316.017" style="opacity:0.3;fill:#80D8FF;" width="7" height="33"/>
		<rect x="321.948" y="322.017" style="opacity:0.3;fill:#80D8FF;" width="4" height="38"/>
		<rect x="331.948" y="312.017" style="opacity:0.75;fill:#80D8FF;" width="16" height="37"/>
		<rect x="350.948" y="324.017" style="opacity:0.75;fill:#80D8FF;" width="13" height="38"/>
		<rect x="368.948" y="305.017" style="fill:#80D8FF;" width="5" height="49"/>
		
			<rect x="378.654" y="337.005" transform="matrix(-1 -1.224647e-16 1.224647e-16 -1 759.8968 710.0344)" style="fill:#80D8FF;" width="2.59" height="36.024"/>
		
			<rect x="380.433" y="296.013" transform="matrix(-1 -1.224647e-16 1.224647e-16 -1 761.8968 628.0344)" style="fill:#80D8FF;" width="1.03" height="36.008"/>
		
			<rect x="59.948" y="186.017" transform="matrix(-1 -4.486867e-11 4.486867e-11 -1 128.8968 419.0344)" style="fill:#80D8FF;" width="9" height="47"/>
		
			<rect x="51.499" y="179.017" transform="matrix(-1 -4.572799e-11 4.572799e-11 -1 106.8968 395.0344)" style="fill:#80D8FF;" width="3.898" height="37"/>
		
			<rect x="35.948" y="181.017" transform="matrix(-1 -4.497881e-11 4.497881e-11 -1 82.8968 404.0344)" style="opacity:0.4;fill:#80D8FF;" width="11" height="42"/>
		
			<rect x="31.948" y="172.017" transform="matrix(-1 -4.365587e-11 4.365587e-11 -1 64.8968 375.0344)" style="opacity:0.4;fill:#80D8FF;" width="1" height="31"/>
		
			<rect x="24.948" y="159.017" transform="matrix(-1 -4.456536e-11 4.456536e-11 -1 53.8968 351.0344)" style="opacity:0.8;fill:#80D8FF;" width="4" height="33"/>
		<rect x="71.948" y="203.017" style="fill:#80D8FF;" width="10" height="50"/>
		<rect x="31.948" y="134.017" style="opacity:0.4;fill:#80D8FF;" width="9" height="30"/>
		<rect x="355.948" y="63.017" style="opacity:0.5;fill:#80D8FF;" width="11" height="40"/>
		<rect x="373.948" y="94.017" style="opacity:0.5;fill:#80D8FF;" width="7" height="33"/>
		<rect x="16.948" y="382.017" style="fill:#80D8FF;" width="6" height="32"/>
		<rect x="28.948" y="393.017" style="fill:#80D8FF;" width="9" height="40"/>
		<rect x="353.948" y="370.017" style="fill:#80D8FF;" width="7" height="49"/>
		<rect x="368.948" y="366.017" style="fill:#80D8FF;" width="5" height="29"/>
		<rect x="363.948" y="366.017" style="fill:#80D8FF;" width="5" height="29"/>
		
			<rect x="72.948" y="257.017" transform="matrix(-1 -4.486867e-11 4.486867e-11 -1 154.8968 561.0344)" style="opacity:0.3;fill:#80D8FF;" width="9" height="47"/>
		<rect x="54.948" y="311.017" style="fill:#80D8FF;" width="9" height="49"/>
		<rect x="70.948" y="278.017" style="fill:#80D8FF;" width="5" height="36"/>
		<rect x="70.948" y="332.017" style="fill:#80D8FF;" width="5" height="23"/>
		<rect x="81.948" y="289.017" style="opacity:0.3;fill:#80D8FF;" width="11" height="32"/>
		<rect x="90.948" y="326.017" style="opacity:0.1;fill:#80D8FF;" width="11" height="54"/>
		<rect x="352.948" y="120.017" style="fill:#80D8FF;" width="14" height="35"/>
		<rect x="339.948" y="140.017" style="fill:#80D8FF;" width="8" height="31"/>
		<rect x="328.948" y="164.017" style="fill:#80D8FF;" width="7" height="27"/>
		<rect x="341.948" y="180.017" style="fill:#80D8FF;" width="5" height="27"/>
		<rect x="30.948" y="62.017" style="opacity:0.4;fill:#80D8FF;" width="17" height="55"/>
		<rect x="53.948" y="89.017" style="opacity:0.4;fill:#80D8FF;" width="7" height="44"/>
		<rect x="53.948" y="38.017" style="opacity:0.6;fill:#80D8FF;" width="10" height="38"/>
		<rect x="326.948" y="198.017" style="fill:#80D8FF;" width="11" height="27"/>
		<rect x="306.948" y="233.017" style="fill:#80D8FF;" width="8" height="29"/>
		<rect x="255.948" y="267.017" style="opacity:0.6;fill:#80D8FF;" width="11" height="45"/>
		<rect x="270.948" y="304.017" style="fill:#80D8FF;" width="9" height="22"/>
		<rect x="293.948" y="296.017" style="fill:#80D8FF;" width="7" height="22"/>
		<rect x="0.948" y="126.017" style="opacity:0.4;fill:#80D8FF;" width="12" height="25"/>
		<rect x="112.948" y="311.017" style="opacity:0.5;fill:#80D8FF;" width="8" height="38"/>
		<rect x="142.948" y="318.017" style="fill:#80D8FF;" width="6" height="23"/>
		<rect x="125.948" y="300.017" style="fill:#80D8FF;" width="7" height="25"/>
		<rect x="128.948" y="340.017" style="opacity:0.3;fill:#80D8FF;" width="6" height="22"/>
		<rect x="185.948" y="274.017" style="opacity:0.3;fill:#80D8FF;" width="8" height="30"/>
		<rect x="164.948" y="299.017" style="fill:#80D8FF;" width="5" height="22"/>
		<rect x="225.948" y="290.017" style="opacity:0.5;fill:#80D8FF;" width="7" height="24"/>
		<rect x="244.948" y="301.017" style="opacity:0.5;fill:#80D8FF;" width="3" height="25"/>
		<rect x="209.948" y="310.017" style="opacity:0.8;fill:#80D8FF;" width="7" height="23"/>
		<rect x="70.558" y="31.26" style="opacity:0.2;fill:#80D8FF;" width="9.78" height="52.514"/>
		<rect x="86.519" y="25.017" style="opacity:0.1;fill:#80D8FF;" width="5.859" height="39"/>
		<rect x="306.034" y="10.017" style="opacity:0.2;fill:#80D8FF;" width="11.057" height="47"/>
		<rect x="294.884" y="1.095" style="opacity:0.1;fill:#80D8FF;" width="5.357" height="34.844"/>
		<rect x="97.519" y="33.017" style="opacity:0.05;fill:#80D8FF;" width="5.859" height="39"/>
	</g>
</g>
<g id="plant_1_">
	<g id="plant">
		<g id="XMLID_118_">
			<g>
				<path style="fill:#006633;" d="M355.989,233.699c0.253,1.111-0.866,2.015-1.847,2.59c-5.931,3.51-12.138,6.123-18.192,9.149
					c-7.188,3.594-13.602,9.149-20.636,13.134c-13.594,7.701-30.659,12.314-46.368,11.671c-6.268-0.261-12.559-1.126-18.613-2.82
					c-4.138-1.157-11.946-2.897-14.36-6.736c-8.077-12.843,10.751-28.805,20.897-33.173c7.785-3.356,16.192-5.035,24.636-5.441
					c7.525-0.368,16.575-0.943,23.885,0c16.506,2.138,32.567,5.019,48.445,10C354.74,232.358,355.774,232.779,355.989,233.699z"/>
			</g>
			<g>
			</g>
		</g>
		<g>
			<path style="fill:#006633;" d="M284.051,161.701c19.227-7.225,32.787-19.534,46.855-33.747c0.688-0.695,1.4-1.783,0.793-2.55
				c-0.423-0.534-1.223-0.516-1.902-0.458c-17.142,1.484-34.449-2.562-51.591-3.219c-16.049-0.615-33.069,3.451-45.747,13.731
				c-5.242,4.25-9.776,10.256-10.286,17.197c-0.58,7.891,4.283,11.204,11.338,13.738c7.987,2.869,17.094,1.494,25.34,0.932
				C267.47,166.738,275.971,164.737,284.051,161.701z"/>
		</g>
		<g>
			<path style="fill:#006633;" d="M123.825,153.264c-19.392,0.66-38.49,7.605-56.054,15.386c-0.908,0.402-1.842,0.829-2.507,1.566
				c-0.665,0.737-0.993,1.874-0.514,2.743c0.479,0.869,1.55,1.188,2.519,1.404c15.602,3.476,30.993,9.873,45.124,17.686
				c5.292,2.926,10.418,6.192,15.983,8.556c7.972,3.386,16.771,4.658,25.389,3.973c8.522-0.677,15.862-2.716,22.929-7.36
				c5.539-3.64,7.462-12.714,4.081-18.297c-3.905-6.448-10.256-11.629-16.61-15.539
				C152.176,156.002,137.827,152.787,123.825,153.264z"/>
		</g>
		<g>
			<path style="fill:#006633;" d="M170.64,260.005c10.28,6.753,20.402,20.96,12.028,33.248c-5.681,8.338-18.073,9.36-26.931,10.374
				c-9.309,1.065-18.769,0.173-27.857-2.076c-16.012-3.962-29.73-13.685-45.056-19.682c-10.01-3.917-20.371-6.975-30.741-9.85
				c-2.606-0.723-5.319-1.482-7.344-3.321c0.662-2.98,6.441-4.274,8.714-5.099c17.334-6.288,35.472-12.43,53.76-15.122
				C128.871,245.29,151.858,247.668,170.64,260.005z"/>
		</g>
		<g id="XMLID_117_">
			<g>
				<path style="fill:#006633;" d="M280.264,42.972c1.744,1.957-7.407,14.226-9.029,16.376c-4.968,6.557-10.626,12.58-16.575,18.245
					c-0.194,0.186-0.387,0.371-0.589,0.55c-7.705,7.222-16.624,13.341-26.677,16.557c-3.804,1.22-8.072,1.987-11.702,0.321
					c-12.018-5.507,1.942-24.244,7.024-29.479c12.132-12.509,26.974-16.848,43.408-20.525c3.668-0.817,7.335-1.634,11.002-2.459
					C278.209,42.319,279.523,42.144,280.264,42.972z"/>
			</g>
			<g>
			</g>
		</g>
		<g id="XMLID_116_">
			<g>
				<path style="fill:#006633;" d="M180.789,101.586c0.825,2.645,2.114,7.722-1.008,9.27c-2.471,1.221-7.114,0.78-9.815,0.864
					c-7.488,0.231-15.517-0.357-22.342-3.702c-6.915-3.387-12-9.293-16.605-15.294c-5.083-6.617-8.521-13.172-15.728-17.605
					c-0.361-0.22-0.754-0.477-0.878-0.886c-0.29-0.97,1.041-1.561,2.047-1.674c11.15-1.296,20.908-0.286,31.692,2.222
					c5.819,1.351,10.59,3.946,15.364,6.96c1.463,0.923,2.933,1.89,4.422,2.87C173.992,88.576,178.643,94.67,180.789,101.586z"/>
			</g>
			<g>
			</g>
		</g>
		<g id="XMLID_115_">
			<g>
				<path style="fill:#006633;" d="M190.339,24.141c9.607,13.14,14.195,29.926,12.382,46.128c-0.41,3.595-1.792,13.99-4.803,16.54
					c-3.421,2.909-5.787-3.585-8.316-6.657c-7.159-8.654-14.564-16.643-14.605-28.595c-0.02-4.107,0.635-8.183,1.301-12.239
					c0.983-6.084,1.966-12.167,2.95-18.24c0.317-1.956,1.106-4.373,3.083-4.527c1.28-0.102,2.376,0.891,3.257,1.833
					C187.287,20.209,188.864,22.134,190.339,24.141z"/>
			</g>
			<g>
			</g>
		</g>
		<g id="XMLID_114_">
			<g>
				<linearGradient id="SVGID_2_" gradientUnits="userSpaceOnUse" x1="201.6476" y1="114.0868" x2="144.7616" y2="117.0207">
					<stop  offset="0.0013" style="stop-color:#00BD00"/>
					<stop  offset="1" style="stop-color:#006633"/>
				</linearGradient>
				<path style="fill:url(#SVGID_2_);" d="M144.95,87.015c-2.002,0.004-1.999,2.006-1.004,3.006
					c1.003,0.999,3.999,2.993,13.205,6.846c11.207,4.693,21.744,11.869,29.412,21.441c2.723,3.412,5.233,6.989,7.615,10.633
					c1.107,1.685,8.767,14.963,8.773,15.078c0.838-3.841-2.354-14.258-2.618-18.173c-0.095-1.392-0.256-2.88-1.155-3.946
					c-10.384-12.394-10.343-12.649-21.745-20.072C166.041,94.406,146.945,87.019,144.95,87.015z"/>
			</g>
			<g>
			</g>
		</g>
		<g id="XMLID_113_">
			<g>
				<linearGradient id="SVGID_3_" gradientUnits="userSpaceOnUse" x1="204.4182" y1="94.5903" x2="257.8544" y2="88.7784">
					<stop  offset="0.0013" style="stop-color:#00BD00"/>
					<stop  offset="1" style="stop-color:#006633"/>
				</linearGradient>
				<path style="fill:url(#SVGID_3_);" d="M254.129,64.369c2.097,0.782,1.302,1.839-1.663,3.202c-3.51,1.607-1.701-0.046-8.62,3.951
					c-10.523,6.085-19.577,15.179-25.624,25.85c-2.146,3.802-4.054,7.725-5.833,11.711c-0.817,1.839-1.635,3.677-2.348,5.558
					c-0.18,0.474-2.136,4.387-2.123,4.509c-1.439-3.659-1.728-8.237-2.092-12.152c-0.136-1.388-0.205-2.876,0.513-4.072
					c8.279-13.889,8.198-14.134,18.272-23.277C234.679,70.508,252.033,63.595,254.129,64.369z"/>
			</g>
			<g>
			</g>
		</g>
		<g id="XMLID_112_">
			<g>
				<path style="fill:#00BD00;" d="M213.808,170.132c1.089,17.472,0.679,35.958,0.106,53.543
					c-0.766,23.512-4.14,46.409-6.039,69.727c-0.784,9.608-0.759,19.305-0.735,28.977c0.025,9.137,0.486,18.251,1.189,27.323
					c0.311,4.021,1.706,6.956-0.635,8.667c-1.905,1.386-6.811-0.016-8.983-0.024c-4.42-0.008-3.611-21.477-3.71-25.685
					c-0.28-11.764,0.261-23.561,1.394-35.212c1.787-18.469,5.615-36.201,8.043-54.46c2.21-16.629,2.204-34.101,1.507-50.973
					c-0.735-17.951-2.042-35.309-3.804-53.106c-0.921-9.251-2.615-18.372-3.368-27.647c-0.349-4.289-10.359-51.071-6.823-54.241
					c1.177-1.062,7.184,28.353,8,29.999c2.727,5.513,4.962,17.529,6.045,24.088C209.232,130.639,212.563,150.122,213.808,170.132z"
					/>
			</g>
			<g>
			</g>
		</g>
		<g id="XMLID_111_">
			<g>
				<linearGradient id="SVGID_4_" gradientUnits="userSpaceOnUse" x1="213.2585" y1="160.2441" x2="304.1793" y2="160.2441">
					<stop  offset="0.0013" style="stop-color:#00BD00"/>
					<stop  offset="1" style="stop-color:#006633"/>
				</linearGradient>
				<path style="fill:url(#SVGID_4_);" d="M302.44,132.12c1.027,0.046,2.674,1.065,1.065,1.793
					c-1.479,0.674-3.111,0.897-4.713,1.103c-14.399,1.908-28.107,3.556-41.587,9.51c-11.119,4.912-23.364,13.464-30.521,23.418
					c-2.544,3.54-4.866,7.241-7.065,11.012c-1.011,1.739-2.023,3.479-2.935,5.272c-0.23,0.452-2.598,4.13-2.598,4.253
					c-1.042-3.793-0.828-8.376-0.774-12.307c0.023-1.395,0.115-2.881,0.958-3.992c9.732-12.912,23.219-23.617,37.916-30.337
					C267.666,134.756,285.452,131.33,302.44,132.12z"/>
			</g>
			<g>
			</g>
		</g>
		<g>
			<linearGradient id="SVGID_5_" gradientUnits="userSpaceOnUse" x1="204.7377" y1="266.8686" x2="317.4865" y2="266.8686">
				<stop  offset="0.0013" style="stop-color:#00BD00"/>
				<stop  offset="1" style="stop-color:#006633"/>
			</linearGradient>
			<path style="fill:url(#SVGID_5_);" d="M248.675,255.518c-9.534,4.99-18.789,10.886-26.472,18.483
				c-3.664,3.664-7.228,7.743-9.693,12.334c-2.108,3.924-3.229,8.292-5.387,12.331c-1.73-3.408-2.593-8.767-2.342-12.551
				c0.21-3.161,2.798-5.882,4.633-8.306c5.124-6.767,11.673-12.36,18.731-17.024c13.887-9.178,29.226-16.167,45.29-20.539
				c7.896-2.149,15.966-3.666,24.108-4.502c3.777-0.387,7.605-0.563,11.4-0.607c2.452-0.029,7.32-0.552,8.543,1.909
				c-3.891,1.817-9.979,1.421-14.333,1.967c-4.992,0.626-9.975,1.35-14.917,2.295C274.308,243.972,261.22,248.952,248.675,255.518z"
				/>
		</g>
		<g id="XMLID_110_">
			<g>
				<linearGradient id="SVGID_6_" gradientUnits="userSpaceOnUse" x1="101.9667" y1="193.4587" x2="207.2151" y2="193.4587">
					<stop  offset="0" style="stop-color:#006633"/>
					<stop  offset="1" style="stop-color:#00BD00"/>
				</linearGradient>
				<path style="fill:url(#SVGID_6_);" d="M206.746,206.825c0.444,3.241,0.575,6.521,0.383,9.786
					c-2.866-2.613-4.927-5.862-7.785-8.529c-2.966-2.782-6.1-5.395-9.487-7.64c-1.946-1.287-3.969-2.452-6-3.617
					c-3.372-1.946-6.751-3.885-10.123-5.824c-2.498-1.441-4.996-2.874-7.609-4.077c-3.31-1.525-6.774-2.659-10.245-3.747
					c-8.782-2.751-17.51-5.28-26.59-6.705c-5.464-0.858-10.989-1.234-16.491-1.847c-2.95-0.33-5.893-0.728-8.82-1.195
					c-0.812-0.123-1.785-0.398-1.985-1.195c-0.866-3.418,18.728-1.31,20.95-1.019c18.858,2.483,37.839,6.858,55.073,15.104
					c5.778,2.766,11.333,5.977,16.69,9.479C198.769,198.457,206.026,201.599,206.746,206.825z"/>
			</g>
			<g>
			</g>
		</g>
		<g>
			<linearGradient id="SVGID_7_" gradientUnits="userSpaceOnUse" x1="103.128" y1="286.2914" x2="197.9282" y2="286.2914">
				<stop  offset="0" style="stop-color:#006633"/>
				<stop  offset="1" style="stop-color:#00BD00"/>
			</linearGradient>
			<path style="fill:url(#SVGID_7_);" d="M185.698,285.905c3.955,2.284,7.679,4.871,10.539,7.996
				c2.894,3.163,1.379,9.545,0.528,13.261c-2.044-2.261-3.295-4.788-5.621-6.764c-2.349-1.996-4.699-3.974-7.164-5.829
				c-4.921-3.703-10.123-7.034-15.548-9.95c-3.819-2.053-7.753-3.904-11.834-5.371c-2.881-1.035-5.828-1.876-8.791-2.646
				c-13.506-3.511-27.091-5.838-40.909-7.605c-0.824-0.105-4.557-0.274-3.621-2.152c0.324-0.65,1.126-0.893,1.85-0.957
				c2.669-0.237,5.206-0.53,7.916-0.455c11.116,0.307,22.273,1.287,33.102,3.907c9.241,2.235,18.218,5.561,26.677,9.902
				C176.848,281.308,181.409,283.429,185.698,285.905z"/>
		</g>
		<g id="XMLID_107_">
			<g>
				<linearGradient id="SVGID_8_" gradientUnits="userSpaceOnUse" x1="177.9517" y1="126.4876" x2="213.009" y2="59.3465">
					<stop  offset="0.0013" style="stop-color:#00BD00"/>
					<stop  offset="0.2309" style="stop-color:#00B902"/>
					<stop  offset="0.44" style="stop-color:#00AE09"/>
					<stop  offset="0.6411" style="stop-color:#009C13"/>
					<stop  offset="0.8361" style="stop-color:#008223"/>
					<stop  offset="1" style="stop-color:#006633"/>
				</linearGradient>
				<path style="fill:url(#SVGID_8_);" d="M188.947,47.019c1.816-1.308,4.998,14.997,4.998,14.997s6.003,21.997,8.004,30.001
					c1.995,8,3.999,18.003,4.997,24.999c1.005,6.999-4.996,22.002-4.996,22.002s-5.001-33.55-7.003-47.001
					C192.948,78.56,187.138,48.331,188.947,47.019z"/>
			</g>
			<g>
			</g>
		</g>
	</g>
	<g id="pot">
		<g id="XMLID_25_">
			<g>
				<path style="fill:#7A2222;" d="M256.386,362.428c-0.077,0-0.153,0-0.23,0c-0.636,0-1.272,0-1.9,0.008c-0.628,0-1.257,0-1.885,0
					c-0.054,0-0.115,0-0.169,0c-6.682-0.023-13.203,0.153-19.893,0.153c-12.445,0-24.897,0-37.341,0c-9.579,0-19.15,0-28.728,0
					c-5.632,0-11.241-0.077-16.851-0.176c-1.693-0.023-3.387-0.054-5.08-0.084c-0.881-0.015-1.831-0.046-2.536-0.575
					c-2.506-1.885-3.31-6.682-4.13-9.479c-0.736-2.529-1.402-5.073-1.992-7.632c-0.314-1.349-1.785-5.142-0.828-6.337
					c0.437-0.544,1.211-0.667,1.9-0.736c4.475-0.46,9.058-0.192,13.556-0.161c5.326,0.031,10.651,0.138,15.977,0.138
					c19.226,0,38.445,0,57.663,0c6.95,0,13.893-0.061,20.843-0.153c6.544-0.092,12.958,0.123,19.525-0.138
					c0.973-0.038,2-0.061,2.851,0.414c2.828,1.594,0.988,6.192,0.536,8.644c-0.843,4.598-2.973,8.973-4.866,13.219
					C261.536,362.389,259.298,362.412,256.386,362.428z"/>
				<path style="fill:#932927;" d="M256.157,362.428c0.077,0,0.153,0,0.23,0c-5.372,29.311-13.019,86.568-15.318,90.399
					c-2.299,3.831-4.529,4.023-13.027,4.598c-13.356,0.904-38.958,0.031-52.108,0c-3.226-0.008-7.663,0-9.893-3.333
					c-2.199-3.28-11.226-61.847-16.651-91.679c5.609,0.1,11.218,0.176,16.851,0.176c9.579,0,19.15,0,28.728,0
					c12.445,0,24.897,0,37.341,0c6.69,0,13.211-0.176,19.893-0.153c0.054,0,0.115,0,0.169,0c0.628,0,1.257,0,1.885,0
					C254.885,362.428,255.521,362.428,256.157,362.428z"/>
			</g>
			<g>
			</g>
		</g>
	</g>
</g>
<g id="glows">
	<linearGradient id="SVGID_9_" gradientUnits="userSpaceOnUse" x1="127.6285" y1="115.8375" x2="127.6285" y2="178.984">
		<stop  offset="0" style="stop-color:#FFFFFF;stop-opacity:0.01"/>
		<stop  offset="0.1505" style="stop-color:#FFFFF7;stop-opacity:0.159"/>
		<stop  offset="0.3835" style="stop-color:#FFFFE1;stop-opacity:0.3897"/>
		<stop  offset="0.6699" style="stop-color:#FFFFBE;stop-opacity:0.6732"/>
		<stop  offset="0.9961" style="stop-color:#FFFF8D;stop-opacity:0.9961"/>
		<stop  offset="1" style="stop-color:#FFFF8C"/>
	</linearGradient>
	<path style="opacity:0.4;fill:url(#SVGID_9_);" d="M96.276,115.838l1.336,51.519c0,0-1.892,11.21,31.549,11.628
		c31.995,0,29.787-11.628,29.787-11.628l-1-50.339L96.276,115.838z"/>
	<linearGradient id="SVGID_10_" gradientUnits="userSpaceOnUse" x1="280.3157" y1="82.2169" x2="280.3157" y2="143.923">
		<stop  offset="0" style="stop-color:#FFFFFF;stop-opacity:0.01"/>
		<stop  offset="0.1505" style="stop-color:#FFFFF7;stop-opacity:0.159"/>
		<stop  offset="0.3835" style="stop-color:#FFFFE1;stop-opacity:0.3897"/>
		<stop  offset="0.6699" style="stop-color:#FFFFBE;stop-opacity:0.6732"/>
		<stop  offset="0.9961" style="stop-color:#FFFF8D;stop-opacity:0.9961"/>
		<stop  offset="1" style="stop-color:#FFFF8C"/>
	</linearGradient>
	<path style="opacity:0.4;fill:url(#SVGID_10_);" d="M256.895,83.073l-0.579,49.015c0,0-1.48,11.41,24.684,11.835
		c25.033,0,23.306-11.835,23.306-11.835l-0.492-49.871L256.895,83.073z"/>
	<linearGradient id="SVGID_11_" gradientUnits="userSpaceOnUse" x1="122.6467" y1="214.6056" x2="122.6467" y2="276.3586">
		<stop  offset="0" style="stop-color:#FFFFFF;stop-opacity:0.01"/>
		<stop  offset="0.1505" style="stop-color:#FFFFF7;stop-opacity:0.159"/>
		<stop  offset="0.3835" style="stop-color:#FFFFE1;stop-opacity:0.3897"/>
		<stop  offset="0.6699" style="stop-color:#FFFFBE;stop-opacity:0.6732"/>
		<stop  offset="0.9961" style="stop-color:#FFFF8D;stop-opacity:0.9961"/>
		<stop  offset="1" style="stop-color:#FFFF8C"/>
	</linearGradient>
	<path style="opacity:0.4;fill:url(#SVGID_11_);" d="M89.362,214.606l1.291,51.414c0,0-2.013,9.967,33.559,10.339
		c34.033,0,31.685-10.339,31.685-10.339l-1.016-51.414H89.362z"/>
	<linearGradient id="SVGID_12_" gradientUnits="userSpaceOnUse" x1="288.3606" y1="181.2915" x2="288.3606" y2="245.6561">
		<stop  offset="0" style="stop-color:#FFFFFF;stop-opacity:0.01"/>
		<stop  offset="0.1505" style="stop-color:#FFFFF7;stop-opacity:0.159"/>
		<stop  offset="0.3835" style="stop-color:#FFFFE1;stop-opacity:0.3897"/>
		<stop  offset="0.6699" style="stop-color:#FFFFBE;stop-opacity:0.6732"/>
		<stop  offset="0.9961" style="stop-color:#FFFF8D;stop-opacity:0.9961"/>
		<stop  offset="1" style="stop-color:#FFFF8C"/>
	</linearGradient>
	<path style="opacity:0.4;fill:url(#SVGID_12_);" d="M262.353,181.292l1.009,54.7c0,0-1.573,9.317,26.222,9.664
		c26.593,0,24.758-9.664,24.758-9.664l-0.522-54.7H262.353z"/>
	<linearGradient id="SVGID_13_" gradientUnits="userSpaceOnUse" x1="200.9484" y1="369.9954" x2="200.9484" y2="500.1949">
		<stop  offset="0" style="stop-color:#FFFFFF;stop-opacity:0.01"/>
		<stop  offset="0.1505" style="stop-color:#FFFFF7;stop-opacity:0.159"/>
		<stop  offset="0.3835" style="stop-color:#FFFFE1;stop-opacity:0.3897"/>
		<stop  offset="0.6699" style="stop-color:#FFFFBE;stop-opacity:0.6732"/>
		<stop  offset="0.9961" style="stop-color:#FFFF8D;stop-opacity:0.9961"/>
		<stop  offset="1" style="stop-color:#FFFF8C"/>
	</linearGradient>
	<path style="opacity:0.4;fill:url(#SVGID_13_);" d="M118.384,369.995c0,0,15.104,89.625,16.175,97.118
		c1.07,7.493,10.872,33.081,69.13,33.081s65.751-27.729,67.892-35.222c2.141-7.493,11.931-92.913,11.931-92.913L118.384,369.995z"/>
</g>
<g id="coffee">
	<g id="XMLID_100_">
		<g>
			<path style="fill:#5B2D00;" d="M148.192,411.771c0.671,3.073,0.324,6.721-2.119,8.702c-4.448,3.591-13.183,0.849-17.486-1.755
				c-1.278-0.776-2.507-1.707-3.292-2.984c-1.108-1.787-1.189-4.117-0.364-6.05c1.933-4.489,7.837-4.917,12.107-5.37
				c2.604-0.275,5.427-0.17,7.57,1.326C146.599,407.032,147.682,409.401,148.192,411.771z"/>
		</g>
		<g>
		</g>
	</g>
	<g id="XMLID_99_">
		<g>
			<path style="fill:#3F1900;" d="M275.316,423.243c-0.073,3.194-3.462,7.215-7.115,7.674c-3.798,0.48-9.05-2.395-11.615-4.823
				c-0.609-0.58-1.185-1.252-1.382-2.019c-0.231-0.893,0.063-1.795,0.354-2.647c0.254-0.745,0.508-1.49,0.763-2.235
				c1.149-3.355,9.829-2.556,12.882-1.94c1.688,0.336,3.436,0.871,4.613,2.046C274.889,420.365,275.354,421.843,275.316,423.243z"/>
		</g>
		<g>
		</g>
	</g>
	<g id="XMLID_98_">
		<g>
			<path style="fill:#3F1900;" d="M134.698,415.532c1.144,1.48,0.467,3.397-1.098,4.675c-1.553,1.278-3.842,2.03-6.13,2.572
				c-2.207,0.526-4.566,0.906-6.878,0.679c-1.658-0.154-6.609-1.747-6.878-2.798c-1.203-4.837,7.508-7.133,12.856-7.336
				C129.642,413.211,133.239,413.656,134.698,415.532z"/>
		</g>
		<g>
		</g>
	</g>
	<g id="XMLID_97_">
		<g>
			<path style="fill:#3F1900;" d="M142.603,414.383c0.865,0.696,1.723,1.504,2.062,2.564c-3.017-0.55-5.977-1.432-8.808-2.612
				c-2.596-1.084-5.775-2.758-6.761-5.572l0.437-0.146c0.857,0.113,1.707,0.218,2.564,0.332c0.736,0.089,1.48,0.186,2.192,0.396
				c1.221,0.356,2.313,1.027,3.389,1.698C139.368,412.095,141.058,413.138,142.603,414.383z"/>
		</g>
		<g>
		</g>
	</g>
	<g id="Layer_15">
		<g id="XMLID_106_">
			<g>
				<path style="fill:#5B2D00;" d="M120.952,420.142c1.642,3.162,0.267,7.263-2.378,9.657c-2.637,2.402-6.244,3.413-9.762,3.995
					c-2.782,0.461-5.645,0.696-8.411,0.162c-2.774-0.542-5.459-1.925-7.117-4.206c-6.009-8.217,2.07-15.367,10.085-15.739
					C108.901,413.761,117.976,414.424,120.952,420.142z"/>
			</g>
			<g>
			</g>
		</g>
		<g id="XMLID_105_">
			<g>
				<path style="fill:#3F1900;" d="M110.098,421.088c1.99,0.016,6.85,0.008,8.169,1.504c-3.51,2.24-10.166,4.028-14.291,4.618
					c-0.825,0.113-1.666,0.194-2.483,0.049c-1.44-0.251-6.608-1.876-7.489-3.049C98.12,421.881,105.318,421.04,110.098,421.088z"/>
			</g>
			<g>
			</g>
		</g>
	</g>
	<g id="XMLID_96_">
		<g>
			<path style="fill:#5B2D00;" d="M161.496,427.235c0.647,3.106-1.415,7.845-4.481,9.188c-3.187,1.399-8.363-0.105-11.121-1.828
				c-0.663-0.412-1.302-0.914-1.65-1.618c-0.388-0.809-0.332-1.747-0.267-2.645c0.057-0.785,0.113-1.569,0.17-2.354
				c0.251-3.534,7.958-4.901,10.733-5.055c1.537-0.081,3.17,0.008,4.448,0.849C160.493,424.542,161.221,425.86,161.496,427.235z"/>
		</g>
		<g>
		</g>
	</g>
	<g id="XMLID_95_">
		<g>
			<path style="fill:#632A00;" d="M164.74,409.8c1.496,1.981,1.747,5.168,0.89,7.681c-0.865,2.513-2.693,4.371-4.723,5.342
				c-2.03,0.97-4.254,1.123-6.414,0.909c-1.844-0.174-3.745-0.633-5.241-2.012c-3.664-3.37-2.184-9.723,1.472-11.95
				c2.548-1.552,5.37-2.38,8.201-2.4C161.027,407.349,163.292,407.87,164.74,409.8z"/>
		</g>
		<g>
		</g>
	</g>
	<g id="XMLID_94_">
		<g>
			<path style="fill:#3F1900;" d="M123.653,437.482c0.558,8.937-11.816,13.563-18.4,8.112c-1.254-1.035-2.062-2.523-2.58-4.068
				c-0.817-2.426-0.954-5.176,0.146-7.497c1.173-2.475,3.68-3.777,6.179-4.634c3.179-1.092,6.745-0.623,9.819,0.744
				c0.954,0.429,1.876,0.946,2.62,1.674C122.926,433.268,123.524,435.412,123.653,437.482z"/>
		</g>
		<g>
		</g>
	</g>
	<g id="XMLID_93_">
		<g>
			<path style="fill:#3F1900;" d="M143.024,440.386c2.96-0.146,4.828,3.017,4.44,5.67c-0.315,2.143-1.787,3.979-3.575,5.2
				c-2.774,1.884-6.543,2.41-9.673,1.116c-1.682-0.696-2.507-1.229-2.58-3.081c-0.073-1.723,0.307-3.534,1.496-4.845
				c0.461-0.518,1.035-0.93,1.626-1.302C136.974,441.769,140.411,440.507,143.024,440.386z"/>
		</g>
		<g>
		</g>
	</g>
	<g id="XMLID_92_">
		<g>
			<path style="fill:#5B2D00;" d="M99.156,452.687c1.537,1.254,2.904,3.033,2.726,4.998c-0.582,6.228-11.865,5.621-15.456,3.656
				c-4.699-2.564-8.444-9.123-1.666-11.396C89.07,448.506,95.654,449.832,99.156,452.687z"/>
		</g>
		<g>
		</g>
	</g>
	<g id="XMLID_91_">
		<g>
			<path style="fill:#5B2D00;" d="M79.494,463.493c3.672,1.626,5.014,5.856,1.27,8.104c-2.014,1.221-4.351,1.893-6.705,1.949
				c-2.798,0.057-6.923-2.548-5.896-5.92c0.356-1.148,1.31-2.022,2.337-2.653C72.951,463.484,76.736,462.279,79.494,463.493z"/>
		</g>
		<g>
		</g>
	</g>
	<g id="XMLID_90_">
		<g>
			<path style="fill:#5B2D00;" d="M99.188,469.122c0.121,0.785,0.194,1.609-0.089,2.354c-0.566,1.456-2.256,2.07-3.769,2.443
				c-4.57,1.1-8.597,1.521-11.509-3.073c-2.208-3.486-0.979-6.931,3.09-8.023c3.526-0.946,7.829-1.197,10.296,1.496
				C98.395,465.612,98.921,467.383,99.188,469.122z"/>
		</g>
		<g>
		</g>
	</g>
	<g id="XMLID_89_">
		<g>
			<path style="fill:#5B2D00;" d="M106.038,436.892c1.229,2.499-0.073,5.686-2.313,7.352c-2.232,1.666-5.136,2.119-7.918,2.232
				c-4.125,0.178-13.135-3.073-8.072-8.751c2.224-2.499,6.972-4.02,10.207-4.173c1.545-0.081,3.122-0.016,4.586,0.477
				C104,434.522,105.351,435.501,106.038,436.892z"/>
		</g>
		<g>
		</g>
	</g>
	<g id="XMLID_88_">
		<g>
			<path style="fill:#3F1900;" d="M98.727,457.346c-1.941-0.008-3.874-0.016-5.807-0.024c-1.415-0.008-2.855-0.016-4.181-0.518
				c-2.062-0.768-3.017-2.426-4.78-3.453c0.93,0.615,3.64,0.202,4.731,0.178c1.771-0.04,3.421,0.275,5.079,0.962
				C95.532,455.219,97.134,456.286,98.727,457.346z"/>
		</g>
		<g>
		</g>
	</g>
	<g id="XMLID_87_">
		<g>
			<path style="fill:#3F1900;" d="M94.942,468.806c1.084,0.388,2.265,0.849,2.847,1.844c-1.755-0.582-3.575-0.995-5.411-1.205
				c-1.399-0.162-3.13-0.138-4.4-0.825c-1.116-0.607-1.334-1.836-2.548-2.378c1.375,0.121,2.629,0.388,3.955,0.752
				C91.262,467.512,93.098,468.159,94.942,468.806z"/>
		</g>
		<g>
		</g>
	</g>
	<g id="XMLID_86_">
		<g>
			<path style="fill:#3F1900;" d="M78.329,466.024c0.526,0.04,2.305,0.687,2.693,0.51c-1.69,0.768-3.389,1.545-5.184,2.022
				c-1.173,0-2.224,0.526-3.453,0.356c-0.987-0.129-1.771-0.372-2.806-0.34c1.456-1.359,3.518-2.103,5.459-2.418
				C76.121,465.976,77.229,465.927,78.329,466.024z"/>
		</g>
		<g>
		</g>
	</g>
	<g id="XMLID_85_">
		<g>
			<path style="fill:#5B2D00;" d="M128.247,472.794c0.032,1.755-0.768,3.502-2.119,4.626c-0.647,0.55-1.391,0.938-2.184,1.221
				c-1.496,0.534-3.179,0.679-4.78,0.801c-3.809,0.291-13.474,0.186-14.251-5.144c-0.776-5.386,6.268-6.583,10.102-6.915
				C119.415,466.995,128.158,466.558,128.247,472.794z"/>
		</g>
		<g>
		</g>
	</g>
	<g id="XMLID_84_">
		<g>
			<path style="fill:#3F1900;" d="M119.901,470.99c1.44,0.105,3.033,0.291,4.003,1.367c-0.016-0.016-7.732,1.496-8.808,1.318
				c-2.208-0.372-4.828-0.954-6.947-1.682C111.716,469.987,115.93,470.683,119.901,470.99z"/>
		</g>
		<g>
		</g>
	</g>
	<g id="XMLID_83_">
		<g>
			<path style="fill:#3F1900;" d="M125.611,452.574c0.412,2.257-4.367,2.904-4.578,0.113
				C120.807,449.695,125.271,450.754,125.611,452.574z"/>
		</g>
		<g>
		</g>
	</g>
	<g id="XMLID_82_">
		<g>
			<path style="fill:#5B2D00;" d="M115.994,454.725c2.418,1.707-1.569,4.473-2.75,2.079
				C112.258,454.822,114.28,453.512,115.994,454.725z"/>
		</g>
		<g>
		</g>
	</g>
	<g id="XMLID_81_">
		<g>
			<path style="fill:#3F1900;" d="M122.101,458.608c2.2-3.041,6.648,1.213,3.405,2.798c-0.51,0.259-1.116,0.259-1.682,0.17
				C122.74,461.39,121.276,459.748,122.101,458.608z"/>
		</g>
		<g>
		</g>
	</g>
	<g id="XMLID_78_">
		<g>
			<path style="fill:#3F1900;" d="M63.796,451.369c0.299,0.776-0.089,1.658-0.615,2.305c-0.922,1.116-3.057,2.491-4.61,1.917
				C53.678,453.779,62.219,447.293,63.796,451.369z"/>
		</g>
		<g>
		</g>
	</g>
	<g id="XMLID_77_">
		<g>
			<path style="fill:#5B2D00;" d="M106.443,479.975c1.561,1.901-1.504,3.85-3.219,2.984
				C99.916,481.294,104.89,478.075,106.443,479.975z"/>
		</g>
		<g>
		</g>
	</g>
	<g id="XMLID_73_">
		<g>
			<path style="fill:#3F1900;" d="M68.454,447.624c1.893-0.299,4.529,1.1,3.486,3.251c-0.971,1.998-3.073,1.682-4.804,0.89
				C64.896,450.738,66.634,447.907,68.454,447.624z"/>
		</g>
		<g>
		</g>
	</g>
	<g id="XMLID_72_">
		<g>
			<path style="fill:#3F1900;" d="M85.439,432.015c2.588,0.032,1.925,2.912-0.34,2.944c-1.221,0.016-2.2-1.658-1.132-2.531
				C84.371,432.096,84.913,432.015,85.439,432.015z"/>
		</g>
		<g>
		</g>
	</g>
	<g id="XMLID_71_">
		<g>
			<path style="fill:#3F1900;" d="M81.314,437.013c0.801-0.356,2.103,0.388,2.087,1.302c-0.008,0.51-0.348,0.962-0.76,1.254
				c-1.124,0.793-2.273,0.194-2.208-1.197C80.465,437.806,80.796,437.24,81.314,437.013z"/>
		</g>
		<g>
		</g>
	</g>
	<g id="XMLID_70_">
		<g>
			<path style="fill:#5B2D00;" d="M134.875,486.591c0.776,3.728-2.006,6.729-5.451,7.724c-1.893,0.542-3.898,0.542-5.864,0.388
				c-1.682-0.137-3.478-0.437-4.683-1.618c-0.235-0.235-0.453-0.51-0.51-0.841c-0.057-0.307,0.024-0.631,0.121-0.93
				c1.512-4.861,6.672-8.144,11.719-8.128c1.343,0.008,2.782,0.283,3.688,1.278C134.431,485.047,134.705,485.815,134.875,486.591z"
				/>
		</g>
		<g>
		</g>
	</g>
	<g id="XMLID_69_">
		<g>
			<path style="fill:#3F1900;" d="M132.878,486.025c-1.415,1.909-3.195,2.823-5.233,3.89c-0.647,0.34-1.278,0.873-1.982,1.068
				c-0.259,0.065-3.081-0.008-2.92-0.315c0.849-1.561,2.127-2.418,3.769-3.106C127.532,487.133,132.441,486.616,132.878,486.025z"/>
		</g>
		<g>
		</g>
	</g>
	<g id="XMLID_68_">
		<g>
			<path style="fill:#5B2D00;" d="M269.897,433.883c0.461,0.857,0.793,1.852,0.582,2.806c-0.421,1.933-2.717,2.742-4.691,2.952
				c-4.044,0.412-9.438-0.696-11.396-4.78c-2.887-6.025,3.348-7.328,7.918-6.406C265.457,429.095,268.385,431.044,269.897,433.883z"
				/>
		</g>
		<g>
		</g>
	</g>
	<g id="XMLID_67_">
		<g>
			<path style="fill:#3F1900;" d="M267.568,434.975c-3.373,0.995-8.589,0.251-10.741-2.823
				C260.944,432.152,264.583,431.335,267.568,434.975z"/>
		</g>
		<g>
		</g>
	</g>
	<g id="XMLID_66_">
		<g>
			<path style="fill:#5B2D00;" d="M297.274,461.398c0.251,8.185-12.407,5.33-17.607,4.157c-0.744-0.162-1.561-0.404-1.949-1.06
				c-0.291-0.493-0.267-1.1-0.243-1.674c0.065-1.108,0.138-2.248,0.566-3.267c0.768-1.852,2.645-2.2,4.335-2.863
				c2.976-1.165,6.276-1.504,9.43-0.971c1.982,0.332,4.1,1.173,4.966,2.992C297.169,459.538,297.25,460.484,297.274,461.398z"/>
		</g>
		<g>
		</g>
	</g>
	<g id="XMLID_63_">
		<g>
			<path style="fill:#3F1900;" d="M284.803,458.907c3.227-1.092,6.681-1.537,10.077-1.302c-3.995,2.548-8.686,3.987-13.426,4.109
				c-0.299,0.008-0.712-0.275-0.485-0.461l0.129-0.081C282.004,460.015,283.412,459.384,284.803,458.907z"/>
		</g>
		<g>
		</g>
	</g>
	<g id="XMLID_62_">
		<g>
			<path style="fill:#3F1900;" d="M276.816,443.035c0.882,5.168-7.206,6.106-7.942,1.116
				C268.138,439.152,275.943,437.923,276.816,443.035z"/>
		</g>
		<g>
		</g>
	</g>
	<g id="XMLID_61_">
		<g>
			<path style="fill:#5B2D00;" d="M281.37,433.269c0.501,0.728,0.485,1.707,0.226,2.548c-0.671,2.208-3.219,4.448-5.629,3.688
				c-1.488-0.469-2.588-1.901-2.79-3.453c-0.558-4.141,3.85-5.265,6.915-3.769C280.585,432.524,281.062,432.824,281.37,433.269z"/>
		</g>
		<g>
		</g>
	</g>
	<g id="XMLID_58_">
		<g>
			<path style="fill:#713C00;" d="M279.327,445.4c2.451-3.081,7.101,0.146,3.858,3.324
				C280.88,450.997,277.249,448.021,279.327,445.4z"/>
		</g>
		<g>
		</g>
	</g>
	<g id="XMLID_57_">
		<g>
			<path style="fill:#632A00;" d="M288.734,481.755c2.208-1.1,5.467,0.146,3.09,2.588
				C289.025,487.23,285.733,483.251,288.734,481.755z"/>
		</g>
		<g>
		</g>
	</g>
	<g id="XMLID_56_">
		<g>
			<path style="fill:#5B2D00;" d="M258.962,417.796c1.205,2.265,0.647,5.209-0.987,7.19c-1.634,1.982-4.157,3.073-6.705,3.389
				c-2.103,0.259-4.359,0.008-6.098-1.205c-1.739-1.197-4.052-3.348-3.162-5.386c1.294-2.96,3.85-5.961,7.069-6.915
				c1.787-0.526,3.704-0.728,5.516-0.283C256.407,415.022,258.097,416.147,258.962,417.796z"/>
		</g>
		<g>
		</g>
	</g>
	<g id="XMLID_14_">
		<g>
			<path style="fill:#3F1900;" d="M242.949,421.654c4.367-3.559,13.709-3.615,13.709-3.615S246.709,422.908,242.949,421.654z"/>
		</g>
		<g>
		</g>
	</g>
	<g id="XMLID_13_">
		<g>
			<path style="fill:#3F1900;" d="M107.725,476.242c0.96,2.301-4.275,2.955-5.33,1.203
				C100.474,474.268,106.501,473.297,107.725,476.242z"/>
		</g>
		<g>
		</g>
	</g>
	<g>
		<path style="fill:#632A00;" d="M116.06,485.908c4.093,0.179-0.029-6.575-1.864-2.405c-0.219,0.498-0.154,0.972,0.078,1.366
			C114.623,485.465,115.354,485.877,116.06,485.908z"/>
	</g>
	<g id="XMLID_12_">
		<g>
			<path style="fill:#3F1900;" d="M153.636,419.147c0.714,3.106-1.592,7.845-5.01,9.188c-3.563,1.399-9.361-0.105-12.445-1.828
				c-0.742-0.412-1.456-0.914-1.836-1.618c-0.443-0.809-0.38-1.747-0.307-2.645c0.063-0.785,0.127-1.569,0.19-2.354
				c0.289-3.534,8.899-4.901,12.01-5.055c1.709-0.081,3.536,0.008,4.974,0.849C152.514,416.454,153.319,417.772,153.636,419.147z"/>
		</g>
		<g>
		</g>
	</g>
	<g id="Layer_17">
		<g id="XMLID_60_">
			<g>
				<path style="fill:#5B2D00;" d="M138.863,418.846c6.6,2.039,9.429,8.815,5.876,14.658c-3.366,5.548-10.415,9.374-16.928,8.705
					c-3.75-0.384-7.269-2.16-9.44-5.306c-2.028-2.927-3.563-7.762-1.787-11.018c1.338-2.434,3.64-4.243,6.172-5.383
					c1.655-0.735,3.399-1.217,5.186-1.557c0.954-0.175,1.908-0.318,2.861-0.428C133.501,418.188,136.275,418.046,138.863,418.846z"
					/>
			</g>
			<g>
			</g>
		</g>
		<g id="XMLID_59_">
			<g>
				<path style="fill:#3F1900;" d="M124.653,429.071c-1.147,0.137-2.32,0.186-3.492,0.218c-0.444,0.008-2.665-0.17-2.924,0.016
					c2.011-1.415,4.047-3.009,6.724-3.874c5.009-1.609,10.845-2.111,16.311-1.383c-3.282,1.715-7.045,3.033-11.042,3.89
					C128.403,428.327,126.528,428.844,124.653,429.071z"/>
			</g>
			<g>
			</g>
		</g>
	</g>
	<g id="XMLID_10_">
		<g>
			<path style="fill:#3F1900;" d="M259.59,429.661c0.714,3.106-1.592,7.845-5.019,9.188c-3.563,1.399-9.352-0.105-12.436-1.828
				c-0.742-0.412-1.456-0.914-1.845-1.618c-0.434-0.809-0.371-1.747-0.298-2.645c0.063-0.785,0.127-1.569,0.19-2.354
				c0.28-3.534,8.899-4.901,12.001-5.055c1.718-0.081,3.545,0.008,4.974,0.849C258.459,426.968,259.273,428.286,259.59,429.661z"/>
		</g>
		<g>
		</g>
	</g>
</g>
<g id="people_1_">
	<g id="XMLID_9_">
		<g>
			<path style="fill:#4F290D;" d="M246.922,466.208c1.015,2.239,0.446,4.885,1.072,7.256c-1.603,0.636-3.377,0.844-5.084,0.598
				l-0.901,0.123c-0.123-0.93-0.247-1.859-0.36-2.789h-0.104c0.009-0.313,0.076-1.11,0.171-2.182l0.645,0.057
				c1.423-0.275,2.827-0.683,4.183-1.224c0.114-0.038,0.228-0.095,0.285-0.199c0.038-0.076,0.038-0.161,0.038-0.247
				c-0.009-0.465-0.028-0.93-0.047-1.394H246.922z"/>
			<path style="fill:#CC6F28;" d="M229.146,385.458c-0.047-0.114-0.104-0.237-0.152-0.351c-0.768-1.84-1.518-3.908-1.641-5.9
				c-0.085-1.347,7.304,2.665,7.664,2.798c3.254,1.252,7.351,1.783,10.833,2.656c0.256,0.066,0.541,0.152,0.702,0.37
				c0.142,0.19,0.142,0.455,0.142,0.692c-0.038,3.586-0.076,7.171-0.114,10.766c0,0.266-0.009,0.55-0.133,0.787
				c-0.123,0.228-0.341,0.379-0.55,0.531c-1.024,0.702-2.077,1.366-3.149,1.992c-0.123,0.085-0.256,0.161-0.389,0.237
				c-0.341,0.19-0.74,0.389-1.119,0.266c-0.256-0.085-0.446-0.304-0.607-0.531c-0.977-1.385-1.432-3.121-1.262-4.809
				c0.114-1.129,0.484-2.352-0.076-3.329c-0.323-0.55-0.882-0.911-1.423-1.252c-1.897-1.186-3.889-2.827-6.137-3.244
				c-0.569-0.104-1.167-0.152-1.65-0.465C229.649,386.387,229.374,385.932,229.146,385.458z"/>
			<path style="fill:#123177;" d="M242.625,442.741c-2.646,0.873-6.232,0.095-9.211,0.579c-0.579,0.085-1.138,0.228-1.66,0.436
				c-1.897-3.794-0.949-7.588-1.271-11.117l-0.066-0.607c0.617-0.057,1.224-0.247,1.821-0.465c0,0.076,0,0.161-0.009,0.237
				c0.009-0.057,0.844-0.512,1.964-1.1c0.768-0.389,1.669-0.854,2.523-1.299c1.385-0.721,2.618-1.385,2.903-1.603
				c2.201-1.736,4.269-3.386,5.739-5.843c0.123-0.199,0.237-0.398,0.351-0.607l0.37,0.199c-0.095,6.08,0.854,11.772-0.095,17.463
				c-0.304,1.053-0.749,1.85-1.3,2.438C244.105,442.068,243.412,442.476,242.625,442.741z"/>
			<path style="fill:#303030;" d="M242.71,457.662c0.104-4.97-0.304-9.95-0.085-14.921c0.787-0.266,1.48-0.673,2.058-1.29
				l0.085,0.076c1.024,8.233,1.793,16.429,2.049,24.682c0.019,0.465,0.038,0.93,0.047,1.394c0,0.085,0,0.171-0.038,0.247
				c-0.057,0.104-0.171,0.161-0.285,0.199c-1.356,0.541-2.76,0.949-4.183,1.224l-0.645-0.057
				C242.028,465.478,242.691,458.468,242.71,457.662z"/>
			<path style="fill:#262626;" d="M234.098,471.72c1.527-6.27,0.341-12.843-0.36-19.36c-0.323-3.035-0.541-6.061-0.323-9.04
				c2.978-0.484,6.564,0.294,9.211-0.579c-0.218,4.97,0.19,9.95,0.085,14.921c-0.019,0.806-0.683,7.816-0.996,11.553
				c-0.095,1.072-0.161,1.869-0.171,2.182c0,0.085,0,0.133,0.009,0.133c-2.485,0.066-4.98,0.142-7.465,0.209
				C234.088,471.729,234.088,471.729,234.098,471.72z"/>
			<path style="fill:#4F290D;" d="M241.553,471.53c-0.009,0-0.009-0.047-0.009-0.133h0.104c0.114,0.93,0.237,1.859,0.36,2.789
				c0.228,1.717,0.417,3.443,0.427,5.16c0,0.038-0.009,0.085-0.038,0.123c-0.019,0.028-0.066,0.038-0.114,0.038
				c-1.034,0.133-2.077,0.275-3.121,0.408c-0.057-0.588-0.133-1.167-0.228-1.745c-0.379,0.237-0.541,0.683-0.74,1.081
				c-0.683,1.394-3.661,0.768-4.989,0.711c-0.512-0.019-5.957-0.579-5.957-0.55c0.522-1.622,1.157-3.377,2.628-4.231
				c1.3-0.74,3.197-0.778,3.804-2.144c0.161-0.36,0.199-0.768,0.332-1.138c0.019-0.057,0.047-0.123,0.085-0.18
				c-0.009,0.009-0.009,0.009-0.009,0.019C236.573,471.672,239.068,471.596,241.553,471.53z"/>
			<path style="fill:#C19874;" d="M241.107,405.235c-1.262,0.398-2.751,0.408-3.918,1.043c-0.389,0.218-0.797,0.398-1.205,0.55
				l-0.313-3.785c2.115,0.323,4.667,0.36,6.156-0.598l0.228,0.323c0.085,0.702,0.104,1.404,0.066,2.115l0.019,0.066
				C241.847,405.017,241.496,405.112,241.107,405.235z"/>
			<path style="fill:#244F9B;" d="M234.126,430.571c-0.028-0.009-0.038-0.038-0.047-0.057c-0.465-1.603-0.93-3.206-1.394-4.819
				l-0.066-0.076c1.271-1.081,2.352-2.163,3.273-3.5c0.379-0.569,0.74-1.186,1.062-1.869c0.986-2.058,1.603-5.189,3.329-6.763
				c0.721-0.664,1.812-0.911,2.751-0.617c1.024,0.313,1.745,1.138,2.296,2.077c0.228,0.379,0.427,0.768,0.598,1.157
				c0.304,0.655,0.588,1.328,0.655,2.049c0.114,1.119-0.313,2.201-0.873,3.197c-0.114,0.209-0.228,0.408-0.351,0.607
				c-1.47,2.457-3.538,4.107-5.739,5.843c-0.285,0.218-1.518,0.882-2.903,1.603c-0.854,0.446-1.755,0.911-2.523,1.299
				L234.126,430.571z"/>
			<path style="fill:#FFFFFF;" d="M236.469,408.394c-1.356,0.323-2.552,0.522-3.292,1.186l-0.066-0.076
				c-0.019-0.484-0.009-0.977,0.038-1.451c0-0.114,0.009-0.218,0.019-0.332c0.958-0.304,1.907-0.541,2.817-0.892
				c0.408-0.152,0.816-0.332,1.205-0.55c1.167-0.636,2.656-0.645,3.918-1.043c0.389-0.123,0.74-0.218,1.034-0.285
				c1.964-0.417,2.144,0.417,2.163,2.884C242.986,406.848,237.892,408.062,236.469,408.394z"/>
			<path style="fill:#244F9B;" d="M225.769,417.889c-3.832,1.337-7.75,2.381-11.724,3.111c-0.541-1.546-1.167-3.908-1.736-5.227
				l-0.104-0.18c3.605-2.153,7.883-3.965,11.686-5.264c1.537-0.522,3.102-0.977,4.686-1.356c1.508-0.37,3.035-0.636,4.572-0.92
				c-0.047,0.474-0.057,0.968-0.038,1.451l0.066,0.076c-0.522,0.455-0.806,1.129-0.778,2.21l0.199,0.313
				c-1.024,0.645-2.02,1.319-2.988,2.068c-0.882,0.692-1.85,1.281-2.865,1.755c-0.313,0.142-0.655,0.294-0.835,0.598
				c-0.19,0.323,0.066,0.806,0.285,1.233L225.769,417.889z"/>
			<path style="fill:#FFFFFF;" d="M232.684,425.696c0.465,1.613,0.93,3.216,1.394,4.819c0.009,0.019,0.019,0.047,0.047,0.057
				l0.066,0.133c-1.119,0.588-1.954,1.043-1.964,1.1c0.009-0.076,0.009-0.161,0.009-0.237c0.057-1.413-0.579-2.77-1.1-4.05
				c-0.028-0.085-0.057-0.161-0.066-0.247c-0.019-0.057-0.028-0.104-0.019-0.161c0.028-0.218,0.209-0.379,0.379-0.512
				c0.417-0.332,0.806-0.655,1.186-0.977L232.684,425.696z"/>
			<path style="fill:#123177;" d="M236.953,420.251c-0.323,0.683-0.683,1.3-1.062,1.869h-0.009
				c-0.18-3.737-0.711-7.456-1.565-11.098c-0.579,0.36-1.157,0.711-1.717,1.081l-0.199-0.313c-0.028-1.081,0.256-1.755,0.778-2.21
				c0.74-0.664,1.935-0.863,3.292-1.186c1.423-0.332,6.517-1.546,7.835-0.56c0.019,0.009,0.038,0.019,0.057,0.038
				c0.949,0.806,0.987,5.625,1.195,6.943l-0.228,0.133c-0.55-0.939-1.271-1.764-2.296-2.077c-0.939-0.294-2.03-0.047-2.751,0.617
				C238.556,415.062,237.939,418.192,236.953,420.251z"/>
			<path style="fill:#E5B789;" d="M241.24,400.303c0.379,0.123,0.778-0.076,1.119-0.266c0.133-0.076,0.266-0.152,0.389-0.237
				l0.323,0.541c-0.076,0.977-0.541,1.65-1.243,2.106c-1.489,0.958-4.041,0.92-6.156,0.598c-1.11-0.161-2.087-0.398-2.741-0.607
				c-6.555-2.125-3.88-11.781-3.785-16.979c0.228,0.474,0.503,0.93,0.939,1.214c0.484,0.313,1.081,0.36,1.65,0.465
				c2.248,0.417,4.24,2.058,6.137,3.244c0.541,0.341,1.1,0.702,1.423,1.252c0.56,0.977,0.19,2.201,0.076,3.329
				c-0.171,1.688,0.285,3.424,1.262,4.809C240.794,399.999,240.984,400.217,241.24,400.303z"/>
			<path style="fill:#152B51;" d="M208.211,485.464c-0.095,0.114-0.19,0.237-0.294,0.341l-0.626-0.161
				c-0.768-9.95-2.457-19.806-3.026-29.766l-0.313-0.721l0.768-0.142c8.063-10.311,13.754-20.745,22.509-31.321l0.161-0.028h0.009
				c0.123,0.825,0.247,1.66,0.379,2.485l0.047,0.37c-0.171,0-0.341,0.104-0.446,0.247c-0.133,0.209-0.152,0.465-0.161,0.711
				c-0.066,1.935-0.057,4.335,2.438,4.563c0.256,0.019,0.512,0.019,0.759-0.009l0.066,0.607c0.323,3.529-0.626,7.323,1.271,11.117
				c0.522-0.209,1.081-0.351,1.66-0.436c-0.218,2.978,0,6.004,0.323,9.04l-0.835,0.095c-1.148,2.684-0.199,6.479-4.942,5.53
				c-0.949,2.846-0.949,8.537-5.568,7.484c-0.009,0.095-0.009,0.18-0.009,0.247c-0.038,1.982,0.759,4.676-1.062,6.498
				c-1.138,1.138-3.225,0.911-4.676,0.987c-0.142,1.755-0.825,3.889-1.451,5.559c-0.076,0.209-0.161,0.427-0.332,0.569
				c-0.512,0.436-1.271-0.066-1.945-0.123c-0.636-0.047-1.252,0.351-1.641,0.854c-0.398,0.512-0.626,1.129-0.873,1.726
				C209.833,483.093,209.094,484.335,208.211,485.464z"/>
			<path style="fill:#CECECE;" d="M231.053,427.109c-0.009,0.057,0,0.104,0.019,0.161c-0.408,0.009-0.816,0.18-1.224,0.304
				c-0.541,0.161-1.252,0.142-1.508-0.36c-0.104-0.209-0.114-0.493-0.313-0.636c-0.066-0.038-0.133-0.057-0.199-0.057l-0.047-0.37
				c-0.133-0.825-0.256-1.66-0.379-2.485h-0.009c-0.066-0.446-0.133-0.892-0.199-1.337c-0.095-0.569-0.18-1.129-0.266-1.698
				c-0.123-0.797-0.247-1.594-0.493-2.362c-0.047-0.142-0.133-0.323-0.237-0.512c-0.218-0.427-0.474-0.911-0.285-1.233
				c0.18-0.304,0.522-0.455,0.835-0.598c1.015-0.474,1.982-1.062,2.865-1.755c0.968-0.749,1.964-1.423,2.988-2.068
				c0.56-0.37,1.138-0.721,1.717-1.081c0.854,3.642,1.385,7.361,1.565,11.098h0.009c-0.92,1.337-2.001,2.419-3.273,3.5
				c-0.379,0.323-0.768,0.645-1.186,0.977C231.261,426.729,231.081,426.891,231.053,427.109z"/>
			<path style="fill:#E5B789;" d="M229.658,432.041c-2.495-0.228-2.504-2.628-2.438-4.563c0.009-0.247,0.028-0.503,0.161-0.711
				c0.104-0.142,0.275-0.247,0.446-0.247c0.066,0,0.133,0.019,0.199,0.057c0.199,0.142,0.209,0.427,0.313,0.636
				c0.256,0.503,0.968,0.522,1.508,0.36c0.408-0.123,0.816-0.294,1.224-0.304c0.009,0.085,0.038,0.161,0.066,0.247
				c0.522,1.281,1.157,2.637,1.1,4.05c-0.598,0.218-1.205,0.408-1.821,0.465C230.171,432.06,229.914,432.06,229.658,432.041z"/>
			<path style="fill:#66CCCC;" d="M216.103,426.208l-2.846,4.743h-9.486l3.633-5.008
				C210.09,425.942,213.419,426.208,216.103,426.208z"/>
			<path style="fill:#FFFFFF;" d="M212.309,415.774c0.569,1.318,1.195,3.68,1.736,5.227c-0.692,0.133-1.385,0.247-2.087,0.36
				l-0.028-0.038c-0.028,0.019-0.057,0.047-0.085,0.057l-0.019-0.028c-0.446-1.404-1.167-3.187-1.413-4.629h0.009
				c0.569-0.389,1.167-0.768,1.783-1.129L212.309,415.774z"/>
			<path style="fill:#E5B789;" d="M210.716,422.091c-1.176,0.588-2.523,0.825-3.832,0.655l-0.028-0.047
				c0.768-0.427,1.328-1.043,1.129-2.087c-0.142-0.759-0.427-1.508-0.958-2.068c-0.417-0.436-0.92-0.626-1.461-0.702
				c0.949-1.072,3.5-1.072,4.847-1.119c0.247,1.442,0.968,3.225,1.413,4.629l0.019,0.028
				C211.493,421.664,211.114,421.901,210.716,422.091z"/>
			<path style="fill:#183054;" d="M173.304,484.705c-0.275-1.546-0.417-3.092-0.493-4.638c-0.36-8.015,1.356-16.097-0.863-24.454
				l0.161-0.455c0.085,0,0.161,0,0.247,0c10.529,0,21.067,0,31.596,0l0.313,0.721c0.569,9.96,2.258,19.815,3.026,29.766l0.626,0.161
				c-0.313,0.341-0.683,0.626-1.129,0.683c-0.844,0.114-1.575-0.617-2.409-0.806c-2.286-0.512-3.633,2.381-6.137,1.413
				c-1.669-0.645-2.191-2.504-4.316-1.764c-1.167,0.408-1.878,1.632-3.254,1.575c-1.233-0.057-1.869-1.262-3.035-1.451
				c-1.622-0.247-2.808,1.973-4.43,1.774c-0.721-0.095-1.281-0.645-1.888-1.043c-2.523-1.679-5.227-0.266-7.427,1.195
				C173.646,486.489,173.456,485.597,173.304,484.705z"/>
			<path style="fill:#A87343;" d="M205.565,417.841c0.541,0.076,1.043,0.266,1.461,0.702c0.531,0.56,0.816,1.309,0.958,2.068
				c0.199,1.043-0.36,1.66-1.129,2.087c-0.389,0.218-0.825,0.389-1.252,0.541c-1.594,0.588-4.212,0.161-5.625-0.825l-0.408,0.057
				c-0.095-0.787-0.104-1.802-0.095-1.973c0.009-0.275,0.038-0.541,0.057-0.787l0.285,0.019c0.636-0.417,1.281-0.816,1.935-1.195
				c0.285-0.171,0.569-0.332,0.882-0.436c0.294-0.095,0.617-0.133,0.93-0.171C204.218,417.851,204.91,417.756,205.565,417.841z"/>
			<path style="fill:#1FA046;" d="M201.258,433.625c2.22,0.199,4.439,0.398,6.659,0.598c1.205,0.114,2.542,0.294,3.263,1.262
				c0.123,0.171-0.939,0.351-1.546,0.436c-0.209,0.028-0.36,0.047-0.408,0.047c-0.996,0.038-1.954,0.009-2.941-0.085
				c-1.262-0.133-2.514-0.256-3.775-0.379c-1.034-0.104-2.144-0.19-3.14-0.446c0.142-0.579,0.398-1.243,1.053-1.413
				C200.699,433.578,200.983,433.597,201.258,433.625z"/>
			<path style="fill:#FFFFFF;" d="M200.661,442.779c0.028,0.057,0.066,0.104,0.066,0.161c0.009,0.085-0.038,0.161-0.076,0.228
				c-0.645,0.996-1.413,1.982-1.945,3.045c-0.133,0.266-1.47,2.324-1.622,2.134c-0.683-0.854-1.423-1.622-2.115-2.438
				c-0.379-0.436-0.74-0.892-1.072-1.375c-0.237-0.341-0.522-0.683-0.711-1.053c-0.104-0.199-0.18-0.341-0.209-0.465
				c-0.057-0.285,0.095-0.446,0.465-0.882c1.29-1.518,2.59-3.026,3.87-4.563C198.498,439.26,199.494,441.072,200.661,442.779z"/>
			<path style="fill:#A08D80;" d="M194.438,424.339l0.066,0.455c-0.636,0.797-2.893,3.842-5.739,7.693l-0.009-0.009
				c-0.161-2.229-0.531-4.439-1.11-6.602l-0.019-0.93C189.942,424.908,192.19,424.671,194.438,424.339z"/>
			<path style="fill:#C4C5C6;" d="M193.898,444.534c0.332,0.484,0.692,0.939,1.072,1.375l-0.104,0.085
				c-0.702,0.863-1.423,1.707-2.172,2.533c0.218-1.812,0.285-3.642,0.209-5.464l0.076-0.047c0.028,0.123,0.104,0.266,0.209,0.465
				C193.376,443.851,193.661,444.192,193.898,444.534z"/>
			<path style="fill:#20396E;" d="M193.442,442.134c-0.37,0.436-0.522,0.598-0.465,0.882l-0.076,0.047
				c0.076,1.821,0.009,3.652-0.209,5.464c0.749-0.825,1.47-1.669,2.172-2.533l0.104-0.085c0.692,0.816,1.432,1.584,2.115,2.438
				c0.152,0.19,1.489-1.869,1.622-2.134c0.531-1.062,1.3-2.049,1.945-3.045c0.038-0.066,0.085-0.142,0.076-0.228
				c0-0.057-0.038-0.104-0.066-0.161c-1.167-1.707-2.163-3.519-3.348-5.208C196.032,439.108,194.732,440.616,193.442,442.134z
				 M199.959,423.428c-0.199,0-0.313-0.427-0.389-0.958l0.408-0.057c1.413,0.987,4.031,1.413,5.625,0.825
				c0.427-0.152,0.863-0.323,1.252-0.541l0.028,0.047c1.309,0.171,2.656-0.066,3.832-0.655l0.161,0.304c5.302,0,10.605,0,15.907,0
				l0.408-0.066c0.066,0.446,0.133,0.892,0.199,1.337l-0.161,0.028c-8.755,10.576-14.447,21.011-22.509,31.321l-0.768,0.142
				c-10.529,0-21.067,0-31.596,0v-0.218c0.427-0.636,2.447-3.415,5.103-7.057c3.377-4.619,7.788-10.633,11.307-15.395
				c2.846-3.851,5.103-6.896,5.739-7.693l-0.066-0.455C196.269,424.083,198.09,423.76,199.959,423.428z M213.258,430.951
				l2.846-4.743c-2.684,0-6.014-0.266-8.698-0.266l-3.633,5.008H213.258z M209.634,435.921c0.607-0.085,1.669-0.266,1.546-0.436
				c-0.721-0.968-2.058-1.148-3.263-1.262c-2.22-0.199-4.439-0.398-6.659-0.598c-0.275-0.028-0.56-0.047-0.835,0.019
				c-0.654,0.171-0.911,0.835-1.053,1.413c0.996,0.256,2.106,0.341,3.14,0.446c1.262,0.123,2.514,0.247,3.775,0.379
				c0.987,0.095,1.945,0.123,2.941,0.085C209.274,435.968,209.426,435.949,209.634,435.921z"/>
			<path style="fill:#E2D6CF;" d="M166.295,419.919c0.787,1.385,2.277,2.229,3.785,2.732c2.836,0.939,5.758,1.319,8.708,1.679
				c2.201,0.266,4.401,0.531,6.621,0.607c0.749,0.028,1.489,0.028,2.22,0.009l0.019,0.93c0.579,2.163,0.949,4.373,1.11,6.602
				l0.009,0.009c-3.519,4.762-7.93,10.776-11.307,15.395l-0.142-0.104c-1.783,0.379-3.092,1.945-4.8,2.58
				c-0.958,0.36-1.992,0.408-3.007,0.455c-0.247,0.009-0.503,0.009-0.759-0.009c-0.588-0.057-1.138-0.237-1.404-0.721
				c-0.171-0.313-0.18-0.692-0.19-1.053c-0.019-2.371,0.237-4.582,0.579-6.934c1.205-8.414-1.726-16.069-2.305-24.378l0.228-0.019
				C165.725,418.534,165.934,419.302,166.295,419.919z"/>
			<path style="fill:#E2D6CF;" d="M183.767,406.022c3.339,1.755,1.945,7.551,2.969,10.529l-0.047,0.104
				c-0.455-0.199-0.901-0.436-1.328-0.702c-1.812-1.119-3.301-2.732-5.17-3.747c-1.783-0.977-3.823-1.366-5.815-1.736
				c-1.138-0.209-2.324-0.417-3.462-0.36c1.603-1.043,3.937-2.609,6.346-3.624C179.555,405.52,181.917,405.055,183.767,406.022z"/>
			<path style="fill:#A87343;" d="M177.222,403.623c-2.362,0.332-5.179-0.351-7.332-1.3c-0.711-0.313-1.356-0.664-1.878-1.005
				l-0.076-0.199c0.199-0.076,0.389-0.171,0.569-0.294c1.793-1.252,0.949-4.193,2.153-6.014c0.503-0.749,1.318-1.233,2.125-1.641
				c2.684-1.375,5.445-2.447,7.465-4.781c0.114-0.123,0.209-0.256,0.304-0.379l0.673,0.218c1.062,3.206,1.764,11.601-1.043,14.124
				C179.385,403.072,178.36,403.461,177.222,403.623z"/>
			<path style="fill:#33160B;" d="M178.076,382.327c3.567,0.74,4.401,3.149,2.476,5.682c-0.095,0.123-0.19,0.256-0.304,0.379
				c-2.02,2.333-4.781,3.405-7.465,4.781c-0.806,0.408-1.622,0.892-2.125,1.641c-1.205,1.821-0.36,4.762-2.153,6.014
				c-0.18,0.123-0.37,0.218-0.569,0.294c-1.024,0.379-2.248,0.171-3.339,0.465c-2.941,0.787-3.633,4.638-3.348,7.674
				c0.285,3.026,0.844,6.536-1.271,8.727c-0.968,1.015-2.343,1.527-3.68,1.982c-2.324,0.797-5.549,1.186-6.621-1.015
				c-1.157-2.362,1.556-4.847,1.66-7.475c0.085-2.333-1.916-4.259-2.296-6.574c-0.512-3.102,1.992-5.91,4.695-7.503
				c1.537-0.901,7.569-2.703,8.196-4.316c0.835-2.163-2.476-2.068-3.472-3.415c-5.122-6.877,7.92-14.295,10.444-7.579
				c0.142,0.37,0.218,0.787,0.465,1.091c1.186,1.508,2.808-0.465,3.908-0.863c1.214-0.436,3.159-0.266,4.401-0.066
				C177.81,382.28,177.943,382.299,178.076,382.327z"/>
			<path style="fill:#A08D80;" d="M183.767,406.022c-1.85-0.968-4.212-0.503-6.507,0.465c-0.009-0.114-0.019-0.256-0.019-0.408
				l0.275-0.009c1.176-0.835,3.235-1.081,4.648-1.243c6.09-0.673,6.972,8.926,8.594,12.862l-0.028,0.161
				c-1.404-0.237-2.76-0.607-4.041-1.195l0.047-0.104C185.712,413.573,187.106,407.777,183.767,406.022z"/>
			<path style="fill:#915E39;" d="M177.26,406.487c-2.409,1.015-4.743,2.58-6.346,3.624c-0.152,0.009-0.304,0.019-0.455,0.047
				c0-2.609,0.133-5.018-0.683-7.588l0.114-0.247c2.153,0.949,4.97,1.632,7.332,1.3c0.038,0.626,0,1.717,0.019,2.457
				C177.241,406.231,177.25,406.373,177.26,406.487z"/>
			<path style="fill:#663333;" d="M173.304,484.705c-1.081,0.009-2.182-0.152-3.216-0.465c-0.152-0.047-0.294-0.095-0.398-0.199
				c-0.171-0.18-0.18-0.446-0.171-0.683c0.019-1.1,0.038-2.21,0.066-3.31c0.986,0.009,1.973,0.019,2.96,0.038l0.266-0.019
				C172.887,481.613,173.029,483.159,173.304,484.705z"/>
			<path style="fill:#B7A497;" d="M170.459,410.158c0.152-0.028,0.304-0.038,0.455-0.047c1.138-0.057,2.324,0.152,3.462,0.36
				c1.992,0.37,4.031,0.759,5.815,1.736c1.869,1.015,3.358,2.628,5.17,3.747c0.427,0.266,0.873,0.503,1.328,0.702
				c1.281,0.588,2.637,0.958,4.041,1.195c2.504,0.427,5.132,0.446,7.598,0.588c1.167,0.066,1.252,0.56,1.205,1.271
				c-0.019,0.247-0.047,0.512-0.057,0.787c-0.009,0.171,0,1.186,0.095,1.973c0.076,0.531,0.19,0.958,0.389,0.958
				c-1.869,0.332-3.69,0.654-5.521,0.911c-2.248,0.332-4.496,0.569-6.811,0.607c-0.73,0.019-1.47,0.019-2.22-0.009
				c-2.22-0.076-4.42-0.341-6.621-0.607c-2.95-0.36-5.872-0.74-8.708-1.679c-1.508-0.503-2.997-1.347-3.785-2.732
				c-0.36-0.617-0.569-1.385-0.636-2.22c-0.237-2.751,1.034-6.175,3.329-7.162C169.463,410.329,169.956,410.215,170.459,410.158z"/>
			<path style="fill:#1D264F;" d="M169.586,480.048c-0.114,0-0.228,0-0.341,0c-0.123,0-0.256,0-0.36-0.076
				c-0.152-0.114-0.161-0.341-0.152-0.531c0.37-9.524,0.711-19.104,0.019-28.637c0.256,0.019,0.512,0.019,0.759,0.009
				c1.015-0.047,2.049-0.095,3.007-0.455c1.707-0.636,3.016-2.201,4.8-2.58l0.142,0.104c-2.656,3.642-4.676,6.422-5.103,7.057v0.218
				c-0.085,0-0.161,0-0.247,0l-0.161,0.455c2.22,8.357,0.503,16.439,0.863,24.454l-0.266,0.019
				C171.559,480.067,170.573,480.057,169.586,480.048z"/>
		</g>
		<g>
		</g>
	</g>
</g>
<g id="symbols">
	<g id="wrench">
		<g>
			<g id="XMLID_6_">
				<g>
					<path style="fill:#2D4891;" d="M301.665,192.002l0.009,0.029l0.005,0.037c0.04,0.256,0.082,0.542,0.13,0.846
						c0.096,0.608,0.205,1.301,0.28,1.966l0.002,0.006c0.216,2.323-0.174,4.869-1.136,7.359c-0.398,1.057-0.962,2.051-1.587,2.782
						c-0.913,0.978-2.049,1.745-3.397,2.295c-1.202,0.551-1.979,0.908-2.248,2.054c-0.293,1.382-0.373,2.897-0.454,4.368
						c-0.02,0.458-0.047,0.913-0.072,1.353c-0.37,4.036-0.68,7.812-0.941,11.561c-0.045,0.606-0.126,1.217-0.202,1.807
						c-0.099,0.743-0.196,1.512-0.218,2.257c-0.026,1.002-0.05,1.971-1.099,2.583c-0.175,0.117-0.36,0.199-0.564,0.261
						c-0.443,0.135-0.941,0.153-1.444,0.153l-0.447-0.004c-1.642-0.016-3.336-0.036-4.754-1.222
						c-1.043-0.874-0.837-2.542-0.69-3.752c0.033-0.246,0.059-0.477,0.074-0.679c0.107-2.37,0.226-4.196,0.368-5.908
						c0.218-2.799,0.563-5.643,0.869-8.048c0.069-0.715,0.151-1.428,0.24-2.143c0.084-0.707,0.174-1.416,0.241-2.137
						c0.015-0.138,0.034-0.284,0.054-0.43c0.111-0.83,0.238-1.773-0.246-2.314c-0.178-0.188-0.423-0.343-0.666-0.492
						c-0.089-0.062-0.176-0.118-0.265-0.18c-3.055-1.79-4.87-4.092-5.517-7.016c-0.663-2.869-0.416-5.887,0.675-8.289
						c1.158-2.601,4.007-5.315,7.52-5.117c0.514,0.015,0.987,0.209,1.295,0.53c0.301,0.424,0.311,0.918,0.318,1.4
						c-0.075,1.367-0.268,2.719-0.455,4.03c-0.158,1.112-0.322,2.27-0.417,3.401c0.008,0.068,0.005,0.164-0.003,0.262
						c-0.007,0.123-0.014,0.227,0.015,0.32c0.293,1.089,1.82,1.523,4.542,1.299c0.366-0.054,0.73-0.114,0.957-0.329
						c0.229-0.21,0.282-0.538,0.346-0.914c0.247-1.617,0.414-3.12,0.504-4.58c0.08-0.782,0.155-1.582,0.195-2.289
						c0.009-0.117,0.007-0.25,0.001-0.395c0-0.522-0.008-1.176,0.392-1.559c0.447-0.416,1.035-0.595,1.741-0.536
						c1.818,0.154,4.032,1.926,4.759,2.87C300.86,190.151,301.254,190.923,301.665,192.002z M301.207,193.008
						c-0.044-0.292-0.089-0.565-0.123-0.823c-0.382-1.005-0.753-1.72-1.196-2.318c-0.645-0.842-2.708-2.494-4.324-2.633
						c-0.529-0.043-0.956,0.081-1.274,0.375c-0.202,0.195-0.202,0.698-0.197,1.111c0.002,0.152,0.004,0.305-0.002,0.434
						c-0.042,0.72-0.123,1.522-0.199,2.296c-0.093,1.474-0.262,2.991-0.508,4.632c-0.073,0.43-0.157,0.908-0.527,1.262
						c-0.366,0.347-0.865,0.423-1.308,0.494c-1.163,0.093-4.631,0.377-5.199-1.743c-0.057-0.187-0.048-0.368-0.034-0.531
						c0.004-0.071,0.008-0.142,0.002-0.224c0.095-1.195,0.264-2.354,0.419-3.478c0.185-1.298,0.374-2.643,0.453-3.953
						c-0.009-0.386-0.012-0.773-0.186-1.007c-0.167-0.172-0.486-0.298-0.846-0.31c-0.726-0.04-1.422,0.057-2.075,0.256
						c-2.262,0.688-4.029,2.627-4.859,4.504c-1.043,2.286-1.275,5.165-0.638,7.908c0.608,2.751,2.324,4.917,5.248,6.633
						c0.097,0.066,0.184,0.122,0.271,0.179c0.269,0.173,0.546,0.35,0.78,0.597c0.674,0.75,0.525,1.891,0.402,2.808
						c-0.021,0.14-0.042,0.28-0.053,0.411c-0.067,0.721-0.157,1.43-0.24,2.143c-0.09,0.709-0.174,1.416-0.241,2.137
						c-0.31,2.413-0.653,5.244-0.869,8.029c-0.141,1.712-0.257,3.531-0.364,5.901c-0.017,0.215-0.045,0.46-0.077,0.711
						c-0.144,1.139-0.318,2.555,0.476,3.218c1.247,1.041,2.762,1.058,4.367,1.079l0.441,0.006c0.634-0.008,1.244-0.035,1.69-0.329
						c0.769-0.444,0.785-1.105,0.807-2.016c0.026-0.836,0.124-1.624,0.225-2.381c0.077-0.584,0.156-1.181,0.193-1.772
						c0.267-3.75,0.574-7.532,0.945-11.568c0.029-0.429,0.05-0.882,0.072-1.334c0.08-1.496,0.159-3.036,0.469-4.468
						c0.339-1.441,1.322-1.893,2.567-2.469c1.309-0.532,2.377-1.252,3.218-2.151c0.571-0.677,1.099-1.602,1.472-2.594
						c0.923-2.408,1.306-4.856,1.098-7.086C301.414,194.295,301.301,193.61,301.207,193.008z"/>
					<path style="fill:#333399;" d="M301.084,192.185c0.034,0.257,0.079,0.53,0.123,0.823c0.094,0.602,0.207,1.287,0.277,1.935
						c0.207,2.23-0.175,4.678-1.098,7.086c-0.373,0.993-0.901,1.917-1.472,2.594c-0.841,0.899-1.909,1.619-3.218,2.151
						c-1.245,0.576-2.229,1.029-2.567,2.469c-0.31,1.432-0.389,2.972-0.469,4.468c-0.022,0.452-0.043,0.905-0.072,1.334
						c-0.37,4.036-0.678,7.818-0.945,11.568c-0.037,0.591-0.116,1.188-0.193,1.772c-0.101,0.757-0.199,1.545-0.225,2.381
						c-0.022,0.911-0.038,1.572-0.807,2.016c-0.445,0.295-1.055,0.321-1.69,0.329l-0.441-0.006c-1.605-0.021-3.12-0.038-4.367-1.079
						c-0.794-0.663-0.62-2.079-0.476-3.218c0.032-0.252,0.059-0.496,0.077-0.711c0.107-2.37,0.222-4.189,0.364-5.901
						c0.216-2.786,0.559-5.616,0.869-8.029c0.067-0.721,0.151-1.428,0.241-2.137c0.082-0.713,0.172-1.422,0.24-2.143
						c0.011-0.131,0.032-0.271,0.053-0.411c0.122-0.916,0.272-2.057-0.402-2.808c-0.234-0.247-0.511-0.424-0.78-0.597
						c-0.087-0.056-0.174-0.113-0.271-0.179c-2.923-1.716-4.64-3.881-5.248-6.633c-0.637-2.743-0.405-5.622,0.638-7.908
						c0.83-1.877,2.597-3.816,4.859-4.504c0.653-0.199,1.349-0.296,2.075-0.256c0.36,0.011,0.679,0.137,0.846,0.31
						c0.173,0.234,0.176,0.622,0.186,1.007c-0.079,1.311-0.268,2.655-0.453,3.953c-0.155,1.124-0.324,2.284-0.419,3.478
						c0.006,0.081,0.002,0.152-0.002,0.224c-0.014,0.163-0.023,0.344,0.034,0.531c0.569,2.12,4.036,1.835,5.199,1.743
						c0.443-0.071,0.943-0.147,1.308-0.494c0.37-0.355,0.454-0.832,0.527-1.262c0.246-1.642,0.415-3.158,0.508-4.632
						c0.076-0.775,0.157-1.577,0.199-2.296c0.005-0.129,0.004-0.281,0.002-0.434c-0.005-0.413-0.005-0.916,0.197-1.111
						c0.318-0.294,0.745-0.418,1.274-0.375c1.616,0.139,3.679,1.791,4.324,2.633C300.331,190.465,300.701,191.18,301.084,192.185z
						 M289.642,227.847c0.031-0.799-0.284-1.436-0.911-1.799c-0.714-0.42-1.721-0.381-2.449,0.095
						c-0.633,0.409-0.944,1.084-0.858,1.847c0.118,1.162,1.185,1.76,2.182,1.75c0.229,0,0.462-0.032,0.683-0.1
						c0.647-0.197,1.2-0.684,1.31-1.494C289.644,228.082,289.671,227.985,289.642,227.847z"/>
				</g>
				<g>
				</g>
			</g>
		</g>
	</g>
	<g id="flask">
		<g id="XMLID_4_">
			<g>
				<path style="fill:#5FFBFF;" d="M297.418,124.018c1.206,6.424-11.811,7.677-15.898,7.677c-3.49,0-7.138-0.47-10.39-1.78
					c-2.192-0.881-5.114-2.743-5.989-5.05c-1.096-2.899,2.261-7.497,3.63-9.758c0.406-0.673,1.247-2.053,2.192-3.624
					c-0.035,0.099-0.052,0.203-0.052,0.307c0,1.664,4.581,3.015,10.228,3.015c5.642,0,10.222-1.351,10.222-3.015
					c0-0.157-0.041-0.307-0.116-0.458l0.087-0.052l1.583,2.632C292.912,113.912,296.844,120.945,297.418,124.018z"/>
				<path style="fill:#58BDF4;" d="M286.563,103.348l4.766,7.932l-0.087,0.052c-0.754-1.45-4.992-2.557-10.106-2.557
					c-4.812,0-8.848,0.98-9.932,2.302c1.815-3.038,3.885-6.61,3.896-7.126c0.058-2.197,0.11-4.401,0.151-6.598
					c0.058-3.311,0.615-6.32-2.36-8.587c-0.835-0.632-1.432-1.084-1.136-2.273c0.319-1.305,5.63-1.096,6.598-1.142
					c3.131-0.145,6.262,0.006,9.387,0.168c0.406,0.023,0.818,0.046,1.194,0.191c1.026,0.4,1.136,1.455,0.47,2.279
					c-0.307,0.388-0.725,0.673-1.102,0.997c-0.452,0.4-0.806,0.829-1.078,1.276c-0.91,1.496-0.951,3.259-0.934,5.108
					C286.308,98.431,286.563,100.286,286.563,103.348z"/>
				<path style="fill:#56E8E4;" d="M291.243,111.332c0.075,0.151,0.116,0.302,0.116,0.458c0,1.664-4.581,3.015-10.222,3.015
					c-5.647,0-10.228-1.351-10.228-3.015c0-0.104,0.017-0.209,0.052-0.307c0-0.006,0.006-0.006,0.006-0.012
					c0.075-0.128,0.157-0.261,0.238-0.394c1.084-1.322,5.12-2.302,9.932-2.302C286.25,108.775,290.489,109.882,291.243,111.332z"/>
				<path style="fill:#33D1A0;" d="M271.204,111.076c-0.081,0.133-0.162,0.267-0.238,0.394
					C271.013,111.337,271.094,111.204,271.204,111.076z"/>
			</g>
			<g>
			</g>
		</g>
		<g id="bubbles">
			<circle style="opacity:0.5;fill:#FFFFFF;" cx="281.458" cy="99.856" r="1.657"/>
			<circle style="opacity:0.5;fill:#FFFFFF;" cx="275.494" cy="77.323" r="1.657"/>
			<circle style="opacity:0.5;fill:#FFFFFF;" cx="286.429" cy="70.365" r="2.651"/>
			<circle style="opacity:0.5;fill:#FFFFFF;" cx="280.464" cy="91.572" r="0.994"/>
			<circle style="opacity:0.5;fill:#FFFFFF;" cx="277.813" cy="122.719" r="1.657"/>
			<circle style="opacity:0.5;fill:#FFFFFF;" cx="285.103" cy="128.021" r="0.994"/>
		</g>
	</g>
	<g id="gear">
		<g id="circle_2_">
			<g id="XMLID_5_">
				<g>
					<path style="fill:#602626;" d="M125.191,158.496l-0.203-0.014l-0.203-0.014c-2.546-0.428-3.98-0.585-6.215,1.826
						c-0.189,0.233-0.406,0.422-0.595,0.655c-0.476,0.522-0.925,1.098-1.297,1.114c-0.175,0.035-0.906-0.005-2.731-1.546
						c-0.937-0.756-1.34-1.36-1.531-1.703c-0.382-0.681-0.27-0.94,0.627-1.957c0.168-0.161,0.336-0.317,0.428-0.499
						c1.421-1.692,1.832-3.014,0.528-6.707c-0.349-1.081-0.738-1.888-1.097-2.526c-1.067-1.901-2.368-2.389-4.05-2.532
						c-0.077-0.021-0.203-0.014-0.33-0.007c-0.85-0.038-1.457-0.206-1.76-0.74c-0.303-0.54-0.349-1.537-0.162-2.797
						c0.373-2.2,0.995-2.8,1.235-2.941c0.441-0.247,1.074-0.15,1.784,0.093l0.149,0.041c0.26,0.067,0.516,0.11,0.769,0.142
						c2.178,0.273,3.961-0.717,5.793-3.19c2.212-2.91,1.905-4.596,1.358-6.147c-0.056-0.098-0.064-0.219-0.092-0.268
						c-0.057-0.224-0.142-0.371-0.2-0.589c-0.289-0.738-0.494-1.333-0.286-1.763c0.224-0.514,0.975-1.001,2.084-1.432
						c2.976-1.092,3.386-0.362,3.712,0.221c0.168,0.295,0.282,0.617,0.473,0.954l0.114,0.322c0.142,0.366,0.361,0.758,0.58,1.15
						c1.096,1.945,2.58,2.524,5.146,2.88c2.981,0.505,5.329,0.919,7.113-2.072c0.234-0.324,0.469-0.648,0.706-0.898
						c0.232-0.256,0.47-0.431,0.703-0.471c0.225-0.063,0.9,0.005,2.253,1.041c1.163,0.819,1.825,1.54,2.185,2.173
						c0.41,0.73,0.482,1.206-0.667,2.362c-2.221,2.207-2.394,3.269-1.104,6.709c0.375,1.011,0.687,1.797,1.047,2.429
						c1.23,2.195,2.643,2.424,3.782,2.618c0.12-0.002,0.225,0.068,0.352,0.061c0.154,0.042,0.275,0.035,0.429,0.077
						c0.935,0.18,1.716,0.318,1.991,0.808c0.163,0.288,0.376,1.005-0.069,2.728c-0.521,2.152-1.193,2.786-1.58,3.006
						c-0.392,0.219-0.976,0.1-1.61-0.122c-2.878-1.011-5.043,0.844-6.774,2.782c-2.472,2.797-2.185,4.561-1.689,6.014l0.057,0.093
						c0.12,0.448,0.34,0.835,0.51,1.255c0.198,0.464,0.53,1.047,0.412,1.306c-0.021,0.077-0.294,0.613-2.09,1.3
						c-3.188,1.282-3.598,0.552-3.873,0.061c-0.191-0.338-0.389-0.807-0.566-1.348c-0.233-0.639-0.383-1.131-0.624-1.572
						C129.038,158.961,127.455,158.763,125.191,158.496z M130.071,149.729c2.828-1.589,3.83-5.17,2.246-7.996
						c-1.59-2.822-5.17-3.83-7.997-2.24c-2.822,1.59-3.829,5.164-2.24,7.992C123.669,150.312,127.244,151.313,130.071,149.729z"/>
					<path style="fill:#774444;" d="M110.472,136.758c1.344,0.334,2.792,0.287,4.815-2.389c2.028-2.67,1.373-3.716,0.989-4.973
						c-0.361-1.214-2.225-4.076,2.646-5.911c3.665-1.353,4.961-0.415,5.752,1.001c0.247,0.436,0.474,0.949,0.672,1.418
						c0.142,0.366,0.333,0.709,0.496,1.003c0.686,1.215,1.46,1.677,3.907,2.035c3.129,0.552,4.232,0.576,5.387-1.36
						c1.05-1.55,2.406-3.592,6.119-0.743c1.204,0.989,1.945,1.857,2.383,2.636c1.067,1.901,0.206,3.219-0.823,4.247
						c-1.647,1.629-1.857,1.939-0.688,4.937c0.347,0.961,0.657,1.622,0.955,2.155c0.961,1.705,1.804,1.617,3.042,1.881
						c1.012,0.201,2.748,0.322,3.54,1.732c0.466,0.828,0.575,2.05,0.117,3.977c-1.298,5.213-3.936,4.518-5.364,4.036
						c-1.47-0.458-2.805-0.09-4.969,2.341c-2.158,2.432-1.606,3.533-1.308,4.517c0.518,1.827,2.844,3.92-2.19,5.911
						c-3.756,1.536-5.12,0.823-5.941-0.637c-0.247-0.441-0.496-1.003-0.701-1.593c-0.149-0.492-0.319-0.912-0.51-1.25
						c-0.685-1.22-1.662-1.246-3.955-1.562c-2.425-0.435-3.108-0.629-4.922,1.287c-1.689,1.784-2.631,3.98-6.887,0.408
						c-0.965-0.805-1.579-1.549-1.932-2.186c-1.202-2.141,0.46-3.397,1.245-4.291c0.945-1.17,1.365-1.79,0.23-5.062
						c-0.375-1.011-0.659-1.747-0.962-2.281c-0.707-1.269-1.452-1.562-2.732-1.671c-0.527-0.026-2.474,0.043-3.378-1.564
						c-0.466-0.828-0.701-2.044-0.341-3.914C106.124,135.289,109.101,136.369,110.472,136.758z M113.042,156.858
						c-0.897,1.016-1.01,1.276-0.627,1.957c0.191,0.343,0.594,0.947,1.531,1.703c1.825,1.54,2.555,1.581,2.731,1.546
						c0.373-0.016,0.821-0.593,1.297-1.114c0.189-0.233,0.406-0.422,0.595-0.655c2.235-2.411,3.669-2.254,6.215-1.826l0.203,0.014
						l0.203,0.014c2.264,0.267,3.847,0.465,4.92,2.367c0.241,0.441,0.39,0.933,0.624,1.572c0.177,0.541,0.375,1.011,0.566,1.348
						c0.275,0.491,0.685,1.22,3.873-0.061c1.797-0.687,2.069-1.223,2.09-1.3c0.118-0.259-0.214-0.842-0.412-1.306
						c-0.17-0.42-0.389-0.807-0.51-1.255l-0.057-0.093c-0.496-1.453-0.782-3.217,1.689-6.014c1.731-1.938,3.896-3.793,6.774-2.782
						c0.633,0.222,1.217,0.341,1.61,0.122c0.387-0.219,1.059-0.853,1.58-3.006c0.444-1.723,0.232-2.44,0.069-2.728
						c-0.275-0.491-1.056-0.628-1.991-0.808c-0.154-0.042-0.275-0.035-0.429-0.077c-0.126,0.007-0.232-0.063-0.352-0.061
						c-1.139-0.194-2.552-0.423-3.782-2.618c-0.36-0.632-0.672-1.418-1.047-2.429c-1.29-3.44-1.117-4.502,1.104-6.709
						c1.148-1.156,1.077-1.632,0.667-2.362c-0.36-0.632-1.022-1.354-2.185-2.173c-1.352-1.036-2.028-1.104-2.253-1.041
						c-0.233,0.039-0.472,0.215-0.703,0.471c-0.237,0.25-0.471,0.574-0.706,0.898c-1.783,2.992-4.132,2.577-7.113,2.072
						c-2.566-0.356-4.05-0.936-5.146-2.88c-0.219-0.392-0.437-0.785-0.58-1.15l-0.114-0.322c-0.191-0.338-0.305-0.66-0.473-0.954
						c-0.326-0.583-0.736-1.312-3.712-0.221c-1.109,0.431-1.86,0.918-2.084,1.432c-0.208,0.43-0.003,1.026,0.286,1.763
						c0.058,0.218,0.142,0.366,0.2,0.589c0.028,0.049,0.036,0.17,0.092,0.268c0.547,1.551,0.854,3.237-1.358,6.147
						c-1.832,2.473-3.616,3.463-5.793,3.19c-0.253-0.032-0.509-0.075-0.769-0.142l-0.149-0.041
						c-0.711-0.243-1.343-0.339-1.784-0.093c-0.24,0.141-0.863,0.741-1.235,2.941c-0.186,1.259-0.141,2.257,0.162,2.797
						c0.304,0.534,0.91,0.701,1.76,0.74c0.126-0.007,0.253-0.014,0.33,0.007c1.681,0.142,2.982,0.631,4.05,2.532
						c0.359,0.638,0.748,1.445,1.097,2.526c1.304,3.693,0.893,5.015-0.528,6.707C113.378,156.541,113.21,156.697,113.042,156.858z"
						/>
				</g>
				<g>
				</g>
			</g>
		</g>
	</g>
	<g id="terminal">
		<g id="XMLID_1_">
			<g>
				<path style="fill:#141414;" d="M146.256,235.81v20.394c0,1.936-1.581,3.516-3.516,3.516h-38.775
					c-1.929,0-3.516-1.581-3.516-3.516V235.81c14.974,0,30.188,0,45.162,0H146.256z"/>
				<path style="fill:#444444;" d="M146.256,230.9v4.91h-0.645c-14.975,0-30.188,0-45.162,0v-4.91c0-1.929,1.587-3.516,3.516-3.516
					h38.775C144.675,227.384,146.256,228.971,146.256,230.9z"/>
			</g>
			<g>
			</g>
		</g>
		<g id="Layer_23">
			<g>
				<g>
					<g>
						<path style="fill:#0AE20F;" d="M126.956,248.502c0.108-2.02-0.029-5.609-2.634-6.055c-2.744-0.469-3.296,3.13-3.363,5.094
							c-0.069,2.021,0.027,6.499,3.137,6.259C126.401,253.622,126.768,250.208,126.956,248.502c0.081-0.738-1.074-0.732-1.155,0
							c-0.088,0.8-0.227,2.439-0.72,3.108c-2.04,2.765-2.878-1.061-2.95-1.923c-0.059-0.709-0.041-1.436-0.016-2.147
							c0.041-1.191,0.937-6.022,3.092-2.999c0.76,1.066,0.662,2.712,0.595,3.961C125.761,249.245,126.916,249.243,126.956,248.502z"
							/>
					</g>
				</g>
				<g>
					<g>
						<path style="fill:#0AE20F;" d="M125.493,244.522c-1.324,1.694-2.675,3.365-4.052,5.016c-0.473,0.567,0.34,1.388,0.817,0.817
							c1.378-1.65,2.728-3.322,4.052-5.016C126.762,244.76,125.95,243.937,125.493,244.522L125.493,244.522z"/>
					</g>
				</g>
			</g>
			<g>
				<g>
					<g>
						<path style="fill:#0AE20F;" d="M116.568,242.902c0,3.341,0,6.683,0,10.024c0,0.743,1.155,0.744,1.155,0
							c0-3.341,0-6.683,0-10.024C117.723,242.159,116.568,242.158,116.568,242.902L116.568,242.902z"/>
					</g>
				</g>
				<g>
					<g>
						<path style="fill:#0AE20F;" d="M116.529,242.57c-0.369,0.532-0.701,1.083-0.998,1.658c-0.341,0.659,0.656,1.244,0.997,0.583
							c0.297-0.575,0.629-1.127,0.998-1.658C117.951,242.541,116.95,241.963,116.529,242.57L116.529,242.57z"/>
					</g>
				</g>
				<g>
					<g>
						<path style="fill:#0AE20F;" d="M115.717,253.511c1.018,0,2.036,0,3.054,0c0.743,0,0.744-1.155,0-1.155
							c-1.018,0-2.036,0-3.054,0C114.973,252.357,114.972,253.511,115.717,253.511L115.717,253.511z"/>
					</g>
				</g>
			</g>
			<g>
				<g>
					<g>
						<path style="fill:#0AE20F;" d="M130.317,242.902c0,3.341,0,6.683,0,10.024c0,0.743,1.155,0.744,1.155,0
							c0-3.341,0-6.683,0-10.024C131.472,242.159,130.317,242.158,130.317,242.902L130.317,242.902z"/>
					</g>
				</g>
				<g>
					<g>
						<path style="fill:#0AE20F;" d="M130.278,242.57c-0.369,0.532-0.701,1.083-0.998,1.658c-0.341,0.659,0.656,1.244,0.997,0.583
							c0.297-0.575,0.629-1.127,0.998-1.658C131.7,242.541,130.699,241.963,130.278,242.57L130.278,242.57z"/>
					</g>
				</g>
				<g>
					<g>
						<path style="fill:#0AE20F;" d="M129.465,253.511c1.018,0,2.036,0,3.054,0c0.743,0,0.744-1.155,0-1.155
							c-1.018,0-2.036,0-3.054,0C128.722,252.357,128.721,253.511,129.465,253.511L129.465,253.511z"/>
					</g>
				</g>
			</g>
			<g>
				<g>
					<g>
						<path style="fill:#0AE20F;" d="M140.705,248.502c0.108-2.02-0.029-5.609-2.634-6.055c-2.744-0.469-3.296,3.13-3.363,5.094
							c-0.069,2.021,0.027,6.499,3.137,6.259C140.149,253.622,140.517,250.208,140.705,248.502c0.081-0.738-1.074-0.732-1.155,0
							c-0.088,0.8-0.227,2.439-0.72,3.108c-2.04,2.765-2.878-1.061-2.95-1.923c-0.059-0.709-0.041-1.436-0.016-2.147
							c0.041-1.191,0.937-6.022,3.092-2.999c0.76,1.066,0.662,2.712,0.595,3.961C139.51,249.245,140.665,249.243,140.705,248.502z"
							/>
					</g>
				</g>
				<g>
					<g>
						<path style="fill:#0AE20F;" d="M139.241,244.522c-1.324,1.694-2.675,3.365-4.052,5.016c-0.473,0.567,0.34,1.388,0.817,0.817
							c1.378-1.65,2.728-3.322,4.052-5.016C140.511,244.76,139.699,243.937,139.241,244.522L139.241,244.522z"/>
					</g>
				</g>
			</g>
			<g id="zero-0">
				<g>
					<g>
						<path style="fill:#0AE20F;" d="M112.657,248.502c0.108-2.02-0.029-5.609-2.634-6.055c-2.744-0.469-3.296,3.13-3.363,5.094
							c-0.069,2.021,0.027,6.499,3.137,6.259C112.102,253.622,112.469,250.208,112.657,248.502c0.081-0.738-1.074-0.732-1.155,0
							c-0.088,0.8-0.227,2.439-0.72,3.108c-2.04,2.765-2.878-1.061-2.95-1.923c-0.059-0.709-0.041-1.436-0.016-2.147
							c0.041-1.191,0.937-6.022,3.092-2.999c0.76,1.066,0.662,2.712,0.595,3.961C111.463,249.245,112.618,249.243,112.657,248.502z"
							/>
					</g>
				</g>
				<g>
					<g>
						<path style="fill:#0AE20F;" d="M111.194,244.522c-1.324,1.694-2.675,3.365-4.052,5.016c-0.473,0.567,0.34,1.388,0.817,0.817
							c1.378-1.65,2.728-3.322,4.052-5.016C112.463,244.76,111.651,243.937,111.194,244.522L111.194,244.522z"/>
					</g>
				</g>
			</g>
		</g>
		<g id="buttons_2_">
			<g id="red_2_">
				<path style="fill:#FFFFFF;" d="M106.634,232.153"/>
				<g>
					<path style="fill:#C42A2A;" d="M106.634,233.911c2.262,0,2.266-3.516,0-3.516C104.372,230.395,104.368,233.911,106.634,233.911
						L106.634,233.911z"/>
				</g>
			</g>
			<g id="yellow_2_">
				<g>
					<path style="fill:#FFE05F;" d="M111.15,233.911c2.262,0,2.266-3.516,0-3.516C108.888,230.395,108.884,233.911,111.15,233.911
						L111.15,233.911z"/>
				</g>
			</g>
			<g id="green_2_">
				<g>
					<path style="fill:#81D35B;" d="M115.667,233.911c2.262,0,2.266-3.516,0-3.516C113.404,230.395,113.401,233.911,115.667,233.911
						L115.667,233.911z"/>
				</g>
			</g>
		</g>
	</g>
</g>
</svg>
