<svg width="1440" height="4594" viewBox="0 0 1440 4594" fill="none" xmlns="http://www.w3.org/2000/svg">
<g clip-path="url(#clip0)">
<rect width="157" height="14" rx="6.99999" transform="matrix(-1 8.74228e-08 8.74228e-08 1 50 3347)" fill="#384176"/>
<rect width="325" height="14" rx="6.99999" transform="matrix(1 -8.74228e-08 -8.74228e-08 -1 41 3361)" fill="#384176"/>
<rect width="88.2187" height="14" rx="7" transform="matrix(0.707107 0.707107 0.707107 -0.707107 351 3354.9)" fill="#384176"/>
<path fill-rule="evenodd" clip-rule="evenodd" d="M425 3403C435.493 3403 444 3411.51 444 3422C444 3432.49 435.493 3441 425 3441C414.507 3441 406 3432.49 406 3422C406 3411.51 414.507 3403 425 3403ZM425 3410C431.627 3410 437 3415.37 437 3422C437 3428.63 431.627 3434 425 3434C418.373 3434 413 3428.63 413 3422C413 3415.37 418.373 3410 425 3410Z" fill="#384176"/>
<path fill-rule="evenodd" clip-rule="evenodd" d="M640 4556C629.507 4556 621 4564.51 621 4575C621 4585.49 629.507 4594 640 4594C650.493 4594 659 4585.49 659 4575C659 4564.51 650.493 4556 640 4556ZM640 4563C633.373 4563 628 4568.37 628 4575C628 4581.63 633.373 4587 640 4587C646.627 4587 652 4581.63 652 4575C652 4568.37 646.627 4563 640 4563Z" fill="#384176"/>
<rect x="860" y="4582" width="208" height="14" rx="7" transform="rotate(180 860 4582)" fill="#384176"/>
<path fill-rule="evenodd" clip-rule="evenodd" d="M908 4556C918.493 4556 927 4564.51 927 4575C927 4585.49 918.493 4594 908 4594C897.507 4594 889 4585.49 889 4575C889 4564.51 897.507 4556 908 4556ZM908 4563C914.627 4563 920 4568.37 920 4575C920 4581.63 914.627 4587 908 4587C901.373 4587 896 4581.63 896 4575C896 4568.37 901.373 4563 908 4563Z" fill="#384176"/>
<rect width="208" height="14" rx="7" transform="matrix(1 0 0 -1 688 4582)" fill="#384176"/>
<rect x="690" y="4469" width="161" height="14" rx="6.99999" fill="#384176"/>
<rect width="76.4837" height="14" rx="7" transform="matrix(-0.707109 -0.707105 -0.707109 0.707105 706.146 4474.95)" fill="#384176"/>
<path fill-rule="evenodd" clip-rule="evenodd" d="M639 4436C628.507 4436 620 4427.49 620 4417C620 4406.51 628.507 4398 639 4398C649.493 4398 658 4406.51 658 4417C658 4427.49 649.493 4436 639 4436ZM639 4429C632.373 4429 627 4423.63 627 4417C627 4410.37 632.373 4405 639 4405C645.627 4405 651 4410.37 651 4417C651 4423.63 645.627 4429 639 4429Z" fill="#384176"/>
<rect width="76.4837" height="14" rx="7" transform="matrix(0.707109 -0.707105 0.707109 0.707105 835 4474.95)" fill="#384176"/>
<path fill-rule="evenodd" clip-rule="evenodd" d="M902.146 4436C912.64 4436 921.146 4427.49 921.146 4417C921.146 4406.51 912.64 4398 902.146 4398C891.653 4398 883.146 4406.51 883.146 4417C883.146 4427.49 891.653 4436 902.146 4436ZM902.146 4429C908.774 4429 914.146 4423.63 914.146 4417C914.146 4410.37 908.774 4405 902.146 4405C895.519 4405 890.146 4410.37 890.146 4417C890.146 4423.63 895.519 4429 902.146 4429Z" fill="#384176"/>
<path fill-rule="evenodd" clip-rule="evenodd" d="M1101.54 3380.64C1101.54 3370.9 1093.64 3363 1083.9 3363C1074.15 3363 1066.25 3370.9 1066.25 3380.64C1066.25 3390.39 1074.15 3398.29 1083.9 3398.29C1093.64 3398.29 1101.54 3390.39 1101.54 3380.64ZM1095.04 3380.64C1095.04 3374.49 1090.05 3369.5 1083.9 3369.5C1077.74 3369.5 1072.75 3374.49 1072.75 3380.64C1072.75 3386.8 1077.74 3391.79 1083.9 3391.79C1090.05 3391.79 1095.04 3386.8 1095.04 3380.64Z" fill="#384176"/>
<rect x="1077.4" y="3431.71" width="39.9286" height="13" rx="6.5" transform="rotate(-90 1077.4 3431.71)" fill="#384176"/>
<path fill-rule="evenodd" clip-rule="evenodd" d="M1101.54 3475.36C1101.54 3485.1 1093.64 3493 1083.9 3493C1074.15 3493 1066.25 3485.1 1066.25 3475.36C1066.25 3465.61 1074.15 3457.71 1083.9 3457.71C1093.64 3457.71 1101.54 3465.61 1101.54 3475.36ZM1095.04 3475.36C1095.04 3481.51 1090.05 3486.5 1083.9 3486.5C1077.74 3486.5 1072.75 3481.51 1072.75 3475.36C1072.75 3469.2 1077.74 3464.21 1083.9 3464.21C1090.05 3464.21 1095.04 3469.2 1095.04 3475.36Z" fill="#384176"/>
<rect width="39.9286" height="13" rx="6.5" transform="matrix(4.37106e-08 1 1 -4.37122e-08 1077.4 3424.29)" fill="#384176"/>
<path fill-rule="evenodd" clip-rule="evenodd" d="M820.357 4537.29C830.101 4537.29 838 4529.39 838 4519.64C838 4509.9 830.101 4502 820.357 4502C810.613 4502 802.714 4509.9 802.714 4519.64C802.714 4529.39 810.613 4537.29 820.357 4537.29ZM820.357 4530.79C826.511 4530.79 831.5 4525.8 831.5 4519.64C831.5 4513.49 826.511 4508.5 820.357 4508.5C814.203 4508.5 809.214 4513.49 809.214 4519.64C809.214 4525.8 814.203 4530.79 820.357 4530.79Z" fill="#384176"/>
<rect x="769.286" y="4513.14" width="39.9286" height="13" rx="6.5" fill="#384176"/>
<path fill-rule="evenodd" clip-rule="evenodd" d="M725.643 4537.29C715.899 4537.29 708 4529.39 708 4519.64C708 4509.9 715.899 4502 725.643 4502C735.387 4502 743.286 4509.9 743.286 4519.64C743.286 4529.39 735.387 4537.29 725.643 4537.29ZM725.643 4530.79C719.489 4530.79 714.5 4525.8 714.5 4519.64C714.5 4513.49 719.489 4508.5 725.643 4508.5C731.797 4508.5 736.786 4513.49 736.786 4519.64C736.786 4525.8 731.797 4530.79 725.643 4530.79Z" fill="#384176"/>
<rect width="39.9286" height="13" rx="6.5" transform="matrix(-1 3.17864e-08 3.17866e-08 1 776.714 4513.14)" fill="#384176"/>
<rect x="1218" y="3377" width="282" height="14" rx="7" fill="#384176"/>
<path fill-rule="evenodd" clip-rule="evenodd" d="M1146 3403C1135.51 3403 1127 3394.49 1127 3384C1127 3373.51 1135.51 3365 1146 3365C1156.49 3365 1165 3373.51 1165 3384C1165 3394.49 1156.49 3403 1146 3403ZM1146 3396C1139.37 3396 1134 3390.63 1134 3384C1134 3377.37 1139.37 3372 1146 3372C1152.63 3372 1158 3377.37 1158 3384C1158 3390.63 1152.63 3396 1146 3396Z" fill="#384176"/>
<rect width="282" height="14" rx="7" transform="matrix(-1 0 0 1 1440 3377)" fill="#384176"/>
<rect x="1251" y="3423" width="208" height="14" rx="7" fill="#384176"/>
<path fill-rule="evenodd" clip-rule="evenodd" d="M1203 3449C1192.51 3449 1184 3440.49 1184 3430C1184 3419.51 1192.51 3411 1203 3411C1213.49 3411 1222 3419.51 1222 3430C1222 3440.49 1213.49 3449 1203 3449ZM1203 3442C1196.37 3442 1191 3436.63 1191 3430C1191 3423.37 1196.37 3418 1203 3418C1209.63 3418 1215 3423.37 1215 3430C1215 3436.63 1209.63 3442 1203 3442Z" fill="#384176"/>
<rect width="208" height="14" rx="7" transform="matrix(-1 0 0 1 1423 3423)" fill="#384176"/>
<path fill-rule="evenodd" clip-rule="evenodd" d="M1014.43 3385.47C1007.54 3378.58 996.365 3378.58 989.475 3385.47C982.585 3392.36 982.585 3403.54 989.475 3410.43C996.365 3417.32 1007.54 3417.32 1014.43 3410.43C1021.32 3403.54 1021.32 3392.36 1014.43 3385.47ZM1009.83 3390.07C1005.48 3385.72 998.423 3385.72 994.071 3390.07C989.72 3394.42 989.72 3401.48 994.071 3405.83C998.423 3410.18 1005.48 3410.18 1009.83 3405.83C1014.18 3401.48 1014.18 3394.42 1009.83 3390.07Z" fill="#384176"/>
<rect width="39.9286" height="13" rx="6.5" transform="matrix(-0.70711 -0.707104 0.70711 -0.707104 1033.47 3438.66)" fill="#384176"/>
<path fill-rule="evenodd" clip-rule="evenodd" d="M1051.54 3474.9C1051.54 3484.64 1043.64 3492.54 1033.9 3492.54C1024.15 3492.54 1016.25 3484.64 1016.25 3474.9C1016.25 3465.15 1024.15 3457.25 1033.9 3457.25C1043.64 3457.25 1051.54 3465.15 1051.54 3474.9ZM1045.04 3474.9C1045.04 3481.05 1040.05 3486.04 1033.9 3486.04C1027.74 3486.04 1022.75 3481.05 1022.75 3474.9C1022.75 3468.74 1027.74 3463.75 1033.9 3463.75C1040.05 3463.75 1045.04 3468.74 1045.04 3474.9Z" fill="#384176"/>
<rect width="39.9286" height="13" rx="6.5" transform="matrix(4.37106e-08 1 1 -4.37122e-08 1027.4 3423.82)" fill="#384176"/>
<rect width="366" height="14" rx="7" transform="matrix(-1 8.74218e-08 8.74238e-08 1 1514 4526.71)" fill="#384176"/>
<rect width="158.301" height="14" rx="7" transform="matrix(-0.707106 -0.707107 -0.707106 0.707108 1163 4532.51)" fill="#384176"/>
<path fill-rule="evenodd" clip-rule="evenodd" d="M1038 4435.71C1027.51 4435.71 1019 4427.2 1019 4416.71C1019 4406.21 1027.51 4397.71 1038 4397.71C1048.49 4397.71 1057 4406.21 1057 4416.71C1057 4427.2 1048.49 4435.71 1038 4435.71ZM1038 4428.71C1031.37 4428.71 1026 4423.33 1026 4416.71C1026 4410.08 1031.37 4404.71 1038 4404.71C1044.63 4404.71 1050 4410.08 1050 4416.71C1050 4423.33 1044.63 4428.71 1038 4428.71Z" fill="#384176"/>
<rect width="366" height="14" rx="7" transform="matrix(-1 8.74218e-08 8.74238e-08 1 1536 4485)" fill="#384176"/>
<rect width="158.301" height="14" rx="7" transform="matrix(-0.707106 -0.707107 -0.707106 0.707108 1185 4490.81)" fill="#384176"/>
<path fill-rule="evenodd" clip-rule="evenodd" d="M1060 4394C1049.51 4394 1041 4385.49 1041 4375C1041 4364.51 1049.51 4356 1060 4356C1070.49 4356 1079 4364.51 1079 4375C1079 4385.49 1070.49 4394 1060 4394ZM1060 4387C1053.37 4387 1048 4381.63 1048 4375C1048 4368.37 1053.37 4363 1060 4363C1066.63 4363 1072 4368.37 1072 4375C1072 4381.63 1066.63 4387 1060 4387Z" fill="#384176"/>
<path fill-rule="evenodd" clip-rule="evenodd" d="M1038 4555C1027.51 4555 1019 4563.51 1019 4574C1019 4584.49 1027.51 4593 1038 4593C1048.49 4593 1057 4584.49 1057 4574C1057 4563.51 1048.49 4555 1038 4555ZM1038 4562C1031.37 4562 1026 4567.37 1026 4574C1026 4580.63 1031.37 4586 1038 4586C1044.63 4586 1050 4580.63 1050 4574C1050 4567.37 1044.63 4562 1038 4562Z" fill="#384176"/>
<rect x="1639" y="4581" width="589" height="14" rx="6.99999" transform="rotate(-180 1639 4581)" fill="#384176"/>
<rect x="1266" y="3972" width="208" height="14" rx="7" fill="#384176"/>
<path fill-rule="evenodd" clip-rule="evenodd" d="M1218 3998C1207.51 3998 1199 3989.49 1199 3979C1199 3968.51 1207.51 3960 1218 3960C1228.49 3960 1237 3968.51 1237 3979C1237 3989.49 1228.49 3998 1218 3998ZM1218 3991C1211.37 3991 1206 3985.63 1206 3979C1206 3972.37 1211.37 3967 1218 3967C1224.63 3967 1230 3972.37 1230 3979C1230 3985.63 1224.63 3991 1218 3991Z" fill="#384176"/>
<rect width="208" height="14" rx="7" transform="matrix(-1 0 0 1 1438 3972)" fill="#384176"/>
<rect width="172" height="14" rx="6.99999" transform="matrix(1 -8.74228e-08 -8.74228e-08 -1 1337.06 4027)" fill="#384176"/>
<rect x="1509.06" y="4027" width="235" height="14" rx="6.99999" transform="rotate(-180 1509.06 4027)" fill="#384176"/>
<rect width="104.641" height="14" rx="7" transform="matrix(-0.707106 0.707107 -0.707106 -0.707107 1290.06 4020.9)" fill="#384176"/>
<path fill-rule="evenodd" clip-rule="evenodd" d="M1203 4079.76C1192.51 4079.76 1184 4088.27 1184 4098.76C1184 4109.26 1192.51 4117.76 1203 4117.76C1213.49 4117.76 1222 4109.26 1222 4098.76C1222 4088.27 1213.49 4079.76 1203 4079.76ZM1203 4086.76C1196.37 4086.76 1191 4092.14 1191 4098.76C1191 4105.39 1196.37 4110.76 1203 4110.76C1209.63 4110.76 1215 4105.39 1215 4098.76C1215 4092.14 1209.63 4086.76 1203 4086.76Z" fill="#384176"/>
<rect width="172" height="14" rx="6.99999" transform="matrix(1 -8.74228e-08 -8.74228e-08 -1 1356.06 4073)" fill="#384176"/>
<rect x="1528.06" y="4073" width="235" height="14" rx="6.99999" transform="rotate(-180 1528.06 4073)" fill="#384176"/>
<rect width="104.641" height="14" rx="7" transform="matrix(-0.707106 0.707107 -0.707106 -0.707107 1309.06 4066.9)" fill="#384176"/>
<path fill-rule="evenodd" clip-rule="evenodd" d="M1222 4125.76C1211.51 4125.76 1203 4134.27 1203 4144.76C1203 4155.26 1211.51 4163.76 1222 4163.76C1232.49 4163.76 1241 4155.26 1241 4144.76C1241 4134.27 1232.49 4125.76 1222 4125.76ZM1222 4132.76C1215.37 4132.76 1210 4138.14 1210 4144.76C1210 4151.39 1215.37 4156.76 1222 4156.76C1228.63 4156.76 1234 4151.39 1234 4144.76C1234 4138.14 1228.63 4132.76 1222 4132.76Z" fill="#384176"/>
<rect width="208" height="14" rx="7" transform="matrix(1 0 0 -1 1267 3799.76)" fill="#384176"/>
<path fill-rule="evenodd" clip-rule="evenodd" d="M1219 3773.76C1208.51 3773.76 1200 3782.27 1200 3792.76C1200 3803.26 1208.51 3811.76 1219 3811.76C1229.49 3811.76 1238 3803.26 1238 3792.76C1238 3782.27 1229.49 3773.76 1219 3773.76ZM1219 3780.76C1212.37 3780.76 1207 3786.14 1207 3792.76C1207 3799.39 1212.37 3804.76 1219 3804.76C1225.63 3804.76 1231 3799.39 1231 3792.76C1231 3786.14 1225.63 3780.76 1219 3780.76Z" fill="#384176"/>
<rect x="1439" y="3799.76" width="208" height="14" rx="7" transform="rotate(180 1439 3799.76)" fill="#384176"/>
<rect x="1338.06" y="3744.76" width="172" height="14" rx="6.99999" fill="#384176"/>
<rect width="235" height="14" rx="6.99999" transform="matrix(-1 8.74228e-08 8.74228e-08 1 1510.06 3744.76)" fill="#384176"/>
<rect width="104.641" height="14" rx="7" transform="matrix(-0.707106 -0.707107 -0.707106 0.707107 1291.06 3750.86)" fill="#384176"/>
<path fill-rule="evenodd" clip-rule="evenodd" d="M1204 3692C1193.51 3692 1185 3683.49 1185 3673C1185 3662.51 1193.51 3654 1204 3654C1214.49 3654 1223 3662.51 1223 3673C1223 3683.49 1214.49 3692 1204 3692ZM1204 3685C1197.37 3685 1192 3679.63 1192 3673C1192 3666.37 1197.37 3661 1204 3661C1210.63 3661 1216 3666.37 1216 3673C1216 3679.63 1210.63 3685 1204 3685Z" fill="#384176"/>
<rect x="1357.06" y="3698.76" width="172" height="14" rx="6.99999" fill="#384176"/>
<rect width="235" height="14" rx="6.99999" transform="matrix(-1 8.74228e-08 8.74228e-08 1 1529.06 3698.76)" fill="#384176"/>
<rect width="104.641" height="14" rx="7" transform="matrix(-0.707106 -0.707107 -0.707106 0.707107 1310.06 3704.86)" fill="#384176"/>
<path fill-rule="evenodd" clip-rule="evenodd" d="M1223 3646C1212.51 3646 1204 3637.49 1204 3627C1204 3616.51 1212.51 3608 1223 3608C1233.49 3608 1242 3616.51 1242 3627C1242 3637.49 1233.49 3646 1223 3646ZM1223 3639C1216.37 3639 1211 3633.63 1211 3627C1211 3620.37 1216.37 3615 1223 3615C1229.63 3615 1235 3620.37 1235 3627C1235 3633.63 1229.63 3639 1223 3639Z" fill="#384176"/>
<rect width="157" height="14" rx="6.99999" transform="matrix(-1 8.74228e-08 8.74228e-08 1 105 2992)" fill="#313D6D"/>
<rect width="325" height="14" rx="6.99999" transform="matrix(1 -8.74228e-08 -8.74228e-08 -1 96 3006)" fill="#313D6D"/>
<rect width="88.2187" height="14" rx="7" transform="matrix(0.707107 0.707107 0.707107 -0.707107 406 2999.9)" fill="#313D6D"/>
<path fill-rule="evenodd" clip-rule="evenodd" d="M480 3048C490.493 3048 499 3056.51 499 3067C499 3077.49 490.493 3086 480 3086C469.507 3086 461 3077.49 461 3067C461 3056.51 469.507 3048 480 3048ZM480 3055C486.627 3055 492 3060.37 492 3067C492 3073.63 486.627 3079 480 3079C473.373 3079 468 3073.63 468 3067C468 3060.37 473.373 3055 480 3055Z" fill="#313D6D"/>
<path fill-rule="evenodd" clip-rule="evenodd" d="M452 3155C462.493 3155 471 3146.49 471 3136C471 3125.51 462.493 3117 452 3117C441.507 3117 433 3125.51 433 3136C433 3146.49 441.507 3155 452 3155ZM452 3148C458.627 3148 464 3142.63 464 3136C464 3129.37 458.627 3124 452 3124C445.373 3124 440 3129.37 440 3136C440 3142.63 445.373 3148 452 3148Z" fill="#313D6D"/>
<rect x="104" y="3129" width="336" height="14" rx="7" fill="#313D6D"/>
<rect width="336" height="14" rx="7" transform="matrix(-1 0 0 1 276 3129)" fill="#313D6D"/>
<path fill-rule="evenodd" clip-rule="evenodd" d="M348 3063C358.493 3063 367 3054.49 367 3044C367 3033.51 358.493 3025 348 3025C337.507 3025 329 3033.51 329 3044C329 3054.49 337.507 3063 348 3063ZM348 3056C354.627 3056 360 3050.63 360 3044C360 3037.37 354.627 3032 348 3032C341.373 3032 336 3037.37 336 3044C336 3050.63 341.373 3056 348 3056Z" fill="#313D6D"/>
<rect x="54" y="3037" width="282" height="14" rx="7" fill="#313D6D"/>
<path fill-rule="evenodd" clip-rule="evenodd" d="M-18 3063C-28.4934 3063 -37 3054.49 -37 3044C-37 3033.51 -28.4934 3025 -18 3025C-7.50659 3025 1 3033.51 1 3044C1 3054.49 -7.50659 3063 -18 3063ZM-18 3056C-24.6274 3056 -30 3050.63 -30 3044C-30 3037.37 -24.6274 3032 -18 3032C-11.3726 3032 -6 3037.37 -6 3044C-6 3050.63 -11.3726 3056 -18 3056Z" fill="#313D6D"/>
<rect width="282" height="14" rx="7" transform="matrix(-1 0 0 1 276 3037)" fill="#313D6D"/>
<path fill-rule="evenodd" clip-rule="evenodd" d="M307 3109C317.493 3109 326 3100.49 326 3090C326 3079.51 317.493 3071 307 3071C296.507 3071 288 3079.51 288 3090C288 3100.49 296.507 3109 307 3109ZM307 3102C313.627 3102 319 3096.63 319 3090C319 3083.37 313.627 3078 307 3078C300.373 3078 295 3083.37 295 3090C295 3096.63 300.373 3102 307 3102Z" fill="#313D6D"/>
<rect x="87" y="3083" width="208" height="14" rx="7" fill="#313D6D"/>
<path fill-rule="evenodd" clip-rule="evenodd" d="M39 3109C28.5066 3109 20 3100.49 20 3090C20 3079.51 28.5066 3071 39 3071C49.4934 3071 58 3079.51 58 3090C58 3100.49 49.4934 3109 39 3109ZM39 3102C32.3726 3102 27 3096.63 27 3090C27 3083.37 32.3726 3078 39 3078C45.6274 3078 51 3083.37 51 3090C51 3096.63 45.6274 3102 39 3102Z" fill="#313D6D"/>
<rect width="208" height="14" rx="7" transform="matrix(-1 0 0 1 259 3083)" fill="#313D6D"/>
<path fill-rule="evenodd" clip-rule="evenodd" d="M602 3382C591.507 3382 583 3390.51 583 3401C583 3411.49 591.507 3420 602 3420C612.493 3420 621 3411.49 621 3401C621 3390.51 612.493 3382 602 3382ZM602 3389C595.373 3389 590 3394.37 590 3401C590 3407.63 595.373 3413 602 3413C608.627 3413 614 3407.63 614 3401C614 3394.37 608.627 3389 602 3389Z" fill="#313D6D"/>
<rect x="822" y="3408" width="208" height="14" rx="7" transform="rotate(180 822 3408)" fill="#313D6D"/>
<path fill-rule="evenodd" clip-rule="evenodd" d="M870 3382C880.493 3382 889 3390.51 889 3401C889 3411.49 880.493 3420 870 3420C859.507 3420 851 3411.49 851 3401C851 3390.51 859.507 3382 870 3382ZM870 3389C876.627 3389 882 3394.37 882 3401C882 3407.63 876.627 3413 870 3413C863.373 3413 858 3407.63 858 3401C858 3394.37 863.373 3389 870 3389Z" fill="#313D6D"/>
<rect width="208" height="14" rx="7" transform="matrix(1 0 0 -1 650 3408)" fill="#313D6D"/>
<rect width="172" height="14" rx="6.99999" transform="matrix(-1 8.74228e-08 8.74228e-08 1 135 2610.76)" fill="#313D6D"/>
<rect x="-36.9999" y="2610.76" width="235" height="14" rx="6.99999" fill="#313D6D"/>
<rect width="104.641" height="14" rx="7" transform="matrix(0.707108 -0.707105 0.707108 0.707105 182 2616.86)" fill="#313D6D"/>
<path fill-rule="evenodd" clip-rule="evenodd" d="M269.057 2558C279.55 2558 288.057 2549.49 288.057 2539C288.057 2528.51 279.55 2520 269.057 2520C258.563 2520 250.057 2528.51 250.057 2539C250.057 2549.49 258.563 2558 269.057 2558ZM269.057 2551C275.684 2551 281.057 2545.63 281.057 2539C281.057 2532.37 275.684 2527 269.057 2527C262.429 2527 257.057 2532.37 257.057 2539C257.057 2545.63 262.429 2551 269.057 2551Z" fill="#313D6D"/>
<rect width="172" height="14" rx="6.99999" transform="matrix(-1 8.74228e-08 8.74228e-08 1 116 2564.76)" fill="#313D6D"/>
<rect x="-56" y="2564.76" width="235" height="14" rx="6.99999" fill="#313D6D"/>
<rect width="104.641" height="14" rx="7" transform="matrix(0.707108 -0.707105 0.707108 0.707105 163 2570.86)" fill="#313D6D"/>
<path fill-rule="evenodd" clip-rule="evenodd" d="M250.057 2512C260.55 2512 269.057 2503.49 269.057 2493C269.057 2482.51 260.55 2474 250.057 2474C239.563 2474 231.057 2482.51 231.057 2493C231.057 2503.49 239.563 2512 250.057 2512ZM250.057 2505C256.684 2505 262.057 2499.63 262.057 2493C262.057 2486.37 256.684 2481 250.057 2481C243.429 2481 238.057 2486.37 238.057 2493C238.057 2499.63 243.429 2505 250.057 2505Z" fill="#313D6D"/>
<rect width="172" height="14" rx="6.99999" transform="matrix(-1 8.74228e-08 8.74228e-08 1 100 2516.76)" fill="#313D6D"/>
<rect x="-72" y="2516.76" width="235" height="14" rx="6.99999" fill="#313D6D"/>
<rect x="147" y="2522.86" width="104.641" height="14" rx="7" transform="rotate(-45 147 2522.86)" fill="#313D6D"/>
<path fill-rule="evenodd" clip-rule="evenodd" d="M234.057 2464C244.55 2464 253.057 2455.49 253.057 2445C253.057 2434.51 244.55 2426 234.057 2426C223.563 2426 215.057 2434.51 215.057 2445C215.057 2455.49 223.563 2464 234.057 2464ZM234.057 2457C240.684 2457 246.057 2451.63 246.057 2445C246.057 2438.37 240.684 2433 234.057 2433C227.429 2433 222.057 2438.37 222.057 2445C222.057 2451.63 227.429 2457 234.057 2457Z" fill="#313D6D"/>
<path fill-rule="evenodd" clip-rule="evenodd" d="M177 2639C187.493 2639 196 2647.51 196 2658C196 2668.49 187.493 2677 177 2677C166.507 2677 158 2668.49 158 2658C158 2647.51 166.507 2639 177 2639ZM177 2646C183.627 2646 189 2651.37 189 2658C189 2664.63 183.627 2670 177 2670C170.373 2670 165 2664.63 165 2658C165 2651.37 170.373 2646 177 2646Z" fill="#313D6D"/>
<rect width="589" height="14" rx="6.99999" transform="matrix(1 0 0 -1 -424 2665)" fill="#313D6D"/>
<path fill-rule="evenodd" clip-rule="evenodd" d="M215 2692C225.493 2692 234 2700.51 234 2711C234 2721.49 225.493 2730 215 2730C204.507 2730 196 2721.49 196 2711C196 2700.51 204.507 2692 215 2692ZM215 2699C221.627 2699 227 2704.37 227 2711C227 2717.63 221.627 2723 215 2723C208.373 2723 203 2717.63 203 2711C203 2704.37 208.373 2699 215 2699Z" fill="#313D6D"/>
<rect width="589" height="14" rx="6.99999" transform="matrix(1 0 0 -1 -386 2718)" fill="#313D6D"/>
<path fill-rule="evenodd" clip-rule="evenodd" d="M1107 2472C1096.51 2472 1088 2480.51 1088 2491C1088 2501.49 1096.51 2510 1107 2510C1117.49 2510 1126 2501.49 1126 2491C1126 2480.51 1117.49 2472 1107 2472ZM1107 2479C1100.37 2479 1095 2484.37 1095 2491C1095 2497.63 1100.37 2503 1107 2503C1113.63 2503 1119 2497.63 1119 2491C1119 2484.37 1113.63 2479 1107 2479Z" fill="#313D6D"/>
<rect x="1708" y="2498" width="589" height="14" rx="6.99999" transform="rotate(180 1708 2498)" fill="#313D6D"/>
<path fill-rule="evenodd" clip-rule="evenodd" d="M1181 2426C1170.51 2426 1162 2434.51 1162 2445C1162 2455.49 1170.51 2464 1181 2464C1191.49 2464 1200 2455.49 1200 2445C1200 2434.51 1191.49 2426 1181 2426ZM1181 2433C1174.37 2433 1169 2438.37 1169 2445C1169 2451.63 1174.37 2457 1181 2457C1187.63 2457 1193 2451.63 1193 2445C1193 2438.37 1187.63 2433 1181 2433Z" fill="#313D6D"/>
<rect x="1782" y="2452" width="589" height="14" rx="6.99999" transform="rotate(180 1782 2452)" fill="#313D6D"/>
<path fill-rule="evenodd" clip-rule="evenodd" d="M1055 2518C1044.51 2518 1036 2526.51 1036 2537C1036 2547.49 1044.51 2556 1055 2556C1065.49 2556 1074 2547.49 1074 2537C1074 2526.51 1065.49 2518 1055 2518ZM1055 2525C1048.37 2525 1043 2530.37 1043 2537C1043 2543.63 1048.37 2549 1055 2549C1061.63 2549 1067 2543.63 1067 2537C1067 2530.37 1061.63 2525 1055 2525Z" fill="#313D6D"/>
<rect x="1656" y="2544" width="589" height="14" rx="6.99999" transform="rotate(180 1656 2544)" fill="#313D6D"/>
<path fill-rule="evenodd" clip-rule="evenodd" d="M111 2805.64C111 2795.9 118.899 2788 128.643 2788C138.387 2788 146.286 2795.9 146.286 2805.64C146.286 2815.39 138.387 2823.29 128.643 2823.29C118.899 2823.29 111 2815.39 111 2805.64ZM117.5 2805.64C117.5 2799.49 122.489 2794.5 128.643 2794.5C134.797 2794.5 139.786 2799.49 139.786 2805.64C139.786 2811.8 134.797 2816.79 128.643 2816.79C122.489 2816.79 117.5 2811.8 117.5 2805.64Z" fill="#313D6D"/>
<rect width="39.9286" height="13" rx="6.5" transform="matrix(-4.37106e-08 -1 -1 4.37122e-08 135.143 2856.71)" fill="#313D6D"/>
<path fill-rule="evenodd" clip-rule="evenodd" d="M111 2900.36C111 2910.1 118.899 2918 128.643 2918C138.387 2918 146.286 2910.1 146.286 2900.36C146.286 2890.61 138.387 2882.71 128.643 2882.71C118.899 2882.71 111 2890.61 111 2900.36ZM117.5 2900.36C117.5 2906.51 122.489 2911.5 128.643 2911.5C134.797 2911.5 139.786 2906.51 139.786 2900.36C139.786 2894.2 134.797 2889.21 128.643 2889.21C122.489 2889.21 117.5 2894.2 117.5 2900.36Z" fill="#313D6D"/>
<rect x="135.143" y="2849.29" width="39.9286" height="13" rx="6.5" transform="rotate(90 135.143 2849.29)" fill="#313D6D"/>
<path fill-rule="evenodd" clip-rule="evenodd" d="M66.0001 2805.64C66.0001 2795.9 73.899 2788 83.6429 2788C93.3868 2788 101.286 2795.9 101.286 2805.64C101.286 2815.39 93.3868 2823.29 83.6429 2823.29C73.899 2823.29 66.0001 2815.39 66.0001 2805.64ZM72.5001 2805.64C72.5 2799.49 77.4889 2794.5 83.6429 2794.5C89.7969 2794.5 94.7858 2799.49 94.7858 2805.64C94.7858 2811.8 89.7969 2816.79 83.6429 2816.79C77.4889 2816.79 72.5001 2811.8 72.5001 2805.64Z" fill="#313D6D"/>
<rect width="39.9286" height="13" rx="6.5" transform="matrix(-4.37106e-08 -1 -1 4.37122e-08 90.1428 2856.71)" fill="#313D6D"/>
<path fill-rule="evenodd" clip-rule="evenodd" d="M66.0001 2900.36C66.0001 2910.1 73.899 2918 83.6429 2918C93.3868 2918 101.286 2910.1 101.286 2900.36C101.286 2890.61 93.3868 2882.71 83.6429 2882.71C73.899 2882.71 66.0001 2890.61 66.0001 2900.36ZM72.5001 2900.36C72.5001 2906.51 77.4889 2911.5 83.6429 2911.5C89.7969 2911.5 94.7858 2906.51 94.7858 2900.36C94.7858 2894.2 89.7969 2889.21 83.6429 2889.21C77.4889 2889.21 72.5001 2894.2 72.5001 2900.36Z" fill="#313D6D"/>
<rect x="90.1428" y="2849.29" width="39.9286" height="13" rx="6.5" transform="rotate(90 90.1428 2849.29)" fill="#313D6D"/>
<path fill-rule="evenodd" clip-rule="evenodd" d="M193.113 2810.94C200.003 2804.05 211.174 2804.05 218.064 2810.94C224.954 2817.83 224.954 2829 218.064 2835.89C211.174 2842.78 200.003 2842.78 193.113 2835.89C186.223 2829 186.223 2817.83 193.113 2810.94ZM197.709 2815.53C202.061 2811.18 209.116 2811.18 213.468 2815.53C217.819 2819.88 217.819 2826.94 213.468 2831.29C209.116 2835.64 202.061 2835.64 197.709 2831.29C193.358 2826.94 193.358 2819.88 197.709 2815.53Z" fill="#313D6D"/>
<rect width="39.9286" height="13" rx="6.5" transform="matrix(0.707106 -0.707108 -0.707106 -0.707108 174.072 2864.12)" fill="#313D6D"/>
<path fill-rule="evenodd" clip-rule="evenodd" d="M156 2900.36C156 2910.1 163.899 2918 173.643 2918C183.387 2918 191.286 2910.1 191.286 2900.36C191.286 2890.61 183.387 2882.71 173.643 2882.71C163.899 2882.71 156 2890.61 156 2900.36ZM162.5 2900.36C162.5 2906.51 167.489 2911.5 173.643 2911.5C179.797 2911.5 184.786 2906.51 184.786 2900.36C184.786 2894.2 179.797 2889.21 173.643 2889.21C167.489 2889.21 162.5 2894.2 162.5 2900.36Z" fill="#313D6D"/>
<rect x="180.143" y="2849.29" width="39.9286" height="13" rx="6.5" transform="rotate(90 180.143 2849.29)" fill="#313D6D"/>
<rect x="626" y="3145" width="161" height="14" rx="6.99999" fill="#313D6D"/>
<rect width="76.4837" height="14" rx="7" transform="matrix(-0.707109 -0.707105 -0.707109 0.707105 642.146 3150.95)" fill="#313D6D"/>
<path fill-rule="evenodd" clip-rule="evenodd" d="M575 3112C564.507 3112 556 3103.49 556 3093C556 3082.51 564.507 3074 575 3074C585.493 3074 594 3082.51 594 3093C594 3103.49 585.493 3112 575 3112ZM575 3105C568.373 3105 563 3099.63 563 3093C563 3086.37 568.373 3081 575 3081C581.627 3081 587 3086.37 587 3093C587 3099.63 581.627 3105 575 3105Z" fill="#313D6D"/>
<rect width="76.4837" height="14" rx="7" transform="matrix(0.707109 -0.707105 0.707109 0.707105 771 3150.95)" fill="#313D6D"/>
<path fill-rule="evenodd" clip-rule="evenodd" d="M838.146 3112C848.64 3112 857.146 3103.49 857.146 3093C857.146 3082.51 848.64 3074 838.146 3074C827.653 3074 819.146 3082.51 819.146 3093C819.146 3103.49 827.653 3112 838.146 3112ZM838.146 3105C844.774 3105 850.146 3099.63 850.146 3093C850.146 3086.37 844.774 3081 838.146 3081C831.519 3081 826.146 3086.37 826.146 3093C826.146 3099.63 831.519 3105 838.146 3105Z" fill="#313D6D"/>
<path fill-rule="evenodd" clip-rule="evenodd" d="M380.643 3173C370.899 3173 363 3180.9 363 3190.64C363 3200.39 370.899 3208.29 380.643 3208.29C390.387 3208.29 398.286 3200.39 398.286 3190.64C398.286 3180.9 390.387 3173 380.643 3173ZM380.643 3179.5C374.489 3179.5 369.5 3184.49 369.5 3190.64C369.5 3196.8 374.489 3201.79 380.643 3201.79C386.797 3201.79 391.786 3196.8 391.786 3190.64C391.786 3184.49 386.797 3179.5 380.643 3179.5Z" fill="#313D6D"/>
<rect x="431.714" y="3197.14" width="39.9286" height="13" rx="6.5" transform="rotate(180 431.714 3197.14)" fill="#313D6D"/>
<path fill-rule="evenodd" clip-rule="evenodd" d="M472.525 3209.86C479.414 3216.75 479.414 3227.92 472.525 3234.81C465.635 3241.7 454.464 3241.7 447.574 3234.81C440.684 3227.92 440.684 3216.75 447.574 3209.86C454.464 3202.97 465.635 3202.97 472.525 3209.86ZM467.928 3214.46C472.28 3218.81 472.28 3225.86 467.928 3230.21C463.577 3234.57 456.521 3234.57 452.17 3230.21C447.818 3225.86 447.818 3218.81 452.17 3214.46C456.521 3210.1 463.577 3210.1 467.928 3214.46Z" fill="#313D6D"/>
<rect width="39.9286" height="13" rx="6.5" transform="matrix(0.707106 0.707108 0.707106 -0.707108 419.34 3190.82)" fill="#313D6D"/>
<rect x="86" y="1483.24" width="172" height="14" rx="6.99999" transform="rotate(-180 86 1483.24)" fill="#263661"/>
<rect width="235" height="14" rx="6.99999" transform="matrix(1 -8.74227e-08 -8.74228e-08 -1 -86 1483.24)" fill="#263661"/>
<rect width="104.641" height="14" rx="7" transform="matrix(0.707107 0.707107 0.707107 -0.707107 133 1477.14)" fill="#263661"/>
<path fill-rule="evenodd" clip-rule="evenodd" d="M220.057 1536C230.55 1536 239.057 1544.51 239.057 1555C239.057 1565.49 230.55 1574 220.057 1574C209.563 1574 201.057 1565.49 201.057 1555C201.057 1544.51 209.563 1536 220.057 1536ZM220.057 1543C226.684 1543 232.057 1548.37 232.057 1555C232.057 1561.63 226.684 1567 220.057 1567C213.429 1567 208.057 1561.63 208.057 1555C208.057 1548.37 213.429 1543 220.057 1543Z" fill="#263661"/>
<rect x="67" y="1529.24" width="172" height="14" rx="6.99999" transform="rotate(-180 67 1529.24)" fill="#263661"/>
<rect width="235" height="14" rx="6.99999" transform="matrix(1 -8.74227e-08 -8.74228e-08 -1 -105 1529.24)" fill="#263661"/>
<rect width="104.641" height="14" rx="7" transform="matrix(0.707107 0.707107 0.707107 -0.707107 114 1523.14)" fill="#263661"/>
<path fill-rule="evenodd" clip-rule="evenodd" d="M201.057 1582C211.55 1582 220.057 1590.51 220.057 1601C220.057 1611.49 211.55 1620 201.057 1620C190.563 1620 182.057 1611.49 182.057 1601C182.057 1590.51 190.563 1582 201.057 1582ZM201.057 1589C207.684 1589 213.057 1594.37 213.057 1601C213.057 1607.63 207.684 1613 201.057 1613C194.429 1613 189.057 1607.63 189.057 1601C189.057 1594.37 194.429 1589 201.057 1589Z" fill="#263661"/>
<path fill-rule="evenodd" clip-rule="evenodd" d="M128 1455C138.493 1455 147 1446.49 147 1436C147 1425.51 138.493 1417 128 1417C117.507 1417 109 1425.51 109 1436C109 1446.49 117.507 1455 128 1455ZM128 1448C134.627 1448 140 1442.63 140 1436C140 1429.37 134.627 1424 128 1424C121.373 1424 116 1429.37 116 1436C116 1442.63 121.373 1448 128 1448Z" fill="#263661"/>
<rect x="-473" y="1429" width="589" height="14" rx="6.99999" fill="#263661"/>
<path fill-rule="evenodd" clip-rule="evenodd" d="M167 1415C177.493 1415 186 1406.49 186 1396C186 1385.51 177.493 1377 167 1377C156.507 1377 148 1385.51 148 1396C148 1406.49 156.507 1415 167 1415ZM167 1408C173.627 1408 179 1402.63 179 1396C179 1389.37 173.627 1384 167 1384C160.373 1384 155 1389.37 155 1396C155 1402.63 160.373 1408 167 1408Z" fill="#263661"/>
<rect x="-434" y="1389" width="589" height="14" rx="6.99999" fill="#263661"/>
<path fill-rule="evenodd" clip-rule="evenodd" d="M291 2168.36C291 2178.1 298.899 2186 308.643 2186C318.387 2186 326.286 2178.1 326.286 2168.36C326.286 2158.61 318.387 2150.71 308.643 2150.71C298.899 2150.71 291 2158.61 291 2168.36ZM297.5 2168.36C297.5 2174.51 302.489 2179.5 308.643 2179.5C314.797 2179.5 319.786 2174.51 319.786 2168.36C319.786 2162.2 314.797 2157.21 308.643 2157.21C302.489 2157.21 297.5 2162.2 297.5 2168.36Z" fill="#263661"/>
<rect x="315.143" y="2117.29" width="39.9286" height="13" rx="6.5" transform="rotate(90 315.143 2117.29)" fill="#263661"/>
<path fill-rule="evenodd" clip-rule="evenodd" d="M291 2073.64C291 2063.9 298.899 2056 308.643 2056C318.387 2056 326.286 2063.9 326.286 2073.64C326.286 2083.39 318.387 2091.29 308.643 2091.29C298.899 2091.29 291 2083.39 291 2073.64ZM297.5 2073.64C297.5 2067.49 302.489 2062.5 308.643 2062.5C314.797 2062.5 319.786 2067.49 319.786 2073.64C319.786 2079.8 314.797 2084.79 308.643 2084.79C302.489 2084.79 297.5 2079.8 297.5 2073.64Z" fill="#263661"/>
<rect width="39.9286" height="13" rx="6.5" transform="matrix(-4.37106e-08 -1 -1 4.37122e-08 315.143 2124.71)" fill="#263661"/>
<path fill-rule="evenodd" clip-rule="evenodd" d="M955 2231.36C955 2241.1 962.899 2249 972.643 2249C982.387 2249 990.286 2241.1 990.286 2231.36C990.286 2221.61 982.387 2213.71 972.643 2213.71C962.899 2213.71 955 2221.61 955 2231.36ZM961.5 2231.36C961.5 2237.51 966.489 2242.5 972.643 2242.5C978.797 2242.5 983.786 2237.51 983.786 2231.36C983.786 2225.2 978.797 2220.21 972.643 2220.21C966.489 2220.21 961.5 2225.2 961.5 2231.36Z" fill="#263661"/>
<rect x="979.143" y="2180.29" width="39.9286" height="13" rx="6.5" transform="rotate(90 979.143 2180.29)" fill="#263661"/>
<path fill-rule="evenodd" clip-rule="evenodd" d="M955 2136.64C955 2126.9 962.899 2119 972.643 2119C982.387 2119 990.286 2126.9 990.286 2136.64C990.286 2146.39 982.387 2154.29 972.643 2154.29C962.899 2154.29 955 2146.39 955 2136.64ZM961.5 2136.64C961.5 2130.49 966.489 2125.5 972.643 2125.5C978.797 2125.5 983.786 2130.49 983.786 2136.64C983.786 2142.8 978.797 2147.79 972.643 2147.79C966.489 2147.79 961.5 2142.8 961.5 2136.64Z" fill="#263661"/>
<rect width="39.9286" height="13" rx="6.5" transform="matrix(-4.37102e-08 -1 -1 4.37126e-08 979.143 2187.71)" fill="#263661"/>
<path fill-rule="evenodd" clip-rule="evenodd" d="M1001 2231.36C1001 2241.1 1008.9 2249 1018.64 2249C1028.39 2249 1036.29 2241.1 1036.29 2231.36C1036.29 2221.61 1028.39 2213.71 1018.64 2213.71C1008.9 2213.71 1001 2221.61 1001 2231.36ZM1007.5 2231.36C1007.5 2237.51 1012.49 2242.5 1018.64 2242.5C1024.8 2242.5 1029.79 2237.51 1029.79 2231.36C1029.79 2225.2 1024.8 2220.21 1018.64 2220.21C1012.49 2220.21 1007.5 2225.2 1007.5 2231.36Z" fill="#263661"/>
<rect x="1025.14" y="2180.29" width="39.9286" height="13" rx="6.5" transform="rotate(90 1025.14 2180.29)" fill="#263661"/>
<path fill-rule="evenodd" clip-rule="evenodd" d="M1001 2136.64C1001 2126.9 1008.9 2119 1018.64 2119C1028.39 2119 1036.29 2126.9 1036.29 2136.64C1036.29 2146.39 1028.39 2154.29 1018.64 2154.29C1008.9 2154.29 1001 2146.39 1001 2136.64ZM1007.5 2136.64C1007.5 2130.49 1012.49 2125.5 1018.64 2125.5C1024.8 2125.5 1029.79 2130.49 1029.79 2136.64C1029.79 2142.8 1024.8 2147.79 1018.64 2147.79C1012.49 2147.79 1007.5 2142.8 1007.5 2136.64Z" fill="#263661"/>
<rect width="39.9286" height="13" rx="6.5" transform="matrix(-4.3711e-08 -1 -1 4.37117e-08 1025.14 2187.71)" fill="#263661"/>
<path fill-rule="evenodd" clip-rule="evenodd" d="M909.357 2249.29C919.101 2249.29 927 2241.39 927 2231.64C927 2221.9 919.101 2214 909.357 2214C899.613 2214 891.714 2221.9 891.714 2231.64C891.714 2241.39 899.613 2249.29 909.357 2249.29ZM909.357 2242.79C915.511 2242.79 920.5 2237.8 920.5 2231.64C920.5 2225.49 915.511 2220.5 909.357 2220.5C903.203 2220.5 898.214 2225.49 898.214 2231.64C898.214 2237.8 903.203 2242.79 909.357 2242.79Z" fill="#263661"/>
<rect x="858.286" y="2225.14" width="39.9286" height="13" rx="6.5" fill="#263661"/>
<path fill-rule="evenodd" clip-rule="evenodd" d="M814.643 2249.29C804.899 2249.29 797 2241.39 797 2231.64C797 2221.9 804.899 2214 814.643 2214C824.387 2214 832.286 2221.9 832.286 2231.64C832.286 2241.39 824.387 2249.29 814.643 2249.29ZM814.643 2242.79C808.489 2242.79 803.5 2237.8 803.5 2231.64C803.5 2225.49 808.489 2220.5 814.643 2220.5C820.797 2220.5 825.786 2225.49 825.786 2231.64C825.786 2237.8 820.797 2242.79 814.643 2242.79Z" fill="#263661"/>
<rect width="39.9286" height="13" rx="6.5" transform="matrix(-1 8.74228e-08 8.74228e-08 1 865.714 2225.14)" fill="#263661"/>
<path fill-rule="evenodd" clip-rule="evenodd" d="M909.357 2203.29C919.101 2203.29 927 2195.39 927 2185.64C927 2175.9 919.101 2168 909.357 2168C899.613 2168 891.714 2175.9 891.714 2185.64C891.714 2195.39 899.613 2203.29 909.357 2203.29ZM909.357 2196.79C915.511 2196.79 920.5 2191.8 920.5 2185.64C920.5 2179.49 915.511 2174.5 909.357 2174.5C903.203 2174.5 898.214 2179.49 898.214 2185.64C898.214 2191.8 903.203 2196.79 909.357 2196.79Z" fill="#263661"/>
<rect x="858.286" y="2179.14" width="39.9286" height="13" rx="6.5" fill="#263661"/>
<path fill-rule="evenodd" clip-rule="evenodd" d="M817.475 2166.43C810.585 2159.54 810.585 2148.37 817.475 2141.48C824.365 2134.59 835.536 2134.59 842.426 2141.48C849.316 2148.37 849.316 2159.54 842.426 2166.43C835.536 2173.32 824.365 2173.32 817.475 2166.43ZM822.072 2161.83C817.72 2157.48 817.72 2150.42 822.072 2146.07C826.423 2141.72 833.478 2141.72 837.83 2146.07C842.181 2150.42 842.181 2157.48 837.83 2161.83C833.478 2166.18 826.423 2166.18 822.072 2161.83Z" fill="#263661"/>
<rect width="39.9286" height="13" rx="6.5" transform="matrix(-0.707105 -0.707109 -0.707104 0.707109 870.66 2185.47)" fill="#263661"/>
<rect x="765" y="1926" width="157" height="14" rx="6.99999" fill="#263661"/>
<rect x="907" y="1932.1" width="88.2187" height="14" rx="7" transform="rotate(-45 907 1932.1)" fill="#263661"/>
<path fill-rule="evenodd" clip-rule="evenodd" d="M981 1884C991.493 1884 1000 1875.49 1000 1865C1000 1854.51 991.493 1846 981 1846C970.507 1846 962 1854.51 962 1865C962 1875.49 970.507 1884 981 1884ZM981 1877C987.627 1877 993 1871.63 993 1865C993 1858.37 987.627 1853 981 1853C974.373 1853 969 1858.37 969 1865C969 1871.63 974.373 1877 981 1877Z" fill="#263661"/>
<rect x="774" y="1940" width="325" height="14" rx="6.99999" transform="rotate(-180 774 1940)" fill="#263661"/>
<rect x="464" y="1933.9" width="88.2187" height="14" rx="7" transform="rotate(135 464 1933.9)" fill="#263661"/>
<path fill-rule="evenodd" clip-rule="evenodd" d="M390 1982C379.507 1982 371 1990.51 371 2001C371 2011.49 379.507 2020 390 2020C400.493 2020 409 2011.49 409 2001C409 1990.51 400.493 1982 390 1982ZM390 1989C383.373 1989 378 1994.37 378 2001C378 2007.63 383.373 2013 390 2013C396.627 2013 402 2007.63 402 2001C402 1994.37 396.627 1989 390 1989Z" fill="#263661"/>
<rect width="366" height="14" rx="7" transform="matrix(-1 8.74218e-08 8.74238e-08 1 1569 2222.71)" fill="#263661"/>
<rect width="158.301" height="14" rx="7" transform="matrix(-0.707107 -0.707107 -0.707107 0.707107 1218 2228.51)" fill="#263661"/>
<path fill-rule="evenodd" clip-rule="evenodd" d="M1093 2131.71C1082.51 2131.71 1074 2123.2 1074 2112.71C1074 2102.21 1082.51 2093.71 1093 2093.71C1103.49 2093.71 1112 2102.21 1112 2112.71C1112 2123.2 1103.49 2131.71 1093 2131.71ZM1093 2124.71C1086.37 2124.71 1081 2119.33 1081 2112.71C1081 2106.08 1086.37 2100.71 1093 2100.71C1099.63 2100.71 1105 2106.08 1105 2112.71C1105 2119.33 1099.63 2124.71 1093 2124.71Z" fill="#263661"/>
<rect width="366" height="14" rx="7" transform="matrix(-1 8.74233e-08 8.74223e-08 1 1591 2181)" fill="#263661"/>
<rect width="158.301" height="14" rx="7" transform="matrix(-0.707107 -0.707107 -0.707107 0.707107 1240 2186.81)" fill="#263661"/>
<path fill-rule="evenodd" clip-rule="evenodd" d="M1115 2090C1104.51 2090 1096 2081.49 1096 2071C1096 2060.51 1104.51 2052 1115 2052C1125.49 2052 1134 2060.51 1134 2071C1134 2081.49 1125.49 2090 1115 2090ZM1115 2083C1108.37 2083 1103 2077.63 1103 2071C1103 2064.37 1108.37 2059 1115 2059C1121.63 2059 1127 2064.37 1127 2071C1127 2077.63 1121.63 2083 1115 2083Z" fill="#263661"/>
<path fill-rule="evenodd" clip-rule="evenodd" d="M1093 2251C1082.51 2251 1074 2259.51 1074 2270C1074 2280.49 1082.51 2289 1093 2289C1103.49 2289 1112 2280.49 1112 2270C1112 2259.51 1103.49 2251 1093 2251ZM1093 2258C1086.37 2258 1081 2263.37 1081 2270C1081 2276.63 1086.37 2282 1093 2282C1099.63 2282 1105 2276.63 1105 2270C1105 2263.37 1099.63 2258 1093 2258Z" fill="#263661"/>
<rect x="1694" y="2277" width="589" height="14" rx="6.99999" transform="rotate(-180 1694 2277)" fill="#263661"/>
<path fill-rule="evenodd" clip-rule="evenodd" d="M448 2090C437.507 2090 429 2081.49 429 2071C429 2060.51 437.507 2052 448 2052C458.493 2052 467 2060.51 467 2071C467 2081.49 458.493 2090 448 2090ZM448 2083C441.373 2083 436 2077.63 436 2071C436 2064.37 441.373 2059 448 2059C454.627 2059 460 2064.37 460 2071C460 2077.63 454.627 2083 448 2083Z" fill="#263661"/>
<rect width="336" height="14" rx="7" transform="matrix(-1 0 0 1 796 2064)" fill="#263661"/>
<path fill-rule="evenodd" clip-rule="evenodd" d="M972 2090C982.493 2090 991 2081.49 991 2071C991 2060.51 982.493 2052 972 2052C961.507 2052 953 2060.51 953 2071C953 2081.49 961.507 2090 972 2090ZM972 2083C978.627 2083 984 2077.63 984 2071C984 2064.37 978.627 2059 972 2059C965.373 2059 960 2064.37 960 2071C960 2077.63 965.373 2083 972 2083Z" fill="#263661"/>
<rect x="624" y="2064" width="336" height="14" rx="7" fill="#263661"/>
<path fill-rule="evenodd" clip-rule="evenodd" d="M502 1998C491.507 1998 483 1989.49 483 1979C483 1968.51 491.507 1960 502 1960C512.493 1960 521 1968.51 521 1979C521 1989.49 512.493 1998 502 1998ZM502 1991C495.373 1991 490 1985.63 490 1979C490 1972.37 495.373 1967 502 1967C508.627 1967 514 1972.37 514 1979C514 1985.63 508.627 1991 502 1991Z" fill="#263661"/>
<rect width="282" height="14" rx="7" transform="matrix(-1 0 0 1 796 1972)" fill="#263661"/>
<path fill-rule="evenodd" clip-rule="evenodd" d="M918 1998C928.493 1998 937 1989.49 937 1979C937 1968.51 928.493 1960 918 1960C907.507 1960 899 1968.51 899 1979C899 1989.49 907.507 1998 918 1998ZM918 1991C924.627 1991 930 1985.63 930 1979C930 1972.37 924.627 1967 918 1967C911.373 1967 906 1972.37 906 1979C906 1985.63 911.373 1991 918 1991Z" fill="#263661"/>
<rect x="624" y="1972" width="282" height="14" rx="7" fill="#263661"/>
<path fill-rule="evenodd" clip-rule="evenodd" d="M576 2044C565.507 2044 557 2035.49 557 2025C557 2014.51 565.507 2006 576 2006C586.493 2006 595 2014.51 595 2025C595 2035.49 586.493 2044 576 2044ZM576 2037C569.373 2037 564 2031.63 564 2025C564 2018.37 569.373 2013 576 2013C582.627 2013 588 2018.37 588 2025C588 2031.63 582.627 2037 576 2037Z" fill="#263661"/>
<rect width="208" height="14" rx="7" transform="matrix(-1 0 0 1 796 2018)" fill="#263661"/>
<path fill-rule="evenodd" clip-rule="evenodd" d="M844 2044C854.493 2044 863 2035.49 863 2025C863 2014.51 854.493 2006 844 2006C833.507 2006 825 2014.51 825 2025C825 2035.49 833.507 2044 844 2044ZM844 2037C850.627 2037 856 2031.63 856 2025C856 2018.37 850.627 2013 844 2013C837.373 2013 832 2018.37 832 2025C832 2031.63 837.373 2037 844 2037Z" fill="#263661"/>
<rect x="624" y="2018" width="208" height="14" rx="7" fill="#263661"/>
<path fill-rule="evenodd" clip-rule="evenodd" d="M373.113 2163.06C380.003 2169.95 391.174 2169.95 398.064 2163.06C404.953 2156.17 404.953 2145 398.064 2138.11C391.174 2131.22 380.003 2131.22 373.113 2138.11C366.223 2145 366.223 2156.17 373.113 2163.06ZM377.709 2158.47C382.061 2162.82 389.116 2162.82 393.467 2158.47C397.819 2154.12 397.819 2147.06 393.467 2142.71C389.116 2138.36 382.061 2138.36 377.709 2142.71C373.357 2147.06 373.357 2154.12 377.709 2158.47Z" fill="#263661"/>
<rect width="39.9286" height="13" rx="6.5" transform="matrix(0.707106 0.707108 -0.707106 0.707108 354.072 2109.88)" fill="#263661"/>
<path fill-rule="evenodd" clip-rule="evenodd" d="M336 2073.64C336 2063.9 343.899 2056 353.643 2056C363.387 2056 371.286 2063.9 371.286 2073.64C371.286 2083.39 363.387 2091.29 353.643 2091.29C343.899 2091.29 336 2083.39 336 2073.64ZM342.5 2073.64C342.5 2067.49 347.489 2062.5 353.643 2062.5C359.797 2062.5 364.786 2067.49 364.786 2073.64C364.786 2079.8 359.797 2084.79 353.643 2084.79C347.489 2084.79 342.5 2079.8 342.5 2073.64Z" fill="#263661"/>
<rect width="39.9286" height="13" rx="6.5" transform="matrix(-4.37106e-08 -1 -1 4.37122e-08 360.143 2124.71)" fill="#263661"/>
<rect x="134" y="-157" width="366" height="14" rx="7" transform="rotate(90 134 -157)" fill="#172E52"/>
<rect width="158.301" height="14" rx="7" transform="matrix(0.707106 0.707108 -0.707106 0.707108 128.192 194)" fill="#172E52"/>
<path fill-rule="evenodd" clip-rule="evenodd" d="M225 319C225 329.493 233.507 338 244 338C254.493 338 263 329.493 263 319C263 308.507 254.493 300 244 300C233.507 300 225 308.507 225 319ZM232 319C232 325.627 237.373 331 244 331C250.627 331 256 325.627 256 319C256 312.373 250.627 307 244 307C237.373 307 232 312.373 232 319Z" fill="#172E52"/>
<rect x="175.707" y="-179" width="366" height="14" rx="7" transform="rotate(90 175.707 -179)" fill="#172E52"/>
<rect width="158.301" height="14" rx="7" transform="matrix(0.707106 0.707108 -0.707106 0.707108 169.9 172)" fill="#172E52"/>
<path fill-rule="evenodd" clip-rule="evenodd" d="M266.707 297C266.707 307.493 275.214 316 285.707 316C296.2 316 304.707 307.493 304.707 297C304.707 286.507 296.2 278 285.707 278C275.214 278 266.707 286.507 266.707 297ZM273.707 297C273.707 303.627 279.08 309 285.707 309C292.334 309 297.707 303.627 297.707 297C297.707 290.373 292.334 285 285.707 285C279.08 285 273.707 290.373 273.707 297Z" fill="#172E52"/>
<rect x="220.707" y="-198" width="366" height="14" rx="7" transform="rotate(90 220.707 -198)" fill="#172E52"/>
<rect width="158.301" height="14" rx="7" transform="matrix(0.707106 0.707108 -0.707106 0.707108 214.899 153)" fill="#172E52"/>
<path fill-rule="evenodd" clip-rule="evenodd" d="M311.707 278C311.707 288.493 320.214 297 330.707 297C341.2 297 349.707 288.493 349.707 278C349.707 267.507 341.2 259 330.707 259C320.214 259 311.707 267.507 311.707 278ZM318.707 278C318.707 284.627 324.08 290 330.707 290C337.334 290 342.707 284.627 342.707 278C342.707 271.373 337.334 266 330.707 266C324.08 266 318.707 271.373 318.707 278Z" fill="#172E52"/>
<rect x="778" y="1025" width="157" height="14" rx="6.99999" fill="#172E52"/>
<rect x="920" y="1031.1" width="88.2187" height="14" rx="7" transform="rotate(-45 920 1031.1)" fill="#172E52"/>
<path fill-rule="evenodd" clip-rule="evenodd" d="M994 983C1004.49 983 1013 974.493 1013 964C1013 953.507 1004.49 945 994 945C983.507 945 975 953.507 975 964C975 974.493 983.507 983 994 983ZM994 976C1000.63 976 1006 970.627 1006 964C1006 957.373 1000.63 952 994 952C987.373 952 982 957.373 982 964C982 970.627 987.373 976 994 976Z" fill="#172E52"/>
<rect x="787" y="1039" width="325" height="14" rx="6.99999" transform="rotate(-180 787 1039)" fill="#172E52"/>
<rect width="88.2187" height="14" rx="7" transform="matrix(-0.707106 0.707107 -0.707106 -0.707107 477 1032.9)" fill="#172E52"/>
<path fill-rule="evenodd" clip-rule="evenodd" d="M403 1081C392.507 1081 384 1089.51 384 1100C384 1110.49 392.507 1119 403 1119C413.493 1119 422 1110.49 422 1100C422 1089.51 413.493 1081 403 1081ZM403 1088C396.373 1088 391 1093.37 391 1100C391 1106.63 396.373 1112 403 1112C409.627 1112 415 1106.63 415 1100C415 1093.37 409.627 1088 403 1088Z" fill="#172E52"/>
<path fill-rule="evenodd" clip-rule="evenodd" d="M69 416C69 426.493 77.5066 435 88 435C98.4934 435 107 426.493 107 416C107 405.507 98.4934 397 88 397C77.5066 397 69 405.507 69 416ZM76 416C76 422.627 81.3726 428 88 428C94.6274 428 100 422.627 100 416C100 409.373 94.6274 404 88 404C81.3726 404 76 409.373 76 416Z" fill="#172E52"/>
<rect x="95" y="-185" width="589" height="14" rx="6.99999" transform="rotate(90 95 -185)" fill="#172E52"/>
<path fill-rule="evenodd" clip-rule="evenodd" d="M20 416C20 426.493 28.5066 435 39 435C49.4934 435 58 426.493 58 416C58 405.507 49.4934 397 39 397C28.5066 397 20 405.507 20 416ZM27 416C27 422.627 32.3726 428 39 428C45.6274 428 51 422.627 51 416C51 409.373 45.6274 404 39 404C32.3726 404 27 409.373 27 416Z" fill="#172E52"/>
<rect x="46" y="-185" width="589" height="14" rx="6.99999" transform="rotate(90 46 -185)" fill="#172E52"/>
<rect x="1711" y="335.293" width="366" height="14" rx="7" transform="rotate(-180 1711 335.293)" fill="#172E52"/>
<rect width="158.301" height="14" rx="7" transform="matrix(-0.707108 0.707105 -0.707108 -0.707105 1360 329.485)" fill="#172E52"/>
<path fill-rule="evenodd" clip-rule="evenodd" d="M1235 426.293C1224.51 426.293 1216 434.8 1216 445.293C1216 455.786 1224.51 464.293 1235 464.293C1245.49 464.293 1254 455.786 1254 445.293C1254 434.8 1245.49 426.293 1235 426.293ZM1235 433.293C1228.37 433.293 1223 438.666 1223 445.293C1223 451.92 1228.37 457.293 1235 457.293C1241.63 457.293 1247 451.92 1247 445.293C1247 438.666 1241.63 433.293 1235 433.293Z" fill="#172E52"/>
<rect x="1733" y="377" width="366" height="14" rx="7" transform="rotate(-180 1733 377)" fill="#172E52"/>
<rect width="158.301" height="14" rx="7" transform="matrix(-0.707108 0.707105 -0.707108 -0.707105 1382 371.192)" fill="#172E52"/>
<path fill-rule="evenodd" clip-rule="evenodd" d="M1257 468C1246.51 468 1238 476.507 1238 487C1238 497.493 1246.51 506 1257 506C1267.49 506 1276 497.493 1276 487C1276 476.507 1267.49 468 1257 468ZM1257 475C1250.37 475 1245 480.373 1245 487C1245 493.627 1250.37 499 1257 499C1263.63 499 1269 493.627 1269 487C1269 480.373 1263.63 475 1257 475Z" fill="#172E52"/>
<path fill-rule="evenodd" clip-rule="evenodd" d="M1235 307C1224.51 307 1216 298.493 1216 288C1216 277.507 1224.51 269 1235 269C1245.49 269 1254 277.507 1254 288C1254 298.493 1245.49 307 1235 307ZM1235 300C1228.37 300 1223 294.627 1223 288C1223 281.373 1228.37 276 1235 276C1241.63 276 1247 281.373 1247 288C1247 294.627 1241.63 300 1235 300Z" fill="#172E52"/>
<rect width="589" height="14" rx="6.99999" transform="matrix(-1 8.7422e-08 8.74236e-08 1 1836 281)" fill="#172E52"/>
<path fill-rule="evenodd" clip-rule="evenodd" d="M1400 433C1389.51 433 1381 424.493 1381 414C1381 403.507 1389.51 395 1400 395C1410.49 395 1419 403.507 1419 414C1419 424.493 1410.49 433 1400 433ZM1400 426C1393.37 426 1388 420.627 1388 414C1388 407.373 1393.37 402 1400 402C1406.63 402 1412 407.373 1412 414C1412 420.627 1406.63 426 1400 426Z" fill="#172E52"/>
<rect width="589" height="14" rx="6.99999" transform="matrix(-1 8.7422e-08 8.74236e-08 1 2001 407)" fill="#172E52"/>
<path fill-rule="evenodd" clip-rule="evenodd" d="M1400 479C1389.51 479 1381 470.493 1381 460C1381 449.507 1389.51 441 1400 441C1410.49 441 1419 449.507 1419 460C1419 470.493 1410.49 479 1400 479ZM1400 472C1393.37 472 1388 466.627 1388 460C1388 453.373 1393.37 448 1400 448C1406.63 448 1412 453.373 1412 460C1412 466.627 1406.63 472 1400 472Z" fill="#172E52"/>
<rect width="589" height="14" rx="6.99999" transform="matrix(-1 8.7422e-08 8.74236e-08 1 2001 453)" fill="#172E52"/>
<rect width="366" height="14" rx="7" transform="matrix(-1 8.74218e-08 8.74238e-08 1 1582 965.707)" fill="#172E52"/>
<rect width="158.301" height="14" rx="7" transform="matrix(-0.707106 -0.707107 -0.707106 0.707108 1231 971.515)" fill="#172E52"/>
<path fill-rule="evenodd" clip-rule="evenodd" d="M1106 874.707C1095.51 874.707 1087 866.2 1087 855.707C1087 845.214 1095.51 836.707 1106 836.707C1116.49 836.707 1125 845.214 1125 855.707C1125 866.2 1116.49 874.707 1106 874.707ZM1106 867.707C1099.37 867.707 1094 862.334 1094 855.707C1094 849.08 1099.37 843.707 1106 843.707C1112.63 843.707 1118 849.08 1118 855.707C1118 862.334 1112.63 867.707 1106 867.707Z" fill="#172E52"/>
<rect width="366" height="14" rx="7" transform="matrix(-1 8.74218e-08 8.74238e-08 1 1604 924)" fill="#172E52"/>
<rect width="158.301" height="14" rx="7" transform="matrix(-0.707107 -0.707107 -0.707107 0.707107 1253 929.808)" fill="#172E52"/>
<path fill-rule="evenodd" clip-rule="evenodd" d="M1128 833C1117.51 833 1109 824.493 1109 814C1109 803.507 1117.51 795 1128 795C1138.49 795 1147 803.507 1147 814C1147 824.493 1138.49 833 1128 833ZM1128 826C1121.37 826 1116 820.627 1116 814C1116 807.373 1121.37 802 1128 802C1134.63 802 1140 807.373 1140 814C1140 820.627 1134.63 826 1128 826Z" fill="#172E52"/>
<path fill-rule="evenodd" clip-rule="evenodd" d="M1106 994C1095.51 994 1087 1002.51 1087 1013C1087 1023.49 1095.51 1032 1106 1032C1116.49 1032 1125 1023.49 1125 1013C1125 1002.51 1116.49 994 1106 994ZM1106 1001C1099.37 1001 1094 1006.37 1094 1013C1094 1019.63 1099.37 1025 1106 1025C1112.63 1025 1118 1019.63 1118 1013C1118 1006.37 1112.63 1001 1106 1001Z" fill="#172E52"/>
<rect x="1707" y="1020" width="589" height="14" rx="6.99999" transform="rotate(-180 1707 1020)" fill="#172E52"/>
<rect x="60.9999" y="482.001" width="172" height="14" rx="6.99999" transform="rotate(-180 60.9999 482.001)" fill="#172E52"/>
<rect width="235" height="14" rx="6.99999" transform="matrix(1 -8.74228e-08 -8.74228e-08 -1 -111 482.001)" fill="#172E52"/>
<rect width="104.641" height="14" rx="7" transform="matrix(0.707105 0.707109 0.707105 -0.707109 108 475.9)" fill="#172E52"/>
<path fill-rule="evenodd" clip-rule="evenodd" d="M195.057 534.764C205.55 534.764 214.057 543.271 214.057 553.764C214.057 564.257 205.55 572.764 195.057 572.764C184.563 572.764 176.057 564.257 176.057 553.764C176.057 543.271 184.563 534.764 195.057 534.764ZM195.057 541.764C201.684 541.764 207.057 547.136 207.057 553.764C207.057 560.391 201.684 565.764 195.057 565.764C188.429 565.764 183.057 560.391 183.057 553.764C183.057 547.136 188.429 541.764 195.057 541.764Z" fill="#172E52"/>
<rect x="41.9999" y="528.001" width="172" height="14" rx="6.99999" transform="rotate(-180 41.9999 528.001)" fill="#172E52"/>
<rect width="235" height="14" rx="6.99999" transform="matrix(1 -8.74228e-08 -8.74228e-08 -1 -130 528.001)" fill="#172E52"/>
<rect width="104.641" height="14" rx="7" transform="matrix(0.707106 0.707107 0.707106 -0.707107 89 521.9)" fill="#172E52"/>
<path fill-rule="evenodd" clip-rule="evenodd" d="M176.057 580.764C186.55 580.764 195.057 589.271 195.057 599.764C195.057 610.257 186.55 618.764 176.057 618.764C165.563 618.764 157.057 610.257 157.057 599.764C157.057 589.271 165.563 580.764 176.057 580.764ZM176.057 587.764C182.684 587.764 188.057 593.136 188.057 599.764C188.057 606.391 182.684 611.764 176.057 611.764C169.429 611.764 164.057 606.391 164.057 599.764C164.057 593.136 169.429 587.764 176.057 587.764Z" fill="#172E52"/>
<rect x="25.9999" y="576.001" width="172" height="14" rx="6.99999" transform="rotate(-180 25.9999 576.001)" fill="#172E52"/>
<rect width="235" height="14" rx="6.99999" transform="matrix(1 -8.74228e-08 -8.74228e-08 -1 -146 576.001)" fill="#172E52"/>
<rect width="104.641" height="14" rx="7" transform="matrix(0.707106 0.707107 0.707106 -0.707107 73 569.9)" fill="#172E52"/>
<path fill-rule="evenodd" clip-rule="evenodd" d="M160.057 628.764C170.55 628.764 179.057 637.271 179.057 647.764C179.057 658.257 170.55 666.764 160.057 666.764C149.563 666.764 141.057 658.257 141.057 647.764C141.057 637.271 149.563 628.764 160.057 628.764ZM160.057 635.764C166.684 635.764 172.057 641.136 172.057 647.764C172.057 654.391 166.684 659.764 160.057 659.764C153.429 659.764 148.057 654.391 148.057 647.764C148.057 641.136 153.429 635.764 160.057 635.764Z" fill="#172E52"/>
<rect width="172" height="14" rx="6.99999" transform="matrix(-1 8.74226e-08 8.7423e-08 1 60.9999 1170.76)" fill="#172E52"/>
<rect x="-111" y="1170.76" width="235" height="14" rx="6.99999" fill="#172E52"/>
<rect width="104.641" height="14" rx="7" transform="matrix(0.707106 -0.707107 0.707106 0.707107 108 1176.86)" fill="#172E52"/>
<path fill-rule="evenodd" clip-rule="evenodd" d="M195.057 1118C205.55 1118 214.057 1109.49 214.057 1099C214.057 1088.51 205.55 1080 195.057 1080C184.563 1080 176.057 1088.51 176.057 1099C176.057 1109.49 184.563 1118 195.057 1118ZM195.057 1111C201.684 1111 207.057 1105.63 207.057 1099C207.057 1092.37 201.684 1087 195.057 1087C188.429 1087 183.057 1092.37 183.057 1099C183.057 1105.63 188.429 1111 195.057 1111Z" fill="#172E52"/>
<rect width="172" height="14" rx="6.99999" transform="matrix(-1 8.74226e-08 8.7423e-08 1 41.9999 1124.76)" fill="#172E52"/>
<rect x="-130" y="1124.76" width="235" height="14" rx="6.99999" fill="#172E52"/>
<rect width="104.641" height="14" rx="7" transform="matrix(0.707106 -0.707107 0.707106 0.707107 89 1130.86)" fill="#172E52"/>
<path fill-rule="evenodd" clip-rule="evenodd" d="M176.057 1072C186.55 1072 195.057 1063.49 195.057 1053C195.057 1042.51 186.55 1034 176.057 1034C165.563 1034 157.057 1042.51 157.057 1053C157.057 1063.49 165.563 1072 176.057 1072ZM176.057 1065C182.684 1065 188.057 1059.63 188.057 1053C188.057 1046.37 182.684 1041 176.057 1041C169.429 1041 164.057 1046.37 164.057 1053C164.057 1059.63 169.429 1065 176.057 1065Z" fill="#172E52"/>
<rect width="172" height="14" rx="6.99999" transform="matrix(-1 8.74226e-08 8.7423e-08 1 25.9999 1076.76)" fill="#172E52"/>
<rect x="-146" y="1076.76" width="235" height="14" rx="6.99999" fill="#172E52"/>
<rect width="104.641" height="14" rx="7" transform="matrix(0.707106 -0.707107 0.707106 0.707107 73 1082.86)" fill="#172E52"/>
<path fill-rule="evenodd" clip-rule="evenodd" d="M160.057 1024C170.55 1024 179.057 1015.49 179.057 1005C179.057 994.507 170.55 986 160.057 986C149.563 986 141.057 994.507 141.057 1005C141.057 1015.49 149.563 1024 160.057 1024ZM160.057 1017C166.684 1017 172.057 1011.63 172.057 1005C172.057 998.373 166.684 993 160.057 993C153.429 993 148.057 998.373 148.057 1005C148.057 1011.63 153.429 1017 160.057 1017Z" fill="#172E52"/>
<path fill-rule="evenodd" clip-rule="evenodd" d="M195 774C205.493 774 214 782.507 214 793C214 803.493 205.493 812 195 812C184.506 812 176 803.493 176 793C176 782.507 184.506 774 195 774ZM195 781C201.627 781 207 786.373 207 793C207 799.627 201.627 805 195 805C188.373 805 183 799.627 183 793C183 786.373 188.373 781 195 781Z" fill="#172E52"/>
<rect width="589" height="14" rx="6.99999" transform="matrix(1 0 0 -1 -406 800)" fill="#172E52"/>
<path fill-rule="evenodd" clip-rule="evenodd" d="M121 728C131.493 728 140 736.507 140 747C140 757.493 131.493 766 121 766C110.507 766 102 757.493 102 747C102 736.507 110.507 728 121 728ZM121 735C127.627 735 133 740.373 133 747C133 753.627 127.627 759 121 759C114.373 759 109 753.627 109 747C109 740.373 114.373 735 121 735Z" fill="#172E52"/>
<rect width="589" height="14" rx="6.99999" transform="matrix(1 0 0 -1 -480 754)" fill="#172E52"/>
<path fill-rule="evenodd" clip-rule="evenodd" d="M195 860C205.493 860 214 868.507 214 879C214 889.493 205.493 898 195 898C184.506 898 176 889.493 176 879C176 868.507 184.506 860 195 860ZM195 867C201.627 867 207 872.373 207 879C207 885.627 201.627 891 195 891C188.373 891 183 885.627 183 879C183 872.373 188.373 867 195 867Z" fill="#172E52"/>
<rect width="589" height="14" rx="6.99999" transform="matrix(1 0 0 -1 -406 886)" fill="#172E52"/>
<path fill-rule="evenodd" clip-rule="evenodd" d="M122 907C132.493 907 141 915.507 141 926C141 936.493 132.493 945 122 945C111.507 945 103 936.493 103 926C103 915.507 111.507 907 122 907ZM122 914C128.627 914 134 919.373 134 926C134 932.627 128.627 938 122 938C115.373 938 110 932.627 110 926C110 919.373 115.373 914 122 914Z" fill="#172E52"/>
<rect width="589" height="14" rx="6.99999" transform="matrix(1 0 0 -1 -479 933)" fill="#172E52"/>
<path fill-rule="evenodd" clip-rule="evenodd" d="M103 1199C113.493 1199 122 1207.51 122 1218C122 1228.49 113.493 1237 103 1237C92.5066 1237 84 1228.49 84 1218C84 1207.51 92.5066 1199 103 1199ZM103 1206C109.627 1206 115 1211.37 115 1218C115 1224.63 109.627 1230 103 1230C96.3726 1230 91 1224.63 91 1218C91 1211.37 96.3726 1206 103 1206Z" fill="#172E52"/>
<rect width="589" height="14" rx="6.99999" transform="matrix(1 0 0 -1 -498 1225)" fill="#172E52"/>
<path fill-rule="evenodd" clip-rule="evenodd" d="M141 1252C151.493 1252 160 1260.51 160 1271C160 1281.49 151.493 1290 141 1290C130.507 1290 122 1281.49 122 1271C122 1260.51 130.507 1252 141 1252ZM141 1259C147.627 1259 153 1264.37 153 1271C153 1277.63 147.627 1283 141 1283C134.373 1283 129 1277.63 129 1271C129 1264.37 134.373 1259 141 1259Z" fill="#172E52"/>
<rect width="589" height="14" rx="6.99999" transform="matrix(1 0 0 -1 -460 1278)" fill="#172E52"/>
<path fill-rule="evenodd" clip-rule="evenodd" d="M247 820C257.493 820 266 828.507 266 839C266 849.493 257.493 858 247 858C236.507 858 228 849.493 228 839C228 828.507 236.507 820 247 820ZM247 827C253.628 827 259 832.373 259 839C259 845.627 253.628 851 247 851C240.373 851 235 845.627 235 839C235 832.373 240.373 827 247 827Z" fill="#172E52"/>
<rect width="589" height="14" rx="6.99999" transform="matrix(1 0 0 -1 -354 846)" fill="#172E52"/>
<path fill-rule="evenodd" clip-rule="evenodd" d="M942 34C952.493 34 961 42.5066 961 53C961 63.4934 952.493 72 942 72C931.507 72 923 63.4934 923 53C923 42.5066 931.507 34 942 34ZM942 41C948.627 41 954 46.3726 954 53C954 59.6274 948.627 65 942 65C935.373 65 930 59.6274 930 53C930 46.3726 935.373 41 942 41Z" fill="#172E52"/>
<rect width="336" height="14" rx="7" transform="matrix(1 0 0 -1 594 60)" fill="#172E52"/>
<path fill-rule="evenodd" clip-rule="evenodd" d="M418 34C407.507 34 399 42.5066 399 53C399 63.4934 407.507 72 418 72C428.493 72 437 63.4934 437 53C437 42.5066 428.493 34 418 34ZM418 41C411.372 41 406 46.3726 406 53C406 59.6274 411.372 65 418 65C424.627 65 430 59.6274 430 53C430 46.3726 424.627 41 418 41Z" fill="#172E52"/>
<rect x="766" y="60" width="336" height="14" rx="7" transform="rotate(180 766 60)" fill="#172E52"/>
<path fill-rule="evenodd" clip-rule="evenodd" d="M888 126C898.493 126 907 134.507 907 145C907 155.493 898.493 164 888 164C877.507 164 869 155.493 869 145C869 134.507 877.507 126 888 126ZM888 133C894.628 133 900 138.373 900 145C900 151.627 894.628 157 888 157C881.373 157 876 151.627 876 145C876 138.373 881.373 133 888 133Z" fill="#172E52"/>
<rect width="282" height="14" rx="7" transform="matrix(1 0 0 -1 594 152)" fill="#172E52"/>
<path fill-rule="evenodd" clip-rule="evenodd" d="M472 126C461.507 126 453 134.507 453 145C453 155.493 461.507 164 472 164C482.493 164 491 155.493 491 145C491 134.507 482.493 126 472 126ZM472 133C465.372 133 460 138.373 460 145C460 151.627 465.372 157 472 157C478.627 157 484 151.627 484 145C484 138.373 478.627 133 472 133Z" fill="#172E52"/>
<rect x="766" y="152" width="282" height="14" rx="7" transform="rotate(180 766 152)" fill="#172E52"/>
<path fill-rule="evenodd" clip-rule="evenodd" d="M814 80C824.493 80 833 88.5066 833 99C833 109.493 824.493 118 814 118C803.507 118 795 109.493 795 99C795 88.5066 803.507 80 814 80ZM814 87C820.627 87 826 92.3726 826 99C826 105.627 820.627 111 814 111C807.373 111 802 105.627 802 99C802 92.3726 807.373 87 814 87Z" fill="#172E52"/>
<rect width="208" height="14" rx="7" transform="matrix(1 0 0 -1 594 106)" fill="#172E52"/>
<path fill-rule="evenodd" clip-rule="evenodd" d="M546 80C535.507 80 527 88.5066 527 99C527 109.493 535.507 118 546 118C556.493 118 565 109.493 565 99C565 88.5066 556.493 80 546 80ZM546 87C539.373 87 534 92.3726 534 99C534 105.627 539.373 111 546 111C552.627 111 558 105.627 558 99C558 92.3726 552.627 87 546 87Z" fill="#172E52"/>
<rect x="766" y="106" width="208" height="14" rx="7" transform="rotate(180 766 106)" fill="#172E52"/>
<path fill-rule="evenodd" clip-rule="evenodd" d="M229 1265.36C229 1275.1 236.899 1283 246.643 1283C256.387 1283 264.286 1275.1 264.286 1265.36C264.286 1255.61 256.387 1247.71 246.643 1247.71C236.899 1247.71 229 1255.61 229 1265.36ZM235.5 1265.36C235.5 1271.51 240.489 1276.5 246.643 1276.5C252.797 1276.5 257.786 1271.51 257.786 1265.36C257.786 1259.2 252.797 1254.21 246.643 1254.21C240.489 1254.21 235.5 1259.2 235.5 1265.36Z" fill="#172E52"/>
<rect x="253.143" y="1214.29" width="39.9286" height="13" rx="6.5" transform="rotate(90 253.143 1214.29)" fill="#172E52"/>
<path fill-rule="evenodd" clip-rule="evenodd" d="M229 1170.64C229 1160.9 236.899 1153 246.643 1153C256.387 1153 264.286 1160.9 264.286 1170.64C264.286 1180.39 256.387 1188.29 246.643 1188.29C236.899 1188.29 229 1180.39 229 1170.64ZM235.5 1170.64C235.5 1164.49 240.489 1159.5 246.643 1159.5C252.797 1159.5 257.786 1164.49 257.786 1170.64C257.786 1176.8 252.797 1181.79 246.643 1181.79C240.489 1181.79 235.5 1176.8 235.5 1170.64Z" fill="#172E52"/>
<rect width="39.9286" height="13" rx="6.5" transform="matrix(-4.37106e-08 -1 -1 4.37122e-08 253.143 1221.71)" fill="#172E52"/>
<path fill-rule="evenodd" clip-rule="evenodd" d="M275 1265.36C275 1275.1 282.899 1283 292.643 1283C302.387 1283 310.286 1275.1 310.286 1265.36C310.286 1255.61 302.387 1247.71 292.643 1247.71C282.899 1247.71 275 1255.61 275 1265.36ZM281.5 1265.36C281.5 1271.51 286.489 1276.5 292.643 1276.5C298.797 1276.5 303.786 1271.51 303.786 1265.36C303.786 1259.2 298.797 1254.21 292.643 1254.21C286.489 1254.21 281.5 1259.2 281.5 1265.36Z" fill="#172E52"/>
<rect x="299.143" y="1214.29" width="39.9286" height="13" rx="6.5" transform="rotate(90 299.143 1214.29)" fill="#172E52"/>
<path fill-rule="evenodd" clip-rule="evenodd" d="M275 1170.64C275 1160.9 282.899 1153 292.643 1153C302.387 1153 310.286 1160.9 310.286 1170.64C310.286 1180.39 302.387 1188.29 292.643 1188.29C282.899 1188.29 275 1180.39 275 1170.64ZM281.5 1170.64C281.5 1164.49 286.489 1159.5 292.643 1159.5C298.797 1159.5 303.786 1164.49 303.786 1170.64C303.786 1176.8 298.797 1181.79 292.643 1181.79C286.489 1181.79 281.5 1176.8 281.5 1170.64Z" fill="#172E52"/>
<rect width="39.9286" height="13" rx="6.5" transform="matrix(-4.37106e-08 -1 -1 4.37122e-08 299.143 1221.71)" fill="#172E52"/>
<path fill-rule="evenodd" clip-rule="evenodd" d="M320 1265.36C320 1275.1 327.899 1283 337.643 1283C347.387 1283 355.286 1275.1 355.286 1265.36C355.286 1255.61 347.387 1247.71 337.643 1247.71C327.899 1247.71 320 1255.61 320 1265.36ZM326.5 1265.36C326.5 1271.51 331.489 1276.5 337.643 1276.5C343.797 1276.5 348.786 1271.51 348.786 1265.36C348.786 1259.2 343.797 1254.21 337.643 1254.21C331.489 1254.21 326.5 1259.2 326.5 1265.36Z" fill="#172E52"/>
<rect x="344.143" y="1214.29" width="39.9286" height="13" rx="6.5" transform="rotate(90 344.143 1214.29)" fill="#172E52"/>
<path fill-rule="evenodd" clip-rule="evenodd" d="M320 1170.64C320 1160.9 327.899 1153 337.643 1153C347.387 1153 355.286 1160.9 355.286 1170.64C355.286 1180.39 347.387 1188.29 337.643 1188.29C327.899 1188.29 320 1180.39 320 1170.64ZM326.5 1170.64C326.5 1164.49 331.489 1159.5 337.643 1159.5C343.797 1159.5 348.786 1164.49 348.786 1170.64C348.786 1176.8 343.797 1181.79 337.643 1181.79C331.489 1181.79 326.5 1176.8 326.5 1170.64Z" fill="#172E52"/>
<rect width="39.9286" height="13" rx="6.5" transform="matrix(-4.37106e-08 -1 -1 4.37122e-08 344.143 1221.71)" fill="#172E52"/>
<path fill-rule="evenodd" clip-rule="evenodd" d="M276 146.357C276 156.101 283.899 164 293.643 164C303.387 164 311.286 156.101 311.286 146.357C311.286 136.613 303.387 128.714 293.643 128.714C283.899 128.714 276 136.613 276 146.357ZM282.5 146.357C282.5 152.511 287.489 157.5 293.643 157.5C299.797 157.5 304.786 152.511 304.786 146.357C304.786 140.203 299.797 135.214 293.643 135.214C287.489 135.214 282.5 140.203 282.5 146.357Z" fill="#172E52"/>
<rect x="300.143" y="95.2856" width="39.9286" height="13" rx="6.5" transform="rotate(90 300.143 95.2856)" fill="#172E52"/>
<path fill-rule="evenodd" clip-rule="evenodd" d="M276 51.6428C276 41.8989 283.899 33.9999 293.643 33.9999C303.387 33.9999 311.286 41.8989 311.286 51.6428C311.286 61.3867 303.387 69.2856 293.643 69.2856C283.899 69.2856 276 61.3867 276 51.6428ZM282.5 51.6428C282.5 45.4888 287.489 40.4999 293.643 40.4999C299.797 40.4999 304.786 45.4888 304.786 51.6428C304.786 57.7968 299.797 62.7856 293.643 62.7856C287.489 62.7856 282.5 57.7968 282.5 51.6428Z" fill="#172E52"/>
<rect width="39.9286" height="13" rx="6.5" transform="matrix(-4.37106e-08 -1 -1 4.37122e-08 300.143 102.714)" fill="#172E52"/>
<path fill-rule="evenodd" clip-rule="evenodd" d="M322 146.357C322 156.101 329.899 164 339.643 164C349.387 164 357.286 156.101 357.286 146.357C357.286 136.613 349.387 128.714 339.643 128.714C329.899 128.714 322 136.613 322 146.357ZM328.5 146.357C328.5 152.511 333.489 157.5 339.643 157.5C345.797 157.5 350.786 152.511 350.786 146.357C350.786 140.203 345.797 135.214 339.643 135.214C333.489 135.214 328.5 140.203 328.5 146.357Z" fill="#172E52"/>
<rect x="346.143" y="95.2856" width="39.9286" height="13" rx="6.5" transform="rotate(90 346.143 95.2856)" fill="#172E52"/>
<path fill-rule="evenodd" clip-rule="evenodd" d="M322 51.6428C322 41.8989 329.899 33.9999 339.643 33.9999C349.387 33.9999 357.286 41.8989 357.286 51.6428C357.286 61.3867 349.387 69.2856 339.643 69.2856C329.899 69.2856 322 61.3867 322 51.6428ZM328.5 51.6428C328.5 45.4888 333.489 40.4999 339.643 40.4999C345.797 40.4999 350.786 45.4888 350.786 51.6428C350.786 57.7968 345.797 62.7856 339.643 62.7856C333.489 62.7856 328.5 57.7968 328.5 51.6428Z" fill="#172E52"/>
<rect width="39.9286" height="13" rx="6.5" transform="matrix(-4.37106e-08 -1 -1 4.37122e-08 346.143 102.714)" fill="#172E52"/>
<path fill-rule="evenodd" clip-rule="evenodd" d="M1045 1227.36C1045 1237.1 1052.9 1245 1062.64 1245C1072.39 1245 1080.29 1237.1 1080.29 1227.36C1080.29 1217.61 1072.39 1209.71 1062.64 1209.71C1052.9 1209.71 1045 1217.61 1045 1227.36ZM1051.5 1227.36C1051.5 1233.51 1056.49 1238.5 1062.64 1238.5C1068.8 1238.5 1073.79 1233.51 1073.79 1227.36C1073.79 1221.2 1068.8 1216.21 1062.64 1216.21C1056.49 1216.21 1051.5 1221.2 1051.5 1227.36Z" fill="#172E52"/>
<rect x="1069.14" y="1176.29" width="39.9286" height="13" rx="6.5" transform="rotate(90 1069.14 1176.29)" fill="#172E52"/>
<path fill-rule="evenodd" clip-rule="evenodd" d="M1045 1132.64C1045 1122.9 1052.9 1115 1062.64 1115C1072.39 1115 1080.29 1122.9 1080.29 1132.64C1080.29 1142.39 1072.39 1150.29 1062.64 1150.29C1052.9 1150.29 1045 1142.39 1045 1132.64ZM1051.5 1132.64C1051.5 1126.49 1056.49 1121.5 1062.64 1121.5C1068.8 1121.5 1073.79 1126.49 1073.79 1132.64C1073.79 1138.8 1068.8 1143.79 1062.64 1143.79C1056.49 1143.79 1051.5 1138.8 1051.5 1132.64Z" fill="#172E52"/>
<rect width="39.9286" height="13" rx="6.5" transform="matrix(-4.37106e-08 -1 -1 4.37122e-08 1069.14 1183.71)" fill="#172E52"/>
<path fill-rule="evenodd" clip-rule="evenodd" d="M1091 1227.36C1091 1237.1 1098.9 1245 1108.64 1245C1118.39 1245 1126.29 1237.1 1126.29 1227.36C1126.29 1217.61 1118.39 1209.71 1108.64 1209.71C1098.9 1209.71 1091 1217.61 1091 1227.36ZM1097.5 1227.36C1097.5 1233.51 1102.49 1238.5 1108.64 1238.5C1114.8 1238.5 1119.79 1233.51 1119.79 1227.36C1119.79 1221.2 1114.8 1216.21 1108.64 1216.21C1102.49 1216.21 1097.5 1221.2 1097.5 1227.36Z" fill="#172E52"/>
<rect x="1115.14" y="1176.29" width="39.9286" height="13" rx="6.5" transform="rotate(90 1115.14 1176.29)" fill="#172E52"/>
<path fill-rule="evenodd" clip-rule="evenodd" d="M1091 1132.64C1091 1122.9 1098.9 1115 1108.64 1115C1118.39 1115 1126.29 1122.9 1126.29 1132.64C1126.29 1142.39 1118.39 1150.29 1108.64 1150.29C1098.9 1150.29 1091 1142.39 1091 1132.64ZM1097.5 1132.64C1097.5 1126.49 1102.49 1121.5 1108.64 1121.5C1114.8 1121.5 1119.79 1126.49 1119.79 1132.64C1119.79 1138.8 1114.8 1143.79 1108.64 1143.79C1102.49 1143.79 1097.5 1138.8 1097.5 1132.64Z" fill="#172E52"/>
<rect width="39.9286" height="13" rx="6.5" transform="matrix(-4.37106e-08 -1 -1 4.37122e-08 1115.14 1183.71)" fill="#172E52"/>
<path fill-rule="evenodd" clip-rule="evenodd" d="M1069 77.3572C1069 87.1011 1076.9 95.0001 1086.64 95.0001C1096.39 95.0001 1104.29 87.1011 1104.29 77.3572C1104.29 67.6133 1096.39 59.7144 1086.64 59.7144C1076.9 59.7144 1069 67.6133 1069 77.3572ZM1075.5 77.3572C1075.5 83.5112 1080.49 88.5001 1086.64 88.5001C1092.8 88.5001 1097.79 83.5112 1097.79 77.3572C1097.79 71.2032 1092.8 66.2144 1086.64 66.2144C1080.49 66.2144 1075.5 71.2032 1075.5 77.3572Z" fill="#172E52"/>
<rect x="1093.14" y="26.2856" width="39.9286" height="13" rx="6.5" transform="rotate(90 1093.14 26.2856)" fill="#172E52"/>
<path fill-rule="evenodd" clip-rule="evenodd" d="M1069 -17.3572C1069 -27.1011 1076.9 -35.0001 1086.64 -35.0001C1096.39 -35.0001 1104.29 -27.1011 1104.29 -17.3572C1104.29 -7.61333 1096.39 0.285645 1086.64 0.285645C1076.9 0.285646 1069 -7.61333 1069 -17.3572ZM1075.5 -17.3572C1075.5 -23.5112 1080.49 -28.5001 1086.64 -28.5001C1092.8 -28.5001 1097.79 -23.5112 1097.79 -17.3572C1097.79 -11.2032 1092.8 -6.21435 1086.64 -6.21435C1080.49 -6.21435 1075.5 -11.2032 1075.5 -17.3572Z" fill="#172E52"/>
<rect width="39.9286" height="13" rx="6.5" transform="matrix(-4.37106e-08 -1 -1 4.37122e-08 1093.14 33.7144)" fill="#172E52"/>
<path fill-rule="evenodd" clip-rule="evenodd" d="M1115 77.3572C1115 87.1011 1122.9 95.0001 1132.64 95.0001C1142.39 95.0001 1150.29 87.1011 1150.29 77.3572C1150.29 67.6133 1142.39 59.7144 1132.64 59.7144C1122.9 59.7144 1115 67.6133 1115 77.3572ZM1121.5 77.3572C1121.5 83.5112 1126.49 88.5001 1132.64 88.5001C1138.8 88.5001 1143.79 83.5112 1143.79 77.3572C1143.79 71.2032 1138.8 66.2144 1132.64 66.2144C1126.49 66.2144 1121.5 71.2032 1121.5 77.3572Z" fill="#172E52"/>
<rect x="1139.14" y="26.2856" width="39.9286" height="13" rx="6.5" transform="rotate(90 1139.14 26.2856)" fill="#172E52"/>
<path fill-rule="evenodd" clip-rule="evenodd" d="M1115 -17.3572C1115 -27.1011 1122.9 -35.0001 1132.64 -35.0001C1142.39 -35.0001 1150.29 -27.1011 1150.29 -17.3572C1150.29 -7.61333 1142.39 0.285645 1132.64 0.285645C1122.9 0.285646 1115 -7.61333 1115 -17.3572ZM1121.5 -17.3572C1121.5 -23.5112 1126.49 -28.5001 1132.64 -28.5001C1138.8 -28.5001 1143.79 -23.5112 1143.79 -17.3572C1143.79 -11.2032 1138.8 -6.21435 1132.64 -6.21435C1126.49 -6.21435 1121.5 -11.2032 1121.5 -17.3572Z" fill="#172E52"/>
<rect width="39.9286" height="13" rx="6.5" transform="matrix(-4.37106e-08 -1 -1 4.37122e-08 1139.14 33.7144)" fill="#172E52"/>
<rect x="625" y="198" width="157" height="14" rx="6.99999" transform="rotate(-180 625 198)" fill="#172E52"/>
<rect width="88.2187" height="14" rx="7" transform="matrix(-0.707109 0.707105 -0.707108 -0.707105 483 191.899)" fill="#172E52"/>
<path fill-rule="evenodd" clip-rule="evenodd" d="M409 240C398.507 240 390 248.507 390 259C390 269.493 398.507 278 409 278C419.493 278 428 269.493 428 259C428 248.507 419.493 240 409 240ZM409 247C402.373 247 397 252.373 397 259C397 265.627 402.373 271 409 271C415.627 271 421 265.627 421 259C421 252.373 415.627 247 409 247Z" fill="#172E52"/>
<rect x="616" y="184" width="325" height="14" rx="6.99999" fill="#172E52"/>
<rect width="88.2187" height="14" rx="7" transform="matrix(0.707109 -0.707104 0.707109 0.707104 926 190.101)" fill="#172E52"/>
<path fill-rule="evenodd" clip-rule="evenodd" d="M1000 142C1010.49 142 1019 133.493 1019 123C1019 112.507 1010.49 104 1000 104C989.507 104 981 112.507 981 123C981 133.493 989.507 142 1000 142ZM1000 135C1006.63 135 1012 129.627 1012 123C1012 116.373 1006.63 111 1000 111C993.373 111 988 116.373 988 123C988 129.627 993.373 135 1000 135Z" fill="#172E52"/>
<path fill-rule="evenodd" clip-rule="evenodd" d="M461 1189C450.507 1189 442 1180.49 442 1170C442 1159.51 450.507 1151 461 1151C471.493 1151 480 1159.51 480 1170C480 1180.49 471.493 1189 461 1189ZM461 1182C454.373 1182 449 1176.63 449 1170C449 1163.37 454.373 1158 461 1158C467.627 1158 473 1163.37 473 1170C473 1176.63 467.627 1182 461 1182Z" fill="#172E52"/>
<rect width="336" height="14" rx="7" transform="matrix(-1 0 0 1 809 1163)" fill="#172E52"/>
<path fill-rule="evenodd" clip-rule="evenodd" d="M985 1189C995.493 1189 1004 1180.49 1004 1170C1004 1159.51 995.493 1151 985 1151C974.507 1151 966 1159.51 966 1170C966 1180.49 974.507 1189 985 1189ZM985 1182C991.627 1182 997 1176.63 997 1170C997 1163.37 991.627 1158 985 1158C978.373 1158 973 1163.37 973 1170C973 1176.63 978.373 1182 985 1182Z" fill="#172E52"/>
<rect x="637" y="1163" width="336" height="14" rx="7" fill="#172E52"/>
<path fill-rule="evenodd" clip-rule="evenodd" d="M515 1097C504.507 1097 496 1088.49 496 1078C496 1067.51 504.507 1059 515 1059C525.493 1059 534 1067.51 534 1078C534 1088.49 525.493 1097 515 1097ZM515 1090C508.373 1090 503 1084.63 503 1078C503 1071.37 508.373 1066 515 1066C521.627 1066 527 1071.37 527 1078C527 1084.63 521.627 1090 515 1090Z" fill="#172E52"/>
<rect width="282" height="14" rx="7" transform="matrix(-1 0 0 1 809 1071)" fill="#172E52"/>
<path fill-rule="evenodd" clip-rule="evenodd" d="M931 1097C941.493 1097 950 1088.49 950 1078C950 1067.51 941.493 1059 931 1059C920.507 1059 912 1067.51 912 1078C912 1088.49 920.507 1097 931 1097ZM931 1090C937.627 1090 943 1084.63 943 1078C943 1071.37 937.627 1066 931 1066C924.373 1066 919 1071.37 919 1078C919 1084.63 924.373 1090 931 1090Z" fill="#172E52"/>
<rect x="637" y="1071" width="282" height="14" rx="7" fill="#172E52"/>
<path fill-rule="evenodd" clip-rule="evenodd" d="M589 1143C578.507 1143 570 1134.49 570 1124C570 1113.51 578.507 1105 589 1105C599.493 1105 608 1113.51 608 1124C608 1134.49 599.493 1143 589 1143ZM589 1136C582.373 1136 577 1130.63 577 1124C577 1117.37 582.373 1112 589 1112C595.627 1112 601 1117.37 601 1124C601 1130.63 595.627 1136 589 1136Z" fill="#172E52"/>
<rect width="208" height="14" rx="7" transform="matrix(-1 0 0 1 809 1117)" fill="#172E52"/>
<path fill-rule="evenodd" clip-rule="evenodd" d="M857 1143C867.493 1143 876 1134.49 876 1124C876 1113.51 867.493 1105 857 1105C846.507 1105 838 1113.51 838 1124C838 1134.49 846.507 1143 857 1143ZM857 1136C863.627 1136 869 1130.63 869 1124C869 1117.37 863.627 1112 857 1112C850.373 1112 845 1117.37 845 1124C845 1130.63 850.373 1136 857 1136Z" fill="#172E52"/>
<rect x="637" y="1117" width="208" height="14" rx="7" fill="#172E52"/>
<path fill-rule="evenodd" clip-rule="evenodd" d="M1315 667C1304.51 667 1296 658.493 1296 648C1296 637.507 1304.51 629 1315 629C1325.49 629 1334 637.507 1334 648C1334 658.493 1325.49 667 1315 667ZM1315 660C1308.37 660 1303 654.627 1303 648C1303 641.373 1308.37 636 1315 636C1321.63 636 1327 641.373 1327 648C1327 654.627 1321.63 660 1315 660Z" fill="#172E52"/>
<rect width="589" height="14" rx="6.99999" transform="matrix(-1 0 0 1 1916 641)" fill="#172E52"/>
<path fill-rule="evenodd" clip-rule="evenodd" d="M1389 713C1378.51 713 1370 704.493 1370 694C1370 683.507 1378.51 675 1389 675C1399.49 675 1408 683.507 1408 694C1408 704.493 1399.49 713 1389 713ZM1389 706C1382.37 706 1377 700.627 1377 694C1377 687.373 1382.37 682 1389 682C1395.63 682 1401 687.373 1401 694C1401 700.627 1395.63 706 1389 706Z" fill="#172E52"/>
<rect width="589" height="14" rx="6.99999" transform="matrix(-1 0 0 1 1990 687)" fill="#172E52"/>
<path fill-rule="evenodd" clip-rule="evenodd" d="M1263 621C1252.51 621 1244 612.493 1244 602C1244 591.507 1252.51 583 1263 583C1273.49 583 1282 591.507 1282 602C1282 612.493 1273.49 621 1263 621ZM1263 614C1256.37 614 1251 608.627 1251 602C1251 595.373 1256.37 590 1263 590C1269.63 590 1275 595.373 1275 602C1275 608.627 1269.63 614 1263 614Z" fill="#172E52"/>
<rect width="589" height="14" rx="6.99999" transform="matrix(-1 0 0 1 1864 595)" fill="#172E52"/>
<rect x="60.9999" y="482.001" width="172" height="14" rx="6.99999" transform="rotate(-180 60.9999 482.001)" fill="#172E52"/>
<rect width="235" height="14" rx="6.99999" transform="matrix(1 -8.74228e-08 -8.74228e-08 -1 -111 482.001)" fill="#172E52"/>
<rect width="104.641" height="14" rx="7" transform="matrix(0.707105 0.707109 0.707105 -0.707109 108 475.9)" fill="#172E52"/>
<path fill-rule="evenodd" clip-rule="evenodd" d="M195.057 534.764C205.55 534.764 214.057 543.271 214.057 553.764C214.057 564.257 205.55 572.764 195.057 572.764C184.563 572.764 176.057 564.257 176.057 553.764C176.057 543.271 184.563 534.764 195.057 534.764ZM195.057 541.764C201.684 541.764 207.057 547.136 207.057 553.764C207.057 560.391 201.684 565.764 195.057 565.764C188.429 565.764 183.057 560.391 183.057 553.764C183.057 547.136 188.429 541.764 195.057 541.764Z" fill="#172E52"/>
<rect width="366" height="14" rx="7" transform="matrix(-1 8.74218e-08 8.74238e-08 1 1582 965.707)" fill="#172E52"/>
<rect width="158.301" height="14" rx="7" transform="matrix(-0.707106 -0.707107 -0.707106 0.707108 1231 971.515)" fill="#172E52"/>
<path fill-rule="evenodd" clip-rule="evenodd" d="M1106 874.707C1095.51 874.707 1087 866.2 1087 855.707C1087 845.214 1095.51 836.707 1106 836.707C1116.49 836.707 1125 845.214 1125 855.707C1125 866.2 1116.49 874.707 1106 874.707ZM1106 867.707C1099.37 867.707 1094 862.334 1094 855.707C1094 849.08 1099.37 843.707 1106 843.707C1112.63 843.707 1118 849.08 1118 855.707C1118 862.334 1112.63 867.707 1106 867.707Z" fill="#172E52"/>
<rect width="366" height="14" rx="7" transform="matrix(-1 8.74218e-08 8.74238e-08 1 1604 924)" fill="#172E52"/>
<rect width="158.301" height="14" rx="7" transform="matrix(-0.707107 -0.707107 -0.707107 0.707107 1253 929.808)" fill="#172E52"/>
<path fill-rule="evenodd" clip-rule="evenodd" d="M1128 833C1117.51 833 1109 824.493 1109 814C1109 803.507 1117.51 795 1128 795C1138.49 795 1147 803.507 1147 814C1147 824.493 1138.49 833 1128 833ZM1128 826C1121.37 826 1116 820.627 1116 814C1116 807.373 1121.37 802 1128 802C1134.63 802 1140 807.373 1140 814C1140 820.627 1134.63 826 1128 826Z" fill="#172E52"/>
<path fill-rule="evenodd" clip-rule="evenodd" d="M1106 994C1095.51 994 1087 1002.51 1087 1013C1087 1023.49 1095.51 1032 1106 1032C1116.49 1032 1125 1023.49 1125 1013C1125 1002.51 1116.49 994 1106 994ZM1106 1001C1099.37 1001 1094 1006.37 1094 1013C1094 1019.63 1099.37 1025 1106 1025C1112.63 1025 1118 1019.63 1118 1013C1118 1006.37 1112.63 1001 1106 1001Z" fill="#172E52"/>
<rect x="1707" y="1020" width="589" height="14" rx="6.99999" transform="rotate(-180 1707 1020)" fill="#172E52"/>
<path fill-rule="evenodd" clip-rule="evenodd" d="M1271 868C1260.51 868 1252 876.507 1252 887C1252 897.493 1260.51 906 1271 906C1281.49 906 1290 897.493 1290 887C1290 876.507 1281.49 868 1271 868ZM1271 875C1264.37 875 1259 880.373 1259 887C1259 893.627 1264.37 899 1271 899C1277.63 899 1283 893.627 1283 887C1283 880.373 1277.63 875 1271 875Z" fill="#172E52"/>
<rect x="1872" y="894" width="589" height="14" rx="6.99999" transform="rotate(-180 1872 894)" fill="#172E52"/>
<path fill-rule="evenodd" clip-rule="evenodd" d="M1271 822C1260.51 822 1252 830.507 1252 841C1252 851.493 1260.51 860 1271 860C1281.49 860 1290 851.493 1290 841C1290 830.507 1281.49 822 1271 822ZM1271 829C1264.37 829 1259 834.373 1259 841C1259 847.627 1264.37 853 1271 853C1277.63 853 1283 847.627 1283 841C1283 834.373 1277.63 829 1271 829Z" fill="#172E52"/>
<rect x="1872" y="848" width="589" height="14" rx="6.99999" transform="rotate(-180 1872 848)" fill="#172E52"/>
<path fill-rule="evenodd" clip-rule="evenodd" d="M1271 868C1260.51 868 1252 876.507 1252 887C1252 897.493 1260.51 906 1271 906C1281.49 906 1290 897.493 1290 887C1290 876.507 1281.49 868 1271 868ZM1271 875C1264.37 875 1259 880.373 1259 887C1259 893.627 1264.37 899 1271 899C1277.63 899 1283 893.627 1283 887C1283 880.373 1277.63 875 1271 875Z" fill="#172E52"/>
<rect x="1872" y="894" width="589" height="14" rx="6.99999" transform="rotate(-180 1872 894)" fill="#172E52"/>
<path fill-rule="evenodd" clip-rule="evenodd" d="M1271 822C1260.51 822 1252 830.507 1252 841C1252 851.493 1260.51 860 1271 860C1281.49 860 1290 851.493 1290 841C1290 830.507 1281.49 822 1271 822ZM1271 829C1264.37 829 1259 834.373 1259 841C1259 847.627 1264.37 853 1271 853C1277.63 853 1283 847.627 1283 841C1283 834.373 1277.63 829 1271 829Z" fill="#172E52"/>
<rect x="1872" y="848" width="589" height="14" rx="6.99999" transform="rotate(-180 1872 848)" fill="#172E52"/>
</g>
<defs>
<clipPath id="clip0">
<rect width="1440" height="4594" fill="white"/>
</clipPath>
</defs>
</svg>
