<svg width="520" height="777" viewBox="0 0 520 777" fill="none" xmlns="http://www.w3.org/2000/svg">
<g filter="url(#filter0_d)">
<path d="M320.797 38.505C313.351 34.0406 305.13 30.8019 296.616 29.099C205.511 10.8773 160.449 50.6106 148.518 86.9394C145.228 96.9565 148.358 107.619 153.954 116.554L158.474 123.772C161.936 129.301 165.906 134.528 170.516 139.144C209.898 178.573 243.459 190.164 307.904 194.456C312.984 194.795 318.095 194.678 323.163 194.187L347.718 191.808C362.779 190.349 376.94 182.422 383.365 168.723C400.374 132.456 400.89 86.5212 320.797 38.505Z" fill="url(#paint0_radial)"/>
<path d="M326.6 150.938L243.103 113.521C265.635 276.251 240.999 384.61 178.432 530.2C235.006 476.535 260.136 413.826 300.405 504.898C356.188 415.203 285.895 305.94 326.6 150.938Z" fill="#9DF8B6" fill-opacity="0.8"/>
<path d="M184.933 114.683L231.352 111.595C146.156 334.535 111.734 497.173 82.066 726.237C74.1429 629.81 87.9451 531.797 24.6996 646.669C33.277 499.378 138.768 349.284 184.933 114.683Z" fill="#C9DECF" fill-opacity="0.9"/>
<path d="M284.64 143.372C260.976 143.295 216.559 122.217 196.685 112.686C163.114 213.019 202.758 377.198 175.467 509.216C173.408 519.176 180.973 528.768 191.142 528.523C194.738 528.436 198.25 527.084 200.817 524.565C248.965 477.326 183.67 446.008 202.542 324.413C204.838 309.622 226.248 308.549 229.123 323.238C233.887 347.586 233.675 365.846 229.031 408.458C227.708 420.596 239.282 430.173 250.903 426.429C257.821 424.2 262.578 417.707 262.233 410.447C259.037 343.014 229.451 340.596 247.144 286.4C248.823 281.255 254.593 278.741 259.601 280.794C261.869 281.723 263.747 283.488 264.609 285.783C272.731 307.397 258.161 314.045 258.215 332.401C258.227 336.464 261.2 339.775 265.039 341.105C269.418 342.621 274.453 341.344 276.354 337.118C295.146 295.352 233.423 189.019 284.64 143.372Z" fill="url(#paint1_linear)"/>
<path d="M313.112 170.419C295.72 253.401 392.745 367.249 359.544 443.118C336.479 495.824 441.196 616.496 422.255 648.975" stroke="url(#paint2_linear)" stroke-width="5"/>
<path d="M211.773 138.787C132.15 236.416 195.556 405.169 145.367 495.772C110.501 558.714 186.854 536.466 128.502 675.305" stroke="url(#paint3_linear)" stroke-width="5"/>
<path d="M201.229 126.285C141.097 154.508 187.238 249.615 113.851 267.35C62.8691 279.67 113.772 381.352 77.325 386.739" stroke="url(#paint4_linear)" stroke-width="5"/>
<path d="M174.977 110.896C169.882 119.424 189.158 151.984 233.198 172.488C277.238 192.992 347.183 190.15 352.278 181.623C357.372 173.095 335.389 143.424 291.349 122.92C247.31 102.416 180.072 102.369 174.977 110.896Z" fill="url(#paint5_radial)" fill-opacity="0.8"/>
<path d="M338.81 151.94C302.515 157.429 299.306 149.593 266.139 134.929C274.546 245.201 281.272 288.591 263.94 356.986C262.321 363.374 267.089 369.684 273.68 369.661C275.878 369.653 278.052 368.928 279.693 367.465C309.957 340.467 270.264 306.931 280.922 238.265C281.484 234.64 287.409 234.605 288.236 238.179C294.682 266.016 303.465 280.552 302.472 313.206C302.205 321.988 309.79 329.269 318.456 327.824C324.925 326.746 329.752 321.043 328.728 314.565C322.688 276.363 291.994 262.311 305.593 228.374C305.77 227.931 306.007 227.493 306.276 227.099C308.64 223.636 313.576 222.99 316.495 225.999C325.829 235.618 322.198 238.5 323.149 261.087C323.333 265.435 326.634 268.998 330.935 269.666C359.867 272.186 322.154 210.527 338.81 151.94Z" fill="url(#paint6_linear)"/>
<path d="M338.202 169.189C337.566 164.899 333.029 161.738 328.687 162.599C325.263 163.279 323.136 166.283 323.691 169.664C336.051 244.984 353.307 287.799 386.194 358.975C387.72 362.276 391.527 364.248 395.045 363.55C399.304 362.705 401.346 358.375 399.375 354.42C361.065 277.542 347.921 234.814 338.202 169.189Z" fill="url(#paint7_linear)"/>
<path d="M355.769 170.935C356.677 173.65 360.07 175.143 362.805 173.644C364.715 172.597 365.607 170.434 364.773 168.616C349.434 135.214 298.7 105.072 248.125 97.4026C246.047 97.0875 244.044 98.5246 243.737 100.506C243.456 102.314 244.69 103.936 246.571 104.28C293.462 112.834 346.421 142.988 355.769 170.935Z" fill="#76DFCF" fill-opacity="0.5"/>
<path d="M211.676 119.109C213.985 114.954 211.592 109.766 206.928 108.92C203.89 108.368 200.81 109.937 199.426 112.706C141.344 228.939 128.04 295.345 140.541 418.631C140.861 421.781 143.232 424.366 146.356 424.933C151.062 425.787 155.321 421.868 154.935 417.113C144.084 283.323 157.651 216.319 211.676 119.109Z" fill="url(#paint8_linear)"/>
<ellipse rx="7.442" ry="6.29355" transform="matrix(-0.988169 -0.153369 -0.153369 0.988169 400.449 371.044)" fill="#37C3A4"/>
<rect width="14.7713" height="35.6158" rx="7.38565" transform="matrix(-0.999032 0.0439969 0.119223 0.992868 156.039 427.37)" fill="#34C2A3"/>
<path d="M260.385 142.202C339.841 362.758 176.575 413.709 291.196 589.737" stroke="#89E4C4" stroke-width="5"/>
</g>
<circle cx="339.5" cy="284.5" r="7.5" fill="#14BCAA"/>
<circle cx="152.5" cy="180.5" r="7.5" fill="white"/>
<circle cx="121.5" cy="356.5" r="7.5" fill="#14BCAA"/>
<circle cx="220.5" cy="549.5" r="7.5" fill="#349D92"/>
<circle cx="370" cy="214" r="4" fill="white"/>
<circle cx="384" cy="467" r="4" fill="#01B29F"/>
<circle cx="212" cy="222" r="4" fill="white"/>
<defs>
<filter id="filter0_d" x="24.6996" y="7.71646" width="407.406" height="723.521" filterUnits="userSpaceOnUse" color-interpolation-filters="sRGB">
<feFlood flood-opacity="0" result="BackgroundImageFix"/>
<feColorMatrix in="SourceAlpha" type="matrix" values="0 0 0 0 0 0 0 0 0 0 0 0 0 0 0 0 0 0 127 0"/>
<feOffset dx="5" dy="5"/>
<feColorMatrix type="matrix" values="0 0 0 0 0.987833 0 0 0 0 0.391667 0 0 0 0 1 0 0 0 0.86 0"/>
<feBlend mode="normal" in2="BackgroundImageFix" result="effect1_dropShadow"/>
<feBlend mode="normal" in="SourceGraphic" in2="effect1_dropShadow" result="shape"/>
</filter>
<radialGradient id="paint0_radial" cx="0" cy="0" r="1" gradientUnits="userSpaceOnUse" gradientTransform="translate(261.393 138.651) rotate(-69.5474) scale(122.727 234.859)">
<stop stop-color="#76F0C8"/>
<stop offset="0.838542" stop-color="#003F8B"/>
</radialGradient>
<linearGradient id="paint1_linear" x1="208.896" y1="388.108" x2="209.066" y2="112.544" gradientUnits="userSpaceOnUse">
<stop offset="0.474557" stop-color="#3ABFB1"/>
<stop offset="1" stop-color="#0C15FE" stop-opacity="0"/>
</linearGradient>
<linearGradient id="paint2_linear" x1="410.118" y1="420.701" x2="348.134" y2="80.6938" gradientUnits="userSpaceOnUse">
<stop stop-color="#00B29F"/>
<stop offset="1" stop-color="#00B29F" stop-opacity="0"/>
</linearGradient>
<linearGradient id="paint3_linear" x1="258.297" y1="458.296" x2="247.332" y2="8.81979" gradientUnits="userSpaceOnUse">
<stop stop-color="#42D5A0"/>
<stop offset="1" stop-color="#00B29F" stop-opacity="0"/>
</linearGradient>
<linearGradient id="paint4_linear" x1="178.914" y1="281.123" x2="242.936" y2="89.7602" gradientUnits="userSpaceOnUse">
<stop stop-color="#00B29F"/>
<stop offset="1" stop-color="#00B29F" stop-opacity="0"/>
</linearGradient>
<radialGradient id="paint5_radial" cx="0" cy="0" r="1" gradientUnits="userSpaceOnUse" gradientTransform="translate(294.654 111.332) rotate(117.314) scale(131.397 358.776)">
<stop stop-color="#BEFECA"/>
<stop offset="1" stop-color="#BEFECA" stop-opacity="0"/>
</radialGradient>
<linearGradient id="paint6_linear" x1="277.51" y1="299.957" x2="280.393" y2="143.901" gradientUnits="userSpaceOnUse">
<stop offset="0.515472" stop-color="#26E9D4"/>
<stop offset="1" stop-color="#02D1FF" stop-opacity="0"/>
</linearGradient>
<linearGradient id="paint7_linear" x1="409.658" y1="371.75" x2="334.328" y2="79.0947" gradientUnits="userSpaceOnUse">
<stop stop-color="#29BF9E"/>
<stop offset="1" stop-color="#29BF9E" stop-opacity="0"/>
</linearGradient>
<linearGradient id="paint8_linear" x1="177.718" y1="447.58" x2="221.901" y2="-8.82518" gradientUnits="userSpaceOnUse">
<stop stop-color="#29BF9E"/>
<stop offset="1" stop-color="#29BF9E" stop-opacity="0"/>
</linearGradient>
</defs>
</svg>
