<svg width="465" height="276" viewBox="0 0 465 276" fill="none" xmlns="http://www.w3.org/2000/svg">
<g clip-path="url(#clip0)">
<path d="M119.594 94.3169C124.91 93.1699 130.478 93.3018 135.731 94.7049C186.636 108.3 208.229 132.623 210.816 152.747C211.931 161.419 205.615 168.67 198.275 173.421C194.096 176.125 189.68 178.467 184.997 180.152C151.856 192.07 128.613 189.811 86.4591 176.09L75.0118 170.532C61.6867 164.062 49.8837 151.445 54.0182 137.221C59.2115 119.354 77.9912 103.295 119.594 94.3169Z" fill="url(#paint0_radial)"/>
<path d="M95.5921 151.442L151.475 150.036C102.798 232.02 93.0051 295.441 96.6615 387.218C76.1905 345.924 75.6535 306.799 32.6278 346.52C20.5388 286.139 84.7015 243.38 95.5921 151.442Z" fill="#98F1B1" fill-opacity="0.8"/>
<path d="M184.414 163.615L158.605 151.624C158.149 289.796 141.993 384.417 108.502 513.494C134.249 463.704 147.946 408.228 158.752 483.732C186.278 403.073 159.119 299.327 184.414 163.615Z" fill="#C3ABC7" fill-opacity="0.9"/>
<path d="M121.202 156.743C134.723 161.973 164.708 160.598 178.148 159.929C175.23 220.846 116.851 299.47 103.11 375.89C101.999 382.064 95.5023 385.876 89.712 383.462C87.7183 382.631 86.034 381.131 85.1094 379.178C68.0833 343.235 112.211 341.012 128.2 271.824C130.234 263.025 118.577 257.495 113.501 264.964C105.328 276.991 101.419 286.72 94.7052 310.434C92.7039 317.502 84.1651 320.349 78.4016 315.794C74.8178 312.961 73.5103 308.057 75.4802 303.936C92.009 269.354 109.183 274.266 111.098 241.879C111.295 238.554 108.58 235.811 105.249 235.793C103.743 235.785 102.258 236.329 101.216 237.417C92.011 247.037 98.6115 253.792 94.7807 263.427C93.8451 265.781 91.3243 266.969 88.796 266.823C85.9844 266.659 83.4114 264.828 83.275 262.015C81.9885 235.485 140.343 192.485 121.202 156.743Z" fill="url(#paint1_linear)"/>
<path d="M99.0005 164.862C90.6597 213.102 10.2328 252.358 12.4791 300.316C14.0396 333.633 -72.2789 374.824 -68.6193 396.408" stroke="url(#paint2_linear)" stroke-width="5"/>
<path d="M163.792 170.524C187.739 240.457 114.411 316.556 123.108 376.176C129.15 417.595 90.4764 388.692 93.2141 475.92" stroke="url(#paint3_linear)" stroke-width="5"/>
<path d="M172.561 166.188C200.663 194.672 153.398 235.243 191.372 261.071C217.753 279.015 166.323 322.04 185.936 333.039" stroke="url(#paint4_linear)" stroke-width="5"/>
<path d="M190.929 163.809C191.959 169.503 173.792 182.617 144.148 183.77C114.503 184.922 75.2151 167.822 74.1848 162.128C73.1544 156.434 92.2302 145.467 121.875 144.315C151.519 143.162 189.898 158.115 190.929 163.809Z" fill="url(#paint5_radial)" fill-opacity="0.8"/>
<path d="M88.4037 149.258C107.907 160.277 111.463 156.803 133.617 156.351C104.668 213.198 91.27 234.954 86.059 275.06C85.535 279.093 81.3793 281.641 77.5954 280.15C76.3731 279.668 75.3123 278.805 74.693 277.646C63.3795 256.478 93.4043 247.386 102.436 208.306C102.937 206.138 99.6431 204.76 98.3331 206.559C88.5658 219.973 80.3783 225.789 73.7668 243.242C71.8903 248.196 66.0585 250.605 61.4844 247.933C57.9514 245.87 56.4515 241.433 58.6542 237.985C70.5446 219.372 90.7941 218.523 90.5352 197.566C90.5314 197.261 90.4892 196.946 90.4161 196.65C89.824 194.252 87.2965 192.825 85.0073 193.754C77.4194 196.833 78.8529 199.117 73.4219 210.871C72.2987 213.302 69.5932 214.557 66.984 213.954C49.9191 208.857 85.0125 184.292 88.4037 149.258Z" fill="url(#paint6_linear)"/>
<path d="M84.8374 158.807C86.2023 156.562 89.5641 155.795 91.8594 157.227C93.6519 158.346 94.1683 160.454 93.0713 162.194C69.4872 199.615 50.2334 218.655 15.8874 249.308C14.2336 250.784 11.5996 251.031 9.75563 249.881C7.50512 248.476 7.36312 245.627 9.44443 243.878C48.0311 211.457 64.9259 191.565 84.8374 158.807Z" fill="url(#paint7_linear)"/>
<path d="M74.4539 155.739C73.373 156.967 71.2419 157.016 70.0311 155.628C69.1271 154.592 69.0866 153.13 70.0001 152.316C86.1516 137.926 121.693 133.143 152.198 140.309C153.42 140.596 154.231 141.843 153.966 142.99C153.734 143.996 152.75 144.574 151.675 144.352C122.937 138.421 85.8542 142.777 74.4539 155.739Z" fill="#64BAAC" fill-opacity="0.5"/>
<path d="M168.235 160.407C167.81 157.505 170.346 155.061 173.207 155.65C175.024 156.024 176.402 157.574 176.589 159.427C184.129 234.408 177.105 272.869 142.891 335.917C141.984 337.59 140.08 338.482 138.209 338.097C135.319 337.502 133.794 334.26 135.14 331.647C170.557 262.885 177.567 224.081 168.235 160.407Z" fill="url(#paint8_linear)"/>
<ellipse rx="4.56498" ry="3.63333" transform="matrix(0.97432 0.225169 -0.22517 0.974319 5.00146 252.67)" fill="#2EBD9E"/>
<path d="M135.3 161.521C41.4109 261.741 123.363 325.35 19.2085 393.931" stroke="#6EBA9F" stroke-width="5"/>
<path d="M359.393 4.7023C354.436 2.46835 348.953 1.47058 343.526 1.81686C300.128 4.58619 278.561 20.7867 273.052 36.7713C270.654 43.7289 274.624 50.782 279.863 55.9496C282.846 58.8912 286.086 61.5743 289.659 63.7613C314.941 79.2356 334.483 81.3374 371.566 77.2175L378.361 75.4969C392.72 71.8607 407.276 61.5874 404.43 47.0505C401.629 32.7446 388.754 17.9327 359.393 4.7023Z" fill="url(#paint9_radial)"/>
<path d="M368.242 55.3455L322.423 44.6572C348.562 120.528 345.818 174.47 327.153 249.488C351.067 218.944 358.182 186.79 386.87 226.865C407.13 179.161 361.539 132.978 368.242 55.3455Z" fill="#98F1B1" fill-opacity="0.8"/>
<path d="M292.959 50.2316L316.276 44.7501C293.089 158.708 290.27 239.449 295.861 351.545C283.131 306.118 281.302 258.059 259.52 318.446C250.588 247.273 290.665 166.398 292.959 50.2316Z" fill="#C3ABC7" fill-opacity="0.9"/>
<path d="M346.23 55.3477C334.195 57.3526 309.715 51.106 298.753 48.2629C290.77 98.9676 325.477 173.724 323.771 239.052C323.633 244.331 328.338 248.58 333.522 247.578C335.307 247.233 336.951 246.283 338.046 244.832C358.208 218.112 322.217 208.754 320.837 149.003C320.662 141.404 331.212 138.834 334.122 145.856C338.807 157.162 340.37 165.847 341.86 186.537C342.304 192.704 348.856 196.507 354.383 193.735C357.82 192.011 359.734 188.193 358.813 184.46C351.087 153.139 336.095 154.259 340.039 127.239C340.444 124.465 343.15 122.668 345.898 123.22C347.141 123.47 348.272 124.172 348.945 125.247C354.891 134.745 348.299 139.187 349.814 147.782C350.183 149.881 352.058 151.291 354.167 151.601C356.512 151.946 358.945 150.875 359.537 148.58C365.122 126.934 324.359 81.5419 346.23 55.3477Z" fill="url(#paint10_linear)"/>
<path d="M363.144 65.8247C361.792 107.006 421.385 153.076 411.355 192.22C404.388 219.413 468.507 268.082 461.81 285.247" stroke="url(#paint11_linear)" stroke-width="5"/>
<path d="M308.778 59.4421C277.115 112.997 324.574 188.222 307.239 235.877C295.196 268.984 332 251.757 314.869 323.183" stroke="url(#paint12_linear)" stroke-width="5"/>
<path d="M302.29 54.374C274.271 73.0581 306.308 114.556 270.605 129.368C245.802 139.658 280.853 183.89 262.813 189.61" stroke="url(#paint13_linear)" stroke-width="5"/>
<path d="M287.557 49.2803C285.737 53.7975 298.473 67.7045 322.71 73.7095C346.946 79.7145 382.243 72.3204 384.063 67.8031C385.884 63.2859 372.032 50.9941 347.795 44.9891C323.559 38.9841 289.377 44.763 287.557 49.2803Z" fill="url(#paint14_radial)" fill-opacity="0.8"/>
<path d="M374.539 54.7713C356.585 60.5275 354.247 57.0574 336.064 52.9069C350.23 104.696 357.563 124.913 355.018 158.856C354.762 162.27 357.753 165.078 361.126 164.494C362.216 164.306 363.237 163.775 363.945 162.926C376.879 147.408 353.684 134.795 352.904 101.045C352.861 99.1728 355.811 98.5989 356.584 100.305C362.346 113.026 368.103 119.216 370.575 134.729C371.277 139.131 375.673 142.111 379.898 140.689C383.162 139.591 385.155 136.19 383.928 132.972C377.302 115.604 360.757 111.452 364.544 94.2228C364.599 93.9723 364.688 93.7199 364.798 93.4886C365.695 91.6127 368.022 90.8677 369.75 92.0237C375.479 95.855 373.908 97.4935 376.38 108.107C376.891 110.302 378.907 111.798 381.16 111.746C396.094 110.455 371.36 84.2239 374.539 54.7713Z" fill="url(#paint15_linear)"/>
<path d="M375.85 63.2497C375.108 61.1661 372.468 59.9609 370.332 60.7501C368.664 61.3665 367.878 63.0155 368.486 64.6373C381.542 99.5007 394.164 118.477 417.245 149.598C418.356 151.096 420.485 151.75 422.201 151.115C424.295 150.342 424.898 148.017 423.481 146.221C397.207 112.92 386.674 93.6443 375.85 63.2497Z" fill="url(#paint16_linear)"/>
<path d="M384.931 62.4913C385.612 63.6885 387.36 64.0919 388.595 63.1544C389.517 62.4545 389.799 61.2569 389.185 60.4303C378.327 45.8152 349.85 35.8123 323.486 36.517C322.43 36.5452 321.549 37.4344 321.572 38.4247C321.592 39.2936 322.304 39.938 323.228 39.9385C347.925 39.9502 377.745 49.8648 384.931 62.4913Z" fill="#64BAAC" fill-opacity="0.5"/>
<path d="M306.841 50.3464C307.686 48.0272 306.013 45.5804 303.555 45.5779C301.994 45.5763 300.593 46.6191 300.123 48.1143C281.122 108.628 280.352 141.524 297.799 199.323C298.262 200.856 299.679 201.916 301.287 201.918C303.77 201.92 305.58 199.508 304.917 197.125C287.452 134.413 288.291 101.234 306.841 50.3464Z" fill="url(#paint17_linear)"/>
<ellipse rx="3.84211" ry="3.05799" transform="matrix(-0.999733 0.0230887 0.0230888 0.999733 425.644 154.225)" fill="#2EBD9E"/>
<rect width="7.60918" height="17.3867" rx="3.80459" transform="matrix(-0.978093 0.20817 0.307686 0.951488 306.491 202.248)" fill="#34C2A3"/>
<path d="M333.796 56.8807C394.088 155.492 315.697 193.943 389.845 268.228" stroke="#6EBA9F" stroke-width="5"/>
</g>
<defs>
<radialGradient id="paint0_radial" cx="0" cy="0" r="1" gradientUnits="userSpaceOnUse" gradientTransform="translate(131.71 158.521) rotate(-89.9526) scale(71.2121 150.897)">
<stop stop-color="#5FC0A0"/>
<stop offset="0.838542" stop-color="#042E60"/>
</radialGradient>
<linearGradient id="paint1_linear" x1="110.554" y1="304.463" x2="168.394" y2="156.036" gradientUnits="userSpaceOnUse">
<stop offset="0.474557" stop-color="#3ABFB1"/>
<stop offset="1" stop-color="#0C15FE" stop-opacity="0"/>
</linearGradient>
<linearGradient id="paint2_linear" x1="-11.4466" y1="277.065" x2="92.2994" y2="105.186" gradientUnits="userSpaceOnUse">
<stop stop-color="#028779"/>
<stop offset="1" stop-color="#00B29F" stop-opacity="0"/>
</linearGradient>
<linearGradient id="paint3_linear" x1="66.914" y1="330.984" x2="167.022" y2="90.9948" gradientUnits="userSpaceOnUse">
<stop stop-color="#42D5A0"/>
<stop offset="1" stop-color="#00B29F" stop-opacity="0"/>
</linearGradient>
<linearGradient id="paint4_linear" x1="151.213" y1="253.943" x2="159.142" y2="137.529" gradientUnits="userSpaceOnUse">
<stop stop-color="#028779"/>
<stop offset="1" stop-color="#00B29F" stop-opacity="0"/>
</linearGradient>
<radialGradient id="paint5_radial" cx="0" cy="0" r="1" gradientUnits="userSpaceOnUse" gradientTransform="translate(122.54 137.383) rotate(83.4502) scale(76.347 218.662)">
<stop stop-color="#8EC498"/>
<stop offset="1" stop-color="#BEFECA" stop-opacity="0"/>
</radialGradient>
<linearGradient id="paint6_linear" x1="90.8036" y1="242.049" x2="122.135" y2="157.463" gradientUnits="userSpaceOnUse">
<stop offset="0.515472" stop-color="#1EBBAA"/>
<stop offset="1" stop-color="#02D1FF" stop-opacity="0"/>
</linearGradient>
<linearGradient id="paint7_linear" x1="-0.409117" y1="250.996" x2="100.649" y2="106.86" gradientUnits="userSpaceOnUse">
<stop stop-color="#29BF9E"/>
<stop offset="1" stop-color="#29BF9E" stop-opacity="0"/>
</linearGradient>
<linearGradient id="paint8_linear" x1="115.256" y1="343.204" x2="188.734" y2="88.8357" gradientUnits="userSpaceOnUse">
<stop stop-color="#1D846D"/>
<stop offset="1" stop-color="#29BF9E" stop-opacity="0"/>
</linearGradient>
<radialGradient id="paint9_radial" cx="0" cy="0" r="1" gradientUnits="userSpaceOnUse" gradientTransform="translate(337.267 55.02) rotate(-78.3575) scale(59.9357 127.003)">
<stop stop-color="#5FC0A0"/>
<stop offset="0.838542" stop-color="#042E60"/>
</radialGradient>
<linearGradient id="paint10_linear" x1="329.815" y1="178.913" x2="307.456" y2="46.7172" gradientUnits="userSpaceOnUse">
<stop offset="0.474557" stop-color="#3ABFB1"/>
<stop offset="1" stop-color="#0C15FE" stop-opacity="0"/>
</linearGradient>
<linearGradient id="paint11_linear" x1="435.04" y1="177.137" x2="378.844" y2="17.7833" gradientUnits="userSpaceOnUse">
<stop stop-color="#028779"/>
<stop offset="1" stop-color="#00B29F" stop-opacity="0"/>
</linearGradient>
<linearGradient id="paint12_linear" x1="361.261" y1="208.213" x2="319.677" y2="-6.65593" gradientUnits="userSpaceOnUse">
<stop stop-color="#42D5A0"/>
<stop offset="1" stop-color="#00B29F" stop-opacity="0"/>
</linearGradient>
<linearGradient id="paint13_linear" x1="304.92" y1="130.341" x2="318.237" y2="33.0418" gradientUnits="userSpaceOnUse">
<stop stop-color="#028779"/>
<stop offset="1" stop-color="#00B29F" stop-opacity="0"/>
</linearGradient>
<radialGradient id="paint14_radial" cx="0" cy="0" r="1" gradientUnits="userSpaceOnUse" gradientTransform="translate(348.429 39.1628) rotate(108.24) scale(64.2575 184.037)">
<stop stop-color="#8EC498"/>
<stop offset="1" stop-color="#BEFECA" stop-opacity="0"/>
</radialGradient>
<linearGradient id="paint15_linear" x1="356.737" y1="130.84" x2="345.339" y2="55.7819" gradientUnits="userSpaceOnUse">
<stop offset="0.515472" stop-color="#1EBBAA"/>
<stop offset="1" stop-color="#02D1FF" stop-opacity="0"/>
</linearGradient>
<linearGradient id="paint16_linear" x1="430.388" y1="153.769" x2="371.677" y2="17.7385" gradientUnits="userSpaceOnUse">
<stop stop-color="#29BF9E"/>
<stop offset="1" stop-color="#29BF9E" stop-opacity="0"/>
</linearGradient>
<linearGradient id="paint17_linear" x1="319.334" y1="210.041" x2="302.151" y2="-12.1377" gradientUnits="userSpaceOnUse">
<stop stop-color="#1D846D"/>
<stop offset="1" stop-color="#29BF9E" stop-opacity="0"/>
</linearGradient>
<clipPath id="clip0">
<rect width="465" height="276" fill="white"/>
</clipPath>
</defs>
</svg>
