<svg width="354" height="656" viewBox="0 0 354 656" fill="none" xmlns="http://www.w3.org/2000/svg">
<path d="M175.41 51.1687C180.792 50.3953 186.304 50.8593 191.481 52.5223C264.799 76.0731 293.451 113.244 294.56 142.152C294.994 153.468 286.325 162.305 276.467 167.879L274.602 168.933C268.99 172.106 263.096 174.787 256.916 176.62C209.299 190.742 177.035 185.714 119.091 162.94L95.4942 149.684C82.5798 142.428 72.1926 129.58 74.7348 114.987C79.7421 86.2429 107.179 60.972 175.41 51.1687Z" fill="url(#paint0_radial)"/>
<path d="M133.888 129.325L211.947 132.033C137.207 242.312 118.251 329.95 115.684 458.26C90.5821 398.955 93.1013 344.341 29.7737 396.148C17.9565 310.923 111.018 256.645 133.888 129.325Z" fill="#98F1B1" fill-opacity="0.8"/>
<path d="M256.754 153.723L221.758 134.843C209.581 327.517 179.143 458.14 121.65 635.371C161.719 568.078 185.458 491.847 194.222 598.057C239.352 487.859 210.137 340.892 256.754 153.723Z" fill="#C3ABC7" fill-opacity="0.9"/>
<path d="M169.163 138.858C187.585 147.282 229.522 147.869 248.322 148.059C239.163 232.778 151.173 337.561 125.624 442.999C123.56 451.518 114.179 456.291 106.305 452.441C103.594 451.115 101.37 448.882 100.244 446.082C79.4991 394.529 141.231 395.114 169.312 299.95C172.883 287.847 157.087 279.161 149.383 289.155C136.98 305.246 130.715 318.489 119.37 351.003C115.988 360.695 103.841 363.952 96.1826 357.117C91.4208 352.867 90.0068 345.918 93.0986 340.334C119.041 293.482 142.583 301.767 147.96 256.756C148.512 252.135 144.955 248.083 140.31 247.779C138.21 247.642 136.093 248.276 134.55 249.707C120.907 262.356 129.549 272.329 123.401 285.448C121.9 288.652 118.285 290.099 114.771 289.683C110.863 289.221 107.427 286.451 107.472 282.516C107.894 245.407 192.874 190.308 169.163 138.858Z" fill="url(#paint1_linear)"/>
<path d="M137.52 148.327C121.858 214.913 6.40422 262.945 5.53117 330.022C4.92465 376.621 -118.908 426.861 -115.606 457.27" stroke="url(#paint2_linear)" stroke-width="5"/>
<path d="M227.415 161.636C254.973 261.175 146.343 361.187 153.493 445.068C158.46 503.341 106.935 459.799 103.467 581.687" stroke="url(#paint3_linear)" stroke-width="5"/>
<path d="M240.007 156.322C276.822 198.397 207.511 251.034 258.318 290.23C293.614 317.46 218.289 373.173 244.725 390.152" stroke="url(#paint4_linear)" stroke-width="5"/>
<path d="M265.824 154.537C266.785 162.564 240.352 179.338 198.91 178.469C157.467 177.6 104.099 150.468 103.137 142.44C102.176 134.413 129.698 120.71 171.14 121.579C212.583 122.448 264.863 146.509 265.824 154.537Z" fill="url(#paint5_radial)" fill-opacity="0.8"/>
<path d="M124.044 125.678C150.326 142.677 155.576 138.128 186.513 139.348C141.388 216.216 120.884 245.441 110.266 300.943C109.198 306.524 103.189 309.731 98.0358 307.335C96.3713 306.561 94.9638 305.269 94.1969 303.601C80.1858 273.131 122.822 262.959 138.683 209.207C139.563 206.225 135.084 204.028 133.107 206.428C118.363 224.32 106.458 231.748 95.7788 255.539C92.7479 262.291 84.4129 265.164 78.2564 261.056C73.5011 257.882 71.7798 251.569 75.14 246.944C93.2787 221.977 121.592 222.485 122.982 193.233C123.002 192.808 122.969 192.365 122.892 191.946C122.267 188.552 118.861 186.35 115.59 187.455C104.75 191.115 106.559 194.421 98.0019 210.361C96.2322 213.658 92.354 215.182 88.7652 214.123C65.39 205.588 116.388 174.258 124.044 125.678Z" fill="url(#paint6_linear)"/>
<path d="M118.272 138.7C120.364 135.682 125.116 134.893 128.198 137.083C130.605 138.793 131.149 141.775 129.473 144.112C93.4542 194.333 65.0097 219.281 14.5456 259.165C12.1157 261.085 8.42121 261.21 5.94555 259.451C2.92401 257.304 2.96399 253.318 6.01294 251.053C62.5394 209.058 87.7648 182.725 118.272 138.7Z" fill="url(#paint7_linear)"/>
<path d="M104.047 133.552C102.436 135.176 99.4599 135.066 97.8871 133.029C96.7129 131.508 96.7784 129.466 98.1205 128.407C121.85 109.685 171.819 105.983 213.768 118.527C215.448 119.029 216.475 120.836 216.01 122.413C215.602 123.797 214.181 124.521 212.7 124.122C173.114 113.448 121.03 116.427 104.047 133.552Z" fill="#64BAAC" fill-opacity="0.5"/>
<path d="M234.457 147.897C234.106 143.814 237.848 140.617 241.788 141.677C244.291 142.351 246.084 144.628 246.189 147.228C250.443 252.437 237.434 305.492 184.448 390.571C183.042 392.828 180.313 393.913 177.735 393.219C173.754 392.148 171.898 387.499 173.993 383.967C229.134 291.021 242.154 237.484 234.457 147.897Z" fill="url(#paint8_linear)"/>
<ellipse cx="-0.918314" cy="262.945" rx="6.37835" ry="5.07661" transform="rotate(16.4403 -0.918314 262.945)" fill="#2EBD9E"/>
<rect width="12.6321" height="28.8639" rx="6.31605" transform="matrix(0.889955 0.456048 -0.545182 0.838318 169.252 391.495)" fill="#34C2A3"/>
<path d="M188.428 146.699C49.1055 278.637 158.094 374.201 7.09699 461.152" stroke="#6EBA9F" stroke-width="5"/>
<defs>
<radialGradient id="paint0_radial" cx="0" cy="0" r="1" gradientUnits="userSpaceOnUse" gradientTransform="translate(183.671 142.215) rotate(-86.5252) scale(99.5 210.839)">
<stop stop-color="#5FC0A0"/>
<stop offset="0.838542" stop-color="#042E60"/>
</radialGradient>
<linearGradient id="paint1_linear" x1="141.974" y1="343.999" x2="235.043" y2="141.814" gradientUnits="userSpaceOnUse">
<stop offset="0.474557" stop-color="#3ABFB1"/>
<stop offset="1" stop-color="#0C15FE" stop-opacity="0"/>
</linearGradient>
<linearGradient id="paint2_linear" x1="-25.8967" y1="295.595" x2="133.159" y2="64.5358" gradientUnits="userSpaceOnUse">
<stop stop-color="#028779"/>
<stop offset="1" stop-color="#00B29F" stop-opacity="0"/>
</linearGradient>
<linearGradient id="paint3_linear" x1="78.8917" y1="377.344" x2="238.563" y2="50.9838" gradientUnits="userSpaceOnUse">
<stop stop-color="#42D5A0"/>
<stop offset="1" stop-color="#00B29F" stop-opacity="0"/>
</linearGradient>
<linearGradient id="paint4_linear" x1="202.902" y1="276.933" x2="223.685" y2="115.229" gradientUnits="userSpaceOnUse">
<stop stop-color="#028779"/>
<stop offset="1" stop-color="#00B29F" stop-opacity="0"/>
</linearGradient>
<radialGradient id="paint5_radial" cx="0" cy="0" r="1" gradientUnits="userSpaceOnUse" gradientTransform="translate(172.647 111.967) rotate(86.8776) scale(106.675 305.522)">
<stop stop-color="#8EC498"/>
<stop offset="1" stop-color="#BEFECA" stop-opacity="0"/>
</radialGradient>
<linearGradient id="paint6_linear" x1="119.64" y1="255.298" x2="170.405" y2="139.94" gradientUnits="userSpaceOnUse">
<stop offset="0.515472" stop-color="#1EBBAA"/>
<stop offset="1" stop-color="#02D1FF" stop-opacity="0"/>
</linearGradient>
<linearGradient id="paint7_linear" x1="-8.32479" y1="260.158" x2="144.665" y2="67.5673" gradientUnits="userSpaceOnUse">
<stop stop-color="#29BF9E"/>
<stop offset="1" stop-color="#29BF9E" stop-opacity="0"/>
</linearGradient>
<linearGradient id="paint8_linear" x1="145.295" y1="398.425" x2="269.026" y2="49.7863" gradientUnits="userSpaceOnUse">
<stop stop-color="#1D846D"/>
<stop offset="1" stop-color="#29BF9E" stop-opacity="0"/>
</linearGradient>
</defs>
</svg>
