<svg width="502" height="526" viewBox="0 0 502 526" fill="none" xmlns="http://www.w3.org/2000/svg">
<path d="M154.649 95.3169C159.964 94.1699 165.532 94.3018 170.786 95.7049C221.69 109.3 243.284 133.623 245.871 153.747C246.986 162.419 240.67 169.67 233.329 174.421C229.151 177.125 224.735 179.467 220.051 181.152C186.911 193.07 163.668 190.811 121.514 177.09L110.066 171.532C96.7414 165.062 84.9384 152.445 89.0729 138.221C94.2662 120.354 113.046 104.295 154.649 95.3169Z" fill="url(#paint0_radial)"/>
<path d="M130.647 152.442L186.53 151.036C137.853 233.02 128.06 296.441 131.716 388.218C111.245 346.924 110.708 307.799 67.6825 347.52C55.5935 287.139 119.756 244.38 130.647 152.442Z" fill="#98F1B1" fill-opacity="0.8"/>
<path d="M219.469 164.615L193.659 152.624C193.204 290.795 177.047 385.417 143.556 514.494C169.303 464.704 183.001 409.228 193.807 484.732C221.333 404.073 194.173 300.327 219.469 164.615Z" fill="#C3ABC7" fill-opacity="0.9"/>
<path d="M156.256 157.743C169.777 162.973 199.763 161.599 213.202 160.93C210.284 221.846 151.905 300.47 138.164 376.89C137.054 383.065 130.557 386.876 124.767 384.462C122.773 383.631 121.089 382.131 120.164 380.179C103.138 344.236 147.265 342.012 163.255 272.824C165.288 264.025 153.632 258.495 148.556 265.965C140.383 277.991 136.474 287.72 129.76 311.434C127.758 318.503 119.22 321.35 113.456 316.794C109.872 313.961 108.565 309.058 110.535 304.936C127.064 270.354 144.237 275.266 146.153 242.879C146.35 239.554 143.635 236.811 140.304 236.793C138.797 236.785 137.312 237.329 136.271 238.417C127.066 248.037 133.666 254.792 129.835 264.428C128.9 266.781 126.379 267.97 123.851 267.823C121.039 267.66 118.466 265.828 118.33 263.015C117.043 236.486 175.397 193.485 156.256 157.743Z" fill="url(#paint1_linear)"/>
<path d="M134.055 165.862C125.714 214.102 45.2875 253.358 47.5338 301.316C49.0943 334.633 -37.2242 375.824 -33.5646 397.408" stroke="url(#paint2_linear)" stroke-width="5"/>
<path d="M198.847 171.524C222.794 241.457 149.466 317.556 158.163 377.176C164.205 418.595 125.531 389.692 128.269 476.92" stroke="url(#paint3_linear)" stroke-width="5"/>
<path d="M207.616 167.188C235.717 195.672 188.453 236.243 226.427 262.071C252.808 280.015 201.378 323.04 220.991 334.039" stroke="url(#paint4_linear)" stroke-width="5"/>
<path d="M225.983 164.808C227.014 170.502 208.847 183.617 179.203 184.769C149.558 185.922 110.27 168.821 109.239 163.127C108.209 157.433 127.285 146.467 156.929 145.314C186.574 144.162 224.953 159.114 225.983 164.808Z" fill="url(#paint5_radial)" fill-opacity="0.8"/>
<path d="M123.458 150.258C142.962 161.277 146.518 157.803 168.672 157.351C139.723 214.198 126.325 235.954 121.114 276.06C120.59 280.093 116.434 282.641 112.65 281.15C111.428 280.668 110.367 279.805 109.748 278.646C98.4342 257.478 128.459 248.386 137.491 209.306C137.992 207.138 134.698 205.76 133.388 207.559C123.62 220.973 115.433 226.789 108.821 244.242C106.945 249.196 101.113 251.605 96.5391 248.933C93.0061 246.87 91.5062 242.433 93.7089 238.985C105.599 220.372 125.849 219.523 125.59 198.566C125.586 198.261 125.544 197.946 125.471 197.65C124.879 195.252 122.351 193.825 120.062 194.754C112.474 197.833 113.908 200.117 108.477 211.871C107.353 214.302 104.648 215.557 102.039 214.954C84.9738 209.857 120.067 185.292 123.458 150.258Z" fill="url(#paint6_linear)"/>
<path d="M119.892 159.807C121.257 157.562 124.619 156.795 126.914 158.228C128.707 159.346 129.223 161.454 128.126 163.195C104.542 200.615 85.288 219.655 50.942 250.308C49.2882 251.784 46.6542 252.032 44.8103 250.881C42.5598 249.476 42.4177 246.627 44.4991 244.878C83.0858 212.457 99.9806 192.566 119.892 159.807Z" fill="url(#paint7_linear)"/>
<path d="M109.509 156.739C108.428 157.968 106.297 158.016 105.086 156.628C104.182 155.592 104.141 154.131 105.055 153.317C121.206 138.926 156.747 134.143 187.253 141.31C188.475 141.597 189.286 142.843 189.021 143.99C188.788 144.996 187.805 145.575 186.73 145.353C157.992 139.421 120.909 143.778 109.509 156.739Z" fill="#64BAAC" fill-opacity="0.5"/>
<path d="M203.29 161.407C202.865 158.505 205.401 156.061 208.261 156.65C210.078 157.024 211.457 158.575 211.643 160.427C219.184 235.409 212.16 273.869 177.946 336.918C177.038 338.59 175.135 339.482 173.263 339.097C170.374 338.502 168.848 335.26 170.194 332.647C205.611 263.886 212.622 225.081 203.29 161.407Z" fill="url(#paint8_linear)"/>
<ellipse cx="40.0561" cy="253.67" rx="4.56498" ry="3.63333" transform="rotate(13.0129 40.0561 253.67)" fill="#2EBD9E"/>
<rect width="9.04079" height="20.6579" rx="4.52039" transform="matrix(0.915628 0.402028 -0.494089 0.869412 167.129 338.228)" fill="#34C2A3"/>
<path d="M170.355 162.521C76.4655 262.741 158.418 326.35 54.2631 394.93" stroke="#6EBA9F" stroke-width="5"/>
<path d="M394.448 5.70254C389.49 3.4686 384.008 2.47082 378.581 2.81711C335.183 5.58644 313.616 21.787 308.107 37.7715C305.709 44.7291 309.678 51.7823 314.918 56.9498C317.901 59.8914 321.141 62.5745 324.714 64.7615C349.995 80.2358 369.538 82.3376 406.62 78.2177L413.415 76.4971C427.775 72.8609 442.33 62.5877 439.485 48.0508C436.684 33.7448 423.809 18.9329 394.448 5.70254Z" fill="url(#paint9_radial)"/>
<path d="M403.296 56.3455L357.478 45.6572C383.616 121.528 380.872 175.47 362.208 250.488C386.122 219.944 393.237 187.79 421.924 227.865C442.185 180.161 396.594 133.978 403.296 56.3455Z" fill="#98F1B1" fill-opacity="0.8"/>
<path d="M328.014 51.2316L351.331 45.7501C328.144 159.708 325.324 240.449 330.916 352.545C318.186 307.118 316.357 259.059 294.575 319.446C285.643 248.273 325.72 167.398 328.014 51.2316Z" fill="#C3ABC7" fill-opacity="0.9"/>
<path d="M381.285 56.3474C369.249 58.3524 344.77 52.1058 333.807 49.2626C325.824 99.9674 360.532 174.724 358.825 240.052C358.688 245.33 363.392 249.58 368.576 248.578C370.361 248.233 372.005 247.283 373.1 245.832C393.262 219.111 357.272 209.754 355.892 150.003C355.717 142.404 366.267 139.834 369.177 146.856C373.862 158.162 375.425 166.847 376.915 187.537C377.359 193.704 383.911 197.507 389.438 194.735C392.875 193.011 394.788 189.192 393.868 185.46C386.142 154.139 371.15 155.258 375.094 128.239C375.499 125.465 378.204 123.667 380.953 124.22C382.196 124.47 383.327 125.172 384 126.246C389.946 135.745 383.354 140.187 384.868 148.782C385.238 150.881 387.113 152.29 389.222 152.6C391.567 152.945 394 151.874 394.592 149.579C400.176 127.933 359.414 82.5416 381.285 56.3474Z" fill="url(#paint10_linear)"/>
<path d="M398.199 66.8249C396.847 108.006 456.44 154.076 446.41 193.22C439.442 220.413 503.561 269.082 496.864 286.247" stroke="url(#paint11_linear)" stroke-width="5"/>
<path d="M343.832 60.4424C312.17 113.998 359.629 189.222 342.294 236.878C330.251 269.984 367.054 252.758 349.923 324.183" stroke="url(#paint12_linear)" stroke-width="5"/>
<path d="M337.344 55.374C309.326 74.0581 341.363 115.556 305.66 130.368C280.857 140.658 315.908 184.89 297.868 190.61" stroke="url(#paint13_linear)" stroke-width="5"/>
<path d="M322.612 50.2803C320.791 54.7975 333.528 68.7045 357.764 74.7095C382 80.7145 417.298 73.3204 419.118 68.8031C420.938 64.2859 407.086 51.9941 382.85 45.9891C358.614 39.9841 324.432 45.763 322.612 50.2803Z" fill="url(#paint14_radial)" fill-opacity="0.8"/>
<path d="M409.593 55.7713C391.64 61.5275 389.301 58.0574 371.119 53.9069C385.285 105.696 392.617 125.913 390.073 159.856C389.817 163.27 392.808 166.078 396.181 165.494C397.27 165.306 398.292 164.775 399 163.926C411.934 148.408 388.738 135.795 387.959 102.045C387.915 100.173 390.865 99.5989 391.638 101.305C397.401 114.026 403.157 120.216 405.63 135.729C406.332 140.131 410.727 143.111 414.953 141.689C418.217 140.591 420.21 137.19 418.982 133.972C412.356 116.604 395.811 112.452 399.599 95.2228C399.654 94.9723 399.742 94.7199 399.853 94.4886C400.75 92.6127 403.076 91.8677 404.805 93.0237C410.534 96.855 408.963 98.4935 411.434 109.107C411.946 111.302 413.962 112.798 416.215 112.746C431.149 111.455 406.414 85.2239 409.593 55.7713Z" fill="url(#paint15_linear)"/>
<path d="M410.904 64.2499C410.162 62.1664 407.522 60.9611 405.386 61.7504C403.718 62.3668 402.933 64.0158 403.54 65.6375C416.597 100.501 429.219 119.477 452.299 150.598C453.411 152.097 455.539 152.75 457.255 152.116C459.35 151.342 459.953 149.018 458.536 147.221C432.261 113.92 421.729 94.6445 410.904 64.2499Z" fill="url(#paint16_linear)"/>
<path d="M419.986 63.4915C420.667 64.6887 422.415 65.0922 423.65 64.1547C424.571 63.4548 424.854 62.2572 424.24 61.4306C413.382 46.8155 384.905 36.8126 358.54 37.5172C357.484 37.5455 356.603 38.4346 356.626 39.425C356.646 40.2938 357.358 40.9383 358.282 40.9387C382.979 40.9504 412.8 50.865 419.986 63.4915Z" fill="#64BAAC" fill-opacity="0.5"/>
<path d="M341.896 51.3464C342.741 49.0272 341.067 46.5804 338.609 46.5779C337.048 46.5763 335.647 47.6191 335.178 49.1143C316.177 109.628 315.407 142.524 332.854 200.323C333.317 201.856 334.734 202.916 336.342 202.918C338.825 202.92 340.635 200.508 339.971 198.125C322.507 135.413 323.346 102.234 341.896 51.3464Z" fill="url(#paint17_linear)"/>
<ellipse rx="3.84211" ry="3.05799" transform="matrix(-0.999733 0.0230887 0.0230887 0.999733 460.698 155.226)" fill="#2EBD9E"/>
<rect width="7.60918" height="17.3867" rx="3.80459" transform="matrix(-0.978093 0.20817 0.307686 0.951488 341.546 203.248)" fill="#34C2A3"/>
<path d="M368.851 57.8809C429.143 156.493 350.751 194.944 424.9 269.228" stroke="#6EBA9F" stroke-width="5"/>
<defs>
<radialGradient id="paint0_radial" cx="0" cy="0" r="1" gradientUnits="userSpaceOnUse" gradientTransform="translate(166.765 159.521) rotate(-89.9526) scale(71.2121 150.897)">
<stop stop-color="#5FC0A0"/>
<stop offset="0.838542" stop-color="#042E60"/>
</radialGradient>
<linearGradient id="paint1_linear" x1="145.609" y1="305.463" x2="203.448" y2="157.036" gradientUnits="userSpaceOnUse">
<stop offset="0.474557" stop-color="#3ABFB1"/>
<stop offset="1" stop-color="#0C15FE" stop-opacity="0"/>
</linearGradient>
<linearGradient id="paint2_linear" x1="23.608" y1="278.065" x2="127.354" y2="106.186" gradientUnits="userSpaceOnUse">
<stop stop-color="#028779"/>
<stop offset="1" stop-color="#00B29F" stop-opacity="0"/>
</linearGradient>
<linearGradient id="paint3_linear" x1="101.969" y1="331.984" x2="202.077" y2="91.9948" gradientUnits="userSpaceOnUse">
<stop stop-color="#42D5A0"/>
<stop offset="1" stop-color="#00B29F" stop-opacity="0"/>
</linearGradient>
<linearGradient id="paint4_linear" x1="186.268" y1="254.943" x2="194.197" y2="138.529" gradientUnits="userSpaceOnUse">
<stop stop-color="#028779"/>
<stop offset="1" stop-color="#00B29F" stop-opacity="0"/>
</linearGradient>
<radialGradient id="paint5_radial" cx="0" cy="0" r="1" gradientUnits="userSpaceOnUse" gradientTransform="translate(157.594 138.383) rotate(83.4502) scale(76.347 218.662)">
<stop stop-color="#8EC498"/>
<stop offset="1" stop-color="#BEFECA" stop-opacity="0"/>
</radialGradient>
<linearGradient id="paint6_linear" x1="125.858" y1="243.049" x2="157.189" y2="158.463" gradientUnits="userSpaceOnUse">
<stop offset="0.515472" stop-color="#1EBBAA"/>
<stop offset="1" stop-color="#02D1FF" stop-opacity="0"/>
</linearGradient>
<linearGradient id="paint7_linear" x1="34.6455" y1="251.997" x2="135.704" y2="107.86" gradientUnits="userSpaceOnUse">
<stop stop-color="#29BF9E"/>
<stop offset="1" stop-color="#29BF9E" stop-opacity="0"/>
</linearGradient>
<linearGradient id="paint8_linear" x1="150.31" y1="344.204" x2="223.789" y2="89.8359" gradientUnits="userSpaceOnUse">
<stop stop-color="#1D846D"/>
<stop offset="1" stop-color="#29BF9E" stop-opacity="0"/>
</linearGradient>
<radialGradient id="paint9_radial" cx="0" cy="0" r="1" gradientUnits="userSpaceOnUse" gradientTransform="translate(372.321 56.0202) rotate(-78.3575) scale(59.9357 127.003)">
<stop stop-color="#5FC0A0"/>
<stop offset="0.838542" stop-color="#042E60"/>
</radialGradient>
<linearGradient id="paint10_linear" x1="364.87" y1="179.913" x2="342.51" y2="47.717" gradientUnits="userSpaceOnUse">
<stop offset="0.474557" stop-color="#3ABFB1"/>
<stop offset="1" stop-color="#0C15FE" stop-opacity="0"/>
</linearGradient>
<linearGradient id="paint11_linear" x1="470.094" y1="178.137" x2="413.898" y2="18.7835" gradientUnits="userSpaceOnUse">
<stop stop-color="#028779"/>
<stop offset="1" stop-color="#00B29F" stop-opacity="0"/>
</linearGradient>
<linearGradient id="paint12_linear" x1="396.315" y1="209.214" x2="354.732" y2="-5.65569" gradientUnits="userSpaceOnUse">
<stop stop-color="#42D5A0"/>
<stop offset="1" stop-color="#00B29F" stop-opacity="0"/>
</linearGradient>
<linearGradient id="paint13_linear" x1="339.975" y1="131.341" x2="353.292" y2="34.0418" gradientUnits="userSpaceOnUse">
<stop stop-color="#028779"/>
<stop offset="1" stop-color="#00B29F" stop-opacity="0"/>
</linearGradient>
<radialGradient id="paint14_radial" cx="0" cy="0" r="1" gradientUnits="userSpaceOnUse" gradientTransform="translate(383.484 40.1628) rotate(108.24) scale(64.2575 184.037)">
<stop stop-color="#8EC498"/>
<stop offset="1" stop-color="#BEFECA" stop-opacity="0"/>
</radialGradient>
<linearGradient id="paint15_linear" x1="391.792" y1="131.84" x2="380.393" y2="56.7819" gradientUnits="userSpaceOnUse">
<stop offset="0.515472" stop-color="#1EBBAA"/>
<stop offset="1" stop-color="#02D1FF" stop-opacity="0"/>
</linearGradient>
<linearGradient id="paint16_linear" x1="465.443" y1="154.769" x2="406.731" y2="18.7388" gradientUnits="userSpaceOnUse">
<stop stop-color="#29BF9E"/>
<stop offset="1" stop-color="#29BF9E" stop-opacity="0"/>
</linearGradient>
<linearGradient id="paint17_linear" x1="354.389" y1="211.041" x2="337.206" y2="-11.1377" gradientUnits="userSpaceOnUse">
<stop stop-color="#1D846D"/>
<stop offset="1" stop-color="#29BF9E" stop-opacity="0"/>
</linearGradient>
</defs>
</svg>
