<svg width="307" height="728" viewBox="0 0 307 728" fill="none" xmlns="http://www.w3.org/2000/svg">
<g filter="url(#filter0_d)">
<path d="M301.023 36.4825C293.588 31.9974 285.349 28.7494 276.83 27.075C192.913 10.5827 150.964 46.7823 139.354 80.4096C135.913 90.3758 139.069 101.048 144.665 109.984L148.012 115.33C151.475 120.859 155.438 126.085 160.058 130.69C196.633 167.146 227.967 177.966 287.732 181.995C292.812 182.337 297.927 182.219 302.995 181.729L323.972 179.697C339.033 178.238 353.258 170.333 359.503 156.551C374.733 122.933 374.252 80.6605 301.023 36.4825Z" fill="url(#paint0_radial)"/>
<path d="M305.725 141.291L227.565 106.266C248.658 258.594 225.595 360.028 167.028 496.313C219.986 446.077 243.51 387.376 281.205 472.628C333.422 388.666 267.622 286.387 305.725 141.291Z" fill="#9DF8B6" fill-opacity="0.8"/>
<path d="M173.113 107.354L216.566 104.463C136.815 313.153 104.593 465.397 76.8209 679.82C69.4042 589.556 82.3242 497.808 23.1211 605.337C31.1502 467.461 129.899 326.96 173.113 107.354Z" fill="#C9DECF" fill-opacity="0.9"/>
<path d="M266.448 134.208C244.296 134.136 202.718 114.406 184.114 105.484C152.689 199.405 189.799 353.09 164.252 476.67C162.325 485.994 169.407 494.973 178.925 494.743C182.291 494.662 185.579 493.396 187.982 491.038C233.053 446.818 171.931 417.502 189.597 303.679C191.746 289.834 211.788 288.828 214.479 302.579C218.939 325.371 218.74 342.464 214.392 382.352C213.154 393.715 223.988 402.679 234.867 399.174C241.343 397.088 245.795 391.01 245.473 384.214C242.481 321.091 214.786 318.827 231.348 268.095C232.92 263.279 238.321 260.926 243.009 262.847C245.132 263.718 246.889 265.369 247.697 267.518C255.3 287.751 241.661 293.974 241.711 311.156C241.723 314.959 244.505 318.059 248.099 319.304C252.198 320.723 256.911 319.528 258.691 315.572C276.282 276.475 218.504 176.938 266.448 134.208Z" fill="url(#paint1_linear)"/>
<path d="M293.1 159.527C276.819 237.205 367.643 343.777 336.564 414.796C314.973 464.134 412.997 577.093 395.267 607.496" stroke="url(#paint2_linear)" stroke-width="5"/>
<path d="M198.237 129.917C123.704 221.306 183.058 379.273 136.076 464.085C103.438 523.004 174.911 502.178 120.289 632.143" stroke="url(#paint3_linear)" stroke-width="5"/>
<path d="M188.368 118.214C132.079 144.633 175.271 233.661 106.575 250.262C58.851 261.795 106.501 356.979 72.383 362.021" stroke="url(#paint4_linear)" stroke-width="5"/>
<path d="M163.794 103.809C159.025 111.791 177.068 142.271 218.293 161.464C259.518 180.658 324.993 177.997 329.762 170.015C334.531 162.032 313.953 134.257 272.728 115.064C231.503 95.8705 168.563 95.8266 163.794 103.809Z" fill="url(#paint5_radial)" fill-opacity="0.8"/>
<path d="M317.155 142.229C283.18 147.367 280.176 140.032 249.129 126.306C256.999 229.529 263.295 270.146 247.07 334.169C245.555 340.15 250.018 346.056 256.188 346.034C258.246 346.027 260.281 345.349 261.817 343.978C290.147 318.707 252.991 287.314 262.967 223.037C263.494 219.643 269.039 219.611 269.814 222.956C275.848 249.014 284.069 262.62 283.14 293.188C282.89 301.408 289.99 308.224 298.102 306.872C304.158 305.862 308.676 300.524 307.717 294.46C302.064 258.699 273.331 245.546 286.061 213.777C286.227 213.363 286.449 212.953 286.7 212.584C288.914 209.343 293.534 208.738 296.267 211.555C305.004 220.559 301.605 223.256 302.496 244.4C302.667 248.47 305.758 251.806 309.784 252.43C336.867 254.79 301.564 197.072 317.155 142.229Z" fill="url(#paint6_linear)"/>
<path d="M316.586 158.375C315.991 154.36 311.744 151.401 307.679 152.207C304.474 152.844 302.483 155.655 303.003 158.82C314.573 229.327 330.726 269.405 361.511 336.031C362.939 339.122 366.503 340.968 369.796 340.314C373.783 339.523 375.694 335.47 373.849 331.767C337.988 259.803 325.684 219.806 316.586 158.375Z" fill="url(#paint7_linear)"/>
<path d="M333.03 160.01C333.88 162.552 337.056 163.949 339.616 162.546C341.405 161.566 342.24 159.541 341.458 157.839C327.1 126.572 279.608 98.3568 232.266 91.1774C230.321 90.8825 228.447 92.2277 228.159 94.0828C227.896 95.7752 229.05 97.2936 230.811 97.6148C274.706 105.622 324.279 133.849 333.03 160.01Z" fill="#76DFCF" fill-opacity="0.5"/>
<path d="M198.147 111.497C200.309 107.607 198.068 102.751 193.702 101.958C190.858 101.442 187.975 102.91 186.68 105.503C132.31 214.306 119.856 276.468 131.559 391.874C131.858 394.823 134.077 397.243 137.002 397.774C141.407 398.574 145.394 394.905 145.033 390.454C134.875 265.214 147.575 202.493 198.147 111.497Z" fill="url(#paint8_linear)"/>
<rect width="13.8272" height="33.3395" rx="6.9136" transform="matrix(-0.999032 0.0439969 0.119223 0.992868 146.066 400.055)" fill="#34C2A3"/>
<path d="M243.743 133.113C318.12 339.572 165.29 387.267 272.584 552.044" stroke="#89E4C4" stroke-width="5"/>
</g>
<circle cx="142.753" cy="168.964" r="7.02064" fill="white"/>
<circle cx="113.735" cy="333.715" r="7.02064" fill="#14BCAA"/>
<circle cx="206.407" cy="514.38" r="7.02064" fill="#349D92"/>
<circle cx="198.45" cy="207.811" r="3.74434" fill="white"/>
<defs>
<filter id="filter0_d" x="23.1211" y="7.23804" width="381.849" height="677.582" filterUnits="userSpaceOnUse" color-interpolation-filters="sRGB">
<feFlood flood-opacity="0" result="BackgroundImageFix"/>
<feColorMatrix in="SourceAlpha" type="matrix" values="0 0 0 0 0 0 0 0 0 0 0 0 0 0 0 0 0 0 127 0"/>
<feOffset dx="5" dy="5"/>
<feColorMatrix type="matrix" values="0 0 0 0 0.987833 0 0 0 0 0.391667 0 0 0 0 1 0 0 0 0.86 0"/>
<feBlend mode="normal" in2="BackgroundImageFix" result="effect1_dropShadow"/>
<feBlend mode="normal" in="SourceGraphic" in2="effect1_dropShadow" result="shape"/>
</filter>
<radialGradient id="paint0_radial" cx="0" cy="0" r="1" gradientUnits="userSpaceOnUse" gradientTransform="translate(244.687 129.79) rotate(-69.5474) scale(114.883 219.848)">
<stop stop-color="#76F0C8"/>
<stop offset="0.838542" stop-color="#003F8B"/>
</radialGradient>
<linearGradient id="paint1_linear" x1="195.545" y1="363.303" x2="195.704" y2="105.351" gradientUnits="userSpaceOnUse">
<stop offset="0.474557" stop-color="#3ABFB1"/>
<stop offset="1" stop-color="#0C15FE" stop-opacity="0"/>
</linearGradient>
<linearGradient id="paint2_linear" x1="383.906" y1="393.812" x2="325.883" y2="75.5365" gradientUnits="userSpaceOnUse">
<stop stop-color="#00B29F"/>
<stop offset="1" stop-color="#00B29F" stop-opacity="0"/>
</linearGradient>
<linearGradient id="paint3_linear" x1="241.789" y1="429.004" x2="231.524" y2="8.25625" gradientUnits="userSpaceOnUse">
<stop stop-color="#42D5A0"/>
<stop offset="1" stop-color="#00B29F" stop-opacity="0"/>
</linearGradient>
<linearGradient id="paint4_linear" x1="167.478" y1="263.156" x2="227.409" y2="84.0236" gradientUnits="userSpaceOnUse">
<stop stop-color="#00B29F"/>
<stop offset="1" stop-color="#00B29F" stop-opacity="0"/>
</linearGradient>
<radialGradient id="paint5_radial" cx="0" cy="0" r="1" gradientUnits="userSpaceOnUse" gradientTransform="translate(275.822 104.217) rotate(117.314) scale(122.998 335.845)">
<stop stop-color="#BEFECA"/>
<stop offset="1" stop-color="#BEFECA" stop-opacity="0"/>
</radialGradient>
<linearGradient id="paint6_linear" x1="259.773" y1="280.786" x2="262.472" y2="134.703" gradientUnits="userSpaceOnUse">
<stop offset="0.515472" stop-color="#26E9D4"/>
<stop offset="1" stop-color="#02D1FF" stop-opacity="0"/>
</linearGradient>
<linearGradient id="paint7_linear" x1="383.475" y1="347.99" x2="312.96" y2="74.0397" gradientUnits="userSpaceOnUse">
<stop stop-color="#29BF9E"/>
<stop offset="1" stop-color="#29BF9E" stop-opacity="0"/>
</linearGradient>
<linearGradient id="paint8_linear" x1="166.359" y1="418.973" x2="207.719" y2="-8.26094" gradientUnits="userSpaceOnUse">
<stop stop-color="#29BF9E"/>
<stop offset="1" stop-color="#29BF9E" stop-opacity="0"/>
</linearGradient>
</defs>
</svg>
