<svg width="1440" height="912" viewBox="0 0 1440 912" fill="none" xmlns="http://www.w3.org/2000/svg">
<rect x="85" y="106.237" width="172" height="14" rx="6.99999" transform="rotate(-180 85 106.237)" fill="#263661"/>
<rect width="235" height="14" rx="6.99999" transform="matrix(1 -8.74228e-08 -8.74228e-08 -1 -86.9999 106.237)" fill="#263661"/>
<rect width="104.641" height="14" rx="7" transform="matrix(0.707107 0.707107 0.707107 -0.707107 132 100.136)" fill="#263661"/>
<path fill-rule="evenodd" clip-rule="evenodd" d="M219.057 159C229.55 159 238.057 167.507 238.057 178C238.057 188.494 229.55 197 219.057 197C208.563 197 200.057 188.494 200.057 178C200.057 167.507 208.563 159 219.057 159ZM219.057 166C225.684 166 231.057 171.373 231.057 178C231.057 184.628 225.684 190 219.057 190C212.429 190 207.057 184.628 207.057 178C207.057 171.373 212.429 166 219.057 166Z" fill="#263661"/>
<rect x="66" y="152.237" width="172" height="14" rx="6.99999" transform="rotate(-180 66 152.237)" fill="#263661"/>
<rect width="235" height="14" rx="6.99999" transform="matrix(1 -8.74228e-08 -8.74228e-08 -1 -106 152.237)" fill="#263661"/>
<rect width="104.641" height="14" rx="7" transform="matrix(0.707107 0.707107 0.707107 -0.707107 113 146.136)" fill="#263661"/>
<path fill-rule="evenodd" clip-rule="evenodd" d="M200.057 205C210.55 205 219.057 213.507 219.057 224C219.057 234.494 210.55 243 200.057 243C189.563 243 181.057 234.494 181.057 224C181.057 213.507 189.563 205 200.057 205ZM200.057 212C206.684 212 212.057 217.373 212.057 224C212.057 230.628 206.684 236 200.057 236C193.429 236 188.057 230.628 188.057 224C188.057 217.373 193.429 212 200.057 212Z" fill="#263661"/>
<path fill-rule="evenodd" clip-rule="evenodd" d="M127 78.0001C137.493 78.0001 146 69.4935 146 59.0001C146 48.5067 137.493 40.0001 127 40.0001C116.507 40.0001 108 48.5067 108 59.0001C108 69.4935 116.507 78.0001 127 78.0001ZM127 71C133.627 71 139 65.6274 139 59C139 52.3726 133.627 47 127 47C120.373 47 115 52.3726 115 59C115 65.6274 120.373 71 127 71Z" fill="#263661"/>
<rect x="-474" y="52.0001" width="589" height="14" rx="6.99999" fill="#263661"/>
<path fill-rule="evenodd" clip-rule="evenodd" d="M166 38.0001C176.493 38.0001 185 29.4935 185 19.0001C185 8.50665 176.493 6.10352e-05 166 6.10352e-05C155.507 6.10352e-05 147 8.50665 147 19.0001C147 29.4935 155.507 38.0001 166 38.0001ZM166 31C172.627 31 178 25.6274 178 19C178 12.3726 172.627 7.00002 166 7.00002C159.373 7.00002 154 12.3726 154 19C154 25.6274 159.373 31 166 31Z" fill="#263661"/>
<rect x="-435" y="12.0001" width="589" height="14" rx="6.99999" fill="#263661"/>
<path fill-rule="evenodd" clip-rule="evenodd" d="M290 791.357C290 801.101 297.899 809 307.643 809C317.387 809 325.286 801.101 325.286 791.357C325.286 781.613 317.387 773.714 307.643 773.714C297.899 773.714 290 781.613 290 791.357ZM296.5 791.357C296.5 797.511 301.489 802.5 307.643 802.5C313.797 802.5 318.786 797.511 318.786 791.357C318.786 785.203 313.797 780.214 307.643 780.214C301.489 780.214 296.5 785.203 296.5 791.357Z" fill="#263661"/>
<rect x="314.143" y="740.286" width="39.9286" height="13" rx="6.5" transform="rotate(90 314.143 740.286)" fill="#263661"/>
<path fill-rule="evenodd" clip-rule="evenodd" d="M290 696.643C290 686.899 297.899 679 307.643 679C317.387 679 325.286 686.899 325.286 696.643C325.286 706.387 317.387 714.286 307.643 714.286C297.899 714.286 290 706.387 290 696.643ZM296.5 696.643C296.5 690.489 301.489 685.5 307.643 685.5C313.797 685.5 318.786 690.489 318.786 696.643C318.786 702.797 313.797 707.786 307.643 707.786C301.489 707.786 296.5 702.797 296.5 696.643Z" fill="#263661"/>
<rect width="39.9286" height="13" rx="6.5" transform="matrix(-4.37114e-08 -1 -1 4.37114e-08 314.143 747.714)" fill="#263661"/>
<path fill-rule="evenodd" clip-rule="evenodd" d="M954 854.357C954 864.101 961.899 872 971.643 872C981.387 872 989.286 864.101 989.286 854.357C989.286 844.613 981.387 836.714 971.643 836.714C961.899 836.714 954 844.613 954 854.357ZM960.5 854.357C960.5 860.511 965.489 865.5 971.643 865.5C977.797 865.5 982.786 860.511 982.786 854.357C982.786 848.203 977.797 843.214 971.643 843.214C965.489 843.214 960.5 848.203 960.5 854.357Z" fill="#263661"/>
<rect x="978.143" y="803.286" width="39.9286" height="13" rx="6.5" transform="rotate(90 978.143 803.286)" fill="#263661"/>
<path fill-rule="evenodd" clip-rule="evenodd" d="M954 759.643C954 749.899 961.899 742 971.643 742C981.387 742 989.286 749.899 989.286 759.643C989.286 769.387 981.387 777.286 971.643 777.286C961.899 777.286 954 769.387 954 759.643ZM960.5 759.643C960.5 753.489 965.489 748.5 971.643 748.5C977.797 748.5 982.786 753.489 982.786 759.643C982.786 765.797 977.797 770.786 971.643 770.786C965.489 770.786 960.5 765.797 960.5 759.643Z" fill="#263661"/>
<rect width="39.9286" height="13" rx="6.5" transform="matrix(-4.37114e-08 -1 -1 4.37114e-08 978.143 810.714)" fill="#263661"/>
<path fill-rule="evenodd" clip-rule="evenodd" d="M1000 854.357C1000 864.101 1007.9 872 1017.64 872C1027.39 872 1035.29 864.101 1035.29 854.357C1035.29 844.613 1027.39 836.714 1017.64 836.714C1007.9 836.714 1000 844.613 1000 854.357ZM1006.5 854.357C1006.5 860.511 1011.49 865.5 1017.64 865.5C1023.8 865.5 1028.79 860.511 1028.79 854.357C1028.79 848.203 1023.8 843.214 1017.64 843.214C1011.49 843.214 1006.5 848.203 1006.5 854.357Z" fill="#263661"/>
<rect x="1024.14" y="803.286" width="39.9286" height="13" rx="6.5" transform="rotate(90 1024.14 803.286)" fill="#263661"/>
<path fill-rule="evenodd" clip-rule="evenodd" d="M1000 759.643C1000 749.899 1007.9 742 1017.64 742C1027.39 742 1035.29 749.899 1035.29 759.643C1035.29 769.387 1027.39 777.286 1017.64 777.286C1007.9 777.286 1000 769.387 1000 759.643ZM1006.5 759.643C1006.5 753.489 1011.49 748.5 1017.64 748.5C1023.8 748.5 1028.79 753.489 1028.79 759.643C1028.79 765.797 1023.8 770.786 1017.64 770.786C1011.49 770.786 1006.5 765.797 1006.5 759.643Z" fill="#263661"/>
<rect width="39.9286" height="13" rx="6.5" transform="matrix(-4.37114e-08 -1 -1 4.37114e-08 1024.14 810.714)" fill="#263661"/>
<path fill-rule="evenodd" clip-rule="evenodd" d="M908.357 872.286C918.101 872.286 926 864.387 926 854.643C926 844.899 918.101 837 908.357 837C898.613 837 890.714 844.899 890.714 854.643C890.714 864.387 898.613 872.286 908.357 872.286ZM908.357 865.786C914.511 865.786 919.5 860.797 919.5 854.643C919.5 848.489 914.511 843.5 908.357 843.5C902.203 843.5 897.214 848.489 897.214 854.643C897.214 860.797 902.203 865.786 908.357 865.786Z" fill="#263661"/>
<rect x="857.286" y="848.143" width="39.9286" height="13" rx="6.5" fill="#263661"/>
<path fill-rule="evenodd" clip-rule="evenodd" d="M813.643 872.286C803.899 872.286 796 864.387 796 854.643C796 844.899 803.899 837 813.643 837C823.387 837 831.286 844.899 831.286 854.643C831.286 864.387 823.387 872.286 813.643 872.286ZM813.643 865.786C807.489 865.786 802.5 860.797 802.5 854.643C802.5 848.489 807.489 843.5 813.643 843.5C819.797 843.5 824.786 848.489 824.786 854.643C824.786 860.797 819.797 865.786 813.643 865.786Z" fill="#263661"/>
<rect width="39.9286" height="13" rx="6.5" transform="matrix(-1 8.74228e-08 8.74228e-08 1 864.714 848.143)" fill="#263661"/>
<path fill-rule="evenodd" clip-rule="evenodd" d="M908.357 826.285C918.101 826.285 926 818.386 926 808.642C926 798.899 918.101 791 908.357 791C898.613 791 890.714 798.899 890.714 808.642C890.714 818.386 898.613 826.285 908.357 826.285ZM908.357 819.785C914.511 819.785 919.5 814.796 919.5 808.642C919.5 802.488 914.511 797.5 908.357 797.5C902.203 797.5 897.214 802.488 897.214 808.642C897.214 814.796 902.203 819.785 908.357 819.785Z" fill="#263661"/>
<rect x="857.286" y="802.142" width="39.9286" height="13" rx="6.5" fill="#263661"/>
<path fill-rule="evenodd" clip-rule="evenodd" d="M816.475 789.426C809.585 782.536 809.585 771.365 816.475 764.475C823.365 757.585 834.536 757.585 841.426 764.475C848.316 771.365 848.316 782.536 841.426 789.426C834.536 796.316 823.365 796.316 816.475 789.426ZM821.072 784.83C816.72 780.478 816.72 773.423 821.072 769.072C825.423 764.72 832.478 764.72 836.83 769.072C841.182 773.423 841.182 780.478 836.83 784.83C832.478 789.182 825.423 789.182 821.072 784.83Z" fill="#263661"/>
<rect width="39.9286" height="13" rx="6.5" transform="matrix(-0.707107 -0.707107 -0.707107 0.707107 869.66 808.468)" fill="#263661"/>
<rect x="764" y="549" width="157" height="14" rx="6.99999" fill="#263661"/>
<rect x="906" y="555.1" width="88.2187" height="14" rx="7" transform="rotate(-45 906 555.1)" fill="#263661"/>
<path fill-rule="evenodd" clip-rule="evenodd" d="M980 507C990.493 507 999 498.493 999 488C999 477.507 990.493 469 980 469C969.507 469 961 477.507 961 488C961 498.493 969.507 507 980 507ZM980 500C986.627 500 992 494.627 992 488C992 481.373 986.627 476 980 476C973.373 476 968 481.373 968 488C968 494.627 973.373 500 980 500Z" fill="#263661"/>
<rect x="773" y="563" width="325" height="14" rx="6.99999" transform="rotate(-180 773 563)" fill="#263661"/>
<rect x="463" y="556.9" width="88.2187" height="14" rx="7" transform="rotate(135 463 556.9)" fill="#263661"/>
<path fill-rule="evenodd" clip-rule="evenodd" d="M389 605C378.507 605 370 613.507 370 624C370 634.493 378.507 643 389 643C399.493 643 408 634.493 408 624C408 613.507 399.493 605 389 605ZM389 612C382.373 612 377 617.373 377 624C377 630.627 382.373 636 389 636C395.627 636 401 630.627 401 624C401 617.373 395.627 612 389 612Z" fill="#263661"/>
<rect width="366" height="14" rx="7" transform="matrix(-1 8.74228e-08 8.74228e-08 1 1568 845.707)" fill="#263661"/>
<rect width="158.301" height="14" rx="7" transform="matrix(-0.707107 -0.707107 -0.707107 0.707107 1217 851.515)" fill="#263661"/>
<path fill-rule="evenodd" clip-rule="evenodd" d="M1092 754.707C1081.51 754.707 1073 746.2 1073 735.707C1073 725.214 1081.51 716.707 1092 716.707C1102.49 716.707 1111 725.214 1111 735.707C1111 746.2 1102.49 754.707 1092 754.707ZM1092 747.707C1085.37 747.707 1080 742.334 1080 735.707C1080 729.08 1085.37 723.707 1092 723.707C1098.63 723.707 1104 729.08 1104 735.707C1104 742.334 1098.63 747.707 1092 747.707Z" fill="#263661"/>
<rect width="366" height="14" rx="7" transform="matrix(-1 8.74228e-08 8.74228e-08 1 1590 804)" fill="#263661"/>
<rect width="158.301" height="14" rx="7" transform="matrix(-0.707107 -0.707107 -0.707107 0.707107 1239 809.807)" fill="#263661"/>
<path fill-rule="evenodd" clip-rule="evenodd" d="M1114 713C1103.51 713 1095 704.493 1095 694C1095 683.507 1103.51 675 1114 675C1124.49 675 1133 683.507 1133 694C1133 704.493 1124.49 713 1114 713ZM1114 706C1107.37 706 1102 700.627 1102 694C1102 687.373 1107.37 682 1114 682C1120.63 682 1126 687.373 1126 694C1126 700.627 1120.63 706 1114 706Z" fill="#263661"/>
<path fill-rule="evenodd" clip-rule="evenodd" d="M1092 874C1081.51 874 1073 882.507 1073 893C1073 903.493 1081.51 912 1092 912C1102.49 912 1111 903.493 1111 893C1111 882.507 1102.49 874 1092 874ZM1092 881C1085.37 881 1080 886.373 1080 893C1080 899.627 1085.37 905 1092 905C1098.63 905 1104 899.627 1104 893C1104 886.373 1098.63 881 1092 881Z" fill="#263661"/>
<rect x="1693" y="900" width="589" height="14" rx="6.99999" transform="rotate(-180 1693 900)" fill="#263661"/>
<path fill-rule="evenodd" clip-rule="evenodd" d="M447 713C436.507 713 428 704.493 428 694C428 683.507 436.507 675 447 675C457.493 675 466 683.507 466 694C466 704.493 457.493 713 447 713ZM447 706C440.373 706 435 700.627 435 694C435 687.373 440.373 682 447 682C453.627 682 459 687.373 459 694C459 700.627 453.627 706 447 706Z" fill="#263661"/>
<rect width="336" height="14" rx="7" transform="matrix(-1 0 0 1 795 687)" fill="#263661"/>
<path fill-rule="evenodd" clip-rule="evenodd" d="M971 713C981.493 713 990 704.493 990 694C990 683.507 981.493 675 971 675C960.507 675 952 683.507 952 694C952 704.493 960.507 713 971 713ZM971 706C977.627 706 983 700.627 983 694C983 687.373 977.627 682 971 682C964.373 682 959 687.373 959 694C959 700.627 964.373 706 971 706Z" fill="#263661"/>
<rect x="623" y="687" width="336" height="14" rx="7" fill="#263661"/>
<path fill-rule="evenodd" clip-rule="evenodd" d="M501 621C490.507 621 482 612.493 482 602C482 591.507 490.507 583 501 583C511.493 583 520 591.507 520 602C520 612.493 511.493 621 501 621ZM501 614C494.373 614 489 608.627 489 602C489 595.373 494.373 590 501 590C507.627 590 513 595.373 513 602C513 608.627 507.627 614 501 614Z" fill="#263661"/>
<rect width="282" height="14" rx="7" transform="matrix(-1 0 0 1 795 595)" fill="#263661"/>
<path fill-rule="evenodd" clip-rule="evenodd" d="M917 621C927.493 621 936 612.493 936 602C936 591.507 927.493 583 917 583C906.507 583 898 591.507 898 602C898 612.493 906.507 621 917 621ZM917 614C923.627 614 929 608.627 929 602C929 595.373 923.627 590 917 590C910.373 590 905 595.373 905 602C905 608.627 910.373 614 917 614Z" fill="#263661"/>
<rect x="623" y="595" width="282" height="14" rx="7" fill="#263661"/>
<path fill-rule="evenodd" clip-rule="evenodd" d="M575 667C564.507 667 556 658.493 556 648C556 637.507 564.507 629 575 629C585.493 629 594 637.507 594 648C594 658.493 585.493 667 575 667ZM575 660C568.373 660 563 654.627 563 648C563 641.373 568.373 636 575 636C581.627 636 587 641.373 587 648C587 654.627 581.627 660 575 660Z" fill="#263661"/>
<rect width="208" height="14" rx="7" transform="matrix(-1 0 0 1 795 641)" fill="#263661"/>
<path fill-rule="evenodd" clip-rule="evenodd" d="M843 667C853.493 667 862 658.493 862 648C862 637.507 853.493 629 843 629C832.507 629 824 637.507 824 648C824 658.493 832.507 667 843 667ZM843 660C849.627 660 855 654.627 855 648C855 641.373 849.627 636 843 636C836.373 636 831 641.373 831 648C831 654.627 836.373 660 843 660Z" fill="#263661"/>
<rect x="623" y="641" width="208" height="14" rx="7" fill="#263661"/>
<path fill-rule="evenodd" clip-rule="evenodd" d="M372.113 786.064C379.003 792.954 390.174 792.954 397.064 786.064C403.954 779.174 403.954 768.003 397.064 761.113C390.174 754.223 379.003 754.223 372.113 761.113C365.223 768.003 365.223 779.174 372.113 786.064ZM376.709 781.468C381.061 785.819 388.116 785.819 392.468 781.468C396.819 777.116 396.819 770.061 392.468 765.709C388.116 761.358 381.061 761.358 376.709 765.709C372.358 770.061 372.358 777.116 376.709 781.468Z" fill="#263661"/>
<rect x="353.072" y="732.879" width="39.9286" height="13" rx="6.5" transform="rotate(45 353.072 732.879)" fill="#263661"/>
<path fill-rule="evenodd" clip-rule="evenodd" d="M335 696.643C335 686.899 342.899 679 352.643 679C362.387 679 370.286 686.899 370.286 696.643C370.286 706.387 362.387 714.286 352.643 714.286C342.899 714.286 335 706.387 335 696.643ZM341.5 696.643C341.5 690.489 346.489 685.5 352.643 685.5C358.797 685.5 363.786 690.489 363.786 696.643C363.786 702.797 358.797 707.786 352.643 707.786C346.489 707.786 341.5 702.797 341.5 696.643Z" fill="#263661"/>
<rect width="39.9286" height="13" rx="6.5" transform="matrix(-4.37114e-08 -1 -1 4.37114e-08 359.143 747.714)" fill="#263661"/>
</svg>
