<svg width="1440" height="1327" viewBox="0 0 1440 1327" fill="none" xmlns="http://www.w3.org/2000/svg">
<rect width="157" height="14" rx="6.99999" transform="matrix(-1 8.74228e-08 8.74228e-08 1 49 80)" fill="#384176"/>
<rect width="325" height="14" rx="6.99999" transform="matrix(1 -8.74228e-08 -8.74228e-08 -1 40 94)" fill="#384176"/>
<rect width="88.2187" height="14" rx="7" transform="matrix(0.707107 0.707107 0.707107 -0.707107 350 87.8994)" fill="#384176"/>
<path fill-rule="evenodd" clip-rule="evenodd" d="M424 136C434.493 136 443 144.507 443 155C443 165.493 434.493 174 424 174C413.507 174 405 165.493 405 155C405 144.507 413.507 136 424 136ZM424 143C430.627 143 436 148.373 436 155C436 161.627 430.627 167 424 167C417.373 167 412 161.627 412 155C412 148.373 417.373 143 424 143Z" fill="#384176"/>
<path fill-rule="evenodd" clip-rule="evenodd" d="M639 1289C628.507 1289 620 1297.51 620 1308C620 1318.49 628.507 1327 639 1327C649.493 1327 658 1318.49 658 1308C658 1297.51 649.493 1289 639 1289ZM639 1296C632.373 1296 627 1301.37 627 1308C627 1314.63 632.373 1320 639 1320C645.627 1320 651 1314.63 651 1308C651 1301.37 645.627 1296 639 1296Z" fill="#384176"/>
<rect x="859" y="1315" width="208" height="14" rx="7" transform="rotate(180 859 1315)" fill="#384176"/>
<path fill-rule="evenodd" clip-rule="evenodd" d="M907 1289C917.493 1289 926 1297.51 926 1308C926 1318.49 917.493 1327 907 1327C896.507 1327 888 1318.49 888 1308C888 1297.51 896.507 1289 907 1289ZM907 1296C913.627 1296 919 1301.37 919 1308C919 1314.63 913.627 1320 907 1320C900.373 1320 895 1314.63 895 1308C895 1301.37 900.373 1296 907 1296Z" fill="#384176"/>
<rect width="208" height="14" rx="7" transform="matrix(1 0 0 -1 687 1315)" fill="#384176"/>
<rect x="689" y="1202" width="161" height="14" rx="6.99999" fill="#384176"/>
<rect width="76.4837" height="14" rx="7" transform="matrix(-0.707107 -0.707107 -0.707107 0.707107 705.146 1207.95)" fill="#384176"/>
<path fill-rule="evenodd" clip-rule="evenodd" d="M638 1169C627.507 1169 619 1160.49 619 1150C619 1139.51 627.507 1131 638 1131C648.493 1131 657 1139.51 657 1150C657 1160.49 648.493 1169 638 1169ZM638 1162C631.373 1162 626 1156.63 626 1150C626 1143.37 631.373 1138 638 1138C644.627 1138 650 1143.37 650 1150C650 1156.63 644.627 1162 638 1162Z" fill="#384176"/>
<rect x="834" y="1207.95" width="76.4837" height="14" rx="7" transform="rotate(-45 834 1207.95)" fill="#384176"/>
<path fill-rule="evenodd" clip-rule="evenodd" d="M901.146 1169C911.64 1169 920.146 1160.49 920.146 1150C920.146 1139.51 911.64 1131 901.146 1131C890.653 1131 882.146 1139.51 882.146 1150C882.146 1160.49 890.653 1169 901.146 1169ZM901.146 1162C907.774 1162 913.146 1156.63 913.146 1150C913.146 1143.37 907.774 1138 901.146 1138C894.519 1138 889.146 1143.37 889.146 1150C889.146 1156.63 894.519 1162 901.146 1162Z" fill="#384176"/>
<path fill-rule="evenodd" clip-rule="evenodd" d="M1100.54 113.643C1100.54 103.899 1092.64 95.9999 1082.9 95.9999C1073.15 95.9999 1065.25 103.899 1065.25 113.643C1065.25 123.387 1073.15 131.286 1082.9 131.286C1092.64 131.286 1100.54 123.387 1100.54 113.643ZM1094.04 113.643C1094.04 107.489 1089.05 102.5 1082.9 102.5C1076.74 102.5 1071.75 107.489 1071.75 113.643C1071.75 119.797 1076.74 124.786 1082.9 124.786C1089.05 124.786 1094.04 119.797 1094.04 113.643Z" fill="#384176"/>
<rect x="1076.4" y="164.714" width="39.9286" height="13" rx="6.5" transform="rotate(-90 1076.4 164.714)" fill="#384176"/>
<path fill-rule="evenodd" clip-rule="evenodd" d="M1100.54 208.357C1100.54 218.101 1092.64 226 1082.9 226C1073.15 226 1065.25 218.101 1065.25 208.357C1065.25 198.613 1073.15 190.714 1082.9 190.714C1092.64 190.714 1100.54 198.613 1100.54 208.357ZM1094.04 208.357C1094.04 214.511 1089.05 219.5 1082.9 219.5C1076.74 219.5 1071.75 214.511 1071.75 208.357C1071.75 202.203 1076.74 197.214 1082.9 197.214C1089.05 197.214 1094.04 202.203 1094.04 208.357Z" fill="#384176"/>
<rect width="39.9286" height="13" rx="6.5" transform="matrix(4.37114e-08 1 1 -4.37114e-08 1076.4 157.286)" fill="#384176"/>
<path fill-rule="evenodd" clip-rule="evenodd" d="M819.357 1270.29C829.101 1270.29 837 1262.39 837 1252.64C837 1242.9 829.101 1235 819.357 1235C809.613 1235 801.714 1242.9 801.714 1252.64C801.714 1262.39 809.613 1270.29 819.357 1270.29ZM819.357 1263.79C825.511 1263.79 830.5 1258.8 830.5 1252.64C830.5 1246.49 825.511 1241.5 819.357 1241.5C813.203 1241.5 808.214 1246.49 808.214 1252.64C808.214 1258.8 813.203 1263.79 819.357 1263.79Z" fill="#384176"/>
<rect x="768.286" y="1246.14" width="39.9286" height="13" rx="6.5" fill="#384176"/>
<path fill-rule="evenodd" clip-rule="evenodd" d="M724.643 1270.29C714.899 1270.29 707 1262.39 707 1252.64C707 1242.9 714.899 1235 724.643 1235C734.387 1235 742.286 1242.9 742.286 1252.64C742.286 1262.39 734.387 1270.29 724.643 1270.29ZM724.643 1263.79C718.489 1263.79 713.5 1258.8 713.5 1252.64C713.5 1246.49 718.489 1241.5 724.643 1241.5C730.797 1241.5 735.786 1246.49 735.786 1252.64C735.786 1258.8 730.797 1263.79 724.643 1263.79Z" fill="#384176"/>
<rect width="39.9286" height="13" rx="6.5" transform="matrix(-1 3.17865e-08 3.17865e-08 1 775.714 1246.14)" fill="#384176"/>
<rect x="1217" y="110" width="282" height="14" rx="7" fill="#384176"/>
<path fill-rule="evenodd" clip-rule="evenodd" d="M1145 136C1134.51 136 1126 127.493 1126 117C1126 106.507 1134.51 98 1145 98C1155.49 98 1164 106.507 1164 117C1164 127.493 1155.49 136 1145 136ZM1145 129C1138.37 129 1133 123.627 1133 117C1133 110.373 1138.37 105 1145 105C1151.63 105 1157 110.373 1157 117C1157 123.627 1151.63 129 1145 129Z" fill="#384176"/>
<rect width="282" height="14" rx="7" transform="matrix(-1 0 0 1 1439 110)" fill="#384176"/>
<rect x="1250" y="156" width="208" height="14" rx="7" fill="#384176"/>
<path fill-rule="evenodd" clip-rule="evenodd" d="M1202 182C1191.51 182 1183 173.493 1183 163C1183 152.507 1191.51 144 1202 144C1212.49 144 1221 152.507 1221 163C1221 173.493 1212.49 182 1202 182ZM1202 175C1195.37 175 1190 169.627 1190 163C1190 156.373 1195.37 151 1202 151C1208.63 151 1214 156.373 1214 163C1214 169.627 1208.63 175 1202 175Z" fill="#384176"/>
<rect width="208" height="14" rx="7" transform="matrix(-1 0 0 1 1422 156)" fill="#384176"/>
<path fill-rule="evenodd" clip-rule="evenodd" d="M1013.43 118.475C1006.54 111.585 995.365 111.585 988.475 118.475C981.585 125.365 981.585 136.536 988.475 143.426C995.365 150.316 1006.54 150.316 1013.43 143.426C1020.32 136.536 1020.32 125.365 1013.43 118.475ZM1008.83 123.071C1004.48 118.72 997.423 118.72 993.072 123.071C988.72 127.423 988.72 134.478 993.072 138.83C997.423 143.181 1004.48 143.181 1008.83 138.83C1013.18 134.478 1013.18 127.423 1008.83 123.071Z" fill="#384176"/>
<rect x="1032.47" y="171.659" width="39.9286" height="13" rx="6.5" transform="rotate(-135 1032.47 171.659)" fill="#384176"/>
<path fill-rule="evenodd" clip-rule="evenodd" d="M1050.54 207.896C1050.54 217.639 1042.64 225.538 1032.9 225.538C1023.15 225.538 1015.25 217.639 1015.25 207.896C1015.25 198.152 1023.15 190.253 1032.9 190.253C1042.64 190.253 1050.54 198.152 1050.54 207.896ZM1044.04 207.896C1044.04 214.05 1039.05 219.038 1032.9 219.038C1026.74 219.038 1021.75 214.05 1021.75 207.896C1021.75 201.742 1026.74 196.753 1032.9 196.753C1039.05 196.753 1044.04 201.742 1044.04 207.896Z" fill="#384176"/>
<rect width="39.9286" height="13" rx="6.5" transform="matrix(4.37114e-08 1 1 -4.37114e-08 1026.4 156.824)" fill="#384176"/>
<rect width="366" height="14" rx="7" transform="matrix(-1 8.74228e-08 8.74228e-08 1 1513 1259.71)" fill="#384176"/>
<rect width="158.301" height="14" rx="7" transform="matrix(-0.707107 -0.707107 -0.707107 0.707107 1162 1265.51)" fill="#384176"/>
<path fill-rule="evenodd" clip-rule="evenodd" d="M1037 1168.71C1026.51 1168.71 1018 1160.2 1018 1149.71C1018 1139.21 1026.51 1130.71 1037 1130.71C1047.49 1130.71 1056 1139.21 1056 1149.71C1056 1160.2 1047.49 1168.71 1037 1168.71ZM1037 1161.71C1030.37 1161.71 1025 1156.33 1025 1149.71C1025 1143.08 1030.37 1137.71 1037 1137.71C1043.63 1137.71 1049 1143.08 1049 1149.71C1049 1156.33 1043.63 1161.71 1037 1161.71Z" fill="#384176"/>
<rect width="366" height="14" rx="7" transform="matrix(-1 8.74228e-08 8.74228e-08 1 1535 1218)" fill="#384176"/>
<rect width="158.301" height="14" rx="7" transform="matrix(-0.707107 -0.707107 -0.707107 0.707107 1184 1223.81)" fill="#384176"/>
<path fill-rule="evenodd" clip-rule="evenodd" d="M1059 1127C1048.51 1127 1040 1118.49 1040 1108C1040 1097.51 1048.51 1089 1059 1089C1069.49 1089 1078 1097.51 1078 1108C1078 1118.49 1069.49 1127 1059 1127ZM1059 1120C1052.37 1120 1047 1114.63 1047 1108C1047 1101.37 1052.37 1096 1059 1096C1065.63 1096 1071 1101.37 1071 1108C1071 1114.63 1065.63 1120 1059 1120Z" fill="#384176"/>
<path fill-rule="evenodd" clip-rule="evenodd" d="M1037 1288C1026.51 1288 1018 1296.51 1018 1307C1018 1317.49 1026.51 1326 1037 1326C1047.49 1326 1056 1317.49 1056 1307C1056 1296.51 1047.49 1288 1037 1288ZM1037 1295C1030.37 1295 1025 1300.37 1025 1307C1025 1313.63 1030.37 1319 1037 1319C1043.63 1319 1049 1313.63 1049 1307C1049 1300.37 1043.63 1295 1037 1295Z" fill="#384176"/>
<rect x="1638" y="1314" width="589" height="14" rx="6.99999" transform="rotate(-180 1638 1314)" fill="#384176"/>
<rect x="1265" y="705" width="208" height="14" rx="7" fill="#384176"/>
<path fill-rule="evenodd" clip-rule="evenodd" d="M1217 731C1206.51 731 1198 722.493 1198 712C1198 701.507 1206.51 693 1217 693C1227.49 693 1236 701.507 1236 712C1236 722.493 1227.49 731 1217 731ZM1217 724C1210.37 724 1205 718.627 1205 712C1205 705.373 1210.37 700 1217 700C1223.63 700 1229 705.373 1229 712C1229 718.627 1223.63 724 1217 724Z" fill="#384176"/>
<rect width="208" height="14" rx="7" transform="matrix(-1 0 0 1 1437 705)" fill="#384176"/>
<rect width="172" height="14" rx="6.99999" transform="matrix(1 -8.74228e-08 -8.74228e-08 -1 1336.06 760.001)" fill="#384176"/>
<rect x="1508.06" y="760.001" width="235" height="14" rx="6.99999" transform="rotate(-180 1508.06 760.001)" fill="#384176"/>
<rect x="1289.06" y="753.9" width="104.641" height="14" rx="7" transform="rotate(135 1289.06 753.9)" fill="#384176"/>
<path fill-rule="evenodd" clip-rule="evenodd" d="M1202 812.764C1191.51 812.764 1183 821.271 1183 831.764C1183 842.257 1191.51 850.764 1202 850.764C1212.49 850.764 1221 842.257 1221 831.764C1221 821.271 1212.49 812.764 1202 812.764ZM1202 819.764C1195.37 819.764 1190 825.137 1190 831.764C1190 838.391 1195.37 843.764 1202 843.764C1208.63 843.764 1214 838.391 1214 831.764C1214 825.137 1208.63 819.764 1202 819.764Z" fill="#384176"/>
<rect width="172" height="14" rx="6.99999" transform="matrix(1 -8.74228e-08 -8.74228e-08 -1 1355.06 806.001)" fill="#384176"/>
<rect x="1527.06" y="806.001" width="235" height="14" rx="6.99999" transform="rotate(-180 1527.06 806.001)" fill="#384176"/>
<rect x="1308.06" y="799.9" width="104.641" height="14" rx="7" transform="rotate(135 1308.06 799.9)" fill="#384176"/>
<path fill-rule="evenodd" clip-rule="evenodd" d="M1221 858.764C1210.51 858.764 1202 867.271 1202 877.764C1202 888.257 1210.51 896.764 1221 896.764C1231.49 896.764 1240 888.257 1240 877.764C1240 867.271 1231.49 858.764 1221 858.764ZM1221 865.764C1214.37 865.764 1209 871.137 1209 877.764C1209 884.391 1214.37 889.764 1221 889.764C1227.63 889.764 1233 884.391 1233 877.764C1233 871.137 1227.63 865.764 1221 865.764Z" fill="#384176"/>
<rect width="208" height="14" rx="7" transform="matrix(1 0 0 -1 1266 532.764)" fill="#384176"/>
<path fill-rule="evenodd" clip-rule="evenodd" d="M1218 506.764C1207.51 506.764 1199 515.271 1199 525.764C1199 536.257 1207.51 544.764 1218 544.764C1228.49 544.764 1237 536.257 1237 525.764C1237 515.271 1228.49 506.764 1218 506.764ZM1218 513.764C1211.37 513.764 1206 519.137 1206 525.764C1206 532.391 1211.37 537.764 1218 537.764C1224.63 537.764 1230 532.391 1230 525.764C1230 519.137 1224.63 513.764 1218 513.764Z" fill="#384176"/>
<rect x="1438" y="532.764" width="208" height="14" rx="7" transform="rotate(180 1438 532.764)" fill="#384176"/>
<rect x="1337.06" y="477.763" width="172" height="14" rx="6.99999" fill="#384176"/>
<rect width="235" height="14" rx="6.99999" transform="matrix(-1 8.74228e-08 8.74228e-08 1 1509.06 477.763)" fill="#384176"/>
<rect width="104.641" height="14" rx="7" transform="matrix(-0.707107 -0.707107 -0.707107 0.707107 1290.06 483.864)" fill="#384176"/>
<path fill-rule="evenodd" clip-rule="evenodd" d="M1203 425C1192.51 425 1184 416.493 1184 406C1184 395.507 1192.51 387 1203 387C1213.49 387 1222 395.507 1222 406C1222 416.493 1213.49 425 1203 425ZM1203 418C1196.37 418 1191 412.627 1191 406C1191 399.373 1196.37 394 1203 394C1209.63 394 1215 399.373 1215 406C1215 412.627 1209.63 418 1203 418Z" fill="#384176"/>
<rect x="1356.06" y="431.763" width="172" height="14" rx="6.99999" fill="#384176"/>
<rect width="235" height="14" rx="6.99999" transform="matrix(-1 8.74228e-08 8.74228e-08 1 1528.06 431.763)" fill="#384176"/>
<rect width="104.641" height="14" rx="7" transform="matrix(-0.707107 -0.707107 -0.707107 0.707107 1309.06 437.864)" fill="#384176"/>
<path fill-rule="evenodd" clip-rule="evenodd" d="M1222 379C1211.51 379 1203 370.493 1203 360C1203 349.507 1211.51 341 1222 341C1232.49 341 1241 349.507 1241 360C1241 370.493 1232.49 379 1222 379ZM1222 372C1215.37 372 1210 366.627 1210 360C1210 353.373 1215.37 348 1222 348C1228.63 348 1234 353.373 1234 360C1234 366.627 1228.63 372 1222 372Z" fill="#384176"/>
</svg>
