<svg width="1440" height="1283" viewBox="0 0 1440 1283" fill="none" xmlns="http://www.w3.org/2000/svg">
<rect x="133" y="-164" width="366" height="14" rx="7" transform="rotate(90 133 -164)" fill="#172E52"/>
<rect x="127.192" y="187" width="158.301" height="14" rx="7" transform="rotate(45 127.192 187)" fill="#172E52"/>
<path fill-rule="evenodd" clip-rule="evenodd" d="M224 312C224 322.493 232.507 331 243 331C253.493 331 262 322.493 262 312C262 301.507 253.493 293 243 293C232.507 293 224 301.507 224 312ZM231 312C231 318.627 236.373 324 243 324C249.627 324 255 318.627 255 312C255 305.373 249.627 300 243 300C236.373 300 231 305.373 231 312Z" fill="#172E52"/>
<rect x="174.707" y="-186" width="366" height="14" rx="7" transform="rotate(90 174.707 -186)" fill="#172E52"/>
<rect x="168.899" y="165" width="158.301" height="14" rx="7" transform="rotate(45 168.899 165)" fill="#172E52"/>
<path fill-rule="evenodd" clip-rule="evenodd" d="M265.707 290C265.707 300.493 274.214 309 284.707 309C295.2 309 303.707 300.493 303.707 290C303.707 279.507 295.2 271 284.707 271C274.214 271 265.707 279.507 265.707 290ZM272.707 290C272.707 296.627 278.08 302 284.707 302C291.334 302 296.707 296.627 296.707 290C296.707 283.373 291.334 278 284.707 278C278.08 278 272.707 283.373 272.707 290Z" fill="#172E52"/>
<rect x="219.707" y="-205" width="366" height="14" rx="7" transform="rotate(90 219.707 -205)" fill="#172E52"/>
<rect x="213.899" y="146" width="158.301" height="14" rx="7" transform="rotate(45 213.899 146)" fill="#172E52"/>
<path fill-rule="evenodd" clip-rule="evenodd" d="M310.707 271C310.707 281.493 319.214 290 329.707 290C340.2 290 348.707 281.493 348.707 271C348.707 260.507 340.2 252 329.707 252C319.214 252 310.707 260.507 310.707 271ZM317.707 271C317.707 277.627 323.08 283 329.707 283C336.334 283 341.707 277.627 341.707 271C341.707 264.373 336.334 259 329.707 259C323.08 259 317.707 264.373 317.707 271Z" fill="#172E52"/>
<rect x="777" y="1018" width="157" height="14" rx="6.99999" fill="#172E52"/>
<rect x="919" y="1024.1" width="88.2187" height="14" rx="7" transform="rotate(-45 919 1024.1)" fill="#172E52"/>
<path fill-rule="evenodd" clip-rule="evenodd" d="M993 976C1003.49 976 1012 967.493 1012 957C1012 946.507 1003.49 938 993 938C982.507 938 974 946.507 974 957C974 967.493 982.507 976 993 976ZM993 969C999.627 969 1005 963.627 1005 957C1005 950.373 999.627 945 993 945C986.373 945 981 950.373 981 957C981 963.627 986.373 969 993 969Z" fill="#172E52"/>
<rect x="786" y="1032" width="325" height="14" rx="6.99999" transform="rotate(-180 786 1032)" fill="#172E52"/>
<rect x="476" y="1025.9" width="88.2187" height="14" rx="7" transform="rotate(135 476 1025.9)" fill="#172E52"/>
<path fill-rule="evenodd" clip-rule="evenodd" d="M402 1074C391.507 1074 383 1082.51 383 1093C383 1103.49 391.507 1112 402 1112C412.493 1112 421 1103.49 421 1093C421 1082.51 412.493 1074 402 1074ZM402 1081C395.373 1081 390 1086.37 390 1093C390 1099.63 395.373 1105 402 1105C408.627 1105 414 1099.63 414 1093C414 1086.37 408.627 1081 402 1081Z" fill="#172E52"/>
<path fill-rule="evenodd" clip-rule="evenodd" d="M68 409C68 419.493 76.5066 428 87 428C97.4934 428 106 419.493 106 409C106 398.507 97.4934 390 87 390C76.5066 390 68 398.507 68 409ZM75 409C75 415.627 80.3726 421 87 421C93.6275 421 99 415.627 99 409C99 402.373 93.6275 397 87 397C80.3726 397 75 402.373 75 409Z" fill="#172E52"/>
<rect x="94" y="-192" width="589" height="14" rx="6.99999" transform="rotate(90 94 -192)" fill="#172E52"/>
<path fill-rule="evenodd" clip-rule="evenodd" d="M18.9999 409C18.9999 419.493 27.5065 428 37.9999 428C48.4933 428 56.9999 419.493 56.9999 409C56.9999 398.507 48.4933 390 37.9999 390C27.5065 390 18.9999 398.507 18.9999 409ZM26 409C26 415.627 31.3726 421 38 421C44.6274 421 50 415.627 50 409C50 402.373 44.6274 397 38 397C31.3726 397 26 402.373 26 409Z" fill="#172E52"/>
<rect x="44.9999" y="-192" width="589" height="14" rx="6.99999" transform="rotate(90 44.9999 -192)" fill="#172E52"/>
<rect x="1710" y="328.293" width="366" height="14" rx="7" transform="rotate(-180 1710 328.293)" fill="#172E52"/>
<rect x="1359" y="322.485" width="158.301" height="14" rx="7" transform="rotate(135 1359 322.485)" fill="#172E52"/>
<path fill-rule="evenodd" clip-rule="evenodd" d="M1234 419.293C1223.51 419.293 1215 427.799 1215 438.293C1215 448.786 1223.51 457.293 1234 457.293C1244.49 457.293 1253 448.786 1253 438.293C1253 427.799 1244.49 419.293 1234 419.293ZM1234 426.293C1227.37 426.293 1222 431.666 1222 438.293C1222 444.92 1227.37 450.293 1234 450.293C1240.63 450.293 1246 444.92 1246 438.293C1246 431.666 1240.63 426.293 1234 426.293Z" fill="#172E52"/>
<rect x="1732" y="370" width="366" height="14" rx="7" transform="rotate(-180 1732 370)" fill="#172E52"/>
<rect x="1381" y="364.192" width="158.301" height="14" rx="7" transform="rotate(135 1381 364.192)" fill="#172E52"/>
<path fill-rule="evenodd" clip-rule="evenodd" d="M1256 461C1245.51 461 1237 469.507 1237 480C1237 490.493 1245.51 499 1256 499C1266.49 499 1275 490.493 1275 480C1275 469.507 1266.49 461 1256 461ZM1256 468C1249.37 468 1244 473.373 1244 480C1244 486.627 1249.37 492 1256 492C1262.63 492 1268 486.627 1268 480C1268 473.373 1262.63 468 1256 468Z" fill="#172E52"/>
<path fill-rule="evenodd" clip-rule="evenodd" d="M1399 426C1388.51 426 1380 417.493 1380 407C1380 396.507 1388.51 388 1399 388C1409.49 388 1418 396.507 1418 407C1418 417.493 1409.49 426 1399 426ZM1399 419C1392.37 419 1387 413.627 1387 407C1387 400.373 1392.37 395 1399 395C1405.63 395 1411 400.373 1411 407C1411 413.627 1405.63 419 1399 419Z" fill="#172E52"/>
<rect width="589" height="14" rx="6.99999" transform="matrix(-1 8.74228e-08 8.74228e-08 1 2000 400)" fill="#172E52"/>
<path fill-rule="evenodd" clip-rule="evenodd" d="M1399 472C1388.51 472 1380 463.493 1380 453C1380 442.507 1388.51 434 1399 434C1409.49 434 1418 442.507 1418 453C1418 463.493 1409.49 472 1399 472ZM1399 465C1392.37 465 1387 459.627 1387 453C1387 446.373 1392.37 441 1399 441C1405.63 441 1411 446.373 1411 453C1411 459.627 1405.63 465 1399 465Z" fill="#172E52"/>
<rect width="589" height="14" rx="6.99999" transform="matrix(-1 8.74228e-08 8.74228e-08 1 2000 446)" fill="#172E52"/>
<rect width="366" height="14" rx="7" transform="matrix(-1 8.74228e-08 8.74228e-08 1 1581 958.707)" fill="#172E52"/>
<rect width="158.301" height="14" rx="7" transform="matrix(-0.707107 -0.707107 -0.707107 0.707107 1230 964.515)" fill="#172E52"/>
<path fill-rule="evenodd" clip-rule="evenodd" d="M1105 867.707C1094.51 867.707 1086 859.201 1086 848.707C1086 838.214 1094.51 829.707 1105 829.707C1115.49 829.707 1124 838.214 1124 848.707C1124 859.201 1115.49 867.707 1105 867.707ZM1105 860.707C1098.37 860.707 1093 855.334 1093 848.707C1093 842.08 1098.37 836.707 1105 836.707C1111.63 836.707 1117 842.08 1117 848.707C1117 855.334 1111.63 860.707 1105 860.707Z" fill="#172E52"/>
<rect width="366" height="14" rx="7" transform="matrix(-1 8.74228e-08 8.74228e-08 1 1603 917)" fill="#172E52"/>
<rect width="158.301" height="14" rx="7" transform="matrix(-0.707107 -0.707107 -0.707107 0.707107 1252 922.808)" fill="#172E52"/>
<path fill-rule="evenodd" clip-rule="evenodd" d="M1127 826C1116.51 826 1108 817.493 1108 807C1108 796.507 1116.51 788 1127 788C1137.49 788 1146 796.507 1146 807C1146 817.493 1137.49 826 1127 826ZM1127 819C1120.37 819 1115 813.627 1115 807C1115 800.373 1120.37 795 1127 795C1133.63 795 1139 800.373 1139 807C1139 813.627 1133.63 819 1127 819Z" fill="#172E52"/>
<path fill-rule="evenodd" clip-rule="evenodd" d="M1105 987C1094.51 987 1086 995.507 1086 1006C1086 1016.49 1094.51 1025 1105 1025C1115.49 1025 1124 1016.49 1124 1006C1124 995.507 1115.49 987 1105 987ZM1105 994C1098.37 994 1093 999.373 1093 1006C1093 1012.63 1098.37 1018 1105 1018C1111.63 1018 1117 1012.63 1117 1006C1117 999.373 1111.63 994 1105 994Z" fill="#172E52"/>
<rect x="1706" y="1013" width="589" height="14" rx="6.99999" transform="rotate(-180 1706 1013)" fill="#172E52"/>
<rect x="59.9999" y="475.001" width="172" height="14" rx="6.99999" transform="rotate(-180 59.9999 475.001)" fill="#172E52"/>
<rect width="235" height="14" rx="6.99999" transform="matrix(1 -8.74228e-08 -8.74228e-08 -1 -112 475.001)" fill="#172E52"/>
<rect width="104.641" height="14" rx="7" transform="matrix(0.707107 0.707107 0.707107 -0.707107 107 468.9)" fill="#172E52"/>
<path fill-rule="evenodd" clip-rule="evenodd" d="M194.057 527.764C204.55 527.764 213.057 536.271 213.057 546.764C213.057 557.257 204.55 565.764 194.057 565.764C183.563 565.764 175.057 557.257 175.057 546.764C175.057 536.271 183.563 527.764 194.057 527.764ZM194.057 534.764C200.684 534.764 206.057 540.137 206.057 546.764C206.057 553.391 200.684 558.764 194.057 558.764C187.429 558.764 182.057 553.391 182.057 546.764C182.057 540.137 187.429 534.764 194.057 534.764Z" fill="#172E52"/>
<rect x="40.9999" y="521.001" width="172" height="14" rx="6.99999" transform="rotate(-180 40.9999 521.001)" fill="#172E52"/>
<rect width="235" height="14" rx="6.99999" transform="matrix(1 -8.74228e-08 -8.74228e-08 -1 -131 521.001)" fill="#172E52"/>
<rect width="104.641" height="14" rx="7" transform="matrix(0.707107 0.707107 0.707107 -0.707107 87.9999 514.9)" fill="#172E52"/>
<path fill-rule="evenodd" clip-rule="evenodd" d="M175.057 573.764C185.55 573.764 194.057 582.271 194.057 592.764C194.057 603.257 185.55 611.764 175.057 611.764C164.563 611.764 156.057 603.257 156.057 592.764C156.057 582.271 164.563 573.764 175.057 573.764ZM175.057 580.764C181.684 580.764 187.057 586.137 187.057 592.764C187.057 599.391 181.684 604.764 175.057 604.764C168.429 604.764 163.057 599.391 163.057 592.764C163.057 586.137 168.429 580.764 175.057 580.764Z" fill="#172E52"/>
<rect x="24.9999" y="569.001" width="172" height="14" rx="6.99999" transform="rotate(-180 24.9999 569.001)" fill="#172E52"/>
<rect width="235" height="14" rx="6.99999" transform="matrix(1 -8.74228e-08 -8.74228e-08 -1 -147 569.001)" fill="#172E52"/>
<rect width="104.641" height="14" rx="7" transform="matrix(0.707107 0.707107 0.707107 -0.707107 71.9999 562.9)" fill="#172E52"/>
<path fill-rule="evenodd" clip-rule="evenodd" d="M159.057 621.764C169.55 621.764 178.057 630.271 178.057 640.764C178.057 651.257 169.55 659.764 159.057 659.764C148.563 659.764 140.057 651.257 140.057 640.764C140.057 630.271 148.563 621.764 159.057 621.764ZM159.057 628.764C165.684 628.764 171.057 634.137 171.057 640.764C171.057 647.391 165.684 652.764 159.057 652.764C152.429 652.764 147.057 647.391 147.057 640.764C147.057 634.137 152.429 628.764 159.057 628.764Z" fill="#172E52"/>
<rect width="172" height="14" rx="6.99999" transform="matrix(-1 8.74228e-08 8.74228e-08 1 59.9999 1163.76)" fill="#172E52"/>
<rect x="-112" y="1163.76" width="235" height="14" rx="6.99999" fill="#172E52"/>
<rect x="107" y="1169.86" width="104.641" height="14" rx="7" transform="rotate(-45 107 1169.86)" fill="#172E52"/>
<path fill-rule="evenodd" clip-rule="evenodd" d="M194.057 1111C204.55 1111 213.057 1102.49 213.057 1092C213.057 1081.51 204.55 1073 194.057 1073C183.563 1073 175.057 1081.51 175.057 1092C175.057 1102.49 183.563 1111 194.057 1111ZM194.057 1104C200.684 1104 206.057 1098.63 206.057 1092C206.057 1085.37 200.684 1080 194.057 1080C187.429 1080 182.057 1085.37 182.057 1092C182.057 1098.63 187.429 1104 194.057 1104Z" fill="#172E52"/>
<rect width="172" height="14" rx="6.99999" transform="matrix(-1 8.74228e-08 8.74228e-08 1 40.9999 1117.76)" fill="#172E52"/>
<rect x="-131" y="1117.76" width="235" height="14" rx="6.99999" fill="#172E52"/>
<rect x="87.9999" y="1123.86" width="104.641" height="14" rx="7" transform="rotate(-45 87.9999 1123.86)" fill="#172E52"/>
<path fill-rule="evenodd" clip-rule="evenodd" d="M175.057 1065C185.55 1065 194.057 1056.49 194.057 1046C194.057 1035.51 185.55 1027 175.057 1027C164.563 1027 156.057 1035.51 156.057 1046C156.057 1056.49 164.563 1065 175.057 1065ZM175.057 1058C181.684 1058 187.057 1052.63 187.057 1046C187.057 1039.37 181.684 1034 175.057 1034C168.429 1034 163.057 1039.37 163.057 1046C163.057 1052.63 168.429 1058 175.057 1058Z" fill="#172E52"/>
<rect width="172" height="14" rx="6.99999" transform="matrix(-1 8.74228e-08 8.74228e-08 1 24.9999 1069.76)" fill="#172E52"/>
<rect x="-147" y="1069.76" width="235" height="14" rx="6.99999" fill="#172E52"/>
<rect x="71.9999" y="1075.86" width="104.641" height="14" rx="7" transform="rotate(-45 71.9999 1075.86)" fill="#172E52"/>
<path fill-rule="evenodd" clip-rule="evenodd" d="M159.057 1017C169.55 1017 178.057 1008.49 178.057 998C178.057 987.507 169.55 979 159.057 979C148.563 979 140.057 987.507 140.057 998C140.057 1008.49 148.563 1017 159.057 1017ZM159.057 1010C165.684 1010 171.057 1004.63 171.057 998C171.057 991.373 165.684 986 159.057 986C152.429 986 147.057 991.373 147.057 998C147.057 1004.63 152.429 1010 159.057 1010Z" fill="#172E52"/>
<path fill-rule="evenodd" clip-rule="evenodd" d="M194 767C204.493 767 213 775.507 213 786C213 796.493 204.493 805 194 805C183.507 805 175 796.493 175 786C175 775.507 183.507 767 194 767ZM194 774C200.627 774 206 779.373 206 786C206 792.627 200.627 798 194 798C187.373 798 182 792.627 182 786C182 779.373 187.373 774 194 774Z" fill="#172E52"/>
<rect width="589" height="14" rx="6.99999" transform="matrix(1 0 0 -1 -407 793)" fill="#172E52"/>
<path fill-rule="evenodd" clip-rule="evenodd" d="M120 721C130.493 721 139 729.507 139 740C139 750.493 130.493 759 120 759C109.507 759 101 750.493 101 740C101 729.507 109.507 721 120 721ZM120 728C126.627 728 132 733.373 132 740C132 746.627 126.627 752 120 752C113.373 752 108 746.627 108 740C108 733.373 113.373 728 120 728Z" fill="#172E52"/>
<rect width="589" height="14" rx="6.99999" transform="matrix(1 0 0 -1 -481 747)" fill="#172E52"/>
<path fill-rule="evenodd" clip-rule="evenodd" d="M194 853C204.493 853 213 861.507 213 872C213 882.493 204.493 891 194 891C183.507 891 175 882.493 175 872C175 861.507 183.507 853 194 853ZM194 860C200.627 860 206 865.373 206 872C206 878.627 200.627 884 194 884C187.373 884 182 878.627 182 872C182 865.373 187.373 860 194 860Z" fill="#172E52"/>
<rect width="589" height="14" rx="6.99999" transform="matrix(1 0 0 -1 -407 879)" fill="#172E52"/>
<path fill-rule="evenodd" clip-rule="evenodd" d="M121 900C131.493 900 140 908.507 140 919C140 929.493 131.493 938 121 938C110.507 938 102 929.493 102 919C102 908.507 110.507 900 121 900ZM121 907C127.627 907 133 912.373 133 919C133 925.627 127.627 931 121 931C114.373 931 109 925.627 109 919C109 912.373 114.373 907 121 907Z" fill="#172E52"/>
<rect width="589" height="14" rx="6.99999" transform="matrix(1 0 0 -1 -480 926)" fill="#172E52"/>
<path fill-rule="evenodd" clip-rule="evenodd" d="M102 1192C112.493 1192 121 1200.51 121 1211C121 1221.49 112.493 1230 102 1230C91.5066 1230 83 1221.49 83 1211C83 1200.51 91.5066 1192 102 1192ZM102 1199C108.627 1199 114 1204.37 114 1211C114 1217.63 108.627 1223 102 1223C95.3726 1223 90 1217.63 90 1211C90 1204.37 95.3726 1199 102 1199Z" fill="#172E52"/>
<rect width="589" height="14" rx="6.99999" transform="matrix(1 0 0 -1 -499 1218)" fill="#172E52"/>
<path fill-rule="evenodd" clip-rule="evenodd" d="M140 1245C150.493 1245 159 1253.51 159 1264C159 1274.49 150.493 1283 140 1283C129.507 1283 121 1274.49 121 1264C121 1253.51 129.507 1245 140 1245ZM140 1252C146.627 1252 152 1257.37 152 1264C152 1270.63 146.627 1276 140 1276C133.373 1276 128 1270.63 128 1264C128 1257.37 133.373 1252 140 1252Z" fill="#172E52"/>
<rect width="589" height="14" rx="6.99999" transform="matrix(1 0 0 -1 -461 1271)" fill="#172E52"/>
<path fill-rule="evenodd" clip-rule="evenodd" d="M246 813C256.493 813 265 821.507 265 832C265 842.493 256.493 851 246 851C235.507 851 227 842.493 227 832C227 821.507 235.507 813 246 813ZM246 820C252.627 820 258 825.373 258 832C258 838.627 252.627 844 246 844C239.373 844 234 838.627 234 832C234 825.373 239.373 820 246 820Z" fill="#172E52"/>
<rect width="589" height="14" rx="6.99999" transform="matrix(1 0 0 -1 -355 839)" fill="#172E52"/>
<path fill-rule="evenodd" clip-rule="evenodd" d="M941 27C951.493 27 960 35.5066 960 46C960 56.4934 951.493 65 941 65C930.507 65 922 56.4934 922 46C922 35.5066 930.507 27 941 27ZM941 34.0001C947.627 34.0001 953 39.3727 953 46.0001C953 52.6275 947.627 58.0001 941 58.0001C934.373 58.0001 929 52.6275 929 46.0001C929 39.3727 934.373 34.0001 941 34.0001Z" fill="#172E52"/>
<rect width="336" height="14" rx="7" transform="matrix(1 0 0 -1 593 53)" fill="#172E52"/>
<path fill-rule="evenodd" clip-rule="evenodd" d="M417 27C406.507 27 398 35.5066 398 46C398 56.4934 406.507 65 417 65C427.493 65 436 56.4934 436 46C436 35.5066 427.493 27 417 27ZM417 34.0001C410.373 34.0001 405 39.3727 405 46.0001C405 52.6275 410.373 58.0001 417 58.0001C423.627 58.0001 429 52.6275 429 46.0001C429 39.3727 423.627 34.0001 417 34.0001Z" fill="#172E52"/>
<rect x="765" y="53" width="336" height="14" rx="7" transform="rotate(180 765 53)" fill="#172E52"/>
<path fill-rule="evenodd" clip-rule="evenodd" d="M887 119C897.493 119 906 127.507 906 138C906 148.493 897.493 157 887 157C876.507 157 868 148.493 868 138C868 127.507 876.507 119 887 119ZM887 126C893.627 126 899 131.373 899 138C899 144.627 893.627 150 887 150C880.373 150 875 144.627 875 138C875 131.373 880.373 126 887 126Z" fill="#172E52"/>
<rect width="282" height="14" rx="7" transform="matrix(1 0 0 -1 593 145)" fill="#172E52"/>
<path fill-rule="evenodd" clip-rule="evenodd" d="M471 119C460.507 119 452 127.507 452 138C452 148.493 460.507 157 471 157C481.493 157 490 148.493 490 138C490 127.507 481.493 119 471 119ZM471 126C464.373 126 459 131.373 459 138C459 144.627 464.373 150 471 150C477.627 150 483 144.627 483 138C483 131.373 477.627 126 471 126Z" fill="#172E52"/>
<rect x="765" y="145" width="282" height="14" rx="7" transform="rotate(180 765 145)" fill="#172E52"/>
<path fill-rule="evenodd" clip-rule="evenodd" d="M813 73C823.493 73 832 81.5066 832 92C832 102.493 823.493 111 813 111C802.507 111 794 102.493 794 92C794 81.5066 802.507 73 813 73ZM813 80C819.627 80 825 85.3726 825 92C825 98.6275 819.627 104 813 104C806.373 104 801 98.6275 801 92C801 85.3726 806.373 80 813 80Z" fill="#172E52"/>
<rect width="208" height="14" rx="7" transform="matrix(1 0 0 -1 593 99)" fill="#172E52"/>
<path fill-rule="evenodd" clip-rule="evenodd" d="M545 73C534.507 73 526 81.5066 526 92C526 102.493 534.507 111 545 111C555.493 111 564 102.493 564 92C564 81.5066 555.493 73 545 73ZM545 80C538.373 80 533 85.3726 533 92C533 98.6275 538.373 104 545 104C551.627 104 557 98.6275 557 92C557 85.3726 551.627 80 545 80Z" fill="#172E52"/>
<rect x="765" y="99" width="208" height="14" rx="7" transform="rotate(180 765 99)" fill="#172E52"/>
<path fill-rule="evenodd" clip-rule="evenodd" d="M228 1258.36C228 1268.1 235.899 1276 245.643 1276C255.387 1276 263.286 1268.1 263.286 1258.36C263.286 1248.61 255.387 1240.71 245.643 1240.71C235.899 1240.71 228 1248.61 228 1258.36ZM234.5 1258.36C234.5 1264.51 239.489 1269.5 245.643 1269.5C251.797 1269.5 256.786 1264.51 256.786 1258.36C256.786 1252.2 251.797 1247.21 245.643 1247.21C239.489 1247.21 234.5 1252.2 234.5 1258.36Z" fill="#172E52"/>
<rect x="252.143" y="1207.29" width="39.9286" height="13" rx="6.5" transform="rotate(90 252.143 1207.29)" fill="#172E52"/>
<path fill-rule="evenodd" clip-rule="evenodd" d="M228 1163.64C228 1153.9 235.899 1146 245.643 1146C255.387 1146 263.286 1153.9 263.286 1163.64C263.286 1173.39 255.387 1181.29 245.643 1181.29C235.899 1181.29 228 1173.39 228 1163.64ZM234.5 1163.64C234.5 1157.49 239.489 1152.5 245.643 1152.5C251.797 1152.5 256.786 1157.49 256.786 1163.64C256.786 1169.8 251.797 1174.79 245.643 1174.79C239.489 1174.79 234.5 1169.8 234.5 1163.64Z" fill="#172E52"/>
<rect width="39.9286" height="13" rx="6.5" transform="matrix(-4.37114e-08 -1 -1 4.37114e-08 252.143 1214.71)" fill="#172E52"/>
<path fill-rule="evenodd" clip-rule="evenodd" d="M274 1258.36C274 1268.1 281.899 1276 291.643 1276C301.387 1276 309.286 1268.1 309.286 1258.36C309.286 1248.61 301.387 1240.71 291.643 1240.71C281.899 1240.71 274 1248.61 274 1258.36ZM280.5 1258.36C280.5 1264.51 285.489 1269.5 291.643 1269.5C297.797 1269.5 302.786 1264.51 302.786 1258.36C302.786 1252.2 297.797 1247.21 291.643 1247.21C285.489 1247.21 280.5 1252.2 280.5 1258.36Z" fill="#172E52"/>
<rect x="298.143" y="1207.29" width="39.9286" height="13" rx="6.5" transform="rotate(90 298.143 1207.29)" fill="#172E52"/>
<path fill-rule="evenodd" clip-rule="evenodd" d="M274 1163.64C274 1153.9 281.899 1146 291.643 1146C301.387 1146 309.286 1153.9 309.286 1163.64C309.286 1173.39 301.387 1181.29 291.643 1181.29C281.899 1181.29 274 1173.39 274 1163.64ZM280.5 1163.64C280.5 1157.49 285.489 1152.5 291.643 1152.5C297.797 1152.5 302.786 1157.49 302.786 1163.64C302.786 1169.8 297.797 1174.79 291.643 1174.79C285.489 1174.79 280.5 1169.8 280.5 1163.64Z" fill="#172E52"/>
<rect width="39.9286" height="13" rx="6.5" transform="matrix(-4.37114e-08 -1 -1 4.37114e-08 298.143 1214.71)" fill="#172E52"/>
<path fill-rule="evenodd" clip-rule="evenodd" d="M319 1258.36C319 1268.1 326.899 1276 336.643 1276C346.387 1276 354.286 1268.1 354.286 1258.36C354.286 1248.61 346.387 1240.71 336.643 1240.71C326.899 1240.71 319 1248.61 319 1258.36ZM325.5 1258.36C325.5 1264.51 330.489 1269.5 336.643 1269.5C342.797 1269.5 347.786 1264.51 347.786 1258.36C347.786 1252.2 342.797 1247.21 336.643 1247.21C330.489 1247.21 325.5 1252.2 325.5 1258.36Z" fill="#172E52"/>
<rect x="343.143" y="1207.29" width="39.9286" height="13" rx="6.5" transform="rotate(90 343.143 1207.29)" fill="#172E52"/>
<path fill-rule="evenodd" clip-rule="evenodd" d="M319 1163.64C319 1153.9 326.899 1146 336.643 1146C346.387 1146 354.286 1153.9 354.286 1163.64C354.286 1173.39 346.387 1181.29 336.643 1181.29C326.899 1181.29 319 1173.39 319 1163.64ZM325.5 1163.64C325.5 1157.49 330.489 1152.5 336.643 1152.5C342.797 1152.5 347.786 1157.49 347.786 1163.64C347.786 1169.8 342.797 1174.79 336.643 1174.79C330.489 1174.79 325.5 1169.8 325.5 1163.64Z" fill="#172E52"/>
<rect width="39.9286" height="13" rx="6.5" transform="matrix(-4.37114e-08 -1 -1 4.37114e-08 343.143 1214.71)" fill="#172E52"/>
<path fill-rule="evenodd" clip-rule="evenodd" d="M275 139.357C275 149.101 282.899 157 292.643 157C302.387 157 310.286 149.101 310.286 139.357C310.286 129.613 302.387 121.714 292.643 121.714C282.899 121.714 275 129.613 275 139.357ZM281.5 139.357C281.5 145.511 286.489 150.5 292.643 150.5C298.797 150.5 303.786 145.511 303.786 139.357C303.786 133.203 298.797 128.214 292.643 128.214C286.489 128.214 281.5 133.203 281.5 139.357Z" fill="#172E52"/>
<rect x="299.143" y="88.2858" width="39.9286" height="13" rx="6.5" transform="rotate(90 299.143 88.2858)" fill="#172E52"/>
<path fill-rule="evenodd" clip-rule="evenodd" d="M275 44.6429C275 34.899 282.899 27 292.643 27C302.387 27 310.286 34.899 310.286 44.6428C310.286 54.3867 302.387 62.2857 292.643 62.2857C282.899 62.2857 275 54.3867 275 44.6429ZM281.5 44.6429C281.5 38.4888 286.489 33.5 292.643 33.5C298.797 33.5 303.786 38.4888 303.786 44.6429C303.786 50.7969 298.797 55.7857 292.643 55.7857C286.489 55.7857 281.5 50.7969 281.5 44.6429Z" fill="#172E52"/>
<rect width="39.9286" height="13" rx="6.5" transform="matrix(-4.37114e-08 -1 -1 4.37114e-08 299.143 95.7143)" fill="#172E52"/>
<path fill-rule="evenodd" clip-rule="evenodd" d="M321 139.357C321 149.101 328.899 157 338.643 157C348.387 157 356.286 149.101 356.286 139.357C356.286 129.613 348.387 121.714 338.643 121.714C328.899 121.714 321 129.613 321 139.357ZM327.5 139.357C327.5 145.511 332.489 150.5 338.643 150.5C344.797 150.5 349.786 145.511 349.786 139.357C349.786 133.203 344.797 128.214 338.643 128.214C332.489 128.214 327.5 133.203 327.5 139.357Z" fill="#172E52"/>
<rect x="345.143" y="88.2858" width="39.9286" height="13" rx="6.5" transform="rotate(90 345.143 88.2858)" fill="#172E52"/>
<path fill-rule="evenodd" clip-rule="evenodd" d="M321 44.6429C321 34.899 328.899 27 338.643 27C348.387 27 356.286 34.899 356.286 44.6428C356.286 54.3867 348.387 62.2857 338.643 62.2857C328.899 62.2857 321 54.3867 321 44.6429ZM327.5 44.6429C327.5 38.4888 332.489 33.5 338.643 33.5C344.797 33.5 349.786 38.4888 349.786 44.6429C349.786 50.7969 344.797 55.7857 338.643 55.7857C332.489 55.7857 327.5 50.7969 327.5 44.6429Z" fill="#172E52"/>
<rect width="39.9286" height="13" rx="6.5" transform="matrix(-4.37114e-08 -1 -1 4.37114e-08 345.143 95.7143)" fill="#172E52"/>
<path fill-rule="evenodd" clip-rule="evenodd" d="M1044 1220.36C1044 1230.1 1051.9 1238 1061.64 1238C1071.39 1238 1079.29 1230.1 1079.29 1220.36C1079.29 1210.61 1071.39 1202.71 1061.64 1202.71C1051.9 1202.71 1044 1210.61 1044 1220.36ZM1050.5 1220.36C1050.5 1226.51 1055.49 1231.5 1061.64 1231.5C1067.8 1231.5 1072.79 1226.51 1072.79 1220.36C1072.79 1214.2 1067.8 1209.21 1061.64 1209.21C1055.49 1209.21 1050.5 1214.2 1050.5 1220.36Z" fill="#172E52"/>
<rect x="1068.14" y="1169.29" width="39.9286" height="13" rx="6.5" transform="rotate(90 1068.14 1169.29)" fill="#172E52"/>
<path fill-rule="evenodd" clip-rule="evenodd" d="M1044 1125.64C1044 1115.9 1051.9 1108 1061.64 1108C1071.39 1108 1079.29 1115.9 1079.29 1125.64C1079.29 1135.39 1071.39 1143.29 1061.64 1143.29C1051.9 1143.29 1044 1135.39 1044 1125.64ZM1050.5 1125.64C1050.5 1119.49 1055.49 1114.5 1061.64 1114.5C1067.8 1114.5 1072.79 1119.49 1072.79 1125.64C1072.79 1131.8 1067.8 1136.79 1061.64 1136.79C1055.49 1136.79 1050.5 1131.8 1050.5 1125.64Z" fill="#172E52"/>
<rect width="39.9286" height="13" rx="6.5" transform="matrix(-4.37114e-08 -1 -1 4.37114e-08 1068.14 1176.71)" fill="#172E52"/>
<path fill-rule="evenodd" clip-rule="evenodd" d="M1090 1220.36C1090 1230.1 1097.9 1238 1107.64 1238C1117.39 1238 1125.29 1230.1 1125.29 1220.36C1125.29 1210.61 1117.39 1202.71 1107.64 1202.71C1097.9 1202.71 1090 1210.61 1090 1220.36ZM1096.5 1220.36C1096.5 1226.51 1101.49 1231.5 1107.64 1231.5C1113.8 1231.5 1118.79 1226.51 1118.79 1220.36C1118.79 1214.2 1113.8 1209.21 1107.64 1209.21C1101.49 1209.21 1096.5 1214.2 1096.5 1220.36Z" fill="#172E52"/>
<rect x="1114.14" y="1169.29" width="39.9286" height="13" rx="6.5" transform="rotate(90 1114.14 1169.29)" fill="#172E52"/>
<path fill-rule="evenodd" clip-rule="evenodd" d="M1090 1125.64C1090 1115.9 1097.9 1108 1107.64 1108C1117.39 1108 1125.29 1115.9 1125.29 1125.64C1125.29 1135.39 1117.39 1143.29 1107.64 1143.29C1097.9 1143.29 1090 1135.39 1090 1125.64ZM1096.5 1125.64C1096.5 1119.49 1101.49 1114.5 1107.64 1114.5C1113.8 1114.5 1118.79 1119.49 1118.79 1125.64C1118.79 1131.8 1113.8 1136.79 1107.64 1136.79C1101.49 1136.79 1096.5 1131.8 1096.5 1125.64Z" fill="#172E52"/>
<rect width="39.9286" height="13" rx="6.5" transform="matrix(-4.37114e-08 -1 -1 4.37114e-08 1114.14 1176.71)" fill="#172E52"/>
<path fill-rule="evenodd" clip-rule="evenodd" d="M1068 70.3573C1068 80.1012 1075.9 88.0001 1085.64 88.0001C1095.39 88.0001 1103.29 80.1012 1103.29 70.3573C1103.29 60.6134 1095.39 52.7144 1085.64 52.7144C1075.9 52.7144 1068 60.6134 1068 70.3573ZM1074.5 70.3573C1074.5 76.5113 1079.49 81.5001 1085.64 81.5001C1091.8 81.5001 1096.79 76.5113 1096.79 70.3573C1096.79 64.2032 1091.8 59.2144 1085.64 59.2144C1079.49 59.2144 1074.5 64.2032 1074.5 70.3573Z" fill="#172E52"/>
<rect x="1092.14" y="19.2858" width="39.9286" height="13" rx="6.5" transform="rotate(90 1092.14 19.2858)" fill="#172E52"/>
<rect width="39.9286" height="13" rx="6.5" transform="matrix(-4.37114e-08 -1 -1 4.37114e-08 1092.14 26.7143)" fill="#172E52"/>
<path fill-rule="evenodd" clip-rule="evenodd" d="M1114 70.3573C1114 80.1012 1121.9 88.0001 1131.64 88.0001C1141.39 88.0001 1149.29 80.1012 1149.29 70.3573C1149.29 60.6134 1141.39 52.7144 1131.64 52.7144C1121.9 52.7144 1114 60.6134 1114 70.3573ZM1120.5 70.3573C1120.5 76.5113 1125.49 81.5001 1131.64 81.5001C1137.8 81.5001 1142.79 76.5113 1142.79 70.3573C1142.79 64.2032 1137.8 59.2144 1131.64 59.2144C1125.49 59.2144 1120.5 64.2032 1120.5 70.3573Z" fill="#172E52"/>
<rect x="1138.14" y="19.2858" width="39.9286" height="13" rx="6.5" transform="rotate(90 1138.14 19.2858)" fill="#172E52"/>
<rect width="39.9286" height="13" rx="6.5" transform="matrix(-4.37114e-08 -1 -1 4.37114e-08 1138.14 26.7143)" fill="#172E52"/>
<rect x="624" y="191" width="157" height="14" rx="6.99999" transform="rotate(-180 624 191)" fill="#172E52"/>
<rect x="482" y="184.899" width="88.2187" height="14" rx="7" transform="rotate(135 482 184.899)" fill="#172E52"/>
<path fill-rule="evenodd" clip-rule="evenodd" d="M408 233C397.507 233 389 241.507 389 252C389 262.493 397.507 271 408 271C418.493 271 427 262.493 427 252C427 241.507 418.493 233 408 233ZM408 240C401.373 240 396 245.373 396 252C396 258.627 401.373 264 408 264C414.627 264 420 258.627 420 252C420 245.373 414.627 240 408 240Z" fill="#172E52"/>
<rect x="615" y="177" width="325" height="14" rx="6.99999" fill="#172E52"/>
<rect x="925" y="183.101" width="88.2187" height="14" rx="7" transform="rotate(-45 925 183.101)" fill="#172E52"/>
<path fill-rule="evenodd" clip-rule="evenodd" d="M999 135C1009.49 135 1018 126.493 1018 116C1018 105.507 1009.49 97 999 97C988.507 97 980 105.507 980 116C980 126.493 988.507 135 999 135ZM999 128C1005.63 128 1011 122.627 1011 116C1011 109.373 1005.63 104 999 104C992.373 104 987 109.373 987 116C987 122.627 992.373 128 999 128Z" fill="#172E52"/>
<path fill-rule="evenodd" clip-rule="evenodd" d="M460 1182C449.507 1182 441 1173.49 441 1163C441 1152.51 449.507 1144 460 1144C470.493 1144 479 1152.51 479 1163C479 1173.49 470.493 1182 460 1182ZM460 1175C453.373 1175 448 1169.63 448 1163C448 1156.37 453.373 1151 460 1151C466.627 1151 472 1156.37 472 1163C472 1169.63 466.627 1175 460 1175Z" fill="#172E52"/>
<rect width="336" height="14" rx="7" transform="matrix(-1 0 0 1 808 1156)" fill="#172E52"/>
<path fill-rule="evenodd" clip-rule="evenodd" d="M984 1182C994.493 1182 1003 1173.49 1003 1163C1003 1152.51 994.493 1144 984 1144C973.507 1144 965 1152.51 965 1163C965 1173.49 973.507 1182 984 1182ZM984 1175C990.627 1175 996 1169.63 996 1163C996 1156.37 990.627 1151 984 1151C977.373 1151 972 1156.37 972 1163C972 1169.63 977.373 1175 984 1175Z" fill="#172E52"/>
<rect x="636" y="1156" width="336" height="14" rx="7" fill="#172E52"/>
<path fill-rule="evenodd" clip-rule="evenodd" d="M514 1090C503.507 1090 495 1081.49 495 1071C495 1060.51 503.507 1052 514 1052C524.493 1052 533 1060.51 533 1071C533 1081.49 524.493 1090 514 1090ZM514 1083C507.373 1083 502 1077.63 502 1071C502 1064.37 507.373 1059 514 1059C520.627 1059 526 1064.37 526 1071C526 1077.63 520.627 1083 514 1083Z" fill="#172E52"/>
<rect width="282" height="14" rx="7" transform="matrix(-1 0 0 1 808 1064)" fill="#172E52"/>
<path fill-rule="evenodd" clip-rule="evenodd" d="M930 1090C940.493 1090 949 1081.49 949 1071C949 1060.51 940.493 1052 930 1052C919.507 1052 911 1060.51 911 1071C911 1081.49 919.507 1090 930 1090ZM930 1083C936.627 1083 942 1077.63 942 1071C942 1064.37 936.627 1059 930 1059C923.373 1059 918 1064.37 918 1071C918 1077.63 923.373 1083 930 1083Z" fill="#172E52"/>
<rect x="636" y="1064" width="282" height="14" rx="7" fill="#172E52"/>
<path fill-rule="evenodd" clip-rule="evenodd" d="M588 1136C577.507 1136 569 1127.49 569 1117C569 1106.51 577.507 1098 588 1098C598.493 1098 607 1106.51 607 1117C607 1127.49 598.493 1136 588 1136ZM588 1129C581.373 1129 576 1123.63 576 1117C576 1110.37 581.373 1105 588 1105C594.627 1105 600 1110.37 600 1117C600 1123.63 594.627 1129 588 1129Z" fill="#172E52"/>
<rect width="208" height="14" rx="7" transform="matrix(-1 0 0 1 808 1110)" fill="#172E52"/>
<path fill-rule="evenodd" clip-rule="evenodd" d="M856 1136C866.493 1136 875 1127.49 875 1117C875 1106.51 866.493 1098 856 1098C845.507 1098 837 1106.51 837 1117C837 1127.49 845.507 1136 856 1136ZM856 1129C862.627 1129 868 1123.63 868 1117C868 1110.37 862.627 1105 856 1105C849.373 1105 844 1110.37 844 1117C844 1123.63 849.373 1129 856 1129Z" fill="#172E52"/>
<rect x="636" y="1110" width="208" height="14" rx="7" fill="#172E52"/>
<path fill-rule="evenodd" clip-rule="evenodd" d="M1314 660C1303.51 660 1295 651.493 1295 641C1295 630.507 1303.51 622 1314 622C1324.49 622 1333 630.507 1333 641C1333 651.493 1324.49 660 1314 660ZM1314 653C1307.37 653 1302 647.627 1302 641C1302 634.373 1307.37 629 1314 629C1320.63 629 1326 634.373 1326 641C1326 647.627 1320.63 653 1314 653Z" fill="#172E52"/>
<rect width="589" height="14" rx="6.99999" transform="matrix(-1 0 0 1 1915 634)" fill="#172E52"/>
<path fill-rule="evenodd" clip-rule="evenodd" d="M1388 706C1377.51 706 1369 697.493 1369 687C1369 676.507 1377.51 668 1388 668C1398.49 668 1407 676.507 1407 687C1407 697.493 1398.49 706 1388 706ZM1388 699C1381.37 699 1376 693.627 1376 687C1376 680.373 1381.37 675 1388 675C1394.63 675 1400 680.373 1400 687C1400 693.627 1394.63 699 1388 699Z" fill="#172E52"/>
<rect width="589" height="14" rx="6.99999" transform="matrix(-1 0 0 1 1989 680)" fill="#172E52"/>
<path fill-rule="evenodd" clip-rule="evenodd" d="M1262 614C1251.51 614 1243 605.493 1243 595C1243 584.507 1251.51 576 1262 576C1272.49 576 1281 584.507 1281 595C1281 605.493 1272.49 614 1262 614ZM1262 607C1255.37 607 1250 601.627 1250 595C1250 588.373 1255.37 583 1262 583C1268.63 583 1274 588.373 1274 595C1274 601.627 1268.63 607 1262 607Z" fill="#172E52"/>
<rect width="589" height="14" rx="6.99999" transform="matrix(-1 0 0 1 1863 588)" fill="#172E52"/>
<rect x="59.9999" y="475.001" width="172" height="14" rx="6.99999" transform="rotate(-180 59.9999 475.001)" fill="#172E52"/>
<rect width="235" height="14" rx="6.99999" transform="matrix(1 -8.74228e-08 -8.74228e-08 -1 -112 475.001)" fill="#172E52"/>
<rect width="104.641" height="14" rx="7" transform="matrix(0.707107 0.707107 0.707107 -0.707107 107 468.9)" fill="#172E52"/>
<path fill-rule="evenodd" clip-rule="evenodd" d="M194.057 527.764C204.55 527.764 213.057 536.271 213.057 546.764C213.057 557.257 204.55 565.764 194.057 565.764C183.563 565.764 175.057 557.257 175.057 546.764C175.057 536.271 183.563 527.764 194.057 527.764ZM194.057 534.764C200.684 534.764 206.057 540.137 206.057 546.764C206.057 553.391 200.684 558.764 194.057 558.764C187.429 558.764 182.057 553.391 182.057 546.764C182.057 540.137 187.429 534.764 194.057 534.764Z" fill="#172E52"/>
<rect width="366" height="14" rx="7" transform="matrix(-1 8.74228e-08 8.74228e-08 1 1581 958.707)" fill="#172E52"/>
<rect width="158.301" height="14" rx="7" transform="matrix(-0.707107 -0.707107 -0.707107 0.707107 1230 964.515)" fill="#172E52"/>
<path fill-rule="evenodd" clip-rule="evenodd" d="M1105 867.707C1094.51 867.707 1086 859.201 1086 848.707C1086 838.214 1094.51 829.707 1105 829.707C1115.49 829.707 1124 838.214 1124 848.707C1124 859.201 1115.49 867.707 1105 867.707ZM1105 860.707C1098.37 860.707 1093 855.334 1093 848.707C1093 842.08 1098.37 836.707 1105 836.707C1111.63 836.707 1117 842.08 1117 848.707C1117 855.334 1111.63 860.707 1105 860.707Z" fill="#172E52"/>
<rect width="366" height="14" rx="7" transform="matrix(-1 8.74228e-08 8.74228e-08 1 1603 917)" fill="#172E52"/>
<rect width="158.301" height="14" rx="7" transform="matrix(-0.707107 -0.707107 -0.707107 0.707107 1252 922.808)" fill="#172E52"/>
<path fill-rule="evenodd" clip-rule="evenodd" d="M1127 826C1116.51 826 1108 817.493 1108 807C1108 796.507 1116.51 788 1127 788C1137.49 788 1146 796.507 1146 807C1146 817.493 1137.49 826 1127 826ZM1127 819C1120.37 819 1115 813.627 1115 807C1115 800.373 1120.37 795 1127 795C1133.63 795 1139 800.373 1139 807C1139 813.627 1133.63 819 1127 819Z" fill="#172E52"/>
<path fill-rule="evenodd" clip-rule="evenodd" d="M1105 987C1094.51 987 1086 995.507 1086 1006C1086 1016.49 1094.51 1025 1105 1025C1115.49 1025 1124 1016.49 1124 1006C1124 995.507 1115.49 987 1105 987ZM1105 994C1098.37 994 1093 999.373 1093 1006C1093 1012.63 1098.37 1018 1105 1018C1111.63 1018 1117 1012.63 1117 1006C1117 999.373 1111.63 994 1105 994Z" fill="#172E52"/>
<rect x="1706" y="1013" width="589" height="14" rx="6.99999" transform="rotate(-180 1706 1013)" fill="#172E52"/>
<path fill-rule="evenodd" clip-rule="evenodd" d="M1270 861C1259.51 861 1251 869.507 1251 880C1251 890.493 1259.51 899 1270 899C1280.49 899 1289 890.493 1289 880C1289 869.507 1280.49 861 1270 861ZM1270 868C1263.37 868 1258 873.373 1258 880C1258 886.627 1263.37 892 1270 892C1276.63 892 1282 886.627 1282 880C1282 873.373 1276.63 868 1270 868Z" fill="#172E52"/>
<rect x="1871" y="887" width="589" height="14" rx="6.99999" transform="rotate(-180 1871 887)" fill="#172E52"/>
<path fill-rule="evenodd" clip-rule="evenodd" d="M1270 815C1259.51 815 1251 823.507 1251 834C1251 844.493 1259.51 853 1270 853C1280.49 853 1289 844.493 1289 834C1289 823.507 1280.49 815 1270 815ZM1270 822C1263.37 822 1258 827.373 1258 834C1258 840.627 1263.37 846 1270 846C1276.63 846 1282 840.627 1282 834C1282 827.373 1276.63 822 1270 822Z" fill="#172E52"/>
<rect x="1871" y="841" width="589" height="14" rx="6.99999" transform="rotate(-180 1871 841)" fill="#172E52"/>
<path fill-rule="evenodd" clip-rule="evenodd" d="M1270 861C1259.51 861 1251 869.507 1251 880C1251 890.493 1259.51 899 1270 899C1280.49 899 1289 890.493 1289 880C1289 869.507 1280.49 861 1270 861ZM1270 868C1263.37 868 1258 873.373 1258 880C1258 886.627 1263.37 892 1270 892C1276.63 892 1282 886.627 1282 880C1282 873.373 1276.63 868 1270 868Z" fill="#172E52"/>
<rect x="1871" y="887" width="589" height="14" rx="6.99999" transform="rotate(-180 1871 887)" fill="#172E52"/>
<path fill-rule="evenodd" clip-rule="evenodd" d="M1270 815C1259.51 815 1251 823.507 1251 834C1251 844.493 1259.51 853 1270 853C1280.49 853 1289 844.493 1289 834C1289 823.507 1280.49 815 1270 815ZM1270 822C1263.37 822 1258 827.373 1258 834C1258 840.627 1263.37 846 1270 846C1276.63 846 1282 840.627 1282 834C1282 827.373 1276.63 822 1270 822Z" fill="#172E52"/>
<rect x="1871" y="841" width="589" height="14" rx="6.99999" transform="rotate(-180 1871 841)" fill="#172E52"/>
</svg>
