<svg width="1440" height="994" viewBox="0 0 1440 994" fill="none" xmlns="http://www.w3.org/2000/svg">
<rect width="157" height="14" rx="6.99999" transform="matrix(-1 8.74228e-08 8.74228e-08 1 104 566)" fill="#313D6D"/>
<rect width="325" height="14" rx="6.99999" transform="matrix(1 -8.74228e-08 -8.74228e-08 -1 95 580)" fill="#313D6D"/>
<rect width="88.2187" height="14" rx="7" transform="matrix(0.707107 0.707107 0.707107 -0.707107 405 573.899)" fill="#313D6D"/>
<path fill-rule="evenodd" clip-rule="evenodd" d="M479 622C489.493 622 498 630.507 498 641C498 651.493 489.493 660 479 660C468.507 660 460 651.493 460 641C460 630.507 468.507 622 479 622ZM479 629C485.627 629 491 634.373 491 641C491 647.627 485.627 653 479 653C472.373 653 467 647.627 467 641C467 634.373 472.373 629 479 629Z" fill="#313D6D"/>
<path fill-rule="evenodd" clip-rule="evenodd" d="M451 729C461.493 729 470 720.493 470 710C470 699.507 461.493 691 451 691C440.507 691 432 699.507 432 710C432 720.493 440.507 729 451 729ZM451 722C457.627 722 463 716.627 463 710C463 703.373 457.627 698 451 698C444.373 698 439 703.373 439 710C439 716.627 444.373 722 451 722Z" fill="#313D6D"/>
<rect x="103" y="703" width="336" height="14" rx="7" fill="#313D6D"/>
<rect width="336" height="14" rx="7" transform="matrix(-1 0 0 1 275 703)" fill="#313D6D"/>
<path fill-rule="evenodd" clip-rule="evenodd" d="M347 637C357.493 637 366 628.493 366 618C366 607.507 357.493 599 347 599C336.507 599 328 607.507 328 618C328 628.493 336.507 637 347 637ZM347 630C353.627 630 359 624.627 359 618C359 611.373 353.627 606 347 606C340.373 606 335 611.373 335 618C335 624.627 340.373 630 347 630Z" fill="#313D6D"/>
<rect x="53" y="611" width="282" height="14" rx="7" fill="#313D6D"/>
<rect width="282" height="14" rx="7" transform="matrix(-1 0 0 1 275 611)" fill="#313D6D"/>
<path fill-rule="evenodd" clip-rule="evenodd" d="M306 683C316.493 683 325 674.493 325 664C325 653.507 316.493 645 306 645C295.507 645 287 653.507 287 664C287 674.493 295.507 683 306 683ZM306 676C312.627 676 318 670.627 318 664C318 657.373 312.627 652 306 652C299.373 652 294 657.373 294 664C294 670.627 299.373 676 306 676Z" fill="#313D6D"/>
<rect x="86" y="657" width="208" height="14" rx="7" fill="#313D6D"/>
<path fill-rule="evenodd" clip-rule="evenodd" d="M38 683C27.5066 683 19 674.493 19 664C19 653.507 27.5066 645 38 645C48.4934 645 57 653.507 57 664C57 674.493 48.4934 683 38 683ZM38 676C31.3726 676 26 670.627 26 664C26 657.373 31.3726 652 38 652C44.6274 652 50 657.373 50 664C50 670.627 44.6274 676 38 676Z" fill="#313D6D"/>
<rect width="208" height="14" rx="7" transform="matrix(-1 0 0 1 258 657)" fill="#313D6D"/>
<path fill-rule="evenodd" clip-rule="evenodd" d="M601 956C590.507 956 582 964.507 582 975C582 985.493 590.507 994 601 994C611.493 994 620 985.493 620 975C620 964.507 611.493 956 601 956ZM601 963C594.373 963 589 968.373 589 975C589 981.627 594.373 987 601 987C607.627 987 613 981.627 613 975C613 968.373 607.627 963 601 963Z" fill="#313D6D"/>
<rect x="821" y="982" width="208" height="14" rx="7" transform="rotate(180 821 982)" fill="#313D6D"/>
<path fill-rule="evenodd" clip-rule="evenodd" d="M869 956C879.493 956 888 964.507 888 975C888 985.493 879.493 994 869 994C858.507 994 850 985.493 850 975C850 964.507 858.507 956 869 956ZM869 963C875.627 963 881 968.373 881 975C881 981.627 875.627 987 869 987C862.373 987 857 981.627 857 975C857 968.373 862.373 963 869 963Z" fill="#313D6D"/>
<rect width="208" height="14" rx="7" transform="matrix(1 0 0 -1 649 982)" fill="#313D6D"/>
<rect width="172" height="14" rx="6.99999" transform="matrix(-1 8.74228e-08 8.74228e-08 1 134 184.763)" fill="#313D6D"/>
<rect x="-37.9999" y="184.763" width="235" height="14" rx="6.99999" fill="#313D6D"/>
<rect x="181" y="190.864" width="104.641" height="14" rx="7" transform="rotate(-45 181 190.864)" fill="#313D6D"/>
<path fill-rule="evenodd" clip-rule="evenodd" d="M268.057 132C278.55 132 287.057 123.493 287.057 113C287.057 102.507 278.55 94 268.057 94C257.563 94 249.057 102.507 249.057 113C249.057 123.493 257.563 132 268.057 132ZM268.057 125C274.684 125 280.057 119.627 280.057 113C280.057 106.373 274.684 101 268.057 101C261.429 101 256.057 106.373 256.057 113C256.057 119.627 261.429 125 268.057 125Z" fill="#313D6D"/>
<rect width="172" height="14" rx="6.99999" transform="matrix(-1 8.74228e-08 8.74228e-08 1 115 138.763)" fill="#313D6D"/>
<rect x="-56.9999" y="138.763" width="235" height="14" rx="6.99999" fill="#313D6D"/>
<rect x="162" y="144.864" width="104.641" height="14" rx="7" transform="rotate(-45 162 144.864)" fill="#313D6D"/>
<path fill-rule="evenodd" clip-rule="evenodd" d="M249.057 86C259.55 86 268.057 77.4934 268.057 67C268.057 56.5066 259.55 48 249.057 48C238.563 48 230.057 56.5066 230.057 67C230.057 77.4934 238.563 86 249.057 86ZM249.057 79C255.684 79 261.057 73.6274 261.057 67C261.057 60.3725 255.684 55 249.057 55C242.429 55 237.057 60.3725 237.057 67C237.057 73.6274 242.429 79 249.057 79Z" fill="#313D6D"/>
<rect width="172" height="14" rx="6.99999" transform="matrix(-1 8.74228e-08 8.74228e-08 1 99 90.7627)" fill="#313D6D"/>
<rect x="-72.9999" y="90.7627" width="235" height="14" rx="6.99999" fill="#313D6D"/>
<rect x="146" y="96.8643" width="104.641" height="14" rx="7" transform="rotate(-45 146 96.8643)" fill="#313D6D"/>
<path fill-rule="evenodd" clip-rule="evenodd" d="M233.057 38C243.55 38 252.057 29.4934 252.057 19C252.057 8.50659 243.55 2.5784e-06 233.057 1.66103e-06C222.563 7.4367e-07 214.057 8.50659 214.057 19C214.057 29.4934 222.563 38 233.057 38ZM233.057 31C239.684 31 245.057 25.6274 245.057 19C245.057 12.3725 239.684 6.99996 233.057 6.99996C226.429 6.99996 221.057 12.3725 221.057 19C221.057 25.6274 226.429 31 233.057 31Z" fill="#313D6D"/>
<path fill-rule="evenodd" clip-rule="evenodd" d="M176 213C186.493 213 195 221.507 195 232C195 242.493 186.493 251 176 251C165.507 251 157 242.493 157 232C157 221.507 165.507 213 176 213ZM176 220C182.627 220 188 225.373 188 232C188 238.627 182.627 244 176 244C169.373 244 164 238.627 164 232C164 225.373 169.373 220 176 220Z" fill="#313D6D"/>
<rect width="589" height="14" rx="6.99999" transform="matrix(1 0 0 -1 -425 239)" fill="#313D6D"/>
<path fill-rule="evenodd" clip-rule="evenodd" d="M214 266C224.493 266 233 274.507 233 285C233 295.493 224.493 304 214 304C203.507 304 195 295.493 195 285C195 274.507 203.507 266 214 266ZM214 273C220.627 273 226 278.373 226 285C226 291.627 220.627 297 214 297C207.373 297 202 291.627 202 285C202 278.373 207.373 273 214 273Z" fill="#313D6D"/>
<rect width="589" height="14" rx="6.99999" transform="matrix(1 0 0 -1 -387 292)" fill="#313D6D"/>
<path fill-rule="evenodd" clip-rule="evenodd" d="M1106 46C1095.51 46 1087 54.5066 1087 65C1087 75.4934 1095.51 84 1106 84C1116.49 84 1125 75.4934 1125 65C1125 54.5066 1116.49 46 1106 46ZM1106 53C1099.37 53 1094 58.3726 1094 65C1094 71.6275 1099.37 77 1106 77C1112.63 77 1118 71.6275 1118 65C1118 58.3726 1112.63 53 1106 53Z" fill="#313D6D"/>
<rect x="1707" y="72" width="589" height="14" rx="6.99999" transform="rotate(180 1707 72)" fill="#313D6D"/>
<path fill-rule="evenodd" clip-rule="evenodd" d="M1180 0C1169.51 0 1161 8.50659 1161 19C1161 29.4934 1169.51 38 1180 38C1190.49 38 1199 29.4934 1199 19C1199 8.50659 1190.49 0 1180 0ZM1180 7.00004C1173.37 7.00004 1168 12.3726 1168 19C1168 25.6275 1173.37 31 1180 31C1186.63 31 1192 25.6275 1192 19C1192 12.3726 1186.63 7.00004 1180 7.00004Z" fill="#313D6D"/>
<rect x="1781" y="26" width="589" height="14" rx="6.99999" transform="rotate(180 1781 26)" fill="#313D6D"/>
<path fill-rule="evenodd" clip-rule="evenodd" d="M1054 92C1043.51 92 1035 100.507 1035 111C1035 121.493 1043.51 130 1054 130C1064.49 130 1073 121.493 1073 111C1073 100.507 1064.49 92 1054 92ZM1054 99C1047.37 99 1042 104.373 1042 111C1042 117.627 1047.37 123 1054 123C1060.63 123 1066 117.627 1066 111C1066 104.373 1060.63 99 1054 99Z" fill="#313D6D"/>
<rect x="1655" y="118" width="589" height="14" rx="6.99999" transform="rotate(180 1655 118)" fill="#313D6D"/>
<path fill-rule="evenodd" clip-rule="evenodd" d="M110 379.643C110 369.899 117.899 362 127.643 362C137.387 362 145.286 369.899 145.286 379.643C145.286 389.387 137.387 397.286 127.643 397.286C117.899 397.286 110 389.387 110 379.643ZM116.5 379.643C116.5 373.489 121.489 368.5 127.643 368.5C133.797 368.5 138.786 373.489 138.786 379.643C138.786 385.797 133.797 390.786 127.643 390.786C121.489 390.786 116.5 385.797 116.5 379.643Z" fill="#313D6D"/>
<rect width="39.9286" height="13" rx="6.5" transform="matrix(-4.37114e-08 -1 -1 4.37114e-08 134.143 430.714)" fill="#313D6D"/>
<path fill-rule="evenodd" clip-rule="evenodd" d="M110 474.357C110 484.101 117.899 492 127.643 492C137.387 492 145.286 484.101 145.286 474.357C145.286 464.613 137.387 456.714 127.643 456.714C117.899 456.714 110 464.613 110 474.357ZM116.5 474.357C116.5 480.511 121.489 485.5 127.643 485.5C133.797 485.5 138.786 480.511 138.786 474.357C138.786 468.203 133.797 463.214 127.643 463.214C121.489 463.214 116.5 468.203 116.5 474.357Z" fill="#313D6D"/>
<rect x="134.143" y="423.286" width="39.9286" height="13" rx="6.5" transform="rotate(90 134.143 423.286)" fill="#313D6D"/>
<path fill-rule="evenodd" clip-rule="evenodd" d="M65 379.643C65 369.899 72.899 362 82.6428 362C92.3867 362 100.286 369.899 100.286 379.643C100.286 389.387 92.3867 397.286 82.6428 397.286C72.899 397.286 65 389.387 65 379.643ZM71.5 379.643C71.5 373.489 76.4888 368.5 82.6429 368.5C88.7969 368.5 93.7857 373.489 93.7857 379.643C93.7857 385.797 88.7969 390.786 82.6429 390.786C76.4888 390.786 71.5 385.797 71.5 379.643Z" fill="#313D6D"/>
<rect width="39.9286" height="13" rx="6.5" transform="matrix(-4.37114e-08 -1 -1 4.37114e-08 89.1428 430.714)" fill="#313D6D"/>
<path fill-rule="evenodd" clip-rule="evenodd" d="M65 474.357C65 484.101 72.899 492 82.6428 492C92.3867 492 100.286 484.101 100.286 474.357C100.286 464.613 92.3867 456.714 82.6428 456.714C72.899 456.714 65 464.613 65 474.357ZM71.5 474.357C71.5 480.511 76.4888 485.5 82.6429 485.5C88.7969 485.5 93.7857 480.511 93.7857 474.357C93.7857 468.203 88.7969 463.214 82.6429 463.214C76.4888 463.214 71.5 468.203 71.5 474.357Z" fill="#313D6D"/>
<rect x="89.1428" y="423.286" width="39.9286" height="13" rx="6.5" transform="rotate(90 89.1428 423.286)" fill="#313D6D"/>
<path fill-rule="evenodd" clip-rule="evenodd" d="M192.113 384.936C199.003 378.046 210.174 378.046 217.064 384.936C223.954 391.826 223.954 402.997 217.064 409.887C210.174 416.777 199.003 416.777 192.113 409.887C185.223 402.997 185.223 391.826 192.113 384.936ZM196.709 389.533C201.061 385.181 208.116 385.181 212.468 389.533C216.819 393.884 216.819 400.939 212.468 405.291C208.116 409.643 201.061 409.643 196.709 405.291C192.358 400.939 192.358 393.884 196.709 389.533Z" fill="#313D6D"/>
<rect width="39.9286" height="13" rx="6.5" transform="matrix(0.707107 -0.707107 -0.707107 -0.707107 173.072 438.121)" fill="#313D6D"/>
<path fill-rule="evenodd" clip-rule="evenodd" d="M155 474.357C155 484.101 162.899 492 172.643 492C182.387 492 190.286 484.101 190.286 474.357C190.286 464.613 182.387 456.714 172.643 456.714C162.899 456.714 155 464.613 155 474.357ZM161.5 474.357C161.5 480.511 166.489 485.5 172.643 485.5C178.797 485.5 183.786 480.511 183.786 474.357C183.786 468.203 178.797 463.214 172.643 463.214C166.489 463.214 161.5 468.203 161.5 474.357Z" fill="#313D6D"/>
<rect x="179.143" y="423.286" width="39.9286" height="13" rx="6.5" transform="rotate(90 179.143 423.286)" fill="#313D6D"/>
<rect x="625" y="718.999" width="161" height="14" rx="6.99999" fill="#313D6D"/>
<rect width="76.4837" height="14" rx="7" transform="matrix(-0.707107 -0.707107 -0.707107 0.707107 641.146 724.955)" fill="#313D6D"/>
<path fill-rule="evenodd" clip-rule="evenodd" d="M574 686C563.507 686 555 677.494 555 667C555 656.507 563.507 648 574 648C584.493 648 593 656.507 593 667C593 677.494 584.493 686 574 686ZM574 679C567.373 679 562 673.628 562 667C562 660.373 567.373 655 574 655C580.627 655 586 660.373 586 667C586 673.628 580.627 679 574 679Z" fill="#313D6D"/>
<rect x="770" y="724.954" width="76.4837" height="14" rx="7" transform="rotate(-45 770 724.954)" fill="#313D6D"/>
<path fill-rule="evenodd" clip-rule="evenodd" d="M837.146 686C847.64 686 856.146 677.493 856.146 667C856.146 656.507 847.64 648 837.146 648C826.653 648 818.146 656.507 818.146 667C818.146 677.493 826.653 686 837.146 686ZM837.146 679C843.774 679 849.146 673.627 849.146 667C849.146 660.373 843.774 655 837.146 655C830.519 655 825.146 660.373 825.146 667C825.146 673.627 830.519 679 837.146 679Z" fill="#313D6D"/>
<path fill-rule="evenodd" clip-rule="evenodd" d="M379.643 747C369.899 747 362 754.899 362 764.643C362 774.387 369.899 782.286 379.643 782.286C389.387 782.286 397.286 774.387 397.286 764.643C397.286 754.899 389.387 747 379.643 747ZM379.643 753.5C373.489 753.5 368.5 758.489 368.5 764.643C368.5 770.797 373.489 775.786 379.643 775.786C385.797 775.786 390.786 770.797 390.786 764.643C390.786 758.489 385.797 753.5 379.643 753.5Z" fill="#313D6D"/>
<rect x="430.714" y="771.143" width="39.9286" height="13" rx="6.5" transform="rotate(180 430.714 771.143)" fill="#313D6D"/>
<path fill-rule="evenodd" clip-rule="evenodd" d="M471.525 783.859C478.415 790.749 478.415 801.92 471.525 808.81C464.635 815.7 453.464 815.7 446.574 808.81C439.684 801.92 439.684 790.749 446.574 783.859C453.464 776.969 464.635 776.969 471.525 783.859ZM466.928 788.455C471.28 792.807 471.28 799.862 466.928 804.214C462.577 808.565 455.522 808.565 451.17 804.214C446.818 799.862 446.818 792.807 451.17 788.455C455.522 784.104 462.577 784.104 466.928 788.455Z" fill="#313D6D"/>
<rect width="39.9286" height="13" rx="6.5" transform="matrix(0.707107 0.707107 0.707107 -0.707107 418.34 764.818)" fill="#313D6D"/>
</svg>
