<?xml version="1.0" encoding="utf-8"?>
<!-- Generator: Adobe Illustrator 22.1.0, SVG Export Plug-In . SVG Version: 6.00 Build 0)  -->
<svg version="1.1" xmlns="http://www.w3.org/2000/svg" xmlns:xlink="http://www.w3.org/1999/xlink" x="0px" y="0px"
	 viewBox="0 0 481 201.5" style="enable-background:new 0 0 481 201.5;" xml:space="preserve">
<style type="text/css">
	.st0{enable-background:new    ;}
	.st1{fill:#FFFFFF;}
</style>
<g id="Layer_2">
</g>
<g id="Layer_1">
	<g>
		<g class="st0">
			<path class="st1" d="M4.7,7.1h36.7c13.7,0,25.8,2.6,36.3,7.7s18.7,12.6,24.5,22.4c5.9,9.8,8.8,21.4,8.8,34.6
				c0,13.3-2.9,24.8-8.8,34.6s-14,17.3-24.5,22.4c-10.5,5.1-22.6,7.7-36.3,7.7H4.7V7.1z M40.9,114.6c6.7,0,12.8-0.8,18.3-2.3
				s10.5-3.9,14.9-7.2c4.4-3.3,7.9-7.7,10.3-13.4c2.5-5.6,3.7-12.2,3.7-19.8c0-7.6-1.2-14.2-3.7-19.8S78.5,42,74.1,38.8
				c-4.4-3.3-9.3-5.7-14.9-7.3s-11.6-2.3-18.3-2.3H27.6v85.4C27.6,114.6,40.9,114.6,40.9,114.6z"/>
			<path class="st1" d="M129,79.1c2-5.3,4.9-10,8.5-14s8.2-7.2,13.6-9.6c5.4-2.4,11.4-3.5,17.8-3.5c8,0,15.2,2,21.6,6
				s11.4,9.3,15,15.9c3.5,6.6,5.3,13.8,5.3,21.6c0,2.5-0.2,4.7-0.5,6.8h-63.4c1.3,5.2,3.9,9.4,8,12.6c4.1,3.1,9.1,4.7,15.2,4.7
				c4,0,7.8-0.8,11.5-2.3c3.6-1.5,6.6-3.8,9-6.9l14.7,11.7c-3.8,5.3-8.7,9.5-15,12.5s-12.9,4.5-20,4.5c-8.2,0-15.7-1.9-22.5-5.6
				s-12.1-8.9-16-15.6c-3.9-6.6-5.8-13.9-5.8-21.9C126,90,127,84.4,129,79.1z M189.1,86.4c-0.6-4.2-2.9-7.7-6.8-10.6
				s-8.4-4.3-13.6-4.3c-5,0-9.3,1.4-13.1,4.1s-6.4,6.3-8,10.8H189.1z"/>
			<path class="st1" d="M237.6,64.6c8.6-8.4,19-12.6,31.2-12.6c7.7,0,14.9,1.8,21.4,5.3c6.6,3.6,11.8,8.4,15.8,14.4l-18.3,10.7
				c-2.1-3-4.8-5.4-8.1-7.2c-3.3-1.8-6.9-2.6-10.8-2.6c-6.3,0-11.7,2.3-16.2,6.8c-4.5,4.5-6.8,9.9-6.8,16c0,6.2,2.3,11.6,6.8,16.1
				c4.5,4.5,9.9,6.8,16.2,6.8c4,0,7.8-1,11.2-2.9s6.2-4.5,8.2-7.8l18.2,10.9c-3.9,6.2-9.2,11.2-15.9,14.9
				c-6.7,3.7-13.9,5.6-21.7,5.6c-8,0-15.4-2-22.2-5.9s-12.1-9.2-16-15.9s-5.9-14-5.9-21.8C224.7,83.3,229,73,237.6,64.6z"/>
			<path class="st1" d="M329.8,64.6c8.6-8.4,19-12.6,31.2-12.6c8.9,0,16.6,2.6,23.1,7.7v-6.2h21.5v83.1h-21.5v-5.4
				c-6.3,5.1-14,7.7-23.1,7.7c-8,0-15.4-2-22.2-5.9c-6.8-3.9-12.1-9.2-16-15.9c-3.9-6.7-5.9-14-5.9-21.8
				C316.9,83.3,321.2,73,329.8,64.6z M344.8,111.5c4.5,4.5,9.9,6.8,16.2,6.8c6.4,0,11.8-2.3,16.3-6.8s6.8-9.9,6.8-16.1
				s-2.2-11.5-6.8-16c-4.5-4.5-9.9-6.8-16.3-6.8c-6.3,0-11.7,2.3-16.2,6.8s-6.8,9.9-6.8,16C338.1,101.6,340.3,106.9,344.8,111.5z"/>
			<path class="st1" d="M422.2,53.5h12.2V34.1c0-8.5,2.1-15.1,6.3-19.9s10.7-7.1,19.4-7.1c6.4,0,11.8,0.7,16.2,2.1v19.1
				c-4.1-0.6-7.5-0.9-10.2-0.9c-3.5,0-6,0.8-7.7,2.5c-1.7,1.7-2.5,4.6-2.5,8.7v14.9h18.5v20.7h-18.5v62.5h-21.5V74.2h-12.2
				L422.2,53.5L422.2,53.5z"/>
		</g>
		<g>
			<path class="st1" d="M12.7,161.8v9.7h16.4v6.5H12.7v15.7h-8v-38.4h28.8v6.5H12.7z"/>
			<path class="st1" d="M75,174.6c0,12.3-7,19.8-18.5,19.8c-11.4,0-18.5-7.5-18.5-19.8s7.1-19.8,18.5-19.8
				C67.9,154.8,75,162.3,75,174.6z M46.3,174.6c0,8.6,3.7,13.2,10.2,13.2c6.4,0,10.1-4.7,10.1-13.2s-3.7-13.2-10.1-13.2
				C50.1,161.4,46.3,166,46.3,174.6z"/>
			<path class="st1" d="M98.2,179.1H91v14.7h-7.9v-38.4H100c8.7,0,14,4.3,14,11.9c0,5.5-2.9,9.4-7.9,10.9l10.1,15.6h-9L98.2,179.1z
				 M91,173h8c4.7,0,6.8-1.7,6.8-5.6c0-3.8-2.2-5.6-6.8-5.6h-8V173z"/>
			<path class="st1" d="M157.1,194.4c-11.4,0-18.5-7.5-18.5-19.8s7.2-19.8,18.4-19.8c7.9,0,13.7,3.3,15.9,10l-7.3,3.1
				c-1.3-4.7-3.8-6.5-8.3-6.5c-6.4,0-10.4,4.7-10.4,13.2c0,8.5,3.8,13.2,10.2,13.2c4.6,0,7.6-2.2,8.9-6.8l7.4,2.2
				C171,190.7,164.9,194.4,157.1,194.4z"/>
			<path class="st1" d="M215.3,174.6c0,12.3-7,19.8-18.5,19.8c-11.4,0-18.5-7.5-18.5-19.8s7.1-19.8,18.5-19.8
				C208.2,154.8,215.3,162.3,215.3,174.6z M186.6,174.6c0,8.6,3.7,13.2,10.2,13.2c6.4,0,10.1-4.7,10.1-13.2s-3.7-13.2-10.1-13.2
				C190.4,161.4,186.6,166,186.6,174.6z"/>
			<path class="st1" d="M265.2,193.8H258v-20l0.3-11.2h-0.1l-10.7,31.3H241l-10.6-31.3h-0.1l0.4,11.2v20h-7.3v-38.4H235l6.9,21
				l2.4,8.7h0.1l2.5-8.6l6.9-21h11.3V193.8z"/>
			<path class="st1" d="M305.5,167.7c0,7.6-5.2,12.1-14.1,12.1h-8.1v14h-8v-38.4h16.1C300.2,155.4,305.5,159.9,305.5,167.7z
				 M297.3,167.7c0-3.9-2.2-5.9-7.2-5.9h-6.9v11.8h6.9C295.1,173.6,297.3,171.6,297.3,167.7z"/>
			<path class="st1" d="M331.2,184.4h-14.8l-3.1,9.4H305l14-38.4h9.6l14,38.4h-8.3L331.2,184.4z M329.2,178.5l-3.7-10.8l-1.7-5.8
				h-0.1l-1.6,5.7l-3.7,10.9H329.2z"/>
			<path class="st1" d="M381.4,193.8h-9.2l-13.5-22.6l-3.3-6.5h-0.1l0.2,6.8v22.2h-7.2v-38.4h9.1l13.5,22.5l3.3,6.5h0.1l-0.2-6.8
				v-22.2h7.2V193.8z"/>
			<path class="st1" d="M399.4,193.8h-8v-38.4h8V193.8z"/>
			<path class="st1" d="M439.1,187.3v6.5h-29.6v-38.4h28.8v6.5h-20.8v9.5h16.4v6.2h-16.4v9.8H439.1z"/>
			<path class="st1" d="M476.3,162.2l-5.5,5.4c-2-4.1-5.2-6.2-10.4-6.2c-4.8,0-7.3,2-7.3,4.8c0,2.6,2.1,4,8.9,5.2
				c10.4,1.9,14.3,5.1,14.3,11.5c0,7.2-6.6,11.5-15.8,11.5c-8.7,0-13.7-2.5-16.9-7.2l4.8-5.7c3,5,6.7,6.3,11.9,6.3
				c4.9,0,7.6-1.6,7.6-4.5c0-2.1-2-3.3-8.4-4.6c-10.7-2.2-14.8-5.4-14.8-11.8c0-6.8,5.8-12.1,15.7-12.1
				C467.5,154.8,472.4,157.1,476.3,162.2z"/>
		</g>
	</g>
</g>
</svg>
