<?xml version="1.0" encoding="utf-8"?>
<!-- Generator: Adobe Illustrator 22.1.0, SVG Export Plug-In . SVG Version: 6.00 Build 0)  -->
<svg version="1.1" xmlns="http://www.w3.org/2000/svg" xmlns:xlink="http://www.w3.org/1999/xlink" x="0px" y="0px"
	 viewBox="0 0 316 388" style="enable-background:new 0 0 316 388;" xml:space="preserve">
<style type="text/css">
	.st0{fill:#00609E;}
	.st1{fill:url(#Bg_2_);}
	.st2{fill:#FFFFFF;}
</style>
<g id="Layer_2">
	<path id="Bg" class="st0" d="M38,0.5h240c21,0,38,17,38,38v311c0,21-17,38-38,38H38c-21,0-38-17-38-38v-311C0,17.5,17,0.5,38,0.5z"
		/>
	<linearGradient id="Bg_2_" gradientUnits="userSpaceOnUse" x1="-8.9984" y1="381.1642" x2="376.302" y2="-50.663">
		<stop  offset="0" style="stop-color:#000000;stop-opacity:0.4"/>
		<stop  offset="1" style="stop-color:#FFFFFF;stop-opacity:0"/>
	</linearGradient>
	<path id="Bg_1_" class="st1" d="M38,0.5h240c21,0,38,17,38,38v311c0,21-17,38-38,38H38c-21,0-38-17-38-38v-311
		C0,17.5,17,0.5,38,0.5z"/>
</g>
<g id="Layer_3">
	<g>
		<path class="st2" d="M32.6,150.9h18.3v5.4H38.7v7.2h11.1v5.4H38.7v7.5h12.5v5.4H32.6V150.9z"/>
		<path class="st2" d="M61.4,174.3c0,1,0.1,1.8,0.4,2.2c0.3,0.5,0.7,0.7,1.3,0.7c0.4,0,0.7,0,1-0.1c0.3-0.1,0.8-0.2,1.3-0.4l0.6,4.5
			c-0.5,0.2-1.2,0.5-2.2,0.7c-1,0.2-2,0.4-3,0.4c-1.7,0-2.9-0.4-3.8-1.2c-0.9-0.8-1.3-2.1-1.3-3.9v-26.4h5.7V174.3z"/>
		<path class="st2" d="M86,179.8c-0.9,0.7-2.1,1.3-3.6,1.8c-1.5,0.5-3.1,0.7-4.8,0.7c-3.5,0-6.1-1-7.8-3.1c-1.6-2.1-2.5-4.9-2.5-8.5
			c0-3.9,0.9-6.8,2.8-8.7c1.8-1.9,4.4-2.9,7.8-2.9c1.1,0,2.2,0.1,3.3,0.4s2,0.8,2.8,1.5c0.8,0.7,1.5,1.6,2,2.7
			c0.5,1.1,0.7,2.6,0.7,4.3c0,0.6,0,1.3-0.1,2c-0.1,0.7-0.2,1.4-0.3,2.2H73.1c0.1,1.8,0.6,3.2,1.4,4.2c0.9,0.9,2.3,1.4,4.2,1.4
			c1.2,0,2.3-0.2,3.2-0.5c1-0.4,1.7-0.7,2.2-1.1L86,179.8z M77.8,163.7c-1.5,0-2.6,0.4-3.3,1.3c-0.7,0.9-1.2,2.1-1.3,3.6h8.2
			c0.1-1.6-0.1-2.8-0.7-3.7C80.1,164.1,79.1,163.7,77.8,163.7z"/>
		<path class="st2" d="M97.8,171.2l0.7,3.4h0.2l0.6-3.5l3.7-11.4h6.2l-9.2,22.2h-3.5L87,159.7h6.6L97.8,171.2z"/>
		<path class="st2" d="M111,161c1.2-0.5,2.6-0.9,4.2-1.3c1.6-0.3,3.3-0.5,5.1-0.5c1.5,0,2.8,0.2,3.8,0.6c1,0.4,1.8,0.9,2.4,1.6
			c0.6,0.7,1,1.5,1.3,2.4c0.2,0.9,0.4,2,0.4,3.2c0,1.3,0,2.6-0.1,3.9c-0.1,1.3-0.1,2.6-0.2,3.8c0,1.3,0,2.5,0.1,3.7
			c0.1,1.2,0.3,2.3,0.7,3.4H124l-0.9-3h-0.2c-0.6,0.9-1.4,1.7-2.4,2.4c-1,0.7-2.4,1-4,1c-1,0-2-0.2-2.8-0.5
			c-0.8-0.3-1.5-0.7-2.1-1.3c-0.6-0.6-1-1.2-1.4-2c-0.3-0.8-0.5-1.6-0.5-2.6c0-1.3,0.3-2.5,0.9-3.4c0.6-0.9,1.5-1.7,2.6-2.2
			c1.1-0.6,2.5-1,4-1.2c1.6-0.2,3.3-0.3,5.3-0.2c0.2-1.6,0.1-2.8-0.4-3.5c-0.4-0.7-1.4-1.1-2.9-1.1c-1.1,0-2.4,0.1-3.6,0.4
			c-1.3,0.2-2.3,0.5-3.1,0.9L111,161z M118.3,177.3c1.1,0,2.1-0.3,2.7-0.8c0.7-0.5,1.2-1.1,1.5-1.7v-2.9c-0.9-0.1-1.8-0.1-2.6,0
			c-0.8,0.1-1.6,0.2-2.2,0.4c-0.6,0.2-1.2,0.5-1.5,0.9c-0.4,0.4-0.6,0.9-0.6,1.5c0,0.8,0.2,1.5,0.7,1.9
			C116.7,177.1,117.4,177.3,118.3,177.3z"/>
		<path class="st2" d="M130.7,159.7h3v-4.1l5.7-1.6v5.8h5.4v4.8h-5.4v8.4c0,1.5,0.2,2.6,0.5,3.3c0.3,0.7,0.9,1,1.7,1
			c0.6,0,1.1-0.1,1.5-0.2c0.4-0.1,0.9-0.3,1.4-0.5l1,4.4c-0.8,0.4-1.7,0.7-2.8,1c-1.1,0.3-2.1,0.4-3.2,0.4c-2,0-3.5-0.5-4.5-1.6
			c-1-1-1.4-2.8-1.4-5.1v-11.1h-3V159.7z"/>
		<path class="st2" d="M147,170.7c0-3.7,0.9-6.6,2.7-8.6c1.8-2,4.4-3,7.7-3c1.8,0,3.3,0.3,4.6,0.8c1.3,0.6,2.4,1.3,3.2,2.4
			c0.9,1,1.5,2.2,1.9,3.7c0.4,1.4,0.6,3,0.6,4.8c0,3.7-0.9,6.6-2.7,8.6c-1.8,2-4.3,3-7.6,3c-1.8,0-3.3-0.3-4.6-0.8
			c-1.3-0.6-2.4-1.3-3.2-2.4c-0.9-1-1.5-2.2-1.9-3.7C147.3,174,147,172.4,147,170.7z M152.9,170.7c0,1,0.1,1.9,0.3,2.7
			c0.2,0.8,0.4,1.5,0.8,2.2s0.8,1.1,1.4,1.4c0.6,0.3,1.3,0.5,2,0.5c1.5,0,2.6-0.5,3.3-1.6c0.7-1.1,1.1-2.8,1.1-5.1
			c0-2-0.3-3.7-1-4.9c-0.7-1.2-1.8-1.9-3.4-1.9c-1.4,0-2.5,0.5-3.3,1.6C153.3,166.6,152.9,168.3,152.9,170.7z"/>
		<path class="st2" d="M183.9,165.1c-0.9-0.3-1.7-0.5-2.5-0.5c-1,0-1.9,0.3-2.6,0.8s-1.2,1.2-1.4,2.1v14.2h-5.7v-22h4.4l0.7,2.9h0.2
			c0.5-1.1,1.2-1.9,2-2.5s1.8-0.9,3-0.9c0.8,0,1.6,0.2,2.6,0.5L183.9,165.1z"/>
		<path class="st2" d="M198.4,151.2c1.2-0.2,2.6-0.4,4.1-0.5s3-0.2,4.4-0.2c1.5,0,3.1,0.1,4.6,0.4c1.5,0.2,2.9,0.7,4.2,1.5
			c1.2,0.7,2.2,1.8,3,3.1c0.8,1.3,1.2,3.1,1.2,5.2c0,1.9-0.3,3.6-1,4.9c-0.7,1.3-1.6,2.4-2.7,3.3c-1.1,0.9-2.4,1.5-3.8,1.8
			c-1.4,0.4-2.9,0.6-4.4,0.6c-0.1,0-0.4,0-0.7,0c-0.3,0-0.7,0-1,0c-0.4,0-0.7,0-1-0.1c-0.3,0-0.6-0.1-0.7-0.1v10.6h-6V151.2z
			 M207.4,155.6c-0.6,0-1.1,0-1.7,0.1s-1,0.1-1.3,0.2v10c0.1,0,0.3,0.1,0.5,0.1c0.2,0,0.5,0.1,0.7,0.1s0.5,0,0.8,0s0.4,0,0.6,0
			c0.8,0,1.6-0.1,2.4-0.2s1.5-0.4,2.1-0.8c0.6-0.4,1.1-0.9,1.5-1.6c0.4-0.7,0.5-1.6,0.5-2.8c0-1-0.2-1.8-0.5-2.4
			c-0.4-0.6-0.8-1.1-1.4-1.5c-0.6-0.4-1.2-0.6-2-0.8C208.9,155.7,208.2,155.6,207.4,155.6z"/>
		<path class="st2" d="M223.2,153.5c0-0.9,0.3-1.6,0.9-2.2c0.6-0.6,1.5-0.9,2.6-0.9c1.1,0,2,0.3,2.7,0.9c0.7,0.6,1,1.3,1,2.2
			c0,0.9-0.3,1.6-1,2.1c-0.7,0.6-1.6,0.9-2.7,0.9c-1.1,0-2-0.3-2.6-0.9C223.5,155.1,223.2,154.3,223.2,153.5z M224,159.7h5.7v22H224
			V159.7z"/>
		<path class="st2" d="M233,159.7h3v-4.1l5.7-1.6v5.8h5.4v4.8h-5.4v8.4c0,1.5,0.2,2.6,0.5,3.3c0.3,0.7,0.9,1,1.7,1
			c0.6,0,1.1-0.1,1.5-0.2c0.4-0.1,0.9-0.3,1.4-0.5l1,4.4c-0.8,0.4-1.7,0.7-2.8,1c-1.1,0.3-2.1,0.4-3.2,0.4c-2,0-3.5-0.5-4.5-1.6
			s-1.4-2.8-1.4-5.1v-11.1h-3V159.7z"/>
		<path class="st2" d="M266,180.3c-0.9,0.6-1.9,1.1-3.2,1.5s-2.5,0.5-3.8,0.5c-1.8,0-3.2-0.3-4.5-0.8c-1.2-0.6-2.2-1.3-3-2.4
			c-0.8-1-1.3-2.2-1.7-3.7c-0.3-1.4-0.5-3-0.5-4.8c0-3.7,0.8-6.6,2.5-8.6c1.7-2,4.1-3,7.3-3c1.6,0,2.9,0.1,3.9,0.4
			c1,0.3,1.9,0.6,2.7,1l-1.4,4.7c-0.7-0.3-1.3-0.6-2-0.7s-1.4-0.3-2.3-0.3c-1.6,0-2.8,0.5-3.6,1.6c-0.8,1-1.2,2.7-1.2,5
			c0,0.9,0.1,1.8,0.3,2.6c0.2,0.8,0.5,1.5,0.9,2.1c0.4,0.6,0.9,1,1.6,1.4c0.7,0.3,1.4,0.5,2.3,0.5c1,0,1.8-0.1,2.5-0.4
			c0.7-0.2,1.3-0.5,1.8-0.9L266,180.3z"/>
		<path class="st2" d="M283,181.7v-12.5c0-1.8-0.2-3.1-0.7-3.9s-1.4-1.2-2.7-1.2c-1,0-1.9,0.3-2.7,1c-0.8,0.7-1.3,1.5-1.6,2.5v14
			h-5.7v-30.8h5.7v11.3h0.2c0.7-0.9,1.6-1.7,2.6-2.2c1-0.6,2.3-0.8,3.9-0.8c1.1,0,2.1,0.1,2.9,0.4c0.9,0.3,1.6,0.8,2.1,1.5
			s1,1.6,1.3,2.8c0.3,1.2,0.4,2.6,0.4,4.3v13.7H283z"/>
		<path class="st2" d="M40.6,218.1l0.6,5.5h0.2L42,218l5.4-17.1h4l5.3,17.2l0.6,5.5h0.2l0.7-5.5l3.7-17.1h6.1l-8.5,31h-4l-5.5-17.1
			l-0.7-4.7h-0.2l-0.7,4.8l-5.5,17.1h-4.3l-8.4-31h6.6L40.6,218.1z"/>
		<path class="st2" d="M67,220.7c0-3.7,0.9-6.6,2.7-8.6c1.8-2,4.4-3,7.7-3c1.8,0,3.3,0.3,4.6,0.8c1.3,0.6,2.4,1.3,3.2,2.4
			c0.9,1,1.5,2.2,1.9,3.7c0.4,1.4,0.6,3,0.6,4.8c0,3.7-0.9,6.6-2.7,8.6c-1.8,2-4.3,3-7.6,3c-1.8,0-3.3-0.3-4.6-0.8
			c-1.3-0.6-2.4-1.3-3.2-2.4c-0.9-1-1.5-2.2-1.9-3.7C67.3,224,67,222.4,67,220.7z M72.9,220.7c0,1,0.1,1.9,0.3,2.7
			c0.2,0.8,0.4,1.5,0.8,2.2s0.8,1.1,1.4,1.4c0.6,0.3,1.3,0.5,2,0.5c1.5,0,2.6-0.5,3.3-1.6c0.7-1.1,1.1-2.8,1.1-5.1
			c0-2-0.3-3.7-1-4.9c-0.7-1.2-1.8-1.9-3.4-1.9c-1.4,0-2.5,0.5-3.3,1.6C73.3,216.6,72.9,218.3,72.9,220.7z"/>
		<path class="st2" d="M103.9,215.1c-0.9-0.3-1.7-0.5-2.5-0.5c-1,0-1.9,0.3-2.6,0.8c-0.7,0.5-1.2,1.2-1.4,2.1v14.2h-5.7v-22h4.4
			l0.7,2.9H97c0.5-1.1,1.2-1.9,2-2.5c0.9-0.6,1.8-0.9,3-0.9c0.8,0,1.6,0.2,2.6,0.5L103.9,215.1z"/>
		<path class="st2" d="M114.4,222.6h-1.5v9.1h-5.7v-30.8h5.7v18.2l1.3-0.6l5-8.8h6.3l-5.3,8.4l-2.2,1.7l2.4,1.7l5.9,10.3h-6.6
			L114.4,222.6z"/>
		<path class="st2" d="M137.9,225.6c0-0.6-0.2-1.1-0.7-1.4c-0.5-0.4-1.1-0.7-1.8-1c-0.7-0.3-1.5-0.6-2.4-0.9
			c-0.9-0.3-1.7-0.7-2.4-1.3c-0.7-0.5-1.3-1.2-1.8-2.1c-0.5-0.8-0.7-1.9-0.7-3.2c0-2.2,0.6-3.8,1.9-5c1.3-1.1,3.2-1.7,5.6-1.7
			c1.7,0,3.2,0.2,4.5,0.5c1.3,0.4,2.4,0.7,3.2,1.2l-1.3,4.1c-0.7-0.3-1.5-0.5-2.6-0.8c-1-0.3-2.1-0.4-3.1-0.4c-1.7,0-2.6,0.7-2.6,2
			c0,0.5,0.2,1,0.7,1.3c0.5,0.3,1.1,0.6,1.8,0.9c0.7,0.3,1.5,0.6,2.4,0.9c0.9,0.3,1.7,0.7,2.4,1.3c0.7,0.5,1.3,1.2,1.8,2
			c0.5,0.8,0.7,1.9,0.7,3.2c0,2.2-0.7,4-2.1,5.3c-1.4,1.3-3.6,1.9-6.4,1.9c-1.6,0-3-0.2-4.4-0.6c-1.4-0.4-2.5-0.9-3.3-1.4l1.6-4.3
			c0.7,0.4,1.6,0.8,2.7,1.1c1.1,0.4,2.3,0.5,3.4,0.5c0.9,0,1.5-0.2,2-0.5C137.6,226.9,137.9,226.4,137.9,225.6z"/>
		<path class="st2" d="M160.8,231.7v-12.5c0-1.8-0.2-3.1-0.7-3.9c-0.5-0.8-1.4-1.2-2.7-1.2c-1,0-1.9,0.3-2.7,1
			c-0.8,0.7-1.3,1.5-1.6,2.5v14h-5.7v-30.8h5.7v11.3h0.2c0.7-0.9,1.6-1.7,2.6-2.2c1-0.6,2.3-0.8,3.9-0.8c1.1,0,2.1,0.1,2.9,0.4
			c0.9,0.3,1.6,0.8,2.1,1.5s1,1.6,1.3,2.8c0.3,1.2,0.4,2.6,0.4,4.3v13.7H160.8z"/>
		<path class="st2" d="M170.3,220.7c0-3.7,0.9-6.6,2.7-8.6c1.8-2,4.4-3,7.7-3c1.8,0,3.3,0.3,4.6,0.8c1.3,0.6,2.4,1.3,3.2,2.4
			c0.9,1,1.5,2.2,1.9,3.7c0.4,1.4,0.6,3,0.6,4.8c0,3.7-0.9,6.6-2.7,8.6c-1.8,2-4.3,3-7.6,3c-1.8,0-3.3-0.3-4.6-0.8
			c-1.3-0.6-2.4-1.3-3.2-2.4c-0.9-1-1.5-2.2-1.9-3.7C170.5,224,170.3,222.4,170.3,220.7z M176.2,220.7c0,1,0.1,1.9,0.3,2.7
			c0.2,0.8,0.4,1.5,0.8,2.2c0.4,0.6,0.8,1.1,1.4,1.4c0.6,0.3,1.3,0.5,2,0.5c1.5,0,2.6-0.5,3.3-1.6s1.1-2.8,1.1-5.1
			c0-2-0.3-3.7-1-4.9c-0.7-1.2-1.8-1.9-3.4-1.9c-1.4,0-2.5,0.5-3.3,1.6C176.6,216.6,176.2,218.3,176.2,220.7z"/>
		<path class="st2" d="M195,209.7h4.2l0.7,2.6h0.2c0.8-1.1,1.7-1.9,2.7-2.5c1-0.5,2.3-0.8,3.8-0.8c2.8,0,4.8,0.9,6.2,2.6
			c1.4,1.7,2.1,4.6,2.1,8.4c0,1.9-0.2,3.6-0.7,5.1c-0.4,1.5-1.1,2.8-2,3.9c-0.9,1.1-1.9,1.9-3.2,2.4c-1.2,0.6-2.7,0.8-4.3,0.8
			c-0.9,0-1.7-0.1-2.2-0.2c-0.6-0.1-1.2-0.3-1.8-0.6v9H195V209.7z M204.8,213.9c-1.1,0-2,0.3-2.6,0.8c-0.6,0.6-1.1,1.4-1.5,2.5v9.2
			c0.4,0.3,0.9,0.6,1.3,0.8s1.1,0.3,1.9,0.3c1.6,0,2.9-0.6,3.7-1.7c0.8-1.2,1.2-3.1,1.2-5.7c0-1.9-0.3-3.4-1-4.5
			C207.2,214.4,206.2,213.9,204.8,213.9z"/>
	</g>
	<g>
		<path class="st2" d="M37.7,276.9h-4.1l-1,2.9H30l4.8-13.4h1.9l4.8,13.4h-2.7L37.7,276.9z M34.3,274.8h2.9l-1-3l-0.4-2.1h-0.1
			l-0.4,2.1L34.3,274.8z"/>
		<path class="st2" d="M48.4,276.3c0-0.4-0.1-0.7-0.4-1c-0.3-0.3-0.7-0.5-1.1-0.7c-0.4-0.2-0.9-0.4-1.5-0.6c-0.5-0.2-1-0.5-1.5-0.8
			c-0.4-0.3-0.8-0.7-1.1-1.2c-0.3-0.5-0.4-1.1-0.4-1.8c0-0.6,0.1-1.2,0.3-1.7c0.2-0.5,0.5-0.9,0.9-1.2s0.9-0.6,1.4-0.7
			c0.5-0.2,1.2-0.2,1.8-0.2c0.8,0,1.5,0.1,2.2,0.2s1.2,0.3,1.7,0.6l-0.8,2.2c-0.3-0.2-0.7-0.3-1.3-0.5c-0.6-0.1-1.2-0.2-1.8-0.2
			c-0.6,0-1.1,0.1-1.4,0.4c-0.3,0.2-0.5,0.6-0.5,1c0,0.4,0.1,0.7,0.4,0.9c0.3,0.3,0.7,0.5,1.1,0.7c0.4,0.2,0.9,0.4,1.5,0.7
			c0.5,0.2,1,0.5,1.5,0.8c0.4,0.3,0.8,0.7,1.1,1.2c0.3,0.5,0.4,1.1,0.4,1.8c0,0.7-0.1,1.3-0.4,1.8s-0.6,0.9-1,1.3
			c-0.4,0.3-0.9,0.6-1.5,0.8c-0.6,0.2-1.3,0.2-2,0.2c-1,0-1.8-0.1-2.5-0.3c-0.7-0.2-1.3-0.4-1.6-0.5l0.8-2.2
			c0.1,0.1,0.3,0.2,0.5,0.2c0.2,0.1,0.5,0.2,0.8,0.2c0.3,0.1,0.6,0.1,0.9,0.2c0.3,0.1,0.6,0.1,1,0.1c0.8,0,1.4-0.1,1.8-0.4
			C48.2,277.2,48.4,276.8,48.4,276.3z"/>
		<path class="st2" d="M63,273l0.3-2.6h-0.1l-0.8,2.1l-2.8,5h-0.8l-3-5l-0.8-2.1h-0.1l0.4,2.6v6.9h-2.5v-13.3h2.4l3.6,6.1l0.6,1.5
			h0.1l0.6-1.6l3.4-6h2.4v13.3H63V273z"/>
		<path class="st2" d="M76.3,279.9h-8.4v-13.3h2.6v11h5.8V279.9z"/>
		<path class="st2" d="M90.3,279.3c-0.4,0.3-0.9,0.5-1.5,0.6c-0.6,0.1-1.3,0.2-1.9,0.2c-0.8,0-1.6-0.1-2.3-0.4
			c-0.7-0.2-1.3-0.6-1.9-1.2s-1-1.3-1.3-2.1c-0.3-0.9-0.5-1.9-0.5-3.2c0-1.3,0.2-2.4,0.5-3.3c0.4-0.9,0.8-1.6,1.4-2.1
			c0.6-0.5,1.2-0.9,1.9-1.2c0.7-0.2,1.4-0.4,2.1-0.4c0.8,0,1.4,0.1,1.9,0.2c0.5,0.1,1,0.2,1.3,0.4l-0.5,2.2c-0.3-0.1-0.6-0.2-1-0.3
			c-0.4-0.1-0.9-0.1-1.5-0.1c-1.1,0-1.9,0.4-2.5,1.1c-0.6,0.7-1,1.9-1,3.5c0,0.7,0.1,1.3,0.2,1.9c0.2,0.6,0.4,1,0.7,1.4
			c0.3,0.4,0.7,0.7,1.2,0.9c0.5,0.2,1,0.3,1.6,0.3c0.6,0,1.1-0.1,1.4-0.2c0.4-0.1,0.7-0.3,1-0.4L90.3,279.3z"/>
		<path class="st2" d="M90.7,275.1c0-1.6,0.4-2.8,1.2-3.7c0.8-0.9,1.9-1.3,3.3-1.3c0.8,0,1.4,0.1,2,0.4c0.6,0.2,1,0.6,1.4,1
			c0.4,0.4,0.6,1,0.8,1.6c0.2,0.6,0.3,1.3,0.3,2.1c0,1.6-0.4,2.8-1.2,3.7c-0.8,0.9-1.9,1.3-3.3,1.3c-0.8,0-1.4-0.1-2-0.4
			c-0.6-0.2-1-0.6-1.4-1c-0.4-0.4-0.7-1-0.8-1.6C90.8,276.5,90.7,275.9,90.7,275.1z M93.2,275.1c0,0.4,0,0.8,0.1,1.2
			c0.1,0.4,0.2,0.7,0.3,0.9c0.2,0.3,0.4,0.5,0.6,0.6c0.2,0.1,0.5,0.2,0.9,0.2c0.6,0,1.1-0.2,1.4-0.7c0.3-0.5,0.5-1.2,0.5-2.2
			c0-0.9-0.1-1.6-0.4-2.1s-0.8-0.8-1.5-0.8c-0.6,0-1.1,0.2-1.4,0.7S93.2,274.1,93.2,275.1z"/>
		<path class="st2" d="M107.2,279.9v-5.4c0-0.8-0.1-1.3-0.3-1.7c-0.2-0.3-0.6-0.5-1.1-0.5c-0.5,0-0.9,0.1-1.2,0.4
			c-0.3,0.3-0.6,0.6-0.7,1v6.2h-2.5v-9.5h2l0.3,1.3h0.1c0.3-0.4,0.7-0.8,1.2-1.1c0.5-0.3,1.1-0.5,1.9-0.5c0.5,0,0.9,0.1,1.3,0.2
			c0.4,0.1,0.7,0.3,0.9,0.6c0.3,0.3,0.4,0.7,0.6,1.2c0.1,0.5,0.2,1.1,0.2,1.9v5.9H107.2z"/>
		<path class="st2" d="M110.8,270.4h1.3v-0.5c0-1.2,0.3-2.1,0.8-2.6c0.5-0.5,1.2-0.8,2.2-0.8c1,0,1.9,0.1,2.5,0.4l-0.5,2
			c-0.3-0.1-0.5-0.2-0.8-0.2s-0.5,0-0.7,0c-0.3,0-0.5,0-0.6,0.1s-0.3,0.2-0.3,0.4s-0.1,0.4-0.1,0.6c0,0.2,0,0.5,0,0.8h2.1v2.1h-2.1
			v7.4h-2.5v-7.4h-1.3V270.4z"/>
		<path class="st2" d="M125.3,279c-0.4,0.3-0.9,0.6-1.5,0.8s-1.3,0.3-2.1,0.3c-1.5,0-2.7-0.4-3.4-1.3c-0.7-0.9-1.1-2.1-1.1-3.7
			c0-1.7,0.4-2.9,1.2-3.8s1.9-1.3,3.4-1.3c0.5,0,1,0.1,1.4,0.2c0.5,0.1,0.9,0.3,1.2,0.6c0.4,0.3,0.6,0.7,0.9,1.2
			c0.2,0.5,0.3,1.1,0.3,1.8c0,0.3,0,0.6,0,0.9c0,0.3-0.1,0.6-0.1,1h-5.7c0,0.8,0.2,1.4,0.6,1.8c0.4,0.4,1,0.6,1.8,0.6
			c0.5,0,1-0.1,1.4-0.2c0.4-0.2,0.7-0.3,0.9-0.5L125.3,279z M121.8,272.1c-0.6,0-1.1,0.2-1.4,0.6c-0.3,0.4-0.5,0.9-0.6,1.5h3.5
			c0-0.7-0.1-1.2-0.3-1.6C122.7,272.2,122.3,272.1,121.8,272.1z"/>
		<path class="st2" d="M132.6,272.7c-0.4-0.1-0.7-0.2-1.1-0.2c-0.4,0-0.8,0.1-1.1,0.4s-0.5,0.5-0.6,0.9v6.1h-2.5v-9.5h1.9l0.3,1.3
			h0.1c0.2-0.5,0.5-0.8,0.9-1.1c0.4-0.3,0.8-0.4,1.3-0.4c0.3,0,0.7,0.1,1.1,0.2L132.6,272.7z"/>
		<path class="st2" d="M141.6,279c-0.4,0.3-0.9,0.6-1.5,0.8s-1.3,0.3-2.1,0.3c-1.5,0-2.7-0.4-3.4-1.3c-0.7-0.9-1.1-2.1-1.1-3.7
			c0-1.7,0.4-2.9,1.2-3.8s1.9-1.3,3.4-1.3c0.5,0,1,0.1,1.4,0.2c0.5,0.1,0.9,0.3,1.2,0.6c0.4,0.3,0.6,0.7,0.9,1.2
			c0.2,0.5,0.3,1.1,0.3,1.8c0,0.3,0,0.6,0,0.9c0,0.3-0.1,0.6-0.1,1H136c0,0.8,0.2,1.4,0.6,1.8c0.4,0.4,1,0.6,1.8,0.6
			c0.5,0,1-0.1,1.4-0.2c0.4-0.2,0.7-0.3,0.9-0.5L141.6,279z M138.1,272.1c-0.6,0-1.1,0.2-1.4,0.6c-0.3,0.4-0.5,0.9-0.6,1.5h3.5
			c0-0.7-0.1-1.2-0.3-1.6C139.1,272.2,138.6,272.1,138.1,272.1z"/>
		<path class="st2" d="M149.5,279.9v-5.4c0-0.8-0.1-1.3-0.3-1.7c-0.2-0.3-0.6-0.5-1.1-0.5c-0.5,0-0.9,0.1-1.2,0.4
			c-0.3,0.3-0.6,0.6-0.7,1v6.2h-2.5v-9.5h2l0.3,1.3h0.1c0.3-0.4,0.7-0.8,1.2-1.1c0.5-0.3,1.1-0.5,1.9-0.5c0.5,0,0.9,0.1,1.3,0.2
			c0.4,0.1,0.7,0.3,0.9,0.6c0.3,0.3,0.4,0.7,0.6,1.2c0.1,0.5,0.2,1.1,0.2,1.9v5.9H149.5z"/>
		<path class="st2" d="M160.8,279.3c-0.4,0.3-0.8,0.5-1.4,0.6c-0.5,0.1-1.1,0.2-1.7,0.2c-0.8,0-1.4-0.1-1.9-0.4
			c-0.5-0.2-1-0.6-1.3-1c-0.3-0.4-0.6-1-0.7-1.6c-0.1-0.6-0.2-1.3-0.2-2.1c0-1.6,0.4-2.8,1.1-3.7c0.7-0.9,1.8-1.3,3.2-1.3
			c0.7,0,1.3,0.1,1.7,0.2c0.4,0.1,0.8,0.3,1.1,0.4l-0.6,2c-0.3-0.1-0.6-0.2-0.9-0.3s-0.6-0.1-1-0.1c-0.7,0-1.2,0.2-1.6,0.7
			c-0.4,0.4-0.5,1.2-0.5,2.2c0,0.4,0,0.8,0.1,1.1s0.2,0.6,0.4,0.9c0.2,0.3,0.4,0.5,0.7,0.6s0.6,0.2,1,0.2c0.4,0,0.8-0.1,1.1-0.2
			s0.6-0.2,0.8-0.4L160.8,279.3z"/>
		<path class="st2" d="M169.5,279c-0.4,0.3-0.9,0.6-1.5,0.8s-1.3,0.3-2.1,0.3c-1.5,0-2.7-0.4-3.4-1.3c-0.7-0.9-1.1-2.1-1.1-3.7
			c0-1.7,0.4-2.9,1.2-3.8c0.8-0.8,1.9-1.3,3.4-1.3c0.5,0,0.9,0.1,1.4,0.2c0.5,0.1,0.9,0.3,1.2,0.6c0.4,0.3,0.6,0.7,0.9,1.2
			c0.2,0.5,0.3,1.1,0.3,1.8c0,0.3,0,0.6,0,0.9c0,0.3-0.1,0.6-0.1,1h-5.7c0,0.8,0.2,1.4,0.6,1.8c0.4,0.4,1,0.6,1.8,0.6
			c0.5,0,1-0.1,1.4-0.2s0.7-0.3,0.9-0.5L169.5,279z M166,272.1c-0.6,0-1.1,0.2-1.4,0.6c-0.3,0.4-0.5,0.9-0.6,1.5h3.5
			c0-0.7-0.1-1.2-0.3-1.6C167,272.2,166.6,272.1,166,272.1z"/>
		<path class="st2" d="M185.2,279.3c-0.4,0.3-0.9,0.5-1.5,0.6c-0.6,0.1-1.3,0.2-1.9,0.2c-0.8,0-1.6-0.1-2.3-0.4
			c-0.7-0.2-1.3-0.6-1.9-1.2s-1-1.3-1.3-2.1c-0.3-0.9-0.5-1.9-0.5-3.2c0-1.3,0.2-2.4,0.5-3.3c0.4-0.9,0.8-1.6,1.4-2.1
			c0.6-0.5,1.2-0.9,1.9-1.2c0.7-0.2,1.4-0.4,2.1-0.4c0.8,0,1.4,0.1,1.9,0.2s1,0.2,1.3,0.4l-0.5,2.2c-0.3-0.1-0.6-0.2-1-0.3
			c-0.4-0.1-0.9-0.1-1.5-0.1c-1.1,0-1.9,0.4-2.5,1.1c-0.6,0.7-1,1.9-1,3.5c0,0.7,0.1,1.3,0.2,1.9c0.2,0.6,0.4,1,0.7,1.4
			c0.3,0.4,0.7,0.7,1.2,0.9c0.5,0.2,1,0.3,1.6,0.3c0.6,0,1.1-0.1,1.4-0.2c0.4-0.1,0.7-0.3,1-0.4L185.2,279.3z"/>
		<path class="st2" d="M193.7,279c-0.4,0.3-0.9,0.6-1.5,0.8s-1.3,0.3-2.1,0.3c-1.5,0-2.7-0.4-3.4-1.3c-0.7-0.9-1.1-2.1-1.1-3.7
			c0-1.7,0.4-2.9,1.2-3.8c0.8-0.8,1.9-1.3,3.4-1.3c0.5,0,1,0.1,1.4,0.2c0.5,0.1,0.9,0.3,1.2,0.6c0.4,0.3,0.6,0.7,0.9,1.2
			c0.2,0.5,0.3,1.1,0.3,1.8c0,0.3,0,0.6,0,0.9c0,0.3-0.1,0.6-0.1,1h-5.7c0,0.8,0.2,1.4,0.6,1.8c0.4,0.4,1,0.6,1.8,0.6
			c0.5,0,1-0.1,1.4-0.2c0.4-0.2,0.7-0.3,0.9-0.5L193.7,279z M190.2,272.1c-0.6,0-1.1,0.2-1.4,0.6c-0.3,0.4-0.5,0.9-0.6,1.5h3.5
			c0.1-0.7-0.1-1.2-0.3-1.6C191.1,272.2,190.7,272.1,190.2,272.1z"/>
		<path class="st2" d="M201.6,279.9v-5.4c0-0.8-0.1-1.3-0.3-1.7c-0.2-0.3-0.6-0.5-1.1-0.5c-0.5,0-0.9,0.1-1.2,0.4
			c-0.3,0.3-0.6,0.6-0.7,1v6.2h-2.5v-9.5h2l0.3,1.3h0.1c0.3-0.4,0.7-0.8,1.2-1.1c0.5-0.3,1.1-0.5,1.9-0.5c0.5,0,0.9,0.1,1.3,0.2
			c0.4,0.1,0.7,0.3,0.9,0.6c0.3,0.3,0.4,0.7,0.6,1.2c0.1,0.5,0.2,1.1,0.2,1.9v5.9H201.6z"/>
		<path class="st2" d="M205.1,270.4h1.3v-1.8l2.5-0.7v2.5h2.3v2.1h-2.3v3.6c0,0.7,0.1,1.1,0.2,1.4s0.4,0.4,0.8,0.4
			c0.3,0,0.5,0,0.7-0.1s0.4-0.1,0.6-0.2l0.4,1.9c-0.3,0.2-0.7,0.3-1.2,0.4c-0.5,0.1-0.9,0.2-1.4,0.2c-0.9,0-1.5-0.2-1.9-0.7
			c-0.4-0.5-0.6-1.2-0.6-2.2v-4.8h-1.3V270.4z"/>
		<path class="st2" d="M220.2,279c-0.4,0.3-0.9,0.6-1.5,0.8s-1.3,0.3-2.1,0.3c-1.5,0-2.7-0.4-3.4-1.3c-0.7-0.9-1.1-2.1-1.1-3.7
			c0-1.7,0.4-2.9,1.2-3.8c0.8-0.8,1.9-1.3,3.4-1.3c0.5,0,1,0.1,1.4,0.2c0.5,0.1,0.9,0.3,1.2,0.6c0.4,0.3,0.6,0.7,0.9,1.2
			c0.2,0.5,0.3,1.1,0.3,1.8c0,0.3,0,0.6,0,0.9c0,0.3-0.1,0.6-0.1,1h-5.7c0,0.8,0.2,1.4,0.6,1.8c0.4,0.4,1,0.6,1.8,0.6
			c0.5,0,1-0.1,1.4-0.2c0.4-0.2,0.7-0.3,0.9-0.5L220.2,279z M216.7,272.1c-0.6,0-1.1,0.2-1.4,0.6c-0.3,0.4-0.5,0.9-0.6,1.5h3.5
			c0.1-0.7-0.1-1.2-0.3-1.6C217.7,272.2,217.2,272.1,216.7,272.1z"/>
		<path class="st2" d="M227.5,272.7c-0.4-0.1-0.7-0.2-1.1-0.2c-0.4,0-0.8,0.1-1.1,0.4c-0.3,0.2-0.5,0.5-0.6,0.9v6.1h-2.5v-9.5h1.9
			l0.3,1.3h0.1c0.2-0.5,0.5-0.8,0.9-1.1c0.4-0.3,0.8-0.4,1.3-0.4c0.3,0,0.7,0.1,1.1,0.2L227.5,272.7z"/>
	</g>
	<g>
		<path class="st2" d="M40.6,294.3h-3.9v11h-2.6v-11h-3.9V292h10.4V294.3z"/>
		<path class="st2" d="M49.4,299.7h-4.9v5.6h-2.6V292h2.6v5.4h4.9V292H52v13.3h-2.6V299.7z"/>
		<path class="st2" d="M61.5,292H64v8.6c0,0.9-0.1,1.6-0.3,2.2c-0.2,0.6-0.5,1.1-0.9,1.5c-0.4,0.4-0.9,0.7-1.5,0.9
			c-0.6,0.2-1.2,0.3-1.9,0.3c-3.4,0-5.1-1.5-5.1-4.6V292h2.6v8.4c0,0.5,0,1,0.1,1.3c0.1,0.4,0.2,0.7,0.4,0.9s0.5,0.4,0.8,0.5
			c0.3,0.1,0.7,0.1,1.1,0.1c0.8,0,1.4-0.2,1.7-0.7c0.4-0.4,0.5-1.2,0.5-2.1V292z"/>
		<path class="st2" d="M66.2,292.1c0.3-0.1,0.6-0.1,0.9-0.1c0.3,0,0.7-0.1,1-0.1s0.7,0,1-0.1c0.3,0,0.6,0,0.9,0
			c0.6,0,1.2,0.1,1.8,0.2c0.6,0.1,1.1,0.3,1.6,0.6c0.5,0.3,0.9,0.7,1.1,1.2c0.3,0.5,0.4,1.1,0.4,1.8c0,1.1-0.3,2-0.8,2.7
			c-0.5,0.7-1.2,1.2-2,1.4l0.9,0.6l3,5.1h-3l-3-5.2l-1.4-0.2v5.5h-2.6V292.1z M70.2,294.1c-0.3,0-0.5,0-0.8,0c-0.3,0-0.5,0-0.6,0.1
			v3.9h1.1c0.7,0,1.3-0.2,1.7-0.5c0.4-0.3,0.6-0.9,0.6-1.6c0-0.6-0.2-1-0.5-1.3C71.4,294.3,70.9,294.1,70.2,294.1z"/>
		<path class="st2" d="M83.4,301.7c0-0.4-0.1-0.7-0.4-1c-0.3-0.3-0.7-0.5-1.1-0.7c-0.4-0.2-0.9-0.4-1.5-0.6c-0.5-0.2-1-0.5-1.5-0.8
			c-0.4-0.3-0.8-0.7-1.1-1.2c-0.3-0.5-0.4-1.1-0.4-1.8c0-0.6,0.1-1.2,0.3-1.7c0.2-0.5,0.5-0.9,0.9-1.2s0.9-0.6,1.4-0.7
			c0.5-0.2,1.2-0.2,1.8-0.2c0.8,0,1.5,0.1,2.2,0.2s1.2,0.3,1.7,0.6l-0.8,2.2c-0.3-0.2-0.7-0.3-1.3-0.5c-0.6-0.1-1.2-0.2-1.8-0.2
			c-0.6,0-1.1,0.1-1.4,0.4c-0.3,0.2-0.5,0.6-0.5,1c0,0.4,0.1,0.7,0.4,0.9c0.3,0.3,0.7,0.5,1.1,0.7c0.4,0.2,0.9,0.4,1.5,0.7
			c0.5,0.2,1,0.5,1.5,0.8c0.4,0.3,0.8,0.7,1.1,1.2c0.3,0.5,0.4,1.1,0.4,1.8c0,0.7-0.1,1.3-0.4,1.8s-0.6,0.9-1,1.3
			c-0.4,0.3-0.9,0.6-1.5,0.8c-0.6,0.2-1.3,0.2-2,0.2c-1,0-1.8-0.1-2.5-0.3c-0.7-0.2-1.3-0.4-1.6-0.5l0.8-2.2
			c0.1,0.1,0.3,0.2,0.5,0.2c0.2,0.1,0.5,0.2,0.8,0.2c0.3,0.1,0.6,0.1,0.9,0.2c0.3,0.1,0.6,0.1,1,0.1c0.8,0,1.4-0.1,1.8-0.4
			C83.2,302.7,83.4,302.3,83.4,301.7z"/>
		<path class="st2" d="M93.9,292h2.6v9.7c0,0.5-0.1,1-0.2,1.4c-0.1,0.5-0.3,0.9-0.6,1.2c-0.3,0.3-0.6,0.6-1,0.8s-0.9,0.3-1.5,0.3
			c-0.4,0-0.8,0-1.2-0.1c-0.4-0.1-0.8-0.2-1.1-0.3l0.6-2.1c0.3,0.2,0.7,0.2,1.1,0.2c0.5,0,0.9-0.2,1-0.6c0.1-0.4,0.2-0.9,0.2-1.6
			V292z"/>
		<path class="st2" d="M105.4,302.4h-4.1l-1,2.9h-2.6l4.8-13.4h1.9l4.8,13.4h-2.7L105.4,302.4z M102,300.3h2.9l-1-3l-0.4-2.1h-0.1
			l-0.4,2.1L102,300.3z"/>
		<path class="st2" d="M113.7,298.4l-1-2.1h-0.1l0.3,2.1v6.9h-2.5v-13.4h1.9l5,7.1l1,2h0.1l-0.3-2v-7h2.5v13.4h-1.9L113.7,298.4z"/>
		<path class="st2" d="M127.3,298.6c0-2.3,0.4-4.1,1.2-5.2s1.9-1.7,3.4-1.7c1.6,0,2.8,0.6,3.5,1.7c0.7,1.1,1.1,2.9,1.1,5.2
			c0,2.3-0.4,4.1-1.2,5.2c-0.8,1.1-2,1.7-3.4,1.7c-1.6,0-2.7-0.6-3.5-1.8S127.3,300.9,127.3,298.6z M129.7,298.6
			c0,1.5,0.2,2.7,0.5,3.6c0.3,0.8,0.9,1.3,1.7,1.3c0.7,0,1.3-0.4,1.6-1.2c0.3-0.8,0.5-2,0.5-3.7c0-1.5-0.2-2.7-0.5-3.6
			c-0.3-0.8-0.9-1.3-1.7-1.3c-0.8,0-1.3,0.4-1.6,1.2S129.7,297,129.7,298.6z"/>
		<path class="st2" d="M138.1,296.2c0-0.6,0.1-1.2,0.3-1.8s0.5-1,0.9-1.4c0.4-0.4,0.8-0.7,1.4-0.9c0.5-0.2,1.2-0.3,1.9-0.3
			c1.4,0,2.6,0.4,3.4,1.3c0.8,0.9,1.2,2.1,1.2,3.7c0,1.5-0.2,2.7-0.6,3.8c-0.4,1.1-0.9,2-1.5,2.7s-1.4,1.3-2.2,1.6s-1.7,0.6-2.6,0.7
			l-0.5-1.9c0.7-0.1,1.3-0.3,1.9-0.5c0.5-0.3,1-0.6,1.4-0.9c0.4-0.4,0.7-0.8,1-1.3s0.4-1,0.5-1.5c-0.3,0.3-0.6,0.6-1,0.7
			c-0.3,0.1-0.8,0.2-1.4,0.2c-0.5,0-1-0.1-1.4-0.2c-0.5-0.2-0.9-0.4-1.3-0.8c-0.4-0.3-0.7-0.8-0.9-1.3
			C138.3,297.5,138.1,296.9,138.1,296.2z M140.5,296c0,0.7,0.2,1.3,0.6,1.6c0.4,0.4,0.9,0.6,1.5,0.6c0.5,0,0.9-0.1,1.3-0.2
			c0.3-0.2,0.6-0.4,0.8-0.6c0-0.3,0.1-0.5,0.1-0.8c0-0.4,0-0.7-0.1-1s-0.2-0.6-0.4-0.9c-0.2-0.3-0.4-0.5-0.7-0.6
			c-0.3-0.2-0.6-0.2-1-0.2c-0.6,0-1.1,0.2-1.4,0.6S140.5,295.3,140.5,296z"/>
		<path class="st2" d="M161.9,295.3c0,0.6-0.1,1.3-0.4,2c-0.2,0.7-0.5,1.3-0.9,1.9c-0.4,0.6-0.8,1.2-1.2,1.8
			c-0.4,0.6-0.9,1.1-1.3,1.6l-1,0.8v0.1l1.4-0.3h3.6v2.1h-8V304c0.3-0.3,0.6-0.7,1-1.1c0.4-0.4,0.8-0.9,1.1-1.3
			c0.4-0.5,0.8-1,1.1-1.5c0.4-0.5,0.7-1,1-1.5c0.3-0.5,0.5-1,0.7-1.5s0.3-0.9,0.3-1.4c0-0.5-0.1-0.9-0.4-1.3
			c-0.3-0.3-0.8-0.5-1.4-0.5c-0.4,0-0.8,0.1-1.2,0.3c-0.4,0.2-0.8,0.4-1.1,0.7l-1-1.7c0.5-0.4,1.1-0.7,1.7-1s1.4-0.4,2.2-0.4
			c0.5,0,1,0.1,1.5,0.2c0.5,0.2,0.8,0.4,1.2,0.7c0.3,0.3,0.6,0.7,0.8,1.1C161.8,294.2,161.9,294.7,161.9,295.3z"/>
		<path class="st2" d="M164.4,298.6c0-2.3,0.4-4.1,1.2-5.2c0.8-1.1,1.9-1.7,3.4-1.7c1.6,0,2.8,0.6,3.5,1.7s1.1,2.9,1.1,5.2
			c0,2.3-0.4,4.1-1.2,5.2c-0.8,1.1-2,1.7-3.4,1.7c-1.6,0-2.8-0.6-3.5-1.8C164.8,302.6,164.4,300.9,164.4,298.6z M166.9,298.6
			c0,1.5,0.2,2.7,0.5,3.6c0.3,0.8,0.9,1.3,1.7,1.3c0.7,0,1.3-0.4,1.6-1.2c0.3-0.8,0.5-2,0.5-3.7c0-1.5-0.2-2.7-0.5-3.6
			c-0.3-0.8-0.9-1.3-1.7-1.3c-0.8,0-1.3,0.4-1.6,1.2S166.9,297,166.9,298.6z"/>
		<path class="st2" d="M183.4,295.3c0,0.6-0.1,1.3-0.4,2c-0.2,0.7-0.5,1.3-0.9,1.9c-0.4,0.6-0.8,1.2-1.2,1.8s-0.9,1.1-1.3,1.6
			l-1,0.8v0.1l1.4-0.3h3.6v2.1h-8V304c0.3-0.3,0.6-0.7,1-1.1c0.4-0.4,0.8-0.9,1.1-1.3c0.4-0.5,0.8-1,1.1-1.5s0.7-1,1-1.5
			s0.5-1,0.7-1.5c0.2-0.5,0.3-0.9,0.3-1.4c0-0.5-0.1-0.9-0.4-1.3c-0.3-0.3-0.8-0.5-1.4-0.5c-0.4,0-0.8,0.1-1.2,0.3
			c-0.4,0.2-0.8,0.4-1.1,0.7l-1-1.7c0.5-0.4,1.1-0.7,1.7-1s1.4-0.4,2.2-0.4c0.5,0,1,0.1,1.5,0.2c0.5,0.2,0.8,0.4,1.2,0.7
			c0.3,0.3,0.6,0.7,0.8,1.1C183.3,294.2,183.4,294.7,183.4,295.3z"/>
		<path class="st2" d="M185.9,298.6c0-2.3,0.4-4.1,1.2-5.2c0.8-1.1,1.9-1.7,3.4-1.7c1.6,0,2.8,0.6,3.5,1.7s1.1,2.9,1.1,5.2
			c0,2.3-0.4,4.1-1.2,5.2c-0.8,1.1-2,1.7-3.4,1.7c-1.6,0-2.8-0.6-3.5-1.8C186.3,302.6,185.9,300.9,185.9,298.6z M188.4,298.6
			c0,1.5,0.2,2.7,0.5,3.6c0.3,0.8,0.9,1.3,1.7,1.3c0.7,0,1.3-0.4,1.6-1.2c0.3-0.8,0.5-2,0.5-3.7c0-1.5-0.2-2.7-0.5-3.6
			c-0.3-0.8-0.9-1.3-1.7-1.3c-0.8,0-1.3,0.4-1.6,1.2S188.4,297,188.4,298.6z"/>
		<path class="st2" d="M201.6,299.3c0-0.4,0.1-0.8,0.4-1.1c0.3-0.3,0.6-0.4,1.1-0.4c0.5,0,0.9,0.1,1.1,0.4c0.3,0.3,0.4,0.6,0.4,1.1
			s-0.1,0.8-0.4,1.1c-0.3,0.3-0.7,0.4-1.1,0.4c-0.5,0-0.8-0.1-1.1-0.4C201.8,300.1,201.6,299.8,201.6,299.3z"/>
		<path class="st2" d="M220.3,301.2c0,0.6-0.1,1.2-0.3,1.7c-0.2,0.5-0.5,1-0.9,1.4c-0.4,0.4-0.8,0.7-1.4,0.9
			c-0.5,0.2-1.1,0.3-1.8,0.3c-0.7,0-1.3-0.1-1.8-0.3c-0.6-0.2-1-0.5-1.4-0.9s-0.7-0.9-0.9-1.6c-0.2-0.6-0.3-1.4-0.3-2.2
			c0-1.3,0.2-2.4,0.5-3.4s0.8-1.9,1.5-2.7c0.6-0.8,1.3-1.4,2.1-1.8c0.8-0.5,1.7-0.8,2.6-0.9l0.6,2c-0.6,0.1-1.2,0.3-1.7,0.6
			c-0.5,0.3-1,0.6-1.4,1c-0.4,0.4-0.8,0.9-1,1.4c-0.3,0.5-0.5,1-0.6,1.5c0.3-0.3,0.6-0.6,1-0.8c0.4-0.2,0.9-0.3,1.5-0.3
			c0.6,0,1.1,0.1,1.6,0.3c0.5,0.2,0.9,0.4,1.2,0.8s0.6,0.8,0.8,1.3C220.2,300,220.3,300.5,220.3,301.2z M217.9,301.3
			c0-1.4-0.7-2.1-2.1-2.1c-0.5,0-0.9,0.1-1.3,0.3c-0.3,0.2-0.6,0.5-0.7,0.8c0,0.1,0,0.3,0,0.4c0,0.1,0,0.2,0,0.3
			c0,0.3,0,0.6,0.1,0.9s0.2,0.6,0.4,0.8c0.2,0.2,0.4,0.4,0.7,0.6c0.3,0.1,0.6,0.2,0.9,0.2c0.6,0,1.1-0.2,1.5-0.6
			C217.7,302.5,217.9,302,217.9,301.3z"/>
		<path class="st2" d="M226.2,298.8h4.8v2.2h-4.8V298.8z"/>
		<path class="st2" d="M236.4,302.1c0-0.4,0.1-0.8,0.2-1.2c0.1-0.3,0.3-0.7,0.5-1s0.5-0.5,0.7-0.8c0.3-0.2,0.6-0.4,0.9-0.6
			c-0.6-0.4-1.1-0.8-1.5-1.4c-0.4-0.5-0.5-1.1-0.5-1.9c0-0.5,0.1-1,0.3-1.4c0.2-0.4,0.4-0.8,0.8-1.1s0.8-0.6,1.3-0.7
			s1.1-0.3,1.7-0.3c0.6,0,1.1,0.1,1.6,0.2s0.9,0.4,1.2,0.6c0.3,0.3,0.6,0.6,0.8,1c0.2,0.4,0.3,0.8,0.3,1.3c0,0.7-0.2,1.4-0.5,1.9
			c-0.3,0.5-0.8,1-1.5,1.4c0.8,0.4,1.3,0.9,1.7,1.5c0.4,0.5,0.6,1.2,0.6,2.1c0,0.6-0.1,1.1-0.3,1.5c-0.2,0.5-0.5,0.9-0.9,1.2
			c-0.4,0.3-0.8,0.6-1.4,0.8c-0.5,0.2-1.1,0.3-1.7,0.3c-0.6,0-1.2-0.1-1.7-0.3c-0.5-0.2-0.9-0.4-1.3-0.7s-0.6-0.7-0.8-1.1
			C236.5,303.1,236.4,302.6,236.4,302.1z M242.5,301.8c0-0.3-0.1-0.6-0.2-0.8c-0.1-0.2-0.3-0.5-0.5-0.7c-0.2-0.2-0.5-0.4-0.7-0.5
			c-0.3-0.2-0.5-0.3-0.8-0.5c-0.6,0.3-1,0.7-1.2,1.1c-0.2,0.4-0.3,0.8-0.3,1.2c0,0.5,0.2,0.9,0.5,1.3c0.3,0.4,0.8,0.5,1.5,0.5
			c0.6,0,1-0.1,1.4-0.4C242.4,302.8,242.5,302.4,242.5,301.8z M239.1,295.3c0,0.3,0.1,0.6,0.2,0.8c0.1,0.2,0.3,0.4,0.5,0.6
			c0.2,0.2,0.4,0.3,0.7,0.5c0.2,0.1,0.5,0.3,0.8,0.4c0.8-0.6,1.1-1.4,1.1-2.1c0-0.5-0.2-0.9-0.5-1.2c-0.3-0.3-0.7-0.4-1.1-0.4
			c-0.6,0-1,0.1-1.2,0.4C239.2,294.6,239.1,294.9,239.1,295.3z"/>
		<path class="st2" d="M247.2,292.1c0.5-0.1,1.1-0.2,1.8-0.2c0.6-0.1,1.3-0.1,1.9-0.1c0.7,0,1.3,0.1,2,0.2s1.3,0.3,1.8,0.6
			c0.5,0.3,1,0.8,1.3,1.3c0.3,0.6,0.5,1.3,0.5,2.3c0,0.8-0.1,1.5-0.4,2.1c-0.3,0.6-0.7,1-1.2,1.4c-0.5,0.4-1,0.6-1.6,0.8
			c-0.6,0.2-1.3,0.2-1.9,0.2c-0.1,0-0.2,0-0.3,0c-0.1,0-0.3,0-0.4,0c-0.2,0-0.3,0-0.4,0c-0.1,0-0.2,0-0.3,0v4.6h-2.6V292.1z
			 M251,294.1c-0.3,0-0.5,0-0.7,0c-0.2,0-0.4,0-0.6,0.1v4.3c0.1,0,0.1,0,0.2,0s0.2,0,0.3,0c0.1,0,0.2,0,0.3,0s0.2,0,0.2,0
			c0.3,0,0.7,0,1-0.1c0.3-0.1,0.6-0.2,0.9-0.4c0.3-0.2,0.5-0.4,0.6-0.7s0.2-0.7,0.2-1.2c0-0.4-0.1-0.8-0.2-1s-0.4-0.5-0.6-0.7
			c-0.2-0.2-0.5-0.3-0.8-0.3C251.7,294.1,251.4,294.1,251,294.1z"/>
		<path class="st2" d="M268.4,298.4l0.3-2.6h-0.1l-0.8,2.1l-2.8,5H264l-3-5l-0.8-2.1h-0.1l0.4,2.6v6.9H258V292h2.4l3.6,6.1l0.6,1.5
			h0.1l0.6-1.6l3.4-6h2.4v13.3h-2.6V298.4z"/>
	</g>
	<g>
		<path class="st2" d="M37.6,338.4h-5v4.8h-1.2v-10.5h1.2v4.6h5v-4.6h1.2v10.5h-1.2V338.4z"/>
		<path class="st2" d="M40.8,339.5c0-1.3,0.3-2.2,0.8-2.9c0.6-0.7,1.4-1,2.4-1c0.6,0,1,0.1,1.5,0.3c0.4,0.2,0.8,0.5,1,0.8
			c0.3,0.3,0.5,0.8,0.6,1.2s0.2,1,0.2,1.6c0,1.3-0.3,2.2-0.8,2.9c-0.6,0.7-1.4,1-2.4,1c-0.6,0-1-0.1-1.5-0.3c-0.4-0.2-0.8-0.5-1-0.8
			s-0.5-0.8-0.6-1.2C40.9,340.6,40.8,340.1,40.8,339.5z M42.1,339.5c0,0.4,0,0.7,0.1,1.1c0.1,0.4,0.2,0.7,0.4,0.9
			c0.2,0.3,0.4,0.5,0.6,0.6c0.3,0.2,0.6,0.2,0.9,0.2c1.4,0,2-1,2-2.9c0-0.4,0-0.8-0.1-1.1c-0.1-0.3-0.2-0.7-0.4-0.9
			c-0.2-0.3-0.4-0.5-0.6-0.6c-0.3-0.2-0.6-0.2-0.9-0.2C42.7,336.6,42.1,337.6,42.1,339.5z"/>
		<path class="st2" d="M52.6,341.2c0-0.3-0.1-0.5-0.3-0.7s-0.4-0.3-0.7-0.4c-0.3-0.1-0.6-0.2-0.9-0.3c-0.3-0.1-0.6-0.2-0.9-0.4
			s-0.5-0.4-0.7-0.6c-0.2-0.3-0.3-0.6-0.3-1c0-0.7,0.2-1.2,0.6-1.6c0.4-0.3,1-0.5,1.7-0.5c0.5,0,1,0,1.4,0.1c0.4,0.1,0.7,0.2,1,0.3
			l-0.3,1c-0.2-0.1-0.5-0.2-0.8-0.3c-0.3-0.1-0.7-0.1-1-0.1c-0.4,0-0.8,0.1-1,0.2c-0.2,0.2-0.3,0.4-0.3,0.8c0,0.3,0.1,0.5,0.3,0.6
			c0.2,0.1,0.4,0.3,0.7,0.4c0.3,0.1,0.6,0.2,0.9,0.3s0.6,0.3,0.9,0.4c0.3,0.2,0.5,0.4,0.7,0.7c0.2,0.3,0.3,0.6,0.3,1.1
			c0,0.3-0.1,0.6-0.2,0.9c-0.1,0.3-0.3,0.5-0.5,0.7c-0.2,0.2-0.5,0.4-0.8,0.5c-0.3,0.1-0.7,0.2-1.1,0.2c-0.6,0-1.1-0.1-1.5-0.2
			c-0.4-0.1-0.7-0.2-1-0.4l0.4-1c0.2,0.1,0.5,0.2,0.9,0.4c0.4,0.1,0.7,0.2,1.1,0.2c0.4,0,0.8-0.1,1.1-0.3
			C52.4,342,52.6,341.7,52.6,341.2z"/>
		<path class="st2" d="M54.6,335.8h1.2v-1.5l1.2-0.3v1.8h2v1h-2v4.2c0,0.5,0.1,0.9,0.2,1.1s0.4,0.3,0.7,0.3c0.3,0,0.5,0,0.7-0.1
			c0.2-0.1,0.4-0.1,0.6-0.2l0.3,0.9c-0.3,0.1-0.6,0.2-0.9,0.3c-0.3,0.1-0.7,0.1-1,0.1c-0.6,0-1-0.2-1.3-0.5
			c-0.2-0.3-0.4-0.9-0.4-1.7v-4.4h-1.2V335.8z"/>
		<path class="st2" d="M66,342.7c-0.3,0.2-0.7,0.4-1.1,0.6c-0.5,0.1-0.9,0.2-1.4,0.2c-0.6,0-1.1-0.1-1.5-0.3c-0.4-0.2-0.8-0.5-1-0.8
			s-0.5-0.8-0.6-1.2c-0.1-0.5-0.2-1-0.2-1.6c0-1.3,0.3-2.3,0.9-2.9c0.6-0.7,1.4-1,2.4-1c0.3,0,0.7,0,1,0.1c0.3,0.1,0.6,0.2,0.9,0.4
			s0.5,0.5,0.7,0.9c0.2,0.4,0.3,0.9,0.3,1.5c0,0.3,0,0.7-0.1,1.1h-4.8c0,0.4,0,0.8,0.1,1.2c0.1,0.3,0.2,0.6,0.4,0.9
			c0.2,0.2,0.4,0.4,0.7,0.5s0.7,0.2,1.1,0.2c0.3,0,0.7-0.1,1-0.2c0.3-0.1,0.6-0.3,0.8-0.4L66,342.7z M63.4,336.6
			c-0.6,0-1.1,0.2-1.4,0.5c-0.4,0.3-0.6,0.8-0.6,1.6h3.7c0-0.8-0.1-1.3-0.4-1.6C64.3,336.8,63.9,336.6,63.4,336.6z"/>
		<path class="st2" d="M73.9,340.7c0,0.5,0,1,0,1.4c0,0.4,0.1,0.8,0.1,1.2h-0.8l-0.3-1.1h-0.1c-0.2,0.4-0.5,0.6-0.9,0.9
			s-0.8,0.3-1.3,0.3c-1,0-1.7-0.3-2.2-0.9s-0.7-1.6-0.7-3c0-1.3,0.3-2.3,0.9-2.9c0.6-0.7,1.4-1,2.5-1c0.4,0,0.7,0,0.9,0.1
			c0.2,0,0.4,0.1,0.7,0.2v-3.1h1.2V340.7z M70.9,342.4c0.5,0,0.9-0.1,1.2-0.4c0.3-0.3,0.5-0.7,0.6-1.2v-3.7
			c-0.2-0.1-0.4-0.2-0.6-0.3c-0.2-0.1-0.5-0.1-0.9-0.1c-0.7,0-1.2,0.2-1.6,0.7s-0.6,1.2-0.6,2.2c0,0.4,0,0.8,0.1,1.1
			c0.1,0.4,0.2,0.7,0.3,0.9s0.3,0.4,0.6,0.6C70.2,342.3,70.5,342.4,70.9,342.4z"/>
		<path class="st2" d="M80.2,332.8h1.2v3.7h0.1c0.2-0.3,0.5-0.5,0.9-0.7c0.4-0.2,0.7-0.2,1.2-0.2c1,0,1.7,0.3,2.2,0.9
			c0.5,0.6,0.7,1.6,0.7,2.9c0,1.3-0.3,2.3-1,3c-0.6,0.7-1.5,1-2.7,1c-0.6,0-1.1-0.1-1.5-0.2c-0.5-0.1-0.8-0.2-1-0.4V332.8z
			 M83.3,336.6c-0.5,0-0.9,0.1-1.2,0.4s-0.5,0.7-0.7,1.2v3.8c0.2,0.1,0.4,0.2,0.7,0.2c0.3,0.1,0.5,0.1,0.8,0.1
			c0.7,0,1.2-0.2,1.6-0.7c0.4-0.5,0.6-1.2,0.6-2.2c0-0.4,0-0.8-0.1-1.1c-0.1-0.3-0.2-0.6-0.3-0.9c-0.1-0.2-0.3-0.4-0.6-0.6
			S83.6,336.6,83.3,336.6z"/>
		<path class="st2" d="M90.3,340.6l0.4,1.4h0.1l0.3-1.5l1.5-4.8h1.2l-2.2,6.7c-0.2,0.5-0.3,1-0.5,1.4s-0.3,0.9-0.5,1.2
			c-0.2,0.4-0.4,0.6-0.7,0.9c-0.2,0.2-0.5,0.3-0.9,0.3c-0.4,0-0.7-0.1-0.9-0.2l0.2-1c0.1,0,0.3,0.1,0.4,0.1c0.3,0,0.5-0.1,0.8-0.4
			c0.3-0.3,0.5-0.8,0.6-1.5l-3-7.5h1.4L90.3,340.6z"/>
		<path class="st2" d="M103.2,340.3h-3.9l-1,2.9h-1.2l4-10.7h0.6l4,10.7h-1.3L103.2,340.3z M99.8,339.3h3.1l-1.2-3.2l-0.4-1.6h0
			l-0.4,1.6L99.8,339.3z"/>
		<path class="st2" d="M107.3,332.8h1.2v10.5h-1.2V332.8z"/>
		<path class="st2" d="M118.1,342.8c-0.3,0.2-0.7,0.4-1.1,0.5s-1,0.1-1.5,0.1c-0.6,0-1.2-0.1-1.8-0.3c-0.6-0.2-1-0.5-1.4-1
			c-0.4-0.4-0.7-1-1-1.7c-0.2-0.7-0.4-1.5-0.4-2.4c0-1,0.1-1.8,0.4-2.5c0.3-0.7,0.6-1.2,1.1-1.7c0.4-0.4,0.9-0.8,1.5-1
			s1.1-0.3,1.6-0.3c0.6,0,1.1,0,1.5,0.1c0.4,0.1,0.7,0.2,1,0.3l-0.3,1.1c-0.5-0.2-1.2-0.4-2.1-0.4c-0.4,0-0.8,0.1-1.2,0.2
			c-0.4,0.1-0.8,0.4-1.1,0.7c-0.3,0.3-0.6,0.8-0.8,1.3c-0.2,0.6-0.3,1.2-0.3,2c0,0.7,0.1,1.3,0.3,1.9c0.2,0.5,0.4,1,0.7,1.4
			c0.3,0.4,0.7,0.6,1.1,0.8c0.4,0.2,0.9,0.3,1.4,0.3c0.5,0,0.8,0,1.2-0.1c0.3-0.1,0.6-0.2,0.8-0.3L118.1,342.8z"/>
		<path class="st2" d="M124.6,343.3V339c0-0.4,0-0.7-0.1-1s-0.1-0.5-0.2-0.7c-0.1-0.2-0.3-0.3-0.5-0.4c-0.2-0.1-0.5-0.1-0.8-0.1
			c-0.5,0-0.9,0.2-1.3,0.5c-0.4,0.3-0.6,0.7-0.7,1.2v5h-1.2v-10.5h1.2v3.8h0.1c0.3-0.3,0.6-0.6,0.9-0.7c0.4-0.2,0.8-0.3,1.4-0.3
			c0.4,0,0.8,0,1.1,0.1c0.3,0.1,0.6,0.3,0.8,0.5c0.2,0.2,0.4,0.6,0.4,1s0.1,0.9,0.1,1.5v4.5H124.6z"/>
		<path class="st2" d="M128.1,332.8h5.7v1.1h-4.5v3.4h4.1v1.1h-4.1v3.7h4.5v1.1h-5.8V332.8z"/>
		<path class="st2" d="M139.9,336.3c0.4-0.2,0.8-0.4,1.3-0.5c0.5-0.1,1-0.2,1.6-0.2c0.5,0,0.9,0.1,1.3,0.2c0.3,0.1,0.6,0.3,0.7,0.5
			c0.2,0.2,0.3,0.5,0.3,0.7c0.1,0.3,0.1,0.5,0.1,0.8c0,0.6,0,1.2,0,1.8c0,0.6,0,1.1,0,1.6c0,0.4,0,0.7,0,1c0,0.3,0.1,0.6,0.2,0.9
			h-0.9l-0.3-1h-0.1c-0.1,0.1-0.2,0.3-0.3,0.4c-0.1,0.1-0.3,0.3-0.5,0.4c-0.2,0.1-0.4,0.2-0.7,0.3c-0.2,0.1-0.5,0.1-0.9,0.1
			c-0.3,0-0.6,0-0.9-0.2c-0.3-0.1-0.5-0.2-0.7-0.4c-0.2-0.2-0.4-0.4-0.5-0.7c-0.1-0.3-0.2-0.6-0.2-0.9c0-0.4,0.1-0.8,0.3-1.1
			s0.4-0.5,0.8-0.7c0.3-0.2,0.7-0.3,1.2-0.4c0.5-0.1,1-0.1,1.5-0.1c0.1,0,0.3,0,0.4,0c0.1,0,0.3,0,0.4,0c0-0.3,0-0.6,0-0.8
			c0-0.5-0.1-0.9-0.3-1.2c-0.2-0.2-0.6-0.3-1.2-0.3c-0.2,0-0.4,0-0.5,0s-0.4,0.1-0.6,0.1c-0.2,0-0.4,0.1-0.6,0.2
			c-0.2,0.1-0.3,0.1-0.5,0.2L139.9,336.3z M142.1,342.3c0.3,0,0.5,0,0.8-0.1c0.2-0.1,0.4-0.2,0.6-0.3c0.2-0.1,0.3-0.2,0.4-0.4
			s0.2-0.3,0.2-0.4v-1.2c-0.1,0-0.3,0-0.4,0c-0.1,0-0.3,0-0.4,0c-0.3,0-0.6,0-0.9,0.1c-0.3,0-0.6,0.1-0.8,0.2
			c-0.2,0.1-0.4,0.2-0.5,0.4c-0.1,0.2-0.2,0.4-0.2,0.6c0,0.3,0.1,0.6,0.4,0.9S141.7,342.3,142.1,342.3z"/>
		<path class="st2" d="M152.3,343.3V339c0-0.8-0.1-1.4-0.3-1.8c-0.2-0.4-0.6-0.6-1.2-0.6c-0.5,0-1,0.1-1.3,0.4
			c-0.3,0.3-0.6,0.6-0.7,1.1v5.1h-1.2v-7.5h0.8l0.2,0.9h0.1c0.2-0.3,0.6-0.6,1-0.8c0.4-0.2,0.9-0.3,1.4-0.3c0.4,0,0.8,0,1.1,0.1
			c0.3,0.1,0.6,0.3,0.8,0.5c0.2,0.2,0.4,0.6,0.5,1c0.1,0.4,0.2,0.9,0.2,1.5v4.5H152.3z"/>
		<path class="st2" d="M161.5,340.7c0,0.5,0,1,0,1.4s0.1,0.8,0.1,1.2h-0.8l-0.3-1.1h-0.1c-0.2,0.4-0.5,0.6-0.9,0.9
			c-0.4,0.2-0.8,0.3-1.3,0.3c-1,0-1.7-0.3-2.2-0.9c-0.5-0.6-0.7-1.6-0.7-3c0-1.3,0.3-2.3,0.9-2.9c0.6-0.7,1.4-1,2.5-1
			c0.4,0,0.7,0,0.9,0.1s0.4,0.1,0.7,0.2v-3.1h1.2V340.7z M158.4,342.4c0.5,0,0.9-0.1,1.2-0.4c0.3-0.3,0.5-0.7,0.6-1.2v-3.7
			c-0.2-0.1-0.4-0.2-0.6-0.3c-0.2-0.1-0.5-0.1-0.9-0.1c-0.7,0-1.2,0.2-1.6,0.7c-0.4,0.5-0.6,1.2-0.6,2.2c0,0.4,0,0.8,0.1,1.1
			c0.1,0.4,0.2,0.7,0.3,0.9c0.1,0.2,0.3,0.4,0.6,0.6C157.8,342.3,158.1,342.4,158.4,342.4z"/>
		<path class="st2" d="M168.2,332.8h1.2v10.5h-1.2V332.8z"/>
		<path class="st2" d="M177,340.6c0-0.4-0.1-0.8-0.4-1s-0.6-0.5-0.9-0.7s-0.8-0.4-1.2-0.6c-0.4-0.2-0.8-0.4-1.2-0.7
			s-0.7-0.6-0.9-0.9s-0.4-0.9-0.4-1.4c0-0.8,0.3-1.5,0.9-2c0.6-0.5,1.4-0.7,2.4-0.7c0.6,0,1.2,0,1.7,0.1s0.9,0.2,1.2,0.3l-0.4,1.1
			c-0.2-0.1-0.6-0.2-1-0.3c-0.4-0.1-0.9-0.2-1.5-0.2c-0.7,0-1.2,0.1-1.5,0.4c-0.3,0.3-0.5,0.6-0.5,1c0,0.4,0.1,0.7,0.4,1
			c0.2,0.3,0.6,0.5,0.9,0.7s0.8,0.4,1.2,0.6c0.4,0.2,0.8,0.4,1.2,0.7s0.7,0.6,0.9,1c0.2,0.4,0.4,0.8,0.4,1.4c0,0.5-0.1,0.9-0.2,1.2
			c-0.2,0.4-0.4,0.7-0.7,0.9c-0.3,0.3-0.7,0.5-1.1,0.6c-0.4,0.1-0.9,0.2-1.5,0.2c-0.8,0-1.4-0.1-1.9-0.2c-0.5-0.1-0.9-0.2-1.1-0.4
			l0.4-1.1c0.2,0.1,0.6,0.3,1,0.4s1,0.2,1.5,0.2c0.3,0,0.6,0,0.9-0.1s0.5-0.2,0.8-0.3c0.2-0.1,0.4-0.3,0.5-0.5S177,340.9,177,340.6z
			"/>
		<path class="st2" d="M180.2,332.9c0.4-0.1,0.8-0.2,1.2-0.2s0.9,0,1.3,0c0.5,0,0.9,0,1.4,0.1c0.5,0.1,0.9,0.3,1.3,0.5
			c0.4,0.2,0.7,0.6,1,1c0.2,0.4,0.4,1,0.4,1.6c0,0.6-0.1,1.2-0.3,1.6c-0.2,0.4-0.5,0.8-0.9,1.1c-0.4,0.3-0.8,0.5-1.3,0.6
			c-0.5,0.1-1,0.2-1.5,0.2c0,0-0.1,0-0.2,0c-0.1,0-0.2,0-0.4,0s-0.2,0-0.4,0c-0.1,0-0.2,0-0.3,0v4h-1.2V332.9z M182.8,333.7
			c-0.3,0-0.5,0-0.8,0c-0.2,0-0.4,0-0.6,0.1v4.4c0.1,0,0.1,0,0.2,0s0.2,0,0.3,0c0.1,0,0.2,0,0.3,0c0.1,0,0.2,0,0.2,0
			c0.3,0,0.7,0,1-0.1c0.3-0.1,0.6-0.2,0.9-0.4c0.3-0.2,0.5-0.4,0.7-0.7s0.2-0.7,0.2-1.2c0-0.4-0.1-0.8-0.2-1
			c-0.2-0.3-0.4-0.5-0.6-0.7c-0.3-0.2-0.5-0.3-0.9-0.4C183.4,333.7,183.1,333.7,182.8,333.7z"/>
		<path class="st2" d="M188.6,332.8h5.7v1.1h-4.5v3.4h4.1v1.1h-4.1v3.7h4.5v1.1h-5.8V332.8z"/>
	</g>
	<g>
		<g>
			<path class="st2" d="M225.3,35.1h-5.2v14h-3.5v-14h-5.2v-3h13.9V35.1z"/>
			<path class="st2" d="M232.2,32.2h10.6v3h-7.1v3.9h6.5v3h-6.5v4.1h7.2v3h-10.7V32.2z"/>
			<path class="st2" d="M258.3,44.6c0-0.5-0.2-0.9-0.6-1.3c-0.4-0.3-0.9-0.6-1.5-0.9c-0.6-0.3-1.3-0.5-2-0.8c-0.7-0.3-1.4-0.6-2-1
				c-0.6-0.4-1.1-0.9-1.5-1.5c-0.4-0.6-0.6-1.4-0.6-2.3c0-0.8,0.1-1.5,0.4-2.1c0.3-0.6,0.7-1.1,1.2-1.5c0.5-0.4,1.2-0.7,1.9-0.9
				c0.7-0.2,1.5-0.3,2.4-0.3c1,0,2,0.1,2.9,0.3c0.9,0.2,1.7,0.4,2.3,0.7l-1.1,2.8c-0.4-0.2-0.9-0.4-1.7-0.6
				c-0.7-0.2-1.6-0.3-2.4-0.3c-0.8,0-1.4,0.2-1.9,0.5c-0.4,0.3-0.7,0.7-0.7,1.2c0,0.5,0.2,0.9,0.6,1.2c0.4,0.3,0.9,0.6,1.5,0.9
				c0.6,0.3,1.3,0.6,2,0.8c0.7,0.3,1.4,0.6,2,1.1c0.6,0.4,1.1,0.9,1.5,1.5c0.4,0.6,0.6,1.4,0.6,2.3c0,0.9-0.2,1.7-0.5,2.3
				c-0.3,0.7-0.8,1.2-1.3,1.6c-0.6,0.4-1.3,0.8-2.1,1c-0.8,0.2-1.7,0.3-2.7,0.3c-1.3,0-2.4-0.1-3.4-0.3c-1-0.2-1.7-0.5-2.1-0.7
				l1.1-2.8c0.2,0.1,0.4,0.2,0.7,0.3c0.3,0.1,0.6,0.2,1,0.3c0.4,0.1,0.8,0.2,1.2,0.2c0.4,0.1,0.8,0.1,1.3,0.1c1,0,1.8-0.2,2.4-0.5
				C258.1,45.8,258.3,45.3,258.3,44.6z"/>
			<path class="st2" d="M281.4,48.4c-0.5,0.4-1.2,0.6-2.1,0.8c-0.8,0.2-1.7,0.2-2.6,0.2c-1.1,0-2.1-0.2-3-0.5
				c-1-0.3-1.8-0.8-2.5-1.5c-0.7-0.7-1.3-1.6-1.7-2.7c-0.4-1.1-0.7-2.5-0.7-4.1c0-1.7,0.2-3.1,0.7-4.2c0.5-1.1,1.1-2,1.9-2.7
				c0.8-0.7,1.6-1.2,2.6-1.5c1-0.3,1.9-0.4,2.9-0.4c1,0,1.9,0.1,2.6,0.2c0.7,0.1,1.3,0.3,1.7,0.5l-0.7,2.8c-0.4-0.2-0.9-0.3-1.4-0.4
				c-0.5-0.1-1.2-0.1-2-0.1c-1.4,0-2.5,0.5-3.4,1.4c-0.9,1-1.3,2.4-1.3,4.4c0,0.9,0.1,1.7,0.3,2.4c0.2,0.7,0.5,1.3,0.9,1.8
				c0.4,0.5,0.9,0.9,1.6,1.2c0.6,0.3,1.3,0.4,2.2,0.4c0.8,0,1.4-0.1,1.9-0.2c0.5-0.1,1-0.3,1.4-0.6L281.4,48.4z"/>
		</g>
	</g>
</g>
</svg>
