<?xml version="1.0" encoding="utf-8"?>
<!-- Generator: Adobe Illustrator 22.1.0, SVG Export Plug-In . SVG Version: 6.00 Build 0)  -->
<svg version="1.1" xmlns="http://www.w3.org/2000/svg" xmlns:xlink="http://www.w3.org/1999/xlink" x="0px" y="0px"
	 viewBox="0 0 316 388" style="enable-background:new 0 0 316 388;" xml:space="preserve">
<style type="text/css">
	.st0{fill:#00609E;}
	.st1{fill:url(#Bg-2_1_);}
	.st2{enable-background:new    ;}
	.st3{fill:#FFFFFF;}
</style>
<g id="Layer_2">
	<g id="Layer_2_1_">
		<path id="Bg" class="st0" d="M38,0.5h240c21,0,38,17,38,38c0,0,0,0,0,0v311c0,21-17,38-38,38c0,0,0,0,0,0H38c-21,0-38-17-38-38
			c0,0,0,0,0,0v-311C0,17.5,17,0.5,38,0.5C38,0.5,38,0.5,38,0.5z"/>
		
			<linearGradient id="Bg-2_1_" gradientUnits="userSpaceOnUse" x1="-8.9981" y1="8.836" x2="376.3019" y2="440.6631" gradientTransform="matrix(1 0 0 -1 0 390)">
			<stop  offset="0" style="stop-color:#000000;stop-opacity:0.4"/>
			<stop  offset="1" style="stop-color:#FFFFFF;stop-opacity:0"/>
		</linearGradient>
		<path id="Bg-2" class="st1" d="M38,0.5h240c21,0,38,17,38,38c0,0,0,0,0,0v311c0,21-17,38-38,38c0,0,0,0,0,0H38c-21,0-38-17-38-38
			c0,0,0,0,0,0v-311C0,17.5,17,0.5,38,0.5C38,0.5,38,0.5,38,0.5z"/>
	</g>
</g>
<g id="Layer_1">
	<title>flo_tbp_tt_event</title>
	<g>
		<g class="st2">
			<path class="st3" d="M52.1,81.7H32.6V50.9h6v25.4h13.5V81.7z"/>
			<path class="st3" d="M54.8,53.5c0-0.9,0.3-1.6,0.9-2.2c0.6-0.6,1.5-0.9,2.6-0.9c1.1,0,2,0.3,2.7,0.9c0.7,0.6,1,1.3,1,2.2
				c0,0.9-0.3,1.6-1,2.1c-0.7,0.6-1.6,0.9-2.7,0.9c-1.1,0-2-0.3-2.6-0.9C55.1,55.1,54.8,54.3,54.8,53.5z M55.7,59.7h5.7v22h-5.7
				V59.7z"/>
			<path class="st3" d="M80.4,81.7V69.2c0-1.8-0.3-3.1-0.8-3.9c-0.5-0.8-1.4-1.2-2.6-1.2c-1.1,0-2,0.3-2.8,0.9
				c-0.7,0.6-1.3,1.4-1.6,2.4v14.3H67v-22h4.5l0.7,2.9h0.2c0.7-0.9,1.6-1.8,2.7-2.5c1.1-0.7,2.6-1.1,4.3-1.1c1.1,0,2.1,0.1,2.9,0.4
				c0.9,0.3,1.6,0.8,2.2,1.5c0.6,0.7,1,1.6,1.3,2.8c0.3,1.2,0.4,2.6,0.4,4.3v13.7H80.4z"/>
		</g>
		<g class="st2">
			<path class="st3" d="M98.2,72.6h-1.5v9.1h-5.7V50.9h5.7v18.2l1.3-0.6l5-8.8h6.3l-5.3,8.4l-2.2,1.7l2.4,1.7l5.9,10.3h-6.6
				L98.2,72.6z"/>
		</g>
		<g class="st2">
			<path class="st3" d="M129.6,79.8c-0.9,0.7-2.1,1.3-3.6,1.8c-1.5,0.5-3.1,0.7-4.8,0.7c-3.5,0-6.1-1-7.8-3.1
				c-1.6-2.1-2.5-4.9-2.5-8.5c0-3.9,0.9-6.8,2.8-8.7c1.8-1.9,4.4-2.9,7.8-2.9c1.1,0,2.2,0.1,3.3,0.4s2,0.8,2.8,1.5
				c0.8,0.7,1.5,1.6,2,2.7c0.5,1.1,0.7,2.6,0.7,4.3c0,0.6,0,1.3-0.1,2c-0.1,0.7-0.2,1.4-0.3,2.2h-13.2c0.1,1.8,0.6,3.2,1.4,4.2
				c0.9,0.9,2.3,1.4,4.2,1.4c1.2,0,2.3-0.2,3.2-0.5c1-0.4,1.7-0.7,2.2-1.1L129.6,79.8z M121.4,63.7c-1.5,0-2.6,0.4-3.3,1.3
				c-0.7,0.9-1.2,2.1-1.3,3.6h8.2c0.1-1.6-0.1-2.8-0.7-3.7C123.7,64.1,122.7,63.7,121.4,63.7z"/>
			<path class="st3" d="M153.1,73.9c0,1.2,0,2.5,0,3.7c0,1.2,0.2,2.6,0.4,4.1h-4.1l-0.8-2.9h-0.2c-0.6,1-1.4,1.9-2.5,2.5
				c-1.1,0.6-2.4,0.9-3.9,0.9c-2.8,0-4.9-0.9-6.4-2.7c-1.5-1.8-2.3-4.7-2.3-8.5c0-3.8,0.9-6.7,2.6-8.8c1.7-2.1,4.2-3.1,7.5-3.1
				c0.9,0,1.7,0.1,2.2,0.2c0.6,0.1,1.2,0.3,1.8,0.5v-8.9h5.7V73.9z M143.3,77.5c1.1,0,2-0.3,2.6-0.8c0.6-0.5,1.1-1.3,1.4-2.4V65
				c-0.4-0.3-0.9-0.6-1.4-0.7c-0.5-0.2-1.1-0.2-1.9-0.2c-1.6,0-2.8,0.5-3.6,1.6c-0.8,1.1-1.2,2.9-1.2,5.6c0,1.9,0.3,3.4,1,4.5
				C140.9,76.9,141.9,77.5,143.3,77.5z"/>
			<path class="st3" d="M158.8,50.9h6v30.8h-6V50.9z"/>
			<path class="st3" d="M184.1,81.7V69.2c0-1.8-0.3-3.1-0.8-3.9c-0.5-0.8-1.4-1.2-2.6-1.2c-1.1,0-2,0.3-2.8,0.9
				c-0.7,0.6-1.3,1.4-1.6,2.4v14.3h-5.7v-22h4.5l0.7,2.9h0.2c0.7-0.9,1.6-1.8,2.7-2.5c1.1-0.7,2.6-1.1,4.3-1.1
				c1.1,0,2.1,0.1,2.9,0.4c0.9,0.3,1.6,0.8,2.2,1.5c0.6,0.7,1,1.6,1.3,2.8s0.4,2.6,0.4,4.3v13.7H184.1z"/>
		</g>
		<g class="st2">
			<path class="st3" d="M40.6,118.1l0.6,5.5h0.2L42,118l5.4-17.1h4l5.3,17.2l0.6,5.5h0.2l0.7-5.5l3.7-17.1h6.1l-8.5,31h-4l-5.5-17.1
				l-0.7-4.7h-0.2l-0.7,4.8l-5.5,17.1h-4.3l-8.4-31h6.6L40.6,118.1z"/>
		</g>
		<g class="st2">
			<path class="st3" d="M67,120.7c0-3.7,0.9-6.6,2.7-8.6c1.8-2,4.4-3,7.7-3c1.8,0,3.3,0.3,4.6,0.8c1.3,0.6,2.4,1.3,3.2,2.4
				c0.9,1,1.5,2.2,1.9,3.7c0.4,1.4,0.6,3,0.6,4.8c0,3.7-0.9,6.6-2.7,8.6c-1.8,2-4.3,3-7.6,3c-1.8,0-3.3-0.3-4.6-0.8
				c-1.3-0.6-2.4-1.3-3.2-2.4c-0.9-1-1.5-2.2-1.9-3.7C67.3,124,67,122.4,67,120.7z M72.9,120.7c0,1,0.1,1.9,0.3,2.7
				c0.2,0.8,0.4,1.5,0.8,2.2s0.8,1.1,1.4,1.4c0.6,0.3,1.3,0.5,2,0.5c1.5,0,2.6-0.5,3.3-1.6c0.7-1.1,1.1-2.8,1.1-5.1
				c0-2-0.3-3.7-1-4.9c-0.7-1.2-1.8-1.9-3.4-1.9c-1.4,0-2.5,0.5-3.3,1.6C73.3,116.6,72.9,118.3,72.9,120.7z"/>
			<path class="st3" d="M103.9,115.1c-0.9-0.3-1.7-0.5-2.5-0.5c-1,0-1.9,0.3-2.6,0.8c-0.7,0.5-1.2,1.2-1.4,2.1v14.2h-5.7v-22h4.4
				l0.7,2.9H97c0.5-1.1,1.2-1.9,2-2.5c0.9-0.6,1.8-0.9,3-0.9c0.8,0,1.6,0.2,2.6,0.5L103.9,115.1z"/>
			<path class="st3" d="M114.4,122.6h-1.5v9.1h-5.7v-30.8h5.7v18.2l1.3-0.6l5-8.8h6.3l-5.3,8.4l-2.2,1.7l2.4,1.7l5.9,10.3h-6.6
				L114.4,122.6z"/>
			<path class="st3" d="M137.9,125.6c0-0.6-0.2-1.1-0.7-1.4c-0.5-0.4-1.1-0.7-1.8-1c-0.7-0.3-1.5-0.6-2.4-0.9
				c-0.9-0.3-1.7-0.7-2.4-1.3c-0.7-0.5-1.3-1.2-1.8-2.1c-0.5-0.8-0.7-1.9-0.7-3.2c0-2.2,0.6-3.8,1.9-5c1.3-1.1,3.2-1.7,5.6-1.7
				c1.7,0,3.2,0.2,4.5,0.5c1.3,0.4,2.4,0.7,3.2,1.2l-1.3,4.1c-0.7-0.3-1.5-0.5-2.6-0.8c-1-0.3-2.1-0.4-3.1-0.4c-1.7,0-2.6,0.7-2.6,2
				c0,0.5,0.2,1,0.7,1.3c0.5,0.3,1.1,0.6,1.8,0.9c0.7,0.3,1.5,0.6,2.4,0.9c0.9,0.3,1.7,0.7,2.4,1.3c0.7,0.5,1.3,1.2,1.8,2
				c0.5,0.8,0.7,1.9,0.7,3.2c0,2.2-0.7,4-2.1,5.3c-1.4,1.3-3.6,1.9-6.4,1.9c-1.6,0-3-0.2-4.4-0.6c-1.4-0.4-2.5-0.9-3.3-1.4l1.6-4.3
				c0.7,0.4,1.6,0.8,2.7,1.1c1.1,0.4,2.3,0.5,3.4,0.5c0.9,0,1.5-0.2,2-0.5C137.6,126.9,137.9,126.4,137.9,125.6z"/>
			<path class="st3" d="M160.8,131.7v-12.5c0-1.8-0.2-3.1-0.7-3.9c-0.5-0.8-1.4-1.2-2.7-1.2c-1,0-1.9,0.3-2.7,1
				c-0.8,0.7-1.3,1.5-1.6,2.5v14h-5.7v-30.8h5.7v11.3h0.2c0.7-0.9,1.6-1.7,2.6-2.2c1-0.6,2.3-0.8,3.9-0.8c1.1,0,2.1,0.1,2.9,0.4
				c0.9,0.3,1.6,0.8,2.1,1.5s1,1.6,1.3,2.8c0.3,1.2,0.4,2.6,0.4,4.3v13.7H160.8z"/>
			<path class="st3" d="M171,103.5c0-0.9,0.3-1.6,0.9-2.2c0.6-0.6,1.5-0.9,2.6-0.9c1.1,0,2,0.3,2.7,0.9c0.7,0.6,1,1.3,1,2.2
				c0,0.9-0.3,1.6-1,2.1c-0.7,0.6-1.6,0.9-2.7,0.9c-1.1,0-2-0.3-2.6-0.9C171.3,105.1,171,104.3,171,103.5z M171.9,109.7h5.7v22h-5.7
				V109.7z"/>
			<path class="st3" d="M183.2,109.7h4.2l0.7,2.6h0.2c0.8-1.1,1.7-1.9,2.7-2.5c1-0.5,2.3-0.8,3.8-0.8c2.8,0,4.8,0.9,6.2,2.6
				c1.4,1.7,2.1,4.6,2.1,8.4c0,1.9-0.2,3.6-0.7,5.1c-0.4,1.5-1.1,2.8-2,3.9c-0.9,1.1-1.9,1.9-3.2,2.4c-1.2,0.6-2.7,0.8-4.3,0.8
				c-0.9,0-1.7-0.1-2.2-0.2s-1.2-0.3-1.8-0.6v9h-5.7V109.7z M193,113.9c-1.1,0-2,0.3-2.6,0.8c-0.6,0.6-1.1,1.4-1.5,2.5v9.2
				c0.4,0.3,0.9,0.6,1.3,0.8c0.5,0.2,1.1,0.3,1.9,0.3c1.6,0,2.9-0.6,3.7-1.7c0.8-1.2,1.2-3.1,1.2-5.7c0-1.9-0.3-3.4-1-4.5
				C195.5,114.4,194.4,113.9,193,113.9z"/>
		</g>
		<g class="st2">
			<path class="st3" d="M48.4,159.7l4,11.3l0.8,3.7h0.2l0.6-3.7l2.8-11.2h5.2l-6.8,22.2h-4.2l-4.4-12.3l-0.6-2.8h-0.2l-0.5,2.8
				l-4.2,12.3h-4.4l-7.1-22.2h6.2l3.2,11l0.5,3.9h0.2l0.7-4l3.7-11H48.4z"/>
			<path class="st3" d="M63.9,153.5c0-0.9,0.3-1.6,0.9-2.2c0.6-0.6,1.5-0.9,2.6-0.9c1.1,0,2,0.3,2.7,0.9c0.7,0.6,1,1.3,1,2.2
				c0,0.9-0.3,1.6-1,2.1c-0.7,0.6-1.6,0.9-2.7,0.9c-1.1,0-2-0.3-2.6-0.9C64.2,155.1,63.9,154.3,63.9,153.5z M64.8,159.7h5.7v22h-5.7
				V159.7z"/>
			<path class="st3" d="M73.8,159.7h3v-4.1l5.7-1.6v5.8h5.4v4.8h-5.4v8.4c0,1.5,0.2,2.6,0.5,3.3c0.3,0.7,0.9,1,1.7,1
				c0.6,0,1.1-0.1,1.5-0.2c0.4-0.1,0.9-0.3,1.4-0.5l1,4.4c-0.8,0.4-1.7,0.7-2.8,1c-1.1,0.3-2.1,0.4-3.2,0.4c-2,0-3.5-0.5-4.5-1.6
				c-1-1-1.4-2.8-1.4-5.1v-11.1h-3V159.7z"/>
			<path class="st3" d="M104.9,181.7v-12.5c0-1.8-0.2-3.1-0.7-3.9c-0.5-0.8-1.4-1.2-2.7-1.2c-1,0-1.9,0.3-2.7,1
				c-0.8,0.7-1.3,1.5-1.6,2.5v14h-5.7v-30.8h5.7v11.3h0.2c0.7-0.9,1.6-1.7,2.6-2.2c1-0.6,2.3-0.8,3.9-0.8c1.1,0,2.1,0.1,2.9,0.4
				c0.9,0.3,1.6,0.8,2.1,1.5c0.6,0.7,1,1.6,1.3,2.8c0.3,1.2,0.4,2.6,0.4,4.3v13.7H104.9z"/>
		</g>
		<g class="st2">
			<path class="st3" d="M49.9,218.8H38.7v12.9h-6v-30.8h6v12.5h11.3v-12.5h6v30.8h-6V218.8z"/>
			<path class="st3" d="M78.8,229.8c-0.9,0.7-2.1,1.3-3.6,1.8c-1.5,0.5-3.1,0.7-4.8,0.7c-3.5,0-6.1-1-7.8-3.1
				c-1.6-2.1-2.5-4.9-2.5-8.5c0-3.9,0.9-6.8,2.8-8.7c1.8-1.9,4.4-2.9,7.8-2.9c1.1,0,2.2,0.1,3.3,0.4s2,0.8,2.8,1.5
				c0.8,0.7,1.5,1.6,2,2.7c0.5,1.1,0.7,2.6,0.7,4.3c0,0.6,0,1.3-0.1,2c-0.1,0.7-0.2,1.4-0.3,2.2H65.8c0.1,1.8,0.6,3.2,1.4,4.2
				c0.9,0.9,2.3,1.4,4.2,1.4c1.2,0,2.3-0.2,3.2-0.5c1-0.4,1.7-0.7,2.2-1.1L78.8,229.8z M70.6,213.7c-1.5,0-2.6,0.4-3.3,1.3
				c-0.7,0.9-1.2,2.1-1.3,3.6h8.2c0.1-1.6-0.1-2.8-0.7-3.7C72.8,214.1,71.9,213.7,70.6,213.7z"/>
			<path class="st3" d="M83.4,211c1.2-0.5,2.6-0.9,4.2-1.3c1.6-0.3,3.3-0.5,5.1-0.5c1.5,0,2.8,0.2,3.8,0.6c1,0.4,1.8,0.9,2.4,1.6
				c0.6,0.7,1,1.5,1.3,2.4c0.2,0.9,0.4,2,0.4,3.2c0,1.3,0,2.6-0.1,3.9c-0.1,1.3-0.1,2.6-0.2,3.8c0,1.3,0,2.5,0.1,3.7
				c0.1,1.2,0.3,2.3,0.7,3.4h-4.7l-0.9-3h-0.2c-0.6,0.9-1.4,1.7-2.4,2.4c-1,0.7-2.4,1-4,1c-1,0-2-0.2-2.8-0.5
				c-0.8-0.3-1.5-0.7-2.1-1.3c-0.6-0.6-1-1.2-1.4-2c-0.3-0.8-0.5-1.6-0.5-2.6c0-1.3,0.3-2.5,0.9-3.4c0.6-0.9,1.5-1.7,2.6-2.2
				c1.1-0.6,2.5-1,4-1.2c1.6-0.2,3.3-0.3,5.3-0.2c0.2-1.6,0.1-2.8-0.4-3.5c-0.4-0.7-1.4-1.1-2.9-1.1c-1.1,0-2.4,0.1-3.6,0.4
				c-1.3,0.2-2.3,0.5-3.1,0.9L83.4,211z M90.6,227.3c1.1,0,2.1-0.3,2.7-0.8c0.7-0.5,1.2-1.1,1.5-1.7v-2.9c-0.9-0.1-1.8-0.1-2.6,0
				c-0.8,0.1-1.6,0.2-2.2,0.4c-0.6,0.2-1.2,0.5-1.5,0.9c-0.4,0.4-0.6,0.9-0.6,1.5c0,0.8,0.2,1.5,0.7,1.9
				C89.1,227.1,89.8,227.3,90.6,227.3z"/>
			<path class="st3" d="M124,224c0,1.2,0,2.5,0,3.7c0,1.2,0.2,2.6,0.4,4.1h-4.1l-0.8-2.9h-0.2c-0.6,1-1.4,1.9-2.5,2.5
				c-1.1,0.6-2.4,0.9-3.9,0.9c-2.8,0-4.9-0.9-6.4-2.7c-1.5-1.8-2.3-4.7-2.3-8.5c0-3.8,0.9-6.7,2.6-8.8c1.7-2.1,4.2-3.1,7.5-3.1
				c0.9,0,1.7,0.1,2.2,0.2c0.6,0.1,1.2,0.3,1.8,0.5v-8.9h5.7V224z M114.3,227.5c1.1,0,2-0.3,2.6-0.8c0.6-0.5,1.1-1.3,1.4-2.4V215
				c-0.4-0.3-0.9-0.6-1.4-0.7c-0.5-0.2-1.1-0.2-1.9-0.2c-1.6,0-2.8,0.5-3.6,1.6c-0.8,1.1-1.2,2.9-1.2,5.6c0,1.9,0.3,3.4,1,4.5
				C111.8,226.9,112.9,227.5,114.3,227.5z"/>
			<path class="st3" d="M138.2,225.6c0-0.6-0.2-1.1-0.7-1.4c-0.5-0.4-1.1-0.7-1.8-1c-0.7-0.3-1.5-0.6-2.4-0.9
				c-0.9-0.3-1.7-0.7-2.4-1.3c-0.7-0.5-1.3-1.2-1.8-2.1c-0.5-0.8-0.7-1.9-0.7-3.2c0-2.2,0.6-3.8,1.9-5c1.3-1.1,3.2-1.7,5.6-1.7
				c1.7,0,3.2,0.2,4.5,0.5c1.3,0.4,2.4,0.7,3.2,1.2l-1.3,4.1c-0.7-0.3-1.5-0.5-2.6-0.8c-1-0.3-2.1-0.4-3.1-0.4c-1.7,0-2.6,0.7-2.6,2
				c0,0.5,0.2,1,0.7,1.3c0.5,0.3,1.1,0.6,1.8,0.9c0.7,0.3,1.5,0.6,2.4,0.9c0.9,0.3,1.7,0.7,2.4,1.3c0.7,0.5,1.3,1.2,1.8,2
				c0.5,0.8,0.7,1.9,0.7,3.2c0,2.2-0.7,4-2.1,5.3c-1.4,1.3-3.6,1.9-6.4,1.9c-1.6,0-3-0.2-4.4-0.6c-1.4-0.4-2.5-0.9-3.3-1.4l1.6-4.3
				c0.7,0.4,1.6,0.8,2.7,1.1c1.1,0.4,2.3,0.5,3.4,0.5c0.9,0,1.5-0.2,2-0.5C137.9,226.9,138.2,226.4,138.2,225.6z"/>
			<path class="st3" d="M161.1,231.7v-12.5c0-1.8-0.2-3.1-0.7-3.9c-0.5-0.8-1.4-1.2-2.7-1.2c-1,0-1.9,0.3-2.7,1
				c-0.8,0.7-1.3,1.5-1.6,2.5v14h-5.7v-30.8h5.7v11.3h0.2c0.7-0.9,1.6-1.7,2.6-2.2c1-0.6,2.3-0.8,3.9-0.8c1.1,0,2.1,0.1,2.9,0.4
				s1.6,0.8,2.1,1.5s1,1.6,1.3,2.8s0.4,2.6,0.4,4.3v13.7H161.1z"/>
			<path class="st3" d="M170.5,220.7c0-3.7,0.9-6.6,2.7-8.6c1.8-2,4.4-3,7.7-3c1.8,0,3.3,0.3,4.6,0.8c1.3,0.6,2.4,1.3,3.2,2.4
				c0.9,1,1.5,2.2,1.9,3.7c0.4,1.4,0.6,3,0.6,4.8c0,3.7-0.9,6.6-2.7,8.6c-1.8,2-4.3,3-7.6,3c-1.8,0-3.3-0.3-4.6-0.8
				c-1.3-0.6-2.4-1.3-3.2-2.4c-0.9-1-1.5-2.2-1.9-3.7C170.7,224,170.5,222.4,170.5,220.7z M176.4,220.7c0,1,0.1,1.9,0.3,2.7
				c0.2,0.8,0.4,1.5,0.8,2.2c0.4,0.6,0.8,1.1,1.4,1.4c0.6,0.3,1.3,0.5,2,0.5c1.5,0,2.6-0.5,3.3-1.6s1.1-2.8,1.1-5.1
				c0-2-0.3-3.7-1-4.9c-0.7-1.2-1.8-1.9-3.4-1.9c-1.4,0-2.5,0.5-3.3,1.6C176.8,216.6,176.4,218.3,176.4,220.7z"/>
			<path class="st3" d="M192.9,209.7h3v-4.1l5.7-1.6v5.8h5.4v4.8h-5.4v8.4c0,1.5,0.2,2.6,0.5,3.3c0.3,0.7,0.9,1,1.7,1
				c0.6,0,1.1-0.1,1.5-0.2c0.4-0.1,0.9-0.3,1.4-0.5l1,4.4c-0.8,0.4-1.7,0.7-2.8,1c-1.1,0.3-2.1,0.4-3.2,0.4c-2,0-3.5-0.5-4.5-1.6
				s-1.4-2.8-1.4-5.1v-11.1h-3V209.7z"/>
			<path class="st3" d="M219.7,225.6c0-0.6-0.2-1.1-0.7-1.4c-0.5-0.4-1.1-0.7-1.8-1c-0.7-0.3-1.5-0.6-2.4-0.9
				c-0.9-0.3-1.7-0.7-2.4-1.3c-0.7-0.5-1.3-1.2-1.8-2.1s-0.7-1.9-0.7-3.2c0-2.2,0.6-3.8,1.9-5c1.3-1.1,3.2-1.7,5.6-1.7
				c1.7,0,3.2,0.2,4.5,0.5c1.3,0.4,2.4,0.7,3.2,1.2l-1.3,4.1c-0.7-0.3-1.5-0.5-2.6-0.8s-2.1-0.4-3.1-0.4c-1.7,0-2.6,0.7-2.6,2
				c0,0.5,0.2,1,0.7,1.3c0.5,0.3,1.1,0.6,1.8,0.9c0.7,0.3,1.5,0.6,2.4,0.9c0.9,0.3,1.7,0.7,2.4,1.3c0.7,0.5,1.3,1.2,1.8,2
				s0.7,1.9,0.7,3.2c0,2.2-0.7,4-2.1,5.3c-1.4,1.3-3.6,1.9-6.4,1.9c-1.6,0-3-0.2-4.4-0.6c-1.4-0.4-2.5-0.9-3.3-1.4l1.6-4.3
				c0.7,0.4,1.6,0.8,2.7,1.1c1.1,0.4,2.3,0.5,3.4,0.5c0.9,0,1.5-0.2,2-0.5C219.4,226.9,219.7,226.4,219.7,225.6z"/>
		</g>
	</g>
	<g>
		<g class="st2">
			<path class="st3" d="M30.7,273.2c0-2.2,0.5-3.9,1.5-5.1c1-1.2,2.4-1.8,4.2-1.8c0.9,0,1.8,0.2,2.5,0.5c0.7,0.3,1.3,0.8,1.8,1.4
				c0.5,0.6,0.8,1.3,1,2.2c0.2,0.8,0.3,1.8,0.3,2.8c0,2.2-0.5,3.9-1.5,5.1c-1,1.2-2.4,1.8-4.2,1.8c-1,0-1.8-0.2-2.5-0.5
				c-0.7-0.3-1.3-0.8-1.8-1.4c-0.5-0.6-0.8-1.3-1-2.2S30.7,274.2,30.7,273.2z M33.5,273.2c0,0.7,0.1,1.3,0.2,1.9
				c0.1,0.6,0.3,1,0.5,1.5c0.2,0.4,0.5,0.7,0.9,1c0.4,0.2,0.8,0.3,1.3,0.3c0.9,0,1.6-0.4,2.1-1.1c0.5-0.7,0.8-1.9,0.8-3.5
				c0-0.6-0.1-1.2-0.2-1.8c-0.1-0.6-0.3-1-0.5-1.5s-0.5-0.7-0.9-1s-0.8-0.4-1.3-0.4c-0.9,0-1.6,0.4-2.1,1.1
				C33.7,270.5,33.5,271.6,33.5,273.2z M43.3,283.7c-0.6,0.2-1.2,0.2-1.8,0.2c-0.6,0-1.3-0.1-1.9-0.2c-0.6-0.1-1.2-0.3-1.8-0.4
				c-0.6-0.2-1.1-0.3-1.7-0.4c-0.5-0.1-1-0.2-1.5-0.2c-0.3,0-0.6,0-0.9,0.1v-2.2c0.4-0.1,0.7-0.1,1.1-0.1c0.5,0,1.1,0.1,1.6,0.2
				c0.5,0.1,1.1,0.3,1.6,0.4c0.5,0.1,1.1,0.3,1.7,0.4c0.6,0.1,1.2,0.2,1.8,0.2c0.3,0,0.6,0,0.9,0c0.3,0,0.6-0.1,0.9-0.2V283.7z"/>
			<path class="st3" d="M46.2,270.4v5.4c0,0.8,0.1,1.3,0.3,1.7s0.5,0.5,1.1,0.5c0.5,0,0.9-0.1,1.2-0.4c0.3-0.3,0.5-0.6,0.7-1v-6.1
				h2.5v6.6c0,0.5,0,1,0.1,1.5s0.1,1,0.2,1.4h-1.9l-0.4-1.4h-0.1c-0.3,0.5-0.7,0.9-1.2,1.2c-0.5,0.3-1.1,0.5-1.8,0.5
				c-0.5,0-0.9-0.1-1.3-0.2c-0.4-0.1-0.7-0.3-0.9-0.6c-0.3-0.3-0.4-0.7-0.6-1.2s-0.2-1.1-0.2-1.9v-5.9H46.2z"/>
			<path class="st3" d="M54,270.9c0.5-0.2,1.1-0.4,1.8-0.5c0.7-0.1,1.4-0.2,2.2-0.2c0.7,0,1.2,0.1,1.7,0.2s0.8,0.4,1.1,0.7
				c0.3,0.3,0.4,0.6,0.6,1c0.1,0.4,0.2,0.9,0.2,1.4c0,0.6,0,1.1-0.1,1.7c0,0.6-0.1,1.1-0.1,1.7c0,0.5,0,1.1,0,1.6
				c0,0.5,0.1,1,0.3,1.5h-2l-0.4-1.3h-0.1c-0.3,0.4-0.6,0.7-1.1,1c-0.4,0.3-1,0.4-1.7,0.4c-0.4,0-0.8-0.1-1.2-0.2
				c-0.4-0.1-0.7-0.3-0.9-0.6c-0.3-0.2-0.4-0.5-0.6-0.9c-0.1-0.3-0.2-0.7-0.2-1.1c0-0.6,0.1-1.1,0.4-1.5c0.3-0.4,0.6-0.7,1.1-1
				c0.5-0.2,1.1-0.4,1.7-0.5s1.4-0.1,2.3-0.1c0.1-0.7,0-1.2-0.2-1.5s-0.6-0.5-1.3-0.5c-0.5,0-1,0.1-1.6,0.2c-0.6,0.1-1,0.2-1.4,0.4
				L54,270.9z M57.1,278c0.5,0,0.9-0.1,1.2-0.3s0.5-0.5,0.6-0.7v-1.2c-0.4,0-0.8,0-1.1,0s-0.7,0.1-1,0.2c-0.3,0.1-0.5,0.2-0.7,0.4
				c-0.2,0.2-0.2,0.4-0.2,0.6c0,0.4,0.1,0.6,0.3,0.8C56.5,277.9,56.7,278,57.1,278z"/>
			<path class="st3" d="M66,276.7c0,0.4,0.1,0.8,0.2,1c0.1,0.2,0.3,0.3,0.6,0.3c0.2,0,0.3,0,0.4,0s0.3-0.1,0.5-0.2l0.3,1.9
				c-0.2,0.1-0.5,0.2-0.9,0.3c-0.4,0.1-0.8,0.2-1.3,0.2c-0.7,0-1.3-0.2-1.7-0.5c-0.4-0.3-0.6-0.9-0.6-1.7v-11.4H66V276.7z"/>
		</g>
		<g class="st2">
			<path class="st3" d="M75.8,279.3c-0.4,0.3-0.8,0.5-1.4,0.6c-0.5,0.1-1.1,0.2-1.7,0.2c-0.8,0-1.4-0.1-1.9-0.4
				c-0.5-0.2-1-0.6-1.3-1c-0.3-0.4-0.6-1-0.7-1.6c-0.1-0.6-0.2-1.3-0.2-2.1c0-1.6,0.4-2.8,1.1-3.7c0.7-0.9,1.8-1.3,3.2-1.3
				c0.7,0,1.3,0.1,1.7,0.2c0.4,0.1,0.8,0.3,1.1,0.4l-0.6,2c-0.3-0.1-0.6-0.2-0.9-0.3c-0.3-0.1-0.6-0.1-1-0.1c-0.7,0-1.2,0.2-1.6,0.7
				c-0.4,0.4-0.5,1.2-0.5,2.2c0,0.4,0,0.8,0.1,1.1c0.1,0.3,0.2,0.6,0.4,0.9c0.2,0.3,0.4,0.5,0.7,0.6c0.3,0.1,0.6,0.2,1,0.2
				c0.4,0,0.8-0.1,1.1-0.2s0.6-0.2,0.8-0.4L75.8,279.3z"/>
		</g>
		<g class="st2">
			<path class="st3" d="M76.5,275.1c0-1.6,0.4-2.8,1.2-3.7c0.8-0.9,1.9-1.3,3.3-1.3c0.8,0,1.4,0.1,2,0.4c0.6,0.2,1,0.6,1.4,1
				c0.4,0.4,0.6,1,0.8,1.6c0.2,0.6,0.3,1.3,0.3,2.1c0,1.6-0.4,2.8-1.2,3.7s-1.9,1.3-3.3,1.3c-0.8,0-1.4-0.1-2-0.4
				c-0.6-0.2-1-0.6-1.4-1c-0.4-0.4-0.7-1-0.8-1.6S76.5,275.9,76.5,275.1z M79,275.1c0,0.4,0,0.8,0.1,1.2c0.1,0.4,0.2,0.7,0.3,0.9
				c0.2,0.3,0.4,0.5,0.6,0.6c0.2,0.1,0.5,0.2,0.9,0.2c0.6,0,1.1-0.2,1.4-0.7c0.3-0.5,0.5-1.2,0.5-2.2c0-0.9-0.1-1.6-0.4-2.1
				c-0.3-0.5-0.8-0.8-1.5-0.8c-0.6,0-1.1,0.2-1.4,0.7C79.2,273.3,79,274.1,79,275.1z"/>
			<path class="st3" d="M92.5,279.9v-5.2c0-0.9-0.1-1.5-0.2-1.9c-0.2-0.4-0.5-0.6-1-0.6c-0.4,0-0.8,0.1-1,0.4s-0.5,0.5-0.6,0.9v6.3
				h-2.5v-9.5h1.9l0.3,1.3h0.1c0.3-0.4,0.7-0.8,1.1-1.1c0.4-0.3,1-0.5,1.7-0.5c0.6,0,1.1,0.1,1.5,0.4c0.4,0.2,0.7,0.7,0.9,1.2
				c0.3-0.5,0.7-0.9,1.1-1.2s1-0.4,1.7-0.4c0.5,0,1,0.1,1.4,0.2c0.4,0.1,0.7,0.3,0.9,0.7s0.4,0.7,0.5,1.2c0.1,0.5,0.2,1.2,0.2,2v5.7
				h-2.5v-5.3c0-0.7-0.1-1.3-0.2-1.7s-0.5-0.6-1.1-0.6c-0.4,0-0.8,0.1-1.1,0.4c-0.3,0.2-0.5,0.6-0.6,1v6.2H92.5z"/>
			<path class="st3" d="M107.8,279.9v-5.2c0-0.9-0.1-1.5-0.2-1.9c-0.2-0.4-0.5-0.6-1-0.6c-0.4,0-0.8,0.1-1,0.4s-0.5,0.5-0.6,0.9v6.3
				h-2.5v-9.5h1.9l0.3,1.3h0.1c0.3-0.4,0.7-0.8,1.1-1.1c0.4-0.3,1-0.5,1.7-0.5c0.6,0,1.1,0.1,1.5,0.4c0.4,0.2,0.7,0.7,0.9,1.2
				c0.3-0.5,0.7-0.9,1.1-1.2s1-0.4,1.7-0.4c0.5,0,1,0.1,1.4,0.2c0.4,0.1,0.7,0.3,0.9,0.7s0.4,0.7,0.5,1.2c0.1,0.5,0.2,1.2,0.2,2v5.7
				h-2.5v-5.3c0-0.7-0.1-1.3-0.2-1.7s-0.5-0.6-1.1-0.6c-0.4,0-0.8,0.1-1.1,0.4c-0.3,0.2-0.5,0.6-0.6,1v6.2H107.8z"/>
		</g>
		<g class="st2">
			<path class="st3" d="M131.4,279.3c-0.4,0.3-0.9,0.5-1.5,0.6s-1.3,0.2-1.9,0.2c-0.8,0-1.6-0.1-2.3-0.4c-0.7-0.2-1.3-0.6-1.9-1.2
				c-0.5-0.6-1-1.3-1.3-2.1c-0.3-0.9-0.5-1.9-0.5-3.2c0-1.3,0.2-2.4,0.5-3.3c0.4-0.9,0.8-1.6,1.4-2.1c0.6-0.5,1.2-0.9,1.9-1.2
				c0.7-0.2,1.4-0.4,2.1-0.4c0.8,0,1.4,0.1,1.9,0.2c0.5,0.1,1,0.2,1.3,0.4l-0.5,2.2c-0.3-0.1-0.6-0.2-1-0.3
				c-0.4-0.1-0.9-0.1-1.5-0.1c-1.1,0-1.9,0.4-2.5,1.1c-0.6,0.8-1,1.9-1,3.5c0,0.7,0.1,1.3,0.2,1.9c0.2,0.6,0.4,1,0.7,1.4
				c0.3,0.4,0.7,0.7,1.2,0.9c0.5,0.2,1,0.3,1.6,0.3c0.6,0,1.1-0.1,1.4-0.2s0.7-0.3,1-0.4L131.4,279.3z"/>
		</g>
		<g class="st2">
			<path class="st3" d="M131.8,275.1c0-1.6,0.4-2.8,1.2-3.7c0.8-0.9,1.9-1.3,3.3-1.3c0.8,0,1.4,0.1,2,0.4c0.6,0.2,1,0.6,1.4,1
				c0.4,0.4,0.6,1,0.8,1.6c0.2,0.6,0.3,1.3,0.3,2.1c0,1.6-0.4,2.8-1.2,3.7c-0.8,0.9-1.9,1.3-3.3,1.3c-0.8,0-1.4-0.1-2-0.4
				c-0.6-0.2-1-0.6-1.4-1s-0.7-1-0.8-1.6S131.8,275.9,131.8,275.1z M134.3,275.1c0,0.4,0,0.8,0.1,1.2c0.1,0.4,0.2,0.7,0.3,0.9
				c0.2,0.3,0.4,0.5,0.6,0.6c0.2,0.1,0.5,0.2,0.9,0.2c0.6,0,1.1-0.2,1.4-0.7c0.3-0.5,0.5-1.2,0.5-2.2c0-0.9-0.1-1.6-0.4-2.1
				c-0.3-0.5-0.8-0.8-1.5-0.8c-0.6,0-1.1,0.2-1.4,0.7C134.5,273.3,134.3,274.1,134.3,275.1z"/>
			<path class="st3" d="M148.3,279.9v-5.4c0-0.8-0.1-1.3-0.3-1.7c-0.2-0.3-0.6-0.5-1.1-0.5c-0.5,0-0.9,0.1-1.2,0.4
				c-0.3,0.3-0.6,0.6-0.7,1v6.2h-2.5v-9.5h2l0.3,1.3h0.1c0.3-0.4,0.7-0.8,1.2-1.1c0.5-0.3,1.1-0.5,1.9-0.5c0.5,0,0.9,0.1,1.3,0.2
				c0.4,0.1,0.7,0.3,0.9,0.6c0.3,0.3,0.4,0.7,0.6,1.2c0.1,0.5,0.2,1.1,0.2,1.9v5.9H148.3z"/>
		</g>
		<g class="st2">
			<path class="st3" d="M151.9,270.4h1.3v-0.5c0-1.2,0.3-2.1,0.8-2.6c0.5-0.5,1.2-0.8,2.2-0.8c1,0,1.9,0.1,2.5,0.4l-0.5,2
				c-0.3-0.1-0.5-0.2-0.8-0.2c-0.2,0-0.5,0-0.7,0c-0.3,0-0.5,0-0.6,0.1c-0.1,0.1-0.3,0.2-0.3,0.4s-0.1,0.4-0.1,0.6s0,0.5,0,0.8h2.1
				v2.1h-2.1v7.4h-2.5v-7.4h-1.3V270.4z"/>
		</g>
		<g class="st2">
			<path class="st3" d="M166.4,279c-0.4,0.3-0.9,0.6-1.5,0.8s-1.3,0.3-2.1,0.3c-1.5,0-2.7-0.4-3.4-1.3c-0.7-0.9-1.1-2.1-1.1-3.7
				c0-1.7,0.4-2.9,1.2-3.8c0.8-0.8,1.9-1.3,3.4-1.3c0.5,0,1,0.1,1.4,0.2c0.5,0.1,0.9,0.3,1.2,0.6c0.4,0.3,0.6,0.7,0.9,1.2
				c0.2,0.5,0.3,1.1,0.3,1.8c0,0.3,0,0.6,0,0.9c0,0.3-0.1,0.6-0.1,0.9h-5.7c0,0.8,0.2,1.4,0.6,1.8c0.4,0.4,1,0.6,1.8,0.6
				c0.5,0,1-0.1,1.4-0.2c0.4-0.2,0.7-0.3,0.9-0.5L166.4,279z M162.9,272.1c-0.6,0-1.1,0.2-1.4,0.6c-0.3,0.4-0.5,0.9-0.6,1.5h3.5
				c0-0.7-0.1-1.2-0.3-1.6C163.8,272.2,163.4,272.1,162.9,272.1z"/>
			<path class="st3" d="M173.7,272.7c-0.4-0.1-0.7-0.2-1.1-0.2c-0.4,0-0.8,0.1-1.1,0.4c-0.3,0.2-0.5,0.5-0.6,0.9v6.1h-2.5v-9.5h1.9
				l0.3,1.3h0.1c0.2-0.5,0.5-0.8,0.9-1.1s0.8-0.4,1.3-0.4c0.3,0,0.7,0.1,1.1,0.2L173.7,272.7z"/>
			<path class="st3" d="M182.7,279c-0.4,0.3-0.9,0.6-1.5,0.8s-1.3,0.3-2.1,0.3c-1.5,0-2.7-0.4-3.4-1.3c-0.7-0.9-1.1-2.1-1.1-3.7
				c0-1.7,0.4-2.9,1.2-3.8c0.8-0.8,1.9-1.3,3.4-1.3c0.5,0,1,0.1,1.4,0.2c0.5,0.1,0.9,0.3,1.2,0.6c0.4,0.3,0.6,0.7,0.9,1.2
				c0.2,0.5,0.3,1.1,0.3,1.8c0,0.3,0,0.6,0,0.9c0,0.3-0.1,0.6-0.1,0.9h-5.7c0,0.8,0.2,1.4,0.6,1.8c0.4,0.4,1,0.6,1.8,0.6
				c0.5,0,1-0.1,1.4-0.2c0.4-0.2,0.7-0.3,0.9-0.5L182.7,279z M179.2,272.1c-0.6,0-1.1,0.2-1.4,0.6c-0.3,0.4-0.5,0.9-0.6,1.5h3.5
				c0.1-0.7-0.1-1.2-0.3-1.6S179.7,272.1,179.2,272.1z"/>
			<path class="st3" d="M190.6,279.9v-5.4c0-0.8-0.1-1.3-0.3-1.7c-0.2-0.3-0.6-0.5-1.1-0.5c-0.5,0-0.9,0.1-1.2,0.4
				c-0.3,0.3-0.6,0.6-0.7,1v6.2h-2.5v-9.5h2l0.3,1.3h0.1c0.3-0.4,0.7-0.8,1.2-1.1c0.5-0.3,1.1-0.5,1.9-0.5c0.5,0,0.9,0.1,1.3,0.2
				c0.4,0.1,0.7,0.3,0.9,0.6c0.3,0.3,0.4,0.7,0.6,1.2c0.1,0.5,0.2,1.1,0.2,1.9v5.9H190.6z"/>
		</g>
		<g class="st2">
			<path class="st3" d="M201.9,279.3c-0.4,0.3-0.8,0.5-1.4,0.6c-0.5,0.1-1.1,0.2-1.7,0.2c-0.8,0-1.4-0.1-1.9-0.4
				c-0.5-0.2-1-0.6-1.3-1c-0.3-0.4-0.6-1-0.7-1.6s-0.2-1.3-0.2-2.1c0-1.6,0.4-2.8,1.1-3.7c0.7-0.9,1.8-1.3,3.2-1.3
				c0.7,0,1.3,0.1,1.7,0.2c0.4,0.1,0.8,0.3,1.1,0.4l-0.6,2c-0.3-0.1-0.6-0.2-0.9-0.3c-0.3-0.1-0.6-0.1-1-0.1c-0.7,0-1.2,0.2-1.6,0.7
				s-0.5,1.2-0.5,2.2c0,0.4,0,0.8,0.1,1.1c0.1,0.3,0.2,0.6,0.4,0.9c0.2,0.3,0.4,0.5,0.7,0.6c0.3,0.1,0.6,0.2,1,0.2
				c0.4,0,0.8-0.1,1.1-0.2c0.3-0.1,0.6-0.2,0.8-0.4L201.9,279.3z"/>
		</g>
		<g class="st2">
			<path class="st3" d="M210.6,279c-0.4,0.3-0.9,0.6-1.5,0.8s-1.3,0.3-2.1,0.3c-1.5,0-2.7-0.4-3.4-1.3c-0.7-0.9-1.1-2.1-1.1-3.7
				c0-1.7,0.4-2.9,1.2-3.8c0.8-0.8,1.9-1.3,3.4-1.3c0.5,0,1,0.1,1.4,0.2c0.5,0.1,0.9,0.3,1.2,0.6c0.4,0.3,0.6,0.7,0.9,1.2
				c0.2,0.5,0.3,1.1,0.3,1.8c0,0.3,0,0.6,0,0.9c0,0.3-0.1,0.6-0.1,0.9H205c0,0.8,0.2,1.4,0.6,1.8c0.4,0.4,1,0.6,1.8,0.6
				c0.5,0,1-0.1,1.4-0.2c0.4-0.2,0.7-0.3,0.9-0.5L210.6,279z M207.1,272.1c-0.6,0-1.1,0.2-1.4,0.6c-0.3,0.4-0.5,0.9-0.6,1.5h3.5
				c0.1-0.7-0.1-1.2-0.3-1.6S207.7,272.1,207.1,272.1z"/>
		</g>
		<g class="st2">
			<path class="st3" d="M226.3,279.3c-0.4,0.3-0.9,0.5-1.5,0.6s-1.3,0.2-1.9,0.2c-0.8,0-1.6-0.1-2.3-0.4c-0.7-0.2-1.3-0.6-1.9-1.2
				c-0.5-0.6-1-1.3-1.3-2.1c-0.3-0.9-0.5-1.9-0.5-3.2c0-1.3,0.2-2.4,0.5-3.3c0.4-0.9,0.8-1.6,1.4-2.1s1.2-0.9,1.9-1.2
				c0.7-0.2,1.4-0.4,2.1-0.4c0.8,0,1.4,0.1,1.9,0.2s1,0.2,1.3,0.4l-0.5,2.2c-0.3-0.1-0.6-0.2-1-0.3s-0.9-0.1-1.5-0.1
				c-1.1,0-1.9,0.4-2.5,1.1c-0.6,0.8-1,1.9-1,3.5c0,0.7,0.1,1.3,0.2,1.9c0.2,0.6,0.4,1,0.7,1.4c0.3,0.4,0.7,0.7,1.2,0.9
				c0.5,0.2,1,0.3,1.6,0.3c0.6,0,1.1-0.1,1.4-0.2s0.7-0.3,1-0.4L226.3,279.3z"/>
		</g>
		<g class="st2">
			<path class="st3" d="M234.8,279c-0.4,0.3-0.9,0.6-1.5,0.8s-1.3,0.3-2.1,0.3c-1.5,0-2.7-0.4-3.4-1.3c-0.7-0.9-1.1-2.1-1.1-3.7
				c0-1.7,0.4-2.9,1.2-3.8s1.9-1.3,3.4-1.3c0.5,0,1,0.1,1.4,0.2c0.5,0.1,0.9,0.3,1.2,0.6c0.4,0.3,0.6,0.7,0.9,1.2
				c0.2,0.5,0.3,1.1,0.3,1.8c0,0.3,0,0.6,0,0.9c0,0.3-0.1,0.6-0.1,0.9h-5.7c0,0.8,0.2,1.4,0.6,1.8c0.4,0.4,1,0.6,1.8,0.6
				c0.5,0,1-0.1,1.4-0.2c0.4-0.2,0.7-0.3,0.9-0.5L234.8,279z M231.2,272.1c-0.6,0-1.1,0.2-1.4,0.6c-0.3,0.4-0.5,0.9-0.6,1.5h3.5
				c0-0.7-0.1-1.2-0.3-1.6C232.2,272.2,231.8,272.1,231.2,272.1z"/>
			<path class="st3" d="M242.6,279.9v-5.4c0-0.8-0.1-1.3-0.3-1.7c-0.2-0.3-0.6-0.5-1.1-0.5c-0.5,0-0.9,0.1-1.2,0.4s-0.6,0.6-0.7,1
				v6.2h-2.5v-9.5h2l0.3,1.3h0.1c0.3-0.4,0.7-0.8,1.2-1.1c0.5-0.3,1.1-0.5,1.9-0.5c0.5,0,0.9,0.1,1.3,0.2c0.4,0.1,0.7,0.3,0.9,0.6
				c0.3,0.3,0.4,0.7,0.6,1.2c0.1,0.5,0.2,1.1,0.2,1.9v5.9H242.6z"/>
		</g>
		<g class="st2">
			<path class="st3" d="M246.2,270.4h1.3v-1.8l2.5-0.7v2.5h2.3v2.1H250v3.6c0,0.7,0.1,1.1,0.2,1.4s0.4,0.4,0.8,0.4
				c0.3,0,0.5,0,0.7-0.1s0.4-0.1,0.6-0.2l0.4,1.9c-0.3,0.2-0.7,0.3-1.2,0.4c-0.5,0.1-0.9,0.2-1.4,0.2c-0.9,0-1.5-0.2-1.9-0.7
				c-0.4-0.4-0.6-1.2-0.6-2.2v-4.8h-1.3V270.4z"/>
		</g>
		<g class="st2">
			<path class="st3" d="M261.3,279c-0.4,0.3-0.9,0.6-1.5,0.8s-1.3,0.3-2.1,0.3c-1.5,0-2.7-0.4-3.4-1.3c-0.7-0.9-1.1-2.1-1.1-3.7
				c0-1.7,0.4-2.9,1.2-3.8s1.9-1.3,3.4-1.3c0.5,0,1,0.1,1.4,0.2c0.5,0.1,0.9,0.3,1.2,0.6c0.4,0.3,0.6,0.7,0.9,1.2
				c0.2,0.5,0.3,1.1,0.3,1.8c0,0.3,0,0.6,0,0.9c0,0.3-0.1,0.6-0.1,0.9h-5.7c0,0.8,0.2,1.4,0.6,1.8c0.4,0.4,1,0.6,1.8,0.6
				c0.5,0,1-0.1,1.4-0.2c0.4-0.2,0.7-0.3,0.9-0.5L261.3,279z M257.8,272.1c-0.6,0-1.1,0.2-1.4,0.6c-0.3,0.4-0.5,0.9-0.6,1.5h3.5
				c0-0.7-0.1-1.2-0.3-1.6C258.8,272.2,258.3,272.1,257.8,272.1z"/>
			<path class="st3" d="M268.6,272.7c-0.4-0.1-0.7-0.2-1.1-0.2c-0.4,0-0.8,0.1-1.1,0.4c-0.3,0.2-0.5,0.5-0.6,0.9v6.1h-2.5v-9.5h1.9
				l0.3,1.3h0.1c0.2-0.5,0.5-0.8,0.9-1.1s0.8-0.4,1.3-0.4c0.3,0,0.7,0.1,1.1,0.2L268.6,272.7z"/>
		</g>
		<g class="st2">
			<path class="st3" d="M40.6,294.3h-3.9v11h-2.6v-11h-3.9V292h10.4V294.3z"/>
			<path class="st3" d="M49.2,292h2.5v8.6c0,0.9-0.1,1.6-0.3,2.2c-0.2,0.6-0.5,1.1-0.9,1.5c-0.4,0.4-0.9,0.7-1.5,0.9
				c-0.6,0.2-1.2,0.3-1.9,0.3c-3.4,0-5.1-1.5-5.1-4.6V292h2.6v8.4c0,0.5,0,1,0.1,1.3c0.1,0.4,0.2,0.7,0.4,0.9
				c0.2,0.2,0.5,0.4,0.8,0.5c0.3,0.1,0.7,0.1,1.1,0.1c0.8,0,1.4-0.2,1.7-0.7c0.4-0.4,0.5-1.2,0.5-2.1V292z"/>
			<path class="st3" d="M53.8,292h7.9v2.3h-5.3v3.1h4.8v2.3h-4.8v3.2h5.4v2.3h-8V292z"/>
			<path class="st3" d="M69.5,301.7c0-0.4-0.1-0.7-0.4-1c-0.3-0.3-0.7-0.5-1.1-0.7c-0.4-0.2-0.9-0.4-1.5-0.6c-0.5-0.2-1-0.5-1.5-0.8
				s-0.8-0.7-1.1-1.2c-0.3-0.5-0.4-1.1-0.4-1.8c0-0.6,0.1-1.2,0.3-1.7c0.2-0.5,0.5-0.9,0.9-1.2s0.9-0.6,1.4-0.7
				c0.5-0.2,1.2-0.2,1.8-0.2c0.8,0,1.5,0.1,2.2,0.2s1.2,0.3,1.7,0.6l-0.8,2.2c-0.3-0.2-0.7-0.3-1.3-0.5c-0.6-0.1-1.2-0.2-1.8-0.2
				c-0.6,0-1.1,0.1-1.4,0.4c-0.3,0.2-0.5,0.6-0.5,1c0,0.4,0.1,0.7,0.4,0.9c0.3,0.3,0.7,0.5,1.1,0.7s0.9,0.4,1.5,0.7
				c0.5,0.2,1,0.5,1.5,0.8c0.4,0.3,0.8,0.7,1.1,1.2c0.3,0.5,0.4,1.1,0.4,1.8s-0.1,1.3-0.4,1.8c-0.2,0.5-0.6,0.9-1,1.3
				c-0.4,0.3-0.9,0.6-1.5,0.8c-0.6,0.2-1.3,0.2-2,0.2c-1,0-1.8-0.1-2.5-0.3c-0.7-0.2-1.3-0.4-1.6-0.5l0.8-2.2
				c0.1,0.1,0.3,0.2,0.5,0.2c0.2,0.1,0.5,0.2,0.8,0.2c0.3,0.1,0.6,0.1,0.9,0.2c0.3,0.1,0.6,0.1,1,0.1c0.8,0,1.4-0.1,1.8-0.4
				C69.3,302.7,69.5,302.3,69.5,301.7z"/>
			<path class="st3" d="M80,292h2.6v9.7c0,0.5-0.1,1-0.2,1.4c-0.1,0.5-0.3,0.9-0.6,1.2s-0.6,0.6-1,0.8s-0.9,0.3-1.5,0.3
				c-0.4,0-0.8,0-1.2-0.1c-0.4-0.1-0.8-0.2-1.1-0.3l0.6-2.1c0.3,0.2,0.7,0.2,1.1,0.2c0.5,0,0.9-0.2,1-0.6c0.1-0.4,0.2-0.9,0.2-1.6
				V292z"/>
			<path class="st3" d="M91.5,302.4h-4.1l-1,2.9h-2.6l4.8-13.4h1.9l4.8,13.4h-2.7L91.5,302.4z M88.1,300.3H91l-1-3l-0.4-2.1h-0.1
				l-0.4,2.1L88.1,300.3z"/>
			<path class="st3" d="M99.8,298.4l-1-2.1h-0.1l0.3,2.1v6.9h-2.5v-13.4h1.9l5,7.1l1,2h0.1l-0.3-2v-7h2.5v13.4h-1.9L99.8,298.4z"/>
			<path class="st3" d="M114.5,303.2h2.6v-7.5l0.3-1.3l-0.9,1.1l-1.7,1.2l-1-1.4l4.3-3.5h1.4v11.4h2.6v2.1h-7.6V303.2z"/>
			<path class="st3" d="M133.9,301.6h-2.1v3.7h-2.3v-3.7h-5.8v-1.4l6-8.3h2v7.7h2.1V301.6z M129.5,296.7l0.2-1.6h-0.1l-0.6,1.4
				l-2,2.6l-0.9,0.7l1.2-0.2h2.3V296.7z"/>
			<path class="st3" d="M148,295.3c0,0.6-0.1,1.3-0.4,2c-0.2,0.7-0.5,1.3-0.9,1.9c-0.4,0.6-0.8,1.2-1.2,1.8
				c-0.4,0.6-0.9,1.1-1.3,1.6l-1,0.8v0.1l1.4-0.3h3.6v2.1h-8V304c0.3-0.3,0.6-0.7,1-1.1s0.8-0.9,1.1-1.3s0.8-1,1.1-1.5
				c0.4-0.5,0.7-1,1-1.5c0.3-0.5,0.5-1,0.7-1.5c0.2-0.5,0.3-0.9,0.3-1.4c0-0.5-0.1-0.9-0.4-1.3c-0.3-0.3-0.8-0.5-1.4-0.5
				c-0.4,0-0.8,0.1-1.2,0.3c-0.4,0.2-0.8,0.4-1.1,0.7l-1-1.7c0.5-0.4,1.1-0.7,1.7-1c0.6-0.2,1.4-0.4,2.2-0.4c0.5,0,1,0.1,1.5,0.2
				c0.5,0.2,0.8,0.4,1.2,0.7c0.3,0.3,0.6,0.7,0.8,1.1C147.9,294.2,148,294.7,148,295.3z"/>
			<path class="st3" d="M150.5,298.6c0-2.3,0.4-4.1,1.2-5.2c0.8-1.1,1.9-1.7,3.4-1.7c1.6,0,2.8,0.6,3.5,1.7s1.1,2.9,1.1,5.2
				c0,2.3-0.4,4.1-1.2,5.2c-0.8,1.1-2,1.7-3.4,1.7c-1.6,0-2.7-0.6-3.5-1.8S150.5,300.9,150.5,298.6z M153,298.6
				c0,1.5,0.2,2.7,0.5,3.6s0.9,1.3,1.7,1.3c0.7,0,1.3-0.4,1.6-1.2c0.3-0.8,0.5-2,0.5-3.7c0-1.5-0.2-2.7-0.5-3.6s-0.9-1.3-1.7-1.3
				c-0.8,0-1.3,0.4-1.6,1.2S153,297,153,298.6z"/>
			<path class="st3" d="M169.6,295.3c0,0.6-0.1,1.3-0.4,2c-0.2,0.7-0.5,1.3-0.9,1.9s-0.8,1.2-1.2,1.8c-0.4,0.6-0.9,1.1-1.3,1.6
				l-1,0.8v0.1l1.4-0.3h3.6v2.1h-8V304c0.3-0.3,0.6-0.7,1-1.1c0.4-0.4,0.8-0.9,1.1-1.3c0.4-0.5,0.8-1,1.1-1.5c0.4-0.5,0.7-1,1-1.5
				c0.3-0.5,0.5-1,0.7-1.5c0.2-0.5,0.3-0.9,0.3-1.4c0-0.5-0.1-0.9-0.4-1.3c-0.3-0.3-0.8-0.5-1.4-0.5c-0.4,0-0.8,0.1-1.2,0.3
				c-0.4,0.2-0.8,0.4-1.1,0.7l-1-1.7c0.5-0.4,1.1-0.7,1.7-1c0.6-0.2,1.4-0.4,2.2-0.4c0.5,0,1,0.1,1.5,0.2c0.5,0.2,0.8,0.4,1.2,0.7
				c0.3,0.3,0.6,0.7,0.8,1.1C169.5,294.2,169.6,294.7,169.6,295.3z"/>
			<path class="st3" d="M172.1,298.6c0-2.3,0.4-4.1,1.2-5.2c0.8-1.1,1.9-1.7,3.4-1.7c1.6,0,2.8,0.6,3.5,1.7s1.1,2.9,1.1,5.2
				c0,2.3-0.4,4.1-1.2,5.2c-0.8,1.1-2,1.7-3.4,1.7c-1.6,0-2.7-0.6-3.5-1.8S172.1,300.9,172.1,298.6z M174.5,298.6
				c0,1.5,0.2,2.7,0.5,3.6s0.9,1.3,1.7,1.3c0.7,0,1.3-0.4,1.6-1.2c0.3-0.8,0.5-2,0.5-3.7c0-1.5-0.2-2.7-0.5-3.6
				c-0.3-0.8-0.9-1.3-1.7-1.3c-0.8,0-1.3,0.4-1.6,1.2S174.5,297,174.5,298.6z"/>
			<path class="st3" d="M187.7,299.3c0-0.4,0.1-0.8,0.4-1.1s0.6-0.4,1.1-0.4c0.5,0,0.9,0.1,1.1,0.4s0.4,0.6,0.4,1.1
				s-0.1,0.8-0.4,1.1c-0.3,0.3-0.7,0.4-1.1,0.4c-0.5,0-0.8-0.1-1.1-0.4C187.9,300.1,187.7,299.8,187.7,299.3z"/>
			<path class="st3" d="M197.7,302.1c0-0.4,0.1-0.8,0.2-1.2c0.1-0.3,0.3-0.7,0.5-0.9s0.5-0.5,0.7-0.8s0.6-0.4,0.9-0.6
				c-0.6-0.4-1.1-0.8-1.5-1.4c-0.4-0.5-0.5-1.1-0.5-1.9c0-0.5,0.1-1,0.3-1.4c0.2-0.4,0.5-0.8,0.8-1.1c0.3-0.3,0.8-0.6,1.3-0.7
				s1.1-0.3,1.7-0.3c0.6,0,1.1,0.1,1.6,0.2s0.9,0.4,1.2,0.6c0.3,0.3,0.6,0.6,0.8,1c0.2,0.4,0.3,0.8,0.3,1.3c0,0.7-0.2,1.4-0.5,1.9
				c-0.3,0.5-0.8,1-1.5,1.4c0.8,0.4,1.3,0.9,1.7,1.5c0.4,0.5,0.6,1.2,0.6,2.1c0,0.6-0.1,1.1-0.3,1.5s-0.5,0.9-0.9,1.2
				s-0.8,0.6-1.4,0.8s-1.1,0.3-1.7,0.3s-1.2-0.1-1.7-0.3c-0.5-0.2-0.9-0.4-1.3-0.7c-0.4-0.3-0.6-0.7-0.8-1.1
				C197.8,303.1,197.7,302.6,197.7,302.1z M203.8,301.8c0-0.3-0.1-0.6-0.2-0.8s-0.3-0.5-0.5-0.7c-0.2-0.2-0.5-0.4-0.7-0.5
				c-0.3-0.2-0.5-0.3-0.8-0.5c-0.6,0.3-1,0.7-1.2,1.1c-0.2,0.4-0.3,0.8-0.3,1.2c0,0.5,0.2,0.9,0.5,1.3c0.3,0.4,0.8,0.5,1.5,0.5
				c0.6,0,1-0.1,1.4-0.4C203.6,302.8,203.8,302.4,203.8,301.8z M200.3,295.3c0,0.3,0.1,0.6,0.2,0.8c0.1,0.2,0.3,0.4,0.5,0.6
				c0.2,0.2,0.4,0.3,0.7,0.5c0.2,0.1,0.5,0.3,0.8,0.4c0.8-0.6,1.1-1.4,1.1-2.1c0-0.5-0.2-0.9-0.5-1.2c-0.3-0.3-0.7-0.4-1.1-0.4
				c-0.6,0-1,0.1-1.2,0.4S200.3,294.9,200.3,295.3z"/>
		</g>
		<g class="st2">
			<path class="st3" d="M212.3,298.8h4.8v2.2h-4.8V298.8z"/>
		</g>
		<g class="st2">
			<path class="st3" d="M223.3,303.2h2.6v-7.5l0.3-1.3l-0.9,1.1l-1.7,1.2l-1-1.4l4.3-3.5h1.4v11.4h2.6v2.1h-7.6V303.2z"/>
			<path class="st3" d="M234.1,303.2h2.6v-7.5l0.3-1.3l-0.9,1.1l-1.7,1.2l-1-1.4l4.3-3.5h1.4v11.4h2.6v2.1h-7.6V303.2z"/>
			<path class="st3" d="M248.9,292.1c0.5-0.1,1.1-0.2,1.8-0.2c0.6-0.1,1.3-0.1,1.9-0.1c0.7,0,1.3,0.1,2,0.2s1.3,0.3,1.8,0.6
				c0.5,0.3,1,0.8,1.3,1.3s0.5,1.3,0.5,2.3c0,0.8-0.1,1.5-0.4,2.1c-0.3,0.6-0.7,1-1.2,1.4s-1,0.6-1.6,0.8s-1.3,0.2-1.9,0.2
				c-0.1,0-0.2,0-0.3,0c-0.1,0-0.3,0-0.4,0c-0.2,0-0.3,0-0.4,0c-0.1,0-0.2,0-0.3,0v4.6h-2.6V292.1z M252.7,294.1c-0.3,0-0.5,0-0.7,0
				c-0.2,0-0.4,0-0.6,0.1v4.3c0.1,0,0.1,0,0.2,0c0.1,0,0.2,0,0.3,0c0.1,0,0.2,0,0.3,0c0.1,0,0.2,0,0.2,0c0.3,0,0.7,0,1-0.1
				c0.3-0.1,0.6-0.2,0.9-0.4s0.5-0.4,0.6-0.7c0.2-0.3,0.2-0.7,0.2-1.2c0-0.4-0.1-0.8-0.2-1c-0.2-0.3-0.4-0.5-0.6-0.7
				c-0.2-0.2-0.5-0.3-0.8-0.3C253.4,294.1,253.1,294.1,252.7,294.1z"/>
			<path class="st3" d="M270,298.4l0.3-2.6h-0.1l-0.8,2.1l-2.8,5h-0.8l-3-5l-0.8-2.1h-0.1l0.4,2.6v6.9h-2.5V292h2.4l3.6,6.1l0.6,1.5
				h0.1l0.6-1.6l3.4-6h2.4v13.3H270V298.4z"/>
		</g>
	</g>
	<g>
		<g class="st2">
			<path class="st3" d="M37.6,338.4h-5v4.8h-1.2v-10.5h1.2v4.6h5v-4.6h1.2v10.5h-1.2V338.4z"/>
			<path class="st3" d="M40.8,339.5c0-1.3,0.3-2.2,0.8-2.9c0.6-0.7,1.4-1,2.4-1c0.6,0,1,0.1,1.5,0.3c0.4,0.2,0.8,0.5,1,0.8
				c0.3,0.3,0.5,0.8,0.6,1.2s0.2,1,0.2,1.6c0,1.3-0.3,2.2-0.8,2.9c-0.6,0.7-1.4,1-2.4,1c-0.6,0-1-0.1-1.5-0.3
				c-0.4-0.2-0.8-0.5-1-0.8s-0.5-0.8-0.6-1.2C40.9,340.6,40.8,340.1,40.8,339.5z M42.1,339.5c0,0.4,0,0.7,0.1,1.1
				c0.1,0.4,0.2,0.7,0.4,0.9c0.2,0.3,0.4,0.5,0.6,0.6c0.3,0.2,0.6,0.2,0.9,0.2c1.4,0,2-1,2-2.9c0-0.4,0-0.8-0.1-1.1
				c-0.1-0.3-0.2-0.7-0.4-0.9c-0.2-0.3-0.4-0.5-0.6-0.6c-0.3-0.2-0.6-0.2-0.9-0.2C42.7,336.6,42.1,337.6,42.1,339.5z"/>
			<path class="st3" d="M52.6,341.2c0-0.3-0.1-0.5-0.3-0.7s-0.4-0.3-0.7-0.4c-0.3-0.1-0.6-0.2-0.9-0.3c-0.3-0.1-0.6-0.2-0.9-0.4
				s-0.5-0.4-0.7-0.6c-0.2-0.3-0.3-0.6-0.3-1c0-0.7,0.2-1.2,0.6-1.6c0.4-0.3,1-0.5,1.7-0.5c0.5,0,1,0,1.4,0.1c0.4,0.1,0.7,0.2,1,0.3
				l-0.3,1c-0.2-0.1-0.5-0.2-0.8-0.3c-0.3-0.1-0.7-0.1-1-0.1c-0.4,0-0.8,0.1-1,0.2c-0.2,0.2-0.3,0.4-0.3,0.8c0,0.3,0.1,0.5,0.3,0.6
				c0.2,0.1,0.4,0.3,0.7,0.4c0.3,0.1,0.6,0.2,0.9,0.3s0.6,0.3,0.9,0.4c0.3,0.2,0.5,0.4,0.7,0.7c0.2,0.3,0.3,0.6,0.3,1.1
				c0,0.3-0.1,0.6-0.2,0.9c-0.1,0.3-0.3,0.5-0.5,0.7c-0.2,0.2-0.5,0.4-0.8,0.5c-0.3,0.1-0.7,0.2-1.1,0.2c-0.6,0-1.1-0.1-1.5-0.2
				c-0.4-0.1-0.7-0.2-1-0.4l0.4-1c0.2,0.1,0.5,0.2,0.9,0.4c0.4,0.1,0.7,0.2,1.1,0.2c0.4,0,0.8-0.1,1.1-0.3
				C52.4,342,52.6,341.7,52.6,341.2z"/>
		</g>
		<g class="st2">
			<path class="st3" d="M54.6,335.8h1.2v-1.5l1.2-0.3v1.8h2v1h-2v4.2c0,0.5,0.1,0.9,0.2,1.1s0.4,0.3,0.7,0.3c0.3,0,0.5,0,0.7-0.1
				c0.2-0.1,0.4-0.1,0.6-0.2l0.3,0.9c-0.3,0.1-0.6,0.2-0.9,0.3c-0.3,0.1-0.7,0.1-1,0.1c-0.6,0-1-0.2-1.3-0.5
				c-0.2-0.3-0.4-0.9-0.4-1.7v-4.4h-1.2V335.8z"/>
		</g>
		<g class="st2">
			<path class="st3" d="M66,342.7c-0.3,0.2-0.7,0.4-1.1,0.6c-0.5,0.1-0.9,0.2-1.4,0.2c-0.6,0-1.1-0.1-1.5-0.3
				c-0.4-0.2-0.8-0.5-1-0.8s-0.5-0.8-0.6-1.2c-0.1-0.5-0.2-1-0.2-1.6c0-1.3,0.3-2.3,0.9-2.9c0.6-0.7,1.4-1,2.4-1c0.3,0,0.7,0,1,0.1
				c0.3,0.1,0.6,0.2,0.9,0.4s0.5,0.5,0.7,0.9c0.2,0.4,0.3,0.9,0.3,1.5c0,0.3,0,0.7-0.1,1.1h-4.8c0,0.4,0,0.8,0.1,1.2
				c0.1,0.3,0.2,0.6,0.4,0.9c0.2,0.2,0.4,0.4,0.7,0.5s0.7,0.2,1.1,0.2c0.3,0,0.7-0.1,1-0.2c0.3-0.1,0.6-0.3,0.8-0.4L66,342.7z
				 M63.4,336.6c-0.6,0-1.1,0.2-1.4,0.5c-0.4,0.3-0.6,0.8-0.6,1.6h3.7c0-0.8-0.1-1.3-0.4-1.6C64.3,336.8,63.9,336.6,63.4,336.6z"/>
			<path class="st3" d="M73.9,340.7c0,0.5,0,1,0,1.4c0,0.4,0.1,0.8,0.1,1.2h-0.8l-0.3-1.1h-0.1c-0.2,0.4-0.5,0.6-0.9,0.9
				s-0.8,0.3-1.3,0.3c-1,0-1.7-0.3-2.2-0.9s-0.7-1.6-0.7-3c0-1.3,0.3-2.3,0.9-2.9c0.6-0.7,1.4-1,2.5-1c0.4,0,0.7,0,0.9,0.1
				c0.2,0,0.4,0.1,0.7,0.2v-3.1h1.2V340.7z M70.9,342.4c0.5,0,0.9-0.1,1.2-0.4c0.3-0.3,0.5-0.7,0.6-1.2v-3.7
				c-0.2-0.1-0.4-0.2-0.6-0.3c-0.2-0.1-0.5-0.1-0.9-0.1c-0.7,0-1.2,0.2-1.6,0.7s-0.6,1.2-0.6,2.2c0,0.4,0,0.8,0.1,1.1
				c0.1,0.4,0.2,0.7,0.3,0.9s0.3,0.4,0.6,0.6C70.2,342.3,70.5,342.4,70.9,342.4z"/>
		</g>
		<g class="st2">
			<path class="st3" d="M80.2,332.8h1.2v3.7h0.1c0.2-0.3,0.5-0.5,0.9-0.7c0.4-0.2,0.7-0.2,1.2-0.2c1,0,1.7,0.3,2.2,0.9
				c0.5,0.6,0.7,1.6,0.7,2.9c0,1.3-0.3,2.3-1,3c-0.6,0.7-1.5,1-2.7,1c-0.6,0-1.1-0.1-1.5-0.2c-0.5-0.1-0.8-0.2-1-0.4V332.8z
				 M83.3,336.6c-0.5,0-0.9,0.1-1.2,0.4s-0.5,0.7-0.7,1.2v3.8c0.2,0.1,0.4,0.2,0.7,0.2c0.3,0.1,0.5,0.1,0.8,0.1
				c0.7,0,1.2-0.2,1.6-0.7c0.4-0.5,0.6-1.2,0.6-2.2c0-0.4,0-0.8-0.1-1.1c-0.1-0.3-0.2-0.6-0.3-0.9c-0.1-0.2-0.3-0.4-0.6-0.6
				S83.6,336.6,83.3,336.6z"/>
		</g>
		<g class="st2">
			<path class="st3" d="M90.3,340.6l0.4,1.4h0.1l0.3-1.5l1.5-4.8h1.2l-2.2,6.7c-0.2,0.5-0.3,1-0.5,1.4s-0.3,0.9-0.5,1.2
				c-0.2,0.4-0.4,0.6-0.7,0.9c-0.2,0.2-0.5,0.3-0.9,0.3c-0.4,0-0.7-0.1-0.9-0.2l0.2-1c0.1,0,0.3,0.1,0.4,0.1c0.3,0,0.5-0.1,0.8-0.4
				c0.3-0.3,0.5-0.8,0.6-1.5l-3-7.5h1.4L90.3,340.6z"/>
		</g>
		<g class="st2">
			<path class="st3" d="M105,333.9h-3.3v9.4h-1.2v-9.4h-3.3v-1.1h7.8V333.9z"/>
		</g>
		<g class="st2">
			<path class="st3" d="M104.7,336.3c0.4-0.2,0.8-0.4,1.3-0.5c0.5-0.1,1-0.2,1.6-0.2c0.5,0,0.9,0.1,1.3,0.2c0.3,0.1,0.6,0.3,0.7,0.5
				c0.2,0.2,0.3,0.5,0.3,0.7c0.1,0.3,0.1,0.5,0.1,0.8c0,0.6,0,1.2,0,1.8c0,0.6,0,1.1,0,1.6c0,0.4,0,0.7,0,1c0,0.3,0.1,0.6,0.2,0.9
				h-0.9l-0.3-1h-0.1c-0.1,0.1-0.2,0.3-0.3,0.4c-0.1,0.1-0.3,0.3-0.5,0.4c-0.2,0.1-0.4,0.2-0.7,0.3c-0.2,0.1-0.5,0.1-0.9,0.1
				c-0.3,0-0.6,0-0.9-0.2c-0.3-0.1-0.5-0.2-0.7-0.4c-0.2-0.2-0.4-0.4-0.5-0.7c-0.1-0.3-0.2-0.6-0.2-0.9c0-0.4,0.1-0.8,0.3-1.1
				s0.4-0.5,0.8-0.7c0.3-0.2,0.7-0.3,1.2-0.4c0.5-0.1,1-0.1,1.5-0.1c0.1,0,0.3,0,0.4,0c0.1,0,0.3,0,0.4,0c0-0.3,0-0.6,0-0.8
				c0-0.5-0.1-0.9-0.3-1.2c-0.2-0.2-0.6-0.3-1.2-0.3c-0.2,0-0.4,0-0.5,0s-0.4,0.1-0.6,0.1c-0.2,0-0.4,0.1-0.6,0.2
				c-0.2,0.1-0.3,0.1-0.5,0.2L104.7,336.3z M106.9,342.3c0.3,0,0.5,0,0.8-0.1c0.2-0.1,0.4-0.2,0.6-0.3c0.2-0.1,0.3-0.2,0.4-0.4
				s0.2-0.3,0.2-0.4v-1.2c-0.1,0-0.3,0-0.4,0c-0.1,0-0.3,0-0.4,0c-0.3,0-0.6,0-0.9,0.1c-0.3,0-0.6,0.1-0.8,0.2
				c-0.2,0.1-0.4,0.2-0.5,0.4c-0.1,0.2-0.2,0.4-0.2,0.6c0,0.3,0.1,0.6,0.4,0.9S106.5,342.3,106.9,342.3z"/>
			<path class="st3" d="M113.4,335.8v4.3c0,0.4,0,0.7,0.1,1c0,0.3,0.1,0.5,0.2,0.7c0.1,0.2,0.3,0.3,0.4,0.4c0.2,0.1,0.4,0.1,0.7,0.1
				c0.3,0,0.5,0,0.7-0.1s0.4-0.2,0.6-0.4c0.2-0.2,0.3-0.3,0.4-0.5c0.1-0.2,0.2-0.4,0.3-0.6v-5h1.2v5.4c0,0.4,0,0.7,0,1.1
				c0,0.4,0.1,0.7,0.1,1h-0.8l-0.3-1.2H117c-0.2,0.4-0.5,0.7-0.9,1c-0.4,0.3-0.9,0.4-1.5,0.4c-0.4,0-0.8,0-1.1-0.1
				c-0.3-0.1-0.6-0.3-0.8-0.5c-0.2-0.2-0.4-0.6-0.5-1s-0.2-0.9-0.2-1.5v-4.5H113.4z"/>
			<path class="st3" d="M130.8,335.2c0,0.2,0,0.5-0.1,0.8s-0.2,0.5-0.4,0.7c-0.2,0.2-0.4,0.4-0.6,0.6s-0.5,0.3-0.9,0.4v0.1
				c0.3,0.1,0.6,0.1,0.9,0.3c0.3,0.1,0.5,0.3,0.7,0.5s0.4,0.5,0.5,0.8c0.1,0.3,0.2,0.7,0.2,1.1c0,0.5-0.1,1-0.3,1.4
				c-0.2,0.4-0.5,0.7-0.9,1c-0.4,0.2-0.8,0.4-1.3,0.6c-0.5,0.1-1,0.2-1.4,0.2c-0.2,0-0.4,0-0.6,0s-0.5,0-0.7,0c-0.2,0-0.5,0-0.8-0.1
				c-0.2,0-0.5-0.1-0.7-0.1v-10.3c0.4-0.1,0.8-0.1,1.3-0.1c0.5,0,1-0.1,1.6-0.1c0.4,0,0.8,0,1.2,0.1c0.4,0.1,0.8,0.2,1.1,0.4
				c0.3,0.2,0.6,0.4,0.8,0.8C130.7,334.2,130.8,334.6,130.8,335.2z M126.5,337.4c0.2,0,0.4,0,0.6,0c0.2,0,0.4,0,0.6,0
				c0.2-0.1,0.5-0.2,0.7-0.3s0.4-0.2,0.6-0.4c0.2-0.2,0.3-0.3,0.4-0.5c0.1-0.2,0.1-0.4,0.1-0.7c0-0.3-0.1-0.6-0.2-0.8
				c-0.1-0.2-0.3-0.4-0.5-0.5c-0.2-0.1-0.5-0.2-0.7-0.3c-0.3-0.1-0.5-0.1-0.8-0.1c-0.3,0-0.6,0-0.9,0c-0.3,0-0.5,0-0.6,0.1v3.6
				H126.5z M127.4,342.3c0.3,0,0.6,0,0.9-0.1c0.3-0.1,0.6-0.2,0.8-0.4c0.2-0.2,0.4-0.4,0.5-0.6c0.1-0.2,0.2-0.5,0.2-0.9
				c0-0.4-0.1-0.7-0.2-1s-0.4-0.4-0.6-0.6c-0.3-0.1-0.6-0.2-0.9-0.3s-0.7-0.1-1-0.1h-1.3v3.8c0.1,0,0.2,0,0.3,0c0.1,0,0.3,0,0.4,0
				c0.1,0,0.3,0,0.5,0C127.1,342.3,127.2,342.3,127.4,342.3z"/>
			<path class="st3" d="M138.6,342.7c-0.3,0.2-0.7,0.4-1.1,0.6c-0.5,0.1-0.9,0.2-1.4,0.2c-0.6,0-1.1-0.1-1.5-0.3
				c-0.4-0.2-0.8-0.5-1-0.8s-0.5-0.8-0.6-1.2c-0.1-0.5-0.2-1-0.2-1.6c0-1.3,0.3-2.3,0.9-2.9c0.6-0.7,1.4-1,2.4-1c0.3,0,0.7,0,1,0.1
				c0.3,0.1,0.6,0.2,0.9,0.4s0.5,0.5,0.7,0.9c0.2,0.4,0.3,0.9,0.3,1.5c0,0.3,0,0.7-0.1,1.1H134c0,0.4,0,0.8,0.1,1.2
				c0.1,0.3,0.2,0.6,0.4,0.9c0.2,0.2,0.4,0.4,0.7,0.5s0.7,0.2,1.1,0.2c0.3,0,0.7-0.1,1-0.2c0.3-0.1,0.6-0.3,0.8-0.4L138.6,342.7z
				 M136,336.6c-0.6,0-1.1,0.2-1.4,0.5c-0.4,0.3-0.6,0.8-0.6,1.6h3.7c0-0.8-0.1-1.3-0.4-1.6C137,336.8,136.6,336.6,136,336.6z"/>
			<path class="st3" d="M139.8,335.8h1.2v-1.5l1.2-0.3v1.8h2v1h-2v4.2c0,0.5,0.1,0.9,0.2,1.1s0.4,0.3,0.7,0.3c0.3,0,0.5,0,0.7-0.1
				c0.2-0.1,0.4-0.1,0.6-0.2l0.3,0.9c-0.3,0.1-0.6,0.2-0.9,0.3c-0.3,0.1-0.7,0.1-1,0.1c-0.6,0-1-0.2-1.3-0.5
				c-0.2-0.3-0.4-0.9-0.4-1.7v-4.4h-1.2V335.8z"/>
			<path class="st3" d="M145.7,336.3c0.4-0.2,0.8-0.4,1.3-0.5c0.5-0.1,1-0.2,1.6-0.2c0.5,0,0.9,0.1,1.3,0.2c0.3,0.1,0.6,0.3,0.7,0.5
				c0.2,0.2,0.3,0.5,0.3,0.7c0.1,0.3,0.1,0.5,0.1,0.8c0,0.6,0,1.2,0,1.8c0,0.6,0,1.1,0,1.6c0,0.4,0,0.7,0,1c0,0.3,0.1,0.6,0.2,0.9
				h-0.9l-0.3-1h-0.1c-0.1,0.1-0.2,0.3-0.3,0.4c-0.1,0.1-0.3,0.3-0.5,0.4c-0.2,0.1-0.4,0.2-0.7,0.3c-0.2,0.1-0.5,0.1-0.9,0.1
				c-0.3,0-0.6,0-0.9-0.2c-0.3-0.1-0.5-0.2-0.7-0.4c-0.2-0.2-0.4-0.4-0.5-0.7c-0.1-0.3-0.2-0.6-0.2-0.9c0-0.4,0.1-0.8,0.3-1.1
				s0.4-0.5,0.8-0.7c0.3-0.2,0.7-0.3,1.2-0.4c0.5-0.1,1-0.1,1.5-0.1c0.1,0,0.3,0,0.4,0c0.1,0,0.3,0,0.4,0c0-0.3,0-0.6,0-0.8
				c0-0.5-0.1-0.9-0.3-1.2c-0.2-0.2-0.6-0.3-1.2-0.3c-0.2,0-0.4,0-0.5,0s-0.4,0.1-0.6,0.1c-0.2,0-0.4,0.1-0.6,0.2
				c-0.2,0.1-0.3,0.1-0.5,0.2L145.7,336.3z M147.9,342.3c0.3,0,0.5,0,0.8-0.1c0.2-0.1,0.4-0.2,0.6-0.3c0.2-0.1,0.3-0.2,0.4-0.4
				s0.2-0.3,0.2-0.4v-1.2c-0.1,0-0.3,0-0.4,0c-0.1,0-0.3,0-0.4,0c-0.3,0-0.6,0-0.9,0.1c-0.3,0-0.6,0.1-0.8,0.2
				c-0.2,0.1-0.4,0.2-0.5,0.4c-0.1,0.2-0.2,0.4-0.2,0.6c0,0.3,0.1,0.6,0.4,0.9S147.5,342.3,147.9,342.3z"/>
			<path class="st3" d="M157.4,332.9c0.4-0.1,0.8-0.2,1.2-0.2s0.9,0,1.3,0c0.5,0,0.9,0,1.4,0.1c0.5,0.1,0.9,0.3,1.3,0.5
				c0.4,0.2,0.7,0.6,1,1s0.4,1,0.4,1.6c0,0.6-0.1,1.2-0.3,1.6c-0.2,0.4-0.5,0.8-0.9,1.1c-0.4,0.3-0.8,0.5-1.3,0.6
				c-0.5,0.1-1,0.2-1.5,0.2c-0.1,0-0.1,0-0.2,0s-0.2,0-0.4,0s-0.2,0-0.4,0s-0.2,0-0.3,0v4h-1.2V332.9z M160,333.7
				c-0.3,0-0.5,0-0.8,0c-0.2,0-0.4,0-0.6,0.1v4.4c0,0,0.1,0,0.2,0s0.2,0,0.3,0c0.1,0,0.2,0,0.3,0c0.1,0,0.2,0,0.2,0
				c0.3,0,0.7,0,1-0.1c0.3-0.1,0.6-0.2,0.9-0.4s0.5-0.4,0.7-0.7c0.2-0.3,0.2-0.7,0.2-1.2c0-0.4-0.1-0.8-0.2-1
				c-0.2-0.3-0.4-0.5-0.6-0.7c-0.3-0.2-0.5-0.3-0.9-0.4C160.6,333.7,160.3,333.7,160,333.7z"/>
			<path class="st3" d="M165.7,333.5c0-0.2,0.1-0.4,0.2-0.6s0.4-0.2,0.6-0.2s0.4,0.1,0.6,0.2c0.2,0.2,0.3,0.4,0.3,0.6
				c0,0.2-0.1,0.4-0.3,0.6c-0.2,0.2-0.4,0.2-0.6,0.2s-0.4-0.1-0.6-0.2S165.7,333.7,165.7,333.5z M165.9,335.8h1.2v7.5h-1.2V335.8z"
				/>
			<path class="st3" d="M173.6,336.3c0.4-0.2,0.8-0.4,1.3-0.5c0.5-0.1,1-0.2,1.6-0.2c0.5,0,0.9,0.1,1.3,0.2c0.3,0.1,0.6,0.3,0.7,0.5
				c0.2,0.2,0.3,0.5,0.3,0.7c0.1,0.3,0.1,0.5,0.1,0.8c0,0.6,0,1.2,0,1.8c0,0.6,0,1.1,0,1.6c0,0.4,0,0.7,0,1s0.1,0.6,0.2,0.9h-0.9
				l-0.3-1h-0.1c-0.1,0.1-0.2,0.3-0.3,0.4c-0.1,0.1-0.3,0.3-0.5,0.4c-0.2,0.1-0.4,0.2-0.7,0.3c-0.2,0.1-0.5,0.1-0.9,0.1
				s-0.6,0-0.9-0.2c-0.3-0.1-0.5-0.2-0.7-0.4c-0.2-0.2-0.4-0.4-0.5-0.7c-0.1-0.3-0.2-0.6-0.2-0.9c0-0.4,0.1-0.8,0.3-1.1
				c0.2-0.3,0.4-0.5,0.8-0.7c0.3-0.2,0.7-0.3,1.2-0.4s1-0.1,1.5-0.1c0.1,0,0.3,0,0.4,0s0.3,0,0.4,0c0-0.3,0-0.6,0-0.8
				c0-0.5-0.1-0.9-0.3-1.2c-0.2-0.2-0.6-0.3-1.2-0.3c-0.2,0-0.4,0-0.5,0c-0.2,0-0.4,0.1-0.6,0.1c-0.2,0-0.4,0.1-0.6,0.2
				c-0.2,0.1-0.3,0.1-0.5,0.2L173.6,336.3z M175.7,342.3c0.3,0,0.5,0,0.8-0.1c0.2-0.1,0.4-0.2,0.6-0.3c0.2-0.1,0.3-0.2,0.4-0.4
				c0.1-0.1,0.2-0.3,0.2-0.4v-1.2c-0.1,0-0.3,0-0.4,0c-0.1,0-0.3,0-0.4,0c-0.3,0-0.6,0-0.9,0.1c-0.3,0-0.6,0.1-0.8,0.2
				c-0.2,0.1-0.4,0.2-0.5,0.4s-0.2,0.4-0.2,0.6c0,0.3,0.1,0.6,0.4,0.9S175.3,342.3,175.7,342.3z"/>
			<path class="st3" d="M186,343.3V339c0-0.8-0.1-1.4-0.3-1.8c-0.2-0.4-0.6-0.6-1.2-0.6c-0.5,0-1,0.1-1.3,0.4
				c-0.3,0.3-0.6,0.6-0.7,1.1v5.1h-1.2v-7.5h0.8l0.2,0.9h0.1c0.2-0.3,0.6-0.6,1-0.8s0.9-0.3,1.4-0.3c0.4,0,0.8,0,1.1,0.1
				c0.3,0.1,0.6,0.3,0.8,0.5s0.4,0.6,0.5,1c0.1,0.4,0.2,0.9,0.2,1.5v4.5H186z"/>
			<path class="st3" d="M195.1,340.7c0,0.5,0,1,0,1.4s0.1,0.8,0.1,1.2h-0.8l-0.3-1.1h-0.1c-0.2,0.4-0.5,0.6-0.9,0.9
				s-0.8,0.3-1.3,0.3c-1,0-1.7-0.3-2.2-0.9s-0.7-1.6-0.7-3c0-1.3,0.3-2.3,0.9-2.9c0.6-0.7,1.4-1,2.5-1c0.4,0,0.7,0,0.9,0.1
				c0.2,0,0.4,0.1,0.7,0.2v-3.1h1.2V340.7z M192.1,342.4c0.5,0,0.9-0.1,1.2-0.4c0.3-0.3,0.5-0.7,0.6-1.2v-3.7
				c-0.2-0.1-0.4-0.2-0.6-0.3c-0.2-0.1-0.5-0.1-0.9-0.1c-0.7,0-1.2,0.2-1.6,0.7s-0.6,1.2-0.6,2.2c0,0.4,0,0.8,0.1,1.1
				c0.1,0.4,0.2,0.7,0.3,0.9s0.3,0.4,0.6,0.6C191.4,342.3,191.7,342.4,192.1,342.4z"/>
		</g>
		<g class="st2">
			<path class="st3" d="M207.9,333.9h-3.3v9.4h-1.2v-9.4h-3.3v-1.1h7.8V333.9z"/>
			<path class="st3" d="M214.1,343.3V339c0-0.4,0-0.7-0.1-1s-0.1-0.5-0.2-0.7c-0.1-0.2-0.3-0.3-0.5-0.4c-0.2-0.1-0.5-0.1-0.8-0.1
				c-0.5,0-0.9,0.2-1.3,0.5c-0.4,0.3-0.6,0.7-0.7,1.2v5h-1.2v-10.5h1.2v3.8h0.1c0.3-0.3,0.6-0.6,0.9-0.7c0.4-0.2,0.8-0.3,1.4-0.3
				c0.4,0,0.8,0,1.1,0.1c0.3,0.1,0.6,0.3,0.8,0.5s0.4,0.6,0.5,1s0.1,0.9,0.1,1.5v4.5H214.1z"/>
			<path class="st3" d="M223,342.7c-0.3,0.2-0.7,0.4-1.1,0.6c-0.5,0.1-0.9,0.2-1.4,0.2c-0.6,0-1.1-0.1-1.5-0.3
				c-0.4-0.2-0.8-0.5-1-0.8c-0.3-0.3-0.5-0.8-0.6-1.2c-0.1-0.5-0.2-1-0.2-1.6c0-1.3,0.3-2.3,0.9-2.9c0.6-0.7,1.4-1,2.4-1
				c0.3,0,0.7,0,1,0.1c0.3,0.1,0.6,0.2,0.9,0.4c0.3,0.2,0.5,0.5,0.7,0.9c0.2,0.4,0.3,0.9,0.3,1.5c0,0.3,0,0.7-0.1,1.1h-4.8
				c0,0.4,0,0.8,0.1,1.2c0.1,0.3,0.2,0.6,0.4,0.9c0.2,0.2,0.4,0.4,0.7,0.5s0.7,0.2,1.1,0.2c0.3,0,0.7-0.1,1-0.2s0.6-0.3,0.8-0.4
				L223,342.7z M220.4,336.6c-0.6,0-1.1,0.2-1.4,0.5c-0.4,0.3-0.6,0.8-0.6,1.6h3.7c0-0.8-0.1-1.3-0.4-1.6
				C221.3,336.8,220.9,336.6,220.4,336.6z"/>
			<path class="st3" d="M224.1,335.8h1.2v-1.5l1.2-0.3v1.8h2v1h-2v4.2c0,0.5,0.1,0.9,0.2,1.1c0.1,0.2,0.3,0.3,0.7,0.3
				c0.3,0,0.5,0,0.7-0.1c0.2-0.1,0.4-0.1,0.6-0.2l0.3,0.9c-0.3,0.1-0.6,0.2-0.9,0.3c-0.3,0.1-0.7,0.1-1,0.1c-0.6,0-1-0.2-1.3-0.5
				c-0.2-0.3-0.4-0.9-0.4-1.7v-4.4h-1.2V335.8z"/>
			<path class="st3" d="M230.1,336.3c0.4-0.2,0.8-0.4,1.3-0.5c0.5-0.1,1-0.2,1.6-0.2c0.5,0,0.9,0.1,1.3,0.2c0.3,0.1,0.6,0.3,0.7,0.5
				c0.2,0.2,0.3,0.5,0.3,0.7c0.1,0.3,0.1,0.5,0.1,0.8c0,0.6,0,1.2,0,1.8c0,0.6,0,1.1,0,1.6c0,0.4,0,0.7,0,1c0,0.3,0.1,0.6,0.2,0.9
				h-0.9l-0.3-1h-0.1c-0.1,0.1-0.2,0.3-0.3,0.4s-0.3,0.3-0.5,0.4c-0.2,0.1-0.4,0.2-0.7,0.3c-0.2,0.1-0.5,0.1-0.9,0.1
				c-0.3,0-0.6,0-0.9-0.2c-0.3-0.1-0.5-0.2-0.7-0.4c-0.2-0.2-0.4-0.4-0.5-0.7s-0.2-0.6-0.2-0.9c0-0.4,0.1-0.8,0.3-1.1
				s0.4-0.5,0.8-0.7c0.3-0.2,0.7-0.3,1.2-0.4s1-0.1,1.5-0.1c0.1,0,0.3,0,0.4,0s0.3,0,0.4,0c0-0.3,0-0.6,0-0.8c0-0.5-0.1-0.9-0.3-1.2
				c-0.2-0.2-0.6-0.3-1.2-0.3c-0.2,0-0.4,0-0.5,0s-0.4,0.1-0.6,0.1c-0.2,0-0.4,0.1-0.6,0.2c-0.2,0.1-0.3,0.1-0.5,0.2L230.1,336.3z
				 M232.2,342.3c0.3,0,0.5,0,0.8-0.1c0.2-0.1,0.4-0.2,0.6-0.3c0.2-0.1,0.3-0.2,0.4-0.4s0.2-0.3,0.2-0.4v-1.2c-0.1,0-0.3,0-0.4,0
				c-0.1,0-0.3,0-0.4,0c-0.3,0-0.6,0-0.9,0.1c-0.3,0-0.6,0.1-0.8,0.2c-0.2,0.1-0.4,0.2-0.5,0.4s-0.2,0.4-0.2,0.6
				c0,0.3,0.1,0.6,0.4,0.9S231.8,342.3,232.2,342.3z"/>
		</g>
		<g class="st2">
			<path class="st3" d="M248.1,333.9h-3.3v9.4h-1.2v-9.4h-3.3v-1.1h7.8V333.9z"/>
		</g>
		<g class="st2">
			<path class="st3" d="M247.8,336.3c0.4-0.2,0.8-0.4,1.3-0.5c0.5-0.1,1-0.2,1.6-0.2c0.5,0,0.9,0.1,1.3,0.2c0.3,0.1,0.6,0.3,0.7,0.5
				c0.2,0.2,0.3,0.5,0.3,0.7c0.1,0.3,0.1,0.5,0.1,0.8c0,0.6,0,1.2,0,1.8c0,0.6,0,1.1,0,1.6c0,0.4,0,0.7,0,1c0,0.3,0.1,0.6,0.2,0.9
				h-0.9l-0.3-1H252c-0.1,0.1-0.2,0.3-0.3,0.4c-0.1,0.1-0.3,0.3-0.5,0.4c-0.2,0.1-0.4,0.2-0.7,0.3c-0.2,0.1-0.5,0.1-0.9,0.1
				c-0.3,0-0.6,0-0.9-0.2c-0.3-0.1-0.5-0.2-0.7-0.4c-0.2-0.2-0.4-0.4-0.5-0.7c-0.1-0.3-0.2-0.6-0.2-0.9c0-0.4,0.1-0.8,0.3-1.1
				c0.2-0.3,0.4-0.5,0.8-0.7s0.7-0.3,1.2-0.4s1-0.1,1.5-0.1c0.1,0,0.3,0,0.4,0s0.3,0,0.4,0c0-0.3,0-0.6,0-0.8c0-0.5-0.1-0.9-0.3-1.2
				c-0.2-0.2-0.6-0.3-1.2-0.3c-0.2,0-0.4,0-0.5,0c-0.2,0-0.4,0.1-0.6,0.1c-0.2,0-0.4,0.1-0.6,0.2c-0.2,0.1-0.3,0.1-0.5,0.2
				L247.8,336.3z M249.9,342.3c0.3,0,0.5,0,0.8-0.1c0.2-0.1,0.4-0.2,0.6-0.3c0.2-0.1,0.3-0.2,0.4-0.4c0.1-0.1,0.2-0.3,0.2-0.4v-1.2
				c-0.1,0-0.3,0-0.4,0c-0.1,0-0.3,0-0.4,0c-0.3,0-0.6,0-0.9,0.1c-0.3,0-0.6,0.1-0.8,0.2c-0.2,0.1-0.4,0.2-0.5,0.4s-0.2,0.4-0.2,0.6
				c0,0.3,0.1,0.6,0.4,0.9S249.6,342.3,249.9,342.3z"/>
			<path class="st3" d="M256.5,335.8v4.3c0,0.4,0,0.7,0.1,1s0.1,0.5,0.2,0.7c0.1,0.2,0.3,0.3,0.5,0.4c0.2,0.1,0.4,0.1,0.7,0.1
				c0.3,0,0.5,0,0.7-0.1s0.4-0.2,0.6-0.4c0.2-0.2,0.3-0.3,0.4-0.5c0.1-0.2,0.2-0.4,0.3-0.6v-5h1.2v5.4c0,0.4,0,0.7,0,1.1
				c0,0.4,0.1,0.7,0.1,1h-0.8l-0.3-1.2h-0.1c-0.2,0.4-0.5,0.7-0.9,1c-0.4,0.3-0.9,0.4-1.5,0.4c-0.4,0-0.8,0-1.1-0.1
				c-0.3-0.1-0.6-0.3-0.8-0.5c-0.2-0.2-0.4-0.6-0.5-1c-0.1-0.4-0.2-0.9-0.2-1.5v-4.5H256.5z"/>
		</g>
	</g>
	<g>
		<path class="st3" d="M225.3,35.1h-5.2v14h-3.5v-14h-5.2v-3h13.9V35.1z"/>
		<path class="st3" d="M232.2,32.2h10.6v3h-7.1v3.9h6.5v3h-6.5v4.1h7.2v3h-10.7V32.2z"/>
		<path class="st3" d="M258.3,44.6c0-0.5-0.2-1-0.6-1.3c-0.5-0.4-1-0.7-1.5-0.9c-0.6-0.3-1.3-0.5-2-0.8c-0.7-0.3-1.4-0.6-2-1
			c-0.6-0.4-1.1-0.9-1.5-1.5c-0.4-0.7-0.6-1.5-0.6-2.3c0-0.7,0.1-1.5,0.4-2.1c0.3-0.6,0.7-1.1,1.2-1.5c0.6-0.4,1.2-0.7,1.9-0.9
			c0.8-0.2,1.6-0.3,2.5-0.3c1,0,2,0.1,2.9,0.3c0.8,0.1,1.6,0.4,2.3,0.7l-1.1,2.8c-0.5-0.3-1.1-0.5-1.7-0.6c-0.8-0.2-1.6-0.3-2.4-0.3
			c-0.7,0-1.3,0.1-1.9,0.5c-0.4,0.3-0.7,0.7-0.7,1.2c0,0.5,0.2,0.9,0.6,1.2c0.5,0.4,1,0.7,1.5,0.9c0.6,0.3,1.3,0.6,2,0.8
			c0.7,0.3,1.3,0.6,2,1.1c0.6,0.4,1.1,0.9,1.5,1.5c0.4,0.7,0.6,1.5,0.6,2.3c0,0.8-0.1,1.6-0.5,2.3c-0.3,0.6-0.8,1.2-1.3,1.6
			c-0.6,0.5-1.3,0.8-2.1,1c-0.9,0.2-1.8,0.3-2.7,0.3c-1.1,0-2.3-0.1-3.4-0.3c-0.7-0.2-1.5-0.4-2.1-0.7l1.1-2.8
			c0.2,0.1,0.5,0.2,0.7,0.3c0.3,0.1,0.7,0.2,1,0.3c0.4,0.1,0.8,0.2,1.2,0.2c0.4,0.1,0.9,0.1,1.3,0.1c0.8,0,1.6-0.1,2.4-0.5
			C258.1,45.8,258.4,45.2,258.3,44.6z"/>
		<path class="st3" d="M281.4,48.4c-0.6,0.4-1.3,0.7-2.1,0.8c-0.9,0.2-1.7,0.2-2.6,0.2c-1,0-2.1-0.2-3-0.5c-1-0.3-1.8-0.8-2.5-1.5
			c-0.8-0.8-1.4-1.7-1.7-2.7c-0.5-1.3-0.7-2.7-0.7-4.1c0-1.4,0.2-2.8,0.7-4.2c0.4-1,1.1-2,1.9-2.7c0.7-0.7,1.6-1.2,2.6-1.5
			c0.9-0.3,1.9-0.4,2.9-0.4c0.9,0,1.7,0.1,2.6,0.2c0.6,0.1,1.2,0.3,1.7,0.5l-0.7,2.8c-0.4-0.2-0.9-0.3-1.4-0.4
			c-0.6-0.1-1.3-0.1-2-0.1c-1.3-0.1-2.5,0.5-3.4,1.4c-1,1.3-1.4,2.9-1.3,4.4c0,0.8,0.1,1.6,0.3,2.4c0.2,0.7,0.5,1.3,0.9,1.8
			c0.4,0.5,1,0.9,1.6,1.2c0.7,0.3,1.4,0.4,2.2,0.4c0.7,0,1.3-0.1,1.9-0.2c0.5-0.1,0.9-0.3,1.4-0.6L281.4,48.4z"/>
	</g>
</g>
</svg>
