<svg width="472" height="135" viewBox="0 0 472 135" fill="none" xmlns="http://www.w3.org/2000/svg">
<g clip-path="url(#clip0)">
<g style="mix-blend-mode:soft-light" filter="url(#filter0_d)">
<path d="M453.555 122.574C459.077 122.574 463.656 117.935 461.431 112.88C454.627 97.428 431.688 82.9833 395.669 71.8312C352.202 58.3733 293.248 50.8127 231.777 50.8127C170.306 50.8127 111.353 58.3733 67.886 71.8312C31.8668 82.9833 8.92712 97.428 2.12361 112.88C-0.101879 117.935 4.47716 122.574 10 122.574L231.777 122.574H453.555Z" fill="#F7F7F7"/>
<path d="M322.706 93.1566C322.706 83.7327 321.126 74.4011 318.058 65.6945C314.989 56.988 310.491 49.077 304.821 42.4133C299.15 35.7496 292.419 30.4637 285.01 26.8573C277.601 23.251 269.661 21.3948 261.642 21.3948C253.622 21.3948 245.682 23.251 238.273 26.8573C230.865 30.4637 224.133 35.7496 218.462 42.4133C212.792 49.077 208.294 56.988 205.225 65.6945C202.157 74.4011 200.577 83.7327 200.577 93.1566L261.642 93.1566H322.706Z" fill="#F7F7F7"/>
<path d="M261.195 122.575C261.195 90.0657 250.488 58.8884 231.43 35.9012C212.371 12.9141 186.522 2.45434e-06 159.57 0C132.617 -2.45434e-06 106.768 12.9141 87.7097 35.9012C68.6513 58.8884 57.9443 90.0657 57.9443 122.574L159.57 122.575H261.195Z" fill="#F7F7F7"/>
<path d="M453.555 122.574C459.078 122.574 463.619 118.079 462.926 112.6C460.385 92.5093 450.22 73.6578 433.92 59.2242C414.945 42.4227 389.21 32.9837 362.375 32.9837C335.54 32.9837 309.805 42.4227 290.83 59.2242C274.53 73.6578 264.365 92.5092 261.824 112.6C261.131 118.079 265.672 122.574 271.195 122.574L362.375 122.574H453.555Z" fill="#F7F7F7"/>
<circle cx="35.658" cy="57.0528" r="12.4803" fill="#F7F7F7"/>
<path d="M235.111 60.9907C230.627 50.6 239.206 42.4024 244.821 52.2281C251.27 63.5142 255.736 76.7286 258.259 92.84C258.991 97.5138 255.286 101.625 250.555 101.625C245.651 101.625 241.949 97.2168 242.004 92.3132C242.121 81.7898 239.601 71.3983 235.111 60.9907Z" fill="#CEEBEB"/>
<path d="M446.716 97.7723C443.737 86.857 452.234 78.9564 456.683 89.3594C459.715 96.4483 461.885 104.428 463.164 113.603C463.762 117.89 460.696 121.759 456.421 122.434L456.187 122.471C455.751 122.54 455.309 122.561 454.869 122.535C451.269 122.317 448.675 119.032 448.816 115.428C449.051 109.437 448.301 103.579 446.716 97.7723Z" fill="#CEEBEB"/>
<path d="M294.22 45C290.665 38.5444 293.29 32.5375 297.975 38.2259C299.66 40.2716 301.274 42.548 302.825 45.0826C303.981 46.9706 303.139 49.4112 301.112 50.302C298.976 51.2411 296.521 50.0296 295.615 47.8791C295.199 46.8905 294.733 45.9316 294.22 45Z" fill="#CEEBEB"/>
<rect x="353.906" y="2.6743" width="39.2238" height="16.0461" rx="8.02306" fill="#F7F7F7"/>
<circle cx="335.631" cy="12.0346" r="6.68588" fill="#F7F7F7"/>
</g>
</g>
<defs>
<filter id="filter0_d" x="-2.45117" y="0" width="469.69" height="130.575" filterUnits="userSpaceOnUse" color-interpolation-filters="sRGB">
<feFlood flood-opacity="0" result="BackgroundImageFix"/>
<feColorMatrix in="SourceAlpha" type="matrix" values="0 0 0 0 0 0 0 0 0 0 0 0 0 0 0 0 0 0 127 0"/>
<feOffset dy="4"/>
<feGaussianBlur stdDeviation="2"/>
<feColorMatrix type="matrix" values="0 0 0 0 0 0 0 0 0 0 0 0 0 0 0 0 0 0 0.25 0"/>
<feBlend mode="normal" in2="BackgroundImageFix" result="effect1_dropShadow"/>
<feBlend mode="normal" in="SourceGraphic" in2="effect1_dropShadow" result="shape"/>
</filter>
<clipPath id="clip0">
<rect width="472" height="135" fill="white"/>
</clipPath>
</defs>
</svg>
