<svg width="702" height="237" viewBox="0 0 702 237" fill="none" xmlns="http://www.w3.org/2000/svg">
<path opacity="0.4" d="M2.70388 117.959L1.89274 184.379C1.89274 184.379 -0.135091 199.831 35.2844 200.373C69.0816 200.373 66.7834 184.379 66.7834 184.379L66.1075 116.739L2.70388 117.959Z" fill="url(#paint0_linear)"/>
<path d="M57.4552 173.399C59.0774 182.074 41.5029 183.836 35.9601 183.836C31.2285 183.836 26.3617 183.159 21.9005 181.397C18.9263 180.177 15.0059 177.737 13.7892 174.484C12.3021 170.553 16.8985 164.317 18.656 161.2C19.1967 160.251 20.2782 158.489 21.6301 156.32C21.6301 156.455 21.4949 156.591 21.4949 156.727C21.4949 159.031 27.7136 160.793 35.2842 160.793C42.8548 160.793 49.0735 158.895 49.0735 156.727C49.0735 156.455 49.0735 156.32 48.9383 156.049L49.0735 155.913L51.3717 159.709C51.3717 159.709 56.7792 169.333 57.4552 173.399Z" fill="#87D3E3"/>
<path d="M49.3439 156.184C48.2624 154.287 42.4492 152.796 35.5546 152.796C29.0655 152.796 23.658 154.151 22.1709 155.913C24.6043 151.847 27.4433 146.967 27.4433 146.289C27.5785 143.307 27.5785 140.325 27.7136 137.343C27.8488 132.87 28.5248 128.803 24.4691 125.686C23.3876 124.872 22.5765 124.195 22.982 122.568C23.3876 120.806 30.5526 121.077 31.9045 121.077C36.0954 120.941 40.4214 121.077 44.6123 121.348C45.153 121.348 45.6938 121.348 46.2345 121.619C47.5864 122.161 47.7216 123.652 46.9105 124.737C46.5049 125.279 45.9641 125.686 45.4234 126.092C44.7474 126.634 44.3419 127.177 43.9363 127.854C42.7196 129.888 42.5844 132.327 42.7196 134.767C42.7196 138.969 43.1252 141.409 43.1252 145.611L49.3439 156.184Z" fill="#60BBEA"/>
<path d="M49.2087 156.32C49.3439 156.455 49.3439 156.726 49.3439 156.998C49.3439 159.302 43.1252 161.064 35.5546 161.064C27.9841 161.064 21.7654 159.166 21.7654 156.998C21.7654 156.862 21.7654 156.726 21.9006 156.591C22.0358 156.455 22.1709 156.184 22.1709 156.049C23.658 154.287 29.0656 152.931 35.5546 152.931C42.4493 152.795 48.1272 154.287 49.2087 156.32Z" fill="#77CDD3"/>
<path d="M22.0358 155.913C21.9006 156.049 21.7654 156.32 21.7654 156.455C21.7654 156.184 21.9006 156.049 22.0358 155.913Z" fill="#52BF99"/>
<path opacity="0.5" d="M35.9601 143.036C37.2293 143.036 38.2583 142.004 38.2583 140.731C38.2583 139.459 37.2293 138.427 35.9601 138.427C34.6908 138.427 33.6619 139.459 33.6619 140.731C33.6619 142.004 34.6908 143.036 35.9601 143.036Z" fill="white"/>
<path opacity="0.5" d="M27.8487 112.402C29.118 112.402 30.147 111.37 30.147 110.097C30.147 108.825 29.118 107.793 27.8487 107.793C26.5795 107.793 25.5505 108.825 25.5505 110.097C25.5505 111.37 26.5795 112.402 27.8487 112.402Z" fill="white"/>
<path opacity="0.5" d="M42.5844 104.404C44.6003 104.404 46.2345 102.766 46.2345 100.744C46.2345 98.723 44.6003 97.0845 42.5844 97.0845C40.5685 97.0845 38.9343 98.723 38.9343 100.744C38.9343 102.766 40.5685 104.404 42.5844 104.404Z" fill="white"/>
<path opacity="0.5" d="M34.6082 130.836C35.3549 130.836 35.9601 130.229 35.9601 129.481C35.9601 128.732 35.3549 128.125 34.6082 128.125C33.8616 128.125 33.2563 128.732 33.2563 129.481C33.2563 130.229 33.8616 130.836 34.6082 130.836Z" fill="white"/>
<path opacity="0.5" d="M30.9581 173.941C32.2274 173.941 33.2563 172.91 33.2563 171.637C33.2563 170.364 32.2274 169.333 30.9581 169.333C29.6889 169.333 28.6599 170.364 28.6599 171.637C28.6599 172.91 29.6889 173.941 30.9581 173.941Z" fill="white"/>
<path opacity="0.5" d="M40.827 180.177C41.5736 180.177 42.1789 179.57 42.1789 178.821C42.1789 178.072 41.5736 177.466 40.827 177.466C40.0804 177.466 39.4751 178.072 39.4751 178.821C39.4751 179.57 40.0804 180.177 40.827 180.177Z" fill="white"/>
<path opacity="0.4" d="M486.763 10.8562L488.605 82.5687C488.605 82.5687 485.842 96.4831 535.572 96.9418C583.307 96.9418 579.93 82.5687 579.93 82.5687L578.549 10.8562H486.763Z" fill="url(#paint1_linear)"/>
<path d="M566.577 40.3669V68.8073C566.577 71.5596 564.428 73.7003 561.665 73.7003H507.33C504.567 73.7003 502.419 71.5596 502.419 68.8073V40.3669C523.446 40.3669 544.628 40.3669 565.656 40.3669H566.577Z" fill="#161616"/>
<path d="M566.577 33.6392V40.5199H565.656C544.628 40.5199 523.293 40.5199 502.419 40.5199V33.6392C502.419 30.8869 504.567 28.7462 507.33 28.7462H561.665C564.274 28.7462 566.577 30.8869 566.577 33.6392Z" fill="#454545"/>
<path d="M539.409 58.1039C539.563 55.3516 539.409 50.3058 535.726 49.6941C531.888 49.0825 531.121 54.1284 530.967 56.7278C530.814 59.4801 530.967 65.7492 535.419 65.4434C538.642 65.2905 539.256 60.5504 539.409 58.1039C539.563 57.0336 537.874 57.0336 537.721 58.1039C537.567 59.1743 537.414 61.4678 536.647 62.3853C533.73 66.2079 532.656 60.8562 532.502 59.633C532.349 58.7155 532.502 57.6452 532.502 56.5749C532.502 54.8929 533.884 48.1651 536.8 52.4464C537.874 53.9755 537.721 56.2691 537.567 57.951C537.721 59.1743 539.409 59.1743 539.409 58.1039Z" fill="#56B947"/>
<path d="M537.414 52.5993C535.572 54.8929 533.73 57.3394 531.735 59.633C531.121 60.3975 532.195 61.6207 532.809 60.7033C534.805 58.4097 536.646 56.1161 538.488 53.6697C539.256 52.9051 538.028 51.8348 537.414 52.5993Z" fill="#56B947"/>
<path d="M524.981 50.3058C524.981 54.893 524.981 59.633 524.981 64.2202C524.981 65.2905 526.67 65.2905 526.67 64.2202C526.67 59.633 526.67 54.893 526.67 50.3058C526.516 49.2355 524.981 49.2355 524.981 50.3058Z" fill="#56B947"/>
<path d="M524.828 49.8471C524.367 50.6116 523.907 51.3761 523.446 52.1407C522.986 53.0581 524.367 53.8226 524.828 52.9052C525.288 52.1407 525.749 51.3761 526.209 50.6116C526.823 49.8471 525.442 49.0825 524.828 49.8471Z" fill="#56B947"/>
<path d="M523.753 65.1376C525.135 65.1376 526.67 65.1376 528.051 65.1376C529.126 65.1376 529.126 63.4557 528.051 63.4557C526.67 63.4557 525.135 63.4557 523.753 63.4557C522.679 63.4557 522.679 65.1376 523.753 65.1376Z" fill="#56B947"/>
<path d="M544.167 50.3058C544.167 54.893 544.167 59.633 544.167 64.2202C544.167 65.2905 545.856 65.2905 545.856 64.2202C545.856 59.633 545.856 54.893 545.856 50.3058C545.856 49.2355 544.167 49.2355 544.167 50.3058Z" fill="#56B947"/>
<path d="M544.167 49.8471C543.707 50.6116 543.246 51.3761 542.786 52.1407C542.326 53.0581 543.707 53.8226 544.167 52.9052C544.628 52.1407 545.088 51.3761 545.549 50.6116C546.163 49.8471 544.781 49.0825 544.167 49.8471Z" fill="#56B947"/>
<path d="M542.94 65.1376C544.321 65.1376 545.856 65.1376 547.237 65.1376C548.312 65.1376 548.312 63.4557 547.237 63.4557C545.856 63.4557 544.321 63.4557 542.94 63.4557C542.019 63.4557 541.865 65.1376 542.94 65.1376Z" fill="#56B947"/>
<path d="M558.749 58.1039C558.902 55.3516 558.749 50.3058 555.065 49.6941C551.228 49.0825 550.46 54.1284 550.307 56.7278C550.153 59.4801 550.307 65.7492 554.758 65.4434C557.981 65.2905 558.442 60.5504 558.749 58.1039C558.902 57.0336 557.214 57.0336 557.06 58.1039C556.907 59.1743 556.753 61.4678 555.986 62.3853C553.07 66.2079 551.995 60.8562 551.842 59.633C551.688 58.7155 551.842 57.6452 551.842 56.5749C551.842 54.8929 553.223 48.1651 556.139 52.4464C557.214 53.9755 557.06 56.2691 556.907 57.951C557.06 59.1743 558.749 59.1743 558.749 58.1039Z" fill="#56B947"/>
<path d="M556.754 52.5993C554.912 54.8929 553.07 57.3394 551.074 59.633C550.46 60.3975 551.535 61.6207 552.149 60.7033C554.144 58.4097 555.986 56.1161 557.828 53.6697C558.442 52.9051 557.367 51.8348 556.754 52.5993Z" fill="#56B947"/>
<path d="M519.456 58.1039C519.609 55.3516 519.456 50.3058 515.772 49.6941C511.935 49.0825 511.167 54.1284 511.014 56.7278C510.86 59.4801 511.014 65.7492 515.465 65.4434C518.688 65.2905 519.149 60.5504 519.456 58.1039C519.609 57.0336 517.921 57.0336 517.767 58.1039C517.614 59.1743 517.46 61.4678 516.693 62.3853C513.777 66.2079 512.702 60.8562 512.549 59.633C512.395 58.7155 512.549 57.6452 512.549 56.5749C512.549 54.8929 513.93 48.1651 516.847 52.4464C517.921 53.9755 517.767 56.2691 517.614 57.951C517.767 59.1743 519.456 59.1743 519.456 58.1039Z" fill="#56B947"/>
<path d="M517.46 52.5993C515.619 54.8929 513.777 57.3394 511.781 59.633C511.167 60.3975 512.242 61.6207 512.856 60.7033C514.851 58.4097 516.693 56.1161 518.535 53.6697C519.149 52.9051 518.074 51.8348 517.46 52.5993Z" fill="#56B947"/>
<path d="M511.014 37.7676C514.237 37.7676 514.237 32.8746 511.014 32.8746C507.791 32.8746 507.791 37.7676 511.014 37.7676Z" fill="#C42C2B"/>
<path d="M517.307 37.7676C520.53 37.7676 520.53 32.8746 517.307 32.8746C514.084 32.8746 514.084 37.7676 517.307 37.7676Z" fill="#FEE060"/>
<path d="M523.6 37.7676C526.823 37.7676 526.823 32.8746 523.6 32.8746C520.53 32.8746 520.53 37.7676 523.6 37.7676Z" fill="#87C65D"/>
<path opacity="0.4" d="M620.918 101.228L622.448 185.19C622.448 185.19 620 199.465 662.53 200.079C703.224 200.079 700.47 185.19 700.47 185.19L699.705 101.228H620.918Z" fill="url(#paint2_linear)"/>
<path d="M665.59 126.708C666.202 126.555 667.119 126.555 667.578 125.941C668.19 125.327 668.19 124.713 668.343 123.945C668.649 121.49 668.955 119.034 669.108 116.885C669.261 115.657 669.414 114.429 669.414 113.354C669.414 113.201 669.414 112.894 669.414 112.74C669.414 112.126 669.414 111.359 669.72 111.052C670.179 110.591 670.791 110.438 671.709 110.438C674.157 110.591 677.369 113.201 678.287 114.429C678.899 115.35 679.511 116.424 680.123 117.959C680.123 118.266 680.276 118.727 680.276 119.187C680.429 120.108 680.582 121.183 680.735 122.104C681.041 125.48 680.429 129.318 679.052 133.002C678.44 134.537 677.675 135.918 676.757 136.993C675.534 138.374 673.851 139.449 671.862 140.369C670.026 141.29 668.496 141.904 667.884 144.207C667.425 146.356 667.272 148.812 667.119 151.114C667.119 151.882 666.966 152.496 666.966 153.11C666.354 159.249 665.896 165.082 665.59 170.915C665.59 171.836 665.437 172.757 665.284 173.678C665.131 174.906 664.978 175.98 664.978 177.362C664.978 178.743 664.978 179.818 663.754 180.432C663.142 180.892 662.071 180.892 661.153 180.892H660.541C658.093 180.892 655.799 180.892 653.81 179.204C652.586 178.129 652.892 175.98 653.045 174.292C653.045 173.831 653.198 173.525 653.198 173.218C653.351 169.534 653.504 166.771 653.81 164.161C654.116 159.863 654.728 155.566 655.187 151.882C655.34 150.807 655.493 149.733 655.493 148.658C655.646 147.584 655.799 146.509 655.799 145.435C655.799 145.281 655.799 144.974 655.952 144.821C656.104 143.439 656.41 141.597 655.34 140.523C655.034 140.216 654.575 139.909 654.116 139.602C653.963 139.449 653.81 139.449 653.657 139.295C649.22 136.686 646.619 133.309 645.702 129.164C644.784 125.02 645.09 120.569 646.619 117.038C647.843 114.122 650.597 111.205 654.116 110.131C655.187 109.824 656.104 109.67 657.328 109.67C657.94 109.67 658.399 109.824 658.552 110.131C658.858 110.438 658.858 111.052 658.858 111.666C658.705 113.661 658.399 115.81 658.093 117.806C657.787 119.494 657.634 121.336 657.481 123.178C657.481 123.332 657.481 123.485 657.481 123.485C657.481 123.792 657.481 123.945 657.481 124.252C658.552 127.169 663.754 126.862 665.59 126.708ZM662.683 172.757C662.683 171.529 662.224 170.608 661.306 169.994C660.235 169.38 658.705 169.38 657.481 170.148C656.563 170.762 656.104 171.836 656.104 172.911C656.257 174.752 657.94 175.673 659.47 175.673C659.776 175.673 660.235 175.673 660.541 175.52C661.459 175.213 662.377 174.445 662.53 173.218C662.683 173.064 662.683 172.911 662.683 172.757Z" fill="#363896"/>
<path d="M671.862 140.369C673.851 139.602 675.534 138.374 676.757 136.993C677.675 135.918 678.44 134.537 679.052 133.002C680.429 129.318 681.041 125.634 680.735 122.104C680.582 121.029 680.429 120.108 680.276 119.187C680.123 118.727 680.123 118.266 680.123 117.959C679.511 116.424 678.899 115.35 678.287 114.429C677.369 113.201 674.157 110.591 671.709 110.438C670.944 110.438 670.179 110.591 669.72 111.052C669.414 111.359 669.414 112.126 669.414 112.74C669.414 113.047 669.414 113.201 669.414 113.354C669.414 114.429 669.261 115.657 669.108 116.885C668.955 119.187 668.649 121.49 668.343 123.945C668.19 124.559 668.037 125.327 667.578 125.941C666.966 126.401 666.201 126.555 665.59 126.708C663.754 126.862 658.552 127.322 657.634 124.099C657.481 123.792 657.634 123.485 657.634 123.332C657.634 123.178 657.634 123.178 657.634 123.025C657.787 121.183 658.093 119.341 658.246 117.652C658.552 115.657 658.858 113.661 659.011 111.512C659.011 110.898 659.011 110.284 658.705 109.977C658.399 109.67 657.94 109.517 657.481 109.517C656.41 109.517 655.34 109.67 654.269 109.977C650.75 111.052 648.149 113.968 646.772 116.885C645.242 120.415 644.784 124.866 645.854 129.011C646.772 133.309 649.373 136.532 653.81 139.142C653.963 139.295 654.116 139.295 654.269 139.449C654.728 139.756 655.034 139.909 655.492 140.369C656.563 141.597 656.257 143.286 656.104 144.667C656.104 144.821 656.104 145.128 655.951 145.281C655.798 146.356 655.645 147.43 655.645 148.505C655.492 149.579 655.34 150.654 655.34 151.728C654.881 155.412 654.269 159.71 653.963 164.008C653.81 166.617 653.504 169.38 653.351 173.064C653.351 173.371 653.198 173.831 653.198 174.138C653.045 175.827 652.739 178.129 653.963 179.05C655.951 180.585 658.246 180.739 660.694 180.739H661.306C662.224 180.739 663.142 180.739 663.907 180.278C665.131 179.511 665.131 178.59 665.131 177.208C665.131 175.98 665.284 174.752 665.437 173.525C665.59 172.604 665.742 171.683 665.742 170.762C666.201 164.929 666.66 159.249 667.119 152.956C667.119 152.342 667.272 151.575 667.272 150.961C667.425 148.658 667.578 146.356 668.037 144.053C668.496 141.904 670.026 141.29 671.862 140.369ZM681.041 117.652C681.194 118.113 681.194 118.573 681.194 119.034C681.347 119.955 681.5 121.029 681.653 122.104C681.959 125.634 681.347 129.625 679.97 133.462C679.358 135.151 678.44 136.532 677.522 137.76C676.145 139.295 674.463 140.369 672.321 141.29C670.485 142.211 669.261 142.672 668.955 144.514C668.496 146.663 668.343 148.965 668.19 151.268C668.19 152.035 668.19 152.649 668.037 153.417C667.425 159.556 666.966 165.389 666.66 171.222C666.66 172.143 666.507 173.064 666.354 173.985C666.201 175.059 666.048 176.287 666.048 177.515C666.048 179.05 666.048 180.585 664.366 181.506C664.06 181.66 663.754 181.813 663.448 181.967C662.836 182.12 662.071 182.274 661.306 182.274H660.694C658.246 182.274 655.645 182.274 653.504 180.432C651.974 179.05 652.28 176.594 652.433 174.599C652.433 174.292 652.586 173.831 652.586 173.525C652.739 169.841 652.892 167.078 653.198 164.468C653.504 160.17 654.116 155.873 654.575 152.189C654.728 151.114 654.881 150.04 654.881 148.965C655.034 147.891 655.187 146.816 655.187 145.742C655.187 145.588 655.187 145.281 655.34 145.128C655.492 143.9 655.645 142.365 655.034 141.597C654.728 141.29 654.422 141.137 653.963 140.83C653.81 140.676 653.657 140.676 653.504 140.523C648.761 137.76 646.007 134.23 645.09 129.778C644.019 125.327 644.478 120.722 646.16 117.038C647.996 113.047 652.28 108.903 657.634 109.21C658.399 109.21 659.164 109.517 659.623 109.977C659.776 109.977 659.776 110.745 659.776 111.359C659.623 113.508 659.317 115.503 659.011 117.499C658.705 119.187 658.552 121.029 658.399 122.718C658.399 122.871 658.399 123.025 658.399 123.178C658.399 123.332 658.399 123.485 658.399 123.638C658.858 125.327 661.153 125.941 665.284 125.634C665.895 125.48 666.354 125.48 666.813 125.173C667.119 124.866 667.272 124.406 667.272 123.792C667.578 121.336 667.884 119.034 668.037 116.731C668.19 115.503 668.343 114.275 668.343 113.201C668.343 113.047 668.343 112.74 668.343 112.587C668.343 111.819 668.343 110.745 668.955 110.131C669.72 109.517 670.485 109.21 671.556 109.363C674.31 109.67 677.675 112.28 678.899 113.815C679.817 114.889 680.429 115.964 681.041 117.652Z" fill="#2E4991"/>
<g clip-path="url(#clip0)">
<path opacity="0.4" d="M99 8L100.995 86.7462C100.995 86.7462 98.0791 103.872 149.344 104.483C198.46 104.483 195.084 86.7462 195.084 86.7462L193.549 9.83486L99 8Z" fill="url(#paint3_linear)"/>
<path d="M153.355 80.8513C151.798 78.1432 149.674 77.8581 146.418 77.4305H146.135H145.852C142.312 76.8604 140.189 76.5753 137.074 79.9961C136.791 80.2812 136.508 80.5663 136.224 80.9939C135.516 81.7065 134.95 82.5617 134.384 82.5617C134.101 82.5617 133.11 82.5617 130.561 80.4237C129.287 79.2835 128.721 78.4283 128.438 78.0007C127.871 77.0029 128.013 76.7179 129.287 75.15C129.57 74.8649 129.712 74.7224 129.853 74.4374C131.836 72.0143 132.402 70.1614 130.561 64.8877C129.995 63.3198 129.57 62.1795 129.004 61.3243C127.447 58.6162 125.606 57.9035 123.341 57.761C123.199 57.761 123.058 57.761 122.916 57.761C121.642 57.761 120.793 57.4759 120.368 56.7633C119.943 56.0506 119.943 54.6253 120.085 52.7724C120.651 49.6366 121.5 48.7815 121.784 48.6389C122.35 48.3539 123.341 48.3539 124.332 48.7815H124.474C124.898 48.924 125.181 48.924 125.606 48.924C128.721 49.3516 131.269 47.9263 133.818 44.3629C136.932 40.2295 136.508 37.8064 135.8 35.6684C135.658 35.5259 135.658 35.3834 135.658 35.2408C135.516 34.9558 135.516 34.6707 135.375 34.3856C134.95 33.3879 134.667 32.5327 134.95 31.82C135.233 31.1074 136.366 30.3947 137.923 29.8246C142.171 28.2567 142.737 29.2545 143.162 30.1097C143.445 30.5373 143.586 30.9648 143.87 31.535L144.011 31.9626C144.153 32.5327 144.577 33.1028 144.861 33.673C146.418 36.5236 148.542 37.2363 152.081 37.8064C156.328 38.5191 159.584 39.0892 162.133 34.8132C162.416 34.3856 162.841 33.958 163.124 33.5304C163.407 33.1028 163.832 32.9603 164.115 32.8178C164.398 32.6752 165.389 32.8178 167.371 34.2431C169.07 35.3834 169.92 36.3811 170.486 37.3788C171.052 38.3766 171.194 39.0892 169.495 40.7996C166.38 43.9353 166.097 45.5032 167.937 50.3493C168.504 51.7746 168.929 52.9149 169.353 53.7701C171.052 56.9058 173.034 57.1909 174.733 57.4759C174.875 57.4759 175.016 57.6185 175.299 57.6185C175.441 57.6185 175.724 57.6185 175.866 57.761C177.14 58.0461 178.273 58.1886 178.697 58.9013C178.98 59.3289 179.264 60.3266 178.556 62.7497C177.848 65.8854 176.857 66.7406 176.29 67.0256C175.724 67.3107 174.875 67.1682 174.025 66.8831C169.92 65.4578 166.946 68.0234 164.398 70.874C160.859 74.8649 161.283 77.4305 161.991 79.426L162.133 79.5685C162.274 80.1387 162.558 80.7088 162.841 81.2789C163.124 81.9916 163.549 82.8468 163.407 83.1318C163.407 83.2744 162.982 83.987 160.434 84.9848C155.903 86.8377 155.337 85.6974 154.912 85.1273C154.629 84.6997 154.346 83.987 154.063 83.2744C153.921 82.1341 153.638 81.4215 153.355 80.8513ZM153.355 64.8877C157.319 62.6071 158.735 57.4759 156.47 53.485C154.205 49.4941 149.108 48.0688 145.144 50.3493C141.18 52.6298 139.764 57.761 142.029 61.7519C144.294 65.7428 149.249 67.1682 153.355 64.8877Z" fill="#612727"/>
<path d="M152.489 37.3883C156.532 38.0463 157.966 38.1779 159.531 35.546C160.966 33.4404 162.661 30.8085 167.486 34.6248C169.051 35.9407 169.964 37.1251 170.616 38.0463C172.051 40.5466 170.877 42.2573 169.573 43.5733C167.486 45.6788 167.095 46.0736 168.66 50.0215C169.051 51.3374 169.573 52.127 169.964 52.9166C171.268 55.1537 172.312 55.0221 173.877 55.4169C175.181 55.6801 177.398 55.8117 178.441 57.654C179.093 58.7068 179.223 60.4175 178.571 62.9179C176.876 69.7608 173.485 68.8397 171.529 68.1817C169.573 67.5237 167.878 68.0501 165.009 71.2084C162.139 74.3667 162.922 75.8142 163.313 77.1302C163.965 79.4989 166.965 82.2624 160.444 84.8944C155.489 86.8683 153.793 85.9471 152.75 84.1048C152.489 83.5784 152.098 82.7888 151.837 81.9992C151.707 81.3413 151.446 80.8149 151.185 80.4201C150.272 78.8409 148.968 78.8409 145.969 78.3146C142.839 77.7882 141.926 77.525 139.578 80.0253C137.361 82.394 136.188 85.2891 130.58 80.5517C129.276 79.4989 128.493 78.5778 128.102 77.6566C126.537 74.8931 128.754 73.1823 129.667 71.998C130.841 70.4188 131.493 69.6292 129.928 65.2866C129.406 63.9706 129.015 63.0495 128.624 62.2599C127.711 60.5491 126.668 60.1544 125.103 60.0228C124.451 60.0228 121.842 60.0228 120.669 57.9172C120.017 56.8645 119.756 55.2853 120.278 52.785C121.582 45.4156 125.364 46.8632 127.189 47.3896C128.885 47.7844 130.841 47.7844 133.449 44.2313C136.057 40.6782 135.275 39.3622 134.753 37.6515C134.231 36.0723 131.884 32.2561 138.144 29.8873C142.969 28.045 144.664 29.361 145.708 31.2033C145.969 31.7297 146.36 32.5192 146.621 33.0456C146.751 33.572 147.012 33.9668 147.273 34.3616C148.316 36.2039 149.359 36.8619 152.489 37.3883ZM151.837 39.3622C148.446 38.8358 146.49 38.1779 145.186 35.546C144.925 35.0196 144.664 34.4932 144.404 33.9668L144.273 33.572C144.012 33.1772 143.882 32.6508 143.621 32.2561C143.23 31.4665 142.708 30.5453 138.796 31.9929C137.361 32.5192 136.318 33.1772 136.057 33.8352C135.796 34.3616 136.057 35.1512 136.448 36.2039C136.579 36.4671 136.579 36.7303 136.709 36.9935C136.709 36.9935 136.709 37.2567 136.84 37.3883C137.622 39.4938 138.013 41.5994 135.014 45.4156C132.667 48.7055 130.319 50.0215 127.45 49.6267C127.059 49.6267 126.798 49.4951 126.407 49.4951H126.276C125.364 49.2319 124.581 49.1003 123.929 49.3635C123.668 49.4951 122.755 50.2847 122.364 53.1798C122.103 54.8905 122.234 56.2065 122.625 56.8645C123.016 57.5224 123.799 57.7856 124.972 57.7856C125.103 57.7856 125.364 57.7856 125.364 57.7856C127.581 57.9172 129.276 58.5752 130.58 61.0755C131.102 61.8651 131.493 62.9179 132.015 64.3654C133.71 69.2345 133.188 70.9452 131.362 73.1823C131.232 73.4455 130.971 73.5771 130.841 73.8403C129.667 75.1563 129.537 75.5511 130.058 76.4722C130.319 76.867 130.841 77.6566 132.015 78.7094C134.362 80.6833 135.405 80.8149 135.536 80.6833C136.057 80.6833 136.579 79.8937 137.231 79.2357C137.492 78.9725 137.753 78.7094 138.013 78.3146C140.882 75.1563 142.839 75.2879 146.099 75.9458H146.36H146.621C149.62 76.3406 151.707 76.6038 153.011 79.1041C153.272 79.6305 153.532 80.2885 153.793 81.2097C154.054 81.8676 154.315 82.5256 154.576 82.9204C154.967 83.5784 155.489 84.4996 159.662 82.7888C162.009 81.8676 162.4 81.2097 162.4 81.0781C162.531 80.6833 162.139 80.0253 161.879 79.3673C161.618 78.8409 161.357 78.3146 161.227 77.7882L161.096 77.6566C160.444 75.6827 160.053 73.4455 163.313 69.7608C165.53 67.2605 168.399 64.7602 172.181 66.0762C172.964 66.3394 173.746 66.4709 174.268 66.2078C174.789 65.9446 175.702 65.0234 176.354 62.2599C176.876 60.0228 176.615 59.1016 176.485 58.7068C176.093 58.0488 175.05 57.9172 173.877 57.654C173.616 57.654 173.485 57.654 173.355 57.5224C173.224 57.5224 173.094 57.3908 172.833 57.3908C171.399 57.1276 169.573 56.8645 167.878 53.9694C167.356 53.1798 166.965 52.127 166.573 50.8111C164.748 46.4684 165.009 45.1524 167.878 42.2573C169.312 40.6782 169.312 40.1518 168.79 39.099C168.269 38.3095 167.486 37.2567 165.921 36.2039C164.096 34.888 163.313 34.7564 162.922 34.888C162.661 34.888 162.27 35.1512 162.009 35.546C161.748 35.9407 161.357 36.3355 161.096 36.7303C158.749 40.5466 155.749 40.0202 151.837 39.3622Z" fill="#774545"/>
</g>
<path d="M442.327 190.139C444.359 194.602 443.14 200.08 444.562 204.948C441.312 206.165 437.655 206.571 434.201 206.165L432.373 206.368C432.17 204.542 431.966 202.717 431.56 200.688H431.357C431.357 200.08 431.56 198.457 431.763 196.225L432.982 196.428C435.826 195.819 438.671 195.008 441.515 193.994C441.718 193.994 441.921 193.791 442.124 193.588C442.124 193.385 442.124 193.182 442.124 193.182C442.124 192.168 442.124 191.357 442.124 190.342H442.327V190.139Z" fill="#4E2B14"/>
<path d="M406.369 26.2288C406.166 26.0259 406.166 25.8231 405.962 25.4174C404.337 21.7659 402.915 17.5058 402.509 13.4486C402.306 10.8115 417.339 18.9258 418.152 19.1287C424.653 21.7659 432.982 22.7802 440.093 24.6059C440.702 24.8088 441.312 25.0116 441.515 25.4174C441.718 25.8231 441.718 26.4317 441.718 26.8374C441.718 34.1403 441.515 41.4433 441.515 48.7462C441.515 49.3548 441.515 49.9634 441.312 50.3691C441.108 50.7748 440.702 51.1805 440.093 51.3834C438.061 52.8034 435.826 54.2234 433.795 55.4406C433.592 55.6434 433.185 55.8463 432.982 55.8463C432.373 56.252 431.56 56.6577 430.747 56.4549C430.138 56.252 429.935 55.8463 429.528 55.4406C427.497 52.6006 426.684 49.1519 426.887 45.7033C427.091 43.4719 427.903 40.8347 426.684 39.009C426.075 37.7918 424.856 37.1832 423.84 36.3718C419.98 33.9375 415.917 30.6917 411.448 29.8803C410.229 29.6774 409.01 29.4746 407.994 28.866C407.181 28.0545 406.775 27.2431 406.369 26.2288Z" fill="#CC7028"/>
<path d="M440.702 99.4611C440.499 111.836 442.531 123.399 440.499 134.962C439.89 137.193 439.077 138.613 437.858 139.83C436.639 141.047 435.217 141.859 433.592 142.467C428.106 144.293 420.996 142.67 414.901 143.685C413.682 143.887 412.667 144.09 411.448 144.496C407.588 136.787 409.619 129.079 408.807 121.979L408.604 120.761C409.822 120.559 411.041 120.356 412.26 119.747C412.26 119.95 412.26 120.153 412.26 120.153C412.26 119.95 414.089 119.139 416.323 117.921C417.949 117.11 419.777 116.096 421.402 115.284C424.247 113.864 426.684 112.444 427.294 112.038C431.763 108.59 436.03 105.141 438.874 100.273C439.077 99.8669 439.28 99.4611 439.686 99.0554L440.702 99.4611Z" fill="#263774"/>
<path d="M438.061 140.033C440.093 156.668 441.718 173.302 442.124 190.14C442.124 191.154 442.124 191.965 442.124 192.98C442.124 193.182 442.124 193.385 442.124 193.385C441.921 193.588 441.718 193.791 441.515 193.791C438.874 194.805 435.826 195.617 432.982 196.225L431.763 196.022C432.373 188.517 433.795 174.316 433.795 172.694C433.998 162.551 433.185 152.408 433.592 142.468C435.217 141.859 436.639 141.048 438.061 140.033Z" fill="#303030"/>
<path d="M416.323 201.094C419.371 188.314 416.933 175.128 415.511 161.942C414.901 155.856 414.495 149.567 414.901 143.685C420.996 142.67 428.31 144.293 433.592 142.467C433.185 152.61 433.998 162.753 433.795 172.693C433.795 174.316 432.373 188.517 431.763 196.022C431.56 198.254 431.357 199.877 431.357 200.485C431.357 200.688 431.357 200.688 431.357 200.688C426.481 200.891 421.402 201.094 416.323 201.094C416.323 201.297 416.323 201.297 416.323 201.094Z" fill="#272626"/>
<path d="M431.763 200.485C431.966 202.311 432.17 204.137 432.576 206.165C432.982 209.614 433.389 213.063 433.389 216.714V216.917H433.185C431.154 217.12 428.919 217.525 426.888 217.728C426.684 216.511 426.684 215.294 426.481 214.28C425.669 214.685 425.465 215.7 425.059 216.511C423.637 219.351 417.542 218.134 414.901 217.931C413.886 217.931 402.915 216.714 402.712 216.714C403.728 213.468 405.15 209.817 407.994 208.194C410.635 206.774 414.495 206.571 415.714 203.934C416.12 203.122 416.12 202.311 416.323 201.702C416.323 201.5 416.527 201.5 416.527 201.297C421.606 201.094 426.684 201.094 431.763 200.891C431.763 200.891 431.763 200.891 431.763 200.688V200.485Z" fill="#4E2B14"/>
<path d="M432.576 61.3235C432.779 62.7435 432.779 64.1636 432.779 65.5836V65.7864C432.17 65.9893 431.56 66.1922 430.748 66.395C428.106 67.2065 425.059 67.2065 422.824 68.4236C422.012 68.8293 421.199 69.2351 420.387 69.4379L419.777 61.7292C424.043 62.3378 429.325 62.5407 432.373 60.5121L432.576 61.3235Z" fill="#C29974"/>
<path d="M421.606 115.284C419.98 116.096 418.152 117.11 416.527 117.921L416.323 117.719C416.323 117.719 416.323 117.719 416.323 117.516C415.308 114.27 414.495 111.024 413.479 107.778L413.276 107.576C415.917 105.344 418.152 103.113 419.98 100.476C420.793 99.2583 421.402 98.0412 422.215 96.6212C424.247 92.3611 425.465 86.0725 428.919 82.8267C430.341 81.4067 432.576 81.001 434.607 81.6096C436.639 82.2181 438.061 83.841 439.28 85.8696C439.686 86.6811 440.093 87.4925 440.499 88.1011C441.108 89.5211 441.718 90.7382 441.718 92.1583C441.921 94.3897 441.108 96.6212 439.89 98.6498C439.686 99.0555 439.483 99.4612 439.077 99.8669C436.03 104.938 431.966 108.184 427.497 111.633C426.888 112.647 424.45 113.864 421.606 115.284Z" fill="#26509C"/>
<path d="M422.621 68.4236C425.059 67.2064 428.106 67.2064 430.544 66.395C431.357 66.1921 431.966 65.9893 432.576 65.7864C436.639 64.975 437.045 66.5978 437.045 71.6693C434.404 69.6407 424.043 72.0751 421.199 72.8865C418.355 73.4951 415.917 73.9008 414.495 75.3208L414.292 74.9151C414.292 73.9008 414.292 72.8865 414.292 71.8722C414.292 71.6693 414.292 71.4665 414.292 71.2636C416.12 70.655 418.152 70.2493 419.98 69.4379C420.996 69.235 421.809 68.8293 422.621 68.4236Z" fill="white"/>
<path d="M405.15 73.9009C408.197 73.0895 411.245 72.6838 414.495 72.0752C414.495 73.0895 414.292 74.1038 414.495 75.1181L414.698 75.321C413.682 76.3352 413.073 77.5524 413.073 79.7839L413.479 80.3924C411.448 81.6096 409.416 83.0296 407.385 84.6525C405.556 86.0725 403.728 87.2897 401.493 88.304C400.884 88.5068 400.071 88.9125 399.868 89.5211C399.462 90.1297 400.071 91.144 400.477 91.9554H399.462C391.742 94.5926 383.819 96.8241 375.692 98.2441C374.473 95.2012 373.254 90.3326 372.239 87.6954L372.036 87.2897C379.349 82.8268 388.085 79.1753 395.805 76.5381C398.649 75.5238 401.899 74.7124 405.15 73.9009Z" fill="#26509C"/>
<path d="M410.026 110.821C410.026 110.416 410.432 110.01 410.838 109.807C411.651 109.198 412.464 108.387 413.276 107.778L413.479 107.981C414.495 111.227 415.308 114.473 416.323 117.719C416.323 117.719 416.323 117.719 416.323 117.921L416.527 118.124C414.292 119.341 412.464 120.153 412.464 120.356C412.464 120.153 412.464 119.95 412.464 119.95C412.667 117.11 411.245 114.27 410.229 111.633C410.229 111.43 410.026 111.227 410.026 111.227C410.026 111.024 410.026 110.821 410.026 110.821Z" fill="white"/>
<path d="M437.248 71.6694C439.077 73.2922 439.28 83.0295 439.686 85.6667L439.28 85.8695C438.061 84.0438 436.639 82.2181 434.607 81.6095C432.779 81.0009 430.544 81.6095 428.919 82.8266C425.465 86.0724 424.246 92.3611 422.215 96.6211C421.605 98.0411 420.793 99.2583 419.98 100.475C419.574 92.9696 418.558 85.261 416.73 77.958C415.511 78.7695 414.495 79.378 413.276 80.1895L412.87 79.5809C412.87 77.3494 413.479 75.9294 414.495 75.118C415.917 73.698 418.355 73.2922 421.199 72.6837C424.043 72.0751 434.404 69.6408 437.248 71.6694C437.045 71.6694 437.045 71.6694 437.248 71.6694Z" fill="#263774"/>
<path d="M434.607 56.4549C434.404 58.4834 433.592 59.9035 432.17 60.7149C429.122 62.7435 424.043 62.5406 419.574 61.9321C417.339 61.5263 415.308 61.1206 414.089 60.7149C400.68 56.4549 406.166 36.7775 406.369 26.2288C406.775 27.2431 407.385 28.0545 408.197 28.6631C409.213 29.2717 410.432 29.4745 411.651 29.6774C416.323 30.4888 420.183 33.9374 424.043 36.1689C425.059 36.7775 426.278 37.5889 426.887 38.8061C428.106 40.8347 427.294 43.269 427.091 45.5004C426.684 48.949 427.7 52.3977 429.732 55.2377C430.138 55.6434 430.341 56.0491 430.951 56.252C431.763 56.4549 432.576 56.0491 433.185 55.6434C433.388 55.4406 433.795 55.2377 433.998 55.2377L434.607 56.4549Z" fill="#E4B789"/>
<path d="M361.878 229.494C360.252 209.208 356.799 189.328 355.783 169.042L355.174 167.622L356.799 167.419C373.051 146.322 384.631 125.224 402.306 103.721H402.712C402.915 105.344 403.322 107.17 403.525 108.793V109.604C403.118 109.604 402.915 109.807 402.712 110.01C402.509 110.416 402.306 111.024 402.306 111.43C402.103 115.284 402.103 120.153 407.181 120.761C407.791 120.761 408.197 120.761 408.807 120.761L409.01 121.979C409.619 129.079 407.791 136.787 411.651 144.496C412.667 144.09 413.886 143.685 415.105 143.685C414.698 149.77 415.105 155.856 415.714 161.942L413.886 162.145C411.651 167.622 413.479 175.331 403.931 173.302C402.103 178.982 402.103 190.545 392.554 188.517C392.554 188.719 392.554 188.922 392.554 188.922C392.554 192.979 394.18 198.457 390.32 202.108C388.085 204.34 383.819 203.934 380.771 204.137C380.568 207.788 379.146 212.048 377.927 215.497C377.724 215.903 377.521 216.308 377.318 216.714C376.302 217.525 374.677 216.511 373.458 216.511C372.239 216.511 370.817 217.323 370.004 218.337C369.191 219.351 368.785 220.568 368.176 221.786C366.957 224.423 365.535 227.06 363.706 229.291C363.503 229.494 363.3 229.697 363.097 229.9L361.878 229.494Z" fill="#142C51"/>
<path d="M410.025 110.821C410.025 111.024 410.025 111.024 410.025 111.227C409.213 111.227 408.4 111.633 407.588 111.836C406.572 112.241 404.947 112.038 404.54 111.024C404.337 110.618 404.337 110.01 403.931 109.807C403.728 109.807 403.728 109.604 403.524 109.604V108.793C403.321 107.17 402.915 105.344 402.712 103.721C402.509 102.91 402.509 101.895 402.306 101.084C402.102 99.8669 401.899 98.8526 401.696 97.6354C401.493 96.0125 401.29 94.3896 400.68 92.7668C400.68 92.5639 400.477 92.1582 400.274 91.7525C399.868 90.941 399.258 89.9267 399.665 89.3181C400.071 88.7096 400.68 88.3039 401.29 88.101C403.321 87.0867 405.353 85.8695 407.181 84.4495C409.213 83.0295 411.244 81.6095 413.276 80.1895C414.495 79.378 415.511 78.7694 416.73 77.958C418.558 85.261 419.574 92.9696 419.98 100.475C418.152 103.113 415.917 105.344 413.276 107.576C412.463 108.184 411.651 108.996 410.838 109.604C410.635 110.01 410.229 110.213 410.025 110.821Z" fill="#CFCFCE"/>
<path d="M410.229 111.633C411.244 114.27 412.463 116.907 412.463 119.95C411.244 120.356 410.026 120.761 408.807 120.964C408.4 120.964 407.791 120.964 407.181 120.964C402.102 120.559 402.102 115.69 402.306 111.633C402.306 111.227 402.306 110.618 402.712 110.213C402.915 110.01 403.321 109.807 403.525 109.807C403.728 109.807 403.728 109.807 403.931 110.01C404.337 110.213 404.337 110.821 404.54 111.227C405.15 112.241 406.572 112.241 407.588 112.038C408.4 111.836 409.213 111.43 410.026 111.43C410.229 111.227 410.229 111.43 410.229 111.633Z" fill="#E4B789"/>
<path d="M379.755 108.793L374.067 118.327H354.767L362.081 108.184C367.566 108.387 374.27 108.793 379.755 108.793Z" fill="#69C9CA"/>
<path d="M372.035 87.6953C373.254 90.3325 374.473 95.2011 375.489 98.244C374.067 98.4469 372.645 98.6497 371.223 99.0555C371.223 99.0555 371.223 99.0555 371.02 99.2583C370.207 96.4183 368.582 92.7668 368.176 89.9268C369.394 89.1153 370.613 88.3039 371.832 87.6953H372.035Z" fill="white"/>
<path d="M368.785 100.476C366.347 101.693 363.706 102.098 361.065 101.896V101.693C362.69 100.881 363.706 99.6641 363.3 97.4326C362.893 95.8098 362.487 94.3897 361.268 93.1726C360.456 92.3612 359.44 91.9554 358.221 91.7526C360.252 89.5211 365.331 89.5211 368.175 89.5211C368.582 92.3612 370.207 96.0126 371.02 98.8527C370.41 99.6641 369.598 100.07 368.785 100.476Z" fill="#E4B789"/>
<path d="M292.805 227.466C292.195 224.423 291.992 221.177 291.789 218.134C290.976 201.905 294.633 185.474 289.961 168.433L290.367 167.419C290.57 167.419 290.773 167.419 290.773 167.419C312.105 167.419 333.639 167.419 354.97 167.419L355.58 168.839C356.799 189.125 360.252 209.005 361.675 229.291L362.894 229.697C362.284 230.306 361.471 230.914 360.659 231.117C358.83 231.32 357.408 229.9 355.783 229.494C351.11 228.48 348.469 234.363 343.391 232.334C339.937 231.117 338.921 227.263 334.655 228.683C332.217 229.494 330.795 231.929 327.951 231.929C325.513 231.726 324.091 229.291 321.856 228.886C318.606 228.48 316.168 232.943 312.917 232.537C311.495 232.334 310.276 231.32 309.057 230.509C303.978 227.06 298.493 229.9 294.024 232.943C293.617 231.117 293.211 229.291 292.805 227.466Z" fill="#183154"/>
<path d="M358.424 91.9554C359.44 92.1583 360.456 92.564 361.471 93.3754C362.487 94.5926 363.097 96.0126 363.503 97.6355C363.909 99.6641 362.69 101.084 361.268 101.896C360.456 102.301 359.643 102.707 358.627 103.113C355.377 104.33 350.095 103.518 347.25 101.49L346.235 101.287C346.031 99.6641 346.031 97.6355 346.031 97.2297C346.031 96.6212 346.031 96.0126 346.031 95.6069H346.641C347.86 94.7954 349.282 93.984 350.501 93.1725C351.11 92.7668 351.72 92.564 352.329 92.3611C352.939 92.1582 353.548 92.1583 354.158 91.9554C355.58 91.9554 357.002 91.7525 358.424 91.9554Z" fill="#A87343"/>
<path d="M349.688 124.007C354.158 124.413 358.627 124.819 363.3 125.224C365.738 125.427 368.379 125.833 370.004 127.861C370.207 128.267 368.175 128.673 366.957 128.673C366.55 128.673 366.144 128.673 366.144 128.673C364.112 128.673 362.081 128.673 360.049 128.47C357.408 128.267 354.97 127.861 352.329 127.659C350.298 127.456 348.063 127.253 346.031 126.847C346.438 125.63 346.844 124.413 348.266 124.007C348.469 123.804 349.079 123.804 349.688 124.007Z" fill="#22A049"/>
<path d="M348.469 142.467C348.469 142.67 348.672 142.67 348.672 142.873C348.672 143.076 348.672 143.279 348.469 143.279C347.25 145.307 345.625 147.336 344.609 149.365C344.406 149.973 341.562 154.03 341.359 153.625C339.937 151.799 338.515 150.379 337.093 148.756C336.28 147.945 335.67 146.93 334.858 145.916C334.452 145.307 333.842 144.496 333.436 143.685C333.233 143.279 333.029 143.076 333.029 142.873C332.826 142.265 333.233 141.859 334.045 141.047C336.686 138.004 339.327 134.962 341.968 131.716C344 135.367 346.031 139.019 348.469 142.467Z" fill="white"/>
<path d="M335.671 105.141L335.874 106.156C334.655 107.778 329.982 113.864 324.294 121.776C323.887 117.313 323.278 112.85 322.059 108.387V106.561C326.529 106.358 331.201 105.75 335.671 105.141Z" fill="#A08D80"/>
<path d="M334.655 146.119C335.264 147.133 336.077 147.945 336.89 148.959L336.686 149.162C335.264 150.988 333.842 152.61 332.217 154.233C332.623 150.582 332.826 146.93 332.623 143.076H332.826C332.826 143.279 333.03 143.685 333.233 143.887C333.639 144.699 334.248 145.308 334.655 146.119Z" fill="#C4C5C6"/>
<path d="M333.639 141.25C332.826 142.062 332.623 142.467 332.623 143.076H332.42C332.623 146.727 332.42 150.582 332.014 154.233C333.436 152.61 335.061 150.785 336.483 149.162L336.686 148.959C338.108 150.582 339.531 152.205 340.953 153.828C341.359 154.233 344 149.973 344.203 149.567C345.219 147.336 346.844 145.51 348.063 143.482C348.063 143.279 348.266 143.279 348.266 143.076C348.266 142.873 348.266 142.873 348.063 142.67C345.625 139.222 343.594 135.57 341.359 132.122C338.921 134.962 336.28 138.207 333.639 141.25ZM347.047 103.315C346.641 103.315 346.438 102.504 346.235 101.287L347.047 101.084C349.892 103.113 355.174 103.924 358.424 102.707C359.237 102.301 360.252 102.098 361.065 101.49V101.693C363.706 102.098 366.347 101.49 368.785 100.273L369.191 100.881C379.959 100.881 390.726 100.881 401.493 100.881L402.306 100.678C402.509 101.49 402.509 102.504 402.712 103.315H402.306C384.631 124.819 373.051 145.916 356.596 166.811L354.97 167.013C333.639 167.013 312.105 167.013 290.773 167.013V166.608C291.586 165.391 295.649 159.71 301.134 152.205C308.041 143.482 317.183 131.31 324.294 121.573C330.185 113.661 334.655 107.576 335.874 105.953L335.671 104.938C339.531 104.533 343.187 103.924 347.047 103.315ZM374.067 118.53L379.755 108.996C374.27 108.996 367.566 108.387 362.081 108.387L354.767 118.53H374.067ZM366.55 128.673C367.769 128.47 370.004 128.064 369.598 127.861C368.176 125.833 365.331 125.63 362.894 125.224C358.424 124.819 353.955 124.413 349.282 124.007C348.673 124.007 348.063 124.007 347.657 124.007C346.235 124.413 345.828 125.63 345.422 126.847C347.454 127.456 349.688 127.456 351.72 127.659C354.361 127.862 356.799 128.064 359.44 128.47C361.471 128.673 363.503 128.673 365.535 128.673C365.941 128.673 366.144 128.673 366.55 128.673Z" fill="#1F3A6E"/>
<path d="M321.856 108.184C323.075 112.647 323.888 117.11 324.091 121.573C316.98 131.31 308.041 143.482 301.134 152.813L300.931 152.61C297.274 153.422 294.633 156.465 291.179 157.885C289.148 158.696 287.116 158.696 285.085 158.899C284.678 158.899 284.069 158.899 283.46 158.899C282.241 158.696 281.225 158.493 280.615 157.479C280.209 156.87 280.209 156.059 280.209 155.248C280.209 150.379 280.615 145.916 281.428 141.25C283.866 124.21 277.974 108.59 276.755 91.7524H277.162C277.365 93.3753 277.771 94.9982 278.381 96.2154C280.006 99.0554 283.053 100.678 286.101 101.693C291.789 103.518 297.884 104.33 303.775 105.141C308.245 105.75 312.714 106.155 317.183 106.358C318.605 106.358 320.231 106.358 321.653 106.358L321.856 108.184Z" fill="#E2D6CF"/>
<path d="M317.387 88.1009C313.73 85.8695 310.682 82.6237 306.822 80.5951C303.166 78.5665 299.103 77.7551 295.039 77.1465C292.805 76.7408 290.367 76.3351 287.929 76.3351C291.179 74.3065 295.852 71.0607 300.728 69.0321C305.4 67.0035 310.073 66.1921 313.933 68.0178C320.637 71.6693 317.793 83.4351 320.028 89.3181V89.5209C319.012 89.1152 318.199 88.7095 317.387 88.1009Z" fill="#E2D6CF"/>
<path d="M308.854 31.9089C311.089 38.4004 312.511 55.4406 306.823 60.5121C305.197 61.9321 303.166 62.7436 300.728 63.1493C295.852 63.7579 290.164 62.3378 285.897 60.5121C284.475 59.9035 283.256 59.0921 282.038 58.4835L281.834 58.0778C282.241 57.8749 282.647 57.6721 283.053 57.4692C286.71 54.832 284.882 48.9491 287.523 45.2976C288.538 43.8776 290.164 42.8633 291.789 42.0519C297.274 39.2118 302.759 37.1832 307.026 32.3146C307.229 32.1118 307.432 31.706 307.635 31.5032L308.854 31.9089Z" fill="#A87343"/>
<path d="M302.556 19.9403C309.87 21.3603 311.495 26.2289 307.635 31.5033C307.432 31.7061 307.229 32.1118 307.026 32.3147C302.962 36.9805 297.274 39.2119 291.789 42.052C290.164 42.8634 288.538 43.8777 287.523 45.2977C285.085 48.9492 286.71 55.035 283.053 57.4693C282.647 57.6722 282.241 57.875 281.834 58.0779C279.803 58.8893 277.162 58.4836 275.13 59.0922C269.239 60.7151 267.817 68.4237 268.426 74.7124C269.035 80.7982 270.051 87.8983 265.785 92.3612C263.753 94.3898 260.909 95.4041 258.268 96.4184C253.596 98.0412 246.891 98.8527 244.86 94.3898C242.625 89.5211 248.11 84.6525 248.314 79.1753C248.517 74.5095 244.454 70.4523 243.641 65.7866C242.625 59.4979 247.704 53.8178 253.189 50.5721C256.237 48.7463 268.629 45.0949 269.848 41.8491C271.473 37.3862 264.769 37.5891 262.738 34.9519C252.174 20.7517 278.787 5.74008 283.866 19.3317C284.069 20.1431 284.272 20.9546 284.882 21.5631C287.319 24.606 290.57 20.5488 292.805 19.7374C295.243 18.926 299.306 19.1288 301.744 19.5345C301.947 19.7374 302.15 19.7374 302.556 19.9403Z" fill="#321910"/>
<path d="M320.027 89.3182C317.996 83.2324 320.84 71.4665 313.933 68.0179C310.073 65.9893 305.4 67.0036 300.728 69.0322C300.728 68.8294 300.728 68.4236 300.728 68.2208H301.337C303.775 66.5979 307.838 65.9893 310.682 65.7865C323.075 64.3664 324.903 83.841 328.154 91.9554V92.3611C325.31 91.5496 322.668 90.7382 320.027 89.3182Z" fill="#A08D80"/>
<path d="M285.897 60.5121C290.367 62.3378 296.055 63.7578 300.728 63.1493C300.728 64.3664 300.728 66.5979 300.728 68.2208C300.728 68.6265 300.728 68.8293 300.728 69.0322C295.852 71.0608 291.179 74.3065 287.929 76.3351C287.523 76.3351 287.319 76.3351 286.913 76.3351C286.913 71.0608 287.116 66.1922 285.491 60.9178L285.897 60.5121Z" fill="#925F39"/>
<path d="M292.805 227.466C290.57 227.466 288.335 227.06 286.304 226.451C286.1 226.451 285.694 226.248 285.491 226.046C285.085 225.64 285.085 225.234 285.085 224.626C285.085 222.394 285.085 220.163 285.288 217.931C287.319 217.931 289.351 217.931 291.383 217.931H291.992C291.992 221.38 292.195 224.423 292.805 227.466Z" fill="#673434"/>
<path d="M287.929 76.3351C290.164 76.1322 292.601 76.7408 295.039 77.1465C299.102 77.958 303.166 78.7694 306.822 80.5951C310.682 82.6237 313.73 85.8695 317.386 88.101C318.199 88.7095 319.215 89.1153 320.027 89.521C322.669 90.7381 325.31 91.5496 328.154 91.9553C333.233 92.7667 338.515 92.7667 343.594 93.1724C346.031 93.3753 346.235 94.3896 346.031 95.8096C346.031 96.2153 346.031 96.8239 346.031 97.4325C346.031 97.8382 346.031 99.8668 346.235 101.49C346.438 102.504 346.641 103.518 347.047 103.518C343.187 104.127 339.53 104.938 335.874 105.344C331.201 105.953 326.732 106.561 322.059 106.561C320.637 106.561 319.012 106.561 317.59 106.561C313.12 106.358 308.651 105.953 304.181 105.344C298.29 104.533 292.195 103.924 286.507 101.895C283.459 100.881 280.412 99.2582 278.787 96.4182C277.974 95.201 277.568 93.5782 277.568 91.9553C277.162 86.2752 279.599 79.378 284.272 77.3494C285.288 76.9437 286.304 76.7408 287.319 76.538C287.319 76.3351 287.726 76.3351 287.929 76.3351Z" fill="#B7A497"/>
<path d="M301.337 152.813C295.852 160.116 291.789 165.796 290.976 167.216V167.622C290.773 167.622 290.57 167.622 290.57 167.622L290.164 168.636C294.633 185.676 291.179 201.905 291.992 218.337H291.383C289.351 218.337 287.319 218.337 285.288 218.337C285.085 218.337 284.882 218.337 284.678 218.337C284.475 218.337 284.069 218.337 283.866 218.134C283.459 217.931 283.459 217.525 283.459 217.12C284.272 197.848 284.882 178.374 283.459 159.102C284.069 159.102 284.475 159.102 285.085 159.102C287.116 159.102 289.148 158.899 291.179 158.088C294.633 156.87 297.274 153.625 300.931 152.813H301.337Z" fill="#1C274F"/>
<defs>
<linearGradient id="paint0_linear" x1="34.3801" y1="116.795" x2="34.3801" y2="200.438" gradientUnits="userSpaceOnUse">
<stop stop-color="white" stop-opacity="0.01"/>
<stop offset="0.1313" stop-color="#FFFEF6" stop-opacity="0.14"/>
<stop offset="0.3347" stop-color="#FDFCE5" stop-opacity="0.3414"/>
<stop offset="0.5847" stop-color="#FCF8CA" stop-opacity="0.5888"/>
<stop offset="0.8691" stop-color="#FAF4A4" stop-opacity="0.8704"/>
<stop offset="1" stop-color="#FAF290"/>
</linearGradient>
<linearGradient id="paint1_linear" x1="533.432" y1="10.8336" x2="533.432" y2="97.0085" gradientUnits="userSpaceOnUse">
<stop stop-color="white" stop-opacity="0.01"/>
<stop offset="0.1313" stop-color="#FFFEF6" stop-opacity="0.14"/>
<stop offset="0.3347" stop-color="#FDFCE5" stop-opacity="0.3414"/>
<stop offset="0.5847" stop-color="#FCF8CA" stop-opacity="0.5888"/>
<stop offset="0.8691" stop-color="#FAF4A4" stop-opacity="0.8704"/>
<stop offset="1" stop-color="#FAF290"/>
</linearGradient>
<linearGradient id="paint2_linear" x1="660.703" y1="101.251" x2="660.703" y2="200.048" gradientUnits="userSpaceOnUse">
<stop stop-color="white" stop-opacity="0.01"/>
<stop offset="0.1313" stop-color="#FFFEF6" stop-opacity="0.14"/>
<stop offset="0.3347" stop-color="#FDFCE5" stop-opacity="0.3414"/>
<stop offset="0.5847" stop-color="#FCF8CA" stop-opacity="0.5888"/>
<stop offset="0.8691" stop-color="#FAF4A4" stop-opacity="0.8704"/>
<stop offset="1" stop-color="#FAF290"/>
</linearGradient>
<linearGradient id="paint3_linear" x1="147.072" y1="8.06667" x2="147.072" y2="104.621" gradientUnits="userSpaceOnUse">
<stop stop-color="white" stop-opacity="0.01"/>
<stop offset="0.1313" stop-color="#FFFEF6" stop-opacity="0.14"/>
<stop offset="0.3347" stop-color="#FDFCE5" stop-opacity="0.3414"/>
<stop offset="0.5847" stop-color="#FCF8CA" stop-opacity="0.5888"/>
<stop offset="0.8691" stop-color="#FAF4A4" stop-opacity="0.8704"/>
<stop offset="1" stop-color="#FAF290"/>
</linearGradient>
<clipPath id="clip0">
<rect width="99" height="100" fill="white" transform="translate(105 8)"/>
</clipPath>
</defs>
</svg>
