<?xml version="1.0" encoding="utf-8"?>
<!-- Generator: Adobe Illustrator 22.1.0, SVG Export Plug-In . SVG Version: 6.00 Build 0)  -->
<svg version="1.1" id="HERO" xmlns="http://www.w3.org/2000/svg" xmlns:xlink="http://www.w3.org/1999/xlink" x="0px" y="0px"
	 viewBox="0 0 388.6 564.1" style="enable-background:new 0 0 388.6 564.1;" xml:space="preserve">
<style type="text/css">
	.st0{opacity:0.5;}
	.st1{fill:#80D8FF;}
	.st2{opacity:0.4;fill:url(#SVGID_1_);enable-background:new    ;}
	.st3{opacity:0.3;fill:#80D8FF;enable-background:new    ;}
	.st4{opacity:0.5;fill:#80D8FF;enable-background:new    ;}
	.st5{opacity:0.75;fill:#80D8FF;enable-background:new    ;}
	.st6{opacity:0.4;fill:#80D8FF;enable-background:new    ;}
	.st7{opacity:0.8;fill:#80D8FF;enable-background:new    ;}
	.st8{opacity:0.1;fill:#80D8FF;enable-background:new    ;}
	.st9{opacity:0.6;fill:#80D8FF;enable-background:new    ;}
	.st10{opacity:0.2;fill:#80D8FF;enable-background:new    ;}
	.st11{opacity:5.000000e-02;fill:#80D8FF;enable-background:new    ;}
	.st12{fill:#5B2D00;}
	.st13{fill:#3F1900;}
	.st14{fill:#632A00;}
	.st15{fill:#713C00;}
	.st16{fill:#006633;}
	.st17{fill:url(#SVGID_2_);}
	.st18{fill:url(#SVGID_3_);}
	.st19{fill:#00BD00;}
	.st20{fill:url(#SVGID_4_);}
	.st21{fill:url(#SVGID_5_);}
	.st22{fill:url(#SVGID_6_);}
	.st23{fill:url(#SVGID_7_);}
	.st24{fill:url(#SVGID_8_);}
	.st25{fill:#7A2222;}
	.st26{fill:#932927;}
	.st27{opacity:0.4;fill:url(#SVGID_9_);enable-background:new    ;}
	.st28{opacity:0.4;fill:url(#SVGID_10_);enable-background:new    ;}
	.st29{opacity:0.4;fill:url(#SVGID_11_);enable-background:new    ;}
	.st30{opacity:0.4;fill:url(#SVGID_12_);enable-background:new    ;}
	.st31{opacity:0.4;fill:url(#SVGID_13_);enable-background:new    ;}
	.st32{fill:#4F290D;}
	.st33{fill:#CC6F28;}
	.st34{fill:#123177;}
	.st35{fill:#303030;}
	.st36{fill:#262626;}
	.st37{fill:#C19874;}
	.st38{fill:#244F9B;}
	.st39{fill:#FFFFFF;}
	.st40{fill:#E5B789;}
	.st41{fill:#152B51;}
	.st42{fill:#CECECE;}
	.st43{fill:#66CCCC;}
	.st44{fill:#183054;}
	.st45{fill:#A87343;}
	.st46{fill:#1FA046;}
	.st47{fill:#A08D80;}
	.st48{fill:#C4C5C6;}
	.st49{fill:#20396E;}
	.st50{fill:#E2D6CF;}
	.st51{fill:#1C0F0A;}
	.st52{fill:#915E39;}
	.st53{fill:#663333;}
	.st54{fill:#B7A497;}
	.st55{fill:#1D264F;}
	.st56{fill:#2D4891;}
	.st57{fill:#333399;}
	.st58{fill:#5FFBFF;}
	.st59{fill:#58BDF4;}
	.st60{fill:#56E8E4;}
	.st61{fill:#33D1A0;}
	.st62{opacity:0.5;fill:#FFFFFF;enable-background:new    ;}
	.st63{fill:#602626;}
	.st64{fill:#774444;}
	.st65{fill:#CC3333;}
	.st66{fill:#141414;}
	.st67{fill:#444444;}
	.st68{fill:#0AE20F;}
	.st69{fill:#C42A2A;}
	.st70{fill:#FFE05F;}
	.st71{fill:#81D35B;}
</style>
<g id="deco">
	<g id="foundation_glow" class="st0">
		<ellipse class="st1" cx="199" cy="477.6" rx="167.3" ry="82.9"/>
		
			<linearGradient id="SVGID_1_" gradientUnits="userSpaceOnUse" x1="195.25" y1="541.1" x2="195.25" y2="5.7" gradientTransform="matrix(1 0 0 -1 0 566)">
			<stop  offset="0" style="stop-color:#FFFFFF;stop-opacity:1.000000e-02"/>
			<stop  offset="0.1505" style="stop-color:#FFFFF7;stop-opacity:0.159"/>
			<stop  offset="0.3835" style="stop-color:#FFFFE1;stop-opacity:0.3897"/>
			<stop  offset="0.6699" style="stop-color:#FFFFBE;stop-opacity:0.6732"/>
			<stop  offset="0.9961" style="stop-color:#FFFF8D;stop-opacity:0.9961"/>
			<stop  offset="1" style="stop-color:#FFFF8C"/>
		</linearGradient>
		<path class="st2" d="M2.3,24.9l28.5,452.9c0,0-2.4,35.8,52.5,60.2c25,11.1,62.2,22.3,116.2,22.3s93.4-13.4,118-24.4
			c54.2-24.4,48.1-58,48.1-58L388.2,25L2.3,24.9L2.3,24.9z"/>
	</g>
	<g id="rectangles" class="st0">
		<rect x="34.3" y="301.9" class="st3" width="11" height="45"/>
		<rect x="48.3" y="349.9" class="st3" width="5" height="35"/>
		<rect x="2.3" y="373.9" class="st1" width="3" height="28"/>
		<rect x="18.3" y="330.9" class="st4" width="12" height="43"/>
		<rect x="8.3" y="362.9" class="st1" width="6" height="30"/>
		<rect x="3.3" y="340.9" class="st1" width="2" height="26"/>
		<rect x="322.4" y="4.9" class="st3" width="11.1" height="47"/>
		<rect x="339" y="28.9" class="st4" width="4.8" height="37"/>
		<rect x="349.4" y="15.9" class="st4" width="13.5" height="42"/>
		<rect x="365.4" y="34.9" class="st4" width="1.2" height="31"/>
		<rect x="370.3" y="42.9" class="st4" width="4.9" height="33"/>
		<rect x="312.3" y="321.9" class="st3" width="7" height="33"/>
		<rect x="323.3" y="327.9" class="st3" width="4" height="38"/>
		<rect x="333.3" y="317.9" class="st5" width="16" height="37"/>
		<rect x="352.3" y="329.9" class="st5" width="13" height="38"/>
		<rect x="370.3" y="310.9" class="st1" width="5" height="49"/>
		<rect x="380" y="342.9" class="st1" width="2.6" height="36"/>
		<rect x="381.8" y="301.9" class="st1" width="1" height="36"/>
		<rect x="61.3" y="191.9" class="st1" width="9" height="47"/>
		<rect x="52.8" y="184.9" class="st1" width="3.9" height="37"/>
		<rect x="37.3" y="186.9" class="st6" width="11" height="42"/>
		<rect x="33.3" y="177.9" class="st6" width="1" height="31"/>
		<rect x="26.3" y="164.9" class="st7" width="4" height="33"/>
		<rect x="73.3" y="208.9" class="st1" width="10" height="50"/>
		<rect x="33.3" y="139.9" class="st6" width="9" height="30"/>
		<rect x="357.3" y="68.9" class="st4" width="11" height="40"/>
		<rect x="375.3" y="99.9" class="st4" width="7" height="33"/>
		<rect x="18.3" y="387.9" class="st1" width="6" height="32"/>
		<rect x="30.3" y="398.9" class="st1" width="9" height="40"/>
		<rect x="355.3" y="375.9" class="st1" width="7" height="49"/>
		<rect x="370.3" y="371.9" class="st1" width="5" height="29"/>
		<rect x="365.3" y="371.9" class="st1" width="5" height="29"/>
		<rect x="74.3" y="262.9" class="st3" width="9" height="47"/>
		<rect x="56.3" y="316.9" class="st1" width="9" height="49"/>
		<rect x="72.3" y="283.9" class="st1" width="5" height="36"/>
		<rect x="72.3" y="337.9" class="st1" width="5" height="23"/>
		<rect x="83.3" y="294.9" class="st3" width="11" height="32"/>
		<rect x="92.3" y="331.9" class="st8" width="11" height="54"/>
		<rect x="354.3" y="125.9" class="st1" width="14" height="35"/>
		<rect x="341.3" y="145.9" class="st1" width="8" height="31"/>
		<rect x="330.3" y="169.9" class="st1" width="7" height="27"/>
		<rect x="343.3" y="185.9" class="st1" width="5" height="27"/>
		<rect x="32.3" y="67.9" class="st6" width="17" height="55"/>
		<rect x="55.3" y="94.9" class="st6" width="7" height="44"/>
		<rect x="55.3" y="43.9" class="st9" width="10" height="38"/>
		<rect x="328.3" y="203.9" class="st1" width="11" height="27"/>
		<rect x="308.3" y="238.9" class="st1" width="8" height="29"/>
		<rect x="257.3" y="272.9" class="st9" width="11" height="45"/>
		<rect x="272.3" y="309.9" class="st1" width="9" height="22"/>
		<rect x="295.3" y="301.9" class="st1" width="7" height="22"/>
		<rect x="2.3" y="131.9" class="st6" width="12" height="25"/>
		<rect x="114.3" y="316.9" class="st4" width="8" height="38"/>
		<rect x="144.3" y="323.9" class="st1" width="6" height="23"/>
		<rect x="127.3" y="305.9" class="st1" width="7" height="25"/>
		<rect x="130.3" y="345.9" class="st3" width="6" height="22"/>
		<rect x="187.3" y="279.9" class="st3" width="8" height="30"/>
		<rect x="166.3" y="304.9" class="st1" width="5" height="22"/>
		<rect x="227.3" y="295.9" class="st4" width="7" height="24"/>
		<rect x="246.3" y="306.9" class="st4" width="3" height="25"/>
		<rect x="211.3" y="315.9" class="st7" width="7" height="23"/>
		<rect x="71.9" y="37.2" class="st10" width="9.8" height="52.5"/>
		<rect x="87.9" y="30.9" class="st8" width="5.9" height="39"/>
		<rect x="307.4" y="15.9" class="st10" width="11.1" height="47"/>
		<rect x="296.2" y="7" class="st8" width="5.4" height="34.8"/>
		<rect x="98.9" y="38.9" class="st11" width="5.9" height="39"/>
	</g>
</g>
<g id="coffee">
	<g id="XMLID_98_">
		<g>
			<path class="st12" d="M149.5,417.7c0.7,3.1,0.3,6.7-2.1,8.7c-4.4,3.6-13.2,0.9-17.5-1.7c-1.3-0.8-2.5-1.7-3.3-3
				c-1.1-1.8-1.2-4.1-0.4-6c1.9-4.5,7.8-4.9,12.1-5.4c2.6-0.3,5.4-0.2,7.6,1.3C147.9,412.9,149,415.3,149.5,417.7z"/>
		</g>
	</g>
	<g id="XMLID_97_">
		<g>
			<path class="st13" d="M276.7,429.1c-0.1,3.2-3.5,7.2-7.1,7.7c-3.8,0.5-9-2.4-11.6-4.8c-0.6-0.6-1.2-1.2-1.4-2
				c-0.2-0.9,0.1-1.8,0.4-2.6c0.3-0.7,0.5-1.5,0.8-2.2c1.1-3.3,9.8-2.6,12.9-1.9c1.7,0.3,3.4,0.9,4.6,2
				C276.2,426.3,276.7,427.7,276.7,429.1z"/>
		</g>
	</g>
	<g id="XMLID_96_">
		<g>
			<path class="st13" d="M136,421.4c1.1,1.5,0.5,3.4-1.1,4.7c-1.6,1.3-3.8,2-6.1,2.6c-2.2,0.5-4.6,0.9-6.9,0.7
				c-1.7-0.2-6.6-1.7-6.9-2.8c-1.2-4.8,7.5-7.1,12.8-7.3C131,419.1,134.6,419.6,136,421.4z"/>
		</g>
	</g>
	<g id="XMLID_95_">
		<g>
			<path class="st13" d="M144,420.3c0.9,0.7,1.7,1.5,2.1,2.6c-3-0.6-6-1.4-8.8-2.6c-2.6-1.1-5.8-2.7-6.8-5.6l0.4-0.2
				c0.9,0.1,1.7,0.2,2.6,0.3c0.7,0.1,1.5,0.2,2.2,0.4c1.2,0.4,2.3,1,3.4,1.7C140.7,418,142.4,419,144,420.3z"/>
		</g>
	</g>
	<g id="Layer_15">
		<g id="XMLID_106_">
			<g>
				<path class="st12" d="M122.3,426c1.6,3.2,0.3,7.3-2.4,9.7c-2.6,2.4-6.3,3.4-9.8,4c-2.8,0.5-5.6,0.7-8.4,0.2s-5.5-1.9-7.1-4.2
					c-6-8.2,2.1-15.4,10.1-15.7C110.3,419.7,119.3,420.3,122.3,426z"/>
			</g>
		</g>
		<g id="XMLID_105_">
			<g>
				<path class="st13" d="M111.4,427c2,0,6.9,0,8.2,1.5c-3.5,2.2-10.2,4-14.3,4.6c-0.8,0.1-1.7,0.2-2.5,0.1c-1.4-0.3-6.6-1.9-7.5-3
					C99.5,427.8,106.7,426.9,111.4,427z"/>
			</g>
		</g>
	</g>
	<g id="XMLID_94_">
		<g>
			<path class="st12" d="M162.9,433.1c0.6,3.1-1.4,7.8-4.5,9.2c-3.2,1.4-8.4-0.1-11.1-1.8c-0.7-0.4-1.3-0.9-1.6-1.6
				c-0.4-0.8-0.3-1.8-0.3-2.7c0.1-0.8,0.1-1.6,0.2-2.4c0.3-3.5,8-4.9,10.7-5c1.5-0.1,3.2,0,4.5,0.8
				C161.9,430.4,162.6,431.8,162.9,433.1z"/>
		</g>
	</g>
	<g id="XMLID_93_">
		<g>
			<path class="st14" d="M166.1,415.7c1.5,2,1.7,5.2,0.9,7.7c-0.9,2.5-2.7,4.4-4.7,5.3c-2,1-4.3,1.1-6.4,0.9c-1.8-0.2-3.7-0.6-5.2-2
				c-3.7-3.4-2.2-9.7,1.5-11.9c2.5-1.6,5.4-2.4,8.2-2.4C162.4,413.3,164.6,413.8,166.1,415.7z"/>
		</g>
	</g>
	<g id="XMLID_92_">
		<g>
			<path class="st13" d="M125,443.4c0.6,8.9-11.8,13.6-18.4,8.1c-1.3-1-2.1-2.5-2.6-4.1c-0.8-2.4-0.9-5.2,0.1-7.5
				c1.2-2.5,3.7-3.8,6.2-4.6c3.2-1.1,6.8-0.6,9.8,0.8c1,0.4,1.9,0.9,2.6,1.7C124.3,439.2,124.9,441.3,125,443.4z"/>
		</g>
	</g>
	<g id="XMLID_91_">
		<g>
			<path class="st13" d="M144.4,446.3c3-0.1,4.8,3,4.4,5.7c-0.3,2.1-1.8,4-3.6,5.2c-2.8,1.9-6.5,2.4-9.7,1.1
				c-1.7-0.7-2.5-1.2-2.6-3.1c-0.1-1.7,0.3-3.5,1.5-4.9c0.5-0.5,1-0.9,1.6-1.3C138.3,447.7,141.8,446.4,144.4,446.3z"/>
		</g>
	</g>
	<g id="XMLID_90_">
		<g>
			<path class="st12" d="M100.5,458.6c1.5,1.2,2.9,3,2.7,5c-0.6,6.2-11.9,5.6-15.5,3.7c-4.7-2.6-8.4-9.1-1.7-11.4
				C90.4,454.4,97,455.7,100.5,458.6z"/>
		</g>
	</g>
	<g id="XMLID_89_">
		<g>
			<path class="st12" d="M80.8,469.4c3.7,1.6,5,5.8,1.3,8.1c-2,1.2-4.4,1.9-6.7,1.9c-2.8,0.1-6.9-2.5-5.9-5.9c0.3-1.2,1.3-2,2.3-2.7
				C74.3,469.4,78.1,468.2,80.8,469.4z"/>
		</g>
	</g>
	<g id="XMLID_88_">
		<g>
			<path class="st12" d="M100.5,475c0.1,0.8,0.2,1.6-0.1,2.4c-0.6,1.4-2.3,2.1-3.8,2.4c-4.6,1.1-8.6,1.5-11.5-3.1
				c-2.2-3.5-1-6.9,3.1-8c3.5-1,7.8-1.2,10.3,1.5C99.7,471.5,100.3,473.3,100.5,475z"/>
		</g>
	</g>
	<g id="XMLID_87_">
		<g>
			<path class="st12" d="M107.4,442.8c1.2,2.5-0.1,5.7-2.3,7.3c-2.2,1.7-5.1,2.1-7.9,2.2c-4.1,0.2-13.1-3.1-8.1-8.8
				c2.2-2.5,7-4,10.2-4.2c1.5-0.1,3.1,0,4.6,0.5C105.3,440.4,106.7,441.4,107.4,442.8z"/>
		</g>
	</g>
	<g id="XMLID_86_">
		<g>
			<path class="st13" d="M100.1,463.2c-1.9,0-3.9,0-5.8,0c-1.4,0-2.9,0-4.2-0.5c-2.1-0.8-3-2.4-4.8-3.5c0.9,0.6,3.6,0.2,4.7,0.2
				c1.8,0,3.4,0.3,5.1,1C96.9,461.1,98.5,462.2,100.1,463.2z"/>
		</g>
	</g>
	<g id="XMLID_85_">
		<g>
			<path class="st13" d="M96.3,474.7c1.1,0.4,2.3,0.8,2.8,1.8c-1.8-0.6-3.6-1-5.4-1.2c-1.4-0.2-3.1-0.1-4.4-0.8
				c-1.1-0.6-1.3-1.8-2.5-2.4c1.4,0.1,2.6,0.4,4,0.8C92.6,473.4,94.5,474.1,96.3,474.7z"/>
		</g>
	</g>
	<g id="XMLID_84_">
		<g>
			<path class="st13" d="M79.7,471.9c0.5,0,2.3,0.7,2.7,0.5c-1.7,0.8-3.4,1.5-5.2,2c-1.2,0-2.2,0.5-3.5,0.4c-1-0.1-1.8-0.4-2.8-0.3
				c1.4-1.4,3.5-2.1,5.5-2.4C77.5,471.9,78.6,471.8,79.7,471.9z"/>
		</g>
	</g>
	<g id="XMLID_83_">
		<g>
			<path class="st12" d="M129.6,478.7c0,1.8-0.8,3.5-2.1,4.6c-0.7,0.5-1.4,0.9-2.2,1.2c-1.5,0.5-3.2,0.7-4.8,0.8
				c-3.8,0.3-13.5,0.2-14.2-5.1c-0.8-5.4,6.3-6.6,10.1-6.9C120.8,472.9,129.5,472.5,129.6,478.7z"/>
		</g>
	</g>
	<g id="XMLID_82_">
		<g>
			<path class="st13" d="M121.3,476.9c1.4,0.1,3,0.3,4,1.4c0,0-7.7,1.5-8.8,1.3c-2.2-0.4-4.8-1-7-1.7
				C113.1,475.9,117.3,476.6,121.3,476.9z"/>
		</g>
	</g>
	<g id="XMLID_81_">
		<g>
			<path class="st13" d="M127,458.5c0.4,2.3-4.4,2.9-4.6,0.1C122.2,455.6,126.6,456.7,127,458.5z"/>
		</g>
	</g>
	<g id="XMLID_78_">
		<g>
			<path class="st12" d="M117.3,460.6c2.4,1.7-1.6,4.5-2.7,2.1C113.6,460.7,115.6,459.4,117.3,460.6z"/>
		</g>
	</g>
	<g id="XMLID_77_">
		<g>
			<path class="st13" d="M123.5,464.5c2.2-3,6.6,1.2,3.4,2.8c-0.5,0.3-1.1,0.3-1.7,0.2C124.1,467.3,122.6,465.6,123.5,464.5z"/>
		</g>
	</g>
	<g id="XMLID_73_">
		<g>
			<path class="st13" d="M65.1,457.3c0.3,0.8-0.1,1.7-0.6,2.3c-0.9,1.1-3.1,2.5-4.6,1.9C55,459.7,63.6,453.2,65.1,457.3z"/>
		</g>
	</g>
	<g id="XMLID_72_">
		<g>
			<path class="st12" d="M107.8,485.9c1.6,1.9-1.5,3.9-3.2,3C101.3,487.2,106.2,484,107.8,485.9z"/>
		</g>
	</g>
	<g id="XMLID_71_">
		<g>
			<path class="st13" d="M69.8,453.5c1.9-0.3,4.5,1.1,3.5,3.3c-1,2-3.1,1.7-4.8,0.9C66.2,456.6,68,453.8,69.8,453.5z"/>
		</g>
	</g>
	<g id="XMLID_70_">
		<g>
			<path class="st13" d="M86.8,437.9c2.6,0,1.9,2.9-0.3,2.9c-1.2,0-2.2-1.7-1.1-2.5C85.7,438,86.3,437.9,86.8,437.9z"/>
		</g>
	</g>
	<g id="XMLID_69_">
		<g>
			<path class="st13" d="M82.7,442.9c0.8-0.3,2.1,0.4,2.1,1.3c0,0.5-0.3,1-0.8,1.3c-1.1,0.8-2.3,0.2-2.2-1.2
				C81.8,443.7,82.1,443.1,82.7,442.9z"/>
		</g>
	</g>
	<g id="XMLID_68_">
		<g>
			<path class="st12" d="M136.2,492.5c0.8,3.7-2,6.7-5.5,7.7c-1.9,0.5-3.9,0.5-5.9,0.4c-1.7-0.1-3.5-0.4-4.7-1.6
				c-0.2-0.2-0.4-0.5-0.5-0.8s0-0.6,0.1-0.9c1.5-4.9,6.7-8.2,11.7-8.1c1.3,0,2.8,0.3,3.7,1.3C135.8,490.9,136.1,491.7,136.2,492.5z"
				/>
		</g>
	</g>
	<g id="XMLID_67_">
		<g>
			<path class="st13" d="M134.2,491.9c-1.4,1.9-3.2,2.8-5.2,3.9c-0.6,0.3-1.3,0.9-2,1.1c-0.3,0.1-3.1,0-2.9-0.3
				c0.8-1.6,2.1-2.4,3.8-3.1C128.9,493,133.8,492.5,134.2,491.9z"/>
		</g>
	</g>
	<g id="XMLID_66_">
		<g>
			<path class="st12" d="M271.2,439.8c0.5,0.9,0.8,1.8,0.6,2.8c-0.4,1.9-2.7,2.7-4.7,3c-4.1,0.4-9.4-0.7-11.4-4.8
				c-2.9-6,3.3-7.3,7.9-6.4C266.8,435,269.7,436.9,271.2,439.8z"/>
		</g>
	</g>
	<g id="XMLID_65_">
		<g>
			<path class="st13" d="M268.9,440.9c-3.4,1-8.6,0.3-10.7-2.8C262.3,438.1,265.9,437.2,268.9,440.9z"/>
		</g>
	</g>
	<g id="XMLID_64_">
		<g>
			<path class="st12" d="M298.6,467.3c0.2,8.2-12.4,5.3-17.6,4.2c-0.7-0.2-1.6-0.4-1.9-1.1c-0.3-0.5-0.3-1.1-0.2-1.7
				c0.1-1.1,0.1-2.2,0.6-3.3c0.8-1.8,2.6-2.2,4.3-2.9c3-1.2,6.3-1.5,9.4-1c2,0.3,4.1,1.2,5,3C298.5,465.4,298.6,466.4,298.6,467.3z"
				/>
		</g>
	</g>
	<g id="XMLID_63_">
		<g>
			<path class="st13" d="M286.2,464.8c3.2-1.1,6.7-1.5,10.1-1.3c-4,2.5-8.7,4-13.4,4.1c-0.3,0-0.7-0.3-0.5-0.5l0.1-0.1
				C283.4,465.9,284.8,465.3,286.2,464.8z"/>
		</g>
	</g>
	<g id="XMLID_62_">
		<g>
			<path class="st13" d="M278.2,448.9c0.9,5.2-7.2,6.1-7.9,1.1C269.5,445.1,277.3,443.8,278.2,448.9z"/>
		</g>
	</g>
	<g id="XMLID_61_">
		<g>
			<path class="st12" d="M282.7,439.2c0.5,0.7,0.5,1.7,0.2,2.5c-0.7,2.2-3.2,4.4-5.6,3.7c-1.5-0.5-2.6-1.9-2.8-3.4
				c-0.6-4.1,3.8-5.3,6.9-3.8C281.9,438.4,282.4,438.7,282.7,439.2z"/>
		</g>
	</g>
	<g id="XMLID_58_">
		<g>
			<path class="st15" d="M280.7,451.3c2.4-3.1,7.1,0.1,3.9,3.3C282.2,456.9,278.6,453.9,280.7,451.3z"/>
		</g>
	</g>
	<g id="XMLID_57_">
		<g>
			<path class="st14" d="M290.1,487.7c2.2-1.1,5.5,0.1,3.1,2.6C290.4,493.1,287.1,489.1,290.1,487.7z"/>
		</g>
	</g>
	<g id="XMLID_56_">
		<g>
			<path class="st12" d="M260.3,423.7c1.2,2.3,0.6,5.2-1,7.2s-4.2,3.1-6.7,3.4c-2.1,0.3-4.4,0-6.1-1.2s-4.1-3.3-3.2-5.4
				c1.3-3,3.9-6,7.1-6.9c1.8-0.5,3.7-0.7,5.5-0.3C257.8,420.9,259.4,422.1,260.3,423.7z"/>
		</g>
	</g>
	<g id="XMLID_14_">
		<g>
			<path class="st13" d="M244.3,427.6c4.4-3.6,13.7-3.6,13.7-3.6S248.1,428.8,244.3,427.6z"/>
		</g>
	</g>
	<g id="XMLID_13_">
		<g>
			<path class="st13" d="M109.1,482.1c1,2.3-4.3,3-5.3,1.2C101.8,480.2,107.8,479.2,109.1,482.1z"/>
		</g>
	</g>
	<g>
		<path class="st14" d="M117.4,491.8c4.1,0.2,0-6.6-1.9-2.4c-0.2,0.5-0.2,1,0.1,1.4C116,491.4,116.7,491.8,117.4,491.8z"/>
	</g>
	<g id="XMLID_12_">
		<g>
			<path class="st13" d="M155,425c0.7,3.1-1.6,7.8-5,9.2c-3.6,1.4-9.4-0.1-12.4-1.8c-0.7-0.4-1.5-0.9-1.8-1.6
				c-0.4-0.8-0.4-1.8-0.3-2.7c0.1-0.8,0.1-1.6,0.2-2.4c0.3-3.5,8.9-4.9,12-5c1.7-0.1,3.5,0,5,0.8C153.9,422.4,154.7,423.7,155,425z"
				/>
		</g>
	</g>
	<g id="Layer_17">
		<g id="XMLID_60_">
			<g>
				<path class="st12" d="M140.2,424.7c6.6,2.1,9.4,8.8,5.9,14.7c-3.4,5.6-10.4,9.4-16.9,8.7c-3.7-0.4-7.3-2.2-9.4-5.3
					c-2-2.9-3.6-7.8-1.8-11c1.3-2.4,3.6-4.2,6.2-5.4c1.7-0.7,3.4-1.2,5.2-1.6c1-0.2,1.9-0.3,2.9-0.4
					C134.9,424.1,137.6,424,140.2,424.7z"/>
			</g>
		</g>
		<g id="XMLID_59_">
			<g>
				<path class="st13" d="M119.6,435.2c2-1.4,4-3,6.7-3.9c5-1.6,10.8-2.1,16.3-1.4c-3.3,1.7-7.1,3-11.1,3.9
					c-1.8,0.4-3.7,0.9-5.6,1.1c-1.1,0.1-2.3,0.2-3.5,0.2C122.1,435.2,119.8,435,119.6,435.2z"/>
			</g>
		</g>
	</g>
	<g id="XMLID_11_">
		<g>
			<path class="st13" d="M260.9,435.6c0.7,3.1-1.6,7.8-5,9.2c-3.6,1.4-9.4-0.1-12.4-1.8c-0.7-0.4-1.5-0.9-1.8-1.6
				c-0.4-0.8-0.4-1.8-0.3-2.7c0.1-0.8,0.1-1.6,0.2-2.4c0.3-3.5,8.9-4.9,12-5c1.7-0.1,3.5,0,5,0.8
				C259.8,432.9,260.6,434.2,260.9,435.6z"/>
		</g>
	</g>
</g>
<g id="plant_1_">
	<g id="plant">
		<g id="XMLID_118_">
			<g>
				<path class="st16" d="M357.3,239.6c0.3,1.1-0.9,2-1.8,2.6c-5.9,3.5-12.1,6.1-18.2,9.1c-7.2,3.6-13.6,9.1-20.6,13.1
					c-13.6,7.7-30.7,12.3-46.4,11.7c-6.3-0.3-12.6-1.1-18.6-2.8c-4.1-1.2-12-2.9-14.4-6.7c-8.1-12.8,10.8-28.8,20.9-33.2
					c7.8-3.3,16.2-5,24.6-5.4c7.5-0.4,16.6-0.9,23.9,0c16.5,2.1,32.6,5,48.4,10C356.1,238.3,357.1,238.7,357.3,239.6z"/>
			</g>
		</g>
		<g>
			<path class="st16" d="M285.4,167.6c19.2-7.2,32.8-19.5,46.9-33.7c0.7-0.7,1.4-1.8,0.8-2.6c-0.4-0.5-1.2-0.5-1.9-0.5
				c-17.1,1.5-34.4-2.6-51.6-3.2c-16-0.6-33.1,3.5-45.7,13.7c-5.2,4.3-9.8,10.3-10.3,17.2c-0.6,7.9,4.3,11.2,11.3,13.7
				c8,2.9,17.1,1.5,25.3,0.9C268.8,172.6,277.3,170.6,285.4,167.6z"/>
		</g>
		<g>
			<path class="st16" d="M125.2,159.2c-19.4,0.7-38.5,7.6-56.1,15.4c-0.9,0.4-1.8,0.8-2.5,1.6c-0.7,0.7-1,1.9-0.5,2.7
				c0.5,0.9,1.6,1.2,2.5,1.4c15.6,3.5,31,9.9,45.1,17.7c5.3,2.9,10.4,6.2,16,8.6c8,3.4,16.8,4.7,25.4,4c8.5-0.7,15.9-2.7,22.9-7.4
				c5.5-3.6,7.5-12.7,4.1-18.3c-3.9-6.4-10.3-11.6-16.6-15.5C153.5,161.9,139.2,158.7,125.2,159.2z"/>
		</g>
		<g>
			<path class="st16" d="M172,265.9c10.3,6.8,20.4,21,12,33.2c-5.7,8.3-18.1,9.4-26.9,10.4c-9.3,1.1-18.8,0.2-27.9-2.1
				c-16-4-29.7-13.7-45.1-19.7c-10-3.9-20.4-7-30.7-9.9c-2.6-0.7-5.3-1.5-7.3-3.3c0.7-3,6.4-4.3,8.7-5.1
				c17.3-6.3,35.5-12.4,53.8-15.1C130.2,251.2,153.2,253.6,172,265.9z"/>
		</g>
		<g id="XMLID_117_">
			<g>
				<path class="st16" d="M281.6,48.9c1.7,1.9-7.4,14.2-9,16.4c-5,6.6-10.6,12.6-16.6,18.2c-0.2,0.2-0.4,0.4-0.6,0.6
					c-7.7,7.2-16.6,13.3-26.7,16.5c-3.8,1.2-8.1,2-11.7,0.3c-12-5.5,1.9-24.2,7-29.5c12.1-12.5,27-16.8,43.4-20.5
					c3.7-0.8,7.3-1.6,11-2.5C279.6,48.2,280.9,48,281.6,48.9z"/>
			</g>
		</g>
		<g id="XMLID_116_">
			<g>
				<path class="st16" d="M182.1,107.5c0.8,2.6,2.1,7.7-1,9.3c-2.5,1.2-7.1,0.8-9.8,0.9c-7.5,0.2-15.5-0.4-22.3-3.7
					c-6.9-3.4-12-9.3-16.6-15.3c-5.1-6.6-8.5-13.2-15.7-17.6c-0.4-0.2-0.7-0.5-0.9-0.9c-0.3-1,1-1.6,2-1.7
					c11.1-1.3,20.9-0.3,31.7,2.2c5.8,1.4,10.6,3.9,15.4,7c1.5,0.9,2.9,1.9,4.4,2.9C175.3,94.5,180,100.6,182.1,107.5z"/>
			</g>
		</g>
		<g id="XMLID_115_">
			<g>
				<path class="st16" d="M191.7,30c9.6,13.1,14.2,29.9,12.4,46.1c-0.4,3.6-1.8,14-4.8,16.6c-3.4,2.9-5.8-3.6-8.3-6.7
					c-7.2-8.7-14.6-16.7-14.6-28.6c0-4.1,0.6-8.2,1.3-12.2c1-6.1,2-12.2,2.9-18.2c0.3-1.9,1.1-4.4,3.1-4.5c1.3-0.1,2.4,0.9,3.3,1.8
					C188.6,26.1,190.2,28,191.7,30z"/>
			</g>
		</g>
		<g id="XMLID_114_">
			<g>
				
					<linearGradient id="SVGID_2_" gradientUnits="userSpaceOnUse" x1="202.9798" y1="446.0294" x2="146.113" y2="443.0966" gradientTransform="matrix(1 0 0 -1 0 566)">
					<stop  offset="1.302083e-03" style="stop-color:#00BD00"/>
					<stop  offset="1" style="stop-color:#006633"/>
				</linearGradient>
				<path class="st17" d="M146.3,92.9c-2,0-2,2-1,3s4,3,13.2,6.9c11.2,4.7,21.7,11.9,29.4,21.4c2.7,3.4,5.2,7,7.6,10.6
					c1.1,1.7,8.8,15,8.8,15.1c0.8-3.8-2.4-14.3-2.6-18.2c-0.1-1.4-0.3-2.9-1.2-3.9c-10.4-12.4-10.3-12.6-21.7-20.1
					C167.4,100.3,148.3,92.9,146.3,92.9z"/>
			</g>
		</g>
		<g id="XMLID_113_">
			<g>
				
					<linearGradient id="SVGID_3_" gradientUnits="userSpaceOnUse" x1="205.7701" y1="465.4648" x2="259.2117" y2="471.2774" gradientTransform="matrix(1 0 0 -1 0 566)">
					<stop  offset="1.302083e-03" style="stop-color:#00BD00"/>
					<stop  offset="1" style="stop-color:#006633"/>
				</linearGradient>
				<path class="st18" d="M255.5,70.3c2.1,0.8,1.3,1.8-1.7,3.2c-3.5,1.6-1.7,0-8.6,4c-10.5,6.1-19.6,15.2-25.6,25.8
					c-2.1,3.8-4.1,7.7-5.8,11.7c-0.8,1.8-1.6,3.7-2.3,5.6c-0.2,0.5-2.1,4.4-2.1,4.5c-1.4-3.7-1.7-8.2-2.1-12.1
					c-0.1-1.4-0.2-2.9,0.5-4.1c8.3-13.9,8.2-14.1,18.3-23.3C236,76.4,253.4,69.5,255.5,70.3z"/>
			</g>
		</g>
		<g id="XMLID_112_">
			<g>
				<path class="st19" d="M215.2,176c1.1,17.5,0.7,36,0.1,53.5c-0.8,23.5-4.1,46.4-6,69.7c-0.8,9.6-0.8,19.3-0.7,29
					c0,9.1,0.5,18.3,1.2,27.3c0.3,4,1.7,7-0.6,8.7c-1.9,1.4-6.8,0-9,0c-4.4,0-3.6-21.5-3.7-25.7c-0.3-11.8,0.3-23.6,1.4-35.2
					c1.8-18.5,5.6-36.2,8-54.5c2.2-16.6,2.2-34.1,1.5-51c-0.7-18-2-35.3-3.8-53.1c-0.9-9.3-2.6-18.4-3.4-27.6
					c-0.3-4.3-10.4-51.1-6.8-54.2c1.2-1.1,7.2,28.4,8,30c2.7,5.5,5,17.5,6.1,24.1C210.6,136.5,213.9,156,215.2,176z"/>
			</g>
		</g>
		<g id="XMLID_111_">
			<g>
				
					<linearGradient id="SVGID_4_" gradientUnits="userSpaceOnUse" x1="214.6836" y1="399.8561" x2="305.5571" y2="399.8561" gradientTransform="matrix(1 0 0 -1 0 566)">
					<stop  offset="1.302083e-03" style="stop-color:#00BD00"/>
					<stop  offset="1" style="stop-color:#006633"/>
				</linearGradient>
				<path class="st20" d="M303.8,138c1,0,2.7,1.1,1.1,1.8c-1.5,0.7-3.1,0.9-4.7,1.1c-14.4,1.9-28.1,3.6-41.6,9.5
					c-11.1,4.9-23.4,13.5-30.5,23.4c-2.6,3.5-4.9,7.2-7.1,11c-1,1.7-2,3.5-2.9,5.3c-0.2,0.5-2.6,4.2-2.6,4.3
					c-1-3.8-0.8-8.4-0.8-12.3c0-1.4,0.1-2.9,1-4c9.7-12.9,23.2-23.6,37.9-30.3C269,140.7,286.8,137.2,303.8,138z"/>
			</g>
		</g>
		<g>
			
				<linearGradient id="SVGID_5_" gradientUnits="userSpaceOnUse" x1="206.043" y1="293.2816" x2="318.7" y2="293.2816" gradientTransform="matrix(1 0 0 -1 0 566)">
				<stop  offset="1.302083e-03" style="stop-color:#00BD00"/>
				<stop  offset="1" style="stop-color:#006633"/>
			</linearGradient>
			<path class="st21" d="M250,261.4c-9.5,5-18.8,10.9-26.5,18.5c-3.7,3.7-7.2,7.7-9.7,12.3c-2.1,3.9-3.2,8.3-5.4,12.3
				c-1.7-3.4-2.6-8.8-2.3-12.6c0.2-3.2,2.8-5.9,4.6-8.3c5.1-6.8,11.7-12.4,18.7-17c13.9-9.2,29.2-16.2,45.3-20.5
				c7.9-2.1,16-3.7,24.1-4.5c3.8-0.4,7.6-0.6,11.4-0.6c2.5,0,7.3-0.6,8.5,1.9c-3.9,1.8-10,1.4-14.3,2c-5,0.6-10,1.3-14.9,2.3
				C275.7,249.9,262.6,254.9,250,261.4z"/>
		</g>
		<g id="XMLID_110_">
			<g>
				
					<linearGradient id="SVGID_6_" gradientUnits="userSpaceOnUse" x1="103.3699" y1="366.5578" x2="208.5966" y2="366.5578" gradientTransform="matrix(1 0 0 -1 0 566)">
					<stop  offset="0" style="stop-color:#006633"/>
					<stop  offset="1" style="stop-color:#00BD00"/>
				</linearGradient>
				<path class="st22" d="M208.1,212.7c0.5,3.2,0.6,6.5,0.4,9.8c-2.9-2.6-4.9-5.9-7.8-8.5c-3-2.8-6.1-5.4-9.5-7.6
					c-1.9-1.3-4-2.5-6-3.6c-3.4-1.9-6.8-3.9-10.1-5.8c-2.5-1.4-5-2.9-7.6-4.1c-3.3-1.5-6.8-2.7-10.2-3.7c-8.8-2.8-17.5-5.3-26.6-6.7
					c-5.5-0.9-11-1.2-16.5-1.8c-3-0.3-5.9-0.7-8.8-1.2c-0.8-0.1-1.8-0.4-2-1.2c-0.9-3.4,18.7-1.3,21-1c18.9,2.5,37.8,6.9,55.1,15.1
					c5.8,2.8,11.3,6,16.7,9.5C200.1,204.4,207.4,207.5,208.1,212.7z"/>
			</g>
		</g>
		<g>
			
				<linearGradient id="SVGID_7_" gradientUnits="userSpaceOnUse" x1="104.4336" y1="273.85" x2="199.1984" y2="273.85" gradientTransform="matrix(1 0 0 -1 0 566)">
				<stop  offset="0" style="stop-color:#006633"/>
				<stop  offset="1" style="stop-color:#00BD00"/>
			</linearGradient>
			<path class="st23" d="M187,291.8c4,2.3,7.7,4.9,10.5,8c2.9,3.2,1.4,9.5,0.5,13.3c-2-2.3-3.3-4.8-5.6-6.8s-4.7-4-7.2-5.8
				c-4.9-3.7-10.1-7-15.5-10c-3.8-2.1-7.8-3.9-11.8-5.4c-2.9-1-5.8-1.9-8.8-2.6c-13.5-3.5-27.1-5.8-40.9-7.6
				c-0.8-0.1-4.6-0.3-3.6-2.2c0.3-0.6,1.1-0.9,1.8-1c2.7-0.2,5.2-0.5,7.9-0.5c11.1,0.3,22.3,1.3,33.1,3.9c9.2,2.2,18.2,5.6,26.7,9.9
				C178.2,287.2,182.8,289.3,187,291.8z"/>
		</g>
		<g id="XMLID_107_">
			<g>
				
					<linearGradient id="SVGID_8_" gradientUnits="userSpaceOnUse" x1="179.3029" y1="433.6299" x2="214.3598" y2="500.7706" gradientTransform="matrix(1 0 0 -1 0 566)">
					<stop  offset="1.302083e-03" style="stop-color:#00BD00"/>
					<stop  offset="0.2309" style="stop-color:#00B902"/>
					<stop  offset="0.44" style="stop-color:#00AE09"/>
					<stop  offset="0.6411" style="stop-color:#009C13"/>
					<stop  offset="0.8361" style="stop-color:#008223"/>
					<stop  offset="1" style="stop-color:#006633"/>
				</linearGradient>
				<path class="st24" d="M190.3,52.9c1.8-1.3,5,15,5,15s6,22,8,30s4,18,5,25c1,7-5,22-5,22s-5-33.6-7-47S188.5,54.2,190.3,52.9z"/>
			</g>
		</g>
	</g>
	<g id="pot">
		<g id="XMLID_25_">
			<g>
				<path class="st25" d="M257.7,368.3c-0.1,0-0.2,0-0.2,0c-0.6,0-1.3,0-1.9,0s-1.3,0-1.9,0c-0.1,0-0.1,0-0.2,0
					c-6.7,0-13.2,0.2-19.9,0.2c-12.5,0-24.9,0-37.3,0c-9.6,0-19.1,0-28.7,0c-5.6,0-11.2-0.1-16.9-0.2c-1.7,0-3.4-0.1-5.1-0.1
					c-0.9,0-1.8,0-2.5-0.6c-2.5-1.9-3.3-6.7-4.1-9.5c-0.7-2.5-1.4-5.1-2-7.6c-0.3-1.3-1.8-5.1-0.8-6.3c0.4-0.5,1.2-0.7,1.9-0.7
					c4.5-0.5,9.1-0.2,13.5-0.2c5.3,0,10.7,0.1,16,0.1c19.2,0,38.4,0,57.7,0c6.9,0,13.9-0.1,20.8-0.2c6.6-0.1,13,0.1,19.5-0.1
					c1,0,2-0.1,2.8,0.4c2.8,1.6,1,6.2,0.5,8.6c-0.8,4.6-3,9-4.9,13.2C262.9,368.3,260.7,368.3,257.7,368.3z"/>
				<path class="st26" d="M255.6,368.3c0.6,0,1.3,0,1.9,0c0.1,0,0.2,0,0.2,0c-5.4,29.3-13,86.6-15.3,90.4s-4.5,4-13,4.6
					c-13.4,0.9-39,0-52.1,0c-3.2,0-7.7,0-9.9-3.3s-11.2-61.9-16.6-91.7c5.6,0.1,11.2,0.2,16.9,0.2c9.6,0,19.1,0,28.7,0
					c12.5,0,24.9,0,37.3,0c6.7,0,13.2-0.2,19.9-0.2c0.1,0,0.1,0,0.2,0C254.3,368.3,255,368.3,255.6,368.3z"/>
			</g>
		</g>
	</g>
</g>
<g id="glows">
	
		<linearGradient id="SVGID_9_" gradientUnits="userSpaceOnUse" x1="128.9161" y1="444.3" x2="128.9161" y2="381.2" gradientTransform="matrix(1 0 0 -1 0 566)">
		<stop  offset="0" style="stop-color:#FFFFFF;stop-opacity:1.000000e-02"/>
		<stop  offset="0.1505" style="stop-color:#FFFFF7;stop-opacity:0.159"/>
		<stop  offset="0.3835" style="stop-color:#FFFFE1;stop-opacity:0.3897"/>
		<stop  offset="0.6699" style="stop-color:#FFFFBE;stop-opacity:0.6732"/>
		<stop  offset="0.9961" style="stop-color:#FFFF8D;stop-opacity:0.9961"/>
		<stop  offset="1" style="stop-color:#FFFF8C"/>
	</linearGradient>
	<path class="st27" d="M97.6,121.7l1.3,51.5c0,0-1.9,11.2,31.5,11.6c32,0,29.8-11.6,29.8-11.6l-1-50.3L97.6,121.7z"/>
	
		<linearGradient id="SVGID_10_" gradientUnits="userSpaceOnUse" x1="281.6043" y1="477.9" x2="281.6043" y2="416.2" gradientTransform="matrix(1 0 0 -1 0 566)">
		<stop  offset="0" style="stop-color:#FFFFFF;stop-opacity:1.000000e-02"/>
		<stop  offset="0.1505" style="stop-color:#FFFFF7;stop-opacity:0.159"/>
		<stop  offset="0.3835" style="stop-color:#FFFFE1;stop-opacity:0.3897"/>
		<stop  offset="0.6699" style="stop-color:#FFFFBE;stop-opacity:0.6732"/>
		<stop  offset="0.9961" style="stop-color:#FFFF8D;stop-opacity:0.9961"/>
		<stop  offset="1" style="stop-color:#FFFF8C"/>
	</linearGradient>
	<path class="st28" d="M258.2,89l-0.6,49c0,0-1.5,11.4,24.7,11.8c25,0,23.3-11.8,23.3-11.8l-0.5-49.9L258.2,89z"/>
	
		<linearGradient id="SVGID_11_" gradientUnits="userSpaceOnUse" x1="124.0163" y1="345.5" x2="124.0163" y2="283.8" gradientTransform="matrix(1 0 0 -1 0 566)">
		<stop  offset="0" style="stop-color:#FFFFFF;stop-opacity:1.000000e-02"/>
		<stop  offset="0.1505" style="stop-color:#FFFFF7;stop-opacity:0.159"/>
		<stop  offset="0.3835" style="stop-color:#FFFFE1;stop-opacity:0.3897"/>
		<stop  offset="0.6699" style="stop-color:#FFFFBE;stop-opacity:0.6732"/>
		<stop  offset="0.9961" style="stop-color:#FFFF8D;stop-opacity:0.9961"/>
		<stop  offset="1" style="stop-color:#FFFF8C"/>
	</linearGradient>
	<path class="st29" d="M90.7,220.5l1.3,51.4c0,0-2,10,33.6,10.3c34,0,31.7-10.3,31.7-10.3l-1-51.4H90.7z"/>
	
		<linearGradient id="SVGID_12_" gradientUnits="userSpaceOnUse" x1="289.7128" y1="378.8" x2="289.7128" y2="314.4" gradientTransform="matrix(1 0 0 -1 0 566)">
		<stop  offset="0" style="stop-color:#FFFFFF;stop-opacity:1.000000e-02"/>
		<stop  offset="0.1505" style="stop-color:#FFFFF7;stop-opacity:0.159"/>
		<stop  offset="0.3835" style="stop-color:#FFFFE1;stop-opacity:0.3897"/>
		<stop  offset="0.6699" style="stop-color:#FFFFBE;stop-opacity:0.6732"/>
		<stop  offset="0.9961" style="stop-color:#FFFF8D;stop-opacity:0.9961"/>
		<stop  offset="1" style="stop-color:#FFFF8C"/>
	</linearGradient>
	<path class="st30" d="M263.7,187.2l1,54.7c0,0-1.6,9.3,26.2,9.7c26.6,0,24.8-9.7,24.8-9.7l-0.5-54.7H263.7z"/>
	
		<linearGradient id="SVGID_13_" gradientUnits="userSpaceOnUse" x1="202.25" y1="190.1" x2="202.25" y2="59.9" gradientTransform="matrix(1 0 0 -1 0 566)">
		<stop  offset="0" style="stop-color:#FFFFFF;stop-opacity:1.000000e-02"/>
		<stop  offset="0.1505" style="stop-color:#FFFFF7;stop-opacity:0.159"/>
		<stop  offset="0.3835" style="stop-color:#FFFFE1;stop-opacity:0.3897"/>
		<stop  offset="0.6699" style="stop-color:#FFFFBE;stop-opacity:0.6732"/>
		<stop  offset="0.9961" style="stop-color:#FFFF8D;stop-opacity:0.9961"/>
		<stop  offset="1" style="stop-color:#FFFF8C"/>
	</linearGradient>
	<path class="st31" d="M119.7,375.9c0,0,15.1,89.6,16.2,97.1c1.1,7.5,10.9,33.1,69.1,33.1s65.8-27.7,67.9-35.2s11.9-92.9,11.9-92.9
		L119.7,375.9z"/>
</g>
<g id="people_1_">
	<g id="XMLID_9_">
		<g>
			<path class="st32" d="M248.3,472.1c1,2.2,0.4,4.9,1.1,7.3c-1.6,0.6-3.4,0.8-5.1,0.6l-0.9,0.1c-0.1-0.9-0.2-1.8-0.4-2.8h-0.1
				c0-0.3,0.1-1.1,0.2-2.2l0.6,0.1c1.4-0.3,2.8-0.7,4.2-1.2c0.1,0,0.2-0.1,0.3-0.2c0-0.1,0-0.2,0-0.2
				C248.2,473.1,248.2,472.7,248.3,472.1L248.3,472.1L248.3,472.1z"/>
			<path class="st33" d="M230.5,391.4c0-0.1-0.1-0.2-0.2-0.4c-0.8-1.8-1.5-3.9-1.6-5.9c-0.1-1.3,7.3,2.7,7.7,2.8
				c3.3,1.3,7.4,1.8,10.8,2.7c0.3,0.1,0.5,0.1,0.7,0.4c0.1,0.2,0.1,0.5,0.1,0.7c0,3.6-0.1,7.2-0.1,10.8c0,0.3,0,0.6-0.1,0.8
				c-0.1,0.2-0.3,0.4-0.6,0.5c-1,0.7-2.1,1.4-3.1,2c-0.1,0.1-0.3,0.2-0.4,0.2c-0.3,0.2-0.7,0.4-1.1,0.3c-0.3-0.1-0.4-0.3-0.6-0.5
				c-1-1.4-1.4-3.1-1.3-4.8c0.1-1.1,0.5-2.4-0.1-3.3c-0.3-0.6-0.9-0.9-1.4-1.2c-1.9-1.2-3.9-2.8-6.1-3.3c-0.6-0.1-1.2-0.2-1.7-0.5
				C231,392.3,230.7,391.8,230.5,391.4z"/>
			<path class="st34" d="M246.7,427.9c0.1-0.2,0.2-0.4,0.4-0.6l0.4,0.2c-0.1,6.1,0.9,11.8-0.1,17.5c-0.3,1.1-0.7,1.8-1.3,2.4
				s-1.3,1-2.1,1.3c-2.6,0.9-6.2,0.1-9.2,0.6c-0.6,0.1-1.1,0.2-1.7,0.4c-1.9-3.8-0.9-7.6-1.3-11.1l-0.1-0.6c0.6-0.1,1.2-0.2,1.8-0.5
				c0,0.1,0,0.2,0,0.2c0-0.1,0.9-0.5,2-1.1c0.8-0.4,1.7-0.9,2.5-1.3c1.4-0.7,2.6-1.4,2.9-1.6C243.2,432,245.2,430.3,246.7,427.9z"/>
			<path class="st35" d="M244.1,463.6c0.1-5-0.3-10-0.1-14.9c0.8-0.3,1.5-0.7,2.1-1.3l0.1,0.1c1,8.2,1.8,16.4,2,24.7
				c0,0.5,0,0.9,0,1.4c0,0.1,0,0.2,0,0.2c-0.1,0.1-0.2,0.2-0.3,0.2c-1.4,0.5-2.8,0.9-4.2,1.2l-0.6-0.1
				C243.4,471.4,244,464.4,244.1,463.6z"/>
			<path class="st36" d="M235.4,477.6c1.5-6.3,0.3-12.8-0.4-19.4c-0.3-3-0.5-6.1-0.3-9c3-0.5,6.6,0.3,9.2-0.6
				c-0.2,5,0.2,10,0.1,14.9c0,0.8-0.7,7.8-1,11.6c-0.1,1.1-0.2,1.9-0.2,2.2c0,0.1,0,0.1,0,0.1C240.4,477.5,237.9,477.6,235.4,477.6
				L235.4,477.6z"/>
			<path class="st32" d="M242.9,477.4c0,0,0,0,0-0.1h0.1c0.1,0.9,0.2,1.8,0.4,2.8c0.2,1.7,0.4,3.4,0.4,5.2v0.1h-0.1
				c-1,0.1-2.1,0.3-3.1,0.4c0-0.6-0.1-1.2-0.2-1.7c-0.4,0.2-0.5,0.7-0.7,1.1c-0.7,1.4-3.7,0.8-5,0.7c-0.5,0-5.9-0.6-6-0.6
				c0.5-1.6,1.2-3.4,2.6-4.2c1.3-0.7,3.2-0.8,3.8-2.2c0.2-0.4,0.2-0.8,0.3-1.1c0-0.1,0-0.1,0.1-0.2l0,0
				C237.9,477.6,240.4,477.5,242.9,477.4z"/>
			<path class="st37" d="M243.4,408.7c0.1,0.7,0.1,1.4,0.1,2.1v0.1c-0.3,0.1-0.6,0.2-1,0.3c-1.3,0.4-2.8,0.4-3.9,1
				c-0.4,0.2-0.8,0.4-1.2,0.5l-0.3-3.8c2.1,0.3,4.7,0.4,6.2-0.6L243.4,408.7z"/>
			<path class="st38" d="M238.1,435.3c-0.8,0.4-1.7,0.9-2.5,1.3l-0.1-0.1l0,0c-0.5-1.6-0.9-3.2-1.4-4.8l-0.1-0.1
				c1.3-1.1,2.4-2.2,3.3-3.5c0.4-0.6,0.7-1.2,1.1-1.9c1-2,1.6-5.2,3.3-6.8c0.7-0.7,1.8-0.9,2.8-0.6s1.7,1.1,2.3,2.1
				c0.2,0.4,0.4,0.8,0.6,1.2c0.3,0.7,0.6,1.3,0.7,2c0.1,1.1-0.3,2.2-0.9,3.2c-0.1,0.2-0.2,0.4-0.4,0.6c-1.5,2.5-3.5,4.1-5.7,5.8
				C240.7,433.9,239.5,434.6,238.1,435.3z"/>
			<path class="st39" d="M234.5,413.6c1-0.3,1.9-0.5,2.8-0.9c0.4-0.2,0.8-0.3,1.2-0.5c1.2-0.6,2.7-0.6,3.9-1c0.4-0.1,0.7-0.2,1-0.3
				c2-0.4,2.1,0.4,2.2,2.9c-1.3-1-6.4,0.2-7.8,0.6c-1.4,0.3-2.6,0.5-3.3,1.2l-0.1-0.1c0-0.5,0-1,0-1.5
				C234.5,413.8,234.5,413.7,234.5,413.6z"/>
			<path class="st38" d="M234.5,414c0,0.5,0,1,0,1.5l0.1,0.1c-0.5,0.4-0.8,1.1-0.8,2.2l0.2,0.3c-1,0.7-2,1.3-3,2.1
				c-0.9,0.7-1.8,1.3-2.9,1.7c-0.3,0.2-0.7,0.3-0.8,0.6c-0.2,0.3,0.1,0.8,0.3,1.2l-0.4,0.1c-3.8,1.3-7.7,2.4-11.7,3.1
				c-0.5-1.5-1.2-3.9-1.7-5.2l-0.1-0.2c3.6-2.1,7.9-4,11.7-5.3c1.5-0.5,3.1-1,4.7-1.4C231.4,414.5,233,414.2,234.5,414z"/>
			<path class="st34" d="M246.7,420.9c-0.6-0.9-1.3-1.8-2.3-2.1c-0.9-0.3-2,0-2.8,0.6c-1.7,1.6-2.3,4.7-3.3,6.8
				c-0.3,0.7-0.7,1.3-1.1,1.9l0,0c-0.2-3.7-0.7-7.5-1.6-11.1c-0.6,0.4-1.2,0.7-1.7,1.1l-0.2-0.3c0-1.1,0.3-1.8,0.8-2.2
				c0.7-0.7,1.9-0.9,3.3-1.2c1.4-0.3,6.5-1.5,7.8-0.6c0,0,0,0,0.1,0c0.9,0.8,1,5.6,1.2,6.9L246.7,420.9z"/>
			<path class="st39" d="M235.4,436.4C235.4,436.4,235.4,436.5,235.4,436.4l0.1,0.2c-1.1,0.6-2,1-2,1.1c0-0.1,0-0.2,0-0.2
				c0.1-1.4-0.6-2.8-1.1-4.1c0-0.1-0.1-0.2-0.1-0.3c0,0,0-0.1,0-0.2c0-0.2,0.2-0.4,0.4-0.5c0.4-0.3,0.8-0.7,1.2-1l0.1,0.1
				C234.5,433.2,235,434.8,235.4,436.4z"/>
			<path class="st40" d="M244.4,406.2c-0.1,1-0.5,1.7-1.2,2.1c-1.5,1-4,0.9-6.2,0.6c-1.1-0.2-2.1-0.4-2.7-0.6
				c-6.6-2.1-3.9-11.8-3.8-17c0.2,0.5,0.5,0.9,0.9,1.2c0.5,0.3,1.1,0.4,1.7,0.5c2.2,0.4,4.2,2.1,6.1,3.3c0.5,0.3,1.1,0.7,1.4,1.2
				c0.6,1,0.2,2.2,0.1,3.3c-0.2,1.7,0.3,3.4,1.3,4.8c0.2,0.2,0.3,0.4,0.6,0.5c0.4,0.1,0.8-0.1,1.1-0.3c0.1-0.1,0.3-0.2,0.4-0.2
				L244.4,406.2z"/>
			<path class="st41" d="M209.6,491.4c-0.1,0.1-0.2,0.2-0.3,0.4l-0.6-0.2c-0.8-9.9-2.5-19.8-3-29.8l-0.3-0.7l0.8-0.1
				c8.1-10.3,13.8-20.8,22.5-31.3h0.2c0.1,0.8,0.3,1.7,0.4,2.5v0.4c-0.2,0-0.3,0.1-0.4,0.2c-0.1,0.2-0.2,0.5-0.2,0.7
				c-0.1,1.9-0.1,4.3,2.4,4.6c0.3,0,0.5,0,0.8,0l0.1,0.6c0.3,3.5-0.6,7.3,1.3,11.1c0.5-0.2,1.1-0.4,1.7-0.4c-0.2,3,0,6,0.3,9
				l-0.8,0.1c-1.1,2.7-0.2,6.5-4.9,5.5c-0.9,2.8-0.9,8.5-5.6,7.5c0,0.1,0,0.2,0,0.2c0,2,0.8,4.7-1.1,6.5c-1.1,1.1-3.2,0.9-4.7,1
				c-0.1,1.8-0.8,3.9-1.5,5.6c-0.1,0.2-0.2,0.4-0.3,0.6c-0.5,0.4-1.3-0.1-1.9-0.1c-0.6-0.1-1.3,0.3-1.6,0.9
				c-0.4,0.5-0.6,1.1-0.9,1.7C211.2,489,210.4,490.2,209.6,491.4z"/>
			<path class="st42" d="M232.4,433c0,0.1,0,0.1,0,0.2c-0.4,0-0.8,0.2-1.2,0.3c-0.5,0.2-1.3,0.1-1.5-0.4c-0.1-0.2-0.1-0.5-0.3-0.6
				c-0.1,0-0.1-0.1-0.2-0.1V432c-0.1-0.8-0.3-1.7-0.4-2.5c-0.1-0.4-0.1-0.9-0.2-1.3c-0.1-0.6-0.2-1.1-0.3-1.7
				c-0.1-0.8-0.2-1.6-0.5-2.4c0-0.1-0.1-0.3-0.2-0.5c-0.2-0.4-0.5-0.9-0.3-1.2c0.2-0.3,0.5-0.4,0.8-0.6c1-0.5,2-1.1,2.9-1.7
				c1-0.8,2-1.4,3-2.1c0.6-0.4,1.1-0.7,1.7-1.1c0.9,3.6,1.4,7.4,1.6,11.1l0,0c-0.9,1.3-2,2.4-3.3,3.5c-0.4,0.3-0.8,0.6-1.2,1
				C232.6,432.6,232.4,432.8,232.4,433z"/>
			<path class="st40" d="M232.5,433.4c0.5,1.3,1.2,2.6,1.1,4.1c-0.6,0.2-1.2,0.4-1.8,0.5c-0.3,0-0.5,0-0.8,0
				c-2.5-0.2-2.5-2.6-2.4-4.6c0-0.2,0-0.5,0.2-0.7c0.1-0.1,0.3-0.2,0.4-0.2c0.1,0,0.1,0,0.2,0.1c0.2,0.1,0.2,0.4,0.3,0.6
				c0.3,0.5,1,0.5,1.5,0.4c0.4-0.1,0.8-0.3,1.2-0.3C232.4,433.3,232.5,433.3,232.5,433.4z"/>
			<path class="st43" d="M217.5,432.1l-2.8,4.7h-9.5l3.6-5C211.4,431.8,214.8,432.1,217.5,432.1z"/>
			<path class="st39" d="M213.2,427.3c-0.4-1.4-1.2-3.2-1.4-4.6l0,0c0.6-0.4,1.2-0.8,1.8-1.1l0.1,0.2c0.6,1.3,1.2,3.7,1.7,5.2
				c-0.7,0.1-1.4,0.2-2.1,0.4l0,0C213.3,427.3,213.2,427.3,213.2,427.3L213.2,427.3z"/>
			<path class="st40" d="M208.2,428.6c0.8-0.4,1.3-1,1.1-2.1c-0.1-0.7-0.4-1.5-1-2.1c-0.4-0.4-0.9-0.6-1.5-0.7
				c0.9-1.1,3.5-1.1,4.8-1.1c0.2,1.5,1,3.2,1.4,4.6l0,0c-0.4,0.3-0.7,0.5-1.1,0.7C210.9,428.6,209.6,428.8,208.2,428.6L208.2,428.6z
				"/>
			<path class="st44" d="M174.7,490.6c-0.3-1.5-0.4-3.1-0.5-4.6c-0.4-8,1.4-16.1-0.9-24.4l0.2-0.5c0.1,0,0.2,0,0.2,0
				c10.5,0,21.1,0,31.6,0l0.3,0.7c0.6,10,2.3,19.8,3,29.8l0.6,0.2c-0.3,0.3-0.7,0.6-1.1,0.7c-0.9,0.1-1.6-0.6-2.4-0.8
				c-2.3-0.5-3.6,2.4-6.1,1.4c-1.7-0.6-2.2-2.5-4.3-1.8c-1.2,0.4-1.9,1.6-3.3,1.6c-1.2,0-1.9-1.3-3-1.4c-1.6-0.3-2.8,2-4.4,1.8
				c-0.7-0.1-1.3-0.6-1.9-1c-2.5-1.7-5.2-0.3-7.4,1.2C175,492.4,174.8,491.5,174.7,490.6z"/>
			<path class="st45" d="M206.9,423.7c0.5,0.1,1,0.3,1.5,0.7c0.5,0.6,0.8,1.3,1,2.1c0.2,1-0.4,1.7-1.1,2.1c-0.4,0.2-0.8,0.4-1.3,0.6
				c-1.6,0.6-4.2,0.2-5.6-0.8H201c-0.1-0.8-0.1-1.8-0.1-2c0-0.3,0-0.6,0.1-0.8h0.3c0.6-0.4,1.3-0.8,1.9-1.2c0.3-0.2,0.6-0.3,0.9-0.4
				c0.3-0.1,0.6-0.1,0.9-0.2C205.6,423.8,206.3,423.7,206.9,423.7z"/>
			<path class="st46" d="M203.9,441.4c-1-0.1-2.1-0.2-3.1-0.5c0.2-0.6,0.4-1.2,1.1-1.4c0.3-0.1,0.6,0,0.8,0c2.2,0.2,4.4,0.4,6.7,0.6
				c1.2,0.1,2.5,0.3,3.3,1.3c0.1,0.2-0.9,0.4-1.5,0.4c-0.2,0-0.4,0-0.4,0c-1,0-2,0-2.9-0.1C206.4,441.7,205.1,441.5,203.9,441.4z"/>
			<path class="st39" d="M198.7,443.5c1.2,1.7,2.2,3.5,3.3,5.2c0,0,0.1,0.1,0.1,0.2s0,0.2-0.1,0.2c-0.6,1-1.4,2-1.9,3
				c-0.1,0.3-1.5,2.3-1.6,2.1c-0.7-0.9-1.4-1.6-2.1-2.4c-0.4-0.4-0.7-0.9-1.1-1.4c-0.2-0.3-0.5-0.7-0.7-1c-0.1-0.2-0.2-0.3-0.2-0.5
				c-0.1-0.3,0.1-0.5,0.5-0.9C196.1,446.5,197.4,445,198.7,443.5z"/>
			<path class="st47" d="M195.8,430.2l0.1,0.5c-0.6,0.8-2.9,3.8-5.7,7.7l0,0c-0.2-2.2-0.5-4.4-1.1-6.6v-0.9
				C191.3,430.8,193.5,430.6,195.8,430.2z"/>
			<path class="st48" d="M195.2,450.4c0.3,0.5,0.7,0.9,1.1,1.4l-0.1,0.1c-0.7,0.9-1.4,1.7-2.2,2.5c0.2-1.8,0.3-3.6,0.2-5.5h0.1
				c0,0.1,0.1,0.3,0.2,0.5C194.7,449.7,195,450.1,195.2,450.4z"/>
			<path class="st49" d="M194.8,448c-0.4,0.4-0.5,0.6-0.5,0.9h-0.1c0.1,1.8,0,3.7-0.2,5.5c0.7-0.8,1.5-1.7,2.2-2.5l0.1-0.1
				c0.7,0.8,1.4,1.6,2.1,2.4c0.2,0.2,1.5-1.9,1.6-2.1c0.5-1.1,1.3-2,1.9-3c0-0.1,0.1-0.1,0.1-0.2s0-0.1-0.1-0.2
				c-1.2-1.7-2.2-3.5-3.3-5.2C197.4,445,196.1,446.5,194.8,448z M201.3,429.3c-0.2,0-0.3-0.4-0.4-1h0.4c1.4,1,4,1.4,5.6,0.8
				c0.4-0.2,0.9-0.3,1.3-0.6v0.1c1.3,0.2,2.6-0.1,3.8-0.7l0.2,0.3c5.3,0,10.6,0,15.9,0l0.4-0.1c0.1,0.4,0.1,0.9,0.2,1.3h-0.2
				c-8.8,10.6-14.4,21-22.5,31.3l-0.8,0.1c-10.5,0-21.1,0-31.6,0v-0.2c0.4-0.6,2.4-3.4,5.1-7.1c3.4-4.6,7.8-10.6,11.3-15.4
				c2.9-3.9,5.1-6.9,5.7-7.7l-0.1-0.5C197.6,430,199.4,429.7,201.3,429.3z M214.6,436.8l2.8-4.7c-2.7,0-6-0.3-8.7-0.3l-3.6,5H214.6z
				 M211,441.8c0.6-0.1,1.7-0.3,1.5-0.4c-0.7-1-2.1-1.2-3.3-1.3c-2.2-0.2-4.4-0.4-6.7-0.6c-0.3,0-0.6-0.1-0.8,0
				c-0.7,0.2-0.9,0.8-1.1,1.4c1,0.3,2.1,0.4,3.1,0.5c1.3,0.1,2.5,0.2,3.8,0.4c1,0.1,2,0.1,2.9,0.1
				C210.6,441.9,210.8,441.9,211,441.8z"/>
			<path class="st50" d="M189,431.8c0.6,2.2,0.9,4.4,1.1,6.6l0,0c-3.5,4.8-7.9,10.8-11.3,15.4l-0.1-0.1c-1.8,0.4-3.1,2-4.8,2.6
				c-1,0.4-2,0.4-3,0.4c-0.2,0-0.5,0-0.8,0c-0.6,0-1.1-0.2-1.4-0.7c-0.2-0.3-0.2-0.7-0.2-1.1c0-2.4,0.2-4.6,0.6-6.9
				c1.2-8.4-1.7-16.1-2.3-24.4h0.2c0.1,0.8,0.3,1.6,0.6,2.2c0.8,1.4,2.3,2.2,3.8,2.7c2.8,0.9,5.8,1.3,8.7,1.7
				c2.2,0.3,4.4,0.5,6.6,0.6c0.7,0,1.5,0,2.2,0L189,431.8z"/>
			<path class="st50" d="M185.1,411.9c3.3,1.7,1.9,7.6,3,10.5v0.1c-0.5-0.2-0.9-0.4-1.3-0.7c-1.8-1.1-3.3-2.7-5.2-3.7
				c-1.8-1-3.8-1.4-5.8-1.7c-1.1-0.2-2.3-0.4-3.5-0.4c1.6-1,3.9-2.6,6.3-3.6C180.9,411.4,183.3,411,185.1,411.9z"/>
			<path class="st45" d="M181.6,394.3c0.1-0.1,0.2-0.3,0.3-0.4l0.7,0.2c1.1,3.2,1.8,11.6-1,14.1c-0.8,0.7-1.8,1.1-3,1.3
				c-2.4,0.3-5.2-0.4-7.3-1.3c-0.7-0.3-1.4-0.7-1.9-1l-0.1-0.2c0.2-0.1,0.4-0.2,0.6-0.3c1.8-1.2,0.9-4.2,2.2-6
				c0.5-0.7,1.3-1.2,2.1-1.7C176.8,397.7,179.6,396.6,181.6,394.3z"/>
			<path class="st51" d="M179.4,388.2c3.6,0.7,4.4,3.1,2.5,5.7c-0.1,0.1-0.2,0.3-0.3,0.4c-2,2.3-4.8,3.4-7.5,4.8
				c-0.8,0.4-1.6,0.9-2.1,1.7c-1.2,1.8-0.4,4.8-2.2,6c-0.2,0.1-0.4,0.2-0.6,0.3c-1,0.4-2.2,0.2-3.3,0.5c-2.9,0.8-3.6,4.6-3.3,7.7
				c0.3,3,0.8,6.5-1.3,8.7c-1,1-2.4,1.5-3.7,2c-2.3,0.8-5.5,1.2-6.6-1c-1.1-2.4,1.6-4.8,1.7-7.5c0.1-2.3-1.9-4.3-2.3-6.6
				c-0.5-3.1,2-5.9,4.7-7.5c1.5-0.9,7.6-2.7,8.2-4.3c0.8-2.2-2.5-2.1-3.5-3.4c-5.1-6.9,7.9-14.3,10.4-7.6c0.1,0.4,0.2,0.8,0.5,1.1
				c1.2,1.5,2.8-0.5,3.9-0.9c1.2-0.4,3.2-0.3,4.4-0.1C179.2,388.2,179.3,388.2,179.4,388.2z"/>
			<path class="st47" d="M183.5,410.7c6.1-0.7,7,8.9,8.6,12.9v0.2c-1.4-0.2-2.8-0.6-4-1.2v-0.1c-1-3,0.4-8.8-3-10.5
				c-1.9-1-4.2-0.5-6.5,0.5c0-0.1,0-0.3,0-0.4h0.3C180.1,411.1,182.1,410.9,183.5,410.7z"/>
			<path class="st52" d="M178.6,409.5c0,0.6,0,1.7,0,2.5c0,0.2,0,0.3,0,0.4c-2.4,1-4.7,2.6-6.3,3.6c-0.2,0-0.3,0-0.5,0
				c0-2.6,0.1-5-0.7-7.6l0.1-0.2C173.4,409.2,176.2,409.9,178.6,409.5z"/>
			<path class="st53" d="M174.7,490.6c-1.1,0-2.2-0.1-3.2-0.5c-0.1,0-0.3-0.1-0.4-0.2c-0.2-0.2-0.2-0.4-0.2-0.7c0-1.1,0-2.2,0.1-3.3
				c1,0,2,0,3,0h0.3C174.2,487.5,174.4,489.1,174.7,490.6z"/>
			<path class="st54" d="M172.3,416c1.1-0.1,2.3,0.2,3.5,0.4c2,0.4,4,0.8,5.8,1.7c1.9,1,3.4,2.6,5.2,3.7c0.4,0.3,0.9,0.5,1.3,0.7
				c1.3,0.6,2.6,1,4,1.2c2.5,0.4,5.1,0.4,7.6,0.6c1.2,0.1,1.3,0.6,1.2,1.3c0,0.2,0,0.5-0.1,0.8c0,0.2,0,1.2,0.1,2
				c0.1,0.5,0.2,1,0.4,1c-1.9,0.3-3.7,0.7-5.5,0.9c-2.3,0.3-4.5,0.6-6.8,0.6c-0.7,0-1.5,0-2.2,0c-2.2-0.1-4.4-0.4-6.6-0.6
				c-3-0.4-5.9-0.7-8.7-1.7c-1.5-0.5-3-1.3-3.8-2.7c-0.4-0.6-0.6-1.4-0.6-2.2c-0.2-2.8,1-6.2,3.3-7.2c0.5-0.2,1-0.3,1.5-0.4
				C172,416,172.1,416,172.3,416z"/>
			<path class="st55" d="M178.8,453.8c-2.7,3.6-4.7,6.4-5.1,7.1v0.2c-0.1,0-0.2,0-0.2,0l-0.2,0.5c2.2,8.4,0.5,16.4,0.9,24.4h-0.3
				c-1,0-2,0-3,0c-0.1,0-0.2,0-0.3,0s-0.3,0-0.4-0.1c-0.2-0.1-0.2-0.3-0.2-0.5c0.4-9.5,0.7-19.1,0-28.6c0.3,0,0.5,0,0.8,0
				c1,0,2-0.1,3-0.4c1.7-0.6,3-2.2,4.8-2.6H178.8z"/>
		</g>
	</g>
</g>
<g id="symbols">
	<g id="wrench">
		<g>
			<g id="XMLID_6_">
				<g>
					<path class="st56" d="M303,197.9L303,197.9L303,197.9c0.1,0.3,0.1,0.6,0.1,0.9c0.1,0.6,0.2,1.3,0.3,2l0,0
						c0.2,2.3-0.2,4.9-1.1,7.4c-0.4,1.1-1,2.1-1.6,2.8c-0.9,1-2,1.7-3.4,2.3c-1.2,0.6-2,0.9-2.2,2.1c-0.3,1.4-0.4,2.9-0.5,4.4
						c0,0.5,0,0.9-0.1,1.4c-0.4,4-0.7,7.8-0.9,11.6c0,0.6-0.1,1.2-0.2,1.8c-0.1,0.7-0.2,1.5-0.2,2.3c0,1-0.1,2-1.1,2.6
						c-0.2,0.1-0.4,0.2-0.6,0.3c-0.4,0.1-0.9,0.2-1.4,0.2h-0.4c-1.6,0-3.3,0-4.8-1.2c-1-0.9-0.8-2.5-0.7-3.8c0-0.2,0.1-0.5,0.1-0.7
						c0.1-2.4,0.2-4.2,0.4-5.9c0.2-2.8,0.6-5.6,0.9-8c0.1-0.7,0.2-1.4,0.2-2.1c0.1-0.7,0.2-1.4,0.2-2.1c0-0.1,0-0.3,0.1-0.4
						c0.1-0.8,0.2-1.8-0.2-2.3c-0.2-0.2-0.4-0.3-0.7-0.5c-0.1-0.1-0.2-0.1-0.3-0.2c-3.1-1.8-4.9-4.1-5.5-7c-0.7-2.9-0.4-5.9,0.7-8.3
						c1.2-2.6,4-5.3,7.5-5.1c0.5,0,1,0.2,1.3,0.5c0.3,0.4,0.3,0.9,0.3,1.4c-0.1,1.4-0.3,2.7-0.5,4c-0.2,1.1-0.3,2.3-0.4,3.4
						c0,0.1,0,0.2,0,0.3s0,0.2,0,0.3c0.3,1.1,1.8,1.5,4.5,1.3c0.4-0.1,0.7-0.1,1-0.3c0.2-0.2,0.3-0.5,0.3-0.9
						c0.2-1.6,0.4-3.1,0.5-4.6c0.1-0.8,0.2-1.6,0.2-2.3c0-0.1,0-0.3,0-0.4c0-0.5,0-1.2,0.4-1.6c0.4-0.4,1-0.6,1.7-0.5
						c1.8,0.2,4,1.9,4.8,2.9C302.2,196.1,302.6,196.8,303,197.9z M302.6,198.9c-0.1-0.3-0.1-0.6-0.1-0.8c-0.4-1-0.8-1.7-1.2-2.3
						c-0.6-0.8-2.7-2.5-4.3-2.6c-0.5,0-1,0.1-1.3,0.4c-0.2,0.2-0.2,0.7-0.2,1.1c0,0.2,0,0.3,0,0.4c0,0.7-0.1,1.5-0.2,2.3
						c-0.1,1.5-0.3,3-0.5,4.6c-0.1,0.4-0.2,0.9-0.5,1.3c-0.4,0.3-0.9,0.4-1.3,0.5c-1.2,0.1-4.6,0.4-5.2-1.7c-0.1-0.2,0-0.4,0-0.5
						s0-0.1,0-0.2c0.1-1.2,0.3-2.4,0.4-3.5c0.2-1.3,0.4-2.6,0.4-4c0-0.4,0-0.8-0.2-1s-0.5-0.3-0.8-0.3c-0.7,0-1.4,0-2.1,0.2
						c-2.3,0.7-4,2.6-4.9,4.5c-1,2.3-1.3,5.2-0.6,7.9c0.6,2.7,2.3,4.9,5.2,6.6c0.1,0.1,0.2,0.1,0.3,0.2c0.3,0.2,0.5,0.3,0.8,0.6
						c0.7,0.8,0.5,1.9,0.4,2.8c0,0.1,0,0.3-0.1,0.4c-0.1,0.7-0.1,1.4-0.2,2.1c-0.1,0.7-0.2,1.4-0.2,2.1c-0.3,2.4-0.7,5.2-0.9,8
						c-0.1,1.7-0.3,3.5-0.4,5.9c0,0.2,0,0.5-0.1,0.7c-0.1,1.1-0.3,2.6,0.5,3.2c1.2,1,2.8,1.1,4.4,1.1h0.4c0.6,0,1.2,0,1.7-0.3
						c0.8-0.4,0.8-1.1,0.8-2c0-0.8,0.1-1.6,0.2-2.4c0.1-0.6,0.2-1.2,0.2-1.8c0.3-3.8,0.6-7.5,0.9-11.6c0-0.4,0.1-0.9,0.1-1.3
						c0.1-1.5,0.2-3,0.5-4.5c0.3-1.4,1.3-1.9,2.6-2.5c1.3-0.5,2.4-1.3,3.2-2.2c0.6-0.7,1.1-1.6,1.5-2.6c0.9-2.4,1.3-4.9,1.1-7.1
						C302.8,200.2,302.7,199.5,302.6,198.9z"/>
					<path class="st57" d="M302.4,198.1c0,0.3,0.1,0.5,0.1,0.8c0.1,0.6,0.2,1.3,0.3,1.9c0.2,2.2-0.2,4.7-1.1,7.1
						c-0.4,1-0.9,1.9-1.5,2.6c-0.8,0.9-1.9,1.6-3.2,2.2c-1.2,0.6-2.2,1-2.6,2.5c-0.3,1.4-0.4,3-0.5,4.5c0,0.5,0,0.9-0.1,1.3
						c-0.4,4-0.7,7.8-0.9,11.6c0,0.6-0.1,1.2-0.2,1.8c-0.1,0.8-0.2,1.5-0.2,2.4s0,1.6-0.8,2c-0.4,0.3-1.1,0.3-1.7,0.3h-0.4
						c-1.6,0-3.1,0-4.4-1.1c-0.8-0.7-0.6-2.1-0.5-3.2c0-0.3,0.1-0.5,0.1-0.7c0.1-2.4,0.2-4.2,0.4-5.9c0.2-2.8,0.6-5.6,0.9-8
						c0.1-0.7,0.2-1.4,0.2-2.1c0.1-0.7,0.2-1.4,0.2-2.1c0-0.1,0-0.3,0.1-0.4c0.1-0.9,0.3-2.1-0.4-2.8c-0.2-0.2-0.5-0.4-0.8-0.6
						c-0.1-0.1-0.2-0.1-0.3-0.2c-2.9-1.7-4.6-3.9-5.2-6.6c-0.6-2.7-0.4-5.6,0.6-7.9c0.8-1.9,2.6-3.8,4.9-4.5
						c0.7-0.2,1.3-0.3,2.1-0.2c0.4,0,0.7,0.1,0.8,0.3c0.2,0.2,0.2,0.6,0.2,1c-0.1,1.3-0.3,2.7-0.4,4c-0.2,1.1-0.3,2.3-0.4,3.5
						c0,0.1,0,0.2,0,0.2c0,0.2,0,0.3,0,0.5c0.6,2.1,4,1.8,5.2,1.7c0.4-0.1,0.9-0.1,1.3-0.5s0.4-0.8,0.5-1.3c0.3-1.6,0.4-3.2,0.5-4.6
						c0.1-0.8,0.2-1.6,0.2-2.3c0-0.1,0-0.3,0-0.4c0-0.4,0-0.9,0.2-1.1c0.3-0.3,0.7-0.4,1.3-0.4c1.6,0.1,3.7,1.8,4.3,2.6
						C301.7,196.4,302.1,197.1,302.4,198.1z M291,233.7c0-0.8-0.3-1.4-0.9-1.8c-0.7-0.4-1.7-0.4-2.5,0.1c-0.6,0.4-0.9,1.1-0.9,1.8
						c0.1,1.2,1.2,1.8,2.2,1.8c0.2,0,0.5,0,0.7-0.1c0.6-0.2,1.2-0.7,1.3-1.5C291,234,291,233.9,291,233.7z"/>
				</g>
			</g>
		</g>
	</g>
	<g id="flask">
		<g id="XMLID_4_">
			<g>
				<path class="st58" d="M298.8,129.9c1.2,6.4-11.8,7.7-15.9,7.7c-3.5,0-7.1-0.5-10.4-1.8c-2.2-0.9-5.1-2.7-6-5.1
					c-1.1-2.9,2.3-7.5,3.6-9.8c0.4-0.7,1.3-2.1,2.2-3.7c0,0.1-0.1,0.2-0.1,0.3c0,1.7,4.6,3,10.2,3s10.2-1.4,10.2-3
					c0-0.2-0.1-0.4-0.2-0.6l0.1-0.1l1.7,2.8C294.3,119.8,298.2,126.8,298.8,129.9z"/>
				<path class="st59" d="M287.9,109.2l4.7,7.8l-0.1,0.1c-1-1.4-5.1-2.4-10-2.4c-4.8,0-8.8,1-9.9,2.3c1.8-3,3.9-6.6,3.9-7.1
					c0.1-2.2,0.1-4.4,0.1-6.6c0.1-3.3,0.6-6.3-2.4-8.6c-0.8-0.6-1.4-1.1-1.1-2.3c0.3-1.3,5.6-1.1,6.6-1.1c3.1-0.1,6.3,0,9.4,0.2
					c0.4,0,0.8,0,1.2,0.2c1,0.4,1.1,1.5,0.5,2.3c-0.3,0.4-0.7,0.7-1.1,1c-0.5,0.4-0.8,0.8-1.1,1.3c-0.9,1.5-0.9,3.3-0.9,5.1
					C287.7,104.3,287.9,106.2,287.9,109.2z"/>
				<path class="st60" d="M292.5,117.1c0.1,0.2,0.2,0.4,0.2,0.6c0,1.7-4.6,3-10.2,3s-10.2-1.4-10.2-3c0-0.1,0-0.2,0.1-0.3
					c0.1-0.1,0.2-0.3,0.2-0.4l0,0c1.1-1.3,5.1-2.3,9.9-2.3C287.4,114.7,291.5,115.7,292.5,117.1z"/>
				<path class="st61" d="M272.6,117c-0.1,0.1-0.2,0.3-0.2,0.4C272.4,117.2,272.5,117.1,272.6,117z"/>
			</g>
		</g>
		<g id="bubbles">
			<circle class="st62" cx="282.8" cy="105.8" r="1.7"/>
			<circle class="st62" cx="276.8" cy="83.2" r="1.7"/>
			<circle class="st62" cx="287.8" cy="76.3" r="2.7"/>
			<circle class="st62" cx="281.8" cy="97.5" r="1"/>
			<circle class="st62" cx="279.2" cy="128.6" r="1.7"/>
			<circle class="st62" cx="286.5" cy="133.9" r="1"/>
		</g>
	</g>
	<g id="gear">
		<g id="circle_2_">
			<g id="XMLID_5_">
				<g>
					<path class="st63" d="M131.5,166.8c-1.1-1.9-2.7-2.1-4.9-2.4h-0.2h-0.2c-2.5-0.4-4-0.6-6.2,1.8c-0.2,0.2-0.4,0.4-0.6,0.7
						c-0.5,0.5-0.9,1.1-1.3,1.1c-0.2,0-0.9,0-2.7-1.5c-0.9-0.8-1.3-1.4-1.5-1.7c-0.4-0.7-0.3-0.9,0.6-2c0.2-0.2,0.3-0.3,0.4-0.5
						c1.4-1.7,1.8-3,0.5-6.7c-0.3-1.1-0.7-1.9-1.1-2.5c-1.1-1.9-2.4-2.4-4-2.5c-0.1,0-0.2,0-0.3,0c-0.9,0-1.5-0.2-1.8-0.7
						s-0.3-1.5-0.2-2.8c0.4-2.2,1-2.8,1.2-2.9c0.4-0.2,1.1-0.2,1.8,0.1h0.2c0.3,0.1,0.5,0.1,0.8,0.1c2.2,0.3,4-0.7,5.8-3.2
						c2.2-2.9,1.9-4.6,1.4-6.1c-0.1-0.1-0.1-0.2-0.1-0.3c-0.1-0.2-0.1-0.4-0.2-0.6c-0.3-0.7-0.5-1.3-0.3-1.8s1-1,2.1-1.4
						c3-1.1,3.4-0.4,3.7,0.2c0.2,0.3,0.3,0.6,0.5,1l0.1,0.3c0.1,0.4,0.4,0.8,0.6,1.2c1.1,2,2.6,2.5,5.1,2.9c3,0.5,5.3,0.9,7.1-2.1
						c0.2-0.3,0.5-0.6,0.7-0.9c0.2-0.3,0.5-0.4,0.7-0.5s0.9,0,2.3,1c1.2,0.8,1.8,1.5,2.2,2.2s0.5,1.2-0.7,2.4
						c-2.2,2.2-2.4,3.3-1.1,6.7c0.4,1,0.7,1.8,1,2.4c1.2,2.2,2.6,2.4,3.8,2.6c0.1,0,0.2,0.1,0.4,0.1s0.3,0,0.4,0.1
						c0.9,0.2,1.7,0.3,2,0.8c0.2,0.3,0.4,1-0.1,2.7c-0.5,2.2-1.2,2.8-1.6,3c-0.4,0.2-1,0.1-1.6-0.1c-2.9-1-5,0.8-6.8,2.8
						c-2.5,2.8-2.2,4.6-1.7,6l0.1,0.1c0.1,0.4,0.3,0.8,0.5,1.2c0.2,0.5,0.5,1.1,0.4,1.3c0,0.1-0.3,0.6-2.1,1.3
						c-3.2,1.3-3.6,0.5-3.9,0.1c-0.2-0.3-0.4-0.8-0.6-1.3C131.9,167.7,131.7,167.2,131.5,166.8z M131.4,155.6c2.8-1.6,3.8-5.2,2.2-8
						s-5.2-3.8-8-2.2s-3.8,5.2-2.2,8C125,156.2,128.6,157.2,131.4,155.6z"/>
					<path class="st64" d="M113.7,161.3c0.9-1.2,1.4-1.8,0.2-5.1c-0.4-1-0.7-1.7-1-2.3c-0.7-1.3-1.4-1.6-2.7-1.7
						c-0.5,0-2.5,0-3.4-1.6c-0.5-0.8-0.7-2-0.3-3.9c1-5.6,3.9-4.5,5.3-4.1c1.3,0.3,2.8,0.3,4.8-2.4s1.4-3.7,1-5
						c-0.4-1.2-2.2-4.1,2.6-5.9c3.7-1.4,5-0.4,5.8,1c0.2,0.4,0.5,1,0.7,1.4c0.1,0.4,0.3,0.7,0.5,1c0.7,1.2,1.5,1.7,3.9,2
						c3.1,0.5,4.2,0.6,5.4-1.4c1.1-1.6,2.4-3.6,6.1-0.7c1.2,1,1.9,1.9,2.4,2.6c1.1,1.9,0.2,3.2-0.8,4.2c-1.6,1.6-1.9,1.9-0.7,4.9
						c0.3,1,0.7,1.6,1,2.2c1,1.7,1.8,1.6,3,1.9c1,0.2,2.7,0.3,3.5,1.7c0.5,0.8,0.6,2.1,0.1,4c-1.3,5.2-3.9,4.5-5.4,4s-2.8-0.1-5,2.3
						c-2.2,2.4-1.6,3.5-1.3,4.5c0.5,1.8,2.8,3.9-2.2,5.9c-3.8,1.5-5.1,0.8-5.9-0.6c-0.2-0.4-0.5-1-0.7-1.6c-0.1-0.5-0.3-0.9-0.5-1.2
						c-0.7-1.2-1.7-1.2-4-1.6c-2.4-0.4-3.1-0.6-4.9,1.3c-1.7,1.8-2.6,4-6.9,0.4c-1-0.8-1.6-1.5-1.9-2.2
						C111.3,163.4,112.9,162.2,113.7,161.3z M107.9,146.9c-0.2,1.3-0.1,2.3,0.2,2.8c0.3,0.5,0.9,0.7,1.8,0.7c0.1,0,0.2,0,0.3,0
						c1.7,0.1,3,0.6,4,2.5c0.4,0.6,0.7,1.4,1.1,2.5c1.3,3.7,0.9,5-0.5,6.7c-0.1,0.2-0.3,0.3-0.4,0.5c-0.9,1-1,1.3-0.6,2
						c0.2,0.3,0.6,0.9,1.5,1.7c1.8,1.5,2.6,1.6,2.7,1.5c0.4,0,0.8-0.6,1.3-1.1c0.2-0.2,0.4-0.4,0.6-0.7c2.2-2.4,3.7-2.3,6.2-1.8h0.2
						h0.2c2.3,0.3,3.9,0.5,4.9,2.4c0.2,0.4,0.4,0.9,0.6,1.6c0.2,0.5,0.4,1,0.6,1.3c0.3,0.5,0.7,1.2,3.9-0.1c1.8-0.7,2.1-1.2,2.1-1.3
						c0.1-0.3-0.2-0.8-0.4-1.3c-0.2-0.4-0.4-0.8-0.5-1.2l-0.1-0.1c-0.5-1.5-0.8-3.2,1.7-6c1.7-1.9,3.9-3.8,6.8-2.8
						c0.6,0.2,1.2,0.3,1.6,0.1c0.4-0.2,1.1-0.9,1.6-3c0.4-1.7,0.2-2.4,0.1-2.7c-0.3-0.5-1.1-0.6-2-0.8c-0.2,0-0.3,0-0.4-0.1
						c-0.1,0-0.2-0.1-0.4-0.1c-1.1-0.2-2.6-0.4-3.8-2.6c-0.4-0.6-0.7-1.4-1-2.4c-1.3-3.4-1.1-4.5,1.1-6.7c1.1-1.2,1.1-1.6,0.7-2.4
						c-0.4-0.6-1-1.4-2.2-2.2c-1.4-1-2-1.1-2.3-1c-0.2,0-0.5,0.2-0.7,0.5c-0.2,0.2-0.5,0.6-0.7,0.9c-1.8,3-4.1,2.6-7.1,2.1
						c-2.6-0.4-4-0.9-5.1-2.9c-0.2-0.4-0.4-0.8-0.6-1.2l-0.1-0.3c-0.2-0.3-0.3-0.7-0.5-1c-0.3-0.6-0.7-1.3-3.7-0.2
						c-1.1,0.4-1.9,0.9-2.1,1.4c-0.2,0.4,0,1,0.3,1.8c0.1,0.2,0.1,0.4,0.2,0.6c0,0,0,0.2,0.1,0.3c0.5,1.6,0.9,3.2-1.4,6.1
						c-1.8,2.5-3.6,3.5-5.8,3.2c-0.3,0-0.5-0.1-0.8-0.1h-0.2c-0.7-0.2-1.3-0.3-1.8-0.1C108.9,144.1,108.3,144.8,107.9,146.9z"/>
				</g>
			</g>
		</g>
	</g>
	<g id="terminal">
		<path class="st65" d="M-360.8,367.7"/>
		<g id="Layer_18">
		</g>
		<g id="XMLID_1_">
			<g>
				<path class="st66" d="M147.6,241.7v20.4c0,1.9-1.6,3.5-3.5,3.5h-38.8c-1.9,0-3.5-1.6-3.5-3.5v-20.4c15,0,30.2,0,45.2,0
					L147.6,241.7L147.6,241.7z"/>
				<path class="st67" d="M147.6,236.8v4.9H147c-15,0-30.2,0-45.2,0v-4.9c0-1.9,1.6-3.5,3.5-3.5h38.8
					C146,233.3,147.6,234.9,147.6,236.8z"/>
			</g>
		</g>
		<g id="Layer_23">
			<g>
				<g>
					<g>
						<path class="st68" d="M128.3,254.4c0.1-2,0-5.6-2.6-6.1c-2.7-0.5-3.3,3.1-3.4,5.1s0,6.5,3.1,6.3
							C127.8,259.5,128.1,256.1,128.3,254.4c0.1-0.7-1.1-0.7-1.2,0c-0.1,0.8-0.2,2.4-0.7,3.1c-2,2.8-2.9-1.1-3-1.9
							c-0.1-0.7,0-1.4,0-2.1c0-1.2,0.9-6,3.1-3c0.8,1.1,0.7,2.7,0.6,4C127.1,255.1,128.3,255.1,128.3,254.4z"/>
					</g>
				</g>
				<g>
					<g>
						<path class="st68" d="M126.8,250.4c-1.3,1.7-2.7,3.4-4.1,5c-0.5,0.6,0.3,1.4,0.8,0.8c1.4-1.7,2.7-3.3,4.1-5
							C128.1,250.7,127.3,249.8,126.8,250.4L126.8,250.4z"/>
					</g>
				</g>
			</g>
			<g>
				<g>
					<g>
						<path class="st68" d="M117.9,248.8c0,3.3,0,6.7,0,10c0,0.7,1.2,0.7,1.2,0c0-3.3,0-6.7,0-10
							C119.1,248.1,117.9,248.1,117.9,248.8L117.9,248.8z"/>
					</g>
				</g>
				<g>
					<g>
						<path class="st68" d="M117.9,248.5c-0.4,0.5-0.7,1.1-1,1.7c-0.3,0.7,0.7,1.2,1,0.6c0.3-0.6,0.6-1.1,1-1.7
							C119.3,248.4,118.3,247.9,117.9,248.5L117.9,248.5z"/>
					</g>
				</g>
				<g>
					<g>
						<path class="st68" d="M117.1,259.4c1,0,2,0,3.1,0c0.7,0,0.7-1.2,0-1.2c-1,0-2,0-3.1,0C116.3,258.3,116.3,259.4,117.1,259.4
							L117.1,259.4z"/>
					</g>
				</g>
			</g>
			<g>
				<g>
					<g>
						<path class="st68" d="M131.7,248.8c0,3.3,0,6.7,0,10c0,0.7,1.2,0.7,1.2,0c0-3.3,0-6.7,0-10
							C132.8,248.1,131.7,248.1,131.7,248.8L131.7,248.8z"/>
					</g>
				</g>
				<g>
					<g>
						<path class="st68" d="M131.6,248.5c-0.4,0.5-0.7,1.1-1,1.7c-0.3,0.7,0.7,1.2,1,0.6c0.3-0.6,0.6-1.1,1-1.7
							C133.1,248.4,132.1,247.9,131.6,248.5L131.6,248.5z"/>
					</g>
				</g>
				<g>
					<g>
						<path class="st68" d="M130.8,259.4c1,0,2,0,3.1,0c0.7,0,0.7-1.2,0-1.2c-1,0-2,0-3.1,0C130.1,258.3,130.1,259.4,130.8,259.4
							L130.8,259.4z"/>
					</g>
				</g>
			</g>
			<g>
				<g>
					<g>
						<path class="st68" d="M142.1,254.4c0.1-2,0-5.6-2.6-6.1c-2.7-0.5-3.3,3.1-3.4,5.1c-0.1,2,0,6.5,3.1,6.3
							C141.5,259.5,141.9,256.1,142.1,254.4c0.1-0.7-1.1-0.7-1.2,0c-0.1,0.8-0.2,2.4-0.7,3.1c-2,2.8-2.9-1.1-3-1.9
							c-0.1-0.7,0-1.4,0-2.1c0-1.2,0.9-6,3.1-3c0.8,1.1,0.7,2.7,0.6,4C140.9,255.1,142,255.1,142.1,254.4z"/>
					</g>
				</g>
				<g>
					<g>
						<path class="st68" d="M140.6,250.4c-1.3,1.7-2.7,3.4-4.1,5c-0.5,0.6,0.3,1.4,0.8,0.8c1.4-1.7,2.7-3.3,4.1-5
							C141.9,250.7,141.1,249.8,140.6,250.4L140.6,250.4z"/>
					</g>
				</g>
			</g>
			<g id="zero-0">
				<g>
					<g>
						<path class="st68" d="M114,254.4c0.1-2,0-5.6-2.6-6.1c-2.7-0.5-3.3,3.1-3.4,5.1s0,6.5,3.1,6.3
							C113.5,259.5,113.8,256.1,114,254.4c0.1-0.7-1.1-0.7-1.2,0c-0.1,0.8-0.2,2.4-0.7,3.1c-2,2.8-2.9-1.1-3-1.9
							c-0.1-0.7,0-1.4,0-2.1c0-1.2,0.9-6,3.1-3c0.8,1.1,0.7,2.7,0.6,4C112.8,255.1,114,255.1,114,254.4z"/>
					</g>
				</g>
				<g>
					<g>
						<path class="st68" d="M112.5,250.4c-1.3,1.7-2.7,3.4-4.1,5c-0.5,0.6,0.3,1.4,0.8,0.8c1.4-1.7,2.7-3.3,4.1-5
							C113.8,250.7,113,249.8,112.5,250.4L112.5,250.4z"/>
					</g>
				</g>
			</g>
		</g>
		<g id="buttons_2_">
			<g id="red_2_">
				<path class="st39" d="M108,238.1"/>
				<g>
					<path class="st69" d="M108,239.8c2.3,0,2.3-3.5,0-3.5S105.7,239.8,108,239.8L108,239.8z"/>
				</g>
			</g>
			<g id="yellow_2_">
				<g>
					<path class="st70" d="M112.5,239.8c2.3,0,2.3-3.5,0-3.5S110.2,239.8,112.5,239.8L112.5,239.8z"/>
				</g>
			</g>
			<g id="green_2_">
				<g>
					<path class="st71" d="M117,239.8c2.3,0,2.3-3.5,0-3.5C114.8,236.3,114.8,239.8,117,239.8L117,239.8z"/>
				</g>
			</g>
		</g>
	</g>
</g>
</svg>
