<?xml version="1.0" encoding="utf-8"?>
<!-- Generator: Adobe Illustrator 22.1.0, SVG Export Plug-In . SVG Version: 6.00 Build 0)  -->
<svg version="1.1" xmlns="http://www.w3.org/2000/svg" xmlns:xlink="http://www.w3.org/1999/xlink" x="0px" y="0px"
	 viewBox="0 0 316 388" style="enable-background:new 0 0 316 388;" xml:space="preserve">
<style type="text/css">
	.st0{fill:#00609E;}
	.st1{fill:#26661E;}
	.st2{fill:#52A63A;}
	.st3{fill:#59B33F;}
	.st4{fill:#388D25;}
	.st5{fill:#2C7523;}
	.st6{fill:#4FA183;}
	.st7{fill:#21B56F;}
	.st8{fill:#3CB085;}
	.st9{fill:#56C993;}
	.st10{fill:#52BFA0;}
	.st11{fill:#86DBBD;}
	.st12{fill:#1E8A58;}
	.st13{fill:#1DA163;}
	.st14{fill:#429C72;}
	.st15{fill:#C47855;}
	.st16{fill:#4F4143;}
	.st17{fill:#3F9C61;}
	.st18{fill:#337E4F;}
	.st19{fill:#388A56;}
	.st20{fill:#299951;}
	.st21{fill:#238245;}
	.st22{fill:#5BA150;}
	.st23{fill:#338728;}
	.st24{fill:#95D96F;}
	.st25{fill:#7CBF58;}
	.st26{fill:#327D21;}
	.st27{fill:#76CA45;}
	.st28{fill:#6CC24E;}
	.st29{fill:#328626;}
	.st30{fill:#8AD561;}
	.st31{fill:#66B74A;}
	.st32{fill:#2E7A23;}
	.st33{fill:#338727;}
	.st34{fill:url(#Bg_2_);}
	.st35{fill:#FFFFFF;}
</style>
<g id="Layer_2">
	<path id="Bg" class="st0" d="M38,0.5h240c21,0,38,17,38,38v311c0,21-17,38-38,38H38c-21,0-38-17-38-38v-311C0,17.5,17,0.5,38,0.5z"
		/>
</g>
<g id="Layer_1">
	<g>
		<g>
			<g id="XMLID_5_">
				<g>
					<path class="st1" d="M137.9,117.9c0.8-0.4,1.7-0.9,2.6-1.3c12.7-6.1,19.8-5.3,23.8-4.6c0,0-8.7,1.5-14.3,3.8
						c-5.2,2.1-18.5,11.6-20.2,12.7c0,0,0,0-0.1,0.1c-3.3,2-5.7,5.2-5.9,5.4c0.2-1.6,0.3-3.8-0.2-6.5c0,0,1.7-1.9,6.1-4.9
						C131.8,121.2,134.5,119.6,137.9,117.9z"/>
					<path class="st2" d="M129.8,128.6C129.8,128.6,129.9,128.6,129.8,128.6c0.9-0.6,1.9-1,2.8-1.3c4.8-1.5,11.9-3.8,19.8-2.3
						c7.7,1.5,12.4,6.5,12.7,6.9c-0.5-0.3-8.1-4.6-13.4-4.6c-5.5,0-11.1,0.8-15.1,3.1c-0.5,0.3-1.1,0.7-1.5,1.1c0,0,0,0,0,0
						c-2.6,2.1-4.3,4.9-4.7,5.6c-0.1,0.1-0.1,0.2-0.1,0.2h-7.1l0,0c0.1-0.2,0.5-1.3,0.7-3.1c0,0,0,0,0,0
						C124.1,133.7,126.5,130.6,129.8,128.6z"/>
					<path class="st3" d="M157.2,84.5c-0.3,0.4-5.7,7.1-9.5,13.7c-4,6.9-9.2,15.6-9.8,19.6c-3.4,1.8-6.1,3.4-8.2,4.8
						c0,0,0.8-3.2,1.9-8.3h0c0,0,6.5-10,9.7-13.8C144.5,96.7,154,86.8,157.2,84.5z"/>
					<path class="st1" d="M143.3,132.6c8.1,0.3,11.4,8.9,11.6,9.4c-0.2-0.4-3-6.1-9.1-7c-6.3-1-8.4,0-9.5,2h-5
						C131.3,137,134.9,132.3,143.3,132.6z"/>
					<path class="st4" d="M125.6,112.1c1.3-5.8,2.7-12,3.1-14.6c0.8-5.1,7.4-37.7,5.8-43c0.7,1.7,2.8,8.2,2.1,24.7
						c-0.5,12.5-3.1,26.5-4.9,35.2c-1.1,5.1-1.9,8.3-1.9,8.3c-4.4,3-6.1,4.9-6.1,4.9c-0.2-1.1-0.5-2.3-0.9-3.6
						C122.8,123.6,124.2,118.1,125.6,112.1z"/>
					<path class="st5" d="M143.3,132.6c-8.4-0.3-12,4.4-12,4.4h-0.9l0,0c0.4-0.7,2.1-3.5,4.7-5.6c0,0,0,0,0,0
						c0.4-0.2,5.7-2.7,11.1-0.1c5.6,2.7,8.4,7.4,8.8,10.8c0,0,0,0,0,0C154.7,141.5,151.5,132.9,143.3,132.6z"/>
					<path class="st3" d="M122.8,123.9c0.4,1.3,0.7,2.5,0.9,3.6c0.5,2.7,0.4,4.8,0.2,6.5c0,0,0,0,0,0l-0.7,3.1l0,0h-3.4
						c2.2-11.7-4.2-20.9-11.6-27.4c-0.6-1.8-1.3-3.5-2-5.2c2,1.1,3.9,2.3,5.7,3.7c2.5,1.9,4.7,4.2,6.5,6.8c1.1,1.6,1.9,3.1,2.6,4.5
						c0,0,0,0,0,0C121.8,121.1,122.3,122.6,122.8,123.9z"/>
					<path class="st2" d="M123.1,137.1l0.7-3.1C123.6,135.9,123.2,137,123.1,137.1z"/>
					<path class="st4" d="M108.1,109.7c7.5,6.5,13.9,15.7,11.6,27.4h-2.3c0,0-0.9-1.1-2.4-2.7c0.3-0.6,0.5-1.4,0.7-2.3
						c0.5-2.5,0.2-6.1-2.1-11.1c-1-2.1-2.3-4.2-3.9-6.2C109.2,113.2,108.7,111.4,108.1,109.7z"/>
					<path class="st2" d="M117.4,137.2h-4.6c0,0,1.3-0.8,2.2-2.7C116.5,136,117.4,137.2,117.4,137.2z"/>
					<path class="st3" d="M111.4,125.2c3.3,3.8,4.3,7,4.3,7h0c-0.2,0.9-0.4,1.6-0.7,2.3c-2.5-2.6-6.5-6.5-10.4-8.5
						c-3.5-7.4-15.5-13.2-15.5-13.2c8.1,0.6,13.3,4.1,17.5,7.8c1.1,1,2.1,2,3.1,2.9C110.3,124,110.9,124.7,111.4,125.2z"/>
					<path class="st5" d="M115.7,132.2c0,0-1-3.2-4.3-7c-0.3-3.6-0.9-7-1.7-10.3c1.6,2,3,4.1,3.9,6.2
						C115.9,126.1,116.2,129.7,115.7,132.2L115.7,132.2z"/>
					<path class="st2" d="M108.9,60.9c0,0,5.6,20.6,8.7,29c3.1,8.3,7.8,21.8,8,22.2c-1.4,6-2.7,11.5-2.8,11.8
						c-0.4-1.4-1-2.8-1.7-4.3c0,0,0,0,0,0c-0.3-1-5.1-17.1-7.4-28.2C111.2,79.9,108.9,63.9,108.9,60.9z"/>
					<path class="st1" d="M109.7,115c0.8,3.3,1.4,6.7,1.7,10.3c-0.5-0.6-1.1-1.2-1.7-1.8c-1-1-2-1.9-3.1-2.9l0,0c0,0,0-4-2.4-11.3
						C106.1,111,108,112.9,109.7,115z"/>
					<path class="st4" d="M108.1,109.7c0.6,1.7,1.1,3.4,1.5,5.2c-1.6-2-3.5-4-5.5-5.8c-0.3-1.1-0.7-2.2-1.2-3.5
						C104.7,106.9,106.4,108.3,108.1,109.7z"/>
					<path class="st3" d="M106.1,104.5c0.7,1.7,1.4,3.4,2,5.2c-1.7-1.5-3.4-2.8-5.2-4c-0.4-1.1-0.9-2.3-1.4-3.5
						C103.1,102.9,104.6,103.7,106.1,104.5z"/>
					<path class="st3" d="M103,105.7c-6.5-4.5-12.5-7-13.7-7.4c1.1,0.2,6.3,1.4,12.3,4C102.1,103.5,102.5,104.6,103,105.7z"/>
					<path class="st4" d="M89.3,98.3c1.2,0.5,7.2,3,13.7,7.4c0.5,1.2,0.9,2.4,1.2,3.5C97,102.7,89,98.3,89,98.3S89.1,98.3,89.3,98.3
						C89.2,98.3,89.2,98.3,89.3,98.3z"/>
					<path class="st1" d="M90.2,79.8c2.1,2.2,10.3,11.4,15.9,24.7c-1.5-0.8-3.1-1.6-4.6-2.2c-0.4-1-0.9-2.1-1.4-3.3
						C95,87.9,91.4,81.8,90.2,79.8z"/>
					<path class="st5" d="M89.8,79.2c0.5,0.5,18,15.6,22,29c-1.8-1.4-3.8-2.7-5.7-3.7C100.5,91.2,92.3,82,90.2,79.8c0,0,0,0,0,0
						C90,79.5,89.9,79.2,89.8,79.2z"/>
					<path class="st1" d="M84.3,134.9c1.6-3.1,4-5.3,9.5-6.1c5.3-0.7,11,2.2,11.4,2.4c0,0,0,0,0,0l0,0l3.4,3.6h-4.6
						c-4-3.1-5.5-3.8-11.1-3.1C87.6,132.6,84.5,134.7,84.3,134.9z"/>
					<path class="st2" d="M104.6,126c3.9,2,7.9,5.9,10.4,8.5c-0.9,1.9-2.2,2.7-2.2,2.7c-17.3-21.6-39.5-18.8-41.8-18.4
						c0.8-0.3,4.1-1.3,10.9-0.7c7.9,0.8,15.8,4.6,22.2,7.6C104.3,125.8,104.4,125.9,104.6,126z"/>
					<path class="st4" d="M85.9,121.1c-6.3-2.3-15.1-2.3-15.1-2.3s0.1,0,0.2-0.1c2.3-0.4,24.5-3.2,41.8,18.4h-2.4c0,0-0.7-1-1.8-2.3
						c-0.9-1.1-2.1-2.4-3.4-3.6l0,0c0,0,0,0,0,0c-0.6-0.6-1.2-1.1-1.9-1.6C99.3,126.5,92.2,123.4,85.9,121.1z"/>
				</g>
				<g>
				</g>
			</g>
		</g>
		<g>
			<g id="XMLID_3_">
				<g>
					<path class="st6" d="M229.4,50.5c-1.7,3-6.9,12.2-14.3,28.9c-0.8,1.7-1.4,3.3-2.1,4.9c-2.2,1-4.4,2.1-6.6,3.4
						C214.5,67.8,226.3,53.9,229.4,50.5z"/>
					<path class="st7" d="M209.3,119.8c9.2-4.6,20.7-10.4,32.3-11.5c9.8-1,14.6,0.5,15.8,1c-3.3-0.5-35.6-4.8-60.8,27.8
						c0,0-1.8-1.2-3.2-4.1c3.6-4,9.5-9.8,15.1-12.8C208.8,120,209,119.9,209.3,119.8z"/>
					<path class="st8" d="M231.2,100.2c0,0-17.5,8.8-22.6,19.9c-5.6,3-11.5,8.9-15.1,12.8c-0.4-0.9-0.8-2.1-1-3.4
						c0,0,1.4-4.7,6.3-10.5c0.8-0.9,1.6-1.8,2.5-2.8c1.4-1.4,2.9-2.9,4.5-4.4c0,0,0,0,0,0C211.8,106.3,219.3,101.1,231.2,100.2z"/>
					<path class="st9" d="M229.4,50.5c-3.1,3.4-14.9,17.2-23.1,37.2c-2.8,1.6-5.7,3.5-8.3,5.6c5.9-20.3,31.2-43.2,32-43.9
						C230,49.6,229.7,49.9,229.4,50.5z"/>
					<path class="st10" d="M211,89.6c9.5-6.8,18.4-10.6,19.9-11.2c0.1,0,0.2,0,0.2,0c-0.5,0.3-11.8,7-22,16.6
						C209.7,93.2,210.3,91.5,211,89.6z"/>
					<path class="st11" d="M213,84.4c8.8-4,16.5-5.7,17.9-6c-1.6,0.7-10.5,4.4-19.9,11.2C211.6,87.9,212.2,86.2,213,84.4z"/>
					<path class="st11" d="M213,84.4c-0.8,1.8-1.4,3.6-2,5.2c-2.5,1.8-5.1,3.8-7.5,6c0.9-2.7,1.9-5.4,2.9-7.9
						C208.6,86.5,210.8,85.3,213,84.4z"/>
					<path class="st10" d="M211,89.6c-0.7,1.9-1.3,3.6-1.8,5.3c-2.8,2.7-5.6,5.6-8,8.7c0.7-2.7,1.4-5.4,2.2-7.9
						C205.9,93.4,208.5,91.4,211,89.6z"/>
					<path class="st12" d="M207.6,128c0.5-0.3,8.8-4.8,16.6-3.6c8.1,1.2,11.5,4.6,13.8,9.2c-0.3-0.2-4.9-3.5-12.7-4.6
						c-8.1-1.2-10.4,0-16.1,4.6h-6.7L207.6,128L207.6,128C207.6,128,207.6,128,207.6,128z"/>
					<path class="st6" d="M209.2,94.9c-3.3,10.8-3.4,16.7-3.4,17.1c0,0,0,0,0,0c-1.6,1.5-3.1,3-4.5,4.4c-0.9,0.9-1.8,1.9-2.5,2.8
						c0.4-5.4,1.3-10.6,2.5-15.5C203.6,100.5,206.3,97.5,209.2,94.9z"/>
					<path class="st11" d="M180.8,122.5c0.3-1.7,0.7-3.5,1.3-5.4c0,0,0,0,0,0c0.6-2.1,1.5-4.2,2.5-6.5c0,0,0,0,0,0
						c1-2.2,2.3-4.5,3.9-6.9c2.6-4,5.9-7.4,9.5-10.3c2.7-2.1,5.5-4,8.3-5.6c-1,2.5-2,5.2-2.9,7.9c-10.9,9.8-20.2,23.7-16.9,41.4
						h-4.9l-1.1-4.8c0,0,0,0,0,0C180.2,129.8,180.2,126.5,180.8,122.5z"/>
					<path class="st13" d="M235.8,112.9c-9.2,3.5-19.6,8.1-25.4,12.7c-1,0.8-1.9,1.6-2.8,2.5c0,0,0,0,0,0l0,0c-2,1.9-3.7,3.9-5,5.5
						c-1.6,2-2.6,3.5-2.6,3.5h-3.5c25.2-32.6,57.5-28.3,60.8-27.8c0.2,0.1,0.3,0.1,0.3,0.1S245,109.4,235.8,112.9z"/>
					<path class="st10" d="M203.4,95.6c-0.8,2.6-1.6,5.2-2.2,7.9c-2.3,3-4.3,6.1-5.7,9.3c-3.3,7.5-3.7,12.9-3,16.7
						c0.2,1.3,0.6,2.5,1,3.4c-2.2,2.4-3.5,4.1-3.5,4.1h-3.4C183.3,119.3,192.5,105.4,203.4,95.6z"/>
					<path class="st7" d="M189.7,65.6c4.6-12.7,12.7-43.8,12.7-43.8c0,4.6-3.5,28.8-6.9,46.1c-3.4,17-10.5,41.8-10.8,42.6
						c0,0,0,0,0,0c-1.1,2.3-1.9,4.5-2.5,6.5c-0.1-0.4-2-8.7-4.1-17.8C178.1,99.2,185.1,78.3,189.7,65.6z"/>
					<path class="st9" d="M201.2,103.5c-1.2,5-2.1,10.2-2.5,15.5c-4.9,5.8-6.3,10.5-6.3,10.5c-0.7-3.8-0.3-9.2,3-16.7
						C196.9,109.7,198.9,106.5,201.2,103.5z"/>
					<path class="st7" d="M196.6,137.1h-6.7c0,0,1.4-1.7,3.5-4.1C194.8,135.9,196.6,137.1,196.6,137.1z"/>
					<path class="st8" d="M140.1,122.1c-8.1,0-19.6,6.9-19.6,6.9s6.9-8.1,18.4-10.4c9.4-1.9,18,0.1,24.6,2.1
						c1.5,0.5,2.9,0.9,4.2,1.4c1.4,0.5,2.8,1.2,4.1,2c0,0,0.1,0,0.1,0.1c4.8,3.1,8.3,7.8,8.6,8.1c0.4,3.1,1.1,4.8,1.1,4.8h-10.4
						c0,0,0-0.1-0.1-0.3c-0.6-1.1-3-5.4-6.8-8.5c-0.7-0.6-1.5-1.1-2.3-1.6C156.3,123.2,148.2,122.1,140.1,122.1z"/>
					<path class="st12" d="M180.8,122.5c-0.7,4-0.6,7.3-0.3,9.8c-0.2-0.3-3.8-5-8.6-8.1c0,0,0,0-0.1-0.1c-0.7-0.5-4.2-3.1-8.6-6.2
						c-0.5-3-1.4-6.3-2.7-9.7c4.7,2.5,8.4,4.9,11.4,6.9c2.2,1.5,3.9,2.8,5.2,3.9c0,0,0,0,0,0C179.6,121.1,180.7,122.4,180.8,122.5z"
						/>
					<path class="st10" d="M169.2,102.6c1.6,7.7,2.8,12.5,2.8,12.5c-2.9-2-6.7-4.4-11.4-6.9c-3.9-10.8-10.6-22.5-14.7-29.9
						c-5.6-10.1-13.3-20.1-13.8-20.7c4.6,3.5,18.4,18.4,23,24.2C159.7,87.4,168.9,102.1,169.2,102.6L169.2,102.6z"/>
					<path class="st10" d="M171.9,124.1c-1.3-0.8-2.7-1.5-4.1-2c-1.3-0.4-2.7-0.9-4.2-1.4l0-0.1c-0.1-0.9-0.2-1.8-0.3-2.7
						C167.7,121,171.2,123.6,171.9,124.1z"/>
					<path class="st8" d="M164.9,14.2c-0.9,11.9,7.7,55.7,8.7,63c0.5,3.9,2.6,13.3,4.5,22.1c2,9.1,4,17.5,4.1,17.8c0,0,0,0,0,0
						c-0.6,1.9-1,3.7-1.3,5.4c-0.1-0.1-1.2-1.4-3.6-3.4c0,0,0,0,0,0c-0.2-0.5-5.2-15.5-10.7-54.6C162.3,34.6,163.8,19.7,164.9,14.2z
						"/>
					<path class="st14" d="M164.9,14.2c-1,5.5-2.6,20.4,1.6,50.3c5.5,39.1,10.6,54.1,10.7,54.6c-1.3-1.1-3-2.4-5.2-3.9
						c0,0-1.2-4.9-2.8-12.5l0,0c-2.7-13.1-6.4-34.2-7.2-53.1c-1-25.2,2.1-34.9,3.1-37.4C165,12.6,164.9,13.3,164.9,14.2z"/>
					<path class="st10" d="M152.2,130.2c-11.8,0.5-16.5,13.4-16.8,14.2c0.5-5.1,4.6-12.2,12.7-16.3c8-4,15.8,0,16.1,0.1
						c3.8,3.1,6.2,7.4,6.8,8.5l-0.1,0h-1.3C169.7,136.8,164.4,129.7,152.2,130.2z"/>
					<path class="st6" d="M135.4,144.4c0.3-0.8,5-13.7,16.8-14.2c12.2-0.5,17.5,6.6,17.5,6.6h-7.3c-1.5-3.1-4.6-4.6-13.7-3.1
						C139.8,135.2,135.7,143.8,135.4,144.4z"/>
					<path class="st12" d="M121.7,99c5.8-1.2,16.1-2.3,34.6,6.9c1.5,0.8,3,1.5,4.3,2.3c1.2,3.4,2.2,6.7,2.7,9.7
						c-6.9-4.9-16.1-11.1-20.8-13.1C134.4,101.3,121.7,99,121.7,99z"/>
				</g>
				<g>
				</g>
			</g>
		</g>
		<g id="XMLID_8_">
			<g>
				<path class="st15" d="M210.2,188.8c0.1,0.7-0.4,1.3-1.1,1.3l-71.6,0.1c-9.5,0-19,0-28.5,0.4c-27.1,0.9-54.3,4.3-81.3,1.4
					c-0.6-0.1-1-0.6-1-1.2c0-4.1,0-10.3-0.1-17.2c17.6,2.2,35.4,1.7,53.1,1.2c9.9-0.3,19.8-0.6,29.6-0.9c16.1-0.5,30.7-1,46.1-1.7
					c4.3-0.2,8.6-0.4,12.9-0.5c4.5-0.1,9,0.1,13.5,0.6c6,0.7,12.4,0.8,18.4,0.3c3-0.2,5.9-0.5,8.8-0.7
					C209.3,178.2,209.7,184,210.2,188.8z"/>
				<path class="st16" d="M208.9,168.9c0,1,0.1,2,0.1,3c-2.9,0.2-5.8,0.5-8.8,0.7c-6,0.4-12.4,0.4-18.4-0.3c-4.5-0.5-9-0.7-13.5-0.6
					l0-2.5C181.8,169,195.4,168.9,208.9,168.9z"/>
				<path class="st15" d="M208.6,150.5c0.1,6.1,0.2,12.4,0.4,18.4c-13.6,0-27.1,0.1-40.7,0.3c-11,0.2-22,0.4-33,0.7
					c-16.4,0.4-32.8,1-49.3,1.3c-6.8,0.1-13.5,0.2-20.3,0.3c-6.4,0.1-12.8,0.1-19.1,0.2c-6.7,0.1-13.4,0.1-20.1-0.3
					c-0.1-5.9-0.2-12.3-0.2-18.1c13.8-0.6,45.3-1.9,54.9-1c4.8,0.5,9.8,0.2,14.6,0.2c4.5,0,8.7,0.3,13.1-0.1
					c8.7-0.7,17.5-0.4,26.2-0.3C159.7,152.5,184.2,152,208.6,150.5z"/>
				<path class="st16" d="M208.6,148.1c0,0.8,0,1.6,0,2.4c-24.4,1.5-48.9,2.1-73.4,1.7c-8.7-0.1-17.5-0.4-26.2,0.3
					c-4.5,0.3-8.7,0.1-13.1,0.1c-4.8,0-9.8,0.3-14.6-0.2c-9.6-0.9-41.1,0.3-54.9,1c0-1.3,0-2.6,0-3.9c22.1,2.5,68.3-2.2,87.5-1.2
					c5.9,0.3,11.7,1.1,17.6,1.1c4.4,0,8.7-0.9,13.1-0.9c25.5-0.4,41.1-2.1,61.6-0.4C207,148,207.8,148,208.6,148.1z"/>
				<path class="st15" d="M208.5,134c0,4.3,0,9.2,0.1,14.1c-0.8-0.1-1.6-0.1-2.4-0.2c-20.5-1.7-36.2,0-61.6,0.4
					c-4.4,0.1-8.7,0.9-13.1,0.9c-5.9,0-11.8-0.8-17.6-1.1c-19.2-1-65.5,3.7-87.5,1.2c-0.1-5.9-0.1-11-0.1-14.3l0-1.2
					c33.3,1.3,36.9,0.3,65.9,0.5c11.3,0.1,53.8,1.5,65,0.9C174,134.4,191.5,133.4,208.5,134z"/>
				<path class="st16" d="M168.2,169.2l0,2.5c-4.3,0.1-8.6,0.3-12.9,0.5c-15.4,0.7-30,1.2-46.1,1.7c-9.9,0.3-19.8,0.6-29.6,0.9
					c-17.7,0.5-35.5,1.1-53.1-1.2c0-0.8,0-1.5,0-2.3c6.7,0.5,13.4,0.4,20.1,0.3c6.4-0.1,12.8-0.1,19.1-0.2
					c6.8-0.1,13.5-0.1,20.3-0.3c16.4-0.3,32.8-0.9,49.3-1.3C146.2,169.6,157.2,169.4,168.2,169.2z"/>
			</g>
			<g>
			</g>
		</g>
		<g>
			<g id="XMLID_4_">
				<g>
					<path class="st17" d="M107,95.9c1.5-3,3.1-6,4-7.7c0,0,0,0,0,0c0.1-0.1,0.2-0.3,0.3-0.4C110.6,89.3,109.1,92.4,107,95.9z"/>
					<path class="st17" d="M107.8,90.9c-3.2,3.2-8,7.5-12.7,10c-8.3,4.5-13.2,5.9-15.6,8.3c-2.4,2.4-2.8,4.2-2.8,4.2
						c-0.8-1.3-1.7-2.4-2.6-3.1c-0.4-0.3-0.9-0.7-1.3-1.1c0,0,0,0,0,0c0-0.2,0.7-4.5,4.5-6.8c2-1.2,4.2-2,6.9-2.7
						c2.5-0.7,5.4-1.3,8.9-2C97.5,96.8,103.8,93.8,107.8,90.9z"/>
					<path class="st18" d="M111.7,86.8c-0.2,0.8-3.2,13.5-5.5,18.8c-2.4,5.5-4,10-6.3,12.5c-1.8,0.2-3.6,0.3-5.5,0.1
						c-0.6,0-1.1-0.1-1.7-0.1v0c3.3-2.2,9.6-9.2,10.6-13.8c0.4-1.9,1.9-5.2,3.6-8.5c2.1-3.5,3.6-6.6,4.3-8.1c0,0,0,0,0,0
						C111.5,87.4,111.7,87.1,111.7,86.8z"/>
					<path class="st17" d="M96.1,108.6c4.3-3,8.1-8.2,10.9-12.7c-1.6,3.3-3.1,6.7-3.6,8.5c-1,4.5-7.4,11.5-10.6,13.8v0
						c-6.6-0.2-10.7,1.6-12.5,2.6C83.8,116.2,87.1,114.8,96.1,108.6z"/>
					<path class="st19" d="M99.9,118.1c6.9-0.8,12.7-3.7,13.9-4.4c-2.4,1.6-16.3,11-23.6,11.9c-8,1-11.3,3.8-12.5,5.4
						c1.5-2.7,1.9-6.2,1.5-9.6c0,0,0.3-0.3,1-0.6c1.8-1,6-2.8,12.5-2.6c0.5,0,1.1,0,1.7,0.1C96.3,118.4,98.1,118.3,99.9,118.1z"/>
					<path class="st18" d="M111,88.1c-0.9,1.7-2.5,4.7-4,7.7c-2.7,4.6-6.5,9.7-10.9,12.7c-9,6.3-12.3,7.7-15.9,12.2
						c-0.7,0.4-1,0.6-1,0.6c-0.3-2.9-1.3-5.8-2.6-7.9c0,0,0.4-1.7,2.8-4.2c2.4-2.4,7.3-3.8,15.6-8.3c4.8-2.6,9.5-6.8,12.7-10
						C109.2,89.9,110.3,89,111,88.1z"/>
					<path class="st18" d="M74,134.8c1.7-0.9,2.9-2.2,3.8-3.8c1.1-1.6,4.5-4.3,12.5-5.4c7.3-1,21.2-10.3,23.6-11.9
						c0.2-0.1,0.3-0.1,0.3-0.1s-7.3,30.9-40.3,21.7v-0.5H74z"/>
					<path class="st20" d="M59,92.3c0,0,4.7,7,9.4,12.6c0,0,0,0,0,0c1.5,1.7,2.9,3.3,4.2,4.4c0,0,0,0,0,0c0.5,0.4,0.9,0.8,1.3,1.1
						c1,0.7,1.9,1.8,2.6,3.1c1.3,2.2,2.2,5,2.6,7.9c0.4,3.4,0,6.9-1.5,9.6c-0.9,1.6-2.1,2.9-3.8,3.8h-0.2h-4.2v0
						c7.6-9.6,1.1-20.6-2.4-25.8c-3.2-4.8-7.7-15.1-8.3-16.5C59,92.4,59,92.3,59,92.3z"/>
					<path class="st21" d="M59,92.4c0.6,1.4,5,11.7,8.3,16.5c3.5,5.2,10,16.2,2.4,25.8v0h-4.2v0c-0.1-10.3-2.4-19.9-2.7-23.7
						C62.4,107.5,59.4,94.3,59,92.4C59,92.5,59,92.4,59,92.4z"/>
					<path class="st20" d="M59,92.5c0.4,1.9,3.5,15,3.8,18.5c0.3,3.8,2.6,13.4,2.7,23.7v0h-4.5c-4.6-6.5-6.2-20.3-4.1-28.3
						c0.7-2.8,1.8-11.6,2-13.8c0,0,0,0,0,0C58.9,92.6,58.9,92.6,59,92.5z"/>
					<path class="st17" d="M58.3,57.7c0,0,1.6,5.5,6.3,10.2s11.8,7.9,15,11.8c3.1,3.9,6.7,13.5,4.5,20.1v0c-2.6,0.7-4.9,1.5-6.9,2.7
						l-0.1-0.2c0,0,0.7-4.5-0.7-9c-1.4-4.5-4.2-8.7-10.1-16C62.7,73,60.6,67,59.4,62.8c-0.5-2.5-1-4.4-1.2-4.9
						C58.3,57.8,58.3,57.8,58.3,57.7z"/>
					<path class="st19" d="M59.4,62.8c1.2,4.2,3.3,10.2,6.8,14.5c5.9,7.3,8.7,11.5,10.1,16c1.4,4.5,0.7,9,0.7,9l0.1,0.2
						c-3.8,2.3-4.4,6.6-4.5,6.8c-1.3-1.2-2.8-2.7-4.2-4.4c0,0,0,0,0,0c-0.2-0.4-3-6.5-5.3-12.6C60.7,86,60,78.7,60.3,72.4
						C60.5,69.3,60,65.7,59.4,62.8z"/>
					<path class="st17" d="M68.4,104.8C63.7,99.3,59,92.3,59,92.3c0,0,0,0.1-0.1,0.1c0-0.1-0.1-0.2-0.1-0.2s0,0,0,0c0,0,0,0,0,0.1
						c0,0.1-0.1,0.4-0.2,0.7v0c-1.1,2.6-2,4.3-2.7,5.7c-2.6-8.5-1.2-15.5,0.8-22.8c1.9-6.5,1.5-15.7,1.4-17.7c0-0.1,0-0.2,0-0.2
						c0.1,0.5,0.5,2.4,1.2,4.8c0.6,2.9,1.1,6.5,0.9,9.6C60,78.7,60.7,86,63.1,92.2C65.4,98.3,68.2,104.5,68.4,104.8z"/>
					<path class="st22" d="M58.2,57.9c0.1,0.4,0.7,2.4,1.2,4.9C58.7,60.3,58.3,58.5,58.2,57.9C58.2,58,58.2,58,58.2,57.9
						C58.3,57.9,58.3,57.9,58.2,57.9z"/>
					<path class="st21" d="M58.9,92.7c-0.3,2.2-1.3,11-2,13.8c-2.1,8-0.5,21.8,4.1,28.3h-5.3c-4.4-3.4-8.2-19.2-3.3-26.9
						c3.9-6.2,5.8-12.6,6.4-14.8v0C58.8,92.9,58.8,92.8,58.9,92.7z"/>
					<path class="st18" d="M55.9,68.7c1.4-5.1,2.2-8.2,2.3-10.5c0.1,2,0.4,11.2-1.4,17.7c-2.1,7.3-3.4,14.4-0.8,22.8v0
						c-1.3,2.3-2.5,3.6-4.4,6c0,0,0,0,0,0c-0.1-0.2-0.4-0.8-0.9-1.6c-0.8-1.7-1.8-4.6-1.8-8.5C48.8,88.4,54.3,74.2,55.9,68.7z"/>
					<path class="st20" d="M56,98.7c0.8-1.4,1.6-3.1,2.7-5.7c-0.6,2.2-2.5,8.6-6.4,14.8c-4.9,7.7-1,23.5,3.3,26.9h-6.8
						c0,0-2.3-1.9-4.2-5c-1.5-2.7-2.7-6.3-1.9-10.5c0.1-0.4,0.2-0.8,0.3-1.2v0c0.5-1.7,1.3-3.5,2.6-5.4c2.7-3.9,4.5-6.2,5.9-8
						C53.5,102.3,54.7,101.1,56,98.7L56,98.7z"/>
					<path class="st19" d="M44.7,129.8c-26.9,1.6-36.9-16.7-38.1-19.2c1.5,1.4,3.1,2.2,6.1,3.7c2.6,1.3,7.4,2.1,12.1,2.3
						c1,0,1.9,0.1,2.8,0.1c2.3,0,4.7,0.1,7.1,0.4c3.2,0.4,6.2,1.1,8.1,2.2C41.9,123.5,43.1,127.1,44.7,129.8z"/>
					<path class="st17" d="M19.9,83.8C24,87,34.8,92.4,41.7,95.4c4.8,2.1,7.6,5.6,8.9,7.7c0.4,0.9,0.8,1.4,0.9,1.6c0,0,0,0,0,0
						c-1.4,1.8-3.3,4.1-5.9,8c-1.3,1.9-2.1,3.7-2.6,5.4c-1.3-7.1-6.4-17.2-9.9-21.4C30.1,93,21.6,85.3,19.9,83.8z"/>
					<path class="st19" d="M33.2,96.8c3.5,4.2,8.6,14.2,9.9,21.4v0c-0.1,0.4-0.2,0.8-0.3,1.2c-2-1.1-4.9-1.8-8.1-2.2v0
						c-1.7-1.5-4.2-8.5-5.3-14.8c-1-5.8-8.5-16.9-9.6-18.6c0,0,0-0.1,0-0.1c0,0,0,0,0,0c0.1,0,0.1,0.1,0.2,0.1c0,0,0,0,0,0
						C21.6,85.3,30.1,93,33.2,96.8z"/>
					<path class="st18" d="M19.8,83.7c1.1,1.6,8.6,12.8,9.6,18.6c1,6.3,3.6,13.3,5.3,14.8v0c-2.3-0.3-4.7-0.4-7.1-0.4
						c-0.9,0-1.9,0-2.8-0.1c-3.6-4.8-0.3-14.9-0.3-19.6C24.4,92.6,20.3,84.7,19.8,83.7z"/>
					<path class="st18" d="M6.6,110.6c1.2,2.5,11.2,20.7,38.1,19.2c1.8,3.2,4.2,5,4.2,5c-13.4,3.2-21.2-0.8-27.5-3.1
						c-6.3-2.4-11-9.4-12.6-13.4c-1.6-3.9-2.4-7.9-2.4-7.9C6.4,110.5,6.5,110.5,6.6,110.6z"/>
				</g>
				<g>
				</g>
			</g>
		</g>
		<g>
			<g id="XMLID_9_">
				<g>
					<path class="st5" d="M154.4,140.8c-1.2-2.5-4.6-8-11-8.2c-4.8-0.2-8,1.2-9.9,2.5c-0.7,0-1.2,0-1.2,0l3-3.7
						c0,0,5.5-2.8,11.1-0.1c5.6,2.7,8.4,7.4,8.8,10.8C155.1,142.1,154.9,141.6,154.4,140.8z"/>
					<path class="st1" d="M154.4,140.8c-1.2-1.8-3.9-5.1-8.3-5.8c-3.8-0.6-6.1-0.5-7.6,0.2c-0.4,0-3.3-0.1-5-0.1
						c1.9-1.3,5.1-2.7,9.9-2.5C149.8,132.9,153.2,138.3,154.4,140.8z"/>
				</g>
				<g>
				</g>
			</g>
		</g>
		<g id="XMLID_7_">
			<g>
				<path class="st6" d="M148.5,134c-8,1.3-12.1,8.5-13,10.3c0.5-1.5,5.3-13.6,16.7-14.1c7.7-0.3,12.6,2.4,15.2,4.4
					c-2-0.1-5.4,0-6.7,0.5C158.8,133.4,155.4,132.9,148.5,134z"/>
				<path class="st10" d="M135.3,144.7c0.5-5.1,4.6-12.2,12.7-16.3c8.1-4.1,16.2,0.2,16.2,0.2l4.8,6.1c0,0-0.6,0-1.5-0.1
					c-2.6-2-7.6-4.7-15.2-4.4c-11.5,0.5-16.2,12.6-16.7,14.1c0,0,0,0,0,0.1C135.3,144.6,135.3,144.7,135.3,144.7z"/>
			</g>
			<g>
			</g>
		</g>
	</g>
	<g>
		<g id="XMLID_2_">
			<path class="st15" d="M288.8,311.9c0.1,0.7-0.5,1.2-1.2,1.2l-73.9,0.1c-9.8,0-19.6,0-29.4,0.3c-28,0.9-56,4.1-83.9,1.3
				c-0.6-0.1-1.1-0.5-1.1-1.1c0-3.8,0-9.7-0.1-16.2c18.1,2.1,36.5,1.6,54.8,1.1c10.2-0.3,20.4-0.6,30.6-0.9
				c16.6-0.5,31.7-0.9,47.6-1.6c4.4-0.2,8.8-0.4,13.3-0.4c4.7-0.1,9.3,0.1,14,0.6c6.2,0.7,12.8,0.7,19,0.3c3.1-0.2,6.1-0.5,9.1-0.7
				C287.9,301.9,288.3,307.4,288.8,311.9z"/>
			<path class="st15" d="M287.1,275.9c0.1,5.7,0.2,11.7,0.4,17.3c-14,0-28,0.1-42,0.3c-11.3,0.2-22.7,0.4-34,0.7
				c-16.9,0.4-33.9,1-50.8,1.2c-7,0.1-14,0.2-20.9,0.3c-6.6,0.1-13.2,0.1-19.8,0.2c-6.9,0.1-13.8,0.1-20.7-0.3
				c-0.1-5.6-0.2-11.6-0.2-17c14.3-0.6,46.8-1.8,56.6-0.9c4.9,0.4,10.1,0.2,15.1,0.2c4.6,0,9,0.2,13.6-0.1c9-0.6,18.1-0.4,27.1-0.2
				C236.7,277.8,261.9,277.3,287.1,275.9z"/>
			<path class="st16" d="M287.1,273.6c0,0.7,0,1.5,0,2.2c-25.2,1.4-50.5,1.9-75.7,1.6c-9-0.1-18.1-0.4-27.1,0.2
				c-4.6,0.3-9,0.1-13.6,0.1c-5,0-10.2,0.2-15.1-0.2c-9.9-0.9-42.4,0.3-56.6,0.9c0-1.2,0-2.5,0-3.7c22.8,2.3,70.5-2,90.3-1.1
				c6.1,0.3,12.1,1.1,18.2,1c4.5,0,9-0.8,13.6-0.9c26.3-0.4,42.4-2,63.6-0.4C285.5,273.5,286.3,273.5,287.1,273.6z"/>
			<path class="st15" d="M287.1,254.6c0,5.4,0,12,0.1,19c-0.8-0.1-1.6-0.1-2.4-0.2c-21.2-1.6-37.3,0-63.6,0.4
				c-4.5,0.1-9,0.9-13.6,0.9c-6.1,0-12.1-0.8-18.2-1c-19.8-0.9-67.6,3.5-90.3,1.1c-0.1-5.5-0.1-10.3-0.1-13.4l0.1-1.1
				c33,1.5,66.1-1.7,99.2-2.1c11.6-0.1,23.3,0.1,34.9-0.5C251.1,256.9,269.1,254.3,287.1,254.6z"/>
			<path class="st16" d="M287.5,293.2c-14,0-28,0.1-42,0.3c-11.3,0.2-22.7,0.4-34,0.7c-16.9,0.4-33.9,1-50.8,1.2
				c-7,0.1-14,0.2-20.9,0.3c-6.6,0.1-13.2,0.1-19.8,0.2c-6.9,0.1-13.8,0.1-20.7-0.3c0,0.7,0,1.4,0,2.1c18.1,2.1,36.5,1.6,54.8,1.1
				c10.2-0.3,20.4-0.6,30.6-0.9c16.6-0.5,31.7-0.9,47.6-1.6c4.4-0.2,8.8-0.4,13.3-0.4c4.7-0.1,9.3,0.1,14,0.6
				c6.2,0.7,12.8,0.7,19,0.3c3.1-0.2,6.1-0.5,9.1-0.7C287.6,295.1,287.6,294.1,287.5,293.2z"/>
		</g>
		<g id="XMLID_1_">
			<path class="st3" d="M309.7,251c0.9,9.5-0.9,12.1-0.9,12.1c0-5.6-11.2-6-18.9-7.4c-0.7-0.1-1.3-0.2-1.9-0.4
				c-1.3-0.3-2.6-0.7-3.6-1.1c0.5-2.6,2.2-5,4.6-6.5c1-0.7,2.2-1.2,3.1-2c1.2-1.1,1.6-2.7,2-4.2c0.6-2.3,1.1-4.6,1.6-6.9l0.6-1.1
				C301.4,236.8,308.9,243,309.7,251z"/>
			<path class="st23" d="M274.7,214c-1.3,0.4-2.5,0.4-4.2,0.3c0.5-1.4,0.5-2.1,7.1-7.2c6.6-5.2,13.2-4.3,13.2-4.3
				c-5.7,0-1.9,6.9,0,15.5c0.4,1.8,0.5,3.3,0.5,4.6l-0.5,0c-2.4,0.1-4.8,0.2-7.3,0.3c-2.9,0.1-5.9,0.2-8.7-0.4
				c-2.5-0.6-4.8-1.7-6.9-3l-0.1-0.1C271.6,215.6,274.5,214.1,274.7,214z"/>
			<path class="st5" d="M263.8,224.5c1.4-1.9,2.7-3.5,4-4.8l0.1,0.1c2.2,1.2,4.5,2.4,6.9,3c2.8,0.7,5.8,0.5,8.7,0.4
				c2.4-0.1,4.8-0.2,7.3-0.3l0.5,0c-0.2,5.2-2.9,7.2-2.9,7.2c-3.2-0.7-6.3-0.7-8.1-0.4c-5.4-1-13-2.2-18.7-2.1
				C262.4,226.5,263.1,225.5,263.8,224.5z"/>
			<path class="st5" d="M289.9,255.7c2.8,6.4,0,18.6,0,18.6c-0.2-0.5-0.7-1-1.4-1.5c-1.9-1.6-5.6-3.5-11.9-5.4
				c-0.7-0.2-1.3-0.4-1.8-0.6l0.1-0.1c2.1-1.7,4.5-3,7.1-4c1.4-0.6,2.9-1.1,3.8-2.1c1.2-1.4,1.1-3.3,2.2-4.8l0-0.4
				C288.6,255.5,289.2,255.6,289.9,255.7z"/>
			<path class="st3" d="M251.5,231.3c0.6-0.4,1.2-0.9,1.8-1.3c2-1.2,4.1-2.1,6.3-2.3c0.6-0.1,1.3-0.1,2-0.1
				c5.7-0.1,13.3,1.1,18.7,2.1c3.9,0.8,6.7,1.4,6.7,1.4s-0.2,1.5-0.9,3.7c-6,0.7-11.8,2.5-17.8,3.6c-8,1.5-16.2,1.9-24.4,1.2
				l-0.3-0.2C245.4,237.3,248.2,233.9,251.5,231.3z"/>
			<path class="st2" d="M293.7,232c-1.7-0.9-3.5-1.5-5.3-1.9c-3.2-0.7-6.3-0.7-8.1-0.4c3.9,0.8,6.7,1.4,6.7,1.4s-0.2,1.5-0.9,3.7
				c-6,0.7-11.8,2.5-17.8,3.6c-8,1.5-16.2,1.9-24.4,1.2l-0.3-0.2c-1.2,1.6-1.8,2.6-1.8,2.6c2.6,2.7,2.7,5.5,1.6,8.2
				c4.5,3.6,15.2,6.4,27,2.8c0.5-0.1,1-0.3,1.4-0.5c1.8-0.6,3.5-1.6,4.9-2.7c0,0,2.4,2.4,7.5,4.2c0.5-2.6,2.2-5,4.6-6.5
				c1-0.7,2.2-1.2,3.1-2c1.2-1.1,1.6-2.7,2-4.2c0.6-2.3,1.1-4.6,1.6-6.9l0.6-1.1C295.3,233,294.4,232.4,293.7,232z"/>
			<path class="st24" d="M270.5,214.3c1.7,0.1,3,0,4.2-0.3c-0.3,0.1-3.1,1.7-7,5.8c-1.2,1.3-2.6,2.9-4,4.8c-0.7-2.2-1.7-4.3-3.3-5.9
				c-1.7-1.7-4.3-2.7-6.8-2.4c0.4-0.2,0.8-0.5,1.3-0.7c1.9-0.9,4.1-1.6,6.6-1.6C265.7,213.9,268.4,214.2,270.5,214.3z"/>
			<path class="st1" d="M284.3,254.3c-5.1-1.8-7.5-4.2-7.5-4.2c-1.4,1.1-3.1,2.1-4.9,2.7c-0.5,0.2-1,0.3-1.4,0.5
				c-11.7,3.6-22.5,0.8-27-2.8c-1.5,3.5-5.1,6.9-8.5,9.3c-0.3,0.2-0.7,0.5-1,0.7c-4.9,5.1-0.8,29.4-0.8,29.4s1.9-0.9,18-11.2
				c8.4-5.4,13.3-12.1,16.1-17.2c0.1,0.2,1,3,7.6,5.4l0.1-0.1c2.1-1.7,4.5-3,7.1-4c1.4-0.6,2.9-1.1,3.8-2.1c1.2-1.4,1.1-3.3,2.2-4.8
				l0-0.4C286.7,255,285.4,254.6,284.3,254.3z"/>
			<path class="st25" d="M250.2,218.7c0.9-0.8,2-1.7,3.5-2.5c2.5-0.4,5.1,0.7,6.8,2.4c1.7,1.6,2.7,3.7,3.3,5.9c-0.7,1-1.4,2-2.2,3.1
				c-0.7,0-1.4,0-2,0.1c-2.2,0.2-4.3,1.1-6.3,2.3c0,0-1.7-5.9-4.8-9.7C248.6,220.4,249.1,219.7,250.2,218.7z"/>
			<path class="st3" d="M253.7,216.2c-1.4,0.8-2.6,1.8-3.5,2.5c-1.5-0.8-3.6-2-5.9-3.1c-2.1-3-3.6-6-3.6-6c-1.1,0.5-2.4,1.4-3.7,2.4
				c-1.3-0.6-2.2-1-2.5-1c-2.6-0.6-5.3-1.1-7.9-1.7l-0.6-0.1c2.7-2.1,5.8-4.5,8-5.7c4.7-2.6,10.4-3.4,16.1-1.7
				c5.7,1.7,11.3,1.7,11.3,1.7c-1.9,1.7-6.4,11.6-6.6,11.9C254.5,215.8,254.1,216,253.7,216.2z"/>
			<path class="st24" d="M248.6,220.4c3,3.7,4.8,9.7,4.8,9.7c-0.6,0.4-1.2,0.8-1.8,1.3c-3.2-1.6-6.2-3.6-8.9-3.6
				c-2.5,0-5.2,0.6-7.6,1.4c-3.7,1.2-7.4,2.4-11.2,3.5c0.1-2.2,0.4-5.2,1.6-7.8c0.5-1.1,1.2-2.2,2-3.1c3.3-3.6,6.6-7.2,9.6-9.6
				c1.9,0.9,4.6,2.2,7.2,3.5c0.9,1.2,1.9,2.5,3.1,3.5C247.8,219.5,248.2,219.9,248.6,220.4z"/>
			<path class="st2" d="M250.2,218.7c-1.1,1-1.7,1.7-1.7,1.7c-0.4-0.5-0.8-0.9-1.2-1.3c-1.1-1-2.2-2.3-3.1-3.5
				C246.6,216.7,248.7,217.9,250.2,218.7z"/>
			<path class="st25" d="M242.6,227.7c2.7,0,5.7,2,8.9,3.6c-3.4,2.6-6.1,5.9-7.8,8.2c-1.2,1.6-1.8,2.6-1.8,2.6
				c-0.8-0.8-1.8-1.6-3.1-2.4c-3.5-2.1-9.6-3.9-14.8-3.5l0-0.2c0,0-0.2-1.4-0.1-3.4c3.7-1.2,7.4-2.4,11.2-3.5
				C237.5,228.4,240.1,227.7,242.6,227.7z"/>
			<path class="st24" d="M244.3,215.6c-2.6-1.3-5.3-2.7-7.2-3.5c1.3-1.1,2.5-1.9,3.7-2.4C240.7,209.6,242.1,212.6,244.3,215.6z"/>
			<path class="st26" d="M241.9,242.2c2.6,2.7,2.7,5.5,1.6,8.2c-1.5,3.5-5.1,6.9-8.5,9.3c-0.6-3.3-1.4-6.7-3.4-9.5
				c-1.7-2.3-4-4.1-6.1-6c-2.1-1.9-4.1-4.2-4.6-6.9l-0.1-0.4c1-0.3,2.1-0.5,3.3-0.6c5.2-0.4,11.3,1.4,14.8,3.5
				C240.1,240.6,241.1,241.4,241.9,242.2z"/>
			<path class="st2" d="M237.1,212.1c-3,2.4-6.3,6-9.6,9.6c-0.9,0.9-1.5,2-2,3.1c0,0,0.1-3.6-2.2-6.9c-0.1-0.2-0.3-0.4-0.5-0.6
				c-0.8-1-1.5-2.2-2.1-3.4c0,0,2.5-2.2,5.5-4.6l0.6,0.1c2.6,0.6,5.3,1.1,7.9,1.7C234.9,211.1,235.8,211.5,237.1,212.1z"/>
			<path class="st5" d="M223.9,232.7c0,2,0.1,3.4,0.1,3.4l0,0.2c-1.2,0.1-2.3,0.3-3.3,0.6c-1.4,0.4-2.6,1.1-3.6,2
				c-2.8,2.5-4.4,5.6-5.8,9.2c-2.8-2.4-5.1-5.4-6.6-8.6c0-0.2,0.1-0.4,0.1-0.6v0c0.9-0.9,1.9-1.7,2.9-2.5
				c6.3-5.2,11.5-11.4,15.3-18.3l0.2-0.1c2.4,3.3,2.2,6.9,2.2,6.9C224.3,227.5,223.9,230.4,223.9,232.7z"/>
			<path class="st23" d="M219.5,211.3c0.3,0.8,0.7,1.7,1.1,2.6c0.6,1.3,1.3,2.5,2.1,3.4c0.2,0.2,0.3,0.4,0.5,0.6l-0.2,0.1
				c-3.8,6.9-9,13.2-15.3,18.3c-1,0.8-2,1.6-2.9,2.5c1-5.5-0.4-10.8-2.2-14.6c0,0,3.2-5.1,6.9-7.7c1.4-1,3-2.3,4.4-3.7
				c2.3-2.3,4.1-4.7,4.1-5.8C218.1,207,218.6,209,219.5,211.3z"/>
			<path class="st27" d="M216.2,193.3c2.8,4.3,4.8,12.9,3.4,18.1c-0.9-2.3-1.5-4.3-1.5-4.3c0,1.1-1.8,3.5-4.1,5.8l-1-0.3
				c-2.6-0.1-5.1-0.9-7.1-2.4c-1.4-1.1-2.6-2.4-4.2-3.2c-1.3-0.6-2.9-0.7-4.3-0.7c-2.6,0-5.2,0.4-7.6,1.1c-2,0.6-4,1.5-6,1.9
				c1.3-3.6,4.6-10.9,10.8-15.9c8.5-6.9,18-7.8,21.7-8.6C216.2,184.6,213.3,188.9,216.2,193.3z"/>
			<path class="st28" d="M212.9,212.5l1,0.3c-1.4,1.4-2.9,2.7-4.4,3.7c-3.8,2.6-6.9,7.7-6.9,7.7c-1.2-2.4-2.5-4.2-3.4-5.1
				c-2.8-2.6-4.7-7.8-4.7-7.8c-1.4,1.2-6.1,4.2-10.8,8.4l0,0c0,0,0.6-3.5-0.8-8.4c0,0,0.2-0.8,0.7-2.2c2.1-0.4,4-1.3,6-1.9
				c2.4-0.7,5-1.1,7.6-1.1c1.5,0,3,0.1,4.3,0.7c1.6,0.7,2.8,2.1,4.2,3.2C207.8,211.6,210.3,212.5,212.9,212.5z"/>
			<path class="st1" d="M211.3,248.1c-1.7,4.4-3.2,9.5-6,15c0.1-1.6-0.1-3.4-0.4-5.3c-0.5-3.3-2.2-6-4.5-8c0.7-0.8,1.8-2.9,3.5-7.5
				c0.3-1,0.6-1.9,0.8-2.9C206.2,242.7,208.5,245.7,211.3,248.1z"/>
			<path class="st29" d="M200.3,249.9c2.3,2,4,4.7,4.5,8c0.3,1.9,0.5,3.6,0.4,5.3c-1.1,2.2-2.5,4.5-4.2,6.8c0,0,0.6-0.1,1.6-0.3
				c-0.6,0.6-1.3,1.3-2.1,1.9c-2.5-4.9-3.8-10.3-3.8-15.7c0-0.5,0-1.1-0.2-1.5c-0.4-0.9-1.5-1.3-2.5-1.6c-5.8-1.7-12-2.4-18.1-2h0
				c0,0,0,0,0,0c0.2-0.2,0.3-0.4,0.5-0.6c0,0,7.6-5.2,17-3.4C196,247.2,198.4,248.3,200.3,249.9z"/>
			<path class="st3" d="M203.6,236.8c-0.7-2-2.1-3.9-4-5.2c-0.4-0.3-0.9-0.6-1.4-0.7c-0.6-0.1-1.1,0.1-1.7,0.2
				c-8,2.4-14.8,7.1-21.5,11.7c-0.3,0.2-0.7,0.5-0.9,0.8c-0.4-0.5-0.9-1-1.4-1.4c0-0.4,0-10.2,5.5-17c1.6-2,3.5-3.8,5.3-5.4
				c4.7-4.1,9.4-7.1,10.8-8.4c0,0,1.9,5.2,4.7,7.8c1,0.9,2.3,2.7,3.4,5.1c1.8,3.8,3.2,9.1,2.2,14.6v0c-0.1,0.1-0.2,0.2-0.3,0.3
				C204.2,238.4,203.8,237.6,203.6,236.8z"/>
			<path class="st2" d="M204.5,239.2c0,0.1,0.1,0.2,0.2,0.4c-0.2,1-0.5,1.9-0.8,2.9c-1.7,4.6-2.8,6.7-3.5,7.5
				c-1.9-1.6-4.3-2.7-6.9-3.2c-9.5-1.7-17,3.4-17,3.4c-0.2,0.2-0.3,0.4-0.5,0.6c0-0.1,0-0.2,0-0.2c0.4-2.8-0.3-5.1-1.8-7
				c0.2-0.3,0.6-0.6,0.9-0.8c6.7-4.6,13.5-9.3,21.5-11.7c0.5-0.2,1.1-0.3,1.7-0.2c0.5,0.1,1,0.4,1.4,0.7c1.8,1.3,3.2,3.2,4,5.2
				C203.8,237.6,204.2,238.4,204.5,239.2z"/>
			<path class="st4" d="M231.6,250.2c-1.7-2.3-4-4.1-6.1-6c-2.1-1.9-4.1-4.2-4.6-6.9l-0.1-0.4c-1.4,0.4-2.6,1.1-3.6,2
				c-2.8,2.5-4.4,5.6-5.8,9.2c-1.7,4.4-3.2,9.5-6,15c-1.1,2.2-2.5,4.5-4.2,6.8c0,0,0.6-0.1,1.6-0.3c5.3-1,22-4.4,26.8-6.6
				c1.2-0.5,2.8-1.4,4.6-2.6c0.3-0.2,0.7-0.5,1-0.7C234.5,256.4,233.6,253.1,231.6,250.2z"/>
			<path class="st30" d="M166.2,238.5c-2.6-0.9-5.5-1.5-8.1-1.7c-0.2,0-0.3,0-0.5,0l0-0.4c0,0-0.8-5.1-3.7-10
				c-0.3-0.5-0.6-1-0.9-1.5c1.1-5.3,5.7-14.2,9.7-21.1c3.4-5.9,6.3-10.5,6.3-10.5s4.7,1.7,10.4,10.3c1.8,2.8,2.9,5.4,3.6,7.8
				c1.4,4.9,0.8,8.4,0.8,8.4l0,0c-1.9,1.6-3.7,3.4-5.3,5.4c-5.6,6.8-5.5,16.6-5.5,17C171.1,240.6,168.7,239.4,166.2,238.5z"/>
			<path class="st31" d="M172.8,242.2c0.5,0.4,1,0.9,1.4,1.4c1.5,1.9,2.2,4.2,1.8,7c0,0,0,0.1,0,0.2c-2,2.6-3.1,5.1-3.5,7.5
				c-1.4,1.5-3.4,2.8-6.3,3.6c4.4-8.3,1.8-15.8-0.1-23.3C168.7,239.4,171.1,240.6,172.8,242.2z"/>
			<path class="st4" d="M196.7,255.9c0-0.5,0-1.1-0.2-1.5c-0.4-0.9-1.5-1.3-2.5-1.6c-5.8-1.7-12-2.4-18.1-2h0c0,0,0,0,0,0
				c-2,2.6-3.1,5.1-3.5,7.5c-0.6,3.7,0.4,7.1,1.8,10.2c1.2,2.5,2.8,4.8,4,6.7c3.8,6,3.8,11.2,3.8,11.2c2.8-5.2,10.4-9.5,17-13.8
				c0.5-0.3,1-0.7,1.4-1C198,266.7,196.7,261.3,196.7,255.9z"/>
			<path class="st32" d="M166.2,261.9L166.2,261.9c2.8-0.8,4.8-2.2,6.3-3.6c-0.6,3.7,0.4,7.1,1.8,10.2c-0.5,0.8-1,1.5-1.7,2.3
				c-3.2,0.5-6.6,0.2-9.6-0.9c-0.6-0.2-1.3-0.6-1.6-1.1c-0.2-0.4-0.2-0.8-0.2-1.2c0-1.6,0-3.2,0-4.7v-0.1
				C163.1,262.6,164.8,262.3,166.2,261.9z"/>
			<path class="st33" d="M172.6,270.7c-1,1.1-2.4,2.5-4.7,4.5c-3.8,3.4-16.1,6-16.1,6s4.7-5.2,3.8-11.2c-0.9-6,1.6-7.4,1.6-7.4
				c1.2,0.1,2.4,0.1,3.6,0c0.1,0,0.3,0,0.4,0v0.1c0,1.6,0,3.2,0,4.7c0,0.4,0,0.8,0.2,1.2c0.3,0.6,1,0.9,1.6,1.1
				C166,270.9,169.4,271.2,172.6,270.7z"/>
			<path class="st27" d="M141.7,241c4.1-2.6,9.7-4.7,15.8-4.2c0.2,0,0.3,0,0.5,0c2.6,0.3,5.5,0.8,8.1,1.7c1.9,7.5,4.5,15,0.1,23.3h0
				c-1.4,0.4-3.1,0.7-5,0.8c-0.1,0-0.3,0-0.4,0c-1.1,0-2.3,0-3.6,0c-1.4-0.1-2.8-0.2-4.3-0.4c-6.2-0.7-13-2.4-19-4.5
				c-1.5-0.5-2.9-1.1-4.3-1.7c-2.4-1.1-4.5-2.2-6.2-3.4c-0.2-0.1-0.3-0.2-0.5-0.3c0,0,6-1.6,9.9-4.1c1-0.6,1.8-1.3,2.4-2
				C136.5,244.8,138.8,242.8,141.7,241z"/>
			<path class="st2" d="M162.6,203.7c-4,7-8.6,15.8-9.7,21.1c-1.5-2.2-3.4-4.2-5.8-5.7s-4.4-2.7-6.1-3.8c2.2-1.2,4.2-2.6,6.1-4
				c4-3,7.5-7.1,11.1-10.5l0-0.1C160,201.7,161.5,202.6,162.6,203.7z"/>
			<path class="st3" d="M158.3,200.8L158.3,200.8c-3.6,3.4-7.2,7.6-11.1,10.6c-1.9,1.4-3.9,2.8-6.1,4c-4.1-2.7-6.1-4.6-8.1-8.3
				c0,0,0,5.6-1.4,11.1c-1.4,0-2.9-0.2-4.3-0.8l-0.3,0.1c-1.2-2.3-1.9-5.3-0.6-8.8c2.8-7.8,3.8-12.9-1.9-15.5
				C124.5,193.3,146.6,194.7,158.3,200.8z"/>
			<path class="st29" d="M157.6,236.4l0,0.4c-6.1-0.5-11.7,1.7-15.8,4.2c-0.9-1.5-2.7-2.5-4.1-3.6c0.5-0.4,1-0.9,1.5-1.3
				c4.3-3.7,8.8-7.5,14.3-9.5l0.4-0.2C156.8,231.3,157.6,236.4,157.6,236.4z"/>
			<path class="st2" d="M153,262.2l-0.1,0.4c-5,4.9-11.2,9.7-18,13.2l-0.3-0.4c-2.7-1.3-4.6-4-4.8-6.8c-0.2-2.8,2.5-8.8,4-9.9l0.1-1
				C140,259.9,146.9,261.5,153,262.2z"/>
			<path class="st29" d="M137.6,237.3c1.5,1.1,3.2,2.1,4.1,3.6c-3,1.8-5.2,3.9-6.4,5.3c-0.6,0.7-1.4,1.4-2.4,2
				c-0.5-1.6-0.9-3.1-1.2-4.6C133.3,241.3,135.4,239.3,137.6,237.3z"/>
			<path class="st4" d="M133,207c2,3.7,4,5.6,8.1,8.3c-3.1,1.7-6.3,2.8-9.5,2.8C133,212.7,133,207,133,207z"/>
			<path class="st4" d="M153,224.8c-1.5-2.2-3.4-4.2-5.8-5.7c-2.4-1.5-4.4-2.7-6.1-3.8c-3.1,1.7-6.3,2.8-9.5,2.8
				c-0.2,0.6-0.3,1.2-0.5,1.8c-0.2,0.7-0.4,1.4-0.5,2.1c-0.3,1.2-0.5,2.6-0.6,4c-0.1,1.5-0.2,3.1-0.1,4.8c0.1,2.9,0.5,6.2,1.2,9.9
				c0.2,1,0.4,1.9,0.7,2.9c1.6-2.4,3.7-4.4,5.9-6.3c0.5-0.4,1-0.9,1.5-1.3c4.3-3.7,8.8-7.5,14.3-9.5l0.4-0.2
				C153.6,225.8,153.3,225.3,153,224.8z"/>
			<path class="st2" d="M127.3,217.4c1.4,0.5,2.8,0.8,4.3,0.8c-0.2,0.6-0.3,1.2-0.5,1.8c-0.2,0.7-0.4,1.4-0.5,2.1
				c0,0-2.1-1.7-3.5-4.4c0,0,0,0,0,0c0,0,0-0.1,0-0.1L127.3,217.4z"/>
			<path class="st27" d="M130,226.1c-0.1,1.5-0.2,3.1-0.1,4.8h0c-3.8,0.8-4.3,3.4-13.6,3.7c-6.5-2.3-12.2-6.3-16.2-11.5l-0.1,0
				c-0.2-1.4-0.5-2.7-1-4c-1.9-4.3-7.6-8.6-7.6-8.6s14.2-0.9,23.6,1.7c9.2,2.5,11.8,5.2,12,5.4c0,0,0,0,0,0c1.4,2.8,3.5,4.4,3.5,4.4
				C130.3,223.3,130.1,224.6,130,226.1z"/>
			<path class="st31" d="M116.2,234.6c9.3-0.3,9.8-2.9,13.6-3.7h0c0.1,2.9,0.5,6.2,1.2,9.9c0,0-7.5-5.2-17-6.1
				C114.8,234.6,115.5,234.6,116.2,234.6z"/>
			<path class="st3" d="M134.7,275.5c-2.7-1.3-4.6-4-4.8-6.8c-0.2-2.8,2.5-8.8,4-9.9l0.1-1c-1.5-0.5-2.9-1.1-4.3-1.7
				c0,0-1.1,0.4-2.6,1c-2.2,0.9-5.2,2.3-7.3,4c-1.1,0.9-1.9,1.9-2.1,2.9c-0.8,3.8-0.2,9-4,13.8c-0.5,0.6-1,1.2-1.6,1.7
				c-5.3,4.8-4,4.4,6.2,2.2c0.7-0.2,1.5-0.3,2.4-0.5c4.9-1,9.7-2.9,14.3-5.3L134.7,275.5z"/>
			<path class="st25" d="M123.1,252.3c0,0,6-1.6,9.9-4.1c-0.5-1.6-0.9-3.1-1.2-4.6c-0.2-1-0.5-2-0.7-2.9c0,0-7.5-5.2-17-6.1
				c-1.4-0.1-2.6-0.2-3.8-0.2v0.2c2,1.7,5.9,4.2,7.9,5.8c1.2,1,2.3,1.9,3.1,3.1c0.6,1,2.8,5.8,0.8,10.6c-3.1,3.9-8.1,6.5-13.4,7.1
				c2.8,0.4,6.4,0.4,11.2-0.3c2-1.7,5.1-3.1,7.3-4c1.5-0.6,2.6-1,2.6-1c-2.4-1.1-4.5-2.2-6.2-3.4
				C123.4,252.5,123.2,252.4,123.1,252.3z"/>
			<path class="st24" d="M121.4,243.6c0.6,1,2.8,5.8,0.8,10.6c-3.1,3.9-8.1,6.5-13.4,7.1c-3.4-0.5-5.6-1.6-7.5-2.9c0,0,0,0,0,0
				c-1.5-1-2.8-2.1-4.2-3.2C92.3,251.9,81,251,81,251c3.8-0.9,7.6-5.2,13.2-10.3c3.6-3.2,6.7-5.1,10.9-5.9c1.6-0.3,3.2-0.4,5.1-0.4
				v0.2c2,1.7,5.9,4.2,7.9,5.8C119.4,241.4,120.5,242.4,121.4,243.6z"/>
			<path class="st29" d="M107.5,261.5c0.4,0,0.9-0.1,1.3-0.1c2.8,0.4,6.4,0.4,11.2-0.3c-1.1,0.9-1.9,1.9-2.1,2.9
				c-0.8,3.8-0.2,9-4,13.8c0,0-0.4,0.1-1,0.3l0-0.1c-3.7-3-9.1-2.9-13.8-4.2c-0.3-0.1-0.7-0.2-0.8-0.4c-0.2-0.2-0.1-0.6-0.1-0.8
				c0.5-2.4,2.5-4.2,4.4-5.9c1.5-1.4,3-5.7,5-5.2L107.5,261.5z"/>
			<path class="st31" d="M116.2,234.6c-0.7,0-1.4,0-2.1,0c-1.4-0.1-2.6-0.2-3.8-0.2c-1.9,0-3.6,0.1-5.1,0.4
				c-4.3-4.2-4.7-8.2-5.2-11.7l0.1,0C104,228.3,109.7,232.3,116.2,234.6z"/>
			<path class="st4" d="M112.8,277.9l0,0.1c-2,0.6-6.6,2-12.1,2.8c-0.9,0.1-1.8,0.2-2.8,0.3c-8.5,0.9-17-0.9-17-0.9
				c4.7-2.6,8.5-6.9,11.3-14.7c2.8-7.6,8.6-7.2,8.9-7.2c0,0,0,0,0,0c1.9,1.3,4.2,2.4,7.5,2.9c-0.4,0.1-0.9,0.1-1.3,0.1l0-0.1
				c-2.1-0.5-3.5,3.8-5,5.2c-1.9,1.7-3.9,3.5-4.4,5.9c-0.1,0.3-0.1,0.6,0.1,0.8c0.2,0.3,0.5,0.4,0.8,0.4
				C103.7,275,109.1,275,112.8,277.9z"/>
		</g>
	</g>
</g>
<g id="Layer_3">
	<linearGradient id="Bg_2_" gradientUnits="userSpaceOnUse" x1="156.3825" y1="349.9258" x2="159.3971" y2="59.3192">
		<stop  offset="0" style="stop-color:#000000;stop-opacity:0.4"/>
		<stop  offset="1" style="stop-color:#FFFFFF;stop-opacity:0"/>
	</linearGradient>
	<path id="Bg_1_" class="st34" d="M38,0.5h240c21,0,38,17,38,38v311c0,21-17,38-38,38H38c-21,0-38-17-38-38v-311
		C0,17.5,17,0.5,38,0.5z"/>
	<g>
		<path class="st35" d="M25,324c0.7-0.1,1.5-0.2,2.4-0.3c0.9-0.1,1.8-0.1,2.8-0.2c1,0,1.9-0.1,2.8-0.1c0.9,0,1.7,0,2.4,0
			c3.2,0,5.9,0.4,8.1,1.3c2.2,0.9,4.1,2.1,5.5,3.7c1.4,1.6,2.4,3.5,3.1,5.7c0.6,2.2,1,4.6,1,7.3c0,2.4-0.3,4.7-0.9,7
			c-0.6,2.2-1.6,4.2-3.1,6c-1.4,1.7-3.3,3.1-5.6,4.2c-2.3,1.1-5.2,1.6-8.6,1.6c-0.5,0-1.3,0-2.2-0.1s-1.8-0.1-2.8-0.1
			c-1-0.1-1.9-0.1-2.8-0.2c-0.9-0.1-1.5-0.1-2-0.2V324z M36,329.7c-0.7,0-1.5,0-2.3,0.1c-0.8,0-1.3,0.1-1.7,0.2v23.9
			c0.1,0,0.4,0.1,0.7,0.1c0.3,0,0.7,0,1,0.1c0.4,0,0.7,0,1.1,0.1c0.3,0,0.6,0,0.8,0c2,0,3.6-0.3,4.9-1c1.3-0.7,2.3-1.6,3.1-2.8
			c0.8-1.2,1.3-2.5,1.6-4c0.3-1.5,0.5-3.1,0.5-4.7c0-1.4-0.1-2.8-0.4-4.2c-0.3-1.4-0.8-2.7-1.5-3.8c-0.7-1.1-1.7-2-3-2.8
			C39.5,330,37.9,329.7,36,329.7z"/>
		<path class="st35" d="M78.3,357.5c-1,0.8-2.4,1.5-4.2,2.1c-1.8,0.6-3.6,0.8-5.6,0.8c-4.1,0-7.1-1.2-9-3.6
			c-1.9-2.4-2.9-5.7-2.9-9.9c0-4.5,1.1-7.9,3.2-10.1s5.2-3.4,9-3.4c1.3,0,2.6,0.2,3.8,0.5c1.2,0.3,2.3,0.9,3.3,1.7
			c1,0.8,1.7,1.8,2.3,3.2c0.6,1.3,0.9,3,0.9,4.9c0,0.7,0,1.5-0.1,2.3c-0.1,0.8-0.2,1.7-0.4,2.5H63.3c0.1,2.1,0.7,3.8,1.7,4.8
			c1,1.1,2.6,1.6,4.9,1.6c1.4,0,2.6-0.2,3.7-0.6c1.1-0.4,1.9-0.9,2.5-1.3L78.3,357.5z M68.8,338.7c-1.7,0-3,0.5-3.9,1.6
			c-0.8,1-1.3,2.4-1.5,4.2h9.5c0.1-1.8-0.1-3.2-0.8-4.2C71.4,339.2,70.3,338.7,68.8,338.7z"/>
		<path class="st35" d="M101.6,358.1c-1,0.7-2.3,1.3-3.7,1.7c-1.4,0.4-2.9,0.6-4.5,0.6c-2,0-3.8-0.3-5.2-1c-1.4-0.6-2.6-1.6-3.4-2.7
			c-0.9-1.2-1.5-2.6-1.9-4.3c-0.4-1.7-0.6-3.5-0.6-5.5c0-4.3,1-7.6,2.9-10c1.9-2.3,4.8-3.5,8.5-3.5c1.9,0,3.4,0.2,4.5,0.5
			c1.1,0.3,2.2,0.7,3.1,1.2l-1.6,5.4c-0.8-0.4-1.6-0.7-2.3-0.9s-1.6-0.3-2.6-0.3c-1.8,0-3.2,0.6-4.2,1.8c-1,1.2-1.4,3.1-1.4,5.8
			c0,1.1,0.1,2.1,0.4,3c0.2,0.9,0.6,1.7,1.1,2.4c0.5,0.7,1.1,1.2,1.9,1.6c0.8,0.4,1.7,0.6,2.7,0.6c1.1,0,2.1-0.1,2.9-0.4
			c0.8-0.3,1.5-0.6,2.1-1L101.6,358.1z"/>
		<path class="st35" d="M105.5,335.6c1.4-0.6,3-1.1,4.8-1.5c1.9-0.4,3.8-0.5,5.9-0.5c1.8,0,3.2,0.2,4.4,0.6c1.2,0.4,2.1,1,2.8,1.8
			c0.7,0.8,1.2,1.7,1.5,2.8c0.3,1.1,0.4,2.3,0.4,3.7c0,1.5-0.1,3-0.2,4.5c-0.1,1.5-0.2,3-0.2,4.5c0,1.5,0,2.9,0.1,4.3
			s0.4,2.7,0.8,3.9h-5.4l-1.1-3.5h-0.3c-0.7,1.1-1.6,2-2.8,2.7c-1.2,0.8-2.8,1.1-4.7,1.1c-1.2,0-2.3-0.2-3.2-0.5
			c-1-0.4-1.8-0.9-2.4-1.5c-0.7-0.7-1.2-1.4-1.6-2.3c-0.4-0.9-0.6-1.9-0.6-3c0-1.6,0.3-2.9,1-4c0.7-1.1,1.7-1.9,3-2.6
			c1.3-0.7,2.9-1.1,4.7-1.4c1.8-0.3,3.9-0.3,6.1-0.2c0.2-1.9,0.1-3.3-0.4-4.1c-0.5-0.8-1.6-1.2-3.4-1.2c-1.3,0-2.7,0.1-4.2,0.4
			s-2.7,0.6-3.6,1.1L105.5,335.6z M113.9,354.6c1.3,0,2.4-0.3,3.2-0.9c0.8-0.6,1.4-1.2,1.7-1.9v-3.3c-1.1-0.1-2.1-0.1-3-0.1
			c-1,0.1-1.8,0.2-2.6,0.5c-0.7,0.2-1.3,0.6-1.8,1c-0.4,0.4-0.7,1-0.7,1.7c0,1,0.3,1.7,0.8,2.2C112.1,354.3,112.9,354.6,113.9,354.6
			z"/>
		<path class="st35" d="M128.6,334.2h3.5v-1.4c0-3.2,0.7-5.6,2-7c1.4-1.4,3.3-2.2,5.9-2.2c2.7,0,5,0.3,6.8,1l-1.3,5.3
			c-0.8-0.3-1.5-0.5-2.1-0.5c-0.6-0.1-1.2-0.1-1.9-0.1c-0.7,0-1.2,0.1-1.6,0.3c-0.4,0.2-0.7,0.5-0.9,0.9c-0.2,0.4-0.3,1-0.4,1.6
			c-0.1,0.6-0.1,1.4-0.1,2.2h5.6v5.6h-5.6v19.9h-6.6v-19.9h-3.5V334.2z"/>
	</g>
	<g>
		<path class="st35" d="M33.2,305.2h-3.1v8.7h-2.1v-8.7H25v-1.8h8.2V305.2z"/>
		<path class="st35" d="M40.2,309.4h-3.8v4.4h-2.1v-10.5h2.1v4.3h3.8v-4.3h2.1v10.5h-2.1V309.4z"/>
		<path class="st35" d="M49.8,303.3h1.9v6.8c0,0.7-0.1,1.3-0.3,1.8c-0.2,0.5-0.4,0.9-0.8,1.2c-0.3,0.3-0.7,0.6-1.2,0.7
			s-1,0.2-1.5,0.2c-2.7,0-4-1.2-4-3.6v-7h2.1v6.6c0,0.4,0,0.8,0.1,1c0.1,0.3,0.2,0.5,0.4,0.7c0.2,0.2,0.4,0.3,0.6,0.4
			c0.2,0.1,0.5,0.1,0.8,0.1c0.6,0,1.1-0.2,1.4-0.5c0.3-0.4,0.4-0.9,0.4-1.7V303.3z"/>
		<path class="st35" d="M53.5,303.4c0.2,0,0.5-0.1,0.7-0.1c0.3,0,0.5-0.1,0.8-0.1c0.3,0,0.5,0,0.8,0s0.5,0,0.7,0c0.5,0,1,0,1.4,0.1
			c0.5,0.1,0.9,0.2,1.3,0.5s0.7,0.5,0.9,0.9s0.3,0.9,0.3,1.4c0,0.9-0.2,1.6-0.6,2.1s-0.9,0.9-1.6,1.1l0.7,0.5l2.4,4H59l-2.4-4.1
			l-1.1-0.2v4.3h-2.1V303.4z M56.6,305c-0.2,0-0.4,0-0.6,0c-0.2,0-0.4,0-0.5,0.1v3h0.9c0.6,0,1-0.1,1.4-0.4s0.5-0.7,0.5-1.3
			c0-0.5-0.1-0.8-0.4-1.1C57.6,305.1,57.2,305,56.6,305z"/>
		<path class="st35" d="M67,311c0-0.3-0.1-0.6-0.4-0.8c-0.2-0.2-0.5-0.4-0.9-0.5s-0.7-0.3-1.2-0.5c-0.4-0.2-0.8-0.4-1.2-0.6
			s-0.6-0.6-0.9-1c-0.2-0.4-0.4-0.9-0.4-1.5c0-0.5,0.1-1,0.3-1.3s0.4-0.7,0.7-0.9s0.7-0.4,1.1-0.6c0.4-0.1,0.9-0.2,1.4-0.2
			c0.6,0,1.2,0.1,1.7,0.2c0.5,0.1,1,0.3,1.3,0.5l-0.6,1.7c-0.2-0.1-0.6-0.3-1-0.4c-0.4-0.1-0.9-0.2-1.4-0.2c-0.5,0-0.8,0.1-1.1,0.3
			c-0.3,0.2-0.4,0.4-0.4,0.8c0,0.3,0.1,0.5,0.4,0.8c0.2,0.2,0.5,0.4,0.9,0.6c0.4,0.2,0.7,0.3,1.2,0.5s0.8,0.4,1.2,0.7
			s0.6,0.6,0.9,0.9s0.4,0.8,0.4,1.4c0,0.6-0.1,1-0.3,1.4s-0.4,0.7-0.8,1c-0.3,0.3-0.7,0.5-1.2,0.6s-1,0.2-1.6,0.2
			c-0.8,0-1.4-0.1-2-0.2s-1-0.3-1.3-0.4l0.7-1.8c0.1,0.1,0.3,0.1,0.4,0.2c0.2,0.1,0.4,0.1,0.6,0.2c0.2,0.1,0.5,0.1,0.7,0.2
			c0.2,0,0.5,0.1,0.8,0.1c0.6,0,1.1-0.1,1.4-0.3C66.9,311.8,67,311.4,67,311z"/>
		<path class="st35" d="M75.3,303.3h2.1v7.7c0,0.4,0,0.8-0.1,1.1c-0.1,0.4-0.2,0.7-0.4,1c-0.2,0.3-0.5,0.5-0.8,0.7
			c-0.3,0.2-0.7,0.2-1.2,0.2c-0.3,0-0.6,0-0.9-0.1c-0.3-0.1-0.6-0.1-0.9-0.3l0.5-1.7c0.3,0.1,0.6,0.2,0.9,0.2c0.4,0,0.7-0.2,0.8-0.5
			c0.1-0.3,0.2-0.7,0.2-1.2V303.3z"/>
		<path class="st35" d="M84.4,311.5h-3.2l-0.8,2.3h-2.1l3.8-10.6h1.5l3.8,10.6h-2.2L84.4,311.5z M81.7,309.9H84l-0.8-2.3l-0.3-1.6
			h-0.1l-0.3,1.7L81.7,309.9z"/>
		<path class="st35" d="M90.9,308.4l-0.8-1.7H90l0.2,1.7v5.5h-2v-10.6h1.5l4,5.6l0.8,1.6h0.1l-0.2-1.6v-5.5h2v10.6h-1.5L90.9,308.4z
			"/>
		<path class="st35" d="M102.6,312.2h2.1v-5.9l0.2-1l-0.7,0.9l-1.3,0.9l-0.8-1.1l3.4-2.8h1.1v9h2v1.7h-6V312.2z"/>
		<path class="st35" d="M117.4,310.6c0,0.5-0.1,0.9-0.2,1.4s-0.4,0.8-0.7,1.1c-0.3,0.3-0.7,0.6-1.1,0.7c-0.4,0.2-0.9,0.3-1.4,0.3
			c-0.5,0-1-0.1-1.4-0.2c-0.4-0.2-0.8-0.4-1.1-0.7s-0.6-0.7-0.8-1.2c-0.2-0.5-0.3-1.1-0.3-1.7c0-1,0.1-1.9,0.4-2.7
			c0.3-0.8,0.7-1.5,1.2-2.1c0.5-0.6,1-1.1,1.7-1.4c0.6-0.4,1.3-0.6,2-0.7l0.4,1.5c-0.5,0.1-1,0.2-1.4,0.5c-0.4,0.2-0.8,0.5-1.1,0.8
			c-0.3,0.3-0.6,0.7-0.8,1.1c-0.2,0.4-0.4,0.8-0.5,1.2c0.2-0.2,0.5-0.5,0.8-0.6c0.3-0.2,0.7-0.3,1.2-0.3c0.5,0,0.9,0.1,1.2,0.2
			c0.4,0.1,0.7,0.3,1,0.6c0.3,0.3,0.5,0.6,0.6,1C117.3,309.6,117.4,310.1,117.4,310.6z M115.5,310.7c0-1.1-0.5-1.7-1.7-1.7
			c-0.4,0-0.7,0.1-1,0.3c-0.3,0.2-0.5,0.4-0.6,0.6c0,0.1,0,0.2,0,0.3s0,0.2,0,0.2c0,0.2,0,0.5,0.1,0.7c0.1,0.2,0.2,0.4,0.3,0.6
			c0.1,0.2,0.3,0.3,0.5,0.5s0.5,0.2,0.8,0.2c0.5,0,0.9-0.2,1.1-0.5S115.5,311.2,115.5,310.7z"/>
		<path class="st35" d="M129,305.9c0,0.5-0.1,1-0.3,1.5c-0.2,0.5-0.4,1-0.7,1.5c-0.3,0.5-0.6,1-0.9,1.4c-0.3,0.5-0.7,0.9-1,1.3
			l-0.8,0.6v0.1l1.1-0.2h2.9v1.7h-6.3v-1c0.2-0.2,0.5-0.5,0.8-0.9c0.3-0.3,0.6-0.7,0.9-1.1c0.3-0.4,0.6-0.8,0.9-1.2
			c0.3-0.4,0.6-0.8,0.8-1.2c0.2-0.4,0.4-0.8,0.5-1.2s0.2-0.7,0.2-1.1c0-0.4-0.1-0.7-0.4-1c-0.2-0.3-0.6-0.4-1.1-0.4
			c-0.3,0-0.6,0.1-1,0.2c-0.3,0.1-0.6,0.3-0.8,0.5l-0.8-1.4c0.4-0.3,0.8-0.6,1.3-0.8c0.5-0.2,1.1-0.3,1.7-0.3c0.4,0,0.8,0.1,1.2,0.2
			c0.4,0.1,0.7,0.3,0.9,0.5c0.3,0.2,0.5,0.5,0.6,0.9C128.9,305,129,305.4,129,305.9z"/>
		<path class="st35" d="M131,308.6c0-1.8,0.3-3.2,0.9-4.1c0.6-0.9,1.5-1.3,2.7-1.3c1.3,0,2.2,0.4,2.8,1.3c0.6,0.9,0.9,2.3,0.9,4.1
			c0,1.8-0.3,3.2-1,4.1c-0.6,0.9-1.5,1.3-2.7,1.3c-1.2,0-2.2-0.5-2.8-1.4C131.3,311.7,131,310.3,131,308.6z M132.9,308.6
			c0,1.2,0.1,2.2,0.4,2.8c0.3,0.7,0.7,1,1.3,1c0.6,0,1-0.3,1.3-0.9c0.3-0.6,0.4-1.6,0.4-2.9c0-1.2-0.1-2.1-0.4-2.8s-0.7-1-1.3-1
			c-0.6,0-1,0.3-1.3,0.9C133.1,306.3,132.9,307.3,132.9,308.6z"/>
		<path class="st35" d="M146,305.9c0,0.5-0.1,1-0.3,1.5c-0.2,0.5-0.4,1-0.7,1.5c-0.3,0.5-0.6,1-0.9,1.4c-0.3,0.5-0.7,0.9-1,1.3
			l-0.8,0.6v0.1l1.1-0.2h2.9v1.7h-6.3v-1c0.2-0.2,0.5-0.5,0.8-0.9c0.3-0.3,0.6-0.7,0.9-1.1c0.3-0.4,0.6-0.8,0.9-1.2
			c0.3-0.4,0.6-0.8,0.8-1.2c0.2-0.4,0.4-0.8,0.5-1.2s0.2-0.7,0.2-1.1c0-0.4-0.1-0.7-0.4-1c-0.2-0.3-0.6-0.4-1.1-0.4
			c-0.3,0-0.6,0.1-1,0.2c-0.3,0.1-0.6,0.3-0.8,0.5l-0.8-1.4c0.4-0.3,0.8-0.6,1.3-0.8c0.5-0.2,1.1-0.3,1.7-0.3c0.4,0,0.8,0.1,1.2,0.2
			c0.4,0.1,0.7,0.3,0.9,0.5c0.3,0.2,0.5,0.5,0.6,0.9C145.9,305,146,305.4,146,305.9z"/>
		<path class="st35" d="M148,308.6c0-1.8,0.3-3.2,0.9-4.1c0.6-0.9,1.5-1.3,2.7-1.3c1.3,0,2.2,0.4,2.8,1.3c0.6,0.9,0.9,2.3,0.9,4.1
			c0,1.8-0.3,3.2-1,4.1c-0.6,0.9-1.5,1.3-2.7,1.3c-1.2,0-2.2-0.5-2.8-1.4C148.3,311.7,148,310.3,148,308.6z M149.9,308.6
			c0,1.2,0.1,2.2,0.4,2.8s0.7,1,1.3,1c0.6,0,1-0.3,1.3-0.9c0.3-0.6,0.4-1.6,0.4-2.9c0-1.2-0.1-2.1-0.4-2.8s-0.7-1-1.3-1
			c-0.6,0-1,0.3-1.3,0.9S149.9,307.3,149.9,308.6z"/>
	</g>
</g>
</svg>
