<?xml version="1.0" encoding="utf-8"?>
<!-- Generator: Adobe Illustrator 22.1.0, SVG Export Plug-In . SVG Version: 6.00 Build 0)  -->
<svg version="1.1" id="Layer_1" xmlns="http://www.w3.org/2000/svg" xmlns:xlink="http://www.w3.org/1999/xlink" x="0px" y="0px"
	 viewBox="0 0 320 390" style="enable-background:new 0 0 320 390;" xml:space="preserve">
<style type="text/css">
	.st0{fill:#FFFFFF;}
	.st1{fill:url(#Bg_1_);}
	.st2{fill:#066634;}
	.st3{fill-opacity:0.1;}
	.st4{fill:#FFFFFF;filter:url(#Adobe_OpacityMaskFilter);}
	.st5{mask:url(#mask0_1_);}
</style>
<g id="Event_Card">
	<g id="Rectangle_6">
		<path class="st0" d="M40,1.8h240c21,0,38,17,38,38v311c0,21-17,38-38,38H40c-21,0-38-17-38-38v-311C2,18.8,19,1.8,40,1.8z"/>
	</g>
	<g id="Object">
		
			<linearGradient id="Bg_1_" gradientUnits="userSpaceOnUse" x1="-43.2338" y1="85.9766" x2="363.2342" y2="305.3636" gradientTransform="matrix(1 0 0 -1 0 391)">
			<stop  offset="0" style="stop-color:#21A44A"/>
			<stop  offset="0.9948" style="stop-color:#5BBB6A"/>
		</linearGradient>
		<path id="Bg" class="st1" d="M40,1.8h240c21,0,38,17,38,38v311c0,21-17,38-38,38H40c-21,0-38-17-38-38v-311C2,18.8,19,1.8,40,1.8z
			"/>
		<g id="Group_2_1_">
			<g id="Group">
				<path id="Vector" class="st2" d="M270.2,142H60v105.8h210.2V142z"/>
			</g>
			<g id="text">
				<g id="Group_2">
					<g id="Group_3">
						<g id="Group_4">
							<path id="Vector_2" class="st0" d="M92.7,161v3.9h-9v5.1h6.9v3.8h-6.9v5.2h9v3.9H78.6V161H92.7L92.7,161z"/>
							<path id="Vector_3" class="st0" d="M100.2,161c0.1,0,0.3,0.1,0.4,0.1c0.1,0.1,0.2,0.1,0.4,0.2c0.1,0.1,0.2,0.2,0.4,0.4
								l10.4,13.2c0-0.4-0.1-0.8-0.1-1.2s0-0.8,0-1.1V161h4.5V183h-2.6c-0.4,0-0.7-0.1-1-0.2c-0.3-0.1-0.5-0.4-0.8-0.7L101.3,169
								c0,0.4,0.1,0.7,0.1,1.1c0,0.4,0,0.7,0,1v11.7H97V161h2.7C99.9,161,100,161,100.2,161z"/>
							<path id="Vector_4" class="st0" d="M131.5,179.3c0.7,0,1.3-0.1,1.9-0.2c0.5-0.1,1.1-0.3,1.6-0.5v-3.3h-2.2
								c-0.3,0-0.6-0.1-0.7-0.2c-0.2-0.2-0.3-0.4-0.3-0.6v-2.8h7.8v9.3c-0.6,0.4-1.2,0.8-1.8,1.1c-0.6,0.3-1.3,0.5-1.9,0.7
								c-0.7,0.2-1.4,0.3-2.2,0.4c-0.8,0.1-1.6,0.1-2.5,0.1c-1.6,0-3.1-0.3-4.4-0.8c-1.4-0.6-2.5-1.3-3.6-2.4c-1-1-1.8-2.2-2.4-3.6
								c-0.6-1.4-0.8-2.9-0.8-4.5c0-1.6,0.3-3.1,0.8-4.5c0.5-1.4,1.3-2.5,2.3-3.6c1-1,2.2-1.8,3.7-2.3c1.4-0.6,3-0.8,4.8-0.8
								c0.9,0,1.8,0.1,2.6,0.2c0.8,0.1,1.6,0.4,2.2,0.6c0.7,0.2,1.3,0.6,1.9,0.9c0.6,0.4,1.1,0.7,1.5,1.2l-1.5,2.3
								c-0.1,0.2-0.3,0.4-0.5,0.5c-0.2,0.1-0.4,0.2-0.6,0.2c-0.3,0-0.6-0.1-0.9-0.3c-0.4-0.2-0.8-0.5-1.1-0.6
								c-0.4-0.2-0.7-0.3-1.1-0.4c-0.4-0.1-0.8-0.2-1.2-0.2c-0.4,0-0.9-0.1-1.4-0.1c-1,0-1.8,0.2-2.6,0.5c-0.8,0.4-1.4,0.8-1.9,1.4
								c-0.5,0.6-1,1.3-1.2,2.2c-0.3,0.8-0.4,1.8-0.4,2.9c0,1.2,0.2,2.2,0.5,3.1c0.3,0.9,0.8,1.7,1.3,2.3c0.6,0.6,1.2,1.1,2,1.4
								C129.7,179.1,130.5,179.3,131.5,179.3z"/>
							<path id="Vector_5" class="st0" d="M149.5,182.9h-5.1V161h5.1V182.9z"/>
							<path id="Vector_6" class="st0" d="M158.2,161c0.1,0,0.3,0.1,0.4,0.1c0.1,0.1,0.2,0.1,0.4,0.2c0.1,0.1,0.2,0.2,0.4,0.4
								l10.4,13.2c0-0.4-0.1-0.8-0.1-1.2c0-0.4,0-0.8,0-1.1V161h4.5V183h-2.6c-0.4,0-0.7-0.1-1-0.2c-0.3-0.1-0.5-0.4-0.8-0.7
								L159.4,169c0,0.4,0.1,0.7,0.1,1.1c0,0.4,0,0.7,0,1v11.7H155V161h2.7C157.9,161,158.1,161,158.2,161z"/>
							<path id="Vector_7" class="st0" d="M193.3,161v3.9h-9v5.1h6.9v3.8h-6.9v5.2h9v3.9h-14.1V161H193.3L193.3,161z"/>
							<path id="Vector_8" class="st0" d="M211.7,161v3.9h-9v5.1h6.9v3.8h-6.9v5.2h9v3.9h-14.1V161H211.7L211.7,161z"/>
							<path id="Vector_9" class="st0" d="M221,174.8v8.1H216V161h7.1c1.6,0,2.9,0.2,4.1,0.5c1.1,0.3,2,0.8,2.8,1.4
								c0.7,0.6,1.2,1.3,1.6,2c0.3,0.8,0.5,1.7,0.5,2.6c0,0.7-0.1,1.4-0.3,2c-0.2,0.6-0.5,1.2-0.8,1.8c-0.4,0.5-0.8,1-1.4,1.4
								c-0.6,0.4-1.2,0.8-1.9,1c0.4,0.2,0.7,0.4,1,0.6c0.3,0.2,0.6,0.6,0.8,0.9l4.7,7.6h-4.6c-0.8,0-1.5-0.3-1.8-1l-3.6-6.4
								c-0.2-0.3-0.4-0.5-0.6-0.6c-0.2-0.1-0.5-0.2-0.9-0.2L221,174.8L221,174.8z M221,171.3h2c0.7,0,1.3-0.1,1.8-0.2
								c0.5-0.2,0.9-0.4,1.2-0.7c0.3-0.3,0.5-0.7,0.7-1.1c0.1-0.4,0.2-0.9,0.2-1.3c0-1-0.3-1.7-1-2.3c-0.6-0.5-1.6-0.8-2.9-0.8h-2
								V171.3z"/>
							<path id="Vector_10" class="st0" d="M249.6,165.4c-0.1,0.2-0.3,0.4-0.5,0.5c-0.2,0.1-0.4,0.2-0.6,0.2c-0.2,0-0.5-0.1-0.7-0.2
								c-0.3-0.1-0.6-0.3-0.9-0.5c-0.4-0.2-0.7-0.4-1.2-0.5c-0.4-0.1-0.9-0.2-1.5-0.2c-1,0-1.7,0.2-2.1,0.6c-0.5,0.4-0.7,1-0.7,1.7
								c0,0.5,0.1,0.8,0.4,1.1c0.3,0.3,0.6,0.5,1.1,0.7c0.5,0.2,1,0.4,1.6,0.6c0.6,0.2,1.2,0.4,1.8,0.6c0.6,0.2,1.2,0.5,1.8,0.8
								c0.6,0.3,1.1,0.7,1.6,1.1c0.5,0.5,0.8,1,1.1,1.7c0.3,0.6,0.4,1.4,0.4,2.3c0,1-0.2,2-0.5,2.9c-0.4,0.9-0.8,1.7-1.5,2.3
								c-0.7,0.7-1.5,1.2-2.5,1.6c-1,0.4-2.1,0.6-3.4,0.6c-0.7,0-1.4-0.1-2.1-0.2c-0.7-0.1-1.4-0.4-2-0.6c-0.7-0.2-1.3-0.6-1.9-0.9
								c-0.6-0.4-1.1-0.7-1.5-1.2l1.5-2.4c0.1-0.2,0.3-0.3,0.5-0.4c0.2-0.1,0.4-0.2,0.6-0.2c0.3,0,0.6,0.1,0.9,0.3
								c0.3,0.2,0.6,0.4,1,0.6c0.4,0.2,0.8,0.5,1.3,0.6c0.5,0.2,1.1,0.3,1.8,0.3c0.9,0,1.7-0.2,2.2-0.6c0.5-0.4,0.8-1.1,0.8-1.9
								c0-0.5-0.1-0.9-0.4-1.2c-0.3-0.3-0.6-0.6-1.1-0.8c-0.5-0.2-1-0.4-1.6-0.6c-0.6-0.2-1.2-0.4-1.8-0.5c-0.6-0.2-1.2-0.4-1.8-0.7
								c-0.6-0.3-1.1-0.7-1.6-1.1c-0.5-0.5-0.8-1.1-1.1-1.8c-0.3-0.7-0.4-1.6-0.4-2.6c0-0.8,0.2-1.6,0.5-2.4
								c0.3-0.8,0.8-1.5,1.4-2.1c0.6-0.6,1.4-1.1,2.4-1.5c0.9-0.4,2-0.6,3.2-0.6c0.7,0,1.3,0,2,0.1c0.6,0.1,1.2,0.2,1.8,0.5
								c0.6,0.2,1.1,0.5,1.6,0.7c0.5,0.3,1,0.6,1.3,1L249.6,165.4z"/>
						</g>
					</g>
					<g id="Group_5">
						<g id="Group_6">
							<path id="Vector_11" class="st0" d="M96.2,199.9c0,1.3-0.2,2.5-0.7,3.7c-0.5,1.1-1.1,2.1-1.9,3c-0.8,0.8-1.8,1.5-3,2
								c-1.2,0.5-2.4,0.7-3.9,0.7s-2.7-0.2-3.9-0.7c-1.2-0.5-2.2-1.1-3-2c-0.8-0.8-1.5-1.8-1.9-3c-0.5-1.1-0.7-2.4-0.7-3.7
								c0-1.3,0.2-2.5,0.7-3.7c0.5-1.1,1.1-2.1,1.9-3c0.8-0.8,1.8-1.5,3-2c1.2-0.5,2.5-0.7,3.9-0.7c1.4,0,2.7,0.2,3.9,0.7
								c1.2,0.5,2.2,1.1,3,2c0.8,0.8,1.4,1.8,1.9,3C96,197.3,96.2,198.6,96.2,199.9z M91.9,199.9c0-0.9-0.1-1.7-0.4-2.4
								c-0.2-0.7-0.6-1.3-1-1.8c-0.4-0.5-1-0.9-1.6-1.2c-0.6-0.3-1.3-0.4-2.2-0.4c-0.8,0-1.6,0.1-2.2,0.4c-0.6,0.3-1.2,0.6-1.6,1.2
								c-0.4,0.5-0.8,1.1-1,1.8c-0.2,0.7-0.4,1.5-0.4,2.4c0,0.9,0.1,1.7,0.4,2.4c0.2,0.7,0.6,1.3,1,1.8c0.4,0.5,1,0.9,1.6,1.1
								c0.6,0.2,1.4,0.4,2.2,0.4c0.8,0,1.5-0.1,2.2-0.4s1.2-0.6,1.6-1.1c0.4-0.5,0.8-1.1,1-1.8C91.8,201.6,91.9,200.8,91.9,199.9z"
								/>
							<path id="Vector_12" class="st0" d="M100.9,190.8c0.1,0,0.2,0,0.4,0.1c0.1,0,0.2,0.1,0.3,0.2c0.1,0.1,0.2,0.2,0.3,0.4
								l8.6,10.9c0-0.4-0.1-0.7-0.1-1c0-0.3,0-0.6,0-0.9v-9.6h3.7V209h-2.2c-0.3,0-0.6,0-0.8-0.1c-0.2-0.1-0.5-0.3-0.6-0.6
								l-8.6-10.8c0,0.3,0,0.6,0.1,0.9c0,0.3,0,0.6,0,0.8v9.7h-3.7v-18.2h2.2C100.6,190.8,100.8,190.8,100.9,190.8z"/>
							<path id="Vector_13" class="st0" d="M135.1,190.8v3.4H130V209h-4.2v-14.9h-5.1v-3.4H135.1z"/>
							<path id="Vector_14" class="st0" d="M152.7,209h-4.2v-7.7h-7.4v7.7h-4.2v-18.2h4.2v7.6h7.4v-7.6h4.2V209z"/>
							<path id="Vector_15" class="st0" d="M167.4,190.8v3.2H160v4.2h5.7v3.1H160v4.3h7.5v3.2h-11.7v-18.2L167.4,190.8L167.4,190.8z
								"/>
							<path id="Vector_16" class="st0" d="M183.2,205.9c0.6,0,1.1,0,1.6-0.1c0.5-0.1,0.9-0.2,1.3-0.4v-2.8h-1.8
								c-0.3,0-0.5-0.1-0.6-0.2c-0.1-0.1-0.2-0.3-0.2-0.5v-2.3h6.5v7.7c-0.5,0.4-1,0.6-1.4,0.9c-0.5,0.2-1,0.5-1.6,0.6
								c-0.6,0.1-1.2,0.3-1.8,0.4c-0.6,0.1-1.3,0.1-2.1,0.1c-1.3,0-2.6-0.2-3.7-0.7c-1.1-0.5-2.1-1.1-2.9-1.9
								c-0.8-0.8-1.5-1.8-1.9-3c-0.5-1.1-0.7-2.4-0.7-3.7c0-1.3,0.2-2.6,0.7-3.7c0.5-1.1,1.1-2.1,1.9-2.9c0.8-0.8,1.8-1.5,3-1.9
								c1.2-0.5,2.5-0.7,4-0.7c0.7,0,1.5,0.1,2.2,0.2c0.7,0.1,1.3,0.3,1.8,0.5c0.6,0.2,1.1,0.5,1.6,0.8c0.5,0.3,0.9,0.6,1.2,1
								l-1.2,1.9c-0.1,0.2-0.2,0.3-0.4,0.4c-0.2,0.1-0.4,0.1-0.5,0.1c-0.2,0-0.5-0.1-0.8-0.2c-0.3-0.2-0.6-0.4-1-0.5
								c-0.3-0.1-0.6-0.2-0.9-0.4c-0.3-0.1-0.6-0.1-1-0.2c-0.4,0-0.7-0.1-1.2-0.1c-0.8,0-1.5,0.1-2.2,0.4c-0.6,0.3-1.2,0.7-1.6,1.2
								c-0.5,0.5-0.8,1.1-1,1.8c-0.2,0.7-0.4,1.5-0.4,2.4c0,1,0.1,1.8,0.4,2.6c0.2,0.7,0.6,1.4,1.1,1.9c0.5,0.5,1,0.9,1.7,1.2
								C181.6,205.8,182.5,205.9,183.2,205.9z"/>
							<path id="Vector_17" class="st0" d="M196.7,202.2v6.7h-4.2v-18.2h5.9c1.3,0,2.4,0.1,3.4,0.4c0.9,0.3,1.7,0.6,2.3,1.1
								c0.6,0.5,1,1.1,1.3,1.7c0.3,0.7,0.4,1.4,0.4,2.2c0,0.6-0.1,1.2-0.2,1.7c-0.2,0.5-0.4,1-0.7,1.4c-0.3,0.5-0.7,0.8-1.2,1.2
								c-0.5,0.4-1,0.6-1.6,0.8c0.3,0.1,0.6,0.3,0.8,0.5c0.2,0.2,0.5,0.5,0.6,0.8l3.9,6.3h-3.8c-0.7,0-1.2-0.3-1.5-0.8l-3-5.3
								c-0.1-0.2-0.3-0.4-0.5-0.5c-0.2-0.1-0.4-0.1-0.7-0.1L196.7,202.2L196.7,202.2z M196.7,199.3h1.7c0.6,0,1.1-0.1,1.5-0.2
								c0.4-0.1,0.7-0.4,1-0.6c0.2-0.2,0.5-0.6,0.6-0.9c0.1-0.4,0.2-0.7,0.2-1.1c0-0.8-0.2-1.4-0.8-1.9c-0.5-0.5-1.3-0.7-2.4-0.7
								h-1.7L196.7,199.3L196.7,199.3z"/>
							<path id="Vector_18" class="st0" d="M220.8,190.8v3.2h-7.5v4.2h5.7v3.1h-5.7v4.3h7.5v3.2H209v-18.2L220.8,190.8L220.8,190.8z
								"/>
							<path id="Vector_19" class="st0" d="M234.9,190.8v3.2h-7.5v4.2h5.7v3.1h-5.7v4.3h7.5v3.2h-11.7v-18.2L234.9,190.8
								L234.9,190.8z"/>
							<path id="Vector_20" class="st0" d="M239.9,190.8c0.1,0,0.2,0,0.4,0.1c0.1,0,0.2,0.1,0.3,0.2c0.1,0.1,0.2,0.2,0.3,0.4
								l8.6,10.9c0-0.4-0.1-0.7-0.1-1c0-0.3,0-0.6,0-0.9v-9.6h3.7V209H251c-0.3,0-0.6,0-0.8-0.1c-0.2-0.1-0.5-0.3-0.6-0.6l-8.6-10.8
								c0,0.3,0,0.6,0.1,0.9c0,0.3,0,0.6,0,0.8v9.7h-3.8v-18.2h2.2C239.7,190.8,239.8,190.8,239.9,190.8z"/>
						</g>
					</g>
					<g id="Group_7">
						<g id="Group_8">
							<path id="Vector_21" class="st0" d="M80.4,224.7c0,0.4,0,0.8-0.1,1.1c-0.1,0.3-0.2,0.6-0.5,0.8c-0.2,0.2-0.5,0.4-0.7,0.5
								c-0.3,0.1-0.6,0.2-1.1,0.2c-0.2,0-0.4,0-0.5,0c-0.2,0-0.4-0.1-0.6-0.1l0.1-0.8c0-0.1,0-0.1,0.1-0.2c0,0,0.1-0.1,0.2-0.1
								c0.1,0,0.1,0,0.2,0c0.1,0,0.2,0,0.4,0c0.2,0,0.4,0,0.5-0.1c0.1-0.1,0.3-0.1,0.4-0.3c0.1-0.1,0.2-0.3,0.2-0.5
								c0-0.2,0.1-0.4,0.1-0.7V220h1.4L80.4,224.7L80.4,224.7z"/>
							<path id="Vector_22" class="st0" d="M85.9,227.3h-0.6c-0.1,0-0.2,0-0.3-0.1c-0.1-0.1-0.1-0.1-0.1-0.2l-0.1-0.4
								c-0.1,0.1-0.2,0.2-0.4,0.3s-0.2,0.2-0.4,0.2c-0.1,0-0.3,0.1-0.4,0.1c-0.1,0-0.3,0-0.5,0c-0.2,0-0.4,0-0.6-0.1
								c-0.2-0.1-0.4-0.1-0.5-0.3c-0.1-0.1-0.2-0.3-0.3-0.5c-0.1-0.2-0.1-0.4-0.1-0.6c0-0.2,0-0.4,0.1-0.6c0.1-0.2,0.3-0.4,0.5-0.5
								c0.2-0.1,0.6-0.3,1-0.4s0.9-0.1,1.5-0.1V224c0-0.4-0.1-0.6-0.2-0.8c-0.1-0.2-0.4-0.2-0.6-0.2c-0.2,0-0.4,0-0.5,0.1
								c-0.1,0-0.2,0.1-0.4,0.2c-0.1,0.1-0.2,0.1-0.3,0.2c-0.1,0-0.2,0.1-0.3,0.1c-0.1,0-0.1,0-0.2-0.1c-0.1,0-0.1-0.1-0.1-0.2
								l-0.2-0.4c0.6-0.5,1.3-0.8,2.2-0.8c0.3,0,0.6,0,0.8,0.1s0.4,0.2,0.6,0.4c0.2,0.2,0.3,0.4,0.4,0.6c0.1,0.2,0.1,0.5,0.1,0.8
								L85.9,227.3L85.9,227.3z M83.5,226.5c0.1,0,0.2,0,0.4,0c0.1,0,0.2-0.1,0.3-0.1c0.1,0,0.2-0.1,0.3-0.2
								c0.1-0.1,0.2-0.1,0.3-0.2v-0.8c-0.4,0-0.7,0-0.9,0.1c-0.2,0-0.5,0.1-0.6,0.2c-0.1,0.1-0.2,0.1-0.3,0.2
								c-0.1,0.1-0.1,0.2-0.1,0.3c0,0.2,0.1,0.4,0.2,0.5C83.1,226.5,83.3,226.5,83.5,226.5z"/>
							<path id="Vector_23" class="st0" d="M87.2,227.3v-5.2h0.8c0.2,0,0.3,0.1,0.3,0.2l0.1,0.4c0.1-0.1,0.2-0.2,0.3-0.3
								c0.1-0.1,0.2-0.2,0.4-0.2c0.1,0,0.3-0.1,0.4-0.1c0.1,0,0.3,0,0.5,0c0.3,0,0.5,0,0.7,0.1c0.2,0.1,0.4,0.2,0.6,0.4
								c0.1,0.2,0.2,0.4,0.3,0.6c0.1,0.2,0.1,0.5,0.1,0.8v3.3h-1.2v-3.3c0-0.3-0.1-0.6-0.2-0.7c-0.1-0.2-0.4-0.2-0.7-0.2
								c-0.2,0-0.4,0-0.6,0.1c-0.2,0.1-0.4,0.2-0.5,0.4v3.7L87.2,227.3L87.2,227.3z"/>
							<path id="Vector_24" class="st0" d="M99.7,220v0.5c0,0.2,0,0.3-0.1,0.4c0,0.1-0.1,0.2-0.1,0.2l-2.8,5.7
								c-0.1,0.1-0.1,0.2-0.2,0.3c-0.1,0.1-0.2,0.1-0.4,0.1h-0.9l2.8-5.6c0.1-0.2,0.2-0.4,0.4-0.6h-3.5c-0.1,0-0.1,0-0.2-0.1
								c-0.1-0.1-0.1-0.1-0.1-0.2V220H99.7z"/>
							<path id="Vector_25" class="st0" d="M105,219.9c0.4,0,0.6,0,0.9,0.1c0.3,0.1,0.5,0.2,0.7,0.4c0.2,0.2,0.4,0.4,0.5,0.7
								c0.1,0.2,0.2,0.5,0.2,0.8c0,0.3,0,0.5-0.1,0.7c-0.1,0.2-0.2,0.5-0.3,0.7c-0.1,0.2-0.3,0.4-0.5,0.6c-0.2,0.2-0.4,0.4-0.6,0.6
								l-1.7,1.7c0.2,0,0.3-0.1,0.5-0.1c0.1,0,0.3,0,0.5,0h1.9c0.1,0,0.2,0,0.3,0.1c0.1,0.1,0.1,0.2,0.1,0.3v0.7h-5v-0.4
								c0-0.1,0-0.2,0.1-0.2c0-0.1,0.1-0.2,0.2-0.2l2.2-2.2c0.2-0.2,0.4-0.4,0.5-0.5c0.1-0.2,0.3-0.4,0.4-0.5
								c0.1-0.2,0.2-0.4,0.2-0.5c0-0.2,0.1-0.4,0.1-0.6c0-0.2,0-0.3-0.1-0.5c0-0.1-0.1-0.2-0.2-0.4s-0.2-0.2-0.4-0.2
								s-0.3-0.1-0.4-0.1c-0.3,0-0.6,0.1-0.7,0.2c-0.2,0.1-0.3,0.4-0.4,0.6c0,0.1-0.1,0.2-0.2,0.3c-0.1,0.1-0.2,0.1-0.3,0.1
								c0,0-0.1,0-0.2,0l-0.7-0.1c0-0.4,0.1-0.7,0.3-0.9c0.1-0.3,0.3-0.5,0.5-0.7c0.2-0.2,0.5-0.3,0.7-0.4
								C104.4,219.9,104.7,219.9,105,219.9z"/>
							<path id="Vector_26" class="st0" d="M113.5,223.7c0,0.6-0.1,1.2-0.2,1.7c-0.1,0.5-0.3,0.8-0.6,1.2c-0.2,0.3-0.5,0.5-0.8,0.7
								c-0.3,0.1-0.7,0.2-1.1,0.2s-0.7-0.1-1.1-0.2c-0.3-0.1-0.6-0.4-0.8-0.7c-0.2-0.3-0.4-0.7-0.6-1.2c-0.1-0.5-0.2-1-0.2-1.7
								c0-0.6,0.1-1.2,0.2-1.7c0.1-0.5,0.3-0.8,0.6-1.2c0.2-0.3,0.5-0.5,0.8-0.7c0.3-0.1,0.7-0.2,1.1-0.2s0.7,0.1,1.1,0.2
								c0.3,0.1,0.6,0.4,0.8,0.7c0.2,0.3,0.4,0.7,0.6,1.2C113.4,222.5,113.5,223,113.5,223.7z M112.2,223.7c0-0.5,0-1-0.1-1.3
								c-0.1-0.4-0.2-0.6-0.3-0.8c-0.1-0.2-0.3-0.4-0.5-0.4c-0.2-0.1-0.4-0.1-0.5-0.1c-0.2,0-0.4,0-0.5,0.1
								c-0.2,0.1-0.3,0.2-0.5,0.4c-0.1,0.2-0.2,0.5-0.3,0.8c-0.1,0.4-0.1,0.8-0.1,1.3c0,0.5,0,1,0.1,1.3c0.1,0.4,0.2,0.6,0.3,0.8
								c0.1,0.2,0.3,0.4,0.5,0.4c0.2,0.1,0.4,0.1,0.5,0.1c0.2,0,0.4,0,0.5-0.1c0.2-0.1,0.3-0.2,0.5-0.4c0.1-0.2,0.2-0.5,0.3-0.8
								C112.2,224.6,112.2,224.2,112.2,223.7z"/>
							<path id="Vector_27" class="st0" d="M115.1,226.4h1.5v-4.3c0-0.2,0-0.4,0-0.5l-1.1,0.9c0,0-0.1,0.1-0.1,0.1s-0.1,0-0.1,0
								c-0.1,0-0.1,0-0.2,0c-0.1,0-0.1-0.1-0.1-0.1l-0.4-0.5l2.2-1.9h1v6.4h1.3v1h-4.1L115.1,226.4L115.1,226.4z"/>
							<path id="Vector_28" class="st0" d="M122.3,224.4c-0.2,0-0.5,0-0.7-0.1c-0.2-0.1-0.5-0.2-0.6-0.4c-0.2-0.2-0.4-0.4-0.5-0.7
								c-0.1-0.2-0.2-0.6-0.2-0.9c0-0.3,0.1-0.6,0.2-0.9c0.1-0.3,0.3-0.5,0.5-0.7c0.2-0.2,0.5-0.4,0.8-0.5c0.3-0.1,0.6-0.2,1-0.2
								s0.7,0.1,1,0.2c0.3,0.1,0.6,0.3,0.8,0.5c0.2,0.2,0.4,0.5,0.5,0.8c0.1,0.3,0.2,0.6,0.2,1c0,0.2,0,0.4-0.1,0.6
								c0,0.2-0.1,0.4-0.2,0.6c-0.1,0.2-0.2,0.4-0.2,0.5c-0.1,0.2-0.2,0.4-0.4,0.5l-1.7,2.4c-0.1,0.1-0.1,0.1-0.2,0.2
								c-0.1,0.1-0.2,0.1-0.4,0.1h-1.2l2.3-2.9c0.1-0.1,0.1-0.1,0.2-0.2c0-0.1,0.1-0.1,0.1-0.2c-0.2,0.1-0.4,0.2-0.6,0.2
								C122.8,224.4,122.5,224.4,122.3,224.4z M124,222.2c0-0.2,0-0.4-0.1-0.5c-0.1-0.1-0.1-0.3-0.2-0.4c-0.1-0.1-0.2-0.2-0.4-0.2
								c-0.1-0.1-0.3-0.1-0.5-0.1c-0.2,0-0.4,0-0.5,0.1c-0.1,0.1-0.3,0.1-0.4,0.2s-0.2,0.2-0.2,0.4c-0.1,0.1-0.1,0.3-0.1,0.5
								c0,0.4,0.1,0.7,0.3,0.9c0.2,0.2,0.5,0.3,0.9,0.3c0.2,0,0.4,0,0.5-0.1c0.1-0.1,0.3-0.1,0.4-0.2c0.1-0.1,0.2-0.2,0.2-0.4
								C124,222.6,124,222.4,124,222.2z"/>
						</g>
					</g>
					<g id="Group_9">
						<g id="Group_10">
							<path id="Vector_29" class="st0" d="M129.1,224.1c0-0.2,0-0.4,0.1-0.6c0.1-0.2,0.2-0.3,0.3-0.5c0.1-0.1,0.3-0.2,0.5-0.3
								c0.2-0.1,0.4-0.1,0.6-0.1c0.2,0,0.4,0,0.6,0.1c0.2,0.1,0.3,0.1,0.5,0.3c0.1,0.1,0.2,0.3,0.3,0.4c0.1,0.2,0.1,0.4,0.1,0.6
								c0,0.2,0,0.4-0.1,0.6c-0.1,0.2-0.2,0.3-0.3,0.4c-0.1,0.1-0.3,0.2-0.5,0.3c-0.2,0.1-0.4,0.1-0.6,0.1c-0.2,0-0.4,0-0.6-0.1
								c-0.2-0.1-0.3-0.1-0.5-0.3c-0.1-0.1-0.2-0.3-0.3-0.4C129.1,224.6,129.1,224.4,129.1,224.1z"/>
						</g>
					</g>
					<g id="Group_11">
						<g id="Group_12">
							<path id="Vector_30" class="st0" d="M136.8,226.4h1.5v-4.3c0-0.2,0-0.4,0-0.5l-1.1,0.9c0,0-0.1,0.1-0.1,0.1c0,0-0.1,0-0.1,0
								c-0.1,0-0.1,0-0.2,0c-0.1,0-0.1-0.1-0.1-0.1l-0.4-0.5l2.2-1.9h1v6.4h1.3v1h-4.1L136.8,226.4L136.8,226.4z"/>
							<path id="Vector_31" class="st0" d="M144.4,219.9c0.4,0,0.6,0,0.9,0.1c0.3,0.1,0.5,0.2,0.7,0.4c0.2,0.2,0.4,0.4,0.5,0.7
								c0.1,0.2,0.2,0.5,0.2,0.8c0,0.3,0,0.5-0.1,0.7c-0.1,0.2-0.2,0.5-0.3,0.7c-0.1,0.2-0.3,0.4-0.5,0.6c-0.2,0.2-0.4,0.4-0.6,0.6
								l-1.7,1.7c0.2,0,0.3-0.1,0.5-0.1c0.1,0,0.3,0,0.5,0h1.9c0.1,0,0.2,0,0.3,0.1c0.1,0.1,0.1,0.2,0.1,0.3v0.7h-5v-0.4
								c0-0.1,0-0.2,0.1-0.2c0-0.1,0.1-0.2,0.2-0.2l2.2-2.2c0.2-0.2,0.4-0.4,0.5-0.5c0.1-0.2,0.3-0.4,0.4-0.5
								c0.1-0.2,0.2-0.4,0.2-0.5c0-0.2,0.1-0.4,0.1-0.6c0-0.2,0-0.3-0.1-0.5c0-0.1-0.1-0.2-0.2-0.4s-0.2-0.2-0.4-0.2
								s-0.3-0.1-0.4-0.1c-0.3,0-0.6,0.1-0.7,0.2c-0.2,0.1-0.3,0.4-0.4,0.6c0,0.1-0.1,0.2-0.2,0.3c-0.1,0.1-0.2,0.1-0.3,0.1
								c0,0-0.1,0-0.2,0l-0.7-0.1c0-0.4,0.1-0.7,0.3-0.9c0.1-0.3,0.3-0.5,0.5-0.7c0.2-0.2,0.5-0.3,0.7-0.4
								C143.7,219.9,144.1,219.9,144.4,219.9z"/>
							<path id="Vector_32" class="st0" d="M147.9,229v-6.9h0.8c0.1,0,0.1,0,0.2,0.1c0.1,0,0.1,0.1,0.1,0.2l0.1,0.5
								c0.2-0.2,0.5-0.4,0.7-0.6c0.2-0.2,0.6-0.2,1-0.2c0.3,0,0.5,0.1,0.8,0.2c0.2,0.1,0.4,0.3,0.6,0.5c0.2,0.2,0.3,0.5,0.4,0.8
								c0.1,0.4,0.1,0.7,0.1,1.1c0,0.4,0,0.7-0.1,1.1s-0.2,0.6-0.5,0.8c-0.2,0.2-0.4,0.4-0.7,0.6c-0.3,0.1-0.6,0.2-0.9,0.2
								c-0.3,0-0.5,0-0.7-0.1c-0.2-0.1-0.4-0.2-0.6-0.4v2.1L147.9,229L147.9,229z M150.3,223c-0.2,0-0.5,0.1-0.7,0.2
								c-0.2,0.1-0.4,0.2-0.5,0.5v2.3c0.1,0.2,0.3,0.3,0.5,0.4c0.2,0.1,0.4,0.1,0.5,0.1c0.2,0,0.4,0,0.5-0.1
								c0.1-0.1,0.3-0.2,0.4-0.3c0.1-0.1,0.2-0.3,0.2-0.6c0.1-0.2,0.1-0.5,0.1-0.8c0-0.3,0-0.6-0.1-0.8c0-0.2-0.1-0.4-0.2-0.5
								c-0.1-0.1-0.2-0.2-0.3-0.3C150.6,223,150.5,223,150.3,223z"/>
							<path id="Vector_33" class="st0" d="M153.6,227.3v-5.2h0.8c0.2,0,0.3,0.1,0.3,0.2l0.1,0.4c0.1-0.1,0.2-0.2,0.3-0.3
								c0.1-0.1,0.2-0.1,0.3-0.2c0.1-0.1,0.2-0.1,0.4-0.1c0.1,0,0.3-0.1,0.4-0.1c0.3,0,0.6,0.1,0.8,0.3c0.2,0.2,0.4,0.4,0.5,0.7
								c0.1-0.2,0.2-0.3,0.3-0.5c0.1-0.1,0.2-0.2,0.4-0.3c0.1-0.1,0.3-0.1,0.5-0.2c0.2,0,0.3-0.1,0.5-0.1c0.3,0,0.5,0,0.8,0.1
								c0.2,0.1,0.4,0.2,0.6,0.4c0.1,0.2,0.3,0.4,0.4,0.6c0.1,0.2,0.1,0.5,0.1,0.8v3.3h-1.2V224c0-0.3-0.1-0.6-0.2-0.7
								c-0.1-0.2-0.4-0.2-0.6-0.2c-0.1,0-0.2,0-0.4,0.1c-0.1,0-0.2,0.1-0.3,0.2c-0.1,0.1-0.1,0.2-0.2,0.3c0,0.1-0.1,0.3-0.1,0.4v3.3
								h-1.3V224c0-0.4-0.1-0.6-0.2-0.8c-0.1-0.1-0.4-0.2-0.6-0.2c-0.2,0-0.4,0-0.5,0.1c-0.1,0.1-0.3,0.2-0.4,0.4v3.8L153.6,227.3
								L153.6,227.3z"/>
							<path id="Vector_34" class="st0" d="M163.9,223.7h2.6v1.1h-2.6V223.7z"/>
							<path id="Vector_35" class="st0" d="M173.8,224.5h0.9v0.7c0,0.1,0,0.1-0.1,0.2c0,0-0.1,0.1-0.2,0.1h-0.7v1.8h-1.1v-1.8h-3.1
								c-0.1,0-0.1,0-0.2-0.1c-0.1,0-0.1-0.1-0.1-0.2l-0.1-0.6l3.5-4.6h1.2V224.5z M172.7,222.1c0-0.1,0-0.2,0-0.4
								c0-0.1,0-0.2,0-0.4l-2.3,3.1h2.2V222.1z"/>
							<path id="Vector_36" class="st0" d="M175.5,229v-6.9h0.8c0.1,0,0.1,0,0.2,0.1c0.1,0,0.1,0.1,0.1,0.2l0.1,0.5
								c0.2-0.2,0.5-0.4,0.7-0.6c0.3-0.1,0.6-0.2,1-0.2c0.3,0,0.5,0.1,0.8,0.2c0.2,0.1,0.4,0.3,0.6,0.5c0.2,0.2,0.3,0.5,0.4,0.8
								c0.1,0.3,0.1,0.7,0.1,1.1c0,0.4,0,0.7-0.1,1.1c-0.1,0.3-0.2,0.6-0.5,0.8c-0.2,0.2-0.4,0.4-0.7,0.6c-0.3,0.1-0.6,0.2-0.9,0.2
								c-0.3,0-0.5,0-0.7-0.1c-0.2-0.1-0.4-0.2-0.6-0.4v2.1L175.5,229L175.5,229z M178,223c-0.2,0-0.5,0.1-0.7,0.2
								c-0.2,0.1-0.4,0.2-0.5,0.5v2.3c0.1,0.2,0.3,0.3,0.5,0.4c0.2,0.1,0.4,0.1,0.5,0.1c0.2,0,0.4,0,0.5-0.1
								c0.1-0.1,0.3-0.2,0.4-0.3c0.1-0.1,0.2-0.3,0.2-0.6c0.1-0.2,0.1-0.5,0.1-0.8c0-0.3,0-0.6-0.1-0.8c0-0.2-0.1-0.4-0.2-0.5
								c-0.1-0.1-0.2-0.2-0.3-0.3C178.3,223,178.1,223,178,223z"/>
							<path id="Vector_37" class="st0" d="M181.3,227.3v-5.2h0.8c0.2,0,0.3,0.1,0.3,0.2l0.1,0.4c0.1-0.1,0.2-0.2,0.3-0.3
								c0.1-0.1,0.2-0.1,0.3-0.2c0.1-0.1,0.2-0.1,0.4-0.1c0.1,0,0.3-0.1,0.4-0.1c0.3,0,0.6,0.1,0.8,0.3c0.2,0.2,0.4,0.4,0.5,0.7
								c0.1-0.2,0.2-0.3,0.3-0.5c0.1-0.1,0.2-0.2,0.4-0.3c0.1-0.1,0.3-0.1,0.5-0.2c0.2,0,0.3-0.1,0.5-0.1c0.3,0,0.5,0,0.8,0.1
								c0.2,0.1,0.4,0.2,0.6,0.4c0.1,0.2,0.3,0.4,0.4,0.6c0.1,0.2,0.1,0.5,0.1,0.8v3.3h-1.2V224c0-0.3-0.1-0.6-0.2-0.7
								c-0.1-0.2-0.4-0.2-0.6-0.2c-0.1,0-0.2,0-0.4,0.1s-0.2,0.1-0.3,0.2c-0.1,0.1-0.1,0.2-0.2,0.3c0,0.1-0.1,0.3-0.1,0.4v3.3h-1.3
								V224c0-0.4-0.1-0.6-0.2-0.8c-0.1-0.1-0.4-0.2-0.6-0.2c-0.2,0-0.4,0-0.5,0.1c-0.1,0.1-0.3,0.2-0.4,0.4v3.8L181.3,227.3
								L181.3,227.3z"/>
						</g>
					</g>
					<g id="Group_13">
						<g id="Group_14">
							<path id="Vector_38" class="st0" d="M192.7,224.1c0-0.2,0-0.4,0.1-0.6c0.1-0.2,0.2-0.3,0.3-0.5c0.1-0.1,0.3-0.2,0.5-0.3
								c0.2-0.1,0.4-0.1,0.6-0.1c0.2,0,0.4,0,0.6,0.1c0.2,0.1,0.3,0.1,0.5,0.3c0.1,0.1,0.2,0.3,0.3,0.4c0.1,0.2,0.1,0.4,0.1,0.6
								c0,0.2,0,0.4-0.1,0.6c-0.1,0.2-0.2,0.3-0.3,0.4c-0.1,0.1-0.3,0.2-0.5,0.3c-0.2,0.1-0.4,0.1-0.6,0.1c-0.2,0-0.4,0-0.6-0.1
								c-0.2-0.1-0.3-0.1-0.5-0.3c-0.1-0.1-0.2-0.3-0.3-0.4C192.7,224.6,192.7,224.4,192.7,224.1z"/>
						</g>
					</g>
					<g id="Group_15">
						<g id="Group_16">
							<path id="Vector_39" class="st0" d="M199.2,220h1.1c0.1,0,0.2,0,0.3,0.1c0.1,0.1,0.1,0.1,0.2,0.2l1.2,4.4
								c0,0.1,0.1,0.2,0.1,0.4c0,0.1,0,0.2,0.1,0.4c0-0.1,0.1-0.3,0.1-0.4c0-0.1,0.1-0.2,0.1-0.4l1.4-4.4c0-0.1,0.1-0.1,0.2-0.2
								c0.1-0.1,0.2-0.1,0.3-0.1h0.4c0.1,0,0.2,0,0.3,0.1c0.1,0.1,0.1,0.1,0.2,0.2l1.4,4.4c0.1,0.2,0.1,0.5,0.2,0.7
								c0-0.1,0-0.2,0.1-0.4c0-0.1,0-0.2,0.1-0.4l1.2-4.4c0-0.1,0.1-0.1,0.1-0.2c0.1-0.1,0.2-0.1,0.3-0.1h1.1l-2.3,7.3h-1.2l-1.6-5
								c0-0.1,0-0.1-0.1-0.2c0-0.1,0-0.1-0.1-0.2c0,0.1,0,0.2-0.1,0.2s0,0.1-0.1,0.2l-1.6,5h-1.2L199.2,220z"/>
							<path id="Vector_40" class="st0" d="M214.5,227.3h-0.6c-0.1,0-0.2,0-0.3-0.1c-0.1-0.1-0.1-0.1-0.1-0.2l-0.1-0.4
								c-0.1,0.1-0.2,0.2-0.4,0.3c-0.1,0.1-0.2,0.2-0.4,0.2c-0.1,0-0.3,0.1-0.4,0.1c-0.1,0-0.3,0-0.5,0c-0.2,0-0.4,0-0.6-0.1
								c-0.2-0.1-0.4-0.1-0.5-0.3c-0.1-0.1-0.2-0.3-0.3-0.5c-0.1-0.2-0.1-0.4-0.1-0.6c0-0.2,0-0.4,0.1-0.6c0.1-0.2,0.3-0.4,0.5-0.5
								c0.2-0.1,0.6-0.3,1-0.4c0.4-0.1,0.9-0.1,1.5-0.1V224c0-0.4-0.1-0.6-0.2-0.8c-0.1-0.2-0.4-0.2-0.6-0.2c-0.2,0-0.4,0-0.5,0.1
								c-0.1,0-0.2,0.1-0.4,0.2c-0.1,0.1-0.2,0.1-0.3,0.2c-0.1,0-0.2,0.1-0.3,0.1c-0.1,0-0.1,0-0.2-0.1c-0.1,0-0.1-0.1-0.1-0.2
								l-0.2-0.4c0.6-0.5,1.3-0.8,2.2-0.8c0.3,0,0.6,0,0.8,0.1c0.2,0.1,0.4,0.2,0.6,0.4c0.2,0.2,0.3,0.4,0.4,0.6
								c0.1,0.2,0.1,0.5,0.1,0.8L214.5,227.3L214.5,227.3z M212,226.5c0.1,0,0.2,0,0.4,0c0.1,0,0.2-0.1,0.3-0.1
								c0.1,0,0.2-0.1,0.3-0.2c0.1-0.1,0.2-0.1,0.3-0.2v-0.8c-0.4,0-0.7,0-0.9,0.1c-0.2,0-0.5,0.1-0.6,0.2c-0.1,0.1-0.2,0.1-0.3,0.2
								c-0.1,0.1-0.1,0.2-0.1,0.3c0,0.2,0.1,0.4,0.2,0.5C211.7,226.5,211.8,226.5,212,226.5z"/>
							<path id="Vector_41" class="st0" d="M215.7,227.3v-5.2h0.7c0.1,0,0.2,0,0.3,0.1c0,0,0.1,0.1,0.1,0.2l0.1,0.6
								c0.2-0.3,0.4-0.6,0.7-0.8c0.2-0.2,0.5-0.3,0.8-0.3c0.2,0,0.5,0.1,0.6,0.2l-0.2,1c0,0.1,0,0.1-0.1,0.1c0,0-0.1,0-0.1,0
								c0,0-0.1,0-0.2,0c-0.1,0-0.2,0-0.4,0c-0.2,0-0.5,0.1-0.7,0.2c-0.2,0.1-0.4,0.4-0.5,0.6v3.2L215.7,227.3L215.7,227.3z"/>
							<path id="Vector_42" class="st0" d="M219.8,227.3v-5.2h0.7c0.1,0,0.2,0,0.3,0.1c0,0,0.1,0.1,0.1,0.2l0.1,0.6
								c0.2-0.3,0.4-0.6,0.7-0.8c0.2-0.2,0.5-0.3,0.8-0.3c0.2,0,0.5,0.1,0.6,0.2l-0.2,1c0,0.1,0,0.1-0.1,0.1c0,0-0.1,0-0.1,0
								c0,0-0.1,0-0.2,0c-0.1,0-0.2,0-0.4,0c-0.2,0-0.5,0.1-0.7,0.2c-0.2,0.1-0.4,0.4-0.5,0.6v3.2L219.8,227.3L219.8,227.3z"/>
							<path id="Vector_43" class="st0" d="M226.1,222c0.3,0,0.6,0,0.9,0.1s0.5,0.2,0.7,0.5c0.2,0.2,0.4,0.5,0.5,0.7
								c0.1,0.3,0.2,0.6,0.2,1c0,0.1,0,0.2,0,0.2c0,0.1,0,0.1,0,0.1c0,0,0,0.1-0.1,0.1c0,0-0.1,0-0.1,0h-3.2c0,0.5,0.2,0.9,0.4,1.2
								c0.2,0.2,0.6,0.4,1,0.4c0.2,0,0.4,0,0.5-0.1c0.1,0,0.3-0.1,0.4-0.1c0.1-0.1,0.2-0.1,0.3-0.1c0.1,0,0.2-0.1,0.2-0.1
								c0,0,0.1,0,0.1,0c0,0,0.1,0,0.1,0.1l0.4,0.5c-0.1,0.2-0.3,0.3-0.5,0.4c-0.2,0.1-0.4,0.2-0.5,0.2c-0.2,0.1-0.4,0.1-0.6,0.1
								c-0.2,0-0.4,0-0.6,0c-0.4,0-0.7-0.1-1-0.2c-0.3-0.1-0.6-0.3-0.8-0.5c-0.2-0.2-0.4-0.5-0.5-0.9c-0.1-0.4-0.2-0.7-0.2-1.2
								c0-0.4,0.1-0.7,0.2-1c0.1-0.3,0.3-0.6,0.5-0.8c0.2-0.2,0.5-0.4,0.8-0.6C225.4,222.1,225.7,222,226.1,222z M226.1,222.9
								c-0.4,0-0.6,0.1-0.8,0.3c-0.2,0.2-0.4,0.5-0.4,0.9h2.4c0-0.2,0-0.3-0.1-0.5c0-0.1-0.1-0.3-0.2-0.4c-0.1-0.1-0.2-0.2-0.4-0.2
								C226.5,222.9,226.3,222.9,226.1,222.9z"/>
							<path id="Vector_44" class="st0" d="M229.4,227.3v-5.2h0.8c0.2,0,0.3,0.1,0.3,0.2l0.1,0.4c0.1-0.1,0.2-0.2,0.3-0.3
								c0.1-0.1,0.2-0.2,0.4-0.2c0.1,0,0.3-0.1,0.4-0.1c0.1,0,0.3,0,0.5,0c0.3,0,0.5,0,0.7,0.1c0.2,0.1,0.4,0.2,0.6,0.4
								c0.1,0.2,0.2,0.4,0.3,0.6c0.1,0.2,0.1,0.5,0.1,0.8v3.3h-1.2v-3.3c0-0.3-0.1-0.6-0.2-0.7c-0.1-0.2-0.4-0.2-0.7-0.2
								c-0.2,0-0.4,0-0.6,0.1c-0.2,0.1-0.4,0.2-0.5,0.4v3.7L229.4,227.3L229.4,227.3z"/>
							<path id="Vector_45" class="st0" d="M241,224.6c0,0.1,0.1,0.2,0.1,0.4c0-0.1,0.1-0.2,0.1-0.4s0.1-0.2,0.2-0.4l2.2-4.1
								c0,0,0.1-0.1,0.1-0.1s0.1,0,0.1-0.1c0,0,0.1,0,0.1,0c0,0,0.1,0,0.1,0h1v7.3h-1.2v-4.7c0-0.1,0-0.2,0-0.3s0-0.2,0-0.3
								l-2.2,4.2c0,0.1-0.1,0.2-0.2,0.2c-0.1,0-0.2,0.1-0.3,0.1H241c-0.1,0-0.2,0-0.3-0.1c-0.1,0-0.1-0.1-0.2-0.2l-2.3-4.2
								c0,0.1,0,0.2,0,0.3s0,0.2,0,0.3v4.7h-1.2V220h1c0.1,0,0.1,0,0.1,0s0.1,0,0.1,0c0,0,0.1,0,0.1,0.1c0,0,0.1,0.1,0.1,0.1
								l2.2,4.1C240.9,224.4,241,224.5,241,224.6z"/>
							<path id="Vector_46" class="st0" d="M250.6,227.3H250c-0.1,0-0.2,0-0.3-0.1c-0.1-0.1-0.1-0.1-0.1-0.2l-0.1-0.4
								c-0.1,0.1-0.2,0.2-0.4,0.3c-0.1,0.1-0.2,0.2-0.4,0.2c-0.1,0-0.3,0.1-0.4,0.1c-0.1,0-0.3,0-0.5,0c-0.2,0-0.4,0-0.6-0.1
								c-0.2-0.1-0.4-0.1-0.5-0.3c-0.1-0.1-0.2-0.3-0.3-0.5c-0.1-0.2-0.1-0.4-0.1-0.6c0-0.2,0-0.4,0.1-0.6c0.1-0.2,0.3-0.4,0.5-0.5
								c0.2-0.1,0.6-0.3,1-0.4c0.4-0.1,0.9-0.1,1.5-0.1V224c0-0.4-0.1-0.6-0.2-0.8c-0.1-0.2-0.4-0.2-0.6-0.2c-0.2,0-0.4,0-0.5,0.1
								c-0.1,0-0.2,0.1-0.4,0.2c-0.1,0.1-0.2,0.1-0.3,0.2c-0.1,0-0.2,0.1-0.3,0.1c-0.1,0-0.1,0-0.2-0.1c-0.1,0-0.1-0.1-0.1-0.2
								l-0.2-0.4c0.6-0.5,1.3-0.8,2.2-0.8c0.3,0,0.6,0,0.8,0.1s0.4,0.2,0.6,0.4c0.2,0.2,0.3,0.4,0.4,0.6c0.1,0.2,0.1,0.5,0.1,0.8
								L250.6,227.3L250.6,227.3z M248.2,226.5c0.1,0,0.2,0,0.4,0c0.1,0,0.2-0.1,0.3-0.1c0.1,0,0.2-0.1,0.3-0.2
								c0.1-0.1,0.2-0.1,0.3-0.2v-0.8c-0.4,0-0.7,0-0.9,0.1c-0.2,0-0.5,0.1-0.6,0.2c-0.1,0.1-0.2,0.1-0.3,0.2
								c-0.1,0.1-0.1,0.2-0.1,0.3c0,0.2,0.1,0.4,0.2,0.5C247.8,226.5,248,226.5,248.2,226.5z"/>
							<path id="Vector_47" class="st0" d="M253.1,219.8v7.5h-1.2v-7.5H253.1z"/>
							<path id="Vector_48" class="st0" d="M255.9,219.8v7.5h-1.2v-7.5H255.9z"/>
						</g>
					</g>
				</g>
			</g>
			<g id="winter_label">
				<g id="Group_17">
					<g id="Group_18">
						<path id="Vector_49" class="st0" d="M89.4,121.5l-50.5,17.8l7.1,20.2l50.5-17.8L89.4,121.5z"/>
					</g>
					<g id="Group_19">
						<g id="Group_20">
							<path id="Vector_50" class="st2" d="M46.7,144.7l1.4-0.5c0.1,0,0.2,0,0.4,0c0.1,0,0.2,0.1,0.2,0.2l2.3,3.5
								c0.1,0.2,0.2,0.4,0.4,0.6c0.1,0.2,0.2,0.4,0.3,0.6c0-0.2,0-0.5,0-0.7c0-0.2,0-0.5,0-0.7l-0.1-4.3c0-0.1,0-0.2,0.1-0.3
								c0.1-0.1,0.1-0.1,0.3-0.2l0.8-0.2c0.1,0,0.2,0,0.4,0c0.1,0,0.2,0.1,0.2,0.2l2.5,3.6c0.1,0.2,0.2,0.4,0.4,0.5
								c0.1,0.2,0.2,0.4,0.4,0.5c0-0.2-0.1-0.4-0.1-0.6s0-0.5-0.1-0.7l-0.2-4.2c0-0.1,0-0.2,0.1-0.3c0.1-0.1,0.2-0.1,0.3-0.2
								l1.3-0.5l0.1,8l-1.4,0.5c-0.1,0-0.3,0-0.4-0.2l-2.7-3.8c-0.1-0.1-0.2-0.2-0.2-0.4c-0.1-0.1-0.1-0.2-0.2-0.4
								c0,0.1,0,0.3,0,0.5c0,0.1,0,0.3,0,0.5l0.1,4.6c0,0.2-0.1,0.4-0.3,0.4l-1.3,0.5L46.7,144.7z"/>
							<path id="Vector_51" class="st2" d="M60.2,137.9c0,0.1,0.1,0.3,0,0.5c0,0.1-0.1,0.3-0.1,0.4c-0.1,0.1-0.2,0.2-0.3,0.4
								c-0.1,0.1-0.2,0.2-0.4,0.2c-0.1,0-0.3,0.1-0.5,0.1c-0.1,0-0.3-0.1-0.4-0.1c-0.1-0.1-0.2-0.1-0.4-0.3
								c-0.1-0.1-0.2-0.2-0.2-0.4c0-0.1-0.1-0.3-0.1-0.5c0-0.1,0.1-0.3,0.1-0.4c0.1-0.1,0.1-0.2,0.3-0.4c0.1-0.1,0.2-0.2,0.4-0.2
								c0.1,0,0.3-0.1,0.5-0.1s0.3,0,0.4,0.1c0.1,0.1,0.2,0.1,0.4,0.3C60.1,137.6,60.1,137.7,60.2,137.9z M60.6,140l2.4,7.3
								l-1.8,0.6l-2.4-7.3L60.6,140z"/>
							<path id="Vector_52" class="st2" d="M65,146.6l-2.4-7.3l1.1-0.4c0.2-0.1,0.4,0,0.6,0.2l0.3,0.5c0.1-0.2,0.2-0.4,0.3-0.6
								c0.1-0.2,0.2-0.4,0.4-0.5c0.1-0.1,0.3-0.3,0.5-0.4c0.2-0.1,0.4-0.2,0.7-0.3c0.4-0.1,0.8-0.2,1.1-0.1c0.4,0,0.7,0.1,1,0.3
								c0.3,0.2,0.5,0.4,0.7,0.7c0.2,0.3,0.4,0.7,0.5,1.1l1.6,4.6l-1.8,0.6l-1.6-4.6c-0.1-0.5-0.4-0.7-0.6-0.9
								c-0.3-0.2-0.6-0.2-1.1-0.1c-0.3,0.1-0.6,0.2-0.8,0.5c-0.2,0.2-0.4,0.5-0.6,0.8l1.8,5.3L65,146.6z"/>
							<path id="Vector_53" class="st2" d="M75.5,143.3c-0.6,0.2-1.2,0.2-1.6,0c-0.5-0.2-0.8-0.7-1-1.3l-1.3-4.1l-0.7,0.2
								c-0.1,0-0.2,0-0.3,0c-0.1,0-0.1-0.1-0.2-0.2l-0.2-0.7l1.1-0.6l-0.3-2.1c0-0.1,0-0.2,0.1-0.2c0-0.1,0.1-0.1,0.2-0.2l0.9-0.3
								l0.8,2.3l1.9-0.6l0.4,1.2l-1.9,0.6l1.3,3.9c0.1,0.2,0.2,0.4,0.4,0.5c0.1,0.1,0.3,0.1,0.5,0c0.1,0,0.2-0.1,0.2-0.1
								c0.1,0,0.1-0.1,0.2-0.1c0,0,0.1-0.1,0.1-0.1c0,0,0.1-0.1,0.1-0.1c0,0,0.1,0,0.1,0c0,0,0.1,0,0.1,0.1l0.8,0.7
								c-0.2,0.3-0.4,0.6-0.7,0.8C76.2,143,75.9,143.1,75.5,143.3z"/>
							<path id="Vector_54" class="st2" d="M79.1,133.8c0.5-0.1,0.9-0.2,1.3-0.2c0.4,0,0.8,0.1,1.2,0.3c0.4,0.2,0.7,0.5,1,0.8
								c0.3,0.4,0.5,0.8,0.7,1.3c0,0.1,0.1,0.2,0.1,0.3c0,0.1,0,0.2,0,0.2c0,0.1,0,0.1-0.1,0.1c0,0-0.1,0.1-0.2,0.1l-4.5,1.5
								c0.3,0.7,0.7,1.2,1.2,1.4c0.5,0.2,1,0.2,1.6,0.1c0.3-0.1,0.5-0.2,0.7-0.4c0.2-0.1,0.4-0.3,0.5-0.4c0.1-0.1,0.2-0.2,0.3-0.4
								c0.1-0.1,0.2-0.2,0.3-0.2c0.1,0,0.1,0,0.2,0c0.1,0,0.1,0,0.2,0.1l0.7,0.5c-0.1,0.3-0.3,0.6-0.5,0.8c-0.2,0.2-0.4,0.4-0.6,0.6
								c-0.2,0.2-0.5,0.3-0.7,0.5c-0.2,0.1-0.5,0.2-0.8,0.3c-0.5,0.2-1,0.2-1.5,0.2c-0.5,0-1-0.1-1.4-0.4c-0.4-0.2-0.8-0.5-1.2-1
								c-0.4-0.4-0.6-1-0.8-1.6c-0.2-0.5-0.2-1-0.2-1.5c0-0.5,0.1-1,0.3-1.4c0.2-0.4,0.5-0.8,0.8-1.1
								C78.1,134.2,78.5,133.9,79.1,133.8z M79.5,135c-0.5,0.2-0.8,0.5-1.1,0.8c-0.2,0.4-0.2,0.8-0.1,1.4l3.3-1.1
								c-0.1-0.2-0.2-0.4-0.3-0.6c-0.1-0.2-0.3-0.3-0.5-0.4c-0.2-0.1-0.4-0.2-0.6-0.2C80,134.9,79.8,134.9,79.5,135z"/>
							<path id="Vector_55" class="st2" d="M86.1,139.6l-2.4-7.3l1-0.4c0.2-0.1,0.3-0.1,0.4,0c0.1,0,0.2,0.1,0.2,0.3l0.4,0.8
								c0.1-0.5,0.3-1,0.6-1.4c0.2-0.4,0.6-0.6,1.1-0.8c0.4-0.1,0.7-0.1,1,0l0.2,1.4c0,0.1,0,0.2,0,0.2c0,0-0.1,0.1-0.2,0.1
								c-0.1,0-0.2,0-0.3,0s-0.3,0-0.5,0.1c-0.4,0.1-0.6,0.3-0.8,0.6c-0.2,0.3-0.3,0.7-0.4,1.1l1.5,4.5L86.1,139.6z"/>
						</g>
					</g>
				</g>
			</g>
			<g id="snowflakes">
				<g id="Group_21">
					<g id="Group_22">
						<g id="Group_23">
							<g id="Group_24">
								<g id="Group_25">
									<path id="Vector_56" class="st0" d="M35.1,135.3c-4.5,2.9-9,5.7-13.5,8.5c-1.4,0.9-0.1,3.2,1.3,2.3c4.5-2.9,9-5.7,13.5-8.5
										C37.9,136.7,36.5,134.4,35.1,135.3z"/>
								</g>
							</g>
						</g>
						<g id="Group_26">
							<g id="Group_27">
								<g id="Group_28">
									<path id="Vector_57" class="st0" d="M27.2,132.5c0.2,5.4,0.5,10.7,0.7,16.1c0.1,1.7,2.7,1.7,2.6,0
										c-0.2-5.4-0.5-10.7-0.7-16.1C29.8,130.8,27.2,130.8,27.2,132.5z"/>
								</g>
							</g>
						</g>
						<g id="Group_29">
							<g id="Group_30">
								<g id="Group_31">
									<path id="Vector_58" class="st0" d="M21.1,138.2c4.8,2.4,9.6,4.8,14.4,7.2c1.5,0.7,2.9-1.5,1.3-2.3
										c-4.8-2.4-9.6-4.8-14.4-7.2C20.9,135.1,19.6,137.4,21.1,138.2z"/>
								</g>
							</g>
						</g>
					</g>
					<g id="Group_32">
						<g id="Group_33">
							<g id="Group_34">
								<g id="Group_35">
									<g id="Group_36">
										<path id="Vector_59" class="st0" d="M109.6,90c-5.3,0.4-10.6,0.9-15.9,1.3c-1.7,0.1-1.7,2.8,0,2.6
											c5.3-0.4,10.6-0.9,15.9-1.3C111.3,92.5,111.3,89.8,109.6,90z"/>
									</g>
								</g>
							</g>
							<g id="Group_37">
								<g id="Group_38">
									<g id="Group_39">
										<path id="Vector_60" class="st0" d="M103.9,83.7c-2.3,4.9-4.6,9.7-6.8,14.6c-0.7,1.5,1.6,2.9,2.3,1.3
											c2.3-4.9,4.6-9.7,6.8-14.6C106.9,83.5,104.6,82.2,103.9,83.7z"/>
									</g>
								</g>
							</g>
							<g id="Group_40">
								<g id="Group_41">
									<g id="Group_42">
										<path id="Vector_61" class="st0" d="M95.7,85.9c3.1,4.3,6.3,8.7,9.5,13.1c1,1.4,3.3,0,2.3-1.3c-3.1-4.3-6.3-8.7-9.5-13.1
											C97,83.2,94.7,84.6,95.7,85.9z"/>
									</g>
								</g>
							</g>
						</g>
					</g>
					<g id="Group_43">
						<g id="Group_44">
							<g id="Group_45">
								<g id="Group_46">
									<path id="Vector_62" class="st0" d="M106.9,140.2c-2.6,1-5.2,1.9-7.8,2.8c-0.8,0.3-0.5,1.6,0.4,1.3c2.6-1,5.2-1.9,7.8-2.8
										C108,141.2,107.7,139.9,106.9,140.2z"/>
								</g>
							</g>
						</g>
						<g id="Group_47">
							<g id="Group_48">
								<g id="Group_49">
									<path id="Vector_63" class="st0" d="M103.2,137.8c-0.5,2.8-1,5.5-1.4,8.3c-0.1,0.8,1.1,1.2,1.3,0.4c0.5-2.8,1-5.5,1.4-8.3
										C104.6,137.3,103.3,137,103.2,137.8z"/>
								</g>
							</g>
						</g>
						<g id="Group_50">
							<g id="Group_51">
								<g id="Group_52">
									<path id="Vector_64" class="st0" d="M99.4,140c2.2,1.8,4.3,3.5,6.5,5.3c0.7,0.5,1.6-0.4,1-1c-2.2-1.8-4.3-3.5-6.5-5.3
										C99.7,138.6,98.8,139.5,99.4,140z"/>
								</g>
							</g>
						</g>
					</g>
					<g id="Group_53">
						<g id="Group_54">
							<g id="Group_55">
								<g id="Group_56">
									<path id="Vector_65" class="st0" d="M41.4,229.5c-1.4,2.4-2.8,4.7-4.2,7.1c-0.4,0.7,0.7,1.4,1.1,0.7
										c1.4-2.4,2.8-4.7,4.2-7.1C43,229.4,41.8,228.8,41.4,229.5z"/>
								</g>
							</g>
						</g>
						<g id="Group_57">
							<g id="Group_58">
								<g id="Group_59">
									<path id="Vector_66" class="st0" d="M37.1,230c1.4,2.4,2.8,4.8,4.2,7.2c0.4,0.7,1.6,0.1,1.1-0.7c-1.4-2.4-2.8-4.8-4.2-7.2
										C37.8,228.6,36.7,229.3,37.1,230z"/>
								</g>
							</g>
						</g>
						<g id="Group_60">
							<g id="Group_61">
								<g id="Group_62">
									<path id="Vector_67" class="st0" d="M35.7,234.1c2.8,0,5.5-0.1,8.3-0.1c0.8,0,0.8-1.3,0-1.3c-2.8,0-5.5,0.1-8.3,0.1
										C34.8,232.8,34.8,234.1,35.7,234.1z"/>
								</g>
							</g>
						</g>
					</g>
					<g id="Group_63">
						<g id="Group_64">
							<g id="Group_65">
								<g id="Group_66">
									<path id="Vector_68" class="st0" d="M247,294.3c-7.6,2.7-15.1,5.5-22.6,8.2c-2.4,0.9-1.4,4.7,1.1,3.8
										c7.6-2.7,15.1-5.5,22.6-8.2C250.4,297.3,249.4,293.4,247,294.3z"/>
								</g>
							</g>
						</g>
						<g id="Group_67">
							<g id="Group_68">
								<g id="Group_69">
									<path id="Vector_69" class="st0" d="M236.2,287.5c-1.4,8-2.8,16-4.2,23.9c-0.4,2.5,3.4,3.6,3.8,1.1c1.4-8,2.8-16,4.2-23.9
										C240.5,286,236.7,284.9,236.2,287.5z"/>
								</g>
							</g>
						</g>
						<g id="Group_70">
							<g id="Group_71">
								<g id="Group_72">
									<path id="Vector_70" class="st0" d="M225.3,294c6.3,5.1,12.6,10.2,18.9,15.2c2,1.6,4.8-1.2,2.8-2.8
										c-6.3-5.1-12.6-10.2-18.9-15.2C226.1,289.5,223.2,292.4,225.3,294z"/>
								</g>
							</g>
						</g>
					</g>
					<g id="Group_73">
						<g id="Group_74">
							<g id="Group_75">
								<g id="Group_76">
									<path id="Vector_71" class="st0" d="M267.6,308.3c-4.1-0.9-8.1-1.8-12.2-2.7c-1.3-0.3-1.8,1.6-0.5,1.9
										c4.1,0.9,8.1,1.8,12.2,2.7C268.3,310.5,268.9,308.6,267.6,308.3z"/>
								</g>
							</g>
						</g>
						<g id="Group_77">
							<g id="Group_78">
								<g id="Group_79">
									<path id="Vector_72" class="st0" d="M264.8,302.4c-2.8,3.1-5.6,6.3-8.5,9.4c-0.9,1,0.5,2.3,1.4,1.4
										c2.8-3.1,5.6-6.3,8.5-9.4C267.1,302.9,265.7,301.4,264.8,302.4z"/>
								</g>
							</g>
						</g>
						<g id="Group_80">
							<g id="Group_81">
								<g id="Group_82">
									<path id="Vector_73" class="st0" d="M258.2,302.2c1.4,4,2.7,8,4.1,12c0.4,1.2,2.3,0.7,1.9-0.5c-1.4-4-2.7-8-4.1-12
										C259.8,300.4,257.8,300.9,258.2,302.2z"/>
								</g>
							</g>
						</g>
					</g>
					<g id="Group_83">
						<g id="Group_84">
							<g id="Group_85">
								<g id="Group_86">
									<path id="Vector_74" class="st0" d="M262.3,283.4c-2.8,0.3-5.5,0.6-8.2,0.9c-0.9,0.1-0.9,1.4,0,1.3
										c2.8-0.3,5.5-0.6,8.2-0.9C263.2,284.6,263.2,283.3,262.3,283.4z"/>
								</g>
							</g>
						</g>
						<g id="Group_87">
							<g id="Group_88">
								<g id="Group_89">
									<path id="Vector_75" class="st0" d="M259.3,280.2c-1.1,2.6-2.3,5.1-3.4,7.7c-0.3,0.8,0.8,1.4,1.2,0.7
										c1.1-2.6,2.3-5.1,3.4-7.7C260.8,280.1,259.6,279.4,259.3,280.2z"/>
								</g>
							</g>
						</g>
						<g id="Group_90">
							<g id="Group_91">
								<g id="Group_92">
									<path id="Vector_76" class="st0" d="M255.1,281.4c1.7,2.2,3.4,4.5,5.1,6.7c0.5,0.7,1.6,0,1.2-0.7c-1.7-2.2-3.4-4.5-5.1-6.7
										C255.7,280.1,254.5,280.7,255.1,281.4z"/>
								</g>
							</g>
						</g>
					</g>
					<g id="Group_93">
						<g id="Group_94">
							<g id="Group_95">
								<g id="Group_96">
									<path id="Vector_77" class="st0" d="M296,70.9c-2.7,0.7-5.3,1.4-8,2.2c-0.8,0.2-0.5,1.5,0.4,1.3c2.7-0.7,5.3-1.4,8-2.2
										C297.2,72,296.9,70.7,296,70.9z"/>
								</g>
							</g>
						</g>
						<g id="Group_97">
							<g id="Group_98">
								<g id="Group_99">
									<path id="Vector_78" class="st0" d="M292.6,68.3c-0.7,2.7-1.4,5.4-2.1,8.1c-0.2,0.8,1.1,1.2,1.3,0.4
										c0.7-2.7,1.4-5.4,2.1-8.1C294.1,67.8,292.8,67.5,292.6,68.3z"/>
								</g>
							</g>
						</g>
						<g id="Group_100">
							<g id="Group_101">
								<g id="Group_102">
									<path id="Vector_79" class="st0" d="M288.7,70.2c2,1.9,4.1,3.8,6.1,5.8c0.6,0.6,1.6-0.4,1-1c-2-1.9-4.1-3.8-6.1-5.8
										C289,68.6,288.1,69.6,288.7,70.2z"/>
								</g>
							</g>
						</g>
					</g>
				</g>
			</g>
		</g>
	</g>
	<g id="Group_103">
		<g id="Group_104">
			<g id="Group_105">
				<g id="Group_106">
					<path id="Vector_80" class="st0" d="M291.4,131.7c-3.8,3.7-7.7,7.3-11.5,11c-1.2,1.2,0.6,3,1.9,1.9c3.8-3.7,7.7-7.3,11.5-11
						C294.5,132.4,292.6,130.6,291.4,131.7z"/>
				</g>
			</g>
		</g>
		<g id="Group_107">
			<g id="Group_108">
				<g id="Group_109">
					<path id="Vector_81" class="st0" d="M283.2,130.5c1.3,5.2,2.6,10.4,3.9,15.7c0.4,1.7,3,1,2.5-0.7c-1.3-5.2-2.6-10.4-3.9-15.7
						C285.3,128.2,282.7,128.9,283.2,130.5z"/>
				</g>
			</g>
		</g>
		<g id="Group_110">
			<g id="Group_111">
				<g id="Group_112">
					<path id="Vector_82" class="st0" d="M278.3,137.3c5.2,1.4,10.4,2.8,15.6,4.2c1.7,0.5,2.4-2.1,0.7-2.5
						c-5.2-1.4-10.4-2.8-15.6-4.2C277.4,134.3,276.7,136.8,278.3,137.3z"/>
				</g>
			</g>
		</g>
	</g>
	<g id="Group_113">
		<g id="Group_114">
			<g id="Group_115">
				<g id="Group_116">
					<path id="Vector_83" class="st0" d="M278.5,125.9c-2.7,0.7-5.3,1.4-8,2.2c-0.8,0.2-0.5,1.5,0.4,1.3c2.7-0.7,5.3-1.4,8-2.2
						C279.7,127,279.3,125.7,278.5,125.9z"/>
				</g>
			</g>
		</g>
		<g id="Group_117">
			<g id="Group_118">
				<g id="Group_119">
					<path id="Vector_84" class="st0" d="M275,123.3c-0.7,2.7-1.4,5.4-2.1,8.1c-0.2,0.8,1.1,1.2,1.3,0.4c0.7-2.7,1.4-5.4,2.1-8.1
						C276.5,122.8,275.3,122.5,275,123.3z"/>
				</g>
			</g>
		</g>
		<g id="Group_120">
			<g id="Group_121">
				<g id="Group_122">
					<path id="Vector_85" class="st0" d="M271.1,125.2c2,1.9,4.1,3.8,6.1,5.8c0.6,0.6,1.6-0.4,1-1c-2-1.9-4.1-3.8-6.1-5.8
						C271.4,123.6,270.5,124.6,271.1,125.2z"/>
				</g>
			</g>
		</g>
	</g>
	<g id="Group_123">
		<g id="Group_124">
			<g id="Group_125">
				<g id="Group_126">
					<path id="Vector_86" class="st0" d="M214.2,97.8c-2.2-0.5-4.4-1.1-6.5-1.6c-0.7-0.2-1,0.9-0.3,1.1c2.2,0.5,4.4,1.1,6.5,1.6
						C214.6,99.1,214.9,98,214.2,97.8z"/>
				</g>
			</g>
		</g>
		<g id="Group_127">
			<g id="Group_128">
				<g id="Group_129">
					<path id="Vector_87" class="st0" d="M212.2,100.8c-0.6-2.2-1.3-4.4-1.9-6.6c-0.2-0.7-1.3-0.4-1.1,0.3c0.6,2.2,1.3,4.4,1.9,6.6
						C211.4,101.8,212.5,101.5,212.2,100.8z"/>
				</g>
			</g>
		</g>
		<g id="Group_130">
			<g id="Group_131">
				<g id="Group_132">
					<path id="Vector_88" class="st0" d="M208.8,100.4c1.6-1.6,3.2-3.2,4.8-4.8c0.5-0.5-0.3-1.3-0.8-0.8c-1.6,1.6-3.2,3.2-4.8,4.8
						C207.5,100.1,208.3,100.9,208.8,100.4z"/>
				</g>
			</g>
		</g>
	</g>
	<g id="Group_133">
		<g id="Group_134">
			<g id="Group_135">
				<g id="Group_136">
					<path id="Vector_89" class="st0" d="M50.3,49.4c-2,1.9-4.1,3.7-6.1,5.6c-0.6,0.6,0.3,1.5,1,1c2-1.9,4.1-3.7,6.1-5.6
						C51.8,49.7,50.9,48.8,50.3,49.4z"/>
				</g>
			</g>
		</g>
		<g id="Group_137">
			<g id="Group_138">
				<g id="Group_139">
					<path id="Vector_90" class="st0" d="M46,48.7c0.6,2.7,1.3,5.4,1.9,8.1c0.2,0.8,1.5,0.5,1.3-0.4c-0.6-2.7-1.3-5.4-1.9-8.1
						C47.1,47.5,45.8,47.8,46,48.7z"/>
				</g>
			</g>
		</g>
		<g id="Group_140">
			<g id="Group_141">
				<g id="Group_142">
					<path id="Vector_91" class="st0" d="M43.5,52.1c2.7,0.8,5.4,1.5,8,2.3c0.8,0.2,1.2-1.1,0.4-1.3c-2.7-0.8-5.4-1.5-8-2.3
						C43,50.6,42.6,51.9,43.5,52.1z"/>
				</g>
			</g>
		</g>
	</g>
	<g id="Group_143">
		<g id="Group_144">
			<g id="Group_145">
				<g id="Group_146">
					<path id="Vector_92" class="st0" d="M60.2,267.4c-5.3-0.2-10.6-0.5-15.9-0.7c-1.7-0.1-1.7,2.6,0,2.6c5.3,0.2,10.6,0.5,15.9,0.7
						C61.9,270.1,61.9,267.5,60.2,267.4z"/>
				</g>
			</g>
		</g>
		<g id="Group_147">
			<g id="Group_148">
				<g id="Group_149">
					<path id="Vector_93" class="st0" d="M55.5,260.6c-2.9,4.5-5.8,9.1-8.7,13.6c-0.9,1.4,1.4,2.8,2.3,1.3c2.9-4.5,5.8-9.1,8.7-13.6
						C58.7,260.5,56.4,259.2,55.5,260.6z"/>
				</g>
			</g>
		</g>
		<g id="Group_150">
			<g id="Group_151">
				<g id="Group_152">
					<path id="Vector_94" class="st0" d="M47.3,261.8c2.6,4.7,5.1,9.5,7.7,14.1c0.8,1.5,3.1,0.2,2.3-1.3c-2.6-4.7-5.1-9.5-7.7-14.1
						C48.8,259,46.5,260.3,47.3,261.8z"/>
				</g>
			</g>
		</g>
	</g>
	<g id="Group_153">
		<g id="Group_154">
			<g id="Group_155">
				<g id="Group_156">
					<path id="Vector_95" class="st0" d="M32.2,270.7c-0.8,2.6-1.6,5.3-2.3,7.9c-0.2,0.8,1,1.2,1.3,0.4c0.8-2.6,1.6-5.3,2.3-7.9
						C33.7,270.3,32.5,269.9,32.2,270.7z"/>
				</g>
			</g>
		</g>
		<g id="Group_157">
			<g id="Group_158">
				<g id="Group_159">
					<path id="Vector_96" class="st0" d="M28.2,272.3c1.9,2,3.8,4,5.8,6c0.6,0.6,1.5-0.3,1-1c-1.9-2-3.8-4-5.8-6
						C28.6,270.8,27.6,271.7,28.2,272.3z"/>
				</g>
			</g>
		</g>
		<g id="Group_160">
			<g id="Group_161">
				<g id="Group_162">
					<path id="Vector_97" class="st0" d="M27.8,276.6c2.7-0.7,5.4-1.4,8-2.2c0.8-0.2,0.5-1.5-0.4-1.3c-2.7,0.7-5.4,1.4-8,2.2
						C26.6,275.5,27,276.8,27.8,276.6z"/>
				</g>
			</g>
		</g>
	</g>
	<g id="Overlay">
		<path class="st3" d="M40,1.8h240c21,0,38,17,38,38v311c0,21-17,38-38,38H40c-21,0-38-17-38-38v-311C2,18.8,19,1.8,40,1.8z"/>
	</g>
	<defs>
		<filter id="Adobe_OpacityMaskFilter" filterUnits="userSpaceOnUse" x="36.8" y="301.8" width="112.3" height="55.7">
			<feColorMatrix  type="matrix" values="1 0 0 0 0  0 1 0 0 0  0 0 1 0 0  0 0 0 1 0"/>
		</filter>
	</defs>
	<mask maskUnits="userSpaceOnUse" x="36.8" y="301.8" width="112.3" height="55.7" id="mask0_1_">
		<path id="Overlay_2_1_" class="st4" d="M40,1.8h240c21,0,38,17,38,38v311c0,21-17,38-38,38H40c-21,0-38-17-38-38v-311
			C2,18.8,19,1.8,40,1.8z"/>
	</mask>
	<g class="st5">
		<path id="FRI_x2C__JUNE_1" class="st0" d="M44.4,306.7l0.2-1.9h-0.1l-0.6,1.6l-2.1,3.7h-0.6l-2.2-3.7l-0.6-1.6h-0.1l0.3,1.9v5.1
			h-1.8V302h1.8l2.6,4.5l0.5,1.1h0.1l0.4-1.1l2.5-4.5h1.7v9.8h-1.9V306.7z M48.7,306.9c0-1.6,0.4-2.9,1.1-3.8
			c0.7-0.9,1.7-1.3,3.1-1.3c0.7,0,1.3,0.1,1.8,0.4c0.5,0.2,1,0.6,1.3,1c0.3,0.4,0.6,1,0.8,1.6s0.3,1.3,0.3,2.1
			c0,1.6-0.4,2.9-1.1,3.8c-0.7,0.9-1.7,1.3-3.1,1.3c-0.7,0-1.3-0.1-1.8-0.4c-0.5-0.2-1-0.6-1.3-1c-0.3-0.4-0.6-1-0.8-1.6
			C48.7,308.4,48.7,307.7,48.7,306.9z M50.7,306.9c0,0.5,0,1,0.1,1.4c0.1,0.4,0.2,0.8,0.4,1.1c0.2,0.3,0.4,0.5,0.7,0.7
			c0.3,0.2,0.6,0.3,1,0.3c0.7,0,1.2-0.3,1.6-0.8c0.4-0.5,0.6-1.4,0.6-2.6c0-0.5,0-0.9-0.1-1.3c-0.1-0.4-0.2-0.8-0.4-1.1
			c-0.2-0.3-0.4-0.5-0.7-0.7c-0.3-0.2-0.6-0.3-1-0.3c-0.7,0-1.2,0.3-1.6,0.8C50.9,304.9,50.7,305.8,50.7,306.9z M61.7,306.7
			l-0.8-1.5h-0.1l0.2,1.5v5.1h-1.8V302h1.4l3.7,5.2l0.7,1.5h0.1l-0.2-1.5V302h1.8v9.9h-1.4L61.7,306.7z M74.9,302h1.9v7.2
			c0,0.4,0,0.7-0.1,1.1s-0.2,0.6-0.4,0.9c-0.2,0.3-0.4,0.5-0.7,0.6c-0.3,0.1-0.7,0.2-1.1,0.2c-0.3,0-0.6,0-0.9-0.1
			c-0.3-0.1-0.6-0.1-0.8-0.2l0.4-1.6c0.2,0.1,0.5,0.2,0.8,0.2c0.4,0,0.6-0.1,0.7-0.4c0.1-0.3,0.2-0.7,0.2-1.1V302z M84.3,309.7h-3
			l-0.7,2.2h-1.9l3.5-9.9h1.4l3.5,9.9h-2L84.3,309.7z M81.8,308.1h2.1l-0.7-2.2l-0.3-1.5h-0.1l-0.3,1.6L81.8,308.1z M91.3,306.7
			l-0.8-1.5h-0.1l0.2,1.5v5.1h-1.8V302h1.4l3.7,5.2l0.7,1.5h0.1l-0.2-1.5V302h1.8v9.9H95L91.3,306.7z M104.1,311.8l3.2-7.5l0.6-0.7
			l-0.8,0.1h-3.6V302h6.3v0.5l-3.9,9.3H104.1z M121.9,304.4c0,0.5-0.1,1-0.3,1.4c-0.2,0.5-0.4,1-0.7,1.4c-0.3,0.5-0.6,0.9-0.9,1.4
			c-0.3,0.4-0.6,0.8-0.9,1.2l-0.7,0.6v0.1l1-0.2h2.7v1.5h-5.9v-0.9c0.2-0.2,0.5-0.5,0.8-0.8c0.3-0.3,0.6-0.6,0.8-1
			c0.3-0.4,0.6-0.7,0.8-1.1c0.3-0.4,0.5-0.7,0.7-1.1c0.2-0.4,0.4-0.8,0.5-1.1c0.1-0.4,0.2-0.7,0.2-1c0-0.4-0.1-0.7-0.3-0.9
			c-0.2-0.3-0.6-0.4-1-0.4c-0.3,0-0.6,0.1-0.9,0.2c-0.3,0.1-0.6,0.3-0.8,0.5l-0.7-1.3c0.4-0.3,0.8-0.5,1.2-0.7
			c0.5-0.2,1-0.3,1.6-0.3c0.4,0,0.8,0.1,1.1,0.2c0.3,0.1,0.6,0.3,0.9,0.5c0.2,0.2,0.4,0.5,0.6,0.8
			C121.9,303.6,121.9,304,121.9,304.4z M124.7,306.9c0-1.7,0.3-3,0.9-3.8c0.6-0.8,1.4-1.3,2.5-1.3c1.2,0,2,0.4,2.6,1.2
			c0.6,0.8,0.8,2.1,0.8,3.8c0,1.7-0.3,3-0.9,3.8c-0.6,0.8-1.4,1.3-2.5,1.3c-1.2,0-2-0.4-2.6-1.3C125,309.8,124.7,308.6,124.7,306.9z
			 M126.5,306.9c0,1.1,0.1,2,0.4,2.6c0.3,0.6,0.7,0.9,1.2,0.9c0.6,0,1-0.3,1.2-0.9c0.3-0.6,0.4-1.5,0.4-2.7c0-1.1-0.1-2-0.4-2.6
			c-0.2-0.6-0.7-0.9-1.2-0.9c-0.6,0-1,0.3-1.2,0.9C126.7,304.8,126.5,305.7,126.5,306.9z M134.4,310.3h1.9v-5.5l0.2-1l-0.7,0.8
			l-1.2,0.9l-0.8-1l3.2-2.6h1v8.4h1.9v1.5h-5.6V310.3z M142.5,305.1c0-0.5,0.1-0.9,0.2-1.3c0.1-0.4,0.4-0.7,0.6-1
			c0.3-0.3,0.6-0.5,1-0.7c0.4-0.2,0.9-0.3,1.4-0.3c1.1,0,1.9,0.3,2.5,1c0.6,0.6,0.9,1.5,0.9,2.7c0,1.1-0.1,2-0.4,2.8
			c-0.3,0.8-0.6,1.4-1.1,2c-0.5,0.5-1,0.9-1.6,1.2c-0.6,0.3-1.2,0.4-1.9,0.5l-0.4-1.4c0.5-0.1,1-0.2,1.4-0.4c0.4-0.2,0.7-0.4,1-0.7
			c0.3-0.3,0.5-0.6,0.7-0.9c0.2-0.4,0.3-0.7,0.4-1.1c-0.2,0.2-0.5,0.4-0.7,0.5c-0.3,0.1-0.6,0.1-1,0.1c-0.4,0-0.7-0.1-1.1-0.2
			c-0.3-0.1-0.7-0.3-0.9-0.5c-0.3-0.3-0.5-0.6-0.7-0.9C142.6,306.1,142.5,305.6,142.5,305.1z M144.3,305c0,0.5,0.1,0.9,0.4,1.2
			c0.3,0.3,0.7,0.4,1.1,0.4c0.4,0,0.7-0.1,0.9-0.2c0.2-0.1,0.4-0.3,0.6-0.4c0-0.2,0-0.4,0-0.6c0-0.3,0-0.5-0.1-0.8
			c-0.1-0.3-0.2-0.5-0.3-0.7c-0.1-0.2-0.3-0.4-0.5-0.5c-0.2-0.1-0.5-0.2-0.7-0.2c-0.5,0-0.8,0.1-1.1,0.4
			C144.4,304.1,144.3,304.5,144.3,305z"/>
		<path id="ENGINEERS" class="st0" d="M36.9,323.2h19.9v5.9H43.5v7.8h12.1v5.9H43.5v8.2H57v5.9H36.9V323.2z M60.9,340
			c0-5.6,1.2-9.9,3.7-12.9c2.5-3,6-4.6,10.6-4.6c2.4,0,4.5,0.4,6.3,1.2c1.8,0.8,3.3,2,4.5,3.6c1.2,1.5,2.1,3.4,2.6,5.5
			c0.6,2.1,0.9,4.5,0.9,7.2c0,5.6-1.2,9.9-3.7,13c-2.5,3-6,4.5-10.5,4.5c-2.4,0-4.5-0.4-6.3-1.2c-1.8-0.8-3.3-2-4.5-3.6
			c-1.2-1.5-2-3.4-2.6-5.5C61.2,345,60.9,342.7,60.9,340z M67.8,340c0,1.7,0.1,3.3,0.4,4.7c0.3,1.4,0.7,2.6,1.3,3.6
			c0.6,1,1.4,1.8,2.3,2.4c0.9,0.6,2,0.9,3.3,0.9c2.3,0,4.1-0.9,5.4-2.7c1.3-1.8,1.9-4.8,1.9-8.9c0-1.6-0.1-3.2-0.4-4.6
			c-0.3-1.4-0.7-2.6-1.2-3.7c-0.6-1.1-1.3-1.9-2.3-2.4c-0.9-0.6-2.1-0.9-3.4-0.9c-2.3,0-4.1,0.9-5.4,2.8
			C68.5,333.1,67.8,336,67.8,340z M116.1,329.1h-9.8v27.7h-6.6v-27.7h-9.8v-5.9h26.2V329.1z M129.5,339.3H142v15
			c-1.3,1.1-3,1.9-4.8,2.4c-1.9,0.5-3.7,0.8-5.5,0.8c-2.1,0-4.1-0.3-6-1c-1.8-0.7-3.4-1.7-4.8-3.1c-1.3-1.4-2.4-3.3-3.2-5.5
			c-0.8-2.2-1.2-4.8-1.2-7.9c0-3.2,0.4-5.9,1.3-8.1c0.9-2.2,2.1-4,3.6-5.4c1.5-1.4,3.2-2.4,5-3c1.9-0.6,3.7-1,5.7-1
			c1.9,0,3.6,0.1,5,0.4c1.5,0.3,2.6,0.6,3.5,0.9l-1.3,5.5c-0.8-0.3-1.7-0.6-2.7-0.7c-1-0.2-2.3-0.3-3.8-0.3c-1.4,0-2.6,0.2-3.8,0.6
			c-1.2,0.4-2.2,1.1-3,2.1c-0.8,0.9-1.5,2.1-2,3.6c-0.4,1.5-0.7,3.3-0.7,5.4c0,2,0.2,3.8,0.7,5.2c0.4,1.4,1.1,2.6,1.9,3.6
			c0.8,0.9,1.7,1.6,2.8,2.1c1.1,0.4,2.2,0.7,3.5,0.7c0.8,0,1.6-0.1,2.4-0.3c0.8-0.2,1.5-0.5,2-1v-6.3l-7.2-0.8V339.3z"/>
	</g>
</g>
<g id="lightbulb">
</g>
</svg>
