<svg width="376" height="447" viewBox="0 0 376 447" fill="none" xmlns="http://www.w3.org/2000/svg">
<g id="FLO-3">
<g id="Rectangle 6" filter="url(#filter0_d)">
<rect x="30" y="20" width="316" height="387" rx="38" fill="white"/>
</g>
<g id="Object">
<rect id="Bg" x="30" y="20" width="316" height="387" rx="38" fill="url(#paint0_linear)"/>
</g>
<g id="Overlay" filter="url(#filter1_d)">
<rect x="30" y="20" width="316" height="387" rx="38" fill="black" fill-opacity="0.1"/>
</g>
<mask id="mask0" mask-type="alpha" maskUnits="userSpaceOnUse" x="30" y="20" width="316" height="387">
<rect id="Overlay_2" x="30" y="20" width="316" height="387" rx="38" fill="white"/>
</mask>
<g mask="url(#mask0)">
<path id="FRI, JUNE 1" d="M75.045 311.555L75.27 309.47H75.18L74.535 311.15L72.3 315.065H71.64L69.285 311.135L68.625 309.47H68.55L68.85 311.54V317H66.9V306.5H68.775L71.58 311.3L72.075 312.5H72.135L72.585 311.27L75.24 306.5H77.1V317H75.045V311.555ZM79.5004 311.75C79.5004 310 79.8854 308.655 80.6554 307.715C81.4254 306.765 82.5254 306.29 83.9554 306.29C84.7054 306.29 85.3604 306.42 85.9204 306.68C86.4804 306.94 86.9454 307.31 87.3154 307.79C87.6854 308.27 87.9604 308.845 88.1404 309.515C88.3204 310.185 88.4104 310.93 88.4104 311.75C88.4104 313.5 88.0204 314.85 87.2404 315.8C86.4704 316.74 85.3754 317.21 83.9554 317.21C83.1954 317.21 82.5354 317.08 81.9754 316.82C81.4154 316.56 80.9504 316.19 80.5804 315.71C80.2204 315.23 79.9504 314.655 79.7704 313.985C79.5904 313.315 79.5004 312.57 79.5004 311.75ZM81.6604 311.75C81.6604 312.28 81.7054 312.77 81.7954 313.22C81.8854 313.66 82.0204 314.04 82.2004 314.36C82.3904 314.68 82.6304 314.93 82.9204 315.11C83.2104 315.29 83.5554 315.38 83.9554 315.38C84.6854 315.38 85.2504 315.095 85.6504 314.525C86.0504 313.955 86.2504 313.03 86.2504 311.75C86.2504 311.24 86.2054 310.765 86.1154 310.325C86.0354 309.885 85.9054 309.5 85.7254 309.17C85.5454 308.84 85.3104 308.585 85.0204 308.405C84.7304 308.215 84.3754 308.12 83.9554 308.12C83.2254 308.12 82.6604 308.415 82.2604 309.005C81.8604 309.585 81.6604 310.5 81.6604 311.75ZM93.4226 311.525L92.5976 309.875H92.5226L92.7626 311.525V317H90.8126V306.425H92.3126L96.2876 312.02L97.0826 313.625H97.1576L96.9176 312.02V306.5H98.8676V317.075H97.3676L93.4226 311.525ZM107.397 306.5H109.452V314.18C109.452 314.58 109.407 314.96 109.317 315.32C109.227 315.68 109.077 316 108.867 316.28C108.667 316.55 108.407 316.77 108.087 316.94C107.767 317.1 107.377 317.18 106.917 317.18C106.627 317.18 106.312 317.15 105.972 317.09C105.632 317.03 105.337 316.945 105.087 316.835L105.537 315.155C105.797 315.285 106.092 315.35 106.422 315.35C106.842 315.35 107.107 315.195 107.217 314.885C107.337 314.575 107.397 314.165 107.397 313.655V306.5ZM117.45 314.675H114.225L113.43 317H111.375L115.155 306.425H116.67L120.45 317H118.29L117.45 314.675ZM114.75 313.025H117L116.22 310.685L115.905 309.035H115.83L115.515 310.7L114.75 313.025ZM124.9 311.525L124.075 309.875H124L124.24 311.525V317H122.29V306.425H123.79L127.765 312.02L128.56 313.625H128.635L128.395 312.02V306.5H130.345V317.075H128.845L124.9 311.525ZM138.424 315.35H140.509V309.425L140.734 308.405L140.014 309.29L138.679 310.205L137.854 309.08L141.274 306.32H142.369V315.35H144.409V317H138.424V315.35ZM154.648 314.075H152.998V317H151.183V314.075H146.638V312.965L151.393 306.425H152.998V312.515H154.648V314.075ZM151.183 310.22L151.318 308.96H151.258L150.748 310.04L149.188 312.065L148.438 312.635L149.398 312.515H151.183V310.22ZM167.649 309.065C167.649 309.575 167.554 310.09 167.364 310.61C167.184 311.13 166.949 311.64 166.659 312.14C166.379 312.64 166.064 313.125 165.714 313.595C165.374 314.055 165.039 314.48 164.709 314.87L163.914 315.485V315.56L164.994 315.35H167.874V317H161.559V315.995C161.799 315.745 162.069 315.455 162.369 315.125C162.669 314.785 162.969 314.43 163.269 314.06C163.579 313.68 163.879 313.29 164.169 312.89C164.459 312.49 164.719 312.09 164.949 311.69C165.179 311.28 165.359 310.885 165.489 310.505C165.629 310.125 165.699 309.765 165.699 309.425C165.699 309.015 165.579 308.68 165.339 308.42C165.109 308.15 164.739 308.015 164.229 308.015C163.909 308.015 163.579 308.085 163.239 308.225C162.909 308.355 162.629 308.525 162.399 308.735L161.619 307.355C162.009 307.035 162.449 306.78 162.939 306.59C163.439 306.39 164.024 306.29 164.694 306.29C165.124 306.29 165.519 306.35 165.879 306.47C166.239 306.59 166.549 306.765 166.809 306.995C167.069 307.225 167.274 307.515 167.424 307.865C167.574 308.205 167.649 308.605 167.649 309.065ZM170.569 311.735C170.569 309.895 170.884 308.53 171.514 307.64C172.144 306.74 173.049 306.29 174.229 306.29C175.489 306.29 176.414 306.735 177.004 307.625C177.594 308.505 177.889 309.875 177.889 311.735C177.889 313.585 177.569 314.96 176.929 315.86C176.299 316.76 175.394 317.21 174.214 317.21C172.964 317.21 172.044 316.74 171.454 315.8C170.864 314.85 170.569 313.495 170.569 311.735ZM172.519 311.735C172.519 312.955 172.649 313.9 172.909 314.57C173.179 315.23 173.619 315.56 174.229 315.56C174.819 315.56 175.249 315.255 175.519 314.645C175.799 314.035 175.939 313.065 175.939 311.735C175.939 310.525 175.809 309.59 175.549 308.93C175.289 308.27 174.844 307.94 174.214 307.94C173.614 307.94 173.179 308.25 172.909 308.87C172.649 309.49 172.519 310.445 172.519 311.735ZM180.928 315.35H183.013V309.425L183.238 308.405L182.518 309.29L181.183 310.205L180.358 309.08L183.778 306.32H184.873V315.35H186.913V317H180.928V315.35ZM189.532 309.785C189.532 309.275 189.607 308.805 189.757 308.375C189.917 307.945 190.142 307.58 190.432 307.28C190.732 306.97 191.092 306.73 191.512 306.56C191.942 306.38 192.432 306.29 192.982 306.29C194.112 306.29 194.997 306.63 195.637 307.31C196.287 307.98 196.612 308.96 196.612 310.25C196.612 311.41 196.462 312.415 196.162 313.265C195.872 314.105 195.477 314.81 194.977 315.38C194.487 315.94 193.917 316.37 193.267 316.67C192.617 316.97 191.932 317.15 191.212 317.21L190.792 315.68C191.342 315.61 191.832 315.475 192.262 315.275C192.692 315.075 193.062 314.83 193.372 314.54C193.682 314.24 193.932 313.905 194.122 313.535C194.322 313.155 194.462 312.75 194.542 312.32C194.302 312.58 194.042 312.76 193.762 312.86C193.492 312.96 193.127 313.01 192.667 313.01C192.287 313.01 191.907 312.945 191.527 312.815C191.157 312.685 190.822 312.49 190.522 312.23C190.232 311.96 189.992 311.625 189.802 311.225C189.622 310.815 189.532 310.335 189.532 309.785ZM191.422 309.68C191.422 310.25 191.582 310.68 191.902 310.97C192.222 311.26 192.622 311.405 193.102 311.405C193.512 311.405 193.847 311.34 194.107 311.21C194.367 311.08 194.567 310.92 194.707 310.73C194.737 310.52 194.752 310.32 194.752 310.13C194.752 309.85 194.717 309.575 194.647 309.305C194.577 309.035 194.467 308.795 194.317 308.585C194.177 308.375 193.992 308.21 193.762 308.09C193.542 307.96 193.277 307.895 192.967 307.895C192.477 307.895 192.097 308.055 191.827 308.375C191.557 308.685 191.422 309.12 191.422 309.68ZM208.43 312.26C208.43 311.91 208.54 311.635 208.76 311.435C208.98 311.225 209.27 311.12 209.63 311.12C210.01 311.12 210.31 311.225 210.53 311.435C210.75 311.635 210.86 311.91 210.86 312.26C210.86 312.61 210.75 312.89 210.53 313.1C210.31 313.31 210.01 313.415 209.63 313.415C209.27 313.415 208.98 313.31 208.76 313.1C208.54 312.89 208.43 312.61 208.43 312.26ZM225.237 315.485C225.897 315.485 226.402 315.325 226.752 315.005C227.102 314.685 227.277 314.245 227.277 313.685C227.277 313.085 227.072 312.645 226.662 312.365C226.252 312.085 225.667 311.945 224.907 311.945L223.722 311.99V306.5H228.882V308.33H225.402V310.355L226.017 310.295C226.507 310.315 226.947 310.405 227.337 310.565C227.737 310.725 228.077 310.95 228.357 311.24C228.637 311.52 228.852 311.865 229.002 312.275C229.152 312.675 229.227 313.125 229.227 313.625C229.227 314.215 229.127 314.735 228.927 315.185C228.727 315.635 228.447 316.01 228.087 316.31C227.737 316.61 227.322 316.835 226.842 316.985C226.362 317.135 225.837 317.21 225.267 317.21C224.817 317.21 224.387 317.17 223.977 317.09C223.577 317.02 223.237 316.92 222.957 316.79L223.482 315.17C223.712 315.27 223.962 315.35 224.232 315.41C224.512 315.46 224.847 315.485 225.237 315.485ZM232.191 311.825H235.956V313.55H232.191V311.825ZM245.52 313.745C245.52 314.235 245.435 314.69 245.265 315.11C245.105 315.53 244.875 315.895 244.575 316.205C244.275 316.515 243.91 316.76 243.48 316.94C243.06 317.12 242.595 317.21 242.085 317.21C241.565 317.21 241.085 317.13 240.645 316.97C240.215 316.8 239.84 316.55 239.52 316.22C239.2 315.89 238.95 315.475 238.77 314.975C238.59 314.475 238.5 313.895 238.5 313.235C238.5 312.245 238.64 311.35 238.92 310.55C239.21 309.75 239.595 309.055 240.075 308.465C240.565 307.865 241.13 307.385 241.77 307.025C242.42 306.655 243.105 306.41 243.825 306.29L244.26 307.835C243.76 307.915 243.3 308.07 242.88 308.3C242.46 308.53 242.085 308.805 241.755 309.125C241.435 309.445 241.16 309.805 240.93 310.205C240.71 310.595 240.555 311 240.465 311.42C240.665 311.17 240.925 310.96 241.245 310.79C241.565 310.61 241.965 310.52 242.445 310.52C242.895 310.52 243.31 310.59 243.69 310.73C244.07 310.87 244.395 311.08 244.665 311.36C244.935 311.63 245.145 311.965 245.295 312.365C245.445 312.765 245.52 313.225 245.52 313.745ZM243.63 313.85C243.63 312.73 243.08 312.17 241.98 312.17C241.58 312.17 241.24 312.26 240.96 312.44C240.69 312.62 240.5 312.83 240.39 313.07C240.37 313.18 240.36 313.275 240.36 313.355C240.36 313.435 240.36 313.515 240.36 313.595C240.36 313.835 240.395 314.075 240.465 314.315C240.535 314.545 240.635 314.755 240.765 314.945C240.905 315.125 241.08 315.275 241.29 315.395C241.5 315.505 241.75 315.56 242.04 315.56C242.51 315.56 242.89 315.4 243.18 315.08C243.48 314.76 243.63 314.35 243.63 313.85ZM248.559 310.58C248.559 310.23 248.669 309.955 248.889 309.755C249.109 309.545 249.399 309.44 249.759 309.44C250.139 309.44 250.439 309.545 250.659 309.755C250.879 309.955 250.989 310.23 250.989 310.58C250.989 310.93 250.879 311.21 250.659 311.42C250.439 311.63 250.139 311.735 249.759 311.735C249.399 311.735 249.109 311.63 248.889 311.42C248.669 311.21 248.559 310.93 248.559 310.58ZM248.559 316.01C248.559 315.66 248.669 315.385 248.889 315.185C249.109 314.975 249.399 314.87 249.759 314.87C250.139 314.87 250.439 314.975 250.659 315.185C250.879 315.385 250.989 315.66 250.989 316.01C250.989 316.36 250.879 316.64 250.659 316.85C250.439 317.06 250.139 317.165 249.759 317.165C249.399 317.165 249.109 317.06 248.889 316.85C248.669 316.64 248.559 316.36 248.559 316.01ZM255.741 315.56C256.361 315.56 256.831 315.395 257.151 315.065C257.481 314.735 257.646 314.335 257.646 313.865C257.646 313.295 257.476 312.875 257.136 312.605C256.796 312.335 256.261 312.2 255.531 312.2H254.451V311.165L256.266 308.69L257.121 308.015L255.936 308.15H253.416V306.5H259.146V307.565L257.031 310.4L256.371 310.805V310.88L257.001 310.79C257.351 310.82 257.681 310.9 257.991 311.03C258.311 311.16 258.586 311.35 258.816 311.6C259.056 311.84 259.246 312.14 259.386 312.5C259.526 312.86 259.596 313.275 259.596 313.745C259.596 314.335 259.496 314.845 259.296 315.275C259.106 315.705 258.836 316.065 258.486 316.355C258.146 316.645 257.746 316.86 257.286 317C256.826 317.14 256.331 317.21 255.801 317.21C255.361 317.21 254.906 317.17 254.436 317.09C253.966 317.01 253.586 316.895 253.296 316.745L253.821 315.125C254.081 315.255 254.366 315.36 254.676 315.44C254.996 315.52 255.351 315.56 255.741 315.56ZM262.17 311.735C262.17 309.895 262.485 308.53 263.115 307.64C263.745 306.74 264.65 306.29 265.83 306.29C267.09 306.29 268.015 306.735 268.605 307.625C269.195 308.505 269.49 309.875 269.49 311.735C269.49 313.585 269.17 314.96 268.53 315.86C267.9 316.76 266.995 317.21 265.815 317.21C264.565 317.21 263.645 316.74 263.055 315.8C262.465 314.85 262.17 313.495 262.17 311.735ZM264.12 311.735C264.12 312.955 264.25 313.9 264.51 314.57C264.78 315.23 265.22 315.56 265.83 315.56C266.42 315.56 266.85 315.255 267.12 314.645C267.4 314.035 267.54 313.065 267.54 311.735C267.54 310.525 267.41 309.59 267.15 308.93C266.89 308.27 266.445 307.94 265.815 307.94C265.215 307.94 264.78 308.25 264.51 308.87C264.25 309.49 264.12 310.445 264.12 311.735ZM276.641 306.605C277.061 306.525 277.521 306.465 278.021 306.425C278.531 306.375 279.036 306.35 279.536 306.35C280.056 306.35 280.576 306.395 281.096 306.485C281.626 306.565 282.101 306.735 282.521 306.995C282.941 307.245 283.281 307.6 283.541 308.06C283.811 308.51 283.946 309.1 283.946 309.83C283.946 310.49 283.831 311.05 283.601 311.51C283.371 311.96 283.066 312.33 282.686 312.62C282.306 312.91 281.871 313.12 281.381 313.25C280.901 313.38 280.401 313.445 279.881 313.445C279.831 313.445 279.751 313.445 279.641 313.445C279.531 313.445 279.416 313.445 279.296 313.445C279.176 313.435 279.056 313.425 278.936 313.415C278.826 313.405 278.746 313.395 278.696 313.385V317H276.641V306.605ZM279.701 308.12C279.501 308.12 279.311 308.13 279.131 308.15C278.951 308.16 278.806 308.175 278.696 308.195V311.6C278.736 311.61 278.796 311.62 278.876 311.63C278.956 311.64 279.041 311.65 279.131 311.66C279.221 311.66 279.306 311.66 279.386 311.66C279.476 311.66 279.541 311.66 279.581 311.66C279.851 311.66 280.116 311.635 280.376 311.585C280.646 311.535 280.886 311.445 281.096 311.315C281.306 311.175 281.471 310.985 281.591 310.745C281.721 310.505 281.786 310.19 281.786 309.8C281.786 309.47 281.726 309.2 281.606 308.99C281.486 308.77 281.326 308.595 281.126 308.465C280.936 308.335 280.716 308.245 280.466 308.195C280.216 308.145 279.961 308.12 279.701 308.12ZM294.303 311.555L294.528 309.47H294.438L293.793 311.15L291.558 315.065H290.898L288.543 311.135L287.883 309.47H287.808L288.108 311.54V317H286.158V306.5H288.033L290.838 311.3L291.333 312.5H291.393L291.843 311.27L294.498 306.5H296.358V317H294.303V311.555Z" fill="white"/>
<path id="Decaf" d="M67.7 125.815C68.39 125.695 69.125 125.59 69.905 125.5C70.715 125.38 71.51 125.29 72.29 125.23C73.1 125.17 73.88 125.125 74.63 125.095C75.38 125.065 76.07 125.05 76.7 125.05C78.17 125.05 79.61 125.185 81.02 125.455C82.46 125.725 83.735 126.19 84.845 126.85C85.985 127.51 86.885 128.425 87.545 129.595C88.235 130.735 88.58 132.175 88.58 133.915C88.58 136.495 87.98 138.595 86.78 140.215C85.58 141.835 83.975 142.96 81.965 143.59L84.17 144.985L91.37 157H84.26L77.105 144.67L73.865 144.085V157H67.7V125.815ZM77.15 130.54C76.52 130.54 75.89 130.555 75.26 130.585C74.66 130.615 74.195 130.675 73.865 130.765V139.9H76.475C78.185 139.9 79.55 139.51 80.57 138.73C81.59 137.95 82.1 136.66 82.1 134.86C82.1 133.51 81.68 132.46 80.84 131.71C80 130.93 78.77 130.54 77.15 130.54ZM110.482 155.065C109.582 155.785 108.352 156.4 106.792 156.91C105.262 157.39 103.627 157.63 101.887 157.63C98.257 157.63 95.602 156.58 93.922 154.48C92.242 152.35 91.402 149.44 91.402 145.75C91.402 141.79 92.347 138.82 94.237 136.84C96.127 134.86 98.782 133.87 102.202 133.87C103.342 133.87 104.452 134.02 105.532 134.32C106.612 134.62 107.572 135.115 108.412 135.805C109.252 136.495 109.927 137.425 110.437 138.595C110.947 139.765 111.202 141.22 111.202 142.96C111.202 143.59 111.157 144.265 111.067 144.985C111.007 145.705 110.902 146.455 110.752 147.235H97.252C97.342 149.125 97.822 150.55 98.692 151.51C99.592 152.47 101.032 152.95 103.012 152.95C104.242 152.95 105.337 152.77 106.297 152.41C107.287 152.02 108.037 151.63 108.547 151.24L110.482 155.065ZM102.112 138.55C100.582 138.55 99.442 139.015 98.692 139.945C97.972 140.845 97.537 142.06 97.387 143.59H105.757C105.877 141.97 105.622 140.725 104.992 139.855C104.392 138.985 103.432 138.55 102.112 138.55ZM124.649 150.79C124.649 150.19 124.394 149.71 123.884 149.35C123.374 148.99 122.744 148.66 121.994 148.36C121.244 148.06 120.419 147.76 119.519 147.46C118.619 147.13 117.794 146.695 117.044 146.155C116.294 145.585 115.664 144.88 115.154 144.04C114.644 143.17 114.389 142.06 114.389 140.71C114.389 138.49 115.049 136.795 116.369 135.625C117.689 134.455 119.594 133.87 122.084 133.87C123.794 133.87 125.339 134.05 126.719 134.41C128.099 134.77 129.179 135.175 129.959 135.625L128.654 139.855C127.964 139.585 127.094 139.3 126.044 139C124.994 138.7 123.929 138.55 122.849 138.55C121.109 138.55 120.239 139.225 120.239 140.575C120.239 141.115 120.494 141.55 121.004 141.88C121.514 142.21 122.144 142.525 122.894 142.825C123.644 143.095 124.469 143.395 125.369 143.725C126.269 144.055 127.094 144.49 127.844 145.03C128.594 145.54 129.224 146.215 129.734 147.055C130.244 147.895 130.499 148.975 130.499 150.295C130.499 152.575 129.764 154.375 128.294 155.695C126.854 156.985 124.679 157.63 121.769 157.63C120.179 157.63 118.679 157.42 117.269 157C115.889 156.61 114.764 156.145 113.894 155.605L115.514 151.24C116.204 151.63 117.119 152.02 118.259 152.41C119.399 152.77 120.569 152.95 121.769 152.95C122.639 152.95 123.329 152.785 123.839 152.455C124.379 152.125 124.649 151.57 124.649 150.79ZM139.943 134.5V147.28C139.943 149.11 140.153 150.43 140.573 151.24C141.023 152.05 141.878 152.455 143.138 152.455C144.248 152.455 145.163 152.125 145.883 151.465C146.633 150.805 147.188 149.995 147.548 149.035V134.5H153.398V150.16C153.398 151.39 153.458 152.605 153.578 153.805C153.698 154.975 153.878 156.04 154.118 157H149.708L148.673 153.67H148.493C147.803 154.81 146.843 155.755 145.613 156.505C144.383 157.255 142.928 157.63 141.248 157.63C140.108 157.63 139.088 157.48 138.188 157.18C137.288 156.88 136.538 156.385 135.938 155.695C135.338 155.005 134.873 154.075 134.543 152.905C134.243 151.735 134.093 150.265 134.093 148.495V134.5H139.943ZM171.312 157V144.76C171.312 142.69 171.117 141.22 170.727 140.35C170.337 139.48 169.527 139.045 168.297 139.045C167.277 139.045 166.452 139.33 165.822 139.9C165.192 140.44 164.712 141.145 164.382 142.015V157H158.532V134.5H163.077L163.752 137.47H163.932C164.622 136.51 165.492 135.67 166.542 134.95C167.622 134.23 169.002 133.87 170.682 133.87C172.122 133.87 173.292 134.17 174.192 134.77C175.122 135.34 175.842 136.315 176.352 137.695C177.042 136.525 177.927 135.595 179.007 134.905C180.087 134.215 181.392 133.87 182.922 133.87C184.182 133.87 185.247 134.02 186.117 134.32C187.017 134.62 187.737 135.145 188.277 135.895C188.847 136.615 189.267 137.59 189.537 138.82C189.807 140.05 189.942 141.61 189.942 143.5V157H184.092V144.355C184.092 142.585 183.897 141.265 183.507 140.395C183.147 139.495 182.322 139.045 181.032 139.045C179.982 139.045 179.142 139.33 178.512 139.9C177.912 140.47 177.462 141.25 177.162 142.24V157H171.312ZM212.743 155.065C211.843 155.785 210.613 156.4 209.053 156.91C207.523 157.39 205.888 157.63 204.148 157.63C200.518 157.63 197.863 156.58 196.183 154.48C194.503 152.35 193.663 149.44 193.663 145.75C193.663 141.79 194.608 138.82 196.498 136.84C198.388 134.86 201.043 133.87 204.463 133.87C205.603 133.87 206.713 134.02 207.793 134.32C208.873 134.62 209.833 135.115 210.673 135.805C211.513 136.495 212.188 137.425 212.698 138.595C213.208 139.765 213.463 141.22 213.463 142.96C213.463 143.59 213.418 144.265 213.328 144.985C213.268 145.705 213.163 146.455 213.013 147.235H199.513C199.603 149.125 200.083 150.55 200.953 151.51C201.853 152.47 203.293 152.95 205.273 152.95C206.503 152.95 207.598 152.77 208.558 152.41C209.548 152.02 210.298 151.63 210.808 151.24L212.743 155.065ZM204.373 138.55C202.843 138.55 201.703 139.015 200.953 139.945C200.233 140.845 199.798 142.06 199.648 143.59H208.018C208.138 141.97 207.883 140.725 207.253 139.855C206.653 138.985 205.693 138.55 204.373 138.55ZM89.03 202.695C88.07 203.385 86.84 203.88 85.34 204.18C83.87 204.48 82.355 204.63 80.795 204.63C78.905 204.63 77.105 204.345 75.395 203.775C73.715 203.175 72.23 202.23 70.94 200.94C69.65 199.62 68.615 197.925 67.835 195.855C67.085 193.755 66.71 191.22 66.71 188.25C66.71 185.16 67.13 182.58 67.97 180.51C68.84 178.41 69.95 176.73 71.3 175.47C72.68 174.18 74.21 173.265 75.89 172.725C77.57 172.155 79.25 171.87 80.93 171.87C82.73 171.87 84.245 171.99 85.475 172.23C86.735 172.47 87.77 172.755 88.58 173.085L87.365 178.305C86.675 177.975 85.85 177.735 84.89 177.585C83.96 177.435 82.82 177.36 81.47 177.36C78.98 177.36 76.97 178.245 75.44 180.015C73.94 181.785 73.19 184.53 73.19 188.25C73.19 189.87 73.37 191.355 73.73 192.705C74.09 194.025 74.63 195.165 75.35 196.125C76.1 197.055 77.015 197.79 78.095 198.33C79.205 198.84 80.48 199.095 81.92 199.095C83.27 199.095 84.41 198.96 85.34 198.69C86.27 198.42 87.08 198.075 87.77 197.655L89.03 202.695ZM104.638 186.99C103.708 186.66 102.868 186.495 102.118 186.495C101.068 186.495 100.183 186.78 99.4633 187.35C98.7733 187.89 98.3083 188.595 98.0683 189.465V204H92.2183V181.5H96.7633L97.4383 184.47H97.6183C98.1283 183.36 98.8183 182.505 99.6883 181.905C100.558 181.305 101.578 181.005 102.748 181.005C103.528 181.005 104.413 181.17 105.403 181.5L104.638 186.99ZM108.49 181.5H114.34V204H108.49V181.5ZM107.635 175.155C107.635 174.285 107.95 173.55 108.58 172.95C109.24 172.32 110.14 172.005 111.28 172.005C112.42 172.005 113.335 172.32 114.025 172.95C114.745 173.55 115.105 174.285 115.105 175.155C115.105 176.025 114.745 176.76 114.025 177.36C113.335 177.93 112.42 178.215 111.28 178.215C110.14 178.215 109.24 177.93 108.58 177.36C107.95 176.76 107.635 176.025 107.635 175.155ZM117.74 181.5H120.845V177.27L126.695 175.605V181.5H132.185V186.45H126.695V195.09C126.695 196.65 126.845 197.775 127.145 198.465C127.475 199.125 128.075 199.455 128.945 199.455C129.545 199.455 130.055 199.395 130.475 199.275C130.925 199.155 131.42 198.975 131.96 198.735L132.995 203.235C132.185 203.625 131.24 203.955 130.16 204.225C129.08 204.495 127.985 204.63 126.875 204.63C124.805 204.63 123.275 204.105 122.285 203.055C121.325 201.975 120.845 200.22 120.845 197.79V186.45H117.74V181.5ZM136.263 181.5H142.113V204H136.263V181.5ZM135.408 175.155C135.408 174.285 135.723 173.55 136.353 172.95C137.013 172.32 137.913 172.005 139.053 172.005C140.193 172.005 141.108 172.32 141.798 172.95C142.518 173.55 142.878 174.285 142.878 175.155C142.878 176.025 142.518 176.76 141.798 177.36C141.108 177.93 140.193 178.215 139.053 178.215C137.913 178.215 137.013 177.93 136.353 177.36C135.723 176.76 135.408 176.025 135.408 175.155ZM166.888 213H161.038V202.065H160.858C160.348 202.845 159.658 203.475 158.788 203.955C157.918 204.405 156.793 204.63 155.413 204.63C152.623 204.63 150.478 203.685 148.978 201.795C147.508 199.905 146.773 197.04 146.773 193.2C146.773 189.18 147.778 186.135 149.788 184.065C151.828 181.995 154.738 180.96 158.518 180.96C159.328 180.96 160.138 181.005 160.948 181.095C161.758 181.155 162.523 181.26 163.243 181.41C163.993 181.53 164.683 181.68 165.313 181.86C165.943 182.01 166.468 182.16 166.888 182.31V213ZM156.988 199.68C158.128 199.68 158.998 199.425 159.598 198.915C160.228 198.405 160.708 197.64 161.038 196.62V186.495C160.588 186.255 160.078 186.105 159.508 186.045C158.938 185.955 158.293 185.91 157.573 185.91C155.983 185.91 154.783 186.51 153.973 187.71C153.193 188.91 152.803 190.665 152.803 192.975C152.803 195.165 153.163 196.83 153.883 197.97C154.603 199.11 155.638 199.68 156.988 199.68ZM177.604 181.5V194.28C177.604 196.11 177.814 197.43 178.234 198.24C178.684 199.05 179.539 199.455 180.799 199.455C181.909 199.455 182.824 199.125 183.544 198.465C184.294 197.805 184.849 196.995 185.209 196.035V181.5H191.059V197.16C191.059 198.39 191.119 199.605 191.239 200.805C191.359 201.975 191.539 203.04 191.779 204H187.369L186.334 200.67H186.154C185.464 201.81 184.504 202.755 183.274 203.505C182.044 204.255 180.589 204.63 178.909 204.63C177.769 204.63 176.749 204.48 175.849 204.18C174.949 203.88 174.199 203.385 173.599 202.695C172.999 202.005 172.534 201.075 172.204 199.905C171.904 198.735 171.754 197.265 171.754 195.495V181.5H177.604ZM214.193 202.065C213.293 202.785 212.063 203.4 210.503 203.91C208.973 204.39 207.338 204.63 205.598 204.63C201.968 204.63 199.313 203.58 197.633 201.48C195.953 199.35 195.113 196.44 195.113 192.75C195.113 188.79 196.058 185.82 197.948 183.84C199.838 181.86 202.493 180.87 205.913 180.87C207.053 180.87 208.163 181.02 209.243 181.32C210.323 181.62 211.283 182.115 212.123 182.805C212.963 183.495 213.638 184.425 214.148 185.595C214.658 186.765 214.913 188.22 214.913 189.96C214.913 190.59 214.868 191.265 214.778 191.985C214.718 192.705 214.613 193.455 214.463 194.235H200.963C201.053 196.125 201.533 197.55 202.403 198.51C203.303 199.47 204.743 199.95 206.723 199.95C207.953 199.95 209.048 199.77 210.008 199.41C210.998 199.02 211.748 198.63 212.258 198.24L214.193 202.065ZM205.823 185.55C204.293 185.55 203.153 186.015 202.403 186.945C201.683 187.845 201.248 189.06 201.098 190.59H209.468C209.588 188.97 209.333 187.725 208.703 186.855C208.103 185.985 207.143 185.55 205.823 185.55Z" fill="white"/>
<path id="CSE 1202" d="M74.612 293.478C74.228 293.754 73.736 293.952 73.136 294.072C72.548 294.192 71.942 294.252 71.318 294.252C70.562 294.252 69.842 294.138 69.158 293.91C68.486 293.67 67.892 293.292 67.376 292.776C66.86 292.248 66.446 291.57 66.134 290.742C65.834 289.902 65.684 288.888 65.684 287.7C65.684 286.464 65.852 285.432 66.188 284.604C66.536 283.764 66.98 283.092 67.52 282.588C68.072 282.072 68.684 281.706 69.356 281.49C70.028 281.262 70.7 281.148 71.372 281.148C72.092 281.148 72.698 281.196 73.19 281.292C73.694 281.388 74.108 281.502 74.432 281.634L73.946 283.722C73.67 283.59 73.34 283.494 72.956 283.434C72.584 283.374 72.128 283.344 71.588 283.344C70.592 283.344 69.788 283.698 69.176 284.406C68.576 285.114 68.276 286.212 68.276 287.7C68.276 288.348 68.348 288.942 68.492 289.482C68.636 290.01 68.852 290.466 69.14 290.85C69.44 291.222 69.806 291.516 70.238 291.732C70.682 291.936 71.192 292.038 71.768 292.038C72.308 292.038 72.764 291.984 73.136 291.876C73.508 291.768 73.832 291.63 74.108 291.462L74.612 293.478ZM82.504 290.616C82.504 290.232 82.36 289.92 82.072 289.68C81.796 289.44 81.442 289.224 81.01 289.032C80.59 288.828 80.128 288.624 79.624 288.42C79.132 288.204 78.67 287.946 78.238 287.646C77.818 287.334 77.464 286.95 77.176 286.494C76.9 286.038 76.762 285.456 76.762 284.748C76.762 284.136 76.864 283.608 77.068 283.164C77.272 282.708 77.56 282.33 77.932 282.03C78.316 281.73 78.766 281.508 79.282 281.364C79.798 281.22 80.374 281.148 81.01 281.148C81.742 281.148 82.432 281.214 83.08 281.346C83.728 281.466 84.262 281.646 84.682 281.886L83.908 283.956C83.644 283.788 83.248 283.638 82.72 283.506C82.192 283.362 81.622 283.29 81.01 283.29C80.434 283.29 79.99 283.404 79.678 283.632C79.378 283.86 79.228 284.166 79.228 284.55C79.228 284.91 79.366 285.21 79.642 285.45C79.93 285.69 80.284 285.912 80.704 286.116C81.136 286.32 81.598 286.53 82.09 286.746C82.594 286.962 83.056 287.226 83.476 287.538C83.908 287.838 84.262 288.216 84.538 288.672C84.826 289.116 84.97 289.674 84.97 290.346C84.97 291.018 84.856 291.6 84.628 292.092C84.412 292.572 84.1 292.974 83.692 293.298C83.296 293.622 82.81 293.862 82.234 294.018C81.67 294.174 81.046 294.252 80.362 294.252C79.462 294.252 78.67 294.168 77.986 294C77.302 293.832 76.798 293.664 76.474 293.496L77.266 291.39C77.398 291.462 77.566 291.54 77.77 291.624C77.986 291.708 78.226 291.786 78.49 291.858C78.754 291.93 79.03 291.99 79.318 292.038C79.618 292.086 79.924 292.11 80.236 292.11C80.968 292.11 81.526 291.99 81.91 291.75C82.306 291.498 82.504 291.12 82.504 290.616ZM87.5463 281.4H95.0163V283.596H90.0123V286.53H94.5663V288.726H90.0123V291.804H95.1063V294H87.5463V281.4ZM104.108 292.02H106.61V284.91L106.88 283.686L106.016 284.748L104.414 285.846L103.424 284.496L107.528 281.184H108.842V292.02H111.29V294H104.108V292.02ZM121.986 284.478C121.986 285.09 121.872 285.708 121.644 286.332C121.428 286.956 121.146 287.568 120.798 288.168C120.462 288.768 120.084 289.35 119.664 289.914C119.256 290.466 118.854 290.976 118.458 291.444L117.504 292.182V292.272L118.8 292.02H122.256V294H114.678V292.794C114.966 292.494 115.29 292.146 115.65 291.75C116.01 291.342 116.37 290.916 116.73 290.472C117.102 290.016 117.462 289.548 117.81 289.068C118.158 288.588 118.47 288.108 118.746 287.628C119.022 287.136 119.238 286.662 119.394 286.206C119.562 285.75 119.646 285.318 119.646 284.91C119.646 284.418 119.502 284.016 119.214 283.704C118.938 283.38 118.494 283.218 117.882 283.218C117.498 283.218 117.102 283.302 116.694 283.47C116.298 283.626 115.962 283.83 115.686 284.082L114.75 282.426C115.218 282.042 115.746 281.736 116.334 281.508C116.934 281.268 117.636 281.148 118.44 281.148C118.956 281.148 119.43 281.22 119.862 281.364C120.294 281.508 120.666 281.718 120.978 281.994C121.29 282.27 121.536 282.618 121.716 283.038C121.896 283.446 121.986 283.926 121.986 284.478ZM125.302 287.682C125.302 285.474 125.68 283.836 126.436 282.768C127.192 281.688 128.278 281.148 129.694 281.148C131.206 281.148 132.316 281.682 133.024 282.75C133.732 283.806 134.086 285.45 134.086 287.682C134.086 289.902 133.702 291.552 132.934 292.632C132.178 293.712 131.092 294.252 129.676 294.252C128.176 294.252 127.072 293.688 126.364 292.56C125.656 291.42 125.302 289.794 125.302 287.682ZM127.642 287.682C127.642 289.146 127.798 290.28 128.11 291.084C128.434 291.876 128.962 292.272 129.694 292.272C130.402 292.272 130.918 291.906 131.242 291.174C131.578 290.442 131.746 289.278 131.746 287.682C131.746 286.23 131.59 285.108 131.278 284.316C130.966 283.524 130.432 283.128 129.676 283.128C128.956 283.128 128.434 283.5 128.11 284.244C127.798 284.988 127.642 286.134 127.642 287.682ZM144.279 284.478C144.279 285.09 144.165 285.708 143.937 286.332C143.721 286.956 143.439 287.568 143.091 288.168C142.755 288.768 142.377 289.35 141.957 289.914C141.549 290.466 141.147 290.976 140.751 291.444L139.797 292.182V292.272L141.093 292.02H144.549V294H136.971V292.794C137.259 292.494 137.583 292.146 137.943 291.75C138.303 291.342 138.663 290.916 139.023 290.472C139.395 290.016 139.755 289.548 140.103 289.068C140.451 288.588 140.763 288.108 141.039 287.628C141.315 287.136 141.531 286.662 141.687 286.206C141.855 285.75 141.939 285.318 141.939 284.91C141.939 284.418 141.795 284.016 141.507 283.704C141.231 283.38 140.787 283.218 140.175 283.218C139.791 283.218 139.395 283.302 138.987 283.47C138.591 283.626 138.255 283.83 137.979 284.082L137.043 282.426C137.511 282.042 138.039 281.736 138.627 281.508C139.227 281.268 139.929 281.148 140.733 281.148C141.249 281.148 141.723 281.22 142.155 281.364C142.587 281.508 142.959 281.718 143.271 281.994C143.583 282.27 143.829 282.618 144.009 283.038C144.189 283.446 144.279 283.926 144.279 284.478Z" fill="white"/>
<path id="Hosted by CSES" d="M71.056 355.506H66.352V360H65.19V350.2H66.352V354.47H71.056V350.2H72.218V360H71.056V355.506ZM74.0923 356.5C74.0923 355.315 74.3536 354.409 74.8763 353.784C75.4083 353.149 76.1689 352.832 77.1583 352.832C77.6809 352.832 78.1336 352.921 78.5163 353.098C78.9083 353.266 79.2303 353.513 79.4823 353.84C79.7343 354.157 79.9209 354.545 80.0423 355.002C80.1636 355.45 80.2243 355.949 80.2243 356.5C80.2243 357.685 79.9583 358.595 79.4263 359.23C78.9036 359.855 78.1476 360.168 77.1583 360.168C76.6356 360.168 76.1783 360.084 75.7863 359.916C75.4036 359.739 75.0863 359.491 74.8343 359.174C74.5823 358.847 74.3956 358.46 74.2743 358.012C74.1529 357.555 74.0923 357.051 74.0923 356.5ZM75.2542 356.5C75.2542 356.855 75.2869 357.195 75.3523 357.522C75.4269 357.849 75.5389 358.133 75.6883 358.376C75.8376 358.619 76.0336 358.815 76.2763 358.964C76.5189 359.113 76.8129 359.188 77.1583 359.188C78.4276 359.197 79.0623 358.301 79.0623 356.5C79.0623 356.136 79.0249 355.791 78.9503 355.464C78.8849 355.137 78.7776 354.853 78.6283 354.61C78.4789 354.367 78.2829 354.176 78.0403 354.036C77.7976 353.887 77.5036 353.812 77.1583 353.812C75.8889 353.803 75.2542 354.699 75.2542 356.5ZM85.0701 358.096C85.0701 357.816 84.9861 357.597 84.8181 357.438C84.6501 357.279 84.4401 357.149 84.1881 357.046C83.9454 356.934 83.6748 356.831 83.3761 356.738C83.0868 356.635 82.8161 356.509 82.5641 356.36C82.3214 356.201 82.1161 356.001 81.9481 355.758C81.7801 355.515 81.6961 355.189 81.6961 354.778C81.6961 354.106 81.8874 353.616 82.2701 353.308C82.6528 352.991 83.1848 352.832 83.8661 352.832C84.3701 352.832 84.7901 352.879 85.1261 352.972C85.4714 353.056 85.7701 353.159 86.0221 353.28L85.7561 354.204C85.5414 354.101 85.2801 354.013 84.9721 353.938C84.6734 353.854 84.3514 353.812 84.0061 353.812C83.5954 353.812 83.2921 353.882 83.0961 354.022C82.9094 354.162 82.8161 354.405 82.8161 354.75C82.8161 354.993 82.9001 355.184 83.0681 355.324C83.2361 355.455 83.4414 355.576 83.6841 355.688C83.9361 355.791 84.2068 355.893 84.4961 355.996C84.7948 356.099 85.0654 356.234 85.3081 356.402C85.5601 356.57 85.7701 356.785 85.9381 357.046C86.1061 357.298 86.1901 357.634 86.1901 358.054C86.1901 358.353 86.1388 358.633 86.0361 358.894C85.9428 359.155 85.7934 359.379 85.5881 359.566C85.3828 359.753 85.1261 359.897 84.8181 360C84.5194 360.112 84.1648 360.168 83.7541 360.168C83.2221 360.168 82.7694 360.117 82.3961 360.014C82.0228 359.911 81.7101 359.79 81.4581 359.65L81.7941 358.698C82.0088 358.819 82.2888 358.931 82.6341 359.034C82.9794 359.137 83.3294 359.188 83.6841 359.188C84.0854 359.188 84.4168 359.109 84.6781 358.95C84.9394 358.791 85.0701 358.507 85.0701 358.096ZM86.9587 353H88.0507V351.614L89.1707 351.292V353H91.0747V353.98H89.1707V357.858C89.1707 358.343 89.2314 358.689 89.3527 358.894C89.474 359.09 89.6794 359.188 89.9687 359.188C90.2114 359.188 90.4167 359.165 90.5847 359.118C90.7527 359.062 90.9394 358.992 91.1447 358.908L91.3967 359.762C91.1447 359.883 90.8694 359.981 90.5707 360.056C90.272 360.131 89.95 360.168 89.6047 360.168C89.0354 360.168 88.634 360.009 88.4007 359.692C88.1674 359.365 88.0507 358.824 88.0507 358.068V353.98H86.9587V353ZM97.5864 359.44C97.3064 359.664 96.9518 359.841 96.5224 359.972C96.1024 360.103 95.6544 360.168 95.1784 360.168C94.6464 360.168 94.1844 360.084 93.7924 359.916C93.4004 359.739 93.0784 359.491 92.8264 359.174C92.5744 358.847 92.3878 358.46 92.2664 358.012C92.1451 357.564 92.0844 357.06 92.0844 356.5C92.0844 355.305 92.3504 354.395 92.8824 353.77C93.4144 353.145 94.1751 352.832 95.1644 352.832C95.4818 352.832 95.7991 352.869 96.1164 352.944C96.4338 353.009 96.7184 353.14 96.9704 353.336C97.2224 353.532 97.4278 353.812 97.5864 354.176C97.7451 354.531 97.8244 355.002 97.8244 355.59C97.8244 355.898 97.7964 356.239 97.7404 356.612H93.2464C93.2464 357.023 93.2884 357.387 93.3724 357.704C93.4564 358.021 93.5871 358.292 93.7644 358.516C93.9418 358.731 94.1704 358.899 94.4504 359.02C94.7398 359.132 95.0898 359.188 95.5004 359.188C95.8178 359.188 96.1351 359.132 96.4524 359.02C96.7698 358.908 97.0078 358.777 97.1664 358.628L97.5864 359.44ZM95.1784 353.812C94.6278 353.812 94.1844 353.957 93.8484 354.246C93.5218 354.535 93.3258 355.03 93.2604 355.73H96.7324C96.7324 355.021 96.5971 354.526 96.3264 354.246C96.0558 353.957 95.6731 353.812 95.1784 353.812ZM104.962 357.592C104.962 358.068 104.966 358.502 104.976 358.894C104.985 359.277 105.027 359.655 105.102 360.028H104.346L104.066 359.034H104.01C103.823 359.361 103.552 359.631 103.198 359.846C102.843 360.061 102.428 360.168 101.952 360.168C101.018 360.168 100.323 359.874 99.8658 359.286C99.4178 358.698 99.1938 357.779 99.1938 356.528C99.1938 355.333 99.4738 354.428 100.034 353.812C100.603 353.187 101.382 352.874 102.372 352.874C102.717 352.874 102.988 352.893 103.184 352.93C103.389 352.967 103.608 353.028 103.842 353.112V350.2H104.962V357.592ZM102.134 359.188C102.61 359.188 102.988 359.067 103.268 358.824C103.548 358.572 103.739 358.194 103.842 357.69V354.218C103.674 354.087 103.482 353.994 103.268 353.938C103.053 353.882 102.768 353.854 102.414 353.854C101.77 353.854 101.266 354.069 100.902 354.498C100.538 354.918 100.356 355.595 100.356 356.528C100.356 356.911 100.384 357.265 100.44 357.592C100.505 357.919 100.608 358.199 100.748 358.432C100.888 358.665 101.07 358.852 101.294 358.992C101.527 359.123 101.807 359.188 102.134 359.188ZM110.851 350.2H111.971V353.686H112.027C112.242 353.415 112.513 353.205 112.839 353.056C113.175 352.907 113.539 352.832 113.931 352.832C114.837 352.832 115.513 353.121 115.961 353.7C116.419 354.279 116.647 355.175 116.647 356.388C116.647 357.611 116.349 358.539 115.751 359.174C115.154 359.809 114.314 360.126 113.231 360.126C112.709 360.126 112.233 360.07 111.803 359.958C111.383 359.846 111.066 359.725 110.851 359.594V350.2ZM113.735 353.812C113.269 353.812 112.891 353.943 112.601 354.204C112.312 354.465 112.102 354.834 111.971 355.31V358.838C112.149 358.941 112.363 359.02 112.615 359.076C112.867 359.123 113.129 359.146 113.399 359.146C114.034 359.146 114.538 358.922 114.911 358.474C115.294 358.026 115.485 357.326 115.485 356.374C115.485 356.01 115.453 355.669 115.387 355.352C115.322 355.035 115.219 354.764 115.079 354.54C114.939 354.316 114.757 354.139 114.533 354.008C114.319 353.877 114.053 353.812 113.735 353.812ZM120.306 357.536L120.698 358.88H120.768L121.076 357.522L122.434 353H123.568L121.496 359.286C121.337 359.743 121.179 360.187 121.02 360.616C120.871 361.045 120.703 361.428 120.516 361.764C120.329 362.1 120.119 362.366 119.886 362.562C119.653 362.767 119.382 362.87 119.074 362.87C118.738 362.87 118.463 362.823 118.248 362.73L118.444 361.764C118.565 361.811 118.682 361.834 118.794 361.834C119.055 361.834 119.307 361.694 119.55 361.414C119.793 361.143 119.993 360.672 120.152 360L117.338 353H118.626L120.306 357.536ZM134.38 359.594C134.1 359.809 133.745 359.958 133.316 360.042C132.887 360.126 132.429 360.168 131.944 360.168C131.356 360.168 130.805 360.07 130.292 359.874C129.779 359.669 129.331 359.361 128.948 358.95C128.565 358.539 128.262 358.017 128.038 357.382C127.814 356.738 127.702 355.977 127.702 355.1C127.702 354.185 127.823 353.411 128.066 352.776C128.318 352.132 128.645 351.609 129.046 351.208C129.457 350.797 129.914 350.499 130.418 350.312C130.922 350.125 131.435 350.032 131.958 350.032C132.518 350.032 132.975 350.065 133.33 350.13C133.685 350.186 133.988 350.265 134.24 350.368L133.96 351.39C133.512 351.175 132.873 351.068 132.042 351.068C131.659 351.068 131.281 351.138 130.908 351.278C130.535 351.418 130.199 351.647 129.9 351.964C129.611 352.281 129.377 352.697 129.2 353.21C129.023 353.723 128.934 354.353 128.934 355.1C128.934 355.772 129.018 356.36 129.186 356.864C129.354 357.368 129.583 357.788 129.872 358.124C130.171 358.46 130.516 358.712 130.908 358.88C131.309 359.048 131.743 359.132 132.21 359.132C132.63 359.132 132.994 359.09 133.302 359.006C133.619 358.922 133.885 358.815 134.1 358.684L134.38 359.594ZM140.53 357.508C140.53 357.116 140.413 356.799 140.18 356.556C139.947 356.304 139.653 356.085 139.298 355.898C138.953 355.702 138.575 355.52 138.164 355.352C137.753 355.184 137.371 354.983 137.016 354.75C136.671 354.507 136.381 354.213 136.148 353.868C135.915 353.513 135.798 353.065 135.798 352.524C135.798 351.759 136.064 351.152 136.596 350.704C137.128 350.256 137.884 350.032 138.864 350.032C139.433 350.032 139.951 350.074 140.418 350.158C140.885 350.242 141.249 350.349 141.51 350.48L141.16 351.502C140.945 351.399 140.628 351.301 140.208 351.208C139.797 351.115 139.331 351.068 138.808 351.068C138.192 351.068 137.73 351.208 137.422 351.488C137.114 351.759 136.96 352.081 136.96 352.454C136.96 352.818 137.077 353.121 137.31 353.364C137.543 353.607 137.833 353.826 138.178 354.022C138.533 354.209 138.915 354.395 139.326 354.582C139.737 354.769 140.115 354.988 140.46 355.24C140.815 355.483 141.109 355.777 141.342 356.122C141.575 356.467 141.692 356.897 141.692 357.41C141.692 357.83 141.617 358.208 141.468 358.544C141.319 358.88 141.099 359.169 140.81 359.412C140.521 359.655 140.171 359.841 139.76 359.972C139.349 360.103 138.883 360.168 138.36 360.168C137.66 360.168 137.081 360.112 136.624 360C136.167 359.897 135.812 359.781 135.56 359.65L135.952 358.6C136.167 358.721 136.484 358.843 136.904 358.964C137.324 359.076 137.795 359.132 138.318 359.132C138.626 359.132 138.915 359.104 139.186 359.048C139.457 358.983 139.69 358.885 139.886 358.754C140.082 358.614 140.236 358.441 140.348 358.236C140.469 358.031 140.53 357.788 140.53 357.508ZM143.544 350.2H148.878V351.236H144.706V354.442H148.528V355.478H144.706V358.964H148.948V360H143.544V350.2ZM155.473 357.508C155.473 357.116 155.357 356.799 155.123 356.556C154.89 356.304 154.596 356.085 154.241 355.898C153.896 355.702 153.518 355.52 153.107 355.352C152.697 355.184 152.314 354.983 151.959 354.75C151.614 354.507 151.325 354.213 151.091 353.868C150.858 353.513 150.741 353.065 150.741 352.524C150.741 351.759 151.007 351.152 151.539 350.704C152.071 350.256 152.827 350.032 153.807 350.032C154.377 350.032 154.895 350.074 155.361 350.158C155.828 350.242 156.192 350.349 156.453 350.48L156.103 351.502C155.889 351.399 155.571 351.301 155.151 351.208C154.741 351.115 154.274 351.068 153.751 351.068C153.135 351.068 152.673 351.208 152.365 351.488C152.057 351.759 151.903 352.081 151.903 352.454C151.903 352.818 152.02 353.121 152.253 353.364C152.487 353.607 152.776 353.826 153.121 354.022C153.476 354.209 153.859 354.395 154.269 354.582C154.68 354.769 155.058 354.988 155.403 355.24C155.758 355.483 156.052 355.777 156.285 356.122C156.519 356.467 156.635 356.897 156.635 357.41C156.635 357.83 156.561 358.208 156.411 358.544C156.262 358.88 156.043 359.169 155.753 359.412C155.464 359.655 155.114 359.841 154.703 359.972C154.293 360.103 153.826 360.168 153.303 360.168C152.603 360.168 152.025 360.112 151.567 360C151.11 359.897 150.755 359.781 150.503 359.65L150.895 358.6C151.11 358.721 151.427 358.843 151.847 358.964C152.267 359.076 152.739 359.132 153.261 359.132C153.569 359.132 153.859 359.104 154.129 359.048C154.4 358.983 154.633 358.885 154.829 358.754C155.025 358.614 155.179 358.441 155.291 358.236C155.413 358.031 155.473 357.788 155.473 357.508Z" fill="white"/>
</g>
</g>
<defs>
<filter id="filter0_d" x="0" y="0" width="376" height="447" filterUnits="userSpaceOnUse" color-interpolation-filters="sRGB">
<feFlood flood-opacity="0" result="BackgroundImageFix"/>
<feColorMatrix in="SourceAlpha" type="matrix" values="0 0 0 0 0 0 0 0 0 0 0 0 0 0 0 0 0 0 127 0"/>
<feOffset dy="10"/>
<feGaussianBlur stdDeviation="15"/>
<feColorMatrix type="matrix" values="0 0 0 0 0 0 0 0 0 0 0 0 0 0 0 0 0 0 0.1 0"/>
<feBlend mode="normal" in2="BackgroundImageFix" result="effect1_dropShadow"/>
<feBlend mode="normal" in="SourceGraphic" in2="effect1_dropShadow" result="shape"/>
</filter>
<filter id="filter1_d" x="0" y="0" width="376" height="447" filterUnits="userSpaceOnUse" color-interpolation-filters="sRGB">
<feFlood flood-opacity="0" result="BackgroundImageFix"/>
<feColorMatrix in="SourceAlpha" type="matrix" values="0 0 0 0 0 0 0 0 0 0 0 0 0 0 0 0 0 0 127 0"/>
<feOffset dy="10"/>
<feGaussianBlur stdDeviation="15"/>
<feColorMatrix type="matrix" values="0 0 0 0 0 0 0 0 0 0 0 0 0 0 0 0 0 0 0.1 0"/>
<feBlend mode="normal" in2="BackgroundImageFix" result="effect1_dropShadow"/>
<feBlend mode="normal" in="SourceGraphic" in2="effect1_dropShadow" result="shape"/>
</filter>
<linearGradient id="paint0_linear" x1="30" y1="407" x2="436.468" y2="187.613" gradientUnits="userSpaceOnUse">
<stop stop-color="#EBAF3C" stop-opacity="0.9961"/>
<stop offset="0.994832" stop-color="#F3D382"/>
</linearGradient>
</defs>
</svg>
