<?xml version="1.0" encoding="utf-8"?>
<!-- Generator: Adobe Illustrator 22.1.0, SVG Export Plug-In . SVG Version: 6.00 Build 0)  -->
<svg version="1.1" id="Layer_1" xmlns="http://www.w3.org/2000/svg" xmlns:xlink="http://www.w3.org/1999/xlink" x="0px" y="0px"
	 viewBox="0 0 316 388" style="enable-background:new 0 0 316 388;" xml:space="preserve">
<style type="text/css">
	.st0{fill:url(#Bg_2_);}
	.st1{opacity:0.79;fill:#FFFFFF;enable-background:new    ;}
	.st2{opacity:0.7;fill:#FFFFFF;enable-background:new    ;}
	.st3{opacity:0.7;}
	.st4{fill:#FFFFFF;}
	.st5{display:none;fill:#002541;}
	.st6{fill:url(#SVGID_1_);}
	.st7{fill:url(#SVGID_2_);}
	.st8{fill:#03243F;}
	.st9{fill:url(#SVGID_3_);}
	.st10{fill:#F06B62;}
	.st11{fill:#474C9F;}
	.st12{fill:#EA3A4C;}
	.st13{fill:#85D2E5;}
	.st14{fill:#7E4C9D;}
	.st15{display:none;fill:url(#Bg_3_);}
</style>
<g id="Layer_2_1_">
	
		<linearGradient id="Bg_2_" gradientUnits="userSpaceOnUse" x1="130.5238" y1="380.8227" x2="161.1561" y2="174.7702" gradientTransform="matrix(1 0 0 -1 0 390)">
		<stop  offset="0" style="stop-color:#234755"/>
		<stop  offset="0.6142" style="stop-color:#122735"/>
		<stop  offset="1" style="stop-color:#001220"/>
	</linearGradient>
	<path id="Bg" class="st0" d="M38,0.5h240c21,0,38,17,38,38v311c0,21-17,38-38,38H38c-21,0-38-17-38-38v-311C0,17.5,17,0.5,38,0.5z"
		/>
</g>
<g id="Layer_1_1_">
	<g>
		<path class="st1" d="M27.8,119.3l0.2-0.2l-0.2-0.2c-2.9-0.2-5.2-2.5-5.4-5.4l-0.3-0.3l-0.3,0.3c-0.2,2.9-2.5,5.2-5.4,5.4l-0.2,0.2
			l0.2,0.2c2.9,0.2,5.2,2.5,5.4,5.4l0.3,0.3l0.3-0.3C22.5,121.8,24.9,119.5,27.8,119.3z"/>
		<path class="st2" d="M68.1,339.9l0.1-0.1l-0.1-0.1c-1.6-0.1-2.9-1.4-3-3l-0.2-0.2l-0.2,0.2c-0.1,1.6-1.4,2.9-3,3l-0.1,0.1l0.1,0.1
			c1.6,0.1,2.9,1.4,3,3L65,343l0.2-0.2C65.2,341.3,66.5,340,68.1,339.9z"/>
		<g class="st3">
			<g>
				<path class="st4" d="M251,19.3c1.6,0,1.6-2.5,0-2.5C249.4,16.8,249.4,19.3,251,19.3L251,19.3z"/>
			</g>
		</g>
		<g class="st3">
			<g>
				<path class="st4" d="M57.8,323.7c1.6,0,1.6-2.5,0-2.5C56.2,321.2,56.2,323.7,57.8,323.7L57.8,323.7z"/>
			</g>
		</g>
		<g class="st3">
			<g>
				<path class="st4" d="M43.5,245.4c1.6,0,1.6-2.5,0-2.5C41.9,242.9,41.9,245.4,43.5,245.4L43.5,245.4z"/>
			</g>
		</g>
		<g class="st3">
			<g>
				<path class="st4" d="M50.7,79.5c0.8,0,0.8-1.2,0-1.2C49.9,78.3,49.9,79.5,50.7,79.5L50.7,79.5z"/>
			</g>
		</g>
		<g class="st3">
			<g>
				<path class="st4" d="M72.1,9.9c0.8,0,0.8-1.2,0-1.2C71.3,8.7,71.3,9.9,72.1,9.9L72.1,9.9z"/>
			</g>
		</g>
		<g class="st3">
			<g>
				<path class="st4" d="M86.5,166.5c0.8,0,0.8-1.2,0-1.2C85.7,165.3,85.7,166.5,86.5,166.5L86.5,166.5z"/>
			</g>
		</g>
		<g class="st3">
			<g>
				<path class="st4" d="M100.8,157.8c0.8,0,0.8-1.2,0-1.2C100,156.6,100,157.8,100.8,157.8L100.8,157.8z"/>
			</g>
		</g>
		<g class="st3">
			<g>
				<path class="st4" d="M115.1,36c0.8,0,0.8-1.2,0-1.2C114.3,34.8,114.3,36,115.1,36L115.1,36z"/>
			</g>
		</g>
		<g class="st3">
			<g>
				<path class="st4" d="M122.2,114.3c0.8,0,0.8-1.2,0-1.2C121.4,113.1,121.4,114.3,122.2,114.3L122.2,114.3z"/>
			</g>
		</g>
		<g class="st3">
			<g>
				<path class="st4" d="M14.9,288.9c1.6,0,1.6-2.5,0-2.5C13.3,286.4,13.3,288.9,14.9,288.9L14.9,288.9z"/>
			</g>
		</g>
		<g class="st3">
			<g>
				<path class="st4" d="M93.6,97.6c1.6,0,1.6-2.5,0-2.5C92,95.1,92,97.6,93.6,97.6L93.6,97.6z"/>
			</g>
		</g>
		<path class="st2" d="M10,128.8L10,128.8v-0.1c-1.1-0.1-2-1-2.1-2.1l-0.1-0.1l-0.1,0.1c-0.1,1.1-1,2-2.1,2.1l-0.1,0.1l0.1,0.1
			c1.1,0.1,2,1,2.1,2.1l0.1,0.1l0.1-0.1C7.9,129.8,8.8,128.9,10,128.8z"/>
		<g class="st3">
			<g>
				<path class="st4" d="M286.8,306.3c1.6,0,1.6-2.5,0-2.5C285.2,303.8,285.2,306.3,286.8,306.3L286.8,306.3z"/>
			</g>
		</g>
		<g class="st3">
			<g>
				<path class="st4" d="M301.1,349.8c1.6,0,1.6-2.5,0-2.5C299.5,347.3,299.5,349.8,301.1,349.8L301.1,349.8z"/>
			</g>
		</g>
		<g class="st3">
			<g>
				<path class="st4" d="M36.4,219.3c1.6,0,1.6-2.5,0-2.5C34.8,216.8,34.8,219.3,36.4,219.3L36.4,219.3z"/>
			</g>
		</g>
		<g class="st3">
			<g>
				<path class="st4" d="M215.2,62.8c1.6,0,1.6-2.5,0-2.5C213.6,60.3,213.6,62.8,215.2,62.8L215.2,62.8z"/>
			</g>
		</g>
		<g class="st3">
			<g>
				<path class="st4" d="M265.3,27.3c0.8,0,0.8-1.2,0-1.2C264.5,26.1,264.5,27.3,265.3,27.3L265.3,27.3z"/>
			</g>
		</g>
		<g class="st3">
			<g>
				<path class="st4" d="M29.2,175.2c0.8,0,0.8-1.2,0-1.2C28.4,174,28.4,175.2,29.2,175.2L29.2,175.2z"/>
			</g>
		</g>
		<g class="st3">
			<g>
				<path class="st4" d="M293.9,314.4c0.8,0,0.8-1.2,0-1.2C293.1,313.1,293.1,314.4,293.9,314.4L293.9,314.4z"/>
			</g>
		</g>
		<g class="st3">
			<g>
				<path class="st4" d="M290.4,279.6c0.8,0,0.8-1.2,0-1.2C289.6,278.3,289.6,279.6,290.4,279.6L290.4,279.6z"/>
			</g>
		</g>
		<path class="st4" d="M176.8,44.3l0.1-0.2l-0.1-0.2c-2.3-0.1-4.2-2-4.3-4.3l-0.2-0.2l-0.2,0.2c-0.1,2.3-2,4.2-4.3,4.3l-0.1,0.2
			l0.1,0.2c2.3,0.1,4.2,2,4.3,4.3l0.2,0.2l0.2-0.2C172.7,46.2,174.5,44.4,176.8,44.3z"/>
		<circle class="st2" cx="236.7" cy="105" r="1"/>
		<g class="st3">
			<g>
				<path class="st4" d="M272.5,184.5c1.6,0,1.6-2.5,0-2.5C270.9,182,270.9,184.5,272.5,184.5L272.5,184.5z"/>
			</g>
		</g>
		<g class="st3">
			<g>
				<path class="st4" d="M222.4,193.2c1.6,0,1.6-2.5,0-2.5C220.8,190.7,220.8,193.2,222.4,193.2L222.4,193.2z"/>
			</g>
		</g>
		<g class="st3">
			<g>
				<path class="st4" d="M272.9,135.7c1.6,0,1.6-2.5,0-2.5C271.3,133.2,271.3,135.7,272.9,135.7L272.9,135.7z"/>
			</g>
		</g>
		<g class="st3">
			<g>
				<path class="st4" d="M193.8,70.8c0.8,0,0.8-1.2,0-1.2C193,69.6,193,70.8,193.8,70.8L193.8,70.8z"/>
			</g>
		</g>
		<g class="st3">
			<g>
				<path class="st4" d="M208.2,262.2c0.8,0,0.8-1.2,0-1.2C207.4,260.9,207.3,262.2,208.2,262.2L208.2,262.2z"/>
			</g>
		</g>
		<g class="st3">
			<g>
				<path class="st4" d="M179.5,140.4c0.8,0,0.8-1.2,0-1.2C178.7,139.2,178.7,140.4,179.5,140.4L179.5,140.4z"/>
			</g>
		</g>
		<path class="st2" d="M91.4,333.5l0.2-0.1l-0.2-0.1c-2.3-0.1-4.2-2-4.3-4.3l-0.2-0.2l-0.2,0.2c-0.1,2.3-2,4.2-4.3,4.3l-0.2,0.1
			l0.2,0.1c2.3,0.1,4.2,2,4.3,4.3l0.2,0.2l0.2-0.2C87.2,335.5,89.1,333.6,91.4,333.5z"/>
		<g class="st3">
			<g>
				<path class="st4" d="M243.9,375.9c1.6,0,1.6-2.5,0-2.5C242.2,373.4,242.2,375.9,243.9,375.9L243.9,375.9z"/>
			</g>
		</g>
		<g class="st3">
			<g>
				<path class="st4" d="M229.5,271.5c1.6,0,1.6-2.5,0-2.5C227.9,269,227.9,271.5,229.5,271.5L229.5,271.5z"/>
			</g>
		</g>
		<g class="st3">
			<g>
				<path class="st4" d="M74.6,267c0.8,0,0.8-1.2,0-1.2C73.8,265.7,73.8,267,74.6,267L74.6,267z"/>
			</g>
		</g>
		<g class="st3">
			<g>
				<path class="st4" d="M279.6,366.6c0.8,0,0.8-1.2,0-1.2C278.8,365.3,278.8,366.6,279.6,366.6L279.6,366.6z"/>
			</g>
		</g>
		<g class="st3">
			<g>
				<path class="st4" d="M308.2,357.9c0.8,0,0.8-1.2,0-1.2C307.4,356.6,307.4,357.9,308.2,357.9L308.2,357.9z"/>
			</g>
		</g>
		<g class="st3">
			<g>
				<path class="st4" d="M158,1.2c0.8,0,0.8-1.2,0-1.2C157.2,0,157.2,1.2,158,1.2L158,1.2z"/>
			</g>
		</g>
		<g class="st3">
			<g>
				<path class="st4" d="M258.2,253.5c0.8,0,0.8-1.2,0-1.2C257.4,252.2,257.4,253.5,258.2,253.5L258.2,253.5z"/>
			</g>
		</g>
		<g class="st3">
			<g>
				<path class="st4" d="M208.1,331.8c0.8,0,0.8-1.2,0-1.2C207.3,330.5,207.3,331.8,208.1,331.8L208.1,331.8z"/>
			</g>
		</g>
		<g class="st3">
			<g>
				<path class="st4" d="M186.6,236.7c1.6,0,1.6-2.5,0-2.5C185,234.2,185,236.7,186.6,236.7L186.6,236.7z"/>
			</g>
		</g>
		<g class="st3">
			<g>
				<path class="st4" d="M129.4,53.4c0.8,0,0.8-1.2,0-1.2C128.6,52.2,128.6,53.4,129.4,53.4L129.4,53.4z"/>
			</g>
		</g>
		<g class="st3">
			<g>
				<path class="st4" d="M143.7,88.9c1.6,0,1.6-2.5,0-2.5C142.1,86.4,142.1,88.9,143.7,88.9L143.7,88.9z"/>
			</g>
		</g>
	</g>
	<g>
		<polygon class="st5" points="-2,517.4 -1.3,213.7 2.4,213.7 2.4,199.8 23.5,184.4 23.5,178.4 27.6,178.4 27.6,124 55.6,143.5 
			59.7,143.5 59.7,128.4 62.5,130.1 62.5,143.5 70.1,143.5 70.1,177.8 72.9,177.8 72.9,154.8 87.6,165.3 87.6,176.4 110.4,176.3 
			110.4,182.3 128.4,182.5 128.4,190.9 134.4,190.9 134.4,208.2 137.6,208.2 137.6,184.9 141.2,184.9 141.2,170.2 155.8,170.2 
			155.8,155.8 166.4,155.8 166.4,150.7 178.6,150.7 178.6,170.3 183.2,170.4 183.2,176.4 189.3,176.4 189.3,182.5 207.5,182.5 
			207.5,173.5 214.8,162.7 230.2,162.7 230.2,197 242.4,197 242.4,184.1 245.4,184 245.4,168.3 280.9,148.5 280.9,177.7 
			286.3,177.7 286.3,124 290.8,124 290.8,97.7 296.8,97.7 296.8,113.9 305.4,113.9 305.4,124.3 313.7,124.3 313.1,517.4 		"/>
		
			<linearGradient id="SVGID_1_" gradientUnits="userSpaceOnUse" x1="272.7345" y1="176.515" x2="267.2918" y2="56.4565" gradientTransform="matrix(1 0 0 -1 0 390)">
			<stop  offset="9.523502e-04" style="stop-color:#03243F"/>
			<stop  offset="1" style="stop-color:#001220"/>
		</linearGradient>
		<path class="st6" d="M312.6,216.2l-5.5,0v-7h-19v7h-22.4v5.8h-41.3v165.5H278c16.7,0,30.9-10.8,36-25.8V222h-1.4V216.2z"/>
		<g>
			
				<linearGradient id="SVGID_2_" gradientUnits="userSpaceOnUse" x1="225.7234" y1="195.5512" x2="225.0207" y2="134.0708" gradientTransform="matrix(1 0 0 -1 0 390)">
				<stop  offset="0" style="stop-color:#03243F"/>
				<stop  offset="1" style="stop-color:#001220"/>
			</linearGradient>
			<polygon class="st7" points="234.9,196.1 234.9,187.8 187.2,187.8 187.2,195.4 173.6,195.4 173.6,207.1 177.4,207.1 177.4,387.5 
				274.1,387.5 274.1,207.1 277.7,207.1 277.7,196 274.1,196.1 			"/>
			<g>
				<path class="st8" d="M258.8,196.5c0,0-0.1,0-0.1,0l-7.1,0.1c-0.3,0-0.7,0-1-0.1c-0.3-0.1-0.6-0.4-0.7-0.7
					c-0.7-1.1-0.2-2.6-0.2-3.9c0-1.5-0.5-3.1-1.4-4.4c-0.9-1.5-0.4-2.3,0.4-2.2c0.4,0.1,1.4,1.9,1.6,2.9c0.3,1.1,0.7,2.2,0.6,3.3
					c-0.1,0.7,0,1.5,0.1,2.2c0.1,0.6,0.2,0.9,0.5,1.1c0.3,0.2,1.4,0.4,1-0.6c-0.1-0.4-0.3-0.9-0.5-1.4c-0.4-1-0.7-2.6-0.6-3.7
					c0.1-1.7,0.2-3.7,0.4-5.4c0.2-2.3,1.1-2.9,1-3.5c-0.1-0.8-0.8-0.8-1-2.9c-0.1-1-0.2-2.4,0-3.4c0-0.1,0.1-0.3,0.2-0.3
					c0.1,0,0.2,0,0.3,0c1,0.2,1.5,1.2,1.7,2.2c0,0.1,0.4,0.1,0.5,0.1c0.7-0.2,1.4-0.2,2,0c0.1,0,0.2,0,0.2-0.1
					c0.2-0.7,0.3-0.9,0.6-1.2c0.4-0.4,0.7-0.6,1.2-0.7c0.1,0,0.2,0,0.2,0.1c0.2,1.8-0.3,3.7-0.6,4.5c-0.3,1-0.2,3,0,3.7
					c0.7,2.6,1.9,2.9,2.6,5.5c0.4,1.4,0.6,2.6,0.4,4.2c-0.1,0.7-0.4,1.9-0.6,2.5C260,195.2,259,196.2,258.8,196.5z"/>
			</g>
		</g>
		
			<linearGradient id="SVGID_3_" gradientUnits="userSpaceOnUse" x1="74.2705" y1="163.9133" x2="74.2705" y2="81.1012" gradientTransform="matrix(1 0 0 -1 0 390)">
			<stop  offset="0" style="stop-color:#03243F"/>
			<stop  offset="1" style="stop-color:#001220"/>
		</linearGradient>
		<path class="st9" d="M79.9,232.1h-36v-11.2H13.3v11.2l-8.9,0v9.3H2.2v120.8c5.2,14.7,19.3,25.3,35.8,25.3h108.4V241.4H79.9V232.1z
			"/>
	</g>
	<g>
		<g id="Layer_8_2_">
			<polygon class="st10" points="162.6,145.4 193.3,89.4 184.7,89.4 154.3,145.4 			"/>
			<polygon class="st11" points="173.8,145.4 204.6,89.4 196,89.4 165.6,145.4 			"/>
			<polygon class="st12" points="151.3,145.4 182,89.4 173.4,89.4 143,145.4 			"/>
			<polygon class="st13" points="140,145.4 170.7,89.4 160.8,89.4 129.8,145.4 			"/>
			<polygon class="st14" points="185.1,145.4 215.8,89.4 207.3,89.4 176.8,145.4 			"/>
		</g>
		<g id="Layer_6_2_">
			<polygon class="st10" points="132.5,200.9 145.9,174.6 141.3,166.1 122.1,200.9 			"/>
			<polygon class="st11" points="143.4,200.9 151.3,185.5 146.3,176.5 133.9,200.9 			"/>
			<polygon class="st12" points="121.1,200.9 140.3,164.9 135.4,156.1 110.4,200.9 			"/>
			<polygon class="st13" points="109.4,200.9 134.5,154.4 129.1,146 98.7,200.9 			"/>
			<polygon class="st14" points="154.3,200.9 156.9,194.7 152.3,185.8 144.3,200.9 			"/>
		</g>
		<g id="Layer_2_2_">
			<path class="st4" d="M128.2,145.4"/>
			<path class="st4" d="M97.2,89.2"/>
			<polygon class="st4" points="100.2,89.4 97.1,89.4 128.2,145.4 97.8,200.9 100.6,200.9 130,147.6 134,154.9 108.8,200.9 
				111.7,200.9 135.4,157.4 139.7,165.1 120,200.9 122.7,200.9 141.1,167.6 145,174.7 131.6,200.9 134.4,200.9 146.4,177.3 
				150.6,184.8 142.3,200.9 145,200.9 151.9,187.3 156.2,194.9 153.2,200.9 156.1,200.9 157.6,197.6 159.4,200.9 162.2,200.9 
				131.6,145.4 162.2,89.4 159.4,89.4 157.4,93 155.7,89.4 152.9,89.4 156,95.5 151.7,103 144.6,89.4 142,89.4 150.3,105.6 
				146.3,113 134.1,89.4 131.2,89.4 144.9,115.8 140.9,122.9 122.4,89.4 119.5,89.4 139.5,125.3 135.3,133.1 111.3,89.4 108.4,89.4 
				133.8,135.6 129.7,143 			"/>
		</g>
		<g id="Layer_7_2_">
			<polygon class="st4" points="140,145.4 170.7,89.4 173.4,89.4 143,145.4 173.8,200.9 170.8,200.9 			"/>
			<polygon class="st4" points="151.3,145.4 182,89.4 184.7,89.4 154.3,145.4 185,200.9 182.1,200.9 			"/>
			<polygon class="st4" points="162.6,145.4 193.3,89.4 196,89.4 165.5,145.4 196.3,200.9 193.4,200.9 			"/>
			<polygon class="st4" points="173.8,145.4 204.6,89.4 207.3,89.4 176.8,145.4 207.6,200.9 204.7,200.9 			"/>
			<polygon class="st4" points="185.1,145.4 215.8,89.4 218.5,89.4 188.1,145.4 218.9,200.9 215.9,200.9 			"/>
		</g>
		<g id="Layer_9_2_">
			<path class="st4" d="M99.4,220.4c-0.2-0.2-0.3-0.4-0.3-0.6v-12c0-0.2,0.1-0.5,0.3-0.6c0.2-0.2,0.4-0.3,0.6-0.3
				c0.2,0,0.5,0.1,0.6,0.3c0.2,0.2,0.3,0.4,0.3,0.6v5.2h7.4v-5.2c0-0.2,0.1-0.5,0.3-0.6c0.2-0.2,0.4-0.3,0.6-0.3
				c0.2,0,0.5,0.1,0.6,0.3c0.2,0.2,0.3,0.4,0.3,0.6v12c0,0.2-0.1,0.5-0.3,0.6c-0.2,0.2-0.4,0.3-0.6,0.3c-0.2,0-0.5-0.1-0.6-0.3
				c-0.2-0.2-0.3-0.4-0.3-0.6v-5.2h-7.4v5.2c0,0.2-0.1,0.5-0.3,0.6c-0.2,0.2-0.4,0.3-0.6,0.3C99.8,220.7,99.6,220.6,99.4,220.4z"/>
			<path class="st4" d="M121,220.4c-0.2-0.2-0.2-0.4-0.2-0.6c0-0.1,0-0.2,0.1-0.4l5-11.7c0.1-0.2,0.2-0.4,0.4-0.6
				c0.2-0.1,0.4-0.2,0.7-0.2h0.2c0.3,0,0.5,0.1,0.7,0.2c0.2,0.1,0.3,0.3,0.4,0.6l5,11.7c0.1,0.2,0.1,0.3,0.1,0.4
				c0,0.2-0.1,0.5-0.2,0.6c-0.2,0.2-0.4,0.3-0.6,0.3c-0.2,0-0.3,0-0.5-0.1c-0.1-0.1-0.3-0.2-0.3-0.4l-1.3-3h-6.6l-1.3,3
				c-0.1,0.2-0.2,0.3-0.3,0.4c-0.2,0.1-0.3,0.1-0.5,0.1C121.3,220.7,121.1,220.6,121,220.4z M124.4,215.5h5.3l-2.6-6.3L124.4,215.5z
				"/>
			<path class="st4" d="M146.2,219.9c-1-0.6-1.8-1.4-2.4-2.4s-0.9-2.3-0.9-3.7s0.3-2.7,0.9-3.7s1.4-1.9,2.4-2.4s2.2-0.8,3.5-0.8
				c0.9,0,1.7,0.1,2.4,0.3s1.4,0.5,2.1,0.9c0.3,0.2,0.4,0.4,0.4,0.7c0,0.2-0.1,0.4-0.2,0.5c-0.1,0.1-0.3,0.2-0.6,0.2
				c-0.1,0-0.2,0-0.4-0.1c-0.6-0.3-1.1-0.5-1.7-0.7c-0.5-0.2-1.2-0.2-1.9-0.2c-1.1,0-2.1,0.2-2.9,0.7c-0.8,0.5-1.4,1.1-1.8,1.9
				s-0.6,1.7-0.6,2.7s0.2,1.9,0.6,2.7s1,1.4,1.8,1.9c0.8,0.5,1.7,0.7,2.9,0.7c0.7,0,1.3-0.1,1.9-0.2c0.5-0.2,1.1-0.4,1.7-0.7
				c0.1-0.1,0.2-0.1,0.4-0.1c0.2,0,0.4,0.1,0.6,0.2c0.1,0.1,0.2,0.3,0.2,0.5c0,0.3-0.1,0.6-0.4,0.7c-0.7,0.4-1.4,0.7-2.1,0.9
				s-1.5,0.3-2.4,0.3C148.4,220.8,147.2,220.5,146.2,219.9z"/>
			<path class="st4" d="M165.2,220.4c-0.2-0.2-0.3-0.4-0.3-0.6v-12c0-0.2,0.1-0.5,0.3-0.6c0.2-0.2,0.4-0.3,0.6-0.3s0.5,0.1,0.6,0.3
				c0.2,0.2,0.3,0.4,0.3,0.6v6.2l6.7-6.8c0.2-0.2,0.4-0.3,0.7-0.3c0.2,0,0.4,0.1,0.6,0.2c0.2,0.1,0.2,0.3,0.2,0.6
				c0,0.3-0.1,0.5-0.2,0.6l-4.5,4.5l5.2,6.5c0.1,0.2,0.2,0.4,0.2,0.6c0,0.2-0.1,0.4-0.2,0.6c-0.2,0.2-0.4,0.3-0.6,0.3
				c-0.3,0-0.5-0.1-0.7-0.4l-5-6.4l-2.2,2.2v3.6c0,0.2-0.1,0.5-0.3,0.6c-0.2,0.2-0.4,0.3-0.6,0.3
				C165.6,220.7,165.4,220.6,165.2,220.4z"/>
			<path class="st10" d="M185.1,220.5c-0.2-0.2-0.2-0.4-0.2-0.6c0-0.2,0.1-0.4,0.2-0.5l4.5-5.5l-4.5-5.5c-0.1-0.2-0.2-0.3-0.2-0.5
				c0-0.2,0.1-0.5,0.2-0.6c0.2-0.2,0.4-0.2,0.6-0.2c0.1,0,0.3,0,0.4,0.1c0.1,0.1,0.2,0.1,0.3,0.3l4.1,5.2l4.1-5.3
				c0.1-0.2,0.4-0.3,0.6-0.3c0.2,0,0.4,0.1,0.6,0.2c0.2,0.2,0.3,0.4,0.3,0.6c0,0.2-0.1,0.3-0.2,0.5l-4.5,5.6l4.5,5.5
				c0.1,0.1,0.2,0.3,0.2,0.5c0,0.2-0.1,0.5-0.2,0.6c-0.2,0.2-0.4,0.3-0.6,0.3c-0.3,0-0.5-0.1-0.7-0.4l-4.2-5.2l-4.1,5.3
				c-0.2,0.2-0.4,0.4-0.7,0.4C185.4,220.7,185.2,220.6,185.1,220.5z"/>
			<path class="st10" d="M206.5,220.5c-0.2-0.2-0.2-0.4-0.2-0.6c0-0.2,0.1-0.4,0.2-0.5l4.5-5.5l-4.5-5.5c-0.1-0.2-0.2-0.3-0.2-0.5
				c0-0.2,0.1-0.5,0.2-0.6c0.2-0.2,0.4-0.2,0.6-0.2c0.1,0,0.3,0,0.4,0.1c0.1,0.1,0.2,0.1,0.3,0.3l4.1,5.2l4.1-5.3
				c0.1-0.2,0.4-0.3,0.6-0.3c0.2,0,0.4,0.1,0.6,0.2c0.2,0.2,0.3,0.4,0.3,0.6c0,0.2-0.1,0.3-0.2,0.5l-4.5,5.6l4.5,5.5
				c0.1,0.1,0.2,0.3,0.2,0.5c0,0.2-0.1,0.5-0.2,0.6c-0.2,0.2-0.4,0.3-0.6,0.3c-0.3,0-0.5-0.1-0.7-0.4l-4.2-5.2l-4.1,5.3
				c-0.2,0.2-0.4,0.4-0.7,0.4C206.8,220.7,206.6,220.6,206.5,220.5z"/>
		</g>
	</g>
</g>
<g id="Layer_3">
	
		<linearGradient id="Bg_3_" gradientUnits="userSpaceOnUse" x1="156.3825" y1="40.0742" x2="159.3971" y2="330.6808" gradientTransform="matrix(1 0 0 -1 0 390)">
		<stop  offset="0" style="stop-color:#000000;stop-opacity:0.4"/>
		<stop  offset="1" style="stop-color:#FFFFFF;stop-opacity:0"/>
	</linearGradient>
	<path id="Bg_1_" class="st15" d="M38,0.5h240c21,0,38,17,38,38v311c0,21-17,38-38,38H38c-21,0-38-17-38-38v-311
		C0,17.5,17,0.5,38,0.5z"/>
	<g>
		<path class="st4" d="M45.1,344.7H32v14.9h-7V324h7v14.5h13.1V324h7v35.7h-7V344.7z"/>
		<path class="st4" d="M57.9,335.6c1.4-0.6,3-1.1,4.8-1.5c1.9-0.4,3.8-0.5,5.9-0.5c1.8,0,3.2,0.2,4.4,0.6c1.2,0.4,2.1,1,2.8,1.8
			c0.7,0.8,1.2,1.7,1.5,2.8c0.3,1.1,0.4,2.3,0.4,3.7c0,1.5-0.1,3-0.2,4.5c-0.1,1.5-0.2,3-0.2,4.5c0,1.5,0,2.9,0.1,4.3
			s0.4,2.7,0.8,3.9H73l-1.1-3.5h-0.3c-0.7,1.1-1.6,2-2.8,2.7c-1.2,0.8-2.8,1.1-4.7,1.1c-1.2,0-2.3-0.2-3.2-0.5
			c-1-0.4-1.8-0.9-2.4-1.5c-0.7-0.7-1.2-1.4-1.6-2.3c-0.4-0.9-0.6-1.9-0.6-3c0-1.6,0.3-2.9,1-4s1.7-1.9,3-2.6
			c1.3-0.7,2.9-1.1,4.7-1.4c1.8-0.3,3.9-0.3,6.1-0.2c0.2-1.9,0.1-3.3-0.4-4.1c-0.5-0.8-1.6-1.2-3.4-1.2c-1.3,0-2.7,0.1-4.2,0.4
			c-1.5,0.3-2.7,0.6-3.6,1.1L57.9,335.6z M66.3,354.6c1.3,0,2.4-0.3,3.2-0.9c0.8-0.6,1.4-1.2,1.7-1.9v-3.3c-1.1-0.1-2.1-0.1-3-0.1
			c-1,0.1-1.8,0.2-2.6,0.5c-0.7,0.2-1.3,0.6-1.8,1c-0.4,0.4-0.7,1-0.7,1.7c0,1,0.3,1.7,0.8,2.2C64.6,354.3,65.4,354.6,66.3,354.6z"
			/>
		<path class="st4" d="M101.4,358.1c-1,0.7-2.3,1.3-3.7,1.7c-1.4,0.4-2.9,0.6-4.5,0.6c-2,0-3.8-0.3-5.2-1c-1.4-0.6-2.6-1.6-3.4-2.7
			c-0.9-1.2-1.5-2.6-1.9-4.3c-0.4-1.7-0.6-3.5-0.6-5.5c0-4.3,1-7.6,2.9-10c1.9-2.3,4.8-3.5,8.5-3.5c1.9,0,3.4,0.2,4.5,0.5
			c1.1,0.3,2.2,0.7,3.1,1.2l-1.6,5.4c-0.8-0.4-1.6-0.7-2.3-0.9c-0.8-0.2-1.6-0.3-2.6-0.3c-1.8,0-3.2,0.6-4.2,1.8
			c-1,1.2-1.4,3.1-1.4,5.8c0,1.1,0.1,2.1,0.4,3c0.2,0.9,0.6,1.7,1.1,2.4c0.5,0.7,1.1,1.2,1.9,1.6s1.7,0.6,2.7,0.6
			c1.1,0,2.1-0.1,2.9-0.4c0.8-0.3,1.5-0.6,2.1-1L101.4,358.1z"/>
		<path class="st4" d="M113.9,349.1h-1.8v10.6h-6.6V324h6.6V345l1.5-0.7l5.8-10.1h7.3l-6.1,9.7l-2.6,1.9l2.8,2l6.9,11.9h-7.6
			L113.9,349.1z"/>
		<path class="st4" d="M139.1,341.5l-9.9-17.5h8.4l5.5,10.3l1.2,3.6l1.2-3.6l5.8-10.3h7.6l-10.3,17.2l10.8,18.5H151l-6.3-11
			l-1.4-3.8l-1.3,3.8l-6.3,11h-7.6L139.1,341.5z"/>
		<path class="st4" d="M169.5,341.5l-9.9-17.5h8.4l5.5,10.3l1.2,3.6l1.2-3.6l5.8-10.3h7.6L179,341.1l10.8,18.5h-8.3l-6.3-11
			l-1.4-3.8l-1.3,3.8l-6.3,11h-7.6L169.5,341.5z"/>
	</g>
	<g>
		<path class="st4" d="M30.5,311c0-0.3-0.1-0.6-0.4-0.8c-0.2-0.2-0.5-0.4-0.9-0.5c-0.4-0.2-0.7-0.3-1.2-0.5
			c-0.4-0.2-0.8-0.4-1.2-0.6c-0.4-0.3-0.6-0.6-0.9-1c-0.2-0.4-0.4-0.9-0.4-1.5c0-0.5,0.1-1,0.3-1.3s0.4-0.7,0.7-0.9s0.7-0.4,1.1-0.6
			c0.4-0.1,0.9-0.2,1.4-0.2c0.6,0,1.2,0.1,1.7,0.2c0.5,0.1,1,0.3,1.3,0.5l-0.6,1.7c-0.2-0.1-0.5-0.3-1-0.4s-0.9-0.2-1.4-0.2
			c-0.5,0-0.8,0.1-1.1,0.3c-0.3,0.2-0.4,0.4-0.4,0.8c0,0.3,0.1,0.6,0.4,0.8c0.2,0.2,0.5,0.4,0.9,0.6c0.4,0.2,0.7,0.3,1.2,0.5
			s0.8,0.4,1.2,0.7c0.4,0.3,0.6,0.6,0.9,0.9c0.2,0.4,0.4,0.8,0.4,1.4c0,0.6-0.1,1-0.3,1.4c-0.2,0.4-0.4,0.7-0.8,1
			c-0.3,0.3-0.7,0.5-1.2,0.6c-0.5,0.1-1,0.2-1.6,0.2c-0.8,0-1.4-0.1-2-0.2c-0.6-0.1-1-0.3-1.3-0.4l0.7-1.8c0.1,0.1,0.3,0.1,0.4,0.2
			c0.2,0.1,0.4,0.1,0.6,0.2c0.2,0.1,0.5,0.1,0.7,0.1c0.2,0,0.5,0.1,0.8,0.1c0.6,0,1.1-0.1,1.4-0.3C30.3,311.8,30.5,311.4,30.5,311z"
			/>
		<path class="st4" d="M39.1,311.5h-3.2l-0.8,2.3H33l3.8-10.6h1.5l3.8,10.6h-2.2L39.1,311.5z M36.4,309.9h2.2l-0.8-2.3l-0.3-1.6
			h-0.1l-0.3,1.7L36.4,309.9z"/>
		<path class="st4" d="M49.2,305.2h-3.1v8.7h-2.1v-8.7h-3.1v-1.8h8.2C49.2,303.3,49.2,305.2,49.2,305.2z"/>
		<path class="st4" d="M48.3,308.7h3.8v1.7h-3.8V308.7z"/>
		<path class="st4" d="M58.3,311c0-0.3-0.1-0.6-0.4-0.8c-0.2-0.2-0.5-0.4-0.9-0.5c-0.4-0.2-0.7-0.3-1.2-0.5
			c-0.4-0.2-0.8-0.4-1.2-0.6c-0.4-0.3-0.7-0.6-0.9-1c-0.2-0.4-0.4-0.9-0.4-1.5c0-0.5,0.1-1,0.3-1.3s0.4-0.7,0.7-0.9s0.7-0.4,1.1-0.6
			c0.4-0.1,0.9-0.2,1.4-0.2c0.6,0,1.2,0.1,1.7,0.2c0.5,0.1,1,0.3,1.3,0.5l-0.6,1.7c-0.2-0.1-0.5-0.3-1-0.4s-0.9-0.2-1.4-0.2
			c-0.5,0-0.8,0.1-1.1,0.3c-0.3,0.2-0.4,0.4-0.4,0.8c0,0.3,0.1,0.6,0.4,0.8c0.2,0.2,0.5,0.4,0.9,0.6c0.4,0.2,0.7,0.3,1.2,0.5
			s0.8,0.4,1.2,0.7c0.4,0.3,0.7,0.6,0.9,0.9s0.4,0.8,0.4,1.4c0,0.6-0.1,1-0.3,1.4c-0.2,0.4-0.4,0.7-0.8,1c-0.3,0.3-0.7,0.5-1.2,0.6
			c-0.5,0.1-1,0.2-1.6,0.2c-0.8,0-1.4-0.1-2-0.2c-0.6-0.1-1-0.3-1.3-0.4l0.7-1.8c0.1,0.1,0.3,0.1,0.4,0.2c0.2,0.1,0.4,0.1,0.6,0.2
			c0.2,0.1,0.5,0.1,0.7,0.1c0.2,0,0.5,0.1,0.8,0.1c0.6,0,1.1-0.1,1.4-0.3C58.2,311.8,58.3,311.4,58.3,311z"/>
		<path class="st4" d="M67.4,303.3h1.9v6.8c0,0.7-0.1,1.3-0.3,1.8s-0.4,0.9-0.8,1.2s-0.7,0.6-1.2,0.7s-1,0.2-1.5,0.2
			c-2.7,0-4-1.2-4-3.6v-7h2.1v6.6c0,0.4,0,0.8,0.1,1c0.1,0.3,0.2,0.5,0.4,0.7c0.2,0.2,0.4,0.3,0.6,0.4c0.2,0.1,0.5,0.1,0.8,0.1
			c0.6,0,1.1-0.2,1.4-0.5c0.3-0.4,0.4-0.9,0.4-1.7C67.4,310,67.4,303.3,67.4,303.3z"/>
		<path class="st4" d="M73.8,308.4l-0.8-1.6h-0.1l0.2,1.6v5.5h-1.9v-10.6h1.5l4,5.6l0.8,1.6h0.1l-0.2-1.6v-5.5h1.9v10.6h-1.5
			L73.8,308.4z"/>
		<path class="st4" d="M92.9,308.4l0.2-2.1h-0.1l-0.6,1.7l-2.2,3.9h-0.7l-2.4-3.9l-0.7-1.7h-0.1l0.3,2.1v5.5h-1.9v-10.5h1.9l2.8,4.8
			l0.5,1.2H90l0.4-1.2l2.7-4.8H95v10.5h-2.1V308.4z"/>
		<path class="st4" d="M102,311.5h-3.2l-0.8,2.3h-2.1l3.8-10.6h1.5l3.8,10.6h-2.2L102,311.5z M99.3,309.9h2.2l-0.8-2.3l-0.3-1.6
			h-0.1l-0.3,1.7L99.3,309.9z"/>
		<path class="st4" d="M107.1,309.9l-3.4-6.6h2.4l1.9,3.9l0.2,1.1h0.1l0.2-1.1l1.9-3.9h2.2l-3.4,6.6v3.9h-2.1V309.9z"/>
		<path class="st4" d="M123,305.9c0,0.5-0.1,1-0.3,1.5c-0.2,0.5-0.4,1-0.7,1.5s-0.6,1-0.9,1.4s-0.7,0.9-1,1.3l-0.8,0.6v0.1l1.1-0.2
			h2.9v1.6H117v-1c0.2-0.2,0.5-0.5,0.8-0.9c0.3-0.3,0.6-0.7,0.9-1.1s0.6-0.8,0.9-1.2s0.6-0.8,0.8-1.2c0.2-0.4,0.4-0.8,0.5-1.2
			c0.1-0.4,0.2-0.7,0.2-1.1c0-0.4-0.1-0.7-0.4-1c-0.2-0.3-0.6-0.4-1.1-0.4c-0.3,0-0.6,0.1-1,0.2c-0.3,0.1-0.6,0.3-0.8,0.5l-0.8-1.4
			c0.4-0.3,0.8-0.6,1.3-0.8c0.5-0.2,1.1-0.3,1.7-0.3c0.4,0,0.8,0.1,1.2,0.2c0.4,0.1,0.7,0.3,0.9,0.5c0.3,0.2,0.5,0.5,0.6,0.9
			C123,305,123,305.4,123,305.9z"/>
		<path class="st4" d="M125.2,308.7h3.8v1.7h-3.8V308.7z"/>
		<path class="st4" d="M133.4,312.4c0.6,0,1.1-0.2,1.4-0.5c0.3-0.3,0.5-0.7,0.5-1.2c0-0.6-0.2-1-0.5-1.3s-0.9-0.4-1.6-0.4h-1.1v-1
			l1.8-2.5l0.9-0.7l-1.2,0.1h-2.5v-1.6h5.7v1.1l-2.1,2.8l-0.7,0.4v0.1l0.6-0.1c0.4,0,0.7,0.1,1,0.2c0.3,0.1,0.6,0.3,0.8,0.6
			c0.2,0.2,0.4,0.5,0.6,0.9c0.1,0.4,0.2,0.8,0.2,1.2c0,0.6-0.1,1.1-0.3,1.5c-0.2,0.4-0.5,0.8-0.8,1.1c-0.3,0.3-0.7,0.5-1.2,0.6
			c-0.5,0.1-1,0.2-1.5,0.2c-0.4,0-0.9,0-1.4-0.1c-0.5-0.1-0.9-0.2-1.1-0.3l0.5-1.6c0.3,0.1,0.5,0.2,0.9,0.3
			C132.7,312.4,133.1,312.4,133.4,312.4z"/>
		<path class="st4" d="M149.2,305.9c0,0.5-0.1,1-0.3,1.5c-0.2,0.5-0.4,1-0.7,1.5s-0.6,1-0.9,1.4s-0.7,0.9-1,1.3l-0.8,0.6v0.1
			l1.1-0.2h2.9v1.6h-6.3v-1c0.2-0.2,0.5-0.5,0.8-0.9c0.3-0.3,0.6-0.7,0.9-1.1c0.3-0.4,0.6-0.8,0.9-1.2s0.6-0.8,0.8-1.2
			c0.2-0.4,0.4-0.8,0.5-1.2c0.1-0.4,0.2-0.7,0.2-1.1c0-0.4-0.1-0.7-0.4-1c-0.2-0.3-0.6-0.4-1.1-0.4c-0.3,0-0.6,0.1-1,0.2
			c-0.3,0.1-0.6,0.3-0.8,0.5l-0.8-1.4c0.4-0.3,0.8-0.6,1.3-0.8c0.5-0.2,1.1-0.3,1.7-0.3c0.4,0,0.8,0.1,1.2,0.2
			c0.4,0.1,0.7,0.3,0.9,0.5c0.3,0.2,0.5,0.5,0.6,0.9C149.2,305,149.2,305.4,149.2,305.9z"/>
		<path class="st4" d="M151.2,308.6c0-1.8,0.3-3.2,0.9-4.1s1.5-1.3,2.7-1.3c1.3,0,2.2,0.4,2.8,1.3c0.6,0.9,0.9,2.3,0.9,4.1
			c0,1.9-0.3,3.2-1,4.1c-0.6,0.9-1.5,1.4-2.7,1.4c-1.2,0-2.2-0.5-2.8-1.4C151.5,311.7,151.2,310.3,151.2,308.6z M153.2,308.6
			c0,1.2,0.1,2.2,0.4,2.8c0.3,0.7,0.7,1,1.3,1c0.6,0,1-0.3,1.3-0.9c0.3-0.6,0.4-1.6,0.4-2.9c0-1.2-0.1-2.1-0.4-2.8s-0.7-1-1.3-1
			c-0.6,0-1,0.3-1.3,0.9C153.3,306.3,153.2,307.3,153.2,308.6z"/>
		<path class="st4" d="M166.3,305.9c0,0.5-0.1,1-0.3,1.5c-0.2,0.5-0.4,1-0.7,1.5s-0.6,1-0.9,1.4s-0.7,0.9-1,1.3l-0.8,0.6v0.1
			l1.1-0.2h2.9v1.6h-6.3v-1c0.2-0.2,0.5-0.5,0.8-0.9c0.3-0.3,0.6-0.7,0.9-1.1c0.3-0.4,0.6-0.8,0.9-1.2s0.6-0.8,0.8-1.2
			c0.2-0.4,0.4-0.8,0.5-1.2c0.1-0.4,0.2-0.7,0.2-1.1c0-0.4-0.1-0.7-0.4-1c-0.2-0.3-0.6-0.4-1.1-0.4c-0.3,0-0.6,0.1-1,0.2
			c-0.3,0.1-0.6,0.3-0.8,0.5l-0.8-1.4c0.4-0.3,0.8-0.6,1.3-0.8c0.5-0.2,1.1-0.3,1.7-0.3c0.4,0,0.8,0.1,1.2,0.2
			c0.4,0.1,0.7,0.3,0.9,0.5c0.3,0.2,0.5,0.5,0.6,0.9C166.2,305,166.3,305.4,166.3,305.9z"/>
		<path class="st4" d="M168.2,308.6c0-1.8,0.3-3.2,0.9-4.1s1.5-1.3,2.7-1.3c1.3,0,2.2,0.4,2.8,1.3c0.6,0.9,0.9,2.3,0.9,4.1
			c0,1.9-0.3,3.2-1,4.1c-0.6,0.9-1.5,1.4-2.7,1.4c-1.2,0-2.2-0.5-2.8-1.4C168.5,311.7,168.2,310.3,168.2,308.6z M170.2,308.6
			c0,1.2,0.1,2.2,0.4,2.8c0.3,0.7,0.7,1,1.3,1c0.6,0,1-0.3,1.3-0.9c0.3-0.6,0.4-1.6,0.4-2.9c0-1.2-0.1-2.1-0.4-2.8s-0.7-1-1.3-1
			c-0.6,0-1,0.3-1.3,0.9C170.3,306.3,170.2,307.3,170.2,308.6z"/>
	</g>
</g>
</svg>
