<?xml version="1.0" encoding="utf-8"?>
<!-- Generator: Adobe Illustrator 22.1.0, SVG Export Plug-In . SVG Version: 6.00 Build 0)  -->
<svg version="1.1" id="Layer_1" xmlns="http://www.w3.org/2000/svg" xmlns:xlink="http://www.w3.org/1999/xlink" x="0px" y="0px"
	 viewBox="0 0 781 219.5" style="enable-background:new 0 0 781 219.5;" xml:space="preserve">
<style type="text/css">
	.st0{fill:#3B4650;}
</style>
<g>
	<g>
		<path class="st0" d="M87.8,109.1c-20.5,2.5-28,12.4-28,19.1s3,23.4,31,23.4s35.4-22.7,35.8-30.5s0-22,0-22
			C126.6,102.9,108.4,106.5,87.8,109.1z"/>
		<path class="st0" d="M92.1,32.4c-40.7,0-73.7,32.9-73.7,73.7s32.9,73.7,73.7,73.7s73.7-32.9,73.7-73.7
			C165.8,65.6,132.8,32.4,92.1,32.4z M138.3,122.9c0,9.2-8,38.6-40.2,40.7c-32.2,2.3-51.5-13.1-51.9-30.5
			c-0.4-17.5,17.4-31.7,45.9-32.4c28.5-0.7,35.4-6,36-17c0,0,0.9-25.5-30.5-23.6c-31.4,1.9-30.5,23.4-33.7,26.9
			c-3.2,3.5-12.4,3-12.2-3.4c0.4-6.4,3.9-26.4,26.9-32.9s59.2-1.9,59.7,29.9C138.8,112.7,138.3,122.9,138.3,122.9z"/>
	</g>
	<path class="st0" d="M230.1,50.8c-27.8,0.4-35.4,21.4-35.4,21.4s0-6,0-11.7c0-5.5-1.6-7.4-9.9-7.4c-8.3,0-8,3.5-8,11.7
		c0,0-0.4,124.4,0,130.7c0.4,6.4,5,6.9,9.9,6.9s9.2-1.9,9.2-5.8s-0.4-52.8-0.4-52.8c13.3,22.5,37.6,19,37.6,19
		c27.3,0.5,43.8-27.3,43.9-58.8C277.2,72.1,257.9,50.5,230.1,50.8z M226.3,144.7c-20,0-30.6-17-30.6-37.9c0-20.9,9.6-37.9,30.6-37.9
		c20.2,0,30.6,17,30.6,37.9C257,127.9,246.5,144.7,226.3,144.7z"/>
	<path class="st0" d="M342.4,50.8c-27.8,0.4-35.4,21.4-35.4,21.4s0-6,0-11.7c0-5.5-1.6-7.4-9.9-7.4c-8.3,0-8,3.5-8,11.7
		c0,0-0.4,124.4,0,130.7s5,6.9,9.9,6.9c5,0,9.2-1.9,9.2-5.8s-0.4-52.8-0.4-52.8c13.3,22.5,37.6,19,37.6,19
		c27.3,0.5,43.8-27.3,43.9-58.8C389.5,72.1,370,50.5,342.4,50.8z M338.5,144.7c-20,0-30.6-17-30.6-37.9c0-20.9,9.6-37.9,30.6-37.9
		c20.2,0,30.6,17,30.6,37.9C369.3,127.9,358.9,144.7,338.5,144.7z"/>
	<path class="st0" d="M404.2,70.7v82.7c0,4.1,3.2,7.3,7.3,7.3h6.4c4.1,0,7.3-3.2,7.3-7.3V70.7h19.1c3.4,0,5.8-2.7,5.8-5.8v-4.3
		c0-3.4-2.7-5.8-5.8-5.8h-19.1c0,0,0-6.9,0-11.7s6.6-14.3,16.1-14.3c9.6,0,11-3.2,11.2-9.2c0.2-6-0.7-9.6-8.7-9.4
		c-8,0.2-20,1.2-28.2,9.9c-8.1,8.7-11.2,16.3-11.3,24.6c-0.2,8.3,0,10.1,0,10.1h-6.9c-3.4,0-6.2,2.8-6.2,6.2v4.3
		c0,3.2,2.7,5.8,5.8,5.7L404.2,70.7z"/>
	<path class="st0" d="M578.9,10.8h3.4c5,0,8.9,3.9,8.9,8.9V130c0,6.2,0.4,11.5,9.4,12.8c2.8,0.4,5,2.8,5,5.7v6.7
		c0,3-2.5,5.5-5.5,5.5h-5.7c-6.9,0-23.9-4.3-24.3-28.2c-0.2-19.5,0-88.2,0-112.7C570,14.7,574.1,10.8,578.9,10.8z"/>
	<path class="st0" d="M623.9,53h3.5c5,0,8.9,4.1,8.9,8.9v89.6c0,5-4.1,8.9-8.9,8.9h-3.5c-5,0-8.9-4.1-8.9-8.9V61.8
		C614.8,57,618.9,53,623.9,53z"/>
	<path class="st0" d="M503.2,50.8c-32.1,0-57.9,25.2-57.9,56.2s25.9,56.2,57.9,56.2c32.1,0,57.9-25.2,57.9-56.2
		S535.3,50.8,503.2,50.8z M503.2,145.4c-21.6,0-39.1-17-39.1-37.9s17.5-37.9,39.1-37.9c21.6,0,39.1,17,39.1,37.9
		S524.8,145.4,503.2,145.4z"/>
	<path class="st0" d="M703.6,50.7c-32.1,0-57.9,25.2-57.9,56.2s26,56.2,57.9,56.2c32.1,0,57.9-25.2,57.9-56.2S735.6,50.7,703.6,50.7
		z M703.6,145.3c-21.6,0-39.1-17-39.1-37.9s17.5-37.9,39.1-37.9c21.6,0,39.1,17,39.1,37.9S725.2,145.3,703.6,145.3z"/>
</g>
</svg>
