<?xml version="1.0" encoding="utf-8"?>
<!-- Generator: Adobe Illustrator 22.1.0, SVG Export Plug-In . SVG Version: 6.00 Build 0)  -->
<svg version="1.1" id="outlined" xmlns="http://www.w3.org/2000/svg" xmlns:xlink="http://www.w3.org/1999/xlink" x="0px" y="0px"
	 viewBox="0 0 778 187.9" style="enable-background:new 0 0 778 187.9;" xml:space="preserve">
<g>
	<path d="M755.1,59.6c8.4,0,15.6-6.3,15.6-15.2s-7.2-15.2-15.6-15.2s-15.6,6.3-15.6,15.2S746.6,59.6,755.1,59.6 M742.8,44.4
		c0-7.2,5.5-12.7,12.7-12.7c6.8,0,12.2,5.5,12.2,12.7S762.3,57,755.5,57C748.3,57,742.8,51.6,742.8,44.4 M752.1,45.6h3l4.6,7.6h3
		l-5.1-7.6c2.5-0.4,4.6-1.7,4.6-4.6c0-3.4-2.1-5.1-6.3-5.1h-6.8v17.3h2.5v-7.6H752.1z M752.1,43.5V38h3.8c1.7,0,3.8,0.4,3.8,2.5
		c0,2.5-2.1,3-4.2,3H752.1z"/>
	<path d="M233.4,179.1V56.2h53.2v87.4c-1.7,36.7-39.3,35.5-39.3,35.5S233.4,179.1,233.4,179.1z"/>
	<path d="M221.6,179.1V56.2h-53.2v87.4c1.7,36.7,39.7,35.5,39.7,35.5S221.6,179.1,221.6,179.1z"/>
	<rect x="297.6" y="56.2" width="53.2" height="122.9"/>
	<path d="M678.6,82c0-13.9,11.4-25.3,25.3-25.3S729.3,68,729.3,82s-11.4,25.3-25.3,25.3C690,107.3,678.6,95.9,678.6,82"/>
	<rect x="621.6" y="56.2" width="52.8" height="122.9"/>
	<polygon points="429,179.1 429,70.6 410,70.6 480.5,7.2 480.5,57.5 501.6,57.5 501.6,70.6 480.5,70.6 480.5,179.1 	"/>
	<path d="M362.3,56.2v122.9h54.5v-87C415.1,55.4,377,56.2,377,56.2S362.3,56.2,362.3,56.2z"/>
	<path d="M549.8,179.5c-32.5,0-60-27.9-60-62.5s25.3-61.2,58.7-62.9v110.7c13.1,1.3,43.5-3,65-25.8v15.6
		C604.3,165.6,582.7,180.8,549.8,179.5"/>
	<path d="M557,54.5v63.4h56.6C615.3,86.6,600.1,55.4,557,54.5"/>
	<polygon points="75,77.3 90.2,77.3 90.2,7.2 156.5,7.2 156.5,179.1 90.2,179.1 90.2,94.2 75.4,94.2 75.4,179.1 8.7,179.1 8.7,7.2 
		75.4,7.2 	"/>
</g>
</svg>
