<?xml version="1.0" encoding="utf-8"?>
<!-- Generator: Adobe Illustrator 22.1.0, SVG Export Plug-In . SVG Version: 6.00 Build 0)  -->
<svg version="1.1" id="Layer_1" xmlns="http://www.w3.org/2000/svg" xmlns:xlink="http://www.w3.org/1999/xlink" x="0px" y="0px"
	 viewBox="0 0 767.2 147.8" style="enable-background:new 0 0 767.2 147.8;" xml:space="preserve">
<style type="text/css">
	.st0{fill:#231F20;}
</style>
<g>
	<g>
		<path class="st0" d="M68.2,5.8v119.7l27.1,8.6V33.7c0-4.7,2.1-7.9,5.4-6.8c4.4,1.2,5.2,5.6,5.2,10.3v40.1
			c16.8,8.2,30.1,0,30.1-21.5c0-22-7.9-31.8-30.6-39.7C96.6,13,79.8,7.9,68.2,5.8"/>
		<path class="st0" d="M100.4,116.6L144,101c4.9-1.7,5.6-4.4,1.7-5.6c-4-1.4-11.2-0.9-16.3,0.9l-29,10.1V90.2l1.6-0.5
			c0,0,8.4-3,20.1-4.2c11.7-1.2,26.2,0.2,37.6,4.4c12.8,4,14.2,10,11,14.2c-3.3,4-11.2,7-11.2,7l-59.1,21.2V116.6z"/>
		<path class="st0" d="M18.5,114.8c-13.1-3.7-15.2-11.4-9.3-15.7c5.6-4,14.9-7.2,14.9-7.2L63,78.1v15.7l-28,10
			c-4.9,1.7-5.6,4.2-1.7,5.6c4,1.4,11.2,1,16.3-0.9l13.5-4.9v14c-0.9,0.2-1.7,0.3-2.6,0.5C46.9,120.4,32.7,119.6,18.5,114.8"/>
		<path class="st0" d="M162.2,133.9c1.7,0,3.3-0.7,4.5-1.9c1.2-1.2,1.9-2.8,1.9-4.5c0-1.7-0.7-3.3-1.9-4.5c-1.2-1.2-2.8-1.9-4.5-1.9
			c-3.5,0-6.3,2.8-6.3,6.3c0,1.7,0.7,3.3,1.9,4.5C158.8,133.2,160.6,133.9,162.2,133.9 M156.9,127.4c0-1.4,0.5-2.8,1.6-3.7
			c1-1,2.3-1.6,3.8-1.6c1.4,0,2.8,0.5,3.7,1.6c1,1,1.6,2.3,1.6,3.7c0,3-2.3,5.2-5.2,5.2c-1.4,0-2.8-0.5-3.8-1.6
			C157.4,130.2,156.9,128.8,156.9,127.4"/>
		<path class="st0" d="M165.3,130.4c-0.2,0-0.2-0.2-0.2-0.3s0-0.3,0-0.5v-0.9c0-0.3-0.2-0.7-0.3-0.9s-0.2-0.2-0.3-0.3
			c0.2-0.2,0.3-0.3,0.5-0.5c0.2-0.3,0.3-0.7,0.3-1c0-0.9-0.3-1.4-1-1.7c-0.3-0.2-0.9-0.2-1.4-0.2h-3.1h-0.2v0.2v6.8v0.2h0.2h0.9h0.2
			v-0.2v-2.8h1.9c0.3,0,0.5,0,0.7,0.2s0.3,0.3,0.3,0.7v1c0,0.3,0,0.5,0,0.5c0,0.2,0,0.2,0.2,0.2l0,0h0.2h1h0.2v-0.2V130.4
			L165.3,130.4L165.3,130.4z M163.9,125.8c0,0.3-0.2,0.7-0.3,0.9c-0.2,0.2-0.5,0.2-0.9,0.2h-1.9V125h2.1c0.3,0,0.5,0,0.7,0.2
			C163.7,125.1,163.9,125.5,163.9,125.8"/>
	</g>
	<g>
		<path class="st0" d="M260.5,37.5h-32.7c-0.2,0-0.2,0.2-0.2,0.2v76.5c0,0.2,0.2,0.2,0.2,0.2h13.3c0.2,0,0.2-0.2,0.2-0.2V45.9v-0.2
			h15.2c5.6,0,8.6,5.6,8.6,15.7s-3,15.7-8.6,15.7h-9.1c-0.2,0-0.2,0.2-0.2,0.2v7.9c0,0.2,0.2,0.2,0.2,0.2h13.1
			c4.5,0,9.1-2.1,12.4-5.8c3.8-4.4,5.9-10.7,5.9-18.2C278.8,46.9,271.7,37.5,260.5,37.5"/>
		<path class="st0" d="M300.5,37.5h-13.3c-0.2,0-0.2,0.2-0.2,0.2v76.5c0,0.2,0.2,0.2,0.2,0.2h13.3c0.2,0,0.2-0.2,0.2-0.2V37.7
			C300.7,37.7,300.7,37.5,300.5,37.5"/>
		<path class="st0" d="M358.4,56c0-0.2-0.2-0.2-0.2-0.2h-23.6c-21.2,0-24,15.6-24,29.2V97c0,10.1,6.3,17.5,15,17.5h12.9
			c0.2,0,0.2-0.2,0.2-0.2v-7.9c0-0.2-0.2-0.2-0.2-0.2h-9.3c-2.1,0-4.9-0.9-4.9-8.2V85.3c0-8.4,0.7-13.8,2.6-17
			c1.9-3.3,4.9-3.8,7.7-3.8H345c0,0,0,0,0,0.2v49.9c0,0.2,0.2,0.2,0.2,0.2h13.3c0.2,0,0.2-0.2,0.2-0.2V56.7V56H358.4z"/>
		<path class="st0" d="M453.8,69.5l-6.5-0.5c-4.9-0.3-8.6-3.1-8.6-11.2c0-9.4,4.2-11.9,9.8-11.9h18c0.2,0,0.2-0.2,0.2-0.2v-7.9
			c0-0.2-0.2-0.2-0.2-0.2h-0.3l0,0h-19.6c-12.4,0-21.2,7.2-21.2,21.7v0.7c0,11.4,7,19.6,17.5,20.5l6.5,0.5c4.9,0.3,8,4.7,8,11.5v1.9
			c0,4.2-1,11.9-10.1,11.9H429h-0.3c-0.2,0-0.2,0.2-0.2,0.2v7.9c0,0.2,0.2,0.2,0.2,0.2h23.3c7.2,0,19.2-3,19.2-22.4
			c0-7.2-1.6-12.6-4.9-16.8C463.6,71.8,459.6,69.9,453.8,69.5"/>
		<path class="st0" d="M562.4,56c0-0.2-0.2-0.2-0.2-0.2h-23.6c-21.2,0-23.8,15.6-23.8,29.2V97c0,10.1,6.3,17.5,15,17.5h12.8
			c0.2,0,0.2-0.2,0.2-0.2v-7.9c0-0.2-0.2-0.2-0.2-0.2h-9.3c-2.1,0-4.9-0.9-4.9-8.2V85.3c0-8.4,0.9-13.8,2.4-17
			c1.9-3.3,4.9-3.8,7.5-3.8h10.1c0,0,0,0,0.2,0.2v49.9c0,0.2,0.2,0.2,0.2,0.2h13.3c0.2,0,0.2-0.2,0.2-0.2V56z"/>
		<path class="st0" d="M509.3,55.9h-14.3c0,0,0,0,0-0.2l0,0v-9.6c0-0.2-0.2-0.2-0.2-0.2h-13.3c-0.2,0-0.2,0.2-0.2,0.2v50.7
			c0,10.1,6.3,17.5,15,17.5h9.4c0.2,0,0.2-0.2,0.2-0.2v-7.9c0-0.2-0.2-0.2-0.2-0.2H500c-1.6,0-5.1-0.2-5.1-7.5V64.3l0,0
			c4.4,0,14.3,0,14.3,0c0.2,0,0.2-0.2,0.2-0.2v-7.9C509.4,56,509.3,55.9,509.3,55.9"/>
		<path class="st0" d="M601.8,55.9h-14.3c0,0-0.2,0-0.2-0.2l0,0v-9.6c0-0.2-0.2-0.2-0.2-0.2h-13.3c-0.2,0-0.2,0.2-0.2,0.2v50.7
			c0,10.1,6.3,17.5,15,17.5h9.4c0.2,0,0.2-0.2,0.2-0.2v-7.9c0-0.2-0.2-0.2-0.2-0.2h-5.8c-1.6,0-4.9-0.2-4.9-7.5V64.3l0,0
			c4.4,0,14.3,0,14.3,0c0.2,0,0.2-0.2,0.2-0.2v-7.9C602,56,601.8,55.9,601.8,55.9"/>
		<path class="st0" d="M623.7,55.9h-13.3c-0.2,0-0.2,0.2-0.2,0.2v58.1c0,0.2,0.2,0.2,0.2,0.2h13.3c0.2,0,0.2-0.2,0.2-0.2V56
			C623.8,56,623.8,55.9,623.7,55.9"/>
		<path class="st0" d="M623.7,37.5h-13.3c-0.2,0-0.2,0.2-0.2,0.2v11.2c0,0.2,0.2,0.2,0.2,0.2h13.3c0.2,0,0.2-0.2,0.2-0.2V37.7
			C623.8,37.7,623.8,37.5,623.7,37.5"/>
		<path class="st0" d="M715.3,55.9h-23.6c-0.2,0-0.2,0.2-0.2,0.2v58.1c0,0.2,0.2,0.2,0.2,0.2H705c0.2,0,0.2-0.2,0.2-0.2V64.3
			c0,0,0-0.2,0.2-0.2h10.1c2.8,0,5.8,0.5,7.7,3.7c1.7,2.8,2.6,7.9,2.6,15.7c0,0.3,0,30.6,0,30.6c0,0.2,0.2,0.2,0.2,0.2h13.3
			c0.2,0,0.2-0.2,0.2-0.2v-29C739.3,71.4,736.5,55.9,715.3,55.9"/>
		<path class="st0" d="M657.8,55.9c-22.2,0-25,15.6-25,29.2s2.8,29.4,25,29.4s25-15.7,25-29.4C682.6,71.4,679.8,55.9,657.8,55.9
			 M666.2,102.2c-2.1,3.5-5.4,3.8-8.4,3.8s-6.3-0.5-8.4-3.8c-1.9-3.1-2.8-8.6-2.8-17l0,0c0-10.1,1.2-15.7,4-18.5
			c1.6-1.6,3.8-2.3,7.2-2.3s5.6,0.7,7.2,2.3c2.8,2.8,4,8.4,4,18.5C669,93.7,668.1,99.1,666.2,102.2"/>
		<path class="st0" d="M365.8,55.9c-0.2,0-0.2,0.2-0.2,0.2l19.6,57.6c0,0.2,0,0.3,0,0.5l-11,28.5c0,0.2,0,0.2,0.2,0.2h11.5
			c0.2,0,0.3-0.2,0.3-0.2L420.7,56c0-0.2,0-0.2-0.2-0.2H408c-0.2,0-0.3,0.2-0.3,0.2l-14.5,38c0,0.2-0.2,0.2-0.2,0L380,56.2
			c0-0.2-0.2-0.2-0.3-0.2h-13.8V55.9z"/>
		<path class="st0" d="M754.5,114.5c1.7,0,3.3-0.7,4.5-1.9c1.2-1.2,1.9-2.8,1.9-4.5s-0.7-3.3-1.9-4.5c-1.2-1.2-2.8-1.9-4.5-1.9
			c-3.5,0-6.3,2.8-6.3,6.3c0,1.7,0.7,3.3,1.9,4.5C751.2,113.8,753,114.5,754.5,114.5 M749.3,108.2c0-1.4,0.5-2.8,1.6-3.7
			c1-1,2.3-1.6,3.7-1.6c1.4,0,2.8,0.5,3.7,1.6c1,1,1.6,2.3,1.6,3.7c0,3-2.3,5.2-5.2,5.2c-1.4,0-2.8-0.5-3.7-1.6
			C749.8,111,749.3,109.6,749.3,108.2"/>
		<path class="st0" d="M757.7,111.2c-0.2,0-0.2-0.2-0.2-0.3s0-0.3,0-0.5v-0.9c0-0.3-0.2-0.7-0.3-0.9c0-0.2-0.2-0.2-0.3-0.3
			c0.2-0.2,0.3-0.3,0.5-0.5c0.2-0.3,0.3-0.7,0.3-1c0-0.9-0.3-1.4-1-1.7c-0.3-0.2-0.9-0.2-1.4-0.2h-3.1h-0.2v0.2v6.8v0.2h0.2h0.9h0.2
			v-0.2v-2.8h1.9c0.3,0,0.5,0,0.7,0.2c0.2,0.2,0.3,0.3,0.3,0.7v1c0,0.3,0,0.5,0,0.5c0,0.2,0,0.2,0,0.2l0,0h0.2h1h0.2v-0.2
			L757.7,111.2L757.7,111.2L757.7,111.2z M756.3,106.6c0,0.3-0.2,0.7-0.3,0.7c-0.2,0.2-0.5,0.2-0.9,0.2h-1.9v-1.9h2.1
			c0.3,0,0.5,0,0.7,0.2C756.1,105.9,756.3,106.1,756.3,106.6"/>
	</g>
</g>
</svg>
