<?xml version="1.0" encoding="utf-8"?>
<!-- Generator: Adobe Illustrator 22.1.0, SVG Export Plug-In . SVG Version: 6.00 Build 0)  -->
<svg version="1.1" id="Layer_1" xmlns="http://www.w3.org/2000/svg" xmlns:xlink="http://www.w3.org/1999/xlink" x="0px" y="0px"
	 viewBox="0 0 782.3 184" style="enable-background:new 0 0 782.3 184;" xml:space="preserve">
<style type="text/css">
	.st0{fill:#DA2128;}
</style>
<g>
	<g>
		<path d="M279,107.4l-7.4-7.6c-6.9,4.9-16.1,7.6-24.2,7.6c-24.6,0-44.3-19-44.3-44.1c0-24.4,20.1-44.1,44.3-44.1
			c24.4,0,44.3,19.9,44.3,44.1c0,12.1-4.9,23.5-13.2,31.3l13.2,13H279V107.4z M271.6,87c6.5-5.8,9.8-15.7,9.8-23.7
			c0-18.6-13.9-34.2-33.8-34.2s-33.8,15.7-33.8,34.2c0,19.2,15.4,34.2,33.8,34.2c5.1,0,11.6-1.6,16.8-4.9l-19.5-19h13.2L271.6,87z"
			/>
		<path d="M325.3,20.7v50.1c0,13.9,4.3,26.6,20.4,26.6c16.3,0,20.4-12.8,20.4-26.6V20.7h10.5v53.7c0,18.6-11.6,32.9-31.1,32.9
			S314.4,93,314.4,74.5V20.7C314.4,20.7,325.3,20.7,325.3,20.7z"/>
		<path d="M417.6,84.3l-9.6,21.3h-11.4L437,17.2l40.5,88.4h-11.4l-9.6-21.3H417.6z M437,40.4l-15,34.2h30.2L437,40.4z"/>
		<path d="M551.4,105.6h-12.8l-25.1-35.8h-4.5v35.8h-10.3V20.7h12.8c7.6,0,15.7,0,22.4,4c7.2,4.3,11.2,12.1,11.2,20.1
			c0,12.1-8.1,22.2-20.4,23.7L551.4,105.6z M509.3,60.8h3.4c10.7,0,22.4-2,22.4-15.4c0-13.2-12.5-15.2-23.1-15.2h-2.9v30.7H509.3z"
			/>
		<path d="M594.4,105.6h-10.5V30.4h-20.1v-9.6h50.8v9.6h-20.1V105.6z"/>
		<path d="M646.1,20.7v50.1c0,13.9,4.3,26.6,20.4,26.6c16.3,0,20.4-12.8,20.4-26.6V20.7h10.5v53.7c0,18.6-11.6,32.9-31.1,32.9
			c-19.5,0-31.1-14.3-31.1-32.9V20.7C635.1,20.7,646.1,20.7,646.1,20.7z"/>
		<path d="M763.8,36.9c-3.1-5.4-7.2-8.1-13.7-8.1c-6.7,0-14.1,4.7-14.1,12.1c0,6.7,6.5,10.1,11.9,12.1l6,2.5
			c12.1,4.7,21,11.4,21,25.5c0,15.4-11.9,26.4-27.1,26.4c-13.7,0-24.4-10.1-26.2-23.7l10.7-2.2c-0.2,9.4,7.4,16.1,16.3,16.1
			c9.2,0,15.7-7.6,15.7-16.6c0-9.2-7.4-13-14.5-16.1l-5.8-2.5c-9.6-4.3-18.4-9.6-18.4-21.5c0-13.7,12.1-21.9,25.1-21.9
			c9.4,0,17.2,4.7,21.7,12.8L763.8,36.9z"/>
	</g>
	<g>
		<path d="M212.8,121.7h15.4v3.4h-11.9v8.1h11.4v3.4h-11.4v10.7h11.9v3.4h-15.4V121.7z"/>
		<path d="M263.8,120.3l21.5,22.6v-21.3h3.6v29.8l-21.5-22.6v21.5h-3.6V120.3z"/>
		<path d="M351.8,136v1.1c0,7.8-5.6,13.9-13.7,13.9s-14.5-6.9-14.5-14.8c0-8.3,6.7-15,14.8-15c4.5,0,9,2,11.6,5.6l-2.5,2.5
			c-2-2.9-5.6-4.7-9-4.7c-6.5,0-11.4,5.1-11.4,11.6c0,6,4.9,11.6,11.2,11.6c4.5,0,9.2-3.8,9.4-8.5h-7.4V136
			C340.3,136,351.8,136,351.8,136z"/>
		<path d="M390.3,150.6h-3.6v-28.9h3.6V150.6z"/>
		<path d="M427,120.3l21.5,22.6v-21.3h3.6v29.8l-21.5-22.6v21.5H427V120.3z"/>
		<path d="M488.7,121.7h15.4v3.4h-11.9v8.1h11.4v3.4h-11.4v10.7h11.9v3.4h-15.4V121.7z"/>
		<path d="M540.2,121.7h15.4v3.4h-12.1v8.1H555v3.4h-11.4v10.7h11.9v3.4H540v-28.9H540.2z"/>
		<path d="M609.4,150.6h-4.3l-8.5-12.1H595v12.1h-3.6v-28.9h4.3c2.5,0,5.4,0,7.6,1.3c2.5,1.3,3.8,4,3.8,6.9c0,4-2.7,7.6-6.9,8.1
			L609.4,150.6z M595,135.3h1.1c3.6,0,7.6-0.7,7.6-5.1c0-4.5-4.3-5.1-7.8-5.1H595V135.3z"/>
		<path d="M647.2,150.6h-3.6v-28.9h3.6V150.6z"/>
		<path d="M683.9,120.3l21.5,22.6v-21.3h3.6v29.8l-21.5-22.6v21.5h-3.6V120.3z"/>
		<path d="M771.6,136v1.1c0,7.8-5.6,13.9-13.7,13.9s-14.5-6.9-14.5-14.8c0-8.3,6.7-15,14.8-15c4.5,0,9,2,11.6,5.6l-2.5,2.5
			c-2-2.9-5.6-4.7-9-4.7c-6.5,0-11.4,5.1-11.4,11.6c0,6,4.9,11.6,11.2,11.6c4.5,0,9.2-3.8,9.4-8.5h-7.4V136
			C760.2,136,771.6,136,771.6,136z"/>
	</g>
</g>
<path class="st0" d="M91.9,177.2c-47.2,0-85.5-38.3-85.5-85.5l0,0C6.4,44.5,44.7,6,91.9,6l0,0c47.2,0,85.5,38.3,85.5,85.5l0,0
	c0,21.7-8.1,41.4-21.3,56.4l0,0c-1.3,1.3-2.5,2.9-3.8,4l0,0L138,131.8l0,0c9.6-10.7,15.2-25.1,15.2-40.5l0,0
	c0-33.8-27.5-61.3-61.3-61.3l0,0c-34,0-61.3,27.5-61.3,61.3l0,0c0,34.2,27.5,61.8,61.3,61.8l0,0H177l-11.6,24.2H91.9L91.9,177.2z"/>
</svg>
