<?xml version="1.0" encoding="UTF-8" standalone="no"?>
<svg
   xmlns:dc="http://purl.org/dc/elements/1.1/"
   xmlns:cc="http://creativecommons.org/ns#"
   xmlns:rdf="http://www.w3.org/1999/02/22-rdf-syntax-ns#"
   xmlns:svg="http://www.w3.org/2000/svg"
   xmlns="http://www.w3.org/2000/svg"
   viewBox="0 0 438.06668 81.720001"
   height="81.720001"
   width="438.06668"
   xml:space="preserve"
   id="svg2"
   version="1.1"><metadata
     id="metadata8"><rdf:RDF><cc:Work
         rdf:about=""><dc:format>image/svg+xml</dc:format><dc:type
           rdf:resource="http://purl.org/dc/dcmitype/StillImage" /></cc:Work></rdf:RDF></metadata><defs
     id="defs6" /><g
     transform="matrix(1.3333333,0,0,-1.3333333,0,81.72)"
     id="g10"><g
       transform="scale(0.1)"
       id="g12"><path
         id="path14"
         style="fill:#27363d;fill-opacity:1;fill-rule:nonzero;stroke:none"
         d="m 625.398,220.289 h 108.176 v -68.172 c 0,-34.148 0,-68.2615 52.406,-68.2615 53.274,0 53.274,34.9455 53.274,87.3045 0,41.594 -8.324,59.074 -36.688,78.215 l -103.039,69.012 c -54.941,37.41 -69.929,78.183 -69.929,138.121 0,45.793 4.148,89.867 42.39,121.472 21.684,18.286 61.586,34.899 118.153,34.899 63.218,0 149.726,-25.781 149.726,-126.484 V 428.211 H 832.543 v 42.453 c 0,28.234 0,59.875 -47.375,59.875 -29.184,0 -49.863,-10.84 -49.863,-58.246 0,-49.059 10.793,-59.898 34.07,-75.723 l 106.402,-72.328 c 20.852,-14.972 43.305,-35.738 55.813,-57.418 15.785,-26.621 15.785,-44.844 15.785,-92.265 0,-52.454 0,-84.8559 -19.191,-115.6567 C 895.824,6.50391 828.402,0.6875 788.527,0.6875 c -92.355,0 -163.129,34.8906 -163.129,133.8715 v 85.73" /><path
         id="path16"
         style="fill:#27363d;fill-opacity:1;fill-rule:nonzero;stroke:none"
         d="m 1065.77,601.23 h 284.51 v -89.8 H 1173.85 V 373.297 h 165.64 V 284.285 H 1173.85 V 103.75 h 183.83 V 13.207 H 1065.77 V 601.23" /><path
         id="path18"
         style="fill:#27363d;fill-opacity:1;fill-rule:nonzero;stroke:none"
         d="m 1474.62,600.832 h 107.25 V 13.5859 H 1474.62 V 600.832" /><path
         id="path20"
         style="fill:#27363d;fill-opacity:1;fill-rule:nonzero;stroke:none"
         d="m 1696.73,220.289 h 108.12 v -68.172 c 0,-34.148 0,-68.2615 52.43,-68.2615 53.24,0 53.24,34.9455 53.24,87.3045 0,41.594 -8.33,59.074 -36.66,78.215 l -103.09,69.012 c -54.92,37.41 -69.86,78.183 -69.86,138.121 0,45.793 4.18,89.867 42.37,121.472 21.7,18.286 61.57,34.899 118.15,34.899 63.26,0 149.72,-25.781 149.72,-126.484 v -58.184 h -107.22 v 42.453 c 0,28.234 0,59.875 -47.51,59.875 -29.02,0 -49.84,-10.84 -49.84,-58.246 0,-49.059 10.76,-59.898 34.06,-75.723 l 106.48,-72.328 c 20.8,-14.972 43.27,-35.738 55.74,-57.418 15.76,-26.621 15.76,-44.844 15.76,-92.265 0,-52.454 0,-84.8559 -19.16,-115.6567 C 1967.12,6.50391 1899.69,0.6875 1859.8,0.6875 c -92.36,0 -163.07,34.8906 -163.07,133.8715 v 85.73" /><path
         id="path22"
         style="fill:#27363d;fill-opacity:1;fill-rule:nonzero;stroke:none"
         d="m 2137.03,600.402 h 175.53 l 69.88,-410.922 69.07,410.922 H 2625.3 V 13.207 h -107.22 l 9.9,509.012 -94.79,-509.012 h -101.51 l -96.5,509.012 8.38,-509.012 h -106.53 v 587.195" /><path
         id="path24"
         style="fill:#27363d;fill-opacity:1;fill-rule:nonzero;stroke:none"
         d="m 2742.03,600.402 h 107.3 V 13.207 h -107.3 v 587.195" /><path
         id="path26"
         style="fill:#27363d;fill-opacity:1;fill-rule:nonzero;stroke:none"
         d="m 3178.22,385.773 v 74.934 c 0,44.008 -7.48,68.961 -54.88,68.961 -47.37,0 -49.93,-37.41 -49.93,-64.031 V 151.223 c 0,-34.996 5.81,-66.5355 54.02,-66.5355 50.79,0 50.79,36.5785 50.79,72.4025 v 76.523 h 107.3 v -83.242 c 0,-47.351 0,-149.6835 -159.73,-149.6835 -30.79,0 -79.77,5.81641 -113.93,28.2383 -46.59,30.8398 -46.59,76.5042 -46.59,108.9922 v 319.387 c 0,47.41 2.54,79.894 29.13,108.941 42.37,45.805 108.94,46.633 131.39,46.633 159.73,0 159.73,-94.793 159.73,-136.402 v -90.704 h -107.3" /><path
         id="path28"
         style="fill:#27363d;fill-opacity:1;fill-rule:nonzero;stroke:none"
         d="m 189.137,414.441 h 189.222 c 0,104.161 -84.703,188.567 -189.222,188.567 C 84.6523,603.008 0,518.602 0,414.441 0,310.293 84.6523,225.875 189.137,225.875 v 188.566" /><path
         id="path30"
         style="fill:#f14624;fill-opacity:1;fill-rule:nonzero;stroke:none"
         d="M 225.746,188.445 H 36.5898 C 36.5898,84.3516 121.285,0 225.746,0 330.18,0 414.918,84.3516 414.918,188.445 c 0,104.203 -84.738,188.578 -189.172,188.578 V 188.445" /></g></g></svg>