<?xml version="1.0" encoding="utf-8"?>
<!-- Generator: Adobe Illustrator 22.1.0, SVG Export Plug-In . SVG Version: 6.00 Build 0)  -->
<svg version="1.1" id="Layer_1" xmlns="http://www.w3.org/2000/svg" xmlns:xlink="http://www.w3.org/1999/xlink" x="0px" y="0px"
	 viewBox="0 0 783 150" style="enable-background:new 0 0 783 150;" xml:space="preserve">
<g>
	<g>
		<path style="fill:#293F4D;" d="M151.1,94.3h25.6v16.1c0,8.1,0,16.2,12.4,16.2c12.6,0,12.6-8.3,12.6-20.7c0-9.8-2-14-8.7-18.5
			L168.6,71c-13-8.9-16.6-18.5-16.6-32.7c0-10.8,1-21.3,10-28.8c5.1-4.3,14.6-8.3,28-8.3c15,0,35.5,6.1,35.5,30V45h-25.4V35
			c0-6.7,0-14.2-11.2-14.2c-6.9,0-11.8,2.6-11.8,13.8c0,11.6,2.6,14.2,8.1,17.9l25.2,17.1c4.9,3.5,10.3,8.5,13.2,13.6
			c3.7,6.3,3.7,10.6,3.7,21.8c0,12.4,0,20.1-4.5,27.4c-7.7,12.4-23.6,13.8-33.1,13.8c-21.9,0-38.6-8.3-38.6-31.7V94.3z"/>
		<path style="fill:#293F4D;" d="M255.4,4.1h67.4v21.3H281V58h39.2v21.1H281v42.8h43.5v21.4h-69.1V4.1z"/>
		<path style="fill:#293F4D;" d="M352.2,4.2h25.4v139.1h-25.4V4.2z"/>
		<path style="fill:#293F4D;" d="M404.8,94.3h25.6v16.1c0,8.1,0,16.2,12.4,16.2c12.6,0,12.6-8.3,12.6-20.7c0-9.8-2-14-8.7-18.5
			L422.3,71c-13-8.9-16.5-18.5-16.5-32.7c0-10.8,1-21.3,10-28.8c5.1-4.3,14.6-8.3,28-8.3c15,0,35.5,6.1,35.5,30V45h-25.4V35
			c0-6.7,0-14.2-11.3-14.2c-6.9,0-11.8,2.6-11.8,13.8c0,11.6,2.5,14.2,8.1,17.9l25.2,17.1c4.9,3.5,10.2,8.5,13.2,13.6
			c3.7,6.3,3.7,10.6,3.7,21.8c0,12.4,0,20.1-4.5,27.4c-7.7,12.4-23.6,13.8-33.1,13.8c-21.9,0-38.6-8.3-38.6-31.7V94.3z"/>
		<path style="fill:#293F4D;" d="M509,4.3h41.6l16.5,97.3l16.4-97.3h41.2v139h-25.4l2.3-120.5l-22.4,120.5h-24L532.3,22.8l2,120.5
			H509V4.3z"/>
		<path style="fill:#293F4D;" d="M652.3,4.3h25.4v139h-25.4V4.3z"/>
		<path style="fill:#293F4D;" d="M755.6,55.1V37.3c0-10.4-1.8-16.3-13-16.3c-11.2,0-11.8,8.9-11.8,15.2v74.5
			c0,8.3,1.4,15.8,12.8,15.8c12,0,12-8.7,12-17.1V91.1H781v19.7c0,11.2,0,35.4-37.8,35.4c-7.3,0-18.9-1.4-27-6.7
			c-11-7.3-11-18.1-11-25.8V38.1c0-11.2,0.6-18.9,6.9-25.8c10-10.8,25.8-11,31.1-11C781,1.3,781,23.7,781,33.6v21.5H755.6z"/>
		<path style="fill:#293F4D;" d="M47.8,48.3h44.8c0-24.7-20.1-44.7-44.8-44.7C23,3.6,3,23.6,3,48.3c0,24.7,20,44.7,44.8,44.7V48.3z"
			/>
		<path style="fill:#F1592A;" d="M56.5,101.8H11.7c0,24.6,20.1,44.6,44.8,44.6c24.7,0,44.8-20,44.8-44.6c0-24.7-20.1-44.7-44.8-44.7
			V101.8z"/>
	</g>
</g>
</svg>
