<?xml version="1.0" standalone="no"?>
<!DOCTYPE svg PUBLIC "-//W3C//DTD SVG 20010904//EN"
 "http://www.w3.org/TR/2001/REC-SVG-20010904/DTD/svg10.dtd">
<svg version="1.0" xmlns="http://www.w3.org/2000/svg"
 width="1981.000000pt" height="293.000000pt" viewBox="0 0 1981.000000 293.000000"
 preserveAspectRatio="xMidYMid meet">
<metadata>
Created by potrace 1.15, written by Peter Selinger 2001-2017
</metadata>
<g transform="translate(0.000000,293.000000) scale(0.100000,-0.100000)"
fill="#000000" stroke="none">
<path d="M7628 2915 c-166 -63 -257 -235 -214 -403 27 -108 88 -181 191 -229
52 -24 72 -28 145 -27 64 0 97 6 133 22 70 32 140 102 173 175 59 129 28 294
-71 386 -73 67 -117 84 -225 88 -65 2 -107 -2 -132 -12z"/>
<path d="M740 2050 c-269 -26 -504 -173 -599 -373 -37 -78 -51 -147 -51 -245
0 -147 41 -245 145 -348 58 -58 91 -80 185 -127 63 -31 183 -79 265 -108 218
-75 299 -119 330 -179 36 -70 4 -138 -90 -185 -53 -26 -69 -29 -150 -29 -160
1 -306 47 -444 139 l-80 54 -126 -184 c-69 -101 -125 -190 -125 -197 0 -16 89
-74 196 -127 289 -144 657 -181 916 -92 322 111 488 347 450 643 -20 163 -100
288 -242 383 -91 61 -160 91 -375 165 -254 88 -310 121 -321 191 -11 70 71
139 188 158 108 18 259 -17 380 -88 l67 -39 122 186 c67 103 122 193 123 201
1 19 -175 111 -276 144 -155 51 -337 72 -488 57z"/>
<path d="M2507 2050 c-435 -49 -762 -381 -832 -847 -57 -374 47 -701 296 -939
139 -132 298 -213 487 -250 97 -18 326 -18 435 1 202 35 401 137 548 280 l60
59 -155 154 -154 155 -55 -49 c-111 -99 -232 -154 -379 -175 -218 -30 -435 84
-532 282 -20 41 -39 95 -42 122 l-7 47 680 0 680 0 7 46 c9 68 7 147 -5 249
-47 381 -281 696 -605 814 -132 48 -285 66 -427 51z m214 -446 c136 -40 246
-157 274 -291 l7 -33 -396 0 c-455 0 -419 -10 -364 101 90 181 296 277 479
223z"/>
<path d="M11107 2049 c-446 -48 -776 -397 -837 -883 -17 -130 -8 -327 19 -429
43 -164 121 -303 240 -429 144 -152 316 -248 520 -290 138 -29 373 -21 516 16
115 30 261 97 351 161 74 53 174 143 174 157 0 12 -282 308 -293 308 -5 0 -36
-24 -68 -54 -101 -91 -224 -146 -373 -167 -216 -30 -433 85 -530 282 -20 41
-39 95 -42 122 l-7 47 676 0 c530 0 678 3 684 13 4 6 7 75 7 152 -1 103 -7
164 -22 233 -114 503 -530 815 -1015 761z m258 -467 c35 -17 84 -49 108 -71
49 -45 102 -136 112 -193 l7 -38 -397 0 -396 0 6 23 c43 144 161 262 304 303
73 21 180 11 256 -24z"/>
<path d="M13300 2049 c-134 -16 -259 -61 -372 -135 l-68 -44 0 70 0 70 -260 0
-260 0 0 -985 0 -985 270 0 270 0 0 643 0 643 58 56 c116 113 254 171 412 171
185 0 300 -75 372 -244 23 -54 23 -55 26 -661 l3 -608 269 0 270 0 0 533 c0
673 -13 813 -89 980 -57 127 -173 263 -291 344 -179 121 -402 177 -610 152z"/>
<path d="M9109 2034 c-283 -51 -554 -239 -699 -484 -56 -93 -95 -199 -120
-320 -30 -144 -24 -340 14 -479 106 -382 412 -661 809 -736 113 -21 319 -19
432 4 171 35 334 114 466 225 79 66 186 193 173 206 -5 4 -92 72 -194 150
-102 79 -190 147 -196 152 -8 6 -38 -17 -91 -70 -231 -231 -569 -241 -783 -23
-158 162 -194 405 -89 612 44 88 154 196 239 236 210 99 443 57 614 -109 38
-38 71 -68 73 -68 12 0 363 313 363 324 0 19 -156 167 -225 213 -231 155 -517
216 -786 167z"/>
<path d="M4680 2023 c-114 -19 -261 -79 -357 -145 l-43 -29 0 81 0 80 -260 0
-260 0 0 -985 0 -985 270 0 270 0 0 630 0 631 64 62 c152 151 394 212 594 151
l22 -6 0 255 c0 223 -2 256 -16 261 -17 7 -244 6 -284 -1z"/>
<path d="M5152 1993 c3 -10 204 -453 448 -986 l443 -967 187 0 187 0 443 968
c244 532 445 975 448 985 4 16 -12 17 -272 15 l-277 -3 -261 -582 c-144 -321
-265 -583 -268 -583 -4 0 -116 244 -250 543 -134 298 -252 561 -264 585 l-20
42 -274 0 c-256 0 -274 -1 -270 -17z"/>
<path d="M7490 1025 l0 -985 265 0 265 0 0 985 0 985 -265 0 -265 0 0 -985z"/>
<path d="M16632 2001 c2 -5 178 -448 392 -985 l389 -976 202 0 201 0 205 551
c143 386 206 545 211 532 4 -10 97 -256 207 -548 l199 -530 203 0 204 0 382
965 c210 531 382 973 383 983 0 16 -19 17 -263 17 l-262 0 -210 -550 c-139
-365 -213 -546 -219 -537 -4 7 -97 253 -206 547 l-197 535 -224 3 -224 2 -205
-550 c-113 -302 -207 -550 -210 -550 -3 0 -99 248 -214 550 l-210 550 -269 0
c-151 0 -267 -4 -265 -9z"/>
<path d="M19340 275 c0 -22 4 -25 35 -25 l35 0 0 -105 0 -105 30 0 30 0 0 105
0 105 35 0 c31 0 35 3 35 25 l0 25 -100 0 -100 0 0 -25z"/>
<path d="M19560 170 l0 -130 30 0 c30 0 30 0 30 58 l1 57 22 -37 c29 -50 58
-50 92 -1 l25 38 0 -58 c0 -54 1 -57 25 -57 l25 0 0 130 c0 117 -2 130 -17
130 -12 0 -33 -26 -59 -71 l-42 -71 -46 71 c-32 49 -52 71 -66 71 -19 0 -20
-6 -20 -130z"/>
</g>
</svg>
