<?xml version="1.0" encoding="utf-8"?>
<!-- Generator: Adobe Illustrator 22.1.0, SVG Export Plug-In . SVG Version: 6.00 Build 0)  -->
<svg version="1.1" id="Layer_1" xmlns="http://www.w3.org/2000/svg" xmlns:xlink="http://www.w3.org/1999/xlink" x="0px" y="0px"
	 viewBox="0 0 782.9 180.8" style="enable-background:new 0 0 782.9 180.8;" xml:space="preserve">
<g>
	<g>
		<path d="M23.5,18.9c-0.5,0.4-0.7,5.5-0.8,14.1s0.3,14.7,0.8,15.1C24,48.5,28.2,49,38.8,49c10.6-0.1,13.7-0.3,14.2-0.6
			c0.4-0.3,0.9-6.2,0.8-16.4c-0.1-10.2-0.3-12.5-0.7-13c-0.4-0.6-5.4-1.1-14.8-1.1S24.2,18.4,23.5,18.9z"/>
		<path d="M60.7,18.9c-0.5,0.4-0.7,5.5-0.8,14.1c-0.1,8.6,0.3,14.7,0.8,15.1C61.2,48.5,65.4,49,76,49c10.6-0.1,13.7-0.3,14.2-0.6
			c0.4-0.3,0.9-6.2,0.8-16.4c-0.1-10.3-0.3-12.5-0.7-13s-5.4-1.1-14.8-1.1S61.4,18.4,60.7,18.9z"/>
		<path d="M97.7,18.9C97.3,19.3,97,24.4,97,33s0.3,14.7,0.8,15.1c0.5,0.4,4.7,0.9,15.3,0.9c10.6-0.1,13.7-0.3,14.2-0.6
			c0.4-0.3,0.9-6.2,0.8-16.4c-0.1-10.3-0.3-12.5-0.7-13s-5.4-1.1-14.8-1.1C103,17.8,98.5,18.4,97.7,18.9z"/>
		<path d="M134.7,18.9c-0.5,0.4-0.7,5.5-0.8,14.1c-0.1,8.6,0.3,14.7,0.8,15.1c0.5,0.4,4.7,0.9,15.3,0.9c10.6-0.1,13.7-0.3,14.2-0.6
			c0.4-0.3,0.9-6.2,0.8-16.4c-0.1-10.2-0.3-12.5-0.7-13s-5.4-1.1-14.8-1.1C140.1,17.8,135.4,18.4,134.7,18.9z"/>
		<path d="M23.5,56c-0.5,0.4-0.7,5.5-0.8,14.1s0.3,14.7,0.8,15.1c0.5,0.4,4.7,0.9,15.3,0.9C49.4,86,52.6,85.8,53,85.5
			c0.4-0.3,0.9-6.2,0.8-16.4c-0.1-10.3-0.3-12.5-0.7-13c-0.4-0.6-5.4-1.1-14.8-1.1S24.3,55.4,23.5,56z"/>
		<path d="M60.8,56c-0.5,0.4-0.7,5.5-0.8,14.1c-0.1,8.6,0.3,14.7,0.8,15.1c0.5,0.4,4.7,0.9,15.3,0.9c10.6-0.1,13.7-0.3,14.2-0.6
			c0.4-0.3,0.9-6.2,0.8-16.4s-0.3-12.5-0.7-13c-0.4-0.6-5.4-1.1-14.8-1.1S61.5,55.4,60.8,56z"/>
		<path d="M97.8,56c-0.5,0.4-0.7,5.5-0.8,14.1s0.3,14.7,0.8,15.1c0.5,0.4,4.7,0.9,15.3,0.9c10.6-0.1,13.7-0.3,14.2-0.6
			c0.4-0.3,0.9-6.2,0.8-16.4c-0.1-10.2-0.3-12.5-0.7-13c-0.4-0.6-5.4-1.1-14.8-1.1C103.1,54.9,98.5,55.4,97.8,56z"/>
		<path d="M134.8,56c-0.5,0.4-0.7,5.5-0.8,14.1c-0.1,8.6,0.3,14.7,0.8,15.1c0.5,0.4,4.7,0.9,15.3,0.9c10.6-0.1,13.7-0.3,14.2-0.6
			c0.4-0.3,0.9-6.2,0.8-16.4c-0.1-10.2-0.3-12.5-0.7-13s-5.4-1.1-14.8-1.1C140.1,54.9,135.5,55.4,134.8,56z"/>
		<path d="M23.5,93.1c-0.5,0.4-0.7,5.5-0.8,14.1s0.3,14.7,0.8,15.1c0.5,0.4,4.7,0.9,15.3,0.9s13.7-0.3,14.2-0.6
			c0.4-0.3,0.9-6.2,0.8-16.4c-0.1-10.3-0.3-12.5-0.7-13c-0.4-0.6-5.4-1.1-14.8-1.1S24.3,92.5,23.5,93.1z"/>
		<path d="M60.8,93.1c-0.5,0.4-0.7,5.5-0.8,14.1c-0.1,8.6,0.3,14.7,0.8,15.1c0.5,0.4,4.7,0.9,15.3,0.9s13.7-0.3,14.2-0.6
			c0.4-0.3,0.9-6.2,0.8-16.4c-0.1-10.3-0.3-12.5-0.7-13C90,92.6,85,92,75.5,92S61.5,92.5,60.8,93.1z"/>
		<path d="M97.8,93.1c-0.5,0.4-0.7,5.5-0.8,14.1s0.3,14.7,0.8,15.1c0.5,0.4,4.7,0.9,15.3,0.9c10.6-0.1,13.7-0.3,14.2-0.6
			c0.4-0.3,0.9-6.2,0.8-16.4c-0.1-10.3-0.3-12.5-0.7-13c-0.4-0.6-5.4-1.1-14.8-1.1C103.1,92,98.5,92.5,97.8,93.1z"/>
		<path d="M134.8,93.1c-0.5,0.4-0.7,5.5-0.8,14.1c-0.1,8.6,0.3,14.7,0.8,15.1c0.5,0.4,4.7,0.9,15.3,0.9c10.6-0.1,13.7-0.3,14.2-0.6
			c0.4-0.3,0.9-6.2,0.8-16.4c-0.1-10.3-0.3-12.5-0.7-13S159,92,149.6,92C140.1,92,135.5,92.5,134.8,93.1z"/>
		<path d="M23.5,130.2c-0.5,0.4-0.7,5.5-0.8,14.1s0.3,14.7,0.8,15.1c0.5,0.4,4.7,0.9,15.3,0.9s13.7-0.3,14.2-0.6
			c0.4-0.3,0.9-6.2,0.8-16.4c-0.1-10.3-0.3-12.5-0.7-13c-0.4-0.6-5.4-1.1-14.8-1.1S24.3,129.6,23.5,130.2z"/>
		<path d="M60.8,130.2c-0.5,0.4-0.7,5.5-0.8,14.1c-0.1,8.6,0.3,14.7,0.8,15.1c0.5,0.4,4.7,0.9,15.3,0.9s13.7-0.3,14.2-0.6
			c0.4-0.3,0.9-6.2,0.8-16.4c-0.1-10.3-0.3-12.5-0.7-13c-0.4-0.6-5.4-1.1-14.8-1.1S61.5,129.6,60.8,130.2z"/>
		<path d="M97.8,130.2c-0.5,0.4-0.7,5.5-0.8,14.1s0.3,14.7,0.8,15.1c0.5,0.4,4.7,0.9,15.3,0.9c10.6-0.1,13.7-0.3,14.2-0.6
			c0.4-0.3,0.9-6.2,0.8-16.4c-0.1-10.3-0.3-12.5-0.7-13c-0.4-0.6-5.4-1.1-14.8-1.1C103.1,129.2,98.5,129.6,97.8,130.2z"/>
		<path d="M134.8,130.2c-0.5,0.4-0.7,5.5-0.8,14.1c-0.1,8.6,0.3,14.7,0.8,15.1c0.5,0.4,4.7,0.9,15.3,0.9c10.6-0.1,13.7-0.3,14.2-0.6
			c0.4-0.3,0.9-6.2,0.8-16.4c-0.1-10.3-0.3-12.5-0.7-13s-5.4-1.1-14.8-1.1C140.1,129.2,135.5,129.6,134.8,130.2z"/>
	</g>
	<path d="M10.2,5.4h18.7c0,0,0,2.6,1.9,6.3H16.4v14.4c0,0-4.1-2-6.2-2.1V5.4z"/>
	<path d="M177.7,5.6v18.6c0,0-2.4,0.1-6.8,2V11.8l-14.4-0.1c0,0,2.6-4.1,2.6-6.2H177.7z"/>
	<path d="M177.7,173v-18.7c0,0-2.7-0.1-6.2-2v14.5h-14.5c0,0,2,4,2,6.2H177.7z"/>
	<path d="M10.2,173v-18.6c0,0,2.4,0,6.2-2v14.5h14.5c0,0-1.8,4.2-1.8,6.2H10.2z"/>
</g>
<g>
	<path d="M225.7,102.3c0.9,1.7,2,2.8,3.4,3.8c1.4,1,3.2,1.5,5.1,2c2,0.5,4.4,0.5,6.5,0.5c1.4,0,3.3-0.2,4.9-0.5
		c1.6-0.2,3-0.8,4.4-1.4c1.4-0.6,2.4-1.7,3.4-2.8c0.9-1.2,1.3-3,1.3-4.7c0-2-0.9-3.5-2.1-4.7c-1.3-1.2-2.9-2-5-2.6
		c-2.2-0.7-4.3-1.1-6.9-1.7c-2.5-0.6-5.4-1.1-8.1-1.9c-2.7-0.6-4.8-1.1-7.9-2.1c-2.6-0.8-5.3-2-7.3-3.5c-2-1.5-3.7-3.6-4.9-6.2
		c-1.1-2.4-1.7-6.2-1.7-9.5c0-3.7,1.3-7.5,2.8-10.3c1.6-2.7,3.8-5,6.3-6.8c2.5-1.8,5.5-2.9,8.8-3.8c3.2-0.9,6.8-0.9,10-0.9
		c3.7,0,7,0.3,10.4,1.4c3.6,1.2,6.2,2.4,8.8,4.3s4.7,4.3,6.3,7.1c1.6,2.9,2.4,6.5,2.4,10.6h-14.4c-0.2-2.1-0.7-4.1-1.5-5.5
		c-0.8-1.4-2.3-2.6-3.6-3.4s-3-1.3-4.6-1.7c-1.7-0.3-3-0.5-4.9-0.5c-1.3,0-3,0.1-4.3,0.3c-1.3,0.2-3,0.7-4,1.3
		c-1,0.6-2.4,1.3-3.2,2.6c-0.7,1-1.4,2.2-1.4,4.4c0,1.4,0.4,2.9,1.4,4.1c0.9,1.2,2.8,2.1,4.4,2.7c1.9,0.6,3.8,1.1,6.6,1.8
		c3.1,0.7,6.3,1.5,10.8,2.6c1.3,0.2,4.3,1,6.6,1.7c2.4,0.7,4.1,1.4,6.4,2.9c2.4,1.5,3.9,3.1,5.6,5.7c1.8,2.9,2.4,5.7,2.4,9.6
		c0,3.2-0.6,6.4-1.8,9.2c-1.3,2.8-3.2,5.4-5.8,7.4c-2.5,2.1-5.2,3.8-8.9,4.9c-3.7,1.1-8.1,1.7-13,1.7c-3.9,0-8.1-0.5-11.8-1.4
		c-3.7-0.9-7-2.7-9.9-4.7c-2.8-2.1-4.7-4.3-6.3-7.4c-1.7-3.2-2.1-7.6-2.1-10.4H224C224,97.5,224.8,100.7,225.7,102.3z"/>
	<path d="M309.4,118.7v-7.4h-0.3c-1.8,3.1-4.1,5.3-7,6.6c-2.8,1.3-5.8,2.1-8.8,2.1c-3.8,0-6.9-0.5-9.2-1.5c-2.4-1-4.3-2.4-5.7-4.3
		c-1.4-1.9-2.4-4.2-2.9-6.9s-0.9-5.7-0.9-9V65.7h14.1v29.9c0,4.3,0.6,7.7,2,9.8s3.6,3.2,7,3.2c3.9,0,6.6-1.2,8.4-3.6
		c1.7-2.4,2.6-6.2,2.6-11.7V65.7h14.1v53.1H309.4z"/>
	<path d="M344.6,65.9v7.6l0,0c1.7-2.9,4.3-5.3,6.9-6.6c2.6-1.3,5.2-2.1,8.3-2.1c3.9,0,7.4,0.6,10.3,2.2s5.5,3.5,7.4,6.2
		c1.9,2.7,3.3,5.5,4.3,9.1c0.9,3.6,0.9,7.8,0.9,11.7c0,3.6-0.6,6.8-1.5,10.2c-0.9,3.4-2.4,5.8-4.2,8.4c-1.8,2.6-4.3,4.2-6.3,5.4
		c-2.7,1.7-7,2.6-9.9,2.6c-3.1,0-6.5-0.4-9.2-1.8c-2.6-1.3-4.9-3.7-6.6-6.3l0,0v27.2h-13.6V65.9H344.6z M362.3,107.4
		c1.5-0.9,2.8-2.1,3.6-3.6c0.9-1.4,1.6-3.2,2-5.1c0.4-2,0.6-3.9,0.6-5.9c0-2-0.2-3.9-0.6-5.9c-0.4-2-1.1-3.7-2.1-5.2
		c-0.9-1.5-2.2-2.8-3.7-3.7s-3.4-1.4-5.5-1.4c-2.3,0-4.1,0.5-5.7,1.4c-1.5,0.9-2.8,2.1-3.6,3.6c-0.9,1.5-1.6,3.2-2,5.1
		c-0.4,2-0.6,3.9-0.6,6c0,2,0.2,3.9,0.6,5.9c0.4,2,1.1,3.6,2.1,5.1c0.9,1.4,2.2,2.6,3.7,3.6c1.6,0.9,3.4,1.3,5.6,1.3
		C358.9,108.7,360.8,108.3,362.3,107.4z"/>
	<path d="M460.5,47.3v71.5h-13.7V47.3H460.5z"/>
	<path d="M489,137.9c-2.8,1.8-6.6,2.5-11.3,2.5c-1.4,0-3.9-0.2-6-0.2v-11.1c2.1,0.1,4.3-0.1,5.7-0.1c1.8-0.2,3.6-1.1,4.7-3.3
		c0.7-1.4,1.2-2.5,1.6-4.3c-0.5-1.1-1.1-3.3-1.5-4.4l-17.8-51.2h14.8l12,39.1l0,0L502,65.7h14.5l-21.2,62.1
		C493.7,132.3,491.2,136.4,489,137.9z"/>
	<path d="M517.8,76v-9.6h8v-4c0-4.7,0.5-8.8,3.2-11.8c2.7-3,7.7-4,13.1-4c1.2,0,2.4,0.1,3.6,0.2c1.2,0.1,2.4,0.2,2.7,0.4v10.7
		c-1.1-0.2-2.5-0.2-4.2-0.2c-1.8,0-3.2,0.6-4,1.5c-0.8,0.9-0.9,2.1-0.9,4.2v3.2h9.2v9.6h-9.2v42.7h-13.3V76.2h-8.1V76z"/>
	<path d="M564.9,65.8v9.8h0.2c0.6-1.7,1.5-3.2,2.5-4.6c1-1.4,2.3-2.6,3.6-3.6c1.3-1,2.2-1.5,3.8-2.1s3.4-0.8,5.1-0.8
		c0.9,0,1.6,0,2.6,0.1v14.2c-0.6-0.2-0.9-0.1-1.7-0.2c-0.9-0.1-1.9-0.2-2.7-0.2c-2.4,0-4.3,0.3-6,1.2c-1.7,0.9-2.8,1.5-3.9,3.1
		c-1,1.5-1.7,3.3-2.2,5.4s-0.6,4.3-0.6,6.6v23.9h-13.3V65.8H564.9z"/>
	<path d="M585.3,83c0.4-4.1,1.2-7,2.6-9.2c1.4-2.3,3-4.3,5.2-5.6c2.2-1.3,4.7-2.4,7.5-3c2.8-0.6,5.8-0.6,8.5-0.6
		c2.5,0,4.9,0.2,7.5,0.8c2.8,0.7,4.7,1.4,6.9,2.5c2.1,1.1,3.6,2.3,5,4.3c1.3,2,2.1,5.3,2.2,7.6v26.9c0,2.4-0.1,5.8,0.5,7.6
		c0.2,0.8,1.7,2.3,2.4,2.4c0,1,0,1.5,0,2.1h-15.1c-0.2-0.8-0.6-1.5-0.7-2.4c-0.2-0.9-0.6-2.8-0.6-3.7c-2.2,2.4-4.5,4.2-7.5,5.7
		c-2.8,1.4-5.2,2-8.3,2c-2.4,0-4.7-0.2-6.8-0.7c-2.1-0.6-4-1.5-5.5-2.8c-1.6-1.3-3-2.9-3.9-4.9c-0.9-2-1.4-4.4-1.4-7.2
		c0-3,0.8-6.2,1.8-8.2c1-2,2.1-3.3,3.6-4.5s3.4-2.4,5.4-3c2.1-0.6,4.3-1.2,6.3-1.5c2.1-0.3,3.6-0.6,5.7-0.7c2-0.2,3.9-0.5,5.4-0.9
		c1.6-0.4,2.4-0.6,3.3-1.4c0.9-0.8,1.7-1.7,1.6-2.8c-0.1-1.6,0-1.9-0.5-2.8s-1.2-1.5-2.1-2.1c-0.8-0.5-1.7-0.7-2.8-0.9
		c-1.1-0.2-1.9-0.3-3.2-0.3c-2.7,0-4.5,0.1-6.2,1.3c-1.6,1.2-3,2.5-3.5,6.1L585.3,83L585.3,83z M617.4,93.1
		c-0.6,0.6-1.3,0.9-2.2,1.3c-0.9,0.3-1.8,0.6-2.8,0.8c-1,0.2-2.1,0.4-3.2,0.5c-1.1,0.2-2.2,0.3-3.3,0.5c-1,0.2-2.1,0.5-3.1,0.8
		c-1,0.3-1.9,0.8-2.6,1.3c-0.7,0.6-1.3,1.3-1.8,2.2c-0.5,0.9-0.7,2-0.7,3.4c0,1.3,0.2,2.4,0.7,3.2c0.5,0.9,1.1,1.6,1.8,2.1
		c0.8,0.5,1.7,0.9,2.7,1.1c1,0.2,2.1,0.3,3.2,0.3c2.7,0,4.8-0.5,6.3-1.4s2.6-2.1,3.3-3.4c0.7-1.3,1.2-2.7,1.3-4
		c0.2-1.3,0.2-2.4,0.2-3.2L617.4,93.1L617.4,93.1z"/>
	<path d="M652,66.1v7.2h0.2c1.8-2.8,3.9-4.8,6.5-6.3c2.5-1.5,5.4-2.3,8.7-2.3c3.2,0,6,0.6,8.5,2c2.6,1.3,4.6,3.6,5.9,6.9
		c1.5-2.3,3.5-4.3,6-6.2c2.5-1.7,5.5-2.7,8.9-2.7c2.6,0,5.1,0.3,7.3,1c2.2,0.7,4.1,1.7,5.8,3.2c1.6,1.5,2.8,3.5,3.7,5.9
		c0.9,2.4,1.3,5.4,1.3,8.8v35.5h-13.6V89c0-1.7-0.1-3.5-0.2-5.1c-0.2-1.6-0.5-2.9-1-4.1c-0.6-1.2-1.4-2.1-2.5-2.8
		c-1.1-0.7-2.6-1-4.6-1c-1.9,0-3.5,0.4-4.7,1.2c-1.2,0.8-2.1,1.8-2.8,3.1c-0.6,1.3-1.1,2.7-1.3,4.3s-0.3,3.2-0.3,4.9V119h-13.6V89.3
		c0-1.6,0-3.2-0.1-4.7c-0.1-1.5-0.3-2.9-0.8-4.3c-0.5-1.3-1.3-2.4-2.4-3.2s-2.8-1.2-4.9-1.2c-0.6,0-1.5,0.2-2.5,0.5
		c-1,0.3-2.1,0.9-3.1,1.7c-1,0.9-1.8,2.1-2.5,3.7c-0.7,1.6-1,3.7-1,6.3V119h-13.6V66.1C639.3,66.1,652,66.1,652,66.1z"/>
	<path d="M738.1,106.4c2.2,2.1,5.3,3.2,9.4,3.2c2.9,0,4.7-0.8,6.9-2.3s3.1-3,3.3-3.9l14.3,0.1c-1.1,6.1-5.4,10.2-9.6,13
		s-9.3,4.1-15.3,4.1c-4.2,0-7.9-0.6-11.2-2c-3.3-1.3-6.2-3.2-8.5-5.7c-2.3-2.4-4.1-5.4-5.4-8.8c-1.3-3.4-1.9-7.2-1.9-11.3
		c0-3.9,0.3-7.7,1.6-11.1c1.3-3.4,2.8-6.6,5.1-9.1c2.4-2.5,5.4-4.6,8.7-6c3.3-1.4,7.5-1.8,11.5-1.8c4.5,0,8.4,0.6,11.8,2.3
		c3.3,1.7,6.2,3.7,8.4,6.6c2.1,2.9,3.8,6.3,4.7,10.1s1.1,8.4,0.9,12.5l-38.6-0.1C734.3,100.8,736,104.3,738.1,106.4z M754.6,78.5
		c-1.7-1.9-4.3-2.8-7.9-2.8c-2.3,0-4.3,0.4-5.8,1.2c-1.5,0.8-2.8,1.7-3.7,2.9s-1.6,2.4-2,3.7c-0.4,1.3-0.6,2.4-0.6,3.5h23.6
		C757.5,83.2,756.3,80.4,754.6,78.5z"/>
	<path d="M402.1,65.9v7.6l0,0c1.7-2.9,4.3-5.3,6.9-6.6c2.6-1.3,5.2-2.1,8.3-2.1c3.9,0,7.4,0.6,10.3,2.2c2.8,1.7,5.5,3.5,7.4,6.2
		c1.9,2.7,3.3,5.5,4.3,9.1c0.9,3.6,0.9,7.8,0.9,11.7c0,3.6-0.6,6.8-1.5,10.2c-0.9,3.4-2.4,5.8-4.2,8.4c-1.8,2.6-4.3,4.2-6.3,5.4
		c-2.7,1.7-7,2.6-9.9,2.6c-3.1,0-6.5-0.4-9.2-1.8c-2.7-1.4-4.9-3.7-6.6-6.3l0,0v27.2h-13.6V65.9H402.1z M419.6,107.4
		c1.5-0.9,2.8-2.1,3.6-3.6c0.9-1.4,1.6-3.2,2-5.1c0.4-2,0.6-3.9,0.6-5.9c0-2-0.2-3.9-0.6-5.9c-0.4-2-1.1-3.7-2.1-5.2
		c-0.9-1.5-2.2-2.8-3.7-3.7s-3.4-1.4-5.5-1.4c-2.3,0-4.1,0.5-5.7,1.4c-1.5,0.9-2.8,2.1-3.6,3.6c-0.9,1.5-1.6,3.2-2,5.1
		c-0.4,2-0.6,3.9-0.6,6c0,2,0.2,3.9,0.6,5.9c0.4,2,1.1,3.6,2.1,5.1c0.9,1.4,2.2,2.6,3.7,3.6c1.6,0.9,3.4,1.3,5.6,1.3
		C416.2,108.7,418.1,108.3,419.6,107.4z"/>
</g>
</svg>
