<?xml version="1.0" encoding="utf-8"?>
<!-- Generator: Adobe Illustrator 22.1.0, SVG Export Plug-In . SVG Version: 6.00 Build 0)  -->
<svg version="1.1" id="Layer_1" xmlns="http://www.w3.org/2000/svg" xmlns:xlink="http://www.w3.org/1999/xlink" x="0px" y="0px"
	 viewBox="0 0 778 111.1" style="enable-background:new 0 0 778 111.1;" xml:space="preserve">
<g>
	<path d="M228.8,14.8h16v14.1h12.6V40h-12.6v27.5c0,4.9,2.9,8.3,7.8,8.3c2.6,0,4.1-0.3,4.6-0.4v9.7c-0.8,0.3-5.3,1.7-11.2,1.7
		c-13.1,0-17.2-8.4-17.2-19L228.8,14.8 M377.5,28.8h-16.2v56.2h16.2V51.2c0-6.7,3.5-11.2,10-11.2c7.2,0,10.1,5.4,10.1,11.2v33.8
		h16.3V47.5c0-11.6-6.4-20.2-20.1-20.2c-11.2,0-15,6.7-16.2,8.5h-0.3L377.5,28.8L377.5,28.8z M355.8,27.1c-14.6,0-18,8.3-19.2,10.8
		h-0.3v-9.1h-14.5v56.2h16.2v-28c0-12.1,8-17.1,17.7-17.1V27.1z M210.2,44.6l10.4-7c-1.3-2.2-6.8-10.5-23-10.5
		c-12.1,0-22.1,6.2-22.1,17.1c0,10.2,7.4,15.1,15.5,17.6c2.5,0.8,4.9,1.4,7,2.1c4.3,1.4,7.8,2.6,7.8,5.9c0,3-3.3,5.1-9.2,5.1
		c-7.6,0-11-4.6-12.3-6.6l-10.9,6c1.1,2.6,7,12,24.2,12c13.1,0,24.3-5.5,24.3-17.9c0-10.2-7.4-15.1-15.9-17.7
		c-2.2-0.7-4.3-1.3-6.3-2c-3.9-1.2-8-2.2-8-6c0-2.8,2.6-4.5,7.4-4.5C206.6,38.7,209.2,43,210.2,44.6z M103.4,4.1L88.8,61.8L74.1,4.1
		H53.9L38.8,63.4L23.7,4.1H6.6l20.9,80.8h21.4l14.6-57.3l14.6,57.3h20.2l20.9-80.8H103.4z M155.4,67.8c-0.8,1.4-3.5,7.2-12.3,7.2
		c-7.1,0-12.1-5.5-12.6-13.3h39.7c0,0,0-4.9,0-5c0-14.7-8.8-29.8-27.9-29.8c-17.1,0-28,12.9-28,29.8c0,16.7,10.6,29.8,28.6,29.8
		c15.8,0,21.8-9.3,23.3-12.5L155.4,67.8z M142.3,38.7c7.2,0,11.2,5.1,11.7,12h-23.5C131.1,44.3,134.7,38.7,142.3,38.7z M299.7,67.8
		c-0.8,1.4-3.5,7.2-12.3,7.2c-7.1,0-12.1-5.5-12.6-13.3h39.7c0,0,0-4.9,0-5c0-14.7-8.8-29.8-27.9-29.8c-17.1,0-28,12.9-28,29.8
		c0,16.7,10.6,29.8,28.6,29.8c15.8,0,21.8-9.3,23.3-12.5L299.7,67.8z M286.7,38.7c7.2,0,11.2,5.1,11.7,12h-23.5
		C275.5,44.3,278.9,38.7,286.7,38.7z"/>
	<path d="M639,14.8h16v14.1h12.6V40h-12.6v27.5c0,4.9,2.9,8.3,7.8,8.3c2.6,0,4.1-0.3,4.6-0.4v9.7c-0.8,0.3-5.3,1.7-11.2,1.7
		c-13.1,0-17.2-8.4-17.2-19V14.8 M444.9,4.1h27.6c25.1,0,40.9,12.3,40.9,40.3c0,28.1-15.2,40.3-40.9,40.3h-27.6V4.1z M462.2,71.5
		h9.2c21,0,24-14.1,24-26.9s-3.3-26.9-24-26.9h-9.2V71.5z M732.6,4.1h16.6v80.8h-16.6V4.1z M758.1,79.7c0-3.8,3.2-7,7-7
		c3.8,0,7,3.2,7,7c0,3.8-3.2,7-7,7S758.1,83.6,758.1,79.7z M770.8,79.7c0-3.2-2.5-5.8-5.8-5.8c-3.2,0-5.8,2.6-5.8,5.8
		c0,3.2,2.6,5.8,5.8,5.8C768.3,85.5,770.8,82.8,770.8,79.7z M763.9,80.2v3.4h-1.4v-8.1h2.5c1.6,0,2.9,0.7,2.9,2.2
		c0,1.2-0.8,1.7-1.6,2l0,0c0.8,0.1,1.2,0.7,1.3,1.6c0.1,0.8,0.3,2.4,0.3,2.4h-1.3c0,0-0.1-0.9-0.1-1.4c-0.1-1.4-0.7-2-1.7-2
		C764.6,80.2,763.9,80.2,763.9,80.2z M765,79.1c1.1,0,1.4-0.7,1.4-1.2c0-0.7-0.4-1.2-1.4-1.2h-1.2v2.5L765,79.1L765,79.1z
		 M584.9,28.8v6h-0.3c-0.9-1.7-5-7.8-15.4-7.8c-17.2,0-23.5,14.1-23.5,28.4s6.3,28.4,23.5,28.4c10.6,0,14.6-6.2,15.4-7.8h0.3v6.4
		c0,7.8-5.5,12.6-12,12.6c-7.4,0-11.2-4.9-12.2-6.8c-1.4,0.8-10.9,6.3-10.9,6.3c1.2,2.4,6,12.5,23.6,12.5
		c18.7,0,27.5-11.8,27.5-28.5V28.8H584.9z M574.1,71.8c-9.2,0-10.9-8.9-10.9-16.3c0-8.3,2.4-16.3,10.9-16.3c8.5,0,10.9,8,10.9,16.3
		C584.9,62.7,583.1,71.8,574.1,71.8z M672.7,37.1c1.6-2,7.2-10,22.1-10c13.9,0,26.8,6.2,26.8,22.2v35.6h-15.8c0,0,0-3.3,0-5.6h-0.3
		c-0.8,1.2-4.7,7.4-16,7.4c-10.5,0-18.4-7.2-18.4-18.3c0-12.9,10.6-18.9,27.1-18.9c0.8,0,7.1,0,7.1,0v-1.3c0-6-4.5-9.6-11.8-9.6
		c-6.4,0-10,3.5-11.6,5.6L672.7,37.1z M687.3,67.5c0,4.7,3.4,7.6,8.1,7.6c7,0,9.9-5.8,9.9-12.5c0-0.1,0-3.4,0-3.4s-5.9,0-6.4,0
		C690.4,59.3,687.3,62.7,687.3,67.5z M521.7,28.8h16.6v56.2h-16.6V28.8z M530,2.8c-5,0-9.1,4.1-9.1,9.1s4.1,9.1,9.1,9.1
		s9.1-4.1,9.1-9.1S535,2.8,530,2.8z M612,28.8h16.6v56.2H612V28.8z M620.3,2.8c-5,0-9.1,4.1-9.1,9.1s4.1,9.1,9.1,9.1
		s9.1-4.1,9.1-9.1S625.3,2.8,620.3,2.8z"/>
</g>
</svg>
