<svg width="1440" height="125" viewBox="0 0 1440 125" fill="none" xmlns="http://www.w3.org/2000/svg">
<rect x="532.42" y="2" width="120.753" height="34.7532" rx="17.3766" transform="rotate(90 532.42 2)" fill="#29193E" stroke="#29193E" stroke-width="4" stroke-linejoin="round"/>
<rect x="532.421" y="38.6296" width="84.1237" height="34.7532" rx="17.3766" transform="rotate(90 532.421 38.6296)" fill="#E55B42" stroke="#29193E" stroke-width="4" stroke-linejoin="round"/>
<rect x="532.421" y="85.8767" width="36.8767" height="34.7532" rx="17.3766" transform="rotate(90 532.421 85.8767)" fill="#F98548" stroke="#29193E" stroke-width="4" stroke-linejoin="round"/>
<rect x="-2" y="-2" width="120.753" height="34.7532" rx="17.3766" transform="matrix(4.37114e-08 -1 -1 -4.37114e-08 496.976 120.753)" fill="#29193E" stroke="#29193E" stroke-width="4" stroke-linejoin="round"/>
<rect x="-2" y="-2" width="84.1237" height="34.7532" rx="17.3766" transform="matrix(4.37114e-08 -1 -1 -4.37114e-08 496.976 84.1238)" fill="#F98548" stroke="#29193E" stroke-width="4" stroke-linejoin="round"/>
<rect x="-2" y="-2" width="36.8767" height="34.7532" rx="17.3766" transform="matrix(4.37114e-08 -1 -1 -4.37114e-08 496.976 36.8767)" fill="#E55B42" stroke="#29193E" stroke-width="4" stroke-linejoin="round"/>
<rect x="465.531" y="2" width="120.753" height="34.7532" rx="17.3766" transform="rotate(90 465.531 2)" fill="#29193E" stroke="#29193E" stroke-width="4" stroke-linejoin="round"/>
<rect x="465.532" y="38.6299" width="84.1237" height="34.7532" rx="17.3766" transform="rotate(90 465.532 38.6299)" fill="#E55B42" stroke="#29193E" stroke-width="4" stroke-linejoin="round"/>
<rect x="465.532" y="85.8767" width="36.8767" height="34.7532" rx="17.3766" transform="rotate(90 465.532 85.8767)" fill="#F98548" stroke="#29193E" stroke-width="4" stroke-linejoin="round"/>
<rect x="-2" y="-2" width="120.753" height="34.7532" rx="17.3766" transform="matrix(4.37114e-08 -1 -1 -4.37114e-08 430.087 120.753)" fill="#29193E" stroke="#29193E" stroke-width="4" stroke-linejoin="round"/>
<rect x="-2" y="-2" width="84.1237" height="34.7532" rx="17.3766" transform="matrix(4.37114e-08 -1 -1 -4.37114e-08 430.087 84.1238)" fill="#F98548" stroke="#29193E" stroke-width="4" stroke-linejoin="round"/>
<rect x="-2" y="-2" width="36.8767" height="34.7532" rx="17.3766" transform="matrix(4.37114e-08 -1 -1 -4.37114e-08 430.087 36.8767)" fill="#E55B42" stroke="#29193E" stroke-width="4" stroke-linejoin="round"/>
<rect x="398.643" y="2" width="120.753" height="34.7532" rx="17.3766" transform="rotate(90 398.643 2)" fill="#29193E" stroke="#29193E" stroke-width="4" stroke-linejoin="round"/>
<rect x="398.643" y="38.6299" width="84.1237" height="34.7532" rx="17.3766" transform="rotate(90 398.643 38.6299)" fill="#E55B42" stroke="#29193E" stroke-width="4" stroke-linejoin="round"/>
<rect x="398.643" y="85.8767" width="36.8767" height="34.7532" rx="17.3766" transform="rotate(90 398.643 85.8767)" fill="#F98548" stroke="#29193E" stroke-width="4" stroke-linejoin="round"/>
<rect x="-2" y="-2" width="120.753" height="34.7532" rx="17.3766" transform="matrix(4.37114e-08 -1 -1 -4.37114e-08 363.198 120.753)" fill="#29193E" stroke="#29193E" stroke-width="4" stroke-linejoin="round"/>
<rect x="-2" y="-2" width="84.1237" height="34.7532" rx="17.3766" transform="matrix(4.37114e-08 -1 -1 -4.37114e-08 363.198 84.1238)" fill="#F98548" stroke="#29193E" stroke-width="4" stroke-linejoin="round"/>
<rect x="-2" y="-2" width="36.8767" height="34.7532" rx="17.3766" transform="matrix(4.37114e-08 -1 -1 -4.37114e-08 363.198 36.8767)" fill="#E55B42" stroke="#29193E" stroke-width="4" stroke-linejoin="round"/>
<rect x="331.754" y="2" width="120.753" height="34.7532" rx="17.3766" transform="rotate(90 331.754 2)" fill="#29193E" stroke="#29193E" stroke-width="4" stroke-linejoin="round"/>
<rect x="331.753" y="38.6299" width="84.1237" height="34.7532" rx="17.3766" transform="rotate(90 331.753 38.6299)" fill="#E55B42" stroke="#29193E" stroke-width="4" stroke-linejoin="round"/>
<rect x="331.753" y="85.8767" width="36.8767" height="34.7532" rx="17.3766" transform="rotate(90 331.753 85.8767)" fill="#F98548" stroke="#29193E" stroke-width="4" stroke-linejoin="round"/>
<rect x="-2" y="-2" width="120.753" height="34.7532" rx="17.3766" transform="matrix(4.37114e-08 -1 -1 -4.37114e-08 296.308 120.753)" fill="#29193E" stroke="#29193E" stroke-width="4" stroke-linejoin="round"/>
<rect x="-2" y="-2" width="84.1237" height="34.7532" rx="17.3766" transform="matrix(4.37114e-08 -1 -1 -4.37114e-08 296.309 84.1238)" fill="#F98548" stroke="#29193E" stroke-width="4" stroke-linejoin="round"/>
<rect x="-2" y="-2" width="36.8767" height="34.7532" rx="17.3766" transform="matrix(4.37114e-08 -1 -1 -4.37114e-08 296.309 36.8767)" fill="#E55B42" stroke="#29193E" stroke-width="4" stroke-linejoin="round"/>
<rect x="264.864" y="2" width="120.753" height="34.7532" rx="17.3766" transform="rotate(90 264.864 2)" fill="#29193E" stroke="#29193E" stroke-width="4" stroke-linejoin="round"/>
<rect x="264.864" y="38.6299" width="84.1237" height="34.7532" rx="17.3766" transform="rotate(90 264.864 38.6299)" fill="#E55B42" stroke="#29193E" stroke-width="4" stroke-linejoin="round"/>
<rect x="264.865" y="85.8767" width="36.8767" height="34.7532" rx="17.3766" transform="rotate(90 264.865 85.8767)" fill="#F98548" stroke="#29193E" stroke-width="4" stroke-linejoin="round"/>
<rect x="-2" y="-2" width="120.753" height="34.7532" rx="17.3766" transform="matrix(4.37114e-08 -1 -1 -4.37114e-08 229.42 120.753)" fill="#29193E" stroke="#29193E" stroke-width="4" stroke-linejoin="round"/>
<rect x="-2" y="-2" width="84.1237" height="34.7532" rx="17.3766" transform="matrix(4.37114e-08 -1 -1 -4.37114e-08 229.42 84.1238)" fill="#F98548" stroke="#29193E" stroke-width="4" stroke-linejoin="round"/>
<rect x="-2" y="-2" width="36.8767" height="34.7532" rx="17.3766" transform="matrix(4.37114e-08 -1 -1 -4.37114e-08 229.42 36.8767)" fill="#E55B42" stroke="#29193E" stroke-width="4" stroke-linejoin="round"/>
<rect x="197.975" y="2" width="120.753" height="34.7532" rx="17.3766" transform="rotate(90 197.975 2)" fill="#29193E" stroke="#29193E" stroke-width="4" stroke-linejoin="round"/>
<rect x="197.976" y="38.6296" width="84.1237" height="34.7532" rx="17.3766" transform="rotate(90 197.976 38.6296)" fill="#E55B42" stroke="#29193E" stroke-width="4" stroke-linejoin="round"/>
<rect x="197.976" y="85.8767" width="36.8767" height="34.7532" rx="17.3766" transform="rotate(90 197.976 85.8767)" fill="#F98548" stroke="#29193E" stroke-width="4" stroke-linejoin="round"/>
<rect x="-2" y="-2" width="120.753" height="34.7532" rx="17.3766" transform="matrix(4.37114e-08 -1 -1 -4.37114e-08 162.531 120.753)" fill="#29193E" stroke="#29193E" stroke-width="4" stroke-linejoin="round"/>
<rect x="-2" y="-2" width="84.1237" height="34.7532" rx="17.3766" transform="matrix(4.37114e-08 -1 -1 -4.37114e-08 162.531 84.1238)" fill="#F98548" stroke="#29193E" stroke-width="4" stroke-linejoin="round"/>
<rect x="-2" y="-2" width="36.8767" height="34.7532" rx="17.3766" transform="matrix(4.37114e-08 -1 -1 -4.37114e-08 162.531 36.8767)" fill="#E55B42" stroke="#29193E" stroke-width="4" stroke-linejoin="round"/>
<rect x="131.087" y="2" width="120.753" height="34.7532" rx="17.3766" transform="rotate(90 131.087 2)" fill="#29193E" stroke="#29193E" stroke-width="4" stroke-linejoin="round"/>
<rect x="131.086" y="38.6296" width="84.1237" height="34.7532" rx="17.3766" transform="rotate(90 131.086 38.6296)" fill="#E55B42" stroke="#29193E" stroke-width="4" stroke-linejoin="round"/>
<rect x="131.086" y="85.8765" width="36.8767" height="34.7532" rx="17.3766" transform="rotate(90 131.086 85.8765)" fill="#F98548" stroke="#29193E" stroke-width="4" stroke-linejoin="round"/>
<rect x="-2" y="-2" width="120.753" height="34.7532" rx="17.3766" transform="matrix(4.37114e-08 -1 -1 -4.37114e-08 95.6422 120.753)" fill="#29193E" stroke="#29193E" stroke-width="4" stroke-linejoin="round"/>
<rect x="-2" y="-2" width="84.1237" height="34.7532" rx="17.3766" transform="matrix(4.37114e-08 -1 -1 -4.37114e-08 95.6422 84.1238)" fill="#F98548" stroke="#29193E" stroke-width="4" stroke-linejoin="round"/>
<rect x="-2" y="-2" width="36.8767" height="34.7532" rx="17.3766" transform="matrix(4.37114e-08 -1 -1 -4.37114e-08 95.6422 36.8767)" fill="#E55B42" stroke="#29193E" stroke-width="4" stroke-linejoin="round"/>
<rect x="64.1975" y="2" width="120.753" height="34.7532" rx="17.3766" transform="rotate(90 64.1975 2)" fill="#29193E" stroke="#29193E" stroke-width="4" stroke-linejoin="round"/>
<rect x="64.1975" y="38.6294" width="84.1237" height="34.7532" rx="17.3766" transform="rotate(90 64.1975 38.6294)" fill="#E55B42" stroke="#29193E" stroke-width="4" stroke-linejoin="round"/>
<rect x="64.1975" y="85.8765" width="36.8767" height="34.7532" rx="17.3766" transform="rotate(90 64.1975 85.8765)" fill="#F98548" stroke="#29193E" stroke-width="4" stroke-linejoin="round"/>
<rect x="-2" y="-2" width="120.753" height="34.7532" rx="17.3766" transform="matrix(4.37114e-08 -1 -1 -4.37114e-08 28.7532 120.753)" fill="#29193E" stroke="#29193E" stroke-width="4" stroke-linejoin="round"/>
<rect x="-2" y="-2" width="84.1237" height="34.7532" rx="17.3766" transform="matrix(4.37114e-08 -1 -1 -4.37114e-08 28.7532 84.1238)" fill="#F98548" stroke="#29193E" stroke-width="4" stroke-linejoin="round"/>
<rect x="-2" y="-2" width="36.8767" height="34.7532" rx="17.3766" transform="matrix(4.37114e-08 -1 -1 -4.37114e-08 28.7532 36.8767)" fill="#E55B42" stroke="#29193E" stroke-width="4" stroke-linejoin="round"/>
<rect x="1072.42" y="2" width="120.753" height="34.7532" rx="17.3766" transform="rotate(90 1072.42 2)" fill="#29193E" stroke="#29193E" stroke-width="4" stroke-linejoin="round"/>
<rect x="1072.42" y="38.6296" width="84.1237" height="34.7532" rx="17.3766" transform="rotate(90 1072.42 38.6296)" fill="#E55B42" stroke="#29193E" stroke-width="4" stroke-linejoin="round"/>
<rect x="1072.42" y="85.8767" width="36.8767" height="34.7532" rx="17.3766" transform="rotate(90 1072.42 85.8767)" fill="#F98548" stroke="#29193E" stroke-width="4" stroke-linejoin="round"/>
<rect x="-2" y="-2" width="120.753" height="34.7532" rx="17.3766" transform="matrix(4.37114e-08 -1 -1 -4.37114e-08 1036.98 120.753)" fill="#29193E" stroke="#29193E" stroke-width="4" stroke-linejoin="round"/>
<rect x="-2" y="-2" width="84.1237" height="34.7532" rx="17.3766" transform="matrix(4.37114e-08 -1 -1 -4.37114e-08 1036.98 84.1238)" fill="#F98548" stroke="#29193E" stroke-width="4" stroke-linejoin="round"/>
<rect x="-2" y="-2" width="36.8767" height="34.7532" rx="17.3766" transform="matrix(4.37114e-08 -1 -1 -4.37114e-08 1036.98 36.8767)" fill="#E55B42" stroke="#29193E" stroke-width="4" stroke-linejoin="round"/>
<rect x="1005.53" y="2" width="120.753" height="34.7532" rx="17.3766" transform="rotate(90 1005.53 2)" fill="#29193E" stroke="#29193E" stroke-width="4" stroke-linejoin="round"/>
<rect x="1005.53" y="38.6299" width="84.1237" height="34.7532" rx="17.3766" transform="rotate(90 1005.53 38.6299)" fill="#E55B42" stroke="#29193E" stroke-width="4" stroke-linejoin="round"/>
<rect x="1005.53" y="85.8767" width="36.8767" height="34.7532" rx="17.3766" transform="rotate(90 1005.53 85.8767)" fill="#F98548" stroke="#29193E" stroke-width="4" stroke-linejoin="round"/>
<rect x="-2" y="-2" width="120.753" height="34.7532" rx="17.3766" transform="matrix(4.37114e-08 -1 -1 -4.37114e-08 970.087 120.753)" fill="#29193E" stroke="#29193E" stroke-width="4" stroke-linejoin="round"/>
<rect x="-2" y="-2" width="84.1237" height="34.7532" rx="17.3766" transform="matrix(4.37114e-08 -1 -1 -4.37114e-08 970.087 84.1238)" fill="#F98548" stroke="#29193E" stroke-width="4" stroke-linejoin="round"/>
<rect x="-2" y="-2" width="36.8767" height="34.7532" rx="17.3766" transform="matrix(4.37114e-08 -1 -1 -4.37114e-08 970.087 36.8767)" fill="#E55B42" stroke="#29193E" stroke-width="4" stroke-linejoin="round"/>
<rect x="938.643" y="2" width="120.753" height="34.7532" rx="17.3766" transform="rotate(90 938.643 2)" fill="#29193E" stroke="#29193E" stroke-width="4" stroke-linejoin="round"/>
<rect x="938.643" y="38.6299" width="84.1237" height="34.7532" rx="17.3766" transform="rotate(90 938.643 38.6299)" fill="#E55B42" stroke="#29193E" stroke-width="4" stroke-linejoin="round"/>
<rect x="938.643" y="85.8767" width="36.8767" height="34.7532" rx="17.3766" transform="rotate(90 938.643 85.8767)" fill="#F98548" stroke="#29193E" stroke-width="4" stroke-linejoin="round"/>
<rect x="-2" y="-2" width="120.753" height="34.7532" rx="17.3766" transform="matrix(4.37114e-08 -1 -1 -4.37114e-08 903.198 120.753)" fill="#29193E" stroke="#29193E" stroke-width="4" stroke-linejoin="round"/>
<rect x="-2" y="-2" width="84.1237" height="34.7532" rx="17.3766" transform="matrix(4.37114e-08 -1 -1 -4.37114e-08 903.198 84.1238)" fill="#F98548" stroke="#29193E" stroke-width="4" stroke-linejoin="round"/>
<rect x="-2" y="-2" width="36.8767" height="34.7532" rx="17.3766" transform="matrix(4.37114e-08 -1 -1 -4.37114e-08 903.198 36.8767)" fill="#E55B42" stroke="#29193E" stroke-width="4" stroke-linejoin="round"/>
<rect x="871.754" y="2" width="120.753" height="34.7532" rx="17.3766" transform="rotate(90 871.754 2)" fill="#29193E" stroke="#29193E" stroke-width="4" stroke-linejoin="round"/>
<rect x="871.753" y="38.6299" width="84.1237" height="34.7532" rx="17.3766" transform="rotate(90 871.753 38.6299)" fill="#E55B42" stroke="#29193E" stroke-width="4" stroke-linejoin="round"/>
<rect x="871.753" y="85.8767" width="36.8767" height="34.7532" rx="17.3766" transform="rotate(90 871.753 85.8767)" fill="#F98548" stroke="#29193E" stroke-width="4" stroke-linejoin="round"/>
<rect x="-2" y="-2" width="120.753" height="34.7532" rx="17.3766" transform="matrix(4.37114e-08 -1 -1 -4.37114e-08 836.308 120.753)" fill="#29193E" stroke="#29193E" stroke-width="4" stroke-linejoin="round"/>
<rect x="-2" y="-2" width="84.1237" height="34.7532" rx="17.3766" transform="matrix(4.37114e-08 -1 -1 -4.37114e-08 836.309 84.1238)" fill="#F98548" stroke="#29193E" stroke-width="4" stroke-linejoin="round"/>
<rect x="-2" y="-2" width="36.8767" height="34.7532" rx="17.3766" transform="matrix(4.37114e-08 -1 -1 -4.37114e-08 836.309 36.8767)" fill="#E55B42" stroke="#29193E" stroke-width="4" stroke-linejoin="round"/>
<rect x="804.864" y="2" width="120.753" height="34.7532" rx="17.3766" transform="rotate(90 804.864 2)" fill="#29193E" stroke="#29193E" stroke-width="4" stroke-linejoin="round"/>
<rect x="804.865" y="38.6299" width="84.1237" height="34.7532" rx="17.3766" transform="rotate(90 804.865 38.6299)" fill="#E55B42" stroke="#29193E" stroke-width="4" stroke-linejoin="round"/>
<rect x="804.865" y="85.8767" width="36.8767" height="34.7532" rx="17.3766" transform="rotate(90 804.865 85.8767)" fill="#F98548" stroke="#29193E" stroke-width="4" stroke-linejoin="round"/>
<rect x="-2" y="-2" width="120.753" height="34.7532" rx="17.3766" transform="matrix(4.37114e-08 -1 -1 -4.37114e-08 769.42 120.753)" fill="#29193E" stroke="#29193E" stroke-width="4" stroke-linejoin="round"/>
<rect x="-2" y="-2" width="84.1237" height="34.7532" rx="17.3766" transform="matrix(4.37114e-08 -1 -1 -4.37114e-08 769.42 84.1238)" fill="#F98548" stroke="#29193E" stroke-width="4" stroke-linejoin="round"/>
<rect x="-2" y="-2" width="36.8767" height="34.7532" rx="17.3766" transform="matrix(4.37114e-08 -1 -1 -4.37114e-08 769.42 36.8767)" fill="#E55B42" stroke="#29193E" stroke-width="4" stroke-linejoin="round"/>
<rect x="737.975" y="2" width="120.753" height="34.7532" rx="17.3766" transform="rotate(90 737.975 2)" fill="#29193E" stroke="#29193E" stroke-width="4" stroke-linejoin="round"/>
<rect x="737.976" y="38.6296" width="84.1237" height="34.7532" rx="17.3766" transform="rotate(90 737.976 38.6296)" fill="#E55B42" stroke="#29193E" stroke-width="4" stroke-linejoin="round"/>
<rect x="737.976" y="85.8767" width="36.8767" height="34.7532" rx="17.3766" transform="rotate(90 737.976 85.8767)" fill="#F98548" stroke="#29193E" stroke-width="4" stroke-linejoin="round"/>
<rect x="-2" y="-2" width="120.753" height="34.7532" rx="17.3766" transform="matrix(4.37114e-08 -1 -1 -4.37114e-08 702.531 120.753)" fill="#29193E" stroke="#29193E" stroke-width="4" stroke-linejoin="round"/>
<rect x="-2" y="-2" width="84.1237" height="34.7532" rx="17.3766" transform="matrix(4.37114e-08 -1 -1 -4.37114e-08 702.531 84.1238)" fill="#F98548" stroke="#29193E" stroke-width="4" stroke-linejoin="round"/>
<rect x="-2" y="-2" width="36.8767" height="34.7532" rx="17.3766" transform="matrix(4.37114e-08 -1 -1 -4.37114e-08 702.531 36.8767)" fill="#E55B42" stroke="#29193E" stroke-width="4" stroke-linejoin="round"/>
<rect x="671.087" y="2" width="120.753" height="34.7532" rx="17.3766" transform="rotate(90 671.087 2)" fill="#29193E" stroke="#29193E" stroke-width="4" stroke-linejoin="round"/>
<rect x="671.086" y="38.6296" width="84.1237" height="34.7532" rx="17.3766" transform="rotate(90 671.086 38.6296)" fill="#E55B42" stroke="#29193E" stroke-width="4" stroke-linejoin="round"/>
<rect x="671.086" y="85.8765" width="36.8767" height="34.7532" rx="17.3766" transform="rotate(90 671.086 85.8765)" fill="#F98548" stroke="#29193E" stroke-width="4" stroke-linejoin="round"/>
<rect x="-2" y="-2" width="120.753" height="34.7532" rx="17.3766" transform="matrix(4.37114e-08 -1 -1 -4.37114e-08 635.642 120.753)" fill="#29193E" stroke="#29193E" stroke-width="4" stroke-linejoin="round"/>
<rect x="-2" y="-2" width="84.1237" height="34.7532" rx="17.3766" transform="matrix(4.37114e-08 -1 -1 -4.37114e-08 635.642 84.1238)" fill="#F98548" stroke="#29193E" stroke-width="4" stroke-linejoin="round"/>
<rect x="-2" y="-2" width="36.8767" height="34.7532" rx="17.3766" transform="matrix(4.37114e-08 -1 -1 -4.37114e-08 635.642 36.8767)" fill="#E55B42" stroke="#29193E" stroke-width="4" stroke-linejoin="round"/>
<rect x="604.198" y="2" width="120.753" height="34.7532" rx="17.3766" transform="rotate(90 604.198 2)" fill="#29193E" stroke="#29193E" stroke-width="4" stroke-linejoin="round"/>
<rect x="604.198" y="38.6294" width="84.1237" height="34.7532" rx="17.3766" transform="rotate(90 604.198 38.6294)" fill="#E55B42" stroke="#29193E" stroke-width="4" stroke-linejoin="round"/>
<rect x="604.198" y="85.8765" width="36.8767" height="34.7532" rx="17.3766" transform="rotate(90 604.198 85.8765)" fill="#F98548" stroke="#29193E" stroke-width="4" stroke-linejoin="round"/>
<rect x="-2" y="-2" width="120.753" height="34.7532" rx="17.3766" transform="matrix(4.37114e-08 -1 -1 -4.37114e-08 568.753 120.753)" fill="#29193E" stroke="#29193E" stroke-width="4" stroke-linejoin="round"/>
<rect x="-2" y="-2" width="84.1237" height="34.7532" rx="17.3766" transform="matrix(4.37114e-08 -1 -1 -4.37114e-08 568.753 84.1238)" fill="#F98548" stroke="#29193E" stroke-width="4" stroke-linejoin="round"/>
<rect x="-2" y="-2" width="36.8767" height="34.7532" rx="17.3766" transform="matrix(4.37114e-08 -1 -1 -4.37114e-08 568.753 36.8767)" fill="#E55B42" stroke="#29193E" stroke-width="4" stroke-linejoin="round"/>
<rect x="-2" y="-2" width="120.753" height="34.7532" rx="17.3766" transform="matrix(4.37114e-08 -1 -1 -4.37114e-08 1443.2 120.753)" fill="#29193E" stroke="#29193E" stroke-width="4" stroke-linejoin="round"/>
<rect x="-2" y="-2" width="84.1237" height="34.7532" rx="17.3766" transform="matrix(4.37114e-08 -1 -1 -4.37114e-08 1443.2 84.1238)" fill="#F98548" stroke="#29193E" stroke-width="4" stroke-linejoin="round"/>
<rect x="-2" y="-2" width="36.8767" height="34.7532" rx="17.3766" transform="matrix(4.37114e-08 -1 -1 -4.37114e-08 1443.2 36.8767)" fill="#E55B42" stroke="#29193E" stroke-width="4" stroke-linejoin="round"/>
<rect x="1411.75" y="2" width="120.753" height="34.7532" rx="17.3766" transform="rotate(90 1411.75 2)" fill="#29193E" stroke="#29193E" stroke-width="4" stroke-linejoin="round"/>
<rect x="1411.75" y="38.6299" width="84.1237" height="34.7532" rx="17.3766" transform="rotate(90 1411.75 38.6299)" fill="#E55B42" stroke="#29193E" stroke-width="4" stroke-linejoin="round"/>
<rect x="1411.75" y="85.8767" width="36.8767" height="34.7532" rx="17.3766" transform="rotate(90 1411.75 85.8767)" fill="#F98548" stroke="#29193E" stroke-width="4" stroke-linejoin="round"/>
<rect x="-2" y="-2" width="120.753" height="34.7532" rx="17.3766" transform="matrix(4.37114e-08 -1 -1 -4.37114e-08 1376.31 120.753)" fill="#29193E" stroke="#29193E" stroke-width="4" stroke-linejoin="round"/>
<rect x="-2" y="-2" width="84.1237" height="34.7532" rx="17.3766" transform="matrix(4.37114e-08 -1 -1 -4.37114e-08 1376.31 84.1238)" fill="#F98548" stroke="#29193E" stroke-width="4" stroke-linejoin="round"/>
<rect x="-2" y="-2" width="36.8767" height="34.7532" rx="17.3766" transform="matrix(4.37114e-08 -1 -1 -4.37114e-08 1376.31 36.8767)" fill="#E55B42" stroke="#29193E" stroke-width="4" stroke-linejoin="round"/>
<rect x="1344.86" y="2" width="120.753" height="34.7532" rx="17.3766" transform="rotate(90 1344.86 2)" fill="#29193E" stroke="#29193E" stroke-width="4" stroke-linejoin="round"/>
<rect x="1344.86" y="38.6299" width="84.1237" height="34.7532" rx="17.3766" transform="rotate(90 1344.86 38.6299)" fill="#E55B42" stroke="#29193E" stroke-width="4" stroke-linejoin="round"/>
<rect x="1344.86" y="85.8767" width="36.8767" height="34.7532" rx="17.3766" transform="rotate(90 1344.86 85.8767)" fill="#F98548" stroke="#29193E" stroke-width="4" stroke-linejoin="round"/>
<rect x="-2" y="-2" width="120.753" height="34.7532" rx="17.3766" transform="matrix(4.37114e-08 -1 -1 -4.37114e-08 1309.42 120.753)" fill="#29193E" stroke="#29193E" stroke-width="4" stroke-linejoin="round"/>
<rect x="-2" y="-2" width="84.1237" height="34.7532" rx="17.3766" transform="matrix(4.37114e-08 -1 -1 -4.37114e-08 1309.42 84.1238)" fill="#F98548" stroke="#29193E" stroke-width="4" stroke-linejoin="round"/>
<rect x="-2" y="-2" width="36.8767" height="34.7532" rx="17.3766" transform="matrix(4.37114e-08 -1 -1 -4.37114e-08 1309.42 36.8767)" fill="#E55B42" stroke="#29193E" stroke-width="4" stroke-linejoin="round"/>
<rect x="1277.98" y="2" width="120.753" height="34.7532" rx="17.3766" transform="rotate(90 1277.98 2)" fill="#29193E" stroke="#29193E" stroke-width="4" stroke-linejoin="round"/>
<rect x="1277.98" y="38.6296" width="84.1237" height="34.7532" rx="17.3766" transform="rotate(90 1277.98 38.6296)" fill="#E55B42" stroke="#29193E" stroke-width="4" stroke-linejoin="round"/>
<rect x="1277.98" y="85.8767" width="36.8767" height="34.7532" rx="17.3766" transform="rotate(90 1277.98 85.8767)" fill="#F98548" stroke="#29193E" stroke-width="4" stroke-linejoin="round"/>
<rect x="-2" y="-2" width="120.753" height="34.7532" rx="17.3766" transform="matrix(4.37114e-08 -1 -1 -4.37114e-08 1242.53 120.753)" fill="#29193E" stroke="#29193E" stroke-width="4" stroke-linejoin="round"/>
<rect x="-2" y="-2" width="84.1237" height="34.7532" rx="17.3766" transform="matrix(4.37114e-08 -1 -1 -4.37114e-08 1242.53 84.1238)" fill="#F98548" stroke="#29193E" stroke-width="4" stroke-linejoin="round"/>
<rect x="-2" y="-2" width="36.8767" height="34.7532" rx="17.3766" transform="matrix(4.37114e-08 -1 -1 -4.37114e-08 1242.53 36.8767)" fill="#E55B42" stroke="#29193E" stroke-width="4" stroke-linejoin="round"/>
<rect x="1211.09" y="2" width="120.753" height="34.7532" rx="17.3766" transform="rotate(90 1211.09 2)" fill="#29193E" stroke="#29193E" stroke-width="4" stroke-linejoin="round"/>
<rect x="1211.09" y="38.6296" width="84.1237" height="34.7532" rx="17.3766" transform="rotate(90 1211.09 38.6296)" fill="#E55B42" stroke="#29193E" stroke-width="4" stroke-linejoin="round"/>
<rect x="1211.09" y="85.8765" width="36.8767" height="34.7532" rx="17.3766" transform="rotate(90 1211.09 85.8765)" fill="#F98548" stroke="#29193E" stroke-width="4" stroke-linejoin="round"/>
<rect x="-2" y="-2" width="120.753" height="34.7532" rx="17.3766" transform="matrix(4.37114e-08 -1 -1 -4.37114e-08 1175.64 120.753)" fill="#29193E" stroke="#29193E" stroke-width="4" stroke-linejoin="round"/>
<rect x="-2" y="-2" width="84.1237" height="34.7532" rx="17.3766" transform="matrix(4.37114e-08 -1 -1 -4.37114e-08 1175.64 84.1238)" fill="#F98548" stroke="#29193E" stroke-width="4" stroke-linejoin="round"/>
<rect x="-2" y="-2" width="36.8767" height="34.7532" rx="17.3766" transform="matrix(4.37114e-08 -1 -1 -4.37114e-08 1175.64 36.8767)" fill="#E55B42" stroke="#29193E" stroke-width="4" stroke-linejoin="round"/>
<rect x="1144.2" y="2" width="120.753" height="34.7532" rx="17.3766" transform="rotate(90 1144.2 2)" fill="#29193E" stroke="#29193E" stroke-width="4" stroke-linejoin="round"/>
<rect x="1144.2" y="38.6294" width="84.1237" height="34.7532" rx="17.3766" transform="rotate(90 1144.2 38.6294)" fill="#E55B42" stroke="#29193E" stroke-width="4" stroke-linejoin="round"/>
<rect x="1144.2" y="85.8765" width="36.8767" height="34.7532" rx="17.3766" transform="rotate(90 1144.2 85.8765)" fill="#F98548" stroke="#29193E" stroke-width="4" stroke-linejoin="round"/>
<rect x="-2" y="-2" width="120.753" height="34.7532" rx="17.3766" transform="matrix(4.37114e-08 -1 -1 -4.37114e-08 1108.75 120.753)" fill="#29193E" stroke="#29193E" stroke-width="4" stroke-linejoin="round"/>
<rect x="-2" y="-2" width="84.1237" height="34.7532" rx="17.3766" transform="matrix(4.37114e-08 -1 -1 -4.37114e-08 1108.75 84.1238)" fill="#F98548" stroke="#29193E" stroke-width="4" stroke-linejoin="round"/>
<rect x="-2" y="-2" width="36.8767" height="34.7532" rx="17.3766" transform="matrix(4.37114e-08 -1 -1 -4.37114e-08 1108.75 36.8767)" fill="#E55B42" stroke="#29193E" stroke-width="4" stroke-linejoin="round"/>
</svg>
