<svg width="418" height="92" viewBox="0 0 418 92" fill="none" xmlns="http://www.w3.org/2000/svg">
<g clip-path="url(#clip0)">
<rect x="416.214" y="2" width="87.6141" height="25.9898" rx="12.9949" transform="rotate(90 416.214 2)" fill="#E55B42" stroke="#FCFCFC" stroke-width="4" stroke-linejoin="round"/>
<rect x="416.214" y="28.8994" width="60.7146" height="25.9898" rx="12.9949" transform="rotate(90 416.214 28.8994)" fill="#FCFCFC" stroke="#FCFCFC" stroke-width="4" stroke-linejoin="round"/>
<rect x="416.214" y="63.5959" width="26.0182" height="25.9898" rx="12.9949" transform="rotate(90 416.214 63.5959)" fill="#F98548" stroke="#FCFCFC" stroke-width="4" stroke-linejoin="round"/>
<rect x="-2" y="-2" width="87.6141" height="25.9898" rx="12.9949" transform="matrix(4.37114e-08 -1 -1 -4.37114e-08 388.332 87.6144)" fill="#E55B42" stroke="#FCFCFC" stroke-width="4" stroke-linejoin="round"/>
<rect x="-2" y="-2" width="60.7146" height="25.9898" rx="12.9949" transform="matrix(4.37114e-08 -1 -1 -4.37114e-08 388.332 60.715)" fill="#F98548" stroke="#FCFCFC" stroke-width="4" stroke-linejoin="round"/>
<rect x="-2" y="-2" width="26.0182" height="25.9898" rx="12.9949" transform="matrix(4.37114e-08 -1 -1 -4.37114e-08 388.332 26.0186)" fill="#FCFCFC" stroke="#FCFCFC" stroke-width="4" stroke-linejoin="round"/>
<rect x="364.451" y="2" width="87.6141" height="25.9898" rx="12.9949" transform="rotate(90 364.451 2)" fill="#E55B42" stroke="#FCFCFC" stroke-width="4" stroke-linejoin="round"/>
<rect x="364.451" y="28.8994" width="60.7146" height="25.9898" rx="12.9949" transform="rotate(90 364.451 28.8994)" fill="#FCFCFC" stroke="#FCFCFC" stroke-width="4" stroke-linejoin="round"/>
<rect x="364.451" y="63.5959" width="26.0182" height="25.9898" rx="12.9949" transform="rotate(90 364.451 63.5959)" fill="#F98548" stroke="#FCFCFC" stroke-width="4" stroke-linejoin="round"/>
<rect x="-2" y="-2" width="87.6141" height="25.9898" rx="12.9949" transform="matrix(4.37114e-08 -1 -1 -4.37114e-08 336.569 87.6144)" fill="#E55B42" stroke="#FCFCFC" stroke-width="4" stroke-linejoin="round"/>
<rect x="-2" y="-2" width="60.7146" height="25.9898" rx="12.9949" transform="matrix(4.37114e-08 -1 -1 -4.37114e-08 336.569 60.715)" fill="#F98548" stroke="#FCFCFC" stroke-width="4" stroke-linejoin="round"/>
<rect x="-2" y="-2" width="26.0182" height="25.9898" rx="12.9949" transform="matrix(4.37114e-08 -1 -1 -4.37114e-08 336.569 26.0186)" fill="#FCFCFC" stroke="#FCFCFC" stroke-width="4" stroke-linejoin="round"/>
<rect x="312.688" y="2" width="87.6141" height="25.9898" rx="12.9949" transform="rotate(90 312.688 2)" fill="#E55B42" stroke="#FCFCFC" stroke-width="4" stroke-linejoin="round"/>
<rect x="312.688" y="28.8994" width="60.7146" height="25.9898" rx="12.9949" transform="rotate(90 312.688 28.8994)" fill="#FCFCFC" stroke="#FCFCFC" stroke-width="4" stroke-linejoin="round"/>
<rect x="312.688" y="63.5959" width="26.0182" height="25.9898" rx="12.9949" transform="rotate(90 312.688 63.5959)" fill="#F98548" stroke="#FCFCFC" stroke-width="4" stroke-linejoin="round"/>
<rect x="-2" y="-2" width="87.6141" height="25.9898" rx="12.9949" transform="matrix(4.37114e-08 -1 -1 -4.37114e-08 284.806 87.6144)" fill="#E55B42" stroke="#FCFCFC" stroke-width="4" stroke-linejoin="round"/>
<rect x="-2" y="-2" width="60.7146" height="25.9898" rx="12.9949" transform="matrix(4.37114e-08 -1 -1 -4.37114e-08 284.806 60.715)" fill="#F98548" stroke="#FCFCFC" stroke-width="4" stroke-linejoin="round"/>
<rect x="-2" y="-2" width="26.0182" height="25.9898" rx="12.9949" transform="matrix(4.37114e-08 -1 -1 -4.37114e-08 284.806 26.0186)" fill="#FCFCFC" stroke="#FCFCFC" stroke-width="4" stroke-linejoin="round"/>
<rect x="260.924" y="2" width="87.6141" height="25.9898" rx="12.9949" transform="rotate(90 260.924 2)" fill="#E55B42" stroke="#FCFCFC" stroke-width="4" stroke-linejoin="round"/>
<rect x="260.924" y="28.8994" width="60.7146" height="25.9898" rx="12.9949" transform="rotate(90 260.924 28.8994)" fill="#FCFCFC" stroke="#FCFCFC" stroke-width="4" stroke-linejoin="round"/>
<rect x="260.924" y="63.5959" width="26.0182" height="25.9898" rx="12.9949" transform="rotate(90 260.924 63.5959)" fill="#F98548" stroke="#FCFCFC" stroke-width="4" stroke-linejoin="round"/>
<rect x="-2" y="-2" width="87.6141" height="25.9898" rx="12.9949" transform="matrix(4.37114e-08 -1 -1 -4.37114e-08 233.043 87.6144)" fill="#E55B42" stroke="#FCFCFC" stroke-width="4" stroke-linejoin="round"/>
<rect x="-2" y="-2" width="60.7146" height="25.9898" rx="12.9949" transform="matrix(4.37114e-08 -1 -1 -4.37114e-08 233.043 60.715)" fill="#F98548" stroke="#FCFCFC" stroke-width="4" stroke-linejoin="round"/>
<rect x="-2" y="-2" width="26.0182" height="25.9898" rx="12.9949" transform="matrix(4.37114e-08 -1 -1 -4.37114e-08 233.043 26.0186)" fill="#FCFCFC" stroke="#FCFCFC" stroke-width="4" stroke-linejoin="round"/>
<rect x="209.161" y="2" width="87.6141" height="25.9898" rx="12.9949" transform="rotate(90 209.161 2)" fill="#E55B42" stroke="#FCFCFC" stroke-width="4" stroke-linejoin="round"/>
<rect x="209.161" y="28.8994" width="60.7146" height="25.9898" rx="12.9949" transform="rotate(90 209.161 28.8994)" fill="#FCFCFC" stroke="#FCFCFC" stroke-width="4" stroke-linejoin="round"/>
<rect x="209.161" y="63.5959" width="26.0182" height="25.9898" rx="12.9949" transform="rotate(90 209.161 63.5959)" fill="#F98548" stroke="#FCFCFC" stroke-width="4" stroke-linejoin="round"/>
<rect x="-2" y="-2" width="87.6141" height="25.9898" rx="12.9949" transform="matrix(4.37114e-08 -1 -1 -4.37114e-08 181.28 87.6144)" fill="#E55B42" stroke="#FCFCFC" stroke-width="4" stroke-linejoin="round"/>
<rect x="-2" y="-2" width="60.7146" height="25.9898" rx="12.9949" transform="matrix(4.37114e-08 -1 -1 -4.37114e-08 181.28 60.715)" fill="#F98548" stroke="#FCFCFC" stroke-width="4" stroke-linejoin="round"/>
<rect x="-2" y="-2" width="26.0182" height="25.9898" rx="12.9949" transform="matrix(4.37114e-08 -1 -1 -4.37114e-08 181.28 26.0186)" fill="#FCFCFC" stroke="#FCFCFC" stroke-width="4" stroke-linejoin="round"/>
<rect x="157.398" y="2" width="87.6141" height="25.9898" rx="12.9949" transform="rotate(90 157.398 2)" fill="#E55B42" stroke="#FCFCFC" stroke-width="4" stroke-linejoin="round"/>
<rect x="157.398" y="28.8994" width="60.7146" height="25.9898" rx="12.9949" transform="rotate(90 157.398 28.8994)" fill="#FCFCFC" stroke="#FCFCFC" stroke-width="4" stroke-linejoin="round"/>
<rect x="157.398" y="63.5959" width="26.0182" height="25.9898" rx="12.9949" transform="rotate(90 157.398 63.5959)" fill="#F98548" stroke="#FCFCFC" stroke-width="4" stroke-linejoin="round"/>
<rect x="-2" y="-2" width="87.6141" height="25.9898" rx="12.9949" transform="matrix(4.37114e-08 -1 -1 -4.37114e-08 129.516 87.6144)" fill="#E55B42" stroke="#FCFCFC" stroke-width="4" stroke-linejoin="round"/>
<rect x="-2" y="-2" width="60.7146" height="25.9898" rx="12.9949" transform="matrix(4.37114e-08 -1 -1 -4.37114e-08 129.516 60.715)" fill="#F98548" stroke="#FCFCFC" stroke-width="4" stroke-linejoin="round"/>
<rect x="-2" y="-2" width="26.0182" height="25.9898" rx="12.9949" transform="matrix(4.37114e-08 -1 -1 -4.37114e-08 129.516 26.0186)" fill="#FCFCFC" stroke="#FCFCFC" stroke-width="4" stroke-linejoin="round"/>
<rect x="105.635" y="2" width="87.6141" height="25.9898" rx="12.9949" transform="rotate(90 105.635 2)" fill="#E55B42" stroke="#FCFCFC" stroke-width="4" stroke-linejoin="round"/>
<rect x="105.635" y="28.8994" width="60.7146" height="25.9898" rx="12.9949" transform="rotate(90 105.635 28.8994)" fill="#FCFCFC" stroke="#FCFCFC" stroke-width="4" stroke-linejoin="round"/>
<rect x="105.635" y="63.5959" width="26.0182" height="25.9898" rx="12.9949" transform="rotate(90 105.635 63.5959)" fill="#F98548" stroke="#FCFCFC" stroke-width="4" stroke-linejoin="round"/>
<rect x="-2" y="-2" width="87.6141" height="25.9898" rx="12.9949" transform="matrix(4.37114e-08 -1 -1 -4.37114e-08 77.7531 87.6144)" fill="#E55B42" stroke="#FCFCFC" stroke-width="4" stroke-linejoin="round"/>
<rect x="-2" y="-2" width="60.7146" height="25.9898" rx="12.9949" transform="matrix(4.37114e-08 -1 -1 -4.37114e-08 77.7531 60.715)" fill="#F98548" stroke="#FCFCFC" stroke-width="4" stroke-linejoin="round"/>
<rect x="-2" y="-2" width="26.0182" height="25.9898" rx="12.9949" transform="matrix(4.37114e-08 -1 -1 -4.37114e-08 77.7531 26.0186)" fill="#FCFCFC" stroke="#FCFCFC" stroke-width="4" stroke-linejoin="round"/>
<rect x="53.8713" y="2" width="87.6141" height="25.9898" rx="12.9949" transform="rotate(90 53.8713 2)" fill="#E55B42" stroke="#FCFCFC" stroke-width="4" stroke-linejoin="round"/>
<rect x="53.8713" y="28.8994" width="60.7146" height="25.9898" rx="12.9949" transform="rotate(90 53.8713 28.8994)" fill="#FCFCFC" stroke="#FCFCFC" stroke-width="4" stroke-linejoin="round"/>
<rect x="53.8713" y="63.5959" width="26.0182" height="25.9898" rx="12.9949" transform="rotate(90 53.8713 63.5959)" fill="#F98548" stroke="#FCFCFC" stroke-width="4" stroke-linejoin="round"/>
<rect x="-2" y="-2" width="87.6141" height="25.9898" rx="12.9949" transform="matrix(4.37114e-08 -1 -1 -4.37114e-08 25.9899 87.6144)" fill="#E55B42" stroke="#FCFCFC" stroke-width="4" stroke-linejoin="round"/>
<rect x="-2" y="-2" width="60.7146" height="25.9898" rx="12.9949" transform="matrix(4.37114e-08 -1 -1 -4.37114e-08 25.9899 60.715)" fill="#F98548" stroke="#FCFCFC" stroke-width="4" stroke-linejoin="round"/>
<rect x="-2" y="-2" width="26.0182" height="25.9898" rx="12.9949" transform="matrix(4.37114e-08 -1 -1 -4.37114e-08 25.9899 26.0186)" fill="#FCFCFC" stroke="#FCFCFC" stroke-width="4" stroke-linejoin="round"/>
</g>
<defs>
<clipPath id="clip0">
<rect width="418" height="92" fill="white"/>
</clipPath>
</defs>
</svg>
