<svg width="98" height="97" viewBox="0 0 98 97" fill="none" xmlns="http://www.w3.org/2000/svg">
<path d="M75.3939 50.8072C75.1116 51.7521 74.2384 52.6298 72.5664 53.3122C70.9051 53.9901 68.6058 54.4069 65.794 54.5134C60.1808 54.726 52.755 53.6949 44.8678 51.3388C36.9806 48.9827 30.206 45.7718 25.6292 42.5151C23.3365 40.8838 21.6426 39.2742 20.6253 37.7961C19.6015 36.3084 19.3529 35.0955 19.6352 34.1506C19.9174 33.2057 20.7906 32.3279 22.4626 31.6456C24.124 30.9676 26.4232 30.5509 29.235 30.4444C34.8482 30.2317 42.274 31.2629 50.1612 33.619C58.0484 35.9751 64.823 39.186 69.3998 42.4426C71.6925 44.074 73.3864 45.6836 74.4037 47.1617C75.4275 48.6493 75.6761 49.8623 75.3939 50.8072Z" fill="#FCFCFC" stroke="black" stroke-width="2" stroke-linejoin="round"/>
<path d="M71.0929 49.4175C71.0084 49.6919 70.6081 50.1441 69.2901 50.4718C68.0418 50.7821 66.2682 50.8987 64.0621 50.7903C59.6656 50.5742 53.7815 49.4776 47.4682 47.5336C41.1549 45.5897 35.673 43.1865 31.9164 40.8921C30.0315 39.7408 28.6307 38.6468 27.7732 37.688C26.8677 36.6757 26.7912 36.0767 26.8757 35.8023C26.9602 35.5279 27.3604 35.0757 28.6784 34.748C29.9267 34.4376 31.7003 34.3211 33.9064 34.4295C38.3029 34.6455 44.1871 35.7422 50.5004 37.6862C56.8137 39.6301 62.2955 42.0333 66.0521 44.3277C67.9371 45.479 69.3379 46.573 70.1954 47.5318C71.1008 48.5441 71.1774 49.1431 71.0929 49.4175Z" fill="#FCFCFC" stroke="black" stroke-width="2" stroke-linejoin="round"/>
<path d="M19.5 34.5C-2.39683 81.6899 62.8691 104.847 75 52C62.3323 61.4209 19.9453 46.3489 19.5 34.5Z" fill="#FCFCFC" stroke="black" stroke-width="2" stroke-linejoin="round"/>
<path d="M58.1939 78.2378C76.0074 87.5477 86.8403 59.0525 74.843 55.5482C74.3692 57.5132 72.9871 61.2161 71.8518 63.3885C74.8735 66.074 71.8986 72.1247 66.6456 71.5919C63.2537 75.6071 60.6165 76.9184 58.1939 78.2378Z" fill="#FCFCFC" stroke="black" stroke-width="2" stroke-linejoin="round"/>
<mask id="mask0" mask-type="alpha" maskUnits="userSpaceOnUse" x="26" y="30" width="47" height="25">
<path d="M69.6495 48.6389C69.6052 48.7828 69.3223 49.1662 68.0983 49.4381C66.9622 49.6906 65.3375 49.7675 63.3076 49.6404C59.2638 49.3873 53.8381 48.3406 48.0045 46.5443C42.171 44.7481 37.0963 42.5615 33.6105 40.4962C31.8607 39.4594 30.5606 38.4819 29.7633 37.6341C28.9043 36.7208 28.8861 36.2447 28.9304 36.1008C28.9747 35.9569 29.2576 35.5736 30.4815 35.3016C31.6176 35.0492 33.2423 34.9723 35.2723 35.0994C39.3161 35.3525 44.7418 36.3992 50.5753 38.1954C56.4089 39.9917 61.4836 42.1782 64.9693 44.2436C66.7192 45.2804 68.0192 46.2579 68.8166 47.1056C69.6755 48.019 69.6938 48.495 69.6495 48.6389Z" fill="#FDFFFF" stroke="#29193E" stroke-width="2" stroke-linejoin="round"/>
</mask>
<g mask="url(#mask0)">
<path d="M47.7047 42.2133C37.2743 41.2517 33.911 39.1505 26.8083 36.0968L27.1628 47.4924L70.7824 62.8155L73.1068 50.6847C65.0779 46.3246 61.8165 43.1899 47.7047 42.2133Z" fill="#E55B42" stroke="#E55B42" stroke-width="2" stroke-linejoin="round"/>
</g>
<path d="M34.8208 71.7482C34.4606 72.559 33.5467 72.8979 32.8033 72.5676C32.0599 72.2372 31.6989 71.3319 32.0591 70.5212C32.1499 70.3167 32.2258 70.2541 32.2475 70.2387C32.2625 70.228 32.2918 70.2093 32.3807 70.2069C32.6286 70.2001 33.0243 70.3189 33.6741 70.6076C34.324 70.8963 34.6773 71.1104 34.8385 71.2989C34.8962 71.3665 34.902 71.4008 34.9041 71.419C34.9072 71.4454 34.9116 71.5438 34.8208 71.7482Z" fill="black" stroke="black" stroke-width="2" stroke-linejoin="round"/>
<path d="M45.7704 13.803C45.7704 13.803 53.8313 20.6056 42.7044 27.0784C31.5775 33.5512 40.0455 39.5747 40.0455 39.5747" stroke="black" stroke-width="2" stroke-linecap="round" stroke-linejoin="round"/>
<path d="M64.5905 15.8948C64.5905 15.8948 72.6514 22.6974 61.5245 29.1702C50.3976 35.643 58.8657 41.6665 58.8657 41.6665" stroke="black" stroke-width="2" stroke-linecap="round" stroke-linejoin="round"/>
<path d="M54.9534 15.2833C54.9534 15.2833 63.0143 22.086 51.8874 28.5587C40.7605 35.0315 49.2285 41.0551 49.2285 41.0551" stroke="black" stroke-width="2" stroke-linecap="round" stroke-linejoin="round"/>
<path d="M31.1901 57.1778C30.956 59.5192 30.0549 61.5282 28.8361 62.8893C27.6167 64.2509 26.1373 64.9136 24.6853 64.7655C23.2332 64.6173 21.9148 63.6692 20.9897 62.0889C20.065 60.5092 19.5798 58.3588 19.8139 56.0173C20.048 53.6759 20.9492 51.6669 22.168 50.3059C23.3873 48.9443 24.8667 48.2816 26.3188 48.4297C27.7709 48.5778 29.0892 49.5259 30.0143 51.1063C30.9391 52.686 31.4243 54.8364 31.1901 57.1778Z" fill="white" stroke="black" stroke-width="2" stroke-linejoin="round"/>
<mask id="path-12-inside-1" fill="white">
<path d="M23.6565 57.8266C23.7095 59.2024 24.1255 60.4465 24.8206 61.3086C25.5157 62.1708 26.4385 62.587 27.4032 62.4735C28.368 62.3601 29.303 61.7254 30.0203 60.6971C30.7376 59.6688 31.1839 58.3233 31.2694 56.9312C31.3548 55.5392 31.0731 54.204 30.481 53.1942C29.8888 52.1844 29.0301 51.575 28.0776 51.4886C27.1252 51.4022 26.1497 51.8453 25.3474 52.7286C24.545 53.6119 23.9755 54.8699 23.7533 56.2496L27.4675 56.9849L23.6565 57.8266Z"/>
</mask>
<path d="M23.6565 57.8266C23.7095 59.2024 24.1255 60.4465 24.8206 61.3086C25.5157 62.1708 26.4385 62.587 27.4032 62.4735C28.368 62.3601 29.303 61.7254 30.0203 60.6971C30.7376 59.6688 31.1839 58.3233 31.2694 56.9312C31.3548 55.5392 31.0731 54.204 30.481 53.1942C29.8888 52.1844 29.0301 51.575 28.0776 51.4886C27.1252 51.4022 26.1497 51.8453 25.3474 52.7286C24.545 53.6119 23.9755 54.8699 23.7533 56.2496L27.4675 56.9849L23.6565 57.8266Z" fill="black" stroke="black" stroke-width="4" stroke-linejoin="round" mask="url(#path-12-inside-1)"/>
<path d="M50.8006 64.1078C50.5665 66.4492 49.6653 68.4582 48.4465 69.8192C47.2272 71.1808 45.7478 71.8435 44.2957 71.6954C42.8436 71.5473 41.5253 70.5992 40.6002 69.0188C39.6754 67.4392 39.1902 65.2887 39.4244 62.9473C39.6585 60.6059 40.5596 58.5969 41.7784 57.2359C42.9978 55.8742 44.4772 55.2115 45.9293 55.3597C47.3813 55.5078 48.6997 56.4559 49.6248 58.0362C50.5495 59.6159 51.0347 61.7663 50.8006 64.1078Z" fill="white" stroke="black" stroke-width="2" stroke-linejoin="round"/>
<mask id="path-14-inside-2" fill="white">
<path d="M43.2669 64.7566C43.3199 66.1323 43.7359 67.3765 44.431 68.2386C45.1262 69.1008 46.0489 69.517 47.0137 69.4035C47.9784 69.29 48.9135 68.6553 49.6307 67.627C50.348 66.5987 50.7943 65.2532 50.8798 63.8612C50.9652 62.4692 50.6835 61.1339 50.0914 60.1241C49.4992 59.1144 48.6405 58.505 47.6881 58.4186C46.7356 58.3322 45.7601 58.7752 44.9578 59.6585C44.1555 60.5419 43.5859 61.7999 43.3637 63.1795L47.0779 63.9149L43.2669 64.7566Z"/>
</mask>
<path d="M43.2669 64.7566C43.3199 66.1323 43.7359 67.3765 44.431 68.2386C45.1262 69.1008 46.0489 69.517 47.0137 69.4035C47.9784 69.29 48.9135 68.6553 49.6307 67.627C50.348 66.5987 50.7943 65.2532 50.8798 63.8612C50.9652 62.4692 50.6835 61.1339 50.0914 60.1241C49.4992 59.1144 48.6405 58.505 47.6881 58.4186C46.7356 58.3322 45.7601 58.7752 44.9578 59.6585C44.1555 60.5419 43.5859 61.7999 43.3637 63.1795L47.0779 63.9149L43.2669 64.7566Z" fill="black" stroke="black" stroke-width="4" stroke-linejoin="round" mask="url(#path-14-inside-2)"/>
</svg>
