<svg width="323" height="330" viewBox="0 0 323 330" fill="none" xmlns="http://www.w3.org/2000/svg">
<mask id="mask0" mask-type="alpha" maskUnits="userSpaceOnUse" x="44" y="30" width="255" height="224">
<path d="M56.9189 184.166L57.1654 185.722L58.7175 185.622L132.526 180.91L134.095 180.81L134.131 179.218L134.422 166.369L134.464 164.493L132.615 164.597L80.9022 167.505C83.9244 159.762 83.2964 153.057 80.9188 147.76C78.4662 142.297 74.1996 138.431 70.4097 136.449C65.7088 133.99 61.6349 133.447 58.1507 134.248C54.7053 135.04 52.0641 137.094 50.0943 139.42C47.2615 142.384 46.403 146.402 46.5454 150.573C46.6884 154.762 47.845 159.345 49.2987 163.722C50.6342 167.743 52.2568 171.692 53.6584 175.104C53.7865 175.416 53.9128 175.723 54.0368 176.026C55.5631 179.748 56.6611 182.54 56.9189 184.166Z" fill="#D7BEAA" stroke="black" stroke-width="3.44887"/>
<path d="M137.422 166.096L136.963 178.937L130.107 179.307L130.566 166.466L137.422 166.096Z" fill="#D7BEAA"/>
<path d="M227.46 200.34C211.673 219.243 192.14 227.452 171.196 228.982L105.045 192.843C99.0597 181.454 88.9285 152.677 96.2862 128.678C111.295 85.7999 144.695 71.676 159.518 69.9739C161.48 69.7487 162.714 70.4539 165.063 67.3819C167.395 64.3321 172.447 56.1391 173.664 53.3445C174.727 50.1784 175.445 47.2557 171.899 42.4359C168.599 37.7507 169.397 34.5836 172.759 32.8171C175.716 31.5497 178.731 33.1969 185.459 36.8725C192.116 39.7023 238.605 66.9153 261.017 80.168L256.408 88.6039C299.764 107.966 301.097 148.184 288.186 169.379C285.201 174.762 276.557 190.669 260.981 206.258C245.703 221.548 236.275 204.435 241.611 194.667C242.998 191.966 248.283 183.381 258.327 170.651C269.932 153.065 272.554 147.291 266.244 132.026C264.866 127.238 249.277 115.551 241.715 115.743C255.56 143.052 247.71 176.092 227.46 200.34Z" fill="#D7BEAA" stroke="black" stroke-width="3.44887"/>
<path d="M267.817 132.021C266.438 127.232 250.849 115.545 243.287 115.737L161.09 69.968C163.052 69.7427 164.286 70.448 166.635 67.376C168.967 64.3262 174.02 56.1332 175.236 53.3385C176.299 50.1725 177.017 47.2497 173.471 42.43C170.171 37.7448 170.969 34.5777 174.331 32.8112C177.288 31.5438 180.303 33.191 187.031 36.8665C193.688 39.6963 240.177 66.9093 262.589 80.1621L257.98 88.5979C301.336 107.96 302.669 148.178 289.758 169.373C286.773 174.757 278.129 190.663 262.553 206.252C247.275 221.542 237.847 204.429 243.184 194.661C244.57 191.96 249.855 183.375 259.9 170.645C271.504 153.06 274.126 147.286 267.817 132.021Z" fill="black" stroke="black" stroke-width="3.44887"/>
<path d="M99.405 250.148L100.073 251.497L101.514 250.941L172.134 223.694L173.659 223.106L173.23 221.563L169.862 209.452L169.378 207.711L167.653 208.362L118.007 227.105C118.759 218.901 116.234 212.812 112.412 208.595C108.473 204.247 103.226 201.957 98.9821 201.278C93.7144 200.434 89.6004 201.184 86.4361 203.009C83.3025 204.816 81.3055 207.558 80.0412 210.354C78.1109 214.025 78.4212 218.067 79.7457 221.927C81.0766 225.805 83.5072 229.736 86.1672 233.379C88.6114 236.727 91.3153 239.92 93.6511 242.678C93.8646 242.93 94.075 243.179 94.2819 243.423C95.5254 244.894 96.6332 246.217 97.5308 247.374C98.442 248.549 99.0702 249.471 99.405 250.148Z" fill="#D7BEAA" stroke="black" stroke-width="3.44887"/>
<path d="M172.733 208.298L175.934 220.453L169.354 222.921L166.153 210.766L172.733 208.298Z" fill="#D7BEAA"/>
<path d="M241.714 115.743L158.231 70.1357C119.321 78.7126 102.818 110.628 96.808 127.234C132.704 146.844 210.921 190.296 227.987 199.619C253.018 168.182 252.312 136.81 241.714 115.743Z" fill="#FCFCFC" stroke="black" stroke-width="3.44887"/>
<rect x="221.153" y="126.216" width="13.5565" height="1.26481" rx="0.632406" transform="rotate(28.6481 221.153 126.216)" fill="black"/>
<rect x="221.153" y="126.216" width="13.5565" height="1.26481" rx="0.632406" transform="rotate(28.6481 221.153 126.216)" fill="black"/>
<rect x="219.78" y="135.554" width="13.5565" height="1.26481" rx="0.632406" transform="rotate(28.6481 219.78 135.554)" fill="black"/>
<rect x="219.78" y="135.554" width="13.5565" height="1.26481" rx="0.632406" transform="rotate(28.6481 219.78 135.554)" fill="black"/>
<rect x="218.36" y="144.003" width="13.5565" height="1.26481" rx="0.632406" transform="rotate(28.6481 218.36 144.003)" fill="black"/>
<rect x="218.36" y="144.003" width="13.5565" height="1.26481" rx="0.632406" transform="rotate(28.6481 218.36 144.003)" fill="black"/>
<rect x="216.167" y="152.893" width="13.5565" height="1.26481" rx="0.632406" transform="rotate(28.6481 216.167 152.893)" fill="black"/>
<rect x="216.167" y="152.893" width="13.5565" height="1.26481" rx="0.632406" transform="rotate(28.6481 216.167 152.893)" fill="black"/>
<rect x="212.136" y="162.221" width="13.5565" height="1.26481" rx="0.632406" transform="rotate(28.6481 212.136 162.221)" fill="black"/>
<rect x="212.136" y="162.221" width="13.5565" height="1.26481" rx="0.632406" transform="rotate(28.6481 212.136 162.221)" fill="black"/>
<rect x="207.117" y="170.433" width="13.5565" height="1.26481" rx="0.632406" transform="rotate(28.6481 207.117 170.433)" fill="black"/>
<rect x="207.117" y="170.433" width="13.5565" height="1.26481" rx="0.632406" transform="rotate(28.6481 207.117 170.433)" fill="black"/>
<rect x="220.912" y="120.319" width="13.5565" height="1.26481" rx="0.632406" transform="rotate(28.6481 220.912 120.319)" fill="black"/>
<rect x="220.912" y="120.319" width="13.5565" height="1.26481" rx="0.632406" transform="rotate(28.6481 220.912 120.319)" fill="black"/>
<path d="M226.599 124.291C230.18 141.38 219.628 163.864 212.945 173.905" stroke="black" stroke-width="1.72444"/>
<path d="M185.979 162.709C184.359 164.11 180.11 160.166 172.46 156.728C164.809 153.289 155.332 154.372 158.274 150.257C159.919 147.957 169.449 149.632 177.1 153.07C184.75 156.508 188.297 160.703 185.979 162.709Z" fill="black"/>
<path d="M182.667 135.554C180.859 135.539 179.596 134.146 180.003 132.613L185.657 111.286C186.111 109.574 188.368 108.636 190.095 109.443L236.647 131.185C239.298 132.423 237.974 135.994 234.873 135.969L182.667 135.554Z" fill="black"/>
<path d="M148.076 116.656C148.81 118.031 150.849 118.441 152.379 117.522L173.66 104.732C175.369 103.705 175.506 101.61 173.93 100.612L131.449 73.7146C129.029 72.1825 125.616 74.6116 126.876 76.9694L148.076 116.656Z" fill="black"/>
<path d="M165.285 105.874C168.948 104.307 187.364 112.98 189.149 118.912C190.082 118.925 190.678 119.945 185.604 123.914C184.489 116.366 170.933 108.96 162.004 110.03C161.571 109.298 161.622 107.442 165.285 105.874Z" fill="black" stroke="black" stroke-width="0.344887"/>
</mask>
<g mask="url(#mask0)">
<rect x="125.956" y="-28.1194" width="246.821" height="286.606" transform="rotate(28.6481 125.956 -28.1194)" fill="#8C74B7"/>
</g>
</svg>
