<svg width="478" height="280" viewBox="0 0 478 280" fill="none" xmlns="http://www.w3.org/2000/svg">
<path d="M239.54 0C315.566 0 377.918 59.7652 380.53 135.141L239.54 139.95V0Z" fill="#F98548"/>
<path d="M380.53 135.141C382.902 203.588 334.993 263.682 267.307 277.162L239.54 139.95L380.53 135.141Z" fill="#D8C1F7"/>
<path d="M237.259 0.0183024C238.019 0.00610132 238.78 0 239.54 0V139.95L237.259 0.0183024Z" fill="#F98548"/>
<path d="M206.76 3.83047C216.756 1.46142 226.983 0.183071 237.259 0.0181885L239.54 139.95L206.76 3.83047Z" fill="#FCFCFC"/>
<path d="M155.425 27.599C170.741 16.3142 188.204 8.22833 206.76 3.83057L239.541 139.95L155.425 27.599Z" fill="#FD8BA4"/>
<path d="M117.654 69.4855C127.26 53.1333 140.109 38.8839 155.425 27.599L239.54 139.95L117.654 69.4855Z" fill="#EFC404"/>
<path d="M110.181 195.785C92.2532 154.907 95.0284 108.002 117.654 69.4855L239.54 139.95L110.181 195.785Z" fill="#FCFCFC"/>
<path d="M267.307 277.162C202.148 290.139 136.697 256.241 110.182 195.785L239.541 139.95L267.307 277.162Z" fill="#64CD6E"/>
<path d="M1.7019 9.22089L4.48776 2.01697H5.51761L8.48831 9.22089H7.40565L6.54745 7.03352H3.52394L2.71854 9.22089H1.7019ZM3.8012 6.26073H6.25698L5.5044 4.26983C5.26675 3.66732 5.09511 3.1696 4.98948 2.77665C4.89266 3.23945 4.76063 3.69788 4.59339 4.15195L3.8012 6.26073ZM9.12206 9.22089V2.01697H10.0199V9.22089H9.12206ZM15.1295 9.22089V8.44811C14.7158 9.04189 14.1568 9.33878 13.4527 9.33878C13.1446 9.33878 12.8541 9.28202 12.5813 9.1685C12.3172 9.04625 12.1192 8.89781 11.9871 8.72317C11.8551 8.53979 11.7627 8.31713 11.7099 8.05517C11.6747 7.88926 11.6571 7.6142 11.6571 7.22999V4.00787H12.5549V6.90254C12.5549 7.3566 12.5725 7.66659 12.6077 7.8325C12.6605 8.05953 12.7749 8.24291 12.951 8.38262C13.1358 8.5136 13.3647 8.57909 13.6375 8.57909C13.9016 8.57909 14.148 8.5136 14.3769 8.38262C14.6146 8.24291 14.7818 8.05517 14.8786 7.8194C14.9842 7.58364 15.0371 7.24309 15.0371 6.79775V4.00787H15.9217V9.22089H15.1295ZM17.5985 9.22089V4.00787H18.3907V4.74136C18.5579 4.4794 18.7779 4.2742 19.0508 4.12575C19.3237 3.96858 19.6361 3.88999 19.9882 3.88999C20.3755 3.88999 20.6924 3.96858 20.9389 4.12575C21.1941 4.28293 21.3702 4.5056 21.467 4.79375C21.8895 4.19124 22.4308 3.88999 23.091 3.88999C23.6191 3.88999 24.0196 4.03407 24.2924 4.32222C24.5741 4.60165 24.7149 5.04262 24.7149 5.64513V9.22089H23.8303V5.93328C23.8303 5.584 23.7995 5.33077 23.7379 5.1736C23.6851 5.01642 23.5839 4.88981 23.4342 4.79375C23.2846 4.6977 23.1042 4.64968 22.8929 4.64968C22.5232 4.64968 22.2152 4.77192 21.9687 5.01642C21.731 5.26092 21.6122 5.65386 21.6122 6.19524V9.22089H20.7144V5.8285C20.7144 5.43556 20.6396 5.14303 20.4899 4.95093C20.3491 4.75009 20.1159 4.64968 19.7902 4.64968C19.5349 4.64968 19.3017 4.71516 19.0904 4.84615C18.8792 4.97713 18.7251 5.16923 18.6283 5.42246C18.5315 5.67569 18.4831 6.03807 18.4831 6.5096V9.22089H17.5985ZM26.0485 9.22089V4.00787H26.8407V4.74136C27.2279 4.17378 27.7869 3.88999 28.5174 3.88999C28.8343 3.88999 29.1248 3.94675 29.3889 4.06026C29.6617 4.17378 29.8642 4.32222 29.9962 4.5056C30.1282 4.68897 30.2206 4.9029 30.2735 5.1474C30.2999 5.31331 30.3131 5.60147 30.3131 6.01187V9.22089H29.4285V6.05117C29.4285 5.68442 29.3933 5.41373 29.3228 5.23909C29.2524 5.06445 29.1292 4.92473 28.9531 4.81995C28.7771 4.70643 28.5703 4.64968 28.3326 4.64968C27.9541 4.64968 27.624 4.77192 27.3424 5.01642C27.0695 5.25219 26.9331 5.70188 26.9331 6.36552V9.22089H26.0485ZM31.9635 3.03862V2.01697H32.8613V3.03862H31.9635ZM31.9635 9.22089V4.00787H32.8613V9.22089H31.9635Z" fill="white"/>
<path d="M2.13782 21.5725L3.03563 21.4546C3.13245 21.9523 3.30409 22.3147 3.55055 22.5418C3.79701 22.7601 4.09628 22.8692 4.44836 22.8692C4.87086 22.8692 5.22735 22.7251 5.51782 22.437C5.80829 22.1488 5.95352 21.7908 5.95352 21.3629C5.95352 20.9613 5.81709 20.6294 5.54422 20.3675C5.28016 20.0968 4.94128 19.9614 4.52758 19.9614C4.36034 19.9614 4.14909 19.9964 3.89383 20.0662L3.99946 19.2803C4.06107 19.2891 4.10948 19.2934 4.14469 19.2934C4.52318 19.2934 4.86206 19.1974 5.16133 19.0053C5.46941 18.8044 5.62344 18.4988 5.62344 18.0884C5.62344 17.7653 5.51342 17.499 5.29336 17.2894C5.07331 17.0711 4.78724 16.962 4.43516 16.962C4.09188 16.962 3.80141 17.0711 3.56375 17.2894C3.3349 17.5077 3.18967 17.8308 3.12805 18.2587L2.23024 18.1015C2.33586 17.5165 2.58232 17.0624 2.96961 16.7393C3.35691 16.4075 3.83662 16.2416 4.40875 16.2416C4.80485 16.2416 5.17014 16.3289 5.50461 16.5035C5.83909 16.6695 6.09435 16.8965 6.2704 17.1846C6.44644 17.4728 6.53446 17.7828 6.53446 18.1146C6.53446 18.4202 6.45084 18.704 6.2836 18.966C6.11636 19.2192 5.8699 19.42 5.54422 19.5685C5.96672 19.6645 6.2968 19.8697 6.53446 20.1841C6.77211 20.4897 6.89094 20.8783 6.89094 21.3498C6.89094 21.9785 6.65769 22.5112 6.19118 22.9478C5.73347 23.3844 5.15253 23.6027 4.44836 23.6027C3.81461 23.6027 3.28649 23.415 2.86399 23.0395C2.44149 22.6553 2.19943 22.1663 2.13782 21.5725ZM8.55454 23.4717V22.4632H9.57118V23.4717H8.55454ZM10.5878 21.5856L11.5252 21.507C11.5957 21.9611 11.7541 22.3016 12.0006 22.5287C12.2558 22.7557 12.5639 22.8692 12.9248 22.8692C13.3473 22.8692 13.7082 22.7077 14.0074 22.3846C14.3067 22.0615 14.4563 21.638 14.4563 21.1141C14.4563 20.6076 14.3111 20.2103 14.0206 19.9221C13.739 19.6253 13.3649 19.4768 12.8984 19.4768C12.6167 19.4768 12.357 19.5423 12.1194 19.6733C11.8905 19.8043 11.7101 19.9702 11.5781 20.171L10.7463 20.0662L11.446 16.3726H15.0637V17.2108H12.159L11.7761 19.1494C12.2074 18.8437 12.6607 18.6909 13.136 18.6909C13.7698 18.6909 14.3023 18.9092 14.7336 19.3458C15.1737 19.7824 15.3938 20.3456 15.3938 21.0355C15.3938 21.6816 15.2045 22.2449 14.826 22.7251C14.3595 23.3014 13.7258 23.5896 12.9248 23.5896C12.2646 23.5896 11.7233 23.4062 11.3008 23.0395C10.8871 22.6727 10.6494 22.1881 10.5878 21.5856ZM16.6745 17.9967C16.6745 17.4815 16.8021 17.0449 17.0573 16.6869C17.3214 16.3289 17.6999 16.1499 18.1928 16.1499C18.6505 16.1499 19.029 16.3114 19.3283 16.6345C19.6276 16.9576 19.7772 17.4291 19.7772 18.0491C19.7772 18.6604 19.6232 19.1319 19.3151 19.4637C19.0158 19.7868 18.6461 19.9483 18.206 19.9483C17.7659 19.9483 17.4006 19.7868 17.1102 19.4637C16.8197 19.1406 16.6745 18.6516 16.6745 17.9967ZM18.2192 16.7524C17.9992 16.7524 17.8143 16.8485 17.6647 17.0406C17.5239 17.2327 17.4534 17.582 17.4534 18.0884C17.4534 18.5512 17.5239 18.8787 17.6647 19.0708C17.8143 19.2541 17.9992 19.3458 18.2192 19.3458C18.4481 19.3458 18.6329 19.2498 18.7738 19.0577C18.9234 18.8656 18.9982 18.5206 18.9982 18.0229C18.9982 17.5514 18.9234 17.2239 18.7738 17.0406C18.6241 16.8485 18.4393 16.7524 18.2192 16.7524ZM18.2192 23.7337L22.1934 16.1499H22.9195L18.9586 23.7337H18.2192ZM21.3616 21.7821C21.3616 21.2669 21.4892 20.8303 21.7445 20.4723C22.0085 20.1142 22.3914 19.9352 22.8931 19.9352C23.3508 19.9352 23.7293 20.0968 24.0286 20.4199C24.3279 20.7342 24.4775 21.2058 24.4775 21.8345C24.4775 22.4457 24.3235 22.9172 24.0154 23.249C23.7161 23.5721 23.342 23.7337 22.8931 23.7337C22.4618 23.7337 22.0965 23.5721 21.7973 23.249C21.5068 22.926 21.3616 22.437 21.3616 21.7821ZM22.9195 20.5377C22.6907 20.5377 22.5014 20.6338 22.3518 20.8259C22.211 21.018 22.1406 21.3673 22.1406 21.8738C22.1406 22.3278 22.2154 22.6509 22.365 22.843C22.5146 23.0351 22.6995 23.1312 22.9195 23.1312C23.1396 23.1312 23.3244 23.0351 23.4741 22.843C23.6237 22.6509 23.6985 22.3016 23.6985 21.7952C23.6985 21.3324 23.6237 21.0093 23.4741 20.8259C23.3244 20.6338 23.1396 20.5377 22.9195 20.5377Z" fill="white"/>
<path d="M1.71509 12.9933H93.3976L222.786 8.04053" stroke="white" stroke-width="1.40034" stroke-miterlimit="10"/>
<path d="M224.476 8.04044C224.476 7.11451 223.72 6.36389 222.786 6.36389C221.853 6.36389 221.096 7.11451 221.096 8.04044C221.096 8.96637 221.853 9.71699 222.786 9.71699C223.72 9.71699 224.476 8.96637 224.476 8.04044Z" fill="white"/>
<path d="M2.54681 35.2076V28.0037H7.44518V28.855H3.51064V31.0817H6.91705V31.9331H3.51064V35.2076H2.54681ZM8.30338 29.0253V28.0037H9.20119V29.0253H8.30338ZM8.30338 35.2076V29.9946H9.20119V35.2076H8.30338ZM10.8252 35.2076V29.9946H11.6306V30.7805C11.833 30.4137 12.0179 30.1736 12.1851 30.0601C12.3611 29.9378 12.5548 29.8767 12.766 29.8767C13.0653 29.8767 13.369 29.9684 13.6771 30.1517L13.3734 30.9769C13.1533 30.8459 12.9377 30.7805 12.7264 30.7805C12.524 30.7805 12.3435 30.8416 12.1851 30.9638C12.0355 31.0773 11.9298 31.2389 11.8682 31.4485C11.7626 31.7628 11.7098 32.1034 11.7098 32.4701V35.2076H10.8252ZM13.8619 33.6489L14.7333 33.5179C14.7861 33.8672 14.9225 34.1336 15.1426 34.3169C15.3715 34.5003 15.6927 34.592 16.1064 34.592C16.5113 34.592 16.8106 34.5134 17.0042 34.3562C17.2067 34.1903 17.3079 33.9938 17.3079 33.7668C17.3079 33.566 17.2199 33.4088 17.0439 33.2953C16.9206 33.2167 16.6169 33.1163 16.1328 32.994C15.4815 32.8281 15.0282 32.6884 14.7729 32.5749C14.5265 32.4526 14.3372 32.2867 14.2052 32.0772C14.0731 31.8676 14.0071 31.6318 14.0071 31.3699C14.0071 31.1428 14.0599 30.9289 14.1656 30.7281C14.2712 30.5272 14.4164 30.3613 14.6013 30.2303C14.7421 30.1343 14.9314 30.0513 15.169 29.9815C15.4067 29.9116 15.6663 29.8767 15.948 29.8767C16.3529 29.8767 16.7094 29.9378 17.0174 30.0601C17.3343 30.1736 17.5676 30.3308 17.7172 30.5316C17.8668 30.7324 17.9681 30.9988 18.0209 31.3306L17.1495 31.4485C17.1143 31.1865 16.9998 30.9813 16.8062 30.8328C16.6214 30.6757 16.3529 30.5971 16.0008 30.5971C15.5959 30.5971 15.3054 30.6669 15.1294 30.8066C14.9534 30.9376 14.8653 31.0948 14.8653 31.2782C14.8653 31.3917 14.9005 31.4921 14.971 31.5794C15.0502 31.6755 15.1646 31.7541 15.3142 31.8152C15.4023 31.8501 15.6663 31.9243 16.1064 32.0379C16.7402 32.2125 17.1803 32.3522 17.4267 32.457C17.6732 32.5618 17.8668 32.7146 18.0077 32.9154C18.1485 33.1163 18.2189 33.3695 18.2189 33.6751C18.2189 33.972 18.1309 34.2514 17.9549 34.5134C17.7876 34.7666 17.5412 34.9675 17.2155 35.1159C16.8898 35.2556 16.5201 35.3255 16.1064 35.3255C15.4199 35.3255 14.8961 35.1858 14.5353 34.9063C14.1832 34.6182 13.9587 34.199 13.8619 33.6489ZM21.2292 34.4217L21.3613 35.1945C21.106 35.2469 20.8816 35.2731 20.6879 35.2731C20.3622 35.2731 20.1114 35.2251 19.9353 35.129C19.7593 35.0242 19.6317 34.8889 19.5524 34.723C19.482 34.5571 19.4468 34.2078 19.4468 33.6751V30.6757H18.7999V29.9946H19.4468V28.6979L20.3314 28.1739V29.9946H21.2292V30.6757H20.3314V33.7275C20.3314 33.9807 20.3446 34.1423 20.371 34.2121C20.4062 34.282 20.4591 34.3388 20.5295 34.3824C20.5999 34.4261 20.7011 34.4479 20.8331 34.4479C20.9388 34.4479 21.0708 34.4392 21.2292 34.4217ZM26.5105 35.2076V32.1557L23.7114 28.0037H24.8865L26.3124 30.1779C26.5765 30.5796 26.823 30.9857 27.0518 31.3961C27.2719 31.0206 27.5359 30.5971 27.844 30.1255L29.2567 28.0037H30.3658L27.4743 32.1557V35.2076H26.5105ZM34.7096 33.531L35.6339 33.6358C35.493 34.1685 35.2246 34.5833 34.8285 34.8801C34.4324 35.177 33.9307 35.3255 33.3233 35.3255C32.5575 35.3255 31.9458 35.0897 31.4881 34.6182C31.0392 34.1467 30.8147 33.4874 30.8147 32.6404C30.8147 31.7672 31.0436 31.0904 31.5013 30.6102C31.959 30.1212 32.5487 29.8767 33.2705 29.8767C33.9747 29.8767 34.5468 30.1124 34.9869 30.584C35.4358 31.0555 35.6603 31.7235 35.6603 32.588C35.6603 32.6404 35.6603 32.719 35.6603 32.8237H31.7389C31.7741 33.4001 31.937 33.841 32.2275 34.1467C32.5179 34.4435 32.8832 34.592 33.3233 34.592C33.649 34.592 33.9263 34.509 34.1551 34.3431C34.3928 34.1685 34.5776 33.8978 34.7096 33.531ZM31.7917 32.1034H34.7228C34.6876 31.658 34.5776 31.3262 34.3928 31.1079C34.1023 30.7674 33.7326 30.5971 33.2837 30.5971C32.87 30.5971 32.5223 30.7324 32.2407 31.0031C31.9678 31.2738 31.8182 31.6406 31.7917 32.1034ZM40.4662 34.5658C40.1317 34.8452 39.8104 35.0417 39.5024 35.1552C39.2031 35.2687 38.8774 35.3255 38.5253 35.3255C37.9444 35.3255 37.4999 35.1858 37.1918 34.9063C36.8838 34.6269 36.7297 34.2689 36.7297 33.8323C36.7297 33.5791 36.7869 33.3477 36.9014 33.1381C37.0158 32.9198 37.1698 32.7495 37.3635 32.6273C37.5571 32.4963 37.7728 32.4002 38.0104 32.3391C38.1777 32.2867 38.4417 32.2387 38.8026 32.195C39.5156 32.1165 40.0437 32.016 40.387 31.8938C40.387 31.7715 40.387 31.6973 40.387 31.6711C40.387 31.3044 40.3034 31.0468 40.1361 30.8983C39.9073 30.7062 39.5684 30.6102 39.1195 30.6102C38.7058 30.6102 38.3977 30.6844 38.1953 30.8328C37.9928 30.9726 37.8432 31.2258 37.7464 31.5925L36.875 31.4746C36.9542 31.1079 37.0862 30.811 37.271 30.584C37.4559 30.3569 37.72 30.1823 38.0632 30.0601C38.4065 29.9378 38.8026 29.8767 39.2515 29.8767C39.7004 29.8767 40.0657 29.9291 40.3474 30.0339C40.629 30.1386 40.8359 30.2696 40.9679 30.4268C41.1 30.584 41.1924 30.7848 41.2452 31.0293C41.2716 31.1778 41.2848 31.4485 41.2848 31.8414V33.0202C41.2848 33.841 41.3024 34.3606 41.3376 34.5789C41.3816 34.7972 41.4608 35.0068 41.5753 35.2076H40.6378C40.5498 35.0242 40.4926 34.8103 40.4662 34.5658ZM40.387 32.588C40.0613 32.719 39.5772 32.8325 38.9346 32.9285C38.565 32.9809 38.3053 33.042 38.1557 33.1119C38.006 33.173 37.8872 33.2647 37.7992 33.387C37.72 33.5092 37.6803 33.6489 37.6803 33.8061C37.6803 34.0419 37.7684 34.2383 37.9444 34.3955C38.1292 34.5527 38.3933 34.6313 38.7366 34.6313C39.0799 34.6313 39.3835 34.5571 39.6476 34.4086C39.9205 34.2602 40.1185 34.055 40.2418 33.793C40.3386 33.5922 40.387 33.2996 40.387 32.9154V32.588ZM42.9352 35.2076V29.9946H43.7406V30.7805C43.943 30.4137 44.1279 30.1736 44.2951 30.0601C44.4712 29.9378 44.6648 29.8767 44.8761 29.8767C45.1753 29.8767 45.479 29.9684 45.7871 30.1517L45.4834 30.9769C45.2633 30.8459 45.0477 30.7805 44.8364 30.7805C44.634 30.7805 44.4536 30.8416 44.2951 30.9638C44.1455 31.0773 44.0399 31.2389 43.9782 31.4485C43.8726 31.7628 43.8198 32.1034 43.8198 32.4701V35.2076H42.9352Z" fill="white"/>
<path d="M6.75897 44.0225L5.87436 44.088C5.79514 43.7387 5.68512 43.4855 5.54428 43.3283C5.29782 43.075 4.99855 42.9484 4.64647 42.9484C4.3648 42.9484 4.11394 43.027 3.89389 43.1842C3.62103 43.3938 3.40098 43.695 3.23374 44.088C3.0753 44.4722 2.99168 45.0223 2.98288 45.7383C3.19413 45.4152 3.45379 45.1751 3.76186 45.0179C4.07874 44.8607 4.40881 44.7822 4.75209 44.7822C5.34183 44.7822 5.84355 45.0005 6.25725 45.4371C6.67975 45.8737 6.891 46.4325 6.891 47.1136C6.891 47.5677 6.78978 47.9912 6.58733 48.3841C6.39368 48.7683 6.12522 49.0652 5.78194 49.2748C5.43866 49.4756 5.05137 49.576 4.62006 49.576C3.87189 49.576 3.26454 49.3053 2.79803 48.764C2.33152 48.2226 2.09827 47.3319 2.09827 46.092C2.09827 44.6948 2.35793 43.6819 2.87725 43.0532C3.32616 42.5031 3.9335 42.228 4.69928 42.228C5.27142 42.228 5.73793 42.3896 6.09881 42.7127C6.4685 43.027 6.68855 43.4636 6.75897 44.0225ZM3.12811 47.1267C3.12811 47.4323 3.18972 47.7249 3.31295 48.0043C3.44499 48.275 3.62543 48.4845 3.85428 48.633C4.09194 48.7814 4.3428 48.8556 4.60686 48.8556C4.97655 48.8556 5.29782 48.7072 5.57069 48.4103C5.84355 48.1047 5.97999 47.6943 5.97999 47.1791C5.97999 46.6814 5.84355 46.2884 5.57069 46.0003C5.30663 45.7121 4.97215 45.568 4.56725 45.568C4.16236 45.568 3.81907 45.7121 3.53741 46.0003C3.26454 46.2884 3.12811 46.6639 3.12811 47.1267ZM8.55459 49.4582V48.4496H9.57124V49.4582H8.55459ZM13.4398 49.4582V47.7292H10.2974V46.9171L13.6114 42.2542H14.3376V46.9171H15.3146V47.7292H14.3376V49.4582H13.4398ZM13.4398 46.9171V43.6819L11.1688 46.9171H13.4398ZM16.6745 43.9832C16.6745 43.468 16.8021 43.0314 17.0574 42.6734C17.3215 42.3154 17.7 42.1364 18.1929 42.1364C18.6506 42.1364 19.0291 42.2979 19.3283 42.621C19.6276 42.9441 19.7773 43.4156 19.7773 44.0356C19.7773 44.6468 19.6232 45.1183 19.3151 45.4502C19.0159 45.7732 18.6462 45.9348 18.2061 45.9348C17.766 45.9348 17.4007 45.7732 17.1102 45.4502C16.8198 45.1271 16.6745 44.6381 16.6745 43.9832ZM18.2193 42.7389C17.9992 42.7389 17.8144 42.8349 17.6648 43.027C17.5239 43.2191 17.4535 43.5684 17.4535 44.0749C17.4535 44.5377 17.5239 44.8651 17.6648 45.0572C17.8144 45.2406 17.9992 45.3323 18.2193 45.3323C18.4481 45.3323 18.633 45.2362 18.7738 45.0441C18.9234 44.852 18.9983 44.5071 18.9983 44.0094C18.9983 43.5378 18.9234 43.2104 18.7738 43.027C18.6242 42.8349 18.4393 42.7389 18.2193 42.7389ZM18.2193 49.7201L22.1934 42.1364H22.9196L18.9587 49.7201H18.2193ZM21.3616 47.7685C21.3616 47.2533 21.4893 46.8167 21.7445 46.4587C22.0086 46.1007 22.3915 45.9217 22.8932 45.9217C23.3509 45.9217 23.7294 46.0832 24.0287 46.4063C24.3279 46.7207 24.4776 47.1922 24.4776 47.8209C24.4776 48.4321 24.3235 48.9037 24.0155 49.2355C23.7162 49.5586 23.3421 49.7201 22.8932 49.7201C22.4619 49.7201 22.0966 49.5586 21.7973 49.2355C21.5069 48.9124 21.3616 48.4234 21.3616 47.7685ZM22.9196 46.5242C22.6907 46.5242 22.5015 46.6202 22.3519 46.8124C22.211 47.0045 22.1406 47.3537 22.1406 47.8602C22.1406 48.3143 22.2154 48.6373 22.3651 48.8295C22.5147 49.0216 22.6995 49.1176 22.9196 49.1176C23.1396 49.1176 23.3245 49.0216 23.4741 48.8295C23.6238 48.6373 23.6986 48.2881 23.6986 47.7816C23.6986 47.3188 23.6238 46.9957 23.4741 46.8124C23.3245 46.6202 23.1396 46.5242 22.9196 46.5242Z" fill="white"/>
<path d="M1.71509 38.9798H93.3976L182.86 19.473" stroke="white" stroke-width="1.40034" stroke-miterlimit="10"/>
<path d="M184.551 19.4731C184.551 18.5471 183.794 17.7965 182.86 17.7965C181.927 17.7965 181.17 18.5471 181.17 19.4731C181.17 20.399 181.927 21.1496 182.86 21.1496C183.794 21.1496 184.551 20.399 184.551 19.4731Z" fill="white"/>
<path d="M2.13782 59.3079L3.07524 59.2293C3.14566 59.6834 3.30409 60.024 3.55055 60.251C3.80581 60.478 4.11389 60.5915 4.47477 60.5915C4.89727 60.5915 5.25815 60.43 5.55743 60.1069C5.8567 59.7838 6.00633 59.3603 6.00633 58.8364C6.00633 58.3299 5.8611 57.9326 5.57063 57.6445C5.28896 57.3476 4.91487 57.1991 4.44836 57.1991C4.1667 57.1991 3.90703 57.2646 3.66938 57.3956C3.44053 57.5266 3.26008 57.6925 3.12805 57.8933L2.29625 57.7885L2.99602 54.0949H6.61368V54.9332H3.70899L3.3261 56.8717C3.7574 56.5661 4.21071 56.4133 4.68602 56.4133C5.31977 56.4133 5.85229 56.6316 6.2836 57.0682C6.7237 57.5048 6.94375 58.068 6.94375 58.7578C6.94375 59.404 6.75451 59.9672 6.37602 60.4475C5.90951 61.0238 5.27576 61.3119 4.47477 61.3119C3.81461 61.3119 3.27329 61.1286 2.85079 60.7618C2.43709 60.3951 2.19943 59.9104 2.13782 59.3079ZM10.2445 60.4082L10.3766 61.1809C10.1213 61.2333 9.89685 61.2595 9.70321 61.2595C9.37753 61.2595 9.12667 61.2115 8.95063 61.1155C8.77459 61.0107 8.64696 60.8753 8.56774 60.7094C8.49732 60.5435 8.46211 60.1942 8.46211 59.6616V56.6621H7.81516V55.981H8.46211V54.6843L9.34672 54.1604V55.981H10.2445V56.6621H9.34672V59.714C9.34672 59.9672 9.35992 60.1287 9.38633 60.1986C9.42154 60.2684 9.47435 60.3252 9.54477 60.3689C9.61518 60.4125 9.71641 60.4344 9.84844 60.4344C9.95406 60.4344 10.0861 60.4256 10.2445 60.4082ZM10.8387 61.194V53.9901H11.7233V56.5704C12.137 56.0989 12.6607 55.8631 13.2945 55.8631C13.6905 55.8631 14.0294 55.9417 14.3111 56.0989C14.6016 56.2473 14.8084 56.4569 14.9316 56.7276C15.0549 56.9896 15.1165 57.3781 15.1165 57.8933V61.194H14.2319V57.8933C14.2319 57.448 14.1351 57.1249 13.9414 56.9241C13.7478 56.7232 13.4749 56.6228 13.1228 56.6228C12.8588 56.6228 12.6079 56.6927 12.3702 56.8324C12.1414 56.9634 11.9741 57.1467 11.8685 57.3825C11.7717 57.6095 11.7233 57.9283 11.7233 58.3387V61.194H10.8387ZM21.4408 61.194V58.1422L18.6417 53.9901H19.8168L21.2427 56.1644C21.5068 56.5661 21.7533 56.9721 21.9821 57.3825C22.2022 57.007 22.4662 56.5835 22.7743 56.112L24.187 53.9901H25.2961L22.4046 58.1422V61.194H21.4408ZM29.6399 59.5175L30.5641 59.6223C30.4233 60.1549 30.1548 60.5697 29.7587 60.8666C29.3627 61.1635 28.8609 61.3119 28.2536 61.3119C27.4878 61.3119 26.8761 61.0762 26.4184 60.6046C25.9695 60.1331 25.745 59.4738 25.745 58.6268C25.745 57.7536 25.9739 57.0769 26.4316 56.5966C26.8893 56.1076 27.479 55.8631 28.2008 55.8631C28.9049 55.8631 29.4771 56.0989 29.9172 56.5704C30.3661 57.042 30.5905 57.71 30.5905 58.5744C30.5905 58.6268 30.5905 58.7054 30.5905 58.8102H26.6692C26.7044 59.3865 26.8673 59.8275 27.1577 60.1331C27.4482 60.43 27.8135 60.5784 28.2536 60.5784C28.5793 60.5784 28.8565 60.4955 29.0854 60.3296C29.323 60.1549 29.5079 59.8842 29.6399 59.5175ZM26.722 58.0898H29.6531C29.6179 57.6445 29.5079 57.3127 29.323 57.0944C29.0326 56.7538 28.6629 56.5835 28.214 56.5835C27.8003 56.5835 27.4526 56.7189 27.1709 56.9896C26.8981 57.2603 26.7484 57.627 26.722 58.0898ZM35.3965 60.5522C35.062 60.8317 34.7407 61.0281 34.4327 61.1417C34.1334 61.2552 33.8077 61.3119 33.4556 61.3119C32.8747 61.3119 32.4302 61.1722 32.1221 60.8928C31.814 60.6134 31.66 60.2554 31.66 59.8187C31.66 59.5655 31.7172 59.3341 31.8316 59.1246C31.9461 58.9063 32.1001 58.736 32.2937 58.6137C32.4874 58.4827 32.703 58.3867 32.9407 58.3256C33.1079 58.2732 33.372 58.2252 33.7329 58.1815C34.4459 58.1029 34.974 58.0025 35.3173 57.8802C35.3173 57.758 35.3173 57.6838 35.3173 57.6576C35.3173 57.2908 35.2336 57.0332 35.0664 56.8848C34.8375 56.6927 34.4987 56.5966 34.0498 56.5966C33.6361 56.5966 33.328 56.6709 33.1255 56.8193C32.9231 56.959 32.7735 57.2122 32.6766 57.579L31.8052 57.4611C31.8844 57.0944 32.0165 56.7975 32.2013 56.5704C32.3862 56.3434 32.6502 56.1688 32.9935 56.0465C33.3368 55.9243 33.7329 55.8631 34.1818 55.8631C34.6307 55.8631 34.996 55.9155 35.2776 56.0203C35.5593 56.1251 35.7662 56.2561 35.8982 56.4133C36.0302 56.5704 36.1227 56.7713 36.1755 57.0158C36.2019 57.1642 36.2151 57.4349 36.2151 57.8278V59.0067C36.2151 59.8275 36.2327 60.347 36.2679 60.5653C36.3119 60.7836 36.3911 60.9932 36.5055 61.194H35.5681C35.4801 61.0107 35.4229 60.7967 35.3965 60.5522ZM35.3173 58.5744C34.9916 58.7054 34.5075 58.8189 33.8649 58.915C33.4952 58.9674 33.2356 59.0285 33.0859 59.0984C32.9363 59.1595 32.8175 59.2512 32.7294 59.3734C32.6502 59.4957 32.6106 59.6354 32.6106 59.7926C32.6106 60.0283 32.6986 60.2248 32.8747 60.382C33.0595 60.5391 33.3236 60.6177 33.6669 60.6177C34.0102 60.6177 34.3138 60.5435 34.5779 60.3951C34.8507 60.2466 35.0488 60.0414 35.172 59.7795C35.2688 59.5786 35.3173 59.2861 35.3173 58.9019V58.5744ZM37.8655 61.194V55.981H38.6709V56.7669C38.8733 56.4002 39.0581 56.16 39.2254 56.0465C39.4014 55.9243 39.5951 55.8631 39.8063 55.8631C40.1056 55.8631 40.4093 55.9548 40.7173 56.1382L40.4137 56.9634C40.1936 56.8324 39.978 56.7669 39.7667 56.7669C39.5643 56.7669 39.3838 56.828 39.2254 56.9503C39.0757 57.0638 38.9701 57.2253 38.9085 57.4349C38.8029 57.7493 38.7501 58.0898 38.7501 58.4566V61.194H37.8655Z" fill="white"/>
<path d="M6.75897 70.009L5.87436 70.0745C5.79514 69.7253 5.68512 69.472 5.54428 69.3148C5.29782 69.0616 4.99855 68.935 4.64647 68.935C4.3648 68.935 4.11394 69.0136 3.89389 69.1708C3.62103 69.3803 3.40098 69.6816 3.23374 70.0745C3.0753 70.4587 2.99168 71.0089 2.98288 71.7249C3.19413 71.4018 3.45379 71.1617 3.76186 71.0045C4.07874 70.8473 4.40881 70.7687 4.75209 70.7687C5.34183 70.7687 5.84355 70.987 6.25725 71.4236C6.67975 71.8602 6.891 72.4191 6.891 73.1002C6.891 73.5542 6.78978 73.9778 6.58733 74.3707C6.39368 74.7549 6.12522 75.0518 5.78194 75.2614C5.43866 75.4622 5.05137 75.5626 4.62006 75.5626C3.87189 75.5626 3.26454 75.2919 2.79803 74.7505C2.33152 74.2091 2.09827 73.3185 2.09827 72.0785C2.09827 70.6814 2.35793 69.6685 2.87725 69.0398C3.32616 68.4897 3.9335 68.2146 4.69928 68.2146C5.27142 68.2146 5.73793 68.3762 6.09881 68.6992C6.4685 69.0136 6.68855 69.4502 6.75897 70.009ZM3.12811 73.1133C3.12811 73.4189 3.18972 73.7114 3.31295 73.9908C3.44499 74.2615 3.62543 74.4711 3.85428 74.6196C4.09194 74.768 4.3428 74.8422 4.60686 74.8422C4.97655 74.8422 5.29782 74.6938 5.57069 74.3969C5.84355 74.0913 5.97999 73.6809 5.97999 73.1657C5.97999 72.6679 5.84355 72.275 5.57069 71.9868C5.30663 71.6987 4.97215 71.5546 4.56725 71.5546C4.16236 71.5546 3.81907 71.6987 3.53741 71.9868C3.26454 72.275 3.12811 72.6505 3.12811 73.1133ZM8.55459 75.4447V74.4362H9.57124V75.4447H8.55459ZM13.4398 75.4447V73.7158H10.2974V72.9037L13.6114 68.2408H14.3376V72.9037H15.3146V73.7158H14.3376V75.4447H13.4398ZM13.4398 72.9037V69.6685L11.1688 72.9037H13.4398ZM16.6745 69.9697C16.6745 69.4546 16.8021 69.018 17.0574 68.6599C17.3215 68.3019 17.7 68.1229 18.1929 68.1229C18.6506 68.1229 19.0291 68.2845 19.3283 68.6076C19.6276 68.9306 19.7773 69.4022 19.7773 70.0221C19.7773 70.6334 19.6232 71.1049 19.3151 71.4367C19.0159 71.7598 18.6462 71.9214 18.2061 71.9214C17.766 71.9214 17.4007 71.7598 17.1102 71.4367C16.8198 71.1136 16.6745 70.6247 16.6745 69.9697ZM18.2193 68.7254C17.9992 68.7254 17.8144 68.8215 17.6648 69.0136C17.5239 69.2057 17.4535 69.555 17.4535 70.0614C17.4535 70.5242 17.5239 70.8517 17.6648 71.0438C17.8144 71.2272 17.9992 71.3188 18.2193 71.3188C18.4481 71.3188 18.633 71.2228 18.7738 71.0307C18.9234 70.8386 18.9983 70.4937 18.9983 69.9959C18.9983 69.5244 18.9234 69.197 18.7738 69.0136C18.6242 68.8215 18.4393 68.7254 18.2193 68.7254ZM18.2193 75.7067L22.1934 68.1229H22.9196L18.9587 75.7067H18.2193ZM21.3616 73.7551C21.3616 73.2399 21.4893 72.8033 21.7445 72.4453C22.0086 72.0873 22.3915 71.9083 22.8932 71.9083C23.3509 71.9083 23.7294 72.0698 24.0287 72.3929C24.3279 72.7072 24.4776 73.1788 24.4776 73.8075C24.4776 74.4187 24.3235 74.8902 24.0155 75.2221C23.7162 75.5451 23.3421 75.7067 22.8932 75.7067C22.4619 75.7067 22.0966 75.5451 21.7973 75.2221C21.5069 74.899 21.3616 74.41 21.3616 73.7551ZM22.9196 72.5108C22.6907 72.5108 22.5015 72.6068 22.3519 72.7989C22.211 72.991 22.1406 73.3403 22.1406 73.8468C22.1406 74.3008 22.2154 74.6239 22.3651 74.816C22.5147 75.0081 22.6995 75.1042 22.9196 75.1042C23.1396 75.1042 23.3245 75.0081 23.4741 74.816C23.6238 74.6239 23.6986 74.2746 23.6986 73.7682C23.6986 73.3054 23.6238 72.9823 23.4741 72.7989C23.3245 72.6068 23.1396 72.5108 22.9196 72.5108Z" fill="white"/>
<path d="M1.71509 64.9662H93.3976L139.655 51.3074" stroke="white" stroke-width="1.40034" stroke-miterlimit="10"/>
<path d="M141.345 51.3074C141.345 50.3815 140.589 49.6309 139.656 49.6309C138.722 49.6309 137.966 50.3815 137.966 51.3074C137.966 52.2334 138.722 52.984 139.656 52.984C140.589 52.984 141.345 52.2334 141.345 51.3074Z" fill="white"/>
<path d="M6.82473 127.536V128.388H2.0188C2.0188 128.178 2.05401 127.973 2.12442 127.772C2.24765 127.449 2.4413 127.13 2.70536 126.816C2.97823 126.502 3.36992 126.139 3.88044 125.729C4.67263 125.083 5.20515 124.572 5.47802 124.196C5.75968 123.821 5.90052 123.467 5.90052 123.135C5.90052 122.786 5.77289 122.493 5.51763 122.258C5.26236 122.013 4.93229 121.891 4.52739 121.891C4.09609 121.891 3.75281 122.018 3.49755 122.271C3.24229 122.524 3.11026 122.878 3.10145 123.332L2.19044 123.24C2.25205 122.559 2.48531 122.044 2.8902 121.694C3.3039 121.336 3.85843 121.157 4.5538 121.157C5.24916 121.157 5.79929 121.35 6.20419 121.734C6.60908 122.118 6.81153 122.594 6.81153 123.161C6.81153 123.45 6.74992 123.733 6.62669 124.013C6.51226 124.284 6.31421 124.576 6.03255 124.89C5.75968 125.196 5.30638 125.615 4.67263 126.148C4.1357 126.593 3.78802 126.899 3.62958 127.065C3.47994 127.222 3.35672 127.379 3.25989 127.536H6.82473ZM8.30348 128.388V123.175H9.09567V123.908C9.48296 123.34 10.0419 123.057 10.7725 123.057C11.0893 123.057 11.3798 123.113 11.6439 123.227C11.9167 123.34 12.1192 123.489 12.2512 123.672C12.3832 123.856 12.4757 124.07 12.5285 124.314C12.5549 124.48 12.5681 124.768 12.5681 125.179V128.388H11.6835V125.218C11.6835 124.851 11.6483 124.58 11.5779 124.406C11.5074 124.231 11.3842 124.091 11.2082 123.987C11.0321 123.873 10.8253 123.816 10.5876 123.816C10.2091 123.816 9.87906 123.939 9.59739 124.183C9.32453 124.419 9.18809 124.869 9.18809 125.532V128.388H8.30348ZM17.6249 128.388V127.733C17.2904 128.248 16.8019 128.506 16.1593 128.506C15.7368 128.506 15.3495 128.392 14.9975 128.165C14.6454 127.929 14.3725 127.606 14.1789 127.196C13.9852 126.785 13.8884 126.314 13.8884 125.781C13.8884 125.266 13.9764 124.794 14.1525 124.367C14.3285 123.939 14.5926 123.616 14.9447 123.397C15.2967 123.17 15.6884 123.057 16.1197 123.057C16.4366 123.057 16.7183 123.122 16.9647 123.253C17.2112 123.384 17.4136 123.554 17.5721 123.764V121.184H18.4567V128.388H17.6249ZM14.8126 125.781C14.8126 126.453 14.9535 126.956 15.2351 127.287C15.5168 127.61 15.8513 127.772 16.2386 127.772C16.6259 127.772 16.9559 127.615 17.2288 127.3C17.5017 126.986 17.6381 126.506 17.6381 125.86C17.6381 125.144 17.4973 124.62 17.2156 124.288C16.9427 123.956 16.6038 123.79 16.1989 123.79C15.8029 123.79 15.4728 123.952 15.2087 124.275C14.9447 124.589 14.8126 125.091 14.8126 125.781ZM24.8206 128.388V125.336L22.0215 121.184H23.1966L24.6225 123.358C24.8866 123.76 25.1331 124.166 25.3619 124.576C25.582 124.201 25.846 123.777 26.1541 123.306L27.5668 121.184H28.6759L25.7844 125.336V128.388H24.8206ZM33.0197 126.711L33.9439 126.816C33.8031 127.349 33.5346 127.763 33.1386 128.06C32.7425 128.357 32.2407 128.506 31.6334 128.506C30.8676 128.506 30.2559 128.27 29.7982 127.798C29.3493 127.327 29.1248 126.667 29.1248 125.82C29.1248 124.947 29.3537 124.27 29.8114 123.79C30.2691 123.301 30.8588 123.057 31.5806 123.057C32.2847 123.057 32.8569 123.292 33.297 123.764C33.7459 124.236 33.9703 124.904 33.9703 125.768C33.9703 125.82 33.9703 125.899 33.9703 126.004H30.049C30.0842 126.58 30.2471 127.021 30.5375 127.327C30.828 127.624 31.1933 127.772 31.6334 127.772C31.9591 127.772 32.2363 127.689 32.4652 127.523C32.7029 127.349 32.8877 127.078 33.0197 126.711ZM30.1018 125.283H33.0329C32.9977 124.838 32.8877 124.506 32.7028 124.288C32.4124 123.947 32.0427 123.777 31.5938 123.777C31.1801 123.777 30.8324 123.912 30.5507 124.183C30.2779 124.454 30.1282 124.821 30.1018 125.283ZM38.7763 127.746C38.4418 128.025 38.1205 128.222 37.8125 128.335C37.5132 128.449 37.1875 128.506 36.8354 128.506C36.2545 128.506 35.81 128.366 35.5019 128.086C35.1938 127.807 35.0398 127.449 35.0398 127.012C35.0398 126.759 35.097 126.528 35.2114 126.318C35.3259 126.1 35.4799 125.93 35.6735 125.807C35.8672 125.676 36.0828 125.58 36.3205 125.519C36.4877 125.467 36.7518 125.419 37.1127 125.375C37.8257 125.296 38.3538 125.196 38.6971 125.074C38.6971 124.952 38.6971 124.877 38.6971 124.851C38.6971 124.484 38.6134 124.227 38.4462 124.078C38.2174 123.886 37.8785 123.79 37.4296 123.79C37.0159 123.79 36.7078 123.864 36.5053 124.013C36.3029 124.153 36.1533 124.406 36.0564 124.773L35.185 124.655C35.2643 124.288 35.3963 123.991 35.5811 123.764C35.766 123.537 36.03 123.362 36.3733 123.24C36.7166 123.118 37.1127 123.057 37.5616 123.057C38.0105 123.057 38.3758 123.109 38.6575 123.214C38.9391 123.319 39.146 123.45 39.278 123.607C39.41 123.764 39.5025 123.965 39.5553 124.209C39.5817 124.358 39.5949 124.628 39.5949 125.021V126.2C39.5949 127.021 39.6125 127.541 39.6477 127.759C39.6917 127.977 39.7709 128.187 39.8853 128.388H38.9479C38.8599 128.204 38.8027 127.99 38.7763 127.746ZM38.6971 125.768C38.3714 125.899 37.8873 126.013 37.2447 126.109C36.875 126.161 36.6154 126.222 36.4657 126.292C36.3161 126.353 36.1973 126.445 36.1093 126.567C36.03 126.689 35.9904 126.829 35.9904 126.986C35.9904 127.222 36.0784 127.418 36.2545 127.576C36.4393 127.733 36.7034 127.811 37.0467 127.811C37.39 127.811 37.6936 127.737 37.9577 127.589C38.2306 127.44 38.4286 127.235 38.5518 126.973C38.6487 126.772 38.6971 126.48 38.6971 126.095V125.768ZM41.2453 128.388V123.175H42.0507V123.96C42.2531 123.594 42.438 123.354 42.6052 123.24C42.7812 123.118 42.9749 123.057 43.1861 123.057C43.4854 123.057 43.7891 123.148 44.0971 123.332L43.7935 124.157C43.5734 124.026 43.3578 123.96 43.1465 123.96C42.9441 123.96 42.7636 124.022 42.6052 124.144C42.4556 124.257 42.3499 124.419 42.2883 124.628C42.1827 124.943 42.1299 125.283 42.1299 125.65V128.388H41.2453Z" fill="white"/>
<path d="M5.49113 142.638H4.60652V137.006C4.38647 137.207 4.1004 137.412 3.74832 137.622C3.40503 137.823 3.09696 137.971 2.8241 138.067V137.216C3.31701 136.98 3.74832 136.701 4.118 136.377C4.49649 136.046 4.76496 135.723 4.92339 135.408H5.49113V142.638ZM10.9044 142.638V140.909H7.76207V140.097L11.0761 135.434H11.8022V140.097H12.7793V140.909H11.8022V142.638H10.9044ZM10.9044 140.097V136.862L8.63347 140.097H10.9044ZM14.4693 142.638V141.63H15.4859V142.638H14.4693ZM16.6346 140.975L17.4928 140.896C17.5632 141.298 17.6996 141.59 17.9021 141.774C18.1133 141.948 18.3774 142.036 18.6943 142.036C18.9671 142.036 19.2048 141.975 19.4072 141.852C19.6185 141.721 19.7901 141.556 19.9221 141.355C20.0542 141.145 20.1642 140.866 20.2522 140.516C20.3402 140.158 20.3843 139.796 20.3843 139.429C20.3843 139.386 20.3843 139.325 20.3843 139.246C20.2082 139.525 19.9662 139.757 19.6581 139.94C19.35 140.115 19.0155 140.202 18.6546 140.202C18.0473 140.202 17.5368 139.988 17.1231 139.56C16.7094 139.124 16.5025 138.552 16.5025 137.844C16.5025 137.111 16.7182 136.522 17.1495 136.076C17.5896 135.631 18.1353 135.408 18.7867 135.408C19.2532 135.408 19.6801 135.535 20.0674 135.788C20.4635 136.041 20.7627 136.404 20.9652 136.875C21.1676 137.338 21.2689 138.01 21.2689 138.892C21.2689 139.809 21.1676 140.543 20.9652 141.093C20.7716 141.634 20.4723 142.049 20.0674 142.337C19.6713 142.616 19.2092 142.756 18.6811 142.756C18.1089 142.756 17.6424 142.603 17.2815 142.298C16.9206 141.983 16.705 141.542 16.6346 140.975ZM20.2786 137.792C20.2786 137.286 20.1422 136.884 19.8693 136.587C19.6053 136.29 19.2796 136.142 18.8923 136.142C18.4962 136.142 18.1485 136.303 17.8493 136.626C17.5588 136.941 17.4136 137.355 17.4136 137.871C17.4136 138.325 17.5544 138.696 17.8361 138.984C18.1177 139.272 18.461 139.416 18.8659 139.416C19.2796 139.416 19.6185 139.272 19.8825 138.984C20.1466 138.696 20.2786 138.299 20.2786 137.792ZM22.5892 137.163C22.5892 136.648 22.7168 136.212 22.9721 135.854C23.2361 135.496 23.6146 135.317 24.1075 135.317C24.5652 135.317 24.9437 135.478 25.243 135.801C25.5423 136.124 25.6919 136.596 25.6919 137.216C25.6919 137.827 25.5379 138.299 25.2298 138.63C24.9305 138.953 24.5608 139.115 24.1207 139.115C23.6806 139.115 23.3154 138.953 23.0249 138.63C22.7344 138.307 22.5892 137.818 22.5892 137.163ZM24.1339 135.919C23.9139 135.919 23.7291 136.015 23.5794 136.207C23.4386 136.399 23.3682 136.749 23.3682 137.255C23.3682 137.718 23.4386 138.045 23.5794 138.237C23.7291 138.421 23.9139 138.512 24.1339 138.512C24.3628 138.512 24.5476 138.416 24.6885 138.224C24.8381 138.032 24.9129 137.687 24.9129 137.19C24.9129 136.718 24.8381 136.391 24.6885 136.207C24.5388 136.015 24.354 135.919 24.1339 135.919ZM24.1339 142.9L28.1081 135.317H28.8343L24.8733 142.9H24.1339ZM27.2763 140.949C27.2763 140.433 27.4039 139.997 27.6592 139.639C27.9232 139.281 28.3061 139.102 28.8079 139.102C29.2656 139.102 29.6441 139.263 29.9433 139.586C30.2426 139.901 30.3922 140.372 30.3922 141.001C30.3922 141.612 30.2382 142.084 29.9301 142.416C29.6308 142.739 29.2568 142.9 28.8079 142.9C28.3766 142.9 28.0113 142.739 27.712 142.416C27.4215 142.093 27.2763 141.604 27.2763 140.949ZM28.8343 139.704C28.6054 139.704 28.4162 139.8 28.2665 139.993C28.1257 140.185 28.0553 140.534 28.0553 141.04C28.0553 141.494 28.1301 141.818 28.2797 142.01C28.4294 142.202 28.6142 142.298 28.8343 142.298C29.0543 142.298 29.2392 142.202 29.3888 142.01C29.5384 141.818 29.6132 141.468 29.6132 140.962C29.6132 140.499 29.5384 140.176 29.3888 139.993C29.2392 139.8 29.0543 139.704 28.8343 139.704Z" fill="white"/>
<path d="M1.71509 132.16H93.3976H105.752" stroke="white" stroke-width="1.40034" stroke-miterlimit="10"/>
<path d="M107.442 132.16C107.442 131.234 106.685 130.483 105.752 130.483C104.818 130.483 104.062 131.234 104.062 132.16C104.062 133.086 104.818 133.836 105.752 133.836C106.685 133.836 107.442 133.086 107.442 132.16Z" fill="white"/>
<path d="M1.61032 180.035V172.832H3.06266L4.77907 177.927C4.93751 178.407 5.05193 178.765 5.12235 179.001C5.20157 178.739 5.3292 178.355 5.50524 177.848L7.24805 172.832H8.54196V180.035H7.61774V174.01L5.50524 180.035H4.63384L2.53454 173.906V180.035H1.61032ZM13.4139 179.394C13.0794 179.673 12.7582 179.87 12.4501 179.983C12.1508 180.097 11.8251 180.153 11.4731 180.153C10.8921 180.153 10.4476 180.014 10.1395 179.734C9.83146 179.455 9.67743 179.097 9.67743 178.66C9.67743 178.407 9.73464 178.176 9.84907 177.966C9.9635 177.748 10.1175 177.577 10.3112 177.455C10.5048 177.324 10.7205 177.228 10.9581 177.167C11.1254 177.115 11.3894 177.067 11.7503 177.023C12.4633 176.944 12.9914 176.844 13.3347 176.722C13.3347 176.599 13.3347 176.525 13.3347 176.499C13.3347 176.132 13.2511 175.875 13.0838 175.726C12.855 175.534 12.5161 175.438 12.0672 175.438C11.6535 175.438 11.3454 175.512 11.143 175.661C10.9405 175.8 10.7909 176.054 10.6941 176.42L9.82266 176.303C9.90188 175.936 10.0339 175.639 10.2188 175.412C10.4036 175.185 10.6677 175.01 11.0109 174.888C11.3542 174.766 11.7503 174.705 12.1992 174.705C12.6481 174.705 13.0134 174.757 13.2951 174.862C13.5767 174.967 13.7836 175.098 13.9156 175.255C14.0477 175.412 14.1401 175.613 14.1929 175.857C14.2193 176.006 14.2325 176.276 14.2325 176.669V177.848C14.2325 178.669 14.2501 179.188 14.2853 179.407C14.3293 179.625 14.4085 179.835 14.523 180.035H13.5856C13.4975 179.852 13.4403 179.638 13.4139 179.394ZM13.3347 177.416C13.009 177.547 12.5249 177.66 11.8823 177.756C11.5127 177.809 11.253 177.87 11.1034 177.94C10.9537 178.001 10.8349 178.093 10.7469 178.215C10.6677 178.337 10.6281 178.477 10.6281 178.634C10.6281 178.87 10.7161 179.066 10.8921 179.223C11.077 179.381 11.341 179.459 11.6843 179.459C12.0276 179.459 12.3313 179.385 12.5953 179.236C12.8682 179.088 13.0662 178.883 13.1895 178.621C13.2863 178.42 13.3347 178.128 13.3347 177.743V177.416ZM15.5396 178.477L16.411 178.346C16.4638 178.695 16.6003 178.961 16.8203 179.145C17.0492 179.328 17.3704 179.42 17.7841 179.42C18.189 179.42 18.4883 179.341 18.682 179.184C18.8844 179.018 18.9856 178.822 18.9856 178.595C18.9856 178.394 18.8976 178.237 18.7216 178.123C18.5983 178.045 18.2947 177.944 17.8106 177.822C17.1592 177.656 16.7059 177.516 16.4506 177.403C16.2042 177.281 16.0149 177.115 15.8829 176.905C15.7509 176.695 15.6848 176.46 15.6848 176.198C15.6848 175.971 15.7377 175.757 15.8433 175.556C15.9489 175.355 16.0941 175.189 16.279 175.058C16.4198 174.962 16.6091 174.879 16.8467 174.809C17.0844 174.739 17.344 174.705 17.6257 174.705C18.0306 174.705 18.3871 174.766 18.6952 174.888C19.012 175.001 19.2453 175.159 19.3949 175.359C19.5446 175.56 19.6458 175.827 19.6986 176.158L18.8272 176.276C18.792 176.014 18.6776 175.809 18.4839 175.661C18.2991 175.504 18.0306 175.425 17.6785 175.425C17.2736 175.425 16.9832 175.495 16.8071 175.635C16.6311 175.766 16.5431 175.923 16.5431 176.106C16.5431 176.22 16.5783 176.32 16.6487 176.407C16.7279 176.503 16.8423 176.582 16.992 176.643C17.08 176.678 17.344 176.752 17.7841 176.866C18.4179 177.04 18.858 177.18 19.1045 177.285C19.3509 177.39 19.5446 177.542 19.6854 177.743C19.8262 177.944 19.8966 178.197 19.8966 178.503C19.8966 178.8 19.8086 179.079 19.6326 179.341C19.4653 179.594 19.2189 179.795 18.8932 179.944C18.5675 180.083 18.1978 180.153 17.7841 180.153C17.0976 180.153 16.5739 180.014 16.213 179.734C15.8609 179.446 15.6364 179.027 15.5396 178.477ZM22.907 179.25L23.039 180.022C22.7837 180.075 22.5593 180.101 22.3656 180.101C22.04 180.101 21.7891 180.053 21.613 179.957C21.437 179.852 21.3094 179.717 21.2302 179.551C21.1597 179.385 21.1245 179.036 21.1245 178.503V175.504H20.4776V174.822H21.1245V173.526L22.0091 173.002V174.822H22.907V175.504H22.0091V178.555C22.0091 178.809 22.0223 178.97 22.0488 179.04C22.084 179.11 22.1368 179.167 22.2072 179.21C22.2776 179.254 22.3788 179.276 22.5109 179.276C22.6165 179.276 22.7485 179.267 22.907 179.25ZM27.0923 178.359L28.0166 178.464C27.8757 178.996 27.6073 179.411 27.2112 179.708C26.8151 180.005 26.3134 180.153 25.706 180.153C24.9402 180.153 24.3285 179.918 23.8708 179.446C23.4219 178.975 23.1974 178.315 23.1974 177.468C23.1974 176.595 23.4263 175.918 23.884 175.438C24.3417 174.949 24.9314 174.705 25.6532 174.705C26.3574 174.705 26.9295 174.94 27.3696 175.412C27.8185 175.883 28.043 176.551 28.043 177.416C28.043 177.468 28.043 177.547 28.043 177.652H24.1216C24.1569 178.228 24.3197 178.669 24.6102 178.975C24.9006 179.271 25.2659 179.42 25.706 179.42C26.0317 179.42 26.309 179.337 26.5378 179.171C26.7755 178.996 26.9603 178.726 27.0923 178.359ZM24.1745 176.931H27.1055C27.0703 176.486 26.9603 176.154 26.7755 175.936C26.485 175.595 26.1153 175.425 25.6664 175.425C25.2527 175.425 24.905 175.56 24.6234 175.831C24.3505 176.102 24.2009 176.468 24.1745 176.931ZM29.4029 180.035V174.822H30.2083V175.608C30.4107 175.242 30.5956 175.001 30.7628 174.888C30.9389 174.766 31.1325 174.705 31.3438 174.705C31.643 174.705 31.9467 174.796 32.2548 174.98L31.9511 175.805C31.731 175.674 31.5154 175.608 31.3041 175.608C31.1017 175.608 30.9212 175.669 30.7628 175.792C30.6132 175.905 30.5076 176.067 30.4459 176.276C30.3403 176.591 30.2875 176.931 30.2875 177.298V180.035H29.4029ZM32.4396 178.477L33.311 178.346C33.3638 178.695 33.5003 178.961 33.7203 179.145C33.9492 179.328 34.2704 179.42 34.6841 179.42C35.089 179.42 35.3883 179.341 35.582 179.184C35.7844 179.018 35.8856 178.822 35.8856 178.595C35.8856 178.394 35.7976 178.237 35.6216 178.123C35.4983 178.045 35.1947 177.944 34.7105 177.822C34.0592 177.656 33.6059 177.516 33.3506 177.403C33.1042 177.281 32.9149 177.115 32.7829 176.905C32.6509 176.695 32.5848 176.46 32.5848 176.198C32.5848 175.971 32.6377 175.757 32.7433 175.556C32.8489 175.355 32.9941 175.189 33.179 175.058C33.3198 174.962 33.5091 174.879 33.7467 174.809C33.9844 174.739 34.244 174.705 34.5257 174.705C34.9306 174.705 35.2871 174.766 35.5952 174.888C35.912 175.001 36.1453 175.159 36.2949 175.359C36.4446 175.56 36.5458 175.827 36.5986 176.158L35.7272 176.276C35.692 176.014 35.5775 175.809 35.3839 175.661C35.1991 175.504 34.9306 175.425 34.5785 175.425C34.1736 175.425 33.8831 175.495 33.7071 175.635C33.5311 175.766 33.443 175.923 33.443 176.106C33.443 176.22 33.4783 176.32 33.5487 176.407C33.6279 176.503 33.7423 176.582 33.892 176.643C33.98 176.678 34.244 176.752 34.6841 176.866C35.3179 177.04 35.758 177.18 36.0045 177.285C36.2509 177.39 36.4446 177.542 36.5854 177.743C36.7262 177.944 36.7966 178.197 36.7966 178.503C36.7966 178.8 36.7086 179.079 36.5326 179.341C36.3653 179.594 36.1189 179.795 35.7932 179.944C35.4675 180.083 35.0978 180.153 34.6841 180.153C33.9976 180.153 33.4739 180.014 33.113 179.734C32.7609 179.446 32.5364 179.027 32.4396 178.477Z" fill="white"/>
<path d="M5.96716 193.435V194.286H1.16122C1.16122 194.077 1.19643 193.872 1.26685 193.671C1.39008 193.348 1.58372 193.029 1.84779 192.715C2.12065 192.4 2.51234 192.038 3.02287 191.627C3.81505 190.981 4.34758 190.47 4.62044 190.095C4.90211 189.719 5.04294 189.366 5.04294 189.034C5.04294 188.685 4.91531 188.392 4.66005 188.156C4.40479 187.912 4.07471 187.79 3.66982 187.79C3.23852 187.79 2.89524 187.916 2.63997 188.169C2.38471 188.423 2.25268 188.776 2.24388 189.23L1.33287 189.139C1.39448 188.458 1.62773 187.942 2.03263 187.593C2.44633 187.235 3.00086 187.056 3.69622 187.056C4.39159 187.056 4.94172 187.248 5.34662 187.632C5.75151 188.017 5.95396 188.493 5.95396 189.06C5.95396 189.348 5.89234 189.632 5.76912 189.912C5.65469 190.182 5.45664 190.475 5.17497 190.789C4.90211 191.095 4.4488 191.514 3.81505 192.047C3.27813 192.492 2.93044 192.797 2.77201 192.963C2.62237 193.121 2.49914 193.278 2.40232 193.435H5.96716ZM10.5486 194.286H9.66404V188.654C9.44399 188.855 9.15792 189.06 8.80584 189.27C8.46255 189.471 8.15448 189.619 7.88162 189.715V188.864C8.37453 188.628 8.80584 188.349 9.17552 188.025C9.55401 187.694 9.82248 187.371 9.98091 187.056H10.5486V194.286ZM13.6118 194.286V193.278H14.6284V194.286H13.6118ZM20.2661 188.851L19.3815 188.916C19.3023 188.567 19.1923 188.314 19.0515 188.156C18.805 187.903 18.5057 187.777 18.1536 187.777C17.872 187.777 17.6211 187.855 17.4011 188.012C17.1282 188.222 16.9082 188.523 16.7409 188.916C16.5825 189.3 16.4989 189.85 16.4901 190.566C16.7013 190.243 16.961 190.003 17.269 189.846C17.5859 189.689 17.916 189.61 18.2593 189.61C18.849 189.61 19.3507 189.829 19.7644 190.265C20.1869 190.702 20.3982 191.261 20.3982 191.942C20.3982 192.396 20.297 192.819 20.0945 193.212C19.9009 193.596 19.6324 193.893 19.2891 194.103C18.9458 194.304 18.5585 194.404 18.1272 194.404C17.3791 194.404 16.7717 194.133 16.3052 193.592C15.8387 193.051 15.6054 192.16 15.6054 190.92C15.6054 189.523 15.8651 188.51 16.3844 187.881C16.8333 187.331 17.4407 187.056 18.2065 187.056C18.7786 187.056 19.2451 187.218 19.606 187.541C19.9757 187.855 20.1957 188.292 20.2661 188.851ZM16.6353 191.955C16.6353 192.26 16.6969 192.553 16.8201 192.832C16.9522 193.103 17.1326 193.313 17.3615 193.461C17.5991 193.61 17.85 193.684 18.114 193.684C18.4837 193.684 18.805 193.535 19.0779 193.238C19.3507 192.933 19.4872 192.522 19.4872 192.007C19.4872 191.51 19.3507 191.117 19.0779 190.828C18.8138 190.54 18.4793 190.396 18.0744 190.396C17.6695 190.396 17.3263 190.54 17.0446 190.828C16.7717 191.117 16.6353 191.492 16.6353 191.955ZM21.7317 188.811C21.7317 188.296 21.8593 187.86 22.1146 187.501C22.3787 187.143 22.7571 186.964 23.2501 186.964C23.7078 186.964 24.0863 187.126 24.3855 187.449C24.6848 187.772 24.8344 188.244 24.8344 188.864C24.8344 189.475 24.6804 189.946 24.3723 190.278C24.0731 190.601 23.7034 190.763 23.2633 190.763C22.8232 190.763 22.4579 190.601 22.1674 190.278C21.8769 189.955 21.7317 189.466 21.7317 188.811ZM23.2765 187.567C23.0564 187.567 22.8716 187.663 22.7219 187.855C22.5811 188.047 22.5107 188.397 22.5107 188.903C22.5107 189.366 22.5811 189.693 22.7219 189.885C22.8716 190.069 23.0564 190.16 23.2765 190.16C23.5053 190.16 23.6902 190.064 23.831 189.872C23.9806 189.68 24.0554 189.335 24.0554 188.837C24.0554 188.366 23.9806 188.039 23.831 187.855C23.6814 187.663 23.4965 187.567 23.2765 187.567ZM23.2765 194.548L27.2506 186.964H27.9768L24.0158 194.548H23.2765ZM26.4188 192.597C26.4188 192.081 26.5464 191.645 26.8017 191.287C27.0658 190.929 27.4487 190.75 27.9504 190.75C28.4081 190.75 28.7866 190.911 29.0858 191.234C29.3851 191.549 29.5347 192.02 29.5347 192.649C29.5347 193.26 29.3807 193.732 29.0726 194.064C28.7734 194.387 28.3993 194.548 27.9504 194.548C27.5191 194.548 27.1538 194.387 26.8545 194.064C26.564 193.741 26.4188 193.252 26.4188 192.597ZM27.9768 191.352C27.7479 191.352 27.5587 191.448 27.409 191.64C27.2682 191.833 27.1978 192.182 27.1978 192.688C27.1978 193.142 27.2726 193.465 27.4222 193.658C27.5719 193.85 27.7567 193.946 27.9768 193.946C28.1968 193.946 28.3817 193.85 28.5313 193.658C28.6809 193.465 28.7558 193.116 28.7558 192.61C28.7558 192.147 28.6809 191.824 28.5313 191.64C28.3817 191.448 28.1968 191.352 27.9768 191.352Z" fill="white"/>
<path d="M0.857544 183.808H92.54H176.659" stroke="white" stroke-width="1.40034" stroke-miterlimit="10"/>
<path d="M178.35 183.808C178.35 182.882 177.593 182.131 176.66 182.131C175.726 182.131 174.97 182.882 174.97 183.808C174.97 184.734 175.726 185.484 176.66 185.484C177.593 185.484 178.35 184.734 178.35 183.808Z" fill="white"/>
<path d="M441.77 40.5646V38.8357H438.628V38.0236L441.942 33.3607H442.668V38.0236H443.645V38.8357H442.668V40.5646H441.77ZM441.77 38.0236V34.7884L439.499 38.0236H441.77ZM447.025 39.7788L447.157 40.5515C446.902 40.6039 446.677 40.6301 446.484 40.6301C446.158 40.6301 445.907 40.5821 445.731 40.4861C445.555 40.3813 445.427 40.2459 445.348 40.08C445.278 39.9141 445.243 39.5648 445.243 39.0322V36.0327H444.596V35.3516H445.243V34.0549L446.127 33.531V35.3516H447.025V36.0327H446.127V39.0846C446.127 39.3378 446.14 39.4993 446.167 39.5692C446.202 39.639 446.255 39.6958 446.325 39.7395C446.396 39.7831 446.497 39.805 446.629 39.805C446.735 39.805 446.867 39.7962 447.025 39.7788ZM447.619 40.5646V33.3607H448.504V35.941C448.917 35.4695 449.441 35.2337 450.075 35.2337C450.471 35.2337 450.81 35.3123 451.092 35.4695C451.382 35.6179 451.589 35.8275 451.712 36.0982C451.835 36.3602 451.897 36.7487 451.897 37.2639V40.5646H451.012V37.2639C451.012 36.8186 450.916 36.4955 450.722 36.2947C450.528 36.0938 450.255 35.9934 449.903 35.9934C449.639 35.9934 449.388 36.0633 449.151 36.203C448.922 36.334 448.755 36.5173 448.649 36.7531C448.552 36.9801 448.504 37.2989 448.504 37.7093V40.5646H447.619ZM458.221 40.5646V37.5128L455.422 33.3607H456.597L458.023 35.535C458.287 35.9367 458.534 36.3427 458.763 36.7531C458.983 36.3776 459.247 35.9541 459.555 35.4826L460.967 33.3607H462.077L459.185 37.5128V40.5646H458.221ZM466.42 38.8881L467.345 38.9929C467.204 39.5255 466.935 39.9403 466.539 40.2372C466.143 40.5341 465.641 40.6825 465.034 40.6825C464.268 40.6825 463.656 40.4468 463.199 39.9752C462.75 39.5037 462.525 38.8444 462.525 37.9974C462.525 37.1242 462.754 36.4475 463.212 35.9672C463.67 35.4782 464.259 35.2337 464.981 35.2337C465.685 35.2337 466.258 35.4695 466.698 35.941C467.147 36.4126 467.371 37.0806 467.371 37.945C467.371 37.9974 467.371 38.076 467.371 38.1808H463.45C463.485 38.7571 463.648 39.1981 463.938 39.5037C464.229 39.8006 464.594 39.949 465.034 39.949C465.36 39.949 465.637 39.8661 465.866 39.7002C466.103 39.5255 466.288 39.2548 466.42 38.8881ZM463.502 37.4604H466.434C466.398 37.0151 466.288 36.6833 466.103 36.465C465.813 36.1244 465.443 35.9541 464.994 35.9541C464.581 35.9541 464.233 36.0895 463.951 36.3602C463.679 36.6309 463.529 36.9976 463.502 37.4604ZM472.177 39.9228C471.842 40.2023 471.521 40.3987 471.213 40.5123C470.914 40.6258 470.588 40.6825 470.236 40.6825C469.655 40.6825 469.211 40.5428 468.903 40.2634C468.594 39.984 468.44 39.6259 468.44 39.1893C468.44 38.9361 468.498 38.7047 468.612 38.4952C468.726 38.2769 468.881 38.1066 469.074 37.9843C469.268 37.8533 469.483 37.7573 469.721 37.6962C469.888 37.6438 470.152 37.5958 470.513 37.5521C471.226 37.4735 471.754 37.3731 472.098 37.2508C472.098 37.1286 472.098 37.0544 472.098 37.0282C472.098 36.6614 472.014 36.4038 471.847 36.2554C471.618 36.0633 471.279 35.9672 470.83 35.9672C470.416 35.9672 470.108 36.0415 469.906 36.1899C469.703 36.3296 469.554 36.5828 469.457 36.9496L468.586 36.8317C468.665 36.465 468.797 36.1681 468.982 35.941C469.167 35.714 469.431 35.5394 469.774 35.4171C470.117 35.2949 470.513 35.2337 470.962 35.2337C471.411 35.2337 471.776 35.2861 472.058 35.3909C472.34 35.4957 472.547 35.6267 472.679 35.7839C472.811 35.941 472.903 36.1419 472.956 36.3864C472.982 36.5348 472.995 36.8055 472.995 37.1984V38.3773C472.995 39.1981 473.013 39.7176 473.048 39.9359C473.092 40.1542 473.171 40.3638 473.286 40.5646H472.349C472.26 40.3813 472.203 40.1673 472.177 39.9228ZM472.098 37.945C471.772 38.076 471.288 38.1895 470.645 38.2856C470.276 38.338 470.016 38.3991 469.866 38.469C469.717 38.5301 469.598 38.6218 469.51 38.744C469.431 38.8663 469.391 39.006 469.391 39.1632C469.391 39.3989 469.479 39.5954 469.655 39.7526C469.84 39.9097 470.104 39.9883 470.447 39.9883C470.791 39.9883 471.094 39.9141 471.358 39.7657C471.631 39.6172 471.829 39.412 471.952 39.1501C472.049 38.9492 472.098 38.6567 472.098 38.2725V37.945ZM474.646 40.5646V35.3516H475.451V36.1375C475.654 35.7708 475.839 35.5306 476.006 35.4171C476.182 35.2949 476.375 35.2337 476.587 35.2337C476.886 35.2337 477.19 35.3254 477.498 35.5088L477.194 36.334C476.974 36.203 476.758 36.1375 476.547 36.1375C476.345 36.1375 476.164 36.1986 476.006 36.3209C475.856 36.4344 475.75 36.5959 475.689 36.8055C475.583 37.1199 475.53 37.4604 475.53 37.8272V40.5646H474.646Z" fill="white"/>
<path d="M452.9 53.9638V54.8152H448.094C448.094 54.6056 448.13 54.4004 448.2 54.1996C448.323 53.8765 448.517 53.5578 448.781 53.2434C449.054 52.9291 449.446 52.5667 449.956 52.1563C450.748 51.5101 451.281 50.9993 451.554 50.6238C451.835 50.2484 451.976 49.8947 451.976 49.5629C451.976 49.2136 451.849 48.9211 451.593 48.6853C451.338 48.4408 451.008 48.3186 450.603 48.3186C450.172 48.3186 449.828 48.4452 449.573 48.6984C449.318 48.9516 449.186 49.3053 449.177 49.7594L448.266 49.6677C448.328 48.9866 448.561 48.4714 448.966 48.1221C449.38 47.7641 449.934 47.5851 450.629 47.5851C451.325 47.5851 451.875 47.7772 452.28 48.1614C452.685 48.5456 452.887 49.0215 452.887 49.5891C452.887 49.8772 452.826 50.161 452.702 50.4405C452.588 50.7112 452.39 51.0037 452.108 51.318C451.835 51.6236 451.382 52.0428 450.748 52.5754C450.211 53.0208 449.864 53.3264 449.705 53.4923C449.556 53.6495 449.432 53.8066 449.336 53.9638H452.9ZM456.98 54.8152V53.0863H453.838V52.2742L457.152 47.6113H457.878V52.2742H458.855V53.0863H457.878V54.8152H456.98ZM456.98 52.2742V49.039L454.709 52.2742H456.98ZM460.545 54.8152V53.8066H461.562V54.8152H460.545ZM462.578 52.9291L463.516 52.8505C463.586 53.3046 463.744 53.6451 463.991 53.8721C464.246 54.0992 464.554 54.2127 464.915 54.2127C465.338 54.2127 465.699 54.0511 465.998 53.7281C466.297 53.405 466.447 52.9815 466.447 52.4575C466.447 51.9511 466.301 51.5538 466.011 51.2656C465.729 50.9687 465.355 50.8203 464.889 50.8203C464.607 50.8203 464.347 50.8858 464.11 51.0168C463.881 51.1478 463.7 51.3137 463.568 51.5145L462.737 51.4097L463.436 47.7161H467.054V48.5543H464.149L463.766 50.4928C464.198 50.1872 464.651 50.0344 465.126 50.0344C465.76 50.0344 466.293 50.2527 466.724 50.6893C467.164 51.1259 467.384 51.6891 467.384 52.379C467.384 53.0251 467.195 53.5883 466.816 54.0686C466.35 54.6449 465.716 54.9331 464.915 54.9331C464.255 54.9331 463.714 54.7497 463.291 54.383C462.877 54.0162 462.64 53.5316 462.578 52.9291ZM468.665 49.3402C468.665 48.825 468.792 48.3884 469.048 48.0304C469.312 47.6724 469.69 47.4934 470.183 47.4934C470.641 47.4934 471.019 47.655 471.319 47.978C471.618 48.3011 471.768 48.7726 471.768 49.3926C471.768 50.0039 471.614 50.4754 471.305 50.8072C471.006 51.1303 470.637 51.2918 470.196 51.2918C469.756 51.2918 469.391 51.1303 469.101 50.8072C468.81 50.4841 468.665 49.9951 468.665 49.3402ZM470.21 48.0959C469.99 48.0959 469.805 48.192 469.655 48.3841C469.514 48.5762 469.444 48.9255 469.444 49.4319C469.444 49.8947 469.514 50.2222 469.655 50.4143C469.805 50.5976 469.99 50.6893 470.21 50.6893C470.438 50.6893 470.623 50.5933 470.764 50.4012C470.914 50.2091 470.989 49.8641 470.989 49.3664C470.989 48.8949 470.914 48.5674 470.764 48.3841C470.615 48.192 470.43 48.0959 470.21 48.0959ZM470.21 55.0771L474.184 47.4934H474.91L470.949 55.0771H470.21ZM473.352 53.1255C473.352 52.6104 473.48 52.1738 473.735 51.8157C473.999 51.4577 474.382 51.2787 474.883 51.2787C475.341 51.2787 475.72 51.4403 476.019 51.7634C476.318 52.0777 476.468 52.5492 476.468 53.1779C476.468 53.7892 476.314 54.2607 476.006 54.5925C475.706 54.9156 475.332 55.0771 474.883 55.0771C474.452 55.0771 474.087 54.9156 473.788 54.5925C473.497 54.2694 473.352 53.7804 473.352 53.1255ZM474.91 51.8812C474.681 51.8812 474.492 51.9773 474.342 52.1694C474.201 52.3615 474.131 52.7108 474.131 53.2172C474.131 53.6713 474.206 53.9944 474.355 54.1865C474.505 54.3786 474.69 54.4746 474.91 54.4746C475.13 54.4746 475.315 54.3786 475.464 54.1865C475.614 53.9944 475.689 53.6451 475.689 53.1386C475.689 52.6759 475.614 52.3528 475.464 52.1694C475.315 51.9773 475.13 51.8812 474.91 51.8812Z" fill="white"/>
<path d="M477.365 44.3369H385.683H332.664" stroke="white" stroke-width="1.40034" stroke-miterlimit="10"/>
<path d="M334.354 44.3368C334.354 43.4109 333.597 42.6603 332.664 42.6603C331.731 42.6603 330.974 43.4109 330.974 44.3368C330.974 45.2628 331.731 46.0134 332.664 46.0134C333.597 46.0134 334.354 45.2628 334.354 44.3368Z" fill="white"/>
<path d="M438.073 216.752L438.971 216.634C439.068 217.132 439.239 217.494 439.486 217.721C439.732 217.94 440.032 218.049 440.384 218.049C440.806 218.049 441.163 217.905 441.453 217.617C441.744 217.328 441.889 216.97 441.889 216.542C441.889 216.141 441.752 215.809 441.48 215.547C441.216 215.276 440.877 215.141 440.463 215.141C440.296 215.141 440.084 215.176 439.829 215.246L439.935 214.46C439.996 214.469 440.045 214.473 440.08 214.473C440.459 214.473 440.797 214.377 441.097 214.185C441.405 213.984 441.559 213.678 441.559 213.268C441.559 212.945 441.449 212.679 441.229 212.469C441.009 212.251 440.723 212.142 440.371 212.142C440.027 212.142 439.737 212.251 439.499 212.469C439.27 212.687 439.125 213.01 439.063 213.438L438.166 213.281C438.271 212.696 438.518 212.242 438.905 211.919C439.292 211.587 439.772 211.421 440.344 211.421C440.74 211.421 441.105 211.508 441.44 211.683C441.774 211.849 442.03 212.076 442.206 212.364C442.382 212.652 442.47 212.962 442.47 213.294C442.47 213.6 442.386 213.884 442.219 214.146C442.052 214.399 441.805 214.6 441.48 214.748C441.902 214.844 442.232 215.049 442.47 215.364C442.707 215.669 442.826 216.058 442.826 216.529C442.826 217.158 442.593 217.691 442.127 218.127C441.669 218.564 441.088 218.782 440.384 218.782C439.75 218.782 439.222 218.595 438.799 218.219C438.377 217.835 438.135 217.346 438.073 216.752ZM444.226 218.651V213.438H445.031V214.224C445.234 213.857 445.419 213.617 445.586 213.504C445.762 213.381 445.955 213.32 446.167 213.32C446.466 213.32 446.77 213.412 447.078 213.595L446.774 214.421C446.554 214.29 446.338 214.224 446.127 214.224C445.925 214.224 445.744 214.285 445.586 214.408C445.436 214.521 445.33 214.683 445.269 214.892C445.163 215.206 445.11 215.547 445.11 215.914V218.651H444.226ZM451.025 218.651V217.996C450.691 218.512 450.202 218.769 449.56 218.769C449.137 218.769 448.75 218.656 448.398 218.429C448.046 218.193 447.773 217.87 447.579 217.459C447.386 217.049 447.289 216.577 447.289 216.045C447.289 215.53 447.377 215.058 447.553 214.63C447.729 214.202 447.993 213.879 448.345 213.661C448.697 213.434 449.089 213.32 449.52 213.32C449.837 213.32 450.119 213.386 450.365 213.517C450.612 213.648 450.814 213.818 450.973 214.028V211.447H451.857V218.651H451.025ZM448.213 216.045C448.213 216.717 448.354 217.219 448.636 217.551C448.917 217.874 449.252 218.036 449.639 218.036C450.026 218.036 450.356 217.878 450.629 217.564C450.902 217.25 451.039 216.77 451.039 216.123C451.039 215.407 450.898 214.883 450.616 214.552C450.343 214.22 450.004 214.054 449.599 214.054C449.203 214.054 448.873 214.215 448.609 214.538C448.345 214.853 448.213 215.355 448.213 216.045ZM458.221 218.651V215.599L455.422 211.447H456.597L458.023 213.622C458.287 214.023 458.534 214.429 458.762 214.84C458.982 214.464 459.247 214.041 459.555 213.569L460.967 211.447H462.076L459.185 215.599V218.651H458.221ZM466.42 216.975L467.344 217.08C467.204 217.612 466.935 218.027 466.539 218.324C466.143 218.621 465.641 218.769 465.034 218.769C464.268 218.769 463.656 218.533 463.199 218.062C462.75 217.59 462.525 216.931 462.525 216.084C462.525 215.211 462.754 214.534 463.212 214.054C463.67 213.565 464.259 213.32 464.981 213.32C465.685 213.32 466.257 213.556 466.698 214.028C467.146 214.499 467.371 215.167 467.371 216.032C467.371 216.084 467.371 216.163 467.371 216.267H463.45C463.485 216.844 463.648 217.285 463.938 217.59C464.229 217.887 464.594 218.036 465.034 218.036C465.36 218.036 465.637 217.953 465.866 217.787C466.103 217.612 466.288 217.341 466.42 216.975ZM463.502 215.547H466.433C466.398 215.102 466.288 214.77 466.103 214.552C465.813 214.211 465.443 214.041 464.994 214.041C464.581 214.041 464.233 214.176 463.951 214.447C463.678 214.717 463.529 215.084 463.502 215.547ZM472.177 218.009C471.842 218.289 471.521 218.485 471.213 218.599C470.914 218.712 470.588 218.769 470.236 218.769C469.655 218.769 469.21 218.629 468.902 218.35C468.594 218.071 468.44 217.713 468.44 217.276C468.44 217.023 468.498 216.791 468.612 216.582C468.726 216.363 468.88 216.193 469.074 216.071C469.268 215.94 469.483 215.844 469.721 215.783C469.888 215.73 470.152 215.682 470.513 215.639C471.226 215.56 471.754 215.46 472.098 215.337C472.098 215.215 472.098 215.141 472.098 215.115C472.098 214.748 472.014 214.49 471.847 214.342C471.618 214.15 471.279 214.054 470.83 214.054C470.416 214.054 470.108 214.128 469.906 214.277C469.703 214.416 469.554 214.669 469.457 215.036L468.586 214.918C468.665 214.552 468.797 214.255 468.982 214.028C469.166 213.801 469.431 213.626 469.774 213.504C470.117 213.381 470.513 213.32 470.962 213.32C471.411 213.32 471.776 213.373 472.058 213.478C472.34 213.582 472.546 213.713 472.679 213.87C472.811 214.028 472.903 214.228 472.956 214.473C472.982 214.621 472.995 214.892 472.995 215.285V216.464C472.995 217.285 473.013 217.804 473.048 218.023C473.092 218.241 473.171 218.45 473.286 218.651H472.348C472.26 218.468 472.203 218.254 472.177 218.009ZM472.098 216.032C471.772 216.163 471.288 216.276 470.645 216.372C470.276 216.425 470.016 216.486 469.866 216.556C469.717 216.617 469.598 216.708 469.51 216.831C469.431 216.953 469.391 217.093 469.391 217.25C469.391 217.486 469.479 217.682 469.655 217.839C469.84 217.996 470.104 218.075 470.447 218.075C470.79 218.075 471.094 218.001 471.358 217.852C471.631 217.704 471.829 217.499 471.952 217.237C472.049 217.036 472.098 216.743 472.098 216.359V216.032ZM474.646 218.651V213.438H475.451V214.224C475.654 213.857 475.838 213.617 476.006 213.504C476.182 213.381 476.375 213.32 476.587 213.32C476.886 213.32 477.19 213.412 477.498 213.595L477.194 214.421C476.974 214.29 476.758 214.224 476.547 214.224C476.345 214.224 476.164 214.285 476.006 214.408C475.856 214.521 475.75 214.683 475.689 214.892C475.583 215.206 475.53 215.547 475.53 215.914V218.651H474.646Z" fill="white"/>
<path d="M452.9 232.05V232.902H448.094C448.094 232.692 448.13 232.487 448.2 232.286C448.323 231.963 448.517 231.644 448.781 231.33C449.054 231.016 449.446 230.653 449.956 230.243C450.748 229.597 451.281 229.086 451.554 228.71C451.835 228.335 451.976 227.981 451.976 227.65C451.976 227.3 451.849 227.008 451.593 226.772C451.338 226.527 451.008 226.405 450.603 226.405C450.172 226.405 449.828 226.532 449.573 226.785C449.318 227.038 449.186 227.392 449.177 227.846L448.266 227.754C448.328 227.073 448.561 226.558 448.966 226.209C449.38 225.851 449.934 225.672 450.629 225.672C451.325 225.672 451.875 225.864 452.28 226.248C452.685 226.632 452.887 227.108 452.887 227.676C452.887 227.964 452.826 228.248 452.702 228.527C452.588 228.798 452.39 229.09 452.108 229.405C451.835 229.71 451.382 230.129 450.748 230.662C450.211 231.107 449.864 231.413 449.705 231.579C449.556 231.736 449.432 231.893 449.336 232.05H452.9ZM458.815 232.05V232.902H454.009C454.009 232.692 454.045 232.487 454.115 232.286C454.238 231.963 454.432 231.644 454.696 231.33C454.969 231.016 455.361 230.653 455.871 230.243C456.663 229.597 457.196 229.086 457.469 228.71C457.75 228.335 457.891 227.981 457.891 227.65C457.891 227.3 457.763 227.008 457.508 226.772C457.253 226.527 456.923 226.405 456.518 226.405C456.087 226.405 455.743 226.532 455.488 226.785C455.233 227.038 455.101 227.392 455.092 227.846L454.181 227.754C454.243 227.073 454.476 226.558 454.881 226.209C455.294 225.851 455.849 225.672 456.544 225.672C457.24 225.672 457.79 225.864 458.195 226.248C458.6 226.632 458.802 227.108 458.802 227.676C458.802 227.964 458.741 228.248 458.617 228.527C458.503 228.798 458.305 229.09 458.023 229.405C457.75 229.71 457.297 230.129 456.663 230.662C456.126 231.107 455.779 231.413 455.62 231.579C455.471 231.736 455.347 231.893 455.25 232.05H458.815ZM460.545 232.902V231.893H461.562V232.902H460.545ZM465.43 232.902V231.173H462.288V230.361L465.602 225.698H466.328V230.361H467.305V231.173H466.328V232.902H465.43ZM465.43 230.361V227.126L463.159 230.361H465.43ZM468.665 227.427C468.665 226.912 468.792 226.475 469.048 226.117C469.312 225.759 469.69 225.58 470.183 225.58C470.641 225.58 471.019 225.742 471.319 226.065C471.618 226.388 471.768 226.859 471.768 227.479C471.768 228.091 471.614 228.562 471.305 228.894C471.006 229.217 470.637 229.378 470.196 229.378C469.756 229.378 469.391 229.217 469.101 228.894C468.81 228.571 468.665 228.082 468.665 227.427ZM470.21 226.183C469.99 226.183 469.805 226.279 469.655 226.471C469.514 226.663 469.444 227.012 469.444 227.519C469.444 227.981 469.514 228.309 469.655 228.501C469.805 228.684 469.99 228.776 470.21 228.776C470.438 228.776 470.623 228.68 470.764 228.488C470.914 228.296 470.989 227.951 470.989 227.453C470.989 226.982 470.914 226.654 470.764 226.471C470.615 226.279 470.43 226.183 470.21 226.183ZM470.21 233.164L474.184 225.58H474.91L470.949 233.164H470.21ZM473.352 231.212C473.352 230.697 473.48 230.26 473.735 229.902C473.999 229.544 474.382 229.365 474.883 229.365C475.341 229.365 475.72 229.527 476.019 229.85C476.318 230.164 476.468 230.636 476.468 231.265C476.468 231.876 476.314 232.347 476.006 232.679C475.706 233.002 475.332 233.164 474.883 233.164C474.452 233.164 474.087 233.002 473.788 232.679C473.497 232.356 473.352 231.867 473.352 231.212ZM474.91 229.968C474.681 229.968 474.492 230.064 474.342 230.256C474.201 230.448 474.131 230.797 474.131 231.304C474.131 231.758 474.206 232.081 474.355 232.273C474.505 232.465 474.69 232.561 474.91 232.561C475.13 232.561 475.315 232.465 475.464 232.273C475.614 232.081 475.689 231.732 475.689 231.225C475.689 230.763 475.614 230.439 475.464 230.256C475.315 230.064 475.13 229.968 474.91 229.968Z" fill="white"/>
<path d="M477.366 222.423H385.683H344.658" stroke="white" stroke-width="1.40034" stroke-miterlimit="10"/>
<path d="M346.348 222.424C346.348 221.498 345.592 220.747 344.658 220.747C343.725 220.747 342.968 221.498 342.968 222.424C342.968 223.349 343.725 224.1 344.658 224.1C345.592 224.1 346.348 223.349 346.348 222.424Z" fill="white"/>
</svg>
