<svg width="419" height="93" viewBox="0 0 419 93" fill="none" xmlns="http://www.w3.org/2000/svg">
<rect x="416.214" y="2.42493" width="87.6141" height="25.9898" rx="12.9949" transform="rotate(90 416.214 2.42493)" fill="#E55B42" stroke="#FCFCFC" stroke-width="4" stroke-linejoin="round"/>
<rect x="416.214" y="29.3243" width="60.7146" height="25.9898" rx="12.9949" transform="rotate(90 416.214 29.3243)" fill="#FCFCFC" stroke="#FCFCFC" stroke-width="4" stroke-linejoin="round"/>
<rect x="416.214" y="64.0209" width="26.0182" height="25.9898" rx="12.9949" transform="rotate(90 416.214 64.0209)" fill="#F98548" stroke="#FCFCFC" stroke-width="4" stroke-linejoin="round"/>
<rect x="-2" y="-2" width="87.6141" height="25.9898" rx="12.9949" transform="matrix(4.37114e-08 -1 -1 -4.37114e-08 388.333 88.0393)" fill="#E55B42" stroke="#FCFCFC" stroke-width="4" stroke-linejoin="round"/>
<rect x="-2" y="-2" width="60.7146" height="25.9898" rx="12.9949" transform="matrix(4.37114e-08 -1 -1 -4.37114e-08 388.333 61.1399)" fill="#F98548" stroke="#FCFCFC" stroke-width="4" stroke-linejoin="round"/>
<rect x="-2" y="-2" width="26.0182" height="25.9898" rx="12.9949" transform="matrix(4.37114e-08 -1 -1 -4.37114e-08 388.333 26.4435)" fill="#FCFCFC" stroke="#FCFCFC" stroke-width="4" stroke-linejoin="round"/>
<rect x="364.451" y="2.42493" width="87.6141" height="25.9898" rx="12.9949" transform="rotate(90 364.451 2.42493)" fill="#E55B42" stroke="#FCFCFC" stroke-width="4" stroke-linejoin="round"/>
<rect x="364.451" y="29.3243" width="60.7146" height="25.9898" rx="12.9949" transform="rotate(90 364.451 29.3243)" fill="#FCFCFC" stroke="#FCFCFC" stroke-width="4" stroke-linejoin="round"/>
<rect x="364.451" y="64.0209" width="26.0182" height="25.9898" rx="12.9949" transform="rotate(90 364.451 64.0209)" fill="#F98548" stroke="#FCFCFC" stroke-width="4" stroke-linejoin="round"/>
<rect x="-2" y="-2" width="87.6141" height="25.9898" rx="12.9949" transform="matrix(4.37114e-08 -1 -1 -4.37114e-08 336.569 88.0393)" fill="#E55B42" stroke="#FCFCFC" stroke-width="4" stroke-linejoin="round"/>
<rect x="-2" y="-2" width="60.7146" height="25.9898" rx="12.9949" transform="matrix(4.37114e-08 -1 -1 -4.37114e-08 336.569 61.1399)" fill="#F98548" stroke="#FCFCFC" stroke-width="4" stroke-linejoin="round"/>
<rect x="-2" y="-2" width="26.0182" height="25.9898" rx="12.9949" transform="matrix(4.37114e-08 -1 -1 -4.37114e-08 336.569 26.4435)" fill="#FCFCFC" stroke="#FCFCFC" stroke-width="4" stroke-linejoin="round"/>
<rect x="312.688" y="2.42493" width="87.6141" height="25.9898" rx="12.9949" transform="rotate(90 312.688 2.42493)" fill="#E55B42" stroke="#FCFCFC" stroke-width="4" stroke-linejoin="round"/>
<rect x="312.688" y="29.3243" width="60.7146" height="25.9898" rx="12.9949" transform="rotate(90 312.688 29.3243)" fill="#FCFCFC" stroke="#FCFCFC" stroke-width="4" stroke-linejoin="round"/>
<rect x="312.688" y="64.0209" width="26.0182" height="25.9898" rx="12.9949" transform="rotate(90 312.688 64.0209)" fill="#F98548" stroke="#FCFCFC" stroke-width="4" stroke-linejoin="round"/>
<rect x="-2" y="-2" width="87.6141" height="25.9898" rx="12.9949" transform="matrix(4.37114e-08 -1 -1 -4.37114e-08 284.806 88.0393)" fill="#E55B42" stroke="#FCFCFC" stroke-width="4" stroke-linejoin="round"/>
<rect x="-2" y="-2" width="60.7146" height="25.9898" rx="12.9949" transform="matrix(4.37114e-08 -1 -1 -4.37114e-08 284.806 61.1399)" fill="#F98548" stroke="#FCFCFC" stroke-width="4" stroke-linejoin="round"/>
<rect x="-2" y="-2" width="26.0182" height="25.9898" rx="12.9949" transform="matrix(4.37114e-08 -1 -1 -4.37114e-08 284.806 26.4435)" fill="#FCFCFC" stroke="#FCFCFC" stroke-width="4" stroke-linejoin="round"/>
<rect x="260.924" y="2.42493" width="87.6141" height="25.9898" rx="12.9949" transform="rotate(90 260.924 2.42493)" fill="#E55B42" stroke="#FCFCFC" stroke-width="4" stroke-linejoin="round"/>
<rect x="260.924" y="29.3243" width="60.7146" height="25.9898" rx="12.9949" transform="rotate(90 260.924 29.3243)" fill="#FCFCFC" stroke="#FCFCFC" stroke-width="4" stroke-linejoin="round"/>
<rect x="260.924" y="64.0209" width="26.0182" height="25.9898" rx="12.9949" transform="rotate(90 260.924 64.0209)" fill="#F98548" stroke="#FCFCFC" stroke-width="4" stroke-linejoin="round"/>
<rect x="-2" y="-2" width="87.6141" height="25.9898" rx="12.9949" transform="matrix(4.37114e-08 -1 -1 -4.37114e-08 233.043 88.0393)" fill="#E55B42" stroke="#FCFCFC" stroke-width="4" stroke-linejoin="round"/>
<rect x="-2" y="-2" width="60.7146" height="25.9898" rx="12.9949" transform="matrix(4.37114e-08 -1 -1 -4.37114e-08 233.043 61.1399)" fill="#F98548" stroke="#FCFCFC" stroke-width="4" stroke-linejoin="round"/>
<rect x="-2" y="-2" width="26.0182" height="25.9898" rx="12.9949" transform="matrix(4.37114e-08 -1 -1 -4.37114e-08 233.043 26.4435)" fill="#FCFCFC" stroke="#FCFCFC" stroke-width="4" stroke-linejoin="round"/>
<rect x="209.161" y="2.42493" width="87.6141" height="25.9898" rx="12.9949" transform="rotate(90 209.161 2.42493)" fill="#E55B42" stroke="#FCFCFC" stroke-width="4" stroke-linejoin="round"/>
<rect x="209.162" y="29.3243" width="60.7146" height="25.9898" rx="12.9949" transform="rotate(90 209.162 29.3243)" fill="#FCFCFC" stroke="#FCFCFC" stroke-width="4" stroke-linejoin="round"/>
<rect x="209.162" y="64.0209" width="26.0182" height="25.9898" rx="12.9949" transform="rotate(90 209.162 64.0209)" fill="#F98548" stroke="#FCFCFC" stroke-width="4" stroke-linejoin="round"/>
<rect x="-2" y="-2" width="87.6141" height="25.9898" rx="12.9949" transform="matrix(4.37114e-08 -1 -1 -4.37114e-08 181.28 88.0393)" fill="#E55B42" stroke="#FCFCFC" stroke-width="4" stroke-linejoin="round"/>
<rect x="-2" y="-2" width="60.7146" height="25.9898" rx="12.9949" transform="matrix(4.37114e-08 -1 -1 -4.37114e-08 181.28 61.1399)" fill="#F98548" stroke="#FCFCFC" stroke-width="4" stroke-linejoin="round"/>
<rect x="-2" y="-2" width="26.0182" height="25.9898" rx="12.9949" transform="matrix(4.37114e-08 -1 -1 -4.37114e-08 181.28 26.4435)" fill="#FCFCFC" stroke="#FCFCFC" stroke-width="4" stroke-linejoin="round"/>
<rect x="157.398" y="2.42493" width="87.6141" height="25.9898" rx="12.9949" transform="rotate(90 157.398 2.42493)" fill="#E55B42" stroke="#FCFCFC" stroke-width="4" stroke-linejoin="round"/>
<rect x="157.398" y="29.3243" width="60.7146" height="25.9898" rx="12.9949" transform="rotate(90 157.398 29.3243)" fill="#FCFCFC" stroke="#FCFCFC" stroke-width="4" stroke-linejoin="round"/>
<rect x="157.398" y="64.0209" width="26.0182" height="25.9898" rx="12.9949" transform="rotate(90 157.398 64.0209)" fill="#F98548" stroke="#FCFCFC" stroke-width="4" stroke-linejoin="round"/>
<rect x="-2" y="-2" width="87.6141" height="25.9898" rx="12.9949" transform="matrix(4.37114e-08 -1 -1 -4.37114e-08 129.516 88.0393)" fill="#E55B42" stroke="#FCFCFC" stroke-width="4" stroke-linejoin="round"/>
<rect x="-2" y="-2" width="60.7146" height="25.9898" rx="12.9949" transform="matrix(4.37114e-08 -1 -1 -4.37114e-08 129.516 61.1399)" fill="#F98548" stroke="#FCFCFC" stroke-width="4" stroke-linejoin="round"/>
<rect x="-2" y="-2" width="26.0182" height="25.9898" rx="12.9949" transform="matrix(4.37114e-08 -1 -1 -4.37114e-08 129.516 26.4435)" fill="#FCFCFC" stroke="#FCFCFC" stroke-width="4" stroke-linejoin="round"/>
<rect x="105.635" y="2.42493" width="87.6141" height="25.9898" rx="12.9949" transform="rotate(90 105.635 2.42493)" fill="#E55B42" stroke="#FCFCFC" stroke-width="4" stroke-linejoin="round"/>
<rect x="105.635" y="29.3243" width="60.7146" height="25.9898" rx="12.9949" transform="rotate(90 105.635 29.3243)" fill="#FCFCFC" stroke="#FCFCFC" stroke-width="4" stroke-linejoin="round"/>
<rect x="105.635" y="64.0209" width="26.0182" height="25.9898" rx="12.9949" transform="rotate(90 105.635 64.0209)" fill="#F98548" stroke="#FCFCFC" stroke-width="4" stroke-linejoin="round"/>
<rect x="-2" y="-2" width="87.6141" height="25.9898" rx="12.9949" transform="matrix(4.37114e-08 -1 -1 -4.37114e-08 77.7533 88.0393)" fill="#E55B42" stroke="#FCFCFC" stroke-width="4" stroke-linejoin="round"/>
<rect x="-2" y="-2" width="60.7146" height="25.9898" rx="12.9949" transform="matrix(4.37114e-08 -1 -1 -4.37114e-08 77.7533 61.1399)" fill="#F98548" stroke="#FCFCFC" stroke-width="4" stroke-linejoin="round"/>
<rect x="-2" y="-2" width="26.0182" height="25.9898" rx="12.9949" transform="matrix(4.37114e-08 -1 -1 -4.37114e-08 77.7533 26.4435)" fill="#FCFCFC" stroke="#FCFCFC" stroke-width="4" stroke-linejoin="round"/>
<rect x="53.8715" y="2.42493" width="87.6141" height="25.9898" rx="12.9949" transform="rotate(90 53.8715 2.42493)" fill="#E55B42" stroke="#FCFCFC" stroke-width="4" stroke-linejoin="round"/>
<rect x="53.8715" y="29.3243" width="60.7146" height="25.9898" rx="12.9949" transform="rotate(90 53.8715 29.3243)" fill="#FCFCFC" stroke="#FCFCFC" stroke-width="4" stroke-linejoin="round"/>
<rect x="53.8715" y="64.0209" width="26.0182" height="25.9898" rx="12.9949" transform="rotate(90 53.8715 64.0209)" fill="#F98548" stroke="#FCFCFC" stroke-width="4" stroke-linejoin="round"/>
<rect x="-2" y="-2" width="87.6141" height="25.9898" rx="12.9949" transform="matrix(4.37114e-08 -1 -1 -4.37114e-08 25.99 88.0393)" fill="#E55B42" stroke="#FCFCFC" stroke-width="4" stroke-linejoin="round"/>
<rect x="-2" y="-2" width="60.7146" height="25.9898" rx="12.9949" transform="matrix(4.37114e-08 -1 -1 -4.37114e-08 25.9901 61.1399)" fill="#F98548" stroke="#FCFCFC" stroke-width="4" stroke-linejoin="round"/>
<rect x="-2" y="-2" width="26.0182" height="25.9898" rx="12.9949" transform="matrix(4.37114e-08 -1 -1 -4.37114e-08 25.9901 26.4435)" fill="#FCFCFC" stroke="#FCFCFC" stroke-width="4" stroke-linejoin="round"/>
</svg>
