<svg width="118" height="200" viewBox="0 0 118 200" fill="none" xmlns="http://www.w3.org/2000/svg">
<rect y="4.49585" width="117.955" height="195.463" rx="4.84707" fill="#64CD6E"/>
<rect x="4.40657" y="10.6325" width="108.466" height="182.061" rx="3.41719" fill="#64CD6E" stroke="black" stroke-width="2.85977"/>
<path d="M88.2111 80.5817C88.2111 82.5848 75.0496 84.3783 55.8072 84.3783C36.5649 84.3783 22.8178 82.7417 22.8178 80.7385C21.0732 78.7587 36.5649 77.1243 55.8072 77.1243C75.0496 77.1243 89.2696 78.3862 88.2111 80.5817Z" fill="black"/>
<path d="M35.5469 66.7421L34.2843 67.0537C34.9288 68.9416 36.4779 73.2161 37.5189 75.2107C38.56 77.2054 40.1164 76.3392 41.0704 75.7382L42.399 74.6629L45.8925 71.6005C45.07 72.7167 44.8431 75.7777 46.0501 76.9388C47.0954 77.9444 48.2136 77.4677 48.6993 75.8233C49.0293 74.7058 48.73 72.2853 48.6188 71.2945C48.2868 68.3373 46.8847 68.8806 44.1983 70.772C43.9718 70.9672 42.5165 72.1438 40.1273 74.2234C38.8447 75.3398 38.4489 74.2729 38.2271 73.773L35.5469 66.7421Z" fill="#E55B42" stroke="black" stroke-width="0.443329"/>
<path d="M65.9997 67.1208L64.7372 67.4323C65.3816 69.3202 66.9308 73.5947 67.9718 75.5894C69.0129 77.5841 70.5693 76.7179 71.5232 76.1169L72.8519 75.0416L76.3454 71.9792C75.5229 73.0954 75.296 76.1564 76.5029 77.3175C77.5483 78.3231 78.6665 77.8463 79.1522 76.202C79.4822 75.0845 79.1829 72.6639 79.0717 71.6731C78.7397 68.716 77.3376 69.2592 74.6512 71.1506C74.4247 71.3458 72.9694 72.5225 70.5802 74.602C69.2976 75.7184 68.9018 74.6515 68.68 74.1516L65.9997 67.1208Z" fill="#E55B42" stroke="black" stroke-width="0.443329"/>
<mask id="path-6-inside-1" fill="white">
<path fill-rule="evenodd" clip-rule="evenodd" d="M84.4283 22.7149L78.2267 22.3024L54.4363 20.7523L48.2347 20.3398C45.281 31.5999 44.2621 38.9701 44.434 49.4068C43.0653 48.8516 41.5483 48.4955 39.9344 48.3881C33.0974 47.9333 27.1103 52.1144 26.5619 57.7268C26.0135 63.3392 31.1113 68.2576 37.9483 68.7124C44.2177 69.1294 49.7725 65.6484 51.0744 60.7401C51.2283 60.3066 51.3311 59.8538 51.3768 59.386C51.4214 58.9295 51.4095 58.48 51.346 58.042C51.2913 57.1342 51.0901 56.2538 50.7602 55.4179C49.7708 43.8773 50.4755 36.7388 52.5713 27.9153L76.4936 29.5066C74.8552 37.1615 74.2838 43.4269 74.4295 51.5741C73.0396 50.9997 71.4943 50.6315 69.8483 50.522C63.0113 50.0672 57.0242 54.2483 56.4758 59.8607C55.9274 65.4731 61.0253 70.3915 67.8622 70.8463C74.6992 71.3011 80.6863 67.12 81.2347 61.5076C81.3577 60.2488 81.1967 59.025 80.7957 57.8786C79.4788 43.0749 80.896 35.4977 84.4283 22.7149ZM78.2183 22.3346L78.2267 22.3024L54.4362 20.7527L78.2183 22.3346Z"/>
</mask>
<path fill-rule="evenodd" clip-rule="evenodd" d="M84.4283 22.7149L78.2267 22.3024L54.4363 20.7523L48.2347 20.3398C45.281 31.5999 44.2621 38.9701 44.434 49.4068C43.0653 48.8516 41.5483 48.4955 39.9344 48.3881C33.0974 47.9333 27.1103 52.1144 26.5619 57.7268C26.0135 63.3392 31.1113 68.2576 37.9483 68.7124C44.2177 69.1294 49.7725 65.6484 51.0744 60.7401C51.2283 60.3066 51.3311 59.8538 51.3768 59.386C51.4214 58.9295 51.4095 58.48 51.346 58.042C51.2913 57.1342 51.0901 56.2538 50.7602 55.4179C49.7708 43.8773 50.4755 36.7388 52.5713 27.9153L76.4936 29.5066C74.8552 37.1615 74.2838 43.4269 74.4295 51.5741C73.0396 50.9997 71.4943 50.6315 69.8483 50.522C63.0113 50.0672 57.0242 54.2483 56.4758 59.8607C55.9274 65.4731 61.0253 70.3915 67.8622 70.8463C74.6992 71.3011 80.6863 67.12 81.2347 61.5076C81.3577 60.2488 81.1967 59.025 80.7957 57.8786C79.4788 43.0749 80.896 35.4977 84.4283 22.7149ZM78.2183 22.3346L78.2267 22.3024L54.4362 20.7527L78.2183 22.3346Z" fill="#E55B42"/>
<path d="M54.4176 21.0389L78.208 22.589L78.2454 22.0159L54.455 20.4657L54.4176 21.0389ZM78.2267 22.3024L78.2648 21.7293L78.264 21.7293L78.2267 22.3024ZM84.4283 22.7149L84.9819 22.8679L85.1696 22.1886L84.4664 22.1419L84.4283 22.7149ZM54.4363 20.7523L54.3982 21.3254L54.399 21.3254L54.4363 20.7523ZM48.2347 20.3398L48.2728 19.7667L47.7995 19.7352L47.6792 20.194L48.2347 20.3398ZM44.434 49.4068L44.2181 49.939L45.0225 50.2653L45.0083 49.3973L44.434 49.4068ZM39.9344 48.3881L39.8962 48.9612L39.8962 48.9612L39.9344 48.3881ZM37.9483 68.7124L37.9102 69.2855L37.9102 69.2855L37.9483 68.7124ZM51.0744 60.7401L50.5331 60.548L50.5253 60.5701L50.5193 60.5928L51.0744 60.7401ZM51.3768 59.386L50.8052 59.3302L50.8052 59.3302L51.3768 59.386ZM51.346 58.042L50.7727 58.0765L50.7742 58.1006L50.7776 58.1244L51.346 58.042ZM50.7602 55.4179L50.188 55.467L50.1952 55.5507L50.226 55.6288L50.7602 55.4179ZM52.5713 27.9153L52.6094 27.3423L52.1247 27.31L52.0125 27.7826L52.5713 27.9153ZM76.4936 29.5066L77.0552 29.6268L77.1942 28.9776L76.5317 28.9335L76.4936 29.5066ZM74.4295 51.5741L74.2101 52.1049L75.0194 52.4393L75.0037 51.5638L74.4295 51.5741ZM69.8483 50.522L69.8101 51.0951L69.8102 51.0951L69.8483 50.522ZM67.8622 70.8463L67.8241 71.4194L67.8241 71.4194L67.8622 70.8463ZM81.2347 61.5076L80.6631 61.4518L80.6631 61.4518L81.2347 61.5076ZM80.7957 57.8786L80.2236 57.9295L80.23 58.0007L80.2536 58.0682L80.7957 57.8786ZM78.2183 22.3346L78.1801 22.9077L78.6535 22.9392L78.7738 22.4803L78.2183 22.3346ZM54.4362 20.7527L54.4735 20.1795L54.3981 21.3257L54.4362 20.7527ZM78.1886 22.8755L84.3902 23.288L84.4664 22.1419L78.2648 21.7293L78.1886 22.8755ZM54.399 21.3254L78.1894 22.8755L78.264 21.7293L54.4737 20.1792L54.399 21.3254ZM48.1966 20.9128L54.3982 21.3254L54.4744 20.1792L48.2728 19.7667L48.1966 20.9128ZM45.0083 49.3973C44.8374 39.0215 45.8475 31.7039 48.7903 20.4855L47.6792 20.194C44.7145 31.4959 43.6868 38.9187 43.8597 49.4162L45.0083 49.3973ZM39.8962 48.9612C41.4501 49.0646 42.907 49.4071 44.2181 49.939L44.6499 48.8746C43.2236 48.296 41.6465 47.9264 39.9725 47.815L39.8962 48.9612ZM27.1335 57.7827C27.6425 52.5737 33.2643 48.52 39.8962 48.9612L39.9725 47.815C32.9305 47.3466 26.5781 51.6551 25.9903 57.6709L27.1335 57.7827ZM37.9865 68.1393C31.3582 67.6984 26.6268 62.9686 27.1335 57.7827L25.9903 57.6709C25.4002 63.7098 30.8645 68.8168 37.9102 69.2855L37.9865 68.1393ZM50.5193 60.5928C49.3054 65.1691 44.0566 68.5431 37.9865 68.1393L37.9102 69.2855C44.3789 69.7158 50.2396 66.1276 51.6295 60.8873L50.5193 60.5928ZM50.8052 59.3302C50.7641 59.7504 50.6717 60.1575 50.5331 60.548L51.6157 60.9322C51.7848 60.4557 51.8981 59.9572 51.9484 59.4419L50.8052 59.3302ZM50.7776 58.1244C50.8346 58.5169 50.8453 58.9201 50.8052 59.3302L51.9484 59.4419C51.9976 58.939 51.9845 58.443 51.9144 57.9595L50.7776 58.1244ZM50.226 55.6288C50.5345 56.4104 50.7218 57.2314 50.7727 58.0765L51.9193 58.0074C51.8609 57.037 51.6458 56.0972 51.2945 55.2071L50.226 55.6288ZM52.0125 27.7826C49.9023 36.6665 49.1934 43.8665 50.188 55.467L51.3325 55.3689C50.3482 43.8881 51.0487 36.811 53.1301 28.0481L52.0125 27.7826ZM76.5317 28.9335L52.6094 27.3423L52.5331 28.4884L76.4555 30.0797L76.5317 28.9335ZM75.0037 51.5638C74.8588 43.4575 75.4266 37.236 77.0552 29.6268L75.932 29.3864C74.2838 37.0869 73.7088 43.3963 73.8552 51.5843L75.0037 51.5638ZM69.8102 51.0951C71.3949 51.2005 72.8789 51.5548 74.2101 52.1049L74.6488 51.0433C73.2003 50.4447 71.5937 50.0625 69.8864 49.9489L69.8102 51.0951ZM57.0474 59.9165C57.5564 54.7076 63.1782 50.6539 69.8101 51.0951L69.8864 49.9489C62.8444 49.4805 56.492 53.789 55.9042 59.8048L57.0474 59.9165ZM67.9004 70.2732C61.2721 69.8323 56.5407 65.1025 57.0474 59.9165L55.9042 59.8048C55.3141 65.8437 60.7784 70.9507 67.8241 71.4194L67.9004 70.2732ZM80.6631 61.4518C80.1541 66.6607 74.5323 70.7144 67.9004 70.2732L67.8241 71.4194C74.8661 71.8878 81.2185 67.5793 81.8063 61.5635L80.6631 61.4518ZM80.2536 58.0682C80.6279 59.1385 80.7777 60.2787 80.6631 61.4518L81.8063 61.5635C81.9377 60.219 81.7655 58.9115 81.3379 57.689L80.2536 58.0682ZM83.8747 22.562C80.3301 35.3891 78.8989 43.0378 80.2236 57.9295L81.3678 57.8277C80.0587 43.112 81.4618 35.6063 84.9819 22.8679L83.8747 22.562ZM77.6711 22.1568L77.6627 22.1889L78.7738 22.4803L78.7823 22.4481L77.6711 22.1568ZM54.3989 21.3258L78.1894 22.8755L78.264 21.7293L54.4735 20.1795L54.3989 21.3258ZM78.2564 21.7615L54.4743 20.1796L54.3981 21.3257L78.1801 22.9077L78.2564 21.7615Z" fill="black" mask="url(#path-6-inside-1)"/>
<path d="M36.5329 79.5589C36.9643 75.8334 39.4908 69.3097 40.7002 66.5135L41.9757 66.0838C39.8769 71.6171 38.3357 75.9713 37.2845 82.032C37.0942 83.1286 32.4964 81.8302 31.1218 80.699C29.7473 79.5677 30.9193 76.2041 36.5329 79.5589Z" fill="#E55B42" stroke="black" stroke-width="0.443329"/>
<path d="M40.5083 66.0288L40.2458 66.955L42.1989 66.4132L42.4417 65.6781L40.5083 66.0288Z" fill="#E55B42"/>
<path d="M66.9864 79.9402C67.4178 76.2148 69.9443 69.691 71.1537 66.8949L72.4292 66.4651C70.3304 71.9985 68.7892 76.3527 67.7379 82.4134C67.5477 83.51 62.9499 82.2116 61.5753 81.0803C60.2008 79.9491 61.3728 76.5854 66.9864 79.9402Z" fill="#E55B42" stroke="black" stroke-width="0.443329"/>
<path d="M70.9608 66.4302L70.6983 67.3564L72.6704 66.7327L72.9305 65.9331L70.9608 66.4302Z" fill="#E55B42"/>
<path d="M35.6365 56.2583C35.5759 57.1305 35.254 57.8915 34.7952 58.418C34.3365 58.9444 33.7536 59.2252 33.1558 59.1837C32.5579 59.1421 32.0195 58.7832 31.6381 58.1985C31.2566 57.6136 31.0432 56.8154 31.1038 55.9432C31.1645 55.071 31.4863 54.31 31.9451 53.7835C32.4038 53.2572 32.9867 52.9763 33.5845 53.0179C34.1824 53.0594 34.7208 53.4183 35.1022 54.003C35.4837 54.588 35.6971 55.3862 35.6365 56.2583Z" fill="white" stroke="black" stroke-width="0.531163"/>
<mask id="path-13-inside-2" fill="white">
<path fill-rule="evenodd" clip-rule="evenodd" d="M33.0583 58.4783C32.6435 58.4494 32.343 57.9098 32.3873 57.2731C32.4316 56.6363 32.8038 56.1435 33.2187 56.1724C33.5603 56.1961 33.8244 56.5663 33.8822 57.0519L33.3308 57.3211L33.8451 57.6677C33.7264 58.1573 33.4075 58.5026 33.0583 58.4783Z"/>
</mask>
<path fill-rule="evenodd" clip-rule="evenodd" d="M33.0583 58.4783C32.6435 58.4494 32.343 57.9098 32.3873 57.2731C32.4316 56.6363 32.8038 56.1435 33.2187 56.1724C33.5603 56.1961 33.8244 56.5663 33.8822 57.0519L33.3308 57.3211L33.8451 57.6677C33.7264 58.1573 33.4075 58.5026 33.0583 58.4783Z" fill="black"/>
<path d="M33.8822 57.0519L34.058 57.031L34.0729 57.1559L33.9599 57.211L33.8822 57.0519ZM33.3308 57.3211L33.2318 57.4679L32.9775 57.2966L33.2531 57.162L33.3308 57.3211ZM33.8451 57.6677L33.944 57.5209L34.0462 57.5897L34.0172 57.7094L33.8451 57.6677ZM32.564 57.2854C32.5438 57.5745 32.6029 57.8335 32.7053 58.0175C32.8087 58.2032 32.9425 58.2927 33.0706 58.3016L33.046 58.6549C32.7593 58.635 32.5354 58.4403 32.396 58.1898C32.2555 57.9376 32.1865 57.6084 32.2107 57.2608L32.564 57.2854ZM33.2064 56.349C33.0783 56.3401 32.9334 56.4102 32.8053 56.5798C32.6784 56.7479 32.5841 56.9962 32.564 57.2854L32.2107 57.2608C32.2349 56.9132 32.3488 56.5967 32.5227 56.3664C32.6955 56.1376 32.9442 55.9758 33.2309 55.9957L33.2064 56.349ZM33.7064 57.0728C33.6804 56.8545 33.6089 56.6714 33.5147 56.5445C33.4208 56.418 33.3126 56.3564 33.2064 56.349L33.2309 55.9957C33.4665 56.0121 33.661 56.1475 33.7991 56.3334C33.9368 56.519 34.0262 56.7637 34.058 57.031L33.7064 57.0728ZM33.9599 57.211L33.4085 57.4802L33.2531 57.162L33.8045 56.8928L33.9599 57.211ZM33.4297 57.1743L33.944 57.5209L33.7461 57.8146L33.2318 57.4679L33.4297 57.1743ZM33.0706 58.3016C33.179 58.3092 33.2977 58.2609 33.4102 58.1433C33.523 58.0254 33.6196 57.8465 33.673 57.626L34.0172 57.7094C33.9519 57.9786 33.8297 58.217 33.6661 58.3881C33.5022 58.5594 33.2868 58.6716 33.046 58.6549L33.0706 58.3016Z" fill="black" mask="url(#path-13-inside-2)"/>
<path d="M31.1305 55.6788C31.2318 54.9175 31.5333 54.2561 31.9451 53.7835C32.4038 53.2572 32.9867 52.9763 33.5845 53.0179C34.1824 53.0594 34.7208 53.4183 35.1022 54.003C35.4447 54.528 35.6517 55.2249 35.6466 55.9928L35.6465 55.9928L35.6375 55.9922L35.6285 55.9916L35.6196 55.991L35.6108 55.9903L35.602 55.9897L35.5932 55.9891L35.5845 55.9885L35.5758 55.9879L35.5672 55.9873L35.5587 55.9867L35.5502 55.9861L35.5417 55.9855L35.5333 55.985L35.5249 55.9844L35.5166 55.9838L35.5084 55.9832L35.5001 55.9826L35.492 55.9821L35.4838 55.9815L35.4758 55.9809L35.4677 55.9804L35.4597 55.9798L35.4518 55.9793L35.4439 55.9787L35.436 55.9782L35.4282 55.9776L35.4205 55.9771L35.4128 55.9766L35.4051 55.976L35.3975 55.9755L35.3899 55.975L35.3824 55.9745L35.3749 55.9739L35.3674 55.9734L35.36 55.9729L35.3527 55.9724L35.3454 55.9719L35.3381 55.9714L35.3309 55.9709L35.3237 55.9704L35.3165 55.9699L35.3094 55.9694L35.3024 55.9689L35.2954 55.9684L35.2884 55.9679L35.2814 55.9674L35.2745 55.967L35.2677 55.9665L35.2609 55.966L35.2541 55.9655L35.2474 55.9651L35.2407 55.9646L35.234 55.9641L35.2274 55.9637L35.2209 55.9632L35.2143 55.9628L35.2079 55.9623L35.2014 55.9619L35.195 55.9614L35.1886 55.961L35.1823 55.9605L35.176 55.9601L35.1697 55.9597L35.1635 55.9592L35.1573 55.9588L35.1512 55.9584L35.1451 55.958L35.139 55.9575L35.133 55.9571L35.127 55.9567L35.121 55.9563L35.1151 55.9559L35.1092 55.9555L35.1033 55.9551L35.0975 55.9546L35.0917 55.9542L35.086 55.9538L35.0803 55.9534L35.0746 55.9531L35.069 55.9527L35.0633 55.9523L35.0578 55.9519L35.0522 55.9515L35.0467 55.9511L35.0413 55.9507L35.0358 55.9504L35.0304 55.95L35.025 55.9496L35.0197 55.9492L35.0144 55.9489L35.0091 55.9485L35.0039 55.9481L34.9987 55.9478L34.9935 55.9474L34.9884 55.9471L34.9832 55.9467L34.9782 55.9463L34.9731 55.946L34.9681 55.9456L34.9631 55.9453L34.9581 55.945L34.9532 55.9446L34.9483 55.9443L34.9434 55.9439L34.9386 55.9436L34.9338 55.9433L34.929 55.9429L34.9242 55.9426L34.9195 55.9423L34.9148 55.9419L34.9102 55.9416L34.9055 55.9413L34.9009 55.941L34.8963 55.9407L34.8918 55.9403L34.8872 55.94L34.8827 55.9397L34.8783 55.9394L34.8738 55.9391L34.8694 55.9388L34.865 55.9385L34.8606 55.9382L34.8563 55.9379L34.852 55.9376L34.8477 55.9373L34.8434 55.937L34.8392 55.9367L34.835 55.9364L34.8308 55.9361L34.8266 55.9358L34.8225 55.9355L34.8183 55.9352L34.8142 55.935L34.8102 55.9347L34.8061 55.9344L34.8021 55.9341L34.7981 55.9338L34.7941 55.9336L34.7902 55.9333L34.7862 55.933L34.7823 55.9327L34.7784 55.9325L34.7746 55.9322L34.7707 55.9319L34.7669 55.9317L34.7631 55.9314L34.7593 55.9311L34.7556 55.9309L34.7518 55.9306L34.7481 55.9304L34.7444 55.9301L34.7408 55.9298L34.7371 55.9296L34.7335 55.9293L34.7298 55.9291L34.7262 55.9288L34.7227 55.9286L34.7191 55.9283L34.7156 55.9281L34.712 55.9278L34.7085 55.9276L34.705 55.9274L34.7016 55.9271L34.6981 55.9269L34.6947 55.9266L34.6913 55.9264L34.6879 55.9262L34.6845 55.9259L34.6811 55.9257L34.6778 55.9255L34.6744 55.9252L34.6711 55.925L34.6678 55.9248L34.6645 55.9245L34.6613 55.9243L34.658 55.9241L34.6548 55.9239L34.6516 55.9236L34.6483 55.9234L34.6452 55.9232L34.642 55.923L34.6388 55.9228L34.6357 55.9225L34.6325 55.9223L34.6294 55.9221L34.6263 55.9219L34.6232 55.9217L34.6201 55.9214L34.617 55.9212L34.6139 55.921L34.6109 55.9208L34.6079 55.9206L34.6048 55.9204L34.6018 55.9202L34.5988 55.92L34.5958 55.9198L34.5928 55.9196L34.5899 55.9193L34.5869 55.9191L34.584 55.9189L34.581 55.9187L34.5781 55.9185L34.5752 55.9183L34.5723 55.9181L34.5694 55.9179L34.5665 55.9177L34.5636 55.9175L34.5607 55.9173L34.5579 55.9171L34.555 55.9169L34.5522 55.9167L34.5493 55.9165L34.5465 55.9163L34.5437 55.9161L34.5409 55.9159L34.538 55.9157L34.5352 55.9155L34.5324 55.9154L34.5297 55.9152L34.5269 55.915L34.5241 55.9148L34.5213 55.9146L34.5186 55.9144L34.5158 55.9142L34.513 55.914L34.5103 55.9138L34.5076 55.9136L34.5048 55.9134L34.5021 55.9132L34.4994 55.9131L34.4966 55.9129L34.4939 55.9127L34.4912 55.9125L34.4885 55.9123L34.4858 55.9121L34.4831 55.9119L34.4803 55.9117L34.4776 55.9115L34.4749 55.9114L34.4722 55.9112L34.4696 55.911L34.4669 55.9108L34.4642 55.9106L34.4615 55.9104L34.4588 55.9102L34.4561 55.91L34.4534 55.9099L34.4507 55.9097L34.448 55.9095L34.4454 55.9093L34.4427 55.9091L34.44 55.9089L34.4373 55.9087L34.4346 55.9086L34.4319 55.9084L34.4292 55.9082L34.4266 55.908L34.4239 55.9078L34.4212 55.9076L34.4185 55.9074L34.4158 55.9072L34.4131 55.9071L34.4104 55.9069L34.4077 55.9067L34.405 55.9065L34.4023 55.9063L34.3996 55.9061L34.3968 55.9059L34.3941 55.9057L34.3914 55.9055L34.3887 55.9054L34.386 55.9052L34.3832 55.905L34.3805 55.9048L34.3777 55.9046L34.375 55.9044L34.3722 55.9042L34.3695 55.904L34.3667 55.9038L34.3639 55.9036L34.3612 55.9034L34.3584 55.9033L34.3556 55.9031L34.3528 55.9029L34.35 55.9027L34.3472 55.9025L34.3444 55.9023L34.3416 55.9021L34.3387 55.9019L34.3359 55.9017L34.333 55.9015L34.3302 55.9013L34.3273 55.9011L34.3244 55.9009L34.3216 55.9007L34.3187 55.9005L34.3158 55.9003L34.3129 55.9001L34.31 55.8999L34.307 55.8997L34.3041 55.8995L34.3011 55.8993L34.2982 55.8991L34.2952 55.8989L34.2922 55.8987L34.2892 55.8984L34.2862 55.8982L34.2832 55.898L34.2802 55.8978L34.2772 55.8976L34.2741 55.8974L34.2711 55.8972L34.268 55.897L34.2649 55.8968L34.2618 55.8965L34.2587 55.8963L34.2556 55.8961L34.2524 55.8959L34.2493 55.8957L34.2461 55.8954L34.2429 55.8952L34.2397 55.895L34.2365 55.8948L34.2333 55.8946L34.2301 55.8943L34.2268 55.8941L34.2236 55.8939L34.2203 55.8936L34.217 55.8934L34.2137 55.8932L34.2103 55.893L34.207 55.8927L34.2036 55.8925L34.2002 55.8923L34.1968 55.892L34.1934 55.8918L34.19 55.8915L34.1865 55.8913L34.1831 55.8911L34.1796 55.8908L34.1761 55.8906L34.1726 55.8903L34.169 55.8901L34.1655 55.8898L34.1619 55.8896L34.1583 55.8893L34.1547 55.8891L34.1511 55.8888L34.1474 55.8886L34.1437 55.8883L34.14 55.8881L34.1363 55.8878L34.1326 55.8875L34.1288 55.8873L34.125 55.887L34.1212 55.8868L34.1174 55.8865L34.1136 55.8862L34.1097 55.886L34.1058 55.8857L34.1019 55.8854L34.098 55.8851L34.0941 55.8849L34.0901 55.8846L34.0861 55.8843L34.0821 55.884L34.078 55.8838L34.074 55.8835L34.0699 55.8832L34.0657 55.8829L34.0616 55.8826L34.0574 55.8823L34.0533 55.882L34.049 55.8817L34.0448 55.8814L34.0405 55.8812L34.0363 55.8809L34.0319 55.8806L34.0276 55.8803L34.0232 55.8799L34.0189 55.8796L34.0144 55.8793L34.01 55.879L34.0055 55.8787L34.001 55.8784L33.9965 55.8781L33.9919 55.8778L33.9874 55.8775L33.9828 55.8771L33.9781 55.8768L33.9735 55.8765L33.9688 55.8762L33.964 55.8758L33.9593 55.8755L33.9545 55.8752L33.9497 55.8748L33.9449 55.8745L33.94 55.8742L33.9351 55.8738L33.9302 55.8735L33.9252 55.8731L33.9202 55.8728L33.9152 55.8724L33.9102 55.8721L33.9051 55.8717L33.9 55.8714L33.8948 55.871L33.8897 55.8707L33.8845 55.8703L33.8792 55.8699L33.8739 55.8696L33.8686 55.8692L33.8633 55.8688L33.8579 55.8685L33.8525 55.8681L33.8471 55.8677L33.8416 55.8673L33.8361 55.8669L33.8306 55.8666L33.825 55.8662L33.8194 55.8658L33.8138 55.8654L33.8081 55.865L33.8024 55.8646L33.7967 55.8642L33.7909 55.8638L33.7851 55.8634L33.7792 55.863L33.7734 55.8626L33.7674 55.8622L33.7615 55.8617L33.7555 55.8613L33.7495 55.8609L33.7434 55.8605L33.7373 55.8601L33.7311 55.8596L33.725 55.8592L33.7187 55.8588L33.7125 55.8583L33.7062 55.8579L33.6999 55.8575L33.6935 55.857L33.6871 55.8566L33.6806 55.8561L33.6742 55.8557L33.6676 55.8552L33.6611 55.8548L33.6545 55.8543L33.6478 55.8538L33.6411 55.8534L33.6344 55.8529L33.6276 55.8524L33.6208 55.852L33.614 55.8515L33.6071 55.851L33.6002 55.8505L33.5932 55.85L33.5862 55.8496L33.5791 55.8491L33.572 55.8486L33.5649 55.8481L33.5577 55.8476L33.5505 55.8471L33.5432 55.8466L33.5359 55.8461L33.5286 55.8455L33.5212 55.845L33.5137 55.8445L33.5063 55.844L33.4987 55.8435L33.4911 55.8429L33.4835 55.8424L33.4759 55.8419L33.4682 55.8413L33.4604 55.8408L33.4526 55.8403L33.4448 55.8397L33.4369 55.8392L33.4289 55.8386L33.421 55.8381L33.4129 55.8375L33.4049 55.8369L33.3967 55.8364L33.3886 55.8358L33.3804 55.8352L33.3723 55.8347L33.3642 55.8341L33.3562 55.8336L33.3482 55.833L33.3402 55.8325L33.3323 55.8319L33.3245 55.8314L33.3167 55.8308L33.3089 55.8303L33.3012 55.8297L33.2935 55.8292L33.2858 55.8287L33.2782 55.8281L33.2707 55.8276L33.2632 55.8271L33.2557 55.8266L33.2483 55.8261L33.2409 55.8255L33.2336 55.825L33.2263 55.8245L33.219 55.824L33.2118 55.8235L33.2046 55.823L33.1975 55.8225L33.1904 55.822L33.1833 55.8215L33.1763 55.8211L33.1693 55.8206L33.1624 55.8201L33.1555 55.8196L33.1486 55.8191L33.1418 55.8187L33.135 55.8182L33.1283 55.8177L33.1216 55.8172L33.1149 55.8168L33.1083 55.8163L33.1017 55.8159L33.0951 55.8154L33.0886 55.815L33.0821 55.8145L33.0757 55.8141L33.0693 55.8136L33.0629 55.8132L33.0566 55.8127L33.0503 55.8123L33.0441 55.8119L33.0378 55.8114L33.0317 55.811L33.0255 55.8106L33.0194 55.8101L33.0133 55.8097L33.0073 55.8093L33.0013 55.8089L32.9953 55.8085L32.9894 55.8081L32.9835 55.8076L32.9776 55.8072L32.9718 55.8068L32.966 55.8064L32.9602 55.806L32.9545 55.8056L32.9488 55.8052L32.9431 55.8048L32.9375 55.8044L32.9319 55.8041L32.9263 55.8037L32.9208 55.8033L32.9153 55.8029L32.9098 55.8025L32.9043 55.8021L32.8989 55.8018L32.8936 55.8014L32.8882 55.801L32.8829 55.8007L32.8776 55.8003L32.8724 55.7999L32.8671 55.7996L32.8619 55.7992L32.8568 55.7988L32.8516 55.7985L32.8465 55.7981L32.8415 55.7978L32.8364 55.7974L32.8314 55.7971L32.8264 55.7967L32.8214 55.7964L32.8165 55.796L32.8116 55.7957L32.8067 55.7954L32.8019 55.795L32.7971 55.7947L32.7923 55.7944L32.7875 55.794L32.7828 55.7937L32.7781 55.7934L32.7734 55.793L32.7687 55.7927L32.7641 55.7924L32.7595 55.7921L32.7549 55.7918L32.7504 55.7914L32.7459 55.7911L32.7414 55.7908L32.7369 55.7905L32.7324 55.7902L32.728 55.7899L32.7236 55.7896L32.7192 55.7893L32.7149 55.789L32.7105 55.7887L32.7062 55.7884L32.702 55.7881L32.6977 55.7878L32.6935 55.7875L32.6893 55.7872L32.6851 55.7869L32.6809 55.7866L32.6768 55.7863L32.6726 55.786L32.6685 55.7857L32.6645 55.7855L32.6604 55.7852L32.6564 55.7849L32.6524 55.7846L32.6484 55.7843L32.6444 55.7841L32.6405 55.7838L32.6365 55.7835L32.6326 55.7832L32.6288 55.783L32.6249 55.7827L32.621 55.7824L32.6172 55.7822L32.6134 55.7819L32.6096 55.7816L32.6058 55.7814L32.6021 55.7811L32.5984 55.7809L32.5947 55.7806L32.591 55.7804L32.5873 55.7801L32.5836 55.7798L32.58 55.7796L32.5764 55.7793L32.5728 55.7791L32.5692 55.7788L32.5656 55.7786L32.562 55.7783L32.5585 55.7781L32.555 55.7779L32.5515 55.7776L32.548 55.7774L32.5445 55.7771L32.5411 55.7769L32.5376 55.7766L32.5342 55.7764L32.5308 55.7762L32.5274 55.7759L32.524 55.7757L32.5206 55.7755L32.5173 55.7752L32.5139 55.775L32.5106 55.7748L32.5073 55.7745L32.504 55.7743L32.5007 55.7741L32.4975 55.7739L32.4942 55.7736L32.491 55.7734L32.4877 55.7732L32.4845 55.7729L32.4813 55.7727L32.4781 55.7725L32.4749 55.7723L32.4717 55.7721L32.4686 55.7718L32.4654 55.7716L32.4623 55.7714L32.4592 55.7712L32.4561 55.771L32.4529 55.7708L32.4499 55.7705L32.4468 55.7703L32.4437 55.7701L32.4406 55.7699L32.4376 55.7697L32.4345 55.7695L32.4315 55.7693L32.4285 55.7691L32.4254 55.7688L32.4224 55.7686L32.4194 55.7684L32.4164 55.7682L32.4134 55.768L32.4105 55.7678L32.4075 55.7676L32.4045 55.7674L32.4016 55.7672L32.3986 55.767L32.3957 55.7668L32.3927 55.7666L32.3898 55.7664L32.3869 55.7662L32.384 55.766L32.3811 55.7658L32.3782 55.7656L32.3753 55.7654L32.3724 55.7652L32.3695 55.765L32.3666 55.7648L32.3637 55.7645L32.3608 55.7643L32.358 55.7642L32.3551 55.764L32.3522 55.7638L32.3494 55.7636L32.3465 55.7634L32.3437 55.7632L32.3408 55.763L32.338 55.7628L32.3351 55.7626L32.3323 55.7624L32.3295 55.7622L32.3266 55.762L32.3238 55.7618L32.321 55.7616L32.3181 55.7614L32.3153 55.7612L32.3125 55.761L32.3097 55.7608L32.3068 55.7606L32.304 55.7604L32.3012 55.7602L32.2984 55.76L32.2955 55.7598L32.2927 55.7596L32.2899 55.7594L32.2871 55.7592L32.2843 55.759L32.2814 55.7588L32.2786 55.7586L32.2758 55.7584L32.273 55.7582L32.2701 55.758L32.2673 55.7578L32.2645 55.7576L32.2616 55.7575L32.2588 55.7573L32.256 55.7571L32.2531 55.7569L32.2503 55.7567L32.2474 55.7565L32.2446 55.7563L32.2417 55.7561L32.2389 55.7559L32.236 55.7557L32.2331 55.7555L32.2303 55.7553L32.2274 55.7551L32.2245 55.7549L32.2216 55.7547L32.2187 55.7545L32.2158 55.7543L32.2129 55.7541L32.21 55.7539L32.2071 55.7537L32.2042 55.7535L32.2013 55.7533L32.1984 55.7531L32.1954 55.7528L32.1925 55.7526L32.1895 55.7524L32.1866 55.7522L32.1836 55.752L32.1806 55.7518L32.1777 55.7516L32.1747 55.7514L32.1717 55.7512L32.1687 55.751L32.1657 55.7508L32.1626 55.7506L32.1596 55.7504L32.1566 55.7501L32.1535 55.7499L32.1505 55.7497L32.1474 55.7495L32.1443 55.7493L32.1413 55.7491L32.1382 55.7489L32.1351 55.7486L32.1319 55.7484L32.1288 55.7482L32.1257 55.748L32.1225 55.7478L32.1194 55.7476L32.1162 55.7473L32.113 55.7471L32.1098 55.7469L32.1066 55.7467L32.1034 55.7464L32.1002 55.7462L32.0969 55.746L32.0937 55.7458L32.0904 55.7455L32.0871 55.7453L32.0838 55.7451L32.0805 55.7449L32.0772 55.7446L32.0738 55.7444L32.0705 55.7442L32.0671 55.7439L32.0637 55.7437L32.0603 55.7435L32.0569 55.7432L32.0535 55.743L32.0501 55.7427L32.0466 55.7425L32.0431 55.7423L32.0397 55.742L32.0361 55.7418L32.0326 55.7415L32.0291 55.7413L32.0255 55.741L32.022 55.7408L32.0184 55.7405L32.0148 55.7403L32.0112 55.74L32.0075 55.7398L32.0039 55.7395L32.0002 55.7393L31.9965 55.739L31.9928 55.7388L31.9891 55.7385L31.9853 55.7382L31.9815 55.738L31.9777 55.7377L31.9739 55.7374L31.9701 55.7372L31.9663 55.7369L31.9624 55.7366L31.9585 55.7364L31.9546 55.7361L31.9507 55.7358L31.9467 55.7356L31.9428 55.7353L31.9388 55.735L31.9348 55.7347L31.9308 55.7344L31.9267 55.7342L31.9226 55.7339L31.9185 55.7336L31.9144 55.7333L31.9103 55.733L31.9061 55.7327L31.9019 55.7324L31.8977 55.7321L31.8935 55.7319L31.8892 55.7316L31.8849 55.7313L31.8806 55.731L31.8763 55.7307L31.872 55.7304L31.8676 55.7301L31.8632 55.7297L31.8588 55.7294L31.8543 55.7291L31.8499 55.7288L31.8454 55.7285L31.8408 55.7282L31.8363 55.7279L31.8317 55.7276L31.8271 55.7272L31.8225 55.7269L31.8178 55.7266L31.8131 55.7263L31.8084 55.7259L31.8037 55.7256L31.7989 55.7253L31.7941 55.7249L31.7893 55.7246L31.7845 55.7243L31.7796 55.7239L31.7747 55.7236L31.7698 55.7233L31.7648 55.7229L31.7598 55.7226L31.7548 55.7222L31.7498 55.7219L31.7447 55.7215L31.7396 55.7212L31.7345 55.7208L31.7293 55.7204L31.7241 55.7201L31.7189 55.7197L31.7137 55.7193L31.7084 55.719L31.7031 55.7186L31.6977 55.7182L31.6923 55.7179L31.6869 55.7175L31.6815 55.7171L31.676 55.7167L31.6705 55.7163L31.665 55.716L31.6594 55.7156L31.6538 55.7152L31.6482 55.7148L31.6425 55.7144L31.6368 55.714L31.6311 55.7136L31.6253 55.7132L31.6195 55.7128L31.6137 55.7124L31.6078 55.712L31.6019 55.7116L31.596 55.7112L31.59 55.7108L31.584 55.7103L31.578 55.7099L31.5719 55.7095L31.5658 55.7091L31.5597 55.7086L31.5535 55.7082L31.5473 55.7078L31.541 55.7073L31.5347 55.7069L31.5284 55.7065L31.522 55.706L31.5156 55.7056L31.5092 55.7051L31.5027 55.7047L31.4962 55.7042L31.4897 55.7038L31.4831 55.7033L31.4765 55.7029L31.4698 55.7024L31.4631 55.7019L31.4564 55.7015L31.4496 55.701L31.4428 55.7005L31.4359 55.7L31.429 55.6996L31.4221 55.6991L31.4151 55.6986L31.4081 55.6981L31.401 55.6976L31.3939 55.6971L31.3868 55.6966L31.3796 55.6961L31.3724 55.6956L31.3651 55.6951L31.3578 55.6946L31.3505 55.6941L31.3431 55.6936L31.3357 55.6931L31.3282 55.6925L31.3207 55.692L31.3132 55.6915L31.3056 55.691L31.2979 55.6904L31.2903 55.6899L31.2825 55.6894L31.2748 55.6888L31.267 55.6883L31.2591 55.6877L31.2512 55.6872L31.2433 55.6866L31.2353 55.6861L31.2272 55.6855L31.2192 55.685L31.2111 55.6844L31.2029 55.6838L31.1947 55.6833L31.1864 55.6827L31.1781 55.6821L31.1698 55.6815L31.1614 55.6809L31.1529 55.6804L31.1444 55.6798L31.1359 55.6792L31.1305 55.6788Z" fill="#E55B42" stroke="black" stroke-width="0.531163"/>
<path d="M40.0463 56.5647C39.9856 57.4369 39.6638 58.1979 39.205 58.7244C38.7463 59.2508 38.1634 59.5316 37.5656 59.49C36.9677 59.4485 36.4293 59.0896 36.0479 58.5049C35.6664 57.92 35.4529 57.1218 35.5136 56.2496C35.5742 55.3774 35.8961 54.6164 36.3549 54.0899C36.8136 53.5636 37.3965 53.2827 37.9943 53.3243C38.5921 53.3658 39.1306 53.7247 39.512 54.3094C39.8935 54.8944 40.1069 55.6926 40.0463 56.5647Z" fill="white" stroke="black" stroke-width="0.531163"/>
<mask id="path-17-inside-3" fill="white">
<path fill-rule="evenodd" clip-rule="evenodd" d="M37.6303 58.7964C37.2154 58.7675 36.915 58.2279 36.9593 57.5912C37.0035 56.9544 37.3757 56.4616 37.7906 56.4905C38.1324 56.5142 38.3965 56.8847 38.4542 57.3705L37.9037 57.6393L38.4171 57.9853C38.2986 58.4752 37.9795 58.8207 37.6303 58.7964Z"/>
</mask>
<path fill-rule="evenodd" clip-rule="evenodd" d="M37.6303 58.7964C37.2154 58.7675 36.915 58.2279 36.9593 57.5912C37.0035 56.9544 37.3757 56.4616 37.7906 56.4905C38.1324 56.5142 38.3965 56.8847 38.4542 57.3705L37.9037 57.6393L38.4171 57.9853C38.2986 58.4752 37.9795 58.8207 37.6303 58.7964Z" fill="black"/>
<path d="M38.4542 57.3705L38.63 57.3497L38.6448 57.4745L38.5319 57.5296L38.4542 57.3705ZM37.9037 57.6393L37.8048 57.7861L37.5505 57.6147L37.826 57.4802L37.9037 57.6393ZM38.4171 57.9853L38.5161 57.8385L38.6182 57.9073L38.5892 58.027L38.4171 57.9853ZM37.1359 57.6035C37.1158 57.8926 37.1748 58.1516 37.2773 58.3356C37.3807 58.5213 37.5145 58.6108 37.6425 58.6198L37.618 58.973C37.3312 58.9531 37.1073 58.7584 36.9679 58.5079C36.8275 58.2557 36.7585 57.9265 36.7826 57.5789L37.1359 57.6035ZM37.7783 56.6671C37.6502 56.6582 37.5053 56.7283 37.3772 56.8979C37.2503 57.066 37.156 57.3143 37.1359 57.6035L36.7826 57.5789C36.8068 57.2313 36.9207 56.9149 37.0947 56.6845C37.2675 56.4557 37.5161 56.2939 37.8029 56.3138L37.7783 56.6671ZM38.2784 57.3914C38.2524 57.173 38.1809 56.9897 38.0867 56.8627C37.9928 56.7361 37.8845 56.6745 37.7783 56.6671L37.8029 56.3138C38.0385 56.3302 38.2331 56.4657 38.3711 56.6517C38.5089 56.8374 38.5983 57.0823 38.63 57.3497L38.2784 57.3914ZM38.5319 57.5296L37.9814 57.7984L37.826 57.4802L38.3765 57.2114L38.5319 57.5296ZM38.0027 57.4925L38.5161 57.8385L38.3182 58.1321L37.8048 57.7861L38.0027 57.4925ZM37.6425 58.6198C37.751 58.6273 37.8697 58.579 37.9823 58.4613C38.0951 58.3433 38.1917 58.1642 38.2451 57.9437L38.5892 58.027C38.5241 58.2962 38.4019 58.5348 38.2382 58.706C38.0743 58.8774 37.8588 58.9898 37.618 58.973L37.6425 58.6198Z" fill="black" mask="url(#path-17-inside-3)"/>
<path d="M35.5403 55.9852C35.6416 55.2239 35.9431 54.5625 36.3549 54.0899C36.8136 53.5636 37.3965 53.2827 37.9943 53.3243C38.5921 53.3658 39.1306 53.7247 39.512 54.3094C39.8545 54.8344 40.0615 55.5313 40.0564 56.2992L40.0563 56.2992L40.0473 56.2986L40.0383 56.298L40.0294 56.2973L40.0205 56.2967L40.0117 56.2961L40.003 56.2955L39.9943 56.2949L39.9856 56.2943L39.977 56.2937L39.9685 56.2931L39.96 56.2925L39.9515 56.2919L39.9431 56.2913L39.9347 56.2908L39.9264 56.2902L39.9181 56.2896L39.9099 56.289L39.9017 56.2885L39.8936 56.2879L39.8855 56.2873L39.8775 56.2868L39.8695 56.2862L39.8616 56.2857L39.8537 56.2851L39.8458 56.2846L39.838 56.284L39.8303 56.2835L39.8226 56.283L39.8149 56.2824L39.8073 56.2819L39.7997 56.2814L39.7922 56.2809L39.7847 56.2803L39.7772 56.2798L39.7698 56.2793L39.7625 56.2788L39.7552 56.2783L39.7479 56.2778L39.7406 56.2773L39.7335 56.2768L39.7263 56.2763L39.7192 56.2758L39.7122 56.2753L39.7051 56.2748L39.6982 56.2743L39.6912 56.2738L39.6843 56.2734L39.6775 56.2729L39.6707 56.2724L39.6639 56.2719L39.6572 56.2715L39.6505 56.271L39.6438 56.2705L39.6372 56.2701L39.6307 56.2696L39.6241 56.2692L39.6176 56.2687L39.6112 56.2683L39.6048 56.2678L39.5984 56.2674L39.5921 56.2669L39.5858 56.2665L39.5795 56.2661L39.5733 56.2656L39.5671 56.2652L39.561 56.2648L39.5549 56.2644L39.5488 56.2639L39.5427 56.2635L39.5368 56.2631L39.5308 56.2627L39.5249 56.2623L39.519 56.2619L39.5131 56.2614L39.5073 56.261L39.5015 56.2606L39.4958 56.2602L39.4901 56.2598L39.4844 56.2595L39.4787 56.2591L39.4731 56.2587L39.4676 56.2583L39.462 56.2579L39.4565 56.2575L39.451 56.2571L39.4456 56.2568L39.4402 56.2564L39.4348 56.256L39.4295 56.2556L39.4242 56.2553L39.4189 56.2549L39.4137 56.2545L39.4085 56.2542L39.4033 56.2538L39.3981 56.2535L39.393 56.2531L39.3879 56.2527L39.3829 56.2524L39.3779 56.252L39.3729 56.2517L39.3679 56.2514L39.363 56.251L39.3581 56.2507L39.3532 56.2503L39.3484 56.25L39.3436 56.2497L39.3388 56.2493L39.334 56.249L39.3293 56.2487L39.3246 56.2483L39.3199 56.248L39.3153 56.2477L39.3107 56.2474L39.3061 56.2471L39.3016 56.2467L39.297 56.2464L39.2925 56.2461L39.288 56.2458L39.2836 56.2455L39.2792 56.2452L39.2748 56.2449L39.2704 56.2446L39.2661 56.2443L39.2618 56.244L39.2575 56.2437L39.2532 56.2434L39.249 56.2431L39.2447 56.2428L39.2406 56.2425L39.2364 56.2422L39.2322 56.2419L39.2281 56.2416L39.224 56.2413L39.22 56.2411L39.2159 56.2408L39.2119 56.2405L39.2079 56.2402L39.2039 56.2399L39.2 56.2397L39.196 56.2394L39.1921 56.2391L39.1882 56.2389L39.1844 56.2386L39.1805 56.2383L39.1767 56.2381L39.1729 56.2378L39.1691 56.2375L39.1654 56.2373L39.1616 56.237L39.1579 56.2367L39.1542 56.2365L39.1505 56.2362L39.1469 56.236L39.1432 56.2357L39.1396 56.2355L39.136 56.2352L39.1325 56.235L39.1289 56.2347L39.1254 56.2345L39.1218 56.2342L39.1183 56.234L39.1148 56.2338L39.1114 56.2335L39.1079 56.2333L39.1045 56.233L39.1011 56.2328L39.0977 56.2326L39.0943 56.2323L39.0909 56.2321L39.0876 56.2319L39.0842 56.2316L39.0809 56.2314L39.0776 56.2312L39.0743 56.2309L39.0711 56.2307L39.0678 56.2305L39.0646 56.2303L39.0613 56.23L39.0581 56.2298L39.0549 56.2296L39.0518 56.2294L39.0486 56.2291L39.0454 56.2289L39.0423 56.2287L39.0392 56.2285L39.0361 56.2283L39.033 56.2281L39.0299 56.2278L39.0268 56.2276L39.0237 56.2274L39.0207 56.2272L39.0177 56.227L39.0146 56.2268L39.0116 56.2266L39.0086 56.2264L39.0056 56.2262L39.0026 56.226L38.9997 56.2257L38.9967 56.2255L38.9938 56.2253L38.9908 56.2251L38.9879 56.2249L38.985 56.2247L38.9821 56.2245L38.9792 56.2243L38.9763 56.2241L38.9734 56.2239L38.9705 56.2237L38.9677 56.2235L38.9648 56.2233L38.962 56.2231L38.9591 56.2229L38.9563 56.2227L38.9535 56.2225L38.9506 56.2223L38.9478 56.2221L38.945 56.2219L38.9422 56.2218L38.9394 56.2216L38.9367 56.2214L38.9339 56.2212L38.9311 56.221L38.9284 56.2208L38.9256 56.2206L38.9228 56.2204L38.9201 56.2202L38.9173 56.22L38.9146 56.2198L38.9119 56.2196L38.9091 56.2195L38.9064 56.2193L38.9037 56.2191L38.901 56.2189L38.8983 56.2187L38.8956 56.2185L38.8928 56.2183L38.8901 56.2181L38.8874 56.2179L38.8847 56.2178L38.882 56.2176L38.8793 56.2174L38.8766 56.2172L38.874 56.217L38.8713 56.2168L38.8686 56.2166L38.8659 56.2164L38.8632 56.2163L38.8605 56.2161L38.8578 56.2159L38.8551 56.2157L38.8525 56.2155L38.8498 56.2153L38.8471 56.2151L38.8444 56.2149L38.8417 56.2148L38.839 56.2146L38.8363 56.2144L38.8337 56.2142L38.831 56.214L38.8283 56.2138L38.8256 56.2136L38.8229 56.2135L38.8202 56.2133L38.8175 56.2131L38.8148 56.2129L38.8121 56.2127L38.8093 56.2125L38.8066 56.2123L38.8039 56.2121L38.8012 56.2119L38.7985 56.2118L38.7957 56.2116L38.793 56.2114L38.7903 56.2112L38.7875 56.211L38.7848 56.2108L38.782 56.2106L38.7793 56.2104L38.7765 56.2102L38.7737 56.21L38.771 56.2098L38.7682 56.2096L38.7654 56.2095L38.7626 56.2093L38.7598 56.2091L38.757 56.2089L38.7542 56.2087L38.7513 56.2085L38.7485 56.2083L38.7457 56.2081L38.7428 56.2079L38.74 56.2077L38.7371 56.2075L38.7342 56.2073L38.7314 56.2071L38.7285 56.2069L38.7256 56.2067L38.7227 56.2065L38.7197 56.2063L38.7168 56.2061L38.7139 56.2059L38.7109 56.2057L38.708 56.2055L38.705 56.2053L38.702 56.205L38.699 56.2048L38.696 56.2046L38.693 56.2044L38.69 56.2042L38.687 56.204L38.6839 56.2038L38.6809 56.2036L38.6778 56.2034L38.6747 56.2031L38.6716 56.2029L38.6685 56.2027L38.6654 56.2025L38.6622 56.2023L38.6591 56.2021L38.6559 56.2018L38.6527 56.2016L38.6495 56.2014L38.6463 56.2012L38.6431 56.201L38.6399 56.2007L38.6366 56.2005L38.6333 56.2003L38.6301 56.2L38.6268 56.1998L38.6234 56.1996L38.6201 56.1994L38.6168 56.1991L38.6134 56.1989L38.61 56.1987L38.6066 56.1984L38.6032 56.1982L38.5998 56.1979L38.5963 56.1977L38.5929 56.1975L38.5894 56.1972L38.5859 56.197L38.5824 56.1967L38.5788 56.1965L38.5753 56.1962L38.5717 56.196L38.5681 56.1957L38.5645 56.1955L38.5608 56.1952L38.5572 56.195L38.5535 56.1947L38.5498 56.1945L38.5461 56.1942L38.5424 56.1939L38.5386 56.1937L38.5348 56.1934L38.531 56.1932L38.5272 56.1929L38.5234 56.1926L38.5195 56.1924L38.5156 56.1921L38.5117 56.1918L38.5078 56.1915L38.5038 56.1913L38.4999 56.191L38.4959 56.1907L38.4919 56.1904L38.4878 56.1902L38.4837 56.1899L38.4797 56.1896L38.4755 56.1893L38.4714 56.189L38.4672 56.1887L38.463 56.1884L38.4588 56.1881L38.4546 56.1878L38.4503 56.1875L38.446 56.1872L38.4417 56.1869L38.4374 56.1866L38.433 56.1863L38.4286 56.186L38.4242 56.1857L38.4198 56.1854L38.4153 56.1851L38.4108 56.1848L38.4063 56.1845L38.4017 56.1842L38.3972 56.1838L38.3925 56.1835L38.3879 56.1832L38.3832 56.1829L38.3786 56.1826L38.3738 56.1822L38.3691 56.1819L38.3643 56.1816L38.3595 56.1812L38.3547 56.1809L38.3498 56.1806L38.3449 56.1802L38.34 56.1799L38.335 56.1795L38.33 56.1792L38.325 56.1788L38.32 56.1785L38.3149 56.1781L38.3098 56.1778L38.3046 56.1774L38.2995 56.1771L38.2942 56.1767L38.289 56.1763L38.2837 56.176L38.2784 56.1756L38.2731 56.1752L38.2677 56.1748L38.2623 56.1745L38.2569 56.1741L38.2514 56.1737L38.2459 56.1733L38.2404 56.1729L38.2348 56.1726L38.2292 56.1722L38.2236 56.1718L38.2179 56.1714L38.2122 56.171L38.2065 56.1706L38.2007 56.1702L38.1949 56.1698L38.189 56.1694L38.1831 56.169L38.1772 56.1686L38.1713 56.1681L38.1653 56.1677L38.1592 56.1673L38.1532 56.1669L38.1471 56.1665L38.1409 56.166L38.1348 56.1656L38.1285 56.1652L38.1223 56.1647L38.116 56.1643L38.1097 56.1639L38.1033 56.1634L38.0969 56.163L38.0904 56.1625L38.0839 56.1621L38.0774 56.1616L38.0709 56.1612L38.0643 56.1607L38.0576 56.1602L38.0509 56.1598L38.0442 56.1593L38.0374 56.1588L38.0306 56.1584L38.0238 56.1579L38.0169 56.1574L38.01 56.1569L38.003 56.1564L37.996 56.156L37.9889 56.1555L37.9818 56.155L37.9747 56.1545L37.9675 56.154L37.9603 56.1535L37.953 56.153L37.9457 56.1525L37.9384 56.1519L37.931 56.1514L37.9235 56.1509L37.916 56.1504L37.9085 56.1499L37.9009 56.1493L37.8933 56.1488L37.8857 56.1483L37.878 56.1477L37.8702 56.1472L37.8624 56.1467L37.8546 56.1461L37.8467 56.1456L37.8387 56.145L37.8308 56.1445L37.8227 56.1439L37.8147 56.1433L37.8065 56.1428L37.7984 56.1422L37.7902 56.1416L37.7821 56.1411L37.774 56.1405L37.766 56.14L37.758 56.1394L37.75 56.1388L37.7421 56.1383L37.7343 56.1378L37.7265 56.1372L37.7187 56.1367L37.711 56.1361L37.7033 56.1356L37.6956 56.1351L37.688 56.1345L37.6805 56.134L37.673 56.1335L37.6655 56.133L37.6581 56.1325L37.6507 56.1319L37.6433 56.1314L37.636 56.1309L37.6288 56.1304L37.6216 56.1299L37.6144 56.1294L37.6072 56.1289L37.6001 56.1284L37.5931 56.1279L37.5861 56.1274L37.5791 56.127L37.5722 56.1265L37.5653 56.126L37.5584 56.1255L37.5516 56.1251L37.5448 56.1246L37.5381 56.1241L37.5313 56.1236L37.5247 56.1232L37.5181 56.1227L37.5115 56.1223L37.5049 56.1218L37.4984 56.1214L37.4919 56.1209L37.4855 56.1205L37.4791 56.12L37.4727 56.1196L37.4664 56.1191L37.4601 56.1187L37.4538 56.1183L37.4476 56.1178L37.4414 56.1174L37.4353 56.117L37.4292 56.1165L37.4231 56.1161L37.4171 56.1157L37.4111 56.1153L37.4051 56.1149L37.3992 56.1145L37.3933 56.114L37.3874 56.1136L37.3816 56.1132L37.3758 56.1128L37.37 56.1124L37.3643 56.112L37.3586 56.1116L37.3529 56.1112L37.3473 56.1108L37.3417 56.1105L37.3361 56.1101L37.3305 56.1097L37.325 56.1093L37.3196 56.1089L37.3141 56.1085L37.3087 56.1082L37.3033 56.1078L37.298 56.1074L37.2927 56.107L37.2874 56.1067L37.2821 56.1063L37.2769 56.106L37.2717 56.1056L37.2666 56.1052L37.2614 56.1049L37.2563 56.1045L37.2512 56.1042L37.2462 56.1038L37.2412 56.1035L37.2362 56.1031L37.2312 56.1028L37.2263 56.1024L37.2214 56.1021L37.2165 56.1018L37.2117 56.1014L37.2069 56.1011L37.2021 56.1007L37.1973 56.1004L37.1926 56.1001L37.1879 56.0998L37.1832 56.0994L37.1785 56.0991L37.1739 56.0988L37.1693 56.0985L37.1647 56.0982L37.1602 56.0978L37.1556 56.0975L37.1511 56.0972L37.1467 56.0969L37.1422 56.0966L37.1378 56.0963L37.1334 56.096L37.129 56.0957L37.1247 56.0954L37.1203 56.0951L37.116 56.0948L37.1117 56.0945L37.1075 56.0942L37.1033 56.0939L37.099 56.0936L37.0949 56.0933L37.0907 56.093L37.0866 56.0927L37.0824 56.0924L37.0783 56.0921L37.0743 56.0919L37.0702 56.0916L37.0662 56.0913L37.0622 56.091L37.0582 56.0907L37.0542 56.0905L37.0503 56.0902L37.0463 56.0899L37.0424 56.0896L37.0385 56.0894L37.0347 56.0891L37.0308 56.0888L37.027 56.0886L37.0232 56.0883L37.0194 56.088L37.0156 56.0878L37.0119 56.0875L37.0082 56.0873L37.0044 56.087L37.0008 56.0867L36.9971 56.0865L36.9934 56.0862L36.9898 56.086L36.9862 56.0857L36.9825 56.0855L36.979 56.0852L36.9754 56.085L36.9718 56.0847L36.9683 56.0845L36.9648 56.0842L36.9613 56.084L36.9578 56.0838L36.9543 56.0835L36.9509 56.0833L36.9474 56.083L36.944 56.0828L36.9406 56.0826L36.9372 56.0823L36.9338 56.0821L36.9304 56.0819L36.9271 56.0816L36.9237 56.0814L36.9204 56.0812L36.9171 56.0809L36.9138 56.0807L36.9105 56.0805L36.9073 56.0802L36.904 56.08L36.9007 56.0798L36.8975 56.0796L36.8943 56.0793L36.8911 56.0791L36.8879 56.0789L36.8847 56.0787L36.8815 56.0785L36.8784 56.0782L36.8752 56.078L36.8721 56.0778L36.869 56.0776L36.8658 56.0774L36.8627 56.0772L36.8596 56.0769L36.8566 56.0767L36.8535 56.0765L36.8504 56.0763L36.8474 56.0761L36.8443 56.0759L36.8413 56.0757L36.8382 56.0754L36.8352 56.0752L36.8322 56.075L36.8292 56.0748L36.8262 56.0746L36.8232 56.0744L36.8203 56.0742L36.8173 56.074L36.8143 56.0738L36.8114 56.0736L36.8084 56.0734L36.8055 56.0732L36.8025 56.073L36.7996 56.0728L36.7967 56.0726L36.7938 56.0724L36.7909 56.0722L36.7879 56.072L36.785 56.0717L36.7822 56.0715L36.7793 56.0713L36.7764 56.0711L36.7735 56.0709L36.7706 56.0707L36.7678 56.0705L36.7649 56.0703L36.762 56.0701L36.7592 56.0699L36.7563 56.0698L36.7535 56.0696L36.7506 56.0694L36.7478 56.0692L36.7449 56.069L36.7421 56.0688L36.7393 56.0686L36.7364 56.0684L36.7336 56.0682L36.7308 56.068L36.7279 56.0678L36.7251 56.0676L36.7223 56.0674L36.7194 56.0672L36.7166 56.067L36.7138 56.0668L36.711 56.0666L36.7082 56.0664L36.7053 56.0662L36.7025 56.066L36.6997 56.0658L36.6969 56.0656L36.694 56.0654L36.6912 56.0652L36.6884 56.065L36.6856 56.0648L36.6827 56.0646L36.6799 56.0644L36.6771 56.0642L36.6743 56.064L36.6714 56.0638L36.6686 56.0637L36.6657 56.0635L36.6629 56.0633L36.6601 56.0631L36.6572 56.0629L36.6544 56.0627L36.6515 56.0625L36.6486 56.0623L36.6458 56.0621L36.6429 56.0619L36.64 56.0617L36.6372 56.0615L36.6343 56.0613L36.6314 56.0611L36.6285 56.0609L36.6256 56.0607L36.6227 56.0605L36.6198 56.0603L36.6169 56.0601L36.614 56.0599L36.6111 56.0597L36.6081 56.0594L36.6052 56.0592L36.6023 56.059L36.5993 56.0588L36.5964 56.0586L36.5934 56.0584L36.5904 56.0582L36.5874 56.058L36.5845 56.0578L36.5815 56.0576L36.5785 56.0574L36.5755 56.0572L36.5724 56.057L36.5694 56.0568L36.5664 56.0565L36.5633 56.0563L36.5603 56.0561L36.5572 56.0559L36.5541 56.0557L36.551 56.0555L36.5479 56.0553L36.5448 56.055L36.5417 56.0548L36.5386 56.0546L36.5355 56.0544L36.5323 56.0542L36.5292 56.054L36.526 56.0537L36.5228 56.0535L36.5196 56.0533L36.5164 56.0531L36.5132 56.0528L36.5099 56.0526L36.5067 56.0524L36.5034 56.0522L36.5002 56.0519L36.4969 56.0517L36.4936 56.0515L36.4903 56.0513L36.487 56.051L36.4836 56.0508L36.4803 56.0506L36.4769 56.0503L36.4735 56.0501L36.4701 56.0499L36.4667 56.0496L36.4633 56.0494L36.4599 56.0491L36.4564 56.0489L36.4529 56.0487L36.4494 56.0484L36.4459 56.0482L36.4424 56.0479L36.4389 56.0477L36.4353 56.0474L36.4318 56.0472L36.4282 56.0469L36.4246 56.0467L36.4209 56.0464L36.4173 56.0462L36.4137 56.0459L36.41 56.0457L36.4063 56.0454L36.4026 56.0452L36.3988 56.0449L36.3951 56.0446L36.3913 56.0444L36.3875 56.0441L36.3837 56.0438L36.3799 56.0436L36.3761 56.0433L36.3722 56.043L36.3683 56.0428L36.3644 56.0425L36.3605 56.0422L36.3565 56.042L36.3526 56.0417L36.3486 56.0414L36.3446 56.0411L36.3405 56.0408L36.3365 56.0406L36.3324 56.0403L36.3283 56.04L36.3242 56.0397L36.3201 56.0394L36.3159 56.0391L36.3117 56.0388L36.3075 56.0385L36.3033 56.0382L36.299 56.038L36.2947 56.0377L36.2904 56.0374L36.2861 56.0371L36.2818 56.0368L36.2774 56.0364L36.273 56.0361L36.2686 56.0358L36.2641 56.0355L36.2596 56.0352L36.2551 56.0349L36.2506 56.0346L36.2461 56.0343L36.2415 56.034L36.2369 56.0336L36.2323 56.0333L36.2276 56.033L36.2229 56.0327L36.2182 56.0323L36.2135 56.032L36.2087 56.0317L36.2039 56.0313L36.1991 56.031L36.1943 56.0307L36.1894 56.0303L36.1845 56.03L36.1796 56.0296L36.1746 56.0293L36.1696 56.029L36.1646 56.0286L36.1596 56.0283L36.1545 56.0279L36.1494 56.0275L36.1443 56.0272L36.1391 56.0268L36.1339 56.0265L36.1287 56.0261L36.1234 56.0257L36.1182 56.0254L36.1128 56.025L36.1075 56.0246L36.1021 56.0243L36.0967 56.0239L36.0913 56.0235L36.0858 56.0231L36.0803 56.0227L36.0748 56.0224L36.0692 56.022L36.0636 56.0216L36.058 56.0212L36.0523 56.0208L36.0466 56.0204L36.0409 56.02L36.0351 56.0196L36.0293 56.0192L36.0235 56.0188L36.0176 56.0184L36.0117 56.018L36.0058 56.0176L35.9998 56.0171L35.9938 56.0167L35.9878 56.0163L35.9817 56.0159L35.9756 56.0155L35.9695 56.015L35.9633 56.0146L35.9571 56.0142L35.9508 56.0137L35.9445 56.0133L35.9382 56.0129L35.9318 56.0124L35.9254 56.012L35.919 56.0115L35.9125 56.0111L35.906 56.0106L35.8995 56.0102L35.8929 56.0097L35.8863 56.0093L35.8796 56.0088L35.8729 56.0083L35.8661 56.0079L35.8594 56.0074L35.8526 56.0069L35.8457 56.0064L35.8388 56.006L35.8319 56.0055L35.8249 56.005L35.8179 56.0045L35.8108 56.004L35.8037 56.0035L35.7966 56.003L35.7894 56.0025L35.7822 56.002L35.7749 56.0015L35.7676 56.001L35.7603 56.0005L35.7529 56L35.7455 55.9995L35.738 55.9989L35.7305 55.9984L35.723 55.9979L35.7154 55.9974L35.7077 55.9968L35.7 55.9963L35.6923 55.9958L35.6846 55.9952L35.6767 55.9947L35.6689 55.9941L35.661 55.9936L35.6531 55.993L35.6451 55.9925L35.637 55.9919L35.629 55.9914L35.6208 55.9908L35.6127 55.9902L35.6045 55.9897L35.5962 55.9891L35.5879 55.9885L35.5796 55.9879L35.5712 55.9873L35.5627 55.9868L35.5542 55.9862L35.5457 55.9856L35.5403 55.9852Z" fill="#E55B42" stroke="black" stroke-width="0.531163"/>
<path d="M35.6774 65.2549C34.2223 65.1885 33.8021 63.691 33.9087 62.8459C35.1048 63.0075 36.8313 62.9523 38.4098 62.1112C39.0056 64.0146 38.0693 64.7394 37.4639 64.9633C36.878 65.1662 36.1829 65.2617 35.6774 65.2549Z" fill="black"/>
<path d="M32.9109 62.6321C33.167 62.7134 33.5081 62.7918 33.9087 62.8459M39.2083 61.6042C38.9488 61.7985 38.6815 61.9665 38.4098 62.1112M39.2083 61.6042C39.1798 61.4301 39.2892 61.2574 39.3552 61.2406M39.2083 61.6042C39.2122 61.6751 39.4135 61.9068 39.6614 61.852M33.9087 62.8459C33.8021 63.691 34.2223 65.1885 35.6774 65.2549C36.1829 65.2617 36.878 65.1662 37.4639 64.9633C38.0693 64.7394 39.0056 64.0146 38.4098 62.1112M33.9087 62.8459C35.1048 63.0075 36.8313 62.9523 38.4098 62.1112" stroke="black" stroke-width="0.531163"/>
<path d="M38.1051 64.5371C37.8488 63.2381 34.9335 64.406 34.9341 65.0546C35.3726 65.2691 36.0062 65.255 36.2443 65.2161C36.3048 65.2122 36.4587 65.1812 36.6016 65.1578C36.7803 65.1287 37.0259 65.0886 37.3524 64.9817C37.6135 64.8961 37.8293 64.7668 37.9046 64.7128C37.925 64.6976 38.0116 64.6381 38.1051 64.5371Z" fill="#E55B42" stroke="black" stroke-width="0.177054"/>
<path d="M37.1817 63.8252C37.0256 63.8691 36.6326 64.0795 36.3094 64.5705" stroke="black" stroke-width="0.177054"/>
<path d="M66.2691 58.6159C66.2045 59.5447 65.8618 60.3547 65.3738 60.9146C64.886 61.4745 64.267 61.7721 63.6332 61.728C62.9994 61.684 62.4276 61.3035 62.0219 60.6816C61.6161 60.0594 61.3888 59.2099 61.4534 58.281C61.518 57.3522 61.8607 56.5423 62.3487 55.9823C62.8366 55.4225 63.4555 55.1248 64.0893 55.1689C64.7231 55.213 65.2949 55.5934 65.7006 56.2154C66.1064 56.8375 66.3337 57.6871 66.2691 58.6159Z" fill="white" stroke="black" stroke-width="0.590342"/>
<mask id="path-25-inside-4" fill="white">
<path fill-rule="evenodd" clip-rule="evenodd" d="M63.5284 60.9864C63.0855 60.9556 62.7648 60.3795 62.8121 59.6997C62.8593 59.02 63.2567 58.4939 63.6996 58.5247C64.0644 58.55 64.3463 58.9453 64.4079 59.4638L63.8194 59.7511L64.3683 60.121C64.2417 60.6437 63.9012 61.0123 63.5284 60.9864Z"/>
</mask>
<path fill-rule="evenodd" clip-rule="evenodd" d="M63.5284 60.9864C63.0855 60.9556 62.7648 60.3795 62.8121 59.6997C62.8593 59.02 63.2567 58.4939 63.6996 58.5247C64.0644 58.55 64.3463 58.9453 64.4079 59.4638L63.8194 59.7511L64.3683 60.121C64.2417 60.6437 63.9012 61.0123 63.5284 60.9864Z" fill="black"/>
<path d="M64.4079 59.4638L64.6033 59.4405L64.6198 59.5793L64.4943 59.6406L64.4079 59.4638ZM63.8194 59.7511L63.7094 59.9143L63.4268 59.7238L63.7331 59.5743L63.8194 59.7511ZM64.3683 60.121L64.4783 59.9579L64.5918 60.0344L64.5596 60.1674L64.3683 60.121ZM63.0084 59.7134C62.987 60.0208 63.0498 60.2958 63.1584 60.4907C63.2679 60.6875 63.4088 60.7808 63.5421 60.7901L63.5148 61.1827C63.2051 61.1611 62.9642 60.951 62.8145 60.6821C62.6638 60.4114 62.5899 60.0584 62.6158 59.6861L63.0084 59.7134ZM63.6859 58.721C63.5527 58.7117 63.4003 58.7846 63.2645 58.9643C63.13 59.1424 63.0298 59.406 63.0084 59.7134L62.6158 59.6861C62.6417 59.3137 62.7637 58.9744 62.9504 58.7271C63.1359 58.4816 63.4036 58.3068 63.7132 58.3283L63.6859 58.721ZM64.2125 59.487C64.1849 59.255 64.109 59.0608 64.0094 58.9266C63.9102 58.7928 63.7965 58.7286 63.6859 58.721L63.7132 58.3283C63.9675 58.346 64.1772 58.4922 64.3255 58.692C64.4734 58.8914 64.5693 59.1541 64.6033 59.4405L64.2125 59.487ZM64.4943 59.6406L63.9057 59.9279L63.7331 59.5743L64.3216 59.287L64.4943 59.6406ZM63.9294 59.5879L64.4783 59.9579L64.2584 60.2842L63.7094 59.9143L63.9294 59.5879ZM63.5421 60.7901C63.6549 60.7979 63.7794 60.7478 63.8985 60.6234C64.0177 60.4987 64.1203 60.309 64.1771 60.0747L64.5596 60.1674C64.4897 60.4558 64.3587 60.7117 64.1828 60.8955C64.0068 61.0795 63.7747 61.2007 63.5148 61.1827L63.5421 60.7901Z" fill="black" mask="url(#path-25-inside-4)"/>
<path d="M61.4835 57.9872C61.593 57.1818 61.9129 56.4824 62.3487 55.9823C62.8366 55.4225 63.4555 55.1248 64.0893 55.1689C64.7231 55.213 65.2949 55.5934 65.7006 56.2154C66.063 56.771 66.283 57.5079 66.28 58.3208L66.273 58.3203L66.2635 58.3196L66.2541 58.319L66.2447 58.3183L66.2353 58.3177L66.226 58.317L66.2168 58.3164L66.2076 58.3157L66.1985 58.3151L66.1894 58.3145L66.1804 58.3138L66.1714 58.3132L66.1624 58.3126L66.1536 58.312L66.1447 58.3114L66.136 58.3108L66.1272 58.3101L66.1186 58.3095L66.1099 58.3089L66.1014 58.3083L66.0928 58.3078L66.0844 58.3072L66.0759 58.3066L66.0676 58.306L66.0592 58.3054L66.0509 58.3048L66.0427 58.3043L66.0345 58.3037L66.0264 58.3031L66.0183 58.3026L66.0102 58.302L66.0023 58.3015L65.9943 58.3009L65.9864 58.3004L65.9785 58.2998L65.9707 58.2993L65.963 58.2987L65.9553 58.2982L65.9476 58.2977L65.94 58.2971L65.9324 58.2966L65.9248 58.2961L65.9173 58.2956L65.9099 58.295L65.9025 58.2945L65.8951 58.294L65.8878 58.2935L65.8806 58.293L65.8733 58.2925L65.8661 58.292L65.859 58.2915L65.8519 58.291L65.8448 58.2905L65.8378 58.29L65.8309 58.2895L65.8239 58.2891L65.817 58.2886L65.8102 58.2881L65.8034 58.2876L65.7966 58.2872L65.7899 58.2867L65.7832 58.2862L65.7766 58.2858L65.77 58.2853L65.7634 58.2848L65.7569 58.2844L65.7504 58.2839L65.744 58.2835L65.7376 58.2831L65.7312 58.2826L65.7249 58.2822L65.7186 58.2817L65.7124 58.2813L65.7061 58.2809L65.7 58.2804L65.6938 58.28L65.6877 58.2796L65.6817 58.2792L65.6757 58.2787L65.6697 58.2783L65.6637 58.2779L65.6578 58.2775L65.6519 58.2771L65.6461 58.2767L65.6403 58.2763L65.6345 58.2759L65.6288 58.2755L65.6231 58.2751L65.6174 58.2747L65.6118 58.2743L65.6062 58.2739L65.6006 58.2735L65.5951 58.2731L65.5896 58.2728L65.5841 58.2724L65.5787 58.272L65.5733 58.2716L65.568 58.2713L65.5626 58.2709L65.5573 58.2705L65.5521 58.2702L65.5468 58.2698L65.5416 58.2694L65.5365 58.2691L65.5313 58.2687L65.5262 58.2684L65.5212 58.268L65.5161 58.2677L65.5111 58.2673L65.5061 58.267L65.5012 58.2666L65.4962 58.2663L65.4914 58.2659L65.4865 58.2656L65.4817 58.2653L65.4769 58.2649L65.4721 58.2646L65.4673 58.2643L65.4626 58.2639L65.4579 58.2636L65.4533 58.2633L65.4486 58.263L65.444 58.2626L65.4394 58.2623L65.4349 58.262L65.4303 58.2617L65.4258 58.2614L65.4214 58.2611L65.4169 58.2608L65.4125 58.2604L65.4081 58.2601L65.4037 58.2598L65.3994 58.2595L65.3951 58.2592L65.3908 58.2589L65.3865 58.2586L65.3823 58.2583L65.378 58.258L65.3738 58.2578L65.3697 58.2575L65.3655 58.2572L65.3614 58.2569L65.3573 58.2566L65.3532 58.2563L65.3492 58.256L65.3451 58.2558L65.3411 58.2555L65.3371 58.2552L65.3331 58.2549L65.3292 58.2547L65.3253 58.2544L65.3214 58.2541L65.3175 58.2538L65.3136 58.2536L65.3098 58.2533L65.306 58.253L65.3022 58.2528L65.2984 58.2525L65.2946 58.2522L65.2909 58.252L65.2872 58.2517L65.2835 58.2515L65.2798 58.2512L65.2761 58.251L65.2725 58.2507L65.2688 58.2505L65.2652 58.2502L65.2616 58.25L65.2581 58.2497L65.2545 58.2495L65.251 58.2492L65.2474 58.249L65.2439 58.2487L65.2404 58.2485L65.237 58.2482L65.2335 58.248L65.2301 58.2478L65.2266 58.2475L65.2232 58.2473L65.2198 58.247L65.2164 58.2468L65.2131 58.2466L65.2097 58.2463L65.2064 58.2461L65.2031 58.2459L65.1998 58.2457L65.1965 58.2454L65.1932 58.2452L65.1899 58.245L65.1867 58.2447L65.1834 58.2445L65.1802 58.2443L65.177 58.2441L65.1738 58.2438L65.1706 58.2436L65.1674 58.2434L65.1642 58.2432L65.161 58.243L65.1579 58.2427L65.1548 58.2425L65.1516 58.2423L65.1485 58.2421L65.1454 58.2419L65.1423 58.2417L65.1392 58.2414L65.1362 58.2412L65.1331 58.241L65.13 58.2408L65.127 58.2406L65.1239 58.2404L65.1209 58.2402L65.1179 58.24L65.1149 58.2398L65.1119 58.2395L65.1089 58.2393L65.1059 58.2391L65.1029 58.2389L65.0999 58.2387L65.0969 58.2385L65.094 58.2383L65.091 58.2381L65.0881 58.2379L65.0851 58.2377L65.0822 58.2375L65.0793 58.2373L65.0763 58.2371L65.0734 58.2369L65.0705 58.2367L65.0676 58.2365L65.0647 58.2363L65.0618 58.2361L65.0589 58.2359L65.056 58.2357L65.0531 58.2355L65.0502 58.2353L65.0473 58.2351L65.0444 58.2348L65.0415 58.2346L65.0386 58.2344L65.0358 58.2342L65.0329 58.234L65.03 58.2338L65.0271 58.2336L65.0243 58.2334L65.0214 58.2333L65.0185 58.2331L65.0157 58.2329L65.0128 58.2327L65.0099 58.2325L65.0071 58.2323L65.0042 58.2321L65.0013 58.2319L64.9985 58.2317L64.9956 58.2315L64.9927 58.2313L64.9898 58.2311L64.987 58.2309L64.9841 58.2307L64.9812 58.2305L64.9784 58.2303L64.9755 58.2301L64.9726 58.2299L64.9697 58.2297L64.9668 58.2295L64.9639 58.2293L64.961 58.2291L64.9581 58.2289L64.9552 58.2286L64.9523 58.2284L64.9494 58.2282L64.9465 58.228L64.9436 58.2278L64.9407 58.2276L64.9377 58.2274L64.9348 58.2272L64.9319 58.227L64.9289 58.2268L64.926 58.2266L64.923 58.2264L64.92 58.2262L64.9171 58.226L64.9141 58.2258L64.9111 58.2256L64.9081 58.2254L64.9051 58.2252L64.9021 58.225L64.8991 58.2247L64.8961 58.2245L64.8931 58.2243L64.89 58.2241L64.887 58.2239L64.8839 58.2237L64.8808 58.2235L64.8778 58.2233L64.8747 58.223L64.8716 58.2228L64.8685 58.2226L64.8654 58.2224L64.8622 58.2222L64.8591 58.222L64.856 58.2217L64.8528 58.2215L64.8496 58.2213L64.8465 58.2211L64.8433 58.2209L64.8401 58.2206L64.8368 58.2204L64.8336 58.2202L64.8304 58.22L64.8271 58.2197L64.8239 58.2195L64.8206 58.2193L64.8173 58.2191L64.814 58.2188L64.8107 58.2186L64.8073 58.2184L64.804 58.2181L64.8006 58.2179L64.7972 58.2177L64.7938 58.2174L64.7904 58.2172L64.787 58.217L64.7836 58.2167L64.7801 58.2165L64.7766 58.2162L64.7731 58.216L64.7696 58.2157L64.7661 58.2155L64.7626 58.2153L64.759 58.215L64.7554 58.2148L64.7519 58.2145L64.7482 58.2143L64.7446 58.214L64.741 58.2138L64.7373 58.2135L64.7336 58.2132L64.7299 58.213L64.7262 58.2127L64.7225 58.2125L64.7187 58.2122L64.7149 58.2119L64.7111 58.2117L64.7073 58.2114L64.7035 58.2111L64.6996 58.2109L64.6957 58.2106L64.6918 58.2103L64.6879 58.2101L64.684 58.2098L64.68 58.2095L64.676 58.2092L64.672 58.209L64.668 58.2087L64.6639 58.2084L64.6598 58.2081L64.6557 58.2078L64.6516 58.2075L64.6475 58.2072L64.6433 58.207L64.6391 58.2067L64.6349 58.2064L64.6306 58.2061L64.6264 58.2058L64.6221 58.2055L64.6178 58.2052L64.6134 58.2049L64.6091 58.2046L64.6047 58.2043L64.6002 58.204L64.5958 58.2037L64.5913 58.2033L64.5868 58.203L64.5823 58.2027L64.5778 58.2024L64.5732 58.2021L64.5686 58.2018L64.5639 58.2014L64.5593 58.2011L64.5546 58.2008L64.5499 58.2005L64.5451 58.2001L64.5404 58.1998L64.5356 58.1995L64.5307 58.1991L64.5259 58.1988L64.521 58.1985L64.5161 58.1981L64.5111 58.1978L64.5061 58.1974L64.5011 58.1971L64.4961 58.1967L64.491 58.1964L64.4859 58.196L64.4808 58.1957L64.4756 58.1953L64.4704 58.1949L64.4652 58.1946L64.4599 58.1942L64.4546 58.1938L64.4493 58.1935L64.444 58.1931L64.4386 58.1927L64.4332 58.1923L64.4277 58.192L64.4222 58.1916L64.4167 58.1912L64.4111 58.1908L64.4055 58.1904L64.3999 58.19L64.3942 58.1896L64.3886 58.1892L64.3828 58.1888L64.3771 58.1884L64.3713 58.188L64.3654 58.1876L64.3595 58.1872L64.3536 58.1868L64.3477 58.1864L64.3417 58.186L64.3357 58.1856L64.3296 58.1851L64.3235 58.1847L64.3174 58.1843L64.3112 58.1839L64.305 58.1834L64.2988 58.183L64.2925 58.1826L64.2862 58.1821L64.2798 58.1817L64.2734 58.1812L64.267 58.1808L64.2605 58.1803L64.254 58.1799L64.2475 58.1794L64.2409 58.179L64.2342 58.1785L64.2275 58.178L64.2208 58.1776L64.2141 58.1771L64.2073 58.1766L64.2004 58.1762L64.1935 58.1757L64.1866 58.1752L64.1797 58.1747L64.1726 58.1742L64.1656 58.1737L64.1585 58.1732L64.1514 58.1728L64.1442 58.1723L64.137 58.1718L64.1297 58.1712L64.1224 58.1707L64.115 58.1702L64.1076 58.1697L64.1002 58.1692L64.0927 58.1687L64.0852 58.1681L64.0776 58.1676L64.07 58.1671L64.0623 58.1666L64.0546 58.166L64.0469 58.1655L64.039 58.1649L64.0312 58.1644L64.0233 58.1638L64.0154 58.1633L64.0074 58.1627L63.9993 58.1622L63.9912 58.1616L63.9831 58.1611L63.9749 58.1605L63.9667 58.1599L63.9584 58.1593L63.9501 58.1588L63.9417 58.1582L63.9333 58.1576L63.9248 58.157L63.9163 58.1564L63.9077 58.1558L63.8991 58.1552L63.8905 58.1546L63.8817 58.154L63.873 58.1534L63.8643 58.1528L63.8557 58.1522L63.8471 58.1516L63.8386 58.151L63.8301 58.1504L63.8217 58.1498L63.8133 58.1492L63.805 58.1487L63.7967 58.1481L63.7884 58.1475L63.7802 58.1469L63.7721 58.1464L63.764 58.1458L63.7559 58.1453L63.7479 58.1447L63.7399 58.1441L63.732 58.1436L63.7241 58.143L63.7162 58.1425L63.7084 58.142L63.7007 58.1414L63.693 58.1409L63.6853 58.1403L63.6777 58.1398L63.6701 58.1393L63.6626 58.1388L63.6551 58.1382L63.6476 58.1377L63.6402 58.1372L63.6329 58.1367L63.6256 58.1362L63.6183 58.1357L63.611 58.1352L63.6038 58.1347L63.5967 58.1342L63.5896 58.1337L63.5825 58.1332L63.5755 58.1327L63.5685 58.1322L63.5615 58.1317L63.5546 58.1313L63.5477 58.1308L63.5409 58.1303L63.5341 58.1298L63.5273 58.1294L63.5206 58.1289L63.5139 58.1284L63.5073 58.128L63.5007 58.1275L63.4941 58.1271L63.4876 58.1266L63.4811 58.1261L63.4747 58.1257L63.4683 58.1253L63.4619 58.1248L63.4556 58.1244L63.4493 58.1239L63.443 58.1235L63.4368 58.1231L63.4306 58.1226L63.4244 58.1222L63.4183 58.1218L63.4122 58.1214L63.4062 58.1209L63.4001 58.1205L63.3942 58.1201L63.3882 58.1197L63.3823 58.1193L63.3764 58.1189L63.3706 58.1185L63.3648 58.1181L63.359 58.1177L63.3533 58.1173L63.3476 58.1169L63.3419 58.1165L63.3362 58.1161L63.3306 58.1157L63.3251 58.1153L63.3195 58.1149L63.314 58.1145L63.3085 58.1141L63.3031 58.1138L63.2977 58.1134L63.2923 58.113L63.2869 58.1126L63.2816 58.1123L63.2763 58.1119L63.271 58.1115L63.2658 58.1112L63.2606 58.1108L63.2554 58.1105L63.2503 58.1101L63.2452 58.1097L63.2401 58.1094L63.235 58.109L63.23 58.1087L63.225 58.1083L63.22 58.108L63.2151 58.1076L63.2102 58.1073L63.2053 58.107L63.2004 58.1066L63.1956 58.1063L63.1908 58.106L63.186 58.1056L63.1813 58.1053L63.1765 58.105L63.1718 58.1046L63.1672 58.1043L63.1625 58.104L63.1579 58.1037L63.1533 58.1034L63.1487 58.103L63.1442 58.1027L63.1397 58.1024L63.1352 58.1021L63.1307 58.1018L63.1263 58.1015L63.1218 58.1012L63.1174 58.1009L63.1131 58.1006L63.1087 58.1003L63.1044 58.0999L63.1001 58.0996L63.0958 58.0994L63.0915 58.0991L63.0873 58.0988L63.0831 58.0985L63.0789 58.0982L63.0747 58.0979L63.0706 58.0976L63.0665 58.0973L63.0623 58.097L63.0583 58.0967L63.0542 58.0965L63.0502 58.0962L63.0461 58.0959L63.0421 58.0956L63.0381 58.0953L63.0342 58.0951L63.0302 58.0948L63.0263 58.0945L63.0224 58.0942L63.0185 58.094L63.0147 58.0937L63.0108 58.0934L63.007 58.0932L63.0032 58.0929L62.9994 58.0926L62.9956 58.0924L62.9918 58.0921L62.9881 58.0919L62.9844 58.0916L62.9807 58.0913L62.977 58.0911L62.9733 58.0908L62.9696 58.0906L62.966 58.0903L62.9624 58.0901L62.9588 58.0898L62.9552 58.0896L62.9516 58.0893L62.948 58.0891L62.9445 58.0888L62.9409 58.0886L62.9374 58.0883L62.9339 58.0881L62.9304 58.0879L62.9269 58.0876L62.9235 58.0874L62.92 58.0871L62.9166 58.0869L62.9132 58.0867L62.9098 58.0864L62.9064 58.0862L62.903 58.0859L62.8996 58.0857L62.8962 58.0855L62.8929 58.0852L62.8895 58.085L62.8862 58.0848L62.8829 58.0845L62.8796 58.0843L62.8763 58.0841L62.873 58.0839L62.8697 58.0836L62.8665 58.0834L62.8632 58.0832L62.86 58.083L62.8568 58.0827L62.8535 58.0825L62.8503 58.0823L62.8471 58.0821L62.8439 58.0818L62.8407 58.0816L62.8375 58.0814L62.8344 58.0812L62.8312 58.081L62.828 58.0807L62.8249 58.0805L62.8218 58.0803L62.8186 58.0801L62.8155 58.0799L62.8124 58.0796L62.8093 58.0794L62.8062 58.0792L62.8031 58.079L62.8 58.0788L62.7969 58.0786L62.7938 58.0784L62.7907 58.0781L62.7876 58.0779L62.7846 58.0777L62.7815 58.0775L62.7784 58.0773L62.7754 58.0771L62.7723 58.0769L62.7693 58.0766L62.7662 58.0764L62.7632 58.0762L62.7602 58.076L62.7571 58.0758L62.7541 58.0756L62.7511 58.0754L62.748 58.0752L62.745 58.075L62.742 58.0748L62.739 58.0745L62.736 58.0743L62.7329 58.0741L62.7299 58.0739L62.7269 58.0737L62.7239 58.0735L62.7209 58.0733L62.7179 58.0731L62.7149 58.0729L62.7118 58.0727L62.7088 58.0724L62.7058 58.0722L62.7028 58.072L62.6998 58.0718L62.6968 58.0716L62.6938 58.0714L62.6907 58.0712L62.6877 58.071L62.6847 58.0708L62.6817 58.0706L62.6787 58.0703L62.6756 58.0701L62.6726 58.0699L62.6696 58.0697L62.6665 58.0695L62.6635 58.0693L62.6604 58.0691L62.6574 58.0689L62.6543 58.0687L62.6513 58.0684L62.6482 58.0682L62.6452 58.068L62.6421 58.0678L62.639 58.0676L62.6359 58.0674L62.6329 58.0672L62.6298 58.0669L62.6267 58.0667L62.6236 58.0665L62.6205 58.0663L62.6173 58.0661L62.6142 58.0659L62.6111 58.0656L62.608 58.0654L62.6048 58.0652L62.6017 58.065L62.5985 58.0648L62.5954 58.0646L62.5922 58.0643L62.589 58.0641L62.5858 58.0639L62.5826 58.0637L62.5794 58.0634L62.5762 58.0632L62.573 58.063L62.5697 58.0628L62.5665 58.0625L62.5633 58.0623L62.56 58.0621L62.5567 58.0619L62.5534 58.0616L62.5501 58.0614L62.5468 58.0612L62.5435 58.0609L62.5402 58.0607L62.5369 58.0605L62.5335 58.0603L62.5301 58.06L62.5268 58.0598L62.5234 58.0595L62.52 58.0593L62.5166 58.0591L62.5132 58.0588L62.5097 58.0586L62.5063 58.0584L62.5028 58.0581L62.4993 58.0579L62.4958 58.0576L62.4923 58.0574L62.4888 58.0571L62.4853 58.0569L62.4817 58.0567L62.4782 58.0564L62.4746 58.0562L62.471 58.0559L62.4674 58.0557L62.4638 58.0554L62.4601 58.0552L62.4565 58.0549L62.4528 58.0546L62.4491 58.0544L62.4454 58.0541L62.4417 58.0539L62.4379 58.0536L62.4342 58.0533L62.4304 58.0531L62.4266 58.0528L62.4228 58.0526L62.419 58.0523L62.4151 58.052L62.4113 58.0518L62.4074 58.0515L62.4035 58.0512L62.3995 58.0509L62.3956 58.0507L62.3916 58.0504L62.3877 58.0501L62.3837 58.0498L62.3796 58.0496L62.3756 58.0493L62.3715 58.049L62.3674 58.0487L62.3633 58.0484L62.3592 58.0481L62.3551 58.0478L62.3509 58.0476L62.3467 58.0473L62.3425 58.047L62.3383 58.0467L62.334 58.0464L62.3297 58.0461L62.3254 58.0458L62.3211 58.0455L62.3167 58.0452L62.3124 58.0449L62.308 58.0446L62.3036 58.0443L62.2991 58.044L62.2946 58.0436L62.2902 58.0433L62.2856 58.043L62.2811 58.0427L62.2765 58.0424L62.2719 58.0421L62.2673 58.0417L62.2627 58.0414L62.258 58.0411L62.2533 58.0408L62.2486 58.0404L62.2438 58.0401L62.2391 58.0398L62.2342 58.0394L62.2294 58.0391L62.2246 58.0388L62.2197 58.0384L62.2148 58.0381L62.2098 58.0377L62.2049 58.0374L62.1999 58.0371L62.1948 58.0367L62.1898 58.0364L62.1847 58.036L62.1796 58.0356L62.1744 58.0353L62.1693 58.0349L62.1641 58.0346L62.1588 58.0342L62.1536 58.0338L62.1483 58.0335L62.143 58.0331L62.1376 58.0327L62.1322 58.0323L62.1268 58.032L62.1214 58.0316L62.1159 58.0312L62.1104 58.0308L62.1048 58.0304L62.0993 58.0301L62.0937 58.0297L62.088 58.0293L62.0823 58.0289L62.0766 58.0285L62.0709 58.0281L62.0651 58.0277L62.0593 58.0273L62.0535 58.0269L62.0476 58.0265L62.0417 58.0261L62.0358 58.0256L62.0298 58.0252L62.0238 58.0248L62.0177 58.0244L62.0116 58.024L62.0055 58.0235L61.9994 58.0231L61.9932 58.0227L61.9869 58.0222L61.9807 58.0218L61.9744 58.0214L61.9681 58.0209L61.9617 58.0205L61.9553 58.02L61.9488 58.0196L61.9423 58.0191L61.9358 58.0187L61.9293 58.0182L61.9227 58.0178L61.916 58.0173L61.9093 58.0169L61.9026 58.0164L61.8959 58.0159L61.8891 58.0154L61.8823 58.015L61.8754 58.0145L61.8685 58.014L61.8615 58.0135L61.8545 58.013L61.8475 58.0126L61.8404 58.0121L61.8333 58.0116L61.8262 58.0111L61.819 58.0106L61.8117 58.0101L61.8045 58.0096L61.7971 58.009L61.7898 58.0085L61.7824 58.008L61.7749 58.0075L61.7674 58.007L61.7599 58.0065L61.7523 58.0059L61.7447 58.0054L61.7371 58.0049L61.7293 58.0043L61.7216 58.0038L61.7138 58.0033L61.706 58.0027L61.6981 58.0022L61.6902 58.0016L61.6822 58.0011L61.6742 58.0005L61.6661 57.9999L61.658 57.9994L61.6498 57.9988L61.6417 57.9982L61.6334 57.9977L61.6251 57.9971L61.6168 57.9965L61.6084 57.9959L61.6 57.9953L61.5915 57.9947L61.583 57.9942L61.5744 57.9936L61.5658 57.993L61.5571 57.9924L61.5484 57.9918L61.5396 57.9911L61.5308 57.9905L61.5219 57.9899L61.513 57.9893L61.5041 57.9887L61.495 57.988L61.486 57.9874L61.4835 57.9872Z" fill="#E55B42" stroke="black" stroke-width="0.590342"/>
<path d="M70.9765 58.9433C70.9119 59.8721 70.5692 60.682 70.0812 61.242C69.5934 61.8018 68.9744 62.0995 68.3406 62.0554C67.7068 62.0114 67.135 61.6309 66.7293 61.0089C66.3235 60.3868 66.0962 59.5373 66.1608 58.6084C66.2254 57.6796 66.5681 56.8697 67.0561 56.3097C67.544 55.7499 68.1629 55.4522 68.7967 55.4963C69.4305 55.5404 70.0023 55.9208 70.408 56.5428C70.8138 57.1649 71.0411 58.0145 70.9765 58.9433Z" fill="white" stroke="black" stroke-width="0.590342"/>
<mask id="path-29-inside-5" fill="white">
<path fill-rule="evenodd" clip-rule="evenodd" d="M68.4096 61.326C67.9667 61.2952 67.646 60.7191 67.6933 60.0393C67.7405 59.3596 68.1379 58.8335 68.5808 58.8643C68.9457 58.8896 69.2276 59.2851 69.2892 59.8038L68.7012 60.0909L69.2496 60.4605C69.1229 60.9832 68.7824 61.3519 68.4096 61.326Z"/>
</mask>
<path fill-rule="evenodd" clip-rule="evenodd" d="M68.4096 61.326C67.9667 61.2952 67.646 60.7191 67.6933 60.0393C67.7405 59.3596 68.1379 58.8335 68.5808 58.8643C68.9457 58.8896 69.2276 59.2851 69.2892 59.8038L68.7012 60.0909L69.2496 60.4605C69.1229 60.9832 68.7824 61.3519 68.4096 61.326Z" fill="black"/>
<path d="M69.2892 59.8038L69.4846 59.7806L69.5011 59.9193L69.3755 59.9806L69.2892 59.8038ZM68.7012 60.0909L68.5912 60.2541L68.3085 60.0636L68.6148 59.9141L68.7012 60.0909ZM69.2496 60.4605L69.3595 60.2973L69.473 60.3738L69.4408 60.5068L69.2496 60.4605ZM67.8896 60.053C67.8682 60.3604 67.931 60.6354 68.0396 60.8303C68.1491 61.0271 68.29 61.1204 68.4233 61.1297L68.396 61.5223C68.0863 61.5007 67.8454 61.2906 67.6957 61.0217C67.545 60.751 67.4711 60.398 67.497 60.0257L67.8896 60.053ZM68.5671 59.0606C68.4339 59.0513 68.2815 59.1242 68.1457 59.3039C68.0112 59.482 67.911 59.7456 67.8896 60.053L67.497 60.0257C67.5229 59.6533 67.6449 59.314 67.8316 59.0667C68.0171 58.8212 68.2848 58.6464 68.5944 58.6679L68.5671 59.0606ZM69.0938 59.827C69.0662 59.5949 68.9903 59.4005 68.8907 59.2663C68.7914 59.1324 68.6777 59.0682 68.5671 59.0606L68.5944 58.6679C68.8488 58.6856 69.0585 58.8319 69.2068 59.0318C69.3548 59.2313 69.4506 59.494 69.4846 59.7806L69.0938 59.827ZM69.3755 59.9806L68.7875 60.2677L68.6148 59.9141L69.2029 59.627L69.3755 59.9806ZM68.8111 59.9277L69.3595 60.2973L69.1396 60.6237L68.5912 60.2541L68.8111 59.9277ZM68.4233 61.1297C68.5361 61.1375 68.6607 61.0874 68.7797 60.963C68.899 60.8383 69.0016 60.6485 69.0583 60.4142L69.4408 60.5068C69.3709 60.7953 69.2399 61.0512 69.0641 61.235C68.888 61.4191 68.6559 61.5403 68.396 61.5223L68.4233 61.1297Z" fill="black" mask="url(#path-29-inside-5)"/>
<path d="M66.1909 58.3146C66.3004 57.5092 66.6203 56.8098 67.0561 56.3097C67.544 55.7499 68.1629 55.4522 68.7967 55.4963C69.4305 55.5404 70.0023 55.9208 70.408 56.5428C70.7704 57.0984 70.9904 57.8353 70.9874 58.6482L70.9804 58.6477L70.9709 58.647L70.9615 58.6464L70.9521 58.6457L70.9427 58.6451L70.9334 58.6444L70.9242 58.6438L70.915 58.6431L70.9059 58.6425L70.8968 58.6419L70.8878 58.6412L70.8788 58.6406L70.8698 58.64L70.861 58.6394L70.8521 58.6388L70.8434 58.6381L70.8346 58.6375L70.826 58.6369L70.8173 58.6363L70.8088 58.6357L70.8002 58.6351L70.7918 58.6346L70.7833 58.634L70.7749 58.6334L70.7666 58.6328L70.7583 58.6322L70.7501 58.6317L70.7419 58.6311L70.7338 58.6305L70.7257 58.63L70.7176 58.6294L70.7096 58.6288L70.7017 58.6283L70.6938 58.6277L70.6859 58.6272L70.6781 58.6267L70.6704 58.6261L70.6627 58.6256L70.655 58.625L70.6474 58.6245L70.6398 58.624L70.6322 58.6235L70.6247 58.6229L70.6173 58.6224L70.6099 58.6219L70.6025 58.6214L70.5952 58.6209L70.588 58.6204L70.5807 58.6199L70.5735 58.6194L70.5664 58.6189L70.5593 58.6184L70.5522 58.6179L70.5452 58.6174L70.5383 58.6169L70.5313 58.6164L70.5244 58.616L70.5176 58.6155L70.5108 58.615L70.504 58.6145L70.4973 58.6141L70.4906 58.6136L70.484 58.6132L70.4774 58.6127L70.4708 58.6122L70.4643 58.6118L70.4578 58.6113L70.4514 58.6109L70.445 58.6104L70.4386 58.61L70.4323 58.6096L70.426 58.6091L70.4198 58.6087L70.4135 58.6083L70.4074 58.6078L70.4012 58.6074L70.3951 58.607L70.3891 58.6066L70.3831 58.6061L70.3771 58.6057L70.3711 58.6053L70.3652 58.6049L70.3593 58.6045L70.3535 58.6041L70.3477 58.6037L70.3419 58.6033L70.3362 58.6029L70.3305 58.6025L70.3248 58.6021L70.3192 58.6017L70.3136 58.6013L70.308 58.6009L70.3025 58.6005L70.297 58.6002L70.2915 58.5998L70.2861 58.5994L70.2807 58.599L70.2754 58.5986L70.27 58.5983L70.2647 58.5979L70.2595 58.5975L70.2542 58.5972L70.249 58.5968L70.2439 58.5965L70.2387 58.5961L70.2336 58.5957L70.2286 58.5954L70.2235 58.595L70.2185 58.5947L70.2135 58.5943L70.2086 58.594L70.2036 58.5937L70.1988 58.5933L70.1939 58.593L70.1891 58.5926L70.1842 58.5923L70.1795 58.592L70.1747 58.5917L70.17 58.5913L70.1653 58.591L70.1606 58.5907L70.156 58.5904L70.1514 58.59L70.1468 58.5897L70.1423 58.5894L70.1377 58.5891L70.1332 58.5888L70.1288 58.5885L70.1243 58.5881L70.1199 58.5878L70.1155 58.5875L70.1111 58.5872L70.1068 58.5869L70.1025 58.5866L70.0982 58.5863L70.0939 58.586L70.0897 58.5857L70.0854 58.5854L70.0812 58.5852L70.0771 58.5849L70.0729 58.5846L70.0688 58.5843L70.0647 58.584L70.0606 58.5837L70.0566 58.5834L70.0525 58.5832L70.0485 58.5829L70.0445 58.5826L70.0405 58.5823L70.0366 58.582L70.0327 58.5818L70.0288 58.5815L70.0249 58.5812L70.021 58.581L70.0172 58.5807L70.0134 58.5804L70.0096 58.5802L70.0058 58.5799L70.002 58.5796L69.9983 58.5794L69.9946 58.5791L69.9909 58.5789L69.9872 58.5786L69.9835 58.5784L69.9799 58.5781L69.9762 58.5778L69.9726 58.5776L69.969 58.5773L69.9654 58.5771L69.9619 58.5769L69.9583 58.5766L69.9548 58.5764L69.9513 58.5761L69.9478 58.5759L69.9444 58.5756L69.9409 58.5754L69.9375 58.5752L69.934 58.5749L69.9306 58.5747L69.9272 58.5744L69.9238 58.5742L69.9205 58.574L69.9171 58.5737L69.9138 58.5735L69.9105 58.5733L69.9072 58.573L69.9039 58.5728L69.9006 58.5726L69.8973 58.5724L69.894 58.5721L69.8908 58.5719L69.8876 58.5717L69.8844 58.5715L69.8812 58.5712L69.878 58.571L69.8748 58.5708L69.8716 58.5706L69.8684 58.5704L69.8653 58.5701L69.8622 58.5699L69.859 58.5697L69.8559 58.5695L69.8528 58.5693L69.8497 58.5691L69.8466 58.5688L69.8436 58.5686L69.8405 58.5684L69.8374 58.5682L69.8344 58.568L69.8313 58.5678L69.8283 58.5676L69.8253 58.5674L69.8223 58.5671L69.8193 58.5669L69.8163 58.5667L69.8133 58.5665L69.8103 58.5663L69.8073 58.5661L69.8043 58.5659L69.8014 58.5657L69.7984 58.5655L69.7955 58.5653L69.7925 58.5651L69.7896 58.5649L69.7867 58.5647L69.7837 58.5645L69.7808 58.5643L69.7779 58.5641L69.775 58.5639L69.7721 58.5637L69.7691 58.5634L69.7662 58.5632L69.7634 58.563L69.7605 58.5628L69.7576 58.5626L69.7547 58.5624L69.7518 58.5622L69.7489 58.562L69.746 58.5618L69.7432 58.5616L69.7403 58.5614L69.7374 58.5612L69.7345 58.561L69.7317 58.5608L69.7288 58.5606L69.7259 58.5604L69.7231 58.5602L69.7202 58.56L69.7173 58.5598L69.7145 58.5596L69.7116 58.5594L69.7087 58.5592L69.7059 58.559L69.703 58.5588L69.7001 58.5586L69.6972 58.5584L69.6944 58.5582L69.6915 58.558L69.6886 58.5578L69.6857 58.5576L69.6829 58.5574L69.68 58.5572L69.6771 58.557L69.6742 58.5568L69.6713 58.5566L69.6684 58.5564L69.6655 58.5562L69.6626 58.556L69.6597 58.5558L69.6568 58.5556L69.6539 58.5554L69.651 58.5552L69.6481 58.555L69.6451 58.5548L69.6422 58.5546L69.6393 58.5544L69.6363 58.5542L69.6334 58.554L69.6304 58.5538L69.6274 58.5536L69.6245 58.5534L69.6215 58.5532L69.6185 58.553L69.6155 58.5528L69.6125 58.5526L69.6095 58.5523L69.6065 58.5521L69.6035 58.5519L69.6005 58.5517L69.5974 58.5515L69.5944 58.5513L69.5913 58.5511L69.5882 58.5509L69.5852 58.5507L69.5821 58.5504L69.579 58.5502L69.5759 58.55L69.5728 58.5498L69.5696 58.5496L69.5665 58.5494L69.5634 58.5491L69.5602 58.5489L69.557 58.5487L69.5539 58.5485L69.5507 58.5483L69.5475 58.548L69.5442 58.5478L69.541 58.5476L69.5378 58.5474L69.5345 58.5471L69.5313 58.5469L69.528 58.5467L69.5247 58.5464L69.5214 58.5462L69.5181 58.546L69.5147 58.5458L69.5114 58.5455L69.508 58.5453L69.5046 58.5451L69.5012 58.5448L69.4978 58.5446L69.4944 58.5443L69.491 58.5441L69.4875 58.5439L69.484 58.5436L69.4805 58.5434L69.477 58.5431L69.4735 58.5429L69.47 58.5426L69.4664 58.5424L69.4628 58.5421L69.4592 58.5419L69.4556 58.5416L69.452 58.5414L69.4484 58.5411L69.4447 58.5409L69.441 58.5406L69.4373 58.5404L69.4336 58.5401L69.4299 58.5399L69.4261 58.5396L69.4223 58.5393L69.4185 58.5391L69.4147 58.5388L69.4109 58.5385L69.407 58.5383L69.4031 58.538L69.3992 58.5377L69.3953 58.5375L69.3914 58.5372L69.3874 58.5369L69.3834 58.5366L69.3794 58.5363L69.3754 58.5361L69.3713 58.5358L69.3672 58.5355L69.3631 58.5352L69.359 58.5349L69.3549 58.5346L69.3507 58.5344L69.3465 58.5341L69.3423 58.5338L69.338 58.5335L69.3338 58.5332L69.3295 58.5329L69.3252 58.5326L69.3208 58.5323L69.3165 58.532L69.3121 58.5317L69.3076 58.5314L69.3032 58.531L69.2987 58.5307L69.2942 58.5304L69.2897 58.5301L69.2852 58.5298L69.2806 58.5295L69.276 58.5292L69.2713 58.5288L69.2667 58.5285L69.262 58.5282L69.2573 58.5279L69.2525 58.5275L69.2478 58.5272L69.243 58.5269L69.2381 58.5265L69.2333 58.5262L69.2284 58.5258L69.2235 58.5255L69.2185 58.5252L69.2135 58.5248L69.2085 58.5245L69.2035 58.5241L69.1984 58.5238L69.1933 58.5234L69.1882 58.5231L69.183 58.5227L69.1778 58.5223L69.1726 58.522L69.1673 58.5216L69.162 58.5212L69.1567 58.5209L69.1514 58.5205L69.146 58.5201L69.1406 58.5197L69.1351 58.5194L69.1296 58.519L69.1241 58.5186L69.1185 58.5182L69.1129 58.5178L69.1073 58.5174L69.1016 58.517L69.096 58.5166L69.0902 58.5162L69.0845 58.5158L69.0787 58.5154L69.0728 58.515L69.0669 58.5146L69.061 58.5142L69.0551 58.5138L69.0491 58.5134L69.0431 58.513L69.037 58.5125L69.0309 58.5121L69.0248 58.5117L69.0186 58.5113L69.0124 58.5108L69.0062 58.5104L68.9999 58.51L68.9936 58.5095L68.9872 58.5091L68.9808 58.5086L68.9744 58.5082L68.9679 58.5077L68.9614 58.5073L68.9548 58.5068L68.9483 58.5064L68.9416 58.5059L68.9349 58.5054L68.9282 58.505L68.9215 58.5045L68.9147 58.504L68.9078 58.5036L68.9009 58.5031L68.894 58.5026L68.8871 58.5021L68.88 58.5016L68.873 58.5011L68.8659 58.5006L68.8588 58.5001L68.8516 58.4996L68.8444 58.4991L68.8371 58.4986L68.8298 58.4981L68.8224 58.4976L68.815 58.4971L68.8076 58.4966L68.8001 58.4961L68.7926 58.4955L68.785 58.495L68.7774 58.4945L68.7697 58.494L68.762 58.4934L68.7542 58.4929L68.7464 58.4923L68.7386 58.4918L68.7307 58.4912L68.7228 58.4907L68.7148 58.4901L68.7067 58.4896L68.6986 58.489L68.6905 58.4884L68.6823 58.4879L68.6741 58.4873L68.6658 58.4867L68.6575 58.4861L68.6491 58.4856L68.6407 58.485L68.6322 58.4844L68.6237 58.4838L68.6151 58.4832L68.6065 58.4826L68.5979 58.482L68.5891 58.4814L68.5804 58.4808L68.5717 58.4802L68.5631 58.4796L68.5545 58.479L68.546 58.4784L68.5375 58.4778L68.5291 58.4772L68.5207 58.4766L68.5124 58.4761L68.5041 58.4755L68.4958 58.4749L68.4876 58.4743L68.4795 58.4738L68.4714 58.4732L68.4633 58.4726L68.4553 58.4721L68.4473 58.4715L68.4394 58.471L68.4315 58.4704L68.4236 58.4699L68.4158 58.4693L68.4081 58.4688L68.4004 58.4683L68.3927 58.4677L68.3851 58.4672L68.3775 58.4667L68.37 58.4662L68.3625 58.4656L68.355 58.4651L68.3476 58.4646L68.3403 58.4641L68.333 58.4636L68.3257 58.4631L68.3184 58.4626L68.3112 58.4621L68.3041 58.4616L68.297 58.4611L68.2899 58.4606L68.2829 58.4601L68.2759 58.4596L68.2689 58.4591L68.262 58.4586L68.2551 58.4582L68.2483 58.4577L68.2415 58.4572L68.2347 58.4568L68.228 58.4563L68.2213 58.4558L68.2147 58.4554L68.2081 58.4549L68.2015 58.4544L68.195 58.454L68.1885 58.4535L68.1821 58.4531L68.1757 58.4526L68.1693 58.4522L68.163 58.4518L68.1567 58.4513L68.1504 58.4509L68.1442 58.4505L68.138 58.45L68.1318 58.4496L68.1257 58.4492L68.1196 58.4487L68.1136 58.4483L68.1075 58.4479L68.1016 58.4475L68.0956 58.4471L68.0897 58.4467L68.0838 58.4463L68.078 58.4459L68.0722 58.4454L68.0664 58.445L68.0607 58.4446L68.055 58.4443L68.0493 58.4439L68.0436 58.4435L68.038 58.4431L68.0325 58.4427L68.0269 58.4423L68.0214 58.4419L68.0159 58.4415L68.0105 58.4412L68.0051 58.4408L67.9997 58.4404L67.9943 58.44L67.989 58.4397L67.9837 58.4393L67.9784 58.4389L67.9732 58.4386L67.968 58.4382L67.9628 58.4378L67.9577 58.4375L67.9526 58.4371L67.9475 58.4368L67.9424 58.4364L67.9374 58.4361L67.9324 58.4357L67.9274 58.4354L67.9225 58.435L67.9176 58.4347L67.9127 58.4344L67.9078 58.434L67.903 58.4337L67.8982 58.4333L67.8934 58.433L67.8887 58.4327L67.8839 58.4324L67.8792 58.432L67.8746 58.4317L67.8699 58.4314L67.8653 58.4311L67.8607 58.4307L67.8561 58.4304L67.8516 58.4301L67.8471 58.4298L67.8426 58.4295L67.8381 58.4292L67.8337 58.4289L67.8292 58.4286L67.8248 58.4282L67.8205 58.4279L67.8161 58.4276L67.8118 58.4273L67.8075 58.427L67.8032 58.4267L67.7989 58.4264L67.7947 58.4262L67.7905 58.4259L67.7863 58.4256L67.7821 58.4253L67.778 58.425L67.7738 58.4247L67.7697 58.4244L67.7657 58.4241L67.7616 58.4239L67.7575 58.4236L67.7535 58.4233L67.7495 58.423L67.7455 58.4227L67.7416 58.4225L67.7376 58.4222L67.7337 58.4219L67.7298 58.4216L67.7259 58.4214L67.7221 58.4211L67.7182 58.4208L67.7144 58.4206L67.7106 58.4203L67.7068 58.42L67.703 58.4198L67.6992 58.4195L67.6955 58.4193L67.6918 58.419L67.6881 58.4187L67.6844 58.4185L67.6807 58.4182L67.677 58.418L67.6734 58.4177L67.6698 58.4175L67.6662 58.4172L67.6626 58.417L67.659 58.4167L67.6554 58.4165L67.6519 58.4162L67.6483 58.416L67.6448 58.4157L67.6413 58.4155L67.6378 58.4152L67.6343 58.415L67.6309 58.4148L67.6274 58.4145L67.624 58.4143L67.6206 58.414L67.6171 58.4138L67.6138 58.4136L67.6104 58.4133L67.607 58.4131L67.6036 58.4129L67.6003 58.4126L67.5969 58.4124L67.5936 58.4122L67.5903 58.4119L67.587 58.4117L67.5837 58.4115L67.5804 58.4113L67.5771 58.411L67.5739 58.4108L67.5706 58.4106L67.5674 58.4103L67.5641 58.4101L67.5609 58.4099L67.5577 58.4097L67.5545 58.4095L67.5513 58.4092L67.5481 58.409L67.5449 58.4088L67.5418 58.4086L67.5386 58.4083L67.5354 58.4081L67.5323 58.4079L67.5292 58.4077L67.526 58.4075L67.5229 58.4073L67.5198 58.407L67.5167 58.4068L67.5136 58.4066L67.5105 58.4064L67.5074 58.4062L67.5043 58.406L67.5012 58.4057L67.4981 58.4055L67.495 58.4053L67.492 58.4051L67.4889 58.4049L67.4858 58.4047L67.4828 58.4045L67.4797 58.4043L67.4767 58.404L67.4736 58.4038L67.4706 58.4036L67.4676 58.4034L67.4645 58.4032L67.4615 58.403L67.4585 58.4028L67.4554 58.4026L67.4524 58.4024L67.4494 58.4021L67.4464 58.4019L67.4434 58.4017L67.4403 58.4015L67.4373 58.4013L67.4343 58.4011L67.4313 58.4009L67.4283 58.4007L67.4253 58.4005L67.4223 58.4003L67.4192 58.4L67.4162 58.3998L67.4132 58.3996L67.4102 58.3994L67.4072 58.3992L67.4042 58.399L67.4012 58.3988L67.3981 58.3986L67.3951 58.3984L67.3921 58.3982L67.3891 58.3979L67.386 58.3977L67.383 58.3975L67.38 58.3973L67.377 58.3971L67.3739 58.3969L67.3709 58.3967L67.3678 58.3965L67.3648 58.3963L67.3617 58.396L67.3587 58.3958L67.3556 58.3956L67.3526 58.3954L67.3495 58.3952L67.3464 58.395L67.3433 58.3948L67.3403 58.3946L67.3372 58.3943L67.3341 58.3941L67.331 58.3939L67.3279 58.3937L67.3247 58.3935L67.3216 58.3933L67.3185 58.393L67.3154 58.3928L67.3122 58.3926L67.3091 58.3924L67.3059 58.3922L67.3028 58.3919L67.2996 58.3917L67.2964 58.3915L67.2932 58.3913L67.29 58.3911L67.2868 58.3908L67.2836 58.3906L67.2804 58.3904L67.2771 58.3902L67.2739 58.3899L67.2707 58.3897L67.2674 58.3895L67.2641 58.3893L67.2608 58.389L67.2575 58.3888L67.2542 58.3886L67.2509 58.3883L67.2476 58.3881L67.2443 58.3879L67.2409 58.3876L67.2375 58.3874L67.2342 58.3872L67.2308 58.3869L67.2274 58.3867L67.224 58.3865L67.2206 58.3862L67.2171 58.386L67.2137 58.3858L67.2102 58.3855L67.2067 58.3853L67.2032 58.385L67.1997 58.3848L67.1962 58.3845L67.1927 58.3843L67.1891 58.384L67.1856 58.3838L67.182 58.3835L67.1784 58.3833L67.1748 58.383L67.1712 58.3828L67.1675 58.3825L67.1639 58.3823L67.1602 58.382L67.1565 58.3818L67.1528 58.3815L67.1491 58.3813L67.1453 58.381L67.1416 58.3807L67.1378 58.3805L67.134 58.3802L67.1302 58.3799L67.1264 58.3797L67.1225 58.3794L67.1187 58.3791L67.1148 58.3789L67.1109 58.3786L67.1069 58.3783L67.103 58.3781L67.099 58.3778L67.0951 58.3775L67.0911 58.3772L67.087 58.3769L67.083 58.3767L67.0789 58.3764L67.0748 58.3761L67.0707 58.3758L67.0666 58.3755L67.0625 58.3752L67.0583 58.3749L67.0541 58.3747L67.0499 58.3744L67.0457 58.3741L67.0414 58.3738L67.0371 58.3735L67.0328 58.3732L67.0285 58.3729L67.0241 58.3726L67.0198 58.3723L67.0154 58.372L67.011 58.3717L67.0065 58.3713L67.002 58.371L66.9975 58.3707L66.993 58.3704L66.9885 58.3701L66.9839 58.3698L66.9793 58.3695L66.9747 58.3691L66.9701 58.3688L66.9654 58.3685L66.9607 58.3682L66.956 58.3678L66.9512 58.3675L66.9464 58.3672L66.9416 58.3668L66.9368 58.3665L66.932 58.3662L66.9271 58.3658L66.9222 58.3655L66.9172 58.3651L66.9123 58.3648L66.9073 58.3644L66.9022 58.3641L66.8972 58.3637L66.8921 58.3634L66.887 58.363L66.8818 58.3627L66.8767 58.3623L66.8715 58.362L66.8662 58.3616L66.861 58.3612L66.8557 58.3609L66.8504 58.3605L66.845 58.3601L66.8396 58.3597L66.8342 58.3594L66.8288 58.359L66.8233 58.3586L66.8178 58.3582L66.8122 58.3578L66.8067 58.3574L66.801 58.3571L66.7954 58.3567L66.7897 58.3563L66.784 58.3559L66.7783 58.3555L66.7725 58.3551L66.7667 58.3547L66.7609 58.3543L66.755 58.3539L66.7491 58.3534L66.7432 58.353L66.7372 58.3526L66.7312 58.3522L66.7251 58.3518L66.719 58.3514L66.7129 58.3509L66.7068 58.3505L66.7006 58.3501L66.6943 58.3496L66.6881 58.3492L66.6818 58.3488L66.6754 58.3483L66.6691 58.3479L66.6627 58.3474L66.6562 58.347L66.6497 58.3465L66.6432 58.3461L66.6367 58.3456L66.6301 58.3452L66.6234 58.3447L66.6167 58.3442L66.61 58.3438L66.6033 58.3433L66.5965 58.3428L66.5897 58.3424L66.5828 58.3419L66.5759 58.3414L66.5689 58.3409L66.5619 58.3404L66.5549 58.3399L66.5478 58.3395L66.5407 58.339L66.5336 58.3385L66.5264 58.338L66.5191 58.3375L66.5119 58.337L66.5045 58.3364L66.4972 58.3359L66.4898 58.3354L66.4823 58.3349L66.4748 58.3344L66.4673 58.3339L66.4597 58.3333L66.4521 58.3328L66.4445 58.3323L66.4367 58.3317L66.429 58.3312L66.4212 58.3306L66.4134 58.3301L66.4055 58.3296L66.3976 58.329L66.3896 58.3284L66.3816 58.3279L66.3735 58.3273L66.3654 58.3268L66.3572 58.3262L66.349 58.3256L66.3408 58.3251L66.3325 58.3245L66.3242 58.3239L66.3158 58.3233L66.3074 58.3227L66.2989 58.3221L66.2904 58.3215L66.2818 58.321L66.2732 58.3204L66.2645 58.3197L66.2558 58.3191L66.247 58.3185L66.2382 58.3179L66.2293 58.3173L66.2204 58.3167L66.2115 58.3161L66.2024 58.3154L66.1934 58.3148L66.1909 58.3146Z" fill="#E55B42" stroke="black" stroke-width="0.590342"/>
<path d="M69.3948 64.5266C68.6017 65.435 66.1578 66.7366 62.7273 64.6761" stroke="black" stroke-width="0.590342"/>
<path d="M46.9663 106.511C46.9663 101.801 43.8259 98.6601 39.1154 98.634H28.6474V119.57H36.4984V113.969H37.205L39.1154 119.57H46.9663L43.5642 112.504C45.7102 111.195 46.9663 109.102 46.9663 106.511ZM36.5246 104.182H37.5975C38.8275 104.182 39.7958 105.229 39.7958 106.485C39.7958 107.741 38.8013 108.762 37.5975 108.762H36.5246V104.182ZM58.2316 106.485V114.467C58.2316 115.252 57.7082 115.775 56.9231 115.775C56.138 115.775 55.6146 115.252 55.6146 114.467V106.485H47.7637V113.682C47.7637 117.372 50.4853 119.832 54.5678 119.832C56.0333 119.832 57.2895 119.439 58.2316 118.706V119.57H66.0825V106.485H58.2316ZM79.4292 106.223C77.8066 106.223 76.3935 106.537 75.242 107.113V106.485H67.391V119.57H75.242V112.373C75.242 111.588 75.7654 111.065 76.5505 111.065C77.3356 111.065 77.859 111.588 77.859 112.373V119.57H85.7099V112.373C85.7099 108.683 83.1976 106.223 79.4292 106.223ZM41.2095 137.485L39.8225 144.525L38.7233 141.41H34.7979L33.6987 144.525L32.3117 137.485H25.6384L29.433 150.57H35.3212L36.6297 147.953L37.9382 150.57H44.0881L47.8828 137.485H41.2095ZM52.5964 136.176C54.7947 136.176 56.5219 134.423 56.5219 132.251C56.5219 130.079 54.7947 128.325 52.5964 128.325C50.3981 128.325 48.6709 130.079 48.6709 132.251C48.6709 134.423 50.3981 136.176 52.5964 136.176ZM48.6709 137.485V150.57H56.5219V137.485H48.6709ZM69.0793 140.102V134.868H66.4623V129.634H58.6114V134.868H57.3029V140.102H58.6114V145.336C58.6114 148.476 60.705 150.57 63.8453 150.57H69.0793V144.027H67.7708C66.724 144.027 66.4623 143.766 66.4623 142.719V140.102H69.0793ZM82.1765 137.223C80.5539 137.223 79.1408 137.537 77.9893 138.113V129.634H70.1384V150.57H77.9893V143.373C77.9893 142.588 78.5127 142.065 79.2978 142.065C80.0829 142.065 80.6063 142.588 80.6063 143.373V150.57H88.4572V143.373C88.4572 139.683 85.9449 137.223 82.1765 137.223ZM50.7691 167.176C52.9674 167.176 54.6946 165.423 54.6946 163.251C54.6946 161.079 52.9674 159.325 50.7691 159.325C48.5708 159.325 46.8436 161.079 46.8436 163.251C46.8436 165.423 48.5708 167.176 50.7691 167.176ZM46.8436 168.485V181.57H54.6946V168.485H46.8436ZM67.252 171.102V165.868H64.635V160.634H56.7841V165.868H55.4756V171.102H56.7841V176.336C56.7841 179.476 58.8777 181.57 62.018 181.57H67.252V175.027H65.9435C64.8967 175.027 64.635 174.766 64.635 173.719V171.102H67.252ZM68.8345 175.027H73.545L74.0684 160.634H68.3111L68.8345 175.027ZM71.1897 181.832C72.7599 181.832 74.0684 180.523 74.0684 178.953C74.0684 177.383 72.7599 176.074 71.1897 176.074C69.6196 176.074 68.3111 177.383 68.3111 178.953C68.3111 180.523 69.6196 181.832 71.1897 181.832Z" fill="black"/>
<path d="M46.0577 105.377C46.0577 100.666 42.9174 97.5259 38.2068 97.4997H27.7389V118.436H35.5898V112.835H36.2964L38.2068 118.436H46.0577L42.6557 111.37C44.8016 110.061 46.0577 107.968 46.0577 105.377ZM35.616 103.048H36.6889C37.9189 103.048 38.8872 104.094 38.8872 105.351C38.8872 106.607 37.8928 107.627 36.6889 107.627H35.616V103.048ZM57.323 105.351V113.332C57.323 114.118 56.7996 114.641 56.0145 114.641C55.2294 114.641 54.706 114.118 54.706 113.332V105.351H46.8551V112.547C46.8551 116.237 49.5768 118.697 53.6593 118.697C55.1248 118.697 56.3809 118.305 57.323 117.572V118.436H65.174V105.351H57.323ZM78.5206 105.089C76.8981 105.089 75.4849 105.403 74.3334 105.979V105.351H66.4825V118.436H74.3334V111.239C74.3334 110.454 74.8568 109.93 75.6419 109.93C76.427 109.93 76.9504 110.454 76.9504 111.239V118.436H84.8013V111.239C84.8013 107.549 82.289 105.089 78.5206 105.089ZM40.3009 136.351L38.9139 143.39L37.8148 140.276H33.8893L32.7902 143.39L31.4031 136.351H24.7298L28.5245 149.436H34.4127L35.7212 146.819L37.0297 149.436H43.1796L46.9742 136.351H40.3009ZM51.6878 135.042C53.8861 135.042 55.6133 133.289 55.6133 131.117C55.6133 128.945 53.8861 127.191 51.6878 127.191C49.4896 127.191 47.7624 128.945 47.7624 131.117C47.7624 133.289 49.4896 135.042 51.6878 135.042ZM47.7624 136.351V149.436H55.6133V136.351H47.7624ZM68.1707 138.968V133.734H65.5537V128.5H57.7028V133.734H56.3943V138.968H57.7028V144.202C57.7028 147.342 59.7964 149.436 62.9368 149.436H68.1707V142.893H66.8622C65.8154 142.893 65.5537 142.631 65.5537 141.585V138.968H68.1707ZM81.2679 136.089C79.6454 136.089 78.2322 136.403 77.0807 136.979V128.5H69.2298V149.436H77.0807V142.239C77.0807 141.454 77.6041 140.93 78.3892 140.93C79.1743 140.93 79.6977 141.454 79.6977 142.239V149.436H87.5487V142.239C87.5487 138.549 85.0364 136.089 81.2679 136.089ZM49.8605 166.042C52.0588 166.042 53.786 164.289 53.786 162.117C53.786 159.945 52.0588 158.191 49.8605 158.191C47.6623 158.191 45.9351 159.945 45.9351 162.117C45.9351 164.289 47.6623 166.042 49.8605 166.042ZM45.9351 167.351V180.436H53.786V167.351H45.9351ZM66.3434 169.968V164.734H63.7265V159.5H55.8755V164.734H54.567V169.968H55.8755V175.202C55.8755 178.342 57.9691 180.436 61.1095 180.436H66.3434V173.893H65.0349C63.9882 173.893 63.7265 173.631 63.7265 172.585V169.968H66.3434ZM67.9259 173.893H72.6365L73.1599 159.5H67.4025L67.9259 173.893ZM70.2812 180.697C71.8514 180.697 73.1599 179.389 73.1599 177.819C73.1599 176.248 71.8514 174.94 70.2812 174.94C68.711 174.94 67.4025 176.248 67.4025 177.819C67.4025 179.389 68.711 180.697 70.2812 180.697Z" fill="#EFC404"/>
</svg>
