<svg width="211" height="212" viewBox="0 0 211 212" fill="none" xmlns="http://www.w3.org/2000/svg">
<circle cx="105" cy="108" r="85" fill="#E55B42" stroke="black" stroke-width="30"/>
<mask id="mask0" mask-type="alpha" maskUnits="userSpaceOnUse" x="28" y="30" width="154" height="154">
<circle cx="104.897" cy="107.26" r="75.4082" fill="#E55B42" stroke="white" stroke-width="2.1115"/>
</mask>
<g mask="url(#mask0)">
<path d="M132.701 86.7731C132.701 86.7731 151.933 86.7587 156.221 111.039C159.133 100.404 150.88 75.2376 132.701 86.7731Z" fill="#FA7B5A" stroke="black" stroke-width="2.1115" stroke-miterlimit="10"/>
<path d="M202.131 61.2956C202.131 61.2956 192.047 69.8154 163.198 39.6297C130.738 5.64756 115.178 74.0663 115.178 74.0663L89.6571 216.237C89.6571 216.237 87.0811 212.347 89.8161 194.967C92.551 177.588 58.9133 166.822 37.8333 204.312C23.6292 229.588 30.3414 246.615 48.8587 246.801C48.8587 246.801 62.0608 305.136 88.7163 298.176C115.372 291.216 119.574 287.841 126.533 254.377C133.491 220.913 152.813 86.5813 152.813 86.5813C152.813 86.5813 157.028 50.2273 167.988 60.0699C178.948 69.9125 196.354 76.4282 205.576 71.878C212.502 68.4582 215.401 58.1514 202.131 61.2956Z" fill="#FA7B5A" stroke="black" stroke-width="2.1115" stroke-miterlimit="10"/>
<path d="M166.566 58.433C166.566 58.433 150.194 44.1957 142.408 86.2754C138.892 105.27 129.761 162.01 126.693 184.663C115.51 267.195 104.012 293.329 104.012 293.329C104.012 293.329 123.353 294.693 132.238 222.301C135.92 192.239 143.107 147.335 148.78 112.309C153.612 82.4985 153.83 58.5816 166.566 58.433Z" fill="black" stroke="black" stroke-width="2.1115" stroke-miterlimit="10"/>
<path d="M54.8391 194.273C46.3778 201.702 30.8243 227.461 42.673 235.228C54.5218 242.995 86.2132 208.585 81.5998 192.959C80.6748 189.826 71.7815 201.469 63.7165 200.689C55.6514 199.908 63.2974 186.844 54.8391 194.273Z" fill="black" stroke="black" stroke-width="2.1115" stroke-miterlimit="10"/>
<path d="M202.131 61.2953C202.131 61.2953 190.484 68.8523 163.198 39.6295C131.127 5.28105 115.178 74.0661 115.178 74.0661L89.6571 216.236C89.6571 216.236 87.0811 212.347 89.816 194.967C92.551 177.587 58.9133 166.822 37.8332 204.311C23.6291 229.588 30.3414 246.615 48.8587 246.801C48.8587 246.801 62.0608 305.136 88.7163 298.175C115.372 291.215 119.574 287.84 126.533 254.376C133.491 220.912 152.813 86.581 152.813 86.581C152.813 86.581 156.949 51.5851 167.916 61.4288C178.882 71.2725 198.754 75.4651 205.573 71.8772C212.392 68.2892 215.401 58.1511 202.131 61.2953Z" stroke="black" stroke-width="2.1115" stroke-miterlimit="10"/>
<path d="M117.864 120.576L117.522 120.515C116.374 120.312 115.278 121.078 115.075 122.225L95.9316 230.321C95.7283 231.469 96.4941 232.564 97.642 232.767L97.9838 232.828C99.1318 233.031 100.227 232.265 100.43 231.118L119.574 123.022C119.777 121.874 119.011 120.779 117.864 120.576Z" fill="#E55B42" stroke="black" stroke-width="2.1115" stroke-linecap="round" stroke-linejoin="round"/>
<path d="M117.198 120.458L116.856 120.397C115.708 120.194 114.613 120.96 114.409 122.108L95.266 230.203C95.0627 231.351 95.8284 232.446 96.9764 232.65L97.3182 232.71C98.4661 232.914 99.5615 232.148 99.7648 231L118.908 122.905C119.112 121.757 118.346 120.661 117.198 120.458Z" fill="#E55B42" stroke="black" stroke-width="2.1115" stroke-linecap="round" stroke-linejoin="round"/>
<path d="M108.557 116.867L108.215 116.806C107.068 116.603 105.972 117.369 105.769 118.517L86.6253 226.612C86.422 227.76 87.1878 228.855 88.3357 229.058L88.6775 229.119C89.8255 229.322 90.9209 228.557 91.1242 227.409L110.268 119.313C110.471 118.165 109.705 117.07 108.557 116.867Z" fill="#E55B42" stroke="black" stroke-width="2.1115" stroke-linecap="round" stroke-linejoin="round"/>
<path d="M141.931 124.848L141.588 124.797C140.435 124.626 139.361 125.423 139.191 126.576L123.111 235.169C122.94 236.322 123.736 237.396 124.889 237.567L125.233 237.617C126.386 237.788 127.459 236.992 127.63 235.838L143.71 127.245C143.881 126.092 143.084 125.019 141.931 124.848Z" fill="#E55B42" stroke="black" stroke-width="2.1115" stroke-linecap="round" stroke-linejoin="round"/>
<path d="M111.371 81.0743C111.371 81.0743 113.438 55.884 126.758 46.5748C139.303 37.8018 144.267 31.1128 149.498 30.6768C152.114 30.4509 158.226 29.8152 162.742 35.4264C163.036 35.796 166.079 41.0988 164.794 41.2873C163.006 41.5612 157.946 35.1233 154.875 33.9981C149.595 32.066 142.294 40.0274 141.707 47.5042C140.622 61.397 145.066 76.955 147.233 85.396C147.233 85.396 139.425 84.1847 139.378 84.0048C135.632 70.133 138.448 53.7647 133.947 50.5952C129.366 47.3735 116.438 73.0665 117.354 80.1426C117.345 80.141 113.311 79.8204 111.371 81.0743Z" fill="#E55B42" stroke="black" stroke-width="2.1115" stroke-miterlimit="10"/>
<path d="M109.579 128.043C119.145 129.737 128.762 120.597 131.059 107.627C133.356 94.6584 127.463 82.7714 117.897 81.0773C108.331 79.3831 98.7139 88.5233 96.4171 101.492C94.1202 114.462 100.013 126.348 109.579 128.043Z" fill="#FCFCFC" stroke="black" stroke-width="2.1115" stroke-miterlimit="10"/>
<path d="M108.501 103.178L118.155 101.318C118.202 94.778 115.396 89.4442 111.069 88.678C105.893 87.7613 100.513 93.7191 99.0489 101.984C97.5852 110.249 100.594 117.702 105.767 118.618C110.041 119.375 114.454 115.44 116.688 109.389L108.501 103.178Z" fill="black"/>
<path d="M107.812 83.7564C107.812 83.7564 126.723 83.0467 131.009 107.336C133.917 96.6876 125.982 72.2192 107.812 83.7564Z" fill="black" stroke="black" stroke-width="2.1115" stroke-miterlimit="10"/>
<path d="M134.739 131.466C144.305 133.16 153.922 124.02 156.219 111.051C158.515 98.0817 152.622 86.1948 143.056 84.5006C133.49 82.8065 123.873 91.9467 121.577 104.916C119.28 117.885 125.173 129.772 134.739 131.466Z" fill="#FCFCFC" stroke="black" stroke-width="2.1115" stroke-miterlimit="10"/>
<path d="M135.889 107.927L145.961 106.02C145.998 99.2491 143.052 93.754 138.541 92.9551C133.143 91.9991 127.538 98.1459 126.025 106.688C124.512 115.23 127.665 122.927 133.063 123.883C137.525 124.674 142.125 120.613 144.442 114.361L135.889 107.927Z" fill="black"/>
<path d="M132.701 86.7731C132.701 86.7731 151.933 86.7587 156.221 111.039C159.133 100.404 150.88 75.2376 132.701 86.7731Z" fill="black" stroke="black" stroke-width="2.1115" stroke-miterlimit="10"/>
<mask id="mask1" mask-type="alpha" maskUnits="userSpaceOnUse" x="37" y="190" width="47" height="48">
<path d="M54.8391 194.273C46.3778 201.702 30.8243 227.461 42.673 235.228C54.5218 242.995 86.2132 208.585 81.5998 192.959C80.6748 189.826 71.7815 201.469 63.7165 200.689C55.6514 199.908 63.2974 186.844 54.8391 194.273Z" fill="black" stroke="black" stroke-width="2.1115" stroke-miterlimit="10"/>
</mask>
<g mask="url(#mask1)">
</g>
<path d="M128.939 157.923C132.112 158.485 135.319 155.361 136.1 150.947C136.882 146.532 134.944 142.497 131.77 141.935C128.597 141.373 125.39 144.496 124.608 148.911C123.827 153.326 125.765 157.361 128.939 157.923Z" fill="#FA7B5A" stroke="black" stroke-width="2.1115" stroke-miterlimit="10"/>
<path d="M125.105 179.573C128.278 180.135 131.484 177.012 132.266 172.597C133.048 168.182 131.109 164.147 127.936 163.585C124.763 163.023 121.556 166.147 120.774 170.562C119.992 174.977 121.931 179.011 125.105 179.573Z" fill="#FA7B5A" stroke="black" stroke-width="2.1115" stroke-miterlimit="10"/>
<path d="M119.209 204.289C123.042 204.967 126.915 201.194 127.86 195.861C128.804 190.528 126.463 185.654 122.629 184.975C118.796 184.296 114.923 188.07 113.979 193.403C113.034 198.736 115.376 203.61 119.209 204.289Z" fill="black" stroke="black" stroke-width="2.1115" stroke-miterlimit="10"/>
<path d="M130.269 158.158C133.443 158.72 136.649 155.597 137.431 151.182C138.213 146.767 136.274 142.732 133.101 142.17C129.927 141.608 126.721 144.732 125.939 149.147C125.157 153.562 127.096 157.596 130.269 158.158Z" fill="#FA7B5A" stroke="black" stroke-width="2.1115" stroke-miterlimit="10"/>
<path d="M134.768 169.604C136.619 169.932 138.488 168.11 138.944 165.535C139.4 162.96 138.27 160.608 136.419 160.28C134.569 159.952 132.7 161.774 132.244 164.349C131.788 166.923 132.918 169.276 134.768 169.604Z" fill="#FCFCFC" stroke="black" stroke-width="2.1115" stroke-miterlimit="10"/>
<path d="M122.425 164.324C124.524 164.696 126.595 162.91 127.051 160.335C127.507 157.76 126.175 155.372 124.076 155C121.978 154.628 119.907 156.414 119.451 158.989C118.995 161.564 120.326 163.953 122.425 164.324Z" fill="#FCFCFC" stroke="black" stroke-width="2.1115" stroke-miterlimit="10"/>
<path d="M122.757 164.383C124.856 164.755 126.927 162.969 127.383 160.394C127.839 157.819 126.507 155.431 124.409 155.059C122.31 154.688 120.239 156.473 119.783 159.048C119.327 161.623 120.659 164.012 122.757 164.383Z" fill="#FCFCFC" stroke="black" stroke-width="2.1115" stroke-miterlimit="10"/>
<path d="M126.435 179.809C129.608 180.371 132.815 177.248 133.596 172.833C134.378 168.418 132.44 164.383 129.266 163.821C126.093 163.259 122.886 166.383 122.105 170.798C121.323 175.212 123.261 179.247 126.435 179.809Z" fill="#FA7B5A" stroke="black" stroke-width="2.1115" stroke-miterlimit="10"/>
<path d="M120.817 204.573C124.65 205.252 128.523 201.479 129.467 196.146C130.412 190.813 128.07 185.939 124.237 185.26C120.404 184.581 116.531 188.354 115.586 193.687C114.642 199.021 116.983 203.894 120.817 204.573Z" fill="#FA7B5A" stroke="black" stroke-width="2.1115" stroke-miterlimit="10"/>
<path d="M137.926 148.386C137.926 148.386 144.016 148.912 145.156 146.367C145.156 146.367 146.565 150.049 143.936 151.302C141.306 152.554 133.851 151.92 132.865 151.746C131.88 151.571 130.043 149.874 130.043 149.874C130.043 149.874 132.735 147.946 134.123 148.192C135.384 148.351 136.655 148.416 137.926 148.386Z" fill="#FA7B5A" stroke="black" stroke-width="2.1115" stroke-linecap="round" stroke-linejoin="round"/>
<path d="M134.364 170.431C134.364 170.431 140.455 170.954 141.595 168.409C141.595 168.409 143.003 172.094 140.377 173.348C137.751 174.601 130.305 173.968 129.304 173.791C128.303 173.613 126.483 171.916 126.483 171.916C126.483 171.916 129.174 169.988 130.563 170.234C131.823 170.394 133.094 170.46 134.364 170.431Z" fill="#FA7B5A" stroke="black" stroke-width="2.1115" stroke-linecap="round" stroke-linejoin="round"/>
<path d="M101.236 181.396C101.236 181.396 95.3352 179.799 95.1392 177.014C95.1392 177.014 92.5507 179.992 94.5867 182.07C96.6227 184.149 103.834 186.112 104.834 186.289C105.835 186.467 108.128 185.498 108.128 185.498C108.128 185.498 106.262 182.763 104.874 182.517C103.635 182.234 102.419 181.859 101.236 181.396Z" fill="#FA7B5A" stroke="black" stroke-width="2.1115" stroke-linecap="round" stroke-linejoin="round"/>
<path d="M106.958 149.085C106.958 149.085 101.057 147.487 100.861 144.705C100.861 144.705 98.2724 147.683 100.309 149.759C102.345 151.834 109.555 153.803 110.556 153.981C111.557 154.158 113.85 153.189 113.85 153.189C113.85 153.189 111.984 150.454 110.595 150.208C109.357 149.925 108.141 149.549 106.958 149.085Z" fill="#FA7B5A" stroke="black" stroke-width="2.1115" stroke-linecap="round" stroke-linejoin="round"/>
<path d="M138.24 175.716C138.24 175.716 141.414 175.246 141.767 173.248C142.121 171.249 143.231 175.225 143.231 175.225C143.231 175.225 141.223 189.034 140.599 190.086C139.974 191.137 137.584 190.793 136.821 189.416C136.058 188.04 138.24 175.716 138.24 175.716Z" fill="#FA7B5A" stroke="black" stroke-width="2.1115" stroke-miterlimit="10"/>
</g>
<circle cx="104.5" cy="107.5" r="75.0366" stroke="black" stroke-width="4.92683"/>
<path d="M90.3821 182.058C85.1315 180.75 82.6755 182.386 81.0941 188.735L77.8445 201.781L83.1219 203.095L86.3447 190.042C87.0854 187.069 87.9681 185.695 89.5754 186.096C91.1827 186.496 91.2046 188.579 89.9701 193.421L94.7921 194.622C96.8006 186.558 95.5792 183.352 90.3821 182.058Z" fill="#FA7B5A"/>
<path d="M54.4671 181.813L55.1179 180.887C55.3621 182.172 56.0703 183.277 57.2448 184.103C60.3394 186.277 64.0457 185.372 66.5219 181.849C68.998 178.325 68.5933 174.531 65.4987 172.357C64.3241 171.531 63.0445 171.24 61.7527 171.445L62.4035 170.519L57.8858 167.345L49.9494 178.639L54.4671 181.813ZM62.5885 174.53C63.6275 175.26 63.4932 176.987 62.2075 178.817C60.906 180.669 59.3419 181.358 58.3028 180.628C57.3541 179.962 57.5336 178.266 58.7289 176.373C60.0146 174.543 61.5494 173.799 62.5885 174.53Z" fill="#FA7B5A"/>
<path d="M28.5815 155.38L35.3823 165.211L38.402 163.122L35.2136 158.513L45.7473 159.182L47.2685 158.13L40.4519 148.276L37.4322 150.365L40.495 154.792L30.1027 154.328L28.5815 155.38Z" fill="#FA7B5A"/>
<path d="M16.815 127.874L20.0628 139.379L23.5965 138.381L22.0739 132.987L31.8222 137.034L33.6023 136.532L30.3471 125.001L26.8134 125.998L28.276 131.179L18.5952 127.372L16.815 127.874Z" fill="#FA7B5A"/>
<path d="M16.3719 86.8236L24.9093 88.8701C26.1979 89.179 26.8768 90.1366 26.6065 91.2642C26.362 92.2844 25.3356 92.7765 24.0469 92.4676L15.5096 90.4211L14.2225 95.7905L22.4914 97.7726C25.6861 98.5384 28.3616 96.8518 29.1467 93.5765C29.4942 92.1267 29.2737 90.7963 28.5605 89.7453L29.7954 90.0413L31.0825 84.6719L17.659 81.4542L16.3719 86.8236Z" fill="#FA7B5A"/>
<path d="M28.9702 56.3388C28.2377 57.4098 27.9021 58.5851 27.9575 59.7267L27.2283 59.228L24.1113 63.7855L40.0627 74.695L43.1797 70.1375L37.893 66.5218C38.977 66.1594 39.9506 65.4205 40.6831 64.3495C42.6624 61.4554 41.6399 57.9132 38.1306 55.5131C34.6213 53.1131 30.9495 53.4448 28.9702 56.3388ZM35.3098 59.6377C37.1556 60.9001 37.903 62.4481 37.2016 63.4736C36.4847 64.5218 34.771 64.3866 32.9252 63.1242C31.0794 61.8619 30.332 60.3138 31.0489 59.2656C31.7659 58.2174 33.4795 58.3525 35.3098 59.6377Z" fill="#FA7B5A"/>
<path d="M54.431 30.8181L56.8885 38.3068L51.0267 33.0274L46.6035 35.8979L58.0542 44.363C59.374 45.3824 59.0205 46.1055 58.3721 46.5264L56.45 47.7738L58.6292 51.1317C63.4461 48.0056 62.7419 45.5006 61.6572 40.9386L58.8773 27.9325L54.431 30.8181Z" fill="#FA7B5A"/>
<path d="M85.0822 31.9376C89.5289 30.9491 91.8763 27.5143 90.9477 23.3371C90.019 19.1599 86.4315 17.0162 81.9908 18.0316C77.5172 19.0262 75.1968 22.455 76.1254 26.6322C77.054 30.8094 80.6086 32.9321 85.0822 31.9376ZM84.2585 28.3593C82.9379 28.6529 81.7221 27.5091 81.2668 25.4609C80.8234 23.4667 81.4461 21.9424 82.7667 21.6489C84.1351 21.3164 85.351 22.4602 85.7673 24.4604C86.2227 26.5086 85.6059 28.0598 84.2585 28.3593Z" fill="#FA7B5A"/>
<path d="M116.737 16.0086L115.461 24.6946C115.269 26.0057 114.375 26.7674 113.228 26.599C112.19 26.4465 111.608 25.4681 111.801 24.157L113.077 15.471L107.614 14.6687L106.378 23.0815C105.901 26.3319 107.82 28.8461 111.152 29.3355C112.627 29.5522 113.932 29.2137 114.916 28.4094L114.731 29.6659L120.194 30.4682L122.2 16.811L116.737 16.0086Z" fill="#FA7B5A"/>
<path d="M147.36 25.3913C146.435 24.8964 145.49 24.6727 144.6 24.6976L144.834 24.2594L139.966 21.6549L133.454 33.8264L138.323 36.4309L142.256 29.0793C142.777 28.1056 143.675 27.7722 144.503 28.215C145.233 28.6057 145.585 29.2947 145.357 29.9553L149.798 30.1396C150.449 28.9225 149.672 26.6284 147.36 25.3913Z" fill="#FA7B5A"/>
<path d="M180.152 54.2319C179.563 53.3637 178.831 52.7264 178.031 52.3346L178.442 52.0557L175.343 47.4862L163.919 55.2349L167.019 59.8044L173.919 55.1242C174.833 54.5043 175.783 54.6268 176.31 55.4036C176.775 56.0891 176.766 56.8625 176.257 57.3413L180.103 59.5694C181.245 58.7945 181.624 56.4024 180.152 54.2319Z" fill="#FA7B5A"/>
<path d="M178.633 83.0875C179.728 87.1672 182.591 89.3146 185.79 88.4561L184.517 83.7098C183.29 84.0389 182.269 83.427 181.939 82.2004C181.61 80.9739 182.676 79.8305 184.622 79.3083L186.99 88.1342C191.683 86.875 193.677 83.6531 192.499 79.3673C191.375 75.181 187.885 73.1448 183.752 74.2537C179.566 75.3769 177.51 78.9012 178.633 83.0875ZM186.532 78.9674C187.971 78.5811 189.125 79.0435 189.411 80.1101C189.711 81.23 188.944 82.2075 187.49 82.5405L186.532 78.9674Z" fill="#FA7B5A"/>
<path d="M187.151 102.805C184.548 102.791 182.622 105.075 182.304 109.066C181.954 113.469 183.511 116.169 186.153 116.379L186.291 116.39C191.85 116.832 189.956 108.622 192.405 108.817L192.708 108.841C193.341 108.892 193.748 109.34 193.698 109.973C193.647 110.606 193.174 110.983 192.541 110.933L191.963 110.887L191.536 116.253L192.307 116.315C194.453 116.486 196.1 114.235 196.456 110.109C196.802 105.761 195.463 103.106 193.179 102.924L192.683 102.885C188.087 102.519 189.625 111.033 186.708 110.801L186.515 110.786C185.662 110.718 185.128 110.121 185.194 109.296C185.26 108.47 185.881 107.966 186.734 108.034L187.56 108.099L187.976 102.87L187.151 102.805Z" fill="#FA7B5A"/>
<path d="M188.647 142.82L180.676 139.14C179.473 138.585 178.995 137.513 179.481 136.46C179.921 135.508 181.024 135.226 182.227 135.782L190.198 139.461L192.512 134.448L184.792 130.884C181.809 129.507 178.855 130.637 177.443 133.695C176.818 135.049 176.774 136.396 177.267 137.567L176.114 137.035L173.8 142.048L186.333 147.833L188.647 142.82Z" fill="#FA7B5A"/>
<path d="M161.867 177.819C163.518 176.48 164.447 174.908 164.609 173.355C166.034 173.621 167.591 173.175 169.006 172.027C170.164 171.088 170.959 170.052 171.387 168.958L171.822 169.494L176.109 166.015L167.412 155.296L163.125 158.775L168.726 165.678C169.421 166.535 169.273 167.58 168.373 168.31C167.558 168.971 166.549 168.866 165.853 168.009L160.252 161.105L155.964 164.584L161.565 171.487C162.261 172.345 162.113 173.389 161.212 174.12C160.398 174.781 159.409 174.658 158.714 173.801L153.113 166.898L148.825 170.376L154.426 177.28C156.357 179.659 159.337 179.872 161.867 177.819Z" fill="#FA7B5A"/>
<path d="M126.6 180.226C122.493 181.216 120.273 184.023 121.049 187.243L125.827 186.092C125.529 184.858 126.167 183.852 127.402 183.554C128.636 183.257 129.752 184.351 130.224 186.311L121.34 188.451C122.478 193.175 125.648 195.251 129.963 194.183C134.176 193.168 136.302 189.731 135.299 185.57C134.284 181.357 130.814 179.211 126.6 180.226ZM130.516 188.228C130.865 189.677 130.373 190.818 129.299 191.077C128.172 191.349 127.215 190.557 126.919 189.095L130.516 188.228Z" fill="#FA7B5A"/>
</svg>
