<svg width="392" height="44" viewBox="0 0 392 44" fill="none" xmlns="http://www.w3.org/2000/svg">
<path d="M174.12 14.5842C174.12 16.5762 174.768 19.0002 177.24 19.0002H180.48V15.8802H179.064C177.936 15.8802 177.48 15.5922 177.48 14.5842V9.8802H180.6V7.0002H177.48V2.2002H174.12V7.0002H171.72V9.8802H174.12V14.5842Z" fill="white"/>
<path d="M187.193 7.7442C186.329 8.3442 185.849 9.6642 185.417 10.6242L184.889 10.3842C185.321 9.4242 185.873 8.2002 185.873 7.1442V7.0002H182.513V19.0002H185.873V14.2002C185.873 10.8642 189.113 9.7602 192.185 9.7602V6.6402C189.953 6.6402 188.513 6.8322 187.193 7.7442Z" fill="white"/>
<path d="M193.997 5.5602H197.597V2.2002H193.997V5.5602ZM194.141 19.0002H197.477V7.0002H194.141V19.0002Z" fill="white"/>
<path d="M201.917 14.5842C201.917 16.5762 202.565 19.0002 205.037 19.0002H208.277V15.8802H206.861C205.733 15.8802 205.277 15.5922 205.277 14.5842V9.8802H208.397V7.0002H205.277V2.2002H201.917V7.0002H199.517V9.8802H201.917V14.5842Z" fill="white"/>
<path d="M209.997 13.0002C209.997 16.9602 212.757 19.3842 217.053 19.3842C221.349 19.3842 224.109 16.7682 224.109 13.0002C224.109 9.2562 221.349 6.6402 217.053 6.6402C212.757 6.6402 209.997 9.0402 209.997 13.0002ZM213.597 13.0002C213.597 11.2722 214.485 9.8802 217.053 9.8802C219.597 9.8802 220.509 11.2722 220.509 13.0002C220.509 14.7282 219.597 16.1442 217.053 16.1442C214.485 16.1442 213.597 14.7282 213.597 13.0002Z" fill="white"/>
<path d="M230.291 7.6002C229.451 8.2482 229.115 9.6642 228.731 10.6722L228.179 10.4562C228.563 9.4482 229.091 8.2002 229.091 7.1442V7.0002H225.731V19.0002H229.091V13.1922C229.091 11.0082 230.603 10.0242 232.355 10.0242C233.987 10.0242 234.755 11.0082 234.755 13.1922V19.0002H238.115V10.7682C238.115 8.0322 236.243 6.6402 233.819 6.6402C232.331 6.6402 231.251 6.8562 230.291 7.6002Z" fill="white"/>
<path d="M253.792 19.3842C257.728 19.3842 259.576 16.8162 259.936 15.5682H256.072C255.832 16.0242 254.92 16.5762 253.456 16.5762C251.176 16.5762 250.096 15.1362 250.096 13.9602H260.2C260.224 13.7682 260.2 13.1922 260.2 12.9282C260.224 9.5922 257.536 6.6402 253.168 6.6402C248.944 6.6402 245.968 9.3522 245.968 12.9282C245.968 16.5042 248.704 19.3842 253.792 19.3842ZM250.096 11.8722C250.096 10.4802 251.392 9.2082 253.264 9.2082C255.112 9.2082 256.24 10.3362 256.24 11.8722H250.096Z" fill="white"/>
<path d="M266.573 7.6002C265.733 8.2482 265.397 9.6642 265.013 10.6722L264.461 10.4562C264.845 9.4482 265.373 8.2002 265.373 7.1442V7.0002H262.013V19.0002H265.373V13.1922C265.373 11.0082 266.885 10.0242 268.637 10.0242C270.269 10.0242 271.037 11.0082 271.037 13.1922V19.0002H274.397V10.7682C274.397 8.0322 272.525 6.6402 270.101 6.6402C268.613 6.6402 267.533 6.8562 266.573 7.6002Z" fill="white"/>
<path d="M287.001 17.7522C287.481 17.2482 287.577 16.2642 287.817 15.6162L288.393 15.8082C288.129 16.4802 287.649 17.2722 287.601 17.9682C287.577 18.2562 287.577 18.5442 287.577 18.8802C287.577 20.8242 286.257 21.8802 283.545 21.8802C281.769 21.8802 280.857 21.4962 280.497 19.9842H276.873C277.161 22.9842 279.369 25.0002 283.641 25.0002C288.897 25.0002 290.937 22.6002 290.937 19.3362V7.0002H287.577L287.625 7.9122C287.673 8.6322 288.129 9.4482 288.393 10.1202L287.841 10.3362C287.577 9.6642 287.457 8.6562 286.953 8.1522C286.017 7.1922 284.649 6.6402 282.969 6.6402C279.273 6.6402 276.657 9.3522 276.657 12.9282C276.657 16.5042 279.273 19.3842 282.969 19.3842C284.673 19.3842 286.041 18.7602 287.001 17.7522ZM280.017 13.0722C280.017 11.2962 281.193 9.9042 283.425 9.9042C285.561 9.9042 286.737 11.1522 286.857 12.8082V13.3362C286.737 15.0162 285.561 16.1442 283.425 16.1442C281.193 16.1442 280.017 14.8722 280.017 13.0722Z" fill="white"/>
<path d="M293.419 5.5602H297.019V2.2002H293.419V5.5602ZM293.563 19.0002H296.899V7.0002H293.563V19.0002Z" fill="white"/>
<path d="M303.979 7.6002C303.139 8.2482 302.803 9.6642 302.419 10.6722L301.867 10.4562C302.251 9.4482 302.779 8.2002 302.779 7.1442V7.0002H299.419V19.0002H302.779V13.1922C302.779 11.0082 304.291 10.0242 306.043 10.0242C307.675 10.0242 308.443 11.0082 308.443 13.1922V19.0002H311.803V10.7682C311.803 8.0322 309.931 6.6402 307.507 6.6402C306.019 6.6402 304.939 6.8562 303.979 7.6002Z" fill="white"/>
<path d="M321.479 19.3842C325.415 19.3842 327.263 16.8162 327.623 15.5682H323.759C323.519 16.0242 322.607 16.5762 321.143 16.5762C318.863 16.5762 317.783 15.1362 317.783 13.9602H327.887C327.911 13.7682 327.887 13.1922 327.887 12.9282C327.911 9.5922 325.223 6.6402 320.855 6.6402C316.631 6.6402 313.655 9.3522 313.655 12.9282C313.655 16.5042 316.391 19.3842 321.479 19.3842ZM317.783 11.8722C317.783 10.4802 319.079 9.2082 320.951 9.2082C322.799 9.2082 323.927 10.3362 323.927 11.8722H317.783Z" fill="white"/>
<path d="M336.948 19.3842C340.884 19.3842 342.732 16.8162 343.092 15.5682H339.228C338.988 16.0242 338.076 16.5762 336.612 16.5762C334.332 16.5762 333.252 15.1362 333.252 13.9602H343.356C343.38 13.7682 343.356 13.1922 343.356 12.9282C343.38 9.5922 340.692 6.6402 336.324 6.6402C332.1 6.6402 329.124 9.3522 329.124 12.9282C329.124 16.5042 331.86 19.3842 336.948 19.3842ZM333.252 11.8722C333.252 10.4802 334.548 9.2082 336.42 9.2082C338.268 9.2082 339.396 10.3362 339.396 11.8722H333.252Z" fill="white"/>
<path d="M349.849 7.7442C348.985 8.3442 348.505 9.6642 348.073 10.6242L347.545 10.3842C347.977 9.4242 348.529 8.2002 348.529 7.1442V7.0002H345.169V19.0002H348.529V14.2002C348.529 10.8642 351.769 9.7602 354.841 9.7602V6.6402C352.609 6.6402 351.169 6.8322 349.849 7.7442Z" fill="white"/>
<path d="M356.654 5.5602H360.254V2.2002H356.654V5.5602ZM356.798 19.0002H360.134V7.0002H356.798V19.0002Z" fill="white"/>
<path d="M367.213 7.6002C366.373 8.2482 366.037 9.6642 365.653 10.6722L365.101 10.4562C365.485 9.4482 366.013 8.2002 366.013 7.1442V7.0002H362.653V19.0002H366.013V13.1922C366.013 11.0082 367.525 10.0242 369.277 10.0242C370.909 10.0242 371.677 11.0082 371.677 13.1922V19.0002H375.037V10.7682C375.037 8.0322 373.165 6.6402 370.741 6.6402C369.253 6.6402 368.173 6.8562 367.213 7.6002Z" fill="white"/>
<path d="M387.642 17.7522C388.122 17.2482 388.218 16.2642 388.458 15.6162L389.034 15.8082C388.77 16.4802 388.29 17.2722 388.242 17.9682C388.218 18.2562 388.218 18.5442 388.218 18.8802C388.218 20.8242 386.898 21.8802 384.186 21.8802C382.41 21.8802 381.498 21.4962 381.138 19.9842H377.514C377.802 22.9842 380.01 25.0002 384.282 25.0002C389.538 25.0002 391.578 22.6002 391.578 19.3362V7.0002H388.218L388.266 7.9122C388.314 8.6322 388.77 9.4482 389.034 10.1202L388.482 10.3362C388.218 9.6642 388.098 8.6562 387.594 8.1522C386.658 7.1922 385.29 6.6402 383.61 6.6402C379.914 6.6402 377.298 9.3522 377.298 12.9282C377.298 16.5042 379.914 19.3842 383.61 19.3842C385.314 19.3842 386.682 18.7602 387.642 17.7522ZM380.658 13.0722C380.658 11.2962 381.834 9.9042 384.066 9.9042C386.202 9.9042 387.378 11.1522 387.498 12.8082V13.3362C387.378 15.0162 386.202 16.1442 384.066 16.1442C381.834 16.1442 380.658 14.8722 380.658 13.0722Z" fill="white"/>
<path d="M183.72 36.9442C183.72 32.0962 175.032 33.6322 175.032 32.1682C175.032 31.5442 176.112 31.3042 177.216 31.3042C179.136 31.3042 180.096 31.9042 180.096 32.6002H183.48C183.48 31.0882 182.232 28.6402 177.456 28.6402C173.376 28.6402 171.672 30.3442 171.672 32.2162C171.672 36.3682 180.288 35.1922 180.288 37.1362C180.288 37.5442 179.904 38.2402 178.152 38.2402C175.824 38.2402 174.984 37.1842 174.984 36.6802H171.6C171.6 38.6002 173.112 41.3842 177.72 41.3842C181.848 41.3842 183.72 39.1762 183.72 36.9442Z" fill="white"/>
<path d="M187.339 36.5842C187.339 38.5762 187.987 41.0002 190.459 41.0002H193.699V37.8802H192.283C191.155 37.8802 190.699 37.5922 190.699 36.5842V31.8802H193.819V29.0002H190.699V24.2002H187.339V29.0002H184.939V31.8802H187.339V36.5842Z" fill="white"/>
<path d="M203.867 40.3042C204.371 39.8242 204.539 38.8882 204.779 38.2402L205.331 38.4562C205.091 39.1042 204.635 39.8962 204.611 40.5922V41.0002H207.971V29.0002H204.611V35.0962C204.611 37.4002 203.483 38.4322 201.731 38.4322C200.123 38.4322 198.971 37.5922 198.971 35.0962V29.0002H195.611V37.2322C195.611 39.9442 197.939 41.3602 200.363 41.3602C202.043 41.3602 202.931 41.2162 203.867 40.3042Z" fill="white"/>
<path d="M220.244 29.9362C220.244 30.6562 220.676 31.4962 220.916 32.1682L220.34 32.3602C220.1 31.6882 220.004 30.7042 219.5 30.2002C218.612 29.2882 217.388 28.6402 215.78 28.6402C212.372 28.6402 209.9 31.6162 209.804 35.0242C209.684 38.5762 212.204 41.3842 215.804 41.3842C217.412 41.3842 218.636 40.8322 219.524 39.8962C220.004 39.3922 220.1 38.3842 220.34 37.7122L220.892 37.9042C220.676 38.5762 220.244 39.4162 220.244 40.1362V41.0002L223.604 40.9762V23.5762L220.244 23.6002V29.9362ZM216.332 38.2642C214.316 38.2642 213.164 36.9202 213.164 35.0962C213.164 33.2722 214.316 31.7602 216.332 31.7602C218.348 31.7602 219.524 33.2722 219.524 35.0962C219.524 36.9202 218.348 38.2642 216.332 38.2642Z" fill="white"/>
<path d="M233.261 41.3842C237.197 41.3842 239.045 38.8162 239.405 37.5682H235.541C235.301 38.0242 234.389 38.5762 232.925 38.5762C230.645 38.5762 229.565 37.1362 229.565 35.9602H239.669C239.693 35.7682 239.669 35.1922 239.669 34.9282C239.693 31.5922 237.005 28.6402 232.637 28.6402C228.413 28.6402 225.437 31.3522 225.437 34.9282C225.437 38.5042 228.173 41.3842 233.261 41.3842ZM229.565 33.8722C229.565 32.4802 230.861 31.2082 232.733 31.2082C234.581 31.2082 235.709 32.3362 235.709 33.8722H229.565Z" fill="white"/>
<path d="M246.041 29.6002C245.201 30.2482 244.865 31.6642 244.481 32.6722L243.929 32.4562C244.313 31.4482 244.841 30.2002 244.841 29.1442V29.0002H241.481V41.0002H244.841V35.1922C244.841 33.0082 246.353 32.0242 248.105 32.0242C249.737 32.0242 250.505 33.0082 250.505 35.1922V41.0002H253.865V32.7682C253.865 30.0322 251.993 28.6402 249.569 28.6402C248.081 28.6402 247.001 28.8562 246.041 29.6002Z" fill="white"/>
<path d="M258.214 36.5842C258.214 38.5762 258.862 41.0002 261.334 41.0002H264.574V37.8802H263.158C262.03 37.8802 261.574 37.5922 261.574 36.5842V31.8802H264.694V29.0002H261.574V24.2002H258.214V29.0002H255.814V31.8802H258.214V36.5842Z" fill="white"/>
<path d="M272.03 34.9282C272.03 38.9362 274.622 41.3842 278.654 41.3842C282.59 41.3842 284.846 39.0802 285.254 36.3682H281.63C281.63 36.3682 280.838 38.2162 278.534 38.1922C276.59 38.1922 275.342 36.8722 275.366 34.9042C275.366 32.9122 276.638 31.8082 278.486 31.8082C280.862 31.7842 281.558 33.6322 281.558 33.6322H285.182C284.942 31.0642 282.686 28.6402 278.582 28.6402C274.622 28.6402 272.03 30.9202 272.03 34.9282Z" fill="white"/>
<path d="M286.755 35.0002C286.755 38.9602 289.515 41.3842 293.811 41.3842C298.107 41.3842 300.867 38.7682 300.867 35.0002C300.867 31.2562 298.107 28.6402 293.811 28.6402C289.515 28.6402 286.755 31.0402 286.755 35.0002ZM290.355 35.0002C290.355 33.2722 291.243 31.8802 293.811 31.8802C296.355 31.8802 297.267 33.2722 297.267 35.0002C297.267 36.7282 296.355 38.1442 293.811 38.1442C291.243 38.1442 290.355 36.7282 290.355 35.0002Z" fill="white"/>
<path d="M310.625 40.3042C311.129 39.8242 311.297 38.8882 311.537 38.2402L312.089 38.4562C311.849 39.1042 311.393 39.8962 311.369 40.5922V41.0002H314.729V29.0002H311.369V35.0962C311.369 37.4002 310.241 38.4322 308.489 38.4322C306.881 38.4322 305.729 37.5922 305.729 35.0962V29.0002H302.369V37.2322C302.369 39.9442 304.697 41.3602 307.121 41.3602C308.801 41.3602 309.689 41.2162 310.625 40.3042Z" fill="white"/>
<path d="M321.698 29.6002C320.858 30.2482 320.522 31.6642 320.138 32.6722L319.586 32.4562C319.97 31.4482 320.498 30.2002 320.498 29.1442V29.0002H317.138V41.0002H320.498V35.1922C320.498 33.0082 322.01 32.0242 323.762 32.0242C325.394 32.0242 326.162 33.0082 326.162 35.1922V41.0002H329.522V32.7682C329.522 30.0322 327.65 28.6402 325.226 28.6402C323.738 28.6402 322.658 28.8562 321.698 29.6002Z" fill="white"/>
<path d="M331.374 34.9282C331.374 38.9362 333.966 41.3842 337.998 41.3842C341.934 41.3842 344.19 39.0802 344.598 36.3682H340.974C340.974 36.3682 340.182 38.2162 337.878 38.1922C335.934 38.1922 334.686 36.8722 334.71 34.9042C334.71 32.9122 335.982 31.8082 337.83 31.8082C340.206 31.7842 340.902 33.6322 340.902 33.6322H344.526C344.286 31.0642 342.03 28.6402 337.926 28.6402C333.966 28.6402 331.374 30.9202 331.374 34.9282Z" fill="white"/>
<path d="M346.435 27.5602H350.035V24.2002H346.435V27.5602ZM346.579 41.0002H349.915V29.0002H346.579V41.0002Z" fill="white"/>
<path d="M352.434 38.0962C352.434 39.8962 354.066 41.0002 356.898 41.0002H358.794V37.8802H357.402C356.274 37.8802 355.818 37.5922 355.818 36.5842V23.6002H352.434V38.0962Z" fill="white"/>
<path d="M20.98 43.0001V10.4801H31.42V1.0001H0.460022V10.4801H10.9V43.0001H20.98Z" fill="white"/>
<path d="M37.098 43.0001H67.878V33.5201H46.818V26.5001H66.078V17.0201H46.818V10.4801H67.578V1.0001H37.098V43.0001Z" fill="white"/>
<path d="M108.041 5.9801C101.321 1.3601 95.861 0.100098 89.981 0.100098C78.341 0.100098 70.721 5.4401 70.721 11.6201C70.721 24.8201 96.761 24.7001 96.761 30.8201C96.761 33.0401 94.181 34.5401 89.741 34.5401C82.181 34.5401 79.841 32.8001 76.301 29.9201L69.521 36.2801C76.061 42.4001 80.621 43.9001 87.941 43.9001C101.381 43.9001 109.781 38.3201 109.781 30.9401C109.781 15.3401 81.941 16.1801 81.941 11.0801C81.941 9.3401 84.281 8.2001 87.161 8.2001C92.861 8.2001 97.241 9.2801 101.441 12.5801L108.041 5.9801Z" fill="white"/>
<path d="M135.799 43.9001C149.959 43.9001 155.479 38.0201 156.499 28.0001H146.479C145.699 30.2801 144.799 34.0601 135.499 34.0601C128.779 34.0601 123.079 30.8801 123.079 22.0001C123.079 13.0601 128.839 9.9401 135.619 9.9401C144.259 9.9401 145.099 13.6601 145.819 16.0001H155.839C155.359 8.1401 150.379 0.100098 135.379 0.100098C122.479 0.100098 112.999 9.4601 112.939 21.9401C112.999 34.4801 122.659 43.9001 135.799 43.9001Z" fill="white"/>
</svg>
