<?xml version="1.0" standalone="no"?>
<!DOCTYPE svg PUBLIC "-//W3C//DTD SVG 20010904//EN"
 "http://www.w3.org/TR/2001/REC-SVG-20010904/DTD/svg10.dtd">
<svg version="1.0" xmlns="http://www.w3.org/2000/svg"
 width="1000.000000pt" height="146.000000pt" viewBox="0 0 1000.000000 146.000000"
 preserveAspectRatio="xMidYMid meet">
<metadata>
Created by potrace 1.15, written by Peter Selinger 2001-2017
</metadata>
<g transform="translate(0.000000,146.000000) scale(0.100000,-0.100000)"
fill="#000000" stroke="none">
<path d="M619 1303 c-132 -226 -122 -200 -94 -247 13 -23 55 -95 93 -161 39
-66 68 -122 66 -124 -2 -2 -22 8 -44 23 -22 14 -44 26 -50 26 -5 0 -10 5 -10
10 0 6 -5 10 -11 10 -5 0 -52 25 -104 55 -51 30 -97 55 -102 55 -4 0 -46 -23
-92 -50 -46 -28 -86 -50 -88 -50 -10 0 -183 -114 -183 -121 0 -13 343 -218
365 -218 6 0 80 42 165 93 85 52 156 93 158 91 1 -1 -40 -78 -93 -170 l-96
-167 29 -46 c16 -26 64 -107 107 -179 42 -73 81 -133 86 -133 8 0 219 347 219
362 0 4 -20 42 -45 84 -25 41 -45 78 -45 81 0 3 -8 17 -18 31 -10 15 -33 54
-51 86 l-33 59 49 -28 c26 -16 67 -41 90 -57 23 -15 44 -28 48 -28 4 0 26 -13
50 -30 24 -16 48 -30 54 -30 6 0 11 -4 11 -10 0 -21 43 -9 106 30 36 22 68 40
71 40 2 0 35 19 71 43 37 24 86 54 110 67 23 13 42 26 42 29 -1 7 -159 105
-177 109 -7 2 -13 7 -13 12 0 5 -9 12 -20 15 -11 4 -50 25 -87 47 l-66 40 -36
-17 c-20 -9 -73 -39 -117 -66 -45 -27 -85 -49 -89 -49 -3 0 -27 -14 -52 -31
-53 -37 -58 -49 63 159 46 79 84 146 84 150 0 4 -15 31 -33 62 -19 30 -66 110
-106 178 -40 67 -76 122 -81 122 -4 0 -50 -71 -101 -157z"/>
<path d="M1905 1021 c-78 -12 -128 -34 -163 -71 -25 -26 -63 -104 -77 -155 -5
-16 -9 -32 -10 -35 -13 -46 -20 -128 -16 -179 2 -20 55 -73 90 -88 43 -19 256
-27 323 -11 65 15 72 16 85 17 14 1 30 28 37 62 8 43 17 83 26 109 5 14 11 37
14 53 l6 27 -119 0 -119 0 -13 -61 c-16 -71 -29 -87 -64 -71 -27 13 -34 41
-22 97 12 58 33 84 85 107 41 18 60 20 165 15 65 -3 116 -3 114 -1 -3 3 4 33
14 67 27 87 26 91 -25 105 -56 14 -265 23 -331 13z"/>
<path d="M7320 1006 c-53 -17 -94 -44 -118 -80 -54 -78 -94 -254 -78 -339 7
-35 51 -88 78 -93 7 -2 27 -7 45 -12 17 -6 89 -9 160 -8 137 3 189 17 248 68
30 25 78 121 89 178 25 120 25 173 1 223 -27 58 -92 77 -258 76 -73 -1 -148
-6 -167 -13z m188 -188 c28 -23 3 -122 -40 -158 -28 -23 -91 -26 -108 -5 -8
10 -10 28 -5 52 19 101 95 157 153 111z"/>
<path d="M9030 1006 c-71 -19 -95 -32 -125 -68 -57 -67 -95 -184 -95 -295 0
-85 18 -123 70 -149 79 -41 408 -19 416 27 11 59 24 117 30 132 6 17 3 18 -32
12 -22 -4 -55 -11 -74 -16 -47 -12 -117 -11 -141 1 -13 8 -19 21 -19 46 0 49
13 69 66 100 42 25 51 26 139 22 78 -3 96 -1 101 12 8 19 44 164 41 165 -1 1
-35 7 -75 13 -90 15 -242 14 -302 -2z"/>
<path d="M9555 1006 c-22 -7 -52 -17 -66 -23 -71 -30 -121 -188 -85 -265 22
-45 60 -58 174 -58 92 0 117 -11 68 -30 -27 -10 -247 -7 -265 4 -11 7 -26 -22
-35 -67 -2 -12 -7 -34 -11 -48 -9 -35 5 -38 185 -46 288 -11 379 27 409 175 9
43 8 59 -5 92 -9 22 -25 45 -37 51 -11 6 -65 11 -123 10 -104 -2 -127 6 -97
30 12 11 50 14 154 12 149 -2 142 -5 154 54 2 10 8 38 14 63 5 24 8 47 5 50
-12 11 -399 8 -439 -4z"/>
<path d="M2330 985 c-5 -14 -12 -36 -14 -48 -5 -25 -16 -68 -46 -182 -11 -44
-23 -87 -25 -95 -2 -8 -9 -35 -15 -60 -7 -25 -14 -60 -17 -77 l-5 -33 259 0
258 0 14 56 c7 31 15 63 18 70 4 12 -22 14 -146 14 l-150 0 8 23 c8 21 14 22
156 27 l148 5 13 45 c8 25 14 48 14 53 0 4 -68 7 -150 7 -144 0 -150 1 -141
19 6 10 7 21 4 25 -3 3 64 6 149 6 l156 0 7 38 c5 20 10 42 11 47 2 6 6 27 10
48 l7 37 -257 0 -256 0 -10 -25z"/>
<path d="M2896 993 c-8 -27 -58 -216 -61 -233 -2 -8 -17 -67 -34 -132 -17 -64
-31 -121 -31 -127 0 -7 37 -11 110 -11 122 0 121 -1 135 78 6 36 35 145 39
149 2 2 13 -36 25 -84 12 -48 24 -95 26 -103 2 -8 4 -21 4 -27 1 -10 34 -13
129 -13 l127 0 28 113 c16 61 30 119 32 127 6 28 23 94 48 188 l24 92 -120 0
c-66 0 -118 -3 -114 -6 3 -3 2 -17 -4 -31 -5 -13 -11 -36 -14 -51 -15 -79 -43
-175 -48 -162 -3 8 -8 32 -12 52 -8 48 -5 36 -24 120 l-17 73 -121 3 c-109 2
-122 1 -127 -15z"/>
<path d="M3535 998 c-2 -7 -18 -69 -35 -138 -18 -69 -36 -143 -42 -165 -5 -22
-11 -49 -14 -60 -2 -11 -10 -43 -19 -70 -8 -28 -15 -56 -15 -62 0 -10 58 -13
259 -13 l259 0 7 28 c9 37 16 63 22 90 l5 22 -147 0 c-130 0 -146 2 -141 16 3
9 6 20 6 25 0 5 65 9 148 9 l148 0 12 45 c7 25 12 50 12 55 0 6 -56 10 -145
10 -81 0 -145 4 -145 9 0 39 9 41 160 41 l148 0 7 30 c4 16 6 31 5 32 -1 2 3
14 8 28 5 14 12 37 16 53 l6 27 -260 0 c-200 0 -262 -3 -265 -12z"/>
<path d="M4081 923 c-12 -49 -27 -106 -32 -128 -6 -22 -12 -47 -14 -55 -18
-70 -44 -168 -48 -180 -3 -8 -8 -27 -11 -42 l-6 -28 119 0 118 0 13 48 c26
100 20 98 70 22 l45 -70 247 0 246 0 22 35 22 35 84 0 84 0 0 -35 0 -35 115 0
115 0 0 260 0 260 -194 0 c-149 0 -195 -3 -198 -13 -4 -17 -282 -477 -288
-476 -4 0 -100 143 -108 161 -2 5 14 8 36 8 78 0 136 87 136 203 0 54 -26 97
-65 108 -13 4 -128 7 -255 8 l-232 1 -21 -87z"/>
<path d="M5410 1005 c0 -2 -18 -76 -41 -162 -42 -159 -58 -223 -64 -256 -2 -9
-6 -21 -9 -25 -3 -5 -8 -23 -11 -40 l-5 -32 219 0 c242 0 224 -5 236 63 3 12
11 44 19 70 l14 47 -110 0 c-101 0 -110 1 -103 18 4 9 13 40 20 67 8 28 25 93
39 147 14 53 26 99 26 102 0 3 -52 6 -115 6 -63 0 -115 -2 -115 -5z"/>
<path d="M6214 958 c-17 -29 -66 -114 -109 -188 -43 -74 -95 -164 -117 -199
-21 -34 -38 -67 -38 -72 0 -5 56 -9 124 -9 l124 0 12 29 c12 29 12 30 106 33
l94 3 0 -33 0 -33 108 3 107 3 3 258 2 257 -193 0 -193 0 -30 -52z"/>
<path d="M6667 937 c-26 -109 -27 -107 43 -107 69 0 68 1 42 -85 -10 -33 -19
-62 -19 -65 -7 -42 -17 -88 -23 -100 -4 -8 -10 -32 -14 -53 l-7 -38 117 3 117
3 19 75 c11 41 24 93 30 115 5 22 12 49 14 60 16 81 15 80 87 83 64 3 67 4 73
30 3 15 12 50 20 79 8 28 14 56 14 62 0 8 -75 11 -247 11 l-248 0 -18 -73z"/>
<path d="M7835 998 c-7 -18 -70 -259 -80 -302 -10 -45 -45 -173 -51 -189 -6
-15 5 -17 110 -17 64 0 116 3 117 8 5 46 53 212 60 205 7 -7 15 -90 18 -190 1
-22 5 -23 69 -23 l68 0 67 115 c38 63 70 115 71 115 2 0 -7 -39 -19 -87 -12
-49 -25 -100 -29 -115 l-6 -28 109 0 c94 0 110 2 116 18 9 21 43 148 61 222 7
30 22 91 34 135 12 44 24 95 27 113 l5 32 -153 0 -154 0 -22 -48 c-13 -26 -42
-84 -66 -130 l-44 -82 -7 61 c-3 34 -6 93 -6 130 l0 69 -145 0 c-108 0 -147
-3 -150 -12z"/>
<path d="M8627 1003 c-5 -8 -26 -84 -32 -113 -5 -27 -45 -183 -65 -260 -12
-41 -23 -90 -26 -107 l-5 -33 110 0 c67 0 112 4 116 11 6 9 18 51 50 179 27
111 62 243 68 260 3 8 8 27 11 43 l6 27 -114 0 c-63 0 -117 -3 -119 -7z"/>
</g>
</svg>
