<?xml version="1.0" encoding="UTF-8" standalone="no"?>
<svg
   xmlns:dc="http://purl.org/dc/elements/1.1/"
   xmlns:cc="http://creativecommons.org/ns#"
   xmlns:rdf="http://www.w3.org/1999/02/22-rdf-syntax-ns#"
   xmlns:svg="http://www.w3.org/2000/svg"
   xmlns="http://www.w3.org/2000/svg"
   viewBox="0 0 368.42667 80.173332"
   height="80.173332"
   width="368.42667"
   xml:space="preserve"
   id="svg2"
   version="1.1"><metadata
     id="metadata8"><rdf:RDF><cc:Work
         rdf:about=""><dc:format>image/svg+xml</dc:format><dc:type
           rdf:resource="http://purl.org/dc/dcmitype/StillImage" /></cc:Work></rdf:RDF></metadata><defs
     id="defs6" /><g
     transform="matrix(1.3333333,0,0,-1.3333333,0,80.173333)"
     id="g10"><g
       transform="scale(0.1)"
       id="g12"><path
         id="path14"
         style="fill:#522884;fill-opacity:1;fill-rule:nonzero;stroke:none"
         d="m 192.438,531.07 c 0,18.453 -9.235,32.285 -50.09,32.285 -40.848,0 -50.0824,-13.832 -50.0824,-32.285 v -50.054 c 0,-15.192 5.2852,-30.348 19.7614,-42.856 L 250.398,319.543 c 19.782,-16.461 31.633,-36.902 31.633,-57.98 l -0.011,-75.125 c 0,-44.836 -52.715,-69.829 -139.707,-69.829 -96.1958,0 -142.3247188,21.704 -142.313,69.829 v 65.218 H 86.9922 L 86.9727,189.07 c 0,-22.425 17.1363,-35.578 55.3403,-35.578 35.597,0 52.73,13.153 52.73,35.578 l 0.016,66.543 c 0,16.496 -6.606,29.02 -25.039,45.481 L 42.1914,412.461 C 18.4609,432.883 5.28906,448.723 5.28906,473.086 v 57.32 c 0,46.785 48.76954,69.864 137.05894,69.864 97.539,0 137.062,-23.079 137.062,-66.575 l -0.012,-60.621 -86.96,0.012 v 57.984" /><path
         id="path16"
         style="fill:#522884;fill-opacity:1;fill-rule:nonzero;stroke:none"
         d="m 1118.24,199.355 c 0,-26.363 10.52,-44.828 65.9,-44.828 55.35,0 65.9,18.465 65.9,44.828 l 0.01,320.247 c 0,26.359 -10.56,44.812 -65.89,44.812 -55.37,0 -65.92,-18.453 -65.92,-44.812 z m -86.97,321.586 c 0,46.774 35.58,80.383 152.89,80.364 117.28,0 152.88,-33.59 152.87,-80.364 L 1337,198.043 c 0,-46.809 -35.56,-80.406 -152.86,-80.406 -117.3,0 -152.89,33.597 -152.89,80.406 l 0.02,322.898" /><path
         id="path18"
         style="fill:#522884;fill-opacity:1;fill-rule:nonzero;stroke:none"
         d="m 1514.26,372.656 c 39.57,0 67.2,5.278 67.2,29.668 v 128.473 c 0,24.379 -27.63,29.656 -67.2,29.656 h -42.17 V 372.656 Z m -129.15,224.703 h 138.41 c 112.03,0 144.98,-18.461 144.98,-72.496 l -0.05,-116.633 c 0,-54.019 -32.95,-72.488 -144.93,-72.488 h -51.43 v -214.16 h -86.98 v 475.777" /><path
         id="path20"
         style="fill:#522884;fill-opacity:1;fill-rule:nonzero;stroke:none"
         d="m 1885.71,532.113 c 0,18.473 -9.21,32.301 -50.04,32.301 -40.89,0 -50.16,-13.828 -50.16,-32.301 v -50.086 c 0,-15.14 5.32,-30.312 19.8,-42.824 l 138.4,-118.617 c 19.73,-16.469 31.58,-36.891 31.58,-57.984 v -75.137 c 0,-44.817 -52.68,-69.828 -139.66,-69.828 -96.21,0 -142.37,21.75 -142.37,69.883 v 65.191 h 87.01 v -62.609 c 0,-22.411 17.15,-35.575 55.36,-35.575 35.57,0 52.67,13.164 52.67,35.575 v 66.558 c 0,16.492 -6.54,29.02 -25,45.473 L 1735.47,413.52 c -23.74,20.406 -36.89,36.222 -36.89,60.585 v 57.356 c 0,46.797 48.73,69.844 137.09,69.844 97.51,0 137.03,-23.047 137.03,-66.563 v -60.637 h -86.99 v 58.008" /><path
         id="path22"
         style="fill:#522884;fill-opacity:1;fill-rule:nonzero;stroke:none"
         d="m 2527.63,532.113 c 0,18.45 -9.27,32.278 -50.1,32.278 -40.85,0 -50.1,-13.828 -50.1,-32.278 v -50.097 c 0,-15.157 5.27,-30.317 19.78,-42.813 l 138.36,-118.64 c 19.79,-16.458 31.63,-36.891 31.63,-57.981 v -75.117 c 0,-44.817 -52.72,-69.828 -139.67,-69.828 -96.25,0 -142.39,21.75 -142.39,69.828 v 65.246 h 87.03 l -0.05,-62.609 c 0,-22.411 17.16,-35.575 55.41,-35.575 35.52,0 52.69,13.164 52.69,35.575 v 66.558 c 0,16.477 -6.59,29 -25.06,45.473 l -127.82,111.363 c -23.74,20.41 -36.9,36.234 -36.9,60.609 v 57.356 c 0,46.766 48.78,69.844 137.09,69.844 97.51,0 137.04,-23.078 137.04,-66.563 v -60.637 h -86.94 v 58.008" /><path
         id="path24"
         style="fill:#522884;fill-opacity:1;fill-rule:nonzero;stroke:none"
         d="M 551.234,597.359 H 638.34 L 447.703,0.0507813 H 360.621 L 551.234,597.359" /><path
         id="path26"
         style="fill:#522884;fill-opacity:1;fill-rule:nonzero;stroke:none"
         d="M 413.824,226.34 296,596.293 h 87.074 L 457.348,363.047 413.824,226.34" /><path
         id="path28"
         style="fill:#522884;fill-opacity:1;fill-rule:nonzero;stroke:none"
         d="m 2243.54,597.359 h 87.09 L 2140.01,0 h -87.09 l 190.62,597.359" /><path
         id="path30"
         style="fill:#522884;fill-opacity:1;fill-rule:nonzero;stroke:none"
         d="m 2106.55,227.367 -117.83,369.992 h 87.08 l 74.31,-233.234 -43.56,-136.758" /><path
         id="path32"
         style="fill:#522884;fill-opacity:1;fill-rule:nonzero;stroke:none"
         d="m 977.645,121.582 h 0.41 v 403.176 c 0,54.035 -32.953,72.508 -144.946,72.508 H 665.367 L 665.32,121.445 h 86.946 l 0.054,0.137 0.008,438.766 h 71.543 c 39.524,0 67.203,-5.282 67.203,-29.657 V 121.582 h 86.571" /><path
         id="path34"
         style="fill:#522884;fill-opacity:1;fill-rule:nonzero;stroke:none"
         d="m 2707.1,542.406 c 8.22,0 15.56,0.582 15.56,10.399 0,7.918 -7.19,9.386 -13.91,9.386 h -13.21 V 542.406 Z M 2695.54,506.5 h -9.69 v 63.906 h 24.36 c 15.09,0 22.55,-5.57 22.55,-18.164 0,-11.437 -7.18,-16.437 -16.58,-17.613 l 18.18,-28.129 h -10.8 l -16.89,27.688 h -11.13 z m 11.75,-14.23 c 25.06,0 44.78,19.632 44.78,46.343 0,26.223 -19.72,46.012 -44.78,46.012 -25.41,0 -45.16,-19.789 -45.16,-46.012 0,-26.711 19.75,-46.343 45.16,-46.343 z m -56.31,46.343 c 0,31.793 25.8,55.231 56.31,55.231 30.17,0 55.93,-23.438 55.93,-55.231 0,-32.113 -25.76,-55.562 -55.93,-55.562 -30.51,0 -56.31,23.449 -56.31,55.562" /></g></g></svg>