<?xml version="1.0" encoding="utf-8"?>
<!-- Generator: Adobe Illustrator 22.1.0, SVG Export Plug-In . SVG Version: 6.00 Build 0)  -->
<svg version="1.1" id="Layer_1" xmlns="http://www.w3.org/2000/svg" xmlns:xlink="http://www.w3.org/1999/xlink" x="0px" y="0px"
	 viewBox="0 0 747.6 262.4" style="enable-background:new 0 0 747.6 262.4;" xml:space="preserve">
<g>
	<path style="fill:#202E39;" d="M64.7,211.5c0.1,0.5,0.9,0.5,1,0l23.4-87.4c1-3.8,4.5-6.4,8.4-6.4H111c3.7,0,6.4,3.5,5.4,7.1
		L86.1,232.4c-1.7,6.2-7.4,10.5-13.9,10.5H58.9c-6.4,0-12-4.2-13.8-10.4L13.8,124.7c-1-3.5,1.6-7,5.2-7h14.6c3.7,0,7,2.5,8,6.1
		L64.7,211.5z"/>
	<path style="fill:#202E39;" d="M135.3,144h12.8c4.2,0,7.5,3.4,7.5,7.5v83.8c0,4.2-3.4,7.5-7.5,7.5h-12.4c-4.1,0-7.5-3.4-7.5-7.5
		l-0.4-83.8C127.8,147.4,131.2,144,135.3,144z"/>
	<path style="fill:#202E39;" d="M225.9,144c-22.1-2-40.2,2.8-43.5,4.1s-3.5,3.5-2.9,8.9c0.6,5.4,2.5,12.7,6.7,11.9
		c4.2-0.8,18.5-5.8,26.6-5c8.1,0.8,15.6,1.7,14.6,19.6c0,0-23.9-3.1-35.8,1.5s-19.4,10.8-19.4,29.3s14.6,30.6,42.4,29.7
		c27.7-1,37.4-7.8,37.4-11.8c0-4,0-55.3,0-58.9S248.1,146.1,225.9,144z M227.5,221.1c0,0-2.3,3.5-12.1,3.5
		c-9.8,0-16.6-2.7-16.6-11.7c0-9.1,8.2-11.4,16.7-11.2c8.5,0.2,12,1.3,12,1.3V221.1z"/>
	<path style="fill:#202E39;" d="M328.3,169.2c3.3,1.2,4.9-3.9,6-9.2c1.2-5.4,1.2-9.4-1-10.8c-2.1-1.3-17.7-7.1-34.7-5.6
		s-29.8,8.9-30.2,28.1s13.8,25,24.5,29.5c10,4.2,19.8,4.4,19.6,12.9c-0.2,8.5-8.5,9.6-14.2,8.7c-5.8-1-24.3-6.2-26-4.8
		c-1.7,1.3-6.2,17.9-3.9,19.1c2.3,1.2,20.6,7.8,36.8,7.2c16.2-0.6,33.5-8.3,33.9-30.7s-18.1-27.3-25.8-29.8
		c-7.7-2.5-19.3-5.2-18.5-12.3C295.8,163,307.9,162,328.3,169.2z"/>
	<path style="fill:#202E39;" d="M403.9,144c-22.1-2-40.2,2.8-43.5,4.1c-3.3,1.3-3.5,3.5-2.9,8.9c0.6,5.4,2.5,12.7,6.7,11.9
		c4.2-0.8,18.5-5.8,26.6-5c8.1,0.8,15.6,1.7,14.6,19.6c0,0-23.9-3.1-35.8,1.5c-11.9,4.6-19.4,10.8-19.4,29.3s14.6,30.6,42.4,29.7
		c27.7-1,37.4-7.8,37.4-11.8c0-4,0-55.3,0-58.9S426,146.1,403.9,144z M405.4,221.1c0,0-2.3,3.5-12.1,3.5c-9.8,0-16.6-2.7-16.6-11.7
		c0-9.1,8.2-11.4,16.7-11.2s12,1.3,12,1.3V221.1z"/>
	<path style="fill:#202E39;" d="M473.8,117.1c8.1-0.2,15.5-0.2,15.5,8.3s0,78.2,0,84.3s1.7,9.2,7.1,10c7.1,1,14.9-1.3,17.1-1.5
		c3.8-0.2,6.7,18.2,3,20c-4.3,2.1-23,6.3-35.7,4.2c-11.8-2-20-11.3-20-33.3s0-41.8,0-41.8s-12.3,0.2-14.8,0.2c-2.5,0-6.3,0.2-6.1-11
		c0.2-11.2,2.2-11.9,5.4-12.1c3.1-0.2,15.2,0.2,15.2,0.2s-0.2-17,0-20.2C460.8,121.4,462.1,117.3,473.8,117.1z"/>
	<path style="fill:#202E39;" d="M513.1,168.9h-6.6c-5,0-9.1-4.1-9.1-9.1v-7.2c0-5,4.1-9.1,9.1-9.1h6.6c5,0,9.1,4.1,9.1,9.1v7.2
		C522.3,164.8,518.2,168.9,513.1,168.9z"/>
</g>
<linearGradient id="SVGID_1_" gradientUnits="userSpaceOnUse" x1="533.4698" y1="132.2064" x2="723.4316" y2="83.225">
	<stop  offset="0" style="stop-color:#000000"/>
	<stop  offset="0.4043" style="stop-color:#009ADC"/>
	<stop  offset="0.7765" style="stop-color:#BED733"/>
</linearGradient>
<path style="fill:url(#SVGID_1_);" d="M566.9,136.8l13.7-47c5.1-17.5,29.8-17.5,34.9,0l9.6,32.8c0,0.1,0.2,0.1,0.2,0l25.9-90.8
	c7-24.7,42.1-24.6,49,0.1l31.3,112c0,0,0.3,19.1-17.1,24.8c-10.2,3.3-27.3,0.6-32.5-17.2c-4.9-16.6-22.1-75.7-24.3-83.4
	c-0.1-0.2-0.4-0.2-0.5,0l-24.5,87.6c-5.2,18.6-31.6,18.5-36.7-0.1l-11.1-41c-0.1-0.2-0.3-0.2-0.4,0l-13.2,45.9
	c-3.6,12.5-21.2,12.5-24.9,0.1l-9.1-30.8c0,0,0.5-10.2,10.4-13.2c7.4-2.2,14.3,2.6,15.9,8.4c1.2,4.5,2.4,9.8,2.8,11.9
	C566.4,137.1,566.8,137.1,566.9,136.8z"/>
</svg>
