<?xml version="1.0" encoding="utf-8"?>
<!-- Generator: Adobe Illustrator 22.1.0, SVG Export Plug-In . SVG Version: 6.00 Build 0)  -->
<svg version="1.1" xmlns="http://www.w3.org/2000/svg" xmlns:xlink="http://www.w3.org/1999/xlink" x="0px" y="0px"
	 viewBox="0 0 1184 1464" style="enable-background:new 0 0 1184 1464;" xml:space="preserve">
<g id="Layer_1" style="display:none;">
	<g id="PARZWI.tif" style="display:inline;">
		
			<image style="overflow:visible;" width="1300" height="1300" id="Layer_0_1_" xlink:href="E44A558DB97D6C2C.png"  transform="matrix(0.5269 0 0 0.5269 -744 321)">
		</image>
	</g>
	<g id="JljKYD_1_" style="display:inline;">
		
			<image style="overflow:visible;" width="450" height="227" id="JljKYD_2_" xlink:href="E44A558DB97D6C2A.jpg"  transform="matrix(1.5859 0 0 1.5859 -764 369)">
		</image>
	</g>
	<g id="Tb9X6U.tif" style="display:inline;">
		
			<image style="overflow:visible;" width="1300" height="1390" id="Layer_0_2_" xlink:href="E44A558DB97D6C24.png"  transform="matrix(0.5043 0 0 0.5043 -764 1013)">
		</image>
	</g>
</g>
<g id="Layer_2">
	<g>
		<path style="fill:#F2F2F2;" d="M1011.4,952.1c-47.1-29-109.6-6.1-109.6-6.1c3.8-28.5,4.4-50.5,1-59.1c0,0,18.1-43.4-315-39.8
			c0,0-92.8,0-181.4,5.7c-81.2,5.2-159,15.1-159,34.1c0,0-7.2,101.4,54.3,220.9c7.6,14.8,15.1,28.6,22.3,41.4
			c50.9,90,91.7,129.7,129.8,136c26.5,4.4,117.5,6.1,191.1,1.9c0,0,0,0,0.1,0c7.1-0.4,14-0.9,20.7-1.4c21.7-1.7,40.8-4,55.1-7
			c10.7-2.2,18.6-4.9,22.7-8c15.6-11.7,46.8-51.6,75.7-97.2c0,0,188.6-4.2,224.8-73C1080.2,1031.7,1058.4,981.1,1011.4,952.1z
			 M852.7,1115.3c10.7-20.8,19.4-40.8,24.7-58.2c6.7-22.5,12.5-45.7,16.9-67.5h0c21.6-4,39.2-6,53.5-6.2
			c32.9-0.4,48.7,8.9,56.3,26.6c10.9,25.3,14.5,47.1-18.1,79.7c-19.7,19.7-64.4,24.9-96.6,26
			C868.4,1116.4,852.7,1115.3,852.7,1115.3z"/>
		<path style="fill:#3C5D56;" d="M921,811.6c-0.4,1.4-9.9,36.9-3.8,40.8c1.7,1,2.4,1.7,2.5,2.2c0.3,1.4-4.4,1.1-7.6,2.7
			c-4.3,2.2-7.7,10.3-26.8,21.5c0,0.1,0.1,0.3,0.1,0.4c0.3,2.8,0.5,5.5,0.7,8c0,0,0,0,0,0.1c0.3,4,0.4,7.7,0.3,11.2
			c21.3-13,31.7-28.6,36-43.6C927.4,837.9,924.4,821.7,921,811.6z"/>
		<path style="fill:#6FADA0;" d="M925.2,665c-38.3-5.8-71.1,10.7-95.5,31.7c-15,13-37.8,31.1-53.1,43.1c1.5-2,48.1-65.7,77.5-78.6
			c17.3-7.6,41-14.3,71.7-14.5c0,0,0,0,0,0c22.5-0.1,48.7,3.1,78.9,12c34.8,10.2,47.3,18.4,49.3,26.3l0,0
			c-3.8,19.4-41.2,29.2-42.6,29.6c-2.4-2.6-7.9-5.6-13.5-8.5C989.5,701.6,963.5,670.8,925.2,665z"/>
		<path style="fill:#73A88C;" d="M886.5,898.7c-0.3,9-2.1,16.8-6.9,26l-2-0.7c0.1,0,0.3-0.1,0.4-0.1c0,0-7.8-1.7-2.7-11.2
			c4.9-9.2,10.6-24.4,11-25.3C886.5,891.5,886.6,895.1,886.5,898.7z"/>
		<path style="fill:#8ED1AD;stroke:#7DA89B;stroke-miterlimit:10;" d="M754.9,987.3c9.8-12.9,14-29,23.5-48.5
			c13.4-27.7,11.7-46.4-2.7-51.8l8.7-2c0,0,23.7-5.6,40.2-13.9c16.3-8.2,57.9-17.4,60.9,7.7c0,0.1,0.1,0.3,0.1,0.4
			c0.3,2.8,0.5,5.5,0.7,8c0,0,0,0,0,0.1c-0.4,0.9-6,16.1-11,25.3c-5.1,9.4,2.7,11.2,2.7,11.2c-0.1,0-0.2,0.1-0.4,0.1
			c-4.7,1.7-28.4,21.9-56.8,37.4C797.3,974.3,766.2,984,754.9,987.3z"/>
		<path style="fill:#3C5D56;" d="M1054.1,685.1L1054.1,685.1c-3.9,19.4-41.2,29.2-42.7,29.6c1.2,1.4,1.6,2.7,0.6,3.8
			c-2,2.3-1.3,8.2-8.5,12.9c0,0-0.1,0-0.2,0.1c-3.5,2.5-47.3,33-104.7,62.9c-18.9,9.8-39.2,19.6-60.1,28.3
			c-21.9,9.1-40.9,15.9-57.1,21c0,0,53.4-6,103.3-28c9.1-4,19.5-9.3,30.6-15.5c50-27.9,113.3-72.9,124.5-88.8
			C1046.8,701.4,1056.3,693.4,1054.1,685.1z"/>
		<path style="fill:#5D9187;" d="M776.7,739.9c-2.4,1.9-4.6,3.6-6.7,5.2c0.5-10.3-7.4-13.6-7.4-13.6c-6.6,1-8.7-19-16.5-27.5
			l0.5-0.4c0,0,33.1-45.5,78-58c44.8-12.5,78.6-7.6,101.3,1.3c-30.7,0.2-54.4,6.9-71.7,14.5C824.7,674.2,778.2,737.9,776.7,739.9
			C776.7,739.9,776.7,739.9,776.7,739.9z"/>
		<path style="fill:#73A88C;stroke:#7DA89B;stroke-miterlimit:10;" d="M987,736.7c-24.9,3.8-58.9,0.2-91.1,19.5
			c-18.9,11.4-64.3,53.7-121,77.7c-14.8,6.3-30.4,11.4-46.6,14.2c-5.1,2.9-11.5,6.5-18.6,10.9c0,0,23.4-0.1,71.7-15.3
			c16.2-5.1,35.2-11.9,57.1-21c20.9-8.7,41.2-18.5,60.1-28.3c57.4-29.9,101.2-60.5,104.7-62.9C999.9,733.7,994.8,735.6,987,736.7z"
			/>
		<path style="fill:#73A88C;" d="M867.8,942.8c-17.9,24-85,48-122.5,54.6c3.8-3.1,6.9-6.5,9.6-10c11.3-3.4,42.4-13.1,65.8-25.9
			c28.4-15.5,52.1-35.7,56.8-37.4l2,0.7C876.7,930,872.9,935.9,867.8,942.8z"/>
		<path style="fill:#8ED1AD;stroke:#7DA89B;stroke-miterlimit:10;" d="M1011.4,714.7c-2.4-2.6-7.9-5.6-13.5-8.5
			c-8.5-4.5-34.4-35.3-72.7-41.1c-38.3-5.8-71.1,10.7-95.5,31.7c-15,13-37.8,31.1-53.1,43.1c0,0,0,0,0,0c-2.4,1.9-4.6,3.6-6.7,5.2
			c-0.4,7.3-4.9,18-19.5,33.4c-23,24.2-43.6,45-70,60.6c-4.8,2.9-9.7,5.5-14.9,8c0.8,0.2,1.6,0.4,2.5,0.6c5.1-3,10-5.9,14.8-8.5
			c1.4-0.8,2.8-1.6,4.2-2.3c19.9-10.5,49.2-5,52.8,1c0.5,0.9,0.5,1.8-0.3,2.7c-1.8,2.1-5.8,4.5-11.2,7.7
			c16.1-2.9,31.8-7.9,46.6-14.2c56.7-24,102.1-66.4,121-77.7c32.1-19.3,66.2-15.8,91.1-19.5c7.8-1.2,12.9-3.1,16.3-5.2
			c0.2-0.1,0.2-0.1,0.2-0.1c7.2-4.7,6.6-10.6,8.5-12.9C1013,717.4,1012.7,716.1,1011.4,714.7z"/>
		<path style="fill:#57877D;" d="M658.2,901.9c5.3-5.2,11.7-11.8,21.3-20.4c10.5-9.4,21-16.6,30.2-22.3c0,0,23.4-0.1,71.7-15.3
			c0,0,53.4-6,103.3-28c9.1-4,19.5-9.3,30.6-15.5c1.5,1.7,2.7,3.7,3.7,6c0.7,1.5,1.4,3.3,2.1,5.4c0,0,0,0,0,0
			c-0.4,1.4-9.9,36.9-3.8,40.8c1.7,1,2.4,1.7,2.5,2.2c0.3,1.4-4.4,1.1-7.6,2.7c-4.3,2.2-7.7,10.3-26.8,21.5
			c-3-25.1-44.6-16-60.9-7.7c-16.4,8.3-40.2,13.9-40.2,13.9l-8.7,2c-2.6-1-5.6-1.5-9.1-1.6c-5.3-0.1-11.7,0.8-19,3.1
			C727.8,894.6,693.7,900.3,658.2,901.9z"/>
		<path style="fill:#7CB697;stroke:#7DA89B;stroke-miterlimit:10;" d="M627.4,691.1c0,0-0.9,5.3,5.2,13.4
			c7.1,55.1-14.5,73.6-28.2,79.8c3.2-35.8-6.4-61.7-20.6-80.9c3.4-0.5,6.6-0.9,9.5-1.3C607.5,699.9,621.7,697.7,627.4,691.1z"/>
		<path style="fill:#7DA89B;" d="M746.6,635.5c-3.8-28.1-18.4-48.7-29.8-55.6c-2.4-1.5-4.6-2.3-6.6-2.5c-7.7-0.8-12.4-10.1-14.6-16
			c-1-2.7-1.5-4.7-1.5-4.7c-1,1.1-2,2.2-3,3.1c-11.6,10.2-28.2,10.1-41.8,9.5c-14.9-0.6-36.9-0.2-78.4,26.3
			c-40.8,26.1-34.5,65.9-34.3,67.1c0,0,0,0,0,0c14.8,9.2,33.2,21.8,47.2,40.7c3.4-0.5,6.6-0.9,9.5-1.3c14.2-2.1,28.4-4.3,34.2-10.9
			c0,0-0.9,5.3,5.2,13.4c1.8,2.4,4.2,5,7.4,7.9c8.5,7.5,14.6,21.6,16.8,36.3c6.2-8.3,12.3-16.3,16.4-21.1
			c11.5-13.3,17.4-34.4,35.2-37.1c14.2-2.1,22.8,2.1,30.4,7.5C738.8,698,751.2,669.5,746.6,635.5z"/>
		<path style="fill:#67967D;stroke:#7DA89B;stroke-miterlimit:10;" d="M429.8,930.6c-9.2-2.5-16.8-4.9-23.2-6.5
			c56.6-2.7,129.8-25.2,129.8-25.2c4.1,2,8.2,3.7,12.2,5.2c23.6,8.5,44.2,15.4,64.8,15.4l0,0.9l33.5,23.9
			c-63.7-19.3-115.7-5.7-133.5-3c-17.8,2.7-26.9-4.6-26.9-4.6c-0.1,0.2-0.2,0.4-0.3,0.5C480.5,945.7,456.8,937.9,429.8,930.6z"/>
		<path style="fill:#57877D;" d="M531.2,659.3c-25.9-15.9-52.5-12.6-66.4-10.3c0,0-12.9-19.7,1-53.6c13.8-33.9,44.5-44.3,77.1-46.3
			c32.7-2,59.6,2.6,68.2-7.4c0,0,2,8.4,17,9c9.5,0.4,40.2,1.6,62.9,9.1c-11.6,10.2-28.2,10.1-41.8,9.5c-14.9-0.6-36.9-0.2-78.4,26.3
			c-40.8,26.1-34.5,65.9-34.3,67.1C534.6,661.4,532.9,660.3,531.2,659.3z"/>
		<path style="fill:#57877D;" d="M775.7,887c-2.6-1-5.6-1.5-9.1-1.6c29.5,9.8-5.6,87.9-17.8,98.4c-8.4,7.2-12,12.4-13.5,14.9
			c-0.6,1.1-0.9,1.8-0.9,1.8s-10.7,1.6-42,9.2c-31.3,7.6-63.2-2.1-85.9-4.4c-14.2-1.5-42.1-5.5-64.5-7.7c-5.7,1.4-11.7,2.4-17.8,2.7
			c-7.8,0.5-16,0-23.9-1.1c3.5,2.8,9.2,5.5,18.2,7.8c35.4,9.1,102,25.1,172.4,11.6c27.1-5.2,43.5-12.2,54.4-21.2
			c3.8-3.1,6.9-6.5,9.6-10c9.8-12.9,14-29,23.5-48.5C791.8,911.2,790.1,892.5,775.7,887z"/>
		<path style="fill:#7CB697;stroke:#7DA89B;stroke-miterlimit:10;" d="M739.8,837.9c-3.5-6-32.9-11.5-52.8-1
			c-1.4,0.7-2.8,1.5-4.2,2.3c-4.8,2.6-9.8,5.5-14.8,8.5c-18.3,10.8-37.5,23.2-51.7,31.7c-19.3,11.6-37.6-3-49.6-7
			c0,0-17.2-6.6-32.9-12.6c-5.9-2.2-11.5-4.4-15.9-6.1c-16.3-6.2-20.5-8.5-24.9,3.8c-0.7,1.9-0.5,4.2,0.5,6.6
			c0.1,0.4,0.3,0.7,0.5,1.1c4.5,9.6,19.8,21.8,36.9,30.9c1.8,1,3.7,1.9,5.6,2.8c4.1,2,8.2,3.7,12.2,5.2
			c23.6,8.5,44.2,15.4,64.8,15.4c4.2,0,8.3-0.3,12.5-0.9c16.1-2.4,22.4-7,32.3-16.6c5.3-5.2,11.7-11.8,21.3-20.4
			c10.5-9.4,21-16.6,30.2-22.3c7.1-4.4,13.5-7.9,18.6-10.9c5.4-3.1,9.4-5.6,11.2-7.7C740.3,839.7,740.4,838.8,739.8,837.9z"/>
		<path style="fill:#7DA89B;stroke:#7DA89B;stroke-miterlimit:10;" d="M692.5,1009.7c-31.3,7.6-63.2-2.1-85.9-4.4
			c-14.2-1.5-42.1-5.5-64.5-7.7c24.6-6,46.2-20.1,73.4-31.3c28.6-11.8,31.5-20,31.7-22.1l-0.2,0l-33.5-23.9l0-0.9
			c4.2,0,8.3-0.3,12.5-0.9c16.1-2.4,22.4-7,32.3-16.6c35.5-1.5,69.6-7.3,89.4-13.3c7.3-2.2,13.6-3.2,19-3.1
			c29.5,9.8-5.6,87.8-17.8,98.4c-8.4,7.2-12,12.4-13.5,14.9c-0.6,1.1-0.9,1.8-0.9,1.8S723.8,1002.1,692.5,1009.7z"/>
		<path style="fill:#ACE1B7;stroke:#7DA89B;stroke-miterlimit:10;" d="M762.7,731.5c-6.6,1-8.7-19-16.5-27.5c-0.5-0.6-1-1.1-1.6-1.5
			c-1.9-1.5-3.7-3-5.7-4.4c-7.6-5.5-16.3-9.7-30.4-7.5c-17.8,2.7-23.7,23.8-35.2,37.1c-4.1,4.8-10.2,12.7-16.4,21.1
			c-2.2-14.7-8.3-28.9-16.8-36.3c-3.2-2.8-5.6-5.5-7.4-7.9c7.1,55.1-14.5,73.6-28.2,79.8c3.2-35.8-6.4-61.7-20.6-80.9
			c-14-19-32.4-31.5-47.2-40.7c0,0,0,0,0,0c-1.9-1.1-3.6-2.2-5.3-3.3c-25.9-15.9-52.5-12.6-66.4-10.3c-2.4,0.4-4.4,0.7-6,1
			c-0.9,0.1-1.9,0.2-2.8,0.1c-10.2-0.5-21.9-10.8-21.9-10.8c2.7,11.2-1.7,23.4-6.7,32.8c-5.1,9.4-16.2,54.5,19,92.6
			c29.1,31.6,67.5,54.8,79.9,61.8c1.9,0.6,3.5,1.2,5,1.7c4.3,1.4,6.8,2.2,6.8,2.2l-1.5,24.1c0,0,4,2.5-2.7,5.3
			c15.7,6,32.9,12.6,32.9,12.6c12,4,30.4,18.6,49.6,7c14.2-8.5,33.4-20.9,51.7-31.7c-0.8-0.2-1.6-0.3-2.5-0.6
			c5.2-2.5,10.2-5.1,14.9-8c26.4-15.6,47-36.4,70-60.6c14.6-15.4,19.2-26.1,19.5-33.4C770.5,734.9,762.7,731.5,762.7,731.5z"/>
		<path style="fill:#4D786E;" d="M530.8,896.1c0,0-39.1,16.6-72.2-13.2c-8.2-7.4-16.1-13.1-23.4-17.5c-22.3-13.3-40.7-14.8-55-17
			c-4-0.6-9.2-1.2-15.1-1.6c-6-0.5-12.9-0.8-20.2-1c-19.9-0.6-43.6,0.1-64.1,3.2c-35,5.3-85.7,18.5-90.7,5.7l-0.4,0.1
			c16.4,40.5,137.6,63.4,190.5,68.9c1.6,0.2,3.3,0.3,5,0.4c5.8-2.8,12.5-2.1,21.5,0.1c56.6-2.7,129.8-25.2,129.8-25.2
			C534.5,898,532.7,897.1,530.8,896.1z"/>
		<path style="fill:#3C5D56;" d="M646.9,944.2c-63.7-19.3-115.7-5.7-133.5-3s-26.9-4.6-26.9-4.6c-0.1,0.2-0.2,0.4-0.3,0.5
			c-5.7,8.6-29.3,0.8-56.4-6.5c-9.2-2.5-16.8-4.9-23.2-6.5c-9-2.2-15.7-2.9-21.5-0.1c-2.5,1.2-4.9,3.1-7.2,5.7
			c-11.5,13.3,51.4,44.3,64.1,51.1c9.7,5.1,33.2,14.8,58.3,18.3c7.9,1.1,16.1,1.6,23.9,1.1c6.2-0.4,12.1-1.4,17.8-2.7
			c24.6-6,46.2-20.1,73.4-31.3c28.6-11.8,31.5-20,31.7-22.1L646.9,944.2z"/>
		<path style="fill:#7DA89B;" d="M328,740.5c-17.9,2.7-26.6,4-31.9,8.1l0,0c-17.6-13.4-36-39.6-45.2-59.8c-5.5-12-7.7-22-4.5-25.7
			c8.6-10,3-17.8,3-17.8c25.4,13.5,64.8-21.3,119.5-23.8C423.6,619.1,456,650,456,650c-10.2-0.5-21.9-10.8-21.9-10.8
			c2.7,11.2-1.7,23.4-6.7,32.8c-5.1,9.4-16.2,54.5,19,92.6c29.1,31.6,67.5,54.8,79.9,61.8c-23.8-8-76.4-26-89.4-32.9
			c-17-9-33.2-15.2-47.3-27.6C375.4,753.6,352.9,736.8,328,740.5z"/>
		<path style="fill:#8ED1AD;stroke:#7DA89B;stroke-miterlimit:10;" d="M536.5,854.5l1.5-24.1c0,0-2.5-0.8-6.8-2.2
			c-1.5-0.5-3.2-1.1-5-1.7c-23.8-8-76.4-26-89.4-32.9c-17-9-33.2-15.2-47.3-27.6s-36.6-29.2-61.5-25.5c-17.9,2.7-26.6,4-31.9,8.1
			c-2.1,1.5-3.7,3.5-5.1,6.2c-5.1,9.4-3,17.8-6.6,18.4c0,0,12.7,6.8,17,9c4.2,2.3,36.9,0.2,52.5,3.7c15.6,3.4,62.4,13.8,89.2,32.9
			c25.9,18.5,48.9,43.9,50.3,45.4l0.2-0.1c-1-2.4-1.2-4.7-0.5-6.6c4.4-12.2,8.6-10,24.9-3.8c4.4,1.7,10,3.8,15.9,6.1
			C540.5,857,536.5,854.5,536.5,854.5z"/>
		<path style="fill:#ACE1B7;" d="M344.9,845.7c-19.9-0.6-43.6,0.1-64.1,3.2c-35,5.3-85.7,18.5-90.7,5.7l-0.4,0.1
			c-1.2-2.9-1.8-6-1.9-9.2c-0.3-46.3,48.9-42.8,60.1-40.9c4.2,0.7,9,2.1,14.1,4C289.4,818.6,327.1,841.7,344.9,845.7L344.9,845.7z"
			/>
		<path style="fill:#73A88C;stroke:#7DA89B;stroke-miterlimit:10;" d="M494,865.2c-0.2-0.4-0.4-0.7-0.5-1.1l-0.2,0.1
			c-1.4-1.6-24.4-26.9-50.3-45.4c-26.8-19.1-73.6-29.4-89.2-32.9c-15.6-3.4-48.3-1.4-52.5-3.7c-4.2-2.3-17-9-17-9
			c9.4,19.1,36.2,52.5,80.7,73.6c5.9,0.5,11.1,1,15.1,1.6c14.4,2.2,32.8,3.7,55,17c7.4,4.4,15.2,10.1,23.4,17.5
			c33.1,29.7,72.2,13.2,72.2,13.2C513.7,887,498.5,874.7,494,865.2z"/>
		<path style="fill:#7CB697;" d="M344.9,845.7c-17.8-4.1-55.4-27.2-83-37.1c0,0-25.2-34.1-42.7-60.4c-17.5-26.3-44.9-42.2-43.4-61.3
			l0,0c0.8-2.9,1.4-4.7,1.4-4.7c8.3,19,31.9,9.7,49.6,7c17.8-2.7,23.9-0.4,23.9-0.4c9.2,20.2,27.6,46.3,45.2,59.8l0,0
			c-2.1,1.5-3.7,3.5-5.1,6.2c-5.1,9.4-3,17.8-6.6,18.4c9.4,19.1,36.2,52.5,80.7,73.6C359,846.3,352.2,845.9,344.9,845.7L344.9,845.7
			z"/>
		<path style="fill:#64947A;" d="M247.8,804.7c0,0-18.3-14.6-37.3-32s-32.9-44.2-36.4-58.2c-2.3-9.6,0-21.3,1.7-27.6l0,0
			c-1.6,19.1,25.9,35,43.4,61.3c17.5,26.3,42.7,60.4,42.7,60.4C256.8,806.8,252,805.4,247.8,804.7z"/>
	</g>
	<g id="XMLID_1_">
		<g>
			<path style="fill:#F2F2F2;" d="M1011.4,952.1c47.1,29,68.8,79.7,32.6,148.5c-36.2,68.8-224.8,73-224.8,73
				c12-18.9,23.6-38.9,33.6-58.2c0,0,15.7,1.1,36.7,0.4c17.7,4.2,35.8,6.7,54.1,7.4c16.4,0.7,33.3-0.2,48.2-7.1
				c16.4-7.6,28.6-21.6,40.4-35.3c3.4-3.9,6.8-7.9,8.6-12.7c1.7-4.6,1.9-9.6,1.7-14.4c-0.8-19.9-8.1-39.8-21.7-54.2
				c-13.7-14.4-34-22.9-53.8-20.5c-6.4,0.8-12.7,2.6-19,4.5c-14.4,0.1-32,2.2-53.7,6.2c3.2-15.5,5.7-30.2,7.5-43.6
				C901.7,946,964.3,923.1,1011.4,952.1z"/>
			<path style="fill:#E6E6E6;" d="M1042.4,1053.6c0.2,4.9,0,9.9-1.7,14.4c-1.8,4.8-5.3,8.8-8.6,12.7c-11.8,13.7-24,27.7-40.4,35.3
				c-14.9,6.9-31.8,7.7-48.2,7.1c-18.2-0.7-36.3-3.2-54.1-7.4c32.2-1,76.9-6.3,96.6-26c32.6-32.6,29-54.3,18.1-79.7
				c-7.6-17.6-23.3-27-56.2-26.6c6.3-1.8,12.6-3.7,19-4.5c19.7-2.4,40.1,6,53.8,20.5C1034.3,1013.8,1041.6,1033.7,1042.4,1053.6z"/>
			<path style="fill:#F2F2F2;" d="M902.8,886.9c3.4,8.5,2.8,30.6-1,59.1c-1.8,13.4-4.3,28.1-7.5,43.6c-4.4,21.8-10.1,45-16.9,67.5
				c-5.2,17.3-13.9,37.4-24.7,58.2c-9.9,19.3-21.5,39.3-33.6,58.2c-28.9,45.7-60.2,85.6-75.7,97.2c-4.1,3.1-12,5.7-22.7,8
				c-87.8-93-132.2-225.3-119.2-352.4c62.4-1.3,118.7-4.4,156.3-6.7C873.8,912.3,902.8,886.9,902.8,886.9z"/>
			<path style="fill:#DBDAD4;" d="M601.6,926.2c-17.2,0.4-34.9,0.5-52.7,0.6c-40-36.4-89.8-62-142.5-74
				c88.6-5.7,181.4-5.7,181.4-5.7c333.1-3.6,315,39.8,315,39.8s-29,25.3-144.8,32.6C720.3,921.9,664,925,601.6,926.2z"/>
			<path style="fill:#EBEBEB;" d="M548.9,926.8c17.9,0,35.5-0.2,52.7-0.6c-13,127.1,31.4,259.5,119.2,352.4c-14.3,3-33.5,5.3-55.1,7
				c-30.6-24.3-56.7-56.6-86.5-82.5c-23-20-48.9-36.6-72-56.6c-26.5-23-49-50.3-71.3-77.4c-44.6-54.3-89.2-108.6-133.9-162.9
				C367.9,922.3,460.7,926.9,548.9,926.8z"/>
			<path style="fill:#E6E6E6;" d="M579.1,1203.2c29.8,25.9,55.9,58.3,86.5,82.5c-6.7,0.5-13.6,1-20.7,1.4c0,0,0,0-0.1,0
				c-46.3-8.5-94.7-8.4-139-24.4c-31.3-11.3-59.3-30.2-86.8-49c-31.6-21.5-63.3-43-94.9-64.6c-7.2-12.8-14.7-26.6-22.3-41.4
				c-61.6-119.5-54.3-220.9-54.3-220.9c14.6,7.8,33.2,14.2,54.6,19.4c44.6,54.3,89.3,108.6,133.9,162.9
				c22.3,27.1,44.8,54.4,71.3,77.4C530.2,1166.6,556.1,1183.2,579.1,1203.2z"/>
			<path style="fill:#DBDBDB;" d="M505.8,1262.8c44.3,16,92.8,15.9,139,24.4c-73.6,4.2-164.6,2.5-191-1.9
				c-38.1-6.3-78.9-46-129.8-136c31.6,21.5,63.3,43.1,94.9,64.6C446.5,1232.5,474.5,1251.5,505.8,1262.8z"/>
			<path style="fill:#E9EAE3;" d="M302,906.3c-21.5-5.2-40-11.6-54.6-19.4c0-19,77.8-29,159-34.1c52.8,12.1,102.5,37.6,142.5,74
				C460.7,926.9,367.9,922.3,302,906.3z"/>
		</g>
		<g>
		</g>
	</g>
	<g id="XMLID_3_">
		<g>
			<path style="fill:#3C5D56;" d="M1054.1,685.1c2.1,8.3-7.3,16.4-14.3,26.3c-11.2,15.9-74.5,61-124.5,88.8
				c-3.5-3.9-8.8-6.1-16.7-5.8c57.4-29.9,101.2-60.5,104.7-62.9c0.2-0.1,0.2-0.1,0.2-0.1c7.2-4.7,6.6-10.6,8.5-12.9
				c1-1.1,0.6-2.4-0.6-3.8C1012.9,714.3,1050.2,704.5,1054.1,685.1L1054.1,685.1z"/>
			<path style="fill:#6FADA0;" d="M925.8,646.8c22.5-0.1,48.7,3.1,79,12.1c34.8,10.2,47.3,18.4,49.3,26.3l0,0
				c-3.8,19.4-41.1,29.2-42.6,29.6c-2.3-2.6-7.9-5.6-13.5-8.6c-8.5-4.5-34.4-35.3-72.7-41.1c-38.3-5.8-71.1,10.7-95.5,31.7
				c-15,13-37.8,31.2-53.1,43.1c1.5-2,48.1-65.7,77.5-78.6C871.5,653.6,895.2,647,925.8,646.8z"/>
			<path style="fill:#8ED1AD;" d="M1011.4,714.7c1.2,1.4,1.6,2.7,0.6,3.8c-2,2.3-1.3,8.2-8.5,12.9c0,0-0.1,0-0.2,0.1
				c-3.4,2.2-8.5,4.1-16.3,5.2c-24.9,3.8-58.9,0.2-91.1,19.5C877,767.6,831.5,810,774.8,834c-12,1.8-23.9,3-35,3.9
				c-3.5-6-32.9-11.6-52.8-1c-1.4,0.7-2.8,1.5-4.2,2.3c-1.1,0-1.9-0.1-2.3-0.1c26.3-15.6,47-36.4,70-60.6
				c14.6-15.4,19.2-26.1,19.5-33.4c2-1.5,4.2-3.3,6.6-5.2c0,0,0,0,0,0c15.2-12,38-30.1,53.1-43.1c24.4-21,57.2-37.5,95.5-31.7
				c38.3,5.8,64.3,36.6,72.7,41.1C1003.5,709.1,1009.1,712.1,1011.4,714.7z"/>
			<path style="fill:#73A88C;" d="M987,736.7c7.8-1.2,12.9-3.1,16.3-5.2c-3.5,2.5-47.3,33-104.7,62.9c-12.2,0.4-31,6.7-60,21.3
				c-18,9.1-41,14.8-63.7,18.3c56.7-24,102.2-66.4,121.1-77.8C928,736.9,962.1,740.5,987,736.7z"/>
			<path style="fill:#5D9187;" d="M925.8,646.8c-30.7,0.2-54.3,6.9-71.6,14.5c-29.5,13-76.1,76.6-77.5,78.6c0,0,0,0,0,0
				c-2.4,1.9-4.7,3.7-6.6,5.2c0.5-10.3-7.4-13.7-7.4-13.7c-6.7,1-8.7-19-16.5-27.5l0.5-0.4c0,0,33.1-45.5,78-58
				C869.4,632.9,903,637.9,925.8,646.8z"/>
			<path style="fill:#3C5D56;" d="M921,811.6c3.4,10.1,6.4,26.3,1.4,43.5l-2.7-0.4c-0.1-0.5-0.9-1.2-2.5-2.2
				C911.1,848.5,920.6,813,921,811.6z"/>
			<path style="fill:#57877D;" d="M921,811.6C921,811.6,921,811.6,921,811.6c-0.4,1.4-9.9,36.9-3.7,40.9c1.6,1,2.4,1.7,2.5,2.2
				c0.3,1.4-4.4,1.1-7.6,2.7c-4.3,2.2-7.6,10.3-26.8,21.5c-3-25.2-44.6-16-60.9-7.8c-16.4,8.3-40.1,13.9-40.1,13.9l-8.7,2
				c-2.6-1-5.6-1.5-9.1-1.6c-5.3-0.1-11.7,0.8-19,3.1c-19.8,6-53.9,11.8-89.4,13.3c5.3-5.2,11.7-11.8,21.3-20.4
				c10.5-9.4,21-16.6,30.2-22.3c0,0,23.4-0.1,71.7-15.3c0,0,53.4-6,103.3-28c9.1-4,19.5-9.3,30.6-15.5c1.5,1.7,2.7,3.7,3.7,6
				C919.6,807.7,920.3,809.5,921,811.6z"/>
			<path style="fill:#3C5D56;" d="M919.8,854.7l2.7,0.4c-4.3,14.9-14.6,30.6-36,43.6c0.1-3.5,0-7.2-0.3-11.2c0,0,0-0.1,0-0.1
				c-0.2-2.5-0.4-5.2-0.7-8c0-0.1,0-0.3-0.1-0.4c19.2-11.2,22.5-19.4,26.8-21.5C915.4,855.8,920.1,856,919.8,854.7z"/>
			<path style="fill:#3C5D56;" d="M898.5,794.4c8-0.3,13.2,1.9,16.7,5.8c-11.1,6.2-21.5,11.6-30.6,15.5c-49.9,22-103.3,28-103.3,28
				c16.2-5.1,35.2-11.9,57.1-21C859.3,814.1,879.7,804.3,898.5,794.4z"/>
			<path style="fill:#73A88C;" d="M838.5,815.7c29-14.6,47.8-20.9,60-21.3c-18.9,9.8-39.2,19.6-60.1,28.3
				c-21.9,9.1-40.9,15.9-57.1,21c-48.3,15.2-71.7,15.3-71.7,15.3c7.1-4.4,13.5-7.9,18.6-10.9c16.1-2.9,31.7-7.9,46.5-14.2
				C797.6,830.5,820.5,824.9,838.5,815.7z"/>
			<path style="fill:#8ED1AD;" d="M885.4,878.9c0,0.1,0.1,0.3,0.1,0.4c0.3,2.8,0.5,5.5,0.7,8c0,0,0,0,0,0.1c-0.4,0.9-6,16.1-11,25.3
				c-5.1,9.4,2.7,11.2,2.7,11.2c-0.1,0-0.2,0.1-0.4,0.1c-4.7,1.7-28.4,21.9-56.8,37.4c-23.5,12.8-54.5,22.6-65.8,25.9
				c9.8-12.9,14-29,23.5-48.5c13.4-27.7,11.7-46.4-2.7-51.8l8.7-2c0,0,23.7-5.6,40.1-13.9C840.8,862.9,882.4,853.8,885.4,878.9z"/>
			<path style="fill:#73A88C;" d="M886.5,898.7c-0.3,9-2.1,16.8-6.9,26l-2-0.7c0.1,0,0.3-0.1,0.4-0.1c0,0-7.8-1.7-2.7-11.2
				c4.9-9.2,10.6-24.4,11-25.3C886.5,891.5,886.6,895.1,886.5,898.7z"/>
			<path style="fill:#73A88C;" d="M877.5,924l2,0.7c-2.8,5.4-6.7,11.2-11.8,18.1c-17.9,24-85,48-122.5,54.6c3.8-3.1,6.9-6.5,9.6-10
				c11.3-3.4,42.4-13.1,65.8-25.9C849.1,945.9,872.8,925.7,877.5,924z"/>
			<path style="fill:#7DA89B;" d="M716.8,579.9c11.4,7,25.9,27.5,29.8,55.6c4.6,34-7.8,62.5-7.8,62.5c-7.6-5.5-16.3-9.7-30.4-7.5
				c-17.8,2.7-23.7,23.8-35.2,37.1c-4.1,4.8-10.2,12.7-16.4,21.1c-2.2-14.7-8.3-28.9-16.8-36.3c-3.2-2.8-5.6-5.5-7.4-7.9
				c-6-8.1-5.2-13.4-5.2-13.4c-5.7,6.7-20,8.8-34.2,10.9c-2.9,0.4-6.1,0.8-9.5,1.3c-14-19-32.4-31.5-47.2-40.7c0,0,0,0,0,0
				c-0.2-1.2-6.5-41,34.3-67.1c41.4-26.5,63.5-26.9,78.4-26.3c13.6,0.6,30.3,0.7,41.8-9.5c1.6,0.5,3.1,1,4.6,1.6
				c2.2,5.9,6.9,15.2,14.6,16C712.2,577.5,714.4,578.4,716.8,579.9z"/>
			<path style="fill:#ACE1B7;" d="M680.5,839.1c-4.8,2.9-9.7,5.5-15,8c-10,4.8-20.9,9-33,12.4l1.2-52.6c7.7-6.5,18.3-17.4,21.9-30.4
				c2.3-8.4,2.5-18.2,1.1-27.9c6.2-8.3,12.3-16.3,16.4-21.1c11.5-13.3,17.4-34.4,35.2-37.1c14.2-2.1,22.8,2.1,30.4,7.5
				c1.9,1.4,3.8,2.9,5.7,4.4c0.6,0.5,1.1,1,1.6,1.5c7.8,8.5,9.9,28.5,16.5,27.5c0,0,7.9,3.4,7.4,13.7c-0.4,7.3-5,18-19.5,33.4
				C727.5,802.7,706.8,823.5,680.5,839.1z"/>
			<path style="fill:#57877D;" d="M695.6,561.3c11,4.2,19.3,10.2,21.2,18.5c-2.4-1.5-4.6-2.3-6.6-2.5
				C702.5,576.5,697.8,567.2,695.6,561.3z"/>
			<path style="fill:#8ED1AD;" d="M739.8,837.9c11.1-0.8,23-2.1,35-3.9c-14.8,6.3-30.4,11.3-46.5,14.2c5.4-3.1,9.4-5.6,11.2-7.7
				C740.3,839.7,740.3,838.8,739.8,837.9z"/>
			<path style="fill:#57877D;" d="M754.9,987.3c-2.7,3.6-5.8,7-9.6,10c-3.3,0.6-6.3,1-9,1.3l-1,0c1.5-2.5,5.1-7.7,13.5-14.9
				c12.2-10.5,47.3-88.6,17.8-98.4c3.4,0,6.5,0.6,9.1,1.6c14.4,5.4,16.1,24.1,2.7,51.8C768.9,958.4,764.7,974.4,754.9,987.3z"/>
			<path style="fill:#7DA89B;" d="M694.1,556.6c0,0,0.5,2,1.5,4.7c-1.5-0.6-3-1.1-4.6-1.6C692.1,558.8,693.1,557.8,694.1,556.6z"/>
			<path style="fill:#7DA89B;" d="M647.2,944.3l-0.3,0l-33.5-23.9l0-0.9c4.1,0,8.3-0.3,12.4-0.9c16.1-2.4,22.4-7,32.3-16.6
				c35.5-1.5,69.6-7.3,89.4-13.3c7.3-2.2,13.6-3.2,19-3.1c29.5,9.8-5.6,87.9-17.8,98.4c-8.4,7.2-12,12.4-13.5,14.9
				c-0.6,1.1-0.9,1.8-0.9,1.8s-10.7,1.6-42,9.2c-31.3,7.6-63.2-2.1-85.9-4.4c-14.2-1.5-42.1-5.5-64.5-7.7
				c24.6-6,46.2-20.1,73.4-31.3C644,954.6,647,946.4,647.2,944.3z"/>
			<path style="fill:#7CB697;" d="M739.8,837.9c0.5,0.9,0.5,1.8-0.3,2.6c-1.8,2.1-5.8,4.5-11.2,7.7c-19.5,3.5-39.8,3.9-60.3-0.5
				c5.1-3,10-5.9,14.8-8.5C690.4,839.4,712.8,839.9,739.8,837.9z"/>
			<path style="fill:#57877D;" d="M691,559.7c-11.6,10.2-28.2,10.1-41.8,9.5c-14.9-0.6-36.9-0.2-78.4,26.3
				c-40.8,26.1-34.5,65.9-34.3,67.1c-1.9-1.1-3.6-2.2-5.3-3.3c-25.9-15.9-52.5-12.6-66.4-10.3c0,0-12.9-19.7,1-53.6
				c13.8-33.9,44.5-44.3,77.1-46.3c32.7-2,59.6,2.6,68.2-7.4c0,0,2,8.4,17,9C637.6,551.1,668.3,552.3,691,559.7z"/>
			<path style="fill:#7CB697;" d="M658.2,901.9c-9.9,9.6-16.2,14.2-32.3,16.6c-4.2,0.6-8.3,0.9-12.4,0.9
				c-20.6,0.1-41.3-6.8-64.8-15.3c-4-1.4-8.2-3.2-12.2-5.2c0,0,0,0,0,0c-1.9-0.9-3.7-1.8-5.6-2.8c-17.1-9.1-32.4-21.3-36.9-30.9
				c23.6-1.2,34.8-3.3,39.8-5.4c15.7,6,32.9,12.6,32.9,12.6c12,4,30.4,18.6,49.6,7c14.2-8.5,33.4-20.9,51.7-31.7
				c20.5,4.4,40.8,4.1,60.3,0.5c-5.1,2.9-11.5,6.5-18.6,10.9c-9.2,5.7-19.7,12.9-30.2,22.3C669.9,890,663.5,896.7,658.2,901.9z"/>
			<path style="fill:#7CB697;" d="M687,836.9c19.9-10.6,49.3-5,52.8,1c-27,2-49.5,1.5-57,1.3C684.2,838.4,685.6,837.6,687,836.9z"/>
			<path style="fill:#57877D;" d="M736.3,998.7c2.8-0.3,5.8-0.8,9-1.3c-10.9,9-27.2,16-54.4,21.2c-70.4,13.5-137-2.5-172.4-11.6
				c-8.9-2.3-14.7-4.9-18.2-7.8c7.9,1.1,16.1,1.6,23.9,1.1c6.2-0.4,12.1-1.4,17.8-2.7c22.3,2.2,50.3,6.2,64.5,7.7
				c22.7,2.4,54.6,12,85.9,4.4c31.3-7.6,42-9.2,42-9.2s0.2-0.6,0.9-1.8L736.3,998.7z"/>
			<path style="fill:#8ED1AD;" d="M680.5,839.1c0.4,0,1.2,0,2.3,0.1c-4.8,2.6-9.8,5.5-14.8,8.5c-0.8-0.2-1.6-0.3-2.5-0.6
				C670.8,844.6,675.7,842,680.5,839.1z"/>
			<path style="fill:#ACE1B7;" d="M640,712.3c8.5,7.5,14.6,21.6,16.8,36.3c-11.1,15-22.4,31.1-22.4,31.1l-0.6,27.2
				c-4.8,4.1-8.5,6.4-8.5,6.4L592.5,796l11.2-5.9c0.2-2,0.5-3.9,0.6-5.9c13.8-6.2,35.3-24.7,28.2-79.8
				C634.4,706.8,636.7,709.5,640,712.3z"/>
			<path style="fill:#ACE1B7;" d="M656.8,748.7c1.4,9.6,1.2,19.5-1.1,27.9c-3.6,13-14.3,23.9-21.9,30.4l0.6-27.2
				C634.4,779.7,645.7,763.7,656.8,748.7z"/>
			<path style="fill:#ACE1B7;" d="M665.5,847.1c0.8,0.2,1.6,0.4,2.5,0.6c-18.3,10.8-37.5,23.2-51.7,31.7c-19.3,11.6-37.6-3-49.6-7
				c0,0-17.2-6.6-32.9-12.6c6.7-2.7,2.7-5.3,2.7-5.3l1.5-24.1c0,0-2.5-0.8-6.8-2.2l61.3-32.1l32.8,17.3c0,0,3.6-2.3,8.5-6.4
				l-1.2,52.6C644.6,856.1,655.5,851.9,665.5,847.1z"/>
			<path style="fill:#7CB697;" d="M627.4,691.1c0,0-0.9,5.3,5.2,13.4c7.1,55.1-14.4,73.6-28.2,79.8c3.2-35.8-6.4-61.7-20.6-80.9
				c3.4-0.5,6.6-0.9,9.5-1.3C607.4,699.9,621.7,697.7,627.4,691.1z"/>
			<path style="fill:#3C5D56;" d="M646.9,944.2l0.3,0c-0.2,2.2-3.2,10.4-31.7,22.1c-27.1,11.1-48.8,25.2-73.4,31.3
				c-13.3-1.3-24.6-2-29.9-1.2c-14.2,2.1-16.4-9.7-16.4-9.7c1-5.5,4.5-11.5,6-17.7c2.3-9.3-7.7-22.8-15.6-31.9
				c0.1-0.2,0.2-0.4,0.3-0.5c0,0,9.2,7.3,26.9,4.6C531.2,938.5,583.2,924.9,646.9,944.2z"/>
			<path style="fill:#67967D;" d="M486.2,937.1c-5.7,8.6-29.3,0.8-56.4-6.5c-9.2-2.5-16.8-4.9-23.2-6.5
				c55.9-2.7,127.9-24.7,129.8-25.3c0,0,0,0,0,0c4.1,2,8.2,3.7,12.2,5.2c23.6,8.5,44.2,15.4,64.8,15.3l0,0.9l33.5,23.9
				c-63.7-19.3-115.7-5.7-133.5-3c-17.8,2.7-26.9-4.6-26.9-4.6C486.4,936.7,486.3,936.9,486.2,937.1z"/>
			<path style="fill:#ACE1B7;" d="M604.3,784.3c-0.2,1.9-0.4,3.9-0.6,5.9l-11.2,5.9l-48.9-25.8c0,0-26.8-19.1-6.7-42.4
				c16-18.6,33.3-22.6,46.8-24.6C597.9,722.6,607.6,748.5,604.3,784.3z"/>
			<path style="fill:#ACE1B7;" d="M583.7,703.3c-13.5,2-30.8,6-46.8,24.6c-20.1,23.3,6.7,42.4,6.7,42.4l48.9,25.8l-61.3,32.1
				c-1.5-0.5-3.2-1.1-5-1.7c-12.3-7.1-50.8-30.3-79.9-61.8c-35.1-38.1-24-83.2-19-92.6c5.1-9.4,9.4-21.7,6.7-32.8
				c0,0,11.8,10.3,21.9,10.8c0.9,0.1,1.9,0,2.8-0.1c1.6-0.2,3.6-0.6,6-1c13.9-2.3,40.5-5.5,66.4,10.3c1.7,1,3.5,2.1,5.3,3.3
				c0,0,0,0,0,0C551.3,671.8,569.7,684.4,583.7,703.3z"/>
			<path style="fill:#8ED1AD;" d="M538,830.4l-1.5,24.1c0,0,4,2.5-2.7,5.3c-5.9-2.2-11.5-4.4-15.9-6.1c-16.3-6.2-20.5-8.5-24.9,3.8
				c-0.7,1.9-0.5,4.2,0.5,6.6l-0.2,0.1c-1.4-1.6-24.4-26.9-50.3-45.4c-26.8-19.1-73.6-29.4-89.2-32.9c-15.6-3.4-48.3-1.4-52.5-3.7
				c-4.2-2.3-17-9-17-9c3.6-0.5,1.5-8.9,6.6-18.4c1.4-2.6,3-4.7,5.1-6.2c5.3-4.1,14.1-5.4,31.9-8.1c24.9-3.8,47.4,13.1,61.5,25.5
				s30.4,18.6,47.3,27.6c13,6.9,65.6,24.9,89.4,32.9c2.6,1.5,4,2.2,4,2.2l1-0.5C535.5,829.6,538,830.4,538,830.4z"/>
			<path style="fill:#C3ACC4;" d="M531.2,828.2l-1,0.5c0,0-1.4-0.8-4-2.2C528,827.1,529.7,827.7,531.2,828.2z"/>
			<path style="fill:#7CB697;" d="M533.8,859.8c-5.1,2-16.2,4.2-39.8,5.4c-0.2-0.4-0.4-0.7-0.5-1.1c-1-2.4-1.2-4.7-0.5-6.6
				c4.4-12.2,8.6-10,24.9-3.8C522.3,855.4,527.9,857.5,533.8,859.8z"/>
			<path style="fill:#4D786E;" d="M530.8,896c1.8,1,3.7,1.9,5.6,2.8c-1.9,0.6-73.9,22.6-129.8,25.3c-8.9-2.2-15.6-2.9-21.4-0.1
				c-1.7-0.1-3.4-0.2-5-0.4c-52.9-5.5-174.1-28.4-190.5-68.9l0.4-0.1c5,12.8,55.8-0.4,90.7-5.7c20.6-3.1,44.1-3.8,64.1-3.2
				c7.3,0.2,14.1,0.6,20.1,1c19.9,9.4,43.2,16.4,70.2,18.6c7.4,4.4,15.2,10.1,23.4,17.5C491.7,912.6,530.8,896,530.8,896z"/>
			<path style="fill:#7DA89B;" d="M446.3,764.7c29.1,31.6,67.5,54.8,79.9,61.8c-23.8-8-76.4-26-89.4-32.9c-17-9-33.2-15.2-47.3-27.6
				s-36.6-29.2-61.5-25.5c-17.9,2.7-26.6,4-31.9,8.1l0,0c-17.6-13.4-36-39.6-45.2-59.8c-5.5-12-7.7-22-4.5-25.7
				c8.6-10,3-17.8,3-17.8c25.4,13.5,64.8-21.3,119.5-23.8C423.6,619.1,456,650,456,650c-10.2-0.5-21.9-10.8-21.9-10.8
				c2.7,11.2-1.7,23.4-6.7,32.8C422.3,681.5,411.2,726.5,446.3,764.7z"/>
			<path style="fill:#73A88C;" d="M530.8,896c0,0-39.1,16.6-72.2-13.2c-8.2-7.4-16.1-13.1-23.4-17.5c6.2,0.5,12.7,0.8,19.4,0.7
				c15.9-0.1,28.9-0.4,39.4-1C498.5,874.7,513.7,887,530.8,896z"/>
			<path style="fill:#3C5D56;" d="M542.1,997.6c-5.7,1.4-11.7,2.4-17.8,2.7c-7.8,0.5-16,0-23.9-1.1c-4.7-3.8-5.4-8-4.5-12.6
				c0,0,2.2,11.9,16.4,9.7C517.5,995.5,528.8,996.2,542.1,997.6z"/>
			<path style="fill:#73A88C;" d="M493.3,864.1l0.2-0.1c0.1,0.4,0.3,0.7,0.5,1.1c-10.5,0.5-23.4,0.9-39.4,1
				c-6.6,0-13.1-0.2-19.4-0.7c-22.3-13.3-40.7-14.8-55-17c-4-0.6-9.2-1.2-15.2-1.6c-44.5-21.1-71.2-54.5-80.6-73.6
				c0,0,12.7,6.8,17,9c4.2,2.3,36.9,0.2,52.5,3.7c15.6,3.4,62.4,13.8,89.2,32.9C468.9,837.2,491.9,862.6,493.3,864.1z"/>
			<path style="fill:#3C5D56;" d="M486.2,937.1c8,9.1,17.9,22.6,15.6,31.9c-1.5,6.2-5,12.1-6,17.7c-0.9,4.5-0.2,8.8,4.5,12.6
				c-25.1-3.5-48.6-13.2-58.3-18.3c-12.7-6.8-75.6-37.8-64.1-51.1c2.3-2.7,4.6-4.5,7.2-5.7c6.7,0.5,13.9,0.4,21.4,0.1
				c6.4,1.6,14,4,23.2,6.5C456.8,937.9,480.5,945.7,486.2,937.1z"/>
			<path style="fill:#4D786E;" d="M380.2,848.4c14.4,2.2,32.8,3.7,55,17c-27-2.2-50.4-9.2-70.2-18.6
				C371,847.2,376.1,847.8,380.2,848.4z"/>
			<path style="fill:#3C5D56;" d="M385.1,924c5.8-2.8,12.5-2.1,21.4,0.1C399.1,924.5,391.8,924.5,385.1,924z"/>
			<path style="fill:#7CB697;" d="M365,846.8c-6-0.5-12.8-0.8-20.1-1l0,0c-17.7-4.1-55.4-27.1-82.9-37.1c0,0-25.2-34.1-42.7-60.4
				c-17.5-26.3-44.9-42.2-43.4-61.3l0,0c0.8-2.9,1.4-4.7,1.4-4.7c8.3,19,31.9,9.7,49.6,7c17.8-2.7,23.9-0.4,23.9-0.4
				c9.2,20.1,27.6,46.3,45.2,59.8l0,0c-2.1,1.5-3.7,3.5-5.1,6.2c-5.1,9.4-3,17.8-6.6,18.4C293.8,792.3,320.5,825.6,365,846.8z"/>
			<path style="fill:#ACE1B7;" d="M190,854.6l-0.4,0.1c-1.2-2.9-1.8-6-1.9-9.2c-0.3-46.3,48.9-42.8,60.1-40.9
				c4.2,0.7,9,2.1,14.1,3.9c27.5,9.9,65.2,33,82.9,37.1l0,0c-20-0.6-43.6,0.1-64.1,3.2C245.8,854.2,195,867.4,190,854.6z"/>
			<path style="fill:#64947A;" d="M219.2,748.2c17.5,26.3,42.7,60.4,42.7,60.4c-5.1-1.8-9.9-3.2-14.1-3.9c0,0-18.3-14.6-37.3-32
				s-32.9-44.2-36.4-58.2c-2.3-9.6,0-21.3,1.7-27.6l0,0C174.3,706,201.8,721.9,219.2,748.2z"/>
		</g>
		<g>
		</g>
	</g>
	<g>
		<g style="opacity:0;">
			<path d="M600.8,714.4l1,1.1l-2.1,3.5c-2.7,2-6,3.6-9.3,2.9c-1.8-0.4-3.7-1.6-5.5-1.1l-1.4-0.1l0.4-0.4c0.4-2.7,1.2-5.3,2.3-7.8
				l0.4,0.2c2.3-1,4.6-1.9,7-2.6L600.8,714.4z"/>
			<path d="M586.6,711.8c-0.1,0.2-0.2,0.5-0.3,0.7c-1.1,2.5-1.9,5.1-2.3,7.8l-0.4,0.4l-1.2,1.2c-2.9-0.7-5.9-0.9-8.8-1.8
				c-4-1.3-6.9-4.2-8.7-7.9c-1.9-4-3.5-8.2-5.1-12.3c-0.3-3.4-0.7-6.8-1-10.1c-0.1-1.2-0.3-2.3-0.7-3.5c-0.6-1.4-1.6-2.5-2.5-3.7
				c-2.6-3.2-4.6-6.9-5.9-10.8l-0.5-1.9c5.9,1,11.9,2,17.8,3.1c1.9,7.2,4,14.3,6.5,21.4C575.9,701.7,579.1,708.5,586.6,711.8z"/>
			<path d="M584.4,843.3c1,10.6-19.9,2.9-25,4.8c-0.5-3.8-0.5-7.7,0.1-11.5l0-0.1c3.1,0.4,7.7-0.5,10.5-0.5c1.2-0.6,2-1.7,2.4-3.1
				c1.6,2.3,4.5,4.8,6.3,5.5C581.3,839.3,584.1,840.7,584.4,843.3z"/>
			<path d="M572.4,832.9c-0.4,1.4-1.1,2.5-2.4,3.1c-2.8,0-7.5,0.9-10.5,0.5c-1.8-0.3-3.1-1-3.1-2.7c-6.8-22.7-6.8-45.5-8.3-68.6
				c-0.1,1.2-0.2,2.3-0.3,3.3c-0.1,0.6-0.1,1.2-0.2,1.8c-0.5,5.9-0.8,8.3-0.8,8.6c0-0.3,0.3-2.3,0.5-5.3
				c-1.5,24.7,1.3,49.2-6.9,73.7c0,0.2,0,0.3,0,0.5c-0.7,3-8,0.7-14.3-1.4c-1.4-0.5-2.7-0.9-3.8-1.3c0-9.5,0-18.9,0-28.4l0.2-0.1
				c0.1-0.1,0.2-0.2,0.3-0.3l0.1-0.1c0.7-0.6,1.7-1.5,2.9-2.6l0.1-0.1c0.3-0.2,0.5-0.5,0.8-0.8c1-0.9,2-1.8,3-2.8
				c1-0.9,1.9-1.8,2.8-2.6l0.4-0.4c0.5-0.5,1-0.9,1.4-1.3l0,0v-34.2c-0.1,0.1-0.2,0.1-0.3,0.2c-3.9-1.7-7.8-3.4-11.8-4.9
				c0-5.8,0-11.7-0.1-17.6c0.3,0.1,0.7,0.2,1,0.1c6.6-0.4,13.2-0.7,19.8-1c1.8-0.1,3.7-0.2,5.5-0.7c1.8-0.5,3.5-1.5,5.1-2.5
				c2.8-1.7,5.7-3.4,8.5-5.1l0.4,0.7c3.1,27.2,5.4,52.2,9.9,79.5C572.3,823.4,573.5,829.1,572.4,832.9z"/>
			<path d="M559.8,699.9c1.3,12.1,2.7,24.5,6.1,36c0.4,0.7,0.2,1.7-0.5,2.1c-0.1,0.1-0.2,0.1-0.3,0.1c-1,0.6-2,1.2-3,1.8
				c-2.8,1.7-5.7,3.4-8.5,5.1c-1.6,1-3.3,2-5.1,2.5c-1.8,0.5-3.6,0.6-5.5,0.7c-6.6,0.3-13.2,0.7-19.8,1c-0.3,0-0.7,0-1-0.1
				c-0.1,0-0.2-0.1-0.2-0.1c-0.3-0.3-0.5-0.8-0.5-1.2c-1.2-12.3-3.6-23.9-4.9-36.2c-0.2-2-0.5-4.4-0.8-7.1
				c-1.1-10.8-2.5-25.3-1.5-26.4l-0.4-0.5c2.9-2.3,5.9-4,8.9-4.2c0,0,0,0.1,0,0.1c-0.2,0.6-1.9,3.2-1.9,3.2c-0.5,1.2-1,2.3-1.5,3.5
				c-0.1,0.2-0.2,0.5-0.1,0.8c0.1,0.3,0.5,0.4,0.8,0.5c0.7,0.2,1.3,0.4,2,0.6c4.1,1.2,8.2,2.4,12.3,3.6c-0.8,2.8-1,3.2-1.8,6
				c-0.2,0.5-0.3,1.8,0,2.3c0.2,0.3,3.9,2.6,6.3,3.5l-0.2,0.9c-1.5,3.5-4.4,8.6-3.9,9.3c3.5,5.1,7.5,14.5,9.1,20.5
				c0.7-6.9,0.1-11.8,0.8-18.7c0.1-1.6,0.4-3.3,1.5-4.4c-2.2-2.5-4-5.4-6.2-8c0.3-1.8,0.6-3.7,0.9-5.5c0.1-0.6,0.1-1.2,0-1.9
				c-0.5-2.1-1.9-2.8-3.3-4.2c0.2-0.2,0.4-0.4,0.5-0.6c2.6-3.1,5.2-6.2,7.8-9.2c0.6-0.7,1.1-1.3,1.7-2c-0.9-1.3-2.1-2.4-3.5-3.1
				l-0.6-0.9l1.6-0.1l4,0.7l0.5,1.9c1.3,3.9,3.3,7.6,5.9,10.8c0.9,1.2,2,2.3,2.5,3.7c0.4,1.1,0.6,2.3,0.7,3.5
				C559.1,693.2,559.4,696.5,559.8,699.9z"/>
			<path d="M551.6,859.4c1.6,2.2,1.8,5.9-0.5,7.4c-1.4,0.9-3.1,0.7-4.8,0.5c-6.1-0.8-12.2-1.6-18.3-2.3c-0.3,0-0.6-0.1-0.9-0.2
				c-0.7-0.4-0.8-1.3-0.8-2.1c0-4.5-0.6-9.6-0.6-14.1l0.4-2.1c6.3,2.1,13.6,4.5,14.3,1.4h0.2c1.1,2.4,2.7,4.5,4.7,6.2
				C547.4,855.9,550,857.2,551.6,859.4z"/>
			<path d="M550.3,630.2c0.1,11,4.1,29-6.8,36.1c-0.1,0.1-0.3,0.2-0.4,0.2c-6.1,3.8-14.7,3.8-21,0.3c-3.1-1.7-5.6-4.4-7-7.6l-1-2.2
				c0.5-0.1,1-0.4,1.5-0.7c4.5-2.3,0-11.4,6.8-18.2v-6.8c9.1-4.5,22.7-11.4,27.3,0c0.1-0.4,0.1-0.8,0.2-1.2L550.3,630.2z"/>
			<path d="M529.1,615.4c11-2.2,21.9,4.1,20.6,14.7c0,0.4-0.1,0.8-0.2,1.2c-4.5-11.4-18.2-4.5-27.3,0v6.8
				c-6.8,6.8-2.3,15.9-6.8,18.2c-0.5,0.3-1,0.5-1.5,0.7c-5.6,1.4-7.2-12.6-7.2-12.6C501.9,629.1,515.5,620,529.1,615.4z"/>
			<path d="M547.6,673.4c-0.6,0.7-1.1,1.3-1.7,2l-2-2h0c-0.2-1.3-0.3-2.7-0.5-4l0.2,0l0.6,0.9C545.5,671.1,546.7,672.2,547.6,673.4z
				"/>
			<path d="M537.6,685.3c-0.2,0.3-0.5,0.4-0.8,0.6c-0.7,0.3-1.5,0-2.2-0.2c-0.1,0-0.2,0-0.2-0.1c-4.1-1.2-8.2-2.4-12.3-3.6l0.7-3.1
				c0.2-1.8,0.2-3.6,0.1-5.4c0-0.1,0-0.1,0-0.1c-0.1-1.4-0.2-2.8-0.5-4.1l-0.3-2.4v0c6.3,3.5,14.9,3.4,21-0.3v0l1,7.9
				c0-0.3-0.1-0.7-0.1-1h0l2,2c-2.6,3.1-5.2,6.1-7.8,9.2C538,684.9,537.8,685.1,537.6,685.3z"/>
			<path d="M546.1,704.9c-1.1,1.1-1.3,2.8-1.5,4.4c-0.7,6.9-0.1,11.8-0.8,18.7c-1.6-6-5.6-15.3-9.1-20.5c-0.5-0.7,2.4-5.8,3.9-9.3
				l0.2-0.9c0.3,0.1,0.6,0.2,1,0.3c0-0.2,0.1-0.5,0.1-0.7C542.1,699.5,543.9,702.4,546.1,704.9z"/>
			<path d="M540,696.9c0,0.2-0.1,0.5-0.1,0.7c-0.3-0.1-0.7-0.1-1-0.3c-2.5-0.8-6.1-3.1-6.3-3.5c-0.3-0.5-0.2-1.8,0-2.3
				c0.8-2.8,1-3.2,1.8-6c0.1,0,0.2,0,0.2,0.1c0.7,0.2,1.5,0.4,2.2,0.2c0.3-0.1,0.6-0.3,0.8-0.6c1.4,1.4,2.8,2.2,3.3,4.2
				c0.1,0.6,0.1,1.3,0,1.9C540.6,693.2,540.3,695.1,540,696.9z"/>
			<path d="M522.2,777.6v-0.5h0.1c2.5-1.4,8.5-3.9,11.6-5.5c0.1-0.1,0.2-0.1,0.3-0.2v34.2l0,0c-0.4,0.4-0.9,0.8-1.4,1.3l-0.4,0.4
				c-0.9,0.8-1.8,1.7-2.8,2.6l-3,2.8c-0.3,0.3-0.6,0.5-0.8,0.8l-0.1,0.1c-1.2,1.1-2.2,2-2.9,2.6l-0.1,0.1c-0.1,0.1-0.2,0.2-0.3,0.3
				l-0.2,0.1C522.3,803.7,522.3,790.7,522.2,777.6z"/>
			<path d="M534,771.7c-3.2,1.6-9.1,4.1-11.6,5.5h-0.1c0-3.5,0-6.9-0.1-10.4C526.1,768.3,530.1,769.9,534,771.7z"/>
			<path d="M522.8,673.5c0.1,1.8,0.1,3.6-0.1,5.4L522,682c-0.7-0.2-1.3-0.4-2-0.6c-0.3-0.1-0.6-0.2-0.8-0.5c-0.1-0.3,0-0.5,0.1-0.8
				c0.5-1.2,1-2.3,1.5-3.5C520.9,676.8,522.6,674.1,522.8,673.5z"/>
			<path d="M522.2,777.6c0,13.1,0.1,26.1,0.1,39.1l0,0c0,0.1-0.1,0.1-0.2,0.1L522,817c-0.3-0.1-0.5-0.2-0.8-0.3l0,0
				c0.9-13.2,0.1-26.2,0-39.4L522.2,777.6z"/>
			<path d="M521.2,777.3c-7.8-2.7-15.7-5.4-23.7-7.9l0.1-0.4c-0.8-2.6-1.2-5.4-1.1-8.1c0-0.3,0.1-0.6,0.3-0.8c0.1,0,0.1-0.1,0.2-0.1
				V760c1.8,0.3,3.5,0.3,5.1-0.3l0.1,0.1l4,1.2c1.5,0.5,3,1,4.5,1.5c3.9,1.3,7.7,2.7,11.5,4.2c0,3.5,0,6.9,0.1,10.4v0.5L521.2,777.3
				z"/>
			<path d="M492.4,767.8c1.7,0.5,3.4,1,5.1,1.5c8,2.5,15.9,5.2,23.7,7.9c0,13.2,0.9,26.2,0,39.4l0,0c-18.6-6.2-55.8-17.5-55.8-17.5
				c0-11.4,0.3-36,0.3-37.7C474.7,763,483.6,765.2,492.4,767.8z"/>
			<path d="M515.7,704.5L515.7,704.5l-0.8,1.3c-4.6,13.3-5.6,16.5-9.7,40.4c0,0-0.4,0-0.9,0c-1.7,0-5.5,0-7.6-0.9
				c-1.1-0.4-2.2-1-3.3-1.1c-0.5-0.1-0.9,0-1.4,0.1l0.4-1.1c4-15,4.2-29.3,4.5-44.6c0-1,0.1-2,0.4-3c0.4-1.2,1.4-2.1,2.3-3
				c3.6-3.6,8.7-10.6,14.2-15.1l0.4,0.5C513.2,679.2,514.6,693.7,515.7,704.5z"/>
			<path d="M508.9,755.3c0.6,2.4,1.1,4.9,1.7,7.3c-1.5-0.5-3-1-4.5-1.5l-0.9-3.5h-2.7c-0.1-1.6,0.4-3.1,1.5-4.3
				c1.1,0.2,2.3,0.4,3.4,0.5c0.3,0,0.7,0.1,1,0.3C508.7,754.4,508.9,754.8,508.9,755.3z"/>
			<path d="M504.1,753.2c-1.1,1.2-1.6,2.7-1.5,4.3c0,0.6,0.1,1.2,0.4,1.8c-0.3,0.1-0.5,0.3-0.8,0.4c-1.6,0.6-3.4,0.6-5.1,0.3
				c-0.4-0.1-0.9-0.1-1.3-0.2c-1.9-0.4-3.9-1-5.2-2.3c-0.3-0.3-0.6-0.6-0.8-0.9c-1-1.7-0.9-4-0.1-5.8c0.8-1.8,2.2-3.4,3.5-4.9
				l0.4-1.6c1.1,0.1,2.3,0.7,3.3,1.1c2.1,0.8,5.8,0.9,7.6,0.9l0.2,1.3c0.2,1.2,0.3,2.3,0.4,3.5c0.1,0.4,0.1,0.7,0,1.1
				c-0.2,0.4-0.5,0.7-0.8,1C504.1,753.2,504.1,753.2,504.1,753.2z"/>
			<path d="M497.6,769l-0.1,0.4c-1.7-0.5-3.4-1-5.1-1.5c-0.3-3-0.5-5.9-0.7-8.8l-1.3-1.5l0,0c1.3,1.3,3.3,1.9,5.2,2.3
				c0.4,0.1,0.9,0.2,1.3,0.2v0.1c-0.1,0-0.1,0-0.2,0.1c-0.2,0.2-0.3,0.5-0.3,0.8C496.4,763.6,496.8,766.4,497.6,769z"/>
			<path d="M491.7,759c0.2,3,0.5,5.9,0.7,8.8c-8.8-2.6-17.7-4.8-26.7-6.2v-0.1l15.6-6.6l7.6,2.3l1.6,0.3L491.7,759z"/>
		</g>
		<path style="fill:#AE7E56;" d="M600.8,714.4l1,1.1l-2.1,3.5c-2.7,2-6,3.6-9.3,2.9c-1.8-0.4-3.7-1.6-5.5-1.1l-1.4-0.1l0.4-0.4
			c0.4-2.7,1.2-5.3,2.3-7.8l0.4,0.2c2.3-1,4.6-1.9,7-2.6L600.8,714.4z"/>
		<path style="fill:#F2F2F2;" d="M586.6,711.8c-0.1,0.2-0.2,0.5-0.3,0.7c-1.1,2.5-1.9,5.1-2.3,7.8l-0.4,0.4l-1.2,1.2
			c-2.9-0.7-5.9-0.9-8.8-1.8c-4-1.3-6.9-4.2-8.7-7.9c-1.9-4-3.5-8.2-5.1-12.3c-0.3-3.4-0.7-6.8-1-10.1c-0.1-1.2-0.3-2.3-0.7-3.5
			c-0.6-1.4-1.6-2.5-2.5-3.7c-2.6-3.2-4.6-6.9-5.9-10.8l-0.5-1.9c5,0.9,10,1.7,14.9,2.6c1.7,0.3,3.1,1.6,3.6,3.3
			c1.7,6.3,3.6,12.5,5.7,18.6C575.9,701.7,579.1,708.5,586.6,711.8z"/>
		<path style="fill:#482B12;" d="M584.4,843.3c1,10.6-19.9,2.9-25,4.8c-0.5-3.8-0.5-7.7,0.1-11.5l0-0.1c3.1,0.4,7.7-0.5,10.5-0.5
			c1.2-0.6,2-1.7,2.4-3.1c1.6,2.3,4.5,4.8,6.3,5.5C581.3,839.3,584.1,840.7,584.4,843.3z"/>
		<path style="fill:#232323;" d="M572.4,832.9c-0.4,1.4-1.1,2.5-2.4,3.1c-2.8,0-7.5,0.9-10.5,0.5c-1.8-0.3-3.1-1-3.1-2.7
			c-6.8-22.7-6.8-45.5-8.3-68.6c-0.1,1.2-0.2,2.3-0.3,3.3c-0.1,0.6-0.1,1.2-0.2,1.8c-0.5,5.9-0.8,8.3-0.8,8.6c0-0.3,0.3-2.3,0.5-5.3
			c-1.5,24.7,1.3,49.2-6.9,73.7c0,0.2,0,0.3,0,0.5c-0.7,3-8,0.7-14.3-1.4c-1.4-0.5-2.7-0.9-3.8-1.3c0-9.5,0-18.9,0-28.4l0.2-0.1
			c0.1-0.1,0.2-0.2,0.3-0.3l0.1-0.1c0.7-0.6,1.7-1.5,2.9-2.6l0.1-0.1c0.3-0.2,0.5-0.5,0.8-0.8c1-0.9,2-1.8,3-2.8
			c1-0.9,1.9-1.8,2.8-2.6l0.4-0.4c0.5-0.5,1-0.9,1.4-1.3l0,0v-34.2c-0.1,0.1-0.2,0.1-0.3,0.2c-3.9-1.7-7.8-3.4-11.8-4.9
			c0-5.8,0-11.7-0.1-17.6c0.3,0.1,0.7,0.2,1,0.1c6.6-0.4,13.2-0.7,19.8-1c1.8-0.1,3.7-0.2,5.5-0.7c1.8-0.5,3.5-1.5,5.1-2.5
			c2.8-1.7,5.7-3.4,8.5-5.1l0.4,0.7c3.1,27.2,5.4,52.2,9.9,79.5C572.3,823.4,573.5,829.1,572.4,832.9z"/>
		<path style="fill:#F2F2F2;" d="M559.8,699.9c1.3,12.1,2.7,24.5,6.1,36c0.4,0.7,0.2,1.7-0.5,2.1c-0.1,0.1-0.2,0.1-0.3,0.1
			c-1,0.6-2,1.2-3,1.8c-2.8,1.7-5.7,3.4-8.5,5.1c-1.6,1-3.3,2-5.1,2.5c-1.8,0.5-3.6,0.6-5.5,0.7c-6.6,0.3-13.2,0.7-19.8,1
			c-0.3,0-0.7,0-1-0.1c-0.1,0-0.2-0.1-0.2-0.1c-0.3-0.3-0.5-0.8-0.5-1.2c-1.2-12.3-3.6-23.9-4.9-36.2c-0.2-2-0.5-4.4-0.8-7.1
			c-1.1-10.8-2.5-25.3-1.5-26.4l-0.4-0.5c2.9-2.3,5.9-4,8.9-4.2c0,0,0,0.1,0,0.1c-0.2,0.6-1.9,3.2-1.9,3.2c-0.5,1.2-1,2.3-1.5,3.5
			c-0.1,0.2-0.2,0.5-0.1,0.8c0.1,0.3,0.5,0.4,0.8,0.5c0.7,0.2,1.3,0.4,2,0.6c4.1,1.2,8.2,2.4,12.3,3.6c-0.8,2.8-1,3.2-1.8,6
			c-0.2,0.5-0.3,1.8,0,2.3c0.2,0.3,3.9,2.6,6.3,3.5l-0.2,0.9c-1.5,3.5-4.4,8.6-3.9,9.3c3.5,5.1,7.5,14.5,9.1,20.5
			c0.7-6.9,0.1-11.8,0.8-18.7c0.1-1.6,0.4-3.3,1.5-4.4c-2.2-2.5-4-5.4-6.2-8c0.3-1.8,0.6-3.7,0.9-5.5c0.1-0.6,0.1-1.2,0-1.9
			c-0.5-2.1-1.9-2.8-3.3-4.2c0.2-0.2,0.4-0.4,0.5-0.6c2.6-3.1,5.2-6.2,7.8-9.2c0.6-0.7,1.1-1.3,1.7-2c-0.9-1.3-2.1-2.4-3.5-3.1
			l-0.6-0.9l1.6-0.1l4,0.7l0.5,1.9c1.3,3.9,3.3,7.6,5.9,10.8c0.9,1.2,2,2.3,2.5,3.7c0.4,1.1,0.6,2.3,0.7,3.5
			C559.1,693.2,559.4,696.5,559.8,699.9z"/>
		<path style="fill:#482B12;" d="M551.6,859.4c1.6,2.2,1.8,5.9-0.5,7.4c-1.4,0.9-3.1,0.7-4.8,0.5c-6.1-0.8-12.2-1.6-18.3-2.3
			c-0.3,0-0.6-0.1-0.9-0.2c-0.7-0.4-0.8-1.3-0.8-2.1c0-4.5-0.6-9.6-0.6-14.1l0.4-2.1c6.3,2.1,13.6,4.5,14.3,1.4h0.2
			c1.1,2.4,2.7,4.5,4.7,6.2C547.4,855.9,550,857.2,551.6,859.4z"/>
		<path style="fill:#AE7E56;" d="M550.3,630.2c0.1,11,4.1,29-6.8,36.1c-0.1,0.1-0.3,0.2-0.4,0.2c-6.1,3.8-14.7,3.8-21,0.3
			c-3.1-1.7-5.6-4.4-7-7.6l-1-2.2c0.5-0.1,1-0.4,1.5-0.7c4.5-2.3,0-11.4,6.8-18.2v-6.8c9.1-4.5,22.7-11.4,27.3,0
			c0.1-0.4,0.1-0.8,0.2-1.2L550.3,630.2z"/>
		<path style="fill:#E99424;" d="M529.1,615.4c11-2.2,21.9,4.1,20.6,14.7c0,0.4-0.1,0.8-0.2,1.2c-4.5-11.4-18.2-4.5-27.3,0v6.8
			c-6.8,6.8-2.3,15.9-6.8,18.2c-0.5,0.3-1,0.5-1.5,0.7c-5.6,1.4-7.2-12.6-7.2-12.6C501.9,629.1,515.5,620,529.1,615.4z"/>
		<path style="fill:#C3C3C3;" d="M547.6,673.4c-0.6,0.7-1.1,1.3-1.7,2l-2-2h0c-0.2-1.3-0.3-2.7-0.5-4l0.2,0l0.6,0.9
			C545.5,671.1,546.7,672.2,547.6,673.4z"/>
		<path style="fill:#92735C;" d="M537.6,685.3c-0.2,0.3-0.5,0.4-0.8,0.6c-0.7,0.3-1.5,0-2.2-0.2c-0.1,0-0.2,0-0.2-0.1
			c-4.1-1.2-8.2-2.4-12.3-3.6l0.7-3.1c0.2-1.8,0.2-3.6,0.1-5.4c0-0.1,0-0.1,0-0.1c-0.1-1.4-0.2-2.8-0.5-4.1l-0.3-2.4v0
			c6.3,3.5,14.9,3.4,21-0.3v0l1,7.9c0-0.3-0.1-0.7-0.1-1h0l2,2c-2.6,3.1-5.2,6.1-7.8,9.2C538,684.9,537.8,685.1,537.6,685.3z"/>
		<path style="fill:#353535;" d="M546.1,704.9c-0.1,2.1,0,5.5-0.1,7.1c-0.7,6.7,0,10.7-1.9,15.5c-0.1,0.2-0.3,0.2-0.5,0.1
			c-2.8-4.3-5.5-15.1-8.8-20.1c-0.5-0.7,2.4-5.8,3.9-9.3l0.2-0.9c0.3,0.1,0.6,0.2,1,0.3c0-0.2,0.1-0.5,0.1-0.7
			C542.1,699.5,543.9,702.4,546.1,704.9z"/>
		<path style="fill:#353535;" d="M540,696.9c0,0.2-0.1,0.5-0.1,0.7c-0.3-0.1-0.7-0.1-1-0.3c-2.5-0.8-6.1-3.1-6.3-3.5
			c-0.3-0.5-0.2-1.8,0-2.3c0.8-2.8,1-3.2,1.8-6c0.1,0,0.2,0,0.2,0.1c0.7,0.2,1.5,0.4,2.2,0.2c0.3-0.1,0.6-0.3,0.8-0.6
			c1.4,1.4,2.8,2.2,3.3,4.2c0.1,0.6,0.1,1.3,0,1.9C540.6,693.2,540.3,695.1,540,696.9z"/>
		<path style="fill:#674B36;" d="M522.2,777.6v-0.5h0.1c2.5-1.4,8.5-3.9,11.6-5.5c0.1-0.1,0.2-0.1,0.3-0.2v34.2l0,0
			c-0.4,0.4-0.9,0.8-1.4,1.3l-0.4,0.4c-0.9,0.8-1.8,1.7-2.8,2.6l-3,2.8c-0.3,0.3-0.6,0.5-0.8,0.8l-0.1,0.1c-1.2,1.1-2.2,2-2.9,2.6
			l-0.1,0.1c-0.1,0.1-0.2,0.2-0.3,0.3l-0.2,0.1C522.3,803.7,522.3,790.7,522.2,777.6z"/>
		<path style="fill:#634023;" d="M534,771.7c-3.2,1.6-9.1,4.1-11.6,5.5h-0.1c0-3.5,0-6.9-0.1-10.4
			C526.1,768.3,530.1,769.9,534,771.7z"/>
		<path style="fill:#C3C3C3;" d="M522.8,673.5c0.1,1.8,0.1,3.6-0.1,5.4L522,682c-0.7-0.2-1.3-0.4-2-0.6c-0.3-0.1-0.6-0.2-0.8-0.5
			c-0.1-0.3,0-0.5,0.1-0.8c0.5-1.2,1-2.3,1.5-3.5C520.9,676.8,522.6,674.1,522.8,673.5z"/>
		<path style="fill:#7F532A;" d="M522.2,777.6c0,13.1,0.1,26.1,0.1,39.1l0,0c0,0.1-0.1,0.1-0.2,0.1L522,817
			c-0.3-0.1-0.5-0.2-0.8-0.3l0,0c0.9-13.2,0.1-26.2,0-39.4L522.2,777.6z"/>
		<path style="fill:#634023;" d="M521.2,777.3c-7.8-2.7-15.7-5.4-23.7-7.9l0.1-0.4c-0.8-2.6-1.2-5.4-1.1-8.1c0-0.3,0.1-0.6,0.3-0.8
			c0.1,0,0.1-0.1,0.2-0.1V760c1.8,0.3,3.5,0.3,5.1-0.3l0.1,0.1l4,1.2c1.5,0.5,3,1,4.5,1.5c3.9,1.3,7.7,2.7,11.5,4.2
			c0,3.5,0,6.9,0.1,10.4v0.5L521.2,777.3z"/>
		<path style="fill:#7F532A;" d="M492.4,767.8c1.7,0.5,3.4,1,5.1,1.5c8,2.5,15.9,5.2,23.7,7.9c0,13.2,0.9,26.2,0,39.4l0,0
			c-18.6-6.2-55.8-17.5-55.8-17.5c0-11.4,0.3-36,0.3-37.7C474.7,763,483.6,765.2,492.4,767.8z"/>
		<path style="fill:#F2F2F2;" d="M515.7,704.5L515.7,704.5l-0.8,1.3c-4.6,13.3-5.6,16.5-9.7,40.4c0,0-0.4,0-0.9,0
			c-1.7,0-5.5,0-7.6-0.9c-1.1-0.4-2.2-1-3.3-1.1c-0.5-0.1-0.9,0-1.4,0.1l0.4-1.1c4-15,4.5-34.2,7.5-41.2c2-4.7,4-20,13.9-24.4
			l0.4,0.5C513.2,679.2,514.6,693.7,515.7,704.5z"/>
		<path style="fill:#3A3A3A;" d="M508.9,755.3c0.6,2.4,1.1,4.9,1.7,7.3c-1.5-0.5-3-1-4.5-1.5l-0.9-3.5h-2.7
			c-0.1-1.6,0.4-3.1,1.5-4.3c1.1,0.2,2.3,0.4,3.4,0.5c0.3,0,0.7,0.1,1,0.3C508.7,754.4,508.9,754.8,508.9,755.3z"/>
		<path style="fill:#AE7E56;" d="M504.1,753.2c-1.1,1.2-1.6,2.7-1.5,4.3c0,0.6,0.1,1.2,0.4,1.8c-0.3,0.1-0.5,0.3-0.8,0.4
			c-1.6,0.6-3.4,0.6-5.1,0.3c-0.4-0.1-0.9-0.1-1.3-0.2c-1.9-0.4-3.9-1-5.2-2.3c-0.3-0.3-0.6-0.6-0.8-0.9c-1-1.7-0.9-4-0.1-5.8
			c0.8-1.8,2.2-3.4,3.5-4.9l0.4-1.6c1.1,0.1,2.3,0.7,3.3,1.1c2.1,0.8,5.8,0.9,7.6,0.9l0.2,1.3c0.2,1.2,0.3,2.3,0.4,3.5
			c0.1,0.4,0.1,0.7,0,1.1c-0.2,0.4-0.5,0.7-0.8,1C504.1,753.2,504.1,753.2,504.1,753.2z"/>
		<path style="fill:#3A3A3A;" d="M497.6,769l-0.1,0.4c-1.7-0.5-3.4-1-5.1-1.5c-0.3-3-0.5-5.9-0.7-8.8l-1.3-1.5l0,0
			c1.3,1.3,3.3,1.9,5.2,2.3c0.4,0.1,0.9,0.2,1.3,0.2v0.1c-0.1,0-0.1,0-0.2,0.1c-0.2,0.2-0.3,0.5-0.3,0.8
			C496.4,763.6,496.8,766.4,497.6,769z"/>
		<path style="fill:#634023;" d="M491.7,759c0.2,3,0.5,5.9,0.7,8.8c-8.8-2.6-17.7-4.8-26.7-6.2v-0.1l15.6-6.6l7.6,2.3l1.6,0.3
			L491.7,759z"/>
		<g style="opacity:0;">
			<path d="M689.3,625.1c7.9,9.1,7.1,22.9,11.6,33.5c-5.7-2.2-12.8-2.2-18-5.5c-4.6-3-6.9-8.6-8.9-13.5l-0.4-0.8
				c0-0.4-0.1-0.8-0.2-1.2c-0.5-3-1.3-6-3.1-8.3c-1-1.2-2.1-2.3-3.4-3.2l0.4-0.6C672.2,616.3,683.4,618.3,689.3,625.1z"/>
			<path d="M687.6,827.7c1.6,7.7,3.8,14.6,3.6,22.7c-4.1,1.5-7.6,0.9-11.7,1c-4,0-8.2,2.7-12.2,1c-7.4-3.2,1.8-10.1,4.9-12.5
				c1.1-0.8,2.2-1.7,3-2.9c1.2-1.8,1.5-4,1.7-6.1l0-0.6l0-0.2C680.2,829.9,684.9,829.2,687.6,827.7z"/>
			<path d="M686.2,814.5l3.2,11.2c-0.3,0.8-1,1.4-1.9,1.9c-2.7,1.5-7.4,2.2-10.6,2.5c-2,0.2-3.4,0.2-3.4,0.2s-3-8.5-4.3-12.9
				c-2.5-8.6-4.8-17.2-7-25.8c1.2-11.1,3.2-21.8,7.1-31.5c0.6-0.1,1.2-0.2,1.8-0.4c1.1-0.3,2.2-0.7,3.3-1.2
				C674.7,779,683.7,795.7,686.2,814.5z"/>
			<path d="M689.1,711.9c2.8,6.8-3.4,13.6-9.1,7c-2.8-3.2-5.2-6.6-7.5-10.1l-1.2-1.5v0c0.3-2.9,0.7-5.7,0.7-8.6
				c-0.1-8.4-4-16.1-7.9-23.5c-0.1-0.1-0.1-0.3-0.2-0.4l1.1,0.2c2.1-1.3,5-0.6,6.8,1.1c1.8,1.6,2.9,4,3.9,6.2
				C680.2,692.1,685,701.9,689.1,711.9z"/>
			<path d="M669.3,760.1c-8.6,1.8-17.5,0.8-26.2-0.6c-1.6-0.3-3.3-0.5-4.8-0.8c0-15.9,4.5-34.1,2.7-49.1l-0.1-0.7h0
				c0.6-1.2,1.2-2.4,1.8-3.6c3.4-6.3,6.8-12.7,8.9-19.5c0.3-0.8,0.4-1.6,0.3-2.4c-0.3-1.6-2-2.4-3.5-3.1c-2-0.9-4.2-1.8-6.3-1.2
				c-0.2,0.1-0.4,0.2-0.6,0.2l-0.2-0.8c-0.4-1.3-0.7-2.6-0.7-4c1.1-0.6,2.3-1,3.5-1.3c3.8-0.8,7.4-0.2,11.2,0.2
				c2,0.2,3.9,0.2,5.9,0.1c0.7-0.1,1.4-0.1,2,0.2c0.3,0.2,0.6,0.5,0.8,0.9c0.1,0.1,0.2,0.3,0.2,0.4c3.8,7.4,7.8,15.2,7.9,23.5
				c0,2.9-0.4,5.8-0.7,8.6v0l-0.1,1.5c-0.6,7.6,1.6,14.3,2.4,21.7c0.7,6.2,1.4,12.4,2.1,18.6c0.6,5,1.5,7.6-1.4,9.4
				c-1,0.6-2.1,1-3.3,1.2C670.5,759.9,669.9,760,669.3,760.1z"/>
			<path d="M673.7,638.8c0.7,5.1,0.5,10.5-1.6,15.2c-1.8,4-5,7.4-8.9,9.4c-0.5-2.6-0.9-5.2-1.3-7.8c-0.1-0.6-0.2-1.2-0.3-1.7
				c0-0.5-0.2-1-0.5-1.3c-0.5-0.5-1.3-0.4-2-0.4c-4.6,0-8.2-5.3-6.7-9.6l-8.4,7.4c-0.6-3-1.3-6.1-1.9-9.2c-0.4-1.8-0.8-3.7-1.7-5.3
				c-0.4-0.6-0.8-1.2-1.3-1.8c-2.8-3-7.4-4.3-11.6-5.2c3.8-2.8,8.2-4.6,12.9-5.3c-1.4-1.6-2.3-3.7-2.5-5.8c3.2,0,9,2.3,9,2.3
				c2.5-1.1,5.2-2.2,7.8-1.5c1.6,0.4,2.9,1.3,4.2,2.3c2.2,1.6,4.3,3.1,6.5,4.7c0.5,0.3,0.9,0.7,1.3,1c1.3,0.9,2.4,2,3.4,3.2
				c1.8,2.4,2.6,5.4,3.1,8.3C673.6,638,673.7,638.4,673.7,638.8z"/>
			<path d="M662.2,791.6c-2,18.7-1.8,38.4-4.6,56.9c-0.6,0.6-2.2,1-4.1,1.3c-3.7,0.5-8.9,0.5-11.8-0.1c-1.4-0.3-2.3-0.7-2.3-1.2
				c-2.3-40.7,5.6-60.1,3.7-89c8.6,1.4,17.6,2.4,26.2,0.6C665.4,769.9,663.4,780.6,662.2,791.6z"/>
			<path d="M661.6,653.9c0.1,0.6,0.2,1.2,0.3,1.7l-0.4,0.6c-2.1,2.5-2,5.2-4.4,7.3c-0.5,0.5-1.1,0.9-1.8,1.2c-2.2,1.1-5,1.4-7.2,1.5
				c-1.3,0-2.6-0.1-3.9-0.3c-3.3-0.6-6.5-2-8.5-4.7c-3.4-4.5-2.6-10.7-1.6-16.3c0.4-2.4,1.7-4.4,1.3-7.3s3.9-4,3.9-4
				c0.5,0.5,0.9,1.1,1.3,1.8c0.9,1.6,1.3,3.5,1.7,5.3c0.6,3.1,1.3,6.1,1.9,9.2l8.4-7.4c-1.5,4.3,2.1,9.6,6.7,9.6c0.7,0,1.5,0,2,0.4
				C661.4,652.9,661.6,653.4,661.6,653.9z"/>
			<path d="M655.3,664.7l-0.2,1.2v5.1l0.2,2.5c-3.8-0.4-7.4-1-11.2-0.2v0c0.5-2,0.6-4,0.4-6l-0.4-1.4l0-0.1c1.3,0.2,2.6,0.4,3.9,0.3
				C650.3,666.1,653.1,665.8,655.3,664.7z"/>
			<path d="M653.5,849.8c-0.3,6.9-0.6,13.8-1,20.7c-6.3-0.5-12.1,3.2-18.2,1.7c-1.5-0.4-6.5-0.9-7.4-2.1c-1.9-2.8,0.5-7.3,2.2-9
				c2-1.9,4.5-2.7,6.7-4.2c2.4-1.7,4.4-4.2,5.8-7.3C644.6,850.3,649.8,850.4,653.5,849.8z"/>
			<path d="M604.9,709.8c0.2-0.4,0.5-0.6,0.9-0.8c0.5-0.2,1.2-0.1,1.8,0.1c4.5,1.2,13.8,0.5,13.8,0.5c5.5-9.1,9.8-20,17.1-27.9
				c0.9-0.9,1.8-1.9,3-2.4c0.2-0.1,0.4-0.2,0.6-0.2c2.1-0.6,4.3,0.3,6.3,1.2c1.5,0.7,3.1,1.5,3.5,3.1c0.1,0.8,0,1.7-0.3,2.4
				c-2.1,6.8-5.5,13.2-8.9,19.5c-0.6,1.2-1.2,2.4-1.8,3.6c-1.3,2.6-2.5,5.2-4.5,7.4c-3.3,3.8-6.7,7.4-9.5,11.6
				c-0.2,0.3-0.4,0.6-0.7,0.7c-0.3,0.1-0.6,0-0.8-0.1c-8.8-2.5-16.7-9-25.9-8.9c0.6-1,1.1-2.1,1.7-3.1c1.1-2,2.2-4.1,3.3-6.1
				C604.6,710.2,604.7,710,604.9,709.8z"/>
			<path d="M601.2,709.8h3.7c-0.1,0.2-0.2,0.4-0.3,0.6c-1.1,2-2.2,4.1-3.3,6.1l-0.8-0.5c-1.2-0.8-2.5-1.7-4-1.7
				c-0.9,0-1.8,0.2-2.7,0.4c-0.9,0.2-2,0.1-2.2-0.8c-0.1-0.5,0.2-1,0.5-1.4c1.1-1.4,2.3-2.7,3.5-4c0.3-0.3,0.7-0.6,1.1-0.7
				c0.3,0,0.6,0,0.8,0.1C598.7,708.4,600,709,601.2,709.8z"/>
			<path d="M591.9,722.1c0,0.1,0,0.2,0,0.3c-0.1,0.4-0.2,0.8-0.3,1.2c0,0.1-0.1,0.2-0.1,0.3c-0.1,0.1-0.2,0.1-0.3,0.1
				c-1.5,0-3,0-4.4-0.1c-0.3,0-0.7-0.1-0.8-0.4l0.1-1.2c0.6-0.9,1.5-1.9,2.6-1.8c0.4,0,0.9,0.2,1.2,0.4c0.6,0.3,1.3,0.6,1.9,1
				C591.7,721.9,591.8,722,591.9,722.1z"/>
		</g>
		<path style="fill:#6B2D20;" d="M689.3,625.1c7.9,9.1,7.1,22.9,11.6,33.5c-5.7-2.2-12.8-2.2-18-5.5c-4.6-3-6.9-8.6-8.9-13.5
			l-0.4-0.8c0-0.4-0.1-0.8-0.2-1.2c-0.5-3-1.3-6-3.1-8.3c-1-1.2-2.1-2.3-3.4-3.2l0.4-0.6C672.2,616.3,683.4,618.3,689.3,625.1z"/>
		<path style="fill:#515252;" d="M687.6,827.7c1.6,7.7,3.8,14.6,3.6,22.7c-4.1,1.5-7.6,0.9-11.7,1c-4,0-8.2,2.7-12.2,1
			c-7.4-3.2,1.8-10.1,4.9-12.5c1.1-0.8,2.2-1.7,3-2.9c1.2-1.8,1.5-4,1.7-6.1l0-0.6l0-0.2C680.2,829.9,684.9,829.2,687.6,827.7z"/>
		<path style="fill:#3A3A3A;" d="M686.2,814.5l3.2,11.2c-0.3,0.8-1,1.4-1.9,1.9c-2.7,1.5-7.4,2.2-10.6,2.5c-2,0.2-3.4,0.2-3.4,0.2
			s-3-8.5-4.3-12.9c-2.5-8.6-4.8-17.2-7-25.8c1.2-11.1,3.2-21.8,7.1-31.5c0.6-0.1,1.2-0.2,1.8-0.4c1.1-0.3,2.2-0.7,3.3-1.2
			C674.7,779,683.7,795.7,686.2,814.5z"/>
		<path style="fill:#2E4266;" d="M689.1,711.9c2.8,6.8-3.4,13.6-9.1,7c-2.8-3.2-5.2-6.6-7.5-10.1l-1.2-1.5v0
			c0.3-2.9,0.7-5.7,0.7-8.6c-0.1-8.4-4-16.1-7.9-23.5c-0.1-0.1-0.1-0.3-0.2-0.4l1.1,0.2c2.1-1.3,5-0.6,6.8,1.1
			c1.8,1.6,2.9,4,3.9,6.2C680.2,692.1,685,701.9,689.1,711.9z"/>
		<path style="fill:#1A2D54;" d="M669.3,760.1c-8.6,1.8-17.5,0.8-26.2-0.6c-1.6-0.3-3.3-0.5-4.8-0.8c0-15.9,4.5-34.1,2.7-49.1
			l-0.1-0.7h0c0.6-1.2,1.2-2.4,1.8-3.6c3.4-6.3,6.8-12.7,8.9-19.5c0.3-0.8,0.4-1.6,0.3-2.4c-0.3-1.6-2-2.4-3.5-3.1
			c-2-0.9-4.2-1.8-6.3-1.2c-0.2,0.1-0.4,0.2-0.6,0.2l-0.2-0.8c-0.4-1.3-0.7-2.6-0.7-4c1.1-0.6,2.3-1,3.5-1.3
			c3.8-0.8,7.4-0.2,11.2,0.2c2,0.2,3.9,0.2,5.9,0.1c0.7-0.1,1.4-0.1,2,0.2c0.3,0.2,0.6,0.5,0.8,0.9c0.1,0.1,0.2,0.3,0.2,0.4
			c3.8,7.4,7.8,15.2,7.9,23.5c0,2.9-0.4,5.8-0.7,8.6v0l-0.1,1.5c-0.6,7.6,1.6,14.3,2.4,21.7c0.7,6.2,1.4,12.4,2.1,18.6
			c0.6,5,1.5,7.6-1.4,9.4c-1,0.6-2.1,1-3.3,1.2C670.5,759.9,669.9,760,669.3,760.1z"/>
		<path style="fill:#6B2D20;" d="M673.7,638.8c0.7,5.1,0.5,10.5-1.6,15.2c-1.8,4-5,7.4-8.9,9.4c-0.5-2.6-0.9-5.2-1.3-7.8
			c-0.1-0.6-0.2-1.2-0.3-1.7c0-0.5-0.2-1-0.5-1.3c-0.5-0.5-1.3-0.4-2-0.4c-4.6,0-8.2-5.3-6.7-9.6l-8.4,7.4c-0.6-3-1.3-6.1-1.9-9.2
			c-0.4-1.8-0.8-3.7-1.7-5.3c-0.4-0.6-0.8-1.2-1.3-1.8c-2.8-3-7.4-4.3-11.6-5.2c3.8-2.8,8.2-4.6,12.9-5.3c-1.4-1.6-2.3-3.7-2.5-5.8
			c3.2,0,9,2.3,9,2.3c2.5-1.1,5.2-2.2,7.8-1.5c1.6,0.4,2.9,1.3,4.2,2.3c2.2,1.6,4.3,3.1,6.5,4.7c0.5,0.3,0.9,0.7,1.3,1
			c1.3,0.9,2.4,2,3.4,3.2c1.8,2.4,2.6,5.4,3.1,8.3C673.6,638,673.7,638.4,673.7,638.8z"/>
		<path style="fill:#232323;" d="M662.2,791.6c-2,18.7-1.8,38.4-4.6,56.9c-0.6,0.6-2.2,1-4.1,1.3c-3.7,0.5-8.9,0.5-11.8-0.1
			c-1.4-0.3-2.3-0.7-2.3-1.2c-2.3-40.7,5.6-60.1,3.7-89c8.6,1.4,17.6,2.4,26.2,0.6C665.4,769.9,663.4,780.6,662.2,791.6z"/>
		<path style="fill:#EDAE74;" d="M661.6,653.9c0.1,0.6,0.2,1.2,0.3,1.7l-0.4,0.6c-2.1,2.5-2,5.2-4.4,7.3c-0.5,0.5-1.1,0.9-1.8,1.2
			c-2.2,1.1-5,1.4-7.2,1.5c-1.3,0-2.6-0.1-3.9-0.3c-3.3-0.6-6.5-2-8.5-4.7c-3.4-4.5-2.6-10.7-1.6-16.3c0.4-2.4,1.7-4.4,1.3-7.3
			s3.9-4,3.9-4c0.5,0.5,0.9,1.1,1.3,1.8c0.9,1.6,1.3,3.5,1.7,5.3c0.6,3.1,1.3,6.1,1.9,9.2l8.4-7.4c-1.5,4.3,2.1,9.6,6.7,9.6
			c0.7,0,1.5,0,2,0.4C661.4,652.9,661.6,653.4,661.6,653.9z"/>
		<path style="fill:#DA9F6F;" d="M655.3,664.7l-0.2,1.2v5.1l0.2,2.5c-3.8-0.4-7.4-1-11.2-0.2v0c0.5-2,0.6-4,0.4-6l-0.4-1.4l0-0.1
			c1.3,0.2,2.6,0.4,3.9,0.3C650.3,666.1,653.1,665.8,655.3,664.7z"/>
		<path style="fill:#515252;" d="M653.5,849.8c-0.3,6.9-0.6,13.8-1,20.7c-6.3-0.5-12.1,3.2-18.2,1.7c-1.5-0.4-6.5-0.9-7.4-2.1
			c-1.9-2.8,0.5-7.3,2.2-9c2-1.9,4.5-2.7,6.7-4.2c2.4-1.7,4.4-4.2,5.8-7.3C644.6,850.3,649.8,850.4,653.5,849.8z"/>
		<path style="fill:#2E4266;" d="M604.9,709.8c0.2-0.4,0.5-0.6,0.9-0.8c0.5-0.2,1.2-0.1,1.8,0.1c4.5,1.2,13.8,0.5,13.8,0.5
			c5.5-9.1,9.8-20,17.1-27.9c0.9-0.9,1.8-1.9,3-2.4c0.2-0.1,0.4-0.2,0.6-0.2c2.1-0.6,4.3,0.3,6.3,1.2c1.5,0.7,3.1,1.5,3.5,3.1
			c0.1,0.8,0,1.7-0.3,2.4c-2.1,6.8-5.5,13.2-8.9,19.5c-0.6,1.2-1.2,2.4-1.8,3.6c-1.3,2.6-2.5,5.2-4.5,7.4c-3.3,3.8-6.7,7.4-9.5,11.6
			c-0.2,0.3-0.4,0.6-0.7,0.7c-0.3,0.1-0.6,0-0.8-0.1c-8.8-2.5-16.7-9-25.9-8.9c0.6-1,1.1-2.1,1.7-3.1c1.1-2,2.2-4.1,3.3-6.1
			C604.6,710.2,604.7,710,604.9,709.8z"/>
		<path style="fill:#EDAE74;" d="M601.2,709.8h3.7c-0.1,0.2-0.2,0.4-0.3,0.6c-1.1,2-2.2,4.1-3.3,6.1l-0.8-0.5
			c-1.2-0.8-2.5-1.7-4-1.7c-0.9,0-1.8,0.2-2.7,0.4c-0.9,0.2-2,0.1-2.2-0.8c-0.1-0.5,0.2-1,0.5-1.4c1.1-1.4,2.3-2.7,3.5-4
			c0.3-0.3,0.7-0.6,1.1-0.7c0.3,0,0.6,0,0.8,0.1C598.7,708.4,600,709,601.2,709.8z"/>
		<path style="fill:#EDAE74;" d="M591.9,722.1c0,0.1,0,0.2,0,0.3c-0.1,0.4-0.2,0.8-0.3,1.2c0,0.1-0.1,0.2-0.1,0.3
			c-0.1,0.1-0.2,0.1-0.3,0.1c-1.5,0-3,0-4.4-0.1c-0.3,0-0.7-0.1-0.8-0.4l0.1-1.2c0.6-0.9,1.5-1.9,2.6-1.8c0.4,0,0.9,0.2,1.2,0.4
			c0.6,0.3,1.3,0.6,1.9,1C591.7,721.9,591.8,722,591.9,722.1z"/>
		
			<radialGradient id="SVGID_1_" cx="760.3955" cy="6156.0952" r="155.6093" gradientTransform="matrix(1 0 0 -0.316 -175 2791.7578)" gradientUnits="userSpaceOnUse">
			<stop  offset="0.435" style="stop-color:#000000"/>
			<stop  offset="1" style="stop-color:#FFFFFF;stop-opacity:0"/>
		</radialGradient>
		<path style="opacity:0.19;fill:url(#SVGID_1_);enable-background:new    ;" d="M701,815.5c-8.7-8.6-179.8-18.4-208.7-9.8
			c-6.7,2-29.3,15.9-32.8,20.3c-7.9,10.2-6.8,28.6,0,43.3c5.7,12.3,51.7,20.3,70.1,20.3c24.9,0,181.6-1.9,186.9-39.9
			C718.2,837.4,713.1,818.6,701,815.5"/>
	</g>
	<path style="fill:#7CB697;" d="M566.7,871.4c12,4,30.4,18.6,49.6,7c19.3-11.6,47.9-30.4,70.7-42.5s58.3-3,52.5,3.7
		s-32.8,16.5-60.1,40.9s-28.7,33.3-53.6,37c-24.9,3.8-49-4.2-77.3-14.4c-28.3-10.2-60-34.4-55.6-46.6s8.6-10,24.9-3.8
		C534.1,858.9,566.7,871.4,566.7,871.4z"/>
</g>
<g id="Layer_3" style="display:none;">
	<g style="display:inline;">
		<g>
			<path style="fill:#ACE1B7;" d="M582.7,878c-6.5,30.2-13,60.8-10.7,91.6c3,39.7,20.3,77.8,37.4,115.3c3.8,8.4,7.7,17,8.9,25.9
				c1.6,11.7-1.6,23.4-5.7,34.6c-4.1,11.3-9.2,22.4-15.1,33.1c-10.4,18.7-23.4,36.4-30.5,56.2c5.6-17.3,12-34.4,19-51.4
				c11.2-27.1,24.3-55.7,15.8-83.9c-2.6-8.8-7.3-17.2-11.5-25.6c-12-24.5-23.9-50.5-31.5-76.1c-12-40.4-14.5-79.5-3.3-123"/>
		</g>
		<g>
			<path style="fill:#ACE1B7;" d="M650.2,969.1c6.5,2.4,13.2,3.1,19.8,5.5c4.5,1.7,22,12.4,25.7,15.2c17,12.6,30.6,26.8,47.6,39.5
				c7.9,5.9,18.1,11.1,27.1,15.7c21.3,10.8,47.9,13.8,66.9,27.3c-23-5.9-46.1-11.7-69.1-17.6c-4.8-1.2-10.6-4.3-14.9-6.4
				c-6.2-3-10.3-4.9-15.2-9.3c-12.5-11.3-27-20.3-40.2-31.1c-7.3-5.9-13.6-11.8-22.1-16.2c-10-5.2-21.6-8.3-33.3-8.9"/>
		</g>
		<g>
			<path style="fill:#ACE1B7;" d="M727.6,1021.5c4.4,8.7,10,17.6,12.2,26.8c1.4,5.9,0.9,11.7,2.6,17.6c3.4,11.6,11.4,22.3,22.5,30
				c-7-3.9-15.3-8.1-20-13.9c-6.8-8.3-9.5-24.2-12.5-33.8c-4.9-15.4-12.8-23.8-25.6-35.7"/>
		</g>
		<g>
			<path style="fill:#ACE1B7;" d="M757,1042c10.4-6.2,32.6-10.4,43.6-9.6c11,0.8,21.5,3.2,32.7,3.3c11.1,0.1,23.4-2.4,32.9-10
				c-4.7,7.9-18.9,13.3-27.6,13.9c-8.7,0.6-13.5-0.7-22-0.9c-6.9-0.2-12.9-1.2-19.9-0.2c-10.9,1.5-22.4,3.3-32.1,9.8"/>
		</g>
		<g>
			<path style="fill:#ACE1B7;" d="M575.9,998.2c4.7,8.1,9.5,16.4,16.5,23.3c21.5,21.1,57.7,23.4,79,44.6c3.3,3.3,8,9.7,11.4,12.9
				c16,15,39.1,16.9,58.2,29.1c3.6,2.3,9.5,9.1,11.7,12.4c-19.3-8-14-13.4-57.4-26c-8.9-2.6-17.2-7.1-23-13.3
				c-3-3.2-5.1-6.8-7.9-10.1c-12.1-14.1-34.2-18.7-52.8-26.6c-14.8-6.3-28.1-15.2-38.6-26"/>
		</g>
		<g>
			<path style="fill:#ACE1B7;" d="M690.8,1091.9c2.2,4.8,4.4,9.7,5.5,14.7c0.6,2.8,0.9,5.6,1.8,8.4c2.3,7.3,8.2,13.4,13.4,19.7
				c5.2,6.2,9.9,13.4,9.2,20.8c-1.1-6.4-5.8-12-10.8-17s-11.5-11.6-15.1-17.4c-7.3-11.7-3.5-22.8-15.4-34.9"/>
		</g>
		<g>
			<path style="fill:#ACE1B7;" d="M626,1047.6c3.6,3.5,7,7.2,9.3,11.4s3.5,8.9,2.5,13.3c-3.4-6.5-5.7-11.6-10.8-17.2
				c-2.6-2.8-6.4-7.4-10.3-8.8"/>
		</g>
		<g>
			<path style="fill:#ACE1B7;" d="M610.4,1093.6c3.2,1.1,7.8,3.6,10.5,5.5c6.6,4.7,14,6.2,21.8,9.4c7.8,3.2,15.5,8.6,18.5,15.4
				c3.4,7.7-0.1,15.9-2.4,23.8c-1.6,5.5-2.6,10.3-3.1,16c-0.5,6.5,0.9,14.2,4.6,20c5.8,9,16.2,13.5,23.3,21.8
				c4.9,5.7,8.1,11.9,9.2,18.8c0.7,4.1,2.1,9.2,4,13c2.4,4.6,6.9,8.3,11.2,11.8c4.7,3.8,10.5,7.7,15.3,11.5
				c-9.5-1.8-21.2-8.1-26.3-14.6c-5.6-7-8.7-12.2-10.7-20.4c-0.9-3.6-2.6-6.4-4.2-9.8c-1.6-3.2-4-6.1-6.7-8.8
				c-5-5.1-10.9-9.5-16.2-14.3c-3.1-2.8-6-7.5-7.8-11c-2.1-4-4.7-8.5-4.9-12.9c-0.3-7.5,2.1-14,3.1-21.4c1-7,3.4-14.6-1.2-20.6
				c-3.3-4.3-9.1-6.9-14.6-9.2c-6.3-2.7-12.5-5.3-18.8-8"/>
		</g>
		<g>
			<path style="fill:#ACE1B7;" d="M663.8,1193.8c1.8,6.5,3.5,13.4,0.9,19.6c-0.6,1.4-1.4,2.7-1.9,4.1c-1.6,4.2-0.9,8.9,0.6,13.2
				c1.4,4.3,3.6,8.5,4.8,12.9c1.8,6.6,1.4,13.6-1.2,20c-0.8-8.6-1.6-17.4-5.8-25.3c-1.3-2.5-3-5-4.2-7.6c-2.3-5.1-2.6-10.9-0.8-16.1
				c0.7-2,1.7-3.9,2.3-5.9c2.3-7.1,0-14.8-2.3-22"/>
		</g>
		<g>
			<path style="fill:#ACE1B7;" d="M659.9,1129c3.6,4.1,8.1,10.1,10,14.9c1.4,3.3,2.9,7.8,4.3,11.1c2.6,6.2,7.2,9.5,13.1,14
				c5.9,4.5,11.3,7.6,16.5,12.6c5.2,5,9.1,13.1,8.8,19.7c-2.2-5.3-5.5-10.3-9.7-14.8c-2-2.2-4.3-4.2-7-5.8
				c-5.3-3.3-15.9-8.6-21-12.1c-12.1-8.3-8.5-20.4-18.7-30.3"/>
		</g>
		<g>
			<path style="fill:#ACE1B7;" d="M550.1,918.8c-0.5,11.2-13.9,18.9-27.2,20.7c-13.2,1.8-26.8-0.5-40.3-0.2
				c-22.2,0.4-43.8,8.2-59.1,21.3c-13.7,11.7-23.2,27.9-41.2,34.6c-8.4,3.2-18,3.9-26.3,7.1c-25,9.5-34.3,38.9-60.4,46.2
				c8.2,2.1,17.1-1.8,23.5-6.4s11.1-10.5,16.8-15.7c6-5.4,15.6-14.1,23.5-17.4c9-3.7,20.9-4,29.8-8.1c25.9-11.9,34.9-37.9,62.4-47.3
				c15.5-5.3,34-3.3,50.9-3c16.9,0.3,33.8,0.3,47.2-7.9"/>
		</g>
		<g>
			<path style="fill:#ACE1B7;" d="M425,958.6c-7.1,5.4-17.2,7.3-26.9,7.9c-9.7,0.7-19.5-1.4-29,0.4s-17.8,8.3-21.2,15.9
				c7.1-4.1,13.6-9.3,22.2-10.7c6.6-1.1,14.4,0.6,21.2,0.6c11.8,0,19.2-0.6,29.9-4.6"/>
		</g>
		<g>
			<path style="fill:#ACE1B7;" d="M394.2,995.8c-5.7,5.8-10.4,11-12.7,18.4c-1.1,3.6-1.3,7.4-2.3,11.1c-2.1,8.3-9.3,15.8-17.8,20.5
				c5.1-8.2,11.4-16.5,13.1-25.7c1.5-8,0.7-15.4,7.4-21"/>
		</g>
		<g>
			<path style="fill:#ACE1B7;" d="M531.3,947.8c-12,6.6-15.4,11.9-19.3,19s-4.3,12.4-6.5,20c-1.3,4.5-3.8,8.1-7.4,11.5
				c-3.7,3.5-11.4,6.9-15.6,10c-7.2,5.2-11.1,13.2-14.4,20.7c-4.1,9.2-2.7,12-9.1,20.3c-2.4,3.1-8.5,10.9-12.6,12.3
				c14.9-14.5,7.5-39.1,22.7-53.3c6.7-6.2,17-9.5,22.4-16.5c7.8-10,3.4-24.6,12-34.1c3.6-3.9,5.8-7.5,11.1-9.9"/>
		</g>
		<g>
			<path style="fill:#ACE1B7;" d="M501.7,969.7c-5.5,3.8-11.8,5.9-18.6,7.9c-6.6,2-14,3.2-19,7.2c-3.6,2.9-8.9,8.5-11.5,12
				c-5.7,7.9-11.8,13.2-22.4,15.7c9.2,1.9,19.3-3,25.5-8.8c6.2-5.8,11.3-12.7,19.4-16.5c8.9-4.2,19.4-4.3,27-9.9"/>
		</g>
		<g>
			<path style="fill:#ACE1B7;" d="M565.1,1010.6c-27.5,16.5-50.8,38.5-62.5,65c-6.4,14.6-9.3,29-20.4,41.5c-6,6.8-14.3,13.8-22.3,19
				c-18.6,12.1-37.8,24.4-60.8,29.4c6.6,2.2,15.3,0,21.9-1.9s11.3-3.4,17.1-6.6c28.8-16.1,55.8-32.1,67.4-59.4
				c2.4-5.7,5.4-15.1,7.9-20.9c10.4-23.7,34.2-41.1,57.1-57.5"/>
		</g>
		<g>
			<path style="fill:#ACE1B7;" d="M531.2,1039.8c-12.4,9.1-31.5,6.7-45.7,13.7c-12.6,6.2-20,19.4-30.9,27.5
				c-7.1,5.2-15.5,9-23.9,12.7c12-0.5,22.6-6.1,31.6-12.6s17-13.8,27-19.2c9.3-4.9,20.1-7.9,31.2-8.6"/>
		</g>
		<g>
			<path style="fill:#ACE1B7;" d="M505.6,1094.7c-1.4,6,3.2,12,4.3,18.2c0.6,3.5,0.2,7-0.7,10.4c-4.4,17.3-18.9,32.5-18.3,50.3
				c-3.6-3.7-3.4-8.8-2.7-13.4c1.1-7.9,2.8-15.7,5.2-23.4c2.6-8.3,6-17,3.2-25.3"/>
		</g>
		<g>
			<path style="fill:#ACE1B7;" d="M583.3,1052.2c2.2,7.8-2.6,15.7-8.6,21.9c-6,6.1-13.5,11.3-18.2,18.2c-6,8.9-6.8,20.2-2,29.8
				c0.9-4.2-0.6-8.6-0.4-12.8c0.6-10.4,11.4-17.7,19.8-25.2c6.7-5.9,12.3-12.7,16.7-19.9"/>
		</g>
		<g>
			<path style="fill:#ACE1B7;" d="M605.7,1116c-4.5,10.2-13.8,18.4-22.8,26.2c-1.8,1.6-3.7,3.2-5.9,4.5c-7,4.1-16.4,4.3-23.8,7.7
				c-5.7,2.7-9.9,7.1-13.1,11.8c-3.2,4.7-5.6,9.9-8.4,14.8c-7.6,12.9-19.1,24.2-33.1,32.6c4.9,0.3,9.2-2.2,13-4.7
				c6.3-4,12.7-8.1,17.4-13.4c3.6-4,6.2-8.6,9.4-12.9c8-10.9,19.6-19.8,33.3-25.6c5.3-2.2,10.9-4,15.7-6.8
				c7.3-4.2,12.4-10.4,17.4-16.4"/>
		</g>
		<g>
			<path style="fill:#ACE1B7;" d="M535.8,1179.1c-7.1,3.3-12,3.2-19.9,4.9c-4.8,1-11.1,3.1-15.3,5.3c-4.3,2.2-7,5.9-10,9.2
				c-6.3,7.1-14.5,13-23.9,17.3c6,0.6,11.8-1.7,16.4-4.9c4.6-3.2,12.7-9.4,17.1-12.8c9.9-7.4,18.4-9.1,31.3-12"/>
		</g>
		<g>
			<path style="fill:#ACE1B7;" d="M582.8,1149.6c-0.8,3.2-3.7,5.7-6,8.3c-6.5,7.3-9.1,16.7-9.1,26c-1.2-4.4-2.3-8.9-2-13.4
				c0.5-6,3.7-11.6,7.5-16.7"/>
		</g>
	</g>
	<g style="display:inline;">
		<path style="fill:#00507B;" d="M181,393c-8,11-21,26-17,43s24,13,29,8s8-20,2-29S181,393,181,393z"/>
		<path style="fill:#00507B;" d="M180,424c-5,0.5-14,6-7,15c3.6,4.6,16.5,6.6,20-4C194,432,191,423,180,424z"/>
		<path style="fill:#00507B;" d="M310,423c3.5-4.4,24-5,27,0s2,13-2,19s-10,12-21,5S306,428,310,423z"/>
		<path style="fill:#00507B;" d="M315,429c4.7-1.6,16-3,18,0s-1,11-7,14s-9,0-12-4S312,430,315,429z"/>
		<path style="fill:#00507B;" d="M445,445c3.2-4.6,12-8,20-8s22,9,17,15s-13,17-20,14S438,455,445,445z"/>
		<path style="fill:#00507B;" d="M452,448c5.1-2.5,16-3,20-2s4,8,0,12s-9,5-17,0S450,449,452,448z"/>
		<path style="fill:#00507B;" d="M596,476c6.5-3.1,19-1,23,3s8,13,3,23s-16,10-22,8S579,484,596,476z"/>
		<path style="fill:#00507B;" d="M595,491c2.2-5.4,11-5,17-3s8,10,5,13s-9,6-16,3S593,496,595,491z"/>
		<path style="fill:#00507B;" d="M460,391c-2,5,0,11,2,11s4-5,3-8S460,391,460,391z"/>
		<path style="fill:#00507B;" d="M600,402c-1,4,1,9,4,9s4-8,1-10S600,402,600,402z"/>
		<path style="fill:#00507B;" d="M743,443c-2.7,0.9-1,11,2,12s4-4,4-8S746,442,743,443z"/>
	</g>
</g>
</svg>
