<svg width="628" height="623" viewBox="0 0 628 623" fill="none" xmlns="http://www.w3.org/2000/svg">
<circle cx="450.929" cy="253.319" r="57.5655" fill="#F7F7F7"/>
<circle cx="232.181" cy="214.942" r="95.9425" fill="#F7F7F7"/>
<circle cx="350.19" cy="229.334" r="81.5511" fill="#F7F7F7"/>
<path d="M511.927 312.804C517.45 312.804 521.962 308.088 519.187 303.313C512.061 291.054 491.248 279.635 459.262 270.742C419.138 259.586 364.719 253.319 307.975 253.319C251.232 253.319 196.812 259.586 156.688 270.742C124.702 279.635 103.889 291.054 96.7633 303.313C93.9878 308.088 98.5006 312.804 104.023 312.804L307.975 312.804H511.927Z" fill="#F7F7F7"/>
<path d="M292.233 160.329C288.539 150.633 298.618 144.892 304.445 153.477C328.614 189.089 337.958 228.431 315.106 260.068C313.233 262.662 310.096 263.974 306.902 263.768C297.588 263.165 293.671 250.406 298.857 242.646C314.986 218.507 304.58 192.736 292.233 160.329Z" fill="#CEEBEB"/>
<path d="M408.503 192.103C405.069 182.312 414.299 177.219 419.291 186.315C433.707 212.579 438.004 241.643 422.493 263.358C421.102 265.306 418.753 266.287 416.363 266.132C409.395 265.682 406.381 256.042 410.159 250.169C421.073 233.205 416.204 214.065 408.503 192.103Z" fill="#CEEBEB"/>
<path d="M502.05 257.631C503.681 246.639 509.004 243.201 509.734 254.29C510.359 263.77 507.748 273.264 500.537 283.079C499.128 284.996 496.634 285.739 494.353 285.061C489.644 283.661 488.586 277.416 492.142 274.027C498.336 268.126 501.263 262.932 502.05 257.631Z" fill="#CEEBEB"/>
<circle cx="318.529" cy="128.594" r="9.59424" fill="#F7F7F7"/>
<path d="M72.5105 312.804C78.0334 312.804 82.6408 308.108 80.1385 303.185C79.871 302.658 79.5814 302.137 79.2697 301.621C77.1308 298.082 73.9981 294.877 70.0563 292.196C66.1145 289.514 61.4434 287.41 56.318 286.008C51.1927 284.606 45.7168 283.933 40.2132 284.03C34.7095 284.127 29.2893 284.992 24.272 286.573C19.2547 288.154 14.7418 290.42 10.9992 293.237C7.25652 296.054 4.35987 299.365 2.47988 302.975C2.15992 303.589 1.87051 304.21 1.61189 304.837C-0.440703 309.808 4.30727 314.107 9.68248 313.918L41.2553 312.804H72.5105Z" fill="#F7F7F7"/>
<g filter="url(#filter0_d)">
<path d="M149.001 256.062H623.273L562.962 365.619L453.083 415.703L394.311 565.953L289.543 487.698L254.286 365.619L197.765 321.855C197.4 321.573 197.076 321.241 196.803 320.87L149.001 256.062Z" fill="#CEBEA3"/>
<path d="M622.972 255.786L563.725 282.219L478.47 276.097L393.974 298.177L299.653 283.89L288.518 294.281L242.012 273.499L149.001 255.965L326.508 217L622.972 255.786Z" fill="#8FC65B"/>
<path d="M218.438 338.092L256.28 362.831L289.186 486.527L218.438 338.092Z" fill="#AA9573"/>
<path d="M289.843 487.829L266.915 402.544L289.843 365.435L324.561 436.398H374.347L395.309 569.859L289.843 487.829Z" fill="#AFA189"/>
<path d="M450.637 414.48L517.152 386.269L430.683 470.903L450.637 414.48Z" fill="#FBE5C2"/>
<path d="M563.026 365.559L623.019 255.883L563.026 281.646V365.559Z" fill="#FBE6C2"/>
<path d="M196.221 320.66L149 256.207L198.91 265.415L214.152 334.917L196.221 320.66Z" fill="#AA9573"/>
</g>
<path d="M276.084 247.403C276.084 247.522 276.084 247.634 276.133 247.753C276.411 249.687 277.102 251.569 278.176 253.316L280.159 256.495C280.715 257.418 281.379 258.296 282.142 259.118C285.074 262.274 289.278 264.52 294.04 265.476L309.379 268.488L331.361 272.812L348.356 276.158C349.625 276.408 350.919 276.567 352.223 276.635L359.392 276.945L360.383 276.992C362.153 277.062 363.9 276.651 365.341 275.824C369.992 273.135 373.739 269.563 376.247 265.428C376.594 264.864 376.922 264.276 377.239 263.688C377.875 262.435 378.395 261.147 378.796 259.833L378.994 259.158C379.296 258.169 379.456 257.156 379.47 256.138C379.47 256.138 379.47 256.138 379.47 256.098V255.875C379.467 255.288 379.414 254.701 379.311 254.119L378.756 250.94V250.765L378.468 249.104L389 238.978C388.441 235.8 386.149 229.962 383.554 227.518C380.96 225.074 366.269 228.469 362.445 227.518L331.262 219.769C327.104 218.728 322.646 218.744 318.501 219.817L296.479 225.523C294.877 225.941 293.367 226.561 292.008 227.359C292.008 227.359 291.948 227.359 291.928 227.407L290.114 228.488L285.761 231.063C284.796 231.644 283.894 232.291 283.064 232.994C282.715 233.272 282.384 233.563 282.073 233.868L281.081 234.814L280.833 235.044L280.555 235.331C280.427 235.45 280.308 235.577 280.189 235.704C277.855 238.232 276.435 241.227 276.084 244.359C275.972 245.372 275.972 246.39 276.084 247.403Z" fill="#427D26"/>
<path d="M382.061 232.792C382.301 234.901 383.5 236.732 385.849 240.169L386.261 240.78C388.179 243.562 389.445 245.384 391.708 247.17C393.631 248.649 395.819 249.798 398.17 250.563C402.217 251.99 405.113 253.121 407.404 254.081C413.34 256.54 415.392 257.842 423.398 259.969C433.831 262.751 439.056 264.133 446.305 263.99C454.327 263.769 462.171 261.73 469.165 258.048C470.124 257.546 470.939 257.061 471.658 256.603C475.445 254.171 476.529 252.331 477.018 251.281C478.83 247.439 477.814 243.49 476.539 238.527C476.414 238.051 476.184 237.18 475.781 236.023C474.786 233.152 473.485 230.383 471.898 227.756C469.309 223.475 467.717 220.845 464.562 218.781C462.395 217.345 461.456 217.489 449.153 215.191C440.984 213.665 438.692 213.091 436.861 212.588C430.417 210.793 431.012 210.308 427.483 209.581C421.423 208.343 416.504 209.249 408.354 210.748C402.763 211.771 399.973 212.283 396.914 213.719C392.041 215.983 387.947 219.485 385.101 223.825C383.385 226.572 381.649 229.291 382.061 232.792Z" fill="#427D26"/>
<g filter="url(#filter1_d)">
<path d="M377.897 20.3863C378.415 21.4089 379.162 22.2904 380.077 22.958L384.56 26.007L391.242 30.5659L412.559 41.2813C413.48 41.7437 414.485 42.0018 415.509 42.0387C416.532 42.0756 417.552 41.8906 418.502 41.4956C418.649 41.4374 418.791 41.369 418.929 41.291C419.451 41.0314 419.938 40.704 420.379 40.3169L420.502 40.2098C421.841 39.0889 422.811 37.5705 423.28 35.8619C423.748 34.1533 423.691 32.3378 423.118 30.6633L419.725 20.8149C417.745 15.076 413.671 10.3534 408.364 7.64642C403.058 4.9394 396.934 4.4602 391.29 6.31019L389.764 6.81674L381.574 10.2067C380.674 10.5712 379.857 11.1227 379.173 11.8267C378.49 12.5307 377.955 13.372 377.603 14.298C377.23 15.2765 377.064 16.3251 377.115 17.3745C377.165 18.424 377.432 19.4505 377.897 20.3863Z" fill="#F7E6C9"/>
<g style="mix-blend-mode:multiply">
<path d="M373.906 15.5839C374.796 17.5247 376.173 19.186 377.897 20.3961C378.85 21.0973 379.897 21.6519 381.006 22.0423C382.39 22.5294 383.555 24.088 384.56 26.0168L391.242 30.5757L412.559 41.2911C413.48 41.7535 414.485 42.0116 415.509 42.0485C416.532 42.0854 417.552 41.9004 418.502 41.5054C418.649 41.4471 418.791 41.3788 418.929 41.3008C417.64 39.5766 417.621 38.6902 416.834 37.7355C416.047 36.7809 414.237 34.5891 412.341 34.4332C410.446 34.2774 407.848 31.1212 406.114 29.0268C404.379 26.9325 403.356 27.8189 400.522 27.5754C397.688 27.3318 396.977 24.351 394.219 23.1431C392.62 22.5319 391.088 21.7482 389.65 20.8052C387.84 19.6752 386.806 20.5714 386.892 19.5973C386.977 18.6232 381.451 16.2073 378.314 14.6293C378.083 14.5094 377.845 14.4021 377.603 14.3078C374.883 13.1291 373.177 13.7038 373.906 15.5839Z" fill="#F7E6C9"/>
</g>
<path d="M383.148 221.241C383.385 223.53 384.57 225.518 386.892 229.248L387.3 229.911C389.195 232.931 390.446 234.908 392.683 236.847C394.585 238.452 396.748 239.698 399.072 240.529C403.072 242.078 405.934 243.305 408.199 244.347C414.067 247.016 416.095 248.429 424.009 250.738C434.322 253.757 439.488 255.258 446.653 255.102C454.582 254.862 462.336 252.649 469.25 248.653C470.198 248.107 471.003 247.581 471.714 247.085C475.458 244.445 476.529 242.448 477.013 241.308C478.804 237.139 477.799 232.853 476.539 227.466C476.415 226.949 476.188 226.005 475.79 224.748C474.806 221.633 473.52 218.627 471.951 215.776C469.392 211.13 467.819 208.276 464.7 206.035C462.558 204.476 461.629 204.632 449.468 202.139C441.393 200.483 439.127 199.859 437.317 199.314C430.948 197.365 431.535 196.839 428.047 196.05C422.057 194.706 417.194 195.69 409.138 197.317C403.612 198.427 400.854 198.982 397.83 200.541C393.013 202.998 388.966 206.799 386.153 211.51C384.456 214.49 382.74 217.442 383.148 221.241Z" fill="#F7E6C9"/>
<g style="mix-blend-mode:multiply">
<path d="M386.892 229.248L387.3 229.901C389.196 232.931 390.447 234.908 392.684 236.837C394.585 238.45 396.752 239.7 399.082 240.529C401.982 241.649 404.285 242.613 406.2 243.451C413.697 246.724 415.252 248.176 424.01 250.728C434.322 253.757 439.488 255.258 446.654 255.102C454.583 254.862 462.336 252.649 469.25 248.653C469.781 248.341 470.283 248.029 470.748 247.728C475.297 244.805 476.511 242.526 477.022 241.308C478.823 237.139 477.819 232.843 476.549 227.466C476.435 226.94 476.198 226.005 475.8 224.748C474.998 227.621 474.406 230.552 474.027 233.515C473.826 235.024 473.153 236.424 472.11 237.506C471.068 238.589 469.711 239.294 468.245 239.516L460.113 240.763L441.365 243.617C438.692 244.026 427.612 243.169 424.948 243.617C422.285 244.065 413.887 242.779 410.835 240.694C407.783 238.61 407.811 238.6 404.769 236.535C401.726 234.47 396.38 235.278 396.03 232.804C395.726 230.661 391.48 229.122 386.892 229.248Z" fill="#F7E6C9"/>
</g>
<g style="mix-blend-mode:multiply">
<path d="M406.2 243.451C413.698 246.724 415.252 248.176 424.01 250.728C434.323 253.757 439.488 255.258 446.654 255.102C454.583 254.862 462.337 252.649 469.25 248.653C469.781 248.341 470.284 248.03 470.748 247.728C468.947 247.728 466.748 248.02 462.521 250.027C452.843 254.605 452.17 251.079 448.455 249.919C444.739 248.76 442.341 251.127 432.939 251.244C424.2 251.361 425.129 246.919 421.422 245.731C419.328 245.068 412.579 244.201 406.2 243.451Z" fill="#F7E6C9"/>
</g>
<path d="M413.982 106.06L417.261 150.442L420.105 188.881C420.502 194.174 422.448 199.221 425.688 203.356L429.763 208.538L437.28 215.854C449.602 227.885 469.942 218.192 468.966 200.726C468.906 199.563 468.741 198.409 468.473 197.278L465.506 184.702L457.924 152.39L456.028 144.412L447.498 108.369C447.254 107.407 446.937 106.465 446.55 105.554L445.735 103.538L444.455 100.391C444.414 100.333 444.366 100.281 444.313 100.235C442.417 98.5695 423.688 86.9676 417.29 91.6629C414.977 93.3579 414.503 101.209 414.389 101.657C414.389 101.804 414.304 101.95 414.266 102.106C413.961 103.399 413.865 104.735 413.982 106.06Z" fill="#F7E6C9"/>
<g style="mix-blend-mode:multiply" opacity="0.37">
<path d="M413.982 106.061L416.181 135.801L417.261 150.412L420.105 188.851C420.502 194.145 422.448 199.191 425.688 203.327L429.763 208.509L437.28 215.825C449.602 227.855 469.942 218.163 468.966 200.697C468.906 199.534 468.741 198.38 468.473 197.248L465.506 184.672L457.924 152.361L456.028 144.383L447.498 108.34C447.254 107.378 446.937 106.436 446.55 105.525L444.455 100.362C444.414 100.304 444.366 100.252 444.313 100.206L444.777 104.297L454.256 161.771C455.203 163.719 456.151 171.512 456.151 172.486C456.151 173.46 457.099 181.253 457.099 182.227C457.099 183.202 459.943 189.046 459.943 190.02C459.943 190.995 461.838 192.943 461.838 195.865V201.71C461.838 203.658 459.943 204.632 459.943 205.606C459.943 206.581 459.943 208.529 458.047 208.529L450.464 210.477C448.569 210.477 442.882 207.555 442.882 207.555L438.142 192.943L428.664 187.098L426.768 175.409V165.667C427.653 164.516 428.298 163.189 428.664 161.771C429.612 158.848 427.716 153.978 428.664 153.004C429.612 152.03 426.768 139.366 426.768 139.366L414.39 101.628C414.39 101.774 414.304 101.921 414.266 102.076C413.958 103.379 413.862 104.725 413.982 106.061Z" fill="#F7E6C9"/>
</g>
<g style="mix-blend-mode:multiply" opacity="0.43">
<path d="M413.982 106.061L417.261 150.442L420.105 188.881C420.502 194.174 422.448 199.221 425.688 203.356L429.763 208.538L437.28 215.854C449.602 227.885 469.942 218.192 468.966 200.726C468.906 199.563 468.741 198.409 468.473 197.278L465.506 184.702L457.924 152.39L456.028 144.412L447.498 108.369C447.254 107.407 446.937 106.465 446.55 105.554L445.735 103.538C446.085 108.934 463.744 181.282 463.744 181.282C467.535 191.998 468.483 197.687 468.483 200.765C468.483 203.687 464.834 212.454 461.848 215.377C461.848 215.377 451.128 220.247 447.63 220.247C445.735 220.247 432.465 210.506 431.517 203.687C431.09 200.638 420.901 186.874 423.934 175.438C425.081 171.103 425.631 166.885 426.778 161.8C428.806 152.828 428.673 142.317 424.408 133.355L414.276 102.106C413.967 103.398 413.868 104.735 413.982 106.061Z" fill="#F7E6C9"/>
</g>
<path d="M275.038 171.522C275.104 174.863 275.247 177.824 275.455 180.474C276.232 190.215 277.872 195.777 279.616 200.434C279.815 200.97 280.014 201.476 280.213 201.992C281.246 204.661 282.28 207.155 283.142 210.126C285.986 220.072 301.341 231.041 301.341 231.041C301.341 231.041 303.881 232.395 307.606 234.177C313.246 236.856 321.587 240.48 327.994 241.834C330.562 242.372 333.174 242.656 335.795 242.682C342.998 242.769 349.358 240.996 356.003 240.11C364.941 238.931 371.955 237.996 382.978 230.193C394.002 222.391 396.153 213.779 407.48 200.609C418.807 187.439 417.698 181.244 420.276 178.565C422.418 176.344 424.484 161.03 425.185 150.568C425.328 148.425 425.422 146.477 425.441 144.899C425.411 143.165 425.195 141.44 424.797 139.756C424.446 138.109 423.963 136.288 423.385 134.349C423.223 133.784 423.034 133.2 422.854 132.615C422.19 130.55 421.451 128.388 420.655 126.167C419.053 121.686 417.224 117.029 415.499 112.704C413.489 107.658 411.622 103.08 410.418 99.7775L410.333 99.5632C409.148 96.4424 407.512 93.523 405.48 90.9032C404.741 89.9291 403.973 88.955 403.224 88.1367C402.598 87.4256 401.982 86.7729 401.385 86.1885C400.542 85.3312 399.736 84.5714 399.016 83.9187C397.953 82.9512 396.843 82.0408 395.689 81.1912L395.016 80.3924L391.84 76.6615C388.049 72.161 373.196 75.4731 373.196 75.4731L349.349 76.6323L349.008 76.7784L339.188 80.9769L335.169 83.8993L332.24 86.0326L324.658 91.5754L323.568 92.2865C322.203 93.1827 319.71 94.8776 317.018 97.011C313.587 99.7288 309.843 103.158 307.72 106.499C305.243 110.341 302.124 113.701 298.507 116.425C297.455 117.214 296.791 117.614 296.791 117.614C292.462 123.604 288.584 129.925 285.189 136.521C279.901 146.818 274.811 159.803 275.038 171.522Z" fill="#F2E4D0"/>
<g style="mix-blend-mode:multiply" opacity="0.59">
<path d="M335.795 242.682C342.998 242.769 349.349 240.996 355.993 240.12C364.931 238.931 371.945 237.996 382.969 230.203C393.992 222.41 396.153 213.779 407.47 200.609C418.788 187.439 417.688 181.253 420.266 178.565C422.418 176.344 424.475 161.03 425.186 150.568C424.825 151.542 424.295 152.517 423.678 154.114C422.447 156.94 421.731 159.975 421.565 163.066C421.337 166.427 419.347 168.687 416.702 173.373C414.058 178.058 413.925 179.743 410.636 184.517C407.347 189.29 408.428 190.147 406.523 193.069C404.617 195.992 403.148 197.18 401.158 199.44C399.167 201.7 399.537 202.002 398.589 204.788C397.641 207.574 396.409 208.081 394.428 210.341C392.447 212.601 390.533 215.523 389.025 216.39C385.716 218.35 382.211 219.937 378.571 221.124C372.353 223.287 375.898 223.141 375.898 223.141C375.898 223.141 369.102 228.381 362.808 229.891C356.515 231.401 358.969 230.398 356.221 231.752C353.472 233.106 345.946 235.122 345.946 235.122L335.795 242.682Z" fill="#E6D4AF"/>
</g>
<g style="mix-blend-mode:multiply" opacity="0.42">
<path d="M279.616 200.434C279.815 200.97 280.014 201.486 280.213 202.002C281.246 204.671 282.27 207.155 283.132 210.126C285.976 220.082 301.331 231.041 301.331 231.041C301.331 231.041 303.871 232.395 307.606 234.177C313.236 236.856 321.577 240.49 327.994 241.834C330.56 242.382 333.173 242.666 335.794 242.682C342.998 242.769 349.348 240.996 355.993 240.12C364.931 238.931 371.945 237.996 382.968 230.203C393.992 222.41 396.153 213.779 407.47 200.609C418.787 187.439 417.688 181.253 420.266 178.565C422.417 176.344 424.474 161.03 425.185 150.568C425.327 148.425 425.413 146.487 425.432 144.899C425.411 143.165 425.195 141.439 424.787 139.756C424.436 138.119 423.962 136.297 423.384 134.359C419.773 137.564 415.024 142.327 415.024 142.327C415.024 142.327 407.527 146.496 400.646 146.701C393.764 146.906 389.755 146.253 379.073 144.49C368.391 142.727 373.111 147.558 364.476 150.188C355.841 152.819 352.05 150.841 352.05 150.841C352.05 150.841 337.254 157.855 331.084 162.248C324.913 166.641 319.88 172.564 313.501 178.272C307.122 183.981 311.757 180.698 307.956 183.465C304.155 186.231 305.378 186.387 304.762 190.361C304.146 194.336 295.502 196.946 295.502 196.946L291.502 196.284C288.791 195.797 283.028 198.602 279.616 200.434Z" fill="#F7E6C9"/>
</g>
<g style="mix-blend-mode:multiply">
<path d="M335.216 83.909L341.984 86.695L367.755 93.056C371.93 94.0888 376.264 94.2449 380.499 93.5151C384.733 92.7854 388.781 91.1846 392.399 88.8088L395.3 86.8606L399.034 83.8505C397.972 82.8831 396.861 81.9727 395.707 81.123L395.034 80.3242L391.84 76.6615C388.049 72.161 373.196 75.4731 373.196 75.4731L349.348 76.6323L349.007 76.7784L339.188 80.9769L335.216 83.909Z" fill="#F7E6C9"/>
</g>
<path d="M275.862 234.518C275.862 234.664 275.862 234.801 275.909 234.947C276.175 237.318 276.835 239.625 277.862 241.766L279.758 245.662C280.289 246.793 280.924 247.87 281.653 248.877C284.456 252.745 288.475 255.499 293.027 256.67L307.691 260.362L328.704 265.661L344.95 269.762C346.163 270.068 347.4 270.264 348.647 270.347L355.5 270.727L356.447 270.785C358.139 270.871 359.809 270.366 361.187 269.353C365.633 266.057 369.215 261.679 371.613 256.612C371.945 255.92 372.257 255.199 372.561 254.478C373.169 252.943 373.666 251.364 374.049 249.754L374.238 248.926C374.527 247.714 374.68 246.472 374.693 245.224C374.693 245.224 374.693 245.224 374.693 245.175V244.903C374.69 244.182 374.64 243.463 374.542 242.75L374.011 238.853V238.639L373.736 236.603L372.428 227.066C371.894 223.171 370.293 219.512 367.813 216.517C365.332 213.521 362.074 211.311 358.419 210.146L328.609 200.648C324.635 199.372 320.373 199.392 316.411 200.706L295.359 207.701C293.827 208.213 292.384 208.972 291.084 209.951C291.084 209.951 291.027 209.951 291.009 210.009L289.274 211.334L285.113 214.49C284.19 215.203 283.328 215.995 282.535 216.857C282.201 217.198 281.885 217.556 281.587 217.929L280.639 219.088L280.402 219.371L280.137 219.721C280.014 219.867 279.9 220.023 279.786 220.179C277.556 223.278 276.198 226.948 275.862 230.787C275.755 232.029 275.755 233.277 275.862 234.518Z" fill="#F7E6C9"/>
<g style="mix-blend-mode:multiply">
<path d="M275.862 234.528C275.868 234.672 275.884 234.815 275.909 234.957C276.168 237.329 276.829 239.637 277.862 241.776L279.757 245.672C280.298 246.801 280.932 247.88 281.653 248.896C284.465 252.755 288.48 255.506 293.027 256.689L307.69 260.381L344.95 269.782C346.16 270.085 347.394 270.278 348.637 270.356L355.499 270.736L356.447 270.795C358.138 270.874 359.806 270.37 361.186 269.363C363.9 267.34 366.3 264.906 368.305 262.145C367.189 261.851 366.166 261.263 365.338 260.44C361.338 257.099 356.286 264.619 350.438 264.57C344.59 264.521 346.192 262.427 339.234 262.145C332.277 261.862 332.988 258.326 330.988 256.66C328.988 254.994 326.742 254.517 320.894 254.468C315.046 254.42 317.102 249.978 315.131 248.302C313.159 246.627 302.657 240.675 299.539 238.775C296.42 236.876 294.411 235.21 291.293 233.301C288.174 231.391 286.648 227.368 283.767 224.28C282.118 222.517 280.772 221.222 279.748 220.179C279.321 220.783 278.923 221.387 278.563 222.02C276.397 225.791 275.451 230.17 275.862 234.528Z" fill="#F7E6C9"/>
</g>
<g style="mix-blend-mode:multiply">
<path d="M275.863 234.528C276.089 237.053 276.767 239.513 277.862 241.785L279.758 245.682C280.298 246.811 280.933 247.89 281.654 248.906C284.466 252.765 288.481 255.515 293.028 256.699L307.691 260.391L344.951 269.791C346.161 270.095 347.394 270.287 348.638 270.366L355.5 270.746L353.092 268.691L344.297 264.171L316.809 260.781C316.809 260.781 294.819 251.751 284.924 244.971C281.172 242.24 278.074 238.67 275.863 234.528Z" fill="#F7E6C9"/>
</g>
<g style="mix-blend-mode:multiply">
<path d="M275.862 234.518C275.862 234.665 275.862 234.801 275.909 234.947C276.175 237.318 276.835 239.625 277.862 241.766L279.758 245.662C280.289 246.793 280.924 247.87 281.653 248.877C284.456 252.745 288.475 255.499 293.027 256.67L307.691 260.362L328.704 265.661L344.95 269.762C346.163 270.068 347.4 270.264 348.647 270.347L355.5 270.727L356.447 270.785C358.139 270.871 359.809 270.366 361.187 269.353C365.633 266.057 369.215 261.679 371.613 256.612C371.945 255.92 372.257 255.199 372.561 254.478C373.169 252.943 373.666 251.364 374.049 249.754C372.011 247.679 371.916 245.623 369.689 243.549C367.461 241.474 369.689 239.214 365.016 239.214H332.391C330.069 239.214 320.733 237.041 318.411 237.041C316.088 237.041 309.093 234.889 306.752 232.726L302.098 228.391C299.757 226.229 295.113 226.229 295.113 224.076C295.113 221.923 290.449 219.741 285.777 219.741H280.146C280.023 219.887 279.909 220.043 279.796 220.199C277.565 223.298 276.208 226.968 275.872 230.807C275.763 232.041 275.76 233.283 275.862 234.518Z" fill="#FDF5E6"/>
</g>
<g style="mix-blend-mode:saturation" opacity="0.51">
<path d="M279.616 200.434C279.815 200.97 280.014 201.486 280.213 202.002C283.34 200.897 286.576 200.152 289.862 199.781C302.383 197.969 307.359 195.485 314.989 195.183C322.62 194.881 334.373 191.063 338.231 190.43C342.088 189.796 342.837 181.068 355.358 179.256C367.879 177.444 370.173 172.769 377.158 169.515C384.144 166.261 383.405 163.232 393.167 160.202C402.93 157.173 408.769 155.731 412.636 155.098C416.503 154.465 418.048 152.468 421.261 151.377C422.558 151.001 423.884 150.737 425.223 150.588C425.365 148.445 425.451 146.506 425.47 144.918C425.449 143.184 425.233 141.458 424.825 139.775C424.474 138.138 424.001 136.317 423.422 134.378C423.252 133.813 423.062 133.229 422.892 132.644C420.992 132.94 419.119 133.393 417.29 133.998C415.309 134.807 408.532 136.161 403.65 137.671C398.769 139.181 389.566 135.43 378.163 135.382C366.761 135.333 355.585 132.381 347.946 132.664C340.306 132.946 323.141 133.375 319.122 135.947C315.103 138.518 306.345 140.671 303.511 140.418C300.677 140.165 291.455 136.375 287.578 136.999C286.753 137.073 285.924 136.915 285.18 136.541C279.872 146.818 274.754 159.803 275.01 171.531C275.076 174.873 275.218 177.824 275.427 180.484C276.204 190.215 277.872 195.797 279.616 200.434Z" fill="#F7E6C9"/>
</g>
<path d="M317.179 59.4975C317.575 61.9044 318.306 64.2402 319.349 66.4332C322.104 72.3067 326.904 76.9028 332.799 79.3111L342.278 83.2076L368.049 89.5687C372.224 90.6014 376.558 90.7576 380.793 90.0278C385.027 89.298 389.075 87.6973 392.693 85.3215L395.594 83.3732L404.579 76.1355L408.607 71.8981L411.072 69.3069C421.962 57.8512 419.422 36.8393 404.75 31.4329L383.461 20.2792C373.983 15.3209 361.206 16.4411 351.235 20.172L344.761 22.5976L336.23 25.783C330.695 27.8516 325.886 31.5709 322.42 36.4647C318.953 41.3584 316.986 47.2041 316.771 53.2533C316.7 55.3435 316.837 57.4357 317.179 59.4975Z" fill="#F7E6C9"/>
<path d="M392.788 21.9546C392.633 18.9387 391.895 15.9846 390.618 13.2643C389.342 10.544 387.551 8.1118 385.352 6.1093C383.152 4.1068 380.586 2.57397 377.805 1.60002C375.023 0.626071 372.081 0.230454 369.149 0.436192L361.831 0.952479L353.813 4.77105C349.487 6.82987 346.082 10.498 344.284 15.0357C342.486 19.5733 342.43 24.6428 344.126 29.2216C345.863 30.5473 347.971 31.2583 350.135 31.2478H352.315L361.793 37.4237C362.571 37.9303 363.45 38.2488 364.364 38.3551C365.279 38.4614 366.205 38.3528 367.073 38.0374L382.826 32.3193C384.781 31.6135 386.839 31.2512 388.911 31.2478H405.318C405.591 31.2495 405.857 31.1565 406.072 30.9839C406.288 30.8112 406.44 30.5689 406.505 30.2962C406.569 30.0236 406.543 29.7365 406.429 29.4813C406.315 29.2262 406.121 29.018 405.877 28.8904L392.788 21.9546Z" fill="#236184"/>
<path d="M369.664 1.2298C376.972 1.2298 389.823 12.2282 391.852 21.5213" stroke="#0D547C"/>
<path d="M360.827 1.51747C355.69 8.84288 347.851 22.1105 352.372 30.6146" stroke="#0D547C"/>
<path d="M392.788 21.9157C376.485 21.3215 368.94 23.1236 352.334 30.9166" stroke="#0D547C"/>
<path d="M362.941 1.22525C367.471 3.31962 374.078 13.0804 374.419 22.8216" stroke="#0D547C"/>
<path d="M360.325 1.32269C360.448 1.80975 361.216 2.02406 362.04 1.81949C362.865 1.61492 363.405 1.04993 363.311 0.572607C363.216 0.0952847 362.42 -0.128765 361.595 0.0758022C360.77 0.280369 360.202 0.845363 360.325 1.32269Z" fill="#10415C"/>
<g style="mix-blend-mode:multiply" opacity="0.43">
<path d="M319.349 66.4332C322.104 72.3067 326.904 76.9028 332.799 79.3112L342.278 83.2077L368.049 89.5687C372.224 90.6015 376.558 90.7576 380.793 90.0278C385.027 89.298 389.075 87.6973 392.693 85.3215L395.594 83.3733L404.579 76.1355L408.607 71.8981C406.57 71.1285 404.371 69.9498 403.442 69.7842C401.546 69.4238 395.992 68.3425 396.172 67.3781C396.352 66.4138 396.522 67.271 395.584 65.2838C393.357 60.569 389.774 60.1891 388.665 60.9684C388.134 61.3386 386.267 63.0238 384.466 64.6896C382.558 66.5307 380.188 67.7889 377.623 68.323C376.551 68.5179 376.277 69.5212 375.3 70.2713C371.803 73.0962 370.855 74.0704 367.718 74.7425C364.931 75.3465 360.429 71.9176 360.429 71.9176C360.429 71.9176 354.855 71.2552 352.846 71.8591C350.837 72.4631 346.552 74.5964 344.865 73.2813C343.178 71.9663 335.548 71.4792 335.548 71.4792L329.747 69.8816L319.349 66.4332Z" fill="#F7E6C9"/>
</g>
<g style="mix-blend-mode:multiply">
<path d="M316.771 53.2532L326.335 50.7984L327.785 50.438C330.396 49.7868 332.779 48.4003 334.666 46.4344C338.06 42.8167 340.916 38.7038 343.14 34.2286C344.451 31.5792 345.493 28.798 346.249 25.929L344.723 22.617L336.192 25.8024C330.667 27.876 325.868 31.595 322.409 36.4845C318.95 41.3739 316.987 47.212 316.771 53.2532Z" fill="#F7E6C9"/>
</g>
<path d="M302.326 37.2775L302.544 38.2517C302.951 40.7693 303.924 43.1544 305.387 45.2167C307.174 47.7301 309.621 49.668 312.442 50.8032C315.262 51.9384 318.339 52.224 321.311 51.6264L323.463 51.1978L334.344 43.8334C337.942 41.4449 340.655 37.8831 342.047 33.7199C343.44 29.5566 343.431 25.0334 342.021 20.8761C340.612 16.7189 337.885 13.1689 334.277 10.7959C330.669 8.42286 326.39 7.36454 322.126 7.79078L319.937 8.00509C315.686 8.42652 311.735 10.4412 308.838 13.6648L308.269 14.2979C305.53 17.34 303.557 21.0241 302.521 25.0294C301.486 29.0347 301.418 33.2395 302.326 37.2775Z" fill="#F7E6C9"/>
<g style="mix-blend-mode:multiply" opacity="0.43">
<path d="M309.378 49.0743C311.104 50.2896 313.048 51.141 315.096 51.579C317.145 52.0171 319.257 52.0333 321.312 51.6265L323.463 51.1979L334.344 43.8335C337.173 41.9262 339.455 39.2775 340.955 36.1608C342.454 33.0441 343.117 29.5725 342.875 26.1045C342.727 26.3487 342.552 26.5743 342.354 26.7766C340.809 28.3352 340.543 30.7705 339.51 31.6472C338.477 32.524 339.33 33.5955 338.306 34.4722C337.283 35.3489 334.269 37.0244 333.236 37.9011C332.202 38.7778 330.231 39.5766 329.283 40.4631C328.335 41.3495 326.098 44.0673 324.127 44.8661C322.155 45.6649 321.122 46.5416 318.288 46.2688C315.454 45.9961 315.283 47.9443 312.374 48.6457C311.389 48.8761 310.387 49.0195 309.378 49.0743Z" fill="#F7E6C9"/>
</g>
<path d="M298.004 152.39L308.506 200.784C308.916 202.717 309.552 204.591 310.402 206.366L311.501 208.636C315.359 216.643 322.989 220.608 331.15 218.854L333.927 218.25C335.738 217.84 337.487 217.185 339.131 216.302L345.32 213.068C348.488 211.287 350.888 208.344 352.04 204.827L354.562 197.55C354.874 196.635 355.149 195.709 355.386 194.784C355.453 194.511 355.519 194.248 355.576 193.975C355.756 193.186 355.908 192.387 356.021 191.589C356.591 188 356.508 184.333 355.775 180.776L345.349 131.485C344.974 129.682 344.405 127.928 343.652 126.254L341.51 122.777C341.301 122.455 341.055 122.095 340.771 121.705C340.335 121.091 339.823 120.409 339.216 119.689C336.818 116.766 333.245 113.444 329.197 112.061L322.563 111.087C319.833 111.535 315.615 114.311 313.084 115.958L312.648 116.23L310.222 117.799L305.482 120.828C301.596 123.351 302.042 127.092 300.345 131.982L299.16 135.43C299.018 135.84 298.885 136.249 298.772 136.668C298.482 137.585 298.241 138.519 298.051 139.463C297.994 139.717 297.947 139.96 297.9 140.213C297.852 140.467 297.833 140.584 297.805 140.769C297.12 144.618 297.188 148.568 298.004 152.39Z" fill="#F7E6C9"/>
<g style="mix-blend-mode:multiply">
<path d="M298.004 152.39L308.507 200.784C308.916 202.717 309.553 204.591 310.402 206.366L311.502 208.636C315.359 216.643 322.99 220.608 331.15 218.854L333.928 218.25C335.738 217.84 337.488 217.185 339.131 216.302L345.321 213.068C348.489 211.287 350.888 208.344 352.041 204.827L354.562 197.55C354.875 196.635 355.15 195.709 355.387 194.784C353.502 195.923 351.763 197.301 350.211 198.885C342.259 207.107 334.364 212.932 332.117 214.081C329.871 215.231 322.08 215.055 318.847 210.233C315.174 204.772 312.022 198.958 309.435 192.875C305.919 184.896 302.801 175.272 301.758 169.272C300.715 163.271 304.071 164.528 302.023 154.923C300.925 150.124 299.519 145.406 297.815 140.798C297.131 144.637 297.195 148.577 298.004 152.39Z" fill="#F7E6C9"/>
</g>
<g style="mix-blend-mode:multiply" opacity="0.15">
<path d="M298.004 152.39L308.506 200.784C308.916 202.717 309.552 204.591 310.402 206.366L311.501 208.636C315.359 216.643 322.989 220.608 331.15 218.854L333.927 218.25C335.738 217.84 337.488 217.185 339.131 216.302L345.32 213.068C348.489 211.287 350.888 208.344 352.041 204.827L354.562 197.55C354.875 196.635 355.149 195.709 355.386 194.784C355.453 194.511 355.519 194.248 355.576 193.975C355.756 193.186 355.908 192.387 356.021 191.589C355.255 191.951 354.527 192.395 353.851 192.914C352.903 193.888 351.955 191.939 351.007 193.888C350.275 195.634 349.319 197.273 348.164 198.758C347.216 199.732 347.216 198.758 346.268 199.732C345.484 200.604 344.509 201.272 343.425 201.681C341.529 202.655 339.633 202.294 339.15 203.931C338.667 205.567 338.686 207.525 336.79 207.525H332.998C332.051 207.525 332.051 209.474 329.207 208.5C326.364 207.525 327.311 208.5 326.364 207.525C325.416 206.551 324.468 205.577 323.52 205.577C322.572 205.577 323.52 204.603 321.624 203.629C319.729 202.655 317.833 200.707 316.885 200.707C315.937 200.707 313.094 198.758 313.094 196.81C313.094 194.862 311.198 189.017 311.198 188.043C311.198 187.069 306.459 178.302 306.459 178.302C306.376 176.639 306.057 174.998 305.511 173.431C304.731 170.916 304.409 168.274 304.563 165.638V156.871C304.563 151.026 304.563 148.104 302.668 146.156C301.871 145.337 300.232 140.467 298.8 136.668C298.511 137.585 298.27 138.519 298.08 139.463C298.023 139.717 297.976 139.96 297.928 140.213C297.881 140.467 297.862 140.584 297.834 140.769C297.139 144.616 297.197 148.566 298.004 152.39Z" fill="#F7E6C9"/>
</g>
</g>
<g filter="url(#filter2_d)">
<path d="M81 441.5L146 430H187.5L229.5 459.5L155.5 472.5H96L81 441.5Z" fill="#87B35E"/>
<path d="M96 472.5H155L204.5 463L208.5 487.5L222.5 500L181 535.5L172.301 571.098L139 507.598L118.5 516.598L96 472.5Z" fill="#CEBEA3"/>
<path d="M204 463L229.5 459.5L222.5 500.5L208.5 487.5L204 463Z" fill="#FBE5C2"/>
<path d="M94.5 469L118.5 516.5L140 507L172.5 571.5L103 507L94.5 469Z" fill="#AFA189"/>
<path d="M81 441L96 472L103 507L81 441Z" fill="#AAA295"/>
</g>
<path d="M151.916 436L143 445.997H165.52C158.007 446.209 166 436.531 166 436.531C166 436.531 159.006 445.02 157.546 445.339C152.857 446.379 158.967 436 158.967 436C158.967 436 151.916 445.339 150.513 445.339C146.286 445.339 151.916 436 151.916 436Z" fill="#54974A"/>
<g filter="url(#filter3_d)">
<path d="M485.124 559.319L542.163 565.436L516.345 611.548L476.117 614.842L449.699 578.611L485.124 559.319Z" fill="#AA9573"/>
<path d="M503.815 548L542.162 565.534L490.876 582.191L449.699 578.684L446 560.139L503.815 548Z" fill="#679240"/>
</g>
<defs>
<filter id="filter0_d" x="145" y="217" width="482.273" height="360.859" filterUnits="userSpaceOnUse" color-interpolation-filters="sRGB">
<feFlood flood-opacity="0" result="BackgroundImageFix"/>
<feColorMatrix in="SourceAlpha" type="matrix" values="0 0 0 0 0 0 0 0 0 0 0 0 0 0 0 0 0 0 127 0"/>
<feOffset dy="4"/>
<feGaussianBlur stdDeviation="2"/>
<feColorMatrix type="matrix" values="0 0 0 0 0 0 0 0 0 0 0 0 0 0 0 0 0 0 0.25 0"/>
<feBlend mode="normal" in2="BackgroundImageFix" result="effect1_dropShadow"/>
<feBlend mode="normal" in="SourceGraphic" in2="effect1_dropShadow" result="shape"/>
</filter>
<filter id="filter1_d" x="271" y="0" width="211" height="278.803" filterUnits="userSpaceOnUse" color-interpolation-filters="sRGB">
<feFlood flood-opacity="0" result="BackgroundImageFix"/>
<feColorMatrix in="SourceAlpha" type="matrix" values="0 0 0 0 0 0 0 0 0 0 0 0 0 0 0 0 0 0 127 0"/>
<feOffset dy="4"/>
<feGaussianBlur stdDeviation="2"/>
<feColorMatrix type="matrix" values="0 0 0 0 0 0 0 0 0 0 0 0 0 0 0 0 0 0 0.25 0"/>
<feBlend mode="normal" in2="BackgroundImageFix" result="effect1_dropShadow"/>
<feBlend mode="normal" in="SourceGraphic" in2="effect1_dropShadow" result="shape"/>
</filter>
<filter id="filter2_d" x="77" y="430" width="156.5" height="149.5" filterUnits="userSpaceOnUse" color-interpolation-filters="sRGB">
<feFlood flood-opacity="0" result="BackgroundImageFix"/>
<feColorMatrix in="SourceAlpha" type="matrix" values="0 0 0 0 0 0 0 0 0 0 0 0 0 0 0 0 0 0 127 0"/>
<feOffset dy="4"/>
<feGaussianBlur stdDeviation="2"/>
<feColorMatrix type="matrix" values="0 0 0 0 0 0 0 0 0 0 0 0 0 0 0 0 0 0 0.25 0"/>
<feBlend mode="normal" in2="BackgroundImageFix" result="effect1_dropShadow"/>
<feBlend mode="normal" in="SourceGraphic" in2="effect1_dropShadow" result="shape"/>
</filter>
<filter id="filter3_d" x="442" y="548" width="104.163" height="74.8418" filterUnits="userSpaceOnUse" color-interpolation-filters="sRGB">
<feFlood flood-opacity="0" result="BackgroundImageFix"/>
<feColorMatrix in="SourceAlpha" type="matrix" values="0 0 0 0 0 0 0 0 0 0 0 0 0 0 0 0 0 0 127 0"/>
<feOffset dy="4"/>
<feGaussianBlur stdDeviation="2"/>
<feColorMatrix type="matrix" values="0 0 0 0 0 0 0 0 0 0 0 0 0 0 0 0 0 0 0.25 0"/>
<feBlend mode="normal" in2="BackgroundImageFix" result="effect1_dropShadow"/>
<feBlend mode="normal" in="SourceGraphic" in2="effect1_dropShadow" result="shape"/>
</filter>
</defs>
</svg>
