<svg width="1440" height="815" viewBox="0 0 1440 815" fill="none" xmlns="http://www.w3.org/2000/svg">
<g clip-path="url(#clip0)">
<rect width="1440" height="815" fill="#35808F"/>
<rect width="13" height="13" transform="matrix(4.37114e-08 1 1 -4.37114e-08 28.5344 355.923)" fill="#E8F7FA" fill-opacity="0.5"/>
<rect width="15" height="15" transform="matrix(4.37114e-08 1 1 -4.37114e-08 36.5344 291.923)" fill="#E8F7FA" fill-opacity="0.5"/>
<rect width="15" height="15" transform="matrix(4.37114e-08 1 1 -4.37114e-08 36.5344 291.923)" fill="#E8F7FA" fill-opacity="0.5"/>
<rect width="13" height="13" transform="matrix(4.37114e-08 1 1 -4.37114e-08 1345 78)" fill="#E8F7FA" fill-opacity="0.5"/>
<rect width="10" height="10" transform="matrix(4.37114e-08 1 1 -4.37114e-08 1406 101)" fill="#E8F7FA" fill-opacity="0.5"/>
<rect width="15" height="15" transform="matrix(4.37114e-08 1 1 -4.37114e-08 1353 5)" fill="#E8F7FA" fill-opacity="0.5"/>
<rect width="15" height="15" transform="matrix(4.37114e-08 1 1 -4.37114e-08 1353 5)" fill="#E8F7FA" fill-opacity="0.5"/>
<rect width="7" height="7" transform="matrix(4.37114e-08 1 1 -4.37114e-08 1384 54)" fill="#E8F7FA" fill-opacity="0.5"/>
<rect width="14" height="14" transform="matrix(4.37114e-08 1 1 -4.37114e-08 1416 28)" fill="#E8F7FA" fill-opacity="0.5"/>
<rect width="13" height="13" transform="matrix(4.37114e-08 1 1 -4.37114e-08 1355 273)" fill="#E8F7FA" fill-opacity="0.5"/>
<rect width="10" height="10" transform="matrix(4.37114e-08 1 1 -4.37114e-08 1410 348)" fill="#E8F7FA" fill-opacity="0.5"/>
<rect width="15" height="15" transform="matrix(4.37114e-08 1 1 -4.37114e-08 1363 209)" fill="#E8F7FA" fill-opacity="0.5"/>
<rect width="15" height="15" transform="matrix(4.37114e-08 1 1 -4.37114e-08 1363 209)" fill="#E8F7FA" fill-opacity="0.5"/>
<rect width="7" height="7" transform="matrix(4.37114e-08 1 1 -4.37114e-08 1394 249)" fill="#E8F7FA" fill-opacity="0.5"/>
<rect width="14" height="14" transform="matrix(4.37114e-08 1 1 -4.37114e-08 1426 223)" fill="#E8F7FA" fill-opacity="0.5"/>
<rect width="15" height="15" transform="matrix(-1 0 0 1 35 156.146)" fill="#E8F7FA" fill-opacity="0.5"/>
<rect width="15" height="15" transform="matrix(-1 0 0 1 35 156.146)" fill="#E8F7FA" fill-opacity="0.5"/>
<rect width="13" height="13" transform="matrix(0 -1 -1 0 56.814 52)" fill="#E8F7FA" fill-opacity="0.5"/>
<rect width="15" height="15" transform="matrix(0 -1 -1 0 55.9231 116.612)" fill="#E8F7FA" fill-opacity="0.5"/>
<rect width="15" height="15" transform="matrix(0 -1 -1 0 55.9231 116.612)" fill="#E8F7FA" fill-opacity="0.5"/>
<rect width="7" height="7" transform="matrix(0 -1 -1 0 21.0627 79.8604)" fill="#E8F7FA" fill-opacity="0.5"/>
<rect width="14" height="14" transform="matrix(-1 0 0 1 21 219.146)" fill="#E8F7FA" fill-opacity="0.5"/>
<rect x="492" y="85" width="10" height="10" fill="#E8F7FA" fill-opacity="0.5"/>
<rect x="492" y="85" width="10" height="10" fill="#E8F7FA" fill-opacity="0.5"/>
<rect x="492" y="85" width="10" height="10" fill="#E8F7FA" fill-opacity="0.5"/>
<rect x="492" y="85" width="10" height="10" fill="#E8F7FA" fill-opacity="0.5"/>
<rect x="129" y="72" width="13" height="13" transform="rotate(-90 129 72)" fill="#E8F7FA" fill-opacity="0.5"/>
<rect x="190" y="49" width="10" height="10" transform="rotate(-90 190 49)" fill="#E8F7FA" fill-opacity="0.5"/>
<rect x="168" y="96" width="7" height="7" transform="rotate(-90 168 96)" fill="#E8F7FA" fill-opacity="0.5"/>
<rect x="265" y="3" width="7" height="7" fill="#E8F7FA" fill-opacity="0.5"/>
<rect x="239" y="35" width="14" height="14" fill="#E8F7FA" fill-opacity="0.5"/>
<rect x="265" y="3" width="7" height="7" fill="#E8F7FA" fill-opacity="0.5"/>
<rect x="239" y="35" width="14" height="14" fill="#E8F7FA" fill-opacity="0.5"/>
<rect width="13" height="13" transform="matrix(0.999907 -0.0136201 -0.0136201 -0.999907 94.6245 241.492)" fill="#E8F7FA" fill-opacity="0.5"/>
<rect width="10" height="10" transform="matrix(0.999907 -0.0136201 -0.0136201 -0.999907 116.792 180.185)" fill="#E8F7FA" fill-opacity="0.5"/>
<rect width="7" height="7" transform="matrix(0.999907 -0.0136201 -0.0136201 -0.999907 70.0952 202.823)" fill="#E8F7FA" fill-opacity="0.5"/>
<rect width="15" height="15" transform="matrix(-1 0 0 1 294 182)" fill="#E8F7FA" fill-opacity="0.5"/>
<rect width="15" height="15" transform="matrix(-1 0 0 1 294 182)" fill="#E8F7FA" fill-opacity="0.5"/>
<rect width="10" height="10" transform="matrix(0.999907 -0.0136201 -0.0136201 -0.999907 375.792 206.039)" fill="#E8F7FA" fill-opacity="0.5"/>
<rect width="7" height="7" transform="matrix(0.999907 -0.0136201 -0.0136201 -0.999907 329.095 228.677)" fill="#E8F7FA" fill-opacity="0.5"/>
<rect width="14" height="14" transform="matrix(-0.0136201 -0.999907 -0.999907 0.0136201 130.123 130.999)" fill="#E8F7FA" fill-opacity="0.5"/>
<rect width="14" height="14" transform="matrix(-0.0136201 -0.999907 -0.999907 0.0136201 130.123 130.999)" fill="#E8F7FA" fill-opacity="0.5"/>
<rect x="1257" y="156" width="26" height="26" fill="#E8F7FA" fill-opacity="0.5"/>
<rect width="13" height="13" transform="matrix(0 -1 -1 0 1088.81 64)" fill="#E8F7FA" fill-opacity="0.5"/>
<rect width="7" height="7" transform="matrix(0 -1 -1 0 1053.06 91.8604)" fill="#E8F7FA" fill-opacity="0.5"/>
<rect x="1329" y="153" width="13" height="13" transform="rotate(-90 1329 153)" fill="#E8F7FA" fill-opacity="0.5"/>
<path d="M810 204L810 191L823 191L823 204L810 204Z" fill="#E8F7FA" fill-opacity="0.5"/>
<rect x="1285" y="213" width="7" height="7" transform="rotate(-90 1285 213)" fill="#E8F7FA" fill-opacity="0.5"/>
<rect width="15" height="15" transform="matrix(4.37114e-08 1 1 -4.37114e-08 1324 374)" fill="#E8F7FA" fill-opacity="0.5"/>
<rect width="15" height="15" transform="matrix(4.37114e-08 1 1 -4.37114e-08 1324 374)" fill="#E8F7FA" fill-opacity="0.5"/>
<rect width="7" height="7" transform="matrix(-1 0 0 1 1179 592)" fill="#E8F7FA" fill-opacity="0.5"/>
<rect width="14" height="14" transform="matrix(-1 0 0 1 1205 624)" fill="#E8F7FA" fill-opacity="0.5"/>
<rect width="15" height="15" transform="matrix(4.37114e-08 1 1 -4.37114e-08 537 192)" fill="#E8F7FA" fill-opacity="0.5"/>
<rect width="15" height="15" transform="matrix(4.37114e-08 1 1 -4.37114e-08 537 192)" fill="#E8F7FA" fill-opacity="0.5"/>
<rect width="14" height="14" transform="matrix(4.37114e-08 1 1 -4.37114e-08 600 206)" fill="#E8F7FA" fill-opacity="0.5"/>
<rect x="1304" y="330" width="15" height="15" transform="rotate(-90 1304 330)" fill="#E8F7FA" fill-opacity="0.5"/>
<rect width="13" height="13" transform="matrix(-1 0 0 1 372 625)" fill="#E8F7FA" fill-opacity="0.5"/>
<rect x="315" y="574" width="15" height="15" fill="#E8F7FA" fill-opacity="0.5"/>
<rect x="1161" y="84" width="13" height="13" transform="rotate(-90 1161 84)" fill="#E8F7FA" fill-opacity="0.5"/>
<rect x="1222" y="61" width="10" height="10" transform="rotate(-90 1222 61)" fill="#E8F7FA" fill-opacity="0.5"/>
<rect x="1271" y="47" width="14" height="14" fill="#E8F7FA" fill-opacity="0.5"/>
<rect x="1271" y="47" width="14" height="14" fill="#E8F7FA" fill-opacity="0.5"/>
<rect width="13" height="13" transform="matrix(4.37114e-08 1 1 -4.37114e-08 1157 211)" fill="#E8F7FA" fill-opacity="0.5"/>
<rect x="1034" y="194" width="10" height="10" transform="rotate(-90 1034 194)" fill="#E8F7FA" fill-opacity="0.5"/>
<rect x="1083" y="180" width="14" height="14" fill="#E8F7FA" fill-opacity="0.5"/>
<rect x="1083" y="180" width="14" height="14" fill="#E8F7FA" fill-opacity="0.5"/>
<rect x="1306" y="128" width="7" height="7" transform="rotate(-90 1306 128)" fill="#E8F7FA" fill-opacity="0.5"/>
<rect x="738" y="81" width="14" height="14" transform="rotate(180 738 81)" fill="#E8F7FA" fill-opacity="0.5"/>
<rect x="650" y="58" width="14" height="14" transform="rotate(-90 650 58)" fill="#E8F7FA" fill-opacity="0.5"/>
<rect x="650" y="58" width="14" height="14" transform="rotate(-90 650 58)" fill="#E8F7FA" fill-opacity="0.5"/>
<rect x="732" y="7" width="7" height="7" transform="rotate(180 732 7)" fill="#E8F7FA" fill-opacity="0.5"/>
<rect x="569" y="31" width="13" height="13" fill="#E8F7FA" fill-opacity="0.5"/>
<rect x="342" y="60" width="13" height="13" fill="#E8F7FA" fill-opacity="0.5"/>
<rect x="516" y="17" width="14" height="14" transform="rotate(-90 516 17)" fill="#E8F7FA" fill-opacity="0.5"/>
<rect x="337" y="7" width="7" height="7" transform="rotate(-90 337 7)" fill="#E8F7FA" fill-opacity="0.5"/>
<rect x="369" y="33" width="14" height="14" transform="rotate(-90 369 33)" fill="#E8F7FA" fill-opacity="0.5"/>
<rect x="755" y="71" width="13" height="13" transform="rotate(-90 755 71)" fill="#E8F7FA" fill-opacity="0.5"/>
<rect x="23" y="448" width="13" height="13" fill="#E8F7FA" fill-opacity="0.5"/>
<rect x="33" y="520" width="10" height="10" transform="rotate(180 33 520)" fill="#E8F7FA" fill-opacity="0.5"/>
<rect width="13" height="13" transform="matrix(4.37114e-08 1 1 -4.37114e-08 49.5344 554)" fill="#E8F7FA" fill-opacity="0.5"/>
<rect x="44" y="646.077" width="13" height="13" fill="#E8F7FA" fill-opacity="0.5"/>
<rect x="10" y="702.077" width="10" height="10" transform="rotate(-90 10 702.077)" fill="#E8F7FA" fill-opacity="0.5"/>
<rect x="10" y="702.077" width="10" height="10" transform="rotate(-90 10 702.077)" fill="#E8F7FA" fill-opacity="0.5"/>
<rect x="54" y="718.077" width="10" height="10" transform="rotate(180 54 718.077)" fill="#E8F7FA" fill-opacity="0.5"/>
<rect x="94" y="554" width="14" height="14" transform="rotate(-90 94 554)" fill="#E8F7FA" fill-opacity="0.5"/>
<rect x="94" y="554" width="14" height="14" transform="rotate(-90 94 554)" fill="#E8F7FA" fill-opacity="0.5"/>
<rect x="1287" y="503" width="7" height="7" transform="rotate(90 1287 503)" fill="#E8F7FA" fill-opacity="0.5"/>
<rect x="1287" y="503" width="7" height="7" transform="rotate(90 1287 503)" fill="#E8F7FA" fill-opacity="0.5"/>
<rect x="1121" y="612" width="13" height="13" transform="rotate(90 1121 612)" fill="#E8F7FA" fill-opacity="0.5"/>
<rect x="1341" y="528" width="10" height="10" transform="rotate(-90 1341 528)" fill="#E8F7FA" fill-opacity="0.5"/>
<rect x="1385" y="544" width="10" height="10" transform="rotate(-180 1385 544)" fill="#E8F7FA" fill-opacity="0.5"/>
<rect x="1370" y="717" width="7" height="7" transform="rotate(-180 1370 717)" fill="#E8F7FA" fill-opacity="0.5"/>
<rect x="1370" y="717" width="7" height="7" transform="rotate(-180 1370 717)" fill="#E8F7FA" fill-opacity="0.5"/>
<rect x="1345" y="771" width="10" height="10" fill="#E8F7FA" fill-opacity="0.5"/>
<rect x="1329" y="815" width="10" height="10" transform="rotate(-90 1329 815)" fill="#E8F7FA" fill-opacity="0.5"/>
<rect width="15" height="15" transform="matrix(4.37114e-08 1 1 -4.37114e-08 1283 659)" fill="#E8F7FA" fill-opacity="0.5"/>
<rect width="15" height="15" transform="matrix(4.37114e-08 1 1 -4.37114e-08 1283 659)" fill="#E8F7FA" fill-opacity="0.5"/>
<rect width="7" height="7" transform="matrix(4.37114e-08 1 1 -4.37114e-08 1314 699)" fill="#E8F7FA" fill-opacity="0.5"/>
<rect x="1251" y="586" width="15" height="15" transform="rotate(-90 1251 586)" fill="#E8F7FA" fill-opacity="0.5"/>
<rect width="15" height="15" transform="matrix(-1 0 0 1 157 609)" fill="#E8F7FA" fill-opacity="0.5"/>
<rect width="15" height="15" transform="matrix(-1 0 0 1 157 609)" fill="#E8F7FA" fill-opacity="0.5"/>
<rect x="201" y="589" width="15" height="15" fill="#E8F7FA" fill-opacity="0.5"/>
<rect x="1019" y="596" width="15" height="15" transform="rotate(-90 1019 596)" fill="#E8F7FA" fill-opacity="0.5"/>
<rect x="927" y="84" width="13" height="13" transform="rotate(-90 927 84)" fill="#E8F7FA" fill-opacity="0.5"/>
<rect x="864" y="81" width="10" height="10" transform="rotate(90 864 81)" fill="#E8F7FA" fill-opacity="0.5"/>
<rect x="886" y="34" width="7" height="7" transform="rotate(90 886 34)" fill="#E8F7FA" fill-opacity="0.5"/>
<rect x="1021" y="27" width="7" height="7" transform="rotate(90 1021 27)" fill="#E8F7FA" fill-opacity="0.5"/>
<rect x="842" y="17" width="14" height="14" transform="rotate(90 842 17)" fill="#E8F7FA" fill-opacity="0.5"/>
<rect x="2" y="-12" width="115" height="297" fill="#E8F7FA" fill-opacity="0.2"/>
<rect x="117" y="-298" width="115" height="425" fill="#E8F7FA" fill-opacity="0.2"/>
<rect x="1095" y="-437" width="115" height="460" fill="#E8F7FA" fill-opacity="0.2"/>
<rect x="1325" y="-137" width="115" height="587" fill="#E8F7FA" fill-opacity="0.2"/>
<rect x="1210" y="-319" width="115" height="460" fill="#E8F7FA" fill-opacity="0.2"/>
<rect x="814" y="-334" width="115" height="460" fill="#E8F7FA" fill-opacity="0.2"/>
<rect x="929" y="-219" width="115" height="291" fill="#E8F7FA" fill-opacity="0.2"/>
<path d="M532 -343H636V117H532V-343Z" fill="#E8F7FA" fill-opacity="0.2"/>
</g>
<defs>
<clipPath id="clip0">
<rect width="1440" height="815" fill="white"/>
</clipPath>
</defs>
</svg>
