<?xml version="1.0" encoding="utf-8"?>
<!-- Generator: Adobe Illustrator 22.1.0, SVG Export Plug-In . SVG Version: 6.00 Build 0)  -->
<svg version="1.1" id="Layer_1" xmlns="http://www.w3.org/2000/svg" xmlns:xlink="http://www.w3.org/1999/xlink" x="0px" y="0px"
	 viewBox="0 0 320 391" style="enable-background:new 0 0 320 391;" xml:space="preserve">
<style type="text/css">
	.st0{fill:url(#Bg_2_);}
	.st1{fill:url(#Bg_3_);}
	.st2{fill:#0DB04B;}
	.st3{fill:#089046;}
	.st4{fill:#32938B;}
	.st5{fill:#3E3E3E;}
	.st6{fill:#8A8F8E;}
	.st7{fill:#00AF98;}
	.st8{fill:#676767;}
	.st9{fill:#575757;}
	.st10{fill:#E9C867;}
	.st11{fill:#FBF28D;}
	.st12{fill:#FFFFFF;}
	.st13{fill:#D5C1AF;}
	.st14{fill:#574C58;}
	.st15{fill:#9A9B98;}
	.st16{fill:#DBD6D4;}
	.st17{fill:#B6B8B3;}
	.st18{fill:#41414E;}
	.st19{fill:#515C59;}
	.st20{fill:#636464;}
	.st21{fill:#AAAAAC;}
	.st22{fill:#C5C5C7;}
	.st23{fill:#434343;}
	.st24{fill:#318386;}
	.st25{fill:#343233;}
	.st26{fill:#6E6C6D;}
	.st27{fill:#C9AC57;}
	.st28{fill:#BBBCB5;}
	.st29{fill:#DFDEDC;}
	.st30{fill:#D8B95C;}
	.st31{fill:#ACACAC;}
	.st32{fill:#C8C7C5;}
	.st33{fill:#696969;}
	.st34{fill:#515050;}
	.st35{fill:#AAAAAA;}
	.st36{fill:#E2E2E2;}
	.st37{fill:#939393;}
	.st38{fill:#F3F4F6;}
	.st39{fill:#EF4F2C;}
	.st40{fill:#FBBD7C;}
	.st41{fill:#383735;}
	.st42{fill:#4D4F4D;}
	.st43{fill:none;stroke:#3E3E3E;stroke-miterlimit:10;}
	.st44{fill:#3E3E3E;stroke:#3E3E3E;stroke-miterlimit:10;}
	.st45{fill:#787878;}
	.st46{fill:#C7C4C9;}
	.st47{fill:#525350;}
	.st48{fill:#898989;}
	.st49{fill:#282923;}
	.st50{fill:#FCED11;}
	.st51{fill:#DAD9D8;}
	.st52{fill:#8E8E8E;}
	.st53{fill:#D6D6D6;}
	.st54{fill:#99999A;}
	.st55{fill:#E3E3E3;}
	.st56{fill:#BBBBBB;}
	.st57{fill:#373737;}
	.st58{fill:#1F1F1F;}
	.st59{fill:#150B0B;}
	.st60{fill:#F8C764;}
	.st61{fill:#FDE17B;}
	.st62{fill:#7E7E7E;}
	.st63{fill:#2A2A2A;}
	.st64{fill:#4F98AA;}
	.st65{fill:#316E81;}
	.st66{fill:#808280;}
	.st67{fill:#90908F;}
	.st68{fill:#FAC1A2;}
	.st69{fill:#E4E2E4;}
	.st70{fill:#514B51;}
	.st71{fill:#4EB648;}
	.st72{fill:#FDBD2F;}
	.st73{fill:#F05E5A;}
	.st74{fill:#FCB315;}
	.st75{fill:#FDD900;}
	.st76{fill:#F8A01B;}
	.st77{enable-background:new    ;}
</style>
<linearGradient id="Bg_2_" gradientUnits="userSpaceOnUse" x1="49.9288" y1="162.6842" x2="296.7144" y2="239.9302" gradientTransform="matrix(1 0 0 -1 0 392)">
	<stop  offset="0" style="stop-color:#24A153"/>
	<stop  offset="0.9441" style="stop-color:#71C067"/>
</linearGradient>
<path id="Bg" class="st0" d="M40.2,1.3h240c21,0,38,17,38,38v311c0,21-17,38-38,38h-240c-21,0-38-17-38-38v-311
	C2.2,18.3,19.2,1.3,40.2,1.3z"/>
<linearGradient id="Bg_3_" gradientUnits="userSpaceOnUse" x1="159.1263" y1="30.7432" x2="163.0166" y2="376.9794" gradientTransform="matrix(1 0 0 -1 0 392)">
	<stop  offset="0" style="stop-color:#1C2F19;stop-opacity:0.5"/>
	<stop  offset="1" style="stop-color:#71C067;stop-opacity:0"/>
</linearGradient>
<path id="Bg_1_" class="st1" d="M41,1h240c21,0,38,17,38,38v311c0,21-17,38-38,38H41c-21,0-38-17-38-38V39C3,18,20,1,41,1z"/>
<g id="XMLID_14_">
	<g>
		<path class="st2" d="M252.6,299.4c2.3-7.3,7.8-12,7.9-12.1c-4.6,6.5-4.7,17.8-4.7,17.8h-4.2C251.7,303.1,252,301.2,252.6,299.4z"
			/>
		<path class="st3" d="M249.6,297.2c2.8-8,8.2-14.1,8.2-14.1c-3.9,6.1-4.9,13.5-5.2,16.3c-0.6,1.8-0.9,3.7-1,5.7v0.1h-1.4
			c-0.4-5.4-1.5-9.8-2.9-13.3l0,0c1.5-5.7,4.1-9.8,4.2-9.9C250.1,284.7,249.6,297.2,249.6,297.2z"/>
		<path class="st2" d="M250.2,305.2h-1.5c0-3.6-1.5-7.5-3.2-10.9c0,0-0.8-8.1-7-15.4c0.1,0.1,5.4,3.7,8.9,12.9
			C248.7,295.4,249.8,299.8,250.2,305.2z"/>
		<path class="st3" d="M248.7,305.2h-3.4c0,0,0.1-2.3-1.1-5.8c-0.2-2.6-0.8-7.2-4.3-13.5c0.1,0.1,3.1,3.7,5.5,8.4
			C247.3,297.6,248.7,301.5,248.7,305.2z"/>
		<path class="st2" d="M244.2,299.4c1.2,3.4,1.1,5.8,1.1,5.8h-4.2c0-11-5.3-17.6-5.5-17.8C240.6,291.7,243.1,296.1,244.2,299.4z"/>
	</g>
</g>
<g id="XMLID_13_">
	<g>
		<path class="st2" d="M24.4,104.6c4,6.7,4.1,18.2,4.1,18.2h3.6c0-2.1-0.4-4-0.8-5.8l0,0C29.3,109.5,24.5,104.7,24.4,104.6z"/>
		<path class="st3" d="M33.9,114.7c-2.5-8.2-7.1-14.4-7.1-14.4c3.4,6.2,4.3,13.8,4.5,16.7l0,0c0.5,1.8,0.8,3.7,0.8,5.8v0.1h1.2
			c0.4-5.5,1.3-10,2.5-13.6l0,0c-1.3-5.8-3.5-10-3.6-10.1C33.5,102,33.9,114.7,33.9,114.7z"/>
		<path class="st2" d="M33.4,122.9h1.3c0-3.7,1.3-7.7,2.8-11.1c0,0,0.7-8.3,6.1-15.7c-0.1,0.1-4.7,3.8-7.7,13.2
			C34.7,112.9,33.7,117.4,33.4,122.9z"/>
		<path class="st3" d="M34.7,122.9h3c0,0-0.1-2.4,0.9-5.9c0.2-2.6,0.7-7.3,3.7-13.8c-0.1,0.1-2.7,3.8-4.8,8.6
			C35.9,115.2,34.7,119.2,34.7,122.9z"/>
		<path class="st2" d="M38.6,117c-1,3.5-0.9,5.9-0.9,5.9h3.6c0-11.2,4.6-17.9,4.8-18.2C41.7,109.1,39.6,113.6,38.6,117z"/>
	</g>
</g>
<g id="XMLID_12_">
	<g>
		<path class="st2" d="M18.2,252.9c2.6,4.6,2.7,12.7,2.7,12.7h2.4c0-1.4-0.2-2.8-0.6-4l0,0C21.4,256.3,18.3,252.9,18.2,252.9z"/>
		<path class="st3" d="M24.4,259.9c-1.6-5.7-4.6-10-4.6-10c2.2,4.3,2.8,9.6,3,11.6l0,0c0.3,1.2,0.5,2.6,0.6,4v0.1h0.8
			c0.2-3.8,0.9-7,1.6-9.5l0,0c-0.8-4.1-2.3-7-2.4-7.1C24.2,251,24.4,259.9,24.4,259.9z"/>
		<path class="st2" d="M24.1,265.6h0.8c0-2.6,0.8-5.4,1.8-7.7c0-0.1,0.5-5.8,4-11c-0.1,0.1-3.1,2.7-5,9.2
			C24.9,258.6,24.3,261.8,24.1,265.6z"/>
		<path class="st3" d="M26.8,257.9c-1,2.4-1.8,5.1-1.8,7.7h1.9c0,0-0.1-1.7,0.6-4.1c0.1-1.8,0.5-5.1,2.4-9.6
			C29.9,251.9,28.2,254.5,26.8,257.9z"/>
		<path class="st2" d="M27.5,261.5c-0.7,2.4-0.6,4.1-0.6,4.1h2.4c0-7.8,3-12.5,3.1-12.7C29.5,256,28.2,259.1,27.5,261.5z"/>
	</g>
</g>
<g id="XMLID_11_">
	<g>
		<path class="st2" d="M193.5,121.5c3,5.3,3.1,14.4,3.1,14.4h2.7c0-1.6-0.3-3.2-0.6-4.6l0,0C197.2,125.4,193.6,121.6,193.5,121.5z"
			/>
		<path class="st3" d="M200.6,129.5c-1.8-6.5-5.3-11.4-5.3-11.4c2.5,4.9,3.2,10.9,3.4,13.3l0,0c0.4,1.4,0.6,3,0.6,4.6v0.1h0.9
			c0.3-4.3,1-7.9,1.9-10.8l0,0c-0.9-4.6-2.6-8-2.7-8.1C200.3,119.4,200.6,129.5,200.6,129.5z"/>
		<path class="st2" d="M200.2,136h1c0-3,1-6.1,2.1-8.8c0,0,0.5-6.6,4.6-12.5c-0.1,0.1-3.5,3-5.7,10.5
			C201.2,128.1,200.5,131.7,200.2,136z"/>
		<path class="st3" d="M201.2,136h2.2c0,0-0.1-1.9,0.7-4.7c0.2-2.1,0.5-5.8,2.8-11c-0.1,0.1-2,3-3.6,6.8
			C202.1,129.9,201.2,133.1,201.2,136z"/>
		<path class="st2" d="M204.1,131.3c-0.8,2.8-0.7,4.7-0.7,4.7h2.7c0-8.9,3.5-14.3,3.6-14.4C206.4,125.1,204.8,128.6,204.1,131.3z"/>
	</g>
</g>
<g>
	<g>
		<g>
			<g id="XMLID_16_">
				<g>
					<polygon class="st4" points="121.5,241.9 121.4,247 63.6,280.9 63.7,275.9 					"/>
					<polygon class="st5" points="102.3,240.8 102.3,240.8 111.2,235.8 116.4,238.9 116.4,243.9 102.2,251.9 					"/>
					<polygon class="st5" points="116.5,232.8 116.4,238.9 111.2,235.8 					"/>
					<polygon class="st6" points="116.5,232.8 111.2,235.8 108.9,234.4 114,231.5 					"/>
					<polygon class="st6" points="111.2,235.8 102.3,240.8 102.3,240.8 99.8,239.5 108.9,234.4 					"/>
					<path class="st7" d="M99.8,239.5L99.8,239.5l-0.1,2l-1.5-0.8l-18.3,11v2.3l-1-0.6v-2.8c0-0.3-0.1-0.6-0.3-0.8l25.7-15.2v-3
						l4.5,2.7L99.8,239.5z"/>
					<path class="st5" d="M104.4,231.7v3l-25.7,15.2c-0.6-0.7-1.9-1.2-3.4-1.2c-0.5,0-0.9,0-1.3,0.1v-3.2l27-16L104.4,231.7z"/>
					<polygon class="st5" points="104.4,227.6 104.4,231.7 100.9,229.7 					"/>
					<polygon class="st8" points="104.4,227.6 100.9,229.7 93.3,225.1 93.3,224.8 96.3,223 					"/>
					<polygon class="st9" points="102.3,240.8 102.2,251.9 102.2,251.9 100.2,251 100.3,241.8 99.8,241.5 99.8,239.5 99.8,239.5 
											"/>
					<path class="st8" d="M93.3,226.4v-1.3l7.6,4.6l-27,16l-8.1-4.6l20.2-12l1.7,1v-1.2l2.3-1l2.5-1C93,226.8,93.3,226.6,93.3,226.4
						z"/>
					<polygon class="st5" points="100.2,251 100.2,252.9 81.9,263.9 82,257.1 82.7,256.6 82,256.2 82,256.2 82.8,255.7 82,255.3 
						82,252.8 99.8,242 99.7,250.8 					"/>
					<polygon class="st5" points="100.3,241.8 100.2,251 99.7,250.8 99.8,242 					"/>
					<polygon class="st6" points="100.3,241.8 99.8,242 99.8,241.5 					"/>
					<polygon class="st6" points="99.8,241.5 99.8,242 82,252.8 80,251.7 98.2,240.7 					"/>
					<path class="st8" d="M93.3,225.1v1.3c0-0.3-0.6-0.5-1.3-0.5c-0.2,0-0.3,0-0.5,0L93,225L93.3,225.1z"/>
					<polygon class="st8" points="93.3,224.8 93.3,225.1 93.1,225 					"/>
					<path class="st10" d="M93.3,221.8v3l-0.2,0.1l-2.3-1.4v-1.8c0,0.3,0.6,0.5,1.3,0.5S93.3,222.1,93.3,221.8z"/>
					<path class="st10" d="M93.1,225l-1.5,0.9c-0.5,0.1-0.8,0.3-0.8,0.5v-2.8L93.1,225z"/>
					
						<ellipse transform="matrix(6.421499e-03 -1 1 6.421499e-03 -130.4073 312.4498)" class="st11" cx="92" cy="221.8" rx="0.5" ry="1.3"/>
					<path class="st8" d="M92,225.8c0.7,0,1.3,0.2,1.3,0.5c0,0.2-0.3,0.4-0.8,0.5c-0.2,0-0.4,0-0.5,0c-0.7,0-1.3-0.2-1.3-0.5l0,0
						l0.8-0.5C91.7,225.9,91.8,225.8,92,225.8z"/>
					<path class="st10" d="M91.5,225.9l-0.8,0.5C90.7,226.1,91.1,226,91.5,225.9z"/>
					<polygon class="st6" points="90.7,223.6 90.7,226.4 90.4,226.5 90.4,225.1 90.4,225 90.4,223.4 					"/>
					<path class="st8" d="M90.7,226.4c0,0.3,0.6,0.5,1.3,0.5c0.2,0,0.4,0,0.5,0l-2.5,1v-0.1c0.2-0.1,0.4-0.2,0.4-0.4v-0.9
						L90.7,226.4L90.7,226.4z"/>
					<path class="st8" d="M90.4,226.5v0.9c0-0.2-0.3-0.4-0.7-0.5L90.4,226.5z"/>
					<path class="st10" d="M90.4,225.1v1.5l-0.7,0.4c-0.2,0-0.4-0.1-0.6-0.1c-0.7,0-1.3,0.2-1.3,0.5V225v-0.1c0,0.3,0.6,0.5,1.3,0.5
						C89.8,225.5,90.4,225.3,90.4,225.1L90.4,225.1z"/>
					<path class="st10" d="M90.4,223.4v1.6c0-0.3-0.6-0.5-1.3-0.5c-0.7,0-1.3,0.2-1.3,0.5v-2.1c0,0.3,0.6,0.5,1.3,0.5
						c0.4,0,0.7-0.1,1-0.2L90.4,223.4z"/>
					<path class="st10" d="M90.4,222.9v0.5l-0.3-0.2C90.3,223.1,90.4,223,90.4,222.9z"/>
					<path class="st10" d="M90.4,222.8L90.4,222.8c0-0.2-0.6-0.5-1.3-0.5c-0.2,0-0.3,0-0.5,0l-0.8-0.5v-1.5c0,0.3,0.6,0.5,1.3,0.5
						c0.7,0,1.3-0.2,1.3-0.5V222.8z"/>
					
						<ellipse transform="matrix(6.421499e-03 -1 1 6.421499e-03 -136.4407 312.7085)" class="st10" cx="89.1" cy="225" rx="0.5" ry="1.3"/>
					<path class="st11" d="M90.4,222.9c0,0.1-0.1,0.3-0.3,0.3l-1.4-0.9c0.1,0,0.3,0,0.5,0C89.9,222.3,90.4,222.6,90.4,222.9z"/>
					<path class="st11" d="M88.7,222.4l1.4,0.9c-0.2,0.1-0.6,0.2-1,0.2c-0.7,0-1.3-0.2-1.3-0.5C87.8,222.6,88.2,222.4,88.7,222.4z"
						/>
					
						<ellipse transform="matrix(6.421499e-03 -1 1 6.421499e-03 -131.8131 308.0968)" class="st11" cx="89.1" cy="220.4" rx="0.5" ry="1.3"/>
					<path class="st8" d="M89.7,227c0.4,0.1,0.7,0.3,0.7,0.5c0,0.1-0.1,0.3-0.4,0.4c-0.2,0.1-0.6,0.2-0.9,0.2s-0.6-0.1-0.8-0.1
						L89.7,227z"/>
					<path class="st10" d="M89.7,227l-1.5,0.9c-0.3-0.1-0.4-0.2-0.4-0.4c0-0.3,0.6-0.5,1.3-0.5C89.3,226.9,89.5,226.9,89.7,227z"/>
					<path class="st8" d="M90.1,227.9l-2.3,1l-0.6-0.4l1.1-0.6c0.2,0.1,0.5,0.1,0.8,0.1C89.5,228,89.8,227.9,90.1,227.9L90.1,227.9z
						"/>
					<path class="st10" d="M87.9,221.9l0.8,0.5c-0.5,0.1-0.8,0.3-0.8,0.5v-0.1V221.9z"/>
					<polygon class="st8" points="87.8,228.9 87.8,230.1 86.1,229.1 87.2,228.5 					"/>
					<path class="st6" d="M83.3,225c0.7,0,1.3-0.2,1.3-0.5v-2.8l0.2-0.1v1.9v2.5c0,0.3,0.6,0.5,1.3,0.5c0.7,0,1.3-0.2,1.3-0.5v-2.5
						v-1.9l0.5,0.3v0.9v0.1v2.1v0.1v2.4c0,0.2,0.2,0.3,0.4,0.4l-1.1,0.6l-6.9-4.2l1.8-1.1v1.3C82.1,224.8,82.6,225,83.3,225z"/>
					<path class="st10" d="M87.4,223.5v2.5c0-0.3-0.6-0.5-1.3-0.5c-0.7,0-1.3,0.2-1.3,0.5v-2.5v-1.9l0,0c0.1,0.2,0.6,0.4,1.3,0.4
						c0.6,0,1.1-0.2,1.3-0.4l0,0V223.5z"/>
					<path class="st10" d="M87.4,221.4L87.4,221.4c0-0.2-0.5-0.4-1.1-0.5l-1.5-0.9v-1.2c0,0.3,0.6,0.5,1.3,0.5
						c0.7,0,1.3-0.2,1.3-0.5L87.4,221.4z"/>
					<path class="st11" d="M87.4,221.5v0.1l-1.1-0.6C86.9,221,87.4,221.2,87.4,221.5z"/>
					<polygon class="st9" points="87.2,228.5 86.1,229.1 80.2,225.6 80.2,224.2 					"/>
					
						<ellipse transform="matrix(6.421499e-03 -1 1 6.421499e-03 -133.3132 303.6411)" class="st11" cx="86.1" cy="218.9" rx="0.5" ry="1.3"/>
					
						<ellipse transform="matrix(6.421499e-03 -1 1 6.421499e-03 -140.5108 310.6038)" class="st10" cx="86" cy="226" rx="0.5" ry="1.3"/>
					<path class="st10" d="M84.8,220.1l1.5,0.9c-0.1,0-0.1,0-0.2,0c-0.7,0-1.3,0.2-1.3,0.5v-0.1V220.1z"/>
					<path class="st11" d="M84.8,221.5c0-0.3,0.6-0.5,1.3-0.5c0.1,0,0.1,0,0.2,0l1.1,0.6c-0.1,0.2-0.6,0.4-1.3,0.4
						c-0.6,0-1.1-0.2-1.3-0.4C84.8,221.5,84.8,221.5,84.8,221.5z"/>
					<polygon class="st7" points="84.8,221.4 84.8,221.5 84.8,221.6 84.7,221.7 84.7,220 84.8,220.1 					"/>
					<path class="st10" d="M84.7,221.7v2.8c0-0.3-0.6-0.5-1.3-0.5c-0.7,0-1.3,0.2-1.3,0.5v-1.3L84.7,221.7z"/>
					<path class="st11" d="M84.7,219.9C84.7,220,84.7,220,84.7,219.9l-0.9-0.5C84.3,219.5,84.7,219.7,84.7,219.9z"/>
					<path class="st11" d="M83.7,219.4l0.9,0.6c0,0.3-0.6,0.5-1.3,0.5c-0.7,0-1.3-0.2-1.3-0.5s0.6-0.5,1.3-0.5
						C83.5,219.4,83.6,219.4,83.7,219.4z"/>
					
						<ellipse transform="matrix(6.421499e-03 -1 1 6.421499e-03 -141.7168 306.4565)" class="st10" cx="83.4" cy="224.5" rx="0.5" ry="1.3"/>
					<polygon class="st5" points="82.8,255.7 82,256.2 82,255.3 					"/>
					<polygon class="st5" points="82.7,256.6 82,257.1 82,256.2 					"/>
					<path class="st12" d="M82.5,229.4l-13,7.5l-7.6-4.6l12.8-7.7L82.5,229.4z M74.6,231.7l4.3-2.6l-4.1-2.3l-4,2.4L74.6,231.7z
						 M69.1,235l4.3-2.6l-4.1-2.3l-4,2.4L69.1,235z"/>
					<polygon class="st9" points="82,257.1 81.9,263.9 79.9,262.9 79.9,258.2 					"/>
					<polygon class="st9" points="82,256.2 82,257.1 79.9,258.2 79.9,257.3 					"/>
					<polygon class="st9" points="82,255.3 82,256.2 82,256.2 80,255 80,254.1 					"/>
					<polygon class="st9" points="82,252.8 82,255.3 80,254.1 80,251.7 					"/>
					<polygon class="st9" points="82,256.2 79.9,257.3 80,255 					"/>
					<path class="st10" d="M82.1,219.9c0,0.3,0.6,0.5,1.3,0.5c0.7,0,1.2-0.2,1.3-0.5l0,0v1.7l-2.6,1.5v-3L82.1,219.9z"/>
					<path class="st7" d="M80.7,221.4c0-0.2-0.1-0.4-0.4-0.6c0.2-0.2,0.4-0.4,0.4-0.6c0-0.7-1.2-1.2-2.7-1.2s-2.7,0.5-2.7,1.2
						c0,0.2,0.1,0.4,0.4,0.6c-0.2,0.2-0.4,0.4-0.4,0.6c0,0.1,0,0.1,0,0.2c-0.9-0.3-1.4-0.8-1.4-1.4c0-1,1.9-1.8,4.1-1.8
						c2.3,0,4.1,0.8,4.1,1.9c0,0.5-0.5,1-1.4,1.4C80.7,221.5,80.7,221.4,80.7,221.4z"/>
					<path class="st7" d="M80.7,221.5C80,221.8,79,222,78,222s-2-0.2-2.7-0.5c0-0.1,0-0.1,0-0.2c0-0.2,0.1-0.4,0.4-0.6
						c0.5,0.4,1.4,0.6,2.4,0.6s1.9-0.2,2.4-0.6c0.2,0.2,0.4,0.4,0.4,0.6C80.7,221.4,80.7,221.5,80.7,221.5z"/>
					<path class="st13" d="M80.7,220.1c0,0.2-0.1,0.4-0.4,0.6c-0.5-0.4-1.4-0.6-2.4-0.6s-1.9,0.2-2.4,0.6c-0.2-0.2-0.4-0.4-0.4-0.6
						c0-0.7,1.2-1.2,2.7-1.2C79.5,218.9,80.7,219.5,80.7,220.1z"/>
					<path class="st14" d="M80,255v2.3l-10.9,6.1l0,0l-1.8-1v-1c0.5,0.2,1.2,0.3,1.8,0.3c2.1,0,3.7-0.9,3.7-2v-2.3
						c0.6,0.3,1.5,0.5,2.4,0.5c2.1,0,3.7-0.9,3.7-2v-1.5L80,255z"/>
					<path class="st15" d="M79,255.9c0-1.1-1.7-2-3.7-2c-0.4,0-0.7,0-1.1,0.1l2.1-1.2l2.7,1.6V255.9z"/>
					<path class="st15" d="M79,253.5v0.9l-2.7-1.6v-0.2c0.3,0,0.6-0.1,0.9-0.2L79,253.5z"/>
					<path class="st15" d="M79,250.7v2.8l-1.8-1.1C78.3,252.1,79,251.4,79,250.7z"/>
					<path class="st16" d="M79,250.7c0,0.7-0.7,1.4-1.8,1.7l-0.9-0.5l-1.4,0.8l0,0c-0.2,0-0.5,0-0.7-0.1l4.5-2.7
						C78.9,250.1,79,250.4,79,250.7z"/>
					<path class="st15" d="M75.2,253.9c2.1,0,3.7,0.9,3.7,2s-1.7,2-3.7,2c-0.9,0-1.7-0.2-2.4-0.5v-2.7l1.3-0.7
						C74.5,253.9,74.9,253.9,75.2,253.9z"/>
					<path class="st7" d="M78.8,229.1l-4.3,2.6l-3.8-2.5l4-2.4L78.8,229.1z M75.4,230.3l0.9-0.6l-0.7-0.5l0.6-0.4l-0.9-0.6l-0.5,0.3
						l-0.8-0.7l-0.9,0.6l0.8,0.6l-0.7,0.4l0.9,0.6l0.6-0.4L75.4,230.3z"/>
					<path class="st16" d="M78.7,249.9l-4.5,2.7l0,0c-0.1,0-0.2,0-0.2,0v-3.7c0.4-0.1,0.9-0.1,1.3-0.1
						C76.8,248.7,78.1,249.2,78.7,249.9z"/>
					<path class="st7" d="M78.6,264.6c0,0.5-0.5,1-1.4,1.4c0-0.1,0-0.1,0-0.2c0-0.2-0.1-0.4-0.4-0.6c0.2-0.2,0.4-0.4,0.4-0.6
						c0-0.7-1.2-1.2-2.7-1.2s-2.7,0.5-2.7,1.2c0,0.2,0.1,0.4,0.4,0.6c-0.2,0.2-0.4,0.4-0.4,0.6c0,0.1,0,0.1,0,0.2
						c-0.9-0.3-1.4-0.8-1.4-1.4c0-1,1.9-1.8,4.1-1.8C76.8,262.7,78.6,263.5,78.6,264.6z"/>
					<path class="st7" d="M77.2,265.9c-0.7,0.3-1.7,0.4-2.7,0.4s-2-0.2-2.7-0.5c0-0.1,0-0.1,0-0.2c0-0.2,0.1-0.4,0.4-0.6
						c0.5,0.4,1.4,0.6,2.4,0.6s1.9-0.2,2.4-0.6c0.2,0.2,0.4,0.4,0.4,0.6C77.2,265.8,77.2,265.9,77.2,265.9z"/>
					<path class="st16" d="M76.3,251.9l0.9,0.5c-0.3,0.1-0.6,0.2-0.9,0.2s-0.6,0.1-1,0.1c-0.1,0-0.3,0-0.4,0L76.3,251.9z"/>
					<path class="st13" d="M77.2,264.5c0,0.2-0.1,0.4-0.4,0.6c-0.5-0.4-1.4-0.6-2.4-0.6s-1.9,0.2-2.4,0.6c-0.2-0.2-0.4-0.4-0.4-0.6
						c0-0.7,1.2-1.2,2.7-1.2C76,263.3,77.2,263.9,77.2,264.5z"/>
					<path class="st15" d="M76.2,252.6v0.2l-2.1,1.2c-0.5,0.1-0.9,0.2-1.3,0.4c0-0.2-0.1-0.3-0.2-0.4l2.2-1.2l0,0c0.1,0,0.3,0,0.4,0
						C75.6,252.7,75.9,252.6,76.2,252.6z"/>
					<polygon class="st12" points="76.3,229.7 75.4,230.3 74.7,229.8 75.6,229.2 					"/>
					<polygon class="st12" points="76.2,228.8 75.6,229.2 74.8,228.5 75.3,228.2 					"/>
					<path class="st7" d="M78,222c1,0,2-0.2,2.7-0.4c-0.2,0.6-1.3,1.1-2.7,1c-1.4,0-2.5-0.5-2.7-1.1C76,221.8,76.9,221.9,78,222z"/>
					<polygon class="st12" points="74.8,228.5 75.6,229.2 74.7,229.8 73.9,229.1 					"/>
					<polygon class="st12" points="74.8,228.5 73.9,229.1 73.1,228.5 74,227.9 					"/>
					<polygon class="st12" points="73.9,229.1 74.7,229.8 74.1,230.1 73.2,229.5 					"/>
					<path class="st15" d="M74.2,252.6l-0.2,0.1v-0.2C74,252.5,74.1,252.6,74.2,252.6z"/>
					<path class="st15" d="M74.9,252.6l-2.2,1.2c-0.2-0.4-0.6-0.7-1.2-0.9v-1.6l0.5,0.3c0.3,0.3,0.7,0.5,1.3,0.7l0.6,0.4l0.2-0.1
						l0,0C74.4,252.6,74.6,252.6,74.9,252.6z"/>
					<path class="st15" d="M73.9,252.5v0.2l-0.6-0.4C73.5,252.4,73.7,252.5,73.9,252.5z"/>
					<path class="st16" d="M73.9,248.8v3.7c-0.2,0-0.4-0.1-0.6-0.2l-1.3-0.7c-0.3-0.3-0.5-0.6-0.5-1
						C71.5,249.8,72.5,249.1,73.9,248.8z"/>
					<path class="st9" d="M74,245.6v3.2c-1.4,0.3-2.4,1-2.4,1.8v0.7l-5.7-3.2V241L74,245.6z"/>
					<path class="st16" d="M72,251.6l1.3,0.7C72.7,252.2,72.3,251.9,72,251.6z"/>
					<path class="st7" d="M73.3,232.4L69,235l-3.8-2.5l4-2.4L73.3,232.4z M68.6,233.5l2.1-1.4l-0.9-0.6l-2.1,1.4L68.6,233.5z"/>
					<path class="st15" d="M72.9,254.5c0-0.1,0-0.1,0-0.2c0.4-0.2,0.8-0.3,1.3-0.4l-1.3,0.7V254.5z"/>
					<polygon class="st5" points="73.1,215.5 73.1,218.3 55.2,228.9 55.2,226 60.6,222.7 					"/>
					<polygon class="st6" points="73.2,208.2 70.9,209.6 70.9,207 					"/>
					<path class="st17" d="M72.9,259.6c0-1.1-1.7-2-3.7-2c-0.8,0-1.5,0.1-2.1,0.3l2.8-1.6c0.6-0.1,1.2-0.2,1.7-0.4
						c0.1,0.6,0.6,1,1.3,1.4L72.9,259.6z"/>
					<path class="st17" d="M72.9,254.7v2.7c-0.8-0.3-1.3-0.8-1.3-1.4C72.3,255.7,72.8,255.2,72.9,254.7L72.9,254.7z"/>
					<path class="st17" d="M69.1,257.6c2.1,0,3.7,0.9,3.7,2s-1.7,2-3.7,2c-0.7,0-1.3-0.1-1.8-0.3v-2.1l-1.3-0.7l1-0.6
						C67.6,257.8,68.4,257.6,69.1,257.6z"/>
					<path class="st16" d="M71.6,255.4c0.2-0.4,0.6-0.8,1.3-1.1c0,0.1,0,0.1,0,0.2c0,0.1,0,0.1,0,0.2L71.6,255.4z"/>
					<path class="st7" d="M77.2,265.9c-0.2,0.6-1.3,1.1-2.7,1c-1.4,0-2.5-0.5-2.7-1.1c0.7,0.3,1.7,0.5,2.7,0.5
						C75.5,266.4,76.5,266.2,77.2,265.9z"/>
					<path class="st16" d="M72.7,253.9l-1.2,0.7V253C72.1,253.2,72.5,253.5,72.7,253.9z"/>
					<path class="st16" d="M71.5,254.5l1.2-0.7c0.1,0.1,0.1,0.3,0.2,0.4c-0.6,0.3-1.1,0.7-1.3,1.1l-0.1,0.1L71.5,254.5z"/>
					<path class="st15" d="M72,251.6l-0.5-0.3v-0.7C71.5,251,71.7,251.3,72,251.6z"/>
					<path class="st16" d="M72.9,254.7c-0.1,0.5-0.6,1-1.3,1.3c0-0.1,0-0.1,0-0.2c0-0.1,0-0.3,0.1-0.4L72.9,254.7z"/>
					<path class="st7" d="M74.5,262.7c-2.3,0-4.1,0.8-4.1,1.8c0,0.5,0.5,1,1.4,1.4c0.2,0.6,1.3,1.1,2.7,1.1c1.4,0,2.6-0.4,2.7-1
						c0.9-0.3,1.4-0.8,1.4-1.4C78.6,263.5,76.8,262.7,74.5,262.7z M69.1,264.3l10.9-6.1v4.6l2,1l18.3-11v-1.9l2,0.9l0,0l14.2-8v-5
						l5,3l-57.8,34l-3.6-2.1l7.1-4.5v-6.1L69.1,264.3L69.1,264.3z"/>
					<path class="st16" d="M71.5,255.5L71.5,255.5c0,0.1,0,0.2,0,0.4V255.5z"/>
					<path class="st16" d="M71.5,255.8c0,0.1,0,0.1,0,0.2c-0.5,0.2-1.1,0.3-1.7,0.4l1.7-0.9V255.8z"/>
					<path class="st16" d="M71.5,254.5v0.9l-1.7,0.9c-0.2,0-0.5,0-0.7,0c-0.3,0-0.6,0-0.9-0.1L71.5,254.5z"/>
					<path class="st16" d="M71.5,252.9v1.6l-3.2,1.8c-1.6-0.2-2.8-1-2.8-1.9c0-1.1,1.7-2,3.7-2C70.1,252.5,70.9,252.7,71.5,252.9z"
						/>
					<polygon class="st5" points="73.1,215.5 60.6,222.7 71.1,216.3 70.9,209.6 73.2,208.2 					"/>
					<polygon class="st5" points="55.2,218.8 55.2,218.8 70.9,209.6 71.1,216.3 60.6,222.7 55.2,225.9 					"/>
					<polygon class="st6" points="70.9,207 70.9,209.6 55.2,218.8 55.2,218.8 52.9,217.5 					"/>
					<polygon class="st12" points="70.7,232.1 68.6,233.5 67.7,232.8 69.8,231.5 					"/>
					<path class="st6" d="M70.9,207L70.9,207L70.9,207z"/>
					<path class="st17" d="M69.8,256.4L67,258c-0.4,0.2-0.8,0.3-1.1,0.6l-0.6-0.3V258l2.9-1.6c0.3,0,0.6,0.1,0.9,0.1
						C69.4,256.4,69.6,256.4,69.8,256.4z"/>
					<polygon class="st18" points="69.1,263.4 79.9,257.3 79.9,258.2 69.1,264.3 69,264.3 69,263.4 69,263.4 					"/>
					<polygon class="st18" points="69,263.4 69,263.4 69,264.3 67.3,263.3 67.3,262.4 					"/>
					<path class="st17" d="M68.3,256.4l-2.9,1.6v-3.6C65.4,255.4,66.6,256.1,68.3,256.4z"/>
					<path class="st19" d="M67.3,263.3v6.1l-7.1,4.5l-4-2.3v-1.5c0.6-0.6,1-1.5,1-2.6c0-0.6-0.1-1.1-0.3-1.6l7.2-4.5L67.3,263.3z"/>
					<polygon class="st19" points="67.3,262.4 67.3,263.3 64,261.3 64.7,260.8 					"/>
					<path class="st19" d="M67.3,261.3v1l-2.5-1.5l0.9-0.6C65.9,260.7,66.5,261.1,67.3,261.3z"/>
					<path class="st19" d="M67.3,259.2v2.1c-0.8-0.2-1.4-0.6-1.7-1L67.3,259.2z"/>
					<path class="st20" d="M67.3,259.2l-1.7,1c-0.1-0.2-0.2-0.4-0.2-0.7c0-0.4,0.2-0.7,0.5-1H66L67.3,259.2z"/>
					<path class="st17" d="M67,258l-1,0.6l0,0C66.2,258.3,66.6,258.1,67,258z"/>
					<path class="st20" d="M65.4,258.3l0.6,0.3c0,0,0,0-0.1,0l-0.5,0.3V258.3z"/>
					<path class="st20" d="M65.4,258.9l0.5-0.3c-0.3,0.3-0.5,0.6-0.5,1V258.9z"/>
					<path class="st20" d="M65.6,260.3l-0.9,0.6l-1.4-0.8l2-1.1v0.7C65.4,259.8,65.5,260.1,65.6,260.3z"/>
					<polygon class="st20" points="65.4,258.3 65.4,258.9 63.4,260 62.6,259.6 65.1,258.1 					"/>
					<polygon class="st14" points="65.4,258 65.4,258.3 65.1,258.1 					"/>
					<polygon class="st5" points="65.2,252.8 65.2,253.6 62.3,255.4 62.3,254.7 					"/>
					<polygon class="st8" points="65.2,252.8 62.3,254.7 59.5,252.9 62.3,251.1 					"/>
					<path class="st20" d="M59.2,255.1l5.9,3l-2.5,1.4l0.8,0.5l-0.8,0.4l1.4,0.8l-7.2,4.5c-0.5-1.1-1.6-1.9-2.8-1.9
						c-0.6,0-1.1,0.2-1.5,0.4l-4.4-2.2L59.2,255.1z"/>
					<polygon class="st20" points="64.7,260.8 64,261.3 62.6,260.5 63.4,260 					"/>
					<polygon class="st9" points="62.3,254.7 62.3,255.4 59.4,253.6 59.5,252.9 					"/>
					<path class="st21" d="M62.1,246.6v2.9c0-0.7-0.9-1.2-2-1.2l0,0l1.3-0.7l0,0c0.1,0,0.1-0.1,0.2-0.1
						C61.9,247.3,62.1,247,62.1,246.6z"/>
					<path class="st22" d="M62.1,246.6c0,0.3-0.2,0.6-0.6,0.8l-0.2,0.1l0,0c-0.3,0.2-0.8,0.3-1.3,0.3c-1.1,0-2-0.6-2-1.2
						c0-0.3,0.2-0.6,0.5-0.8l0.2-0.1c0.3-0.2,0.8-0.3,1.3-0.3C61.3,245.4,62.1,246,62.1,246.6z"/>
					<path class="st21" d="M60.1,248.3c1.1,0,2,0.6,2,1.2c0,0.3-0.2,0.6-0.6,0.8l-0.2,0.1l0,0c-0.3,0.2-0.8,0.3-1.3,0.3
						c-1.1,0-2-0.6-2-1.2v-0.1L60.1,248.3L60.1,248.3z"/>
					<polygon class="st5" points="60.6,222.7 55.2,226 55.2,225.9 					"/>
					<polygon class="st19" points="60.1,273.8 56.1,276.3 56.1,271.5 					"/>
					<path class="st22" d="M60.1,248.3l-1.9,1.1C58.3,248.8,59.1,248.3,60.1,248.3z"/>
					<path class="st22" d="M58.9,245.7l-0.2,0.1C58.8,245.8,58.8,245.7,58.9,245.7z"/>
					<path class="st22" d="M58.7,245.8c-0.3,0.2-0.5,0.5-0.5,0.8c0,0.7,0.9,1.2,2,1.2c0.5,0,0.9-0.1,1.3-0.3l-1.3,0.7
						c-1,0-1.8,0.5-1.9,1.1l-1.5,0.8c0.2-0.2,0.4-0.4,0.4-0.7c0-0.7-0.9-1.2-2-1.2c-0.2,0-0.3,0-0.5,0l3.2-2l0,0L58.7,245.8z"/>
					<path class="st22" d="M57.9,246.3L57.9,246.3l-3.2,2c-0.2,0-0.4,0.1-0.6,0.2L57.9,246.3z"/>
					<path class="st5" d="M57.9,244.6v1.6l-3.9,2.2l0,0c-0.2,0.1-0.3,0.2-0.5,0.3s-0.3,0.3-0.4,0.5l-1.9,1.2v-1.7L57.9,244.6z"/>
					<polygon class="st8" points="57.9,244.6 51.3,248.7 46.7,245.8 46.7,244.5 46,244.1 51.4,240.8 					"/>
					<path class="st21" d="M61.4,250.5l-4.7,2.6c0.2-0.2,0.4-0.4,0.4-0.7c0-0.7-0.9-1.2-2-1.2v-0.5c0.4,0,0.7-0.1,1-0.2
						c0.2-0.1,0.4-0.2,0.6-0.3l1.5-0.8v0.1c0,0.7,0.9,1.2,2,1.2C60.6,250.7,61,250.6,61.4,250.5z"/>
					<path class="st19" d="M56.8,265.8c0.2,0.5,0.3,1,0.3,1.6c0,1-0.4,1.9-1,2.6v-3.8L56.8,265.8z"/>
					<path class="st20" d="M56.8,265.8l-0.7,0.4l-3.6-1.9c0.5-0.3,1-0.5,1.5-0.4C55.2,263.9,56.3,264.7,56.8,265.8z"/>
					<path class="st22" d="M57.1,249.5c0,0.3-0.1,0.5-0.4,0.7l-0.6,0.3c-0.3,0.1-0.7,0.2-1,0.2c-1.1,0-1.9-0.5-2-1.2v-0.1
						c0-0.1,0-0.2,0-0.3l1.5-0.9c0.1,0,0.3,0,0.5,0C56.2,248.3,57.1,248.8,57.1,249.5z"/>
					<path class="st22" d="M56.2,250.5l0.6-0.3C56.6,250.3,56.4,250.5,56.2,250.5z"/>
					<path class="st23" d="M56.1,271.5v4.9l-2.6-1.3l-5.5-3.2v-5.1l1.4,0.8c-0.2,0.5-0.4,1-0.4,1.6c0,1.9,1.4,3.5,3.1,3.5
						c1.2,0,2.3-0.8,2.8-1.9L56.1,271.5z"/>
					<path class="st23" d="M56.1,270v1.5l-1.1-0.7c0,0,0,0,0-0.1C55.4,270.6,55.8,270.3,56.1,270z"/>
					<path class="st23" d="M56.1,266.2v3.8c-0.3,0.3-0.7,0.6-1.1,0.7c0.2-0.5,0.3-1,0.3-1.5c0-1.9-1.4-3.5-3.1-3.5
						c-0.3,0-0.7,0.1-1,0.2c0.3-0.7,0.7-1.2,1.3-1.5L56.1,266.2z"/>
					<polygon class="st24" points="56.1,276.3 60.1,273.8 63.7,275.9 63.6,280.9 53.5,275 					"/>
					<path class="st25" d="M55.3,269.3c0,0.5-0.1,1-0.3,1.5h-0.1l-3.9-2.2c-0.1-0.4-0.2-0.7-0.2-1.1c0-0.5,0.1-1,0.3-1.5
						c0.3-0.1,0.6-0.2,1-0.2C53.9,265.8,55.3,267.3,55.3,269.3z"/>
					<path class="st21" d="M55.1,250.7v0.5c-1.1,0-2,0.5-2,1.2v-2.8l0,0C53.2,250.2,54.1,250.7,55.1,250.7z"/>
					<path class="st26" d="M55,270.8L55,270.8L55,270.8C54.9,270.8,55,270.8,55,270.8z"/>
					<path class="st26" d="M54.9,270.8L54.9,270.8c-0.5,1.2-1.5,2-2.8,2c-1.7,0-3.1-1.6-3.1-3.5c0-0.6,0.1-1.1,0.4-1.6l1.6,0.9
						c0.4,1.4,1.6,2.4,2.9,2.4C54.3,270.9,54.6,270.9,54.9,270.8z"/>
					<path class="st25" d="M51.1,268.5l3.9,2.2c-0.3,0.1-0.6,0.1-0.9,0.1C52.6,270.9,51.5,269.9,51.1,268.5z"/>
					<polygon class="st9" points="55.2,226 55.2,228.9 55.1,228.9 53,227.4 					"/>
					<polygon class="st9" points="55.2,225.9 55.2,226 53,227.4 52.9,227.3 52.9,227.2 					"/>
					<polygon class="st9" points="52.9,220 52.9,219.9 52.9,217.5 55.2,218.8 55.2,225.9 52.9,227.2 					"/>
					<path class="st22" d="M54.7,248.3l-1.5,0.9c0.1-0.2,0.2-0.3,0.4-0.5l0.5-0.3l0,0C54.2,248.4,54.4,248.3,54.7,248.3z"/>
					<path class="st22" d="M54,248.5l-0.5,0.3C53.7,248.6,53.8,248.5,54,248.5z"/>
					<polygon class="st7" points="53,227.4 52.9,227.5 52.9,227.3 					"/>
					<polygon class="st5" points="52.9,220 52.9,227.2 50.9,228.4 50.8,228.3 50.9,221.1 					"/>
					<polygon class="st5" points="52.9,219.9 52.9,220 52.9,220 					"/>
					<polygon class="st6" points="50.9,218.8 52.9,220 50.9,221.1 					"/>
					<path class="st23" d="M48.1,262.1l4.4,2.2c-0.6,0.4-1,0.9-1.3,1.5c-0.8,0.3-1.4,0.9-1.8,1.7l-1.4-0.8L48.1,262.1z"/>
					<polygon class="st9" points="51.3,248.7 51.3,250.4 46.7,247.5 46.7,245.8 					"/>
					<path class="st26" d="M51.1,268.5l-1.6-0.9c0.4-0.8,1-1.4,1.8-1.7c-0.2,0.5-0.3,1-0.3,1.5C50.9,267.8,51,268.2,51.1,268.5z"/>
					<path class="st5" d="M37.6,235.9L37.6,235.9v0.1l-6.8,3.9l0.1-6.9l20-11.9v7.2v0.1l-7.3,4.2l-4.9,2.8
						C38.1,235.4,37.6,235.6,37.6,235.9z"/>
					<polygon class="st6" points="50.9,218.8 50.9,221.1 30.9,233.1 28.9,231.9 					"/>
					<polygon class="st5" points="50.2,239.1 50.2,240.5 44.8,243.4 43.7,242.8 45.8,241.6 					"/>
					<polygon class="st27" points="49.1,260.4 49.1,261 48.6,260.7 					"/>
					<polygon class="st10" points="49.1,260.4 48.6,260.7 45,258.4 42.9,259.8 42.4,259.4 45,257.8 					"/>
					<polygon class="st27" points="49.1,261 46.5,262.7 46.5,262.1 48.6,260.7 					"/>
					<path class="st11" d="M48.8,234.5L48.8,234.5c0,0.3-0.6,0.5-1.3,0.5s-1.3-0.3-1.3-0.5l0,0c0-0.1,0.1-0.2,0.3-0.3s0.6-0.2,1-0.2
						C48.3,233.9,48.8,234.2,48.8,234.5z"/>
					<path class="st10" d="M48.8,234.5v4l-2.6-1.2v-2.8c0,0.3,0.6,0.5,1.3,0.5S48.8,234.8,48.8,234.5z"/>
					<polygon class="st10" points="48.6,260.7 46.5,262.1 42.9,259.8 45,258.4 					"/>
					<path class="st10" d="M46.2,237.2l2.6,1.2v0.6c0-0.3-0.6-0.5-1.3-0.5s-1.3,0.2-1.3,0.5V237.2z"/>
					<path class="st10" d="M47.5,238.5c0.7,0,1.3,0.3,1.3,0.5c0,0.3-0.6,0.5-1.3,0.5s-1.3-0.3-1.3-0.5l0,0l0,0
						C46.2,238.7,46.8,238.5,47.5,238.5z"/>
					<polygon class="st24" points="48.1,266.8 48,271.8 32.7,262.9 37.2,260.5 					"/>
					<path class="st7" d="M49.1,261v-0.6l-4.1-2.6l-2.6,1.7v0.6l4.1,2.6L49.1,261z M42.6,257.7l4.1-2.1l0.1-8.1l4.7,2.9l1.9-1.2
						c0,0.1,0,0.2,0,0.3v0.1l0,0v2.8c0,0.7,0.9,1.2,2,1.2c0.4,0,0.7-0.1,1-0.2c0.2-0.1,0.4-0.2,0.6-0.3l4.7-2.6l0,0
						c0.1,0,0.1-0.1,0.2-0.1c0.3-0.2,0.6-0.5,0.6-0.8v-2.9c0-0.7-0.9-1.2-2-1.2c-0.5,0-0.9,0.1-1.3,0.3c-0.1,0-0.1,0.1-0.2,0.1
						l-0.8,0.5v-1.6l-6.5-3.8l-5.4,3.3l-1.2-0.7l5.3-2.9v-1.4l-1.4-0.7v-4l0,0c0-0.3-0.6-0.5-1.3-0.5c-0.4,0-0.8,0.1-1,0.2l0,0
						l6.3-3.8v-2.9l0.1-0.1l2.2,1.6V229l18-10.5v-2.9l2-1.2l8.6,5.1c-0.1,0-0.2,0-0.4,0c-0.7,0-1.3,0.2-1.3,0.5v0.2
						c0-1-1.8-1.8-4.1-1.9c-2.3,0-4.1,0.8-4.1,1.8c0,0.5,0.5,1,1.4,1.4c0.2,0.6,1.3,1.1,2.7,1.1c1.4,0,2.6-0.4,2.7-1
						c0.9-0.3,1.4-0.8,1.4-1.4v3l-1.8,1.1v1.4l5.9,3.5l-20.2,12v7.1l5.7,3.2v1.6c-0.6-0.3-1.5-0.5-2.4-0.5c-2.1,0-3.7,0.9-3.7,2v3.6
						l-0.3,0.2l-5.9-3l-11.2,7v4.6l-10.8-6.3L42.6,257.7z M69.5,237l13-7.5l-7.7-4.8L62,232.4L69.5,237z M65.2,253.6v-0.7l-2.9-1.7
						l-2.9,1.7v0.7l2.8,1.8L65.2,253.6z"/>
					<polygon class="st28" points="46.7,245.8 46.7,247.5 44.9,246.4 45,245.4 45.5,245.1 					"/>
					<polygon class="st28" points="46.7,244.5 46.7,245.8 45.5,245.1 					"/>
					<polygon class="st29" points="46.7,244.5 45.5,245.1 45,244.7 46,244.1 					"/>
					<polygon class="st30" points="46.5,262.1 46.5,262.7 42.4,260.1 42.9,259.8 					"/>
					<path class="st7" d="M45.9,234.4l0.5-0.3l0,0c-0.2,0.1-0.3,0.2-0.3,0.3l0,0v2.8l-0.3-0.1v-0.7l0,0v-0.1L45.9,234.4z"/>
					<path class="st8" d="M46.2,239c0,0.3,0.6,0.5,1.3,0.5s1.3-0.2,1.3-0.5v-0.6l1.4,0.7l-4.4,2.5l-0.2-0.3c0.2-0.1,0.3-0.2,0.3-0.3
						l0,0v-3.9l0.3,0.1L46.2,239L46.2,239L46.2,239z"/>
					<path class="st29" d="M40.3,242c0,0.2,0.3,0.4,0.8,0.5l0,0l1.5,0.9l1,0.6l1.2-0.7L46,244l-1,0.6v0.6l-2.5,1.3l-8.6-5.1l3.7-2.2
						v1l0,0l0,0c0,0.3,0.6,0.5,1.3,0.5c0.5,0,1-0.1,1.2-0.3l0.3,0.2L40.3,242L40.3,242L40.3,242z"/>
					<path class="st7" d="M45.9,236.4v0.7l0,0V236.4C45.9,236.5,45.9,236.5,45.9,236.4z"/>
					<path class="st10" d="M46,232.9L46,232.9c0,0.3-0.6,0.5-1.3,0.5s-1.3-0.3-1.3-0.5l0,0c0-0.1,0.1-0.2,0.3-0.3s0.6-0.2,1-0.2
						C45.4,232.4,45.9,232.6,46,232.9z"/>
					<path class="st10" d="M46,232.9v1.5l-2.6,1.5v-3.1c0,0.3,0.6,0.5,1.3,0.5C45.4,233.5,45.9,233.2,46,232.9z"/>
					<path class="st10" d="M45.9,241L45.9,241c0,0.1-0.1,0.2-0.3,0.3s-0.6,0.2-1,0.2c-0.7,0-1.3-0.3-1.3-0.5l0,0
						c0-0.3,0.6-0.5,1.3-0.5C45.3,240.5,45.9,240.7,45.9,241z"/>
					<path class="st11" d="M45.4,236.9c-0.2,0.1-0.5,0.1-0.8,0.1c-0.7,0-1.3-0.3-1.3-0.5l0,0c0-0.3,0.6-0.5,1.3-0.5
						c0.6,0,1.2,0.2,1.3,0.5v0.2C45.9,236.7,45.7,236.8,45.4,236.9z"/>
					<path class="st10" d="M45.9,236.5v0.6l-0.5-0.2C45.7,236.8,45.9,236.7,45.9,236.5z"/>
					<polygon class="st29" points="45.5,245.1 45,245.4 45,244.7 					"/>
					<polygon class="st29" points="44.8,243.4 43.6,244.1 42.6,243.5 43.7,242.8 					"/>
					<path class="st5" d="M46,232.9c0-0.3-0.6-0.5-1.3-0.5c-0.4,0-0.8,0.1-1,0.2l0,0l7.3-4.2l2-1.2v0.1v0.2v2.9l-6.3,3.8l-0.5,0.3
						L46,232.9L46,232.9z"/>
					<path class="st10" d="M43.4,236.3L43.4,236.3v-0.4l2.6-1.5v1.9c-0.1-0.3-0.6-0.4-1.3-0.5C43.9,235.9,43.4,236.1,43.4,236.3
						L43.4,236.3z"/>
					<path class="st10" d="M43.3,241L43.3,241L43.3,241v-4.6c0,0.3,0.6,0.5,1.3,0.5c0.3,0,0.6,0,0.8-0.1l0.5,0.2l0,0v3.9
						c0-0.3-0.6-0.5-1.3-0.5C43.9,240.4,43.3,240.7,43.3,241z"/>
					<path class="st8" d="M43.3,241L43.3,241c0,0.3,0.6,0.5,1.3,0.5c0.4,0,0.8-0.1,1-0.2l0.2,0.3l-2.1,1.2l-1-0.6
						c0.1-0.1,0.1-0.1,0.1-0.2l0,0v-2.5v-2l0,0v-0.1v-1.2l0.4-0.3v0.4l0,0v0.1l0,0L43.3,241z"/>
					<polygon class="st30" points="42.9,259.8 42.4,260.1 42.4,259.4 					"/>
					<path class="st11" d="M42.9,234.9L42.9,234.9c0,0.3-0.6,0.5-1.3,0.5s-1.3-0.3-1.3-0.5l0,0c0-0.3,0.6-0.5,1.3-0.5
						C42.3,234.3,42.9,234.6,42.9,234.9z"/>
					<path class="st10" d="M42.9,234.9v1.3l-1.2,0.7h-0.1c-0.7,0-1.3,0.2-1.3,0.5v-0.1v-2.5c0,0.3,0.6,0.5,1.3,0.5
						C42.3,235.4,42.9,235.2,42.9,234.9z"/>
					<path class="st10" d="M42.9,236.2v1.2l0,0c0-0.3-0.5-0.5-1.2-0.5L42.9,236.2z"/>
					<path class="st5" d="M42.9,237.4L42.9,237.4C42.9,237.5,42.9,237.5,42.9,237.4L42.9,237.4L42.9,237.4z"/>
					<path class="st11" d="M42.9,237.5L42.9,237.5L42.9,237.5L42.9,237.5L42.9,237.5z"/>
					<path class="st5" d="M42.9,237.5L42.9,237.5v2V237.5L42.9,237.5z"/>
					<path class="st11" d="M42.9,237.5L42.9,237.5c0,0.3-0.6,0.5-1.3,0.5c-0.5,0-0.9-0.1-1.1-0.3l1.3-0.8
						C42.4,237,42.9,237.2,42.9,237.5L42.9,237.5L42.9,237.5z"/>
					<path class="st10" d="M42.9,237.5v2v2.5c0-0.3-0.6-0.5-1.3-0.5c-0.1,0-0.1,0-0.2,0l-1.1-0.6v-1.4v-1.7l0.1-0.1
						c0.2,0.2,0.6,0.3,1.1,0.3C42.3,238,42.8,237.8,42.9,237.5z"/>
					<path class="st29" d="M41.4,241.5l1.3,0.8c-0.2,0.2-0.7,0.3-1.2,0.3c-0.2,0-0.3,0-0.5,0l0,0c-0.5-0.1-0.8-0.3-0.8-0.5l0,0l0,0
						C40.3,241.7,40.8,241.5,41.4,241.5z"/>
					<polygon class="st31" points="42.5,246.7 42.6,257.7 37.2,260.5 31.4,257.1 31.5,252.4 					"/>
					<polygon class="st28" points="42.5,246.7 45,245.4 44.9,246.4 46.7,247.5 46.6,255.6 42.6,257.7 					"/>
					<path class="st11" d="M40.3,237.4c0-0.3,0.6-0.5,1.3-0.5h0.1l-1.3,0.8C40.4,237.6,40.3,237.5,40.3,237.4L40.3,237.4z"/>
					<path class="st29" d="M42.6,243.5l-1.5-0.9c0.2,0,0.3,0,0.5,0c0.5,0,1-0.1,1.2-0.3l1,0.6L42.6,243.5z"/>
					<path class="st10" d="M42.8,242c0,0.1,0,0.1-0.1,0.2l-1.3-0.8c0.1,0,0.1,0,0.2,0C42.3,241.5,42.8,241.7,42.8,242L42.8,242z"/>
					<path class="st29" d="M40.3,240.9l1.1,0.6c-0.6,0-1.1,0.2-1.1,0.5V240.9z"/>
					<path class="st10" d="M40.4,237.7l-0.1,0.1v-0.3C40.3,237.5,40.4,237.6,40.4,237.7z"/>
					<path class="st5" d="M41.6,234.3c-0.7,0-1.3,0.2-1.3,0.5l0,0v2.5v0.4l-0.2,0.1v-1.9l0,0c0-0.3-0.6-0.5-1.3-0.5
						c-0.1,0-0.1,0-0.2,0l4.9-2.8l0,0c-0.2,0.1-0.3,0.2-0.3,0.3l0,0v3.1l-0.4,0.3V235l0,0C42.9,234.6,42.3,234.3,41.6,234.3z"/>
					<polygon class="st29" points="40.3,237.8 40.3,237.4 40.3,237.4 40.3,237.4 					"/>
					<path class="st11" d="M40.2,235.9L40.2,235.9c0,0.3-0.6,0.5-1.3,0.5c-0.6,0-1.1-0.2-1.3-0.4l1.1-0.6c0.1,0,0.1,0,0.2,0
						C39.6,235.4,40.2,235.6,40.2,235.9z"/>
					<path class="st10" d="M40.2,235.9v1.9l-2.5,1.5h-0.1V236l0,0c0.1,0.2,0.6,0.4,1.3,0.4C39.6,236.5,40.2,236.2,40.2,235.9z"/>
					<path class="st10" d="M37.6,239.4l2.5-1.5v2.6c0-0.3-0.6-0.5-1.3-0.5c-0.1,0-0.1,0-0.2,0L37.6,239.4z"/>
					<path class="st8" d="M40.3,239.5v1.4l-0.3-0.2c0.1-0.1,0.1-0.1,0.1-0.2l0,0v-2.6l0.2-0.1V239.5z"/>
					<path class="st29" d="M38.6,239.9l1.4,0.8c-0.2,0.2-0.7,0.3-1.2,0.3c-0.7,0-1.3-0.2-1.3-0.5l0,0l0,0
						C37.5,240.2,38,240,38.6,239.9z"/>
					<path class="st10" d="M40.1,240.5c0,0.1,0,0.2-0.1,0.2l-1.4-0.8c0.1,0,0.1,0,0.2,0C39.5,240,40.1,240.2,40.1,240.5L40.1,240.5z
						"/>
					<path class="st11" d="M38.7,235.4l-1.1,0.6v-0.1l0,0C37.6,235.6,38.1,235.4,38.7,235.4z"/>
					<path class="st29" d="M37.6,239.4l1,0.6c-0.6,0-1.1,0.2-1.1,0.5L37.6,239.4L37.6,239.4z"/>
					<polygon class="st29" points="37.6,239.4 37.5,239.4 37.5,239.3 					"/>
					<polygon class="st5" points="32.7,240.9 30.7,241.9 30.7,240 37.6,236 37.5,239.3 36.6,238.8 					"/>
					<polygon class="st29" points="37.5,239.3 37.5,239.4 33.9,241.6 32.7,240.9 36.6,238.8 					"/>
					<polygon class="st31" points="31.4,257.1 37.2,260.5 32.7,262.9 31.4,262.2 					"/>
					<polygon class="st32" points="33.9,241.6 30.7,243.5 30.7,243.3 30.7,241.9 32.7,240.9 					"/>
					<polygon class="st31" points="31.4,262.2 32.7,262.9 31.4,263.6 					"/>
					<polygon class="st33" points="31.4,262.2 31.4,263.6 21.3,257.9 21.3,256.3 22.2,256.8 22.2,256.9 30.2,262 30.2,261.5 					
						"/>
					<polygon class="st33" points="31.4,257.1 31.4,262.2 30.2,261.5 30.3,258.2 30.3,257.2 29.9,256.2 					"/>
					<polygon class="st9" points="30.9,233.1 30.7,240 28.7,241.2 28.7,232 28.9,231.9 					"/>
					<polygon class="st9" points="28.7,241.2 30.7,240 30.7,241.9 29.5,242.6 28.7,241.9 					"/>
					<polygon class="st32" points="29.5,242.6 30.7,241.9 30.7,243.3 30.5,243.3 					"/>
					<polygon class="st32" points="30.7,243.5 33.9,241.6 42.5,246.7 31.5,252.4 22.1,247.2 22.1,247 29.9,244 28.5,243.1 
						29.5,242.6 30.5,243.3 30.7,243.3 					"/>
					<polygon class="st33" points="30.2,261.5 30.2,262 22.2,256.9 22.2,256.8 					"/>
					<polygon class="st34" points="30.3,258.2 30.2,261.5 22.2,256.8 22.2,252.5 22.9,252.1 24.5,253.1 23.6,253.5 23.6,256.3 
						28.7,259.2 					"/>
					<polygon class="st35" points="30.3,257.2 30.3,258.2 28.7,259.2 28.8,256.3 29.4,255.9 29.9,256.2 					"/>
					<polygon class="st35" points="29.7,255.7 29.9,256.2 29.4,255.9 					"/>
					<polygon class="st36" points="29.7,255.7 29.4,255.9 24.5,253.1 26.3,252.1 28.8,253.4 					"/>
					<polygon class="st7" points="28.7,241.9 29.5,242.6 28.5,243.1 27,242.2 28.1,241.5 28.2,241.6 					"/>
					<polygon class="st36" points="29.4,255.9 28.8,256.3 23.6,253.5 24.5,253.1 					"/>
					<polygon class="st37" points="28.8,256.3 28.7,259.2 23.6,256.3 23.6,253.5 					"/>
					<polygon class="st7" points="28.7,241.2 28.7,241.9 28.2,241.6 28.1,241.5 					"/>
					<polygon class="st38" points="27,242.2 28.5,243.1 26.7,244 26.7,242.3 					"/>
					<polygon class="st38" points="26.7,242 27,242.2 26.7,242.3 					"/>
					<path class="st32" d="M26.7,244l1.8-0.9l1.4,0.9l-7.8,3v-0.2l-0.4-0.2l2.5-1.3c1.4-0.1,2.5-0.5,2.5-1.1
						C26.7,244.2,26.7,244.1,26.7,244L26.7,244z"/>
					<path class="st39" d="M26.7,242.3v1.7l0,0c-0.1-0.4-0.7-0.7-1.5-0.9L26.7,242.3z"/>
					<path class="st39" d="M26.7,242v0.3l-1.5,0.9c-0.4-0.1-0.8-0.1-1.3-0.1c-1.5,0-2.7,0.5-2.8,1l0,0v-0.2v-2.2l0.1-0.1
						c0.3,0.5,1.4,0.8,2.7,0.8c1.1,0,2.1-0.3,2.5-0.6L26.7,242z"/>
					<path class="st39" d="M26.7,241.3v0.7l-0.3-0.2C26.6,241.7,26.7,241.5,26.7,241.3z"/>
					<path class="st32" d="M24.2,245.3l2.4-1.3c0,0.1,0,0.1,0,0.2C26.7,244.8,25.6,245.3,24.2,245.3z"/>
					<path class="st39" d="M26.7,244l-2.4,1.3c-0.1,0-0.2,0-0.3,0c-0.7,0-1.4-0.1-1.9-0.3l3.2-1.8C26,243.4,26.5,243.7,26.7,244z"/>
					<path class="st40" d="M26.7,241.3c0,0.2-0.1,0.3-0.3,0.5l-2.6-1.6h0.1C25.5,240.2,26.7,240.7,26.7,241.3z"/>
					<path class="st40" d="M23.8,240.2l2.6,1.6c-0.5,0.4-1.4,0.6-2.5,0.6c-1.3,0-2.4-0.4-2.7-0.8L23.8,240.2L23.8,240.2z"/>
					<polygon class="st34" points="24.8,251.3 26.3,252.1 24.5,253.1 22.9,252.1 					"/>
					<path class="st39" d="M25.2,243.2L22,245c-0.6-0.2-0.9-0.5-0.9-0.9V244c0.1-0.6,1.3-1.1,2.8-1
						C24.4,243.1,24.8,243.1,25.2,243.2z"/>
					<path class="st38" d="M24.2,245.3l-2.5,1.3l-1.3-0.7L22,245c0.5,0.2,1.2,0.3,1.9,0.3C24,245.3,24.1,245.3,24.2,245.3z"/>
					<path class="st40" d="M23.8,240.2l-2.6,1.4c-0.1-0.1-0.1-0.2-0.1-0.3C21.1,240.7,22.3,240.2,23.8,240.2z"/>
					<polygon class="st33" points="22.9,252.1 22.2,252.5 22.2,256.8 21.3,256.3 21.4,251.2 					"/>
					<polygon class="st32" points="22.1,246.8 22.1,247 21.9,247.1 21.4,246.8 21.8,246.6 					"/>
					<polygon class="st32" points="22.1,247 22.1,247.2 21.9,247.1 					"/>
					<polygon class="st33" points="22,248.5 21.8,251.3 21.4,251 21.4,248.2 21.8,248.5 					"/>
					<polygon class="st33" points="21.9,247.1 22.1,247.2 22,248.5 21.8,248.5 21.4,248.2 21.4,246.8 					"/>
					<polygon class="st33" points="22.9,252.1 21.4,251.2 21.4,251 21.8,251.3 22,248.5 22.1,247.2 31.5,252.4 31.4,257.1 
						29.9,256.2 29.7,255.7 28.8,253.4 26.3,252.1 24.8,251.3 					"/>
					<polygon class="st41" points="21.8,246.6 21.4,246.8 21.4,248.2 19.1,246.7 20.5,245.9 					"/>
					<polygon class="st24" points="21.4,251.2 21.3,256.3 16.3,253.3 16.3,248.3 					"/>
					<polygon class="st41" points="21.4,248.2 21.4,251 16.9,248.5 16.9,247.9 19.1,246.7 					"/>
					<path class="st39" d="M21.2,241.6l-0.1,0.1v-0.4C21.1,241.4,21.1,241.5,21.2,241.6z"/>
					<path class="st38" d="M21.1,244.2c0,0.3,0.4,0.6,0.9,0.9l-1.5,0.9l-3.5-2l1.3-0.7l0.2,0.3c-0.2,0.1-0.2,0.2-0.2,0.3
						c0,0.3,0.5,0.5,1.2,0.5s1.2-0.2,1.2-0.5h0.5L21.1,244.2L21.1,244.2C21.1,244.1,21.1,244.2,21.1,244.2z"/>
					<polygon class="st41" points="20.5,245.9 19.1,246.7 17,245.3 17,243.9 					"/>
					<path class="st42" d="M19.4,243.3c0.7,0,1.2,0.2,1.2,0.5s-0.5,0.5-1.2,0.5s-1.2-0.2-1.2-0.5c0-0.1,0.1-0.2,0.2-0.3
						C18.7,243.4,19,243.3,19.4,243.3z"/>
					<polygon class="st41" points="17,245.3 19.1,246.7 16.9,247.9 					"/>
					<path class="st38" d="M19.4,243.3c-0.4,0-0.8,0.1-1,0.2l-0.2-0.3l2.8-1.6v2.2h-0.5C20.6,243.6,20.1,243.3,19.4,243.3z"/>
					<polygon class="st7" points="16.9,248.5 21.4,251 21.4,251.2 16.3,248.3 16.9,247.9 					"/>
				</g>
				<g>
					<path class="st43" d="M71.8,265.9c-0.9-0.3-1.4-0.8-1.4-1.4c0-1,1.9-1.8,4.1-1.8c2.3,0,4.1,0.8,4.1,1.9c0,0.5-0.5,1-1.4,1.4
						c-0.7,0.3-1.7,0.4-2.7,0.4C73.4,266.3,72.5,266.2,71.8,265.9z"/>
					<path class="st43" d="M82.1,220.2c0,0.5-0.5,1-1.4,1.4C80,221.8,79,222,78,222s-2-0.2-2.7-0.5c-0.9-0.3-1.4-0.8-1.4-1.4
						c0-1,1.9-1.8,4.1-1.8C80.3,218.3,82.1,219.1,82.1,220.2z"/>
				</g>
			</g>
		</g>
		<polygon class="st44" points="82,251 83.2,251.6 84.2,251 83,250.4 		"/>
		<polygon class="st44" points="84.3,249.6 85.5,250.2 86.5,249.6 85.3,249 		"/>
		<polygon class="st44" points="86.2,248.4 87.5,249 88.5,248.4 87.3,247.8 		"/>
		<polygon class="st44" points="88.2,247.2 89.4,247.8 90.5,247.2 89.3,246.6 		"/>
		<polygon class="st44" points="90.2,246 91.4,246.6 92.5,246 91.3,245.4 		"/>
		<polygon class="st44" points="92.2,244.8 93.4,245.4 94.5,244.8 93.3,244.2 		"/>
		<polygon class="st44" points="94.3,243.6 95.5,244.2 96.6,243.6 95.4,243 		"/>
		<polygon class="st44" points="96.2,242.4 97.4,243 98.4,242.4 97.2,241.8 		"/>
		<polygon class="st44" points="101.7,239.1 102.9,239.7 103.9,239.1 102.7,238.5 		"/>
		<polygon class="st44" points="103.8,237.9 105,238.5 106.1,237.9 104.9,237.3 		"/>
		<polygon class="st44" points="105.9,236.7 107.2,237.3 108.2,236.7 107,236.1 		"/>
		<polygon class="st44" points="108.2,235.5 109.4,236.1 110.5,235.5 109.3,234.9 		"/>
		<polygon class="st44" points="110.4,234.3 111.6,234.9 112.6,234.3 111.4,233.7 		"/>
		<polygon class="st44" points="112.3,233 113.6,233.7 114.6,233.1 113.4,232.4 		"/>
		<polygon class="st44" points="30.8,231.2 32,231.8 33.1,231.2 31.9,230.6 		"/>
		<polygon class="st44" points="32.8,230 34,230.6 35.1,230 33.9,229.4 		"/>
		<polygon class="st44" points="34.8,228.9 36,229.5 37.1,228.9 35.9,228.3 		"/>
		<polygon class="st44" points="36.8,227.7 38,228.3 39.1,227.7 37.8,227.1 		"/>
		<polygon class="st44" points="38.8,226.5 40,227.1 41,226.5 39.8,225.9 		"/>
		<polygon class="st44" points="40.7,225.3 42,225.9 43,225.3 41.8,224.7 		"/>
		<polygon class="st44" points="42.9,224.1 44.1,224.7 45.2,224.1 44,223.5 		"/>
		<polygon class="st44" points="44.9,222.9 46.1,223.5 47.2,222.9 45.9,222.3 		"/>
		<polygon class="st44" points="46.9,221.7 48.1,222.3 49.1,221.7 47.9,221.1 		"/>
		<polygon class="st44" points="48.7,220.6 49.9,221.2 51,220.6 49.8,220 		"/>
		<polygon class="st44" points="54.8,217 56,217.6 57.1,217 55.9,216.4 		"/>
		<polygon class="st44" points="57.1,215.7 58.3,216.3 59.4,215.7 58.2,215.1 		"/>
		<polygon class="st44" points="59.1,214.5 60.3,215.1 61.4,214.5 60.1,213.9 		"/>
		<polygon class="st44" points="61.1,213.2 62.3,213.9 63.3,213.3 62.1,212.6 		"/>
		<polygon class="st44" points="63,212 64.3,212.7 65.3,212.1 64.1,211.4 		"/>
		<polygon class="st44" points="65,210.8 66.2,211.5 67.3,210.9 66.1,210.2 		"/>
		<polygon class="st44" points="67.2,209.6 68.4,210.3 69.4,209.7 68.2,209 		"/>
		<polygon class="st44" points="69,208.4 70.2,209 71.3,208.4 70.1,207.8 		"/>
	</g>
	<g id="XMLID_15_">
		<g>
			<polygon class="st45" points="153.2,275 153.2,278.4 150.3,276.7 			"/>
			<polygon class="st46" points="153.2,272 153.2,275 150.3,276.7 147.7,275.2 148.2,274.9 148.2,274.9 			"/>
			<polygon class="st46" points="153.2,268.2 153.2,272 148.2,274.9 150.1,270.1 			"/>
			<polygon class="st47" points="153.2,264.8 153.2,268.2 150.1,270.1 149.1,270.7 149.1,267.3 149.8,266.8 			"/>
			<polygon class="st46" points="153.2,261.4 153.2,264.8 149.8,266.8 148,264.4 148,264.4 			"/>
			<polygon class="st46" points="153.2,258.2 153.2,261.4 148,264.4 142.8,267.5 138.5,270 136.8,269 136.8,267.8 			"/>
			<polygon class="st45" points="153.2,278.4 136.8,288 136.8,284.6 150.3,276.7 			"/>
			<path class="st34" d="M150.9,257.6v0.6c0-0.1-0.1-0.2-0.2-0.3C150.8,257.8,150.9,257.7,150.9,257.6L150.9,257.6z"/>
			<path class="st48" d="M150.9,257.5L150.9,257.5c0,0.1-0.1,0.2-0.2,0.3c-0.2-0.2-0.7-0.4-1.2-0.4s-1,0.1-1.2,0.4
				c-0.1-0.1-0.1-0.2-0.2-0.3l0,0c0-0.4,0.6-0.7,1.4-0.7C150.3,256.8,150.9,257.1,150.9,257.5z"/>
			<path class="st34" d="M150.7,257.8c0.1,0.1,0.2,0.2,0.2,0.3c0,0.4-0.6,0.7-1.4,0.7c-0.8,0-1.4-0.3-1.4-0.7c0-0.1,0.1-0.2,0.2-0.3
				c0.2,0.2,0.7,0.4,1.2,0.4S150.5,258.1,150.7,257.8z"/>
			<ellipse class="st48" cx="149.5" cy="257.8" rx="1.2" ry="0.4"/>
			<polygon class="st46" points="147.7,275.2 150.3,276.7 136.8,284.6 136.8,281.9 136.8,281.6 143,278 			"/>
			<polygon class="st49" points="150.1,270.1 148.2,274.9 148.2,274.9 147.7,275.2 145,273.7 149.1,271.3 149.1,270.7 			"/>
			<polygon class="st50" points="149.1,270.7 149.1,271.3 145,273.7 144.4,273.4 			"/>
			<polygon class="st50" points="149.1,267.3 149.1,270.7 144.4,273.4 142.2,272.1 142.2,271.3 			"/>
			<path class="st47" d="M149.1,267.3l-6.9,4.1L149.1,267.3z"/>
			<path class="st34" d="M148.1,257.6c0,0.1,0.1,0.2,0.2,0.3c-0.1,0.1-0.2,0.2-0.2,0.3V257.6L148.1,257.6z"/>
			<path class="st51" d="M148.1,258.2c0,0.4,0.6,0.7,1.4,0.7c0.8,0,1.4-0.3,1.4-0.7v-0.6l0,0l0,0c0-0.4-0.6-0.7-1.4-0.7
				c-0.8,0-1.4,0.3-1.4,0.7l0,0l0,0V258.2z M135.5,265.9c0,0.4,0.6,0.7,1.4,0.7c0.8,0,1.4-0.3,1.4-0.7v-0.6l0,0l0,0
				c0-0.4-0.6-0.7-1.4-0.7c-0.8,0-1.4,0.3-1.4,0.7l0,0l0,0V265.9z M122.8,258.3c0,0.4,0.6,0.7,1.4,0.7s1.4-0.3,1.4-0.7v-0.6l0,0l0,0
				c0-0.4-0.6-0.7-1.4-0.7s-1.4,0.3-1.4,0.7l0,0l0,0V258.3z M153.2,258.2L153.2,258.2l-16.4,9.6l-16.3-9.6l0,0l14.9-8.5v4.1
				c-3.6,0.4-6.4,2.3-6.4,4.6c0,2.6,3.6,4.7,8.1,4.7s8.1-2.1,8.1-4.7c0-2.3-2.7-4.2-6.4-4.6v-3.9L153.2,258.2z"/>
			<polygon class="st49" points="147.7,275.2 143,278 141,275.4 142.2,274.7 142.2,275.4 145,273.7 			"/>
			<polygon class="st50" points="144.4,273.4 145,273.7 142.2,275.4 142.2,274.7 			"/>
			<polygon class="st50" points="144.4,273.4 142.2,274.7 142.2,272.1 			"/>
			<polygon class="st46" points="141,275.4 143,278 136.8,281.6 136.8,277.8 			"/>
			<polygon class="st46" points="142.8,267.5 141.3,271.6 138.5,270 			"/>
			<path class="st12" d="M138.6,253.8c3.7,0.4,6.4,2.3,6.4,4.6c0,2.6-3.6,4.7-8.1,4.7c-4.4,0-8.1-2.1-8.1-4.7c0-2.3,2.7-4.1,6.4-4.6
				v1.8c-1.6,0.4-2.8,1.3-2.8,2.4c0,0.1,0,0.3,0.1,0.4c0,0.1-0.1,0.3-0.1,0.4c0,1.4,2,2.6,4.4,2.6s4.4-1.1,4.4-2.6
				c0-0.1,0-0.3-0.1-0.4c0-0.1,0.1-0.3,0.1-0.4c0-1.1-1.1-2-2.7-2.4v-1.8H138.6z"/>
			<polygon class="st47" points="142.2,272.1 142.2,274.7 141,275.4 136.8,277.8 136.8,274.5 141.2,271.9 141.5,271.7 			"/>
			<polygon class="st47" points="142.2,271.3 142.2,272.1 141.5,271.7 			"/>
			<polygon class="st49" points="149.1,267.3 142.2,271.3 141.5,271.7 141.3,271.6 142.8,267.5 148,264.4 148,264.4 149.8,266.8 			
				"/>
			<polygon class="st49" points="141.5,271.7 141.2,271.9 141.3,271.6 			"/>
			<path class="st52" d="M136.9,260.5c2.2,0,4-0.9,4.3-2.2c0,0.1,0.1,0.3,0.1,0.4c0,1.4-2,2.6-4.4,2.6s-4.4-1.1-4.4-2.6
				c0-0.1,0-0.3,0.1-0.4C132.9,259.6,134.7,260.5,136.9,260.5z"/>
			<path class="st53" d="M138.6,255.6c1.6,0.4,2.7,1.3,2.7,2.4c0,0.1,0,0.3-0.1,0.4c-0.2-0.9-1.3-1.6-2.6-2L138.6,255.6L138.6,255.6
				z"/>
			<polygon class="st46" points="138.5,270 141.3,271.6 141.2,271.9 136.8,274.5 136.8,271.2 136.8,271 			"/>
			<path class="st53" d="M141.3,258.4c-0.3,1.2-2.2,2.2-4.3,2.2c-2.2,0-4-0.9-4.3-2.2c0.2-0.9,1.3-1.6,2.7-2v0.4
				c-0.5,0.3-0.9,0.7-0.9,1.1s0.3,0.8,0.9,1.1c0.4,0.2,1,0.3,1.6,0.3c0.7,0,1.3-0.2,1.7-0.4c0.5-0.3,0.7-0.6,0.7-1s-0.3-0.8-0.7-1
				v-0.5C140,256.8,141,257.5,141.3,258.4z"/>
			<path class="st54" d="M138.6,256.9c0.5,0.3,0.7,0.6,0.7,1s-0.3,0.8-0.7,1V256.9z"/>
			<path class="st55" d="M135.3,249.5c0-0.1,0-0.1,0-0.2c0-0.5,0.8-0.8,1.7-0.8s1.7,0.4,1.7,0.8c0,0.1,0,0.1,0,0.2
				c0,0.1-0.1,0.2-0.2,0.2l-1.6-0.9l-1.4,0.8C135.4,249.6,135.4,249.5,135.3,249.5z"/>
			<path class="st56" d="M138.6,256.9v2c-0.4,0.3-1.1,0.4-1.7,0.4c-0.6,0-1.2-0.1-1.6-0.3v-2.2c0.4-0.2,1-0.3,1.6-0.3
				C137.6,256.5,138.2,256.6,138.6,256.9z"/>
			<path class="st56" d="M138.6,255.6v0.8c-0.5-0.1-1.1-0.2-1.7-0.2c-0.6,0-1.1,0.1-1.6,0.2v-0.8c0.5-0.1,1.1-0.2,1.6-0.2
				C137.5,255.4,138.1,255.5,138.6,255.6z"/>
			<path class="st56" d="M138.6,253.8v1.8c-0.5-0.1-1.1-0.2-1.7-0.2c-0.6,0-1.1,0.1-1.6,0.2v-1.8c0.5-0.1,1.1-0.1,1.7-0.1
				C137.5,253.7,138.1,253.7,138.6,253.8z"/>
			<path class="st56" d="M138.6,249.8v3.9c-0.5-0.1-1.1-0.1-1.6-0.1c-0.6,0-1.1,0-1.7,0.1v-4.1l0.1-0.1c0.3,0.3,0.9,0.5,1.5,0.5
				s1.1-0.2,1.4-0.4L138.6,249.8z"/>
			<polygon class="st46" points="138.5,270 136.8,271 136.8,269 			"/>
			<path class="st55" d="M136.8,248.8l1.6,0.9c-0.3,0.2-0.8,0.4-1.4,0.4c-0.7,0-1.3-0.2-1.5-0.5L136.8,248.8z"/>
			<path class="st34" d="M138.3,265.3v0.6c0-0.1-0.1-0.2-0.2-0.3C138.2,265.5,138.2,265.4,138.3,265.3L138.3,265.3z"/>
			<path class="st48" d="M138.3,265.3L138.3,265.3c0,0.1-0.1,0.2-0.2,0.3c-0.2-0.2-0.7-0.4-1.2-0.4s-1,0.1-1.2,0.4
				c-0.1-0.1-0.1-0.2-0.2-0.3l0,0c0-0.4,0.6-0.7,1.4-0.7C137.6,264.6,138.3,264.9,138.3,265.3z"/>
			<path class="st34" d="M138.1,265.6c0.1,0.1,0.2,0.2,0.2,0.3c0,0.4-0.6,0.7-1.4,0.7c-0.8,0-1.4-0.3-1.4-0.7c0-0.1,0.1-0.2,0.2-0.3
				c0.2,0.2,0.7,0.4,1.2,0.4C137.4,266,137.9,265.8,138.1,265.6z"/>
			<ellipse class="st48" cx="136.9" cy="265.6" rx="1.2" ry="0.4"/>
			<polygon class="st48" points="136.8,281.9 130.6,278.2 132.7,275.4 136.8,277.8 136.8,281.6 			"/>
			<polygon class="st48" points="136.8,271 136.8,271.2 134.9,270.1 136.8,269 			"/>
			<polygon class="st9" points="136.8,284.6 136.8,288 129.5,283.7 129.9,283.4 131.7,284.5 131.7,282.4 124.9,278.4 124.9,279.9 
				124,280.5 120.5,278.4 123.4,276.7 			"/>
			<polygon class="st48" points="136.8,281.9 136.8,284.6 123.4,276.7 125.8,275.4 130.6,278.2 			"/>
			<polygon class="st57" points="136.8,274.5 136.8,277.8 132.7,275.4 129.2,273.4 132.2,271.7 132.5,271.9 			"/>
			<polygon class="st48" points="136.8,271.2 136.8,274.5 132.5,271.9 132.4,271.6 134.9,270.1 			"/>
			<polygon class="st48" points="136.8,267.8 136.8,269 134.9,270.1 130.9,267.8 125.5,264.6 120.5,261.6 120.5,258.2 120.5,258.2 
							"/>
			<path class="st56" d="M135.3,256.4c0.5-0.1,1.1-0.2,1.6-0.2c0.6,0,1.2,0.1,1.7,0.2v0.5c-0.4-0.3-1.1-0.4-1.7-0.4
				c-0.6,0-1.2,0.1-1.6,0.3V256.4z"/>
			<path class="st34" d="M135.5,265.3c0,0.1,0.1,0.2,0.2,0.3c-0.1,0.1-0.2,0.2-0.2,0.3V265.3L135.5,265.3z"/>
			<path class="st53" d="M135.3,255.6v0.8c-1.4,0.3-2.5,1.1-2.7,2c0-0.1-0.1-0.3-0.1-0.4C132.5,256.9,133.7,256,135.3,255.6z"/>
			<path class="st54" d="M135.3,256.8v2.2c-0.5-0.3-0.9-0.7-0.9-1.1C134.4,257.5,134.8,257.1,135.3,256.8z"/>
			<polygon class="st48" points="134.9,270.1 132.4,271.6 130.9,267.8 			"/>
			<polygon class="st58" points="132.7,275.4 130.6,278.2 125.8,275.4 129.2,273.4 			"/>
			<polygon class="st58" points="132.4,271.6 132.5,271.9 132.2,271.7 			"/>
			<polygon class="st58" points="130.9,267.8 132.4,271.6 132.2,271.7 123.8,266.8 125.5,264.6 			"/>
			<polygon class="st57" points="132.2,271.7 129.2,273.4 123.2,269.8 120.5,268.2 120.5,264.8 123.8,266.8 			"/>
			<path class="st59" d="M129.6,282.2c0-0.1,0.1-0.1,0.1-0.2c0-0.2-0.2-0.4-0.5-0.4c-0.1,0-0.2,0-0.2,0c-0.1,0-0.1,0.1-0.2,0.1
				l-0.8,0.5l-0.4-0.2l0.6-0.4c0.1,0,0.2-0.1,0.3-0.2c0-0.1,0.1-0.1,0.1-0.2c0-0.2-0.2-0.4-0.5-0.4c-0.1,0-0.3,0-0.4,0.1l0,0
				l-0.8,0.5l-0.4-0.2l0.8-0.5l0,0c0.1-0.1,0.1-0.2,0.1-0.3c0-0.2-0.2-0.4-0.5-0.4c-0.1,0-0.3,0-0.4,0.1l-0.9,0.6l-0.4-0.2l0.8-0.5
				l0,0c0,0,0.1,0,0.1-0.1l0,0c0.1-0.1,0.1-0.2,0.1-0.2c0-0.2-0.2-0.4-0.5-0.4c-0.2,0-0.3,0.1-0.4,0.2l0,0l-0.4,0.2v-1.5l6.8,3.9
				v2.1l-1.8-1l0.6-0.4c0.1,0,0.1-0.1,0.2-0.1l0,0c0.1-0.1,0.1-0.1,0.1-0.2c0-0.2-0.2-0.4-0.5-0.4c-0.1,0-0.2,0-0.3,0.1l0,0
				l-0.8,0.5l-0.4-0.2l0.6-0.4C129.4,282.3,129.5,282.3,129.6,282.2z"/>
			<path class="st60" d="M130.7,282.7c0,0.1,0,0.2-0.1,0.2l0,0l-0.2,0.1c-0.1,0-0.2,0-0.2,0c-0.3,0-0.5-0.2-0.5-0.4
				c0-0.1,0.1-0.2,0.1-0.3l0,0c0.1-0.1,0.2-0.1,0.3-0.1C130.5,282.4,130.7,282.5,130.7,282.7z"/>
			<path class="st60" d="M130.5,283.1l-0.6,0.4l-0.8-0.5l0.8-0.5c-0.1,0.1-0.1,0.2-0.1,0.3c0,0.2,0.2,0.4,0.5,0.4
				C130.3,283.1,130.4,283.1,130.5,283.1z"/>
			<polygon class="st60" points="129.9,283.4 129.5,283.7 128.7,283.2 129.1,283 			"/>
			<path class="st60" d="M129.7,282c0,0.1,0,0.1-0.1,0.2l-0.3,0.2c-0.1,0-0.1,0-0.2,0c-0.3,0-0.5-0.2-0.5-0.4c0-0.1,0-0.2,0.1-0.2
				l0.2-0.1c0.1,0,0.2,0,0.2,0C129.4,281.6,129.7,281.8,129.7,282z"/>
			<path class="st60" d="M129.3,282.3l0.3-0.2C129.5,282.3,129.4,282.3,129.3,282.3z"/>
			<path class="st60" d="M129.3,282.3l-0.6,0.4l-0.8-0.4l0.8-0.5c-0.1,0.1-0.1,0.1-0.1,0.2c0,0.2,0.2,0.4,0.5,0.4
				C129.2,282.4,129.3,282.4,129.3,282.3z"/>
			<polygon class="st58" points="129.2,273.4 125.8,275.4 125.1,275 123.2,269.8 			"/>
			<polygon class="st9" points="128.7,282.8 129.1,283 128.7,283.2 128.3,283 			"/>
			<path class="st60" d="M128.9,281.7l-0.2,0.1C128.8,281.7,128.8,281.7,128.9,281.7z"/>
			<polygon class="st60" points="127.9,282.3 128.7,282.8 128.3,283 127.6,282.6 			"/>
			<path class="st60" d="M128.5,284.2c0-0.2-0.2-0.4-0.5-0.4c-0.1,0-0.2,0-0.3,0.1l1.1-0.7l0.8,0.5l-1.2,0.8
				C128.4,284.4,128.5,284.3,128.5,284.2z"/>
			<path class="st59" d="M128.5,281.4c0,0.1,0,0.1-0.1,0.2l-0.3,0.2c-0.1,0-0.1,0-0.2,0c-0.3,0-0.5-0.2-0.5-0.4
				c0-0.1,0.1-0.2,0.1-0.3l0,0c0.1-0.1,0.2-0.1,0.4-0.1C128.2,281,128.5,281.2,128.5,281.4z"/>
			<path class="st59" d="M128.1,281.7l0.3-0.2C128.3,281.6,128.3,281.7,128.1,281.7z"/>
			<path class="st61" d="M128,283.8c0.3,0,0.5,0.2,0.5,0.4c0,0.1-0.1,0.2-0.1,0.3l0,0c-0.1,0.1-0.2,0.1-0.3,0.1
				c-0.3,0-0.5-0.2-0.5-0.4c0-0.1,0.1-0.2,0.2-0.3l0,0C127.7,283.9,127.8,283.8,128,283.8z"/>
			<path class="st60" d="M128.1,281.7l-0.6,0.4l-0.8-0.5l0.8-0.5c-0.1,0.1-0.1,0.2-0.1,0.3c0,0.2,0.2,0.4,0.5,0.4
				C128,281.7,128.1,281.7,128.1,281.7z"/>
			<polygon class="st9" points="127.9,282.3 127.6,282.6 127.2,282.3 127.6,282.1 			"/>
			<path class="st61" d="M127.6,283.9L127.6,283.9L127.6,283.9z"/>
			<polygon class="st60" points="127.6,282.1 127.2,282.3 126.4,281.9 126.8,281.6 			"/>
			<path class="st60" d="M128.3,283l-1.1,0.7c0.1-0.1,0.1-0.2,0.1-0.3c0-0.2-0.2-0.4-0.5-0.4c-0.1,0-0.1,0-0.2,0l0.9-0.6L128.3,283z
				"/>
			<path class="st60" d="M126.5,280.4c0.1-0.1,0.2-0.1,0.4-0.1c0.3,0,0.5,0.2,0.5,0.4c0,0.1-0.1,0.2-0.1,0.3l0,0
				c-0.1,0-0.2,0.1-0.3,0.1c-0.3,0-0.5-0.2-0.5-0.4C126.4,280.5,126.4,280.4,126.5,280.4z"/>
			<path class="st61" d="M126.9,283.1c0.3,0,0.5,0.2,0.5,0.4c0,0.1-0.1,0.2-0.1,0.3l0,0c-0.1,0.1-0.2,0.1-0.3,0.1
				c-0.3,0-0.5-0.2-0.5-0.4c0-0.1,0-0.1,0.1-0.2l0,0l0.2-0.2C126.7,283.1,126.8,283.1,126.9,283.1z"/>
			<path class="st60" d="M127.2,280.9l-0.8,0.5l-0.8-0.5l0.9-0.6c-0.1,0.1-0.1,0.2-0.1,0.3c0,0.2,0.2,0.4,0.5,0.4
				C127,281,127.1,281,127.2,280.9z"/>
			<polygon class="st9" points="126.8,281.6 126.4,281.9 126,281.7 126.4,281.4 			"/>
			<path class="st61" d="M126.7,283.1l-0.2,0.2C126.5,283.2,126.6,283.2,126.7,283.1z"/>
			<polygon class="st60" points="126.4,281.4 126,281.7 125.2,281.2 125.6,280.9 			"/>
			<path class="st60" d="M127.2,282.3l-1.2,0.8c0.1-0.1,0.1-0.2,0.1-0.3c0-0.2-0.2-0.4-0.5-0.4c-0.1,0-0.2,0-0.3,0.1l1-0.7
				L127.2,282.3z"/>
			<path class="st60" d="M125.7,279.5c0.3,0,0.5,0.2,0.5,0.4c0,0.1,0,0.2-0.1,0.2l0,0l-0.1,0.1l0,0c-0.1,0-0.2,0.1-0.3,0.1
				c-0.3,0-0.5-0.2-0.5-0.4c0-0.1,0-0.1,0.1-0.2l0,0C125.3,279.6,125.5,279.5,125.7,279.5z"/>
			<path class="st61" d="M125.7,282.5c0.3,0,0.5,0.2,0.5,0.4c0,0.1-0.1,0.2-0.1,0.3l0,0c-0.1,0.1-0.2,0.1-0.3,0.1
				c-0.3,0-0.5-0.2-0.5-0.4c0-0.1,0.1-0.2,0.2-0.3l0,0C125.4,282.5,125.5,282.5,125.7,282.5z"/>
			<path class="st60" d="M126,280.2l-0.8,0.5l-0.3-0.2v-0.6l0.4-0.2c-0.1,0.1-0.1,0.1-0.1,0.2c0,0.2,0.2,0.4,0.5,0.4
				C125.8,280.3,125.9,280.2,126,280.2z"/>
			<polygon class="st48" points="125.1,275 125.8,275.4 123.4,276.7 120.5,275 120.5,272.3 			"/>
			<polygon class="st9" points="125.6,280.9 125.2,281.2 124.8,280.9 125.2,280.7 			"/>
			<polygon class="st48" points="125.5,264.6 123.8,266.8 120.5,264.8 120.5,261.6 			"/>
			<path class="st34" d="M125.5,257.7v0.6c0-0.1-0.1-0.2-0.2-0.3C125.5,257.9,125.5,257.8,125.5,257.7L125.5,257.7z"/>
			<path class="st48" d="M125.5,257.7L125.5,257.7c0,0.1-0.1,0.2-0.2,0.3c-0.2-0.2-0.7-0.4-1.2-0.4s-1,0.1-1.2,0.4
				c-0.1-0.1-0.1-0.2-0.2-0.3l0,0c0-0.4,0.6-0.7,1.4-0.7C124.9,257,125.5,257.3,125.5,257.7z"/>
			<path class="st34" d="M125.4,258c0.1,0.1,0.2,0.2,0.2,0.3c0,0.4-0.6,0.7-1.4,0.7s-1.4-0.3-1.4-0.7c0-0.1,0.1-0.2,0.2-0.3
				c0.2,0.2,0.7,0.4,1.2,0.4C124.7,258.4,125.1,258.2,125.4,258z"/>
			<ellipse class="st48" cx="124.2" cy="258" rx="1.2" ry="0.4"/>
			<polygon class="st60" points="125.2,280.7 124.8,280.9 124,280.5 124.9,279.9 124.9,280.5 			"/>
			<polygon class="st48" points="123.2,269.8 125.1,275 120.5,272.3 120.5,268.2 			"/>
			<path class="st61" d="M124.6,281.7c0.3,0,0.5,0.2,0.5,0.4c0,0.1-0.1,0.2-0.1,0.3l0,0l0,0l0,0c-0.1,0-0.2,0.1-0.3,0.1
				c-0.3,0-0.5-0.2-0.5-0.4c0-0.1,0.1-0.2,0.2-0.3C124.3,281.8,124.4,281.7,124.6,281.7z"/>
			<path class="st60" d="M125.1,282.1c0-0.2-0.2-0.4-0.5-0.4c-0.1,0-0.2,0-0.3,0.1l0,0l1-0.6l0.8,0.5l-1.1,0.7
				C125,282.3,125.1,282.2,125.1,282.1z"/>
			<path class="st60" d="M123.9,281.4c0-0.2-0.2-0.4-0.5-0.4c-0.1,0-0.2,0-0.3,0.1l0.9-0.6l0.8,0.5l-1.1,0.7
				C123.8,281.6,123.9,281.5,123.9,281.4z"/>
			<path class="st61" d="M123.4,281c0.3,0,0.5,0.2,0.5,0.4c0,0.1-0.1,0.2-0.1,0.3l0,0c-0.1,0.1-0.2,0.1-0.3,0.1
				c-0.3,0-0.5-0.2-0.5-0.4c0-0.1,0-0.2,0.1-0.2l0.1-0.1C123.2,281,123.3,281,123.4,281z"/>
			<polygon class="st9" points="123.4,276.7 120.5,278.4 120.5,275 			"/>
			<path class="st61" d="M123.1,281.1l-0.1,0.1C123,281.1,123.1,281.1,123.1,281.1z"/>
			<path class="st34" d="M122.8,257.7c0,0.1,0.1,0.2,0.2,0.3c-0.1,0.1-0.2,0.2-0.2,0.3V257.7L122.8,257.7z"/>
		</g>
	</g>
	<g id="XMLID_10_">
		<g>
			<polygon class="st62" points="282,131.2 282,221.1 280.9,222.2 280.9,132.3 161.1,63.6 162.1,62.6 162.2,62.5 			"/>
			<polygon class="st63" points="280.9,222.2 280.9,222.3 280.8,222.3 277,220.1 277,215.6 277,136.1 164.8,71.8 164.8,151.3 
				164.8,155.5 161,153.4 161,63.7 161.1,63.6 280.9,132.3 			"/>
			<path class="st35" d="M164.8,155.5L277,220.1l3.8,2.2l-77.9,45.5l-0.1-0.1L83.7,198.1l77.3-44.7L164.8,155.5z M224.6,248.2
				l44.4-25.9l-106.7-61.4l-43.9,25.2L224.6,248.2z M159.7,240l23.5-13.7l-29.7-16.9l-23.3,13.4L159.7,240z"/>
			<polygon class="st63" points="277,215.6 277,220.1 164.8,155.5 164.8,151.3 			"/>
			<path class="st63" d="M277,136.1v79.5l-112.2-64.3V71.8L277,136.1z M221.6,172v-3.8v-9.1v-4.9v-20.4v-5.3v-5.8V119l-41.7-24v3.8
				v5.8v5.3v20.4v4.9v9.1v3.8L221.6,172z"/>
			<polygon class="st8" points="269,222.3 224.6,248.2 118.3,186.1 162.2,160.9 			"/>
			<polygon class="st64" points="221.6,168.2 221.6,172 179.9,148 179.9,144.3 			"/>
			<polygon class="st64" points="221.6,154.2 221.6,159.1 179.9,135.2 179.9,130.3 			"/>
			<path class="st12" d="M189,124.8l14.9,8.5v-3l-14.8-8.5l-6-3.4v3L189,124.8z M189,120.6l14.9,8.5v-3l-14.8-8.5l-6-3.4v3
				L189,120.6z M189.9,129.3l7.1,4v-3l-7.1-4l-3.8-2.1v3L189.9,129.3z M221.6,133.8v20.4l-41.7-24v-20.4l7.8,4.5L221.6,133.8z"/>
			<polygon class="st64" points="221.6,128.5 221.6,133.8 187.7,114.4 187.7,109 193.6,112.4 			"/>
			<path class="st65" d="M221.6,122.7v5.8l-28-16.1l0.3-0.5c0.2,0.1,0.4,0.2,0.7,0.2c0.9,0,1.6-0.9,1.6-2c0-0.8-0.4-1.5-0.9-1.8
				l0.3-0.5L221.6,122.7z"/>
			<polygon class="st66" points="203.9,126.1 203.9,129.1 189,120.6 189,117.6 189,117.6 			"/>
			<polygon class="st66" points="203.9,130.3 203.9,133.3 189,124.8 189,121.8 189,121.8 			"/>
			<polygon class="st62" points="202.9,272.7 202.7,272.6 202.8,272.5 202.8,267.7 202.9,267.8 280.8,222.3 280.9,222.3 280.9,227 
				280.8,227.2 			"/>
			<polygon class="st67" points="202.8,267.7 202.8,272.5 202.7,272.6 83.7,203 83.6,203 83.6,198.2 83.7,198.1 			"/>
			<polygon class="st68" points="197,130.3 197,133.3 189.9,129.3 189.9,126.3 189.9,126.3 			"/>
			<path class="st64" d="M195.2,108.2c0.6,0.3,0.9,1,0.9,1.8c0,1.1-0.7,2-1.6,2c-0.2,0-0.5-0.1-0.7-0.2c-0.5-0.3-0.9-1-0.9-1.8
				c0-1.1,0.7-2,1.6-2C194.8,108.1,195,108.1,195.2,108.2z"/>
			<polygon class="st69" points="192.7,144 192.6,147 180.8,140.2 180.8,137.2 			"/>
			<polygon class="st69" points="192.7,147.8 192.6,150.8 180.8,144 180.8,141 			"/>
			<path class="st70" d="M221.6,168.2l-41.7-24v-9.1l41.7,24V168.2z M192.7,147.8l-11.9-6.8v3l11.9,6.8V147.8z M180.8,140.2
				l11.9,6.8v-3l-11.9-6.8V140.2z"/>
			<ellipse class="st64" cx="190.6" cy="107.9" rx="1.6" ry="2"/>
			<polygon class="st66" points="189.9,126.3 189.9,126.3 189.9,129.3 186.1,127.1 186.1,124.1 			"/>
			<path class="st65" d="M193.6,112.4l-5.9-3.4l-1.8-1l0.3-0.5c0.2,0.1,0.4,0.2,0.6,0.2c0.9,0,1.6-0.9,1.6-2c0-0.8-0.4-1.5-0.9-1.8
				l0.3-0.6l7.8,4.5l-0.3,0.5c-0.2-0.1-0.4-0.2-0.6-0.2c-0.9,0-1.6,0.9-1.6,2c0,0.8,0.4,1.5,0.9,1.8L193.6,112.4z M189,107.9
				c0,1.1,0.7,2,1.6,2c0.9,0,1.6-0.9,1.6-2s-0.7-2-1.6-2S189,106.8,189,107.9z"/>
			<polygon class="st68" points="189,121.8 189,121.8 189,124.8 183,121.4 183,118.3 			"/>
			<polygon class="st68" points="189,117.6 189,117.6 189,120.6 183,117.1 183,114.1 			"/>
			<path class="st64" d="M187.4,103.8c0.6,0.3,0.9,1,0.9,1.8c0,1.1-0.7,2-1.6,2c-0.2,0-0.4-0.1-0.6-0.2c-0.6-0.3-0.9-1-0.9-1.8
				c0-1.1,0.7-2,1.6-2C187,103.6,187.2,103.7,187.4,103.8z"/>
			<polygon class="st12" points="187.7,109 187.7,114.4 179.9,109.9 179.9,104.5 185.9,108 			"/>
			<ellipse class="st71" cx="186.4" cy="100.6" rx="0.8" ry="1"/>
			<path class="st69" d="M185.2,99.3c0-0.6-0.3-1-0.8-1c-0.4,0-0.8,0.4-0.8,1s0.3,1,0.8,1S185.2,99.9,185.2,99.3z M179.9,95l41.7,24
				v3.8l-26.2-15l-7.8-4.5l-7.8-4.5V95H179.9z M187.2,100.6c0-0.6-0.3-1-0.8-1c-0.4,0-0.8,0.4-0.8,1s0.3,1,0.8,1
				S187.2,101.2,187.2,100.6z M183,98.2c0-0.6-0.3-1-0.8-1c-0.4,0-0.8,0.4-0.8,1s0.3,1,0.8,1C182.6,99.2,183,98.8,183,98.2z"/>
			<ellipse class="st72" cx="184.4" cy="99.3" rx="0.8" ry="1"/>
			<path class="st65" d="M179.9,98.8l7.8,4.5l-0.3,0.6c-0.2-0.1-0.4-0.2-0.6-0.2c-0.9,0-1.6,0.9-1.6,2c0,0.8,0.4,1.5,0.9,1.8
				l-0.3,0.5l-6-3.4v-5.8H179.9z M184.3,103.2c0-1.1-0.7-2-1.6-2c-0.9,0-1.6,0.9-1.6,2s0.7,2,1.6,2S184.3,104.3,184.3,103.2z"/>
			<ellipse class="st64" cx="182.8" cy="103.2" rx="1.6" ry="2"/>
			<polygon class="st8" points="183.3,226.3 159.7,240 130.3,222.7 153.6,209.4 			"/>
			<ellipse class="st73" cx="182.2" cy="98.2" rx="0.8" ry="1"/>
		</g>
	</g>
</g>
<g>
	<path class="st74" d="M60.9,145.2c0,0-3.8-2.6-1.7-6.4c2.1-3.8,4.2-1.6,4.9-0.3c0.7,1.2,1.5,4.7-1,7"/>
	<path class="st74" d="M62.5,145.2c0,0,3.7-2.7,6.6,0.6c2.8,3.3,0,4.5-1.4,4.7s-4.9-0.2-6.2-3.3"/>
	<path class="st74" d="M59.3,146.3c0,0-2.9,3.5-6.5,1s-1.1-4.3,0.2-4.9c1.3-0.5,4.8-1,6.9,1.7"/>
	<path class="st74" d="M61.2,147.2c0,0,2.9,3.5-0.1,6.6c-3.1,3.1-4.4,0.3-4.8-1.1c-0.3-1.4-0.2-4.9,2.9-6.4"/>
	<path class="st75" d="M61.9,146c0,0-1.2-3.8,2.2-5.3c3.5-1.5,3.7,1.2,3.5,2.4s-1.4,4-4.4,4.3"/>
	<path class="st75" d="M63,146.8c0,0,4,0.2,4.2,3.9c0.2,3.8-2.4,3-3.4,2.4s-3.2-2.7-2.5-5.6"/>
	<path class="st75" d="M60.2,145.9c0,0-3.9,0.8-5-2.8s1.6-3.5,2.7-3.2c1.2,0.3,3.8,1.9,3.8,4.8"/>
	<path class="st75" d="M61.1,147.5c0,0,0.1,4-3.6,4.4c-3.7,0.5-3.2-2.2-2.7-3.3s2.5-3.4,5.4-2.9"/>
	
		<ellipse transform="matrix(0.7305 -0.6829 0.6829 0.7305 -83.3207 81.3354)" class="st76" cx="61.4" cy="146.2" rx="1.9" ry="2.2"/>
</g>
<g>
	<path class="st74" d="M252.9,349.9c0,0-2.3-3.8,1-6.4c3.4-2.6,4.4,0.3,4.5,1.7c0.1,1.4-0.5,4.8-3.7,5.8"/>
	<path class="st74" d="M254.2,350.5c0,0,4.4-0.9,5.6,3.2c1.2,4.1-1.8,4-3.1,3.6c-1.3-0.4-4.3-2.2-4.2-5.5"/>
	<path class="st74" d="M251,350.2c0,0-4,1.9-6.2-1.7s0.8-4.3,2.2-4.3s4.7,1,5.4,4.3"/>
	<path class="st74" d="M252.3,351.8c0,0,1.2,4.3-2.8,5.8s-4.1-1.5-3.8-2.9s1.8-4.4,5.2-4.6"/>
	<path class="st75" d="M253.4,351c0,0,0.4-3.9,4.1-3.8s2.8,2.5,2.1,3.5c-0.7,1-2.9,3-5.7,2"/>
	<path class="st75" d="M254,352.2c0,0,3.5,1.8,2.1,5.2c-1.4,3.4-3.4,1.7-4.1,0.8c-0.7-1-1.8-3.8,0.1-6"/>
	<path class="st75" d="M252,350.2c0,0-3.8-0.9-3.3-4.5c0.5-3.7,2.8-2.5,3.8-1.7c0.9,0.8,2.7,3.2,1.4,5.8"/>
	<path class="st75" d="M252,352c0,0-1.5,3.6-5,2.5s-2-3.2-1.1-4s3.6-2,6-0.3"/>
	<ellipse transform="matrix(0.9479 -0.3187 0.3187 0.9479 -98.6755 98.9006)" class="st76" cx="252.9" cy="351" rx="1.9" ry="2.2"/>
</g>
<g id="XMLID_9_">
	<g>
		<path class="st2" d="M315,172.2c-4.6,6.5-4.7,17.8-4.7,17.8h-4.2c0.1-2,0.4-3.9,1-5.7C309.4,177.1,314.9,172.3,315,172.2z"/>
		<path class="st3" d="M304.1,182.1c2.8-8,8.2-14.1,8.2-14.1c-3.9,6.1-4.9,13.5-5.2,16.4c-0.6,1.8-0.9,3.7-1,5.7v0.1h-1.4
			c-0.4-5.4-1.5-9.8-2.9-13.3l0,0c1.5-5.7,4.1-9.8,4.2-9.9C304.5,169.7,304.1,182.1,304.1,182.1z"/>
		<path class="st2" d="M304.7,190.1h-1.5c0-3.6-1.5-7.5-3.2-10.9c0-0.2-0.9-8.2-7-15.4c0.1,0.1,5.4,3.7,8.9,12.9
			C303.2,180.3,304.3,184.8,304.7,190.1z"/>
		<path class="st3" d="M300,179.2c1.7,3.3,3.2,7.2,3.2,10.9h-3.4c0,0,0.1-2.3-1.1-5.8c-0.2-2.6-0.8-7.2-4.3-13.5
			C294.5,170.9,297.5,174.5,300,179.2z"/>
		<path class="st2" d="M298.7,184.4c1.2,3.4,1.1,5.8,1.1,5.8h-4.2c0-11-5.3-17.6-5.5-17.8C295.1,176.6,297.5,181,298.7,184.4z"/>
	</g>
</g>
<g id="XMLID_1_">
	<g>
		<path class="st2" d="M131.1,115.1c2.9,6.1,3,16.5,3,16.5h2.7c0-1.9-0.3-3.7-0.6-5.3l0,0C134.7,119.6,131.1,115.2,131.1,115.1z"/>
		<path class="st3" d="M138.1,124.3c-1.8-7.4-5.2-13.1-5.2-13.1c2.5,5.7,3.1,12.5,3.3,15.2l0,0c0.4,1.6,0.6,3.4,0.6,5.3v0.1h0.9
			c0.3-5,1-9.1,1.8-12.4l0,0c-0.9-5.3-2.6-9.1-2.7-9.2C137.8,112.7,138.1,124.3,138.1,124.3z"/>
		<path class="st2" d="M137.7,131.8h1c0-3.4,0.9-7,2.1-10.1c0,0,0.5-7.5,4.5-14.3c-0.1,0.1-3.4,3.5-5.7,12
			C138.6,122.7,137.9,126.8,137.7,131.8z"/>
		<path class="st3" d="M138.6,131.8h2.2c0,0-0.1-2.2,0.7-5.3c0.2-2.4,0.5-6.6,2.7-12.6c-0.1,0.1-2,3.4-3.6,7.8
			C139.6,124.8,138.6,128.4,138.6,131.8z"/>
		<path class="st2" d="M141.5,126.4c-0.8,3.2-0.7,5.3-0.7,5.3h2.7c0-10.2,3.4-16.4,3.5-16.5C143.8,119.2,142.3,123.3,141.5,126.4z"
			/>
	</g>
</g>
<g class="st77">
	<path class="st12" d="M28.6,325.1h19.9v5.9H35.2v7.8h12.1v5.9H35.2v8.2h13.6v5.9H28.6V325.1z"/>
	<path class="st12" d="M52.6,341.9c0-5.6,1.2-9.9,3.7-12.9c2.5-3,6-4.5,10.6-4.5c2.4,0,4.5,0.4,6.3,1.2c1.8,0.8,3.3,2,4.5,3.6
		c1.2,1.5,2.1,3.4,2.6,5.5c0.6,2.1,0.9,4.5,0.9,7.2c0,5.6-1.2,9.9-3.7,12.9c-2.5,3-6,4.5-10.5,4.5c-2.4,0-4.5-0.4-6.3-1.2
		c-1.8-0.8-3.3-2-4.4-3.6c-1.2-1.5-2-3.4-2.6-5.5C52.9,346.9,52.6,344.5,52.6,341.9z M59.5,341.9c0,1.7,0.1,3.3,0.4,4.7
		c0.3,1.4,0.7,2.6,1.3,3.7c0.6,1,1.4,1.8,2.3,2.4c0.9,0.6,2,0.9,3.3,0.9c2.3,0,4.1-0.9,5.4-2.7c1.3-1.8,1.9-4.8,1.9-8.9
		c0-1.6-0.1-3.2-0.4-4.6c-0.3-1.4-0.7-2.6-1.3-3.7c-0.6-1.1-1.3-1.9-2.3-2.5c-0.9-0.6-2.1-0.9-3.4-0.9c-2.3,0-4.1,0.9-5.4,2.8
		S59.5,337.9,59.5,341.9z"/>
	<path class="st12" d="M107.8,331H98v27.7h-6.6V331h-9.8v-5.9h26.2V331z"/>
	<path class="st12" d="M121.2,341.2h12.5v15c-1.3,1.1-3,1.9-4.8,2.4c-1.9,0.5-3.7,0.8-5.5,0.8c-2.1,0-4.1-0.3-6-1
		c-1.8-0.7-3.4-1.7-4.8-3.1c-1.3-1.4-2.4-3.2-3.2-5.4s-1.2-4.8-1.2-7.9c0-3.2,0.5-5.9,1.4-8.1c0.9-2.2,2.1-4,3.6-5.4
		c1.5-1.4,3.2-2.4,5-3c1.9-0.6,3.7-0.9,5.7-0.9c1.9,0,3.6,0.1,5.1,0.4c1.5,0.3,2.6,0.6,3.5,0.9l-1.3,5.5c-0.8-0.3-1.7-0.6-2.7-0.7
		c-1-0.2-2.3-0.3-3.8-0.3c-1.4,0-2.6,0.2-3.8,0.6c-1.2,0.4-2.2,1.1-3,2c-0.8,0.9-1.5,2.2-2,3.6c-0.5,1.5-0.7,3.3-0.7,5.4
		c0,2,0.2,3.8,0.7,5.2c0.4,1.5,1.1,2.7,1.9,3.6c0.8,0.9,1.7,1.6,2.8,2.1c1.1,0.4,2.2,0.7,3.4,0.7c0.8,0,1.6-0.1,2.4-0.3
		c0.8-0.2,1.5-0.5,2-0.9v-6.3l-7.2-0.8V341.2z"/>
</g>
<g class="st77">
	<path class="st12" d="M36.7,308.4l0.2-1.9h-0.1l-0.6,1.6l-2.1,3.7h-0.6l-2.2-3.7l-0.6-1.6h-0.1l0.3,1.9v5.1h-1.8v-9.8h1.8l2.6,4.5
		l0.5,1.1H34l0.4-1.1l2.5-4.5h1.7v9.8h-1.9V308.4z"/>
	<path class="st12" d="M40,308.6c0-1.6,0.4-2.9,1.1-3.8s1.7-1.3,3.1-1.3c0.7,0,1.3,0.1,1.8,0.4c0.5,0.2,1,0.6,1.3,1
		c0.3,0.4,0.6,1,0.8,1.6c0.2,0.6,0.3,1.3,0.3,2.1c0,1.6-0.4,2.9-1.1,3.8c-0.7,0.9-1.7,1.3-3.1,1.3c-0.7,0-1.3-0.1-1.8-0.4
		c-0.5-0.2-1-0.6-1.3-1s-0.6-1-0.8-1.6C40.1,310,40,309.4,40,308.6z M42,308.6c0,0.5,0,1,0.1,1.4c0.1,0.4,0.2,0.8,0.4,1.1
		c0.2,0.3,0.4,0.5,0.7,0.7c0.3,0.2,0.6,0.3,1,0.3c0.7,0,1.2-0.3,1.6-0.8c0.4-0.5,0.6-1.4,0.6-2.6c0-0.5,0-0.9-0.1-1.3
		c-0.1-0.4-0.2-0.8-0.4-1.1c-0.2-0.3-0.4-0.5-0.7-0.7c-0.3-0.2-0.6-0.3-1-0.3c-0.7,0-1.2,0.3-1.6,0.8C42.2,306.6,42,307.4,42,308.6z
		"/>
	<path class="st12" d="M52.2,308.4l-0.8-1.5h-0.1l0.2,1.5v5.1h-1.8v-9.9h1.4l3.7,5.2l0.7,1.5h0.1l-0.2-1.5v-5.2h1.8v9.9h-1.4
		L52.2,308.4z"/>
	<path class="st12" d="M66.7,310.9c0-0.3-0.1-0.5-0.3-0.7c-0.2-0.2-0.5-0.4-0.8-0.5c-0.3-0.2-0.7-0.3-1.1-0.5s-0.7-0.4-1.1-0.6
		c-0.3-0.2-0.6-0.5-0.8-0.9c-0.2-0.4-0.3-0.8-0.3-1.4c0-0.5,0.1-0.9,0.2-1.2c0.2-0.4,0.4-0.6,0.7-0.9s0.6-0.4,1-0.5s0.8-0.2,1.3-0.2
		c0.6,0,1.1,0,1.6,0.1c0.5,0.1,0.9,0.2,1.2,0.4l-0.6,1.6c-0.2-0.1-0.5-0.2-0.9-0.4s-0.9-0.2-1.3-0.2c-0.4,0-0.8,0.1-1,0.3
		c-0.2,0.2-0.4,0.4-0.4,0.7c0,0.3,0.1,0.5,0.3,0.7c0.2,0.2,0.5,0.4,0.8,0.5c0.3,0.2,0.7,0.3,1.1,0.5s0.7,0.4,1.1,0.6
		c0.3,0.2,0.6,0.5,0.8,0.9c0.2,0.4,0.3,0.8,0.3,1.3s-0.1,1-0.3,1.4c-0.2,0.4-0.4,0.7-0.7,0.9c-0.3,0.3-0.7,0.4-1.1,0.6
		c-0.4,0.1-0.9,0.2-1.5,0.2c-0.7,0-1.3-0.1-1.8-0.2c-0.5-0.1-0.9-0.3-1.2-0.4l0.6-1.6c0.1,0.1,0.2,0.1,0.4,0.2
		c0.2,0.1,0.3,0.1,0.6,0.2c0.2,0.1,0.4,0.1,0.7,0.1c0.2,0,0.5,0.1,0.7,0.1c0.6,0,1-0.1,1.3-0.3S66.7,311.2,66.7,310.9z"/>
	<path class="st12" d="M69.9,303.7h5.8v1.7h-3.9v2.3h3.5v1.7h-3.5v2.4h4v1.7h-5.9V303.7z"/>
	<path class="st12" d="M77.2,303.8c0.4-0.1,0.8-0.1,1.3-0.2s0.9-0.1,1.4-0.1c0.5,0,1,0,1.5,0.1c0.5,0.1,0.9,0.2,1.3,0.5
		c0.4,0.2,0.7,0.6,1,1c0.2,0.4,0.4,1,0.4,1.7c0,0.6-0.1,1.1-0.3,1.6s-0.5,0.8-0.9,1c-0.4,0.3-0.8,0.5-1.2,0.6s-0.9,0.2-1.4,0.2
		c0,0-0.1,0-0.2,0c-0.1,0-0.2,0-0.3,0c-0.1,0-0.2,0-0.3,0c-0.1,0-0.2,0-0.2,0v3.4h-1.9V303.8z M80,305.2c-0.2,0-0.4,0-0.5,0
		c-0.2,0-0.3,0-0.4,0v3.2c0,0,0.1,0,0.2,0c0.1,0,0.2,0,0.2,0c0.1,0,0.2,0,0.2,0c0.1,0,0.1,0,0.2,0c0.3,0,0.5,0,0.7-0.1
		c0.2,0,0.5-0.1,0.7-0.3c0.2-0.1,0.4-0.3,0.5-0.5s0.2-0.5,0.2-0.9c0-0.3-0.1-0.6-0.2-0.8c-0.1-0.2-0.3-0.4-0.4-0.5
		c-0.2-0.1-0.4-0.2-0.6-0.3C80.5,305.2,80.3,305.2,80,305.2z"/>
	<path class="st12" d="M90.7,312.1c0.6,0,1-0.2,1.3-0.5c0.3-0.3,0.5-0.7,0.5-1.1c0-0.5-0.2-0.9-0.5-1.2s-0.8-0.4-1.5-0.4h-1v-1
		l1.7-2.3l0.8-0.6l-1.1,0.1h-2.4v-1.5h5.3v1l-2,2.6l-0.6,0.4v0.1l0.6-0.1c0.3,0,0.6,0.1,0.9,0.2c0.3,0.1,0.6,0.3,0.8,0.5
		s0.4,0.5,0.5,0.8s0.2,0.7,0.2,1.2c0,0.6-0.1,1-0.3,1.4c-0.2,0.4-0.4,0.7-0.8,1c-0.3,0.3-0.7,0.5-1.1,0.6s-0.9,0.2-1.4,0.2
		c-0.4,0-0.8,0-1.3-0.1c-0.4-0.1-0.8-0.2-1.1-0.3l0.5-1.5c0.2,0.1,0.5,0.2,0.8,0.3C90,312.1,90.3,312.1,90.7,312.1z"/>
	<path class="st12" d="M95.8,308.6c0-1.7,0.3-3,0.9-3.8c0.6-0.8,1.4-1.3,2.5-1.3c1.2,0,2,0.4,2.6,1.2s0.8,2.1,0.8,3.8
		c0,1.7-0.3,3-0.9,3.8c-0.6,0.8-1.4,1.3-2.5,1.3c-1.2,0-2-0.4-2.6-1.3C96.1,311.5,95.8,310.2,95.8,308.6z M97.7,308.6
		c0,1.1,0.1,2,0.4,2.6c0.2,0.6,0.7,0.9,1.2,0.9c0.6,0,1-0.3,1.2-0.9c0.3-0.6,0.4-1.5,0.4-2.7c0-1.1-0.1-2-0.4-2.6s-0.7-0.9-1.2-0.9
		c-0.6,0-1,0.3-1.2,0.9C97.8,306.5,97.7,307.4,97.7,308.6z"/>
	<path class="st12" d="M113.4,306.1c0,0.5-0.1,1-0.3,1.4c-0.2,0.5-0.4,1-0.7,1.4s-0.6,0.9-0.9,1.4c-0.3,0.4-0.6,0.8-0.9,1.2
		l-0.7,0.6v0.1l1-0.2h2.7v1.5h-5.9v-0.9c0.2-0.2,0.5-0.5,0.8-0.8c0.3-0.3,0.6-0.6,0.8-1s0.6-0.7,0.8-1.1s0.5-0.7,0.7-1.1
		s0.4-0.7,0.5-1.1c0.1-0.4,0.2-0.7,0.2-1c0-0.4-0.1-0.7-0.3-0.9s-0.6-0.4-1-0.4c-0.3,0-0.6,0.1-0.9,0.2c-0.3,0.1-0.6,0.3-0.8,0.5
		l-0.7-1.3c0.4-0.3,0.8-0.5,1.2-0.7c0.5-0.2,1-0.3,1.6-0.3c0.4,0,0.8,0.1,1.1,0.2s0.6,0.3,0.9,0.5c0.2,0.2,0.4,0.5,0.6,0.8
		S113.4,305.7,113.4,306.1z"/>
	<path class="st12" d="M115.3,308.6c0-1.7,0.3-3,0.9-3.8c0.6-0.8,1.4-1.3,2.5-1.3c1.2,0,2,0.4,2.6,1.2s0.8,2.1,0.8,3.8
		c0,1.7-0.3,3-0.9,3.8c-0.6,0.8-1.4,1.3-2.5,1.3c-1.2,0-2-0.4-2.6-1.3C115.5,311.5,115.3,310.2,115.3,308.6z M117.1,308.6
		c0,1.1,0.1,2,0.4,2.6c0.2,0.6,0.7,0.9,1.2,0.9c0.6,0,1-0.3,1.2-0.9c0.3-0.6,0.4-1.5,0.4-2.7c0-1.1-0.1-2-0.4-2.6s-0.7-0.9-1.2-0.9
		c-0.6,0-1,0.3-1.2,0.9C117.2,306.5,117.1,307.4,117.1,308.6z"/>
	<path class="st12" d="M124,311.9h1.9v-5.5l0.2-1l-0.7,0.8l-1.2,0.9l-0.8-1l3.2-2.6h1v8.4h1.9v1.5H124V311.9z"/>
	<path class="st12" d="M131.2,306.8c0-0.5,0.1-0.9,0.2-1.3c0.1-0.4,0.4-0.7,0.6-1c0.3-0.3,0.6-0.5,1-0.7c0.4-0.2,0.9-0.2,1.4-0.2
		c1.1,0,1.9,0.3,2.5,0.9s0.9,1.5,0.9,2.8c0,1.1-0.1,2-0.4,2.8c-0.3,0.8-0.6,1.4-1.1,2c-0.5,0.5-1,0.9-1.6,1.2
		c-0.6,0.3-1.2,0.4-1.9,0.5l-0.4-1.4c0.5-0.1,1-0.2,1.4-0.4c0.4-0.2,0.7-0.4,1-0.7c0.3-0.3,0.5-0.6,0.7-0.9c0.2-0.3,0.3-0.7,0.4-1.1
		c-0.2,0.2-0.5,0.4-0.7,0.5c-0.3,0.1-0.6,0.1-1,0.1c-0.4,0-0.7-0.1-1.1-0.2c-0.4-0.1-0.7-0.3-0.9-0.6s-0.5-0.6-0.7-0.9
		C131.3,307.7,131.2,307.3,131.2,306.8z M133,306.7c0,0.5,0.1,0.9,0.4,1.2s0.7,0.4,1.1,0.4c0.4,0,0.7-0.1,0.9-0.2
		c0.2-0.1,0.4-0.3,0.6-0.4c0-0.2,0-0.4,0-0.6c0-0.3,0-0.5-0.1-0.8s-0.2-0.5-0.3-0.7c-0.1-0.2-0.3-0.4-0.5-0.5
		c-0.2-0.1-0.5-0.2-0.7-0.2c-0.5,0-0.8,0.1-1.1,0.4S133,306.1,133,306.7z"/>
</g>
</svg>
