<svg width="1440" height="1549" viewBox="0 0 1440 1549" fill="none" xmlns="http://www.w3.org/2000/svg">
<g clip-path="url(#clip0)">
<rect width="1440" height="1549" fill="#35808F"/>
<rect x="731" y="315" width="13" height="13" fill="#E8F7FA" fill-opacity="0.58"/>
<rect x="504" y="344" width="13" height="13" fill="#E8F7FA" fill-opacity="0.58"/>
<rect x="244" y="337" width="13" height="13" fill="#E8F7FA" fill-opacity="0.58"/>
<rect x="220" y="376" width="7" height="7" fill="#E8F7FA" fill-opacity="0.58"/>
<rect x="158.186" y="240.854" width="13" height="13" transform="rotate(-90 158.186 240.854)" fill="#E8F7FA" fill-opacity="0.58"/>
<rect x="159.077" y="305.466" width="15" height="15" transform="rotate(-90 159.077 305.466)" fill="#E8F7FA" fill-opacity="0.58"/>
<rect x="159.077" y="305.466" width="15" height="15" transform="rotate(-90 159.077 305.466)" fill="#E8F7FA" fill-opacity="0.58"/>
<rect x="193.937" y="268.714" width="7" height="7" transform="rotate(-90 193.937 268.714)" fill="#E8F7FA" fill-opacity="0.58"/>
<rect x="194" y="408" width="14" height="14" fill="#E8F7FA" fill-opacity="0.58"/>
<rect width="13" height="13" transform="matrix(4.37114e-08 1 1 -4.37114e-08 85.5344 461.923)" fill="#E8F7FA" fill-opacity="0.58"/>
<rect width="10" height="10" transform="matrix(4.37114e-08 1 1 -4.37114e-08 146.534 484.923)" fill="#E8F7FA" fill-opacity="0.58"/>
<rect width="15" height="15" transform="matrix(4.37114e-08 1 1 -4.37114e-08 93.5344 397.923)" fill="#E8F7FA" fill-opacity="0.58"/>
<rect width="15" height="15" transform="matrix(4.37114e-08 1 1 -4.37114e-08 93.5344 397.923)" fill="#E8F7FA" fill-opacity="0.58"/>
<rect width="15" height="15" transform="matrix(-1 4.37114e-08 4.37114e-08 1 54 377)" fill="#E8F7FA" fill-opacity="0.58"/>
<rect width="15" height="15" transform="matrix(-1 4.37114e-08 4.37114e-08 1 54 377)" fill="#E8F7FA" fill-opacity="0.58"/>
<rect width="13" height="13" transform="matrix(4.37114e-08 1 1 -4.37114e-08 1402 184)" fill="#E8F7FA" fill-opacity="0.58"/>
<rect width="15" height="15" transform="matrix(4.37114e-08 1 1 -4.37114e-08 1410 111)" fill="#E8F7FA" fill-opacity="0.58"/>
<rect width="15" height="15" transform="matrix(4.37114e-08 1 1 -4.37114e-08 1410 111)" fill="#E8F7FA" fill-opacity="0.58"/>
<rect width="13" height="13" transform="matrix(4.37114e-08 1 1 -4.37114e-08 1412 379)" fill="#E8F7FA" fill-opacity="0.58"/>
<rect width="15" height="15" transform="matrix(4.37114e-08 1 1 -4.37114e-08 1420 315)" fill="#E8F7FA" fill-opacity="0.58"/>
<rect width="15" height="15" transform="matrix(4.37114e-08 1 1 -4.37114e-08 1420 315)" fill="#E8F7FA" fill-opacity="0.58"/>
<rect width="15" height="15" transform="matrix(-1 0 0 1 92 262.146)" fill="#E8F7FA" fill-opacity="0.58"/>
<rect width="15" height="15" transform="matrix(-1 0 0 1 92 262.146)" fill="#E8F7FA" fill-opacity="0.58"/>
<rect width="7" height="7" transform="matrix(-1 0 0 1 52 293.146)" fill="#E8F7FA" fill-opacity="0.58"/>
<rect width="13" height="13" transform="matrix(0 -1 -1 0 113.814 158)" fill="#E8F7FA" fill-opacity="0.58"/>
<rect width="15" height="15" transform="matrix(0 -1 -1 0 112.923 222.612)" fill="#E8F7FA" fill-opacity="0.58"/>
<rect width="15" height="15" transform="matrix(0 -1 -1 0 112.923 222.612)" fill="#E8F7FA" fill-opacity="0.58"/>
<rect width="7" height="7" transform="matrix(0 -1 -1 0 78.0627 185.86)" fill="#E8F7FA" fill-opacity="0.58"/>
<rect width="14" height="14" transform="matrix(-1 0 0 1 78 325.146)" fill="#E8F7FA" fill-opacity="0.58"/>
<rect x="354" y="247" width="13" height="13" transform="rotate(-90 354 247)" fill="#E8F7FA" fill-opacity="0.58"/>
<rect x="415" y="224" width="10" height="10" transform="rotate(-90 415 224)" fill="#E8F7FA" fill-opacity="0.58"/>
<rect x="362" y="311" width="15" height="15" transform="rotate(-90 362 311)" fill="#E8F7FA" fill-opacity="0.58"/>
<rect x="393" y="271" width="7" height="7" transform="rotate(-90 393 271)" fill="#E8F7FA" fill-opacity="0.58"/>
<rect x="310" y="307" width="7" height="7" transform="rotate(-90 310 307)" fill="#E8F7FA" fill-opacity="0.58"/>
<rect x="425" y="297" width="14" height="14" transform="rotate(-90 425 297)" fill="#E8F7FA" fill-opacity="0.58"/>
<rect x="549" y="191" width="10" height="10" fill="#E8F7FA" fill-opacity="0.58"/>
<rect x="490" y="178" width="7" height="7" fill="#E8F7FA" fill-opacity="0.58"/>
<rect x="549" y="191" width="10" height="10" fill="#E8F7FA" fill-opacity="0.58"/>
<rect x="490" y="178" width="7" height="7" fill="#E8F7FA" fill-opacity="0.58"/>
<rect x="656" y="237" width="10" height="10" transform="rotate(-90 656 237)" fill="#E8F7FA" fill-opacity="0.58"/>
<rect x="634" y="284" width="7" height="7" transform="rotate(-90 634 284)" fill="#E8F7FA" fill-opacity="0.58"/>
<rect x="666" y="310" width="14" height="14" transform="rotate(-90 666 310)" fill="#E8F7FA" fill-opacity="0.58"/>
<rect x="499" y="291" width="7" height="7" transform="rotate(-90 499 291)" fill="#E8F7FA" fill-opacity="0.58"/>
<rect x="549" y="191" width="10" height="10" fill="#E8F7FA" fill-opacity="0.58"/>
<rect x="549" y="191" width="10" height="10" fill="#E8F7FA" fill-opacity="0.58"/>
<rect x="656" y="237" width="10" height="10" transform="rotate(-90 656 237)" fill="#E8F7FA" fill-opacity="0.58"/>
<rect x="634" y="284" width="7" height="7" transform="rotate(-90 634 284)" fill="#E8F7FA" fill-opacity="0.58"/>
<rect x="499" y="291" width="7" height="7" transform="rotate(-90 499 291)" fill="#E8F7FA" fill-opacity="0.58"/>
<rect x="186" y="178" width="13" height="13" transform="rotate(-90 186 178)" fill="#E8F7FA" fill-opacity="0.58"/>
<rect x="247" y="155" width="10" height="10" transform="rotate(-90 247 155)" fill="#E8F7FA" fill-opacity="0.58"/>
<rect x="225" y="202" width="7" height="7" transform="rotate(-90 225 202)" fill="#E8F7FA" fill-opacity="0.58"/>
<rect x="322" y="109" width="7" height="7" fill="#E8F7FA" fill-opacity="0.58"/>
<rect x="296" y="141" width="14" height="14" fill="#E8F7FA" fill-opacity="0.58"/>
<rect x="322" y="109" width="7" height="7" fill="#E8F7FA" fill-opacity="0.58"/>
<rect x="296" y="141" width="14" height="14" fill="#E8F7FA" fill-opacity="0.58"/>
<rect x="331" y="222" width="7" height="7" transform="rotate(-90 331 222)" fill="#E8F7FA" fill-opacity="0.58"/>
<rect x="1276" y="349" width="13" height="13" fill="#E8F7FA" fill-opacity="0.58"/>
<rect x="1314" y="262" width="26" height="26" fill="#E8F7FA" fill-opacity="0.58"/>
<rect x="1190.19" y="252.854" width="13" height="13" transform="rotate(-90 1190.19 252.854)" fill="#E8F7FA" fill-opacity="0.58"/>
<rect x="1225.94" y="280.714" width="7" height="7" transform="rotate(-90 1225.94 280.714)" fill="#E8F7FA" fill-opacity="0.58"/>
<rect width="15" height="15" transform="matrix(-1 0 0 1 996 242)" fill="#E8F7FA" fill-opacity="0.58"/>
<rect width="15" height="15" transform="matrix(-1 0 0 1 996 242)" fill="#E8F7FA" fill-opacity="0.58"/>
<rect width="13" height="13" transform="matrix(0 -1 -1 0 1145.81 170)" fill="#E8F7FA" fill-opacity="0.58"/>
<rect width="15" height="15" transform="matrix(0 -1 -1 0 1144.92 234.612)" fill="#E8F7FA" fill-opacity="0.58"/>
<rect width="15" height="15" transform="matrix(0 -1 -1 0 1144.92 234.612)" fill="#E8F7FA" fill-opacity="0.58"/>
<rect width="7" height="7" transform="matrix(0 -1 -1 0 1110.06 197.86)" fill="#E8F7FA" fill-opacity="0.58"/>
<rect x="1386" y="259" width="13" height="13" transform="rotate(-90 1386 259)" fill="#E8F7FA" fill-opacity="0.58"/>
<rect x="1342" y="319" width="7" height="7" transform="rotate(-90 1342 319)" fill="#E8F7FA" fill-opacity="0.58"/>
<rect width="15" height="15" transform="matrix(4.37114e-08 1 1 -4.37114e-08 1381 480)" fill="#E8F7FA" fill-opacity="0.58"/>
<rect width="15" height="15" transform="matrix(4.37114e-08 1 1 -4.37114e-08 1381 480)" fill="#E8F7FA" fill-opacity="0.58"/>
<rect width="7" height="7" transform="matrix(4.37114e-08 1 1 -4.37114e-08 1412 520)" fill="#E8F7FA" fill-opacity="0.58"/>
<rect x="1361" y="436" width="15" height="15" transform="rotate(-90 1361 436)" fill="#E8F7FA" fill-opacity="0.58"/>
<rect x="1257" y="443" width="7" height="7" transform="rotate(-90 1257 443)" fill="#E8F7FA" fill-opacity="0.58"/>
<rect x="1218" y="190" width="13" height="13" transform="rotate(-90 1218 190)" fill="#E8F7FA" fill-opacity="0.58"/>
<rect x="1279" y="167" width="10" height="10" transform="rotate(-90 1279 167)" fill="#E8F7FA" fill-opacity="0.58"/>
<rect x="1257" y="214" width="7" height="7" transform="rotate(-90 1257 214)" fill="#E8F7FA" fill-opacity="0.58"/>
<rect x="1289" y="240" width="14" height="14" transform="rotate(-90 1289 240)" fill="#E8F7FA" fill-opacity="0.58"/>
<rect x="1328" y="153" width="14" height="14" fill="#E8F7FA" fill-opacity="0.58"/>
<rect x="1328" y="153" width="14" height="14" fill="#E8F7FA" fill-opacity="0.58"/>
<rect x="1363" y="234" width="7" height="7" transform="rotate(-90 1363 234)" fill="#E8F7FA" fill-opacity="0.58"/>
<rect x="531" y="317" width="14" height="14" transform="rotate(-90 531 317)" fill="#E8F7FA" fill-opacity="0.58"/>
<rect x="536" y="434" width="13" height="13" fill="#E8F7FA" fill-opacity="0.58"/>
<rect x="457" y="387" width="14" height="14" transform="rotate(-90 457 387)" fill="#E8F7FA" fill-opacity="0.58"/>
<rect x="531" y="381" width="7" height="7" transform="rotate(-90 531 381)" fill="#E8F7FA" fill-opacity="0.58"/>
<rect x="531" y="381" width="7" height="7" transform="rotate(-90 531 381)" fill="#E8F7FA" fill-opacity="0.58"/>
<rect x="280" y="492" width="13" height="13" fill="#E8F7FA" fill-opacity="0.58"/>
<rect x="275" y="439" width="7" height="7" transform="rotate(-90 275 439)" fill="#E8F7FA" fill-opacity="0.58"/>
<rect x="275" y="439" width="7" height="7" transform="rotate(-90 275 439)" fill="#E8F7FA" fill-opacity="0.58"/>
<rect x="307" y="465" width="14" height="14" transform="rotate(-90 307 465)" fill="#E8F7FA" fill-opacity="0.58"/>
<rect x="478" y="937" width="10" height="10" transform="rotate(-90 478 937)" fill="#E8F7FA" fill-opacity="0.58"/>
<rect x="456" y="984" width="7" height="7" transform="rotate(-90 456 984)" fill="#E8F7FA" fill-opacity="0.58"/>
<rect x="478" y="937" width="10" height="10" transform="rotate(-90 478 937)" fill="#E8F7FA" fill-opacity="0.58"/>
<rect x="456" y="984" width="7" height="7" transform="rotate(-90 456 984)" fill="#E8F7FA" fill-opacity="0.58"/>
<rect x="488" y="1010" width="14" height="14" transform="rotate(-90 488 1010)" fill="#E8F7FA" fill-opacity="0.58"/>
<rect x="841" y="124" width="13" height="13" transform="rotate(-90 841 124)" fill="#E8F7FA" fill-opacity="0.58"/>
<rect x="721" y="213" width="10" height="10" transform="rotate(180 721 213)" fill="#E8F7FA" fill-opacity="0.58"/>
<rect x="795" y="187" width="14" height="14" transform="rotate(180 795 187)" fill="#E8F7FA" fill-opacity="0.58"/>
<rect x="697" y="91" width="10" height="10" transform="rotate(-90 697 91)" fill="#E8F7FA" fill-opacity="0.58"/>
<rect x="707" y="164" width="14" height="14" transform="rotate(-90 707 164)" fill="#E8F7FA" fill-opacity="0.58"/>
<rect x="697" y="91" width="10" height="10" transform="rotate(-90 697 91)" fill="#E8F7FA" fill-opacity="0.58"/>
<rect x="707" y="164" width="14" height="14" transform="rotate(-90 707 164)" fill="#E8F7FA" fill-opacity="0.58"/>
<rect x="860" y="819" width="14" height="14" transform="rotate(180 860 819)" fill="#E8F7FA" fill-opacity="0.58"/>
<rect x="752" y="725" width="14" height="14" transform="rotate(-90 752 725)" fill="#E8F7FA" fill-opacity="0.58"/>
<rect x="752" y="725" width="14" height="14" transform="rotate(-90 752 725)" fill="#E8F7FA" fill-opacity="0.58"/>
<rect x="819" y="32" width="13" height="13" transform="rotate(-90 819 32)" fill="#E8F7FA" fill-opacity="0.58"/>
<rect x="742" y="91" width="10" height="10" transform="rotate(180 742 91)" fill="#E8F7FA" fill-opacity="0.58"/>
<rect x="789" y="113" width="7" height="7" transform="rotate(180 789 113)" fill="#E8F7FA" fill-opacity="0.58"/>
<rect x="815" y="81" width="14" height="14" transform="rotate(180 815 81)" fill="#E8F7FA" fill-opacity="0.58"/>
<rect x="626" y="137" width="13" height="13" fill="#E8F7FA" fill-opacity="0.58"/>
<rect x="399" y="166" width="13" height="13" fill="#E8F7FA" fill-opacity="0.58"/>
<rect x="432" y="22" width="10" height="10" fill="#E8F7FA" fill-opacity="0.58"/>
<rect x="385" width="7" height="7" fill="#E8F7FA" fill-opacity="0.58"/>
<rect x="359" y="32" width="14" height="14" fill="#E8F7FA" fill-opacity="0.58"/>
<rect x="432" y="22" width="10" height="10" fill="#E8F7FA" fill-opacity="0.58"/>
<rect x="385" width="7" height="7" fill="#E8F7FA" fill-opacity="0.58"/>
<rect x="359" y="32" width="14" height="14" fill="#E8F7FA" fill-opacity="0.58"/>
<rect x="551" y="59" width="10" height="10" transform="rotate(-90 551 59)" fill="#E8F7FA" fill-opacity="0.58"/>
<rect x="541" y="97" width="7" height="7" transform="rotate(-90 541 97)" fill="#E8F7FA" fill-opacity="0.58"/>
<rect x="573" y="123" width="14" height="14" transform="rotate(-90 573 123)" fill="#E8F7FA" fill-opacity="0.58"/>
<rect x="491" y="144" width="13" height="13" fill="#E8F7FA" fill-opacity="0.58"/>
<rect x="416" y="66" width="10" height="10" transform="rotate(-90 416 66)" fill="#E8F7FA" fill-opacity="0.58"/>
<rect x="394" y="113" width="7" height="7" transform="rotate(-90 394 113)" fill="#E8F7FA" fill-opacity="0.58"/>
<rect x="426" y="139" width="14" height="14" transform="rotate(-90 426 139)" fill="#E8F7FA" fill-opacity="0.58"/>
<rect x="812" y="177" width="13" height="13" transform="rotate(-90 812 177)" fill="#E8F7FA" fill-opacity="0.58"/>
<rect x="776" y="385" width="10" height="10" transform="rotate(-90 776 385)" fill="#E8F7FA" fill-opacity="0.58"/>
<rect x="675" y="418" width="7" height="7" transform="rotate(-90 675 418)" fill="#E8F7FA" fill-opacity="0.58"/>
<rect x="707" y="444" width="14" height="14" transform="rotate(-90 707 444)" fill="#E8F7FA" fill-opacity="0.58"/>
<rect x="776" y="385" width="10" height="10" transform="rotate(-90 776 385)" fill="#E8F7FA" fill-opacity="0.58"/>
<rect x="675" y="418" width="7" height="7" transform="rotate(-90 675 418)" fill="#E8F7FA" fill-opacity="0.58"/>
<rect x="707" y="444" width="14" height="14" transform="rotate(-90 707 444)" fill="#E8F7FA" fill-opacity="0.58"/>
<rect x="734" y="252" width="10" height="10" transform="rotate(180 734 252)" fill="#E8F7FA" fill-opacity="0.58"/>
<rect x="1168" y="438" width="10" height="10" transform="rotate(-90 1168 438)" fill="#E8F7FA" fill-opacity="0.58"/>
<rect x="1285" y="403" width="10" height="10" transform="rotate(180 1285 403)" fill="#E8F7FA" fill-opacity="0.58"/>
<rect x="1320" y="854" width="7" height="7" transform="rotate(-90 1320 854)" fill="#E8F7FA" fill-opacity="0.58"/>
<rect x="1246" y="453" width="10" height="10" transform="rotate(180 1246 453)" fill="#E8F7FA" fill-opacity="0.58"/>
<rect x="297" y="968" width="7" height="7" transform="rotate(-90 297 968)" fill="#E8F7FA" fill-opacity="0.58"/>
<rect x="208" y="963" width="10" height="10" transform="rotate(-90 208 963)" fill="#E8F7FA" fill-opacity="0.58"/>
<rect x="273" y="939" width="10" height="10" transform="rotate(180 273 939)" fill="#E8F7FA" fill-opacity="0.58"/>
<rect x="286" y="978" width="10" height="10" transform="rotate(180 286 978)" fill="#E8F7FA" fill-opacity="0.58"/>
<rect x="781" y="274" width="7" height="7" transform="rotate(180 781 274)" fill="#E8F7FA" fill-opacity="0.58"/>
<rect x="1090" y="841" width="7" height="7" transform="rotate(180 1090 841)" fill="#E8F7FA" fill-opacity="0.58"/>
<rect x="807" y="242" width="14" height="14" transform="rotate(180 807 242)" fill="#E8F7FA" fill-opacity="0.58"/>
<rect x="819" y="312" width="13" height="13" transform="rotate(-90 819 312)" fill="#E8F7FA" fill-opacity="0.58"/>
<rect x="820" y="401" width="10" height="10" transform="rotate(180 820 401)" fill="#E8F7FA" fill-opacity="0.58"/>
<rect x="80" y="554" width="13" height="13" fill="#E8F7FA" fill-opacity="0.58"/>
<rect x="46" y="610" width="10" height="10" transform="rotate(-90 46 610)" fill="#E8F7FA" fill-opacity="0.58"/>
<rect x="24" y="657" width="7" height="7" transform="rotate(-90 24 657)" fill="#E8F7FA" fill-opacity="0.58"/>
<rect x="56" y="683" width="14" height="14" transform="rotate(-90 56 683)" fill="#E8F7FA" fill-opacity="0.58"/>
<rect x="46" y="610" width="10" height="10" transform="rotate(-90 46 610)" fill="#E8F7FA" fill-opacity="0.58"/>
<rect x="24" y="657" width="7" height="7" transform="rotate(-90 24 657)" fill="#E8F7FA" fill-opacity="0.58"/>
<rect x="56" y="683" width="14" height="14" transform="rotate(-90 56 683)" fill="#E8F7FA" fill-opacity="0.58"/>
<rect x="90" y="626" width="10" height="10" transform="rotate(180 90 626)" fill="#E8F7FA" fill-opacity="0.58"/>
<rect x="74" y="730" width="10" height="10" transform="rotate(-90 74 730)" fill="#E8F7FA" fill-opacity="0.58"/>
<rect x="52" y="777" width="7" height="7" transform="rotate(-90 52 777)" fill="#E8F7FA" fill-opacity="0.58"/>
<rect x="84" y="803" width="14" height="14" transform="rotate(-90 84 803)" fill="#E8F7FA" fill-opacity="0.58"/>
<rect x="74" y="730" width="10" height="10" transform="rotate(-90 74 730)" fill="#E8F7FA" fill-opacity="0.58"/>
<rect x="52" y="777" width="7" height="7" transform="rotate(-90 52 777)" fill="#E8F7FA" fill-opacity="0.58"/>
<rect x="84" y="803" width="14" height="14" transform="rotate(-90 84 803)" fill="#E8F7FA" fill-opacity="0.58"/>
<rect x="118" y="746" width="10" height="10" transform="rotate(180 118 746)" fill="#E8F7FA" fill-opacity="0.58"/>
<rect x="222" y="579" width="10" height="10" fill="#E8F7FA" fill-opacity="0.58"/>
<rect x="188" y="542" width="7" height="7" fill="#E8F7FA" fill-opacity="0.58"/>
<rect x="201.673" y="605.774" width="10" height="10" transform="rotate(-75 201.673 605.774)" fill="#E8F7FA" fill-opacity="0.58"/>
<rect x="728" y="600" width="13" height="13" fill="#E8F7FA" fill-opacity="0.58"/>
<rect x="694" y="656" width="10" height="10" transform="rotate(-90 694 656)" fill="#E8F7FA" fill-opacity="0.58"/>
<rect x="672" y="703" width="7" height="7" transform="rotate(-90 672 703)" fill="#E8F7FA" fill-opacity="0.58"/>
<rect x="694" y="656" width="10" height="10" transform="rotate(-90 694 656)" fill="#E8F7FA" fill-opacity="0.58"/>
<rect x="580" y="583" width="14" height="14" transform="rotate(-90 580 583)" fill="#E8F7FA" fill-opacity="0.58"/>
<rect x="611" y="644" width="10" height="10" transform="rotate(-90 611 644)" fill="#E8F7FA" fill-opacity="0.58"/>
<rect x="611" y="644" width="10" height="10" transform="rotate(-90 611 644)" fill="#E8F7FA" fill-opacity="0.58"/>
<rect x="672" y="703" width="7" height="7" transform="rotate(-90 672 703)" fill="#E8F7FA" fill-opacity="0.58"/>
<rect x="738" y="672" width="10" height="10" transform="rotate(180 738 672)" fill="#E8F7FA" fill-opacity="0.58"/>
<rect x="785" y="694" width="7" height="7" transform="rotate(180 785 694)" fill="#E8F7FA" fill-opacity="0.58"/>
<rect x="715" y="804" width="14" height="14" transform="rotate(-90 715 804)" fill="#E8F7FA" fill-opacity="0.58"/>
<rect x="715" y="804" width="14" height="14" transform="rotate(-90 715 804)" fill="#E8F7FA" fill-opacity="0.58"/>
<rect x="701" y="751" width="10" height="10" transform="rotate(180 701 751)" fill="#E8F7FA" fill-opacity="0.58"/>
<rect x="545" y="723" width="14" height="14" transform="rotate(-90 545 723)" fill="#E8F7FA" fill-opacity="0.58"/>
<rect x="545" y="723" width="14" height="14" transform="rotate(-90 545 723)" fill="#E8F7FA" fill-opacity="0.58"/>
<rect x="465" y="701" width="7" height="7" transform="rotate(-90 465 701)" fill="#E8F7FA" fill-opacity="0.58"/>
<rect x="465" y="701" width="7" height="7" transform="rotate(-90 465 701)" fill="#E8F7FA" fill-opacity="0.58"/>
<rect x="531" y="670" width="10" height="10" transform="rotate(180 531 670)" fill="#E8F7FA" fill-opacity="0.58"/>
<rect x="494" y="749" width="10" height="10" transform="rotate(180 494 749)" fill="#E8F7FA" fill-opacity="0.58"/>
<rect x="221.562" y="746.39" width="14" height="14" fill="#E8F7FA" fill-opacity="0.58"/>
<rect x="285.053" y="685.545" width="7" height="7" transform="rotate(30 285.053 685.545)" fill="#E8F7FA" fill-opacity="0.58"/>
<rect x="748" y="773" width="7" height="7" transform="rotate(180 748 773)" fill="#E8F7FA" fill-opacity="0.58"/>
<rect x="1288" y="712" width="13" height="13" transform="rotate(-180 1288 712)" fill="#E8F7FA" fill-opacity="0.58"/>
<rect x="1353" y="717" width="14" height="14" transform="rotate(90 1353 717)" fill="#E8F7FA" fill-opacity="0.58"/>
<rect x="1322" y="656" width="10" height="10" transform="rotate(90 1322 656)" fill="#E8F7FA" fill-opacity="0.58"/>
<rect x="1344" y="609" width="7" height="7" transform="rotate(90 1344 609)" fill="#E8F7FA" fill-opacity="0.58"/>
<rect x="1312" y="583" width="14" height="14" transform="rotate(90 1312 583)" fill="#E8F7FA" fill-opacity="0.58"/>
<rect x="1322" y="656" width="10" height="10" transform="rotate(90 1322 656)" fill="#E8F7FA" fill-opacity="0.58"/>
<rect x="1344" y="609" width="7" height="7" transform="rotate(90 1344 609)" fill="#E8F7FA" fill-opacity="0.58"/>
<rect x="1312" y="583" width="14" height="14" transform="rotate(90 1312 583)" fill="#E8F7FA" fill-opacity="0.58"/>
<rect x="1278" y="640" width="10" height="10" fill="#E8F7FA" fill-opacity="0.58"/>
<rect x="1432" y="578" width="13" height="13" fill="#E8F7FA" fill-opacity="0.58"/>
<rect x="1398" y="634" width="10" height="10" transform="rotate(-90 1398 634)" fill="#E8F7FA" fill-opacity="0.58"/>
<rect x="1376" y="681" width="7" height="7" transform="rotate(-90 1376 681)" fill="#E8F7FA" fill-opacity="0.58"/>
<rect x="1398" y="634" width="10" height="10" transform="rotate(-90 1398 634)" fill="#E8F7FA" fill-opacity="0.58"/>
<rect x="1376" y="681" width="7" height="7" transform="rotate(-90 1376 681)" fill="#E8F7FA" fill-opacity="0.58"/>
<rect x="1395" y="860" width="13" height="13" transform="rotate(-180 1395 860)" fill="#E8F7FA" fill-opacity="0.58"/>
<rect x="1444" y="705" width="7" height="7" transform="rotate(90 1444 705)" fill="#E8F7FA" fill-opacity="0.58"/>
<rect x="1444" y="705" width="7" height="7" transform="rotate(90 1444 705)" fill="#E8F7FA" fill-opacity="0.58"/>
<rect x="1442" y="650" width="10" height="10" transform="rotate(-180 1442 650)" fill="#E8F7FA" fill-opacity="0.58"/>
<rect x="1231" y="618" width="7" height="7" fill="#E8F7FA" fill-opacity="0.58"/>
<rect x="796" y="953" width="10" height="10" transform="rotate(-90 796 953)" fill="#E8F7FA" fill-opacity="0.58"/>
<rect x="796" y="953" width="10" height="10" transform="rotate(-90 796 953)" fill="#E8F7FA" fill-opacity="0.58"/>
<rect x="840" y="969" width="10" height="10" transform="rotate(180 840 969)" fill="#E8F7FA" fill-opacity="0.58"/>
<rect x="737" y="874" width="10" height="10" transform="rotate(-90 737 874)" fill="#E8F7FA" fill-opacity="0.58"/>
<rect x="737" y="874" width="10" height="10" transform="rotate(-90 737 874)" fill="#E8F7FA" fill-opacity="0.58"/>
<rect x="781" y="890" width="10" height="10" transform="rotate(180 781 890)" fill="#E8F7FA" fill-opacity="0.58"/>
<rect x="333" y="760" width="10" height="10" transform="rotate(-90 333 760)" fill="#E8F7FA" fill-opacity="0.58"/>
<rect x="333" y="760" width="10" height="10" transform="rotate(-90 333 760)" fill="#E8F7FA" fill-opacity="0.58"/>
<rect x="377" y="776" width="10" height="10" transform="rotate(180 377 776)" fill="#E8F7FA" fill-opacity="0.58"/>
<rect x="913" y="959" width="14" height="14" transform="rotate(180 913 959)" fill="#E8F7FA" fill-opacity="0.58"/>
<rect x="500" y="447" width="13" height="13" fill="#E8F7FA" fill-opacity="0.58"/>
<rect x="588" y="444" width="13" height="13" transform="rotate(-90 588 444)" fill="#E8F7FA" fill-opacity="0.58"/>
<rect x="510" y="519" width="10" height="10" transform="rotate(180 510 519)" fill="#E8F7FA" fill-opacity="0.58"/>
<rect x="583" y="509" width="14" height="14" transform="rotate(180 583 509)" fill="#E8F7FA" fill-opacity="0.58"/>
<rect width="16" height="13" transform="matrix(1 7.16867e-07 1.06613e-08 -1 957 318)" fill="#E8F7FA" fill-opacity="0.58"/>
<rect x="865" y="340" width="13" height="13" transform="rotate(180 865 340)" fill="#E8F7FA" fill-opacity="0.58"/>
<rect x="962" y="371" width="7" height="7" transform="rotate(90 962 371)" fill="#E8F7FA" fill-opacity="0.58"/>
<rect width="14" height="17" transform="matrix(-1.56721e-07 1 1 1.09725e-07 989 345)" fill="#E8F7FA" fill-opacity="0.58"/>
<rect x="924" y="267" width="20" height="20" transform="rotate(-90 924 267)" fill="#E8F7FA" fill-opacity="0.58"/>
<rect x="984" y="190" width="13" height="13" transform="rotate(-90 984 190)" fill="#E8F7FA" fill-opacity="0.58"/>
<rect x="172" y="903" width="13" height="13" transform="rotate(180 172 903)" fill="#E8F7FA" fill-opacity="0.58"/>
<rect x="72" y="935" width="13" height="13" transform="rotate(180 72 935)" fill="#E8F7FA" fill-opacity="0.58"/>
<rect x="121" y="850" width="10" height="10" transform="rotate(180 121 850)" fill="#E8F7FA" fill-opacity="0.58"/>
<rect x="168" y="872" width="7" height="7" transform="rotate(180 168 872)" fill="#E8F7FA" fill-opacity="0.58"/>
<rect x="1060" y="298" width="13" height="13" transform="rotate(-90 1060 298)" fill="#E8F7FA" fill-opacity="0.58"/>
<rect x="919" y="413.534" width="15" height="15" transform="rotate(90 919 413.534)" fill="#E8F7FA" fill-opacity="0.58"/>
<rect x="919" y="413.534" width="15" height="15" transform="rotate(90 919 413.534)" fill="#E8F7FA" fill-opacity="0.58"/>
<rect x="674" y="880" width="13" height="13" transform="rotate(180 674 880)" fill="#E8F7FA" fill-opacity="0.58"/>
<rect x="582" y="902" width="13" height="13" transform="rotate(180 582 902)" fill="#E8F7FA" fill-opacity="0.58"/>
<rect x="679" y="933" width="7" height="7" transform="rotate(90 679 933)" fill="#E8F7FA" fill-opacity="0.58"/>
<rect x="647" y="907" width="14" height="14" transform="rotate(90 647 907)" fill="#E8F7FA" fill-opacity="0.58"/>
<rect width="14" height="14" transform="matrix(1 8.11706e-08 8.11706e-08 -1 1000.08 393.854)" fill="#E8F7FA" fill-opacity="0.58"/>
<rect width="16" height="13" transform="matrix(1 7.16867e-07 1.06613e-08 -1 957 318)" fill="#E8F7FA" fill-opacity="0.58"/>
<rect x="962" y="371" width="7" height="7" transform="rotate(90 962 371)" fill="#E8F7FA" fill-opacity="0.58"/>
<rect x="882" y="437" width="7" height="7" transform="rotate(90 882 437)" fill="#E8F7FA" fill-opacity="0.58"/>
<rect x="882" y="437" width="7" height="7" transform="rotate(90 882 437)" fill="#E8F7FA" fill-opacity="0.58"/>
<rect x="412" y="888" width="13" height="13" transform="rotate(180 412 888)" fill="#E8F7FA" fill-opacity="0.58"/>
<rect x="320" y="910" width="13" height="13" transform="rotate(180 320 910)" fill="#E8F7FA" fill-opacity="0.58"/>
<rect x="412" y="888" width="13" height="13" transform="rotate(180 412 888)" fill="#E8F7FA" fill-opacity="0.58"/>
<rect x="1060" y="298" width="13" height="13" transform="rotate(-90 1060 298)" fill="#E8F7FA" fill-opacity="0.58"/>
<rect width="14" height="14" transform="matrix(1 8.11706e-08 8.11706e-08 -1 1000.08 393.854)" fill="#E8F7FA" fill-opacity="0.58"/>
<rect x="1195" y="796" width="13" height="13" transform="rotate(180 1195 796)" fill="#E8F7FA" fill-opacity="0.58"/>
<rect x="1200" y="849" width="7" height="7" transform="rotate(90 1200 849)" fill="#E8F7FA" fill-opacity="0.58"/>
<rect x="1168" y="823" width="14" height="14" transform="rotate(90 1168 823)" fill="#E8F7FA" fill-opacity="0.58"/>
<rect width="14" height="14" transform="matrix(1 8.11706e-08 8.11706e-08 -1 1238.08 871.854)" fill="#E8F7FA" fill-opacity="0.58"/>
<rect x="1195" y="796" width="13" height="13" transform="rotate(180 1195 796)" fill="#E8F7FA" fill-opacity="0.58"/>
<rect x="1200" y="849" width="7" height="7" transform="rotate(90 1200 849)" fill="#E8F7FA" fill-opacity="0.58"/>
<rect width="14" height="14" transform="matrix(1 8.11706e-08 8.11706e-08 -1 1238.08 871.854)" fill="#E8F7FA" fill-opacity="0.58"/>
<rect x="934" y="840" width="13" height="13" transform="rotate(180 934 840)" fill="#E8F7FA" fill-opacity="0.58"/>
<rect x="968" y="847" width="13" height="13" transform="rotate(-90 968 847)" fill="#E8F7FA" fill-opacity="0.58"/>
<rect x="934" y="840" width="13" height="13" transform="rotate(180 934 840)" fill="#E8F7FA" fill-opacity="0.58"/>
<rect x="968" y="847" width="13" height="13" transform="rotate(-90 968 847)" fill="#E8F7FA" fill-opacity="0.58"/>
<rect width="7" height="7" transform="matrix(1 8.74228e-08 8.74228e-08 -1 1225 377)" fill="#E8F7FA" fill-opacity="0.58"/>
<rect width="13" height="13" transform="matrix(-1 8.67241e-09 8.67241e-09 1 1165 460.923)" fill="#E8F7FA" fill-opacity="0.58"/>
<rect x="1020" y="437" width="10" height="10" transform="rotate(-90 1020 437)" fill="#E8F7FA" fill-opacity="0.58"/>
<rect width="13" height="13" transform="matrix(-1 8.67241e-09 8.67241e-09 1 1017 459.923)" fill="#E8F7FA" fill-opacity="0.58"/>
<rect width="7" height="7" transform="matrix(1 8.74228e-08 8.74228e-08 -1 1132.92 882)" fill="#E8F7FA" fill-opacity="0.58"/>
<rect width="13" height="13" transform="matrix(-1 8.67241e-09 8.67241e-09 1 1188.85 932)" fill="#E8F7FA" fill-opacity="0.58"/>
<rect width="7" height="7" transform="matrix(1 8.74228e-08 8.74228e-08 -1 1132.92 882)" fill="#E8F7FA" fill-opacity="0.58"/>
<rect x="266" y="1113.15" width="14" height="14" transform="rotate(-90 266 1113.15)" fill="#E8F7FA" fill-opacity="0.58"/>
<rect x="437" y="1138.15" width="13" height="13" fill="#E8F7FA" fill-opacity="0.58"/>
<rect x="362" y="1060.15" width="10" height="10" transform="rotate(-90 362 1060.15)" fill="#E8F7FA" fill-opacity="0.58"/>
<rect x="340" y="1107.15" width="7" height="7" transform="rotate(-90 340 1107.15)" fill="#E8F7FA" fill-opacity="0.58"/>
<rect x="362" y="1060.15" width="10" height="10" transform="rotate(-90 362 1060.15)" fill="#E8F7FA" fill-opacity="0.58"/>
<rect x="340" y="1107.15" width="7" height="7" transform="rotate(-90 340 1107.15)" fill="#E8F7FA" fill-opacity="0.58"/>
<rect x="372" y="1133.15" width="14" height="14" transform="rotate(-90 372 1133.15)" fill="#E8F7FA" fill-opacity="0.58"/>
<rect x="1218.92" y="1057.22" width="7" height="7" transform="rotate(-90 1218.92 1057.22)" fill="#E8F7FA" fill-opacity="0.58"/>
<rect x="1194.92" y="1028.22" width="10" height="10" transform="rotate(180 1194.92 1028.22)" fill="#E8F7FA" fill-opacity="0.58"/>
<rect x="92" y="1086.15" width="10" height="10" transform="rotate(-90 92 1086.15)" fill="#E8F7FA" fill-opacity="0.58"/>
<rect x="157" y="1062.15" width="10" height="10" transform="rotate(180 157 1062.15)" fill="#E8F7FA" fill-opacity="0.58"/>
<rect x="170" y="1101.15" width="10" height="10" transform="rotate(180 170 1101.15)" fill="#E8F7FA" fill-opacity="0.58"/>
<rect x="924" y="1005.15" width="13" height="13" fill="#E8F7FA" fill-opacity="0.58"/>
<rect x="645" y="1031" width="13" height="13" fill="#E8F7FA" fill-opacity="0.58"/>
<rect x="611" y="1087" width="10" height="10" transform="rotate(-90 611 1087)" fill="#E8F7FA" fill-opacity="0.58"/>
<rect x="611" y="1087" width="10" height="10" transform="rotate(-90 611 1087)" fill="#E8F7FA" fill-opacity="0.58"/>
<rect x="655" y="1103" width="10" height="10" transform="rotate(180 655 1103)" fill="#E8F7FA" fill-opacity="0.58"/>
<rect x="728" y="1093" width="14" height="14" transform="rotate(180 728 1093)" fill="#E8F7FA" fill-opacity="0.58"/>
<rect x="48" y="1036.15" width="13" height="13" transform="rotate(180 48 1036.15)" fill="#E8F7FA" fill-opacity="0.58"/>
<rect x="44" y="1005.15" width="7" height="7" transform="rotate(180 44 1005.15)" fill="#E8F7FA" fill-opacity="0.58"/>
<rect x="442" y="1089.15" width="13" height="13" transform="rotate(-90 442 1089.15)" fill="#E8F7FA" fill-opacity="0.58"/>
<rect x="466" y="1025.15" width="13" height="13" transform="rotate(180 466 1025.15)" fill="#E8F7FA" fill-opacity="0.58"/>
<rect x="391" y="508" width="10" height="10" transform="rotate(-90 391 508)" fill="#E8F7FA" fill-opacity="0.58"/>
<rect x="369" y="555" width="7" height="7" transform="rotate(-90 369 555)" fill="#E8F7FA" fill-opacity="0.58"/>
<rect x="391" y="508" width="10" height="10" transform="rotate(-90 391 508)" fill="#E8F7FA" fill-opacity="0.58"/>
<rect x="369" y="555" width="7" height="7" transform="rotate(-90 369 555)" fill="#E8F7FA" fill-opacity="0.58"/>
<rect x="401" y="581" width="14" height="14" transform="rotate(-90 401 581)" fill="#E8F7FA" fill-opacity="0.58"/>
<rect x="379" y="596.146" width="13" height="13" transform="rotate(180 379 596.146)" fill="#E8F7FA" fill-opacity="0.58"/>
<rect x="296" y="1011.15" width="13" height="13" transform="rotate(180 296 1011.15)" fill="#E8F7FA" fill-opacity="0.58"/>
<rect x="301" y="1064.15" width="7" height="7" transform="rotate(90 301 1064.15)" fill="#E8F7FA" fill-opacity="0.58"/>
<rect x="296" y="1011.15" width="13" height="13" transform="rotate(180 296 1011.15)" fill="#E8F7FA" fill-opacity="0.58"/>
<rect x="301" y="1064.15" width="7" height="7" transform="rotate(90 301 1064.15)" fill="#E8F7FA" fill-opacity="0.58"/>
<rect width="14" height="14" transform="matrix(1 8.11706e-08 8.11706e-08 -1 1145 960.077)" fill="#E8F7FA" fill-opacity="0.58"/>
<rect width="14" height="14" transform="matrix(1 8.11706e-08 8.11706e-08 -1 1145 960.077)" fill="#E8F7FA" fill-opacity="0.58"/>
<rect x="1413.92" y="1003" width="7" height="7" transform="rotate(-90 1413.92 1003)" fill="#E8F7FA" fill-opacity="0.58"/>
<rect x="1389.92" y="974" width="10" height="10" transform="rotate(180 1389.92 974)" fill="#E8F7FA" fill-opacity="0.58"/>
<rect width="13" height="13" transform="matrix(-1 8.67241e-09 8.67241e-09 1 1290.77 966)" fill="#E8F7FA" fill-opacity="0.58"/>
<rect width="14" height="14" transform="matrix(1 8.11706e-08 8.11706e-08 -1 1246.92 994.077)" fill="#E8F7FA" fill-opacity="0.58"/>
<rect width="14" height="14" transform="matrix(1 8.11706e-08 8.11706e-08 -1 1246.92 994.077)" fill="#E8F7FA" fill-opacity="0.58"/>
<rect x="1083" y="1124.15" width="7" height="7" transform="rotate(-90 1083 1124.15)" fill="#E8F7FA" fill-opacity="0.58"/>
<rect x="1059" y="1095.15" width="10" height="10" transform="rotate(180 1059 1095.15)" fill="#E8F7FA" fill-opacity="0.58"/>
<rect width="14" height="14" transform="matrix(1 8.11706e-08 8.11706e-08 -1 1111 1061)" fill="#E8F7FA" fill-opacity="0.58"/>
<rect width="14" height="14" transform="matrix(1 8.11706e-08 8.11706e-08 -1 1111 1061)" fill="#E8F7FA" fill-opacity="0.58"/>
<rect x="1383.92" y="1064" width="10" height="10" transform="rotate(-90 1383.92 1064)" fill="#E8F7FA" fill-opacity="0.58"/>
<rect width="13" height="13" transform="matrix(4.37114e-08 -1 -1 -4.37114e-08 1358.92 1080)" fill="#E8F7FA" fill-opacity="0.58"/>
<rect width="13" height="13" transform="matrix(-1 8.67241e-09 8.67241e-09 1 1421.92 1098.92)" fill="#E8F7FA" fill-opacity="0.58"/>
<rect x="1321" y="1081" width="7" height="7" fill="#E8F7FA" fill-opacity="0.58"/>
<rect x="1383.92" y="1064" width="10" height="10" transform="rotate(-90 1383.92 1064)" fill="#E8F7FA" fill-opacity="0.58"/>
<rect width="13" height="13" transform="matrix(4.37114e-08 -1 -1 -4.37114e-08 1358.92 1080)" fill="#E8F7FA" fill-opacity="0.58"/>
<rect x="1321" y="1081" width="7" height="7" fill="#E8F7FA" fill-opacity="0.58"/>
<rect width="14" height="14" transform="matrix(1 8.11706e-08 8.11706e-08 -1 1378.08 1127)" fill="#E8F7FA" fill-opacity="0.58"/>
<rect width="14" height="14" transform="matrix(1 8.11706e-08 8.11706e-08 -1 1378.08 1127)" fill="#E8F7FA" fill-opacity="0.58"/>
<rect x="823" y="1016.15" width="7" height="7" transform="rotate(90 823 1016.15)" fill="#E8F7FA" fill-opacity="0.58"/>
<rect x="722" y="1001" width="14" height="14" transform="rotate(90 722 1001)" fill="#E8F7FA" fill-opacity="0.58"/>
<rect width="14" height="14" transform="matrix(1 8.11706e-08 8.11706e-08 -1 861.077 1039)" fill="#E8F7FA" fill-opacity="0.58"/>
<rect x="823" y="1016.15" width="7" height="7" transform="rotate(90 823 1016.15)" fill="#E8F7FA" fill-opacity="0.58"/>
<rect width="14" height="14" transform="matrix(1 8.11706e-08 8.11706e-08 -1 861.077 1039)" fill="#E8F7FA" fill-opacity="0.58"/>
<rect x="1044" y="950" width="10" height="10" transform="rotate(-90 1044 950)" fill="#E8F7FA" fill-opacity="0.58"/>
<rect width="13" height="13" transform="matrix(4.37114e-08 -1 -1 -4.37114e-08 1019 966)" fill="#E8F7FA" fill-opacity="0.58"/>
<rect width="7" height="7" transform="matrix(1 8.74228e-08 8.74228e-08 -1 1049 900)" fill="#E8F7FA" fill-opacity="0.58"/>
<rect width="13" height="13" transform="matrix(-1 8.67241e-09 8.67241e-09 1 1082 984.923)" fill="#E8F7FA" fill-opacity="0.58"/>
<rect x="949" y="1072.15" width="7" height="7" fill="#E8F7FA" fill-opacity="0.58"/>
<rect x="1044" y="950" width="10" height="10" transform="rotate(-90 1044 950)" fill="#E8F7FA" fill-opacity="0.58"/>
<rect width="13" height="13" transform="matrix(4.37114e-08 -1 -1 -4.37114e-08 1019 966)" fill="#E8F7FA" fill-opacity="0.58"/>
<rect width="7" height="7" transform="matrix(1 8.74228e-08 8.74228e-08 -1 1049 900)" fill="#E8F7FA" fill-opacity="0.58"/>
<rect x="949" y="1072.15" width="7" height="7" fill="#E8F7FA" fill-opacity="0.58"/>
<rect x="1119.08" y="406" width="13" height="13" transform="rotate(90 1119.08 406)" fill="#E8F7FA" fill-opacity="0.58"/>
<rect x="882" y="200" width="10" height="10" transform="rotate(90 882 200)" fill="#E8F7FA" fill-opacity="0.58"/>
<rect x="872" y="127" width="14" height="14" transform="rotate(90 872 127)" fill="#E8F7FA" fill-opacity="0.58"/>
<rect x="1073" y="80" width="13" height="13" transform="rotate(180 1073 80)" fill="#E8F7FA" fill-opacity="0.58"/>
<rect x="1087" y="246" width="7" height="7" transform="rotate(180 1087 246)" fill="#E8F7FA" fill-opacity="0.58"/>
<rect x="1087" y="246" width="7" height="7" transform="rotate(180 1087 246)" fill="#E8F7FA" fill-opacity="0.58"/>
<rect x="921" y="187" width="10" height="10" transform="rotate(90 921 187)" fill="#E8F7FA" fill-opacity="0.58"/>
<rect x="943" y="140" width="7" height="7" transform="rotate(90 943 140)" fill="#E8F7FA" fill-opacity="0.58"/>
<rect x="911" y="114" width="14" height="14" transform="rotate(90 911 114)" fill="#E8F7FA" fill-opacity="0.58"/>
<rect x="981" y="102" width="13" height="13" transform="rotate(180 981 102)" fill="#E8F7FA" fill-opacity="0.58"/>
<rect x="1078" y="133" width="7" height="7" transform="rotate(90 1078 133)" fill="#E8F7FA" fill-opacity="0.58"/>
<rect x="1046" y="107" width="14" height="14" transform="rotate(90 1046 107)" fill="#E8F7FA" fill-opacity="0.58"/>
<rect x="-2.02417" y="-3" width="114.602" height="460" fill="#E8F7FA" fill-opacity="0.2"/>
<rect x="112.578" y="-289" width="114.602" height="460" fill="#E8F7FA" fill-opacity="0.2"/>
<rect x="227.18" y="-3" width="114.602" height="103" fill="#E8F7FA" fill-opacity="0.2"/>
<rect x="-9" y="714" width="114.602" height="460" fill="#E8F7FA" fill-opacity="0.2"/>
<rect x="105.602" y="850" width="114.602" height="460" fill="#E8F7FA" fill-opacity="0.2"/>
<rect x="220.204" y="944" width="114.602" height="460" fill="#E8F7FA" fill-opacity="0.2"/>
<rect x="1087.19" y="-428" width="114.602" height="460" fill="#E8F7FA" fill-opacity="0.2"/>
<rect x="1316.4" y="-128" width="114.602" height="460" fill="#E8F7FA" fill-opacity="0.2"/>
<rect x="1201.8" y="-310" width="114.602" height="460" fill="#E8F7FA" fill-opacity="0.2"/>
<rect x="692.564" y="-76" width="114.602" height="460" fill="#E8F7FA" fill-opacity="0.2"/>
<rect x="807.166" y="-325" width="114.602" height="460" fill="#E8F7FA" fill-opacity="0.2"/>
<rect x="921.768" y="-210" width="114.602" height="460" fill="#E8F7FA" fill-opacity="0.2"/>
<rect x="1036.37" y="-308" width="114.602" height="460" fill="#E8F7FA" fill-opacity="0.2"/>
<rect x="1316.4" y="665" width="114.602" height="460" fill="#E8F7FA" fill-opacity="0.2"/>
<rect x="1201.8" y="895" width="114.602" height="460" fill="#E8F7FA" fill-opacity="0.2"/>
<rect x="1087.19" y="805" width="114.602" height="460" fill="#E8F7FA" fill-opacity="0.2"/>
<rect x="399.581" y="946" width="114.602" height="460" fill="#E8F7FA" fill-opacity="0.2"/>
<rect x="514.183" y="849" width="114.602" height="606" fill="#E8F7FA" fill-opacity="0.2"/>
<rect x="284.979" y="1089" width="114.602" height="460" fill="#E8F7FA" fill-opacity="0.2"/>
<rect x="807.166" y="810" width="114.602" height="460" fill="#E8F7FA" fill-opacity="0.2"/>
<rect x="921.768" y="953" width="114.602" height="460" fill="#E8F7FA" fill-opacity="0.2"/>
<rect x="689.574" y="953" width="117.592" height="460" fill="#E8F7FA" fill-opacity="0.2"/>
<rect x="411.54" y="-148" width="114.602" height="396" fill="#E8F7FA" fill-opacity="0.2"/>
<rect x="526.142" y="-334" width="114.602" height="460" fill="#E8F7FA" fill-opacity="0.2"/>
</g>
<defs>
<clipPath id="clip0">
<rect width="1440" height="1549" fill="white"/>
</clipPath>
</defs>
</svg>
