<svg width="596" height="398" viewBox="0 0 596 398" fill="none" xmlns="http://www.w3.org/2000/svg">
<g clip-path="url(#clip0)">
<g filter="url(#filter0_d)">
<circle cx="707.423" cy="265.658" r="112.139" fill="#F7F7F7"/>
<circle cx="281" cy="191" r="187" fill="#F7F7F7"/>
<circle cx="511.18" cy="218.934" r="158.864" fill="#F7F7F7"/>
<path d="M824 387.5C829.523 387.5 834.078 382.997 833.198 377.545C826.915 338.61 783.947 301.754 711.864 274.009C633.661 243.91 527.595 227 417 227C306.405 227 200.339 243.91 122.137 274.009C50.0527 301.754 7.08487 338.61 0.802265 377.544C-0.0775404 382.997 4.47716 387.5 10 387.5L417 387.5H824Z" fill="#F7F7F7"/>
<path d="M415.652 85.0113C411.195 74.5171 422.535 66.2718 429.199 75.5231C475.454 139.735 489.404 219.064 439.972 282.649C438.005 285.179 434.865 286.53 431.667 286.323L400.853 284.33C391.525 283.727 387.769 271.295 394.427 264.735C449.694 210.292 440.519 143.555 415.652 85.0113Z" fill="#CEEBEB"/>
<path d="M612.151 111.198C608.699 101.413 619.406 95.3493 625.582 103.686C669.154 162.497 689.098 235.756 650.666 287.078C648.745 289.643 645.605 290.975 642.407 290.768L627.561 289.808C618.234 289.205 614.37 276.607 620.481 269.535C658.523 225.515 634.239 173.806 612.151 111.198Z" fill="#CEEBEB"/>
<circle cx="449.504" cy="22.6899" r="18.6899" fill="#F7F7F7"/>
</g>
</g>
<defs>
<filter id="filter0_d" x="-174.529" y="4" width="1016.07" height="391.5" filterUnits="userSpaceOnUse" color-interpolation-filters="sRGB">
<feFlood flood-opacity="0" result="BackgroundImageFix"/>
<feColorMatrix in="SourceAlpha" type="matrix" values="0 0 0 0 0 0 0 0 0 0 0 0 0 0 0 0 0 0 127 0"/>
<feOffset dy="4"/>
<feGaussianBlur stdDeviation="2"/>
<feColorMatrix type="matrix" values="0 0 0 0 0 0 0 0 0 0 0 0 0 0 0 0 0 0 0.25 0"/>
<feBlend mode="normal" in2="BackgroundImageFix" result="effect1_dropShadow"/>
<feBlend mode="normal" in="SourceGraphic" in2="effect1_dropShadow" result="shape"/>
</filter>
<clipPath id="clip0">
<rect width="596" height="398" fill="white"/>
</clipPath>
</defs>
</svg>
