<svg width="395" height="77" viewBox="0 0 395 77" fill="none" xmlns="http://www.w3.org/2000/svg">
<g clip-path="url(#clip0)">
<g style="mix-blend-mode:soft-light" filter="url(#filter0_d)">
<path d="M10.379 67.8916C4.85614 67.8916 0.916443 63.0761 4.99072 59.3475C13.0243 51.9956 31.3323 45.1922 58.1699 39.7859C95.1728 32.3318 145.359 28.1442 197.689 28.1441C250.019 28.1441 300.206 32.3318 337.209 39.7859C364.047 45.1922 382.355 51.9956 390.388 59.3475C394.463 63.0761 390.523 67.8916 385 67.8916L197.689 67.8916H10.379Z" fill="#F7F7F7"/>
<path d="M120.284 51.5975C120.284 46.3778 121.628 41.2092 124.241 36.3868C126.853 31.5645 130.682 27.1827 135.509 23.4918C140.336 19.801 146.067 16.8732 152.374 14.8757C158.681 12.8782 165.441 11.8501 172.267 11.8501C179.094 11.8501 185.854 12.8782 192.161 14.8757C198.468 16.8732 204.198 19.801 209.025 23.4918C213.852 27.1827 217.682 31.5645 220.294 36.3868C222.906 41.2092 224.251 46.3778 224.251 51.5975L172.267 51.5975H120.284Z" fill="#F7F7F7"/>
<path d="M172.646 67.8915C172.646 49.8856 181.76 32.6171 197.985 19.885C214.209 7.15284 236.214 1.35941e-06 259.159 0C282.103 -1.35941e-06 304.108 7.15284 320.333 19.885C336.557 32.6171 345.672 49.8856 345.672 67.8915L259.159 67.8915H172.646Z" fill="#F7F7F7"/>
<path d="M10.3792 67.8915C4.8564 67.8915 0.253403 63.2974 2.07773 58.0845C5.40501 48.5772 13.5265 39.7628 25.6072 32.803C41.7604 23.497 63.6688 18.2689 86.5129 18.2689C109.357 18.2689 131.265 23.497 147.419 32.803C159.499 39.7628 167.621 48.5772 170.948 58.0845C172.772 63.2974 168.169 67.8915 162.646 67.8915L86.5129 67.8915H10.3792Z" fill="#F7F7F7"/>
<ellipse rx="10.6244" ry="6.91259" transform="matrix(-1 0 0 1 364.644 31.6005)" fill="#F7F7F7"/>
<path d="M189.368 46.5036C190.959 37.7343 185.095 29.4454 180.683 37.1892C178.629 40.7939 176.993 44.7199 175.77 49.0342C174.709 52.7786 177.702 56.2882 181.594 56.2882C185.695 56.2882 188.677 52.3535 189.112 48.2755C189.175 47.6843 189.26 47.0937 189.368 46.5036Z" fill="#CEEBEB"/>
<path d="M13.1121 59.7613C14.2139 52.3613 8.86254 44.8225 5.11541 51.2981C3.49289 54.1021 2.21899 57.1512 1.30147 60.5007C0.319057 64.087 3.04275 67.4636 6.74176 67.8436L6.86752 67.8565C7.09521 67.8799 7.32427 67.8871 7.55298 67.8781C10.6212 67.7577 12.7616 64.8113 12.9147 61.7445C12.9479 61.081 13.014 60.42 13.1121 59.7613Z" fill="#CEEBEB"/>
<path d="M144.685 24.7462C147.795 21.1723 146.908 17.1537 142.788 20.0833C141.027 21.3355 139.357 22.7623 137.764 24.3896C136.463 25.7182 136.935 27.3665 138.623 27.8493C140.429 28.3659 142.737 27.2941 143.869 25.762C144.124 25.4168 144.396 25.0784 144.685 24.7462Z" fill="#CEEBEB"/>
<rect width="33.391" height="8.88762" rx="4.44381" transform="matrix(-1 0 0 1 93.7217 1.4812)" fill="#F7F7F7"/>
<ellipse rx="5.69165" ry="3.70318" transform="matrix(-1 0 0 1 109.279 6.6657)" fill="#F7F7F7"/>
</g>
</g>
<defs>
<filter id="filter0_d" x="-2.90039" y="0" width="398.969" height="75.8916" filterUnits="userSpaceOnUse" color-interpolation-filters="sRGB">
<feFlood flood-opacity="0" result="BackgroundImageFix"/>
<feColorMatrix in="SourceAlpha" type="matrix" values="0 0 0 0 0 0 0 0 0 0 0 0 0 0 0 0 0 0 127 0"/>
<feOffset dy="4"/>
<feGaussianBlur stdDeviation="2"/>
<feColorMatrix type="matrix" values="0 0 0 0 0 0 0 0 0 0 0 0 0 0 0 0 0 0 0.25 0"/>
<feBlend mode="normal" in2="BackgroundImageFix" result="effect1_dropShadow"/>
<feBlend mode="normal" in="SourceGraphic" in2="effect1_dropShadow" result="shape"/>
</filter>
<clipPath id="clip0">
<rect width="395" height="77" fill="white"/>
</clipPath>
</defs>
</svg>
