<svg width="834" height="187" viewBox="0 0 834 187" fill="none" xmlns="http://www.w3.org/2000/svg">
<g clip-path="url(#clip0)">
<g filter="url(#filter0_d)">
<path d="M10.6398 175.937C5.11694 175.937 0.526489 171.367 2.16187 166.092C9.51068 142.387 43.2297 120.085 98.0795 103.103C160.469 83.7858 245.088 72.9337 333.32 72.9337C421.552 72.9337 506.171 83.7858 568.56 103.103C623.41 120.085 657.129 142.387 664.478 166.092C666.113 171.367 661.523 175.937 656 175.937L333.32 175.937H10.6398Z" fill="#F7F7F7"/>
<path d="M202.807 133.712C202.807 120.185 205.074 106.791 209.479 94.2944C213.883 81.7975 220.339 70.4425 228.478 60.8778C236.617 51.3131 246.28 43.726 256.914 38.5496C267.548 33.3732 278.945 30.709 290.455 30.709C301.965 30.709 313.363 33.3732 323.997 38.5496C334.631 43.726 344.293 51.3131 352.432 60.8778C360.571 70.4425 367.027 81.7975 371.432 94.2944C375.836 106.791 378.104 120.185 378.104 133.712L290.455 133.712H202.807Z" fill="#F7F7F7"/>
<path d="M291.095 175.937C291.095 129.275 306.463 84.5251 333.819 51.5306C361.174 18.5361 398.276 3.52283e-06 436.963 0C475.649 -3.52283e-06 512.751 18.5361 540.106 51.5306C567.462 84.5251 582.83 129.275 582.83 175.937L436.963 175.937H291.095Z" fill="#F7F7F7"/>
<path d="M10.6394 175.937C5.11658 175.937 0.593964 171.45 1.07776 165.949C3.75552 135.498 18.6113 106.758 43.1756 85.0072C70.4111 60.8912 107.35 47.343 145.867 47.343C184.384 47.343 221.323 60.8912 248.559 85.0072C273.123 106.758 287.979 135.498 290.656 165.949C291.14 171.45 286.618 175.937 281.095 175.937L145.867 175.937H10.6394Z" fill="#F7F7F7"/>
<path d="M340.781 64.1421C346.662 54.4733 337.267 44.8844 329.863 53.4426C311.85 74.2617 300.321 99.8179 295.07 134.816C294.188 140.696 298.839 145.867 304.785 145.867H308.038C314.201 145.867 318.858 140.332 318.675 134.172C317.977 110.618 326.548 87.5427 340.781 64.1421Z" fill="#CEEBEB"/>
<path d="M34.7404 115.94C40.0511 105.949 30.5772 96.493 23.7312 105.501C11.862 121.12 4.18693 139.929 0.967094 164.786C0.295143 169.973 3.99254 174.648 9.15923 175.464L11.214 175.788C11.8396 175.887 12.474 175.917 13.1061 175.879C18.2737 175.567 21.9963 170.852 21.7935 165.679C21.126 148.657 25.9964 132.39 34.7404 115.94Z" fill="#CEEBEB"/>
<path d="M243.693 64.5905C248.796 55.3244 245.028 46.7025 238.303 54.8672C235.884 57.8036 233.568 61.071 231.341 64.709C229.682 67.419 230.891 70.922 233.8 72.2007C236.866 73.5486 240.39 71.8097 241.69 68.723C242.288 67.3039 242.957 65.9277 243.693 64.5905Z" fill="#CEEBEB"/>
<rect width="56.2997" height="23.0317" rx="11.5159" transform="matrix(-1 0 0 1 158.023 3.83856)" fill="#F7F7F7"/>
<circle r="9.59654" transform="matrix(-1 0 0 1 184.254 17.2738)" fill="#F7F7F7"/>
</g>
<g filter="url(#filter1_d)">
<path d="M823.733 170.535C829.256 170.535 833.846 165.991 832.472 160.642C831.426 156.57 829.734 152.582 827.42 148.752C823.253 141.857 817.151 135.614 809.472 130.391C801.793 125.167 792.694 121.069 782.709 118.337C772.725 115.605 762.058 114.295 751.336 114.484C740.615 114.673 730.056 116.357 720.283 119.437C710.509 122.517 701.717 126.931 694.427 132.419C687.136 137.906 681.493 144.356 677.831 151.389C675.742 155.399 674.322 159.553 673.588 163.768C672.664 169.066 677.357 173.217 682.732 173.027L753.366 170.535H823.733Z" fill="#F7F7F7"/>
</g>
</g>
<defs>
<filter id="filter0_d" x="-3.11133" y="0" width="671.924" height="183.937" filterUnits="userSpaceOnUse" color-interpolation-filters="sRGB">
<feFlood flood-opacity="0" result="BackgroundImageFix"/>
<feColorMatrix in="SourceAlpha" type="matrix" values="0 0 0 0 0 0 0 0 0 0 0 0 0 0 0 0 0 0 127 0"/>
<feOffset dy="4"/>
<feGaussianBlur stdDeviation="2"/>
<feColorMatrix type="matrix" values="0 0 0 0 0 0 0 0 0 0 0 0 0 0 0 0 0 0 0.25 0"/>
<feBlend mode="normal" in2="BackgroundImageFix" result="effect1_dropShadow"/>
<feBlend mode="normal" in="SourceGraphic" in2="effect1_dropShadow" result="shape"/>
</filter>
<filter id="filter1_d" x="669.471" y="-207" width="1016.07" height="391.5" filterUnits="userSpaceOnUse" color-interpolation-filters="sRGB">
<feFlood flood-opacity="0" result="BackgroundImageFix"/>
<feColorMatrix in="SourceAlpha" type="matrix" values="0 0 0 0 0 0 0 0 0 0 0 0 0 0 0 0 0 0 127 0"/>
<feOffset dy="4"/>
<feGaussianBlur stdDeviation="2"/>
<feColorMatrix type="matrix" values="0 0 0 0 0 0 0 0 0 0 0 0 0 0 0 0 0 0 0.25 0"/>
<feBlend mode="normal" in2="BackgroundImageFix" result="effect1_dropShadow"/>
<feBlend mode="normal" in="SourceGraphic" in2="effect1_dropShadow" result="shape"/>
</filter>
<clipPath id="clip0">
<rect width="834" height="187" fill="white"/>
</clipPath>
</defs>
</svg>
