<svg width="577" height="574" viewBox="0 0 577 574" fill="none" xmlns="http://www.w3.org/2000/svg">
<path d="M442.957 215.515L564.126 251.825L442.957 288.135L322.412 251.825L442.957 215.515Z" fill="#AFC61E"/>
<path d="M442.957 288.135V505.98L564.126 469.67V251.825L442.957 288.135Z" fill="#8EB028"/>
<path d="M322.412 251.825V469.67L442.957 505.98V288.135L322.412 251.825Z" fill="#799622"/>
<path d="M275.104 158.483L428.423 204.425L275.104 250.367L122.576 204.425L275.104 158.483Z" fill="#AFC61E"/>
<path d="M275.104 250.367V526.02L428.423 480.078V204.425L275.104 250.367Z" fill="#8EB028"/>
<path d="M122.576 204.425V480.078L275.104 526.02V250.367L122.576 204.425Z" fill="#799622"/>
<path d="M91.9122 328.311L184.306 355.995L91.9122 383.679L0 355.995L91.9122 328.311Z" fill="#AFC61E"/>
<path d="M91.9121 383.679V549.784L184.306 522.099V355.995L91.9121 383.679Z" fill="#8EB028"/>
<path d="M0 355.995V522.099L91.9122 549.784V383.679L0 355.995Z" fill="#799622"/>
<path d="M474.395 328.025L577 358.775L474.395 389.517L372.312 358.775L474.395 328.025Z" fill="#AFC61E"/>
<path d="M474.395 389.517V573.998L577 543.257V358.775L474.395 389.517Z" fill="#8EB028"/>
<path d="M372.312 358.775V543.257L474.395 573.998V389.517L372.312 358.775Z" fill="#799622"/>
<path d="M215.958 218.913L212.291 222.644H221.553C218.463 222.723 221.751 219.111 221.751 219.111C221.751 219.111 218.874 222.279 218.274 222.398C216.345 222.786 218.851 218.913 218.851 218.913C218.851 218.913 215.958 222.398 215.381 222.398C213.642 222.398 215.958 218.913 215.958 218.913Z" fill="#799622"/>
<path d="M288.302 229.21L284.635 232.941H293.906C290.816 233.02 294.095 229.408 294.095 229.408C294.095 229.408 291.219 232.577 290.618 232.695C288.69 233.084 291.203 229.21 291.203 229.21C291.203 229.21 288.303 232.695 287.726 232.695C285.987 232.695 288.302 229.21 288.302 229.21Z" fill="#799622"/>
<path d="M94.6623 375.187L91.999 377.896H98.7324C96.48 377.952 98.8667 375.33 98.8667 375.33C98.8667 375.33 96.7804 377.635 96.3457 377.706C94.9469 377.984 96.7645 375.172 96.7645 375.172C96.7645 375.172 94.6623 377.706 94.2435 377.706C92.979 377.722 94.6623 375.187 94.6623 375.187Z" fill="#799622"/>
<path d="M138.919 352.565L136.256 355.282H142.989C140.737 355.329 143.124 352.708 143.124 352.708C143.124 352.708 141.037 355.013 140.603 355.084C139.204 355.361 141.022 352.549 141.022 352.549C141.022 352.549 138.919 355.084 138.501 355.084C137.236 355.1 138.919 352.565 138.919 352.565Z" fill="#799622"/>
<path d="M74.2885 337.737L72.1863 339.875H77.505C75.7348 339.923 77.6236 337.848 77.6236 337.848C77.0231 338.543 76.3531 339.174 75.6241 339.733C74.5098 339.955 75.956 337.737 75.956 337.737C75.956 337.737 74.2885 339.733 73.9408 339.733C72.945 339.733 74.2885 337.737 74.2885 337.737Z" fill="#799622"/>
<path d="M364.962 195.15L361.295 198.88H370.565C367.475 198.96 370.755 195.348 370.755 195.348C370.755 195.348 367.878 198.516 367.277 198.635C365.349 199.023 367.862 195.15 367.862 195.15C367.862 195.15 364.962 198.635 364.385 198.635C362.646 198.635 364.962 195.15 364.962 195.15Z" fill="#799622"/>
<path d="M480.725 249.805L477.058 253.536H486.321C483.231 253.615 486.518 250.003 486.518 250.003C486.518 250.003 483.642 253.171 483.041 253.29C481.113 253.678 483.626 249.805 483.626 249.805C483.626 249.805 480.725 253.29 480.148 253.29C478.41 253.29 480.725 249.805 480.725 249.805Z" fill="#799622"/>
<path d="M399.395 356.739L395.728 360.47H404.991C401.901 360.549 405.188 356.937 405.188 356.937C405.188 356.937 402.311 360.106 401.711 360.225C399.783 360.613 402.288 356.739 402.288 356.739C402.288 356.739 399.395 360.225 398.818 360.225C397.08 360.225 399.395 356.739 399.395 356.739Z" fill="#799622"/>
<path d="M513.855 355.947L510.188 359.678H519.45C516.36 359.757 519.64 356.145 519.64 356.145C519.64 356.145 516.763 359.314 516.17 359.432C514.234 359.821 516.747 355.947 516.747 355.947C516.747 355.947 513.855 359.432 513.27 359.432C511.539 359.432 513.855 355.947 513.855 355.947Z" fill="#799622"/>
<path d="M271.635 16.5771C271.203 17.4086 270.58 18.1253 269.817 18.6682L266.079 21.1475L260.507 24.8546L242.733 33.5677C241.966 33.9438 241.128 34.1536 240.274 34.1836C239.421 34.2137 238.57 34.0632 237.778 33.742C237.656 33.6946 237.537 33.6391 237.423 33.5757C236.987 33.3646 236.581 33.0984 236.213 32.7836L236.111 32.6964C234.994 31.785 234.185 30.5503 233.795 29.161C233.404 27.7716 233.451 26.2953 233.929 24.9338L236.759 16.9256C238.409 12.259 241.806 8.41887 246.231 6.21766C250.656 4.01646 255.761 3.6268 260.468 5.13112L261.74 5.54301L268.568 8.29954C269.319 8.59595 270.001 9.04439 270.57 9.61683C271.14 10.1893 271.586 10.8734 271.88 11.6264C272.19 12.4221 272.329 13.2747 272.287 14.1281C272.245 14.9814 272.022 15.8161 271.635 16.5771V16.5771Z" fill="#FCF1DD"/>
<g style="mix-blend-mode:multiply">
<path d="M274.962 12.672C274.221 14.2501 273.072 15.601 271.635 16.585C270.84 17.1552 269.967 17.6062 269.043 17.9236C267.889 18.3197 266.917 19.5871 266.079 21.1554L260.507 24.8625L242.733 33.5757C241.966 33.9517 241.128 34.1615 240.274 34.1916C239.421 34.2216 238.57 34.0711 237.778 33.7499C237.656 33.7026 237.537 33.647 237.423 33.5836C238.497 32.1816 238.513 31.4608 239.169 30.6845C239.825 29.9082 241.335 28.126 242.915 27.9992C244.496 27.8725 246.661 25.3061 248.107 23.6031C249.554 21.9 250.407 22.6208 252.77 22.4228C255.133 22.2248 255.726 19.8009 258.026 18.8187C259.359 18.3217 260.636 17.6845 261.835 16.9177C263.345 15.9988 264.206 16.7276 264.135 15.9355C264.064 15.1434 268.671 13.1789 271.287 11.8957C271.48 11.7983 271.678 11.711 271.88 11.6343C274.148 10.6759 275.571 11.1432 274.962 12.672Z" fill="#FCF1DD"/>
</g>
<path d="M267.256 179.902C267.059 181.763 266.071 183.379 264.135 186.413L263.795 186.951C262.214 189.407 261.171 191.015 259.306 192.591C257.721 193.896 255.917 194.91 253.979 195.585C250.644 196.845 248.258 197.843 246.369 198.69C241.477 200.861 239.786 202.009 233.187 203.887C224.588 206.342 220.281 207.562 214.306 207.435C207.695 207.24 201.23 205.441 195.465 202.191C194.675 201.748 194.003 201.32 193.411 200.916C190.289 198.77 189.396 197.146 188.993 196.219C187.499 192.829 188.337 189.343 189.388 184.963C189.491 184.543 189.68 183.775 190.012 182.753C190.833 180.22 191.905 177.776 193.213 175.458C195.347 171.679 196.659 169.359 199.259 167.537C201.045 166.269 201.819 166.396 211.959 164.368C218.692 163.022 220.581 162.515 222.091 162.071C227.401 160.487 226.911 160.059 229.82 159.418C234.815 158.325 238.869 159.125 245.586 160.447C250.194 161.35 252.494 161.802 255.015 163.069C259.031 165.067 262.405 168.158 264.751 171.988C266.166 174.412 267.596 176.812 267.256 179.902Z" fill="#FCF1DD"/>
<g style="mix-blend-mode:multiply">
<path d="M264.135 186.413L263.795 186.943C262.214 189.407 261.171 191.015 259.306 192.583C257.721 193.895 255.914 194.911 253.972 195.585C251.553 196.496 249.633 197.28 248.036 197.962C241.785 200.623 240.489 201.803 233.187 203.879C224.588 206.342 220.281 207.562 214.306 207.435C207.695 207.24 201.23 205.441 195.465 202.191C195.023 201.938 194.604 201.684 194.217 201.439C190.423 199.063 189.412 197.209 188.985 196.219C187.483 192.829 188.321 189.336 189.38 184.963C189.475 184.535 189.673 183.775 190.004 182.753C190.673 185.089 191.167 187.472 191.482 189.882C191.651 191.109 192.211 192.248 193.081 193.128C193.95 194.008 195.081 194.581 196.303 194.761L203.084 195.775L218.716 198.096C220.945 198.429 230.183 197.732 232.404 198.096C234.625 198.461 241.627 197.415 244.172 195.72C246.717 194.025 246.693 194.017 249.23 192.338C251.767 190.658 256.224 191.316 256.516 189.304C256.769 187.561 260.31 186.31 264.135 186.413Z" fill="#FCF1DD"/>
</g>
<g style="mix-blend-mode:multiply">
<path d="M248.036 197.962C241.785 200.623 240.489 201.803 233.187 203.879C224.588 206.342 220.281 207.562 214.306 207.435C207.695 207.24 201.23 205.441 195.465 202.191C195.023 201.938 194.604 201.684 194.217 201.439C195.718 201.439 197.552 201.677 201.077 203.308C209.146 207.031 209.707 204.164 212.805 203.221C215.903 202.279 217.902 204.203 225.742 204.298C233.029 204.393 232.254 200.781 235.344 199.815C237.091 199.276 242.718 198.571 248.036 197.962Z" fill="#FCF1DD"/>
</g>
<path d="M241.548 86.2428L238.814 122.331L236.443 153.588C236.112 157.892 234.489 161.996 231.788 165.358L228.389 169.572L222.122 175.521C211.848 185.304 194.889 177.422 195.703 163.22C195.753 162.274 195.891 161.336 196.114 160.416L198.587 150.19L204.91 123.915L206.49 117.428L213.603 88.1201C213.806 87.3375 214.071 86.5721 214.393 85.8309L215.073 84.1913L216.14 81.6328C216.174 81.5859 216.214 81.5434 216.258 81.506C217.839 80.1515 233.455 70.7175 238.79 74.5355C240.718 75.9138 241.113 82.2981 241.208 82.6625C241.208 82.7813 241.279 82.9001 241.311 83.0269C241.565 84.0786 241.645 85.1651 241.548 86.2428V86.2428Z" fill="#FCF1DD"/>
<g style="mix-blend-mode:multiply" opacity="0.37">
<path d="M241.548 86.2428L239.715 110.426L238.814 122.307L236.443 153.564C236.112 157.868 234.489 161.972 231.788 165.335L228.389 169.549L222.122 175.497C211.848 185.28 194.889 177.398 195.703 163.196C195.753 162.251 195.891 161.312 196.114 160.392L198.587 150.166L204.91 123.892L206.49 117.404L213.603 88.0963C213.806 87.3137 214.071 86.5483 214.393 85.8071L216.14 81.609C216.174 81.5621 216.214 81.5196 216.258 81.4822L215.871 84.8091L207.968 131.543C207.178 133.128 206.387 139.464 206.387 140.257C206.387 141.049 205.597 147.386 205.597 148.178C205.597 148.97 203.226 153.722 203.226 154.514C203.226 155.307 201.646 156.891 201.646 159.267V164.02C201.646 165.604 203.226 166.396 203.226 167.188C203.226 167.98 203.226 169.564 204.807 169.564L211.129 171.149C212.71 171.149 217.452 168.772 217.452 168.772L221.403 156.891L229.306 152.138L230.887 142.633V134.712C230.149 133.775 229.611 132.697 229.306 131.543C228.516 129.167 230.097 125.207 229.306 124.414C228.516 123.622 230.887 113.325 230.887 113.325L241.208 82.6387C241.208 82.7575 241.279 82.8763 241.311 83.0031C241.568 84.0625 241.648 85.1572 241.548 86.2428V86.2428Z" fill="#FCF1DD"/>
</g>
<g style="mix-blend-mode:multiply" opacity="0.43">
<path d="M241.548 86.2428L238.814 122.331L236.443 153.588C236.112 157.892 234.489 161.996 231.788 165.358L228.39 169.572L222.122 175.521C211.848 185.304 194.889 177.422 195.703 163.22C195.753 162.274 195.891 161.336 196.114 160.416L198.587 150.19L204.91 123.915L206.49 117.428L213.603 88.1201C213.806 87.3375 214.071 86.5721 214.393 85.8309L215.073 84.1913C214.781 88.5795 200.057 147.409 200.057 147.409C196.896 156.122 196.106 160.748 196.106 163.251C196.106 165.628 199.148 172.757 201.638 175.133C201.638 175.133 210.576 179.094 213.492 179.094C215.073 179.094 226.137 171.172 226.927 165.628C227.283 163.148 235.779 151.956 233.25 142.657C232.294 139.132 231.835 135.702 230.879 131.567C229.188 124.272 229.298 115.725 232.855 108.438L241.303 83.0269C241.56 84.0781 241.643 85.1646 241.548 86.2428V86.2428Z" fill="#FCF1DD"/>
</g>
<path d="M357.398 139.472C357.343 142.189 357.225 144.597 357.051 146.752C356.403 154.673 355.035 159.196 353.581 162.982C353.415 163.418 353.249 163.83 353.083 164.249C352.222 166.42 351.36 168.448 350.641 170.864C348.27 178.951 335.468 187.87 335.468 187.87C335.468 187.87 333.349 188.971 330.244 190.421C325.541 192.599 318.587 195.546 313.244 196.647C311.103 197.084 308.925 197.315 306.74 197.336C300.734 197.407 295.431 195.965 289.891 195.245C282.438 194.286 276.59 193.526 267.399 187.181C258.208 180.836 256.414 173.834 246.969 163.125C237.525 152.415 238.45 147.378 236.3 145.199C234.514 143.393 232.791 130.941 232.207 122.434C232.088 120.692 232.009 119.107 231.993 117.824C232.018 116.414 232.198 115.012 232.531 113.642C232.823 112.303 233.226 110.822 233.708 109.246C233.842 108.786 234.001 108.311 234.151 107.836C234.704 106.156 235.32 104.398 235.984 102.592C237.32 98.9482 238.845 95.1619 240.283 91.645C241.959 87.5419 243.516 83.819 244.519 81.1337L244.591 80.9595C245.579 78.4218 246.943 76.0479 248.637 73.9176C249.253 73.1255 249.894 72.3334 250.518 71.6681C251.039 71.0898 251.553 70.5591 252.051 70.0839C252.754 69.3868 253.426 68.769 254.027 68.2382C254.913 67.4515 255.839 66.7112 256.801 66.0203L257.362 65.3708L260.009 62.337C263.171 58.6775 275.555 61.3707 275.555 61.3707L295.439 62.3133L295.723 62.4321L303.911 65.8461L307.262 68.2224L309.704 69.9571L316.026 74.4642L316.935 75.0424C318.073 75.7712 320.151 77.1494 322.396 78.8842C325.257 81.0941 328.378 83.8824 330.149 86.5993C332.214 89.7231 334.815 92.4558 337.831 94.6708C338.708 95.3124 339.261 95.6372 339.261 95.6372C342.87 100.508 346.104 105.648 348.934 111.012C353.344 119.385 357.588 129.943 357.398 139.472Z" fill="#F9ECD9"/>
<g style="mix-blend-mode:multiply" opacity="0.59">
<path d="M306.74 197.336C300.734 197.407 295.439 195.965 289.899 195.253C282.446 194.286 276.598 193.526 267.407 187.189C258.215 180.852 256.414 173.834 246.977 163.125C237.541 152.415 238.458 147.386 236.308 145.199C234.514 143.393 232.799 130.941 232.207 122.434C232.507 123.226 232.949 124.018 233.463 125.317C234.49 127.616 235.087 130.083 235.226 132.597C235.415 135.33 237.075 137.167 239.28 140.977C241.485 144.787 241.595 146.158 244.338 150.039C247.08 153.92 246.179 154.617 247.768 156.994C249.356 159.37 250.581 160.337 252.241 162.174C253.9 164.012 253.592 164.257 254.382 166.523C255.173 168.788 256.2 169.2 257.852 171.038C259.504 172.876 261.1 175.252 262.357 175.957C265.116 177.551 268.038 178.841 271.074 179.806C276.258 181.565 273.302 181.446 273.302 181.446C273.302 181.446 278.969 185.708 284.216 186.935C289.464 188.163 287.417 187.347 289.709 188.448C292.001 189.549 298.276 191.189 298.276 191.189L306.74 197.336Z" fill="#FFEFCC"/>
</g>
<g style="mix-blend-mode:multiply" opacity="0.42">
<path d="M353.581 162.982C353.415 163.418 353.249 163.838 353.084 164.257C352.222 166.428 351.369 168.448 350.649 170.864C348.278 178.959 335.476 187.87 335.476 187.87C335.476 187.87 333.358 188.971 330.244 190.421C325.549 192.599 318.595 195.554 313.244 196.647C311.104 197.092 308.926 197.323 306.74 197.336C300.734 197.407 295.439 195.965 289.899 195.253C282.446 194.286 276.598 193.526 267.407 187.189C258.216 180.852 256.414 173.834 246.977 163.125C237.541 152.415 238.458 147.386 236.308 145.199C234.514 143.393 232.799 130.941 232.207 122.434C232.088 120.692 232.017 119.115 232.001 117.824C232.018 116.414 232.199 115.01 232.539 113.642C232.831 112.311 233.226 110.83 233.708 109.254C236.719 111.86 240.679 115.733 240.679 115.733C240.679 115.733 246.93 119.123 252.668 119.29C258.405 119.456 261.748 118.925 270.655 117.491C279.562 116.058 275.626 119.987 282.826 122.125C290.025 124.264 293.186 122.656 293.186 122.656C293.186 122.656 305.523 128.359 310.668 131.932C315.813 135.504 320.009 140.32 325.328 144.962C330.647 149.603 326.782 146.934 329.951 149.184C333.12 151.433 332.101 151.56 332.615 154.792C333.128 158.024 340.336 160.146 340.336 160.146L343.671 159.608C345.931 159.212 350.736 161.493 353.581 162.982Z" fill="#FCF1DD"/>
</g>
<g style="mix-blend-mode:multiply">
<path d="M307.222 68.2303L301.579 70.4957L280.091 75.6682C276.61 76.508 272.996 76.635 269.466 76.0415C265.935 75.4481 262.56 74.1465 259.543 72.2146L257.125 70.6304L254.011 68.1828C254.897 67.3961 255.823 66.6558 256.785 65.9649L257.346 65.3154L260.009 62.337C263.171 58.6775 275.555 61.3707 275.555 61.3707L295.439 62.3133L295.723 62.4321L303.911 65.8461L307.222 68.2303Z" fill="#FCF1DD"/>
</g>
<path d="M356.711 190.698C356.711 190.817 356.711 190.928 356.672 191.046C356.45 192.975 355.899 194.85 355.044 196.591L353.463 199.76C353.02 200.679 352.491 201.555 351.882 202.374C349.545 205.519 346.195 207.758 342.399 208.71L330.173 211.713L312.652 216.022L299.106 219.356C298.094 219.605 297.063 219.764 296.024 219.832L290.31 220.141L289.519 220.188C288.109 220.258 286.716 219.848 285.568 219.024C281.861 216.343 278.874 212.783 276.875 208.663C276.598 208.101 276.337 207.514 276.084 206.928C275.577 205.68 275.163 204.396 274.844 203.087L274.686 202.413C274.445 201.428 274.317 200.418 274.306 199.403C274.306 199.403 274.306 199.403 274.306 199.364V199.142C274.309 198.556 274.351 197.971 274.433 197.391L274.875 194.223V194.049L275.104 192.393L276.195 184.638C276.64 181.471 277.975 178.496 280.043 176.06C282.111 173.624 284.828 171.827 287.876 170.879L312.731 163.156C316.045 162.119 319.598 162.135 322.902 163.204L340.455 168.891C341.732 169.308 342.935 169.925 344.019 170.721C344.019 170.721 344.066 170.721 344.082 170.769L345.528 171.846L348.998 174.412C349.767 174.992 350.486 175.636 351.147 176.337C351.425 176.614 351.689 176.905 351.938 177.208L352.728 178.151L352.926 178.381L353.147 178.666C353.25 178.785 353.344 178.911 353.439 179.038C355.299 181.558 356.431 184.542 356.711 187.664C356.8 188.673 356.8 189.689 356.711 190.698V190.698Z" fill="#FCF1DD"/>
<g style="mix-blend-mode:multiply">
<path d="M356.711 190.706C356.705 190.823 356.692 190.939 356.671 191.054C356.456 192.984 355.905 194.86 355.043 196.599L353.463 199.768C353.012 200.685 352.483 201.563 351.882 202.389C349.537 205.527 346.19 207.764 342.398 208.726L330.172 211.728L299.106 219.372C298.097 219.619 297.068 219.775 296.031 219.839L290.31 220.148L289.519 220.196C288.109 220.261 286.718 219.851 285.568 219.032C283.305 217.387 281.304 215.408 279.633 213.162C280.563 212.923 281.416 212.445 282.106 211.776C285.441 209.059 289.654 215.174 294.53 215.134C299.406 215.095 298.07 213.392 303.871 213.162C309.672 212.932 309.079 210.057 310.747 208.702C312.414 207.348 314.287 206.96 319.164 206.92C324.04 206.881 322.325 203.269 323.969 201.906C325.612 200.544 334.369 195.704 336.969 194.159C339.569 192.615 341.245 191.26 343.845 189.708C346.445 188.155 347.717 184.884 350.12 182.373C351.495 180.939 352.617 179.886 353.471 179.038C353.826 179.529 354.158 180.02 354.458 180.535C356.265 183.601 357.053 187.162 356.711 190.706V190.706Z" fill="#FCF1DD"/>
</g>
<g style="mix-blend-mode:multiply">
<path d="M356.711 190.706C356.522 192.759 355.957 194.76 355.043 196.607L353.463 199.775C353.012 200.693 352.483 201.571 351.882 202.397C349.537 205.535 346.19 207.771 342.398 208.734L330.172 211.736L299.106 219.38C298.097 219.627 297.068 219.783 296.031 219.847L290.31 220.156L292.317 218.485L299.651 214.81L322.57 212.053C322.57 212.053 340.905 204.71 349.155 199.197C352.283 196.977 354.867 194.074 356.711 190.706Z" fill="#FCF1DD"/>
</g>
<g style="mix-blend-mode:multiply">
<path d="M356.711 190.698C356.711 190.817 356.711 190.928 356.671 191.046C356.45 192.975 355.899 194.85 355.043 196.591L353.463 199.76C353.02 200.679 352.491 201.554 351.882 202.374C349.545 205.519 346.195 207.758 342.399 208.71L330.173 211.712L312.652 216.022L299.106 219.356C298.094 219.605 297.063 219.764 296.024 219.832L290.31 220.141L289.519 220.188C288.109 220.258 286.716 219.847 285.568 219.024C281.86 216.343 278.874 212.783 276.875 208.663C276.598 208.1 276.337 207.514 276.084 206.928C275.577 205.68 275.163 204.396 274.844 203.086C276.543 201.399 276.622 199.728 278.479 198.041C280.336 196.354 278.479 194.516 282.375 194.516H309.577C311.514 194.516 319.298 192.749 321.234 192.749C323.171 192.749 329.003 190.999 330.955 189.24L334.835 185.716C336.787 183.957 340.66 183.957 340.66 182.207C340.66 180.456 344.548 178.682 348.444 178.682H353.139C353.242 178.8 353.336 178.927 353.431 179.054C355.291 181.574 356.423 184.558 356.703 187.68C356.794 188.684 356.796 189.694 356.711 190.698Z" fill="#FCF1DD"/>
</g>
<g style="mix-blend-mode:saturation" opacity="0.51">
<path d="M353.581 162.982C353.415 163.418 353.249 163.838 353.083 164.257C350.476 163.359 347.778 162.753 345.038 162.451C334.598 160.978 330.449 158.958 324.087 158.713C317.725 158.467 307.925 155.362 304.709 154.847C301.492 154.332 300.868 147.235 290.428 145.762C279.988 144.288 278.076 140.486 272.251 137.841C266.427 135.195 267.043 132.732 258.903 130.268C250.763 127.805 245.895 126.632 242.67 126.117C239.446 125.603 238.158 123.979 235.478 123.092C234.397 122.786 233.292 122.571 232.175 122.45C232.056 120.707 231.985 119.131 231.969 117.84C231.986 116.43 232.167 115.026 232.507 113.658C232.799 112.327 233.194 110.846 233.677 109.269C233.819 108.81 233.977 108.335 234.119 107.859C235.703 108.1 237.265 108.468 238.79 108.96C240.442 109.618 246.092 110.719 250.162 111.947C254.232 113.174 261.906 110.125 271.413 110.085C280.921 110.046 290.238 107.646 296.608 107.875C302.978 108.105 317.291 108.453 320.641 110.545C323.992 112.636 331.295 114.386 333.658 114.18C336.021 113.974 343.71 110.893 346.943 111.4C347.631 111.461 348.322 111.332 348.942 111.028C353.368 119.385 357.636 129.943 357.422 139.48C357.367 142.197 357.248 144.597 357.074 146.76C356.426 154.673 355.035 159.212 353.581 162.982Z" fill="#FCF1DD"/>
</g>
<path d="M322.262 48.3801C321.931 50.3373 321.322 52.2367 320.452 54.0199C318.155 58.7959 314.153 62.5332 309.237 64.4916L301.334 67.66L279.846 72.8325C276.365 73.6723 272.751 73.7992 269.221 73.2058C265.69 72.6124 262.315 71.3107 259.298 69.3789L256.88 67.7947L249.388 61.9093L246.029 58.4637L243.974 56.3567C234.894 47.0415 237.012 29.9558 249.245 25.5596L266.996 16.4899C274.899 12.4581 285.552 13.369 293.866 16.4028L299.264 18.3752L306.376 20.9653C310.992 22.6475 315.001 25.6718 317.892 29.6511C320.782 33.6305 322.422 38.3838 322.601 43.3027C322.66 45.0024 322.547 46.7036 322.262 48.3801V48.3801Z" fill="#FCF1DD"/>
<path d="M259.219 17.8524C259.349 15.3999 259.963 12.9978 261.028 10.7858C262.092 8.57383 263.585 6.59612 265.419 4.96779C267.254 3.33947 269.393 2.09305 271.712 1.30109C274.031 0.509127 276.485 0.187432 278.929 0.354728L285.03 0.774544L291.716 3.8796C295.323 5.55373 298.162 8.53649 299.661 12.2263C301.16 15.916 301.207 20.0382 299.793 23.7615C298.345 24.8395 296.587 25.4176 294.783 25.4091H292.965L285.062 30.431C284.414 30.8429 283.681 31.1019 282.918 31.1884C282.156 31.2748 281.384 31.1865 280.66 30.93L267.525 26.2804C265.895 25.7064 264.18 25.4119 262.451 25.4091H248.771C248.544 25.4105 248.322 25.3349 248.143 25.1945C247.963 25.0541 247.836 24.8571 247.782 24.6353C247.728 24.4136 247.751 24.1801 247.845 23.9727C247.94 23.7652 248.102 23.5959 248.305 23.4922L259.219 17.8524Z" fill="#236184"/>
<path d="M278.5 0.999969C272.407 0.999969 261.691 9.94327 260 17.5" stroke="#0D547C"/>
<path d="M285.868 1.23395C290.152 7.19059 296.687 17.9791 292.918 24.8942" stroke="#0D547C"/>
<path d="M259.219 17.8207C272.812 17.3375 279.103 18.8029 292.949 25.1397" stroke="#0D547C"/>
<path d="M284.106 0.996338C280.328 2.69937 274.82 10.6363 274.535 18.5573" stroke="#0D547C"/>
<path d="M286.287 1.07553C286.184 1.47159 285.544 1.64585 284.857 1.47951C284.169 1.31317 283.719 0.853745 283.798 0.465612C283.877 0.0774803 284.54 -0.104704 285.228 0.0616381C285.916 0.227981 286.39 0.687402 286.287 1.07553Z" fill="#10415C"/>
<g style="mix-blend-mode:multiply" opacity="0.43">
<path d="M320.452 54.0199C318.155 58.7959 314.153 62.5332 309.237 64.4916L301.334 67.66L279.846 72.8325C276.365 73.6723 272.752 73.7992 269.221 73.2058C265.69 72.6124 262.315 71.3107 259.298 69.3789L256.88 67.7947L249.388 61.9093L246.029 58.4637C247.728 57.8379 249.562 56.8795 250.336 56.7448C251.917 56.4517 256.548 55.5725 256.398 54.7883C256.248 54.0041 256.105 54.7012 256.888 53.0853C258.745 49.2515 261.732 48.9425 262.657 49.5762C263.1 49.8772 264.656 51.2476 266.158 52.6021C267.749 54.0992 269.725 55.1223 271.864 55.5566C272.757 55.7151 272.986 56.5309 273.8 57.1408C276.717 59.438 277.507 60.2301 280.123 60.7766C282.446 61.2677 286.2 58.4795 286.2 58.4795C286.2 58.4795 290.847 57.9409 292.523 58.432C294.198 58.9231 297.77 60.6578 299.177 59.5885C300.584 58.5191 306.946 58.1231 306.946 58.1231L311.782 56.824L320.452 54.0199Z" fill="#FCF1DD"/>
</g>
<g style="mix-blend-mode:multiply">
<path d="M322.601 43.3027L314.627 41.3066L313.418 41.0136C311.241 40.484 309.254 39.3566 307.68 37.758C304.851 34.8163 302.47 31.4719 300.615 27.8329C299.522 25.6786 298.653 23.4171 298.023 21.0842L299.295 18.391L306.408 20.9812C311.015 22.6674 315.016 25.6914 317.9 29.6673C320.785 33.6431 322.421 38.3903 322.601 43.3027V43.3027Z" fill="#FCF1DD"/>
</g>
<path d="M334.646 30.3122L334.464 31.1043C334.125 33.1515 333.313 35.091 332.093 36.7679C330.603 38.8116 328.563 40.3874 326.211 41.3105C323.86 42.2337 321.294 42.4659 318.816 41.9799L317.022 41.6314L307.949 35.6431C304.949 33.7009 302.687 30.8046 301.526 27.4193C300.365 24.034 300.373 20.3559 301.548 16.9754C302.723 13.595 304.997 10.7083 308.005 8.77869C311.014 6.84909 314.582 5.98852 318.136 6.33512L319.962 6.50938C323.506 6.85207 326.8 8.49026 329.216 11.1115L329.691 11.6264C331.974 14.1 333.619 17.0958 334.483 20.3527C335.346 23.6095 335.402 27.0287 334.646 30.3122V30.3122Z" fill="#FCF1DD"/>
<g style="mix-blend-mode:multiply" opacity="0.43">
<path d="M328.766 39.9046C327.327 40.8928 325.706 41.5851 323.998 41.9413C322.29 42.2975 320.529 42.3107 318.816 41.9799L317.022 41.6314L307.949 35.6431C305.591 34.0921 303.688 31.9383 302.438 29.404C301.187 26.8697 300.635 24.0467 300.837 21.2267C300.96 21.4253 301.106 21.6087 301.271 21.7733C302.559 23.0406 302.781 25.0209 303.642 25.7338C304.504 26.4467 303.792 27.318 304.646 28.0309C305.499 28.7438 308.013 30.1062 308.874 30.8191C309.735 31.532 311.379 32.1815 312.17 32.9024C312.96 33.6232 314.825 35.8332 316.469 36.4827C318.113 37.1322 318.974 37.8451 321.337 37.6233C323.7 37.4015 323.842 38.9857 326.269 39.5561C327.09 39.7434 327.925 39.86 328.766 39.9046V39.9046Z" fill="#FCF1DD"/>
</g>
<path d="M338.249 123.915L329.493 163.267C329.151 164.839 328.621 166.363 327.912 167.806L326.995 169.652C323.779 176.163 317.417 179.387 310.612 177.961L308.297 177.47C306.787 177.136 305.328 176.603 303.958 175.886L298.797 173.256C296.156 171.807 294.155 169.415 293.194 166.554L291.092 160.637C290.831 159.893 290.602 159.14 290.404 158.388C290.349 158.166 290.294 157.952 290.246 157.73C290.096 157.089 289.97 156.439 289.875 155.79C289.4 152.871 289.469 149.89 290.08 146.997L298.774 106.917C299.086 105.451 299.561 104.024 300.188 102.663L301.974 99.8354C302.148 99.574 302.354 99.2809 302.591 98.964C302.954 98.465 303.381 97.9105 303.887 97.3244C305.886 94.9481 308.866 92.247 312.241 91.1222L317.773 90.3301C320.049 90.6944 323.566 92.952 325.676 94.2906L326.039 94.5124L328.062 95.7877L332.014 98.2511C335.254 100.303 334.883 103.344 336.297 107.321L337.285 110.125C337.404 110.458 337.514 110.79 337.609 111.131C337.851 111.877 338.051 112.636 338.21 113.404C338.257 113.61 338.297 113.808 338.336 114.014C338.376 114.22 338.392 114.315 338.415 114.466C338.987 117.595 338.93 120.808 338.249 123.915Z" fill="#FCF1DD"/>
<g style="mix-blend-mode:multiply">
<path d="M338.249 123.915L329.493 163.267C329.151 164.839 328.621 166.363 327.912 167.806L326.996 169.652C323.779 176.163 317.417 179.387 310.613 177.961L308.297 177.47C306.787 177.136 305.328 176.603 303.958 175.886L298.798 173.256C296.156 171.807 294.156 169.415 293.194 166.554L291.092 160.637C290.831 159.893 290.602 159.14 290.405 158.388C291.976 159.314 293.426 160.435 294.72 161.723C301.35 168.408 307.933 173.145 309.806 174.08C311.679 175.014 318.176 174.872 320.871 170.951C323.933 166.509 326.561 161.782 328.718 156.835C331.65 150.348 334.251 142.522 335.12 137.643C335.989 132.763 333.191 133.785 334.899 125.975C335.815 122.073 336.987 118.236 338.407 114.489C338.978 117.611 338.924 120.815 338.249 123.915V123.915Z" fill="#FCF1DD"/>
</g>
<g style="mix-blend-mode:multiply" opacity="0.15">
<path d="M338.249 123.915L329.493 163.267C329.151 164.839 328.621 166.363 327.912 167.806L326.996 169.652C323.779 176.163 317.417 179.387 310.613 177.961L308.297 177.47C306.787 177.136 305.328 176.603 303.958 175.886L298.798 173.256C296.156 171.807 294.155 169.415 293.194 166.554L291.092 160.637C290.831 159.893 290.602 159.14 290.404 158.388C290.349 158.166 290.294 157.952 290.246 157.73C290.096 157.089 289.97 156.439 289.875 155.79C290.514 156.084 291.121 156.445 291.685 156.867C292.475 157.659 293.265 156.075 294.056 157.659C294.666 159.08 295.463 160.412 296.427 161.62C297.217 162.412 297.217 161.62 298.007 162.412C298.661 163.121 299.474 163.664 300.378 163.996C301.959 164.788 303.539 164.495 303.942 165.826C304.345 167.156 304.33 168.749 305.91 168.749H309.071C309.862 168.749 309.862 170.333 312.233 169.541C314.604 168.749 313.813 169.541 314.604 168.749C315.394 167.957 316.184 167.164 316.974 167.164C317.765 167.164 316.974 166.372 318.555 165.58C320.136 164.788 321.716 163.204 322.507 163.204C323.297 163.204 325.668 161.62 325.668 160.035C325.668 158.451 327.248 153.699 327.248 152.906C327.248 152.114 331.2 144.985 331.2 144.985C331.269 143.634 331.535 142.299 331.99 141.025C332.641 138.979 332.909 136.831 332.781 134.688V127.559C332.781 122.806 332.781 120.43 334.361 118.846C335.025 118.181 336.392 114.22 337.586 111.131C337.827 111.877 338.028 112.636 338.186 113.404C338.234 113.61 338.273 113.808 338.313 114.014C338.352 114.22 338.368 114.315 338.392 114.466C338.971 117.594 338.922 120.806 338.249 123.915V123.915Z" fill="#FCF1DD"/>
</g>
<path d="M315.286 261.318L306.24 263.914V288.168L300.128 289.871V265.699L291 268.294V263.184L315.286 256.289V261.318Z" fill="white"/>
<path d="M327.347 252.801L345.847 247.528V252.639L333.46 256.127V263.022L344.706 259.777V264.887L333.46 268.132V275.351L346.092 271.782V276.812L327.347 282.165V252.801V252.801Z" fill="white"/>
<path d="M372.904 261.318C372.904 260.426 372.496 259.777 371.844 259.452C371.029 259.047 370.133 258.804 369.237 258.641C368.177 258.479 367.036 258.317 365.814 258.236C364.591 258.073 363.45 257.83 362.391 257.425C361.331 257.019 360.435 256.37 359.783 255.478C359.05 254.423 358.642 253.125 358.724 251.665C358.724 250.367 358.968 249.069 359.457 247.772C359.946 246.555 360.679 245.5 361.657 244.527C362.635 243.472 363.776 242.661 364.999 242.012C366.384 241.282 367.851 240.714 369.237 240.309C370.948 239.822 372.659 239.498 374.371 239.335C375.756 239.173 377.142 239.173 378.364 239.498L376.408 244.851C375.512 244.608 374.534 244.527 373.474 244.608C372.089 244.689 370.704 244.933 369.237 245.338C368.096 245.581 366.955 246.23 365.977 247.042C365.243 247.69 364.836 248.664 364.836 249.475C364.836 250.286 365.243 251.016 365.895 251.26C366.71 251.665 367.607 251.909 368.503 252.071C369.563 252.233 370.704 252.395 371.926 252.558C373.148 252.72 374.289 252.963 375.349 253.369C376.408 253.774 377.305 254.423 377.957 255.234C378.69 256.208 379.016 257.506 379.016 258.885C379.016 260.264 378.772 261.724 378.201 263.184C377.631 264.482 376.897 265.617 375.919 266.672C374.86 267.808 373.637 268.7 372.333 269.349C370.867 270.16 369.318 270.809 367.77 271.214C365.814 271.782 363.858 272.188 361.902 272.269C360.598 272.35 359.376 272.35 358.153 272.188L360.027 266.672C360.435 266.753 360.842 266.834 361.331 266.834C361.902 266.915 362.472 266.915 363.124 266.834C363.776 266.834 364.428 266.753 365.162 266.672C365.895 266.591 366.629 266.429 367.362 266.185C368.829 265.861 370.215 265.131 371.518 264.157C372.333 263.508 372.904 262.373 372.904 261.318Z" fill="white"/>
<path d="M413 256.532C411.859 257.587 410.637 258.398 409.333 258.966C407.866 259.696 406.317 260.264 404.85 260.669C403.058 261.156 401.265 261.399 399.553 261.318C397.923 261.237 396.375 260.75 395.152 259.939C393.848 258.966 392.789 257.668 392.137 256.046C391.322 254.018 390.915 251.746 390.996 249.313C390.915 246.879 391.322 244.284 392.219 241.688C392.952 239.66 394.093 237.794 395.56 236.091C396.864 234.55 398.331 233.252 400.042 232.278C401.672 231.305 403.302 230.575 405.013 230.088C406.562 229.601 408.029 229.358 409.496 229.115C410.555 229.034 411.533 228.952 412.511 229.034L411.37 234.225C410.555 234.144 409.74 234.144 408.925 234.225C407.784 234.387 406.643 234.631 405.502 235.036C403.221 235.604 401.102 237.145 399.553 239.173C398.005 241.282 397.271 244.04 397.271 247.528C397.271 248.907 397.434 250.286 397.842 251.503C398.168 252.558 398.738 253.531 399.472 254.261C400.205 254.91 401.102 255.397 402.161 255.559C403.384 255.721 404.606 255.64 405.91 255.234C407.051 254.91 408.192 254.504 409.251 253.855C410.066 253.369 410.881 252.882 411.615 252.233L413 256.532Z" fill="white"/>
</svg>
