<svg width="533" height="79" viewBox="0 0 533 79" fill="none" xmlns="http://www.w3.org/2000/svg">
<path d="M316.416 9.31574H319.104C319.104 9.31574 315.774 24.9651 315.656 25.6053C315.607 25.842 315.465 26.0088 315.228 26.0088H310.899C310.709 26.0088 310.52 25.8688 310.495 25.6547C310.423 25.2245 308.354 12.5971 308.354 12.5971H308.095C308.095 12.5971 306.024 25.2245 305.954 25.6547C305.929 25.8688 305.74 26.0088 305.526 26.0088H301.221C300.985 26.0088 300.843 25.842 300.793 25.6053C300.674 24.9651 297.345 9.31574 297.345 9.31574H300.032L302.815 23.6311H303.764L306.31 9.31574H310.114L312.684 23.6311H313.61L316.416 9.31574Z" fill="#9C9A9B"/>
<path d="M321.942 9.31572H333.33V11.4319H324.367V16.4034H332.334V18.567H324.367V23.7258H333.308V25.9614H321.942V9.31572Z" fill="#9C9A9B"/>
<path d="M337.856 9.31601V11.1708C337.856 12.55 337.642 12.6221 335.74 15.1665L334.692 14.4542C335.596 12.5274 335.715 12.5027 335.715 11.0761V9.31601H337.856Z" fill="#9C9A9B"/>
<path d="M350.865 15V13.9768C350.865 12.1447 350.08 11.3851 348.226 11.3851H342.494V17.6864H348.226C350.08 17.6864 350.865 16.83 350.865 15ZM342.494 25.9619H340.069V9.31622H348.559C351.458 9.31622 353.051 10.8622 353.051 13.5734V15.5228C353.051 17.7111 352.077 19.041 350.222 19.4938L353.553 25.9619H350.959L347.748 19.8026H342.494V25.9619Z" fill="#9C9A9B"/>
<path d="M356.792 9.31572H368.18V11.4319H359.217V16.4034H367.183V18.567H359.217V23.7258H368.157V25.9614H356.792V9.31572Z" fill="#9C9A9B"/>
<path d="M380.982 18.8516H386.999L384.502 11.3377H383.504L380.982 18.8516ZM387.617 21.1819H380.389L378.818 25.9619H376.084C376.084 25.9619 381.34 10.2199 381.505 9.71969C381.577 9.41091 381.647 9.31621 382.147 9.31621H385.834C386.334 9.31621 386.404 9.41091 386.499 9.71969C386.668 10.2199 391.921 25.9619 391.921 25.9619H389.185L387.617 21.1819Z" fill="#9C9A9B"/>
<path d="M394.684 9.31572H397.112V23.7979H405.838V25.9614H394.684V9.31572Z" fill="#9C9A9B"/>
<path d="M408.198 9.31572H410.623V23.7979H419.349V25.9614H408.198V9.31572Z" fill="#9C9A9B"/>
<path d="M433.22 16.8074H440.495L440.256 25.3917C440.256 25.7972 439.95 25.8425 439.855 25.8425C439.855 25.8425 435.431 26.0813 431.46 26.0813C428.607 26.104 426.991 24.3212 426.991 21.6101V13.6681C426.991 10.9569 428.607 9.17419 431.46 9.19889C436.049 9.19889 439.402 9.31623 439.402 9.31623L439.377 11.4098H432.055C430.198 11.4098 429.414 12.1715 429.414 14.0016V21.254C429.414 23.084 430.198 23.8704 432.055 23.8457L438.023 23.7984L438.142 19.0657L433.22 18.9483V16.8074Z" fill="#9C9A9B"/>
<path d="M447.659 18.8516H453.676L451.179 11.3377H450.18L447.659 18.8516ZM454.293 21.1819H447.066L445.495 25.9619H442.761C442.761 25.9619 448.017 10.2199 448.184 9.71969C448.254 9.41091 448.326 9.31621 448.824 9.31621H452.511C453.011 9.31621 453.083 9.41091 453.178 9.71969C453.344 10.2199 458.598 25.9619 458.598 25.9619H455.862L454.293 21.1819Z" fill="#9C9A9B"/>
<path d="M475.345 9.48247C475.345 9.48247 475.392 9.31572 475.582 9.31572H478.888V25.9614H476.461V13.3588H476.296L471.633 25.7247C471.633 25.7247 471.588 25.9614 471.374 25.9614H468.899C468.661 25.9614 468.613 25.7247 468.613 25.7247L463.953 13.3588H463.788V25.9614H461.361V9.31572H464.667C464.856 9.31572 464.906 9.48247 464.906 9.48247L469.97 22.6821H470.279L475.345 9.48247Z" fill="#9C9A9B"/>
<path d="M482.866 9.31572H494.256V11.4319H485.293V16.4034H493.257V18.567H485.293V23.7258H494.231V25.9614H482.866V9.31572Z" fill="#9C9A9B"/>
<path d="M508.578 15V13.9768C508.578 12.1447 507.794 11.3851 505.939 11.3851H500.208V17.6864H505.939C507.794 17.6864 508.578 16.83 508.578 15ZM500.208 25.9619H497.783V9.31622H506.272C509.171 9.31622 510.766 10.8622 510.766 13.5734V15.5228C510.766 17.7111 509.79 19.041 507.936 19.4938L511.264 25.9619H508.673L505.461 19.8026H500.208V25.9619Z" fill="#9C9A9B"/>
<path d="M525.776 11.4558H518.713C516.718 11.4558 516.29 11.7172 516.29 13.4052V14.0002C516.29 14.8565 516.55 15.0459 517.62 15.26C517.62 15.26 522.544 16.1884 523.923 16.4499C526.038 16.8534 526.799 17.6624 526.799 19.6839V21.9442C526.799 24.9168 525.562 26.0799 521.855 26.0573C517.715 26.0573 513.742 25.8432 513.742 25.8432L513.766 23.7743H521.591C523.779 23.7743 524.372 23.3235 524.372 21.5387V20.1368C524.372 19.3751 524.158 18.8749 523.182 18.6855C521.758 18.4014 518.213 17.7571 517.239 17.5903C514.981 17.1869 513.816 16.9254 513.816 14.5951V13.1685C513.816 10.1959 515.098 9.1728 518.785 9.1975C522.923 9.1975 525.799 9.41159 525.799 9.41159L525.776 11.4558Z" fill="#9C9A9B"/>
<path d="M530.679 23.2511C531.511 23.2511 532.155 23.8687 532.155 24.7024C532.155 25.5094 531.511 26.127 530.679 26.127C529.868 26.127 529.23 25.5094 529.23 24.7024C529.23 23.8687 529.868 23.2511 530.679 23.2511Z" fill="#9C9A9B"/>
<path d="M284.873 30.1221H283.755V5.27497H284.873V30.1221Z" fill="#9C9A9B"/>
<path d="M60.6992 30.1216H69.7467C69.7467 30.1216 71.7827 23.3036 71.9515 22.7539C72.3714 22.5172 91.1436 11.7776 91.1436 11.7776L93.0993 5.26831H84.0539C84.0539 5.26831 83.2304 8.03093 83.0863 8.52293C82.6705 8.75555 69.4729 16.2776 68.9748 16.5638C68.5445 16.1829 60.7734 9.47194 60.0426 8.85025C60.2855 8.05564 61.1254 5.26831 61.1254 5.26831H60.2855H52.0614L50.2108 11.4955C50.2108 11.4955 62.2082 21.8934 62.9657 22.5398C62.657 23.5876 60.6992 30.1216 60.6992 30.1216Z" fill="#E51636"/>
<path d="M137 20.0335L133.978 30.1206H175.007L176.971 23.5661H145.829C147.807 22.7221 159.553 17.7959 159.553 17.7959C159.553 17.7959 150.199 12.5794 148.824 11.826H180.498L182.457 5.26939H181.615H141.424L138.49 15.0559C138.49 15.0559 141.36 16.676 142.914 17.5735C141.002 18.362 137 20.0335 137 20.0335Z" fill="#E51636"/>
<path d="M16.4357 5.2688H7.45619L0 30.1221H8.99395L16.4357 5.2688Z" fill="#E51636"/>
<path d="M47.5857 5.2688H39.3802C39.3802 5.2688 36.8954 13.5505 36.6319 14.411H16.0564L14.0802 20.9758H34.6763C34.1616 22.6659 31.9281 30.1221 31.9281 30.1221H40.9756L48.4153 5.2688H47.5857Z" fill="#E51636"/>
<path d="M103.335 11.8265H126.269C126.15 12.2114 125.771 13.4589 125.643 13.8851C125.242 14.0436 118.09 17.0573 117.93 17.117H104.092L102.13 23.6716H119.394L133.538 17.7305L137.274 5.26783H136.449H96.2633L88.7866 30.1211H97.8423L103.335 11.8265Z" fill="#E51636"/>
<path d="M181.778 21.8018L179.286 30.1226H188.329C188.329 30.1226 189.871 24.9535 190.227 23.8109C187.501 23.0575 184.687 22.3967 181.778 21.8018Z" fill="#E51636"/>
<path d="M193.829 11.8266H216.751C216.469 12.7859 216.179 13.7493 216.068 14.1404C215.637 14.3092 209.169 17.0574 209.027 17.1171H192.229C192.571 15.9993 193.615 12.5059 193.829 11.8266ZM210.894 23.3423L223.942 18.0229L227.769 5.26793H226.914H186.731L182.824 18.3193C190.877 18.5828 200.772 19.8427 210.894 23.3423Z" fill="#E51636"/>
<path d="M267.945 79C261.793 60.7383 252.47 47.7734 241.903 38.6003C251.373 29.382 257.833 16.8926 258.996 -0.000175476C258.996 -0.000175476 255.13 16.7999 234.4 32.8342C203.573 11.849 166.701 17.8127 166.701 17.8127C191.229 19.5646 211.247 28.0357 226.818 38.1515C207.4 50.4845 176.63 61.1294 128.144 61.4856C128.144 61.4856 197.545 71.9432 235.347 44.1564C257.145 60.7712 267.945 79 267.945 79Z" fill="#BDBCBC"/>
<path d="M266.895 7.89601H267.338C267.855 7.89601 268.273 7.72515 268.273 7.3052C268.273 6.93877 268.001 6.69174 267.412 6.69174C267.167 6.69174 266.994 6.7185 266.895 6.74115V7.89601ZM266.871 10.1543H265.938V6.15239C266.309 6.07828 266.823 6.00417 267.486 6.00417C268.246 6.00417 268.59 6.12769 268.886 6.32325C269.106 6.49617 269.277 6.81731 269.277 7.18374C269.277 7.64898 268.933 7.99276 268.443 8.14098V8.19039C268.837 8.3139 269.059 8.63298 269.178 9.17439C269.302 9.78579 269.376 10.0328 269.475 10.1543H268.468C268.345 10.0061 268.273 9.66227 268.149 9.19703C268.075 8.75444 267.828 8.55887 267.313 8.55887H266.871V10.1543ZM267.486 4.85137C265.718 4.85137 264.392 6.30061 264.392 8.06687C264.392 9.86196 265.718 11.2844 267.536 11.2844C269.302 11.3091 270.605 9.86196 270.605 8.06687C270.605 6.30061 269.302 4.85137 267.511 4.85137H267.486ZM267.536 4.04028C269.843 4.04028 271.636 5.83331 271.636 8.06687C271.636 10.3498 269.843 12.1182 267.511 12.1182C265.203 12.1182 263.361 10.3498 263.361 8.06687C263.361 5.83331 265.203 4.04028 267.511 4.04028H267.536Z" fill="#231F20"/>
</svg>
