<?xml version="1.0" encoding="UTF-8"?>
<svg xmlns="http://www.w3.org/2000/svg" xmlns:xlink="http://www.w3.org/1999/xlink" width="158.37pt" height="36pt" viewBox="0 0 158.37 36" version="1.1">
<defs>
<clipPath id="clip1">
  <path d="M 45 9 L 158.371094 9 L 158.371094 27 L 45 27 Z M 45 9 "/>
</clipPath>
</defs>
<g id="surface1">
<path style=" stroke:none;fill-rule:nonzero;fill:rgb(92.89856%,10.998535%,14.099121%);fill-opacity:1;" d="M 15.042969 1.140625 C 18.480469 3.050781 21.296875 4.804688 23.820313 6.601563 C 23.535156 4.769531 23.171875 2.933594 22.742188 1.140625 Z M 24.089844 1.925781 C 24.480469 3.667969 24.804688 5.445313 25.058594 7.214844 C 26.855469 6.933594 28.679688 6.71875 30.496094 6.574219 Z M 4.78125 7.097656 C 6.304688 8.554688 8.03125 9.820313 10.042969 10.960938 C 10.382813 7.9375 10.96875 4.933594 11.785156 2.015625 Z M 13.148438 1.40625 C 12.21875 4.523438 11.5625 7.742188 11.1875 10.984375 C 14.765625 9.496094 18.785156 8.332031 23.160156 7.535156 C 20.359375 5.535156 17.160156 3.578125 13.148438 1.40625 M 25.996094 8.226563 C 28.996094 10.5625 31.660156 13.085938 34.101563 15.90625 L 31.683594 7.632813 C 29.800781 7.753906 27.894531 7.953125 25.996094 8.226563 M 4.179688 8.101563 L 1.6875 16.628906 C 3.832031 14.816406 6.382813 13.207031 9.269531 11.835938 C 7.34375 10.726563 5.675781 9.5 4.179688 8.101563 M 11.871094 11.933594 C 13.074219 12.53125 14.269531 13.0625 15.671875 13.683594 C 18.644531 14.996094 21.714844 16.347656 24.640625 18.601563 C 24.679688 15.171875 24.496094 11.785156 24.085938 8.527344 C 19.613281 9.296875 15.507813 10.441406 11.871094 11.933594 M 25.3125 9.140625 C 25.683594 12.371094 25.839844 15.710938 25.777344 19.085938 C 28.65625 18.515625 31.589844 18.113281 34.296875 17.910156 C 31.628906 14.644531 28.683594 11.769531 25.3125 9.140625 M 1.542969 18.273438 C 4.414063 19.796875 7.230469 21.515625 9.9375 23.386719 C 9.617188 19.789063 9.59375 16.234375 9.867188 12.816406 C 6.625 14.339844 3.832031 16.175781 1.542969 18.273438 M 11.015625 12.78125 C 10.722656 16.3125 10.757813 19.988281 11.117188 23.71875 C 14.796875 21.988281 19.210938 20.53125 23.929688 19.472656 C 21.179688 17.359375 18.277344 16.078125 15.210938 14.722656 C 13.839844 14.121094 12.421875 13.496094 11.015625 12.78125 M 26.421875 20.117188 C 28.5625 22.117188 30.382813 24.53125 31.972656 27.476563 L 34.636719 19.027344 C 32.023438 19.210938 29.199219 19.585938 26.421875 20.117188 M 1.53125 19.566406 L 4.183594 27.976563 C 5.679688 26.742188 7.480469 25.574219 9.542969 24.496094 C 6.945313 22.691406 4.25 21.03125 1.53125 19.566406 M 4.8125 28.9375 L 11.6875 34.03125 C 11.003906 31.113281 10.492188 28.234375 10.15625 25.460938 C 8.085938 26.53125 6.289063 27.699219 4.8125 28.9375 M 25.710938 20.988281 C 25.535156 25.167969 25.03125 29.582031 24.210938 34.113281 L 31.375 28.792969 C 29.75 25.601563 27.894531 23.042969 25.710938 20.988281 M 11.757813 24.671875 C 15.613281 27.480469 19.304688 30.625 23.019531 34.269531 C 23.902344 29.511719 24.429688 24.878906 24.589844 20.492188 C 19.867188 21.519531 15.445313 22.960938 11.757813 24.671875 M 13.058594 34.859375 L 21.992188 34.859375 C 18.527344 31.480469 14.949219 28.429688 11.347656 25.785156 C 11.71875 28.722656 12.296875 31.769531 13.058594 34.859375 M 23.386719 36 L 12.613281 36 C 12.492188 36 12.375 35.960938 12.277344 35.890625 L 3.558594 29.425781 C 3.460938 29.351563 3.390625 29.25 3.355469 29.136719 L 0.0273438 18.574219 C -0.0078125 18.46875 -0.0078125 18.351563 0.0234375 18.242188 L 3.351563 6.875 C 3.386719 6.75 3.464844 6.644531 3.566406 6.574219 L 12.472656 0.109375 C 12.570313 0.0390625 12.6875 0 12.804688 0 L 23.195313 0 C 23.3125 0 23.429688 0.0390625 23.527344 0.109375 L 32.433594 6.574219 C 32.535156 6.644531 32.613281 6.75 32.648438 6.875 L 35.976563 18.242188 C 36.007813 18.351563 36.007813 18.464844 35.972656 18.574219 L 32.644531 29.136719 C 32.609375 29.25 32.539063 29.351563 32.441406 29.425781 L 23.726563 35.890625 C 23.625 35.960938 23.507813 36 23.386719 36 "/>
<g clip-path="url(#clip1)" clip-rule="nonzero">
<path style=" stroke:none;fill-rule:nonzero;fill:rgb(15.699768%,18.798828%,18.798828%);fill-opacity:1;" d="M 48.503906 23.769531 L 54.054688 23.769531 L 54.054688 26.855469 L 45.050781 26.855469 L 45.050781 9.148438 L 48.503906 9.148438 Z M 80.535156 9.148438 L 83.996094 9.148438 L 83.996094 26.855469 L 80.535156 26.855469 L 80.535156 19.441406 L 74.546875 19.441406 L 74.546875 26.855469 L 71.089844 26.855469 L 71.089844 9.148438 L 74.546875 9.148438 L 74.546875 16.382813 L 80.535156 16.382813 Z M 67.421875 21.730469 C 67.421875 25.261719 64.839844 27 61.808594 27 C 59.28125 27 56.894531 25.839844 56.296875 23.074219 L 59.394531 21.785156 C 59.445313 23.371094 60.539063 24.09375 61.808594 24.09375 C 63.195313 24.09375 64.191406 23.222656 64.191406 21.628906 C 64.191406 20.160156 63.296875 19.199219 61.707031 19.199219 L 61.574219 19.199219 L 61.574219 16.382813 L 61.707031 16.382813 C 63.273438 16.382813 63.941406 15.414063 63.941406 14.171875 C 63.941406 12.679688 62.949219 11.910156 61.78125 11.910156 C 60.566406 11.910156 59.671875 12.703125 59.59375 14.042969 L 56.53125 12.769531 C 57.132813 10.390625 59.226563 9 61.78125 9 C 64.914063 9 67.175781 11.089844 67.175781 14.074219 C 67.175781 15.988281 66.304688 17.082031 65.136719 17.703125 C 66.402344 18.371094 67.421875 19.589844 67.421875 21.730469 Z M 157 17.878906 C 157.945313 18.769531 158.367188 20.066406 158.367188 21.628906 C 158.367188 25.0625 155.511719 27 151.804688 27 C 149.117188 27 147.082031 26.429688 145.339844 24.664063 L 147.574219 22.425781 C 148.695313 23.542969 150.214844 23.917969 151.851563 23.917969 C 153.890625 23.917969 154.984375 23.148438 154.984375 21.730469 C 154.984375 21.105469 154.8125 20.589844 154.4375 20.242188 C 154.089844 19.914063 153.695313 19.742188 152.871094 19.613281 L 150.734375 19.316406 C 149.21875 19.09375 148.101563 18.625 147.300781 17.851563 C 146.460938 17.007813 146.03125 15.863281 146.03125 14.371094 C 146.03125 11.210938 148.375 9 152.199219 9 C 154.636719 9 156.402344 9.597656 157.921875 11.066406 L 155.734375 13.230469 C 154.613281 12.160156 153.269531 12.007813 152.105469 12.007813 C 150.261719 12.007813 149.367188 13.027344 149.367188 14.246094 C 149.367188 14.691406 149.515625 15.167969 149.890625 15.515625 C 150.238281 15.839844 150.808594 16.109375 151.527344 16.214844 L 153.617188 16.507813 C 155.230469 16.730469 156.253906 17.175781 157 17.878906 Z M 138.8125 9.152344 L 142.269531 9.152344 L 142.269531 26.855469 L 138.8125 26.855469 Z M 128.863281 16.90625 L 125.609375 16.90625 L 125.609375 12.234375 L 128.863281 12.234375 C 130.382813 12.234375 131.375 13.203125 131.375 14.570313 C 131.375 15.9375 130.382813 16.90625 128.863281 16.90625 Z M 134.832031 14.570313 C 134.832031 11.609375 132.691406 9.152344 129.085938 9.152344 L 122.148438 9.152344 L 122.148438 26.855469 L 125.609375 26.855469 L 125.609375 19.789063 L 128.09375 19.789063 L 131.546875 26.855469 L 135.554688 26.855469 L 131.601563 19.21875 C 133.316406 18.59375 134.832031 17.058594 134.832031 14.570313 Z M 112.203125 16.90625 L 108.941406 16.90625 L 108.941406 12.234375 L 112.203125 12.234375 C 113.714844 12.234375 114.707031 13.203125 114.707031 14.570313 C 114.707031 15.9375 113.714844 16.90625 112.203125 16.90625 Z M 118.164063 14.570313 C 118.164063 11.609375 116.03125 9.152344 112.425781 9.152344 L 105.488281 9.152344 L 105.488281 26.855469 L 108.941406 26.855469 L 108.941406 19.789063 L 111.433594 19.789063 L 114.886719 26.855469 L 118.886719 26.855469 L 114.929688 19.21875 C 116.652344 18.59375 118.164063 17.058594 118.164063 14.570313 Z M 92.578125 20.808594 L 94.816406 14.371094 L 96.976563 20.808594 Z M 93.375 9.152344 L 86.9375 26.855469 L 90.539063 26.855469 L 91.609375 23.71875 L 97.898438 23.71875 L 98.945313 26.855469 L 102.550781 26.855469 L 96.085938 9.152344 L 93.375 9.152344 "/>
</g>
</g>
</svg>
