<svg width="216" height="350" viewBox="0 0 216 350" fill="none" xmlns="http://www.w3.org/2000/svg">
<g clip-path="url(#clip0)">
<ellipse cx="108.221" cy="328.753" rx="107.397" ry="20.7301" fill="#29193E"/>
<path d="M148.308 165.591C143.159 153.708 135.367 148.515 128.858 144.762L111.246 206.634L125.336 332.904C141.57 332.904 158.549 329.752 164.771 320.499C179.397 298.752 164.771 293.316 154.817 274.249C152.547 269.902 148.078 262.992 150.529 254.952C159.335 242.394 162.934 237.876 146.7 237.876C139.961 234.966 139.288 237.983 135.367 226.773C131.018 214.215 128.858 208.702 144.25 218.044C150.733 201.938 155.276 181.671 148.308 165.591Z" fill="#29193E" stroke="#29193E" stroke-width="0.153148"/>
<path d="M65.8507 198.672C57.8334 183.144 62.167 131.215 106.655 137.072C157.293 143.738 144.616 200.574 140.931 208.633C140.387 207.792 138.115 205.307 133.384 202.097C128.653 198.888 125.344 199.345 124.232 200.199C123.238 200.963 122.452 202.198 121.746 204.106C120.833 206.575 121.303 214.568 121.788 218.661C121.901 219.471 122.303 222.146 123.011 226.366C123.992 233.7 127.562 238.845 129.707 240.796C130.584 241.593 132.015 242.023 133.943 241.661C135.184 241.286 141.953 241.946 143.304 242.432C147.944 243.781 147.844 246.93 147.214 248.335C147.08 248.984 146.355 250.87 144.526 253.216C142.981 254.798 143.574 258.043 144.064 259.467C143.826 259.128 144.917 263.213 151.185 282.267C164.421 322.499 143.963 330.814 128.992 332.23C126.76 332.552 117.684 333.743 97.7171 331.115C78.9424 329.105 63.3802 323.438 58.2772 320.534C53.522 318.317 43.6147 310.797 42.0262 298.456C40.4377 286.115 46.9285 270.491 50.3726 264.222L55.6638 253.064C55.8397 252.599 56.432 251.132 57.3946 248.981C58.3572 246.829 58.4536 244.065 58.3814 242.952C58.3194 242.662 58.0253 241.812 57.3451 240.737C56.6648 239.662 56.0215 237.638 55.7848 236.76C55.247 235.278 55.0902 232.281 59.1745 231.587C62.1885 230.906 66.3452 231.838 70.6117 233.631C73.3296 234.297 75.8083 232.083 77.4557 229.683C83.4568 219.619 85.2641 206.539 85.2442 200.532C85.2251 194.756 80.0549 188.071 65.8507 198.672Z" fill="#D8C1F7" stroke="#29193E" stroke-width="1.53148"/>
<rect x="109.117" y="35.8635" width="14.8553" height="19.7561" rx="2.29722" transform="rotate(5.26648 109.117 35.8635)" fill="#D8C1F7" stroke="#29193E" stroke-width="1.53148"/>
<rect x="114.296" y="29.7277" width="7.0448" height="12.8644" rx="2.29722" transform="rotate(5.26648 114.296 29.7277)" fill="#D8C1F7" stroke="#29193E" stroke-width="1.53148"/>
<path d="M90.571 267.151C90.529 267.574 90.8395 267.95 91.2627 267.989L100.551 268.845C100.976 268.884 101.351 268.569 101.385 268.144L119.035 50.1492C119.069 49.731 118.76 49.3634 118.342 49.3249L112.991 48.8317C112.572 48.793 112.2 49.0998 112.159 49.5186L90.571 267.151Z" fill="#29193E"/>
<path d="M113.143 48.0767L92.0011 266.596" stroke="#FCFCFC" stroke-width="0.765739"/>
<path d="M118.286 49.0117L100.091 267.264" stroke="#FCFCFC" stroke-width="0.765739"/>
<path d="M114.969 45.7848L94.5935 266.835" stroke="#FCFCFC" stroke-width="0.765739"/>
<path d="M116.952 45.9666L97.2624 267.08" stroke="#FCFCFC" stroke-width="0.765739"/>
<circle cx="118.376" cy="48.8671" r="0.765739" transform="rotate(5.26648 118.376 48.8671)" fill="#29193E"/>
<circle cx="113.039" cy="48.3753" r="0.765739" transform="rotate(5.26648 113.039 48.3753)" fill="#29193E"/>
<circle cx="114.969" cy="45.7842" r="0.765739" transform="rotate(5.26648 114.969 45.7842)" fill="#29193E"/>
<circle cx="116.952" cy="45.9669" r="0.765739" transform="rotate(5.26648 116.952 45.9669)" fill="#29193E"/>
<path d="M67.2243 261.379C68.7465 253.229 75.1278 256.22 81.4505 259.855C87.1292 262.435 103.756 261.907 116.05 256.806C121.67 253.503 132.887 250.661 128.11 264.78C124.457 274.115 120.207 276.859 116.05 280.143C110.664 282.605 90.6286 285.588 82.4792 283.055C72.2926 279.889 66.1694 267.028 67.2243 261.379Z" fill="#29193E" stroke="#29193E" stroke-width="0.153148"/>
<path d="M115.483 279.304C113.76 266.322 82.5708 275.657 82.1735 282.061C86.7678 283.516 92.8937 283.056 96.4161 282.903C97.9476 282.837 99.0492 282.738 100.475 282.597C102.006 282.445 105.299 282.061 108.668 281.295C111.318 280.693 112.344 280.453 113.569 280.07C114.105 279.84 114.258 279.84 115.483 279.304Z" fill="#E55B42" stroke="#29193E" stroke-width="0.322815"/>
<path d="M102.55 272.287C102.097 271.975 100.797 273.079 99.6473 274.752C98.4971 276.424 97.932 278.033 98.3851 278.344C98.8381 278.656 99.1281 276.858 100.278 275.185C101.428 273.513 103.003 272.598 102.55 272.287Z" fill="#29193E"/>
<path d="M104.168 43.8769C104.211 46.332 106.379 46.7068 107.493 46.8095L107.403 47.786C106.177 47.673 103.858 47.2404 103.738 48.5424C103.638 49.6274 102.564 49.0908 102.735 48.45L103.165 43.7845C103.255 42.8079 104.268 42.7919 104.168 43.8769Z" fill="#29193E" stroke="#29193E" stroke-width="0.153148"/>
<path d="M103.144 54.9884C103.635 52.5826 105.835 52.6102 106.949 52.7129L107.039 51.7364C105.813 51.6234 103.454 51.6248 103.574 50.3228C103.674 49.2378 102.52 49.5691 102.572 50.2304L102.141 54.8959C102.051 55.8725 103.044 56.0734 103.144 54.9884Z" fill="#29193E" stroke="#29193E" stroke-width="0.153148"/>
<path d="M127.31 46.0102C126.819 48.416 124.619 48.3883 123.505 48.2856L123.415 49.2621C124.641 49.3751 127 49.3737 126.88 50.6757C126.78 51.7608 127.934 51.4294 127.883 50.7682L128.313 46.1026C128.403 45.1261 127.41 44.9252 127.31 46.0102Z" fill="#29193E" stroke="#29193E" stroke-width="0.153148"/>
<path d="M126.286 57.1207C126.242 54.6656 124.075 54.2908 122.961 54.1881L123.051 53.2116C124.277 53.3245 126.596 53.7571 126.716 52.4551C126.816 51.3701 127.89 51.9068 127.718 52.5475L127.288 57.2131C127.198 58.1896 126.186 58.2057 126.286 57.1207Z" fill="#29193E" stroke="#29193E" stroke-width="0.153148"/>
<path d="M102.741 30.7896C102.419 34.274 103.049 37.4885 104.298 39.8652C105.55 42.2474 107.384 43.7256 109.462 43.9172C111.541 44.1088 113.614 42.9907 115.28 40.8775C116.943 38.7692 118.149 35.724 118.471 32.2396C118.792 28.7552 118.162 25.5407 116.913 23.164C115.661 20.7819 113.827 19.3036 111.749 19.112C109.67 18.9204 107.597 20.0386 105.931 22.1517C104.268 24.26 103.062 27.3052 102.741 30.7896Z" fill="white" stroke="#29193E" stroke-width="1.07203" stroke-linecap="round"/>
<path fill-rule="evenodd" clip-rule="evenodd" d="M106.433 38.5186C103.727 38.2691 101.842 34.7174 102.223 30.5856C102.603 26.4538 105.106 23.3065 107.813 23.556C110.042 23.7615 111.715 26.2084 112.022 29.3745L108.386 31.0389L111.691 33.3646C110.846 36.5307 108.712 38.7286 106.433 38.5186Z" fill="#29193E"/>
<path d="M116.764 32.0812C116.443 35.5656 117.072 38.78 118.322 41.1567C119.574 43.5389 121.407 45.0172 123.486 45.2088C125.565 45.4004 127.638 44.2822 129.304 42.169C130.967 40.0607 132.173 37.0155 132.494 33.5311C132.815 30.0467 132.186 26.8322 130.937 24.4555C129.685 22.0734 127.851 20.5951 125.772 20.4035C123.694 20.2119 121.621 21.3301 119.954 23.4432C118.292 25.5515 117.085 28.5968 116.764 32.0812Z" fill="white" stroke="#29193E" stroke-width="1.07203" stroke-linecap="round"/>
<path fill-rule="evenodd" clip-rule="evenodd" d="M120.456 39.8091C117.75 39.5596 115.865 36.0079 116.246 31.8761C116.626 27.7443 119.129 24.5971 121.836 24.8465C124.065 25.052 125.737 27.4984 126.044 30.664L122.409 32.3286L125.714 34.6547C124.87 37.821 122.735 40.0191 120.456 39.8091Z" fill="#29193E"/>
<mask id="path-26-inside-1" fill="white">
<path fill-rule="evenodd" clip-rule="evenodd" d="M140.856 2.64706C139.949 2.8293 139.361 3.71274 139.543 4.62027L142.584 19.7659L138.771 16.8677C138.034 16.3077 136.982 16.4511 136.422 17.1881C135.862 17.9251 136.006 18.9765 136.743 19.5366L140.763 22.5917L135.824 23.6429C134.919 23.8357 134.341 24.7259 134.534 25.6312C134.727 26.5366 135.617 27.1143 136.522 26.9216L141.727 25.8135L139.454 30.6253C139.059 31.4623 139.417 32.4613 140.254 32.8567C141.091 33.252 142.09 32.894 142.485 32.0571L144.287 28.2432L147.198 42.7432C147.381 43.6508 148.264 44.2387 149.172 44.0565C150.079 43.8743 150.667 42.9908 150.485 42.0833L147.617 27.8004L150.605 30.0715C151.342 30.6315 152.394 30.4881 152.954 29.7511C153.514 29.0141 153.37 27.9627 152.633 27.4026L148.613 24.3476L153.552 23.2964C154.457 23.1036 155.035 22.2134 154.842 21.3081C154.65 20.4027 153.759 19.825 152.854 20.0177L147.649 21.1258L149.922 16.3139C150.317 15.4769 149.959 14.4779 149.122 14.0825C148.285 13.6871 147.286 14.0451 146.891 14.8821L145.58 17.6575L142.829 3.96032C142.647 3.05279 141.764 2.46482 140.856 2.64706Z"/>
</mask>
<path fill-rule="evenodd" clip-rule="evenodd" d="M140.856 2.64706C139.949 2.8293 139.361 3.71274 139.543 4.62027L142.584 19.7659L138.771 16.8677C138.034 16.3077 136.982 16.4511 136.422 17.1881C135.862 17.9251 136.006 18.9765 136.743 19.5366L140.763 22.5917L135.824 23.6429C134.919 23.8357 134.341 24.7259 134.534 25.6312C134.727 26.5366 135.617 27.1143 136.522 26.9216L141.727 25.8135L139.454 30.6253C139.059 31.4623 139.417 32.4613 140.254 32.8567C141.091 33.252 142.09 32.894 142.485 32.0571L144.287 28.2432L147.198 42.7432C147.381 43.6508 148.264 44.2387 149.172 44.0565C150.079 43.8743 150.667 42.9908 150.485 42.0833L147.617 27.8004L150.605 30.0715C151.342 30.6315 152.394 30.4881 152.954 29.7511C153.514 29.0141 153.37 27.9627 152.633 27.4026L148.613 24.3476L153.552 23.2964C154.457 23.1036 155.035 22.2134 154.842 21.3081C154.65 20.4027 153.759 19.825 152.854 20.0177L147.649 21.1258L149.922 16.3139C150.317 15.4769 149.959 14.4779 149.122 14.0825C148.285 13.6871 147.286 14.0451 146.891 14.8821L145.58 17.6575L142.829 3.96032C142.647 3.05279 141.764 2.46482 140.856 2.64706Z" fill="#FCFCFC"/>
<path d="M139.543 4.62027L138.577 4.81416L138.577 4.81416L139.543 4.62027ZM140.856 2.64706L141.05 3.61261L140.856 2.64706ZM142.584 19.7659L141.988 20.55L144.063 22.1264L143.55 19.572L142.584 19.7659ZM138.771 16.8677L138.175 17.6518L138.175 17.6518L138.771 16.8677ZM136.743 19.5366L136.147 20.3207L136.743 19.5366ZM140.763 22.5917L140.968 23.5549L143.069 23.1076L141.359 21.8076L140.763 22.5917ZM135.824 23.6429L135.619 22.6797L135.619 22.6797L135.824 23.6429ZM134.534 25.6312L133.571 25.8363L134.534 25.6312ZM136.522 26.9216L136.727 27.8848L136.727 27.8848L136.522 26.9216ZM141.727 25.8135L142.618 26.2342L143.467 24.4363L141.522 24.8503L141.727 25.8135ZM139.454 30.6253L138.564 30.2047L138.564 30.2047L139.454 30.6253ZM142.485 32.0571L143.375 32.4777L143.375 32.4777L142.485 32.0571ZM144.287 28.2432L145.252 28.0493L144.667 25.1331L143.396 27.8225L144.287 28.2432ZM147.198 42.7432L148.164 42.5494L147.198 42.7432ZM149.172 44.0565L149.365 45.0221L149.172 44.0565ZM150.485 42.0833L149.519 42.2772L149.519 42.2772L150.485 42.0833ZM147.617 27.8004L148.213 27.0163L146.138 25.4399L146.651 27.9943L147.617 27.8004ZM150.605 30.0715L150.009 30.8556L150.605 30.0715ZM152.954 29.7511L153.738 30.347L153.738 30.347L152.954 29.7511ZM152.633 27.4026L153.229 26.6185L153.229 26.6185L152.633 27.4026ZM148.613 24.3476L148.408 23.3844L146.307 23.8317L148.018 25.1317L148.613 24.3476ZM153.552 23.2964L153.347 22.3331L153.347 22.3331L153.552 23.2964ZM154.842 21.3081L155.806 21.103L155.805 21.103L154.842 21.3081ZM152.854 20.0177L153.059 20.981L153.059 20.981L152.854 20.0177ZM147.649 21.1258L146.758 20.7051L145.909 22.503L147.854 22.089L147.649 21.1258ZM149.922 16.3139L150.812 16.7345L149.922 16.3139ZM149.122 14.0825L149.543 13.192L149.543 13.192L149.122 14.0825ZM146.891 14.8821L147.781 15.3027L146.891 14.8821ZM145.58 17.6575L144.614 17.8514L145.2 20.7675L146.47 18.0781L145.58 17.6575ZM142.829 3.96032L141.864 4.15421L141.864 4.15421L142.829 3.96032ZM140.509 4.42638C140.433 4.05211 140.676 3.68777 141.05 3.61261L140.662 1.68151C139.222 1.97083 138.288 3.37337 138.577 4.81416L140.509 4.42638ZM143.55 19.572L140.509 4.42638L138.577 4.81416L141.619 19.9598L143.55 19.572ZM138.175 17.6518L141.988 20.55L143.18 18.9818L139.367 16.0836L138.175 17.6518ZM137.206 17.7839C137.437 17.48 137.871 17.4209 138.175 17.6518L139.367 16.0836C138.197 15.1945 136.527 15.4222 135.638 16.5922L137.206 17.7839ZM137.338 18.7525C137.034 18.5215 136.975 18.0879 137.206 17.7839L135.638 16.5922C134.749 17.7622 134.977 19.4315 136.147 20.3207L137.338 18.7525ZM141.359 21.8076L137.338 18.7525L136.147 20.3207L140.167 23.3758L141.359 21.8076ZM136.029 24.6062L140.968 23.5549L140.558 21.6284L135.619 22.6797L136.029 24.6062ZM135.497 25.4262C135.418 25.0528 135.656 24.6857 136.029 24.6062L135.619 22.6797C134.182 22.9857 133.265 24.3989 133.571 25.8363L135.497 25.4262ZM136.317 25.9583C135.944 26.0378 135.577 25.7995 135.497 25.4262L133.571 25.8363C133.877 27.2736 135.29 28.1908 136.727 27.8848L136.317 25.9583ZM141.522 24.8503L136.317 25.9583L136.727 27.8848L141.932 26.7768L141.522 24.8503ZM140.837 25.3929L138.564 30.2047L140.345 31.046L142.618 26.2342L140.837 25.3929ZM138.564 30.2047C137.936 31.5334 138.504 33.1194 139.833 33.7471L140.674 31.9662C140.329 31.8031 140.181 31.3911 140.345 31.046L138.564 30.2047ZM139.833 33.7471C141.162 34.3748 142.748 33.8065 143.375 32.4777L141.595 31.6364C141.431 31.9816 141.019 32.1292 140.674 31.9662L139.833 33.7471ZM143.375 32.4777L145.177 28.6638L143.396 27.8225L141.595 31.6364L143.375 32.4777ZM148.164 42.5494L145.252 28.0493L143.321 28.4371L146.233 42.9371L148.164 42.5494ZM148.978 43.091C148.603 43.1661 148.239 42.9236 148.164 42.5494L146.233 42.9371C146.522 44.3779 147.925 45.3114 149.365 45.0221L148.978 43.091ZM149.519 42.2772C149.594 42.6515 149.352 43.0158 148.978 43.091L149.365 45.0221C150.806 44.7327 151.74 43.3302 151.45 41.8894L149.519 42.2772ZM146.651 27.9943L149.519 42.2772L151.45 41.8894L148.582 27.6065L146.651 27.9943ZM151.201 29.2874L148.213 27.0163L147.021 28.5845L150.009 30.8556L151.201 29.2874ZM152.17 29.1552C151.939 29.4592 151.505 29.5183 151.201 29.2874L150.009 30.8556C151.179 31.7447 152.849 31.517 153.738 30.347L152.17 29.1552ZM152.038 28.1867C152.341 28.4177 152.401 28.8513 152.17 29.1552L153.738 30.347C154.627 29.177 154.399 27.5077 153.229 26.6185L152.038 28.1867ZM148.018 25.1317L152.038 28.1867L153.229 26.6185L149.209 23.5635L148.018 25.1317ZM153.347 22.3331L148.408 23.3844L148.818 25.3109L153.757 24.2596L153.347 22.3331ZM153.879 21.5131C153.958 21.8865 153.72 22.2536 153.347 22.3331L153.757 24.2596C155.194 23.9536 156.111 22.5404 155.806 21.103L153.879 21.5131ZM153.059 20.981C153.432 20.9015 153.8 21.1398 153.879 21.5131L155.805 21.103C155.5 19.6657 154.086 18.7485 152.649 19.0545L153.059 20.981ZM147.854 22.089L153.059 20.981L152.649 19.0545L147.444 20.1625L147.854 22.089ZM148.539 21.5464L150.812 16.7345L149.031 15.8932L146.758 20.7051L148.539 21.5464ZM150.812 16.7345C151.44 15.4058 150.872 13.8197 149.543 13.192L148.702 14.973C149.047 15.136 149.194 15.548 149.031 15.8932L150.812 16.7345ZM149.543 13.192C148.214 12.5644 146.628 13.1327 146.001 14.4614L147.781 15.3027C147.945 14.9576 148.357 14.8099 148.702 14.973L149.543 13.192ZM146.001 14.4614L144.689 17.2368L146.47 18.0781L147.781 15.3027L146.001 14.4614ZM141.864 4.15421L144.614 17.8514L146.545 17.4636L143.795 3.76643L141.864 4.15421ZM141.05 3.61261C141.424 3.53746 141.789 3.77994 141.864 4.15421L143.795 3.76643C143.506 2.32564 142.103 1.39219 140.662 1.68151L141.05 3.61261Z" fill="#29193E" mask="url(#path-26-inside-1)"/>
</g>
<defs>
<clipPath id="clip0">
<rect width="216" height="349.529" fill="white" transform="translate(0 0.471313)"/>
</clipPath>
</defs>
</svg>
