<svg width="555" height="593" viewBox="0 0 555 593" fill="none" xmlns="http://www.w3.org/2000/svg">
<rect x="329" y="3" width="223" height="587" fill="#FD8BA4" stroke="black" stroke-width="6"/>
<mask id="mask0" mask-type="alpha" maskUnits="userSpaceOnUse" x="331" y="6" width="219" height="582">
<rect x="336" y="11" width="209" height="572" fill="#FA7B5A" stroke="black" stroke-width="10"/>
</mask>
<g mask="url(#mask0)">
<path fill-rule="evenodd" clip-rule="evenodd" d="M454.371 206.855L453.988 207.757L453.966 207.748C441.498 233.73 381.091 232.79 317.926 205.393C254.76 177.997 212.473 134.396 222.522 107.365L222.5 107.355L234.488 79.1312L254.233 87.6951C280.546 83.7282 319.408 90.471 359.375 107.805C399.342 125.14 430.95 148.962 446.231 170.969L465.976 179.533L454.417 206.746C454.409 206.764 454.402 206.782 454.394 206.8C454.386 206.818 454.379 206.836 454.371 206.855Z" fill="#D8C1F7"/>
<path d="M461.932 180.1C459.543 185.725 454.456 190.201 446.688 193.274C438.903 196.353 428.678 197.907 416.606 197.782C392.477 197.534 361.684 190.588 330.043 176.864C298.402 163.141 272.207 145.37 255.407 127.867C247.001 119.109 241.072 110.549 237.918 102.725C234.771 94.9186 234.477 88.1084 236.867 82.4837C239.256 76.8589 244.343 72.3825 252.111 69.3102C259.895 66.231 270.121 64.677 282.193 64.8015C306.322 65.0503 337.115 71.9962 368.756 85.7196C400.396 99.443 426.592 117.214 443.392 134.717C451.797 143.475 457.727 152.035 460.881 159.859C464.028 167.665 464.321 174.476 461.932 180.1Z" fill="black" stroke="black" stroke-width="7"/>
<path d="M457.278 191.057C454.889 196.682 449.802 201.158 442.034 204.23C434.25 207.309 424.024 208.863 411.952 208.739C387.823 208.49 357.03 201.544 325.389 187.821C293.749 174.097 267.553 156.326 250.753 138.823C242.348 130.066 236.418 121.505 233.264 113.681C230.117 105.875 229.824 99.0649 232.213 93.4402C234.602 87.8155 239.689 83.3391 247.457 80.2667C255.242 77.1876 265.467 75.6335 277.539 75.758C301.668 76.0068 332.461 82.9527 364.102 96.6761C395.743 110.399 421.938 128.171 438.738 145.674C447.144 154.431 453.073 162.992 456.227 170.815C459.374 178.622 459.668 185.432 457.278 191.057Z" stroke="black" stroke-width="7"/>
<path d="M453.621 199.667C451.232 205.292 446.145 209.769 438.377 212.841C430.592 215.92 420.367 217.474 408.295 217.35C384.166 217.101 353.373 210.155 321.732 196.431C290.091 182.708 263.896 164.937 247.096 147.434C238.691 138.677 232.761 130.116 229.607 122.292C226.46 114.486 226.167 107.676 228.556 102.051C230.945 96.4261 236.032 91.9497 243.8 88.8773C251.585 85.7982 261.81 84.2441 273.882 84.3686C298.011 84.6174 328.804 91.5633 360.445 105.287C392.086 119.01 418.281 136.781 435.081 154.284C443.486 163.042 449.416 171.602 452.57 179.426C455.717 187.232 456.01 194.043 453.621 199.667Z" stroke="black" stroke-width="7"/>
<path d="M402.475 115.224C415.703 120.508 418.752 114.298 418.698 110.026C414.032 107.152 398.998 97.2329 391.243 94.1527C392.888 95.9992 395.375 98.152 386.689 99.5964C375.831 101.402 396.4 115.764 379.837 110.449C364.296 105.463 371.867 114.695 375.316 116.474C378.075 117.897 384.039 121.673 386.676 123.384C384.347 115.009 388.538 119.659 396.96 119.63C405.381 119.6 385.94 108.619 402.475 115.224Z" fill="white"/>
<path d="M298.306 147.316C285.078 142.031 282.029 148.241 282.083 152.514C286.749 155.387 301.783 165.307 309.538 168.387C307.893 166.54 305.406 164.388 314.092 162.943C324.95 161.138 304.381 146.776 320.944 152.09C336.485 157.077 328.914 147.845 325.465 146.066C322.706 144.643 316.742 140.866 314.105 139.156C316.434 147.531 312.243 142.88 303.821 142.91C295.4 142.939 314.841 153.921 298.306 147.316Z" fill="white" stroke="black" stroke-width="7"/>
<path d="M461.932 180.1C459.543 185.725 454.456 190.201 446.688 193.274C438.903 196.353 428.678 197.907 416.606 197.782C392.477 197.534 361.684 190.588 330.043 176.864C298.402 163.141 272.207 145.37 255.407 127.867C247.001 119.109 241.072 110.549 237.918 102.725C234.771 94.9186 234.477 88.1084 236.867 82.4837C239.256 76.8589 244.343 72.3825 252.111 69.3102C259.895 66.231 270.121 64.677 282.193 64.8015C306.322 65.0503 337.115 71.9962 368.756 85.7196C400.396 99.443 426.592 117.214 443.392 134.717C451.797 143.475 457.727 152.035 460.881 159.859C464.028 167.665 464.321 174.476 461.932 180.1Z" stroke="black" stroke-width="7"/>
<path d="M401.812 154.024C400.91 156.148 398.922 158.019 395.484 159.378C392.03 160.744 387.367 161.475 381.709 161.416C370.409 161.298 355.851 158.034 340.812 151.511C325.773 144.988 313.402 136.573 305.533 128.377C301.593 124.273 298.905 120.353 297.505 116.882C296.112 113.428 296.085 110.683 296.987 108.559C297.889 106.436 299.877 104.565 303.314 103.206C306.768 101.84 311.432 101.108 317.09 101.168C328.39 101.286 342.948 104.55 357.987 111.073C373.026 117.596 385.397 126.011 393.266 134.207C397.206 138.311 399.893 142.231 401.293 145.702C402.686 149.155 402.714 151.901 401.812 154.024Z" fill="#D8C1F7" stroke="black" stroke-width="7"/>
<path d="M538.878 606.375C537.836 612.41 533.906 617.954 527.05 622.754C520.178 627.565 510.584 631.461 498.81 634.154C475.278 639.538 443.731 639.959 409.812 633.984C375.893 628.009 346.349 616.825 326.007 603.713C315.829 597.152 308.106 590.206 303.251 583.329C298.406 576.467 296.564 569.907 297.605 563.872C298.646 557.837 302.577 552.294 309.433 547.494C316.304 542.683 325.898 538.787 337.672 536.093C361.205 530.71 392.751 530.288 426.67 536.263C460.589 542.239 490.134 553.422 510.476 566.535C520.653 573.095 528.377 580.042 533.232 586.919C538.076 593.78 539.919 600.34 538.878 606.375Z" fill="black" stroke="black" stroke-width="7"/>
<path d="M536.851 618.121C535.81 624.156 531.88 629.699 525.024 634.5C518.152 639.311 508.558 643.207 496.784 645.9C473.251 651.284 441.705 651.705 407.786 645.73C373.867 639.755 344.322 628.571 323.981 615.459C313.803 608.898 306.08 601.952 301.224 595.075C296.38 588.213 294.538 581.653 295.579 575.618C296.62 569.583 300.55 564.04 307.406 559.239C314.278 554.428 323.872 550.532 335.646 547.839C359.179 542.455 390.725 542.034 424.644 548.009C458.563 553.984 488.108 565.168 508.449 578.28C518.627 584.841 526.35 591.788 531.206 598.665C536.05 605.526 537.892 612.086 536.851 618.121Z" stroke="black" stroke-width="7"/>
<path d="M535.259 627.352C534.218 633.387 530.287 638.931 523.431 643.731C516.56 648.542 506.965 652.438 495.192 655.131C471.659 660.515 440.113 660.936 406.193 654.961C372.274 648.986 342.73 637.802 322.388 624.69C312.211 618.129 304.487 611.183 299.632 604.306C294.788 597.444 292.945 590.884 293.986 584.849C295.027 578.814 298.958 573.271 305.814 568.471C312.685 563.66 322.28 559.763 334.053 557.07C357.586 551.686 389.133 551.265 423.052 557.24C456.971 563.216 486.515 574.399 506.857 587.512C517.034 594.072 524.758 601.019 529.613 607.896C534.457 614.757 536.3 621.317 535.259 627.352Z" stroke="black" stroke-width="7"/>
<path d="M466.216 557.114C480.293 559.171 481.842 552.418 480.814 548.273C475.618 546.565 458.725 540.419 450.476 539.23C452.498 540.643 455.409 542.158 447.287 545.589C437.135 549.877 460.428 559.055 443.098 557.746C426.838 556.518 436.313 563.736 440.075 564.662C443.084 565.404 449.75 567.688 452.706 568.737C448.528 561.132 453.668 564.679 461.855 562.687C470.043 560.694 448.619 554.542 466.216 557.114Z" fill="white"/>
<path d="M538.878 606.375C537.836 612.41 533.906 617.954 527.05 622.754C520.178 627.565 510.584 631.461 498.81 634.154C475.278 639.538 443.731 639.959 409.812 633.984C375.893 628.009 346.349 616.825 326.007 603.713C315.829 597.152 308.106 590.206 303.251 583.329C298.406 576.467 296.564 569.907 297.605 563.872C298.646 557.837 302.577 552.294 309.433 547.494C316.304 542.683 325.898 538.787 337.672 536.093C361.205 530.71 392.751 530.288 426.67 536.263C460.589 542.239 490.134 553.422 510.476 566.535C520.653 573.095 528.377 580.042 533.232 586.919C538.076 593.78 539.919 600.34 538.878 606.375Z" stroke="black" stroke-width="7"/>
<path d="M474.425 595.021C474.032 597.303 472.522 599.589 469.488 601.712C466.439 603.846 462.07 605.645 456.552 606.906C445.531 609.426 430.622 609.644 414.501 606.804C398.38 603.964 384.424 598.661 374.897 592.522C370.127 589.448 366.617 586.261 364.463 583.21C362.319 580.175 361.664 577.508 362.057 575.226C362.451 572.945 363.961 570.659 366.994 568.536C370.043 566.402 374.413 564.603 379.931 563.341C390.951 560.822 405.86 560.604 421.981 563.444C438.103 566.284 452.059 571.586 461.586 577.726C466.356 580.8 469.865 583.987 472.02 587.037C474.164 590.072 474.819 592.74 474.425 595.021Z" fill="#8C74B7" stroke="black" stroke-width="7"/>
<path d="M716.605 490.808C715.564 496.843 711.633 502.386 704.777 507.187C697.906 511.998 688.312 515.894 676.538 518.587C653.005 523.971 621.459 524.392 587.54 518.417C553.62 512.442 524.076 501.258 503.734 488.146C493.557 481.585 485.833 474.639 480.978 467.762C476.134 460.9 474.291 454.34 475.332 448.305C476.373 442.27 480.304 436.727 487.16 431.927C494.031 427.115 503.626 423.219 515.399 420.526C538.932 415.142 570.479 414.721 604.398 420.696C638.317 426.671 667.861 437.855 688.203 450.967C698.38 457.528 706.104 464.475 710.959 471.352C715.803 478.213 717.646 484.773 716.605 490.808Z" fill="black" stroke="black" stroke-width="7"/>
<path d="M714.579 502.554C713.537 508.589 709.607 514.132 702.751 518.933C695.879 523.744 686.285 527.64 674.511 530.333C650.979 535.717 619.432 536.138 585.513 530.163C551.594 524.188 522.05 513.004 501.708 499.892C491.53 493.331 483.807 486.384 478.952 479.508C474.107 472.646 472.265 466.086 473.306 460.051C474.347 454.016 478.278 448.473 485.134 443.672C492.005 438.861 501.599 434.965 513.373 432.272C536.906 426.888 568.452 426.467 602.371 432.442C636.29 438.417 665.835 449.601 686.177 462.713C696.354 469.274 704.078 476.221 708.933 483.097C713.777 489.959 715.62 496.519 714.579 502.554Z" stroke="black" stroke-width="7"/>
<path d="M712.986 511.785C711.945 517.82 708.014 523.363 701.158 528.164C694.287 532.975 684.693 536.871 672.919 539.564C649.386 544.948 617.84 545.369 583.921 539.394C550.002 533.419 520.457 522.235 500.115 509.123C489.938 502.562 482.214 495.615 477.359 488.739C472.515 481.877 470.672 475.317 471.714 469.282C472.755 463.247 476.685 457.704 483.541 452.903C490.413 448.092 500.007 444.196 511.781 441.503C535.313 436.119 566.86 435.698 600.779 441.673C634.698 447.648 664.242 458.832 684.584 471.944C694.762 478.505 702.485 485.452 707.34 492.328C712.185 499.19 714.027 505.75 712.986 511.785Z" stroke="black" stroke-width="7"/>
<path d="M549.913 497.061C535.835 495.004 534.287 501.757 535.315 505.901C540.511 507.609 557.404 513.756 565.653 514.945C563.631 513.532 560.72 512.017 568.841 508.586C578.994 504.298 555.701 495.12 573.03 496.429C589.291 497.657 579.816 490.439 576.054 489.512C573.044 488.771 566.379 486.487 563.422 485.438C567.601 493.043 562.461 489.496 554.273 491.488C546.086 493.48 567.51 499.633 549.913 497.061Z" fill="white"/>
<path d="M716.605 490.808C715.564 496.843 711.633 502.386 704.777 507.187C697.906 511.998 688.312 515.894 676.538 518.587C653.005 523.971 621.459 524.392 587.54 518.417C553.62 512.442 524.076 501.258 503.734 488.146C493.557 481.585 485.833 474.639 480.978 467.762C476.134 460.9 474.291 454.34 475.332 448.305C476.373 442.27 480.304 436.727 487.16 431.927C494.031 427.115 503.626 423.219 515.399 420.526C538.932 415.142 570.479 414.721 604.398 420.696C638.317 426.671 667.861 437.855 688.203 450.967C698.38 457.528 706.104 464.475 710.959 471.352C715.803 478.213 717.646 484.773 716.605 490.808Z" stroke="black" stroke-width="7"/>
<path d="M652.153 479.454C651.759 481.736 650.249 484.022 647.216 486.145C644.167 488.279 639.797 490.078 634.279 491.339C623.258 493.859 608.35 494.077 592.229 491.237C576.107 488.397 562.151 483.094 552.624 476.955C547.854 473.881 544.345 470.694 542.19 467.643C540.046 464.608 539.391 461.941 539.785 459.659C540.178 457.378 541.688 455.092 544.722 452.969C547.771 450.835 552.14 449.036 557.658 447.774C568.679 445.254 583.587 445.037 599.709 447.877C615.83 450.717 629.786 456.019 639.313 462.159C644.083 465.233 647.593 468.42 649.747 471.47C651.891 474.505 652.546 477.173 652.153 479.454Z" fill="#D8C1F7" stroke="black" stroke-width="7"/>
<path d="M376.533 413.755C378.102 419.671 376.845 426.37 372.625 433.641C368.396 440.927 361.315 448.542 351.756 455.993C332.651 470.885 304.209 484.684 270.952 493.689C237.694 502.694 206.235 505.114 182.321 501.871C170.356 500.248 160.457 497.231 153.188 493.057C145.936 488.893 141.533 483.726 139.965 477.811C138.396 471.895 139.652 465.195 143.873 457.925C148.102 450.638 155.183 443.024 164.742 435.573C183.847 420.681 212.288 406.882 245.546 397.877C278.804 388.872 310.263 386.452 334.177 389.695C346.142 391.318 356.041 394.335 363.31 398.508C370.562 402.672 374.964 407.839 376.533 413.755Z" fill="#D8C1F7" stroke="black" stroke-width="7"/>
<path d="M374.472 334.628C376.041 340.544 374.785 347.243 370.565 354.514C366.335 361.8 359.254 369.415 349.696 376.866C330.59 391.758 302.149 405.556 268.891 414.562C235.633 423.567 204.174 425.987 180.26 422.743C168.296 421.12 158.396 418.104 151.128 413.93C143.876 409.766 139.473 404.599 137.904 398.683C136.335 392.768 137.592 386.068 141.812 378.798C146.042 371.511 153.122 363.897 162.681 356.446C181.786 341.554 210.228 327.755 243.486 318.75C276.743 309.745 308.202 307.324 332.116 310.568C344.081 312.191 353.981 315.208 361.249 319.381C368.501 323.545 372.904 328.712 374.472 334.628Z" fill="black" stroke="black" stroke-width="7"/>
<path d="M377.425 374.461C378.994 380.376 377.738 387.076 373.517 394.346C369.288 401.633 362.207 409.248 352.648 416.698C333.543 431.59 305.102 445.389 271.844 454.394C238.586 463.4 207.127 465.82 183.213 462.576C171.248 460.953 161.349 457.936 154.08 453.763C146.828 449.599 142.425 444.432 140.857 438.516C139.288 432.6 140.545 425.901 144.765 418.631C148.994 411.344 156.075 403.729 165.634 396.279C184.739 381.387 213.181 367.588 246.438 358.583C279.696 349.577 311.155 347.157 335.069 350.401C347.034 352.024 356.933 355.041 364.202 359.214C371.454 363.378 375.857 368.545 377.425 374.461Z" stroke="black" stroke-width="7"/>
<path d="M374.472 334.628C376.041 340.544 374.785 347.243 370.565 354.514C366.335 361.8 359.254 369.415 349.696 376.866C330.59 391.758 302.149 405.556 268.891 414.562C235.633 423.567 204.174 425.987 180.26 422.743C168.296 421.12 158.396 418.104 151.128 413.93C143.876 409.766 139.473 404.599 137.904 398.683C136.335 392.768 137.592 386.068 141.812 378.798C146.042 371.511 153.122 363.897 162.681 356.446C181.786 341.554 210.228 327.755 243.486 318.75C276.743 309.745 308.202 307.324 332.116 310.568C344.081 312.191 353.981 315.208 361.249 319.381C368.501 323.545 372.904 328.712 374.472 334.628Z" stroke="black" stroke-width="7"/>
<path d="M739.577 45.4581C741.146 51.3738 739.89 58.0732 735.669 65.3436C731.44 72.6303 724.359 80.2449 714.8 87.6957C695.695 102.588 667.253 116.387 633.996 125.392C600.738 134.397 569.279 136.817 545.365 133.574C533.4 131.951 523.5 128.934 516.232 124.76C508.98 120.596 504.577 115.429 503.009 109.514C501.44 103.598 502.696 96.8983 506.916 89.628C511.146 82.3413 518.227 74.7267 527.785 67.2759C546.891 52.3839 575.332 38.585 608.59 29.5798C641.848 20.5746 673.307 18.1544 697.221 21.398C709.186 23.0209 719.085 26.0378 726.354 30.2112C733.606 34.3752 738.009 39.5423 739.577 45.4581Z" fill="#D8C1F7" stroke="black" stroke-width="7"/>
<path d="M698.88 -10.7639C700.449 -4.84814 699.193 1.85131 694.973 9.12167C690.743 16.4083 683.662 24.023 674.103 31.4738C654.998 46.3658 626.557 60.1647 593.299 69.1699C560.041 78.1751 528.582 80.5953 504.668 77.3516C492.703 75.7288 482.804 72.7118 475.535 68.5385C468.283 64.3744 463.88 59.2073 462.312 53.2916C460.743 47.3759 461.999 40.6764 466.219 33.4061C470.449 26.1194 477.53 18.5047 487.089 11.054C506.194 -3.83803 534.635 -17.637 567.893 -26.6422C601.151 -35.6473 632.61 -38.0675 656.524 -34.8239C668.489 -33.201 678.388 -30.1841 685.657 -26.0107C692.909 -21.8467 697.312 -16.6796 698.88 -10.7639Z" fill="black" stroke="black" stroke-width="7"/>
<path d="M714.85 20.4705C716.419 26.3862 715.162 33.0857 710.942 40.356C706.713 47.6427 699.632 55.2574 690.073 62.7081C670.968 77.6001 642.526 91.3991 609.268 100.404C576.011 109.409 544.552 111.83 520.638 108.586C508.673 106.963 498.773 103.946 491.505 99.7728C484.253 95.6088 479.85 90.4417 478.281 84.526C476.713 78.6102 477.969 71.9108 482.189 64.6404C486.419 57.3538 493.499 49.7391 503.058 42.2884C522.164 27.3963 550.605 13.5974 583.863 4.59222C617.121 -4.41297 648.58 -6.83316 672.494 -3.58951C684.458 -1.96665 694.358 1.05027 701.627 5.22364C708.879 9.38767 713.281 14.5548 714.85 20.4705Z" stroke="black" stroke-width="7"/>
<path d="M550.273 65.8008C536.645 69.9217 538.053 76.7064 540.712 80.0286C546.137 79.3681 564.021 77.7592 571.999 75.3296C569.576 74.9078 566.304 74.7716 572.243 68.2054C579.667 59.9975 554.714 61.5782 570.98 55.3954C586.241 49.5943 574.64 47.0766 570.842 47.8357C567.803 48.443 560.805 49.2059 557.686 49.5115C564.645 54.6337 558.504 53.6016 551.907 58.891C545.31 64.1804 567.306 60.6496 550.273 65.8008Z" fill="white"/>
<path d="M698.88 -10.7639C700.449 -4.84814 699.193 1.85131 694.973 9.12167C690.743 16.4083 683.662 24.023 674.103 31.4738C654.998 46.3658 626.557 60.1647 593.299 69.1699C560.041 78.1751 528.582 80.5953 504.668 77.3516C492.703 75.7288 482.804 72.7118 475.535 68.5385C468.283 64.3744 463.88 59.2073 462.312 53.2916C460.743 47.3759 461.999 40.6764 466.219 33.4061C470.449 26.1194 477.53 18.5047 487.089 11.054C506.194 -3.83803 534.635 -17.637 567.893 -26.6422C601.151 -35.6473 632.61 -38.0675 656.524 -34.8239C668.489 -33.201 678.388 -30.1841 685.657 -26.0107C692.909 -21.8467 697.312 -16.6796 698.88 -10.7639Z" stroke="black" stroke-width="7"/>
<path d="M635.685 6.34743C636.278 8.58307 635.861 11.298 633.993 14.5142C632.116 17.7467 628.902 21.2372 624.421 24.7284C615.473 31.7013 602.039 38.2396 586.232 42.5197C570.425 46.7998 555.556 47.9251 544.356 46.4076C538.749 45.6478 534.238 44.2492 531.013 42.3982C527.804 40.5565 526.099 38.4161 525.507 36.1804C524.914 33.9448 525.331 31.2298 527.199 28.0136C529.076 24.7811 532.29 21.2906 536.771 17.7994C545.719 10.8265 559.153 4.28822 574.96 0.00813441C590.767 -4.27195 605.636 -5.39727 616.836 -3.87974C622.443 -3.11993 626.954 -1.7213 630.179 0.129669C633.388 1.97133 635.093 4.11179 635.685 6.34743Z" fill="#D8C1F7" stroke="black" stroke-width="7"/>
<path d="M695.665 284.742C697.353 291.869 695.621 299.782 690.432 308.195C685.233 316.624 676.697 325.312 665.307 333.707C642.539 350.488 608.941 365.673 569.906 375.114C530.872 384.555 494.111 386.387 466.292 381.842C452.375 379.568 440.871 375.727 432.459 370.59C424.064 365.463 418.973 359.2 417.285 352.073C415.597 344.947 417.33 337.033 422.519 328.62C427.717 320.192 436.253 311.503 447.643 303.108C470.411 286.328 504.009 271.142 543.044 261.701C582.079 252.26 618.839 250.428 646.658 254.973C660.576 257.247 672.079 261.089 680.491 266.226C688.887 271.353 693.977 277.616 695.665 284.742Z" fill="#8C74B7" stroke="black" stroke-width="7"/>
<path d="M701.24 225.189C702.928 232.316 701.195 240.229 696.006 248.642C690.807 257.071 682.272 265.759 670.881 274.154C648.113 290.935 614.516 306.12 575.481 315.561C536.446 325.002 499.685 326.834 471.866 322.289C457.949 320.015 446.446 316.174 438.034 311.037C429.638 305.91 424.547 299.646 422.859 292.52C421.172 285.393 422.904 277.48 428.093 269.067C433.292 260.638 441.828 251.95 453.218 243.555C475.986 226.774 509.584 211.589 548.618 202.148C587.653 192.707 624.414 190.875 652.233 195.42C666.15 197.694 677.654 201.535 686.065 206.672C694.461 211.799 699.552 218.063 701.24 225.189Z" fill="black" stroke="black" stroke-width="7"/>
<path d="M525.385 309.721C509.401 314.086 510.829 322.025 513.82 325.975C520.153 325.378 541.014 324.071 550.372 321.496C547.566 320.928 543.763 320.667 550.877 313.214C559.769 303.897 530.685 304.948 549.803 298.267C567.742 291.999 554.321 288.703 549.877 289.466C546.322 290.077 538.156 290.743 534.517 291C542.455 297.181 535.342 295.786 527.501 301.732C519.661 307.679 545.366 304.265 525.385 309.721Z" fill="white"/>
<path d="M696.094 254.782C697.782 261.909 696.049 269.822 690.86 278.235C685.662 286.664 677.126 295.352 665.736 303.747C642.968 320.528 609.37 335.713 570.335 345.154C531.3 354.595 494.54 356.427 466.72 351.882C452.803 349.608 441.3 345.767 432.888 340.63C424.492 335.503 419.402 329.239 417.714 322.113C416.026 314.986 417.758 307.073 422.947 298.66C428.146 290.231 436.682 281.543 448.072 273.148C470.84 256.367 504.438 241.182 543.473 231.741C582.507 222.3 619.268 220.468 647.087 225.013C661.004 227.287 672.508 231.128 680.92 236.265C689.315 241.392 694.406 247.656 696.094 254.782Z" stroke="black" stroke-width="7"/>
<path d="M701.24 225.189C702.928 232.316 701.195 240.229 696.006 248.642C690.807 257.071 682.272 265.759 670.881 274.154C648.113 290.935 614.516 306.12 575.481 315.561C536.446 325.002 499.685 326.834 471.866 322.289C457.949 320.015 446.446 316.174 438.034 311.037C429.638 305.91 424.547 299.646 422.859 292.52C421.172 285.393 422.904 277.48 428.093 269.067C433.292 260.638 441.828 251.95 453.218 243.555C475.986 226.774 509.584 211.589 548.618 202.148C587.653 192.707 624.414 190.875 652.233 195.42C666.15 197.694 677.654 201.535 686.065 206.672C694.461 211.799 699.552 218.063 701.24 225.189Z" stroke="black" stroke-width="7"/>
<path d="M627.174 243.103C627.84 245.917 627.207 249.22 624.881 252.99C622.546 256.775 618.636 260.787 613.278 264.735C602.574 272.621 586.665 279.832 568.083 284.326C549.501 288.821 532.085 289.67 519.008 287.535C512.461 286.467 507.178 284.679 503.399 282.372C499.637 280.075 497.592 277.419 496.926 274.606C496.26 271.793 496.892 268.489 499.218 264.719C501.554 260.934 505.464 256.923 510.822 252.975C521.525 245.088 537.435 237.877 556.017 233.383C574.599 228.889 592.015 228.039 605.092 230.174C611.638 231.242 616.922 233.03 620.7 235.337C624.463 237.634 626.507 240.29 627.174 243.103Z" fill="#8C74B7" stroke="black" stroke-width="7"/>
</g>
<rect x="3.5" y="-3.5" width="151.793" height="586" transform="matrix(1 0 0 -1 147 586)" fill="black" stroke="black" stroke-width="7"/>
<rect x="168.722" y="35.2585" width="115.349" height="31.0061" rx="15.5031" fill="#FCFCFC" stroke="black" stroke-width="7" stroke-linejoin="round"/>
<rect x="204.646" y="35.2585" width="79.4249" height="31.0061" rx="15.5031" fill="#FD8BA4" stroke="black" stroke-width="7" stroke-linejoin="round"/>
<rect x="250.982" y="35.2585" width="33.0887" height="31.0061" rx="15.5031" fill="#D8C1F7" stroke="black" stroke-width="7" stroke-linejoin="round"/>
<rect x="-3.5" y="3.5" width="115.349" height="31.0061" rx="15.5031" transform="matrix(-1 0 0 1 280.571 64.5583)" fill="#FCFCFC" stroke="black" stroke-width="7" stroke-linejoin="round"/>
<rect x="-3.5" y="3.5" width="79.4249" height="31.0061" rx="15.5031" transform="matrix(-1 0 0 1 244.647 64.5583)" fill="#D8C1F7" stroke="black" stroke-width="7" stroke-linejoin="round"/>
<rect x="-3.5" y="3.5" width="33.0887" height="31.0061" rx="15.5031" transform="matrix(-1 0 0 1 198.311 64.5583)" fill="#FD8BA4" stroke="black" stroke-width="7" stroke-linejoin="round"/>
<rect x="168.722" y="100.858" width="115.349" height="31.0061" rx="15.5031" fill="#FCFCFC" stroke="black" stroke-width="7" stroke-linejoin="round"/>
<rect x="204.646" y="100.858" width="79.4249" height="31.0061" rx="15.5031" fill="#FD8BA4" stroke="black" stroke-width="7" stroke-linejoin="round"/>
<rect x="250.982" y="100.858" width="33.0887" height="31.0061" rx="15.5031" fill="#D8C1F7" stroke="black" stroke-width="7" stroke-linejoin="round"/>
<rect x="-3.5" y="3.5" width="115.349" height="31.0061" rx="15.5031" transform="matrix(-1 0 0 1 280.571 130.158)" fill="#FCFCFC" stroke="black" stroke-width="7" stroke-linejoin="round"/>
<rect x="-3.5" y="3.5" width="79.4249" height="31.0061" rx="15.5031" transform="matrix(-1 0 0 1 244.647 130.158)" fill="#D8C1F7" stroke="black" stroke-width="7" stroke-linejoin="round"/>
<rect x="-3.5" y="3.5" width="33.0887" height="31.0061" rx="15.5031" transform="matrix(-1 0 0 1 198.311 130.158)" fill="#FD8BA4" stroke="black" stroke-width="7" stroke-linejoin="round"/>
<rect x="168.722" y="166.458" width="115.349" height="31.0061" rx="15.5031" fill="#FCFCFC" stroke="black" stroke-width="7" stroke-linejoin="round"/>
<rect x="204.646" y="166.458" width="79.4249" height="31.0061" rx="15.5031" fill="#FD8BA4" stroke="black" stroke-width="7" stroke-linejoin="round"/>
<rect x="250.982" y="166.458" width="33.0887" height="31.0061" rx="15.5031" fill="#D8C1F7" stroke="black" stroke-width="7" stroke-linejoin="round"/>
<rect x="-3.5" y="3.5" width="115.349" height="31.0061" rx="15.5031" transform="matrix(-1 0 0 1 280.571 195.758)" fill="#FCFCFC" stroke="black" stroke-width="7" stroke-linejoin="round"/>
<rect x="-3.5" y="3.5" width="79.4249" height="31.0061" rx="15.5031" transform="matrix(-1 0 0 1 244.647 195.758)" fill="#D8C1F7" stroke="black" stroke-width="7" stroke-linejoin="round"/>
<rect x="-3.5" y="3.5" width="33.0887" height="31.0061" rx="15.5031" transform="matrix(-1 0 0 1 198.311 195.758)" fill="#FD8BA4" stroke="black" stroke-width="7" stroke-linejoin="round"/>
<rect x="168.722" y="232.058" width="115.349" height="31.0061" rx="15.5031" fill="#FCFCFC" stroke="black" stroke-width="7" stroke-linejoin="round"/>
<rect x="204.646" y="232.058" width="79.4249" height="31.0061" rx="15.5031" fill="#FD8BA4" stroke="black" stroke-width="7" stroke-linejoin="round"/>
<rect x="250.982" y="232.058" width="33.0887" height="31.0061" rx="15.5031" fill="#D8C1F7" stroke="black" stroke-width="7" stroke-linejoin="round"/>
<rect x="-3.5" y="3.5" width="115.349" height="31.0061" rx="15.5031" transform="matrix(-1 0 0 1 280.571 261.357)" fill="#FCFCFC" stroke="black" stroke-width="7" stroke-linejoin="round"/>
<rect x="-3.5" y="3.5" width="79.4249" height="31.0061" rx="15.5031" transform="matrix(-1 0 0 1 244.647 261.357)" fill="#D8C1F7" stroke="black" stroke-width="7" stroke-linejoin="round"/>
<rect x="-3.5" y="3.5" width="33.0887" height="31.0061" rx="15.5031" transform="matrix(-1 0 0 1 198.311 261.357)" fill="#FD8BA4" stroke="black" stroke-width="7" stroke-linejoin="round"/>
<rect x="168.722" y="297.657" width="115.349" height="31.0061" rx="15.5031" fill="#FCFCFC" stroke="black" stroke-width="7" stroke-linejoin="round"/>
<rect x="204.646" y="297.657" width="79.4249" height="31.0061" rx="15.5031" fill="#FD8BA4" stroke="black" stroke-width="7" stroke-linejoin="round"/>
<rect x="250.982" y="297.657" width="33.0887" height="31.0061" rx="15.5031" fill="#D8C1F7" stroke="black" stroke-width="7" stroke-linejoin="round"/>
<rect x="-3.5" y="3.5" width="115.349" height="31.0061" rx="15.5031" transform="matrix(-1 0 0 1 280.571 326.957)" fill="#FCFCFC" stroke="black" stroke-width="7" stroke-linejoin="round"/>
<rect x="-3.5" y="3.5" width="79.4249" height="31.0061" rx="15.5031" transform="matrix(-1 0 0 1 244.647 326.957)" fill="#D8C1F7" stroke="black" stroke-width="7" stroke-linejoin="round"/>
<rect x="-3.5" y="3.5" width="33.0887" height="31.0061" rx="15.5031" transform="matrix(-1 0 0 1 198.311 326.957)" fill="#FD8BA4" stroke="black" stroke-width="7" stroke-linejoin="round"/>
<rect x="168.722" y="363.257" width="115.349" height="31.0061" rx="15.5031" fill="#FCFCFC" stroke="black" stroke-width="7" stroke-linejoin="round"/>
<rect x="204.646" y="363.257" width="79.4249" height="31.0061" rx="15.5031" fill="#FD8BA4" stroke="black" stroke-width="7" stroke-linejoin="round"/>
<rect x="250.982" y="363.257" width="33.0887" height="31.0061" rx="15.5031" fill="#D8C1F7" stroke="black" stroke-width="7" stroke-linejoin="round"/>
<rect x="-3.5" y="3.5" width="115.349" height="31.0061" rx="15.5031" transform="matrix(-1 0 0 1 280.571 392.557)" fill="#FCFCFC" stroke="black" stroke-width="7" stroke-linejoin="round"/>
<rect x="-3.5" y="3.5" width="79.4249" height="31.0061" rx="15.5031" transform="matrix(-1 0 0 1 244.647 392.557)" fill="#D8C1F7" stroke="black" stroke-width="7" stroke-linejoin="round"/>
<rect x="-3.5" y="3.5" width="33.0887" height="31.0061" rx="15.5031" transform="matrix(-1 0 0 1 198.311 392.557)" fill="#FD8BA4" stroke="black" stroke-width="7" stroke-linejoin="round"/>
<rect x="168.722" y="428.856" width="115.349" height="31.0061" rx="15.5031" fill="#FCFCFC" stroke="black" stroke-width="7" stroke-linejoin="round"/>
<rect x="204.646" y="428.856" width="79.4249" height="31.0061" rx="15.5031" fill="#FD8BA4" stroke="black" stroke-width="7" stroke-linejoin="round"/>
<rect x="250.982" y="428.856" width="33.0887" height="31.0061" rx="15.5031" fill="#D8C1F7" stroke="black" stroke-width="7" stroke-linejoin="round"/>
<rect x="-3.5" y="3.5" width="115.349" height="31.0061" rx="15.5031" transform="matrix(-1 0 0 1 280.571 458.156)" fill="#FCFCFC" stroke="black" stroke-width="7" stroke-linejoin="round"/>
<rect x="-3.5" y="3.5" width="79.4249" height="31.0061" rx="15.5031" transform="matrix(-1 0 0 1 244.647 458.156)" fill="#D8C1F7" stroke="black" stroke-width="7" stroke-linejoin="round"/>
<rect x="-3.5" y="3.5" width="33.0887" height="31.0061" rx="15.5031" transform="matrix(-1 0 0 1 198.311 458.156)" fill="#FD8BA4" stroke="black" stroke-width="7" stroke-linejoin="round"/>
<rect x="168.722" y="494.456" width="115.349" height="31.0061" rx="15.5031" fill="#FCFCFC" stroke="black" stroke-width="7" stroke-linejoin="round"/>
<rect x="204.646" y="494.456" width="79.4249" height="31.0061" rx="15.5031" fill="#FD8BA4" stroke="black" stroke-width="7" stroke-linejoin="round"/>
<rect x="250.982" y="494.456" width="33.0887" height="31.0061" rx="15.5031" fill="#D8C1F7" stroke="black" stroke-width="7" stroke-linejoin="round"/>
<rect x="-3.5" y="3.5" width="115.349" height="31.0061" rx="15.5031" transform="matrix(-1 0 0 1 280.571 523.756)" fill="#FCFCFC" stroke="black" stroke-width="7" stroke-linejoin="round"/>
<rect x="-3.5" y="3.5" width="79.4249" height="31.0061" rx="15.5031" transform="matrix(-1 0 0 1 244.647 523.756)" fill="#D8C1F7" stroke="black" stroke-width="7" stroke-linejoin="round"/>
<rect x="-3.5" y="3.5" width="33.0887" height="31.0061" rx="15.5031" transform="matrix(-1 0 0 1 198.311 523.756)" fill="#FD8BA4" stroke="black" stroke-width="7" stroke-linejoin="round"/>
<rect x="3.5" y="3.5" width="118.974" height="586" fill="#8C74B7" stroke="black" stroke-width="7"/>
<mask id="mask1" mask-type="alpha" maskUnits="userSpaceOnUse" x="0" y="0" width="126" height="593">
<rect x="3.5" y="3.5" width="118.974" height="586" fill="#E55B42" stroke="black" stroke-width="7"/>
</mask>
<g mask="url(#mask1)">
<path d="M37.224 81.4696C23.9318 80.0529 24.9904 12.6381 38.0809 -2.63417C46.788 -12.7925 56.5836 -12.7925 62.8627 -10.681C90.2047 -1.48701 69.3931 23.422 89.3469 26.6871C109.301 29.9523 131.069 27.4127 133.245 54.2597C135.422 81.1068 107.487 81.8976 89.3469 83.7116C74.7234 85.1739 61.6627 84.0743 37.224 81.4696Z" fill="black" stroke="black" stroke-width="7"/>
<path d="M49.3276 -10.9784C71.0955 -14.6063 76.1746 -0.0945498 78.9458 8.19348C80.9774 25.6078 45.3368 31.1063 28.6481 31.8319C29.3737 -0.0945198 45.4578 -9.64815 49.3276 -10.9784Z" fill="black" stroke="black" stroke-width="7"/>
<mask id="mask2" mask-type="alpha" maskUnits="userSpaceOnUse" x="25" y="-12" width="107" height="100">
<path d="M37.569 81.6409C25.0586 80.2725 26.0549 15.1606 38.3754 0.410029C46.5704 -9.40132 55.7897 -9.40128 61.6995 -7.36197C87.4331 1.518 67.8457 25.5761 86.6258 28.7297C105.406 31.8834 125.893 29.4305 127.942 55.3605C129.991 81.2904 103.699 82.0542 86.6258 83.8062C72.8625 85.2187 60.5701 84.1566 37.569 81.6409Z" fill="black" stroke="black" stroke-width="7"/>
</mask>
<g mask="url(#mask2)">
<path d="M90.1924 56.5021C123.57 52.4388 113.653 39.8778 115.225 31.7753C110.63 30.4451 99.1898 27.6394 90.1924 27.059C81.195 26.4785 78.3514 14.1757 78.7142 9.70118C73.2722 37.6366 29.6848 23.4601 28.2853 35.8226C26.1085 55.0509 29.7824 79.9888 36.6296 81.1723C66.0162 86.2515 56.815 60.5654 90.1924 56.5021Z" fill="black" stroke="black" stroke-width="7"/>
</g>
<rect x="99.2624" y="34.3147" width="8.70714" height="3.62798" rx="1.81399" transform="rotate(90 99.2624 34.3147)" fill="black"/>
<rect x="91.6823" y="40.5779" width="8.70714" height="3.62798" rx="1.81399" transform="rotate(136.012 91.6823 40.5779)" fill="black"/>
<rect x="40.4892" y="50.7114" width="8.70714" height="3.62798" rx="1.81399" transform="rotate(136.012 40.4892 50.7114)" fill="black"/>
<rect x="62.1375" y="54.6462" width="8.70714" height="3.62798" rx="1.81399" transform="rotate(-141.886 62.1375 54.6462)" fill="black"/>
<rect x="43.9976" y="72.0603" width="8.70714" height="3.62798" rx="1.81399" transform="rotate(-141.886 43.9976 72.0603)" fill="black"/>
<rect x="55.0011" y="40.7783" width="8.70714" height="3.62798" rx="1.81399" transform="rotate(124.895 55.0011 40.7783)" fill="black"/>
<rect x="76.8124" y="31.0688" width="8.70714" height="3.62798" rx="1.81399" transform="rotate(59.5359 76.8124 31.0688)" fill="black"/>
<rect x="72.783" y="43.7476" width="8.70714" height="3.62798" rx="1.81399" transform="rotate(59.5359 72.783 43.7476)" fill="black"/>
<rect x="69.513" y="38.6106" width="8.70715" height="3.62798" rx="1.81399" transform="rotate(141.638 69.513 38.6106)" fill="black"/>
<rect x="51.3731" y="56.0249" width="8.70715" height="3.62798" rx="1.81399" transform="rotate(141.638 51.3731 56.0249)" fill="black"/>
<rect x="38.5769" y="34.3147" width="8.70715" height="3.62798" rx="1.81399" transform="rotate(48.4192 38.5769 34.3147)" fill="black"/>
<path d="M37.224 81.4696C23.8733 80.0466 24.9904 12.6381 38.0809 -2.63418C46.788 -12.7925 56.5836 -12.7925 62.8627 -10.6811C90.2047 -1.48702 69.3931 23.4219 89.3469 26.6871C109.301 29.9523 131.069 27.4127 133.245 54.2597C135.422 81.1067 107.487 81.8976 89.3469 83.7116C74.7234 85.1739 61.6627 84.0743 37.224 81.4696Z" fill="black" stroke="black" stroke-width="7"/>
<path d="M208.986 134.14C207.569 147.433 140.154 146.374 124.882 133.284C114.724 124.576 114.724 114.781 116.835 108.502C126.029 81.1597 150.938 101.971 154.203 82.0175C157.468 62.0637 154.929 40.2958 181.776 38.119C208.623 35.9422 209.414 63.8776 211.228 82.0175C212.69 96.641 211.59 109.702 208.986 134.14Z" fill="black" stroke="black" stroke-width="7"/>
<path d="M116.538 122.037C112.91 100.269 127.421 95.1899 135.709 92.4188C153.124 90.3871 158.622 126.028 159.348 142.716C127.421 141.991 117.868 125.907 116.538 122.037Z" fill="black" stroke="black" stroke-width="7"/>
<path d="M208.986 134.14C207.563 147.491 140.154 146.374 124.882 133.284C114.724 124.576 114.724 114.781 116.835 108.502C126.029 81.1597 150.938 101.971 154.203 82.0175C157.468 62.0637 154.929 40.2958 181.776 38.119C208.623 35.9422 209.414 63.8776 211.228 82.0175C212.69 96.641 211.59 109.702 208.986 134.14Z" fill="black" stroke="black" stroke-width="7"/>
<path d="M92.1648 205.249C90.7481 218.541 23.3333 217.482 8.061 204.392C-2.09734 195.685 -2.0973 185.889 0.0141332 179.61C9.20817 152.268 34.1171 173.08 37.3823 153.126C40.6475 133.172 38.1079 111.404 64.9549 109.227C91.8019 107.051 92.5928 134.986 94.4068 153.126C95.8691 167.749 94.7695 180.81 92.1648 205.249Z" fill="black" stroke="black" stroke-width="7"/>
<path d="M-0.283319 193.145C-3.91121 171.377 10.6005 166.298 18.8886 163.527C36.3029 161.495 41.8014 197.136 42.527 213.825C10.6006 213.099 1.04694 197.015 -0.283319 193.145Z" fill="black" stroke="black" stroke-width="7"/>
<mask id="mask3" mask-type="alpha" maskUnits="userSpaceOnUse" x="-2" y="110" width="101" height="108">
<path d="M92.336 204.904C90.9677 217.414 25.8558 216.418 11.1052 204.097C1.29386 195.903 1.2939 186.683 3.33321 180.773C12.2132 155.04 36.2713 174.627 39.4249 155.847C42.5786 137.067 40.1257 116.58 66.0556 114.531C91.9856 112.482 92.7494 138.774 94.5014 155.847C95.9138 169.61 94.8518 181.903 92.336 204.904Z" fill="black" stroke="black" stroke-width="7"/>
</mask>
<g mask="url(#mask3)">
<path d="M67.1972 152.281C63.1338 118.903 50.5729 128.82 42.4704 127.247C41.1401 131.843 38.3345 143.283 37.754 152.281C37.1736 161.278 24.8707 164.122 20.3962 163.759C48.3317 169.201 34.1552 212.788 46.5177 214.188C65.746 216.364 90.6839 212.691 91.8674 205.843C96.9466 176.457 71.2605 185.658 67.1972 152.281Z" fill="black" stroke="black" stroke-width="7"/>
</g>
<rect x="45.0098" y="143.21" width="8.70714" height="3.62798" rx="1.81399" fill="black"/>
<rect x="51.273" y="150.791" width="8.70714" height="3.62798" rx="1.81399" transform="rotate(46.0118 51.273 150.791)" fill="black"/>
<rect x="61.4064" y="201.984" width="8.70714" height="3.62798" rx="1.81399" transform="rotate(46.0118 61.4064 201.984)" fill="black"/>
<rect x="65.3412" y="180.335" width="8.70714" height="3.62798" rx="1.81399" transform="rotate(128.114 65.3412 180.335)" fill="black"/>
<rect x="82.7555" y="198.475" width="8.70714" height="3.62798" rx="1.81399" transform="rotate(128.114 82.7555 198.475)" fill="black"/>
<rect x="51.4734" y="187.472" width="8.70714" height="3.62798" rx="1.81399" transform="rotate(34.8951 51.4734 187.472)" fill="black"/>
<rect x="41.764" y="165.66" width="8.70714" height="3.62798" rx="1.81399" transform="rotate(-30.4641 41.764 165.66)" fill="black"/>
<rect x="54.4426" y="169.69" width="8.70714" height="3.62798" rx="1.81399" transform="rotate(-30.4641 54.4426 169.69)" fill="black"/>
<rect x="49.3058" y="172.96" width="8.70714" height="3.62798" rx="1.81399" transform="rotate(51.638 49.3058 172.96)" fill="black"/>
<rect x="66.72" y="191.1" width="8.70714" height="3.62798" rx="1.81399" transform="rotate(51.638 66.72 191.1)" fill="black"/>
<rect x="45.0098" y="203.896" width="8.70715" height="3.62798" rx="1.81399" transform="rotate(-41.5808 45.0098 203.896)" fill="black"/>
<path d="M92.1648 205.249C90.7418 218.6 23.3333 217.482 8.061 204.392C-2.09735 195.685 -2.09731 185.889 0.0141296 179.61C9.20817 152.268 34.1171 173.08 37.3823 153.126C40.6475 133.172 38.1079 111.404 64.9549 109.227C91.8019 107.051 92.5928 134.986 94.4068 153.126C95.8691 167.749 94.7695 180.81 92.1648 205.249Z" fill="black" stroke="black" stroke-width="7"/>
<path d="M91.1176 524.538C77.8253 523.121 78.8839 455.706 91.9744 440.434C100.682 430.276 110.477 430.276 116.756 432.387C144.098 441.581 123.287 466.49 143.24 469.755C163.194 473.02 184.962 470.481 187.139 497.328C189.316 524.175 161.38 524.966 143.24 526.78C128.617 528.242 115.556 527.142 91.1176 524.538Z" fill="black" stroke="black" stroke-width="7"/>
<path d="M103.221 432.09C124.989 428.462 130.068 442.973 132.839 451.261C134.871 468.676 99.2304 474.174 82.5417 474.9C83.2673 442.973 99.3514 433.42 103.221 432.09Z" fill="black" stroke="black" stroke-width="7"/>
<mask id="mask4" mask-type="alpha" maskUnits="userSpaceOnUse" x="79" y="431" width="107" height="101">
<path d="M91.4625 524.709C78.9522 523.341 79.9485 458.229 92.269 443.478C100.464 433.667 109.683 433.667 115.593 435.706C141.327 444.586 121.739 468.644 140.519 471.798C159.299 474.951 179.787 472.499 181.836 498.429C183.884 524.359 157.592 525.122 140.519 526.874C126.756 528.287 114.464 527.225 91.4625 524.709Z" fill="black" stroke="black" stroke-width="7"/>
</mask>
<g mask="url(#mask4)">
<path d="M144.086 499.57C177.463 495.507 167.547 482.946 169.119 474.843C164.524 473.513 153.083 470.707 144.086 470.127C135.089 469.546 132.245 457.244 132.608 452.769C127.166 480.705 83.5784 466.528 82.1789 478.891C80.0021 498.119 83.676 523.057 90.5232 524.24C119.91 529.319 110.709 503.633 144.086 499.57Z" fill="black" stroke="black" stroke-width="7"/>
</g>
<rect x="94.3827" y="493.779" width="8.70714" height="3.62798" rx="1.81399" transform="rotate(136.012 94.3827 493.779)" fill="black"/>
<rect x="116.031" y="497.714" width="8.70715" height="3.62798" rx="1.81399" transform="rotate(-141.886 116.031 497.714)" fill="black"/>
<rect x="97.8911" y="515.128" width="8.70715" height="3.62798" rx="1.81399" transform="rotate(-141.886 97.8911 515.128)" fill="black"/>
<rect x="108.895" y="483.846" width="8.70715" height="3.62798" rx="1.81399" transform="rotate(124.895 108.895 483.846)" fill="black"/>
<rect x="126.676" y="486.815" width="8.70714" height="3.62798" rx="1.81399" transform="rotate(59.5359 126.676 486.815)" fill="black"/>
<rect x="123.407" y="481.679" width="8.70714" height="3.62798" rx="1.81399" transform="rotate(141.638 123.407 481.679)" fill="black"/>
<rect x="105.267" y="499.093" width="8.70714" height="3.62798" rx="1.81399" transform="rotate(141.638 105.267 499.093)" fill="black"/>
<rect x="92.4704" y="477.383" width="8.70714" height="3.62798" rx="1.81399" transform="rotate(48.4192 92.4704 477.383)" fill="black"/>
<path d="M91.1176 524.538C77.7668 523.115 78.8839 455.706 91.9744 440.434C100.682 430.276 110.477 430.276 116.756 432.387C144.098 441.581 123.287 466.49 143.24 469.755C163.194 473.02 184.962 470.481 187.139 497.328C189.316 524.175 161.38 524.966 143.24 526.78C128.617 528.242 115.556 527.142 91.1176 524.538Z" fill="black" stroke="black" stroke-width="7"/>
<path d="M54.4339 470.091C53.0171 483.383 -14.3976 482.325 -29.6699 469.234C-39.8283 460.527 -39.8282 450.732 -37.7168 444.452C-28.5228 417.11 -3.61379 437.922 -0.348614 417.968C2.91656 398.014 0.376949 376.246 27.224 374.07C54.071 371.893 54.8618 399.828 56.6758 417.968C58.1382 432.592 57.0386 445.652 54.4339 470.091Z" fill="black" stroke="black" stroke-width="7"/>
<path d="M-38.0142 457.987C-41.6421 436.22 -27.1304 431.14 -18.8424 428.369C-1.42806 426.338 4.07044 461.978 4.79603 478.667C-27.1304 477.941 -36.684 461.857 -38.0142 457.987Z" fill="black" stroke="black" stroke-width="7"/>
<mask id="mask5" mask-type="alpha" maskUnits="userSpaceOnUse" x="-39" y="375" width="100" height="108">
<path d="M54.6052 469.746C53.2369 482.257 -11.8751 481.26 -26.6257 468.94C-36.437 460.745 -36.437 451.525 -34.3977 445.616C-25.5177 419.882 -1.45959 439.469 1.69405 420.689C4.84769 401.909 2.39483 381.422 28.3248 379.373C54.2547 377.324 55.0185 403.617 56.7706 420.689C58.183 434.453 57.1209 446.745 54.6052 469.746Z" fill="black" stroke="black" stroke-width="7"/>
</mask>
<g mask="url(#mask5)">
<path d="M29.4663 417.123C25.4029 383.745 12.842 393.662 4.7395 392.09C3.40925 396.685 0.603611 408.125 0.0231342 417.123C-0.557343 426.12 -12.8602 428.964 -17.3347 428.601C10.6008 434.043 -3.5757 477.63 8.78678 479.03C28.0151 481.207 52.953 477.533 54.1365 470.685C59.2157 441.299 33.5296 450.5 29.4663 417.123Z" fill="black" stroke="black" stroke-width="7"/>
</g>
<rect x="7.2789" y="408.053" width="8.70714" height="3.62798" rx="1.81399" fill="black"/>
<rect x="13.542" y="415.633" width="8.70714" height="3.62798" rx="1.81399" transform="rotate(46.0118 13.542 415.633)" fill="black"/>
<rect x="23.6755" y="466.826" width="8.70714" height="3.62798" rx="1.81399" transform="rotate(46.0118 23.6755 466.826)" fill="black"/>
<rect x="27.6103" y="445.178" width="8.70714" height="3.62798" rx="1.81399" transform="rotate(128.114 27.6103 445.178)" fill="black"/>
<rect x="45.0246" y="463.318" width="8.70714" height="3.62798" rx="1.81399" transform="rotate(128.114 45.0246 463.318)" fill="black"/>
<rect x="13.7425" y="452.314" width="8.70714" height="3.62798" rx="1.81399" transform="rotate(34.8951 13.7425 452.314)" fill="black"/>
<rect x="4.03302" y="430.503" width="8.70714" height="3.62798" rx="1.81399" transform="rotate(-30.4641 4.03302 430.503)" fill="black"/>
<rect x="16.7116" y="434.532" width="8.70714" height="3.62798" rx="1.81399" transform="rotate(-30.4641 16.7116 434.532)" fill="black"/>
<rect x="11.5748" y="437.802" width="8.70714" height="3.62798" rx="1.81399" transform="rotate(51.638 11.5748 437.802)" fill="black"/>
<rect x="28.9891" y="455.942" width="8.70714" height="3.62798" rx="1.81399" transform="rotate(51.638 28.9891 455.942)" fill="black"/>
<rect x="7.2789" y="468.738" width="8.70715" height="3.62798" rx="1.81399" transform="rotate(-41.5808 7.2789 468.738)" fill="black"/>
<path d="M54.4339 470.091C53.0109 483.442 -14.3976 482.325 -29.6699 469.234C-39.8283 460.527 -39.8282 450.732 -37.7168 444.452C-28.5228 417.11 -3.6138 437.922 -0.348618 417.968C2.91656 398.014 0.376942 376.246 27.224 374.07C54.071 371.893 54.8618 399.828 56.6758 417.968C58.1382 432.592 57.0386 445.652 54.4339 470.091Z" fill="black" stroke="black" stroke-width="7"/>
<path d="M123.041 266.199C124.458 279.491 191.872 278.432 207.145 265.342C217.303 256.635 217.303 246.839 215.191 240.56C205.997 213.218 181.088 234.03 177.823 214.076C174.558 194.122 177.098 172.354 150.251 170.177C123.404 168.001 122.613 195.936 120.799 214.076C119.337 228.699 120.436 241.76 123.041 266.199Z" fill="black" stroke="black" stroke-width="7"/>
<mask id="mask6" mask-type="alpha" maskUnits="userSpaceOnUse" x="116" y="171" width="101" height="108">
<path d="M122.87 265.854C124.238 278.364 189.35 277.368 204.1 265.047C213.912 256.852 213.912 247.633 211.872 241.723C202.992 215.99 178.934 235.577 175.781 216.797C172.627 198.017 175.08 177.53 149.15 175.481C123.22 173.432 122.456 199.724 120.704 216.797C119.292 230.56 120.354 242.853 122.87 265.854Z" fill="black" stroke="black" stroke-width="7"/>
</mask>
<g mask="url(#mask6)">
<path d="M148.008 213.23C152.072 179.853 164.633 189.77 172.735 188.197C174.066 192.793 176.871 204.233 177.452 213.23C178.032 222.228 190.335 225.072 194.809 224.709C166.874 230.151 181.05 273.738 168.688 275.138C149.46 277.314 124.522 273.641 123.338 266.793C118.259 237.407 143.945 246.608 148.008 213.23Z" fill="black" stroke="black" stroke-width="7"/>
</g>
<path d="M123.041 266.199C124.464 279.55 191.872 278.432 207.145 265.342C217.303 256.635 217.303 246.839 215.191 240.56C205.997 213.218 181.088 234.03 177.823 214.076C174.558 194.122 177.098 172.354 150.251 170.177C123.404 168.001 122.613 195.936 120.799 214.076C119.337 228.699 120.436 241.76 123.041 266.199Z" fill="black" stroke="black" stroke-width="7"/>
<path d="M1.86632 247.764C3.28304 234.472 70.6978 235.53 85.9701 248.621C96.1284 257.328 96.1284 267.124 94.017 273.403C84.8229 300.745 59.914 279.933 56.6488 299.887C53.3836 319.841 55.9232 341.609 29.0762 343.786C2.22916 345.962 1.43832 318.027 -0.375664 299.887C-1.83801 285.264 -0.738426 272.203 1.86632 247.764Z" fill="black" stroke="black" stroke-width="7"/>
<path d="M94.3144 259.868C97.9423 281.635 83.4305 286.715 75.1425 289.486C57.7282 291.517 52.2297 255.877 51.5041 239.188C83.4305 239.914 92.9842 255.998 94.3144 259.868Z" fill="black" stroke="black" stroke-width="7"/>
<mask id="mask7" mask-type="alpha" maskUnits="userSpaceOnUse" x="-5" y="235" width="101" height="108">
<path d="M1.69499 248.109C3.06332 235.599 68.1752 236.595 82.9258 248.915C92.7372 257.11 92.7371 266.33 90.6978 272.24C81.8178 297.973 57.7598 278.386 54.6061 297.166C51.4525 315.946 53.9053 336.433 27.9754 338.482C2.04544 340.531 1.28162 314.239 -0.470398 297.166C-1.8828 283.403 -0.820778 271.11 1.69499 248.109Z" fill="black" stroke="black" stroke-width="7"/>
</mask>
<g mask="url(#mask7)">
<path d="M26.8339 300.732C30.8972 334.11 43.4582 324.193 51.5607 325.765C52.8909 321.17 55.6966 309.73 56.277 300.732C56.8575 291.735 69.1603 288.891 73.6348 289.254C45.6994 283.812 59.8759 240.225 47.5134 238.825C28.2851 236.648 3.34716 240.322 2.16368 247.17C-2.91549 276.556 22.7706 267.355 26.8339 300.732Z" fill="black" stroke="black" stroke-width="7"/>
</g>
<rect x="49.0213" y="309.802" width="8.70714" height="3.62798" rx="1.81399" transform="rotate(-180 49.0213 309.802)" fill="black"/>
<rect x="42.7582" y="302.222" width="8.70714" height="3.62798" rx="1.81399" transform="rotate(-133.988 42.7582 302.222)" fill="black"/>
<rect x="32.6247" y="251.029" width="8.70714" height="3.62798" rx="1.81399" transform="rotate(-133.988 32.6247 251.029)" fill="black"/>
<rect x="28.6899" y="272.677" width="8.70714" height="3.62798" rx="1.81399" transform="rotate(-51.8861 28.6899 272.677)" fill="black"/>
<rect x="11.2756" y="254.538" width="8.70714" height="3.62798" rx="1.81399" transform="rotate(-51.8861 11.2756 254.538)" fill="black"/>
<rect x="42.5577" y="265.541" width="8.70714" height="3.62798" rx="1.81399" transform="rotate(-145.105 42.5577 265.541)" fill="black"/>
<rect x="52.2672" y="287.353" width="8.70714" height="3.62798" rx="1.81399" transform="rotate(149.536 52.2672 287.353)" fill="black"/>
<rect x="39.5886" y="283.323" width="8.70714" height="3.62798" rx="1.81399" transform="rotate(149.536 39.5886 283.323)" fill="black"/>
<rect x="44.7254" y="280.053" width="8.70714" height="3.62798" rx="1.81399" transform="rotate(-128.362 44.7254 280.053)" fill="black"/>
<rect x="27.3111" y="261.913" width="8.70714" height="3.62798" rx="1.81399" transform="rotate(-128.362 27.3111 261.913)" fill="black"/>
<rect x="49.0213" y="249.117" width="8.70715" height="3.62798" rx="1.81399" transform="rotate(138.419 49.0213 249.117)" fill="black"/>
<path d="M1.86632 247.764C3.28928 234.413 70.6978 235.53 85.9701 248.621C96.1284 257.328 96.1284 267.124 94.017 273.403C84.8229 300.745 59.914 279.933 56.6488 299.887C53.3836 319.841 55.9232 341.609 29.0762 343.786C2.22916 345.962 1.43832 318.027 -0.375664 299.887C-1.83801 285.264 -0.738426 272.203 1.86632 247.764Z" fill="black" stroke="black" stroke-width="7"/>
<path d="M90.392 313.065C77.0997 314.482 78.1583 381.896 91.2488 397.169C99.956 407.327 109.752 407.327 116.031 405.215C143.373 396.021 122.561 371.112 142.515 367.847C162.469 364.582 184.237 367.122 186.413 340.275C188.59 313.428 160.655 312.637 142.515 310.823C127.891 309.361 114.831 310.46 90.392 313.065Z" fill="black" stroke="black" stroke-width="7"/>
<path d="M102.496 405.513C124.263 409.141 129.343 394.629 132.114 386.341C134.145 368.927 98.5048 363.428 81.8161 362.703C82.5417 394.629 98.6257 404.183 102.496 405.513Z" fill="black" stroke="black" stroke-width="7"/>
<mask id="mask8" mask-type="alpha" maskUnits="userSpaceOnUse" x="78" y="306" width="107" height="101">
<path d="M90.7369 312.894C78.2266 314.262 79.223 379.374 91.5434 394.124C99.7384 403.936 108.958 403.936 114.868 401.896C140.601 393.016 121.014 368.958 139.794 365.805C158.574 362.651 179.061 365.104 181.11 339.174C183.159 313.244 156.867 312.48 139.794 310.728C126.031 309.316 113.738 310.378 90.7369 312.894Z" fill="black" stroke="black" stroke-width="7"/>
</mask>
<g mask="url(#mask8)">
<path d="M143.36 338.033C176.738 342.096 166.821 354.657 168.394 362.759C163.798 364.09 152.358 366.895 143.36 367.476C134.363 368.056 131.519 380.359 131.882 384.833C126.44 356.898 82.8528 371.075 81.4533 358.712C79.2765 339.484 82.9504 314.546 89.7977 313.362C119.184 308.283 109.983 333.969 143.36 338.033Z" fill="black" stroke="black" stroke-width="7"/>
</g>
<rect width="8.70714" height="3.62798" rx="1.81399" transform="matrix(-0.719483 -0.69451 -0.69451 0.719483 93.6571 343.823)" fill="black"/>
<rect width="8.70715" height="3.62798" rx="1.81399" transform="matrix(-0.786785 0.617227 0.617227 0.786785 115.305 339.888)" fill="black"/>
<rect width="8.70715" height="3.62798" rx="1.81399" transform="matrix(-0.786785 0.617227 0.617227 0.786785 97.1655 322.474)" fill="black"/>
<rect width="8.70715" height="3.62798" rx="1.81399" transform="matrix(-0.572076 -0.8202 -0.8202 0.572076 108.169 353.756)" fill="black"/>
<rect width="8.70714" height="3.62798" rx="1.81399" transform="matrix(0.506999 -0.861947 -0.861947 -0.506999 125.951 350.787)" fill="black"/>
<rect width="8.70714" height="3.62798" rx="1.81399" transform="matrix(-0.784105 -0.620628 -0.620628 0.784105 122.681 355.924)" fill="black"/>
<rect width="8.70714" height="3.62798" rx="1.81399" transform="matrix(-0.784105 -0.620628 -0.620628 0.784105 104.541 338.51)" fill="black"/>
<rect width="8.70714" height="3.62798" rx="1.81399" transform="matrix(0.663675 -0.748021 -0.748021 -0.663675 91.7448 360.22)" fill="black"/>
<path d="M90.392 313.065C77.0412 314.488 78.1583 381.896 91.2488 397.169C99.956 407.327 109.752 407.327 116.031 405.215C143.373 396.021 122.561 371.112 142.515 367.847C162.469 364.582 184.237 367.122 186.413 340.275C188.59 313.428 160.655 312.637 142.515 310.823C127.891 309.361 114.831 310.46 90.392 313.065Z" fill="black" stroke="black" stroke-width="7"/>
<path d="M15.6556 603.898C2.36337 602.481 3.42199 535.067 16.5125 519.794C25.2196 509.636 35.0152 509.636 41.2943 511.748C68.6363 520.942 47.8247 545.851 67.7785 549.116C87.7324 552.381 109.5 549.841 111.677 576.688C113.854 603.535 85.9184 604.326 67.7785 606.14C53.155 607.603 40.0943 606.503 15.6556 603.898Z" fill="black" stroke="black" stroke-width="7"/>
<path d="M27.7593 511.45C49.5271 507.822 54.6063 522.334 57.3774 530.622C59.4091 548.036 23.7685 553.535 7.07975 554.26C7.80537 522.334 23.8894 512.78 27.7593 511.45Z" fill="black" stroke="black" stroke-width="7"/>
<mask id="mask9" mask-type="alpha" maskUnits="userSpaceOnUse" x="3" y="510" width="107" height="101">
<path d="M16.0006 604.07C3.49026 602.701 4.48661 537.589 16.8071 522.839C25.002 513.027 34.2214 513.027 40.1312 515.067C65.8648 523.947 46.2774 548.005 65.0574 551.158C83.8375 554.312 104.325 551.859 106.374 577.789C108.422 603.719 82.1303 604.483 65.0574 606.235C51.2942 607.647 39.0017 606.585 16.0006 604.07Z" fill="black" stroke="black" stroke-width="7"/>
</mask>
<g mask="url(#mask9)">
<path d="M68.6241 578.931C102.002 574.867 92.085 562.306 93.6572 554.204C89.0617 552.874 77.6215 550.068 68.6241 549.488C59.6267 548.907 56.7831 536.604 57.1459 532.13C51.7039 560.065 8.11649 545.889 6.71697 558.251C4.54018 577.479 8.21407 602.417 15.0613 603.601C44.4479 608.68 35.2467 582.994 68.6241 578.931Z" fill="black" stroke="black" stroke-width="7"/>
</g>
<rect x="77.694" y="556.743" width="8.70714" height="3.62798" rx="1.81399" transform="rotate(90 77.694 556.743)" fill="black"/>
<rect x="70.1139" y="563.006" width="8.70714" height="3.62798" rx="1.81399" transform="rotate(136.012 70.1139 563.006)" fill="black"/>
<rect x="18.9208" y="573.14" width="8.70714" height="3.62798" rx="1.81399" transform="rotate(136.012 18.9208 573.14)" fill="black"/>
<rect x="40.5691" y="577.075" width="8.70715" height="3.62798" rx="1.81399" transform="rotate(-141.886 40.5691 577.075)" fill="black"/>
<rect x="22.4292" y="594.489" width="8.70715" height="3.62798" rx="1.81399" transform="rotate(-141.886 22.4292 594.489)" fill="black"/>
<rect x="33.4327" y="563.207" width="8.70715" height="3.62798" rx="1.81399" transform="rotate(124.895 33.4327 563.207)" fill="black"/>
<rect x="55.244" y="553.497" width="8.70714" height="3.62798" rx="1.81399" transform="rotate(59.5359 55.244 553.497)" fill="black"/>
<rect x="51.2146" y="566.176" width="8.70714" height="3.62798" rx="1.81399" transform="rotate(59.5359 51.2146 566.176)" fill="black"/>
<rect x="47.9446" y="561.039" width="8.70714" height="3.62798" rx="1.81399" transform="rotate(141.638 47.9446 561.039)" fill="black"/>
<rect x="29.8047" y="578.453" width="8.70714" height="3.62798" rx="1.81399" transform="rotate(141.638 29.8047 578.453)" fill="black"/>
<rect x="17.0085" y="556.743" width="8.70714" height="3.62798" rx="1.81399" transform="rotate(48.4192 17.0085 556.743)" fill="black"/>
<path d="M20.0092 603.898C6.65841 602.475 7.77553 535.067 20.866 519.795C29.5732 509.636 39.3687 509.636 45.6479 511.748C72.9899 520.942 52.1782 545.851 72.1321 549.116C92.0859 552.381 113.854 549.841 116.031 576.688C118.207 603.535 90.272 604.326 72.1321 606.14C57.5086 607.603 44.4479 606.503 20.0092 603.898Z" fill="black" stroke="black" stroke-width="7"/>
<path d="M29.968 74.4843C16.6758 73.0675 17.7344 5.65276 30.8249 -9.61952C39.5321 -19.7779 49.3276 -19.7778 55.6068 -17.6664C82.9488 -8.47236 62.1371 16.4366 82.0909 19.7018C102.045 22.967 123.813 20.4273 125.989 47.2744C128.166 74.1214 100.231 74.9122 82.0909 76.7262C67.4675 78.1886 54.4068 77.089 29.968 74.4843Z" fill="#8C74B7" stroke="black" stroke-width="7"/>
<path d="M42.0717 -17.964C63.8395 -21.5919 68.9187 -7.08015 71.6898 1.20788C73.7215 18.6222 38.0809 24.1207 21.3922 24.8463C22.1178 -7.08012 38.2018 -16.6338 42.0717 -17.964Z" fill="#D8C1F7" stroke="black" stroke-width="7"/>
<mask id="mask10" mask-type="alpha" maskUnits="userSpaceOnUse" x="17" y="-19" width="108" height="100">
<path d="M30.3131 74.6555C17.8027 73.2872 18.7991 8.17527 31.1195 -6.57532C39.3145 -16.3867 48.5338 -16.3866 54.4436 -14.3473C80.1772 -5.46735 60.5898 18.5907 79.3699 21.7444C98.15 24.898 118.637 22.4452 120.686 48.3751C122.735 74.3051 96.4427 75.0689 79.3699 76.8209C65.6066 78.2333 53.3142 77.1713 30.3131 74.6555Z" fill="#FD8BA4" stroke="black" stroke-width="7"/>
</mask>
<g mask="url(#mask10)">
<path d="M82.9366 49.5167C116.314 45.4534 106.397 32.8925 107.97 24.79C103.374 23.4597 91.9339 20.6541 82.9366 20.0736C73.9392 19.4931 71.0955 7.19033 71.4583 2.71583C66.0163 30.6513 22.4289 16.4748 21.0294 28.8373C18.8526 48.0655 22.5265 73.0035 29.3738 74.187C58.7604 79.2661 49.5592 53.5801 82.9366 49.5167Z" fill="#FFF4D4" stroke="black" stroke-width="7"/>
</g>
<rect x="92.0065" y="27.3293" width="8.70714" height="3.62798" rx="1.81399" transform="rotate(90 92.0065 27.3293)" fill="black"/>
<rect x="84.4263" y="33.5925" width="8.70714" height="3.62798" rx="1.81399" transform="rotate(136.012 84.4263 33.5925)" fill="black"/>
<rect x="33.2332" y="43.7261" width="8.70714" height="3.62798" rx="1.81399" transform="rotate(136.012 33.2332 43.7261)" fill="black"/>
<rect x="54.8815" y="47.6609" width="8.70714" height="3.62798" rx="1.81399" transform="rotate(-141.886 54.8815 47.6609)" fill="black"/>
<rect x="36.7416" y="65.075" width="8.70714" height="3.62798" rx="1.81399" transform="rotate(-141.886 36.7416 65.075)" fill="black"/>
<rect x="47.7451" y="33.793" width="8.70714" height="3.62798" rx="1.81399" transform="rotate(124.895 47.7451 33.793)" fill="black"/>
<rect x="69.5564" y="24.0835" width="8.70714" height="3.62798" rx="1.81399" transform="rotate(59.5359 69.5564 24.0835)" fill="black"/>
<rect x="65.527" y="36.7622" width="8.70714" height="3.62798" rx="1.81399" transform="rotate(59.5359 65.527 36.7622)" fill="black"/>
<rect x="62.257" y="31.6252" width="8.70715" height="3.62798" rx="1.81399" transform="rotate(141.638 62.257 31.6252)" fill="black"/>
<rect x="44.1172" y="49.0396" width="8.70715" height="3.62798" rx="1.81399" transform="rotate(141.638 44.1172 49.0396)" fill="black"/>
<rect x="31.321" y="27.3293" width="8.70715" height="3.62798" rx="1.81399" transform="rotate(48.4192 31.321 27.3293)" fill="black"/>
<path d="M29.968 74.4843C16.6173 73.0613 17.7344 5.65275 30.8249 -9.61953C39.5321 -19.7779 49.3276 -19.7778 55.6068 -17.6664C82.9488 -8.47237 62.1371 16.4366 82.0909 19.7018C102.045 22.9669 123.813 20.4273 125.989 47.2744C128.166 74.1214 100.231 74.9122 82.0909 76.7262C67.4675 78.1886 54.4068 77.089 29.968 74.4843Z" stroke="black" stroke-width="7"/>
<path d="M201.73 127.155C200.313 140.447 132.898 139.389 117.626 126.298C107.468 117.591 107.468 107.796 109.579 101.516C118.773 74.1744 143.682 94.986 146.947 75.0322C150.212 55.0783 147.673 33.3104 174.52 31.1336C201.367 28.9569 202.158 56.8923 203.972 75.0322C205.434 89.6557 204.334 102.716 201.73 127.155Z" fill="#D8C1F7" stroke="black" stroke-width="7"/>
<path d="M109.282 115.052C105.654 93.2837 120.165 88.2046 128.454 85.4334C145.868 83.4017 151.366 119.042 152.092 135.731C120.166 135.005 110.612 118.921 109.282 115.052Z" fill="#8C74B7" stroke="black" stroke-width="7"/>
<path d="M201.73 127.155C200.307 140.506 132.898 139.389 117.626 126.298C107.468 117.591 107.468 107.796 109.579 101.516C118.773 74.1744 143.682 94.986 146.947 75.0322C150.212 55.0783 147.673 33.3104 174.52 31.1336C201.367 28.9569 202.158 56.8923 203.972 75.0322C205.434 89.6557 204.334 102.716 201.73 127.155Z" stroke="black" stroke-width="7"/>
<path d="M84.9089 198.263C83.4921 211.556 16.0774 210.497 0.805084 197.407C-9.35327 188.699 -9.35322 178.904 -7.24179 172.625C1.95225 145.283 26.8612 166.094 30.1264 146.141C33.3916 126.187 30.852 104.419 57.699 102.242C84.546 100.065 85.3369 128.001 87.1508 146.141C88.6132 160.764 87.5136 173.825 84.9089 198.263Z" fill="#D8C1F7" stroke="black" stroke-width="7"/>
<path d="M-7.53924 186.16C-11.1671 164.392 3.34463 159.313 11.6327 156.542C29.0469 154.51 34.5454 190.151 35.271 206.839C3.34465 206.114 -6.20898 190.03 -7.53924 186.16Z" fill="#8C74B7" stroke="black" stroke-width="7"/>
<mask id="mask11" mask-type="alpha" maskUnits="userSpaceOnUse" x="-9" y="103" width="101" height="108">
<path d="M85.0801 197.919C83.7118 210.429 18.5999 209.433 3.84929 197.112C-5.96206 188.917 -5.96202 179.698 -3.92271 173.788C4.95727 148.054 29.0154 167.642 32.169 148.862C35.3226 130.082 32.8698 109.594 58.7997 107.546C84.7297 105.497 85.4935 131.789 87.2455 148.862C88.6579 162.625 87.5959 174.917 85.0801 197.919Z" fill="#FD8BA4" stroke="black" stroke-width="7"/>
</mask>
<g mask="url(#mask11)">
<path d="M59.9412 145.295C55.8779 111.918 43.3169 121.834 35.2144 120.262C33.8842 124.858 31.0786 136.298 30.4981 145.295C29.9176 154.293 17.6148 157.136 13.1403 156.773C41.0757 162.215 26.8992 205.803 39.2617 207.202C58.49 209.379 83.428 205.705 84.6114 198.858C89.6906 169.471 64.0045 178.673 59.9412 145.295Z" fill="#FFF4D4" stroke="black" stroke-width="7"/>
</g>
<rect x="37.7539" y="136.225" width="8.70714" height="3.62798" rx="1.81399" fill="black"/>
<rect x="44.017" y="143.805" width="8.70714" height="3.62798" rx="1.81399" transform="rotate(46.0118 44.017 143.805)" fill="black"/>
<rect x="54.1505" y="194.998" width="8.70714" height="3.62798" rx="1.81399" transform="rotate(46.0118 54.1505 194.998)" fill="black"/>
<rect x="58.0853" y="173.35" width="8.70714" height="3.62798" rx="1.81399" transform="rotate(128.114 58.0853 173.35)" fill="black"/>
<rect x="75.4996" y="191.49" width="8.70714" height="3.62798" rx="1.81399" transform="rotate(128.114 75.4996 191.49)" fill="black"/>
<rect x="44.2175" y="180.486" width="8.70714" height="3.62798" rx="1.81399" transform="rotate(34.8951 44.2175 180.486)" fill="black"/>
<rect x="34.508" y="158.675" width="8.70714" height="3.62798" rx="1.81399" transform="rotate(-30.4641 34.508 158.675)" fill="black"/>
<rect x="47.1866" y="162.705" width="8.70714" height="3.62798" rx="1.81399" transform="rotate(-30.4641 47.1866 162.705)" fill="black"/>
<rect x="42.0498" y="165.975" width="8.70714" height="3.62798" rx="1.81399" transform="rotate(51.638 42.0498 165.975)" fill="black"/>
<rect x="59.4641" y="184.115" width="8.70714" height="3.62798" rx="1.81399" transform="rotate(51.638 59.4641 184.115)" fill="black"/>
<rect x="37.7539" y="196.911" width="8.70715" height="3.62798" rx="1.81399" transform="rotate(-41.5808 37.7539 196.911)" fill="black"/>
<path d="M84.9089 198.263C83.4859 211.614 16.0774 210.497 0.805081 197.407C-9.35327 188.699 -9.35323 178.904 -7.24179 172.625C1.95225 145.283 26.8612 166.094 30.1264 146.141C33.3916 126.187 30.8519 104.419 57.699 102.242C84.546 100.065 85.3369 128.001 87.1508 146.141C88.6132 160.764 87.5136 173.825 84.9089 198.263Z" stroke="black" stroke-width="7"/>
<path d="M83.8616 517.552C70.5694 516.136 71.628 448.721 84.7185 433.449C93.4256 423.29 103.221 423.29 109.5 425.402C136.842 434.596 116.031 459.505 135.985 462.77C155.938 466.035 177.706 463.495 179.883 490.342C182.06 517.19 154.124 517.98 135.985 519.794C121.361 521.257 108.3 520.157 83.8616 517.552Z" fill="#D8C1F7" stroke="black" stroke-width="7"/>
<path d="M95.9653 425.104C117.733 421.476 122.812 435.988 125.583 444.276C127.615 461.69 91.9744 467.189 75.2857 467.914C76.0114 435.988 92.0954 426.434 95.9653 425.104Z" fill="#8C74B7" stroke="black" stroke-width="7"/>
<mask id="mask12" mask-type="alpha" maskUnits="userSpaceOnUse" x="71" y="424" width="108" height="101">
<path d="M84.2066 517.724C71.6962 516.355 72.6926 451.243 85.013 436.493C93.208 426.681 102.427 426.681 108.337 428.721C134.071 437.601 114.483 461.659 133.263 464.812C152.043 467.966 172.531 465.513 174.58 491.443C176.628 517.373 150.336 518.137 133.263 519.889C119.5 521.301 107.208 520.239 84.2066 517.724Z" fill="#FD8BA4" stroke="black" stroke-width="7"/>
</mask>
<g mask="url(#mask12)">
<path d="M136.83 492.585C170.207 488.521 160.291 475.96 161.863 467.858C157.268 466.528 145.827 463.722 136.83 463.142C127.833 462.561 124.989 450.258 125.352 445.784C119.91 473.719 76.3224 459.543 74.9229 471.905C72.7461 491.134 76.42 516.071 83.2673 517.255C112.654 522.334 103.453 496.648 136.83 492.585Z" fill="#FFF4D4" stroke="black" stroke-width="7"/>
</g>
<rect x="87.1268" y="486.794" width="8.70714" height="3.62798" rx="1.81399" transform="rotate(136.012 87.1268 486.794)" fill="black"/>
<rect x="108.775" y="490.729" width="8.70715" height="3.62798" rx="1.81399" transform="rotate(-141.886 108.775 490.729)" fill="black"/>
<rect x="90.6352" y="508.143" width="8.70715" height="3.62798" rx="1.81399" transform="rotate(-141.886 90.6352 508.143)" fill="black"/>
<rect x="101.639" y="476.861" width="8.70715" height="3.62798" rx="1.81399" transform="rotate(124.895 101.639 476.861)" fill="black"/>
<rect x="123.45" y="467.151" width="8.70714" height="3.62798" rx="1.81399" transform="rotate(59.5359 123.45 467.151)" fill="black"/>
<rect x="119.421" y="479.83" width="8.70714" height="3.62798" rx="1.81399" transform="rotate(59.5359 119.421 479.83)" fill="black"/>
<rect x="116.151" y="474.693" width="8.70714" height="3.62798" rx="1.81399" transform="rotate(141.638 116.151 474.693)" fill="black"/>
<rect x="98.0107" y="492.108" width="8.70714" height="3.62798" rx="1.81399" transform="rotate(141.638 98.0107 492.108)" fill="black"/>
<rect x="85.2145" y="470.397" width="8.70714" height="3.62798" rx="1.81399" transform="rotate(48.4192 85.2145 470.397)" fill="black"/>
<path d="M83.8616 517.552C70.5109 516.129 71.628 448.721 84.7185 433.449C93.4256 423.29 103.221 423.29 109.5 425.402C136.842 434.596 116.031 459.505 135.985 462.77C155.938 466.035 177.706 463.495 179.883 490.342C182.06 517.19 154.124 517.98 135.985 519.794C121.361 521.257 108.3 520.157 83.8616 517.552Z" stroke="black" stroke-width="7"/>
<path d="M47.1779 463.106C45.7612 476.398 -21.6536 475.339 -36.9259 462.249C-47.0842 453.542 -47.0842 443.746 -44.9727 437.467C-35.7787 410.125 -10.8697 430.937 -7.60456 410.983C-4.33939 391.029 -6.879 369.261 19.968 367.084C46.8151 364.908 47.6059 392.843 49.4199 410.983C50.8822 425.606 49.7826 438.667 47.1779 463.106Z" fill="#8C74B7" stroke="black" stroke-width="7"/>
<path d="M-45.2702 451.002C-48.8981 429.234 -34.3863 424.155 -26.0983 421.384C-8.68401 419.352 -3.18551 454.993 -2.45992 471.682C-34.3863 470.956 -43.9399 454.872 -45.2702 451.002Z" fill="#D8C1F7" stroke="black" stroke-width="7"/>
<mask id="mask13" mask-type="alpha" maskUnits="userSpaceOnUse" x="-47" y="368" width="101" height="108">
<path d="M47.3492 462.761C45.9809 475.271 -19.131 474.275 -33.8816 461.954C-43.693 453.759 -43.6929 444.54 -41.6536 438.63C-32.7736 412.897 -8.71555 432.484 -5.5619 413.704C-2.40826 394.924 -4.86112 374.437 21.0688 372.388C46.9988 370.339 47.7626 396.631 49.5146 413.704C50.927 427.467 49.865 439.76 47.3492 462.761Z" fill="#FD8BA4" stroke="black" stroke-width="7"/>
</mask>
<g mask="url(#mask13)">
<path d="M22.2103 410.137C18.147 376.76 5.58604 386.677 -2.51645 385.104C-3.8467 389.7 -6.65234 401.14 -7.23282 410.137C-7.81329 419.135 -20.1161 421.979 -24.5906 421.616C3.34482 427.058 -10.8316 470.645 1.53083 472.045C20.7591 474.221 45.6971 470.547 46.8805 463.7C51.9597 434.314 26.2736 443.515 22.2103 410.137Z" fill="#FFF4D4" stroke="black" stroke-width="7"/>
</g>
<rect x="0.0229187" y="401.067" width="8.70714" height="3.62798" rx="1.81399" fill="black"/>
<rect x="6.28607" y="408.647" width="8.70714" height="3.62798" rx="1.81399" transform="rotate(46.0118 6.28607 408.647)" fill="black"/>
<rect x="16.4195" y="459.841" width="8.70714" height="3.62798" rx="1.81399" transform="rotate(46.0118 16.4195 459.841)" fill="black"/>
<rect x="20.3543" y="438.192" width="8.70714" height="3.62798" rx="1.81399" transform="rotate(128.114 20.3543 438.192)" fill="black"/>
<rect x="37.7686" y="456.332" width="8.70714" height="3.62798" rx="1.81399" transform="rotate(128.114 37.7686 456.332)" fill="black"/>
<rect x="6.48651" y="445.329" width="8.70714" height="3.62798" rx="1.81399" transform="rotate(34.8951 6.48651 445.329)" fill="black"/>
<rect x="-3.22293" y="423.517" width="8.70714" height="3.62798" rx="1.81399" transform="rotate(-30.4641 -3.22293 423.517)" fill="black"/>
<rect x="9.45566" y="427.547" width="8.70714" height="3.62798" rx="1.81399" transform="rotate(-30.4641 9.45566 427.547)" fill="black"/>
<rect x="4.31885" y="430.817" width="8.70714" height="3.62798" rx="1.81399" transform="rotate(51.638 4.31885 430.817)" fill="black"/>
<rect x="21.7331" y="448.957" width="8.70714" height="3.62798" rx="1.81399" transform="rotate(51.638 21.7331 448.957)" fill="black"/>
<rect x="0.0229187" y="461.753" width="8.70715" height="3.62798" rx="1.81399" transform="rotate(-41.5808 0.0229187 461.753)" fill="black"/>
<path d="M47.1779 463.106C45.7549 476.457 -21.6536 475.339 -36.9259 462.249C-47.0842 453.542 -47.0842 443.746 -44.9727 437.467C-35.7787 410.125 -10.8697 430.937 -7.60457 410.983C-4.33939 391.029 -6.87901 369.261 19.968 367.084C46.8151 364.908 47.6059 392.843 49.4199 410.983C50.8822 425.606 49.7826 438.667 47.1779 463.106Z" stroke="black" stroke-width="7"/>
<path d="M115.785 259.213C117.202 272.506 184.616 271.447 199.889 258.357C210.047 249.649 210.047 239.854 207.935 233.575C198.741 206.233 173.832 227.044 170.567 207.091C167.302 187.137 169.842 165.369 142.995 163.192C116.148 161.015 115.357 188.951 113.543 207.091C112.081 221.714 113.18 234.775 115.785 259.213Z" fill="#8C74B7" stroke="black" stroke-width="7"/>
<mask id="mask14" mask-type="alpha" maskUnits="userSpaceOnUse" x="109" y="164" width="101" height="108">
<path d="M115.614 258.869C116.982 271.379 182.094 270.383 196.844 258.062C206.656 249.867 206.656 240.648 204.616 234.738C195.736 209.004 171.678 228.592 168.525 209.812C165.371 191.032 167.824 170.544 141.894 168.495C115.964 166.447 115.2 192.739 113.448 209.812C112.036 223.575 113.098 235.867 115.614 258.869Z" fill="#FD8BA4" stroke="black" stroke-width="7"/>
</mask>
<g mask="url(#mask14)">
<path d="M140.753 206.245C144.816 172.868 157.377 182.784 165.479 181.212C166.81 185.808 169.615 197.248 170.196 206.245C170.776 215.242 183.079 218.086 187.553 217.723C159.618 223.165 173.794 266.753 161.432 268.152C142.204 270.329 117.266 266.655 116.082 259.808C111.003 230.421 136.689 239.623 140.753 206.245Z" fill="#FFF4D4" stroke="black" stroke-width="7"/>
</g>
<rect width="8.70714" height="3.62798" rx="1.81399" transform="matrix(0.617227 0.786785 0.786785 -0.617227 125.194 252.44)" fill="black"/>
<path d="M115.785 259.213C117.208 272.564 184.616 271.447 199.889 258.357C210.047 249.649 210.047 239.854 207.935 233.575C198.741 206.233 173.832 227.044 170.567 207.091C167.302 187.137 169.842 165.369 142.995 163.192C116.148 161.015 115.357 188.951 113.543 207.091C112.081 221.714 113.18 234.775 115.785 259.213Z" stroke="black" stroke-width="7"/>
<path d="M-5.38957 240.779C-3.97285 227.487 63.4419 228.545 78.7142 241.636C88.8726 250.343 88.8725 260.138 86.7611 266.417C77.567 293.759 52.6581 272.948 49.3929 292.902C46.1277 312.855 48.6673 334.623 21.8203 336.8C-5.02673 338.977 -5.81757 311.042 -7.63155 292.902C-9.0939 278.278 -7.99432 265.217 -5.38957 240.779Z" fill="#D8C1F7" stroke="black" stroke-width="7"/>
<path d="M87.0585 252.882C90.6864 274.65 76.1747 279.729 67.8866 282.5C50.4723 284.532 44.9738 248.891 44.2482 232.203C76.1746 232.928 85.7283 249.012 87.0585 252.882Z" fill="#8C74B7" stroke="black" stroke-width="7"/>
<mask id="mask15" mask-type="alpha" maskUnits="userSpaceOnUse" x="-12" y="228" width="101" height="108">
<path d="M-5.56084 241.124C-4.19251 228.613 60.9194 229.61 75.67 241.93C85.4813 250.125 85.4813 259.344 83.442 265.254C74.562 290.988 50.5039 271.4 47.3503 290.18C44.1967 308.961 46.6495 329.448 20.7196 331.497C-5.21039 333.545 -5.97421 307.253 -7.72623 290.18C-9.13863 276.417 -8.07661 264.125 -5.56084 241.124Z" fill="#FD8BA4" stroke="black" stroke-width="7"/>
</mask>
<g mask="url(#mask15)">
<path d="M19.5781 293.747C23.6414 327.124 36.2023 317.208 44.3048 318.78C45.6351 314.185 48.4407 302.744 49.0212 293.747C49.6017 284.75 61.9045 281.906 66.379 282.269C38.4435 276.827 52.62 233.239 40.2575 231.84C21.0293 229.663 -3.9087 233.337 -5.09218 240.184C-10.1713 269.571 15.5147 260.37 19.5781 293.747Z" fill="#FFF4D4" stroke="black" stroke-width="7"/>
</g>
<rect x="41.7654" y="302.817" width="8.70714" height="3.62798" rx="1.81399" transform="rotate(-180 41.7654 302.817)" fill="black"/>
<rect x="35.5022" y="295.237" width="8.70714" height="3.62798" rx="1.81399" transform="rotate(-133.988 35.5022 295.237)" fill="black"/>
<rect x="25.3688" y="244.044" width="8.70714" height="3.62798" rx="1.81399" transform="rotate(-133.988 25.3688 244.044)" fill="black"/>
<rect x="21.434" y="265.692" width="8.70714" height="3.62798" rx="1.81399" transform="rotate(-51.8861 21.434 265.692)" fill="black"/>
<rect x="4.01971" y="247.552" width="8.70714" height="3.62798" rx="1.81399" transform="rotate(-51.8861 4.01971 247.552)" fill="black"/>
<rect x="35.3018" y="258.556" width="8.70714" height="3.62798" rx="1.81399" transform="rotate(-145.105 35.3018 258.556)" fill="black"/>
<rect x="45.0112" y="280.367" width="8.70714" height="3.62798" rx="1.81399" transform="rotate(149.536 45.0112 280.367)" fill="black"/>
<rect x="32.3326" y="276.338" width="8.70714" height="3.62798" rx="1.81399" transform="rotate(149.536 32.3326 276.338)" fill="black"/>
<rect x="37.4695" y="273.068" width="8.70714" height="3.62798" rx="1.81399" transform="rotate(-128.362 37.4695 273.068)" fill="black"/>
<rect x="20.0552" y="254.928" width="8.70714" height="3.62798" rx="1.81399" transform="rotate(-128.362 20.0552 254.928)" fill="black"/>
<rect x="41.7654" y="242.132" width="8.70715" height="3.62798" rx="1.81399" transform="rotate(138.419 41.7654 242.132)" fill="black"/>
<path d="M-5.38957 240.779C-3.96661 227.428 63.4419 228.545 78.7142 241.636C88.8726 250.343 88.8725 260.138 86.7611 266.417C77.567 293.759 52.6581 272.948 49.3929 292.902C46.1277 312.855 48.6673 334.623 21.8203 336.8C-5.02673 338.977 -5.81757 311.042 -7.63155 292.902C-9.0939 278.278 -7.99432 265.217 -5.38957 240.779Z" stroke="black" stroke-width="7"/>
<path d="M83.136 306.079C69.8438 307.496 70.9024 374.911 83.9929 390.183C92.7 400.342 102.496 400.342 108.775 398.23C136.117 389.036 115.305 364.127 135.259 360.862C155.213 357.597 176.981 360.136 179.157 333.289C181.334 306.442 153.399 305.651 135.259 303.838C120.635 302.375 107.575 303.475 83.136 306.079Z" fill="#D8C1F7" stroke="black" stroke-width="7"/>
<path d="M95.2396 398.528C117.007 402.156 122.087 387.644 124.858 379.356C126.889 361.941 91.2488 356.443 74.5601 355.717C75.2857 387.644 91.3698 397.197 95.2396 398.528Z" fill="#8C74B7" stroke="black" stroke-width="7"/>
<mask id="mask16" mask-type="alpha" maskUnits="userSpaceOnUse" x="71" y="299" width="107" height="101">
<path d="M83.481 305.908C70.9706 307.277 71.967 372.388 84.2875 387.139C92.4824 396.95 101.702 396.95 107.612 394.911C133.345 386.031 113.758 361.973 132.538 358.819C151.318 355.666 171.805 358.119 173.854 332.189C175.903 306.259 149.611 305.495 132.538 303.743C118.775 302.33 106.482 303.392 83.481 305.908Z" fill="#FD8BA4" stroke="black" stroke-width="7"/>
</mask>
<g mask="url(#mask16)">
<path d="M136.104 331.047C169.482 335.111 159.565 347.672 161.138 355.774C156.542 357.104 145.102 359.91 136.104 360.49C127.107 361.071 124.263 373.374 124.626 377.848C119.184 349.913 75.5969 364.089 74.1973 351.727C72.0206 332.498 75.6944 307.56 82.5417 306.377C111.928 301.298 102.727 326.984 136.104 331.047Z" fill="#FFF4D4" stroke="black" stroke-width="7"/>
</g>
<rect width="8.70714" height="3.62798" rx="1.81399" transform="matrix(-0.719483 -0.69451 -0.69451 0.719483 86.4012 336.838)" fill="black"/>
<rect width="8.70715" height="3.62798" rx="1.81399" transform="matrix(-0.786785 0.617227 0.617227 0.786785 108.049 332.903)" fill="black"/>
<rect width="8.70715" height="3.62798" rx="1.81399" transform="matrix(-0.786785 0.617227 0.617227 0.786785 89.9096 315.489)" fill="black"/>
<rect width="8.70715" height="3.62798" rx="1.81399" transform="matrix(-0.572076 -0.8202 -0.8202 0.572076 100.913 346.771)" fill="black"/>
<rect width="8.70714" height="3.62798" rx="1.81399" transform="matrix(0.506999 -0.861947 -0.861947 -0.506999 122.724 356.48)" fill="black"/>
<rect width="8.70714" height="3.62798" rx="1.81399" transform="matrix(0.506999 -0.861947 -0.861947 -0.506999 118.695 343.802)" fill="black"/>
<rect width="8.70714" height="3.62798" rx="1.81399" transform="matrix(-0.784105 -0.620628 -0.620628 0.784105 115.425 348.938)" fill="black"/>
<rect width="8.70714" height="3.62798" rx="1.81399" transform="matrix(-0.784105 -0.620628 -0.620628 0.784105 97.2851 331.524)" fill="black"/>
<rect width="8.70714" height="3.62798" rx="1.81399" transform="matrix(0.663675 -0.748021 -0.748021 -0.663675 84.4889 353.234)" fill="black"/>
<path d="M83.136 306.079C69.7853 307.502 70.9024 374.911 83.9929 390.183C92.7 400.342 102.496 400.342 108.775 398.23C136.117 389.036 115.305 364.127 135.259 360.862C155.213 357.597 176.981 360.136 179.157 333.289C181.334 306.442 153.399 305.651 135.259 303.838C120.635 302.375 107.575 303.475 83.136 306.079Z" stroke="black" stroke-width="7"/>
<path d="M11.3021 595.917C-1.99018 594.5 -0.931558 527.085 12.159 511.813C20.8661 501.654 30.6616 501.655 36.9408 503.766C64.2828 512.96 43.4712 537.869 63.425 541.134C83.3788 544.399 105.147 541.86 107.324 568.707C109.5 595.554 81.5649 596.345 63.425 598.159C48.8015 599.621 35.7408 598.521 11.3021 595.917Z" fill="#D8C1F7" stroke="black" stroke-width="7"/>
<path d="M23.4057 503.468C45.1735 499.841 50.2527 514.352 53.0239 522.64C55.0555 540.055 19.4149 545.553 2.72621 546.279C3.45182 514.352 19.5359 504.799 23.4057 503.468Z" fill="#8C74B7" stroke="black" stroke-width="7"/>
<mask id="mask17" mask-type="alpha" maskUnits="userSpaceOnUse" x="-1" y="502" width="107" height="101">
<path d="M11.6471 596.088C-0.863285 594.72 0.133063 529.608 12.4535 514.857C20.6485 505.046 29.8678 505.046 35.7776 507.085C61.5113 515.965 41.9238 540.023 60.7039 543.177C79.484 546.33 99.9714 543.878 102.02 569.807C104.069 595.737 77.7767 596.501 60.7039 598.253C46.9406 599.666 34.6482 598.604 11.6471 596.088Z" fill="#FD8BA4" stroke="black" stroke-width="7"/>
</mask>
<g mask="url(#mask17)">
<path d="M64.2705 570.949C97.6479 566.886 87.7315 554.325 89.3036 546.222C84.7081 544.892 73.2679 542.086 64.2705 541.506C55.2732 540.925 52.4295 528.623 52.7923 524.148C47.3503 552.083 3.76292 537.907 2.36339 550.27C0.186605 569.498 3.86049 594.436 10.7077 595.619C40.0943 600.698 30.8931 575.012 64.2705 570.949Z" fill="#FFF4D4" stroke="black" stroke-width="7"/>
</g>
<rect x="73.3405" y="548.762" width="8.70714" height="3.62798" rx="1.81399" transform="rotate(90 73.3405 548.762)" fill="black"/>
<rect x="65.7603" y="555.025" width="8.70714" height="3.62798" rx="1.81399" transform="rotate(136.012 65.7603 555.025)" fill="black"/>
<rect x="14.5672" y="565.158" width="8.70714" height="3.62798" rx="1.81399" transform="rotate(136.012 14.5672 565.158)" fill="black"/>
<rect x="36.2155" y="569.093" width="8.70715" height="3.62798" rx="1.81399" transform="rotate(-141.886 36.2155 569.093)" fill="black"/>
<rect x="18.0756" y="586.507" width="8.70715" height="3.62798" rx="1.81399" transform="rotate(-141.886 18.0756 586.507)" fill="black"/>
<rect x="29.0791" y="555.225" width="8.70715" height="3.62798" rx="1.81399" transform="rotate(124.895 29.0791 555.225)" fill="black"/>
<rect x="50.8904" y="545.516" width="8.70714" height="3.62798" rx="1.81399" transform="rotate(59.5359 50.8904 545.516)" fill="black"/>
<rect x="46.861" y="558.194" width="8.70714" height="3.62798" rx="1.81399" transform="rotate(59.5359 46.861 558.194)" fill="black"/>
<rect x="43.591" y="553.057" width="8.70714" height="3.62798" rx="1.81399" transform="rotate(141.638 43.591 553.057)" fill="black"/>
<rect x="25.4511" y="570.472" width="8.70714" height="3.62798" rx="1.81399" transform="rotate(141.638 25.4511 570.472)" fill="black"/>
<rect x="12.6549" y="548.762" width="8.70714" height="3.62798" rx="1.81399" transform="rotate(48.4192 12.6549 548.762)" fill="black"/>
<path d="M11.3021 595.917C-2.04868 594.494 -0.931558 527.085 12.159 511.813C20.8661 501.654 30.6616 501.655 36.9408 503.766C64.2828 512.96 43.4712 537.869 63.425 541.134C83.3788 544.399 105.147 541.86 107.324 568.707C109.5 595.554 81.5649 596.345 63.425 598.159C48.8015 599.621 35.7408 598.521 11.3021 595.917Z" stroke="black" stroke-width="7"/>
</g>
<rect x="3.5" y="3.5" width="118.974" height="586" stroke="black" stroke-width="7"/>
<mask id="path-320-inside-1" fill="white">
<path fill-rule="evenodd" clip-rule="evenodd" d="M305 103.502C281.763 88.6249 254.139 80 224.5 80C196.127 80 169.599 87.9042 147 101.631V357.369C169.599 371.096 196.127 379 224.5 379C254.139 379 281.763 370.375 305 355.498V103.502ZM326 339.264C355.519 311.955 374 272.886 374 229.5C374 186.114 355.519 147.045 326 119.736V339.264ZM75 229.5C75 184.663 94.7384 144.436 126 117.034V341.966C94.7384 314.564 75 274.337 75 229.5Z"/>
</mask>
<path fill-rule="evenodd" clip-rule="evenodd" d="M305 103.502C281.763 88.6249 254.139 80 224.5 80C196.127 80 169.599 87.9042 147 101.631V357.369C169.599 371.096 196.127 379 224.5 379C254.139 379 281.763 370.375 305 355.498V103.502ZM326 339.264C355.519 311.955 374 272.886 374 229.5C374 186.114 355.519 147.045 326 119.736V339.264ZM75 229.5C75 184.663 94.7384 144.436 126 117.034V341.966C94.7384 314.564 75 274.337 75 229.5Z" fill="#FD8BA4"/>
<path d="M305 103.502H312V99.6717L308.774 97.6065L305 103.502ZM147 101.631L143.366 95.6479L140 97.6924V101.631H147ZM147 357.369H140V361.308L143.366 363.352L147 357.369ZM305 355.498L308.774 361.393L312 359.328V355.498H305ZM326 339.264H319V355.277L330.754 344.403L326 339.264ZM326 119.736L330.754 114.597L319 103.723V119.736H326ZM126 117.034H133V101.59L121.386 111.77L126 117.034ZM126 341.966L121.386 347.23L133 357.41V341.966H126ZM308.774 97.6065C284.444 82.0298 255.516 73 224.5 73V87C252.762 87 279.082 95.22 301.226 109.397L308.774 97.6065ZM224.5 73C194.809 73 167.03 81.2749 143.366 95.6479L150.634 107.614C172.169 94.5335 197.444 87 224.5 87V73ZM140 101.631V357.369H154V101.631H140ZM143.366 363.352C167.03 377.725 194.809 386 224.5 386V372C197.444 372 172.169 364.466 150.634 351.386L143.366 363.352ZM224.5 386C255.516 386 284.444 376.97 308.774 361.393L301.226 349.603C279.082 363.78 252.762 372 224.5 372V386ZM312 355.498V103.502H298V355.498H312ZM330.754 344.403C361.645 315.824 381 274.917 381 229.5H367C367 270.854 349.393 308.086 321.246 334.126L330.754 344.403ZM381 229.5C381 184.083 361.645 143.176 330.754 114.597L321.246 124.874C349.393 150.914 367 188.146 367 229.5H381ZM319 119.736V339.264H333V119.736H319ZM121.386 111.77C88.6724 140.444 68 182.562 68 229.5H82C82 186.763 100.804 148.427 130.614 122.298L121.386 111.77ZM133 341.966V117.034H119V341.966H133ZM68 229.5C68 276.438 88.6724 318.556 121.386 347.23L130.614 336.702C100.804 310.573 82 272.237 82 229.5H68Z" fill="black" mask="url(#path-320-inside-1)"/>
<circle cx="223.5" cy="229.5" r="133.5" fill="#FD8BA4" stroke="white" stroke-width="20"/>
<mask id="mask18" mask-type="alpha" maskUnits="userSpaceOnUse" x="100" y="104" width="250" height="250">
<circle cx="225.049" cy="228.983" r="114.686" fill="#E55B42" stroke="white" stroke-width="20"/>
</mask>
<g mask="url(#mask18)">
<path d="M438.526 364.27C513.362 323.991 517.781 229.264 470.994 186.767C431.866 168.532 417.779 200.757 415.68 216.539C413.706 231.389 423 279.346 396.844 307.775C373.899 332.714 307.605 312.01 254.332 275.407C262.203 302.503 229.965 320.228 220.455 321.616C299.362 379.858 368.438 401.994 438.526 364.27Z" fill="#150D21"/>
<path d="M231.783 147.595C216.507 167.416 211.813 183.451 214.472 208.736C198.473 201.206 188.711 196.664 168.238 205.006C162.743 207.244 157.764 210.793 154.333 215.633C145.864 227.583 149.573 234.863 160.067 245.917C146.754 260.187 144.464 267.604 164.189 278.14C153.786 302.137 171.777 307.756 201.283 318.626C201.949 322.288 212 329.521 217 330C235.5 327.5 257.986 310 267 296C274 283 265.957 282.877 258.986 278.14C268.022 248.615 264.526 233.555 246.621 208.736C236.13 187.435 241.082 174.793 253.672 152.38C253.914 151.949 254.136 151.482 254.303 151.016C260.62 133.373 246.307 128.75 231.783 147.595Z" fill="white" stroke="black" stroke-width="6"/>
<path d="M199.5 318C213.127 321.74 224.5 318 231 306.5" stroke="black" stroke-width="6"/>
<path d="M162.715 278.167C184.33 282.356 200.502 281.053 226.5 273" stroke="black" stroke-width="6"/>
<path d="M157.944 245.844C182.629 251.88 196.953 252.542 224.231 244.186" stroke="black" stroke-width="6"/>
<path d="M169.544 217.281C190.972 212.679 202.487 214.676 222.574 222.253" stroke="black" stroke-width="6"/>
<path d="M182.174 299.783C200 301 206.218 299.374 220.289 289.84" stroke="black" stroke-width="6"/>
<path d="M226 269.5C228.896 278.745 225.887 284.788 219.259 290.588" stroke="black" stroke-width="6"/>
<path d="M223.522 245.061C235.17 253.786 234.543 260.299 220 275" stroke="black" stroke-width="6"/>
<path d="M222 222C237.796 228.985 230.5 240 222.533 245.822" stroke="black" stroke-width="6"/>
<path d="M231.172 257.586C241.736 262.052 243.357 267.246 244.945 277.33" stroke="black" stroke-width="6"/>
<path d="M259.86 277.331C254.821 286.353 256.273 284.726 248.214 291.502" stroke="black" stroke-width="6"/>
</g>
<circle cx="222.5" cy="229.5" r="123" stroke="black" stroke-width="7"/>
</svg>
