<svg width="97" height="97" viewBox="0 0 97 97" fill="none" xmlns="http://www.w3.org/2000/svg">
<path d="M74.3939 50.8072C74.1116 51.7521 73.2384 52.6299 71.5664 53.3122C69.9051 53.9902 67.6058 54.4069 64.794 54.5134C59.1809 54.7261 51.7551 53.695 43.8679 51.3388C35.9806 48.9827 29.206 45.7718 24.6292 42.5152C22.3366 40.8838 20.6426 39.2742 19.6254 37.7961C18.6016 36.3085 18.3529 35.0956 18.6352 34.1507C18.9174 33.2058 19.7907 32.328 21.4627 31.6457C23.124 30.9677 25.4233 30.551 28.2351 30.4444C33.8482 30.2318 41.274 31.2629 49.1612 33.619C57.0484 35.9752 63.8231 39.1861 68.3998 42.4427C70.6925 44.074 72.3865 45.6837 73.4037 47.1618C74.4275 48.6494 74.6762 49.8623 74.3939 50.8072Z" fill="#FCFCFC" stroke="#8C74B7" stroke-width="2" stroke-linejoin="round"/>
<path d="M70.0929 49.4174C70.0084 49.6918 69.6081 50.144 68.2901 50.4717C67.0418 50.782 65.2682 50.8986 63.0621 50.7902C58.6656 50.5741 52.7815 49.4775 46.4682 47.5335C40.1549 45.5895 34.673 43.1864 30.9164 40.892C29.0315 39.7407 27.6307 38.6467 26.7732 37.6879C25.8677 36.6755 25.7912 36.0766 25.8757 35.8022C25.9602 35.5278 26.3604 35.0756 27.6784 34.7479C28.9267 34.4375 30.7003 34.3209 32.9064 34.4294C37.3029 34.6454 43.1871 35.7421 49.5004 37.686C55.8137 39.63 61.2955 42.0332 65.0521 44.3276C66.9371 45.4789 68.3379 46.5729 69.1954 47.5317C70.1008 48.544 70.1774 49.143 70.0929 49.4174Z" fill="#FCFCFC" stroke="#8C74B7" stroke-width="2" stroke-linejoin="round"/>
<path d="M18.0923 34.1555C-3.80453 81.3454 62.4326 104.9 74.5635 52.0526C61.8959 61.4735 18.5376 46.0044 18.0923 34.1555Z" fill="#FCFCFC" stroke="#8C74B7" stroke-width="2" stroke-linejoin="round"/>
<path d="M57.1939 78.2377C75.0074 87.5477 85.8403 59.0524 73.843 55.5482C73.3692 57.5131 71.9871 61.216 70.8518 63.3884C73.8735 66.0739 70.8986 72.1246 65.6456 71.5919C62.2537 75.607 59.6165 76.9183 57.1939 78.2377Z" fill="#FCFCFC" stroke="#8C74B7" stroke-width="2" stroke-linejoin="round"/>
<mask id="mask0" mask-type="alpha" maskUnits="userSpaceOnUse" x="24" y="29" width="49" height="26">
<path d="M69.5258 48.8673C69.4705 49.0468 69.1473 49.4548 67.8597 49.7408C66.66 50.0074 64.9484 50.0879 62.8145 49.9544C58.5627 49.6882 52.8607 48.588 46.7316 46.7008C40.6026 44.8135 35.2693 42.5158 31.6042 40.3442C29.7648 39.2543 28.3949 38.2249 27.5529 37.3297C26.6493 36.3689 26.6115 35.8497 26.6668 35.6703C26.7221 35.4908 27.0453 35.0828 28.3329 34.7967C29.5326 34.5301 31.2442 34.4496 33.3782 34.5832C37.6299 34.8493 43.332 35.9496 49.461 37.8368C55.59 39.724 60.9233 42.0218 64.5884 44.1934C66.4278 45.2833 67.7977 46.3126 68.6397 47.2079C69.5433 48.1687 69.5811 48.6878 69.5258 48.8673Z" fill="#FDFFFF" stroke="#29193E" stroke-width="2" stroke-linejoin="round"/>
</mask>
<g mask="url(#mask0)">
<path d="M46.4315 42.1044C35.4776 41.0946 31.9455 38.8879 24.4861 35.6809L24.8584 47.6485L70.6677 63.7408L73.1087 51.001C64.6768 46.422 61.2517 43.13 46.4315 42.1044Z" fill="#8C74B7" stroke="#8C74B7" stroke-width="2" stroke-linejoin="round"/>
</g>
<path d="M33.8208 71.7484C33.4606 72.5591 32.5467 72.898 31.8033 72.5677C31.0599 72.2374 30.6989 71.3321 31.0591 70.5213C31.1499 70.3169 31.2258 70.2542 31.2475 70.2388C31.2625 70.2282 31.2918 70.2095 31.3807 70.207C31.6286 70.2003 32.0243 70.319 32.6741 70.6077C33.324 70.8965 33.6773 71.1105 33.8385 71.2991C33.8962 71.3666 33.902 71.4009 33.9041 71.4192C33.9072 71.4456 33.9116 71.5439 33.8208 71.7484Z" fill="#8C74B7" stroke="#8C74B7" stroke-width="2" stroke-linejoin="round"/>
<path d="M44.7704 13.803C44.7704 13.803 52.8313 20.6056 41.7044 27.0784C30.5775 33.5512 39.0455 39.5747 39.0455 39.5747" stroke="#8C74B7" stroke-width="2" stroke-linejoin="round"/>
<path d="M63.5905 15.8948C63.5905 15.8948 71.6514 22.6974 60.5245 29.1702C49.3976 35.643 57.8657 41.6665 57.8657 41.6665" stroke="#8C74B7" stroke-width="2" stroke-linejoin="round"/>
<path d="M53.9534 15.2832C53.9534 15.2832 62.0143 22.0858 50.8874 28.5586C39.7605 35.0314 48.2286 41.055 48.2286 41.055" stroke="#8C74B7" stroke-width="2" stroke-linejoin="round"/>
<path d="M30.1901 57.1779C29.956 59.5193 29.0548 61.5283 27.836 62.8893C26.6167 64.2509 25.1373 64.9136 23.6852 64.7655C22.2331 64.6174 20.9148 63.6693 19.9897 62.0889C19.0649 60.5092 18.5797 58.3588 18.8139 56.0174C19.048 53.676 19.9491 51.667 21.1679 50.306C22.3873 48.9443 23.8667 48.2816 25.3188 48.4298C26.7708 48.5779 28.0892 49.526 29.0143 51.1063C29.939 52.686 30.4242 54.8364 30.1901 57.1779Z" fill="white" stroke="black" stroke-width="2" stroke-linejoin="round"/>
<mask id="path-12-inside-1" fill="white">
<path d="M22.6565 57.8267C22.7095 59.2025 23.1255 60.4466 23.8206 61.3087C24.5157 62.1709 25.4385 62.5871 26.4032 62.4736C27.368 62.3602 28.303 61.7254 29.0203 60.6972C29.7376 59.6689 30.1839 58.3234 30.2694 56.9313C30.3548 55.5393 30.0731 54.204 29.481 53.1943C28.8888 52.1845 28.0301 51.5751 27.0776 51.4887C26.1252 51.4023 25.1497 51.8454 24.3474 52.7287C23.545 53.612 22.9755 54.87 22.7533 56.2496L26.4675 56.985L22.6565 57.8267Z"/>
</mask>
<path d="M22.6565 57.8267C22.7095 59.2025 23.1255 60.4466 23.8206 61.3087C24.5157 62.1709 25.4385 62.5871 26.4032 62.4736C27.368 62.3602 28.303 61.7254 29.0203 60.6972C29.7376 59.6689 30.1839 58.3234 30.2694 56.9313C30.3548 55.5393 30.0731 54.204 29.481 53.1943C28.8888 52.1845 28.0301 51.5751 27.0776 51.4887C26.1252 51.4023 25.1497 51.8454 24.3474 52.7287C23.545 53.612 22.9755 54.87 22.7533 56.2496L26.4675 56.985L22.6565 57.8267Z" fill="black" stroke="black" stroke-width="4" stroke-linejoin="round" mask="url(#path-12-inside-1)"/>
<path d="M49.8006 64.1078C49.5665 66.4492 48.6654 68.4582 47.4466 69.8193C46.2272 71.1809 44.7478 71.8436 43.2958 71.6955C41.8437 71.5473 40.5253 70.5992 39.6002 69.0189C38.6755 67.4392 38.1903 65.2888 38.4244 62.9473C38.6585 60.6059 39.5597 58.5969 40.7785 57.2359C41.9978 55.8743 43.4772 55.2116 44.9293 55.3597C46.3814 55.5078 47.6997 56.4559 48.6248 58.0363C49.5496 59.616 50.0348 61.7664 49.8006 64.1078Z" fill="white" stroke="black" stroke-width="2" stroke-linejoin="round"/>
<mask id="path-14-inside-2" fill="white">
<path d="M42.2669 64.7567C42.32 66.1324 42.7359 67.3765 43.4311 68.2387C44.1262 69.1008 45.049 69.517 46.0137 69.4036C46.9784 69.2901 47.9135 68.6554 48.6308 67.6271C49.3481 66.5988 49.7944 65.2533 49.8798 63.8613C49.9653 62.4692 49.6836 61.134 49.0914 60.1242C48.4993 59.1144 47.6406 58.505 46.6881 58.4186C45.7357 58.3323 44.7601 58.7753 43.9578 59.6586C43.1555 60.5419 42.586 61.7999 42.3638 63.1796L46.078 63.915L42.2669 64.7567Z"/>
</mask>
<path d="M42.2669 64.7567C42.32 66.1324 42.7359 67.3765 43.4311 68.2387C44.1262 69.1008 45.049 69.517 46.0137 69.4036C46.9784 69.2901 47.9135 68.6554 48.6308 67.6271C49.3481 66.5988 49.7944 65.2533 49.8798 63.8613C49.9653 62.4692 49.6836 61.134 49.0914 60.1242C48.4993 59.1144 47.6406 58.505 46.6881 58.4186C45.7357 58.3323 44.7601 58.7753 43.9578 59.6586C43.1555 60.5419 42.586 61.7999 42.3638 63.1796L46.078 63.915L42.2669 64.7567Z" fill="black" stroke="black" stroke-width="4" stroke-linejoin="round" mask="url(#path-14-inside-2)"/>
</svg>
