<svg width="427" height="388" viewBox="0 0 427 388" fill="none" xmlns="http://www.w3.org/2000/svg">
<path d="M128.625 259.162C129.068 261.702 130.736 263.997 133.56 265.954C136.389 267.914 140.314 269.485 145.096 270.568C154.655 272.732 167.439 272.896 181.163 270.504C194.887 268.111 206.861 263.631 215.124 258.36C219.258 255.723 222.419 252.916 224.418 250.115C226.414 247.317 227.206 244.594 226.764 242.053C226.321 239.513 224.653 237.218 221.829 235.261C219 233.301 215.075 231.73 210.293 230.647C200.734 228.483 187.95 228.319 174.226 230.711C160.502 233.104 148.528 237.584 140.265 242.855C136.131 245.492 132.97 248.299 130.971 251.1C128.975 253.898 128.183 256.621 128.625 259.162Z" fill="black" stroke="black" stroke-width="2"/>
<path d="M129.443 263.851C129.886 266.391 131.554 268.686 134.378 270.643C137.207 272.603 141.132 274.175 145.914 275.257C155.473 277.421 168.257 277.586 181.981 275.193C195.705 272.801 207.679 268.32 215.942 263.049C220.076 260.412 223.237 257.605 225.236 254.804C227.232 252.007 228.024 249.283 227.582 246.743C227.139 244.202 225.471 241.908 222.647 239.951C219.818 237.991 215.893 236.419 211.111 235.337C201.552 233.173 188.768 233.008 175.044 235.4C161.32 237.793 149.346 242.274 141.082 247.545C136.949 250.181 133.788 252.988 131.789 255.79C129.793 258.587 129 261.311 129.443 263.851Z" stroke="black" stroke-width="2"/>
<path d="M130.086 267.535C130.529 270.075 132.196 272.37 135.02 274.327C137.849 276.287 141.774 277.859 146.556 278.941C156.115 281.105 168.899 281.27 182.623 278.877C196.348 276.485 208.322 272.004 216.585 266.733C220.718 264.096 223.88 261.289 225.878 258.488C227.874 255.691 228.667 252.967 228.224 250.427C227.781 247.886 226.114 245.592 223.289 243.635C220.46 241.675 216.535 240.103 211.754 239.021C202.194 236.857 189.411 236.692 175.686 239.085C161.962 241.477 149.988 245.958 141.725 251.229C137.591 253.865 134.43 256.672 132.431 259.474C130.435 262.271 129.643 264.995 130.086 267.535Z" stroke="black" stroke-width="2"/>
<path d="M158.342 239.426C152.664 240.247 152.039 237.551 152.454 235.897C154.55 235.215 161.364 232.761 164.692 232.287C163.876 232.851 162.702 233.455 165.978 234.825C170.073 236.537 160.677 240.201 167.668 239.678C174.227 239.188 170.405 242.069 168.887 242.439C167.673 242.735 164.985 243.647 163.792 244.066C165.478 241.03 163.404 242.446 160.101 241.65C156.799 240.855 165.441 238.399 158.342 239.426Z" fill="white" stroke="black" stroke-width="2"/>
<path d="M196.273 261.587C201.952 260.765 202.577 263.461 202.162 265.116C200.066 265.797 193.252 268.251 189.924 268.726C190.74 268.162 191.914 267.557 188.638 266.187C184.542 264.475 193.939 260.812 186.948 261.334C180.389 261.824 184.211 258.943 185.728 258.573C186.942 258.277 189.631 257.365 190.824 256.947C189.138 259.983 191.212 258.567 194.514 259.362C197.817 260.157 189.175 262.613 196.273 261.587Z" fill="white" stroke="black" stroke-width="2"/>
<path d="M128.625 259.162C129.068 261.702 130.736 263.997 133.56 265.954C136.389 267.914 140.314 269.485 145.096 270.568C154.655 272.732 167.439 272.896 181.163 270.504C194.887 268.111 206.861 263.631 215.124 258.36C219.258 255.723 222.419 252.916 224.418 250.115C226.414 247.317 227.206 244.594 226.764 242.053C226.321 239.513 224.653 237.218 221.829 235.261C219 233.301 215.075 231.73 210.293 230.647C200.734 228.483 187.95 228.319 174.226 230.711C160.502 233.104 148.528 237.584 140.265 242.855C136.131 245.492 132.97 248.299 130.971 251.1C128.975 253.898 128.183 256.621 128.625 259.162Z" stroke="black" stroke-width="2"/>
<path d="M154.625 254.629C154.807 255.671 155.498 256.665 156.781 257.554C158.067 258.445 159.885 259.179 162.143 259.69C166.655 260.711 172.727 260.794 179.272 259.653C185.817 258.512 191.503 256.379 195.403 253.892C197.355 252.647 198.817 251.341 199.726 250.067C200.633 248.797 200.946 247.628 200.765 246.586C200.583 245.543 199.892 244.549 198.609 243.661C197.323 242.77 195.505 242.035 193.247 241.524C188.735 240.503 182.663 240.42 176.118 241.561C169.573 242.702 163.887 244.835 159.987 247.322C158.035 248.567 156.573 249.873 155.664 251.147C154.757 252.417 154.444 253.587 154.625 254.629Z" fill="#E55B42" stroke="black" stroke-width="2"/>
<path d="M149.781 176.45C149.373 178.786 147.839 180.904 145.224 182.715C142.606 184.53 138.968 185.987 134.53 186.992C125.658 189.001 113.788 189.154 101.042 186.932C88.2949 184.71 77.1774 180.549 69.5085 175.657C65.6721 173.21 62.7421 170.607 60.8918 168.014C59.0444 165.424 58.3171 162.912 58.7244 160.576C59.1317 158.24 60.6661 156.122 63.2807 154.31C65.8994 152.496 69.5372 151.038 73.9754 150.034C82.8472 148.025 94.7169 147.872 107.463 150.094C120.21 152.316 131.328 156.477 138.996 161.369C142.833 163.816 145.763 166.418 147.613 169.012C149.461 171.601 150.188 174.113 149.781 176.45Z" fill="black" stroke="black" stroke-width="2"/>
<path d="M149.021 180.808C148.614 183.144 147.079 185.262 144.465 187.074C141.846 188.888 138.208 190.346 133.77 191.35C124.898 193.359 113.028 193.512 100.282 191.29C87.5352 189.068 76.4176 184.907 68.7488 180.015C64.9124 177.568 61.9824 174.966 60.1321 172.372C58.2847 169.783 57.5573 167.271 57.9646 164.934C58.3719 162.598 59.9063 160.48 62.521 158.669C65.1397 156.854 68.7775 155.397 73.2156 154.392C82.0874 152.383 93.9571 152.23 106.704 154.452C119.45 156.674 130.568 160.835 138.237 165.727C142.073 168.174 145.003 170.777 146.853 173.37C148.701 175.96 149.428 178.472 149.021 180.808Z" stroke="black" stroke-width="2"/>
<path d="M148.424 184.231C148.017 186.567 146.482 188.685 143.868 190.497C141.249 192.311 137.611 193.769 133.173 194.773C124.301 196.782 112.432 196.935 99.685 194.713C86.9385 192.491 75.8209 188.33 68.152 183.438C64.3156 180.991 61.3857 178.389 59.5354 175.795C57.688 173.206 56.9606 170.694 57.3679 168.357C57.7752 166.021 59.3096 163.903 61.9242 162.092C64.543 160.277 68.1807 158.82 72.6189 157.815C81.4907 155.806 93.3604 155.653 106.107 157.875C118.854 160.097 129.971 164.258 137.64 169.15C141.476 171.597 144.406 174.2 146.257 176.793C148.104 179.383 148.831 181.895 148.424 184.231Z" stroke="black" stroke-width="2"/>
<path d="M122.236 158.123C127.513 158.886 128.094 156.381 127.708 154.843C125.76 154.21 119.428 151.93 116.336 151.489C117.094 152.013 118.185 152.575 115.14 153.847C111.335 155.438 120.066 158.843 113.57 158.357C107.475 157.902 111.027 160.579 112.437 160.923C113.565 161.198 116.064 162.045 117.172 162.434C115.605 159.613 117.532 160.929 120.601 160.19C123.671 159.451 115.64 157.169 122.236 158.123Z" fill="white" stroke="black" stroke-width="2"/>
<path d="M86.9884 178.716C81.7113 177.953 81.1308 180.458 81.5162 181.995C83.464 182.629 89.7965 184.909 92.8886 185.35C92.1306 184.825 91.0393 184.264 94.0839 182.991C97.8895 181.4 89.1579 177.995 95.6541 178.481C101.749 178.937 98.1977 176.259 96.7875 175.915C95.6593 175.64 93.1607 174.793 92.0525 174.404C93.6188 177.225 91.692 175.909 88.6229 176.648C85.5538 177.387 93.5848 179.67 86.9884 178.716Z" fill="white" stroke="black" stroke-width="2"/>
<path d="M149.781 176.45C149.373 178.786 147.839 180.904 145.224 182.715C142.606 184.53 138.968 185.987 134.53 186.992C125.658 189.001 113.788 189.154 101.042 186.932C88.2949 184.71 77.1774 180.549 69.5085 175.657C65.6721 173.21 62.7421 170.607 60.8918 168.014C59.0444 165.424 58.3171 162.912 58.7244 160.576C59.1317 158.24 60.6661 156.122 63.2807 154.31C65.8994 152.496 69.5372 151.038 73.9754 150.034C82.8472 148.025 94.7169 147.872 107.463 150.094C120.21 152.316 131.328 156.477 138.996 161.369C142.833 163.816 145.763 166.418 147.613 169.012C149.461 171.601 150.188 174.113 149.781 176.45Z" stroke="black" stroke-width="2"/>
<path d="M125.621 172.238C125.456 173.182 124.829 174.091 123.647 174.91C122.461 175.731 120.782 176.411 118.689 176.884C114.507 177.83 108.874 177.908 102.799 176.849C96.7244 175.79 91.4502 173.811 87.8353 171.506C86.026 170.352 84.6757 169.144 83.8377 167.97C83.0026 166.8 82.7202 165.732 82.8848 164.788C83.0494 163.844 83.6764 162.934 84.8582 162.116C86.0441 161.295 87.7234 160.615 89.8165 160.141C93.9981 159.195 99.631 159.117 105.706 160.176C111.781 161.235 117.055 163.215 120.67 165.52C122.479 166.674 123.83 167.882 124.668 169.056C125.503 170.226 125.785 171.294 125.621 172.238Z" fill="#F98548" stroke="black" stroke-width="2"/>
<path fill-rule="evenodd" clip-rule="evenodd" d="M180.545 22.2119L185.067 21C185.832 30.6225 186.782 36.0662 191.789 46.0841L191.774 46.0881C192.122 46.5141 192.381 47.0035 192.527 47.5466C193.216 50.1194 191.101 52.9216 187.803 53.8054C184.504 54.6892 181.271 53.32 180.582 50.7472C179.893 48.1744 182.008 45.3722 185.306 44.4884C185.531 44.4281 185.756 44.3783 185.98 44.3387C183.365 38.1342 182.013 33.5069 181.149 27.4507L163.703 32.1254C164.484 38.7167 165.858 43.7624 169.749 51.6137C170.294 52.1248 170.691 52.7555 170.886 53.4824C171.575 56.0552 169.46 58.8573 166.162 59.7411C162.863 60.625 159.631 59.2558 158.941 56.683C158.252 54.1102 160.367 51.308 163.665 50.4242C163.828 50.3806 163.991 50.3425 164.153 50.3097C160.809 42.3926 159.517 37.0542 158.68 28.0942L159.619 27.8426L159.619 27.8425L180.547 22.2351L180.545 22.2119Z" fill="white"/>
<path fill-rule="evenodd" clip-rule="evenodd" d="M173.677 38.8797L178.199 40.0916C174.05 48.8071 172.151 53.9967 171.478 65.1757L171.463 65.1717C171.552 65.715 171.532 66.2683 171.386 66.8114C170.697 69.3842 167.464 70.7534 164.166 69.8696C160.867 68.9857 158.752 66.1836 159.442 63.6108C160.131 61.038 163.364 59.6688 166.662 60.5526C166.887 60.6129 167.107 60.6821 167.32 60.7596C168.158 54.079 169.301 49.3956 171.581 43.7189L154.135 39.0443C151.516 45.1429 150.183 50.1995 149.626 58.9441C149.843 59.6592 149.872 60.4045 149.677 61.1315C148.988 63.7043 145.755 65.0735 142.456 64.1897C139.158 63.3058 137.043 60.5037 137.732 57.9309C138.422 55.3581 141.654 53.9889 144.953 54.8727C145.116 54.9163 145.275 54.9645 145.432 55.0172C146.495 46.4889 148.045 41.2199 151.8 33.0418L152.74 33.2935L152.74 33.2935L173.667 38.9009L173.67 38.8938L173.677 38.8797Z" fill="#EFC404"/>
<path fill-rule="evenodd" clip-rule="evenodd" d="M172.834 38.3492L177.357 39.5611C173.208 48.2766 171.309 53.4661 170.636 64.6452L170.621 64.6412C170.71 65.1845 170.689 65.7378 170.544 66.2809C169.854 68.8537 166.622 70.2229 163.323 69.339C160.025 68.4552 157.91 65.6531 158.599 63.0803C159.288 60.5075 162.521 59.1383 165.82 60.0221C166.045 60.0824 166.264 60.1516 166.478 60.2291C167.316 53.5485 168.458 48.8651 170.738 43.1884L153.292 38.5137C150.673 44.6125 149.34 49.6691 148.784 58.4138C149 59.1289 149.029 59.8741 148.834 60.601C148.145 63.1738 144.912 64.543 141.614 63.6591C138.315 62.7753 136.2 59.9732 136.89 57.4004C137.579 54.8275 140.812 53.4584 144.11 54.3422C144.273 54.3858 144.433 54.434 144.589 54.4867C145.652 45.9584 147.203 40.6894 150.958 32.5113L151.897 32.763L151.897 32.7629L172.824 38.3704L172.828 38.3634L172.834 38.3492Z" fill="black"/>
<path fill-rule="evenodd" clip-rule="evenodd" d="M237.216 125.775L243.84 124C244.959 138.093 246.351 146.066 253.684 160.739L253.662 160.745C254.173 161.368 254.552 162.085 254.765 162.881C255.775 166.649 252.677 170.753 247.846 172.047C243.015 173.342 238.28 171.337 237.27 167.568C236.261 163.8 239.359 159.696 244.19 158.402C244.519 158.313 244.848 158.24 245.176 158.182C241.346 149.095 239.366 142.318 238.101 133.448L212.549 140.294C213.693 149.948 215.705 157.338 221.404 168.838C222.202 169.586 222.784 170.51 223.069 171.574C224.079 175.343 220.981 179.447 216.15 180.741C211.319 182.036 206.584 180.03 205.575 176.262C204.565 172.494 207.663 168.39 212.494 167.095C212.732 167.032 212.97 166.976 213.208 166.928C208.31 155.332 206.419 147.513 205.193 134.39L206.568 134.022L206.568 134.022L237.219 125.809L237.218 125.8L237.216 125.775Z" fill="white"/>
<path fill-rule="evenodd" clip-rule="evenodd" d="M227.157 150.187L233.781 151.962C227.704 164.727 224.923 172.328 223.937 188.701L223.915 188.695C224.046 189.491 224.015 190.301 223.802 191.096C222.793 194.865 218.058 196.87 213.227 195.576C208.396 194.281 205.298 190.177 206.308 186.409C207.317 182.641 212.052 180.635 216.883 181.93C217.213 182.018 217.534 182.119 217.847 182.233C219.074 172.448 220.748 165.589 224.087 157.275L198.535 150.428C194.699 159.36 192.747 166.766 191.932 179.574C192.249 180.621 192.292 181.713 192.006 182.777C190.997 186.546 186.262 188.551 181.431 187.257C176.6 185.962 173.502 181.858 174.512 178.09C175.521 174.322 180.256 172.316 185.087 173.611C185.325 173.675 185.559 173.745 185.789 173.822C187.346 161.332 189.617 153.615 195.116 141.637L196.492 142.005L196.492 142.005L227.142 150.218L227.144 150.215L227.157 150.187Z" fill="#EFC404"/>
<path fill-rule="evenodd" clip-rule="evenodd" d="M225.923 149.41L232.547 151.185C226.47 163.95 223.689 171.551 222.703 187.924L222.681 187.918C222.812 188.714 222.782 189.524 222.568 190.319C221.559 194.088 216.824 196.093 211.993 194.799C207.162 193.504 204.064 189.4 205.074 185.632C206.083 181.864 210.818 179.858 215.649 181.153C215.979 181.241 216.3 181.342 216.613 181.456C217.84 171.672 219.514 164.812 222.853 156.498L197.301 149.651C193.465 158.584 191.513 165.99 190.698 178.798C191.015 179.845 191.057 180.936 190.772 182.001C189.763 185.769 185.028 187.774 180.197 186.48C175.366 185.185 172.268 181.081 173.278 177.313C174.287 173.545 179.022 171.539 183.853 172.834C184.091 172.898 184.326 172.968 184.555 173.046C186.112 160.555 188.383 152.838 193.883 140.86L200.507 142.635L200.507 142.635L225.909 149.441L225.923 149.41Z" fill="black"/>
<path d="M180.032 100.909C180.393 102.98 181.754 104.866 184.094 106.488C186.439 108.112 189.702 109.421 193.691 110.324C201.665 112.129 212.342 112.269 223.812 110.269C235.282 108.27 245.281 104.526 252.174 100.129C255.623 97.9291 258.25 95.5933 259.907 93.2713C261.56 90.9534 262.203 88.7178 261.842 86.6477C261.481 84.5775 260.12 82.6911 257.78 81.0695C255.435 79.445 252.172 78.1362 248.183 77.233C240.208 75.4277 229.532 75.2885 218.062 77.2881C206.592 79.2876 196.593 83.0312 189.7 87.4282C186.251 89.628 183.623 91.9638 181.967 94.2858C180.313 96.6037 179.671 98.8393 180.032 100.909Z" fill="black" stroke="black" stroke-width="2"/>
<path d="M180.718 104.834C181.079 106.904 182.439 108.79 184.78 110.412C187.124 112.036 190.387 113.345 194.377 114.248C202.351 116.054 213.027 116.193 224.497 114.193C235.967 112.194 245.967 108.45 252.86 104.053C256.308 101.853 258.936 99.5176 260.593 97.1956C262.246 94.8777 262.889 92.6421 262.528 90.5719C262.167 88.5018 260.806 86.6153 258.465 84.9937C256.121 83.3693 252.858 82.0604 248.868 81.1573C240.894 79.352 230.218 79.2128 218.748 81.2123C207.278 83.2119 197.279 86.9554 190.385 91.3525C186.937 93.5523 184.309 95.8881 182.653 98.2101C180.999 100.528 180.357 102.764 180.718 104.834Z" stroke="black" stroke-width="2"/>
<path d="M181.255 107.917C181.616 109.987 182.977 111.873 185.317 113.495C187.662 115.119 190.925 116.428 194.914 117.331C202.888 119.137 213.565 119.276 225.035 117.276C236.505 115.277 246.504 111.533 253.397 107.136C256.846 104.936 259.473 102.601 261.13 100.279C262.784 97.9608 263.426 95.7251 263.065 93.655C262.704 91.5849 261.343 89.6984 259.003 88.0768C256.658 86.4524 253.395 85.1435 249.406 84.2403C241.431 82.4351 230.755 82.2959 219.285 84.2954C207.815 86.2949 197.816 90.0385 190.923 94.4356C187.474 96.6354 184.846 98.9712 183.19 101.293C181.536 103.611 180.894 105.847 181.255 107.917Z" stroke="black" stroke-width="2"/>
<path d="M204.742 84.4204C199.99 85.1077 199.467 82.8516 199.814 81.467C201.568 80.8964 207.271 78.843 210.056 78.4458C209.373 78.9179 208.391 79.424 211.133 80.5701C214.56 82.0028 206.696 85.069 212.547 84.6317C218.036 84.2214 214.837 86.6326 213.567 86.9423C212.551 87.1901 210.301 87.9531 209.303 88.3036C210.714 85.7627 208.978 86.9479 206.214 86.2823C203.45 85.6166 210.683 83.5613 204.742 84.4204Z" fill="white" stroke="black" stroke-width="2"/>
<path d="M236.486 102.967C241.239 102.28 241.762 104.536 241.415 105.92C239.661 106.491 233.957 108.544 231.173 108.942C231.855 108.469 232.838 107.963 230.096 106.817C226.669 105.385 234.533 102.318 228.682 102.756C223.193 103.166 226.391 100.755 227.661 100.445C228.677 100.197 230.928 99.4343 231.926 99.0837C230.515 101.625 232.25 100.439 235.014 101.105C237.778 101.771 230.546 103.826 236.486 102.967Z" fill="white" stroke="black" stroke-width="2"/>
<path d="M180.032 100.909C180.393 102.98 181.754 104.866 184.094 106.488C186.439 108.112 189.702 109.421 193.691 110.324C201.665 112.129 212.342 112.269 223.812 110.269C235.282 108.27 245.281 104.526 252.174 100.129C255.623 97.9291 258.25 95.5933 259.907 93.2713C261.56 90.9534 262.203 88.7178 261.842 86.6477C261.481 84.5775 260.12 82.6911 257.78 81.0695C255.435 79.445 252.172 78.1362 248.183 77.233C240.208 75.4277 229.532 75.2885 218.062 77.2881C206.592 79.2876 196.593 83.0312 189.7 87.4282C186.251 89.628 183.623 91.9638 181.967 94.2858C180.313 96.6037 179.671 98.8393 180.032 100.909Z" stroke="black" stroke-width="2"/>
<path d="M201.792 97.1158C201.935 97.932 202.478 98.7302 203.528 99.4574C204.582 100.187 206.082 100.796 207.959 101.221C211.709 102.069 216.769 102.14 222.23 101.188C227.692 100.236 232.429 98.4571 235.671 96.3896C237.294 95.3547 238.499 94.2749 239.243 93.2313C239.985 92.1916 240.227 91.2566 240.085 90.4404C239.942 89.6241 239.399 88.826 238.349 88.0987C237.295 87.3687 235.795 86.7604 233.918 86.3356C230.168 85.4871 225.108 85.416 219.647 86.3681C214.185 87.3201 209.448 89.0991 206.206 91.1665C204.583 92.2015 203.378 93.2812 202.634 94.3249C201.892 95.3645 201.65 96.2995 201.792 97.1158Z" fill="#E55B42" stroke="black" stroke-width="2"/>
<path d="M140.455 103.493C140.178 105.081 139.132 106.549 137.288 107.826C135.44 109.106 132.856 110.145 129.68 110.864C123.332 112.302 114.818 112.415 105.662 110.818C96.5054 109.222 88.5322 106.235 83.0449 102.735C80.2993 100.983 78.2194 99.1309 76.9139 97.301C75.6112 95.4751 75.1233 93.7401 75.4001 92.1525C75.6768 90.5649 76.7231 89.0973 78.5667 87.8199C80.4144 86.5397 82.9984 85.5004 86.1747 84.7814C92.5227 83.3443 101.036 83.2311 110.193 84.8274C119.349 86.4236 127.323 89.4109 132.81 92.9112C135.556 94.6626 137.635 96.5149 138.941 98.3448C140.244 100.171 140.732 101.906 140.455 103.493Z" fill="black" stroke="black" stroke-width="2"/>
<path d="M139.907 106.633C139.631 108.22 138.584 109.688 136.741 110.965C134.893 112.246 132.309 113.285 129.133 114.004C122.785 115.441 114.271 115.554 105.114 113.958C95.9579 112.362 87.9847 109.374 82.4974 105.874C79.7518 104.123 77.672 102.27 76.3664 100.44C75.0637 98.6145 74.5758 96.8795 74.8526 95.2919C75.1293 93.7043 76.1756 92.2367 78.0192 90.9593C79.867 89.6791 82.4509 88.6398 85.6272 87.9208C91.9752 86.4837 100.489 86.3705 109.645 87.9668C118.802 89.563 126.775 92.5503 132.262 96.0506C135.008 97.802 137.088 99.6543 138.393 101.484C139.696 103.31 140.184 105.045 139.907 106.633Z" stroke="black" stroke-width="2"/>
<path d="M139.477 109.1C139.2 110.687 138.154 112.155 136.311 113.432C134.463 114.712 131.879 115.752 128.703 116.471C122.355 117.908 113.841 118.021 104.684 116.425C95.5279 114.828 87.5547 111.841 82.0674 108.341C79.3218 106.589 77.2419 104.737 75.9364 102.907C74.6337 101.081 74.1458 99.3463 74.4225 97.7587C74.6993 96.1711 75.7455 94.7035 77.5892 93.4261C79.4369 92.1459 82.0209 91.1066 85.1972 90.3876C91.5452 88.9505 100.059 88.8373 109.215 90.4336C118.372 92.0298 126.345 95.0171 131.832 98.5174C134.578 100.269 136.658 102.121 137.963 103.951C139.266 105.777 139.754 107.512 139.477 109.1Z" stroke="black" stroke-width="2"/>
<path d="M120.884 90.3364C124.686 90.8863 125.105 89.0813 124.827 87.9737C123.424 87.5172 118.861 85.8744 116.633 85.5567C117.179 85.9343 117.966 86.3392 115.772 87.2562C113.03 88.4023 119.321 90.8553 114.641 90.5055C110.249 90.1772 112.808 92.1062 113.824 92.354C114.637 92.5522 116.437 93.1626 117.236 93.443C116.107 91.4103 117.495 92.3584 119.707 91.8259C121.918 91.2934 116.132 89.6492 120.884 90.3364Z" fill="white" stroke="black" stroke-width="2"/>
<path d="M95.4886 105.174C91.6865 104.624 91.2683 106.429 91.5459 107.536C92.9493 107.993 97.5118 109.636 99.7397 109.953C99.1935 109.576 98.4073 109.171 100.601 108.254C103.343 107.108 97.0518 104.655 101.732 105.005C106.124 105.333 103.565 103.404 102.549 103.156C101.736 102.958 99.9358 102.348 99.1373 102.067C100.266 104.1 98.8776 103.152 96.6663 103.684C94.455 104.217 100.241 105.861 95.4886 105.174Z" fill="white" stroke="black" stroke-width="2"/>
<path d="M140.455 103.493C140.178 105.081 139.132 106.549 137.288 107.826C135.44 109.106 132.856 110.145 129.68 110.864C123.332 112.302 114.818 112.415 105.662 110.818C96.5054 109.222 88.5322 106.235 83.0449 102.735C80.2993 100.983 78.2194 99.1309 76.9139 97.301C75.6112 95.4751 75.1233 93.7401 75.4001 92.1525C75.6768 90.5649 76.7231 89.0973 78.5667 87.8199C80.4144 86.5397 82.9984 85.5004 86.1747 84.7814C92.5227 83.3443 101.036 83.2311 110.193 84.8274C119.349 86.4236 127.323 89.4109 132.81 92.9112C135.556 94.6626 137.635 96.5149 138.941 98.3448C140.244 100.171 140.732 101.906 140.455 103.493Z" stroke="black" stroke-width="2"/>
<path d="M123.047 100.458C122.945 101.043 122.553 101.64 121.742 102.202C120.926 102.766 119.753 103.245 118.267 103.582C115.298 104.253 111.278 104.312 106.928 103.554C102.578 102.795 98.8152 101.38 96.2488 99.7433C94.9636 98.9237 94.0219 98.0763 93.4458 97.269C92.8725 96.4657 92.7052 95.7712 92.8071 95.1868C92.9089 94.6023 93.3014 94.0054 94.1126 93.4435C94.928 92.8788 96.1009 92.4 97.5876 92.0636C100.556 91.392 104.577 91.3333 108.926 92.0916C113.276 92.8498 117.039 94.2654 119.605 95.902C120.891 96.7215 121.832 97.569 122.408 98.3763C122.982 99.1795 123.149 99.874 123.047 100.458Z" fill="#E55B42" stroke="black" stroke-width="2"/>
<path d="M179.871 331.105C180.302 332.715 179.958 334.545 178.789 336.539C177.617 338.537 175.653 340.627 173 342.674C167.696 346.765 159.799 350.557 150.563 353.032C141.328 355.506 132.593 356.171 125.954 355.28C122.633 354.834 119.887 354.006 117.873 352.861C115.863 351.719 114.65 350.306 114.219 348.696C113.787 347.086 114.131 345.256 115.301 343.262C116.473 341.264 118.436 339.173 121.09 337.126C126.394 333.036 134.291 329.244 143.526 326.769C152.762 324.294 161.497 323.63 168.135 324.521C171.457 324.967 174.203 325.795 176.217 326.94C178.227 328.082 179.439 329.494 179.871 331.105Z" fill="#F98548" stroke="black" stroke-width="2"/>
<path d="M179.298 309.356C179.73 310.966 179.386 312.796 178.217 314.79C177.045 316.788 175.081 318.879 172.427 320.926C167.124 325.017 159.227 328.808 149.991 331.283C140.755 333.758 132.021 334.422 125.382 333.531C122.06 333.086 119.315 332.257 117.301 331.113C115.291 329.971 114.078 328.558 113.647 326.947C113.215 325.337 113.559 323.507 114.728 321.513C115.901 319.515 117.864 317.425 120.518 315.378C125.821 311.287 133.718 307.495 142.954 305.02C152.19 302.546 160.924 301.881 167.563 302.772C170.885 303.218 173.63 304.047 175.645 305.191C177.654 306.333 178.867 307.746 179.298 309.356Z" fill="black" stroke="black" stroke-width="2"/>
<path d="M180.119 320.304C180.55 321.915 180.206 323.745 179.037 325.738C177.865 327.737 175.901 329.827 173.247 331.874C167.944 335.965 160.047 339.757 150.811 342.231C141.576 344.706 132.841 345.371 126.202 344.48C122.881 344.034 120.135 343.205 118.121 342.061C116.111 340.919 114.898 339.506 114.467 337.896C114.035 336.285 114.379 334.456 115.548 332.462C116.721 330.464 118.684 328.373 121.338 326.326C126.642 322.235 134.538 318.443 143.774 315.969C153.01 313.494 161.745 312.829 168.383 313.72C171.705 314.166 174.45 314.995 176.465 316.139C178.474 317.281 179.687 318.694 180.119 320.304Z" stroke="black" stroke-width="2"/>
<path d="M155.32 305.56C159.105 304.427 158.714 302.563 157.975 301.649C156.468 301.831 151.501 302.273 149.285 302.941C149.958 303.057 150.867 303.094 149.217 304.899C147.156 307.155 154.086 306.721 149.568 308.42C145.329 310.015 148.552 310.707 149.607 310.498C150.451 310.331 152.394 310.121 153.261 310.037C151.328 308.629 153.033 308.913 154.866 307.459C156.698 306.005 150.589 306.976 155.32 305.56Z" fill="white" stroke="black" stroke-width="2"/>
<path d="M138.05 330.393C134.265 331.526 134.656 333.391 135.395 334.304C136.902 334.122 141.869 333.68 144.085 333.012C143.412 332.896 142.503 332.859 144.153 331.054C146.214 328.798 139.284 329.233 143.802 327.533C148.041 325.939 144.818 325.247 143.763 325.455C142.919 325.622 140.976 325.832 140.109 325.916C142.042 327.324 140.337 327.04 138.504 328.494C136.672 329.948 142.781 328.977 138.05 330.393Z" fill="white" stroke="black" stroke-width="2"/>
<path d="M179.298 309.356C179.73 310.966 179.386 312.796 178.217 314.79C177.045 316.788 175.081 318.879 172.427 320.926C167.124 325.017 159.227 328.808 149.991 331.283C140.755 333.758 132.021 334.422 125.382 333.531C122.06 333.086 119.315 332.257 117.301 331.113C115.291 329.971 114.078 328.558 113.647 326.947C113.215 325.337 113.559 323.507 114.728 321.513C115.901 319.515 117.864 317.425 120.518 315.378C125.821 311.287 133.718 307.495 142.954 305.02C152.19 302.546 160.924 301.881 167.563 302.772C170.885 303.218 173.63 304.047 175.645 305.191C177.654 306.333 178.867 307.746 179.298 309.356Z" stroke="black" stroke-width="2"/>
<path d="M161.746 314.059C161.907 314.658 161.796 315.393 161.28 316.272C160.761 317.156 159.871 318.113 158.628 319.072C156.146 320.986 152.417 322.782 148.028 323.958C143.64 325.134 139.513 325.443 136.406 325.026C134.85 324.817 133.601 324.434 132.709 323.928C131.823 323.424 131.359 322.843 131.199 322.244C131.039 321.645 131.149 320.911 131.665 320.031C132.184 319.147 133.074 318.19 134.317 317.232C136.799 315.317 140.528 313.521 144.917 312.345C149.305 311.169 153.433 310.861 156.54 311.277C158.095 311.486 159.345 311.87 160.236 312.376C161.122 312.879 161.586 313.46 161.746 314.059Z" fill="#F98548" stroke="black" stroke-width="2"/>
<path fill-rule="evenodd" clip-rule="evenodd" d="M55.0972 227.701L58.9987 220.944C71.2384 231.382 78.7731 236.677 96.4778 242.582L96.4649 242.605C97.3779 242.695 98.2597 242.967 99.0711 243.436C102.915 245.655 103.725 251.449 100.879 256.378C98.034 261.306 92.6111 263.502 88.767 261.283C84.9229 259.063 84.1132 253.269 86.9586 248.341C87.1527 248.004 87.3589 247.681 87.5757 247.371C77.1833 243.14 70.1373 239.281 61.9829 233.162L46.9332 259.229C55.6207 266.076 63.1856 270.403 77.0223 275.07C78.2664 275.03 79.4783 275.305 80.5642 275.932C84.4084 278.151 85.218 283.945 82.3726 288.874C79.5272 293.802 74.1043 295.998 70.2601 293.779C66.416 291.559 65.6064 285.765 68.4518 280.837C68.5921 280.593 68.7388 280.357 68.8912 280.127C55.6216 274.738 47.8088 269.97 36.264 260.398L40.1655 253.64L40.1656 253.64L55.1271 227.726L55.1127 227.714L55.0972 227.701Z" fill="white"/>
<path fill-rule="evenodd" clip-rule="evenodd" d="M66.6454 255.436L73.403 251.534C78.7837 266.694 82.6615 275.047 95.0416 289.013L95.0193 289.026C95.7646 289.561 96.3924 290.237 96.8608 291.049C99.0802 294.893 96.8842 300.316 91.9558 303.161C87.0275 306.007 81.233 305.197 79.0136 301.353C76.7942 297.509 78.9903 292.086 83.9186 289.241C84.2549 289.046 84.5951 288.869 84.938 288.709C78.053 279.849 73.8807 272.984 69.8781 263.608L43.8111 278.657C47.9113 288.93 52.2991 296.46 61.9482 307.42C63.0459 308.008 63.9584 308.852 64.5855 309.938C66.8049 313.782 64.6088 319.205 59.6805 322.05C54.7521 324.896 48.9577 324.086 46.7383 320.242C44.5189 316.398 46.7149 310.975 51.6433 308.129C51.8863 307.989 52.1315 307.858 52.3782 307.735C43.5811 296.433 39.1993 288.397 33.9872 274.335L35.3906 273.525L35.3905 273.525L66.6588 255.472L66.6512 255.451L66.6454 255.436Z" fill="#EFC404"/>
<path fill-rule="evenodd" clip-rule="evenodd" d="M65.0273 255.803L71.7849 251.902C77.1656 267.062 81.0434 275.414 93.4235 289.381L93.4012 289.394C94.1465 289.929 94.7742 290.605 95.2427 291.417C97.4621 295.261 95.2661 300.684 90.3377 303.529C85.4093 306.374 79.6149 305.565 77.3955 301.721C75.1761 297.877 77.3722 292.454 82.3005 289.608C82.6368 289.414 82.977 289.237 83.3199 289.077C76.4349 280.217 72.2627 273.352 68.26 263.975L42.1931 279.025C46.2933 289.298 50.6812 296.828 60.3303 307.788C61.4279 308.375 62.3403 309.219 62.9674 310.305C65.1868 314.15 62.9907 319.572 58.0624 322.418C53.134 325.263 47.3396 324.454 45.1202 320.609C42.9007 316.765 45.0968 311.342 50.0252 308.497C50.2682 308.357 50.5134 308.225 50.7602 308.103C41.963 296.801 37.5812 288.764 32.3691 274.703L33.7727 273.892L39.1267 270.801L65.0408 255.84L65.04 255.837L65.0273 255.803Z" fill="black"/>
<path d="M331.359 189.707C330.842 191.635 331.259 193.808 332.634 196.152C334.011 198.499 336.312 200.946 339.408 203.334C345.597 208.108 354.801 212.525 365.558 215.408C376.314 218.29 386.495 219.066 394.241 218.026C398.117 217.506 401.332 216.538 403.699 215.193C406.061 213.851 407.508 212.178 408.025 210.25C408.541 208.323 408.124 206.149 406.75 203.806C405.373 201.458 403.072 199.012 399.976 196.624C393.787 191.85 384.582 187.432 373.826 184.55C363.07 181.668 352.889 180.891 345.143 181.931C341.267 182.451 338.052 183.419 335.685 184.764C333.323 186.106 331.875 187.78 331.359 189.707Z" fill="#F98548" stroke="black" stroke-width="2"/>
<path d="M344.505 171.736C343.988 173.664 344.405 175.837 345.78 178.18C347.157 180.528 349.457 182.974 352.554 185.362C358.743 190.136 367.947 194.554 378.704 197.436C389.46 200.318 399.641 201.095 407.387 200.055C411.263 199.535 414.478 198.567 416.844 197.222C419.207 195.88 420.654 194.206 421.171 192.279C421.687 190.351 421.27 188.178 419.896 185.834C418.519 183.487 416.218 181.041 413.122 178.652C406.933 173.879 397.728 169.461 386.972 166.579C376.216 163.697 366.035 162.92 358.289 163.96C354.413 164.48 351.198 165.448 348.831 166.793C346.469 168.135 345.021 169.809 344.505 171.736Z" fill="black" stroke="black" stroke-width="2"/>
<path d="M339.346 181.72C338.83 183.648 339.247 185.821 340.621 188.164C341.998 190.512 344.299 192.958 347.395 195.347C353.584 200.12 362.789 204.538 373.545 207.42C384.301 210.302 394.482 211.079 402.228 210.039C406.104 209.519 409.319 208.551 411.686 207.206C414.048 205.864 415.496 204.19 416.012 202.263C416.529 200.335 416.112 198.162 414.737 195.819C413.36 193.471 411.059 191.025 407.963 188.636C401.774 183.863 392.57 179.445 381.813 176.563C371.057 173.681 360.876 172.904 353.13 173.944C349.254 174.464 346.039 175.432 343.672 176.777C341.31 178.119 339.863 179.793 339.346 181.72Z" stroke="black" stroke-width="2"/>
<path d="M372.549 167.364C368.147 166.046 368.602 163.878 369.46 162.816C371.213 163.027 376.99 163.541 379.567 164.318C378.784 164.453 377.727 164.496 379.645 166.595C382.043 169.219 373.983 168.714 379.237 170.69C384.167 172.544 380.42 173.349 379.193 173.106C378.211 172.912 375.951 172.668 374.943 172.571C377.191 170.933 375.208 171.263 373.077 169.572C370.946 167.882 378.051 169.01 372.549 167.364Z" fill="white" stroke="black" stroke-width="2"/>
<path d="M392.633 196.244C397.034 197.561 396.58 199.73 395.721 200.792C393.968 200.581 388.192 200.066 385.615 199.29C386.397 199.155 387.454 199.111 385.536 197.012C383.138 194.389 391.198 194.894 385.944 192.918C381.014 191.063 384.761 190.259 385.988 190.501C386.97 190.695 389.23 190.939 390.238 191.037C387.99 192.674 389.974 192.344 392.105 194.035C394.236 195.726 387.13 194.597 392.633 196.244Z" fill="white" stroke="black" stroke-width="2"/>
<path d="M344.505 171.736C343.988 173.664 344.405 175.837 345.78 178.18C347.157 180.528 349.457 182.974 352.554 185.362C358.743 190.136 367.947 194.554 378.704 197.436C389.46 200.318 399.641 201.095 407.387 200.055C411.263 199.535 414.478 198.567 416.844 197.222C419.207 195.88 420.654 194.206 421.171 192.279C421.687 190.351 421.27 188.178 419.896 185.834C418.519 183.487 416.218 181.041 413.122 178.652C406.933 173.879 397.728 169.461 386.972 166.579C376.216 163.697 366.035 162.92 358.289 163.96C354.413 164.48 351.198 165.448 348.831 166.793C346.469 168.135 345.021 169.809 344.505 171.736Z" stroke="black" stroke-width="2"/>
<path d="M364.918 177.206C364.716 177.957 364.862 178.857 365.477 179.904C366.094 180.956 367.146 182.084 368.602 183.206C371.51 185.449 375.867 187.546 380.986 188.918C386.106 190.289 390.928 190.652 394.567 190.164C396.389 189.92 397.864 189.469 398.924 188.866C399.98 188.267 400.557 187.56 400.758 186.809C400.959 186.058 400.813 185.158 400.199 184.111C399.581 183.059 398.53 181.931 397.074 180.809C394.166 178.566 389.809 176.469 384.689 175.098C379.57 173.726 374.748 173.363 371.108 173.851C369.286 174.096 367.812 174.546 366.751 175.149C365.695 175.748 365.119 176.455 364.918 177.206Z" fill="#F98548" stroke="black" stroke-width="2"/>
<path fill-rule="evenodd" clip-rule="evenodd" d="M368.137 88.1212L372.322 87C373.029 95.9026 373.908 100.939 378.54 110.208L378.526 110.211C378.849 110.605 379.088 111.058 379.223 111.561C379.861 113.941 377.904 116.533 374.852 117.351C371.801 118.169 368.81 116.902 368.172 114.522C367.534 112.141 369.491 109.549 372.543 108.731C372.751 108.675 372.959 108.629 373.166 108.593C370.747 102.852 369.496 98.5712 368.697 92.9681L352.556 97.293C353.278 103.391 354.549 108.06 358.149 115.324C358.653 115.796 359.021 116.38 359.201 117.052C359.839 119.433 357.882 122.025 354.831 122.843C351.779 123.661 348.788 122.394 348.15 120.014C347.512 117.633 349.469 115.041 352.521 114.223C352.671 114.183 352.822 114.147 352.972 114.117C349.878 106.792 348.683 101.853 347.909 93.5636L348.778 93.3307L348.778 93.3306L368.139 88.1427L368.137 88.1212Z" fill="white"/>
<path fill-rule="evenodd" clip-rule="evenodd" d="M361.783 103.542L365.967 104.663C362.129 112.727 360.372 117.528 359.749 127.871L359.735 127.867C359.818 128.37 359.799 128.882 359.664 129.384C359.026 131.765 356.035 133.032 352.984 132.214C349.932 131.396 347.975 128.804 348.613 126.423C349.251 124.043 352.242 122.776 355.293 123.594C355.502 123.65 355.705 123.714 355.902 123.785C356.677 117.605 357.735 113.272 359.844 108.019L343.703 103.695C341.28 109.337 340.047 114.015 339.532 122.105C339.732 122.767 339.759 123.457 339.579 124.129C338.941 126.51 335.95 127.777 332.899 126.959C329.847 126.141 327.89 123.549 328.528 121.168C329.166 118.788 332.157 117.521 335.208 118.339C335.359 118.379 335.507 118.424 335.651 118.473C336.635 110.582 338.069 105.707 341.543 98.1412L342.413 98.374L342.413 98.374L361.774 103.562L361.779 103.551L361.783 103.542Z" fill="#EFC404"/>
<path fill-rule="evenodd" clip-rule="evenodd" d="M361.004 103.052L365.188 104.173C361.349 112.236 359.592 117.038 358.97 127.38L358.956 127.376C359.038 127.879 359.019 128.391 358.884 128.894C358.247 131.274 355.256 132.541 352.204 131.723C349.152 130.905 347.195 128.313 347.833 125.932C348.471 123.552 351.462 122.285 354.514 123.103C354.722 123.159 354.925 123.223 355.123 123.295C355.898 117.114 356.955 112.781 359.065 107.529L342.924 103.204C340.5 108.846 339.267 113.525 338.752 121.615C338.952 122.277 338.979 122.966 338.799 123.639C338.161 126.019 335.17 127.286 332.119 126.468C329.067 125.65 327.11 123.058 327.748 120.677C328.386 118.297 331.377 117.03 334.428 117.848C334.579 117.888 334.727 117.933 334.872 117.982C335.855 110.091 337.29 105.217 340.764 97.6504L344.948 98.7716L344.948 98.7716L360.995 103.071L360.995 103.069L361.004 103.052Z" fill="black"/>
<path d="M277.702 287.909C277.141 290.253 277.72 292.846 279.428 295.586C281.138 298.33 283.941 301.151 287.671 303.871C295.126 309.309 306.119 314.224 318.883 317.278C331.647 320.333 343.673 320.928 352.783 319.455C357.34 318.718 361.116 317.472 363.884 315.8C366.647 314.13 368.337 312.081 368.898 309.737C369.459 307.392 368.88 304.8 367.173 302.06C365.462 299.316 362.659 296.495 358.93 293.775C351.474 288.337 340.481 283.422 327.717 280.367C314.954 277.312 302.927 276.717 293.817 278.19C289.26 278.927 285.484 280.173 282.716 281.846C279.953 283.515 278.263 285.565 277.702 287.909Z" fill="#E55B42" stroke="black" stroke-width="2"/>
<path d="M275.881 268.661C275.32 271.005 275.899 273.598 277.607 276.338C279.318 279.082 282.121 281.903 285.85 284.623C293.306 290.061 304.299 294.976 317.062 298.031C329.826 301.086 341.853 301.68 350.962 300.208C355.52 299.471 359.296 298.225 362.063 296.552C364.827 294.882 366.517 292.833 367.078 290.489C367.639 288.145 367.06 285.552 365.352 282.812C363.642 280.068 360.839 277.247 357.109 274.527C349.653 269.089 338.661 264.174 325.897 261.119C313.133 258.064 301.106 257.47 291.997 258.942C287.44 259.679 283.663 260.925 280.896 262.598C278.133 264.268 276.442 266.317 275.881 268.661Z" fill="black" stroke="black" stroke-width="2"/>
<path d="M308.911 262.671C303.69 261.26 304.157 258.694 305.133 257.418C307.202 257.611 314.015 258.033 317.071 258.865C316.155 259.049 314.913 259.133 317.236 261.542C320.14 264.553 310.641 264.214 316.886 266.373C322.744 268.399 318.361 269.464 316.91 269.217C315.748 269.02 313.081 268.805 311.893 268.722C314.486 266.724 312.162 267.175 309.602 265.253C307.041 263.331 315.436 264.434 308.911 262.671Z" fill="white" stroke="black" stroke-width="2"/>
<path d="M333.454 296.015C338.675 297.426 338.208 299.992 337.231 301.268C335.163 301.075 328.35 300.653 325.293 299.821C326.21 299.637 327.452 299.553 325.129 297.144C322.224 294.133 331.723 294.472 325.479 292.313C319.62 290.287 324.004 289.222 325.455 289.469C326.616 289.666 329.283 289.882 330.472 289.965C327.879 291.962 330.202 291.511 332.763 293.433C335.324 295.355 326.928 294.252 333.454 296.015Z" fill="white" stroke="black" stroke-width="2"/>
<path d="M277.562 278.225C277.001 280.57 277.58 283.162 279.288 285.902C280.998 288.646 283.801 291.467 287.531 294.187C294.986 299.625 305.979 304.54 318.743 307.595C331.506 310.65 343.533 311.245 352.643 309.772C357.2 309.035 360.976 307.789 363.744 306.116C366.507 304.447 368.197 302.397 368.758 300.053C369.319 297.709 368.74 295.117 367.032 292.377C365.322 289.632 362.519 286.811 358.789 284.091C351.334 278.653 340.341 273.738 327.577 270.684C314.814 267.629 302.787 267.034 293.677 268.507C289.12 269.244 285.344 270.49 282.576 272.162C279.813 273.832 278.123 275.881 277.562 278.225Z" stroke="black" stroke-width="2"/>
<path d="M275.881 268.661C275.32 271.005 275.899 273.598 277.607 276.338C279.318 279.082 282.121 281.903 285.85 284.623C293.306 290.061 304.299 294.976 317.062 298.031C329.826 301.086 341.853 301.68 350.962 300.208C355.52 299.471 359.296 298.225 362.063 296.552C364.827 294.882 366.517 292.833 367.078 290.489C367.639 288.145 367.06 285.552 365.352 282.812C363.642 280.068 360.839 277.247 357.109 274.527C349.653 269.089 338.661 264.174 325.897 261.119C313.133 258.064 301.106 257.47 291.997 258.942C287.44 259.679 283.663 260.925 280.896 262.598C278.133 264.268 276.442 266.317 275.881 268.661Z" stroke="black" stroke-width="2"/>
<path d="M300.071 274.451C299.844 275.401 300.064 276.504 300.837 277.743C301.612 278.986 302.904 280.296 304.663 281.579C308.179 284.142 313.394 286.479 319.478 287.936C325.562 289.392 331.271 289.669 335.566 288.975C337.716 288.628 339.46 288.045 340.715 287.288C341.965 286.533 342.66 285.649 342.887 284.699C343.115 283.749 342.895 282.646 342.122 281.407C341.347 280.163 340.055 278.854 338.295 277.571C334.78 275.008 329.564 272.67 323.48 271.214C317.397 269.758 311.688 269.481 307.393 270.175C305.243 270.522 303.498 271.105 302.244 271.862C300.994 272.617 300.299 273.501 300.071 274.451Z" fill="#E55B42" stroke="black" stroke-width="2"/>
<path d="M295.447 85.2988C295.447 85.2988 317.856 85.282 322.852 113.572C326.245 101.181 316.629 71.858 295.447 85.2988Z" fill="#FA7B5A" stroke="black" stroke-width="3" stroke-miterlimit="10"/>
<path d="M225.033 309.873C225.033 309.873 216.018 320.181 215.889 337.353C215.889 337.353 188.521 333.905 192.084 350.078C195.803 366.982 222.823 358.941 225.431 352.654C228.04 346.366 220.17 331.44 230.303 316.142C240.435 300.844 225.033 309.873 225.033 309.873Z" fill="black" stroke="black" stroke-width="3" stroke-miterlimit="10"/>
<path d="M376.344 55.6133C376.344 55.6133 364.595 65.5403 330.982 30.369C293.16 -9.22578 275.03 70.4933 275.03 70.4933L245.294 236.145C245.294 236.145 242.292 231.613 245.479 211.363C248.666 191.113 209.472 178.569 184.911 222.25C168.361 251.702 176.181 271.541 197.757 271.758C197.757 271.758 213.14 339.727 244.198 331.618C275.256 323.508 280.152 319.576 288.26 280.584C296.368 241.593 318.88 85.0753 318.88 85.0753C318.88 85.0753 323.792 42.7169 336.562 54.1852C349.333 65.6535 369.614 73.2453 380.359 67.9435C388.428 63.9589 391.806 51.9498 376.344 55.6133Z" fill="#FA7B5A" stroke="black" stroke-width="3" stroke-miterlimit="10"/>
<path d="M334.906 52.2782C334.906 52.2782 315.83 35.6894 306.758 84.7192C302.661 106.851 292.022 172.962 288.447 199.356C275.416 295.52 262.02 325.97 262.02 325.97C262.02 325.97 284.555 327.56 294.908 243.211C299.198 208.184 307.573 155.863 314.182 115.053C319.812 80.3185 320.066 52.4513 334.906 52.2782Z" fill="black" stroke="black" stroke-width="3" stroke-miterlimit="10"/>
<path d="M204.725 210.555C194.867 219.21 176.744 249.223 190.55 258.273C204.356 267.324 241.281 227.231 235.906 209.024C234.828 205.373 224.466 218.939 215.069 218.029C205.672 217.12 214.581 201.898 204.725 210.555Z" fill="black" stroke="black" stroke-width="3" stroke-miterlimit="10"/>
<path d="M197.905 270.984C197.905 270.984 213.445 269.133 221.146 257.286C221.146 257.286 224.805 333.97 251.51 328.901C251.51 328.901 235.638 336.821 223.091 324.741C210.543 312.661 198.643 278.12 197.905 270.984Z" fill="#E55B42"/>
<path d="M260.718 315.499C260.856 322.663 259.711 328.979 270.067 342.688C270.067 342.688 246.239 356.588 258.9 367.264C272.128 378.423 288.692 355.612 286.935 349.025C285.178 342.437 269.862 335.38 268.6 317.054C267.338 298.729 260.58 308.335 260.718 315.499Z" fill="black" stroke="black" stroke-width="3" stroke-miterlimit="10"/>
<path d="M376.344 55.6131C376.344 55.6131 362.773 64.4183 330.982 30.3689C293.613 -9.65268 275.03 70.4932 275.03 70.4932L245.294 236.145C245.294 236.145 242.292 231.613 245.479 211.363C248.666 191.112 209.472 178.569 184.911 222.25C168.361 251.702 176.181 271.541 197.757 271.757C197.757 271.757 213.14 339.727 244.198 331.617C275.256 323.508 280.152 319.575 288.26 280.584C296.368 241.593 318.881 85.0751 318.881 85.0751C318.881 85.0751 323.7 44.2991 336.478 55.7687C349.256 67.2382 372.41 72.1233 380.355 67.9427C388.3 63.7622 391.806 51.9496 376.344 55.6131Z" stroke="black" stroke-width="3" stroke-miterlimit="10"/>
<path d="M278.159 124.685L277.761 124.614C276.423 124.377 275.147 125.269 274.91 126.607L252.605 252.556C252.368 253.893 253.26 255.17 254.597 255.407L254.996 255.477C256.333 255.714 257.61 254.822 257.846 253.484L280.152 127.535C280.389 126.198 279.496 124.921 278.159 124.685Z" fill="#E55B42" stroke="black" stroke-width="3" stroke-linecap="round" stroke-linejoin="round"/>
<path d="M277.384 124.547L276.985 124.477C275.648 124.24 274.372 125.132 274.135 126.47L251.829 252.419C251.592 253.756 252.485 255.032 253.822 255.269L254.221 255.34C255.558 255.577 256.834 254.684 257.071 253.347L279.377 127.398C279.613 126.061 278.721 124.784 277.384 124.547Z" fill="#E55B42" stroke="black" stroke-width="3" stroke-linecap="round" stroke-linejoin="round"/>
<path d="M267.316 120.363L266.918 120.292C265.58 120.055 264.304 120.948 264.067 122.285L241.762 248.234C241.525 249.572 242.417 250.848 243.755 251.085L244.153 251.155C245.49 251.392 246.767 250.5 247.003 249.162L269.309 123.214C269.546 121.876 268.653 120.6 267.316 120.363Z" fill="#E55B42" stroke="black" stroke-width="3" stroke-linecap="round" stroke-linejoin="round"/>
<path d="M306.202 129.662L305.802 129.603C304.458 129.404 303.207 130.332 303.009 131.675L284.273 258.204C284.074 259.548 285.002 260.799 286.345 260.998L286.746 261.057C288.089 261.256 289.34 260.328 289.539 258.984L308.275 132.455C308.474 131.111 307.546 129.861 306.202 129.662Z" fill="#E55B42" stroke="black" stroke-width="3" stroke-linecap="round" stroke-linejoin="round"/>
<path d="M245.49 211.365C245.49 211.365 243.107 229.356 233.553 244.875L240.593 266.137C249.184 256.05 246.774 252.778 245.305 236.147C245.305 236.147 243.334 225.792 245.49 211.365Z" fill="black" stroke="black" stroke-width="3" stroke-miterlimit="10"/>
<path d="M270.594 78.6589C270.594 78.6589 273.002 49.3081 288.522 38.4614C303.139 28.2393 308.923 20.4455 315.019 19.9376C318.067 19.6743 325.188 18.9336 330.45 25.4717C330.792 25.9022 334.338 32.0809 332.841 32.3005C330.757 32.6197 324.862 25.1185 321.283 23.8075C315.132 21.5562 306.625 30.8326 305.94 39.5443C304.676 55.7316 309.854 73.8593 312.379 83.6944C312.379 83.6944 303.282 82.2831 303.227 82.0734C298.862 65.9105 302.143 46.8388 296.899 43.1458C291.562 39.392 276.498 69.3285 277.566 77.5733C277.555 77.5714 272.855 77.1979 270.594 78.6589Z" fill="#E55B42" stroke="black" stroke-width="3" stroke-miterlimit="10"/>
<path d="M268.506 133.384C279.653 135.358 290.858 124.709 293.534 109.598C296.21 94.4864 289.344 80.6361 278.198 78.6622C267.052 76.6882 255.846 87.338 253.17 102.449C250.494 117.56 257.36 131.411 268.506 133.384Z" fill="#FCFCFC" stroke="black" stroke-width="3" stroke-miterlimit="10"/>
<path d="M267.251 104.414L278.499 102.246C278.553 94.6258 275.284 88.411 270.243 87.5183C264.212 86.4501 257.942 93.3919 256.237 103.022C254.531 112.652 258.037 121.336 264.065 122.403C269.045 123.285 274.186 118.701 276.789 111.65L267.251 104.414Z" fill="black"/>
<path d="M266.448 81.7839C266.448 81.7839 288.482 80.9571 293.476 109.258C296.864 96.851 287.619 68.3412 266.448 81.7839Z" fill="black" stroke="black" stroke-width="3" stroke-miterlimit="10"/>
<path d="M297.821 137.373C308.967 139.347 320.173 128.698 322.849 113.586C325.525 98.4752 318.659 84.625 307.513 82.6511C296.367 80.6771 285.161 91.3269 282.485 106.438C279.809 121.549 286.675 135.399 297.821 137.373Z" fill="#FCFCFC" stroke="black" stroke-width="3" stroke-miterlimit="10"/>
<path d="M299.162 109.946L310.897 107.724C310.94 99.8353 307.507 93.4326 302.251 92.5017C295.962 91.3879 289.431 98.5499 287.669 108.503C285.906 118.455 289.58 127.424 295.869 128.538C301.068 129.459 306.428 124.728 309.128 117.443L299.162 109.946Z" fill="black"/>
<path d="M295.447 85.2988C295.447 85.2988 317.856 85.282 322.852 113.572C326.245 101.181 316.629 71.858 295.447 85.2988Z" fill="black" stroke="black" stroke-width="3" stroke-miterlimit="10"/>
<mask id="mask0" mask-type="alpha" maskUnits="userSpaceOnUse" x="181" y="199" width="59" height="69">
<path d="M204.725 210.555C194.867 219.21 176.744 249.223 190.55 258.273C204.356 267.324 241.281 227.231 235.906 209.024C234.828 205.373 224.466 218.939 215.069 218.029C205.672 217.12 214.581 201.898 204.725 210.555Z" fill="black" stroke="black" stroke-width="3" stroke-miterlimit="10"/>
</mask>
<g mask="url(#mask0)">
<path d="M211.106 208.43C211.106 208.43 216.414 252.8 225.268 243.539C234.122 234.277 248.492 222.49 245.716 206.453C242.941 190.415 221.222 224.202 211.106 208.43Z" fill="#E55B42"/>
</g>
<path d="M291.064 168.2C294.761 168.855 298.497 165.216 299.408 160.072C300.319 154.927 298.06 150.227 294.363 149.572C290.665 148.917 286.929 152.556 286.018 157.7C285.107 162.844 287.366 167.545 291.064 168.2Z" fill="#FA7B5A" stroke="black" stroke-width="3" stroke-miterlimit="10"/>
<path d="M286.596 193.426C290.294 194.081 294.03 190.442 294.941 185.298C295.852 180.154 293.593 175.453 289.895 174.798C286.198 174.143 282.462 177.782 281.551 182.926C280.64 188.07 282.899 192.771 286.596 193.426Z" fill="#FA7B5A" stroke="black" stroke-width="3" stroke-miterlimit="10"/>
<path d="M279.727 222.224C284.193 223.015 288.706 218.619 289.807 212.405C290.907 206.19 288.179 200.512 283.712 199.721C279.246 198.93 274.733 203.326 273.632 209.54C272.532 215.754 275.261 221.433 279.727 222.224Z" fill="black" stroke="black" stroke-width="3" stroke-miterlimit="10"/>
<path d="M292.614 168.474C296.311 169.129 300.047 165.49 300.958 160.346C301.869 155.202 299.61 150.501 295.913 149.846C292.215 149.191 288.479 152.831 287.568 157.975C286.657 163.119 288.916 167.82 292.614 168.474Z" fill="#FA7B5A" stroke="black" stroke-width="3" stroke-miterlimit="10"/>
<path d="M297.856 181.81C300.012 182.192 302.19 180.07 302.722 177.07C303.253 174.07 301.936 171.328 299.78 170.946C297.624 170.565 295.446 172.687 294.914 175.687C294.383 178.687 295.7 181.429 297.856 181.81Z" fill="#FCFCFC" stroke="black" stroke-width="3" stroke-miterlimit="10"/>
<path d="M285.695 236.706C289.587 237.395 293.52 233.564 294.479 228.148C295.438 222.733 293.06 217.784 289.169 217.094C285.277 216.405 281.345 220.237 280.385 225.652C279.426 231.068 281.804 236.017 285.695 236.706Z" fill="#FCFCFC" stroke="black" stroke-width="3" stroke-miterlimit="10"/>
<path d="M284.146 236.431C288.037 237.121 291.97 233.289 292.929 227.874C293.888 222.458 291.51 217.509 287.619 216.82C283.727 216.131 279.795 219.962 278.836 225.378C277.876 230.793 280.254 235.742 284.146 236.431Z" fill="#FCFCFC" stroke="black" stroke-width="3" stroke-miterlimit="10"/>
<path d="M285.308 236.637C289.2 237.327 293.132 233.495 294.091 228.08C295.05 222.664 292.673 217.715 288.781 217.026C284.89 216.337 280.957 220.168 279.998 225.584C279.039 230.999 281.416 235.948 285.308 236.637Z" fill="#FCFCFC" stroke="black" stroke-width="3" stroke-miterlimit="10"/>
<path d="M283.474 175.659C285.919 176.092 288.332 174.011 288.863 171.011C289.395 168.011 287.843 165.228 285.398 164.795C282.953 164.362 280.54 166.443 280.008 169.443C279.477 172.443 281.029 175.226 283.474 175.659Z" fill="#FCFCFC" stroke="black" stroke-width="3" stroke-miterlimit="10"/>
<path d="M283.861 175.728C286.306 176.161 288.719 174.08 289.251 171.08C289.782 168.08 288.23 165.297 285.785 164.864C283.34 164.431 280.927 166.511 280.396 169.511C279.864 172.512 281.416 175.295 283.861 175.728Z" fill="#FCFCFC" stroke="black" stroke-width="3" stroke-miterlimit="10"/>
<path d="M288.146 193.701C291.844 194.356 295.58 190.716 296.491 185.572C297.402 180.428 295.143 175.727 291.445 175.072C287.748 174.418 284.012 178.057 283.101 183.201C282.19 188.345 284.449 193.046 288.146 193.701Z" fill="#FA7B5A" stroke="black" stroke-width="3" stroke-miterlimit="10"/>
<path d="M281.6 222.556C286.066 223.347 290.579 218.95 291.68 212.736C292.78 206.522 290.052 200.843 285.585 200.052C281.119 199.261 276.606 203.658 275.506 209.872C274.405 216.086 277.134 221.765 281.6 222.556Z" fill="#FA7B5A" stroke="black" stroke-width="3" stroke-miterlimit="10"/>
<path d="M271.324 254.942C276.749 255.903 282.231 250.562 283.569 243.012C284.906 235.463 281.591 228.563 276.166 227.603C270.74 226.642 265.258 231.983 263.921 239.533C262.584 247.082 265.899 253.981 271.324 254.942Z" fill="black" stroke="black" stroke-width="3" stroke-miterlimit="10"/>
<path d="M273.602 255.346C279.028 256.306 284.51 250.965 285.847 243.416C287.184 235.866 283.869 228.967 278.444 228.006C273.019 227.045 267.536 232.386 266.199 239.936C264.862 247.486 268.177 254.385 273.602 255.346Z" fill="#FA7B5A" stroke="black" stroke-width="3" stroke-miterlimit="10"/>
<path d="M261.741 296.099C268.599 297.314 275.528 290.564 277.218 281.023C278.908 271.482 274.718 262.763 267.86 261.548C261.002 260.334 254.072 267.084 252.383 276.625C250.693 286.166 254.883 294.885 261.741 296.099Z" fill="black" stroke="black" stroke-width="3" stroke-miterlimit="10"/>
<path d="M264.618 296.609C271.476 297.824 278.405 291.074 280.095 281.533C281.785 271.991 277.595 263.272 270.737 262.058C263.879 260.843 256.95 267.593 255.26 277.134C253.57 286.675 257.76 295.394 264.618 296.609Z" fill="#FA7B5A" stroke="black" stroke-width="3" stroke-miterlimit="10"/>
<path d="M301.535 157.088C301.535 157.088 308.631 157.701 309.959 154.735C309.959 154.735 311.601 159.026 308.537 160.486C305.474 161.945 296.787 161.206 295.639 161.003C294.491 160.799 292.35 158.822 292.35 158.822C292.35 158.822 295.486 156.576 297.105 156.862C298.574 157.048 300.054 157.123 301.535 157.088Z" fill="#FA7B5A" stroke="black" stroke-width="3" stroke-linecap="round" stroke-linejoin="round"/>
<path d="M297.385 182.774C297.385 182.774 304.482 183.383 305.81 180.418C305.81 180.418 307.451 184.712 304.392 186.172C301.332 187.632 292.655 186.895 291.489 186.689C290.323 186.482 288.202 184.504 288.202 184.504C288.202 184.504 291.338 182.258 292.956 182.545C294.425 182.731 295.905 182.807 297.385 182.774Z" fill="#FA7B5A" stroke="black" stroke-width="3" stroke-linecap="round" stroke-linejoin="round"/>
<path d="M258.785 195.55C258.785 195.55 251.91 193.689 251.682 190.444C251.682 190.444 248.665 193.913 251.038 196.335C253.41 198.757 261.812 201.045 262.978 201.251C264.144 201.458 266.816 200.329 266.816 200.329C266.816 200.329 264.642 197.142 263.024 196.856C261.58 196.526 260.164 196.089 258.785 195.55Z" fill="#FA7B5A" stroke="black" stroke-width="3" stroke-linecap="round" stroke-linejoin="round"/>
<path d="M265.452 157.903C265.452 157.903 258.577 156.041 258.348 152.8C258.348 152.8 255.332 156.269 257.705 158.688C260.078 161.106 268.479 163.401 269.645 163.607C270.811 163.814 273.483 162.685 273.483 162.685C273.483 162.685 271.309 159.499 269.69 159.212C268.247 158.881 266.83 158.444 265.452 157.903Z" fill="#FA7B5A" stroke="black" stroke-width="3" stroke-linecap="round" stroke-linejoin="round"/>
<path d="M293.74 210.148C293.74 210.148 300.837 210.757 302.162 207.791C302.162 207.791 303.803 212.086 300.743 213.546C297.683 215.006 289.007 214.268 287.844 214.062C286.682 213.857 284.556 211.882 284.556 211.882C284.556 211.882 287.689 209.635 289.31 209.922C290.779 210.107 292.26 210.182 293.74 210.148Z" fill="#FA7B5A" stroke="black" stroke-width="3" stroke-linecap="round" stroke-linejoin="round"/>
<path d="M294.203 232.399C294.203 232.399 297.9 231.855 298.312 229.527C298.725 227.198 300.018 231.827 300.018 231.827C300.018 231.827 297.679 247.916 296.951 249.142C296.224 250.367 293.438 249.967 292.549 248.362C291.66 246.758 294.203 232.399 294.203 232.399Z" fill="#FA7B5A" stroke="black" stroke-width="3" stroke-miterlimit="10"/>
<path d="M301.901 188.932C301.901 188.932 305.599 188.384 306.011 186.056C306.423 183.727 307.716 188.36 307.716 188.36C307.716 188.36 305.377 204.449 304.649 205.675C303.922 206.9 301.136 206.499 300.247 204.895C299.358 203.291 301.901 188.932 301.901 188.932Z" fill="#FA7B5A" stroke="black" stroke-width="3" stroke-miterlimit="10"/>
<path d="M290.958 252.98C290.958 252.98 294.57 252.913 294.812 251.546C295.054 250.179 296.659 253.049 296.659 253.049C296.659 253.049 295.489 262.537 294.857 263.221C294.226 263.905 291.447 263.464 290.455 262.441C289.463 261.418 290.958 252.98 290.958 252.98Z" fill="#FA7B5A" stroke="black" stroke-width="3" stroke-miterlimit="10"/>
<path d="M373.423 56.291C373.423 56.291 381.295 61.1932 374.069 69.3569C374.069 69.3569 386.379 68.3027 391.14 62.0819C395.901 55.861 389.538 51.1299 386.684 51.4275C383.831 51.7251 377.604 53.035 373.423 56.291Z" fill="black" stroke="black" stroke-width="3" stroke-miterlimit="10"/>
<path d="M386.865 54.1904L392.968 52.1555L403.586 53.233L388.751 61.8031L386.865 54.1904Z" fill="black" stroke="black" stroke-width="3" stroke-linecap="round" stroke-linejoin="round"/>
</svg>
