<svg width="216" height="350" viewBox="0 0 216 350" fill="none" xmlns="http://www.w3.org/2000/svg">
<g clip-path="url(#clip0)">
<ellipse cx="108.203" cy="328.496" rx="107.397" ry="20.7301" fill="#29193E"/>
<path d="M148.289 165.333C143.14 153.451 135.348 148.257 128.839 144.505L111.227 206.377L125.317 332.647C141.551 332.647 158.53 329.494 164.752 320.242C179.378 298.495 164.752 293.058 154.798 273.992C152.529 269.645 148.059 262.735 150.51 254.695C159.316 242.137 162.915 237.619 146.681 237.619C139.943 234.709 139.269 237.726 135.348 226.516C130.999 213.958 128.839 208.444 144.231 217.786C150.714 201.68 155.257 181.414 148.289 165.333Z" fill="#29193E" stroke="#29193E" stroke-width="0.153148"/>
<path d="M65.8318 198.414C57.8145 182.887 62.1481 130.958 106.636 136.815C157.274 143.481 144.597 200.316 140.912 208.376C140.368 207.535 138.097 205.049 133.365 201.84C128.634 198.631 125.325 199.088 124.213 199.942C123.219 200.706 122.433 201.94 121.727 203.849C120.814 206.318 121.284 214.311 121.769 218.403C121.882 219.214 122.284 221.889 122.992 226.108C123.973 233.443 127.543 238.588 129.688 240.538C130.565 241.336 131.996 241.766 133.924 241.404C135.166 241.028 141.934 241.689 143.285 242.174C147.925 243.524 147.825 246.672 147.195 248.078C147.061 248.727 146.336 250.613 144.508 252.958C142.962 254.541 143.555 257.785 144.045 259.21C143.807 258.871 144.898 262.956 151.166 282.01C164.402 322.242 143.944 330.556 128.973 331.972C126.741 332.295 117.665 333.486 97.6982 330.857C78.9235 328.848 63.3613 323.181 58.2582 320.276C53.5031 318.059 43.5958 310.54 42.0073 298.199C40.4187 285.858 46.9096 270.234 50.3536 263.965L55.6449 252.806C55.8207 252.342 56.4131 250.875 57.3757 248.723C58.3383 246.572 58.4347 243.808 58.3625 242.695C58.3005 242.405 58.0064 241.555 57.3262 240.48C56.6459 239.405 56.0026 237.381 55.7659 236.503C55.2281 235.021 55.0712 232.023 59.1555 231.329C62.1696 230.649 66.3262 231.581 70.5928 233.374C73.3107 234.04 75.7894 231.826 77.4368 229.425C83.4379 219.361 85.2452 206.282 85.2253 200.275C85.2061 194.499 80.0359 187.814 65.8318 198.414Z" fill="#8C74B7" stroke="#29193E" stroke-width="1.53148"/>
<rect x="109.098" y="35.6062" width="14.8553" height="19.7561" rx="2.29722" transform="rotate(5.26648 109.098 35.6062)" fill="#8C74B7" stroke="#29193E" stroke-width="1.53148"/>
<rect x="114.277" y="29.4702" width="7.0448" height="12.8644" rx="2.29722" transform="rotate(5.26648 114.277 29.4702)" fill="#8C74B7" stroke="#29193E" stroke-width="1.53148"/>
<path d="M90.5521 266.893C90.5101 267.316 90.8206 267.692 91.2438 267.731L100.533 268.588C100.957 268.627 101.332 268.312 101.366 267.887L119.017 49.8918C119.05 49.4736 118.741 49.106 118.324 49.0675L112.972 48.5742C112.553 48.5356 112.182 48.8424 112.14 49.2611L90.5521 266.893Z" fill="#29193E"/>
<path d="M113.124 47.8194L91.9821 266.339" stroke="#FCFCFC" stroke-width="0.765739"/>
<path d="M118.267 48.7544L100.072 267.007" stroke="#FCFCFC" stroke-width="0.765739"/>
<path d="M114.95 45.5273L94.5746 266.578" stroke="#FCFCFC" stroke-width="0.765739"/>
<path d="M116.933 45.7092L97.2435 266.823" stroke="#FCFCFC" stroke-width="0.765739"/>
<circle cx="118.357" cy="48.6099" r="0.765739" transform="rotate(5.26648 118.357 48.6099)" fill="#29193E"/>
<circle cx="113.02" cy="48.1179" r="0.765739" transform="rotate(5.26648 113.02 48.1179)" fill="#29193E"/>
<circle cx="114.95" cy="45.5271" r="0.765739" transform="rotate(5.26648 114.95 45.5271)" fill="#29193E"/>
<circle cx="116.933" cy="45.7097" r="0.765739" transform="rotate(5.26648 116.933 45.7097)" fill="#29193E"/>
<path d="M67.2054 261.122C68.7275 252.972 75.1088 255.962 81.4316 259.598C87.1103 262.178 103.737 261.65 116.031 256.549C121.651 253.246 132.868 250.404 128.091 264.523C124.438 273.858 120.188 276.602 116.031 279.885C110.645 282.348 90.6096 285.331 82.4603 282.798C72.2736 279.632 66.1505 266.77 67.2054 261.122Z" fill="#29193E" stroke="#29193E" stroke-width="0.153148"/>
<path d="M115.464 279.047C113.741 266.065 82.5519 275.4 82.1545 281.804C86.7488 283.259 92.8747 282.799 96.3971 282.646C97.9286 282.579 99.0302 282.481 100.456 282.34C101.987 282.188 105.28 281.804 108.649 281.038C111.299 280.436 112.325 280.196 113.55 279.813C114.086 279.583 114.239 279.583 115.464 279.047Z" fill="#E55B42" stroke="#29193E" stroke-width="0.322815"/>
<path d="M102.531 272.03C102.078 271.718 100.778 272.822 99.6283 274.494C98.4782 276.167 97.913 277.776 98.3661 278.087C98.8191 278.399 99.1091 276.601 100.259 274.928C101.409 273.255 102.984 272.341 102.531 272.03Z" fill="#29193E"/>
<path d="M104.149 43.6194C104.192 46.0745 106.36 46.4494 107.474 46.552L107.384 47.5286C106.158 47.4156 103.839 46.983 103.719 48.285C103.619 49.37 102.545 48.8333 102.716 48.1926L103.147 43.527C103.237 42.5505 104.249 42.5344 104.149 43.6194Z" fill="#29193E" stroke="#29193E" stroke-width="0.153148"/>
<path d="M103.125 54.7309C103.617 52.3251 105.816 52.3528 106.93 52.4554L107.02 51.4789C105.795 51.366 103.435 51.3674 103.555 50.0653C103.655 48.9803 102.501 49.3117 102.553 49.9729L102.123 54.6385C102.033 55.615 103.025 55.8159 103.125 54.7309Z" fill="#29193E" stroke="#29193E" stroke-width="0.153148"/>
<path d="M127.291 45.7527C126.8 48.1585 124.6 48.1309 123.486 48.0282L123.396 49.0047C124.622 49.1177 126.981 49.1163 126.861 50.4183C126.761 51.5033 127.915 51.172 127.864 50.5107L128.294 45.8452C128.384 44.8686 127.391 44.6677 127.291 45.7527Z" fill="#29193E" stroke="#29193E" stroke-width="0.153148"/>
<path d="M126.267 56.8632C126.224 54.4082 124.056 54.0333 122.942 53.9306L123.032 52.9541C124.258 53.0671 126.577 53.4997 126.697 52.1977C126.797 51.1127 127.871 51.6494 127.699 52.2901L127.269 56.9557C127.179 57.9322 126.167 57.9483 126.267 56.8632Z" fill="#29193E" stroke="#29193E" stroke-width="0.153148"/>
<path d="M102.722 30.5324C102.401 34.0168 103.03 37.2313 104.279 39.608C105.531 41.9902 107.365 43.4684 109.444 43.66C111.522 43.8516 113.595 42.7335 115.262 40.6203C116.924 38.512 118.131 35.4668 118.452 31.9824C118.773 28.498 118.144 25.2835 116.894 22.9068C115.642 20.5247 113.809 19.0464 111.73 18.8548C109.651 18.6632 107.578 19.7814 105.912 21.8945C104.249 24.0028 103.043 27.048 102.722 30.5324Z" fill="white" stroke="#29193E" stroke-width="1.07203" stroke-linecap="round"/>
<path fill-rule="evenodd" clip-rule="evenodd" d="M106.414 38.2612C103.708 38.0118 101.823 34.46 102.204 30.3282C102.584 26.1965 105.087 23.0492 107.794 23.2987C110.023 23.5042 111.696 25.9511 112.003 29.1172L108.367 30.7816L111.672 33.1073C110.827 36.2734 108.693 38.4713 106.414 38.2612Z" fill="#29193E"/>
<path d="M116.745 31.8239C116.424 35.3083 117.054 38.5228 118.303 40.8995C119.555 43.2817 121.388 44.76 123.467 44.9515C125.546 45.1431 127.619 44.025 129.285 41.9118C130.948 39.8035 132.154 36.7583 132.475 33.2739C132.796 29.7895 132.167 26.575 130.918 24.1983C129.666 21.8162 127.832 20.3379 125.754 20.1463C123.675 19.9547 121.602 21.0729 119.936 23.186C118.273 25.2943 117.066 28.3396 116.745 31.8239Z" fill="white" stroke="#29193E" stroke-width="1.07203" stroke-linecap="round"/>
<path fill-rule="evenodd" clip-rule="evenodd" d="M120.437 39.5518C117.731 39.3023 115.846 35.7506 116.227 31.6188C116.608 27.487 119.11 24.3397 121.817 24.5892C124.046 24.7947 125.718 27.2411 126.026 30.4067L122.39 32.0712L125.696 34.3974C124.851 37.5637 122.716 39.7618 120.437 39.5518Z" fill="#29193E"/>
<mask id="path-26-inside-1" fill="white">
<path fill-rule="evenodd" clip-rule="evenodd" d="M140.837 2.38974C139.93 2.57198 139.342 3.45541 139.524 4.36295L142.565 19.5086L138.752 16.6104C138.015 16.0503 136.963 16.1938 136.403 16.9308C135.843 17.6677 135.987 18.7192 136.724 19.2793L140.744 22.3343L135.805 23.3856C134.9 23.5784 134.322 24.4685 134.515 25.3739C134.708 26.2793 135.598 26.857 136.503 26.6642L141.708 25.5562L139.435 30.368C139.04 31.205 139.398 32.204 140.235 32.5993C141.072 32.9947 142.071 32.6367 142.466 31.7998L144.268 27.9858L147.179 42.4859C147.362 43.3935 148.245 43.9814 149.153 43.7992C150.06 43.6169 150.648 42.7335 150.466 41.826L147.598 27.5431L150.586 29.8141C151.323 30.3742 152.375 30.2308 152.935 29.4938C153.495 28.7568 153.351 27.7053 152.614 27.1453L148.594 24.0903L153.533 23.039C154.438 22.8463 155.016 21.9561 154.823 21.0508C154.631 20.1454 153.74 19.5677 152.835 19.7604L147.63 20.8685L149.903 16.0565C150.298 15.2196 149.94 14.2206 149.103 13.8252C148.266 13.4298 147.267 13.7878 146.872 14.6248L145.561 17.4002L142.81 3.70299C142.628 2.79546 141.745 2.2075 140.837 2.38974Z"/>
</mask>
<path fill-rule="evenodd" clip-rule="evenodd" d="M140.837 2.38974C139.93 2.57198 139.342 3.45541 139.524 4.36295L142.565 19.5086L138.752 16.6104C138.015 16.0503 136.963 16.1938 136.403 16.9308C135.843 17.6677 135.987 18.7192 136.724 19.2793L140.744 22.3343L135.805 23.3856C134.9 23.5784 134.322 24.4685 134.515 25.3739C134.708 26.2793 135.598 26.857 136.503 26.6642L141.708 25.5562L139.435 30.368C139.04 31.205 139.398 32.204 140.235 32.5993C141.072 32.9947 142.071 32.6367 142.466 31.7998L144.268 27.9858L147.179 42.4859C147.362 43.3935 148.245 43.9814 149.153 43.7992C150.06 43.6169 150.648 42.7335 150.466 41.826L147.598 27.5431L150.586 29.8141C151.323 30.3742 152.375 30.2308 152.935 29.4938C153.495 28.7568 153.351 27.7053 152.614 27.1453L148.594 24.0903L153.533 23.039C154.438 22.8463 155.016 21.9561 154.823 21.0508C154.631 20.1454 153.74 19.5677 152.835 19.7604L147.63 20.8685L149.903 16.0565C150.298 15.2196 149.94 14.2206 149.103 13.8252C148.266 13.4298 147.267 13.7878 146.872 14.6248L145.561 17.4002L142.81 3.70299C142.628 2.79546 141.745 2.2075 140.837 2.38974Z" fill="#FCFCFC"/>
<path d="M139.524 4.36295L138.558 4.55684L138.558 4.55684L139.524 4.36295ZM140.837 2.38974L141.031 3.35529L140.837 2.38974ZM142.565 19.5086L141.97 20.2927L144.044 21.8691L143.531 19.3147L142.565 19.5086ZM138.752 16.6104L138.156 17.3945L138.156 17.3945L138.752 16.6104ZM136.724 19.2793L136.128 20.0634L136.128 20.0634L136.724 19.2793ZM140.744 22.3343L140.949 23.2976L143.05 22.8502L141.34 21.5502L140.744 22.3343ZM135.805 23.3856L135.6 22.4224L135.6 22.4224L135.805 23.3856ZM134.515 25.3739L133.552 25.5789L134.515 25.3739ZM136.503 26.6642L136.708 27.6275L136.708 27.6275L136.503 26.6642ZM141.708 25.5562L142.599 25.9769L143.448 24.179L141.503 24.593L141.708 25.5562ZM139.435 30.368L138.545 29.9473L138.545 29.9473L139.435 30.368ZM142.466 31.7998L143.357 32.2204L143.357 32.2204L142.466 31.7998ZM144.268 27.9858L145.233 27.7919L144.648 24.8758L143.377 27.5652L144.268 27.9858ZM147.179 42.4859L148.145 42.292L147.179 42.4859ZM149.153 43.7992L149.347 44.7647L149.153 43.7992ZM150.466 41.826L149.5 42.0199L150.466 41.826ZM147.598 27.5431L148.194 26.759L146.119 25.1825L146.632 27.7369L147.598 27.5431ZM150.586 29.8141L149.99 30.5982L150.586 29.8141ZM152.935 29.4938L153.719 30.0897L152.935 29.4938ZM152.614 27.1453L153.21 26.3612L152.614 27.1453ZM148.594 24.0903L148.389 23.1271L146.288 23.5744L147.999 24.8744L148.594 24.0903ZM153.533 23.039L153.328 22.0758L153.533 23.039ZM154.823 21.0508L155.787 20.8457L155.787 20.8457L154.823 21.0508ZM152.835 19.7604L153.04 20.7237L153.04 20.7237L152.835 19.7604ZM147.63 20.8685L146.739 20.4478L145.89 22.2457L147.835 21.8317L147.63 20.8685ZM149.903 16.0565L150.793 16.4772L149.903 16.0565ZM149.103 13.8252L149.524 12.9347L149.103 13.8252ZM146.872 14.6248L147.763 15.0454L146.872 14.6248ZM145.561 17.4002L144.595 17.5941L145.181 20.5102L146.451 17.8208L145.561 17.4002ZM142.81 3.70299L141.845 3.89689L141.845 3.89689L142.81 3.70299ZM140.49 4.16906C140.414 3.79478 140.657 3.43045 141.031 3.35529L140.643 1.42419C139.203 1.71351 138.269 3.11605 138.558 4.55684L140.49 4.16906ZM143.531 19.3147L140.49 4.16905L138.558 4.55684L141.6 19.7024L143.531 19.3147ZM138.156 17.3945L141.97 20.2927L143.161 18.7244L139.348 15.8263L138.156 17.3945ZM137.187 17.5266C137.418 17.2227 137.852 17.1635 138.156 17.3945L139.348 15.8263C138.178 14.9371 136.508 15.1648 135.619 16.3349L137.187 17.5266ZM137.319 18.4952C137.016 18.2642 136.956 17.8306 137.187 17.5266L135.619 16.3349C134.73 17.5049 134.958 19.1742 136.128 20.0634L137.319 18.4952ZM141.34 21.5502L137.319 18.4952L136.128 20.0634L140.148 23.1185L141.34 21.5502ZM136.01 24.3489L140.949 23.2976L140.539 21.3711L135.6 22.4224L136.01 24.3489ZM135.478 25.1688C135.399 24.7955 135.637 24.4283 136.01 24.3489L135.6 22.4224C134.163 22.7284 133.246 24.1416 133.552 25.5789L135.478 25.1688ZM136.298 25.701C135.925 25.7805 135.558 25.5422 135.478 25.1688L133.552 25.5789C133.858 27.0163 135.271 27.9334 136.708 27.6275L136.298 25.701ZM141.503 24.593L136.298 25.701L136.708 27.6275L141.913 26.5195L141.503 24.593ZM140.818 25.1356L138.545 29.9473L140.326 30.7886L142.599 25.9769L140.818 25.1356ZM138.545 29.9473C137.917 31.2761 138.485 32.8621 139.814 33.4898L140.655 31.7089C140.31 31.5458 140.163 31.1338 140.326 30.7886L138.545 29.9473ZM139.814 33.4898C141.143 34.1175 142.729 33.5492 143.357 32.2204L141.576 31.3791C141.413 31.7243 141.001 31.8719 140.655 31.7089L139.814 33.4898ZM143.357 32.2204L145.158 28.4065L143.377 27.5652L141.576 31.3791L143.357 32.2204ZM148.145 42.292L145.233 27.7919L143.302 28.1797L146.214 42.6798L148.145 42.292ZM148.959 42.8336C148.585 42.9088 148.22 42.6663 148.145 42.292L146.214 42.6798C146.503 44.1206 147.906 45.0541 149.347 44.7647L148.959 42.8336ZM149.5 42.0199C149.576 42.3941 149.333 42.7585 148.959 42.8336L149.347 44.7647C150.787 44.4754 151.721 43.0729 151.431 41.6321L149.5 42.0199ZM146.632 27.7369L149.5 42.0199L151.431 41.6321L148.563 27.3492L146.632 27.7369ZM151.182 29.03L148.194 26.759L147.002 28.3272L149.99 30.5982L151.182 29.03ZM152.151 28.8979C151.92 29.2019 151.486 29.261 151.182 29.03L149.99 30.5982C151.16 31.4874 152.83 31.2597 153.719 30.0897L152.151 28.8979ZM152.019 27.9294C152.323 28.1604 152.382 28.594 152.151 28.8979L153.719 30.0897C154.608 28.9196 154.38 27.2503 153.21 26.3612L152.019 27.9294ZM147.999 24.8744L152.019 27.9294L153.21 26.3612L149.19 23.3062L147.999 24.8744ZM153.328 22.0758L148.389 23.1271L148.8 25.0536L153.738 24.0023L153.328 22.0758ZM153.86 21.2558C153.94 21.6292 153.701 21.9963 153.328 22.0758L153.738 24.0023C155.175 23.6963 156.093 22.2831 155.787 20.8457L153.86 21.2558ZM153.04 20.7237C153.413 20.6442 153.781 20.8824 153.86 21.2558L155.787 20.8457C155.481 19.4084 154.067 18.4912 152.63 18.7972L153.04 20.7237ZM147.835 21.8317L153.04 20.7237L152.63 18.7972L147.425 19.9052L147.835 21.8317ZM148.52 21.2891L150.793 16.4772L149.013 15.6359L146.739 20.4478L148.52 21.2891ZM150.793 16.4772C151.421 15.1484 150.853 13.5624 149.524 12.9347L148.683 14.7157C149.028 14.8787 149.176 15.2907 149.013 15.6359L150.793 16.4772ZM149.524 12.9347C148.195 12.307 146.609 12.8754 145.982 14.2041L147.763 15.0454C147.926 14.7002 148.338 14.5526 148.683 14.7157L149.524 12.9347ZM145.982 14.2041L144.671 16.9795L146.451 17.8208L147.763 15.0454L145.982 14.2041ZM141.845 3.89689L144.595 17.5941L146.527 17.2063L143.776 3.5091L141.845 3.89689ZM141.031 3.35529C141.405 3.28013 141.77 3.52261 141.845 3.89689L143.776 3.5091C143.487 2.06831 142.084 1.13486 140.643 1.42419L141.031 3.35529Z" fill="#29193E" mask="url(#path-26-inside-1)"/>
</g>
<defs>
<clipPath id="clip0">
<rect width="216" height="349.786" fill="white" transform="translate(0 0.213867)"/>
</clipPath>
</defs>
</svg>
