<svg width="406" height="266" viewBox="0 0 406 266" fill="none" xmlns="http://www.w3.org/2000/svg">
<rect x="2.5" y="2.5" width="401" height="138" fill="#E55B42" stroke="black" stroke-width="5"/>
<mask id="mask0" mask-type="alpha" maskUnits="userSpaceOnUse" x="0" y="0" width="406" height="143">
<rect width="405.258" height="143" fill="#C4C4C4"/>
</mask>
<g mask="url(#mask0)">
<path d="M370.907 110.095L285.966 69.1646L340.515 21.6851L250.119 32.3271L348.308 -83.0972L216.61 -6.96629L195.57 -158.41L172.971 -16.7896L38.1559 -83.0972L115.304 11.8618L9.32275 53.611L95.8224 69.1646L-7.04205 189.501L115.304 123.193L115.304 256.627L162.061 153.482L236.092 273.818L216.61 145.296L285.966 205.873L236.092 123.193L370.907 110.095Z" fill="#F98548"/>
<path d="M301.268 97.5317L246.946 68.2118L283.881 38.8851L224.565 43.0663L291.88 -29.2814L203.778 16.389L194.248 -83.1213L175.558 8.64064L89.3783 -38.7723L137.111 25.5805L66.7545 49.5924L122.799 62.3932L52.294 137.804L134.018 98.2607L130.31 185.37L163.704 119.465L208.697 200.289L199.548 115.79L243.148 157.459L212.882 101.957L301.268 97.5317Z" fill="#E55B42"/>
<path d="M238.409 85.1786L210.223 66.7927L231.454 52.6177L199.158 52.1424L238.644 16.0743L189.021 36.7364L188.034 -17.5897L174.064 31.2372L129.385 1.58243L152.534 38.6347L113.428 48.3881L143.24 57.9082L101.898 95.4879L147.811 77.849L142.15 124.848L162.997 90.7023L183.972 136.547L182.561 90.3677L204.423 114.946L190.362 83.4928L238.409 85.1786Z" fill="#F98548"/>
</g>
<rect x="2.5" y="2.5" width="401" height="138" stroke="black" stroke-width="5"/>
<rect x="3.5" y="3.5" width="95" height="398.258" transform="matrix(-4.37114e-08 1 1 4.37114e-08 -1.5299e-07 164)" fill="#F98548" stroke="black" stroke-width="7"/>
<mask id="mask1" mask-type="alpha" maskUnits="userSpaceOnUse" x="3" y="167" width="399" height="96">
<rect x="5" y="5" width="85.3115" height="388.497" transform="matrix(-3.71939e-08 1 1 6.99557e-08 3.20221 167.344)" fill="#D8C1F7" stroke="black" stroke-width="10"/>
</mask>
<g mask="url(#mask1)">
<path d="M6.31843 159.045C34.1333 200.322 72.2431 299.409 2.16351 365.539C-67.9161 431.669 -24.2664 255.431 6.31843 159.045Z" fill="black"/>
<path d="M305.784 114.4C333.599 155.677 371.709 254.764 301.629 320.893C231.55 387.023 275.2 210.785 305.784 114.4Z" fill="black"/>
<path d="M65.1797 302.403C80.1375 262.048 50.4067 175.372 33.6716 137.078C50.6375 138.542 89.0705 147.59 107.075 172.063C129.581 202.655 86.1275 219.74 84.5694 250.495C83.0113 281.249 134.948 285.805 102.228 302.403C69.5078 319 46.4826 352.846 65.1797 302.403Z" fill="black"/>
<path d="M214.034 299.895C228.992 259.54 199.261 172.864 182.526 134.57C199.492 136.035 237.925 145.082 255.93 169.556C278.436 200.147 234.982 217.233 233.424 247.987C231.866 278.741 283.802 283.298 251.082 299.895C218.362 316.493 195.337 350.339 214.034 299.895Z" fill="black"/>
<path d="M364.616 276.532C379.611 231.594 349.807 135.075 333.03 92.4328C350.038 94.0636 388.566 104.138 406.615 131.391C429.176 165.456 385.616 184.482 384.054 218.729C382.492 252.976 434.556 258.049 401.756 276.532C368.955 295.014 345.873 332.703 364.616 276.532Z" fill="black"/>
<path d="M137.891 209.326C156.034 186.415 145.45 172.009 137.891 167.67L150.875 156.93C161.205 158.828 180.86 168.971 176.843 194.356C171.823 226.086 122.483 218.113 161.608 253.912C192.909 282.551 178.707 302.728 171.476 309.888C75.6363 404.787 105.575 431.603 133.39 439.739C106.094 457.639 49.0101 478.174 39.0383 417.121C26.5736 340.805 186.711 310.701 144.469 281.412C102.228 252.122 115.212 237.965 137.891 209.326Z" fill="black"/>
<path d="M437.357 164.681C455.5 141.77 444.916 127.364 437.357 123.024L450.341 112.285C460.671 114.183 480.326 124.326 476.309 149.711C471.289 181.441 421.949 173.468 461.074 209.267C492.375 237.906 478.173 258.083 470.942 265.243C375.102 360.142 405.041 386.958 432.856 395.094C405.56 412.993 348.476 433.529 338.504 372.476C326.04 296.16 486.177 266.056 443.935 236.766C401.694 207.477 414.678 193.32 437.357 164.681Z" fill="black"/>
</g>
</svg>
