<?xml version="1.0" encoding="utf-8"?>
<!-- Generator: Adobe Illustrator 22.1.0, SVG Export Plug-In . SVG Version: 6.00 Build 0)  -->
<svg version="1.1" id="HERO" xmlns="http://www.w3.org/2000/svg" xmlns:xlink="http://www.w3.org/1999/xlink" x="0px" y="0px"
	 viewBox="0 0 388.6 564.1" style="enable-background:new 0 0 388.6 564.1;" xml:space="preserve">
<ellipse style="fill:#80D8FF;" cx="197.7" cy="476.7" rx="167.3" ry="82.9"/>
<linearGradient id="SVGID_1_" gradientUnits="userSpaceOnUse" x1="194" y1="24" x2="194" y2="559.3835">
	<stop  offset="0" style="stop-color:#FFFFFF;stop-opacity:1.000000e-02"/>
	<stop  offset="0.1505" style="stop-color:#FFFFF7;stop-opacity:0.159"/>
	<stop  offset="0.3835" style="stop-color:#FFFFE1;stop-opacity:0.3897"/>
	<stop  offset="0.6699" style="stop-color:#FFFFBE;stop-opacity:0.6732"/>
	<stop  offset="0.9961" style="stop-color:#FFFF8D;stop-opacity:0.9961"/>
	<stop  offset="1" style="stop-color:#FFFF8C"/>
</linearGradient>
<path style="opacity:0.4;fill:url(#SVGID_1_);" d="M1,24l28.5,452.9c0,0-2.4,35.8,52.5,60.2c25,11.1,62.2,22.3,116.2,22.3
	s93.4-13.4,118-24.4c54.2-24.4,48.1-58,48.1-58L387,24H1z"/>
<rect x="33" y="301" style="opacity:0.3;fill:#80D8FF;" width="11" height="45"/>
<rect x="47" y="349" style="opacity:0.3;fill:#80D8FF;" width="5" height="35"/>
<rect x="1" y="373" style="fill:#80D8FF;" width="3" height="28"/>
<rect x="17" y="330" style="opacity:0.5;fill:#80D8FF;" width="12" height="43"/>
<rect x="7" y="362" style="fill:#80D8FF;" width="6" height="30"/>
<rect x="2" y="340" style="fill:#80D8FF;" width="2" height="26"/>
<rect x="321.1" y="4" style="opacity:0.3;fill:#80D8FF;" width="11.1" height="47"/>
<rect x="337.7" y="28" style="opacity:0.5;fill:#80D8FF;" width="4.8" height="37"/>
<rect x="348.1" y="15" style="opacity:0.5;fill:#80D8FF;" width="13.5" height="42"/>
<rect x="364.1" y="34" style="opacity:0.5;fill:#80D8FF;" width="1.2" height="31"/>
<rect x="369" y="42" style="opacity:0.5;fill:#80D8FF;" width="4.9" height="33"/>
<rect x="311" y="321" style="opacity:0.3;fill:#80D8FF;" width="7" height="33"/>
<rect x="322" y="327" style="opacity:0.3;fill:#80D8FF;" width="4" height="38"/>
<rect x="332" y="317" style="opacity:0.75;fill:#80D8FF;" width="16" height="37"/>
<rect x="351" y="329" style="opacity:0.75;fill:#80D8FF;" width="13" height="38"/>
<rect x="369" y="310" style="fill:#80D8FF;" width="5" height="49"/>
<rect x="378.7" y="342" transform="matrix(-1 -1.224647e-16 1.224647e-16 -1 760 720)" style="fill:#80D8FF;" width="2.6" height="36"/>
<rect x="380.5" y="301" transform="matrix(-1 -1.224647e-16 1.224647e-16 -1 762 638)" style="fill:#80D8FF;" width="1" height="36"/>
<rect x="60" y="191" transform="matrix(-1 -4.486867e-11 4.486867e-11 -1 129 429)" style="fill:#80D8FF;" width="9" height="47"/>
<rect x="51.6" y="184" transform="matrix(-1 -4.572799e-11 4.572799e-11 -1 107 405)" style="fill:#80D8FF;" width="3.9" height="37"/>
<rect x="36" y="186" transform="matrix(-1 -4.497881e-11 4.497881e-11 -1 83 414)" style="opacity:0.4;fill:#80D8FF;" width="11" height="42"/>
<rect x="32" y="177" transform="matrix(-1 -4.365587e-11 4.365587e-11 -1 65 385)" style="opacity:0.4;fill:#80D8FF;" width="1" height="31"/>
<rect x="25" y="164" transform="matrix(-1 -4.456536e-11 4.456536e-11 -1 54 361)" style="opacity:0.8;fill:#80D8FF;" width="4" height="33"/>
<rect x="72" y="208" style="fill:#80D8FF;" width="10" height="50"/>
<rect x="32" y="139" style="opacity:0.4;fill:#80D8FF;" width="9" height="30"/>
<rect x="356" y="68" style="opacity:0.5;fill:#80D8FF;" width="11" height="40"/>
<rect x="374" y="99" style="opacity:0.5;fill:#80D8FF;" width="7" height="33"/>
<rect x="17" y="387" style="fill:#80D8FF;" width="6" height="32"/>
<rect x="29" y="398" style="fill:#80D8FF;" width="9" height="40"/>
<rect x="354" y="375" style="fill:#80D8FF;" width="7" height="49"/>
<rect x="369" y="371" style="fill:#80D8FF;" width="5" height="29"/>
<rect x="364" y="371" style="fill:#80D8FF;" width="5" height="29"/>
<rect x="73" y="262" transform="matrix(-1 -4.486867e-11 4.486867e-11 -1 155 571)" style="opacity:0.3;fill:#80D8FF;" width="9" height="47"/>
<rect x="55" y="316" style="fill:#80D8FF;" width="9" height="49"/>
<rect x="71" y="283" style="fill:#80D8FF;" width="5" height="36"/>
<rect x="71" y="337" style="fill:#80D8FF;" width="5" height="23"/>
<rect x="82" y="294" style="opacity:0.3;fill:#80D8FF;" width="11" height="32"/>
<rect x="91" y="331" style="opacity:0.1;fill:#80D8FF;" width="11" height="54"/>
<rect x="353" y="125" style="fill:#80D8FF;" width="14" height="35"/>
<rect x="340" y="145" style="fill:#80D8FF;" width="8" height="31"/>
<rect x="329" y="169" style="fill:#80D8FF;" width="7" height="27"/>
<rect x="342" y="185" style="fill:#80D8FF;" width="5" height="27"/>
<rect x="31" y="67" style="opacity:0.4;fill:#80D8FF;" width="17" height="55"/>
<rect x="54" y="94" style="opacity:0.4;fill:#80D8FF;" width="7" height="44"/>
<rect x="54" y="43" style="opacity:0.6;fill:#80D8FF;" width="10" height="38"/>
<rect x="327" y="203" style="fill:#80D8FF;" width="11" height="27"/>
<rect x="307" y="238" style="fill:#80D8FF;" width="8" height="29"/>
<rect x="256" y="272" style="opacity:0.6;fill:#80D8FF;" width="11" height="45"/>
<rect x="271" y="309" style="fill:#80D8FF;" width="9" height="22"/>
<rect x="294" y="301" style="fill:#80D8FF;" width="7" height="22"/>
<rect x="1" y="131" style="opacity:0.4;fill:#80D8FF;" width="12" height="25"/>
<rect x="113" y="316" style="opacity:0.5;fill:#80D8FF;" width="8" height="38"/>
<rect x="143" y="323" style="fill:#80D8FF;" width="6" height="23"/>
<rect x="126" y="305" style="fill:#80D8FF;" width="7" height="25"/>
<rect x="129" y="345" style="opacity:0.3;fill:#80D8FF;" width="6" height="22"/>
<rect x="186" y="279" style="opacity:0.3;fill:#80D8FF;" width="8" height="30"/>
<rect x="165" y="304" style="fill:#80D8FF;" width="5" height="22"/>
<rect x="226" y="295" style="opacity:0.5;fill:#80D8FF;" width="7" height="24"/>
<rect x="245" y="306" style="opacity:0.5;fill:#80D8FF;" width="3" height="25"/>
<rect x="210" y="315" style="opacity:0.8;fill:#80D8FF;" width="7" height="23"/>
<rect x="70.6" y="36.2" style="opacity:0.2;fill:#80D8FF;" width="9.8" height="52.5"/>
<rect x="86.6" y="30" style="opacity:0.1;fill:#80D8FF;" width="5.9" height="39"/>
<rect x="306.1" y="15" style="opacity:0.2;fill:#80D8FF;" width="11.1" height="47"/>
<rect x="294.9" y="6.1" style="opacity:0.1;fill:#80D8FF;" width="5.4" height="34.8"/>
<rect x="97.6" y="38" style="opacity:5.000000e-02;fill:#80D8FF;" width="5.9" height="39"/>
<g id="XMLID_25_">
	<g>
		<path style="fill:#7A2222;" d="M149.4,367.4c-1.7,0-3.4-0.1-5.1-0.1c-0.9,0-1.8,0-2.5-0.6c-2.5-1.9-3.3-6.7-4.1-9.5
			c-0.7-2.5-1.4-5.1-2-7.6c-0.3-1.3-1.8-5.1-0.8-6.3c0.4-0.5,1.2-0.7,1.9-0.7c4.5-0.5,9.1-0.2,13.5-0.2c5.3,0,10.7,0.1,16,0.1
			c19.2,0,38.4,0,57.7,0c6.9,0,13.9-0.1,20.8-0.2c6.5-0.1,13,0.1,19.5-0.1c1,0,2-0.1,2.8,0.4c2.8,1.6,1,6.2,0.5,8.6
			c-0.8,4.6-3,9-4.9,13.2c-1.3,2.9-3.5,2.9-6.4,2.9c-0.1,0-0.2,0-0.2,0c-0.6,0-1.3,0-1.9,0c-0.6,0-1.3,0-1.9,0c-0.1,0-0.1,0-0.2,0
			c-6.7,0-13.2,0.1-19.9,0.1c-12.5,0-24.9,0-37.3,0c-9.6,0-19.1,0-28.7,0C160.7,367.6,155.1,367.5,149.4,367.4z"/>
		<path style="fill:#932927;" d="M254.3,367.4c0.6,0,1.3,0,1.9,0c0.1,0,0.2,0,0.2,0c-5.4,29.3-13,86.6-15.3,90.4s-4.5,4-13,4.6
			c-13.4,0.9-39,0-52.1,0c-3.2,0-7.7,0-9.9-3.3c-2.2-3.3-11.2-61.9-16.6-91.7c5.6,0.1,11.2,0.2,16.9,0.2c9.6,0,19.1,0,28.7,0
			c12.5,0,24.9,0,37.3,0c6.7,0,13.2-0.2,19.9-0.1c0.1,0,0.1,0,0.2,0C253,367.4,253.7,367.4,254.3,367.4z"/>
	</g>
	<g>
	</g>
</g>
<g id="XMLID_118_">
	<g>
		<path style="fill:#006633;" d="M356,238.7c0.3,1.1-0.9,2-1.8,2.6c-5.9,3.5-12.1,6.1-18.2,9.1c-7.2,3.6-13.6,9.1-20.6,13.1
			c-13.6,7.7-30.7,12.3-46.4,11.7c-6.3-0.3-12.6-1.1-18.6-2.8c-4.1-1.2-12-2.9-14.4-6.7c-8.1-12.8,10.8-28.8,20.9-33.2
			c7.8-3.3,16.2-5,24.6-5.4c7.5-0.4,16.6-0.9,23.9,0c16.5,2.1,32.6,5,48.4,10C354.8,237.3,355.8,237.8,356,238.7z"/>
	</g>
	<g>
	</g>
</g>
<g>
	<path style="fill:#006633;" d="M284.1,166.7c19.2-7.2,32.8-19.5,46.9-33.7c0.7-0.7,1.4-1.8,0.8-2.6c-0.4-0.5-1.2-0.5-1.9-0.5
		c-17.1,1.5-34.4-2.6-51.6-3.2c-16-0.6-33.1,3.5-45.7,13.7c-5.2,4.3-9.8,10.3-10.3,17.2c-0.6,7.9,4.3,11.2,11.3,13.7
		c8,2.9,17.1,1.5,25.3,0.9C267.5,171.7,276,169.7,284.1,166.7z"/>
</g>
<g>
	<path style="fill:#006633;" d="M123.9,158.2c-19.4,0.7-38.5,7.6-56.1,15.4c-0.9,0.4-1.8,0.8-2.5,1.6c-0.7,0.7-1,1.9-0.5,2.7
		c0.5,0.9,1.6,1.2,2.5,1.4c15.6,3.5,31,9.9,45.1,17.7c5.3,2.9,10.4,6.2,16,8.6c8,3.4,16.8,4.7,25.4,4c8.5-0.7,15.9-2.7,22.9-7.4
		c5.5-3.6,7.5-12.7,4.1-18.3c-3.9-6.4-10.3-11.6-16.6-15.5C152.2,161,137.9,157.8,123.9,158.2z"/>
</g>
<g>
	<path style="fill:#006633;" d="M170.7,265c10.3,6.8,20.4,21,12,33.2c-5.7,8.3-18.1,9.4-26.9,10.4c-9.3,1.1-18.8,0.2-27.9-2.1
		c-16-4-29.7-13.7-45.1-19.7c-10-3.9-20.4-7-30.7-9.9c-2.6-0.7-5.3-1.5-7.3-3.3c0.7-3,6.4-4.3,8.7-5.1c17.3-6.3,35.5-12.4,53.8-15.1
		C128.9,250.3,151.9,252.7,170.7,265z"/>
</g>
<g id="XMLID_113_">
	<g>
		<path style="fill:#006633;" d="M280.3,48c1.7,2-7.4,14.2-9,16.4c-5,6.6-10.6,12.6-16.6,18.3c-0.2,0.2-0.4,0.4-0.6,0.5
			c-7.7,7.2-16.6,13.3-26.7,16.6c-3.8,1.2-8.1,2-11.7,0.3c-12-5.5,1.9-24.3,7-29.5c12.1-12.5,27-16.8,43.4-20.5
			c3.7-0.8,7.3-1.6,11-2.5C278.3,47.3,279.6,47.1,280.3,48z"/>
	</g>
	<g>
	</g>
</g>
<g id="XMLID_112_">
	<g>
		<path style="fill:#006633;" d="M180.8,106.6c0.8,2.6,2.1,7.7-1,9.3c-2.5,1.2-7.1,0.8-9.8,0.9c-7.5,0.2-15.5-0.4-22.3-3.7
			c-6.9-3.4-12-9.3-16.6-15.3c-5.1-6.6-8.5-13.2-15.7-17.6c-0.4-0.2-0.8-0.5-0.9-0.9c-0.3-1,1-1.6,2-1.7c11.2-1.3,20.9-0.3,31.7,2.2
			c5.8,1.4,10.6,3.9,15.4,7c1.5,0.9,2.9,1.9,4.4,2.9C174,93.6,178.7,99.7,180.8,106.6z"/>
	</g>
	<g>
	</g>
</g>
<g id="XMLID_116_">
	<g>
		<path style="fill:#006633;" d="M190.4,29.1c9.6,13.1,14.2,29.9,12.4,46.1c-0.4,3.6-1.8,14-4.8,16.6c-3.4,2.9-5.8-3.6-8.3-6.7
			c-7.2-8.7-14.6-16.7-14.6-28.6c0-4.1,0.6-8.2,1.3-12.2c1-6.1,2-12.2,3-18.2c0.3-1.9,1.1-4.4,3.1-4.5c1.3-0.1,2.4,0.9,3.3,1.8
			C187.3,25.2,188.9,27.1,190.4,29.1z"/>
	</g>
	<g>
	</g>
</g>
<g id="XMLID_2_">
	<g>
		<linearGradient id="SVGID_2_" gradientUnits="userSpaceOnUse" x1="201.6993" y1="119.0704" x2="144.814" y2="122.0042">
			<stop  offset="1.302083e-03" style="stop-color:#00BD00"/>
			<stop  offset="1" style="stop-color:#006633"/>
		</linearGradient>
		<path style="fill:url(#SVGID_2_);" d="M145,92c-2,0-2,2-1,3c1,1,4,3,13.2,6.9c11.2,4.7,21.7,11.9,29.4,21.4
			c2.7,3.4,5.2,7,7.6,10.6c1.1,1.7,8.8,14.9,8.8,15.1c0.8-3.8-2.3-14.3-2.6-18.2c-0.1-1.4-0.3-2.9-1.2-3.9
			c-10.4-12.4-10.3-12.6-21.7-20.1C166.1,99.4,147,92,145,92z"/>
	</g>
	<g>
	</g>
</g>
<g id="XMLID_1_">
	<g>
		<linearGradient id="SVGID_3_" gradientUnits="userSpaceOnUse" x1="204.4689" y1="99.5755" x2="257.9052" y2="93.7636">
			<stop  offset="1.302083e-03" style="stop-color:#00BD00"/>
			<stop  offset="1" style="stop-color:#006633"/>
		</linearGradient>
		<path style="fill:url(#SVGID_3_);" d="M254.2,69.4c2.1,0.8,1.3,1.8-1.7,3.2c-3.5,1.6-1.7,0-8.6,4c-10.5,6.1-19.6,15.2-25.6,25.8
			c-2.2,3.8-4.1,7.7-5.8,11.7c-0.8,1.8-1.6,3.7-2.4,5.6c-0.2,0.5-2.1,4.4-2.1,4.5c-1.4-3.7-1.7-8.2-2.1-12.2
			c-0.1-1.4-0.2-2.9,0.5-4.1c8.3-13.9,8.2-14.1,18.3-23.3C234.7,75.5,252.1,68.6,254.2,69.4z"/>
	</g>
	<g>
	</g>
</g>
<g id="XMLID_117_">
	<g>
		<path style="fill:#00BD00;" d="M213.9,175.1c1.1,17.5,0.7,35.9,0.1,53.5c-0.8,23.5-4.1,46.4-6,69.7c-0.8,9.6-0.8,19.3-0.7,29
			c0,9.1,0.5,18.3,1.2,27.3c0.3,4,1.7,6.9-0.6,8.7c-1.9,1.4-6.8,0-9,0c-4.4,0-3.6-21.5-3.7-25.7c-0.3-11.8,0.3-23.6,1.4-35.2
			c1.8-18.5,5.6-36.2,8-54.5c2.2-16.6,2.2-34.1,1.5-51c-0.7-18-2-35.3-3.8-53.1c-0.9-9.3-2.6-18.4-3.4-27.7
			c-0.3-4.3-10.4-51.1-6.8-54.2c1.2-1.1,7.2,28.4,8,30c2.7,5.5,5,17.5,6,24.1C209.3,135.6,212.6,155.1,213.9,175.1z"/>
	</g>
	<g>
	</g>
</g>
<g id="XMLID_115_">
	<g>
		<linearGradient id="SVGID_4_" gradientUnits="userSpaceOnUse" x1="213.3108" y1="165.2233" x2="304.2312" y2="165.2233">
			<stop  offset="1.302083e-03" style="stop-color:#00BD00"/>
			<stop  offset="1" style="stop-color:#006633"/>
		</linearGradient>
		<path style="fill:url(#SVGID_4_);" d="M302.5,137.1c1,0,2.7,1.1,1.1,1.8c-1.5,0.7-3.1,0.9-4.7,1.1c-14.4,1.9-28.1,3.6-41.6,9.5
			c-11.1,4.9-23.4,13.5-30.5,23.4c-2.6,3.5-4.9,7.2-7.1,11c-1,1.7-2,3.5-2.9,5.3c-0.2,0.5-2.6,4.2-2.6,4.3c-1-3.8-0.8-8.4-0.8-12.3
			c0-1.4,0.1-2.9,1-4c9.7-12.9,23.2-23.6,37.9-30.3C267.7,139.7,285.5,136.3,302.5,137.1z"/>
	</g>
	<g>
	</g>
</g>
<g>
	<linearGradient id="SVGID_5_" gradientUnits="userSpaceOnUse" x1="204.7893" y1="271.8514" x2="317.5381" y2="271.8514">
		<stop  offset="1.302083e-03" style="stop-color:#00BD00"/>
		<stop  offset="1" style="stop-color:#006633"/>
	</linearGradient>
	<path style="fill:url(#SVGID_5_);" d="M248.7,260.5c-9.5,5-18.8,10.9-26.5,18.5c-3.7,3.7-7.2,7.7-9.7,12.3
		c-2.1,3.9-3.2,8.3-5.4,12.3c-1.7-3.4-2.6-8.8-2.3-12.6c0.2-3.2,2.8-5.9,4.6-8.3c5.1-6.8,11.7-12.4,18.7-17
		c13.9-9.2,29.2-16.2,45.3-20.5c7.9-2.1,16-3.7,24.1-4.5c3.8-0.4,7.6-0.6,11.4-0.6c2.5,0,7.3-0.6,8.5,1.9c-3.9,1.8-10,1.4-14.3,2
		c-5,0.6-10,1.3-14.9,2.3C274.4,249,261.3,253.9,248.7,260.5z"/>
</g>
<g id="XMLID_114_">
	<g>
		<linearGradient id="SVGID_6_" gradientUnits="userSpaceOnUse" x1="102.015" y1="198.4432" x2="207.2649" y2="198.4432">
			<stop  offset="0" style="stop-color:#006633"/>
			<stop  offset="1" style="stop-color:#00BD00"/>
		</linearGradient>
		<path style="fill:url(#SVGID_6_);" d="M206.8,211.8c0.5,3.2,0.6,6.5,0.4,9.8c-2.9-2.6-4.9-5.9-7.8-8.5c-3-2.8-6.1-5.4-9.5-7.6
			c-1.9-1.3-4-2.5-6-3.6c-3.4-1.9-6.8-3.9-10.1-5.8c-2.5-1.4-5-2.9-7.6-4.1c-3.3-1.5-6.8-2.7-10.2-3.7c-8.8-2.8-17.5-5.3-26.6-6.7
			c-5.5-0.9-11-1.2-16.5-1.8c-3-0.3-5.9-0.7-8.8-1.2c-0.8-0.1-1.8-0.4-2-1.2c-0.9-3.4,18.7-1.3,21-1c18.9,2.5,37.8,6.9,55.1,15.1
			c5.8,2.8,11.3,6,16.7,9.5C198.8,203.4,206.1,206.6,206.8,211.8z"/>
	</g>
	<g>
	</g>
</g>
<g>
	<linearGradient id="SVGID_7_" gradientUnits="userSpaceOnUse" x1="103.1796" y1="291.2742" x2="197.9798" y2="291.2742">
		<stop  offset="0" style="stop-color:#006633"/>
		<stop  offset="1" style="stop-color:#00BD00"/>
	</linearGradient>
	<path style="fill:url(#SVGID_7_);" d="M185.7,290.9c4,2.3,7.7,4.9,10.5,8c2.9,3.2,1.4,9.5,0.5,13.3c-2-2.3-3.3-4.8-5.6-6.8
		c-2.3-2-4.7-4-7.2-5.8c-4.9-3.7-10.1-7-15.5-10c-3.8-2.1-7.8-3.9-11.8-5.4c-2.9-1-5.8-1.9-8.8-2.6c-13.5-3.5-27.1-5.8-40.9-7.6
		c-0.8-0.1-4.6-0.3-3.6-2.2c0.3-0.6,1.1-0.9,1.8-1c2.7-0.2,5.2-0.5,7.9-0.5c11.1,0.3,22.3,1.3,33.1,3.9c9.2,2.2,18.2,5.6,26.7,9.9
		C176.9,286.3,181.5,288.4,185.7,290.9z"/>
</g>
<g id="XMLID_3_">
	<g>
		<linearGradient id="SVGID_8_" gradientUnits="userSpaceOnUse" x1="178.0028" y1="131.4741" x2="213.0636" y2="64.3262">
			<stop  offset="1.302083e-03" style="stop-color:#00BD00"/>
			<stop  offset="0.2309" style="stop-color:#00B902"/>
			<stop  offset="0.44" style="stop-color:#00AE09"/>
			<stop  offset="0.6411" style="stop-color:#009C13"/>
			<stop  offset="0.8361" style="stop-color:#008223"/>
			<stop  offset="1" style="stop-color:#006633"/>
		</linearGradient>
		<path style="fill:url(#SVGID_8_);" d="M189,52c1.8-1.3,5,15,5,15s6,22,8,30c2,8,4,18,5,25c1,7-5,22-5,22s-5-33.6-7-47
			C193,83.5,187.2,53.3,189,52z"/>
	</g>
	<g>
	</g>
</g>
<linearGradient id="SVGID_9_" gradientUnits="userSpaceOnUse" x1="127.6801" y1="120.8204" x2="127.6801" y2="183.9668">
	<stop  offset="0" style="stop-color:#FFFFFF;stop-opacity:1.000000e-02"/>
	<stop  offset="0.1505" style="stop-color:#FFFFF7;stop-opacity:0.159"/>
	<stop  offset="0.3835" style="stop-color:#FFFFE1;stop-opacity:0.3897"/>
	<stop  offset="0.6699" style="stop-color:#FFFFBE;stop-opacity:0.6732"/>
	<stop  offset="0.9961" style="stop-color:#FFFF8D;stop-opacity:0.9961"/>
	<stop  offset="1" style="stop-color:#FFFF8C"/>
</linearGradient>
<path style="opacity:0.4;fill:url(#SVGID_9_);" d="M96.3,120.8l1.3,51.5c0,0-1.9,11.2,31.5,11.6c32,0,29.8-11.6,29.8-11.6l-1-50.3
	L96.3,120.8z"/>
<linearGradient id="SVGID_10_" gradientUnits="userSpaceOnUse" x1="280.3673" y1="87.1998" x2="280.3673" y2="148.9059">
	<stop  offset="0" style="stop-color:#FFFFFF;stop-opacity:1.000000e-02"/>
	<stop  offset="0.1505" style="stop-color:#FFFFF7;stop-opacity:0.159"/>
	<stop  offset="0.3835" style="stop-color:#FFFFE1;stop-opacity:0.3897"/>
	<stop  offset="0.6699" style="stop-color:#FFFFBE;stop-opacity:0.6732"/>
	<stop  offset="0.9961" style="stop-color:#FFFF8D;stop-opacity:0.9961"/>
	<stop  offset="1" style="stop-color:#FFFF8C"/>
</linearGradient>
<path style="opacity:0.4;fill:url(#SVGID_10_);" d="M256.9,88.1l-0.6,49c0,0-1.5,11.4,24.7,11.8c25,0,23.3-11.8,23.3-11.8l-0.5-49.9
	L256.9,88.1z"/>
<linearGradient id="SVGID_11_" gradientUnits="userSpaceOnUse" x1="122.6983" y1="219.5884" x2="122.6983" y2="281.3415">
	<stop  offset="0" style="stop-color:#FFFFFF;stop-opacity:1.000000e-02"/>
	<stop  offset="0.1505" style="stop-color:#FFFFF7;stop-opacity:0.159"/>
	<stop  offset="0.3835" style="stop-color:#FFFFE1;stop-opacity:0.3897"/>
	<stop  offset="0.6699" style="stop-color:#FFFFBE;stop-opacity:0.6732"/>
	<stop  offset="0.9961" style="stop-color:#FFFF8D;stop-opacity:0.9961"/>
	<stop  offset="1" style="stop-color:#FFFF8C"/>
</linearGradient>
<path style="opacity:0.4;fill:url(#SVGID_11_);" d="M89.4,219.6l1.3,51.4c0,0-2,10,33.6,10.3c34,0,31.7-10.3,31.7-10.3l-1-51.4H89.4
	z"/>
<linearGradient id="SVGID_12_" gradientUnits="userSpaceOnUse" x1="288.4122" y1="186.2744" x2="288.4122" y2="250.6389">
	<stop  offset="0" style="stop-color:#FFFFFF;stop-opacity:1.000000e-02"/>
	<stop  offset="0.1505" style="stop-color:#FFFFF7;stop-opacity:0.159"/>
	<stop  offset="0.3835" style="stop-color:#FFFFE1;stop-opacity:0.3897"/>
	<stop  offset="0.6699" style="stop-color:#FFFFBE;stop-opacity:0.6732"/>
	<stop  offset="0.9961" style="stop-color:#FFFF8D;stop-opacity:0.9961"/>
	<stop  offset="1" style="stop-color:#FFFF8C"/>
</linearGradient>
<path style="opacity:0.4;fill:url(#SVGID_12_);" d="M262.4,186.3l1,54.7c0,0-1.6,9.3,26.2,9.7c26.6,0,24.8-9.7,24.8-9.7l-0.5-54.7
	H262.4z"/>
<linearGradient id="SVGID_13_" gradientUnits="userSpaceOnUse" x1="201" y1="374.9782" x2="201" y2="505.1777">
	<stop  offset="0" style="stop-color:#FFFFFF;stop-opacity:1.000000e-02"/>
	<stop  offset="0.1505" style="stop-color:#FFFFF7;stop-opacity:0.159"/>
	<stop  offset="0.3835" style="stop-color:#FFFFE1;stop-opacity:0.3897"/>
	<stop  offset="0.6699" style="stop-color:#FFFFBE;stop-opacity:0.6732"/>
	<stop  offset="0.9961" style="stop-color:#FFFF8D;stop-opacity:0.9961"/>
	<stop  offset="1" style="stop-color:#FFFF8C"/>
</linearGradient>
<path style="opacity:0.4;fill:url(#SVGID_13_);" d="M118.4,375c0,0,15.1,89.6,16.2,97.1c1.1,7.5,10.9,33.1,69.1,33.1
	s65.8-27.7,67.9-35.2c2.1-7.5,11.9-92.9,11.9-92.9L118.4,375z"/>
<g id="XMLID_107_">
	<g>
		<path style="fill:#5B2D00;" d="M148.2,416.8c0.7,3.1,0.3,6.7-2.1,8.7c-4.4,3.6-13.2,0.9-17.5-1.7c-1.3-0.8-2.5-1.7-3.3-3
			c-1.1-1.8-1.2-4.1-0.4-6c1.9-4.5,7.8-4.9,12.1-5.4c2.6-0.3,5.4-0.2,7.6,1.3C146.7,412,147.7,414.4,148.2,416.8z"/>
	</g>
	<g>
	</g>
</g>
<g id="XMLID_106_">
	<g>
		<path style="fill:#3F1900;" d="M275.4,428.2c-0.1,3.2-3.5,7.2-7.1,7.7c-3.8,0.5-9-2.4-11.6-4.8c-0.6-0.6-1.2-1.2-1.4-2
			c-0.2-0.9,0.1-1.8,0.4-2.6c0.3-0.7,0.5-1.5,0.8-2.2c1.1-3.3,9.8-2.6,12.9-1.9c1.7,0.3,3.4,0.9,4.6,2
			C274.9,425.3,275.4,426.8,275.4,428.2z"/>
	</g>
	<g>
	</g>
</g>
<g id="XMLID_105_">
	<g>
		<path style="fill:#3F1900;" d="M134.8,420.5c1.1,1.5,0.5,3.4-1.1,4.7c-1.6,1.3-3.8,2-6.1,2.6c-2.2,0.5-4.6,0.9-6.9,0.7
			c-1.6-0.2-6.6-1.7-6.9-2.8c-1.2-4.8,7.5-7.1,12.9-7.3C129.7,418.2,133.3,418.6,134.8,420.5z"/>
	</g>
	<g>
	</g>
</g>
<g id="XMLID_104_">
	<g>
		<path style="fill:#3F1900;" d="M142.7,419.4c0.9,0.7,1.7,1.5,2.1,2.6c-3-0.5-6-1.4-8.8-2.6c-2.6-1.1-5.8-2.7-6.8-5.6l0.4-0.1
			c0.8,0.1,1.7,0.2,2.6,0.3c0.7,0.1,1.5,0.2,2.2,0.4c1.2,0.4,2.3,1,3.4,1.7C139.4,417.1,141.1,418.1,142.7,419.4z"/>
	</g>
	<g>
	</g>
</g>
<g id="XMLID_111_">
	<g>
		<path style="fill:#5B2D00;" d="M121,425.1c1.6,3.2,0.3,7.3-2.4,9.7c-2.6,2.4-6.2,3.4-9.8,4c-2.8,0.5-5.6,0.7-8.4,0.2
			c-2.8-0.5-5.5-1.9-7.1-4.2c-6-8.2,2.1-15.4,10.1-15.7C109,418.7,118,419.4,121,425.1z"/>
	</g>
	<g>
	</g>
</g>
<g id="XMLID_110_">
	<g>
		<path style="fill:#3F1900;" d="M110.2,426.1c2,0,6.9,0,8.2,1.5c-3.5,2.2-10.2,4-14.3,4.6c-0.8,0.1-1.7,0.2-2.5,0.1
			c-1.4-0.3-6.6-1.9-7.5-3.1C98.2,426.9,105.4,426,110.2,426.1z"/>
	</g>
	<g>
	</g>
</g>
<g id="XMLID_103_">
	<g>
		<path style="fill:#5B2D00;" d="M161.5,432.2c0.6,3.1-1.4,7.8-4.5,9.2c-3.2,1.4-8.4-0.1-11.1-1.8c-0.7-0.4-1.3-0.9-1.6-1.6
			c-0.4-0.8-0.3-1.8-0.3-2.7c0.1-0.8,0.1-1.6,0.2-2.4c0.3-3.5,8-4.9,10.7-5c1.5-0.1,3.2,0,4.4,0.8
			C160.5,429.5,161.3,430.8,161.5,432.2z"/>
	</g>
	<g>
	</g>
</g>
<g id="XMLID_102_">
	<g>
		<path style="fill:#632A00;" d="M164.8,414.8c1.5,2,1.7,5.2,0.9,7.7c-0.9,2.5-2.7,4.4-4.7,5.3c-2,1-4.3,1.1-6.4,0.9
			c-1.8-0.2-3.7-0.6-5.2-2c-3.7-3.4-2.2-9.7,1.5-11.9c2.6-1.6,5.4-2.4,8.2-2.4C161.1,412.3,163.3,412.9,164.8,414.8z"/>
	</g>
	<g>
	</g>
</g>
<g id="XMLID_101_">
	<g>
		<path style="fill:#3F1900;" d="M123.7,442.5c0.6,8.9-11.8,13.6-18.4,8.1c-1.3-1-2.1-2.5-2.6-4.1c-0.8-2.4-1-5.2,0.1-7.5
			c1.2-2.5,3.7-3.8,6.2-4.6c3.2-1.1,6.8-0.6,9.8,0.8c1,0.4,1.9,0.9,2.6,1.7C123,438.2,123.6,440.4,123.7,442.5z"/>
	</g>
	<g>
	</g>
</g>
<g id="XMLID_100_">
	<g>
		<path style="fill:#3F1900;" d="M143.1,445.4c3-0.1,4.8,3,4.4,5.7c-0.3,2.1-1.8,4-3.6,5.2c-2.8,1.9-6.5,2.4-9.7,1.1
			c-1.7-0.7-2.5-1.2-2.6-3.1c-0.1-1.7,0.3-3.5,1.5-4.8c0.5-0.5,1-0.9,1.6-1.3C137,446.7,140.5,445.5,143.1,445.4z"/>
	</g>
	<g>
	</g>
</g>
<g id="XMLID_99_">
	<g>
		<path style="fill:#5B2D00;" d="M99.2,457.7c1.5,1.2,2.9,3,2.7,5c-0.6,6.2-11.9,5.6-15.5,3.7c-4.7-2.6-8.5-9.1-1.7-11.4
			C89.1,453.5,95.7,454.8,99.2,457.7z"/>
	</g>
	<g>
	</g>
</g>
<g id="XMLID_98_">
	<g>
		<path style="fill:#5B2D00;" d="M79.5,468.5c3.7,1.6,5,5.8,1.3,8.1c-2,1.2-4.4,1.9-6.7,1.9c-2.8,0.1-6.9-2.5-5.9-5.9
			c0.4-1.2,1.3-2,2.3-2.7C73,468.5,76.8,467.3,79.5,468.5z"/>
	</g>
	<g>
	</g>
</g>
<g id="XMLID_97_">
	<g>
		<path style="fill:#5B2D00;" d="M99.2,474.1c0.1,0.8,0.2,1.6-0.1,2.4c-0.6,1.4-2.3,2.1-3.8,2.4c-4.6,1.1-8.6,1.5-11.5-3.1
			c-2.2-3.5-1-6.9,3.1-8c3.5-0.9,7.8-1.2,10.3,1.5C98.4,470.6,99,472.4,99.2,474.1z"/>
	</g>
	<g>
	</g>
</g>
<g id="XMLID_96_">
	<g>
		<path style="fill:#5B2D00;" d="M106.1,441.9c1.2,2.5-0.1,5.7-2.3,7.4c-2.2,1.7-5.1,2.1-7.9,2.2c-4.1,0.2-13.1-3.1-8.1-8.8
			c2.2-2.5,7-4,10.2-4.2c1.5-0.1,3.1,0,4.6,0.5C104.1,439.5,105.4,440.5,106.1,441.9z"/>
	</g>
	<g>
	</g>
</g>
<g id="XMLID_95_">
	<g>
		<path style="fill:#3F1900;" d="M98.8,462.3c-1.9,0-3.9,0-5.8,0c-1.4,0-2.9,0-4.2-0.5c-2.1-0.8-3-2.4-4.8-3.5
			c0.9,0.6,3.6,0.2,4.7,0.2c1.8,0,3.4,0.3,5.1,1C95.6,460.2,97.2,461.3,98.8,462.3z"/>
	</g>
	<g>
	</g>
</g>
<g id="XMLID_94_">
	<g>
		<path style="fill:#3F1900;" d="M89.4,472c1.9,0.5,3.7,1.2,5.5,1.8c1.1,0.4,2.3,0.8,2.9,1.8c-1.8-0.6-3.6-1-5.4-1.2
			c-1.4-0.2-3.1-0.1-4.4-0.8c-1.1-0.6-1.3-1.8-2.5-2.4C86.9,471.3,88.1,471.6,89.4,472z"/>
	</g>
	<g>
	</g>
</g>
<g id="XMLID_93_">
	<g>
		<path style="fill:#3F1900;" d="M75.1,471.1c1.1-0.2,2.2-0.2,3.3-0.1c0.5,0,2.3,0.7,2.7,0.5c-1.7,0.8-3.4,1.5-5.2,2
			c-1.2,0-2.2,0.5-3.5,0.4c-1-0.1-1.8-0.4-2.8-0.3C71.1,472.2,73.1,471.4,75.1,471.1z"/>
	</g>
	<g>
	</g>
</g>
<g id="XMLID_92_">
	<g>
		<path style="fill:#5B2D00;" d="M128.3,477.8c0,1.8-0.8,3.5-2.1,4.6c-0.7,0.5-1.4,0.9-2.2,1.2c-1.5,0.5-3.2,0.7-4.8,0.8
			c-3.8,0.3-13.5,0.2-14.3-5.1c-0.8-5.4,6.3-6.6,10.1-6.9C119.5,472,128.2,471.5,128.3,477.8z"/>
	</g>
	<g>
	</g>
</g>
<g id="XMLID_91_">
	<g>
		<path style="fill:#3F1900;" d="M124,477.3c0,0-7.7,1.5-8.8,1.3c-2.2-0.4-4.8-0.9-7-1.7c3.6-2,7.8-1.3,11.8-1
			C121.4,476.1,123,476.3,124,477.3z"/>
	</g>
	<g>
	</g>
</g>
<g id="XMLID_90_">
	<g>
		<path style="fill:#3F1900;" d="M125.7,457.6c0.4,2.3-4.4,2.9-4.6,0.1C120.9,454.7,125.3,455.7,125.7,457.6z"/>
	</g>
	<g>
	</g>
</g>
<g id="XMLID_89_">
	<g>
		<path style="fill:#5B2D00;" d="M116,459.7c2.4,1.7-1.6,4.5-2.7,2.1C112.3,459.8,114.3,458.5,116,459.7z"/>
	</g>
	<g>
	</g>
</g>
<g id="XMLID_88_">
	<g>
		<path style="fill:#3F1900;" d="M125.6,466.4c-0.5,0.3-1.1,0.3-1.7,0.2c-1.1-0.2-2.5-1.8-1.7-3
			C124.4,460.6,128.8,464.8,125.6,466.4z"/>
	</g>
	<g>
	</g>
</g>
<g id="XMLID_87_">
	<g>
		<path style="fill:#3F1900;" d="M63.8,456.4c0.3,0.8-0.1,1.7-0.6,2.3c-0.9,1.1-3.1,2.5-4.6,1.9C53.7,458.8,62.3,452.3,63.8,456.4z"
			/>
	</g>
	<g>
	</g>
</g>
<g id="XMLID_86_">
	<g>
		<path style="fill:#5B2D00;" d="M106.5,485c1.6,1.9-1.5,3.9-3.2,3C100,486.3,104.9,483.1,106.5,485z"/>
	</g>
	<g>
	</g>
</g>
<g id="XMLID_85_">
	<g>
		<path style="fill:#3F1900;" d="M68.5,452.6c1.9-0.3,4.5,1.1,3.5,3.3c-1,2-3.1,1.7-4.8,0.9C64.9,455.7,66.7,452.9,68.5,452.6z"/>
	</g>
	<g>
	</g>
</g>
<g id="XMLID_84_">
	<g>
		<path style="fill:#3F1900;" d="M85.5,437c2.6,0,1.9,2.9-0.3,2.9c-1.2,0-2.2-1.6-1.1-2.5C84.4,437.1,85,437,85.5,437z"/>
	</g>
	<g>
	</g>
</g>
<g id="XMLID_83_">
	<g>
		<path style="fill:#3F1900;" d="M81.4,442c0.8-0.4,2.1,0.4,2.1,1.3c0,0.5-0.3,1-0.8,1.3c-1.1,0.8-2.3,0.2-2.2-1.2
			C80.5,442.8,80.8,442.2,81.4,442z"/>
	</g>
	<g>
	</g>
</g>
<g id="XMLID_82_">
	<g>
		<path style="fill:#5B2D00;" d="M134.9,491.6c0.8,3.7-2,6.7-5.5,7.7c-1.9,0.5-3.9,0.5-5.9,0.4c-1.7-0.1-3.5-0.4-4.7-1.6
			c-0.2-0.2-0.5-0.5-0.5-0.8c-0.1-0.3,0-0.6,0.1-0.9c1.5-4.9,6.7-8.2,11.7-8.1c1.3,0,2.8,0.3,3.7,1.3
			C134.5,490,134.8,490.8,134.9,491.6z"/>
	</g>
	<g>
	</g>
</g>
<g id="XMLID_81_">
	<g>
		<path style="fill:#3F1900;" d="M132.9,491c-1.4,1.9-3.2,2.8-5.2,3.9c-0.6,0.3-1.3,0.9-2,1.1c-0.3,0.1-3.1,0-2.9-0.3
			c0.8-1.6,2.1-2.4,3.8-3.1C127.6,492.1,132.5,491.6,132.9,491z"/>
	</g>
	<g>
	</g>
</g>
<g id="XMLID_78_">
	<g>
		<path style="fill:#5B2D00;" d="M269.9,438.9c0.5,0.9,0.8,1.9,0.6,2.8c-0.4,1.9-2.7,2.7-4.7,3c-4,0.4-9.4-0.7-11.4-4.8
			c-2.9-6,3.3-7.3,7.9-6.4C265.5,434.1,268.4,436,269.9,438.9z"/>
	</g>
	<g>
	</g>
</g>
<g id="XMLID_77_">
	<g>
		<path style="fill:#3F1900;" d="M267.6,440c-3.4,1-8.6,0.3-10.7-2.8C261,437.1,264.6,436.3,267.6,440z"/>
	</g>
	<g>
	</g>
</g>
<g id="XMLID_73_">
	<g>
		<path style="fill:#5B2D00;" d="M297.3,466.4c0.3,8.2-12.4,5.3-17.6,4.2c-0.7-0.2-1.6-0.4-1.9-1.1c-0.3-0.5-0.3-1.1-0.2-1.7
			c0.1-1.1,0.1-2.2,0.6-3.3c0.8-1.8,2.6-2.2,4.3-2.9c3-1.2,6.3-1.5,9.4-1c2,0.3,4.1,1.2,5,3C297.2,464.5,297.3,465.5,297.3,466.4z"
			/>
	</g>
	<g>
	</g>
</g>
<g id="XMLID_72_">
	<g>
		<path style="fill:#3F1900;" d="M294.9,462.6c-4,2.5-8.7,4-13.4,4.1c-0.3,0-0.7-0.3-0.5-0.5l0.1-0.1c0.9-1.2,2.3-1.8,3.7-2.3
			C288.1,462.8,291.5,462.4,294.9,462.6z"/>
	</g>
	<g>
	</g>
</g>
<g id="XMLID_71_">
	<g>
		<path style="fill:#3F1900;" d="M276.9,448c0.9,5.2-7.2,6.1-7.9,1.1C268.2,444.1,276,442.9,276.9,448z"/>
	</g>
	<g>
	</g>
</g>
<g id="XMLID_70_">
	<g>
		<path style="fill:#5B2D00;" d="M281.4,438.3c0.5,0.7,0.5,1.7,0.2,2.5c-0.7,2.2-3.2,4.4-5.6,3.7c-1.5-0.5-2.6-1.9-2.8-3.5
			c-0.6-4.1,3.8-5.3,6.9-3.8C280.6,437.5,281.1,437.8,281.4,438.3z"/>
	</g>
	<g>
	</g>
</g>
<g id="XMLID_69_">
	<g>
		<path style="fill:#713C00;" d="M279.4,450.4c2.5-3.1,7.1,0.1,3.9,3.3C280.9,456,277.3,453,279.4,450.4z"/>
	</g>
	<g>
	</g>
</g>
<g id="XMLID_68_">
	<g>
		<path style="fill:#632A00;" d="M288.8,486.7c2.2-1.1,5.5,0.1,3.1,2.6C289.1,492.2,285.8,488.2,288.8,486.7z"/>
	</g>
	<g>
	</g>
</g>
<g id="XMLID_67_">
	<g>
		<path style="fill:#5B2D00;" d="M259,422.8c1.2,2.3,0.6,5.2-1,7.2c-1.6,2-4.2,3.1-6.7,3.4c-2.1,0.3-4.4,0-6.1-1.2s-4.1-3.4-3.2-5.4
			c1.3-3,3.8-6,7.1-6.9c1.8-0.5,3.7-0.7,5.5-0.3S258.1,421.1,259,422.8z"/>
	</g>
	<g>
	</g>
</g>
<g id="XMLID_66_">
	<g>
		<path style="fill:#3F1900;" d="M243,426.6c4.4-3.6,13.7-3.6,13.7-3.6S246.8,427.9,243,426.6z"/>
	</g>
	<g>
	</g>
</g>
<g id="XMLID_7_">
	<g>
		<path style="fill:#3F1900;" d="M107.8,481.2c1,2.3-4.3,3-5.3,1.2C100.5,479.3,106.5,478.3,107.8,481.2z"/>
	</g>
	<g>
	</g>
</g>
<g>
	<path style="fill:#632A00;" d="M116.1,490.9c4.1,0.2,0-6.6-1.9-2.4c-0.2,0.5-0.2,1,0.1,1.4C114.7,490.4,115.4,490.9,116.1,490.9z"
		/>
</g>
<g id="XMLID_62_">
	<g>
		<path style="fill:#3F1900;" d="M153.7,424.1c0.7,3.1-1.6,7.8-5,9.2c-3.6,1.4-9.4-0.1-12.4-1.8c-0.7-0.4-1.5-0.9-1.8-1.6
			c-0.4-0.8-0.4-1.8-0.3-2.7c0.1-0.8,0.1-1.6,0.2-2.4c0.3-3.5,8.9-4.9,12-5c1.7-0.1,3.5,0,5,0.8
			C152.6,421.4,153.4,422.8,153.7,424.1z"/>
	</g>
	<g>
	</g>
</g>
<g id="XMLID_60_">
	<g>
		<path style="fill:#5B2D00;" d="M138.9,423.8c6.6,2,9.4,8.8,5.9,14.7c-3.4,5.5-10.4,9.4-16.9,8.7c-3.8-0.4-7.3-2.2-9.5-5.3
			c-2-2.9-3.6-7.8-1.8-11c1.3-2.4,3.6-4.2,6.2-5.4c1.7-0.7,3.4-1.2,5.2-1.6c0.9-0.2,1.9-0.3,2.9-0.4
			C133.5,423.2,136.3,423,138.9,423.8z"/>
	</g>
	<g>
	</g>
</g>
<g id="XMLID_59_">
	<g>
		<path style="fill:#3F1900;" d="M124.7,434.1c-1.2,0.1-2.3,0.2-3.5,0.2c-0.4,0-2.7-0.2-2.9,0c2-1.4,4.1-3,6.7-3.9
			c5-1.6,10.8-2.1,16.3-1.4c-3.3,1.7-7.1,3-11.1,3.9C128.4,433.3,126.6,433.8,124.7,434.1z"/>
	</g>
	<g>
	</g>
</g>
<g id="XMLID_61_">
	<g>
		<path style="fill:#3F1900;" d="M259.6,434.6c0.7,3.1-1.6,7.8-5,9.2c-3.6,1.4-9.4-0.1-12.4-1.8c-0.7-0.4-1.5-0.9-1.8-1.6
			c-0.4-0.8-0.4-1.8-0.3-2.7c0.1-0.8,0.1-1.6,0.2-2.4c0.3-3.5,8.9-4.9,12-5c1.7-0.1,3.5,0,5,0.8C258.5,432,259.3,433.3,259.6,434.6z
			"/>
	</g>
	<g>
	</g>
</g>
<g id="XMLID_9_">
	<g>
		<path style="fill:#4F290D;" d="M247,471.2c1,2.2,0.4,4.9,1.1,7.3c-1.6,0.6-3.4,0.8-5.1,0.6l-0.9,0.1c-0.1-0.9-0.2-1.8-0.4-2.8
			h-0.1c0-0.3,0.1-1.1,0.2-2.2l0.6,0.1c1.4-0.3,2.8-0.7,4.2-1.2c0.1,0,0.2-0.1,0.3-0.2c0-0.1,0-0.2,0-0.2c0-0.5,0-0.9,0-1.4H247z"/>
		<path style="fill:#CC6F28;" d="M229.2,390.4c-0.1-0.1-0.1-0.2-0.2-0.4c-0.8-1.8-1.5-3.9-1.6-5.9c-0.1-1.3,7.3,2.7,7.7,2.8
			c3.3,1.3,7.3,1.8,10.8,2.7c0.3,0.1,0.5,0.1,0.7,0.4c0.1,0.2,0.1,0.5,0.1,0.7c0,3.6-0.1,7.2-0.1,10.8c0,0.3,0,0.6-0.1,0.8
			c-0.1,0.2-0.3,0.4-0.6,0.5c-1,0.7-2.1,1.4-3.1,2c-0.1,0.1-0.3,0.2-0.4,0.2c-0.3,0.2-0.7,0.4-1.1,0.3c-0.3-0.1-0.4-0.3-0.6-0.5
			c-1-1.4-1.4-3.1-1.3-4.8c0.1-1.1,0.5-2.4-0.1-3.3c-0.3-0.6-0.9-0.9-1.4-1.2c-1.9-1.2-3.9-2.8-6.1-3.3c-0.6-0.1-1.2-0.2-1.7-0.5
			C229.7,391.4,229.4,390.9,229.2,390.4z"/>
		<path style="fill:#123177;" d="M233.5,448.3c-0.6,0.1-1.1,0.2-1.7,0.4c-1.9-3.8-0.9-7.6-1.3-11.1l-0.1-0.6
			c0.6-0.1,1.2-0.2,1.8-0.5c0,0.1,0,0.2,0,0.2c0-0.1,0.9-0.5,2-1.1c0.8-0.4,1.7-0.9,2.5-1.3c1.4-0.7,2.6-1.4,2.9-1.6
			c2.2-1.7,4.3-3.4,5.7-5.8c0.1-0.2,0.2-0.4,0.4-0.6l0.4,0.2c-0.1,6.1,0.9,11.8-0.1,17.5c-0.3,1.1-0.7,1.8-1.3,2.4
			c-0.6,0.6-1.3,1-2.1,1.3C240,448.6,236.4,447.8,233.5,448.3z"/>
		<path style="fill:#303030;" d="M244.8,446.5c1,8.2,1.8,16.4,2.1,24.7c0,0.5,0,0.9,0,1.4c0,0.1,0,0.2,0,0.2
			c-0.1,0.1-0.2,0.2-0.3,0.2c-1.4,0.5-2.8,0.9-4.2,1.2l-0.6-0.1c0.3-3.7,1-10.8,1-11.6c0.1-5-0.3-10-0.1-14.9
			C243.5,447.5,244.2,447,244.8,446.5L244.8,446.5z"/>
		<path style="fill:#262626;" d="M234.2,476.7c1.5-6.3,0.3-12.8-0.4-19.4c-0.3-3-0.5-6.1-0.3-9c3-0.5,6.6,0.3,9.2-0.6
			c-0.2,5,0.2,10,0.1,14.9c0,0.8-0.7,7.8-1,11.6c-0.1,1.1-0.2,1.9-0.2,2.2c0,0.1,0,0.1,0,0.1C239.1,476.6,236.6,476.7,234.2,476.7
			C234.1,476.7,234.1,476.7,234.2,476.7z"/>
		<path style="fill:#4F290D;" d="M241.7,476.4c0.1,0.9,0.2,1.8,0.4,2.8c0.2,1.7,0.4,3.4,0.4,5.2c0,0,0,0.1,0,0.1c0,0-0.1,0-0.1,0
			c-1,0.1-2.1,0.3-3.1,0.4c-0.1-0.6-0.1-1.2-0.2-1.7c-0.4,0.2-0.5,0.7-0.7,1.1c-0.7,1.4-3.7,0.8-5,0.7c-0.5,0-6-0.6-6-0.6
			c0.5-1.6,1.2-3.4,2.6-4.2c1.3-0.7,3.2-0.8,3.8-2.2c0.2-0.4,0.2-0.8,0.3-1.1c0-0.1,0-0.1,0.1-0.2c0,0,0,0,0,0
			c2.5-0.1,5-0.1,7.5-0.2c0,0,0,0,0-0.1H241.7z"/>
		<path style="fill:#C19874;" d="M241.2,410.2c-1.3,0.4-2.8,0.4-3.9,1c-0.4,0.2-0.8,0.4-1.2,0.5l-0.3-3.8c2.1,0.3,4.7,0.4,6.2-0.6
			l0.2,0.3c0.1,0.7,0.1,1.4,0.1,2.1l0,0.1C241.9,410,241.5,410.1,241.2,410.2z"/>
		<path style="fill:#244F9B;" d="M236.8,434.4c-0.8,0.4-1.7,0.9-2.5,1.3l-0.1-0.1c0,0,0,0,0,0c-0.5-1.6-0.9-3.2-1.4-4.8l-0.1-0.1
			c1.3-1.1,2.4-2.2,3.3-3.5c0.4-0.6,0.7-1.2,1.1-1.9c1-2,1.6-5.2,3.3-6.8c0.7-0.7,1.8-0.9,2.8-0.6c1,0.3,1.7,1.1,2.3,2.1
			c0.2,0.4,0.4,0.8,0.6,1.2c0.3,0.7,0.6,1.3,0.7,2c0.1,1.1-0.3,2.2-0.9,3.2c-0.1,0.2-0.2,0.4-0.4,0.6c-1.5,2.5-3.5,4.1-5.7,5.8
			C239.4,433,238.1,433.7,236.8,434.4z"/>
		<path style="fill:#FFFFFF;" d="M236,411.8c0.4-0.2,0.8-0.3,1.2-0.5c1.2-0.6,2.7-0.6,3.9-1c0.4-0.1,0.7-0.2,1-0.3
			c2-0.4,2.1,0.4,2.2,2.9c-1.3-1-6.4,0.2-7.8,0.6c-1.4,0.3-2.6,0.5-3.3,1.2l-0.1-0.1c0-0.5,0-1,0-1.5c0-0.1,0-0.2,0-0.3
			C234.2,412.4,235.1,412.2,236,411.8z"/>
		<path style="fill:#244F9B;" d="M225.8,422.9c-3.8,1.3-7.7,2.4-11.7,3.1c-0.5-1.5-1.2-3.9-1.7-5.2l-0.1-0.2c3.6-2.1,7.9-4,11.7-5.3
			c1.5-0.5,3.1-1,4.7-1.4c1.5-0.4,3-0.6,4.6-0.9c0,0.5,0,1,0,1.5l0.1,0.1c-0.5,0.4-0.8,1.1-0.8,2.2l0.2,0.3c-1,0.6-2,1.3-3,2.1
			c-0.9,0.7-1.8,1.3-2.9,1.7c-0.3,0.2-0.7,0.3-0.8,0.6c-0.2,0.3,0.1,0.8,0.3,1.2L225.8,422.9z"/>
		<path style="fill:#123177;" d="M232.5,416.8c0-1.1,0.3-1.8,0.8-2.2c0.7-0.7,1.9-0.9,3.3-1.2c1.4-0.3,6.5-1.5,7.8-0.6
			c0,0,0,0,0.1,0c0.9,0.8,1,5.6,1.2,6.9l-0.2,0.1c-0.6-0.9-1.3-1.8-2.3-2.1c-0.9-0.3-2,0-2.8,0.6c-1.7,1.6-2.3,4.7-3.3,6.8
			c-0.3,0.7-0.7,1.3-1.1,1.9h0c-0.2-3.7-0.7-7.5-1.6-11.1c-0.6,0.4-1.1,0.7-1.7,1.1L232.5,416.8z"/>
		<path style="fill:#FFFFFF;" d="M231.1,432.1c0-0.2,0.2-0.4,0.4-0.5c0.4-0.3,0.8-0.7,1.2-1l0.1,0.1c0.5,1.6,0.9,3.2,1.4,4.8
			c0,0,0,0,0,0l0.1,0.1c-1.1,0.6-2,1-2,1.1c0-0.1,0-0.2,0-0.2c0.1-1.4-0.6-2.8-1.1-4.1c0-0.1-0.1-0.2-0.1-0.3
			C231.1,432.2,231.1,432.1,231.1,432.1z"/>
		<path style="fill:#E5B789;" d="M231.8,392.1c2.2,0.4,4.2,2.1,6.1,3.3c0.5,0.3,1.1,0.7,1.4,1.2c0.6,1,0.2,2.2,0.1,3.3
			c-0.2,1.7,0.3,3.4,1.3,4.8c0.2,0.2,0.4,0.4,0.6,0.5c0.4,0.1,0.8-0.1,1.1-0.3c0.1-0.1,0.3-0.2,0.4-0.2l0.3,0.5
			c-0.1,1-0.5,1.7-1.2,2.1c-1.5,1-4,0.9-6.2,0.6c-1.1-0.2-2.1-0.4-2.7-0.6c-6.6-2.1-3.9-11.8-3.8-17c0.2,0.5,0.5,0.9,0.9,1.2
			C230.6,392,231.2,392,231.8,392.1z"/>
		<path style="fill:#152B51;" d="M207.3,490.6c-0.8-9.9-2.5-19.8-3-29.8l-0.3-0.7l0.8-0.1c8.1-10.3,13.8-20.8,22.5-31.3l0.2,0
			c0.1,0.8,0.3,1.7,0.4,2.5l0,0.4c-0.2,0-0.3,0.1-0.4,0.2c-0.1,0.2-0.2,0.5-0.2,0.7c-0.1,1.9-0.1,4.3,2.4,4.6c0.3,0,0.5,0,0.8,0
			l0.1,0.6c0.3,3.5-0.6,7.3,1.3,11.1c0.5-0.2,1.1-0.4,1.7-0.4c-0.2,3,0,6,0.3,9l-0.8,0.1c-1.1,2.7-0.2,6.5-4.9,5.5
			c-0.9,2.8-0.9,8.5-5.6,7.5c0,0.1,0,0.2,0,0.2c0,2,0.8,4.7-1.1,6.5c-1.1,1.1-3.2,0.9-4.7,1c-0.1,1.8-0.8,3.9-1.5,5.6
			c-0.1,0.2-0.2,0.4-0.3,0.6c-0.5,0.4-1.3-0.1-1.9-0.1c-0.6-0.1-1.3,0.3-1.6,0.9c-0.4,0.5-0.6,1.1-0.9,1.7c-0.6,1.3-1.3,2.6-2.2,3.7
			c-0.1,0.1-0.2,0.2-0.3,0.4L207.3,490.6z"/>
		<path style="fill:#CECECE;" d="M231.1,432.1c0,0.1,0,0.1,0,0.2c-0.4,0-0.8,0.2-1.2,0.3c-0.5,0.2-1.3,0.1-1.5-0.4
			c-0.1-0.2-0.1-0.5-0.3-0.6c-0.1,0-0.1-0.1-0.2-0.1l0-0.4c-0.1-0.8-0.3-1.7-0.4-2.5c-0.1-0.4-0.1-0.9-0.2-1.3
			c-0.1-0.6-0.2-1.1-0.3-1.7c-0.1-0.8-0.2-1.6-0.5-2.4c0-0.1-0.1-0.3-0.2-0.5c-0.2-0.4-0.5-0.9-0.3-1.2c0.2-0.3,0.5-0.4,0.8-0.6
			c1-0.5,2-1.1,2.9-1.7c1-0.8,2-1.4,3-2.1c0.6-0.4,1.1-0.7,1.7-1.1c0.9,3.6,1.4,7.4,1.6,11.1h0c-0.9,1.3-2,2.4-3.3,3.5
			c-0.4,0.3-0.8,0.6-1.2,1C231.3,431.7,231.1,431.9,231.1,432.1z"/>
		<path style="fill:#E5B789;" d="M231.2,432.5c0.5,1.3,1.2,2.6,1.1,4.1c-0.6,0.2-1.2,0.4-1.8,0.5c-0.2,0-0.5,0-0.8,0
			c-2.5-0.2-2.5-2.6-2.4-4.6c0-0.2,0-0.5,0.2-0.7c0.1-0.1,0.3-0.2,0.4-0.2c0.1,0,0.1,0,0.2,0.1c0.2,0.1,0.2,0.4,0.3,0.6
			c0.3,0.5,1,0.5,1.5,0.4c0.4-0.1,0.8-0.3,1.2-0.3C231.1,432.3,231.2,432.4,231.2,432.5z"/>
		<path style="fill:#66CCCC;" d="M216.2,431.2l-2.8,4.7h-9.5l3.6-5C210.1,430.9,213.5,431.2,216.2,431.2z"/>
		<path style="fill:#FFFFFF;" d="M212.4,420.8c0.6,1.3,1.2,3.7,1.7,5.2c-0.7,0.1-1.4,0.2-2.1,0.4l0,0c0,0-0.1,0-0.1,0.1l0,0
			c-0.4-1.4-1.2-3.2-1.4-4.6h0c0.6-0.4,1.2-0.8,1.8-1.1L212.4,420.8z"/>
		<path style="fill:#E5B789;" d="M210.8,427.1c-1.2,0.6-2.5,0.8-3.8,0.7l0,0c0.8-0.4,1.3-1,1.1-2.1c-0.1-0.7-0.4-1.5-1-2.1
			c-0.4-0.4-0.9-0.6-1.5-0.7c1-1.1,3.5-1.1,4.9-1.1c0.2,1.5,1,3.2,1.4,4.6l0,0C211.5,426.6,211.2,426.9,210.8,427.1z"/>
		<path style="fill:#183054;" d="M173.4,489.7c-0.3-1.5-0.4-3.1-0.5-4.6c-0.4-8,1.4-16.1-0.9-24.4l0.2-0.5c0.1,0,0.2,0,0.2,0
			c10.5,0,21.1,0,31.6,0l0.3,0.7c0.6,10,2.2,19.8,3,29.8l0.6,0.2c-0.3,0.3-0.7,0.6-1.1,0.7c-0.8,0.1-1.6-0.6-2.4-0.8
			c-2.3-0.5-3.6,2.4-6.1,1.4c-1.7-0.6-2.2-2.5-4.3-1.8c-1.2,0.4-1.9,1.6-3.3,1.6c-1.2,0-1.9-1.3-3-1.4c-1.6-0.3-2.8,2-4.4,1.8
			c-0.7-0.1-1.3-0.6-1.9-1c-2.5-1.7-5.2-0.3-7.4,1.2C173.7,491.5,173.5,490.6,173.4,489.7z"/>
		<path style="fill:#A87343;" d="M205.6,422.8c0.5,0.1,1,0.3,1.5,0.7c0.5,0.6,0.8,1.3,1,2.1c0.2,1.1-0.4,1.7-1.1,2.1
			c-0.4,0.2-0.8,0.4-1.3,0.5c-1.6,0.6-4.2,0.2-5.6-0.8l-0.4,0c-0.1-0.8-0.1-1.8-0.1-2c0-0.3,0-0.6,0.1-0.8l0.3,0
			c0.6-0.4,1.3-0.8,1.9-1.2c0.3-0.2,0.6-0.3,0.9-0.4c0.3-0.1,0.6-0.1,0.9-0.2C204.3,422.8,205,422.7,205.6,422.8z"/>
		<path style="fill:#1FA046;" d="M201.3,438.6c2.2,0.2,4.4,0.4,6.7,0.6c1.2,0.1,2.5,0.3,3.3,1.3c0.1,0.2-0.9,0.4-1.5,0.4
			c-0.2,0-0.4,0-0.4,0c-1,0-2,0-2.9-0.1c-1.3-0.1-2.5-0.2-3.8-0.4c-1-0.1-2.1-0.2-3.1-0.5c0.1-0.6,0.4-1.2,1.1-1.4
			C200.8,438.6,201,438.6,201.3,438.6z"/>
		<path style="fill:#FFFFFF;" d="M200.7,447.8c0,0,0.1,0.1,0.1,0.2c0,0.1,0,0.2-0.1,0.2c-0.6,1-1.4,2-1.9,3
			c-0.1,0.3-1.5,2.3-1.6,2.1c-0.7-0.9-1.4-1.6-2.1-2.4c-0.4-0.4-0.7-0.9-1.1-1.4c-0.2-0.3-0.5-0.7-0.7-1c-0.1-0.2-0.2-0.3-0.2-0.4
			c-0.1-0.3,0.1-0.5,0.5-0.9c1.3-1.5,2.6-3,3.9-4.6C198.6,444.2,199.5,446,200.7,447.8z"/>
		<path style="fill:#A08D80;" d="M194.5,429.3l0.1,0.5c-0.6,0.8-2.9,3.8-5.7,7.7l0,0c-0.2-2.2-0.5-4.4-1.1-6.6l0-0.9
			C190,429.9,192.2,429.6,194.5,429.3z"/>
		<path style="fill:#C4C5C6;" d="M193.9,449.5c0.3,0.5,0.7,0.9,1.1,1.4l-0.1,0.1c-0.7,0.9-1.4,1.7-2.2,2.5c0.2-1.8,0.3-3.6,0.2-5.5
			l0.1,0c0,0.1,0.1,0.3,0.2,0.4C193.4,448.8,193.7,449.2,193.9,449.5z"/>
		<path style="fill:#20396E;" d="M193.5,447.1c-0.4,0.4-0.5,0.6-0.5,0.9l-0.1,0c0.1,1.8,0,3.7-0.2,5.5c0.7-0.8,1.5-1.7,2.2-2.5
			l0.1-0.1c0.7,0.8,1.4,1.6,2.1,2.4c0.2,0.2,1.5-1.9,1.6-2.1c0.5-1.1,1.3-2,1.9-3c0-0.1,0.1-0.1,0.1-0.2c0-0.1,0-0.1-0.1-0.2
			c-1.2-1.7-2.2-3.5-3.4-5.2C196.1,444.1,194.8,445.6,193.5,447.1z M200,428.4c-0.2,0-0.3-0.4-0.4-1l0.4,0c1.4,1,4,1.4,5.6,0.8
			c0.4-0.2,0.9-0.3,1.3-0.5l0,0c1.3,0.2,2.7-0.1,3.8-0.7l0.2,0.3c5.3,0,10.6,0,15.9,0l0.4-0.1c0.1,0.4,0.1,0.9,0.2,1.3l-0.2,0
			c-8.8,10.6-14.4,21-22.5,31.3l-0.8,0.1c-10.5,0-21.1,0-31.6,0v-0.2c0.4-0.6,2.4-3.4,5.1-7.1c3.4-4.6,7.8-10.6,11.3-15.4
			c2.9-3.9,5.1-6.9,5.7-7.7l-0.1-0.5C196.3,429.1,198.1,428.7,200,428.4z M213.3,435.9l2.8-4.7c-2.7,0-6-0.3-8.7-0.3l-3.6,5H213.3z
			 M209.7,440.9c0.6-0.1,1.7-0.3,1.5-0.4c-0.7-1-2.1-1.2-3.3-1.3c-2.2-0.2-4.4-0.4-6.7-0.6c-0.3,0-0.6-0.1-0.8,0
			c-0.7,0.2-0.9,0.8-1.1,1.4c1,0.3,2.1,0.4,3.1,0.5c1.3,0.1,2.5,0.2,3.8,0.4c1,0.1,1.9,0.1,2.9,0.1
			C209.3,440.9,209.5,440.9,209.7,440.9z"/>
		<path style="fill:#E2D6CF;" d="M168.8,455.8c-0.6,0-1.1-0.2-1.4-0.7c-0.2-0.3-0.2-0.7-0.2-1.1c0-2.4,0.2-4.6,0.6-6.9
			c1.2-8.4-1.7-16.1-2.3-24.4l0.2,0c0.1,0.8,0.3,1.6,0.6,2.2c0.8,1.4,2.3,2.2,3.8,2.7c2.8,0.9,5.8,1.3,8.7,1.7
			c2.2,0.3,4.4,0.5,6.6,0.6c0.7,0,1.5,0,2.2,0l0,0.9c0.6,2.2,0.9,4.4,1.1,6.6l0,0c-3.5,4.8-7.9,10.8-11.3,15.4l-0.1-0.1
			c-1.8,0.4-3.1,2-4.8,2.6c-0.9,0.4-2,0.4-3,0.4C169.3,455.8,169.1,455.8,168.8,455.8z"/>
		<path style="fill:#E2D6CF;" d="M177.3,411.5c2.3-1,4.7-1.4,6.5-0.5c3.3,1.7,1.9,7.6,3,10.5l0,0.1c-0.5-0.2-0.9-0.4-1.3-0.7
			c-1.8-1.1-3.3-2.7-5.2-3.7c-1.8-1-3.8-1.4-5.8-1.7c-1.1-0.2-2.3-0.4-3.5-0.4C172.6,414.1,174.9,412.5,177.3,411.5z"/>
		<path style="fill:#A87343;" d="M177.3,408.6c-2.4,0.3-5.2-0.4-7.3-1.3c-0.7-0.3-1.3-0.7-1.9-1l-0.1-0.2c0.2-0.1,0.4-0.2,0.6-0.3
			c1.8-1.2,0.9-4.2,2.2-6c0.5-0.7,1.3-1.2,2.1-1.7c2.7-1.4,5.4-2.4,7.5-4.8c0.1-0.1,0.2-0.3,0.3-0.4l0.7,0.2
			c1.1,3.2,1.8,11.6-1,14.1C179.4,408.1,178.4,408.4,177.3,408.6z"/>
		<path style="fill:#33160B;" d="M178.1,387.3c3.6,0.7,4.4,3.1,2.5,5.7c-0.1,0.1-0.2,0.3-0.3,0.4c-2,2.3-4.8,3.4-7.5,4.8
			c-0.8,0.4-1.6,0.9-2.1,1.7c-1.2,1.8-0.4,4.8-2.2,6c-0.2,0.1-0.4,0.2-0.6,0.3c-1,0.4-2.2,0.2-3.3,0.5c-2.9,0.8-3.6,4.6-3.3,7.7
			c0.3,3,0.8,6.5-1.3,8.7c-1,1-2.3,1.5-3.7,2c-2.3,0.8-5.5,1.2-6.6-1c-1.2-2.4,1.6-4.8,1.7-7.5c0.1-2.3-1.9-4.3-2.3-6.6
			c-0.5-3.1,2-5.9,4.7-7.5c1.5-0.9,7.6-2.7,8.2-4.3c0.8-2.2-2.5-2.1-3.5-3.4c-5.1-6.9,7.9-14.3,10.5-7.6c0.1,0.4,0.2,0.8,0.5,1.1
			c1.2,1.5,2.8-0.5,3.9-0.9c1.2-0.4,3.2-0.3,4.4-0.1C177.9,387.3,178,387.3,178.1,387.3z"/>
		<path style="fill:#A08D80;" d="M186.8,421.5c-1-3,0.4-8.8-3-10.5c-1.9-1-4.2-0.5-6.5,0.5c0-0.1,0-0.3,0-0.4h0.3
			c1.2-0.8,3.2-1.1,4.6-1.2c6.1-0.7,7,8.9,8.6,12.9l0,0.2C189.4,422.6,188,422.2,186.8,421.5L186.8,421.5z"/>
		<path style="fill:#915E39;" d="M177.3,408.6c0,0.6,0,1.7,0,2.5c0,0.2,0,0.3,0,0.4c-2.4,1-4.7,2.6-6.3,3.6c-0.2,0-0.3,0-0.5,0
			c0-2.6,0.1-5-0.7-7.6l0.1-0.3C172.1,408.2,174.9,408.9,177.3,408.6z"/>
		<path style="fill:#663333;" d="M173.4,489.7c-1.1,0-2.2-0.1-3.2-0.5c-0.2,0-0.3-0.1-0.4-0.2c-0.2-0.2-0.2-0.4-0.2-0.7
			c0-1.1,0-2.2,0.1-3.3c1,0,2,0,3,0l0.3,0C172.9,486.6,173.1,488.1,173.4,489.7z"/>
		<path style="fill:#B7A497;" d="M171,415.1c1.1-0.1,2.3,0.2,3.5,0.4c2,0.4,4,0.8,5.8,1.7c1.9,1,3.4,2.6,5.2,3.7
			c0.4,0.3,0.9,0.5,1.3,0.7c1.3,0.6,2.6,1,4,1.2c2.5,0.4,5.1,0.4,7.6,0.6c1.2,0.1,1.3,0.6,1.2,1.3c0,0.2,0,0.5-0.1,0.8
			c0,0.2,0,1.2,0.1,2c0.1,0.5,0.2,1,0.4,1c-1.9,0.3-3.7,0.7-5.5,0.9c-2.3,0.3-4.5,0.6-6.8,0.6c-0.7,0-1.5,0-2.2,0
			c-2.2-0.1-4.4-0.4-6.6-0.6c-3-0.4-5.9-0.7-8.7-1.7c-1.5-0.5-3-1.3-3.8-2.7c-0.4-0.6-0.6-1.4-0.6-2.2c-0.2-2.8,1-6.2,3.3-7.2
			c0.5-0.2,1-0.3,1.5-0.4C170.7,415.1,170.8,415.1,171,415.1z"/>
		<path style="fill:#1D264F;" d="M169.6,485c-0.1,0-0.2,0-0.3,0c-0.1,0-0.3,0-0.4-0.1c-0.2-0.1-0.2-0.3-0.2-0.5
			c0.4-9.5,0.7-19.1,0-28.6c0.3,0,0.5,0,0.8,0c1,0,2-0.1,3-0.4c1.7-0.6,3-2.2,4.8-2.6l0.1,0.1c-2.7,3.6-4.7,6.4-5.1,7.1v0.2
			c-0.1,0-0.2,0-0.2,0l-0.2,0.5c2.2,8.4,0.5,16.4,0.9,24.4l-0.3,0C171.6,485.1,170.6,485,169.6,485z"/>
	</g>
	<g>
	</g>
</g>
<g>
	<g id="XMLID_6_">
		<g>
			<path style="fill:#333399;" d="M291.6,202.8c0.4-0.1,0.9-0.1,1.3-0.5c0.4-0.3,0.4-0.8,0.5-1.3c0.3-1.6,0.4-3.2,0.5-4.6
				c0.1-0.8,0.2-1.6,0.2-2.3c0-0.1,0-0.3,0-0.4c0-0.4,0-0.9,0.2-1.1c0.3-0.3,0.7-0.4,1.3-0.4c1.6,0.1,3.7,1.8,4.3,2.6
				c0.4,0.6,0.8,1.3,1.2,2.3c0,0.3,0.1,0.5,0.1,0.8c0.1,0.6,0.2,1.3,0.3,1.9c0.2,2.2-0.2,4.7-1.1,7.1c-0.4,1-0.9,1.9-1.5,2.6
				c-0.8,0.9-1.9,1.6-3.2,2.2c-1.2,0.6-2.2,1-2.6,2.5c-0.3,1.4-0.4,3-0.5,4.5c0,0.5-0.1,0.9-0.1,1.3c-0.4,4-0.7,7.8-0.9,11.6
				c0,0.6-0.1,1.2-0.2,1.8c-0.1,0.8-0.2,1.5-0.2,2.4c0,0.9,0,1.6-0.8,2c-0.4,0.3-1.1,0.3-1.7,0.3l-0.4,0c-1.6,0-3.1,0-4.4-1.1
				c-0.8-0.7-0.6-2.1-0.5-3.2c0-0.3,0.1-0.5,0.1-0.7c0.1-2.4,0.2-4.2,0.4-5.9c0.2-2.8,0.6-5.6,0.9-8c0.1-0.7,0.2-1.4,0.2-2.1
				c0.1-0.7,0.2-1.4,0.2-2.1c0-0.1,0-0.3,0.1-0.4c0.1-0.9,0.3-2.1-0.4-2.8c-0.2-0.2-0.5-0.4-0.8-0.6c-0.1-0.1-0.2-0.1-0.3-0.2
				c-2.9-1.7-4.6-3.9-5.2-6.6c-0.6-2.7-0.4-5.6,0.6-7.9c0.8-1.9,2.6-3.8,4.9-4.5c0.7-0.2,1.3-0.3,2.1-0.3c0.4,0,0.7,0.1,0.8,0.3
				c0.2,0.2,0.2,0.6,0.2,1c-0.1,1.3-0.3,2.7-0.4,4c-0.2,1.1-0.3,2.3-0.4,3.5c0,0.1,0,0.2,0,0.2c0,0.2,0,0.3,0,0.5
				C287,203.2,290.4,202.9,291.6,202.8z M289.7,232.8c0-0.8-0.3-1.4-0.9-1.8c-0.7-0.4-1.7-0.4-2.5,0.1c-0.6,0.4-0.9,1.1-0.9,1.8
				c0.1,1.2,1.2,1.8,2.2,1.8c0.2,0,0.5,0,0.7-0.1c0.6-0.2,1.2-0.7,1.3-1.5C289.7,233.1,289.7,233,289.7,232.8z"/>
			<path style="fill:#2D4891;" d="M290.5,237.8c0.8-0.5,0.8-1.1,0.8-2c0-0.8,0.1-1.6,0.2-2.4c0.1-0.6,0.2-1.2,0.2-1.8
				c0.3-3.8,0.6-7.5,0.9-11.6c0-0.4,0.1-0.9,0.1-1.3c0.1-1.5,0.2-3,0.5-4.5c0.3-1.4,1.3-1.9,2.6-2.5c1.3-0.5,2.4-1.3,3.2-2.2
				c0.6-0.7,1.1-1.6,1.5-2.6c0.9-2.4,1.3-4.8,1.1-7.1c-0.1-0.7-0.2-1.3-0.3-1.9c0-0.3-0.1-0.6-0.1-0.8c-0.4-1-0.8-1.7-1.2-2.3
				c-0.6-0.8-2.7-2.5-4.3-2.6c-0.5,0-1,0.1-1.3,0.4c-0.2,0.2-0.2,0.7-0.2,1.1c0,0.2,0,0.3,0,0.4c0,0.7-0.1,1.5-0.2,2.3
				c-0.1,1.5-0.3,3-0.5,4.6c-0.1,0.4-0.1,0.9-0.5,1.3c-0.4,0.3-0.9,0.4-1.3,0.5c-1.2,0.1-4.6,0.4-5.2-1.7c-0.1-0.2,0-0.4,0-0.5
				c0-0.1,0-0.1,0-0.2c0.1-1.2,0.3-2.4,0.4-3.5c0.2-1.3,0.4-2.6,0.4-4c0-0.4,0-0.8-0.2-1c-0.2-0.2-0.5-0.3-0.8-0.3
				c-0.7,0-1.4,0.1-2.1,0.3c-2.3,0.7-4,2.6-4.9,4.5c-1,2.3-1.3,5.2-0.6,7.9c0.6,2.7,2.3,4.9,5.2,6.6c0.1,0.1,0.2,0.1,0.3,0.2
				c0.3,0.2,0.5,0.3,0.8,0.6c0.7,0.8,0.5,1.9,0.4,2.8c0,0.1,0,0.3-0.1,0.4c-0.1,0.7-0.1,1.4-0.2,2.1c-0.1,0.7-0.2,1.4-0.2,2.1
				c-0.3,2.4-0.7,5.2-0.9,8c-0.1,1.7-0.3,3.5-0.4,5.9c0,0.2,0,0.5-0.1,0.7c-0.1,1.1-0.3,2.5,0.5,3.2c1.2,1,2.8,1.1,4.4,1.1l0.4,0
				C289.4,238.1,290,238.1,290.5,237.8z M283.6,211.4c-3.1-1.8-4.9-4.1-5.5-7c-0.7-2.9-0.4-5.9,0.7-8.3c1.2-2.6,4-5.3,7.5-5.1
				c0.5,0,1,0.2,1.3,0.5c0.3,0.4,0.3,0.9,0.3,1.4c-0.1,1.4-0.3,2.7-0.5,4c-0.2,1.1-0.3,2.3-0.4,3.4c0,0.1,0,0.2,0,0.3
				c0,0.1,0,0.2,0,0.3c0.3,1.1,1.8,1.5,4.5,1.3c0.4-0.1,0.7-0.1,1-0.3c0.2-0.2,0.3-0.5,0.3-0.9c0.2-1.6,0.4-3.1,0.5-4.6
				c0.1-0.8,0.2-1.6,0.2-2.3c0-0.1,0-0.3,0-0.4c0-0.5,0-1.2,0.4-1.6c0.4-0.4,1-0.6,1.7-0.5c1.8,0.2,4,1.9,4.8,2.9
				c0.5,0.7,0.9,1.4,1.3,2.5l0,0l0,0c0,0.3,0.1,0.5,0.1,0.8c0.1,0.6,0.2,1.3,0.3,2l0,0c0.2,2.3-0.2,4.9-1.1,7.4
				c-0.4,1.1-1,2.1-1.6,2.8c-0.9,1-2,1.7-3.4,2.3c-1.2,0.6-2,0.9-2.3,2.1c-0.3,1.4-0.4,2.9-0.4,4.4c0,0.5,0,0.9-0.1,1.3
				c-0.4,4-0.7,7.8-0.9,11.6c0,0.6-0.1,1.2-0.2,1.8c-0.1,0.7-0.2,1.5-0.2,2.3c0,1-0.1,2-1.1,2.6c-0.2,0.1-0.4,0.2-0.6,0.3
				c-0.4,0.1-0.9,0.2-1.4,0.2l-0.4,0c-1.6,0-3.3,0-4.8-1.2c-1-0.9-0.8-2.5-0.7-3.8c0-0.2,0.1-0.5,0.1-0.7c0.1-2.4,0.2-4.2,0.4-5.9
				c0.2-2.8,0.6-5.6,0.9-8c0.1-0.7,0.2-1.4,0.2-2.1c0.1-0.7,0.2-1.4,0.2-2.1c0-0.1,0-0.3,0.1-0.4c0.1-0.8,0.2-1.8-0.2-2.3
				c-0.2-0.2-0.4-0.3-0.7-0.5C283.7,211.5,283.6,211.4,283.6,211.4z"/>
		</g>
		<g>
		</g>
	</g>
</g>
<g id="XMLID_12_">
	<g>
		<path style="fill:#5FFBFF;" d="M291.4,116.3l1.6,2.6c0,0,3.9,7,4.5,10.1c1.2,6.4-11.8,7.7-15.9,7.7c-3.5,0-7.1-0.5-10.4-1.8
			c-2.2-0.9-5.1-2.7-6-5.1c-1.1-2.9,2.3-7.5,3.6-9.8c0.4-0.7,1.3-2.1,2.2-3.7c0,0.1-0.1,0.2-0.1,0.3c0,1.7,4.6,3,10.2,3
			s10.2-1.3,10.2-3C291.4,116.6,291.4,116.5,291.4,116.3L291.4,116.3z"/>
		<path style="fill:#56E8E4;" d="M291.3,116.3c0.1,0.2,0.1,0.3,0.1,0.5c0,1.7-4.6,3-10.2,3s-10.2-1.3-10.2-3c0-0.1,0-0.2,0.1-0.3
			c0.1-0.1,0.1-0.2,0.2-0.4c1.1-1.3,5.1-2.3,9.9-2.3C286.3,113.8,290.5,114.9,291.3,116.3z"/>
		<path style="fill:#58BDF4;" d="M286.6,108.3l4.8,7.9l-0.1,0.1c-0.8-1.4-5-2.6-10.1-2.6c-4.8,0-8.9,1-9.9,2.3
			c1.8-3,3.9-6.6,3.9-7.1c0.1-2.2,0.1-4.4,0.1-6.6c0.1-3.3,0.6-6.3-2.4-8.6c-0.8-0.6-1.4-1.1-1.1-2.3c0.3-1.3,5.6-1.1,6.6-1.1
			c3.1-0.1,6.3,0,9.4,0.2c0.4,0,0.8,0,1.2,0.2c1,0.4,1.1,1.5,0.5,2.3c-0.3,0.4-0.7,0.7-1.1,1c-0.5,0.4-0.8,0.8-1.1,1.3
			c-0.9,1.5-0.9,3.3-0.9,5.1C286.4,103.4,286.6,105.3,286.6,108.3z"/>
		<path style="fill:#33D1A0;" d="M271.2,116.1c-0.1,0.1-0.1,0.2-0.2,0.4C271.1,116.3,271.2,116.2,271.2,116.1z"/>
	</g>
	<g>
	</g>
</g>
<circle style="opacity:0.5;fill:#FFFFFF;" cx="281.5" cy="104.8" r="1.7"/>
<circle style="opacity:0.5;fill:#FFFFFF;" cx="275.5" cy="82.3" r="1.7"/>
<circle style="opacity:0.5;fill:#FFFFFF;" cx="286.5" cy="75.3" r="2.7"/>
<circle style="opacity:0.5;fill:#FFFFFF;" cx="280.5" cy="96.6" r="1"/>
<circle style="opacity:0.5;fill:#FFFFFF;" cx="277.9" cy="127.7" r="1.7"/>
<circle style="opacity:0.5;fill:#FFFFFF;" cx="285.2" cy="133" r="1"/>
<g id="circle_2_">
	<g id="XMLID_5_">
		<g>
			<path style="fill:#602626;" d="M130.2,165.8c-1.1-1.9-2.7-2.1-4.9-2.4l-0.2,0l-0.2,0c-2.6-0.4-4-0.6-6.2,1.8
				c-0.2,0.2-0.4,0.4-0.6,0.7c-0.5,0.5-0.9,1.1-1.3,1.1c-0.2,0-0.9,0-2.7-1.5c-0.9-0.8-1.3-1.4-1.5-1.7c-0.2-0.3-0.2-0.5-0.2-0.7
				c0-0.3,0.3-0.7,0.8-1.3c0.2-0.2,0.3-0.3,0.4-0.5c1.4-1.7,1.8-3,0.5-6.7c-0.4-1.1-0.7-1.9-1.1-2.5c-1.1-1.9-2.4-2.4-4-2.5
				c-0.1,0-0.2,0-0.3,0c-0.9,0-1.5-0.2-1.8-0.7c-0.3-0.5-0.3-1.5-0.2-2.8c0.4-2.2,1-2.8,1.2-2.9c0.4-0.2,1.1-0.2,1.8,0.1l0.2,0
				c0.3,0.1,0.5,0.1,0.8,0.1c2.2,0.3,4-0.7,5.8-3.2c2.2-2.9,1.9-4.6,1.4-6.2c-0.1-0.1-0.1-0.2-0.1-0.3c-0.1-0.2-0.1-0.4-0.2-0.6
				c-0.3-0.7-0.5-1.3-0.3-1.8c0.2-0.5,1-1,2.1-1.4c3-1.1,3.4-0.4,3.7,0.2c0.2,0.3,0.3,0.6,0.5,0.9l0.1,0.3c0.1,0.4,0.4,0.8,0.6,1.2
				c1.1,2,2.6,2.5,5.1,2.9c3,0.5,5.3,0.9,7.1-2.1c0.2-0.3,0.5-0.6,0.7-0.9c0.2-0.3,0.5-0.4,0.7-0.5c0.2-0.1,0.9,0,2.3,1
				c1.2,0.8,1.8,1.5,2.2,2.2c0.4,0.7,0.5,1.2-0.7,2.4c-2.2,2.2-2.4,3.3-1.1,6.7c0.4,1,0.7,1.8,1,2.4c1.2,2.2,2.6,2.4,3.8,2.6
				c0.1,0,0.2,0.1,0.4,0.1c0.2,0,0.3,0,0.4,0.1c0.9,0.2,1.7,0.3,2,0.8c0.2,0.3,0.4,1-0.1,2.7c-0.5,2.2-1.2,2.8-1.6,3
				c-0.3,0.1-0.6,0.1-0.9,0.1c-0.2,0-0.4-0.1-0.7-0.2c-2.9-1-5,0.8-6.8,2.8c-2.5,2.8-2.2,4.6-1.7,6l0.1,0.1c0.1,0.4,0.3,0.8,0.5,1.2
				c0.2,0.5,0.5,1.1,0.4,1.3c0,0.1-0.3,0.6-2.1,1.3c-3.2,1.3-3.6,0.6-3.9,0.1c-0.2-0.3-0.4-0.8-0.6-1.3
				C130.6,166.8,130.4,166.3,130.2,165.8z M130.1,154.7c2.8-1.6,3.8-5.2,2.2-8c-1.6-2.8-5.2-3.8-8-2.2c-2.8,1.6-3.8,5.2-2.2,8
				C123.7,155.3,127.3,156.3,130.1,154.7z"/>
			<path style="fill:#774444;" d="M112.5,163.8c0.2,0.3,0.6,0.9,1.5,1.7c1.8,1.5,2.5,1.6,2.7,1.5c0.4,0,0.8-0.6,1.3-1.1
				c0.2-0.2,0.4-0.4,0.6-0.7c2.2-2.4,3.7-2.3,6.2-1.8l0.2,0l0.2,0c2.3,0.3,3.9,0.5,4.9,2.4c0.2,0.4,0.4,0.9,0.6,1.6
				c0.2,0.5,0.4,1,0.6,1.3c0.3,0.5,0.7,1.2,3.9-0.1c1.8-0.7,2.1-1.2,2.1-1.3c0.1-0.3-0.2-0.8-0.4-1.3c-0.2-0.4-0.4-0.8-0.5-1.2
				l-0.1-0.1c-0.5-1.5-0.8-3.2,1.7-6c1.7-1.9,3.9-3.8,6.8-2.8c0.2,0.1,0.4,0.1,0.7,0.2l-0.3,1.5c-0.2-0.1-0.5-0.1-0.6-0.2
				c-1.5-0.5-2.8-0.1-5,2.3c-2.2,2.4-1.6,3.5-1.3,4.5c0.5,1.8,2.8,3.9-2.2,5.9c-3.8,1.5-5.1,0.8-5.9-0.6c-0.2-0.4-0.5-1-0.7-1.6
				c-0.1-0.5-0.3-0.9-0.5-1.2c-0.7-1.2-1.7-1.2-4-1.6c-2.4-0.4-3.1-0.6-4.9,1.3c-1.7,1.8-2.6,4-6.9,0.4c-1-0.8-1.6-1.5-1.9-2.2
				c-0.4-0.7-0.5-1.3-0.4-1.8l1.5,0.3C112.2,163.3,112.3,163.5,112.5,163.8z"/>
			<path style="fill:#774444;" d="M117.7,134c0.6,1.6,0.9,3.2-1.4,6.2c-1.8,2.5-3.6,3.5-5.8,3.2c-0.2,0-0.5-0.1-0.8-0.1l-0.2,0
				c-0.7-0.2-1.3-0.3-1.8-0.1c-0.2,0.1-0.9,0.7-1.2,2.9c-0.2,1.3-0.1,2.3,0.2,2.8c0.3,0.5,0.9,0.7,1.8,0.7c0.1,0,0.2,0,0.3,0
				c1.7,0.1,3,0.6,4,2.5c0.4,0.6,0.7,1.4,1.1,2.5c1.3,3.7,0.9,5-0.5,6.7c-0.1,0.2-0.3,0.3-0.4,0.5c-0.5,0.6-0.8,0.9-0.8,1.3
				l-1.5-0.3c0.2-1.1,1.1-1.9,1.6-2.5c0.9-1.2,1.4-1.8,0.2-5.1c-0.4-1-0.7-1.7-1-2.3c-0.7-1.3-1.5-1.6-2.7-1.7c-0.5,0-2.5,0-3.4-1.6
				c-0.5-0.8-0.7-2-0.3-3.9c1-5.6,3.9-4.5,5.3-4.1c1.3,0.3,2.8,0.3,4.8-2.4c2-2.7,1.4-3.7,1-5c-0.4-1.2-2.2-4.1,2.6-5.9
				c3.7-1.4,5-0.4,5.8,1c0.2,0.4,0.5,1,0.7,1.4c0.1,0.4,0.3,0.7,0.5,1c0.7,1.2,1.5,1.7,3.9,2c3.1,0.5,4.2,0.6,5.4-1.4
				c1.1-1.5,2.4-3.6,6.1-0.7c1.2,1,1.9,1.9,2.4,2.6c1.1,1.9,0.2,3.2-0.8,4.2c-1.6,1.6-1.9,1.9-0.7,4.9c0.3,1,0.7,1.6,1,2.2
				c1,1.7,1.8,1.6,3,1.9c1,0.2,2.7,0.3,3.5,1.7c0.5,0.8,0.6,2.1,0.1,4c-1.1,4.5-3.2,4.6-4.7,4.2l0.3-1.5c0.4,0.1,0.7,0.1,0.9-0.1
				c0.4-0.2,1.1-0.8,1.6-3c0.4-1.7,0.2-2.4,0.1-2.7c-0.3-0.5-1.1-0.6-2-0.8c-0.1,0-0.3,0-0.4-0.1c-0.1,0-0.2-0.1-0.4-0.1
				c-1.1-0.2-2.6-0.4-3.8-2.6c-0.4-0.6-0.7-1.4-1-2.4c-1.3-3.4-1.1-4.5,1.1-6.7c1.1-1.2,1.1-1.6,0.7-2.4c-0.4-0.6-1-1.4-2.2-2.2
				c-1.4-1-2-1.1-2.3-1c-0.2,0-0.5,0.2-0.7,0.5c-0.2,0.2-0.5,0.6-0.7,0.9c-1.8,3-4.1,2.6-7.1,2.1c-2.6-0.4-4.1-0.9-5.1-2.9
				c-0.2-0.4-0.4-0.8-0.6-1.2l-0.1-0.3c-0.2-0.3-0.3-0.7-0.5-0.9c-0.3-0.6-0.7-1.3-3.7-0.2c-1.1,0.4-1.9,0.9-2.1,1.4
				c-0.2,0.4,0,1,0.3,1.8c0.1,0.2,0.1,0.4,0.2,0.6C117.7,133.8,117.7,133.9,117.7,134z"/>
		</g>
		<g>
		</g>
	</g>
</g>
<g id="XMLID_4_">
	<g>
		<path style="fill:#141414;" d="M146.3,240.8v20.4c0,1.9-1.6,3.5-3.5,3.5H104c-1.9,0-3.5-1.6-3.5-3.5v-20.4c15,0,30.2,0,45.2,0
			H146.3z"/>
		<path style="fill:#444444;" d="M146.3,235.9v4.9h-0.6c-15,0-30.2,0-45.2,0v-4.9c0-1.9,1.6-3.5,3.5-3.5h38.8
			C144.7,232.4,146.3,234,146.3,235.9z"/>
	</g>
	<g>
	</g>
</g>
<g class="num">
	<g>
		<g>
			<path style="fill:#0AE20F;" d="M127,253.5c0.1-2,0-5.6-2.6-6.1c-2.7-0.5-3.3,3.1-3.4,5.1c-0.1,2,0,6.5,3.1,6.3
				C126.5,258.6,126.8,255.2,127,253.5c0.1-0.7-1.1-0.7-1.2,0c-0.1,0.8-0.2,2.4-0.7,3.1c-2,2.8-2.9-1.1-3-1.9c-0.1-0.7,0-1.4,0-2.1
				c0-1.2,0.9-6,3.1-3c0.8,1.1,0.7,2.7,0.6,4C125.8,254.2,127,254.2,127,253.5z"/>
		</g>
	</g>
	<g>
		<g>
			<path style="fill:#0AE20F;" d="M125.5,249.5c-1.3,1.7-2.7,3.4-4.1,5c-0.5,0.6,0.3,1.4,0.8,0.8c1.4-1.7,2.7-3.3,4.1-5
				C126.8,249.7,126,248.9,125.5,249.5L125.5,249.5z"/>
		</g>
	</g>
</g>
<g class="num">
	<g>
		<g>
			<path style="fill:#0AE20F;" d="M116.6,247.9c0,3.3,0,6.7,0,10c0,0.7,1.2,0.7,1.2,0c0-3.3,0-6.7,0-10
				C117.8,247.1,116.6,247.1,116.6,247.9L116.6,247.9z"/>
		</g>
	</g>
	<g>
		<g>
			<path style="fill:#0AE20F;" d="M116.6,247.6c-0.4,0.5-0.7,1.1-1,1.7c-0.3,0.7,0.7,1.2,1,0.6c0.3-0.6,0.6-1.1,1-1.7
				C118,247.5,117,246.9,116.6,247.6L116.6,247.6z"/>
		</g>
	</g>
	<g>
		<g>
			<path style="fill:#0AE20F;" d="M115.8,258.5c1,0,2,0,3.1,0c0.7,0,0.7-1.2,0-1.2c-1,0-2,0-3.1,0C115,257.3,115,258.5,115.8,258.5
				L115.8,258.5z"/>
		</g>
	</g>
</g>
<g class="num">
	<g>
		<g>
			<path style="fill:#0AE20F;" d="M130.4,247.9c0,3.3,0,6.7,0,10c0,0.7,1.2,0.7,1.2,0c0-3.3,0-6.7,0-10
				C131.5,247.1,130.4,247.1,130.4,247.9L130.4,247.9z"/>
		</g>
	</g>
	<g>
		<g>
			<path style="fill:#0AE20F;" d="M130.3,247.6c-0.4,0.5-0.7,1.1-1,1.7c-0.3,0.7,0.7,1.2,1,0.6c0.3-0.6,0.6-1.1,1-1.7
				C131.8,247.5,130.8,246.9,130.3,247.6L130.3,247.6z"/>
		</g>
	</g>
	<g>
		<g>
			<path style="fill:#0AE20F;" d="M129.5,258.5c1,0,2,0,3.1,0c0.7,0,0.7-1.2,0-1.2c-1,0-2,0-3.1,0
				C128.8,257.3,128.8,258.5,129.5,258.5L129.5,258.5z"/>
		</g>
	</g>
</g>
<g class="num">
	<g>
		<g>
			<path style="fill:#0AE20F;" d="M140.8,253.5c0.1-2,0-5.6-2.6-6.1c-2.7-0.5-3.3,3.1-3.4,5.1c-0.1,2,0,6.5,3.1,6.3
				C140.2,258.6,140.6,255.2,140.8,253.5c0.1-0.7-1.1-0.7-1.2,0c-0.1,0.8-0.2,2.4-0.7,3.1c-2,2.8-2.9-1.1-3-1.9
				c-0.1-0.7,0-1.4,0-2.1c0-1.2,0.9-6,3.1-3c0.8,1.1,0.7,2.7,0.6,4C139.6,254.2,140.7,254.2,140.8,253.5z"/>
		</g>
	</g>
	<g>
		<g>
			<path style="fill:#0AE20F;" d="M139.3,249.5c-1.3,1.7-2.7,3.4-4.1,5c-0.5,0.6,0.3,1.4,0.8,0.8c1.4-1.7,2.7-3.3,4.1-5
				C140.6,249.7,139.8,248.9,139.3,249.5L139.3,249.5z"/>
		</g>
	</g>
</g>
<g class="num">
	<g>
		<path style="fill:#0AE20F;" d="M112.7,253.5c0.1-2,0-5.6-2.6-6.1c-2.7-0.5-3.3,3.1-3.4,5.1c-0.1,2,0,6.5,3.1,6.3
			C112.2,258.6,112.5,255.2,112.7,253.5c0.1-0.7-1.1-0.7-1.2,0c-0.1,0.8-0.2,2.4-0.7,3.1c-2,2.8-2.9-1.1-3-1.9c-0.1-0.7,0-1.4,0-2.1
			c0-1.2,0.9-6,3.1-3c0.8,1.1,0.7,2.7,0.6,4C111.5,254.2,112.7,254.2,112.7,253.5z"/>
	</g>
</g>
<g class="num">
	<g>
		<path style="fill:#0AE20F;" d="M111.2,249.5c-1.3,1.7-2.7,3.4-4.1,5c-0.5,0.6,0.3,1.4,0.8,0.8c1.4-1.7,2.7-3.3,4.1-5
			C112.5,249.7,111.7,248.9,111.2,249.5L111.2,249.5z"/>
	</g>
</g>
<g id="buttons">
	<g id="red">
		<path style="fill:#FFFFFF;" d="M106.7,237.1"/>
		<g>
			<path style="fill:#C42A2A;" d="M106.7,238.9c2.3,0,2.3-3.5,0-3.5C104.4,235.4,104.4,238.9,106.7,238.9L106.7,238.9z"/>
		</g>
	</g>
	<g id="yellow">
		<g>
			<path style="fill:#FFE05F;" d="M111.2,238.9c2.3,0,2.3-3.5,0-3.5C108.9,235.4,108.9,238.9,111.2,238.9L111.2,238.9z"/>
		</g>
	</g>
	<g id="green">
		<g>
			<path style="fill:#81D35B;" d="M115.7,238.9c2.3,0,2.3-3.5,0-3.5C113.5,235.4,113.5,238.9,115.7,238.9L115.7,238.9z"/>
		</g>
	</g>
</g>
</svg>
