<?xml version="1.0" encoding="utf-8"?>
<!-- Generator: Adobe Illustrator 22.1.0, SVG Export Plug-In . SVG Version: 6.00 Build 0)  -->
<svg version="1.1" xmlns="http://www.w3.org/2000/svg" xmlns:xlink="http://www.w3.org/1999/xlink" x="0px" y="0px"
	 viewBox="0 0 481 201.5" style="enable-background:new 0 0 481 201.5;" xml:space="preserve">
<style type="text/css">
	.st0{enable-background:new    ;}
	.st1{fill:#FFFFFF;}
</style>
<g id="Layer_2">
</g>
<g id="Layer_1">
	<g class="st0">
		<path class="st1" d="M4.7,7.1h36.7c13.7,0,25.8,2.6,36.3,7.7s18.7,12.6,24.5,22.4c5.9,9.8,8.8,21.4,8.8,34.6
			c0,13.3-2.9,24.8-8.8,34.6s-14,17.3-24.5,22.4c-10.5,5.1-22.6,7.7-36.3,7.7H4.7V7.1z M40.9,114.6c6.7,0,12.8-0.8,18.3-2.3
			s10.5-3.9,14.9-7.2c4.4-3.3,7.9-7.7,10.3-13.4c2.5-5.6,3.7-12.2,3.7-19.8c0-7.6-1.2-14.2-3.7-19.8S78.5,42,74.1,38.8
			c-4.4-3.3-9.3-5.7-14.9-7.3s-11.6-2.3-18.3-2.3H27.6v85.4C27.6,114.6,40.9,114.6,40.9,114.6z"/>
		<path class="st1" d="M129,79.1c2-5.3,4.9-10,8.5-14s8.2-7.2,13.6-9.6c5.4-2.4,11.4-3.5,17.8-3.5c8,0,15.2,2,21.6,6
			s11.4,9.3,15,15.9c3.5,6.6,5.3,13.8,5.3,21.6c0,2.5-0.2,4.7-0.5,6.8h-63.4c1.3,5.2,3.9,9.4,8,12.6c4.1,3.1,9.1,4.7,15.2,4.7
			c4,0,7.8-0.8,11.5-2.3c3.6-1.5,6.6-3.8,9-6.9l14.7,11.7c-3.8,5.3-8.7,9.5-15,12.5s-12.9,4.5-20,4.5c-8.2,0-15.7-1.9-22.5-5.6
			s-12.1-8.9-16-15.6c-3.9-6.6-5.8-13.9-5.8-21.9C126,90,127,84.4,129,79.1z M189.1,86.4c-0.6-4.2-2.9-7.7-6.8-10.6
			s-8.4-4.3-13.6-4.3c-5,0-9.3,1.4-13.1,4.1s-6.4,6.3-8,10.8H189.1z"/>
		<path class="st1" d="M237.6,64.6c8.6-8.4,19-12.6,31.2-12.6c7.7,0,14.9,1.8,21.4,5.3c6.6,3.6,11.8,8.4,15.8,14.4l-18.3,10.7
			c-2.1-3-4.8-5.4-8.1-7.2c-3.3-1.8-6.9-2.6-10.8-2.6c-6.3,0-11.7,2.3-16.2,6.8c-4.5,4.5-6.8,9.9-6.8,16c0,6.2,2.3,11.6,6.8,16.1
			c4.5,4.5,9.9,6.8,16.2,6.8c4,0,7.8-1,11.2-2.9s6.2-4.5,8.2-7.8l18.2,10.9c-3.9,6.2-9.2,11.2-15.9,14.9c-6.7,3.7-13.9,5.6-21.7,5.6
			c-8,0-15.4-2-22.2-5.9s-12.1-9.2-16-15.9s-5.9-14-5.9-21.8C224.7,83.3,229,73,237.6,64.6z"/>
		<path class="st1" d="M329.8,64.6c8.6-8.4,19-12.6,31.2-12.6c8.9,0,16.6,2.6,23.1,7.7v-6.2h21.5v83.1h-21.5v-5.4
			c-6.3,5.1-14,7.7-23.1,7.7c-8,0-15.4-2-22.2-5.9c-6.8-3.9-12.1-9.2-16-15.9c-3.9-6.7-5.9-14-5.9-21.8
			C316.9,83.3,321.2,73,329.8,64.6z M344.8,111.5c4.5,4.5,9.9,6.8,16.2,6.8c6.4,0,11.8-2.3,16.3-6.8s6.8-9.9,6.8-16.1
			s-2.2-11.5-6.8-16c-4.5-4.5-9.9-6.8-16.3-6.8c-6.3,0-11.7,2.3-16.2,6.8s-6.8,9.9-6.8,16C338.1,101.6,340.3,106.9,344.8,111.5z"/>
		<path class="st1" d="M422.2,53.5h12.2V34.1c0-8.5,2.1-15.1,6.3-19.9s10.7-7.1,19.4-7.1c6.4,0,11.8,0.7,16.2,2.1v19.1
			c-4.1-0.6-7.5-0.9-10.2-0.9c-3.5,0-6,0.8-7.7,2.5c-1.7,1.7-2.5,4.6-2.5,8.7v14.9h18.5v20.7h-18.5v62.5h-21.5V74.2h-12.2
			L422.2,53.5L422.2,53.5z"/>
	</g>
	<g>
		<path class="st1" d="M13.3,162.4v10.5h17.6v7H13.3v16.9H4.7v-41.3h30.9v7H13.3z"/>
		<path class="st1" d="M80.3,176.1c0,13.3-7.6,21.3-19.8,21.3s-19.9-8-19.9-21.3c0-13.3,7.6-21.3,19.9-21.3S80.3,162.8,80.3,176.1z
			 M49.5,176.1c0,9.2,4,14.2,11,14.2c6.9,0,10.9-5,10.9-14.2c0-9.2-4-14.2-10.9-14.2C53.5,161.9,49.5,166.9,49.5,176.1z"/>
		<path class="st1" d="M105.2,180.9h-7.8v15.8h-8.5v-41.3h18.2c9.4,0,15,4.6,15,12.8c0,5.9-3.1,10.1-8.5,11.8l10.9,16.8h-9.7
			L105.2,180.9z M97.5,174.3h8.6c5,0,7.3-1.9,7.3-6c0-4.1-2.3-6-7.3-6h-8.6V174.3z"/>
		<path class="st1" d="M182.9,162.7l-5.9,5.8c-2.1-4.4-5.6-6.7-11.1-6.7c-5.2,0-7.8,2.2-7.8,5.1c0,2.8,2.3,4.3,9.5,5.6
			c11.1,2.1,15.3,5.5,15.3,12.4c0,7.8-7.1,12.4-17,12.4c-9.4,0-14.7-2.7-18.2-7.7l5.1-6.1c3.3,5.4,7.2,6.8,12.8,6.8
			c5.3,0,8.2-1.7,8.2-4.8c0-2.3-2.2-3.6-9-4.9c-11.5-2.3-15.9-5.8-15.9-12.7c0-7.3,6.2-13,16.9-13
			C173.4,154.8,178.7,157.2,182.9,162.7z"/>
		<path class="st1" d="M222.4,162.4h-13.8v34.4h-8.6v-34.4H186v-7h36.4V162.4z"/>
		<path class="st1" d="M264.1,180.5c0,11.3-6.1,16.9-17.7,16.9c-11.5,0-17.7-5.6-17.7-16.9v-25h8.6v24.7c0,6.9,2.9,10.2,9,10.2
			c6.1,0,9-3.3,9-10.2v-24.7h8.7V180.5z"/>
		<path class="st1" d="M310.5,176.1c0,13.2-7.4,20.7-20.3,20.7h-16v-41.3h16C303.1,155.4,310.5,162.9,310.5,176.1z M301.6,176.1
			c0-8.9-3.9-13.8-11.8-13.8h-6.9v27.5h6.9C297.6,189.9,301.6,185,301.6,176.1z"/>
		<path class="st1" d="M351.1,189.8v6.9h-31.9v-41.3h31v7h-22.3v10.3h17.6v6.6h-17.6v10.5H351.1z"/>
		<path class="st1" d="M394.3,196.7h-9.9L370,172.5l-3.6-6.9h-0.1l0.2,7.3v23.9h-7.8v-41.3h9.8l14.5,24.2l3.6,7h0.1l-0.2-7.3v-23.9
			h7.8V196.7z"/>
		<path class="st1" d="M437.8,162.4h-13.8v34.4h-8.6v-34.4h-13.9v-7h36.4V162.4z"/>
		<path class="st1" d="M475.9,162.7l-5.9,5.8c-2.1-4.4-5.6-6.7-11.1-6.7c-5.2,0-7.8,2.2-7.8,5.1c0,2.8,2.3,4.3,9.5,5.6
			c11.1,2.1,15.3,5.5,15.3,12.4c0,7.8-7.1,12.4-17,12.4c-9.4,0-14.7-2.7-18.2-7.7l5.1-6.1c3.3,5.4,7.2,6.8,12.8,6.8
			c5.3,0,8.2-1.7,8.2-4.8c0-2.3-2.2-3.6-9-4.9c-11.5-2.3-15.9-5.8-15.9-12.7c0-7.3,6.2-13,16.9-13
			C466.4,154.8,471.7,157.2,475.9,162.7z"/>
	</g>
</g>
</svg>
