<svg xmlns="http://www.w3.org/2000/svg" xmlns:xlink="http://www.w3.org/1999/xlink" viewBox="0 0 316 387"><defs><style>.cls-1{fill:#00609e;}.cls-2{fill:#26661e;}.cls-3{fill:#52a63a;}.cls-4{fill:#59b33f;}.cls-5{fill:#388d25;}.cls-6{fill:#2c7523;}.cls-7{fill:#4fa183;}.cls-8{fill:#21b56f;}.cls-9{fill:#3cb085;}.cls-10{fill:#56c993;}.cls-11{fill:#52bfa0;}.cls-12{fill:#86dbbd;}.cls-13{fill:#1e8a58;}.cls-14{fill:#1da163;}.cls-15{fill:#429c72;}.cls-16{fill:#c47855;}.cls-17{fill:#4f4143;}.cls-18{fill:#3f9c61;}.cls-19{fill:#337e4f;}.cls-20{fill:#388a56;}.cls-21{fill:#299951;}.cls-22{fill:#238245;}.cls-23{fill:#5ba150;}.cls-24{fill:#338728;}.cls-25{fill:#95d96f;}.cls-26{fill:#7cbf58;}.cls-27{fill:#327d21;}.cls-28{fill:#76ca45;}.cls-29{fill:#6cc24e;}.cls-30{fill:#328626;}.cls-31{fill:#8ad561;}.cls-32{fill:#66b74a;}.cls-33{fill:#2e7a23;}.cls-34{fill:#338727;}.cls-35{fill:url(#linear-gradient);}.cls-36{fill:#fff;}</style><linearGradient id="linear-gradient" x1="156.383" y1="349.926" x2="159.397" y2="59.319" gradientUnits="userSpaceOnUse"><stop offset="0" stop-opacity="0.4"/><stop offset="1" stop-color="#fff" stop-opacity="0"/></linearGradient></defs><title>decaf_event</title><g id="Layer_2" data-name="Layer 2"><path id="Bg" class="cls-1" d="M38,.5H278a37.983,37.983,0,0,1,38,38v311a37.983,37.983,0,0,1-38,38H38a37.983,37.983,0,0,1-38-38V38.5A37.983,37.983,0,0,1,38,.5Z" transform="translate(0 -0.5)"/></g><g id="Layer_1" data-name="Layer 1"><path class="cls-2" d="M137.916,117.868c.834-.431,1.714-.862,2.639-1.31,12.68-6.1,19.808-5.333,23.775-4.572,0,0-8.713,1.521-14.265,3.811-5.195,2.144-18.534,11.562-20.184,12.735-.027.018-.045.037-.073.055a25.826,25.826,0,0,0-5.937,5.4,21.775,21.775,0,0,0-.21-6.468,33.468,33.468,0,0,1,6.083-4.883A83.7,83.7,0,0,1,137.916,117.868Z" transform="translate(0 -0.5)"/><path class="cls-3" d="M129.808,128.587c.028-.018.046-.037.073-.055a12.794,12.794,0,0,1,2.749-1.292c4.755-1.521,11.892-3.811,19.817-2.29a24.528,24.528,0,0,1,12.652,6.862c-.476-.275-8.071-4.572-13.449-4.572-5.543,0-11.095.761-15.053,3.051a11.951,11.951,0,0,0-1.53,1.054.111.111,0,0,0-.027.018,20.2,20.2,0,0,0-4.682,5.607c-.064.119-.1.183-.1.183H123.12l.009-.027a12.662,12.662,0,0,0,.733-3.124.029.029,0,0,1,.009-.019A25.826,25.826,0,0,1,129.808,128.587Z" transform="translate(0 -0.5)"/><path class="cls-4" d="M157.184,84.537a123.892,123.892,0,0,0-9.492,13.715c-3.967,6.853-9.226,15.584-9.776,19.616a83.7,83.7,0,0,0-8.172,4.764s.825-3.216,1.906-8.282h.009s6.523-10,9.693-13.807S154,86.846,157.184,84.537Z" transform="translate(0 -0.5)"/><path class="cls-2" d="M143.34,132.609c8.145.33,11.361,8.878,11.553,9.409-.2-.421-3.032-6.074-9.1-7.045-6.3-1.017-8.411,0-9.455,2.015h-5.049S134.939,132.27,143.34,132.609Z" transform="translate(0 -0.5)"/><path class="cls-5" d="M125.557,112.1c1.347-5.772,2.73-12.021,3.115-14.6.761-5.131,7.375-37.729,5.781-42.978.724,1.722,2.795,8.2,2.144,24.672-.5,12.506-3.1,26.524-4.947,35.164-1.081,5.066-1.906,8.282-1.906,8.282a33.468,33.468,0,0,0-6.083,4.883,26.481,26.481,0,0,0-.889-3.6C122.845,123.63,124.174,118.124,125.557,112.1Z" transform="translate(0 -0.5)"/><path class="cls-6" d="M143.34,132.609c-8.4-.339-12.048,4.379-12.048,4.379h-.907l-.027-.018a20.2,20.2,0,0,1,4.682-5.607.111.111,0,0,1,.027-.018,13.51,13.51,0,0,1,11.077-.083c5.607,2.694,8.4,7.412,8.758,10.784a.076.076,0,0,0-.009-.028C154.7,141.487,151.485,132.939,143.34,132.609Z" transform="translate(0 -0.5)"/><path class="cls-4" d="M122.772,123.914a26.481,26.481,0,0,1,.889,3.6,21.775,21.775,0,0,1,.21,6.468.029.029,0,0,0-.009.019l-.733,3.124-.009.027h-3.353c2.217-11.736-4.151-20.934-11.645-27.43-.605-1.8-1.273-3.546-1.979-5.222a42.962,42.962,0,0,1,5.717,3.728,29.425,29.425,0,0,1,6.5,6.808A39.182,39.182,0,0,1,121,119.553a.358.358,0,0,0,.018.046A31.52,31.52,0,0,1,122.772,123.914Z" transform="translate(0 -0.5)"/><path class="cls-3" d="M123.129,137.126l.733-3.124A12.662,12.662,0,0,1,123.129,137.126Z" transform="translate(0 -0.5)"/><path class="cls-5" d="M108.122,109.723c7.494,6.5,13.862,15.694,11.645,27.43h-2.346s-.934-1.117-2.428-2.693a9.16,9.16,0,0,0,.715-2.254c.458-2.492.174-6.084-2.1-11.068a28.712,28.712,0,0,0-3.949-6.184C109.212,113.158,108.69,111.418,108.122,109.723Z" transform="translate(0 -0.5)"/><path class="cls-3" d="M117.421,137.153h-4.6a6.417,6.417,0,0,0,2.171-2.693C116.487,136.036,117.421,137.153,117.421,137.153Z" transform="translate(0 -0.5)"/><path class="cls-4" d="M111.393,125.243a21.467,21.467,0,0,1,4.306,6.963h.009a9.16,9.16,0,0,1-.715,2.254c-2.492-2.611-6.532-6.487-10.416-8.5-3.491-7.394-15.53-13.212-15.53-13.212,8.145.605,13.322,4.068,17.481,7.769,1.1.972,2.126,1.961,3.124,2.914C110.293,124.043,110.871,124.657,111.393,125.243Z" transform="translate(0 -0.5)"/><path class="cls-6" d="M115.7,132.206a21.467,21.467,0,0,0-4.306-6.963,62.432,62.432,0,0,0-1.732-10.289,28.712,28.712,0,0,1,3.949,6.184c2.272,4.984,2.556,8.576,2.1,11.068Z" transform="translate(0 -0.5)"/><path class="cls-3" d="M108.855,60.872s5.552,20.6,8.722,28.988c3.124,8.264,7.843,21.814,7.98,22.236-1.383,6.028-2.712,11.534-2.785,11.818a31.52,31.52,0,0,0-1.75-4.315.358.358,0,0,1-.018-.046c-.294-1-5.085-17.077-7.394-28.163C111.237,79.947,108.855,63.923,108.855,60.872Z" transform="translate(0 -0.5)"/><path class="cls-2" d="M109.661,114.954a62.432,62.432,0,0,1,1.732,10.289c-.522-.586-1.1-1.2-1.741-1.814-1-.953-2.025-1.942-3.124-2.914l.009-.009s-.027-3.985-2.382-11.305A53.334,53.334,0,0,1,109.661,114.954Z" transform="translate(0 -0.5)"/><path class="cls-5" d="M108.122,109.723c.568,1.7,1.09,3.435,1.539,5.231a53.334,53.334,0,0,0-5.506-5.753c-.348-1.082-.742-2.236-1.2-3.464A60.631,60.631,0,0,1,108.122,109.723Z" transform="translate(0 -0.5)"/><path class="cls-4" d="M106.143,104.5c.706,1.676,1.374,3.417,1.979,5.222a60.631,60.631,0,0,0-5.167-3.986c-.412-1.1-.871-2.263-1.384-3.472C103.065,102.916,104.613,103.658,106.143,104.5Z" transform="translate(0 -0.5)"/><path class="cls-4" d="M102.955,105.737a75.075,75.075,0,0,0-13.7-7.439,64.433,64.433,0,0,1,12.313,3.967C102.084,103.474,102.543,104.638,102.955,105.737Z" transform="translate(0 -0.5)"/><path class="cls-5" d="M89.258,98.3a75.075,75.075,0,0,1,13.7,7.439c.458,1.228.852,2.382,1.2,3.464A93.969,93.969,0,0,0,89.047,98.252s.064.009.193.037C89.249,98.3,89.249,98.3,89.258,98.3Z" transform="translate(0 -0.5)"/><path class="cls-2" d="M90.247,79.846a87.556,87.556,0,0,1,15.9,24.655c-1.53-.843-3.078-1.585-4.572-2.236-.43-1.044-.907-2.125-1.429-3.252A194.029,194.029,0,0,0,90.247,79.846Z" transform="translate(0 -0.5)"/><path class="cls-6" d="M89.844,79.2c.55.467,17.957,15.575,22.016,29.033a42.962,42.962,0,0,0-5.717-3.728,87.556,87.556,0,0,0-15.9-24.655l-.009-.009C90.009,79.452,89.872,79.241,89.844,79.2Z" transform="translate(0 -0.5)"/><path class="cls-2" d="M84.3,134.863c1.585-3.051,3.958-5.332,9.5-6.093,5.323-.742,10.976,2.172,11.407,2.391a.131.131,0,0,1,.027.019l.046.046,3.4,3.646H104.1c-3.958-3.051-5.543-3.82-11.095-3.051A20.966,20.966,0,0,0,84.3,134.863Z" transform="translate(0 -0.5)"/><path class="cls-3" d="M104.577,125.958c3.884,2.015,7.924,5.891,10.416,8.5a6.417,6.417,0,0,1-2.171,2.693c-17.316-21.567-39.515-18.754-41.778-18.4.834-.311,4.141-1.319,10.875-.668,7.916.76,15.841,4.571,22.181,7.631C104.256,125.793,104.421,125.875,104.577,125.958Z" transform="translate(0 -0.5)"/><path class="cls-5" d="M85.877,121.138c-6.34-2.29-15.053-2.29-15.053-2.29s.074-.037.22-.092c2.263-.357,24.462-3.17,41.778,18.4H110.44s-.66-.953-1.759-2.281a40.532,40.532,0,0,0-3.4-3.646l-.046-.046a.131.131,0,0,0-.027-.019,22.878,22.878,0,0,0-1.9-1.63C99.345,126.48,92.217,123.429,85.877,121.138Z" transform="translate(0 -0.5)"/><path class="cls-7" d="M229.388,50.547a300.441,300.441,0,0,0-14.347,28.905c-.752,1.7-1.448,3.335-2.071,4.9-2.171.98-4.407,2.1-6.642,3.38A132.665,132.665,0,0,1,229.388,50.547Z" transform="translate(0 -0.5)"/><path class="cls-8" d="M209.278,119.782c9.226-4.608,20.742-10.371,32.268-11.525,9.794-.98,14.6.54,15.813,1.017-3.3-.531-35.575-4.792-60.752,27.788a9.635,9.635,0,0,1-3.161-4.077c3.619-3.958,9.51-9.8,15.145-12.845C208.82,120.012,209.049,119.892,209.278,119.782Z" transform="translate(0 -0.5)"/><path class="cls-9" d="M231.175,100.2s-17.509,8.786-22.584,19.945c-5.635,3.042-11.526,8.887-15.145,12.845a14.249,14.249,0,0,1-1.026-3.4,32.546,32.546,0,0,1,6.258-10.5c.751-.907,1.6-1.832,2.537-2.767,1.448-1.438,2.941-2.931,4.536-4.4v-.01C211.8,106.342,219.319,101.1,231.175,100.2Z" transform="translate(0 -0.5)"/><path class="cls-10" d="M229.388,50.547a132.665,132.665,0,0,0-23.06,37.187A63.1,63.1,0,0,0,198,93.369c5.909-20.33,31.214-43.152,32-43.858C229.956,49.594,229.745,49.933,229.388,50.547Z" transform="translate(0 -0.5)"/><path class="cls-11" d="M210.964,89.585a106.37,106.37,0,0,1,19.945-11.232,1.812,1.812,0,0,1,.247-.046A136.694,136.694,0,0,0,209.2,94.862C209.708,93.213,210.286,91.454,210.964,89.585Z" transform="translate(0 -0.5)"/><path class="cls-12" d="M212.97,84.354a91.827,91.827,0,0,1,17.939-6,106.37,106.37,0,0,0-19.945,11.232C211.559,87.927,212.219,86.186,212.97,84.354Z" transform="translate(0 -0.5)"/><path class="cls-12" d="M212.97,84.354c-.751,1.832-1.411,3.573-2.006,5.231a88.467,88.467,0,0,0-7.522,6.038c.879-2.721,1.85-5.351,2.886-7.889C208.563,86.452,210.8,85.334,212.97,84.354Z" transform="translate(0 -0.5)"/><path class="cls-11" d="M210.964,89.585c-.678,1.869-1.256,3.628-1.769,5.277a77.776,77.776,0,0,0-8,8.677c.651-2.712,1.411-5.36,2.245-7.916A88.467,88.467,0,0,1,210.964,89.585Z" transform="translate(0 -0.5)"/><path class="cls-13" d="M207.647,128.028c.458-.256,8.777-4.755,16.61-3.637,8.063,1.154,11.517,4.6,13.826,9.208a29.9,29.9,0,0,0-12.671-4.6c-8.063-1.154-10.371,0-16.134,4.609h-6.652l4.975-5.543.028-.028A.028.028,0,0,0,207.647,128.028Z" transform="translate(0 -0.5)"/><path class="cls-7" d="M209.2,94.862c-3.316,10.756-3.444,16.748-3.444,17.05v.01c-1.595,1.466-3.088,2.959-4.536,4.4-.934.935-1.786,1.86-2.537,2.767a98.647,98.647,0,0,1,2.519-15.547A77.776,77.776,0,0,1,209.2,94.862Z" transform="translate(0 -0.5)"/><path class="cls-12" d="M180.83,122.494a43.61,43.61,0,0,1,1.3-5.414v-.009a49.27,49.27,0,0,1,2.547-6.524.028.028,0,0,1,.009-.018,60.574,60.574,0,0,1,3.858-6.88A43.775,43.775,0,0,1,198,93.369a63.1,63.1,0,0,1,8.328-5.635c-1.036,2.538-2.007,5.168-2.886,7.889-10.9,9.812-20.156,23.7-16.94,41.439h-4.875l-1.081-4.774a.009.009,0,0,0-.009-.009A34.612,34.612,0,0,1,180.83,122.494Z" transform="translate(0 -0.5)"/><path class="cls-14" d="M235.783,112.865c-9.217,3.454-19.588,8.072-25.351,12.68a36.142,36.142,0,0,0-2.785,2.483.028.028,0,0,1-.018.009l-.028.028a58.677,58.677,0,0,0-4.975,5.543c-1.6,2.006-2.565,3.454-2.565,3.454h-3.454c25.177-32.58,57.454-28.319,60.752-27.788a2.772,2.772,0,0,1,.321.137S245,109.411,235.783,112.865Z" transform="translate(0 -0.5)"/><path class="cls-11" d="M203.442,95.623c-.834,2.556-1.594,5.2-2.245,7.916a43.66,43.66,0,0,0-5.744,9.326c-3.289,7.531-3.7,12.946-3.033,16.721a14.249,14.249,0,0,0,1.026,3.4c-2.18,2.382-3.536,4.077-3.536,4.077H186.5C183.286,119.324,192.539,105.435,203.442,95.623Z" transform="translate(0 -0.5)"/><path class="cls-8" d="M189.69,65.618c4.608-12.671,12.68-43.785,12.68-43.785,0,4.609-3.454,28.805-6.917,46.094-3.4,17.022-10.546,41.832-10.766,42.6a.028.028,0,0,0-.009.018,49.27,49.27,0,0,0-2.547,6.524c-.091-.385-2.034-8.722-4.058-17.848C178.073,99.223,185.081,78.3,189.69,65.618Z" transform="translate(0 -0.5)"/><path class="cls-10" d="M201.2,103.539a98.647,98.647,0,0,0-2.519,15.547,32.546,32.546,0,0,0-6.258,10.5c-.669-3.775-.256-9.19,3.033-16.721A43.66,43.66,0,0,1,201.2,103.539Z" transform="translate(0 -0.5)"/><path class="cls-8" d="M196.607,137.062h-6.7s1.356-1.7,3.536-4.077A9.635,9.635,0,0,0,196.607,137.062Z" transform="translate(0 -0.5)"/><path class="cls-9" d="M140.143,122.082c-8.063,0-19.588,6.917-19.588,6.917a35.521,35.521,0,0,1,18.433-10.371c9.364-1.878,17.967.055,24.572,2.08,1.521.467,2.941.944,4.242,1.374a18.412,18.412,0,0,1,4.105,2.025.513.513,0,0,1,.073.055,37.987,37.987,0,0,1,8.557,8.117,19.907,19.907,0,0,0,1.09,4.783H171.256s-.046-.1-.137-.275a30.812,30.812,0,0,0-6.826-8.484,17.855,17.855,0,0,0-2.254-1.612C156.277,123.237,148.214,122.082,140.143,122.082Z" transform="translate(0 -0.5)"/><path class="cls-13" d="M180.83,122.494a34.612,34.612,0,0,0-.293,9.785,37.987,37.987,0,0,0-8.557-8.117.513.513,0,0,0-.073-.055c-.724-.532-4.206-3.088-8.631-6.212a54.933,54.933,0,0,0-2.657-9.693,118.941,118.941,0,0,1,11.37,6.926c2.172,1.512,3.894,2.85,5.213,3.949l.009.009A32.6,32.6,0,0,1,180.83,122.494Z" transform="translate(0 -0.5)"/><path class="cls-11" d="M169.222,102.613c1.567,7.65,2.767,12.515,2.767,12.515a118.941,118.941,0,0,0-11.37-6.926C156.735,97.418,150,85.664,145.905,78.3a189.294,189.294,0,0,0-13.8-20.715c4.636,3.481,18.415,18.415,23.014,24.169,4.535,5.671,13.807,20.394,14.091,20.852Z" transform="translate(0 -0.5)"/><path class="cls-11" d="M171.907,124.107a18.412,18.412,0,0,0-4.105-2.025c-1.3-.43-2.721-.907-4.242-1.374l.037-.128c-.064-.871-.174-1.769-.321-2.685C167.7,121.019,171.183,123.575,171.907,124.107Z" transform="translate(0 -0.5)"/><path class="cls-9" d="M164.852,14.156C164,26.1,172.521,69.878,173.565,77.143c.55,3.9,2.565,13.349,4.508,22.08,2.024,9.126,3.967,17.463,4.058,17.848v.009a43.61,43.61,0,0,0-1.3,5.414,32.6,32.6,0,0,0-3.619-3.408l-.009-.009c-.155-.458-5.213-15.474-10.719-54.577C162.259,34.568,163.826,19.671,164.852,14.156Z" transform="translate(0 -0.5)"/><path class="cls-15" d="M164.852,14.156c-1.026,5.515-2.593,20.412,1.631,50.344,5.506,39.1,10.564,54.119,10.719,54.577-1.319-1.1-3.041-2.437-5.213-3.949,0,0-1.2-4.865-2.767-12.515l-.009-.009c-2.684-13.056-6.45-34.219-7.174-53.111-.971-25.158,2.126-34.879,3.143-37.353A8.353,8.353,0,0,0,164.852,14.156Z" transform="translate(0 -0.5)"/><path class="cls-11" d="M152.227,130.19c-11.837.5-16.509,13.422-16.793,14.229.513-5.094,4.59-12.2,12.716-16.263,7.971-3.994,15.813-.018,16.143.147a30.812,30.812,0,0,1,6.826,8.484l-.055.027h-1.319S164.449,129.686,152.227,130.19Z" transform="translate(0 -0.5)"/><path class="cls-7" d="M135.434,144.419c.284-.807,4.956-13.734,16.793-14.229,12.222-.5,17.518,6.624,17.518,6.624h-7.339c-1.521-3.051-4.581-4.581-13.743-3.051C139.813,135.229,135.718,143.823,135.434,144.419Z" transform="translate(0 -0.5)"/><path class="cls-13" d="M121.709,99.04c5.763-1.154,16.134-2.309,34.568,6.908q2.3,1.155,4.342,2.254a54.933,54.933,0,0,1,2.657,9.693c-6.908-4.865-16.143-11.086-20.825-13.092C134.38,101.34,121.709,99.04,121.709,99.04Z" transform="translate(0 -0.5)"/><path class="cls-16" d="M209.085,190.079l-71.618.128c-9.51.019-19.019.037-28.52.367-27.11.925-54.321,4.343-81.284,1.429a1.17,1.17,0,0,1-1.035-1.163c.018-4.068-.037-10.3-.1-17.215,17.581,2.244,35.4,1.695,53.129,1.154q14.829-.468,29.648-.916c16.079-.5,30.72-.953,46.1-1.668,4.27-.2,8.567-.412,12.854-.467a104.345,104.345,0,0,1,13.542.6,98.47,98.47,0,0,0,18.442.3c3.042-.229,5.928-.55,8.814-.742.256,6.267.632,12.1,1.173,16.885A1.159,1.159,0,0,1,209.085,190.079Z" transform="translate(0 -0.5)"/><path class="cls-16" d="M208.572,150.482c.055,6.092.165,12.387.376,18.388q-20.367.013-40.724.329-16.477.248-32.965.7c-16.427.439-32.845,1.026-49.263,1.319-6.761.128-13.523.2-20.293.275q-9.565.1-19.148.2c-6.688.074-13.4.147-20.056-.348-.073-5.946-.155-12.277-.219-18.113,13.825-.613,45.332-1.9,54.888-.962a143.928,143.928,0,0,0,14.631.211c4.471-.018,8.686.257,13.148-.082,8.731-.669,17.5-.4,26.248-.257Q171.9,152.745,208.572,150.482Z" transform="translate(0 -0.5)"/><path class="cls-16" d="M208.5,133.954c0,4.343.009,9.153.055,14.146-.788-.074-1.576-.138-2.364-.2-20.5-1.695-36.18,0-61.64.412-4.4.065-8.75.917-13.139.944-5.9.018-11.754-.815-17.636-1.108-19.222-.953-65.48,3.683-87.541,1.2-.064-5.882-.092-10.994-.064-14.274l.045-1.219c33.267,1.264,36.913.339,65.92.467,11.269.055,53.8,1.475,65.049.917C174.005,134.412,191.5,133.441,208.5,133.954Z" transform="translate(0 -0.5)"/><path class="cls-17" d="M181.8,172.333a104.345,104.345,0,0,0-13.542-.6l-.036-2.529q20.367-.315,40.724-.329.056,1.525.11,3.023c-2.886.192-5.772.513-8.814.742A98.47,98.47,0,0,1,181.8,172.333Z" transform="translate(0 -0.5)"/><path class="cls-17" d="M168.224,169.2l.036,2.529c-4.287.055-8.584.266-12.854.467-15.382.715-30.023,1.164-46.1,1.668q-14.829.453-29.648.916c-17.728.541-35.548,1.09-53.129-1.154q-.014-1.128-.028-2.282c6.661.5,13.368.422,20.056.348q9.577-.1,19.148-.2c6.77-.073,13.532-.147,20.293-.275,16.418-.293,32.836-.88,49.263-1.319Q151.737,169.442,168.224,169.2Z" transform="translate(0 -0.5)"/><path class="cls-17" d="M208.572,150.482q-36.624,2.268-73.377,1.658c-8.749-.146-17.517-.412-26.248.257-4.462.339-8.677.064-13.148.082a143.928,143.928,0,0,1-14.631-.211c-9.556-.934-41.063.349-54.888.962-.019-1.319-.028-2.62-.046-3.884,22.061,2.483,68.319-2.153,87.541-1.2,5.882.293,11.736,1.126,17.636,1.108,4.389-.027,8.741-.879,13.139-.944,25.46-.412,41.136-2.107,61.64-.412.788.064,1.576.128,2.364.2C208.554,148.888,208.563,149.685,208.572,150.482Z" transform="translate(0 -0.5)"/><path class="cls-18" d="M106.977,95.861c1.493-3.042,3.069-6.01,3.985-7.723a.009.009,0,0,0,.009-.01c.12-.128.22-.265.321-.394A82.963,82.963,0,0,1,106.977,95.861Z" transform="translate(0 -0.5)"/><path class="cls-18" d="M107.792,90.9c-3.215,3.189-7.961,7.458-12.716,10.032-8.347,4.526-13.212,5.919-15.649,8.347s-2.794,4.178-2.794,4.178a10.011,10.011,0,0,0-2.639-3.06c-.421-.3-.87-.669-1.337-1.081v-.01a10.042,10.042,0,0,1,4.48-6.779,25.811,25.811,0,0,1,6.871-2.694c2.511-.678,5.406-1.255,8.86-2.025A47.746,47.746,0,0,0,107.792,90.9Z" transform="translate(0 -0.5)"/><path class="cls-19" d="M111.741,86.827c-.183.788-3.207,13.514-5.5,18.846-2.355,5.507-4.04,9.978-6.349,12.46a27.647,27.647,0,0,1-5.451.129c-.578-.046-1.127-.074-1.668-.083v-.009c3.271-2.226,9.6-9.244,10.637-13.761a50.764,50.764,0,0,1,3.564-8.548,82.963,82.963,0,0,0,4.315-8.127.152.152,0,0,0,.018-.045A2.9,2.9,0,0,0,111.741,86.827Z" transform="translate(0 -0.5)"/><path class="cls-18" d="M96.12,108.578c4.334-3.005,8.108-8.164,10.857-12.717a50.764,50.764,0,0,0-3.564,8.548c-1.035,4.517-7.366,11.535-10.637,13.761v.009c-6.587-.2-10.747,1.576-12.542,2.575C83.825,116.237,87.077,114.835,96.12,108.578Z" transform="translate(0 -0.5)"/><path class="cls-20" d="M99.9,118.133a40.675,40.675,0,0,0,13.944-4.443c-2.391,1.64-16.345,10.976-23.637,11.929-7.99,1.044-11.343,3.756-12.451,5.359a16.114,16.114,0,0,0,1.456-9.583,8.112,8.112,0,0,1,1.027-.641c1.8-1,5.955-2.776,12.542-2.575.541.009,1.09.037,1.668.083A27.647,27.647,0,0,0,99.9,118.133Z" transform="translate(0 -0.5)"/><path class="cls-19" d="M110.962,88.138c-.916,1.713-2.492,4.681-3.985,7.723-2.749,4.553-6.523,9.712-10.857,12.717-9.043,6.257-12.3,7.659-15.886,12.176a8.112,8.112,0,0,0-1.027.641,20.7,20.7,0,0,0-2.574-7.943s.357-1.741,2.794-4.178,7.3-3.821,15.649-8.347c4.755-2.574,9.5-6.843,12.716-10.032A16.485,16.485,0,0,0,110.962,88.138Z" transform="translate(0 -0.5)"/><path class="cls-19" d="M73.994,134.78a9.375,9.375,0,0,0,3.757-3.8c1.108-1.6,4.461-4.315,12.451-5.359,7.292-.953,21.246-10.289,23.637-11.929.183-.092.275-.147.275-.147s-7.32,30.857-40.3,21.695v-.458Z" transform="translate(0 -0.5)"/><path class="cls-21" d="M59.042,92.3s4.682,7.018,9.382,12.552a.028.028,0,0,1,.009.018,44.665,44.665,0,0,0,4.224,4.434v.01c.467.412.916.778,1.337,1.081a10.011,10.011,0,0,1,2.639,3.06,20.7,20.7,0,0,1,2.574,7.943,16.114,16.114,0,0,1-1.456,9.583,9.375,9.375,0,0,1-3.757,3.8H69.652v-.027c7.6-9.638,1.081-20.6-2.392-25.827-3.234-4.838-7.659-15.071-8.273-16.51C59.006,92.379,59.024,92.334,59.042,92.3Z" transform="translate(0 -0.5)"/><path class="cls-22" d="M58.987,92.416c.614,1.439,5.039,11.672,8.273,16.51,3.473,5.222,10,16.189,2.392,25.827v.027H65.446v-.027c-.073-10.335-2.354-19.918-2.7-23.738-.321-3.546-3.344-16.666-3.775-18.544C58.978,92.453,58.978,92.434,58.987,92.416Z" transform="translate(0 -0.5)"/><path class="cls-21" d="M58.969,92.471c.431,1.878,3.454,15,3.775,18.544.348,3.82,2.629,13.4,2.7,23.738v.027H60.93c-4.59-6.477-6.185-20.293-4.1-28.282.733-2.8,1.777-11.617,2.034-13.77v-.019C58.9,92.636,58.932,92.554,58.969,92.471Z" transform="translate(0 -0.5)"/><path class="cls-18" d="M58.254,57.684a26.394,26.394,0,0,0,6.3,10.224c4.718,4.719,11.8,7.87,14.952,11.8s6.66,13.477,4.507,20.11v.009a25.811,25.811,0,0,0-6.871,2.694l-.147-.2a22.789,22.789,0,0,0-.687-9.033c-1.392-4.526-4.178-8.7-10.087-16C62.734,72.984,60.581,67,59.4,62.805c-.495-2.519-1.027-4.434-1.155-4.883A2.113,2.113,0,0,0,58.254,57.684Z" transform="translate(0 -0.5)"/><path class="cls-20" d="M59.4,62.805c1.181,4.2,3.334,10.179,6.816,14.485,5.909,7.3,8.7,11.471,10.087,16a22.789,22.789,0,0,1,.687,9.033l.147.2a10.042,10.042,0,0,0-4.48,6.779,44.665,44.665,0,0,1-4.224-4.434.028.028,0,0,0-.009-.018c-.174-.376-2.978-6.542-5.332-12.607a48.89,48.89,0,0,1-2.785-19.817A41.475,41.475,0,0,0,59.4,62.805Z" transform="translate(0 -0.5)"/><path class="cls-18" d="M68.424,104.849c-4.7-5.534-9.382-12.552-9.382-12.552-.018.037-.036.082-.055.119-.046-.119-.073-.174-.073-.174a.076.076,0,0,1-.009.028.184.184,0,0,1-.009.064c-.028.119-.092.357-.174.7v.009a61.217,61.217,0,0,1-2.74,5.68c-2.593-8.465-1.237-15.52.843-22.822,1.851-6.477,1.512-15.676,1.411-17.682a2.1,2.1,0,0,0,.009-.238c.1.522.458,2.373,1.155,4.828a41.475,41.475,0,0,1,.907,9.62,48.89,48.89,0,0,0,2.785,19.817C65.446,98.307,68.25,104.473,68.424,104.849Z" transform="translate(0 -0.5)"/><path class="cls-23" d="M58.245,57.922c.128.449.66,2.364,1.155,4.883-.7-2.455-1.054-4.306-1.155-4.828v-.018A.029.029,0,0,0,58.245,57.922Z" transform="translate(0 -0.5)"/><path class="cls-22" d="M58.859,92.728c-.257,2.153-1.3,10.975-2.034,13.77-2.08,7.989-.485,21.8,4.1,28.282H55.616c-4.352-3.353-8.173-19.249-3.308-26.9a54.915,54.915,0,0,0,6.414-14.842V93.03Z" transform="translate(0 -0.5)"/><path class="cls-19" d="M55.9,68.7c1.447-5.1,2.235-8.181,2.336-10.481.1,2.006.44,11.2-1.411,17.682-2.08,7.3-3.436,14.357-.843,22.822v.01a41.983,41.983,0,0,1-4.407,6.019s-.009-.018-.027-.046a12.879,12.879,0,0,0-.889-1.576,19.767,19.767,0,0,1-1.841-8.465C48.818,88.367,54.324,74.2,55.9,68.7Z" transform="translate(0 -0.5)"/><path class="cls-21" d="M55.982,98.719a61.217,61.217,0,0,0,2.74-5.68,54.915,54.915,0,0,1-6.414,14.842c-4.865,7.65-1.044,23.546,3.308,26.9h-6.8a19.617,19.617,0,0,1-4.151-5.02,14.853,14.853,0,0,1-1.9-10.463c.082-.385.174-.77.293-1.164v-.009a18.225,18.225,0,0,1,2.6-5.369c2.657-3.866,4.5-6.239,5.909-8.007a41.983,41.983,0,0,0,4.407-6.019Z" transform="translate(0 -0.5)"/><path class="cls-20" d="M44.667,129.76C17.787,131.345,7.791,113.094,6.554,110.6c1.5,1.439,3.069,2.227,6.074,3.72,2.621,1.31,7.422,2.08,12.131,2.3.953.045,1.887.064,2.812.064a55.132,55.132,0,0,1,7.055.44,24.805,24.805,0,0,1,8.145,2.171A14.853,14.853,0,0,0,44.667,129.76Z" transform="translate(0 -0.5)"/><path class="cls-18" d="M19.921,83.813c4.1,3.17,14.852,8.539,21.815,11.636a20.8,20.8,0,0,1,8.923,7.677,10.975,10.975,0,0,0,.889,1.576c.018.028.027.046.027.046-1.411,1.768-3.252,4.141-5.909,8.007a18.225,18.225,0,0,0-2.6,5.369c-1.255-7.137-6.4-17.2-9.876-21.365C30.063,93.012,21.607,85.334,19.921,83.813Z" transform="translate(0 -0.5)"/><path class="cls-20" d="M33.188,96.759c3.472,4.168,8.621,14.228,9.876,21.365v.009c-.119.394-.211.779-.293,1.164a24.805,24.805,0,0,0-8.145-2.171v-.01c-1.686-1.539-4.224-8.538-5.259-14.8-.971-5.79-8.493-16.949-9.6-18.571a.67.67,0,0,1-.046-.073.041.041,0,0,0-.009-.028,2.164,2.164,0,0,0,.174.129l.036.036C21.607,85.334,30.063,93.012,33.188,96.759Z" transform="translate(0 -0.5)"/><path class="cls-19" d="M19.766,83.749c1.108,1.622,8.63,12.781,9.6,18.571,1.035,6.258,3.573,13.257,5.259,14.8v.01a55.132,55.132,0,0,0-7.055-.44c-.925,0-1.859-.019-2.812-.064-3.592-4.792-.33-14.879-.33-19.607C24.429,92.59,20.279,84.711,19.766,83.749Z" transform="translate(0 -0.5)"/><path class="cls-19" d="M6.554,110.6c1.237,2.492,11.233,20.743,38.113,19.158a19.617,19.617,0,0,0,4.151,5.02c-13.377,3.152-21.247-.788-27.541-3.142s-11.012-9.446-12.588-13.376a51.609,51.609,0,0,1-2.355-7.87C6.408,110.465,6.481,110.538,6.554,110.6Z" transform="translate(0 -0.5)"/><path class="cls-6" d="M154.371,140.818c-1.191-2.492-4.553-7.952-11.031-8.209a16.291,16.291,0,0,0-9.9,2.52c-.705-.019-1.191-.028-1.191-.028l3.024-3.665s5.506-2.794,11.1-.1,8.4,7.421,8.758,10.792A11.413,11.413,0,0,0,154.371,140.818Z" transform="translate(0 -0.5)"/><path class="cls-2" d="M154.371,140.818a12.7,12.7,0,0,0-8.346-5.772c-3.848-.614-6.13-.476-7.559.183-.366.009-3.335-.064-5.03-.1a16.291,16.291,0,0,1,9.9-2.52C149.818,132.866,153.18,138.326,154.371,140.818Z" transform="translate(0 -0.5)"/><path class="cls-7" d="M148.517,134.02c-7.99,1.328-12.112,8.475-13.038,10.28.55-1.512,5.287-13.624,16.748-14.11,7.669-.32,12.607,2.373,15.227,4.416-2.006-.055-5.387-.045-6.725.458C158.8,133.434,155.351,132.875,148.517,134.02Z" transform="translate(0 -0.5)"/><path class="cls-11" d="M135.278,144.712c.513-5.094,4.59-12.222,12.735-16.3s16.152.156,16.152.156L169,134.661s-.623-.027-1.548-.055c-2.62-2.043-7.558-4.736-15.227-4.416-11.461.486-16.2,12.6-16.748,14.11a.515.515,0,0,1-.027.064C135.333,144.584,135.278,144.712,135.278,144.712Z" transform="translate(0 -0.5)"/><g id="_Group_" data-name="&lt;Group&gt;"><path class="cls-16" d="M288.847,311.881a1.131,1.131,0,0,1-1.182,1.224l-73.885.121c-9.811.017-19.622.035-29.424.345-27.968.87-56.04,4.086-83.857,1.345a1.144,1.144,0,0,1-1.068-1.095c.019-3.827-.038-9.689-.1-16.2,18.138,2.112,36.522,1.595,54.812,1.086q15.3-.44,30.586-.862c16.588-.474,31.692-.9,47.562-1.568,4.4-.19,8.837-.388,13.261-.44a118,118,0,0,1,13.97.569,111.217,111.217,0,0,0,19.026.284c3.138-.215,6.116-.517,9.093-.7C287.9,301.9,288.289,307.382,288.847,311.881Z" transform="translate(0 -0.5)"/><path class="cls-16" d="M287.136,275.851c.057,5.732.17,11.654.387,17.3q-21.01.012-42.013.31-17,.232-34.008.655c-16.947.414-33.885.965-50.823,1.241-6.975.121-13.951.19-20.936.259q-9.867.09-19.754.189c-6.9.069-13.819.138-20.69-.327-.076-5.594-.161-11.551-.227-17.041,14.263-.578,46.768-1.785,56.626-.906,4.943.44,10.133.225,15.1.2,4.612-.018,8.96.241,13.563-.078,9.008-.629,18.053-.379,27.08-.241Q249.3,277.98,287.136,275.851Z" transform="translate(0 -0.5)"/><path class="cls-17" d="M287.117,273.609c0,.742.009,1.492.019,2.242q-37.784,2.133-75.7,1.56c-9.027-.138-18.072-.388-27.08.241-4.6.319-8.951.06-13.563.078-4.962.026-10.152.241-15.095-.2-9.858-.879-42.363.328-56.626.906-.019-1.242-.028-2.466-.047-3.655,22.76,2.336,70.482-2.026,90.312-1.129,6.068.275,12.108,1.06,18.2,1.043,4.528-.026,9.017-.828,13.554-.888,26.267-.388,42.439-1.983,63.592-.388C285.491,273.48,286.3,273.541,287.117,273.609Z" transform="translate(0 -0.5)"/><path class="cls-16" d="M287.051,254.594c.009,5.362,0,12,.066,19.015-.813-.068-1.626-.129-2.439-.189-21.153-1.6-37.325,0-63.592.388-4.537.06-9.026.862-13.554.888-6.087.017-12.127-.768-18.2-1.043-19.83-.9-67.552,3.465-90.312,1.129-.066-5.534-.095-10.344-.066-13.43l.056-1.077c33.016,1.543,66.116-1.716,99.188-2.121,11.626-.146,23.252.061,34.868-.465C251.077,256.878,269.054,254.318,287.051,254.594Z" transform="translate(0 -0.5)"/><path class="cls-17" d="M287.523,293.151q-21.01.012-42.013.31-17,.232-34.008.655c-16.947.414-33.885.965-50.823,1.241-6.975.121-13.951.19-20.936.259q-9.867.09-19.754.189c-6.9.069-13.819.138-20.69-.327q.013,1.086.028,2.146c18.138,2.112,36.522,1.595,54.812,1.086q15.3-.44,30.586-.862c16.588-.474,31.692-.9,47.562-1.569,4.4-.189,8.837-.387,13.261-.439a118,118,0,0,1,13.97.569,111.217,111.217,0,0,0,19.026.284c3.138-.215,6.115-.517,9.093-.7Q287.58,294.585,287.523,293.151Z" transform="translate(0 -0.5)"/></g><g id="_Group_2" data-name="&lt;Group&gt;"><path class="cls-4" d="M309.735,251.008c.946,9.482-.945,12.068-.945,12.068,0-5.56-11.229-6-18.9-7.378-.661-.121-1.294-.242-1.89-.38a31.066,31.066,0,0,1-3.648-1.06,10.261,10.261,0,0,1,4.593-6.5,18.681,18.681,0,0,0,3.091-2.017,8.592,8.592,0,0,0,2-4.181q.892-3.44,1.578-6.922l.624-1.077C301.408,236.846,308.941,243.009,309.735,251.008Z" transform="translate(0 -0.5)"/><path class="cls-24" d="M274.745,213.952a12.366,12.366,0,0,1-4.244.336c.453-1.37.5-2.077,7.1-7.241a19.2,19.2,0,0,1,13.233-4.309c-5.672,0-1.891,6.9,0,15.515a18.911,18.911,0,0,1,.472,4.612l-.529-.009c-2.42.1-4.849.216-7.269.319a32.686,32.686,0,0,1-8.714-.405,25.405,25.405,0,0,1-6.947-2.965l-.085-.069A29.968,29.968,0,0,1,274.745,213.952Z" transform="translate(0 -0.5)"/><path class="cls-6" d="M263.809,224.511a53.031,53.031,0,0,1,3.951-4.775l.085.069a25.405,25.405,0,0,0,6.947,2.965,32.686,32.686,0,0,0,8.714.405c2.42-.1,4.849-.215,7.269-.319l.529.009c-.16,5.2-2.892,7.249-2.892,7.249a20.962,20.962,0,0,0-8.081-.353c-5.416-1.035-13.025-2.242-18.677-2.13C262.381,226.511,263.1,225.468,263.809,224.511Z" transform="translate(0 -0.5)"/><path class="cls-6" d="M289.886,255.7c2.836,6.413,0,18.584,0,18.584a5.45,5.45,0,0,0-1.37-1.526c-1.89-1.56-5.6-3.465-11.862-5.37-.652-.2-1.257-.4-1.815-.6l.066-.138a29.052,29.052,0,0,1,7.07-4.043,9.349,9.349,0,0,0,3.781-2.129c1.163-1.371,1.115-3.345,2.212-4.767l.028-.388C288.592,255.456,289.225,255.577,289.886,255.7Z" transform="translate(0 -0.5)"/><path class="cls-4" d="M251.54,231.321c.586-.448,1.191-.871,1.805-1.259a14.449,14.449,0,0,1,6.295-2.327q.951-.09,2.014-.1c5.652-.112,13.261,1.095,18.677,2.13,3.941.758,6.72,1.422,6.72,1.422a32.96,32.96,0,0,1-.908,3.7c-6.011.724-11.824,2.491-17.769,3.637a87.454,87.454,0,0,1-24.367,1.207l-.293-.164A41.788,41.788,0,0,1,251.54,231.321Z" transform="translate(0 -0.5)"/><path class="cls-3" d="M293.667,232.045a20.239,20.239,0,0,0-5.255-1.931,20.962,20.962,0,0,0-8.081-.353c3.941.758,6.72,1.422,6.72,1.422a32.96,32.96,0,0,1-.908,3.7c-6.011.724-11.824,2.491-17.769,3.637a87.454,87.454,0,0,1-24.367,1.207l-.293-.164c-1.153,1.56-1.805,2.638-1.805,2.638a7.124,7.124,0,0,1,1.607,8.232c4.489,3.594,15.245,6.387,26.985,2.767.472-.138.954-.3,1.427-.466a17.087,17.087,0,0,0,4.915-2.715,21.58,21.58,0,0,0,7.5,4.241,10.261,10.261,0,0,1,4.593-6.5,18.681,18.681,0,0,0,3.091-2.017,8.592,8.592,0,0,0,2-4.181q.892-3.44,1.578-6.922l.624-1.077C295.283,232.959,294.4,232.45,293.667,232.045Z" transform="translate(0 -0.5)"/><path class="cls-25" d="M270.5,214.288a12.366,12.366,0,0,0,4.244-.336,29.968,29.968,0,0,0-6.985,5.784,53.031,53.031,0,0,0-3.951,4.775,13.528,13.528,0,0,0-3.337-5.9,8.415,8.415,0,0,0-6.786-2.388c.406-.233.832-.466,1.276-.681a15.072,15.072,0,0,1,6.569-1.595C265.69,213.943,268.421,214.2,270.5,214.288Z" transform="translate(0 -0.5)"/><path class="cls-2" d="M284.348,254.258a21.58,21.58,0,0,1-7.5-4.241,17.087,17.087,0,0,1-4.915,2.715c-.473.164-.955.328-1.427.466-11.74,3.62-22.5.827-26.985-2.767-1.456,3.534-5.076,6.861-8.479,9.283-.35.25-.7.492-1.04.724-4.858,5.112-.822,29.359-.822,29.359s1.891-.862,17.959-11.205a47.07,47.07,0,0,0,16.077-17.249c.057.19,1.021,3.035,7.628,5.44l.066-.138a29.052,29.052,0,0,1,7.07-4.043,9.349,9.349,0,0,0,3.781-2.129c1.163-1.371,1.115-3.345,2.212-4.767l.028-.388A31.066,31.066,0,0,1,284.348,254.258Z" transform="translate(0 -0.5)"/><path class="cls-26" d="M250.207,218.744a22.256,22.256,0,0,1,3.479-2.525,8.415,8.415,0,0,1,6.786,2.388,13.528,13.528,0,0,1,3.337,5.9c-.709.957-1.428,2-2.155,3.12q-1.063.013-2.014.1a14.449,14.449,0,0,0-6.295,2.327s-1.748-5.922-4.792-9.663A18.275,18.275,0,0,1,250.207,218.744Z" transform="translate(0 -0.5)"/><path class="cls-4" d="M253.686,216.219a22.256,22.256,0,0,0-3.479,2.525c-1.474-.844-3.648-2-5.916-3.146a42.3,42.3,0,0,1-3.554-5.965,17.753,17.753,0,0,0-3.677,2.423,20.414,20.414,0,0,0-2.467-1.035c-2.637-.552-5.265-1.112-7.892-1.663l-.558-.052a64.7,64.7,0,0,1,7.977-5.706,20.662,20.662,0,0,1,16.069-1.724,44.124,44.124,0,0,0,11.342,1.724c-1.853,1.689-6.39,11.567-6.569,11.938C254.518,215.753,254.092,215.986,253.686,216.219Z" transform="translate(0 -0.5)"/><path class="cls-25" d="M248.553,220.4c3.044,3.741,4.792,9.663,4.792,9.663-.614.388-1.219.811-1.805,1.259-3.213-1.629-6.219-3.56-8.913-3.586a24.906,24.906,0,0,0-7.571,1.388q-5.586,1.758-11.172,3.534a20.685,20.685,0,0,1,1.6-7.818A11.557,11.557,0,0,1,227.5,221.7a102.592,102.592,0,0,1,9.556-9.645c1.909.887,4.622,2.215,7.231,3.542a23.449,23.449,0,0,0,3.062,3.517A11.918,11.918,0,0,1,248.553,220.4Z" transform="translate(0 -0.5)"/><path class="cls-3" d="M250.207,218.744a18.275,18.275,0,0,0-1.654,1.655,11.918,11.918,0,0,0-1.2-1.284,23.449,23.449,0,0,1-3.062-3.517C246.559,216.745,248.733,217.9,250.207,218.744Z" transform="translate(0 -0.5)"/><path class="cls-26" d="M242.627,227.735c2.694.026,5.7,1.957,8.913,3.586a41.788,41.788,0,0,0-7.826,8.24c-1.153,1.56-1.805,2.638-1.805,2.638a15.193,15.193,0,0,0-3.063-2.4,27.306,27.306,0,0,0-14.8-3.474l-.019-.241a24.249,24.249,0,0,1-.142-3.431q5.586-1.772,11.172-3.534A24.906,24.906,0,0,1,242.627,227.735Z" transform="translate(0 -0.5)"/><path class="cls-25" d="M244.291,215.6c-2.609-1.327-5.322-2.655-7.231-3.542a17.753,17.753,0,0,1,3.677-2.423A42.3,42.3,0,0,0,244.291,215.6Z" transform="translate(0 -0.5)"/><path class="cls-27" d="M241.909,242.2a7.124,7.124,0,0,1,1.607,8.232c-1.456,3.534-5.076,6.861-8.479,9.283-.576-3.335-1.408-6.663-3.44-9.464-1.664-2.284-4.017-4.051-6.125-6.008s-4.074-4.224-4.594-6.922l-.141-.379a14.434,14.434,0,0,1,3.308-.612,27.306,27.306,0,0,1,14.8,3.474A15.193,15.193,0,0,1,241.909,242.2Z" transform="translate(0 -0.5)"/><path class="cls-3" d="M237.06,212.056A102.592,102.592,0,0,0,227.5,221.7a11.557,11.557,0,0,0-2.023,3.138,12.263,12.263,0,0,0-2.249-6.853c-.142-.2-.293-.4-.454-.595a17.809,17.809,0,0,1-2.117-3.448s2.467-2.189,5.482-4.637l.558.052c2.627.551,5.255,1.111,7.892,1.663A20.414,20.414,0,0,1,237.06,212.056Z" transform="translate(0 -0.5)"/><path class="cls-6" d="M223.884,232.657a24.249,24.249,0,0,0,.142,3.431l.019.241a14.434,14.434,0,0,0-3.308.612,9.514,9.514,0,0,0-3.63,2c-2.769,2.525-4.4,5.628-5.813,9.18a26.427,26.427,0,0,1-6.6-8.611c.037-.216.085-.431.123-.647v-.009c.907-.879,1.928-1.663,2.911-2.473A62.659,62.659,0,0,0,223,218.064l.236-.078a12.263,12.263,0,0,1,2.249,6.853A20.685,20.685,0,0,0,223.884,232.657Z" transform="translate(0 -0.5)"/><path class="cls-24" d="M219.517,211.34c.331.845.709,1.733,1.144,2.6a17.809,17.809,0,0,0,2.117,3.448c.161.2.312.4.454.595l-.236.078a62.659,62.659,0,0,1-15.265,18.317c-.983.81-2,1.594-2.911,2.473a24.772,24.772,0,0,0-2.222-14.6s3.167-5.138,6.947-7.724a32.462,32.462,0,0,0,4.358-3.68c2.306-2.3,4.149-4.724,4.149-5.8C218.052,207.047,218.591,209,219.517,211.34Z" transform="translate(0 -0.5)"/><path class="cls-28" d="M216.162,193.256c2.835,4.3,4.83,12.912,3.355,18.084-.926-2.344-1.465-4.293-1.465-4.293,0,1.078-1.843,3.5-4.149,5.8l-1.021-.311a12.472,12.472,0,0,1-7.07-2.422c-1.418-1.069-2.59-2.448-4.234-3.2a10.371,10.371,0,0,0-4.339-.75,25.934,25.934,0,0,0-7.59,1.138,55.834,55.834,0,0,1-6.049,1.879c1.333-3.594,4.622-10.9,10.822-15.929,8.507-6.9,17.959-7.758,21.74-8.62C216.162,184.636,213.326,188.946,216.162,193.256Z" transform="translate(0 -0.5)"/><path class="cls-29" d="M212.882,212.538l1.021.311a32.462,32.462,0,0,1-4.358,3.68c-3.78,2.586-6.947,7.724-6.947,7.724a17.644,17.644,0,0,0-3.45-5.138c-2.835-2.586-4.726-7.758-4.726-7.758-1.351,1.233-6.1,4.233-10.756,8.379l-.009-.009a20.7,20.7,0,0,0-.775-8.37s.227-.827.718-2.172a55.834,55.834,0,0,0,6.049-1.879,25.934,25.934,0,0,1,7.59-1.138,10.371,10.371,0,0,1,4.339.75c1.644.75,2.816,2.129,4.234,3.2A12.472,12.472,0,0,0,212.882,212.538Z" transform="translate(0 -0.5)"/><path class="cls-2" d="M211.294,248.121c-1.749,4.4-3.176,9.5-6.049,15.041a26.35,26.35,0,0,0-.425-5.258,13.09,13.09,0,0,0-4.49-8c.718-.836,1.843-2.87,3.544-7.516a21.006,21.006,0,0,0,.823-2.879A26.427,26.427,0,0,0,211.294,248.121Z" transform="translate(0 -0.5)"/><path class="cls-30" d="M200.33,249.905a13.09,13.09,0,0,1,4.49,8,26.35,26.35,0,0,1,.425,5.258,50.932,50.932,0,0,1-4.206,6.81s.586-.112,1.6-.31a14.935,14.935,0,0,1-2.079,1.905,34.024,34.024,0,0,1-3.819-15.688,3.255,3.255,0,0,0-.217-1.535,3.788,3.788,0,0,0-2.458-1.551,50.715,50.715,0,0,0-18.072-2.017h-.009v-.018c.151-.206.312-.405.482-.612a24.876,24.876,0,0,1,17.013-3.448A14.64,14.64,0,0,1,200.33,249.905Z" transform="translate(0 -0.5)"/><path class="cls-4" d="M203.581,236.786a11.161,11.161,0,0,0-3.951-5.207,3.232,3.232,0,0,0-1.389-.681,3.926,3.926,0,0,0-1.663.216c-7.959,2.37-14.8,7.06-21.475,11.671a3.674,3.674,0,0,0-.908.8,10.452,10.452,0,0,0-1.361-1.431c0-.379-.047-10.24,5.52-17.007a47.64,47.64,0,0,1,5.312-5.413c4.66-4.146,9.405-7.146,10.756-8.379,0,0,1.891,5.172,4.726,7.758a17.644,17.644,0,0,1,3.45,5.138,24.772,24.772,0,0,1,2.222,14.6v.009c-.1.095-.2.19-.293.293A22.281,22.281,0,0,1,203.581,236.786Z" transform="translate(0 -0.5)"/><path class="cls-3" d="M204.527,239.156a2.449,2.449,0,0,0,.17.354,21.006,21.006,0,0,1-.823,2.879c-1.7,4.646-2.826,6.68-3.544,7.516a14.64,14.64,0,0,0-6.853-3.207,24.876,24.876,0,0,0-17.013,3.448c-.17.207-.331.406-.482.612.009-.12.009-.181.009-.181a8.611,8.611,0,0,0-1.8-6.99,3.674,3.674,0,0,1,.908-.8c6.673-4.611,13.516-9.3,21.475-11.671a3.926,3.926,0,0,1,1.663-.216,3.232,3.232,0,0,1,1.389.681,11.161,11.161,0,0,1,3.951,5.207A22.281,22.281,0,0,0,204.527,239.156Z" transform="translate(0 -0.5)"/><path class="cls-5" d="M231.6,250.25c-1.664-2.284-4.017-4.051-6.125-6.008s-4.074-4.224-4.594-6.922l-.141-.379a9.514,9.514,0,0,0-3.63,2c-2.769,2.525-4.4,5.628-5.813,9.18-1.749,4.4-3.176,9.5-6.049,15.041a50.932,50.932,0,0,1-4.206,6.81s.586-.112,1.6-.31c5.255-1.035,22-4.414,26.758-6.586a34.871,34.871,0,0,0,4.6-2.638c.341-.232.69-.474,1.04-.724C234.461,256.378,233.629,253.051,231.6,250.25Z" transform="translate(0 -0.5)"/><path class="cls-31" d="M166.18,238.518a36.817,36.817,0,0,0-8.147-1.732c-.17-.018-.34-.035-.511-.043l.038-.388a32.583,32.583,0,0,0-3.667-10.034c-.284-.5-.586-.991-.917-1.482,1.1-5.319,5.69-14.154,9.66-21.127,3.355-5.888,6.266-10.456,6.266-10.456s4.726,1.724,10.4,10.344a27.914,27.914,0,0,1,3.583,7.757,20.7,20.7,0,0,1,.775,8.37l.009.009a47.64,47.64,0,0,0-5.312,5.413c-5.567,6.767-5.52,16.628-5.52,17.007A19.478,19.478,0,0,0,166.18,238.518Z" transform="translate(0 -0.5)"/><path class="cls-32" d="M172.834,242.156a10.452,10.452,0,0,1,1.361,1.431,8.611,8.611,0,0,1,1.8,6.99s0,.061-.009.181a16.743,16.743,0,0,0-3.469,7.457,13.747,13.747,0,0,1-6.257,3.646c4.376-8.318,1.777-15.835-.076-23.343A19.478,19.478,0,0,1,172.834,242.156Z" transform="translate(0 -0.5)"/><path class="cls-5" d="M196.738,255.879a3.255,3.255,0,0,0-.217-1.535,3.788,3.788,0,0,0-2.458-1.551,50.715,50.715,0,0,0-18.072-2.017h-.009v-.018a15.37,15.37,0,0,0-1.626,17.645,70.077,70.077,0,0,0,4,6.741,23.213,23.213,0,0,1,3.781,11.206c2.836-5.172,10.4-9.482,17.013-13.792.511-.328.974-.664,1.409-.991A34.024,34.024,0,0,1,196.738,255.879Z" transform="translate(0 -0.5)"/><path class="cls-33" d="M166.246,261.861h.01a13.747,13.747,0,0,0,6.257-3.646,16.627,16.627,0,0,0,1.843,10.188,14.486,14.486,0,0,1-1.739,2.258,19.1,19.1,0,0,1-9.6-.853,2.832,2.832,0,0,1-1.626-1.129,2.428,2.428,0,0,1-.189-1.215c.019-1.578.029-3.155.047-4.733v-.1A21.327,21.327,0,0,0,166.246,261.861Z" transform="translate(0 -0.5)"/><path class="cls-34" d="M172.617,270.661c-1.021,1.13-2.439,2.457-4.66,4.483-3.781,3.448-16.068,6.034-16.068,6.034s4.726-5.172,3.781-11.206,1.626-7.37,1.626-7.37c1.247.06,2.438.078,3.572.043.123,0,.256-.009.378-.017v.1c-.018,1.578-.028,3.155-.047,4.733a2.428,2.428,0,0,0,.189,1.215,2.832,2.832,0,0,0,1.626,1.129A19.1,19.1,0,0,0,172.617,270.661Z" transform="translate(0 -0.5)"/><path class="cls-28" d="M141.738,240.966a26.52,26.52,0,0,1,15.784-4.223c.171.008.341.025.511.043a36.817,36.817,0,0,1,8.147,1.732c1.853,7.508,4.452,15.025.076,23.343h-.01a21.327,21.327,0,0,1-5,.767c-.122.008-.255.017-.378.017-1.134.035-2.325.017-3.572-.043-1.371-.069-2.8-.19-4.263-.362a88.53,88.53,0,0,1-18.97-4.517c-1.484-.543-2.911-1.112-4.254-1.707a41.029,41.029,0,0,1-6.247-3.37c-.17-.112-.34-.233-.5-.345a44.809,44.809,0,0,0,9.868-4.051,9.875,9.875,0,0,0,2.419-1.983A27.085,27.085,0,0,1,141.738,240.966Z" transform="translate(0 -0.5)"/><path class="cls-3" d="M162.636,203.712c-3.97,6.973-8.564,15.808-9.66,21.127a18.994,18.994,0,0,0-5.813-5.724c-2.448-1.491-4.423-2.689-6.068-3.775a47.817,47.817,0,0,0,6.068-3.983c3.951-3,7.495-7.137,11.068-10.507l.048-.078A19.3,19.3,0,0,1,162.636,203.712Z" transform="translate(0 -0.5)"/><path class="cls-4" d="M158.279,200.772l-.048.078c-3.573,3.37-7.117,7.508-11.068,10.507a47.817,47.817,0,0,1-6.068,3.983c-4.074-2.672-6.087-4.612-8.11-8.293a51.953,51.953,0,0,1-1.389,11.129,11.744,11.744,0,0,1-4.282-.785l-.35.147a10.68,10.68,0,0,1-.595-8.767c2.836-7.757,3.781-12.929-1.89-15.515C124.479,193.256,146.6,194.738,158.279,200.772Z" transform="translate(0 -0.5)"/><path class="cls-30" d="M157.56,236.355l-.038.388a26.52,26.52,0,0,0-15.784,4.223c-.945-1.517-2.656-2.482-4.131-3.629.511-.448,1.021-.9,1.531-1.336,4.311-3.715,8.772-7.533,14.311-9.464l.444-.216A32.583,32.583,0,0,1,157.56,236.355Z" transform="translate(0 -0.5)"/><path class="cls-3" d="M153.033,262.24l-.057.422a78.141,78.141,0,0,1-18.025,13.24l-.264-.431a8.483,8.483,0,0,1-4.764-6.758c-.208-2.784,2.467-8.792,4.007-9.947l.133-1.043A88.53,88.53,0,0,0,153.033,262.24Z" transform="translate(0 -0.5)"/><path class="cls-30" d="M137.607,237.337c1.475,1.147,3.186,2.112,4.131,3.629a27.085,27.085,0,0,0-6.39,5.3,9.875,9.875,0,0,1-2.419,1.983q-.7-2.379-1.22-4.577A33.455,33.455,0,0,1,137.607,237.337Z" transform="translate(0 -0.5)"/><path class="cls-5" d="M132.985,207.047c2.023,3.681,4.036,5.621,8.11,8.293a20.573,20.573,0,0,1-9.5,2.836A51.953,51.953,0,0,0,132.985,207.047Z" transform="translate(0 -0.5)"/><path class="cls-5" d="M152.976,224.839a18.994,18.994,0,0,0-5.813-5.724c-2.448-1.491-4.423-2.689-6.068-3.775a20.573,20.573,0,0,1-9.5,2.836c-.151.6-.312,1.206-.5,1.8a20.693,20.693,0,0,0-.548,2.086,30.381,30.381,0,0,0-.6,4.017,37.728,37.728,0,0,0-.1,4.793,60.816,60.816,0,0,0,1.21,9.852c.2.957.407,1.939.652,2.948a33.455,33.455,0,0,1,5.9-6.336c.511-.448,1.021-.9,1.531-1.336,4.311-3.715,8.772-7.533,14.311-9.464l.444-.216C153.609,225.821,153.307,225.33,152.976,224.839Z" transform="translate(0 -0.5)"/><path class="cls-3" d="M127.314,217.391a11.744,11.744,0,0,0,4.282.785c-.151.6-.312,1.206-.5,1.8a20.693,20.693,0,0,0-.548,2.086A14.9,14.9,0,0,1,127,217.615l-.009-.008a.532.532,0,0,0-.029-.069Z" transform="translate(0 -0.5)"/><path class="cls-28" d="M129.951,226.08a37.728,37.728,0,0,0-.1,4.793H129.8c-3.79.844-4.319,3.387-13.6,3.723a35.532,35.532,0,0,1-16.153-11.5l-.086.009a15.6,15.6,0,0,0-1-3.991c-1.891-4.31-7.562-8.62-7.562-8.62s14.178-.862,23.63,1.724c9.159,2.509,11.815,5.224,11.966,5.388l.009.008a14.9,14.9,0,0,0,3.545,4.448A30.381,30.381,0,0,0,129.951,226.08Z" transform="translate(0 -0.5)"/><path class="cls-32" d="M116.2,234.6c9.282-.336,9.811-2.879,13.6-3.723h.047a60.816,60.816,0,0,0,1.21,9.852,39.474,39.474,0,0,0-16.975-6.094C114.838,234.631,115.537,234.622,116.2,234.6Z" transform="translate(0 -0.5)"/><path class="cls-4" d="M134.687,275.471a8.483,8.483,0,0,1-4.764-6.758c-.208-2.784,2.467-8.792,4.007-9.947l.133-1.043c-1.484-.543-2.911-1.112-4.254-1.707,0,0-1.077.354-2.58.975a29.011,29.011,0,0,0-7.259,4.025,5.739,5.739,0,0,0-2.108,2.922c-.841,3.836-.189,9.034-4.026,13.774a15.676,15.676,0,0,1-1.645,1.742c-5.283,4.818-4,4.4,6.153,2.224.738-.156,1.522-.328,2.354-.5a55.254,55.254,0,0,0,14.253-5.276Z" transform="translate(0 -0.5)"/><path class="cls-26" d="M123.061,252.3a44.809,44.809,0,0,0,9.868-4.051q-.7-2.379-1.22-4.577c-.245-1.009-.453-1.991-.652-2.948a39.474,39.474,0,0,0-16.975-6.094c-1.352-.121-2.609-.2-3.781-.207v.207c2,1.663,5.917,4.18,7.92,5.844a15.619,15.619,0,0,1,3.139,3.146,12.786,12.786,0,0,1,.793,10.6,20.143,20.143,0,0,1-13.355,7.137,38.5,38.5,0,0,0,11.172-.345,29.011,29.011,0,0,1,7.259-4.025c1.5-.621,2.58-.975,2.58-.975a41.029,41.029,0,0,1-6.247-3.37C123.392,252.534,123.222,252.413,123.061,252.3Z" transform="translate(0 -0.5)"/><path class="cls-25" d="M121.36,243.621a12.786,12.786,0,0,1,.793,10.6,20.143,20.143,0,0,1-13.355,7.137,17.094,17.094,0,0,1-7.543-2.888h-.009c-1.493-1.008-2.769-2.129-4.178-3.155C92.342,251.87,81,251.008,81,251.008c3.781-.862,7.561-5.172,13.233-10.343,3.554-3.241,6.739-5.129,10.945-5.87a26.992,26.992,0,0,1,5.123-.371v.207c2,1.663,5.917,4.18,7.92,5.844A15.619,15.619,0,0,1,121.36,243.621Z" transform="translate(0 -0.5)"/><path class="cls-30" d="M107.475,261.473c.444-.017.888-.052,1.323-.112a38.5,38.5,0,0,0,11.172-.345,5.739,5.739,0,0,0-2.108,2.922c-.841,3.836-.189,9.034-4.026,13.774,0,0-.359.13-1,.328l-.038-.1c-3.667-2.974-9.093-2.948-13.809-4.19a1.424,1.424,0,0,1-.832-.448,1.087,1.087,0,0,1-.085-.845c.492-2.37,2.476-4.215,4.367-5.9,1.522-1.362,2.968-5.7,5.028-5.2Z" transform="translate(0 -0.5)"/><path class="cls-32" d="M116.2,234.6c-.662.026-1.361.035-2.117.035-1.352-.121-2.609-.2-3.781-.207a26.992,26.992,0,0,0-5.123.371c-4.329-4.19-4.688-8.181-5.218-11.689l.086-.009A35.532,35.532,0,0,0,116.2,234.6Z" transform="translate(0 -0.5)"/><path class="cls-5" d="M112.8,277.937l.038.1a77.234,77.234,0,0,1-12.061,2.793c-.9.129-1.824.25-2.76.345A64.855,64.855,0,0,1,81,280.316c4.726-2.586,8.507-6.9,11.342-14.654,2.77-7.568,8.62-7.215,8.9-7.189h.009a17.094,17.094,0,0,0,7.543,2.888c-.435.06-.879.1-1.323.112l-.01-.121c-2.06-.5-3.506,3.836-5.028,5.2-1.891,1.689-3.875,3.534-4.367,5.9a1.087,1.087,0,0,0,.085.845,1.424,1.424,0,0,0,.832.448C103.7,274.989,109.129,274.963,112.8,277.937Z" transform="translate(0 -0.5)"/></g></g><g id="Layer_3" data-name="Layer 3"><path id="Bg-2" data-name="Bg" class="cls-35" d="M38,.5H278a37.983,37.983,0,0,1,38,38v311a37.983,37.983,0,0,1-38,38H38a37.983,37.983,0,0,1-38-38V38.5A37.983,37.983,0,0,1,38,.5Z" transform="translate(0 -0.5)"/><path class="cls-36" d="M25.036,323.958q1.071-.151,2.422-.254t2.78-.154q1.427-.05,2.78-.076t2.422-.025a22.138,22.138,0,0,1,8.109,1.326,13.812,13.812,0,0,1,5.457,3.723,14.933,14.933,0,0,1,3.06,5.711,25.971,25.971,0,0,1,.969,7.293,26.438,26.438,0,0,1-.918,6.988,15.812,15.812,0,0,1-3.06,5.967,15.346,15.346,0,0,1-5.636,4.182,20.961,20.961,0,0,1-8.644,1.58q-.816,0-2.168-.051t-2.8-.126q-1.455-.078-2.78-.154t-1.989-.179ZM36,329.67q-1.122,0-2.27.052a13.884,13.884,0,0,0-1.708.153v23.918a4.051,4.051,0,0,0,.688.078c.323.017.671.034,1.046.05l1.071.051c.339.018.594.026.765.026a10.4,10.4,0,0,0,4.922-1.045,8.37,8.37,0,0,0,3.11-2.781,11.167,11.167,0,0,0,1.607-4,23.474,23.474,0,0,0,.459-4.667,22.2,22.2,0,0,0-.408-4.207,10.552,10.552,0,0,0-1.5-3.8,8.491,8.491,0,0,0-2.984-2.754A9.62,9.62,0,0,0,36,329.67Z" transform="translate(0 -0.5)"/><path class="cls-36" d="M78.28,357.465a12.959,12.959,0,0,1-4.157,2.066,18.2,18.2,0,0,1-5.584.842q-6.172,0-9.027-3.6t-2.856-9.868q0-6.733,3.213-10.1t9.027-3.366a14.028,14.028,0,0,1,3.773.51,8.8,8.8,0,0,1,3.265,1.682,8.317,8.317,0,0,1,2.3,3.162,12.422,12.422,0,0,1,.867,4.948,22.243,22.243,0,0,1-.128,2.295q-.128,1.224-.383,2.549h-15.3a7.473,7.473,0,0,0,1.657,4.846q1.5,1.632,4.87,1.632a10.851,10.851,0,0,0,6.273-1.939Zm-9.487-18.716a4.643,4.643,0,0,0-3.85,1.555,7.692,7.692,0,0,0-1.5,4.156h9.487a6.425,6.425,0,0,0-.842-4.232A3.75,3.75,0,0,0,68.793,338.749Z" transform="translate(0 -0.5)"/><path class="cls-36" d="M101.587,358.078a11.09,11.09,0,0,1-3.7,1.709,17.1,17.1,0,0,1-4.463.586,12.413,12.413,0,0,1-5.177-.969,8.824,8.824,0,0,1-3.442-2.729,11.218,11.218,0,0,1-1.912-4.258,24.053,24.053,0,0,1-.587-5.508q0-6.477,2.907-9.971t8.466-3.493a17.965,17.965,0,0,1,4.513.459,15.27,15.27,0,0,1,3.086,1.173L99.7,340.483a13.37,13.37,0,0,0-2.321-.867,10.221,10.221,0,0,0-2.626-.306,5.005,5.005,0,0,0-4.182,1.811q-1.428,1.81-1.428,5.788a11.952,11.952,0,0,0,.357,3.008,7.322,7.322,0,0,0,1.071,2.4,5,5,0,0,0,1.862,1.606,5.8,5.8,0,0,0,2.677.586,8.253,8.253,0,0,0,2.856-.433,9.959,9.959,0,0,0,2.091-1.045Z" transform="translate(0 -0.5)"/><path class="cls-36" d="M105.462,335.637a21.916,21.916,0,0,1,4.846-1.453,31.291,31.291,0,0,1,5.864-.535,13.316,13.316,0,0,1,4.437.638,6.391,6.391,0,0,1,4.31,4.615,14.317,14.317,0,0,1,.434,3.672q0,2.244-.153,4.513t-.179,4.462q-.027,2.195.127,4.259a15.977,15.977,0,0,0,.766,3.9h-5.407l-1.07-3.518h-.255a9.088,9.088,0,0,1-2.831,2.728,8.588,8.588,0,0,1-4.666,1.148,9.09,9.09,0,0,1-3.213-.536,6.866,6.866,0,0,1-4.03-3.876,7.845,7.845,0,0,1-.561-3.034,7.089,7.089,0,0,1,1.046-3.953,7.562,7.562,0,0,1,3.009-2.6,14.947,14.947,0,0,1,4.692-1.377,33.336,33.336,0,0,1,6.095-.23,6.625,6.625,0,0,0-.409-4.1q-.763-1.25-3.417-1.249a23.29,23.29,0,0,0-4.207.408,15.486,15.486,0,0,0-3.647,1.07Zm8.415,18.973a5.1,5.1,0,0,0,3.163-.893,6.222,6.222,0,0,0,1.733-1.912V348.49a18.126,18.126,0,0,0-3.034-.051,11.112,11.112,0,0,0-2.575.459,4.337,4.337,0,0,0-1.786,1.019,2.284,2.284,0,0,0-.663,1.684,2.9,2.9,0,0,0,.842,2.218A3.249,3.249,0,0,0,113.877,354.61Z" transform="translate(0 -0.5)"/><path class="cls-36" d="M128.565,334.159h3.519v-1.428q0-4.846,2.04-7.013a7.738,7.738,0,0,1,5.916-2.168,20.349,20.349,0,0,1,6.783.97l-1.275,5.3a11.29,11.29,0,0,0-2.066-.535,13.148,13.148,0,0,0-1.861-.128,3.5,3.5,0,0,0-1.606.305,1.882,1.882,0,0,0-.868.945,4.9,4.9,0,0,0-.356,1.58c-.052.63-.077,1.351-.077,2.168h5.61v5.61h-5.61v19.89h-6.63v-19.89h-3.519Z" transform="translate(0 -0.5)"/><path class="cls-36" d="M33.226,305.168h-3.06v8.67H28.111v-8.67H25.036v-1.83h8.19Z" transform="translate(0 -0.5)"/><path class="cls-36" d="M40.186,309.444h-3.84v4.394H34.291v-10.5h2.055v4.276h3.84v-4.276h2.055v10.5H40.186Z" transform="translate(0 -0.5)"/><path class="cls-36" d="M49.756,303.338h1.95v6.781a5.106,5.106,0,0,1-.27,1.755,3.291,3.291,0,0,1-.75,1.214,2.884,2.884,0,0,1-1.17.7,4.835,4.835,0,0,1-1.515.225q-3.99,0-3.99-3.644v-7.036h2.055v6.63a4.16,4.16,0,0,0,.112,1.043,1.616,1.616,0,0,0,.353.69,1.347,1.347,0,0,0,.6.375,2.82,2.82,0,0,0,.84.112,1.649,1.649,0,0,0,1.365-.524,2.725,2.725,0,0,0,.42-1.7Z" transform="translate(0 -0.5)"/><path class="cls-36" d="M53.46,303.444q.345-.06.743-.113c.265-.035.53-.063.795-.082s.523-.036.773-.045.479-.016.689-.016a7.681,7.681,0,0,1,1.448.136,3.952,3.952,0,0,1,1.275.465,2.478,2.478,0,0,1,.9.907,2.832,2.832,0,0,1,.337,1.447,3.442,3.442,0,0,1-.6,2.1,3.091,3.091,0,0,1-1.6,1.125l.736.464,2.4,4H58.98l-2.384-4.11-1.08-.194v4.3H53.46Zm3.15,1.574c-.21,0-.417.006-.622.016a2.261,2.261,0,0,0-.472.059v3.045h.87a2.192,2.192,0,0,0,1.364-.389,1.525,1.525,0,0,0,.511-1.291,1.354,1.354,0,0,0-.421-1.057A1.767,1.767,0,0,0,56.61,305.018Z" transform="translate(0 -0.5)"/><path class="cls-36" d="M67.021,311.018a.976.976,0,0,0-.353-.779,3.89,3.89,0,0,0-.885-.548q-.533-.247-1.155-.51a5.9,5.9,0,0,1-1.155-.645,3.292,3.292,0,0,1-.885-.953,2.724,2.724,0,0,1-.352-1.455,3.193,3.193,0,0,1,.255-1.327,2.488,2.488,0,0,1,.727-.937,3.13,3.13,0,0,1,1.118-.556,5.354,5.354,0,0,1,1.44-.18,9.03,9.03,0,0,1,1.725.158,4.357,4.357,0,0,1,1.335.458l-.645,1.724a3.673,3.673,0,0,0-.99-.383,5.668,5.668,0,0,0-1.425-.171,1.817,1.817,0,0,0-1.1.285.9.9,0,0,0-.382.764.942.942,0,0,0,.353.75,4.011,4.011,0,0,0,.884.555q.532.257,1.155.525a6.206,6.206,0,0,1,1.155.653,3.326,3.326,0,0,1,.885.945,2.6,2.6,0,0,1,.353,1.4,3.464,3.464,0,0,1-.278,1.448,2.75,2.75,0,0,1-.779,1.012,3.308,3.308,0,0,1-1.216.6,5.924,5.924,0,0,1-1.567.195,8.351,8.351,0,0,1-1.98-.21,6,6,0,0,1-1.26-.42l.66-1.754a4.084,4.084,0,0,0,.427.194,5.293,5.293,0,0,0,.593.195,6.535,6.535,0,0,0,.7.151,4.68,4.68,0,0,0,.757.059,2.639,2.639,0,0,0,1.4-.307A1.034,1.034,0,0,0,67.021,311.018Z" transform="translate(0 -0.5)"/><path class="cls-36" d="M75.3,303.338h2.055v7.68a4.651,4.651,0,0,1-.135,1.141,2.654,2.654,0,0,1-.442.952,2.247,2.247,0,0,1-.788.66,2.529,2.529,0,0,1-1.17.247,5.365,5.365,0,0,1-.945-.09,3.791,3.791,0,0,1-.885-.255l.45-1.679a1.956,1.956,0,0,0,.886.194.754.754,0,0,0,.8-.465,3.608,3.608,0,0,0,.172-1.229Z" transform="translate(0 -0.5)"/><path class="cls-36" d="M84.42,311.513H81.195l-.795,2.325H78.345l3.78-10.575H83.64l3.78,10.575H85.26Zm-2.7-1.649h2.25l-.78-2.341-.315-1.649H82.8l-.315,1.665Z" transform="translate(0 -0.5)"/><path class="cls-36" d="M90.93,308.364l-.825-1.651H90.03l.241,1.651v5.474H88.32V303.263h1.5l3.975,5.6.8,1.605h.076l-.241-1.605v-5.52h1.95v10.576h-1.5Z" transform="translate(0 -0.5)"/><path class="cls-36" d="M102.585,312.188h2.085v-5.925l.226-1.019-.72.884-1.336.915-.824-1.125,3.42-2.759h1.094v9.029h2.04v1.65h-5.985Z" transform="translate(0 -0.5)"/><path class="cls-36" d="M117.375,310.583a3.7,3.7,0,0,1-.247,1.366,3.216,3.216,0,0,1-1.785,1.83,3.58,3.58,0,0,1-1.4.269,4,4,0,0,1-1.432-.247,3.073,3.073,0,0,1-1.133-.743,3.431,3.431,0,0,1-.75-1.245,5.127,5.127,0,0,1-.27-1.739,7.992,7.992,0,0,1,.427-2.686,7.007,7.007,0,0,1,1.155-2.093,5.981,5.981,0,0,1,1.7-1.439,6.207,6.207,0,0,1,2.048-.728l.434,1.545a4.27,4.27,0,0,0-1.38.465,5.021,5.021,0,0,0-1.117.825,4.933,4.933,0,0,0-.825,1.073,4.237,4.237,0,0,0-.473,1.222,2.55,2.55,0,0,1,.781-.637,2.471,2.471,0,0,1,1.2-.263,3.552,3.552,0,0,1,1.245.211,2.609,2.609,0,0,1,.976.622,2.858,2.858,0,0,1,.629,1.013A3.91,3.91,0,0,1,117.375,310.583Zm-1.89.1a1.472,1.472,0,0,0-1.65-1.68,1.808,1.808,0,0,0-1.013.271,1.52,1.52,0,0,0-.577.63,1.617,1.617,0,0,0-.03.285v.239a2.487,2.487,0,0,0,.1.713,2.054,2.054,0,0,0,.308.63,1.557,1.557,0,0,0,.518.45,1.534,1.534,0,0,0,.75.172,1.486,1.486,0,0,0,1.147-.48A1.742,1.742,0,0,0,115.485,310.688Z" transform="translate(0 -0.5)"/><path class="cls-36" d="M129,305.9a4.615,4.615,0,0,1-.277,1.545,9.674,9.674,0,0,1-.705,1.529,14.387,14.387,0,0,1-.946,1.448q-.516.7-1.012,1.282l-.8.616v.074l1.08-.21h2.88v1.65H122.91v-1c.24-.25.51-.541.81-.877s.6-.69.908-1.065.6-.763.892-1.163a12.839,12.839,0,0,0,.78-1.207,7.448,7.448,0,0,0,.548-1.178,3.253,3.253,0,0,0,.2-1.08,1.468,1.468,0,0,0-.353-1.013,1.422,1.422,0,0,0-1.117-.4,2.6,2.6,0,0,0-.982.2,2.778,2.778,0,0,0-.848.518l-.78-1.38a4.951,4.951,0,0,1,1.328-.774,4.774,4.774,0,0,1,1.747-.292,3.728,3.728,0,0,1,1.185.18,2.657,2.657,0,0,1,.93.525,2.432,2.432,0,0,1,.615.863A3.01,3.01,0,0,1,129,305.9Z" transform="translate(0 -0.5)"/><path class="cls-36" d="M130.979,308.574a7.176,7.176,0,0,1,.946-4.1,3.489,3.489,0,0,1,5.49-.015,7.551,7.551,0,0,1,.885,4.118,7.213,7.213,0,0,1-.952,4.125,3.135,3.135,0,0,1-2.723,1.349,3.02,3.02,0,0,1-2.76-1.417A7.686,7.686,0,0,1,130.979,308.574Zm1.951,0a7.924,7.924,0,0,0,.4,2.827,1.37,1.37,0,0,0,2.61.082,7.548,7.548,0,0,0,.413-2.909,7.947,7.947,0,0,0-.39-2.806,1.365,1.365,0,0,0-1.335-.989,1.343,1.343,0,0,0-1.3.929A7.739,7.739,0,0,0,132.93,308.574Z" transform="translate(0 -0.5)"/><path class="cls-36" d="M146.009,305.9a4.592,4.592,0,0,1-.278,1.545,9.5,9.5,0,0,1-.7,1.529,14.207,14.207,0,0,1-.945,1.448q-.518.7-1.013,1.282l-.8.616v.074l1.081-.21h2.879v1.65h-6.314v-1c.24-.25.51-.541.81-.877s.6-.69.908-1.065.6-.763.891-1.163a12.853,12.853,0,0,0,.781-1.207,7.351,7.351,0,0,0,.547-1.178,3.23,3.23,0,0,0,.2-1.08,1.473,1.473,0,0,0-.353-1.013,1.422,1.422,0,0,0-1.117-.4,2.6,2.6,0,0,0-.983.2,2.773,2.773,0,0,0-.847.518l-.78-1.38a4.951,4.951,0,0,1,1.328-.774,4.774,4.774,0,0,1,1.747-.292,3.733,3.733,0,0,1,1.185.18,2.657,2.657,0,0,1,.93.525,2.432,2.432,0,0,1,.615.863A3.01,3.01,0,0,1,146.009,305.9Z" transform="translate(0 -0.5)"/><path class="cls-36" d="M147.988,308.574a7.176,7.176,0,0,1,.946-4.1,3.489,3.489,0,0,1,5.49-.015,7.551,7.551,0,0,1,.885,4.118,7.2,7.2,0,0,1-.953,4.125,3.133,3.133,0,0,1-2.722,1.349,3.02,3.02,0,0,1-2.76-1.417A7.686,7.686,0,0,1,147.988,308.574Zm1.95,0a7.92,7.92,0,0,0,.4,2.827,1.37,1.37,0,0,0,2.61.082,7.551,7.551,0,0,0,.412-2.909,7.95,7.95,0,0,0-.389-2.806,1.365,1.365,0,0,0-1.335-.989,1.343,1.343,0,0,0-1.3.929A7.735,7.735,0,0,0,149.938,308.574Z" transform="translate(0 -0.5)"/></g></svg>