<?xml version="1.0" encoding="utf-8"?>
<!-- Generator: Adobe Illustrator 22.1.0, SVG Export Plug-In . SVG Version: 6.00 Build 0)  -->
<svg version="1.1" xmlns="http://www.w3.org/2000/svg" xmlns:xlink="http://www.w3.org/1999/xlink" x="0px" y="0px"
	 viewBox="0 0 316 388" style="enable-background:new 0 0 316 388;" xml:space="preserve">
<style type="text/css">
	.st0{fill:#00609E;}
	.st1{fill:url(#Bg-2_1_);}
	.st2{enable-background:new    ;}
	.st3{fill:#FFFFFF;}
</style>
<g id="Layer_2">
	<path id="Bg" class="st0" d="M38,0.5h240c21,0,38,17,38,38c0,0,0,0,0,0v311c0,21-17,38-38,38c0,0,0,0,0,0H38c-21,0-38-17-38-38
		c0,0,0,0,0,0v-311C0,17.5,17,0.5,38,0.5C38,0.5,38,0.5,38,0.5z"/>
	
		<linearGradient id="Bg-2_1_" gradientUnits="userSpaceOnUse" x1="-8.9981" y1="8.836" x2="376.3019" y2="440.6631" gradientTransform="matrix(1 0 0 -1 0 390)">
		<stop  offset="0" style="stop-color:#000000;stop-opacity:0.4"/>
		<stop  offset="1" style="stop-color:#FFFFFF;stop-opacity:0"/>
	</linearGradient>
	<path id="Bg-2" class="st1" d="M38,0.5h240c21,0,38,17,38,38c0,0,0,0,0,0v311c0,21-17,38-38,38c0,0,0,0,0,0H38c-21,0-38-17-38-38
		c0,0,0,0,0,0v-311C0,17.5,17,0.5,38,0.5C38,0.5,38,0.5,38,0.5z"/>
</g>
<g id="Layer_1">
	<title>flo_acm_ds3_event</title>
	<g>
		<g class="st2">
			<path class="st3" d="M32.6,101.2c0.7-0.1,1.4-0.2,2.2-0.3c0.8-0.1,1.6-0.2,2.3-0.2c0.8-0.1,1.5-0.1,2.3-0.1c0.7,0,1.4,0,2,0
				c1.4,0,2.9,0.1,4.2,0.4c1.4,0.3,2.6,0.7,3.7,1.4c1.1,0.6,2,1.5,2.6,2.7c0.7,1.1,1,2.5,1,4.2c0,2.5-0.6,4.6-1.8,6.2
				c-1.2,1.6-2.7,2.7-4.7,3.3l2.2,1.4l7,11.7h-7l-7-12.1l-3.2-0.6v12.6h-6V101.2z M41.9,105.8c-0.6,0-1.2,0-1.8,0
				c-0.6,0-1.1,0.1-1.4,0.2v8.9h2.6c1.7,0,3-0.4,4-1.1c1-0.8,1.5-2,1.5-3.8c0-1.3-0.4-2.4-1.2-3.1S43.5,105.8,41.9,105.8z"/>
		</g>
		<g class="st2">
			<path class="st3" d="M74.5,129.8c-0.9,0.7-2.1,1.3-3.6,1.8c-1.5,0.5-3.1,0.7-4.8,0.7c-3.5,0-6.1-1-7.8-3.1
				c-1.6-2.1-2.5-4.9-2.5-8.5c0-3.9,0.9-6.8,2.8-8.7c1.8-1.9,4.4-2.9,7.8-2.9c1.1,0,2.2,0.1,3.3,0.4s2,0.8,2.8,1.5
				c0.8,0.7,1.5,1.6,2,2.7c0.5,1.1,0.7,2.6,0.7,4.3c0,0.6,0,1.3-0.1,2c-0.1,0.7-0.2,1.4-0.3,2.2H61.5c0.1,1.8,0.6,3.2,1.4,4.2
				c0.9,0.9,2.3,1.4,4.2,1.4c1.2,0,2.3-0.2,3.2-0.5c1-0.4,1.7-0.7,2.2-1.1L74.5,129.8z M66.3,113.7c-1.5,0-2.6,0.4-3.3,1.3
				c-0.7,0.9-1.2,2.1-1.3,3.6h8.2c0.1-1.6-0.1-2.8-0.7-3.7C68.5,114.1,67.6,113.7,66.3,113.7z"/>
			<path class="st3" d="M88.3,125.6c0-0.6-0.2-1.1-0.7-1.4c-0.5-0.4-1.1-0.7-1.8-1c-0.7-0.3-1.5-0.6-2.4-0.9
				c-0.9-0.3-1.7-0.7-2.4-1.3c-0.7-0.5-1.3-1.2-1.8-2.1c-0.5-0.8-0.7-1.9-0.7-3.2c0-2.2,0.6-3.8,1.9-5c1.3-1.1,3.2-1.7,5.6-1.7
				c1.7,0,3.2,0.2,4.5,0.5c1.3,0.4,2.4,0.7,3.2,1.2l-1.3,4.1c-0.7-0.3-1.5-0.5-2.6-0.8c-1-0.3-2.1-0.4-3.1-0.4c-1.7,0-2.6,0.7-2.6,2
				c0,0.5,0.2,1,0.7,1.3c0.5,0.3,1.1,0.6,1.8,0.9c0.7,0.3,1.5,0.6,2.4,0.9c0.9,0.3,1.7,0.7,2.4,1.3c0.7,0.5,1.3,1.2,1.8,2
				c0.5,0.8,0.7,1.9,0.7,3.2c0,2.2-0.7,4-2.1,5.3c-1.4,1.3-3.6,1.9-6.4,1.9c-1.6,0-3-0.2-4.4-0.6c-1.4-0.4-2.5-0.9-3.3-1.4l1.6-4.3
				c0.7,0.4,1.6,0.8,2.7,1.1c1.1,0.4,2.3,0.5,3.4,0.5c0.9,0,1.5-0.2,2-0.5C88.1,126.9,88.3,126.4,88.3,125.6z"/>
			<path class="st3" d="M103.3,109.7v12.5c0,1.8,0.2,3.1,0.6,3.9c0.4,0.8,1.3,1.2,2.5,1.2c1.1,0,2-0.3,2.7-1
				c0.7-0.6,1.3-1.4,1.6-2.4v-14.2h5.7V125c0,1.2,0.1,2.4,0.2,3.5c0.1,1.2,0.3,2.2,0.5,3.1h-4.3l-1-3.3h-0.2c-0.7,1.1-1.6,2-2.8,2.8
				c-1.2,0.7-2.6,1.1-4.3,1.1c-1.1,0-2.1-0.1-3-0.4s-1.6-0.8-2.2-1.5c-0.6-0.7-1-1.6-1.3-2.7c-0.3-1.1-0.5-2.6-0.5-4.3v-13.7H103.3z
				"/>
			<path class="st3" d="M134,131.7v-12c0-2-0.2-3.5-0.6-4.3c-0.4-0.9-1.2-1.3-2.4-1.3c-1,0-1.8,0.3-2.4,0.8
				c-0.6,0.5-1.1,1.2-1.4,2.1v14.7h-5.7v-22h4.4l0.7,2.9h0.2c0.7-0.9,1.5-1.8,2.6-2.5c1-0.7,2.4-1.1,4-1.1c1.4,0,2.6,0.3,3.5,0.9
				c0.9,0.6,1.6,1.5,2.1,2.9c0.7-1.1,1.5-2.1,2.6-2.7c1.1-0.7,2.3-1,3.8-1c1.2,0,2.3,0.1,3.1,0.4c0.9,0.3,1.6,0.8,2.1,1.5
				c0.5,0.7,0.9,1.7,1.2,2.9c0.3,1.2,0.4,2.7,0.4,4.6v13.2h-5.7v-12.4c0-1.7-0.2-3-0.5-3.9c-0.4-0.9-1.2-1.3-2.4-1.3
				c-1,0-1.8,0.3-2.4,0.8c-0.6,0.6-1,1.3-1.3,2.3v14.4H134z"/>
			<path class="st3" d="M174.5,129.8c-0.9,0.7-2.1,1.3-3.6,1.8c-1.5,0.5-3.1,0.7-4.8,0.7c-3.5,0-6.1-1-7.8-3.1
				c-1.6-2.1-2.5-4.9-2.5-8.5c0-3.9,0.9-6.8,2.8-8.7c1.8-1.9,4.4-2.9,7.8-2.9c1.1,0,2.2,0.1,3.3,0.4c1.1,0.3,2,0.8,2.8,1.5
				c0.8,0.7,1.5,1.6,2,2.7c0.5,1.1,0.7,2.6,0.7,4.3c0,0.6,0,1.3-0.1,2c-0.1,0.7-0.2,1.4-0.3,2.2h-13.2c0.1,1.8,0.6,3.2,1.4,4.2
				c0.9,0.9,2.3,1.4,4.2,1.4c1.2,0,2.3-0.2,3.2-0.5c1-0.4,1.7-0.7,2.2-1.1L174.5,129.8z M166.3,113.7c-1.5,0-2.6,0.4-3.3,1.3
				c-0.7,0.9-1.2,2.1-1.3,3.6h8.2c0.1-1.6-0.1-2.8-0.7-3.7C168.5,114.1,167.6,113.7,166.3,113.7z"/>
			<path class="st3" d="M191.9,123.2c0-1.1,0.2-2.2,0.5-3.2c0.4-1,0.9-2,1.5-2.8c0.7-0.9,1.4-1.7,2.4-2.5c0.9-0.8,1.9-1.4,2.9-2
				c-0.7-1-1.3-2-1.8-2.9c-0.5-1-0.7-2.1-0.7-3.2c0-0.7,0.1-1.5,0.4-2.2c0.3-0.7,0.7-1.4,1.3-2c0.6-0.6,1.4-1.1,2.4-1.5
				c1-0.4,2.1-0.5,3.5-0.5c1.3,0,2.5,0.2,3.5,0.5c1,0.3,1.7,0.7,2.3,1.3c0.6,0.5,1,1.1,1.3,1.8c0.3,0.7,0.4,1.4,0.4,2.1
				c0,1.2-0.4,2.5-1.3,3.8c-0.9,1.3-2.3,2.6-4.4,3.8c1,1.6,2.1,3,3.1,4.4c1,1.3,2.2,2.6,3.4,3.9c0.7-0.7,1.3-1.6,1.8-2.8
				c0.5-1.1,1-2.2,1.4-3.4l4.1,2.2c-0.2,0.5-0.4,1.1-0.7,1.7c-0.3,0.6-0.6,1.3-1,1.9c-0.4,0.6-0.7,1.3-1.1,1.8
				c-0.4,0.6-0.7,1.1-1.1,1.5c0.9,0.9,1.8,1.5,2.5,2c0.7,0.5,1.4,0.9,2.2,1.3l-3,4.2c-0.8-0.4-1.7-0.9-2.5-1.5
				c-0.9-0.6-1.7-1.4-2.6-2.2c-1.1,1-2.4,1.8-4,2.6s-3.5,1.1-5.9,1.1c-1.5,0-3-0.2-4.3-0.6c-1.3-0.4-2.5-1-3.5-1.8s-1.8-1.8-2.3-2.9
				C192.2,125.9,191.9,124.6,191.9,123.2z M209.3,125.1c-1.5-1.6-2.9-3.1-4.1-4.6c-1.2-1.5-2.3-3-3.2-4.4c-1.4,1.1-2.5,2.1-3.2,3.1
				c-0.7,1-1.1,2.1-1.1,3.4c0,1.5,0.5,2.7,1.7,3.5c1.1,0.9,2.5,1.3,4.3,1.3c1.2,0,2.3-0.2,3.3-0.7
				C207.9,126.3,208.7,125.7,209.3,125.1z M202.5,106.8c0,1.2,0.5,2.6,1.6,4c1.1-0.7,2-1.4,2.5-2.1c0.5-0.6,0.8-1.3,0.8-1.8
				c0-0.7-0.2-1.3-0.6-1.7c-0.4-0.4-1-0.6-1.9-0.6c-0.8,0-1.4,0.2-1.8,0.6C202.7,105.6,202.5,106.1,202.5,106.8z"/>
		</g>
		<g class="st2">
			<path class="st3" d="M32.6,150.9h18.3v5.4H38.7v7.2h11.1v5.4H38.7v7.5h12.5v5.4H32.6V150.9z"/>
			<path class="st3" d="M61.4,174.3c0,1,0.1,1.8,0.4,2.2c0.3,0.5,0.7,0.7,1.3,0.7c0.4,0,0.7,0,1-0.1c0.3-0.1,0.8-0.2,1.3-0.4
				l0.6,4.5c-0.5,0.2-1.2,0.5-2.2,0.7c-1,0.2-2,0.4-3,0.4c-1.7,0-2.9-0.4-3.8-1.2c-0.9-0.8-1.3-2.1-1.3-3.9v-26.4h5.7V174.3z"/>
		</g>
		<g class="st2">
			<path class="st3" d="M86,179.8c-0.9,0.7-2.1,1.3-3.6,1.8c-1.5,0.5-3.1,0.7-4.8,0.7c-3.5,0-6.1-1-7.8-3.1
				c-1.6-2.1-2.5-4.9-2.5-8.5c0-3.9,0.9-6.8,2.8-8.7c1.8-1.9,4.4-2.9,7.8-2.9c1.1,0,2.2,0.1,3.3,0.4s2,0.8,2.8,1.5
				c0.8,0.7,1.5,1.6,2,2.7c0.5,1.1,0.7,2.6,0.7,4.3c0,0.6,0,1.3-0.1,2c-0.1,0.7-0.2,1.4-0.3,2.2H73.1c0.1,1.8,0.6,3.2,1.4,4.2
				c0.9,0.9,2.3,1.4,4.2,1.4c1.2,0,2.3-0.2,3.2-0.5c1-0.4,1.7-0.7,2.2-1.1L86,179.8z M77.8,163.7c-1.5,0-2.6,0.4-3.3,1.3
				c-0.7,0.9-1.2,2.1-1.3,3.6h8.2c0.1-1.6-0.1-2.8-0.7-3.7C80.1,164.1,79.1,163.7,77.8,163.7z"/>
		</g>
		<g class="st2">
			<path class="st3" d="M97.8,171.2l0.7,3.4h0.2l0.6-3.5l3.7-11.4h6.2l-9.2,22.2h-3.5L87,159.7h6.6L97.8,171.2z"/>
			<path class="st3" d="M111,161c1.2-0.5,2.6-0.9,4.2-1.3c1.6-0.3,3.3-0.5,5.1-0.5c1.5,0,2.8,0.2,3.8,0.6c1,0.4,1.8,0.9,2.4,1.6
				c0.6,0.7,1,1.5,1.3,2.4c0.2,0.9,0.4,2,0.4,3.2c0,1.3,0,2.6-0.1,3.9c-0.1,1.3-0.1,2.6-0.2,3.8c0,1.3,0,2.5,0.1,3.7
				c0.1,1.2,0.3,2.3,0.7,3.4H124l-0.9-3h-0.2c-0.6,0.9-1.4,1.7-2.4,2.4c-1,0.7-2.4,1-4,1c-1,0-2-0.2-2.8-0.5
				c-0.8-0.3-1.5-0.7-2.1-1.3c-0.6-0.6-1-1.2-1.4-2c-0.3-0.8-0.5-1.6-0.5-2.6c0-1.3,0.3-2.5,0.9-3.4c0.6-0.9,1.5-1.7,2.6-2.2
				c1.1-0.6,2.5-1,4-1.2c1.6-0.2,3.3-0.3,5.3-0.2c0.2-1.6,0.1-2.8-0.4-3.5c-0.4-0.7-1.4-1.1-2.9-1.1c-1.1,0-2.4,0.1-3.6,0.4
				c-1.3,0.2-2.3,0.5-3.1,0.9L111,161z M118.3,177.3c1.1,0,2.1-0.3,2.7-0.8c0.7-0.5,1.2-1.1,1.5-1.7v-2.9c-0.9-0.1-1.8-0.1-2.6,0
				c-0.8,0.1-1.6,0.2-2.2,0.4c-0.6,0.2-1.2,0.5-1.5,0.9c-0.4,0.4-0.6,0.9-0.6,1.5c0,0.8,0.2,1.5,0.7,1.9
				C116.7,177.1,117.4,177.3,118.3,177.3z"/>
		</g>
		<g class="st2">
			<path class="st3" d="M130.7,159.7h3v-4.1l5.7-1.6v5.8h5.4v4.8h-5.4v8.4c0,1.5,0.2,2.6,0.5,3.3c0.3,0.7,0.9,1,1.7,1
				c0.6,0,1.1-0.1,1.5-0.2c0.4-0.1,0.9-0.3,1.4-0.5l1,4.4c-0.8,0.4-1.7,0.7-2.8,1c-1.1,0.3-2.1,0.4-3.2,0.4c-2,0-3.5-0.5-4.5-1.6
				c-1-1-1.4-2.8-1.4-5.1v-11.1h-3V159.7z"/>
		</g>
		<g class="st2">
			<path class="st3" d="M147,170.7c0-3.7,0.9-6.6,2.7-8.6c1.8-2,4.4-3,7.7-3c1.8,0,3.3,0.3,4.6,0.8c1.3,0.6,2.4,1.3,3.2,2.4
				c0.9,1,1.5,2.2,1.9,3.7c0.4,1.4,0.6,3,0.6,4.8c0,3.7-0.9,6.6-2.7,8.6c-1.8,2-4.3,3-7.6,3c-1.8,0-3.3-0.3-4.6-0.8
				c-1.3-0.6-2.4-1.3-3.2-2.4c-0.9-1-1.5-2.2-1.9-3.7C147.3,174,147,172.4,147,170.7z M152.9,170.7c0,1,0.1,1.9,0.3,2.7
				c0.2,0.8,0.4,1.5,0.8,2.2s0.8,1.1,1.4,1.4c0.6,0.3,1.3,0.5,2,0.5c1.5,0,2.6-0.5,3.3-1.6c0.7-1.1,1.1-2.8,1.1-5.1
				c0-2-0.3-3.7-1-4.9c-0.7-1.2-1.8-1.9-3.4-1.9c-1.4,0-2.5,0.5-3.3,1.6C153.3,166.6,152.9,168.3,152.9,170.7z"/>
			<path class="st3" d="M183.9,165.1c-0.9-0.3-1.7-0.5-2.5-0.5c-1,0-1.9,0.3-2.6,0.8s-1.2,1.2-1.4,2.1v14.2h-5.7v-22h4.4l0.7,2.9
				h0.2c0.5-1.1,1.2-1.9,2-2.5s1.8-0.9,3-0.9c0.8,0,1.6,0.2,2.6,0.5L183.9,165.1z"/>
		</g>
		<g class="st2">
			<path class="st3" d="M32.6,201.2c1.2-0.2,2.6-0.4,4.1-0.5c1.5-0.1,3-0.2,4.4-0.2c1.5,0,3.1,0.1,4.6,0.4c1.5,0.2,2.9,0.7,4.2,1.5
				c1.2,0.7,2.2,1.8,3,3.1c0.8,1.3,1.2,3.1,1.2,5.2c0,1.9-0.3,3.6-1,4.9c-0.7,1.3-1.6,2.4-2.7,3.3c-1.1,0.9-2.4,1.5-3.8,1.8
				c-1.4,0.4-2.9,0.6-4.4,0.6c-0.1,0-0.4,0-0.7,0c-0.3,0-0.7,0-1,0c-0.4,0-0.7,0-1-0.1c-0.3,0-0.6-0.1-0.7-0.1v10.6h-6V201.2z
				 M41.6,205.6c-0.6,0-1.1,0-1.7,0.1c-0.5,0-1,0.1-1.3,0.2v10c0.1,0,0.3,0.1,0.5,0.1s0.5,0.1,0.7,0.1c0.3,0,0.5,0,0.8,0
				c0.2,0,0.4,0,0.6,0c0.8,0,1.6-0.1,2.4-0.2c0.8-0.1,1.5-0.4,2.1-0.8c0.6-0.4,1.1-0.9,1.5-1.6c0.4-0.7,0.5-1.6,0.5-2.8
				c0-1-0.2-1.8-0.5-2.4s-0.8-1.1-1.4-1.5c-0.6-0.4-1.2-0.6-2-0.8C43.1,205.7,42.4,205.6,41.6,205.6z"/>
			<path class="st3" d="M57.4,203.5c0-0.9,0.3-1.6,0.9-2.2c0.6-0.6,1.5-0.9,2.6-0.9c1.1,0,2,0.3,2.7,0.9c0.7,0.6,1,1.3,1,2.2
				c0,0.9-0.3,1.6-1,2.1c-0.7,0.6-1.6,0.9-2.7,0.9c-1.1,0-2-0.3-2.6-0.9C57.7,205.1,57.4,204.3,57.4,203.5z M58.2,209.7h5.7v22h-5.7
				V209.7z"/>
		</g>
		<g class="st2">
			<path class="st3" d="M67.2,209.7h3v-4.1l5.7-1.6v5.8h5.4v4.8H76v8.4c0,1.5,0.2,2.6,0.5,3.3c0.3,0.7,0.9,1,1.7,1
				c0.6,0,1.1-0.1,1.5-0.2c0.4-0.1,0.9-0.3,1.4-0.5l1,4.4c-0.8,0.4-1.7,0.7-2.8,1c-1.1,0.3-2.1,0.4-3.2,0.4c-2,0-3.5-0.5-4.5-1.6
				c-1-1-1.4-2.8-1.4-5.1v-11.1h-3V209.7z"/>
		</g>
		<g class="st2">
			<path class="st3" d="M100.2,230.3c-0.9,0.6-1.9,1.1-3.2,1.5c-1.2,0.3-2.5,0.5-3.9,0.5c-1.8,0-3.2-0.3-4.5-0.8
				c-1.2-0.6-2.2-1.3-3-2.4c-0.8-1-1.3-2.2-1.6-3.7c-0.3-1.4-0.5-3-0.5-4.8c0-3.7,0.8-6.6,2.5-8.6c1.7-2,4.1-3,7.3-3
				c1.6,0,2.9,0.1,3.9,0.4c1,0.3,1.9,0.6,2.7,1l-1.4,4.7c-0.7-0.3-1.3-0.6-2-0.7c-0.7-0.2-1.4-0.3-2.3-0.3c-1.6,0-2.8,0.5-3.6,1.6
				c-0.8,1-1.2,2.7-1.2,5c0,0.9,0.1,1.8,0.3,2.6c0.2,0.8,0.5,1.5,0.9,2.1c0.4,0.6,0.9,1,1.6,1.4c0.7,0.3,1.4,0.5,2.3,0.5
				c1,0,1.8-0.1,2.5-0.4c0.7-0.2,1.3-0.5,1.8-0.9L100.2,230.3z"/>
			<path class="st3" d="M117.2,231.7v-12.5c0-1.8-0.2-3.1-0.7-3.9c-0.5-0.8-1.4-1.2-2.7-1.2c-1,0-1.9,0.3-2.7,1
				c-0.8,0.7-1.3,1.5-1.6,2.5v14h-5.7v-30.8h5.7v11.3h0.2c0.7-0.9,1.6-1.7,2.6-2.2c1-0.6,2.3-0.8,3.9-0.8c1.1,0,2.1,0.1,2.9,0.4
				c0.9,0.3,1.6,0.8,2.1,1.5c0.6,0.7,1,1.6,1.3,2.8c0.3,1.2,0.4,2.6,0.4,4.3v13.7H117.2z"/>
		</g>
		<g class="st2">
			<path class="st3" d="M159.2,230.4c-0.9,0.7-2.1,1.1-3.6,1.4c-1.5,0.3-2.9,0.4-4.5,0.4c-1.8,0-3.6-0.3-5.3-0.9
				c-1.7-0.6-3.1-1.5-4.4-2.8c-1.3-1.3-2.3-2.9-3-5c-0.7-2-1.1-4.5-1.1-7.4c0-3,0.4-5.6,1.3-7.6c0.8-2,1.9-3.7,3.3-4.9
				c1.3-1.2,2.8-2.1,4.5-2.7c1.6-0.5,3.3-0.8,4.9-0.8c1.8,0,3.2,0.1,4.5,0.4c1.2,0.2,2.2,0.5,3,0.8l-1.2,5.1
				c-0.7-0.3-1.5-0.6-2.4-0.7c-0.9-0.1-2-0.2-3.4-0.2c-2.4,0-4.4,0.9-5.9,2.6c-1.5,1.7-2.2,4.4-2.2,8.1c0,1.6,0.2,3,0.5,4.3
				c0.4,1.3,0.9,2.4,1.6,3.4c0.7,0.9,1.6,1.6,2.7,2.2c1.1,0.5,2.3,0.8,3.7,0.8c1.3,0,2.4-0.1,3.3-0.4c0.9-0.3,1.7-0.6,2.4-1
				L159.2,230.4z"/>
		</g>
		<g class="st2">
			<path class="st3" d="M174.5,215.1c-0.9-0.3-1.7-0.5-2.5-0.5c-1,0-1.9,0.3-2.6,0.8c-0.7,0.5-1.2,1.2-1.4,2.1v14.2h-5.7v-22h4.4
				l0.7,2.9h0.2c0.5-1.1,1.2-1.9,2-2.5c0.9-0.6,1.8-0.9,3-0.9c0.8,0,1.6,0.2,2.6,0.5L174.5,215.1z"/>
			<path class="st3" d="M177.5,203.5c0-0.9,0.3-1.6,0.9-2.2c0.6-0.6,1.5-0.9,2.6-0.9c1.1,0,2,0.3,2.7,0.9c0.7,0.6,1,1.3,1,2.2
				c0,0.9-0.3,1.6-1,2.1c-0.7,0.6-1.6,0.9-2.7,0.9c-1.1,0-2-0.3-2.6-0.9C177.8,205.1,177.5,204.3,177.5,203.5z M178.3,209.7h5.7v22
				h-5.7V209.7z"/>
			<path class="st3" d="M187.3,209.7h3v-4.1l5.7-1.6v5.8h5.4v4.8h-5.4v8.4c0,1.5,0.2,2.6,0.5,3.3c0.3,0.7,0.9,1,1.7,1
				c0.6,0,1.1-0.1,1.5-0.2c0.4-0.1,0.9-0.3,1.4-0.5l1,4.4c-0.8,0.4-1.7,0.7-2.8,1c-1.1,0.3-2.1,0.4-3.2,0.4c-2,0-3.5-0.5-4.5-1.6
				s-1.4-2.8-1.4-5.1v-11.1h-3V209.7z"/>
			<path class="st3" d="M204.7,203.5c0-0.9,0.3-1.6,0.9-2.2c0.6-0.6,1.5-0.9,2.6-0.9c1.1,0,2,0.3,2.7,0.9c0.7,0.6,1,1.3,1,2.2
				c0,0.9-0.3,1.6-1,2.1c-0.7,0.6-1.6,0.9-2.7,0.9c-1.1,0-2-0.3-2.6-0.9C205,205.1,204.7,204.3,204.7,203.5z M205.5,209.7h5.7v22
				h-5.7V209.7z"/>
			<path class="st3" d="M235.4,240.5h-5.7v-10.7h-0.2c-0.5,0.8-1.2,1.4-2,1.8c-0.9,0.5-2,0.7-3.3,0.7c-2.7,0-4.8-0.9-6.3-2.8
				c-1.5-1.8-2.2-4.6-2.2-8.4c0-3.9,1-6.9,3-8.9c2-2,4.8-3,8.5-3c0.8,0,1.6,0,2.4,0.1s1.5,0.2,2.3,0.3c0.7,0.1,1.4,0.3,2,0.4
				s1.1,0.3,1.5,0.5V240.5z M225.8,227.5c1.1,0,2-0.2,2.6-0.7c0.6-0.5,1.1-1.2,1.4-2.2v-9.9c-0.4-0.2-0.9-0.4-1.5-0.5
				c-0.6-0.1-1.2-0.1-1.9-0.1c-1.6,0-2.7,0.6-3.5,1.8c-0.8,1.2-1.2,2.9-1.2,5.1c0,2.1,0.4,3.8,1.1,4.9
				C223.4,226.9,224.4,227.5,225.8,227.5z"/>
			<path class="st3" d="M245.9,209.7v12.5c0,1.8,0.2,3.1,0.6,3.9c0.4,0.8,1.3,1.2,2.5,1.2c1.1,0,2-0.3,2.7-1
				c0.7-0.6,1.3-1.4,1.6-2.4v-14.2h5.7V225c0,1.2,0.1,2.4,0.2,3.5c0.1,1.2,0.3,2.2,0.5,3.1h-4.3l-1-3.3h-0.2c-0.7,1.1-1.6,2-2.8,2.8
				c-1.2,0.7-2.6,1.1-4.3,1.1c-1.1,0-2.1-0.1-3-0.4s-1.6-0.8-2.2-1.5c-0.6-0.7-1-1.6-1.3-2.7c-0.3-1.1-0.5-2.6-0.5-4.3v-13.7H245.9z
				"/>
			<path class="st3" d="M281.7,229.8c-0.9,0.7-2.1,1.3-3.6,1.8c-1.5,0.5-3.1,0.7-4.8,0.7c-3.5,0-6.1-1-7.8-3.1
				c-1.6-2.1-2.5-4.9-2.5-8.5c0-3.9,0.9-6.8,2.8-8.7c1.8-1.9,4.4-2.9,7.8-2.9c1.1,0,2.2,0.1,3.3,0.4c1.1,0.3,2,0.8,2.8,1.5
				c0.8,0.7,1.5,1.6,2,2.7c0.5,1.1,0.7,2.6,0.7,4.3c0,0.6,0,1.3-0.1,2c-0.1,0.7-0.2,1.4-0.3,2.2h-13.2c0.1,1.8,0.6,3.2,1.4,4.2
				c0.9,0.9,2.3,1.4,4.2,1.4c1.2,0,2.3-0.2,3.2-0.5c1-0.4,1.7-0.7,2.2-1.1L281.7,229.8z M273.5,213.7c-1.5,0-2.6,0.4-3.3,1.3
				c-0.7,0.9-1.2,2.1-1.3,3.6h8.2c0.1-1.6-0.1-2.8-0.7-3.7C275.7,214.1,274.8,213.7,273.5,213.7z"/>
		</g>
	</g>
	<g>
		<g class="st2">
			<path class="st3" d="M30.7,273.6c0-2.1,0.5-3.7,1.4-4.9c0.9-1.1,2.2-1.7,4-1.7c0.9,0,1.7,0.2,2.4,0.5c0.7,0.3,1.2,0.8,1.7,1.3
				c0.4,0.6,0.8,1.3,1,2.1c0.2,0.8,0.3,1.7,0.3,2.7c0,2.1-0.5,3.7-1.4,4.8c-0.9,1.1-2.2,1.7-4,1.7c-0.9,0-1.7-0.2-2.4-0.5
				c-0.7-0.3-1.2-0.8-1.7-1.3s-0.8-1.3-1-2.1C30.8,275.4,30.7,274.5,30.7,273.6z M33.3,273.6c0,0.6,0.1,1.2,0.2,1.8
				c0.1,0.5,0.3,1,0.5,1.4c0.2,0.4,0.5,0.7,0.9,0.9c0.3,0.2,0.8,0.3,1.2,0.3c0.9,0,1.6-0.3,2-1c0.5-0.7,0.7-1.8,0.7-3.3
				c0-0.6-0.1-1.2-0.2-1.7c-0.1-0.5-0.3-1-0.5-1.4c-0.2-0.4-0.5-0.7-0.8-0.9c-0.3-0.2-0.8-0.3-1.3-0.3c-0.9,0-1.6,0.4-2,1.1
				C33.5,271,33.3,272.1,33.3,273.6z M42.6,283.5c-0.6,0.2-1.2,0.2-1.7,0.2c-0.6,0-1.2-0.1-1.8-0.2c-0.6-0.1-1.1-0.3-1.7-0.4
				c-0.5-0.1-1.1-0.3-1.6-0.4c-0.5-0.1-1-0.2-1.4-0.2c-0.3,0-0.6,0-0.8,0.1v-2.1c0.3-0.1,0.7-0.1,1-0.1c0.5,0,1,0.1,1.5,0.2
				c0.5,0.1,1,0.2,1.5,0.4c0.5,0.1,1,0.3,1.6,0.4c0.5,0.1,1.1,0.2,1.7,0.2c0.3,0,0.5,0,0.8,0c0.3,0,0.6-0.1,0.8-0.2V283.5z"/>
			<path class="st3" d="M45.3,270.9v5.1c0,0.7,0.1,1.3,0.3,1.6c0.2,0.3,0.5,0.5,1,0.5c0.4,0,0.8-0.1,1.1-0.4c0.3-0.3,0.5-0.6,0.7-1
				v-5.8h2.3v6.3c0,0.5,0,1,0.1,1.4c0,0.5,0.1,0.9,0.2,1.3h-1.8l-0.4-1.3h-0.1c-0.3,0.5-0.7,0.8-1.2,1.1c-0.5,0.3-1.1,0.4-1.7,0.4
				c-0.5,0-0.9-0.1-1.2-0.2c-0.4-0.1-0.7-0.3-0.9-0.6s-0.4-0.6-0.5-1.1c-0.1-0.5-0.2-1.1-0.2-1.8v-5.6H45.3z"/>
			<path class="st3" d="M52.7,271.4c0.5-0.2,1-0.4,1.7-0.5c0.7-0.1,1.4-0.2,2.1-0.2c0.6,0,1.1,0.1,1.6,0.2c0.4,0.2,0.8,0.4,1,0.6
				c0.2,0.3,0.4,0.6,0.5,1c0.1,0.4,0.2,0.8,0.2,1.3c0,0.5,0,1.1-0.1,1.6c0,0.5-0.1,1.1-0.1,1.6c0,0.5,0,1,0,1.5
				c0,0.5,0.1,0.9,0.3,1.4H58l-0.4-1.2h-0.1c-0.2,0.4-0.6,0.7-1,1c-0.4,0.3-1,0.4-1.6,0.4c-0.4,0-0.8-0.1-1.1-0.2
				c-0.3-0.1-0.6-0.3-0.9-0.5c-0.2-0.2-0.4-0.5-0.6-0.8c-0.1-0.3-0.2-0.7-0.2-1.1c0-0.6,0.1-1,0.4-1.4c0.2-0.4,0.6-0.7,1.1-0.9
				c0.5-0.2,1-0.4,1.7-0.5c0.6-0.1,1.4-0.1,2.2-0.1c0.1-0.7,0-1.2-0.1-1.4c-0.2-0.3-0.6-0.4-1.2-0.4c-0.5,0-1,0-1.5,0.1
				s-1,0.2-1.3,0.4L52.7,271.4z M55.7,278.1c0.5,0,0.8-0.1,1.1-0.3c0.3-0.2,0.5-0.4,0.6-0.7v-1.2c-0.4,0-0.7,0-1.1,0
				c-0.3,0-0.6,0.1-0.9,0.2c-0.3,0.1-0.5,0.2-0.6,0.4c-0.2,0.2-0.2,0.4-0.2,0.6c0,0.3,0.1,0.6,0.3,0.8
				C55.1,278,55.3,278.1,55.7,278.1z"/>
			<path class="st3" d="M64.1,276.8c0,0.4,0.1,0.7,0.2,0.9s0.3,0.3,0.5,0.3c0.1,0,0.3,0,0.4,0c0.1,0,0.3-0.1,0.5-0.2l0.3,1.8
				c-0.2,0.1-0.5,0.2-0.9,0.3c-0.4,0.1-0.8,0.1-1.2,0.1c-0.7,0-1.2-0.2-1.6-0.5c-0.4-0.3-0.5-0.8-0.5-1.6v-10.8h2.3V276.8z"/>
		</g>
		<g class="st2">
			<path class="st3" d="M73.4,279.3c-0.4,0.3-0.8,0.5-1.3,0.6c-0.5,0.1-1,0.2-1.6,0.2c-0.7,0-1.3-0.1-1.8-0.3
				c-0.5-0.2-0.9-0.5-1.2-1c-0.3-0.4-0.5-0.9-0.7-1.5c-0.1-0.6-0.2-1.2-0.2-1.9c0-1.5,0.3-2.7,1-3.5c0.7-0.8,1.7-1.2,3-1.2
				c0.7,0,1.2,0.1,1.6,0.2c0.4,0.1,0.8,0.2,1.1,0.4l-0.6,1.9c-0.3-0.1-0.5-0.2-0.8-0.3s-0.6-0.1-0.9-0.1c-0.6,0-1.1,0.2-1.5,0.6
				s-0.5,1.1-0.5,2c0,0.4,0,0.7,0.1,1.1s0.2,0.6,0.4,0.8s0.4,0.4,0.7,0.6c0.3,0.1,0.6,0.2,0.9,0.2c0.4,0,0.7-0.1,1-0.2
				c0.3-0.1,0.5-0.2,0.7-0.4L73.4,279.3z"/>
		</g>
		<g class="st2">
			<path class="st3" d="M74,275.4c0-1.5,0.4-2.7,1.1-3.5c0.7-0.8,1.8-1.2,3.1-1.2c0.7,0,1.3,0.1,1.9,0.3c0.5,0.2,1,0.5,1.3,1
				s0.6,0.9,0.8,1.5c0.2,0.6,0.3,1.2,0.3,1.9c0,1.5-0.4,2.7-1.1,3.5c-0.7,0.8-1.8,1.2-3.1,1.2c-0.7,0-1.3-0.1-1.9-0.3
				c-0.5-0.2-1-0.5-1.3-1s-0.6-0.9-0.8-1.5C74.1,276.7,74,276.1,74,275.4z M76.5,275.4c0,0.4,0,0.8,0.1,1.1c0.1,0.3,0.2,0.6,0.3,0.9
				s0.3,0.4,0.6,0.6c0.2,0.1,0.5,0.2,0.8,0.2c0.6,0,1.1-0.2,1.4-0.7c0.3-0.4,0.5-1.1,0.5-2.1c0-0.8-0.1-1.5-0.4-2
				c-0.3-0.5-0.7-0.8-1.4-0.8c-0.6,0-1,0.2-1.3,0.6C76.6,273.7,76.5,274.4,76.5,275.4z"/>
			<path class="st3" d="M89.3,279.9V275c0-0.8-0.1-1.4-0.2-1.8c-0.2-0.3-0.5-0.5-1-0.5c-0.4,0-0.7,0.1-1,0.3
				c-0.3,0.2-0.4,0.5-0.6,0.9v6h-2.3v-9H86l0.3,1.2h0.1c0.3-0.4,0.6-0.7,1.1-1c0.4-0.3,1-0.4,1.6-0.4c0.6,0,1,0.1,1.4,0.4
				s0.7,0.6,0.9,1.2c0.3-0.5,0.6-0.8,1.1-1.1c0.4-0.3,1-0.4,1.6-0.4c0.5,0,0.9,0.1,1.3,0.2c0.4,0.1,0.6,0.3,0.9,0.6
				c0.2,0.3,0.4,0.7,0.5,1.2c0.1,0.5,0.2,1.1,0.2,1.9v5.4h-2.3v-5.1c0-0.7-0.1-1.2-0.2-1.6s-0.5-0.5-1-0.5c-0.4,0-0.8,0.1-1,0.3
				c-0.2,0.2-0.4,0.5-0.5,0.9v5.9H89.3z"/>
			<path class="st3" d="M103.7,279.9V275c0-0.8-0.1-1.4-0.2-1.8c-0.2-0.3-0.5-0.5-1-0.5c-0.4,0-0.7,0.1-1,0.3
				c-0.3,0.2-0.4,0.5-0.6,0.9v6h-2.3v-9h1.8l0.3,1.2h0.1c0.3-0.4,0.6-0.7,1.1-1c0.4-0.3,1-0.4,1.6-0.4c0.6,0,1,0.1,1.4,0.4
				s0.7,0.6,0.9,1.2c0.3-0.5,0.6-0.8,1.1-1.1c0.4-0.3,1-0.4,1.6-0.4c0.5,0,0.9,0.1,1.3,0.2c0.4,0.1,0.6,0.3,0.9,0.6
				c0.2,0.3,0.4,0.7,0.5,1.2c0.1,0.5,0.2,1.1,0.2,1.9v5.4h-2.3v-5.1c0-0.7-0.1-1.2-0.2-1.6s-0.5-0.5-1-0.5c-0.4,0-0.8,0.1-1,0.3
				c-0.2,0.2-0.4,0.5-0.5,0.9v5.9H103.7z"/>
		</g>
		<g class="st2">
			<path class="st3" d="M126,279.3c-0.4,0.3-0.9,0.5-1.5,0.6c-0.6,0.1-1.2,0.2-1.8,0.2c-0.8,0-1.5-0.1-2.2-0.3
				c-0.7-0.2-1.3-0.6-1.8-1.1c-0.5-0.5-0.9-1.2-1.2-2s-0.5-1.8-0.5-3c0-1.2,0.2-2.3,0.5-3.1c0.3-0.8,0.8-1.5,1.3-2s1.2-0.9,1.8-1.1
				c0.7-0.2,1.3-0.3,2-0.3c0.7,0,1.3,0,1.8,0.1c0.5,0.1,0.9,0.2,1.2,0.3l-0.5,2.1c-0.3-0.1-0.6-0.2-1-0.3c-0.4-0.1-0.8-0.1-1.4-0.1
				c-1,0-1.8,0.4-2.4,1.1c-0.6,0.7-0.9,1.8-0.9,3.3c0,0.7,0.1,1.2,0.2,1.8s0.4,1,0.7,1.4s0.7,0.7,1.1,0.9c0.4,0.2,0.9,0.3,1.5,0.3
				c0.5,0,1-0.1,1.4-0.2c0.4-0.1,0.7-0.2,1-0.4L126,279.3z"/>
		</g>
		<g class="st2">
			<path class="st3" d="M126.4,275.4c0-1.5,0.4-2.7,1.1-3.5c0.7-0.8,1.8-1.2,3.1-1.2c0.7,0,1.3,0.1,1.9,0.3c0.5,0.2,1,0.5,1.3,1
				s0.6,0.9,0.8,1.5c0.2,0.6,0.3,1.2,0.3,1.9c0,1.5-0.4,2.7-1.1,3.5c-0.7,0.8-1.8,1.2-3.1,1.2c-0.7,0-1.3-0.1-1.9-0.3
				c-0.5-0.2-1-0.5-1.3-1s-0.6-0.9-0.8-1.5C126.5,276.7,126.4,276.1,126.4,275.4z M128.8,275.4c0,0.4,0,0.8,0.1,1.1
				c0.1,0.3,0.2,0.6,0.3,0.9s0.3,0.4,0.6,0.6c0.2,0.1,0.5,0.2,0.8,0.2c0.6,0,1.1-0.2,1.4-0.7c0.3-0.4,0.5-1.1,0.5-2.1
				c0-0.8-0.1-1.5-0.4-2c-0.3-0.5-0.7-0.8-1.4-0.8c-0.6,0-1,0.2-1.3,0.6C129,273.7,128.8,274.4,128.8,275.4z"/>
			<path class="st3" d="M142,279.9v-5.1c0-0.7-0.1-1.3-0.3-1.6c-0.2-0.3-0.6-0.5-1.1-0.5c-0.4,0-0.8,0.1-1.1,0.4s-0.5,0.6-0.7,1v5.8
				h-2.3v-9h1.9l0.3,1.2h0.1c0.3-0.4,0.6-0.7,1.1-1c0.5-0.3,1-0.4,1.8-0.4c0.4,0,0.8,0.1,1.2,0.2c0.3,0.1,0.6,0.3,0.9,0.6
				c0.2,0.3,0.4,0.7,0.5,1.1c0.1,0.5,0.2,1.1,0.2,1.8v5.6H142z"/>
		</g>
		<g class="st2">
			<path class="st3" d="M145.5,270.9h1.2v-0.5c0-1.1,0.2-2,0.7-2.5c0.5-0.5,1.2-0.8,2.1-0.8c1,0,1.8,0.1,2.4,0.3l-0.5,1.9
				c-0.3-0.1-0.5-0.2-0.7-0.2c-0.2,0-0.4,0-0.7,0c-0.2,0-0.4,0-0.6,0.1c-0.1,0.1-0.2,0.2-0.3,0.3c-0.1,0.2-0.1,0.3-0.1,0.6
				c0,0.2,0,0.5,0,0.8h2v2h-2v7h-2.3v-7h-1.2V270.9z"/>
		</g>
		<g class="st2">
			<path class="st3" d="M159.2,279.1c-0.4,0.3-0.8,0.5-1.5,0.7c-0.6,0.2-1.3,0.3-2,0.3c-1.5,0-2.5-0.4-3.2-1.3c-0.7-0.8-1-2-1-3.5
				c0-1.6,0.4-2.8,1.1-3.6c0.8-0.8,1.8-1.2,3.2-1.2c0.5,0,0.9,0.1,1.3,0.2c0.4,0.1,0.8,0.3,1.2,0.6c0.3,0.3,0.6,0.6,0.8,1.1
				s0.3,1.1,0.3,1.7c0,0.3,0,0.5,0,0.8c0,0.3-0.1,0.6-0.1,0.9h-5.4c0,0.8,0.2,1.3,0.6,1.7s0.9,0.6,1.7,0.6c0.5,0,0.9-0.1,1.3-0.2
				c0.4-0.2,0.7-0.3,0.9-0.5L159.2,279.1z M155.9,272.5c-0.6,0-1.1,0.2-1.4,0.5c-0.3,0.4-0.5,0.9-0.5,1.5h3.3c0-0.6-0.1-1.1-0.3-1.5
				C156.8,272.6,156.4,272.5,155.9,272.5z"/>
			<path class="st3" d="M166.1,273.1c-0.4-0.1-0.7-0.2-1-0.2c-0.4,0-0.8,0.1-1.1,0.3c-0.3,0.2-0.5,0.5-0.6,0.9v5.8h-2.3v-9h1.8
				l0.3,1.2h0.1c0.2-0.4,0.5-0.8,0.8-1c0.3-0.2,0.8-0.4,1.2-0.4c0.3,0,0.7,0.1,1.1,0.2L166.1,273.1z"/>
			<path class="st3" d="M174.7,279.1c-0.4,0.3-0.8,0.5-1.5,0.7c-0.6,0.2-1.3,0.3-2,0.3c-1.5,0-2.5-0.4-3.2-1.3c-0.7-0.8-1-2-1-3.5
				c0-1.6,0.4-2.8,1.1-3.6c0.8-0.8,1.8-1.2,3.2-1.2c0.5,0,0.9,0.1,1.3,0.2c0.4,0.1,0.8,0.3,1.2,0.6c0.3,0.3,0.6,0.6,0.8,1.1
				s0.3,1.1,0.3,1.7c0,0.3,0,0.5,0,0.8c0,0.3-0.1,0.6-0.1,0.9h-5.4c0,0.8,0.2,1.3,0.6,1.7c0.4,0.4,0.9,0.6,1.7,0.6
				c0.5,0,0.9-0.1,1.3-0.2s0.7-0.3,0.9-0.5L174.7,279.1z M171.3,272.5c-0.6,0-1.1,0.2-1.4,0.5c-0.3,0.4-0.5,0.9-0.5,1.5h3.3
				c0-0.6-0.1-1.1-0.3-1.5C172.2,272.6,171.9,272.5,171.3,272.5z"/>
			<path class="st3" d="M182.1,279.9v-5.1c0-0.7-0.1-1.3-0.3-1.6c-0.2-0.3-0.6-0.5-1.1-0.5c-0.4,0-0.8,0.1-1.1,0.4
				c-0.3,0.3-0.5,0.6-0.7,1v5.8h-2.3v-9h1.9l0.3,1.2h0.1c0.3-0.4,0.6-0.7,1.1-1c0.5-0.3,1-0.4,1.8-0.4c0.4,0,0.8,0.1,1.2,0.2
				c0.3,0.1,0.6,0.3,0.9,0.6c0.2,0.3,0.4,0.7,0.5,1.1c0.1,0.5,0.2,1.1,0.2,1.8v5.6H182.1z"/>
		</g>
		<g class="st2">
			<path class="st3" d="M192.8,279.3c-0.4,0.3-0.8,0.5-1.3,0.6c-0.5,0.1-1,0.2-1.6,0.2c-0.7,0-1.3-0.1-1.8-0.3
				c-0.5-0.2-0.9-0.5-1.2-1s-0.5-0.9-0.7-1.5s-0.2-1.2-0.2-1.9c0-1.5,0.3-2.7,1-3.5c0.7-0.8,1.7-1.2,3-1.2c0.7,0,1.2,0.1,1.6,0.2
				c0.4,0.1,0.8,0.2,1.1,0.4l-0.6,1.9c-0.3-0.1-0.5-0.2-0.8-0.3c-0.3-0.1-0.6-0.1-0.9-0.1c-0.6,0-1.1,0.2-1.5,0.6s-0.5,1.1-0.5,2
				c0,0.4,0,0.7,0.1,1.1s0.2,0.6,0.4,0.8s0.4,0.4,0.7,0.6c0.3,0.1,0.6,0.2,0.9,0.2c0.4,0,0.7-0.1,1-0.2c0.3-0.1,0.5-0.2,0.7-0.4
				L192.8,279.3z"/>
		</g>
		<g class="st2">
			<path class="st3" d="M201.1,279.1c-0.4,0.3-0.8,0.5-1.5,0.7c-0.6,0.2-1.3,0.3-2,0.3c-1.5,0-2.5-0.4-3.2-1.3c-0.7-0.8-1-2-1-3.5
				c0-1.6,0.4-2.8,1.1-3.6c0.8-0.8,1.8-1.2,3.2-1.2c0.5,0,0.9,0.1,1.3,0.2c0.4,0.1,0.8,0.3,1.2,0.6c0.3,0.3,0.6,0.6,0.8,1.1
				s0.3,1.1,0.3,1.7c0,0.3,0,0.5,0,0.8c0,0.3-0.1,0.6-0.1,0.9h-5.4c0,0.8,0.2,1.3,0.6,1.7c0.4,0.4,0.9,0.6,1.7,0.6
				c0.5,0,0.9-0.1,1.3-0.2s0.7-0.3,0.9-0.5L201.1,279.1z M197.8,272.5c-0.6,0-1.1,0.2-1.4,0.5c-0.3,0.4-0.5,0.9-0.5,1.5h3.3
				c0-0.6-0.1-1.1-0.3-1.5C198.7,272.6,198.3,272.5,197.8,272.5z"/>
		</g>
		<g class="st2">
			<path class="st3" d="M216,279.3c-0.4,0.3-0.9,0.5-1.5,0.6s-1.2,0.2-1.8,0.2c-0.8,0-1.5-0.1-2.2-0.3c-0.7-0.2-1.3-0.6-1.8-1.1
				c-0.5-0.5-0.9-1.2-1.2-2c-0.3-0.8-0.5-1.8-0.5-3c0-1.2,0.2-2.3,0.5-3.1c0.3-0.8,0.8-1.5,1.3-2s1.2-0.9,1.8-1.1
				c0.7-0.2,1.3-0.3,2-0.3c0.7,0,1.3,0,1.8,0.1c0.5,0.1,0.9,0.2,1.2,0.3l-0.5,2.1c-0.3-0.1-0.6-0.2-1-0.3c-0.4-0.1-0.8-0.1-1.4-0.1
				c-1,0-1.8,0.4-2.4,1.1c-0.6,0.7-0.9,1.8-0.9,3.3c0,0.7,0.1,1.2,0.2,1.8c0.1,0.5,0.4,1,0.7,1.4s0.7,0.7,1.1,0.9
				c0.4,0.2,0.9,0.3,1.5,0.3c0.5,0,1-0.1,1.4-0.2s0.7-0.2,1-0.4L216,279.3z"/>
		</g>
		<g class="st2">
			<path class="st3" d="M224,279.1c-0.4,0.3-0.8,0.5-1.5,0.7c-0.6,0.2-1.3,0.3-2,0.3c-1.5,0-2.5-0.4-3.2-1.3c-0.7-0.8-1-2-1-3.5
				c0-1.6,0.4-2.8,1.1-3.6c0.8-0.8,1.8-1.2,3.2-1.2c0.5,0,0.9,0.1,1.3,0.2c0.4,0.1,0.8,0.3,1.2,0.6c0.3,0.3,0.6,0.6,0.8,1.1
				s0.3,1.1,0.3,1.7c0,0.3,0,0.5,0,0.8c0,0.3-0.1,0.6-0.1,0.9h-5.4c0,0.8,0.2,1.3,0.6,1.7c0.4,0.4,0.9,0.6,1.7,0.6
				c0.5,0,0.9-0.1,1.3-0.2s0.7-0.3,0.9-0.5L224,279.1z M220.7,272.5c-0.6,0-1.1,0.2-1.4,0.5c-0.3,0.4-0.5,0.9-0.5,1.5h3.3
				c0-0.6-0.1-1.1-0.3-1.5C221.6,272.6,221.2,272.5,220.7,272.5z"/>
			<path class="st3" d="M231.5,279.9v-5.1c0-0.7-0.1-1.3-0.3-1.6c-0.2-0.3-0.6-0.5-1.1-0.5c-0.4,0-0.8,0.1-1.1,0.4
				c-0.3,0.3-0.5,0.6-0.7,1v5.8h-2.3v-9h1.9l0.3,1.2h0.1c0.3-0.4,0.6-0.7,1.1-1c0.5-0.3,1-0.4,1.8-0.4c0.4,0,0.8,0.1,1.2,0.2
				c0.3,0.1,0.6,0.3,0.9,0.6c0.2,0.3,0.4,0.7,0.5,1.1c0.1,0.5,0.2,1.1,0.2,1.8v5.6H231.5z"/>
		</g>
		<g class="st2">
			<path class="st3" d="M234.8,270.9h1.2v-1.7l2.3-0.7v2.4h2.2v2h-2.2v3.5c0,0.6,0.1,1.1,0.2,1.3s0.4,0.4,0.7,0.4
				c0.2,0,0.4,0,0.6-0.1c0.2,0,0.4-0.1,0.6-0.2l0.4,1.8c-0.3,0.2-0.7,0.3-1.1,0.4c-0.4,0.1-0.9,0.2-1.3,0.2c-0.8,0-1.4-0.2-1.8-0.6
				c-0.4-0.4-0.6-1.1-0.6-2.1v-4.5h-1.2V270.9z"/>
		</g>
		<g class="st2">
			<path class="st3" d="M249.1,279.1c-0.4,0.3-0.8,0.5-1.5,0.7c-0.6,0.2-1.3,0.3-2,0.3c-1.5,0-2.5-0.4-3.2-1.3c-0.7-0.8-1-2-1-3.5
				c0-1.6,0.4-2.8,1.1-3.6c0.8-0.8,1.8-1.2,3.2-1.2c0.5,0,0.9,0.1,1.3,0.2c0.4,0.1,0.8,0.3,1.2,0.6c0.3,0.3,0.6,0.6,0.8,1.1
				s0.3,1.1,0.3,1.7c0,0.3,0,0.5,0,0.8c0,0.3-0.1,0.6-0.1,0.9h-5.4c0,0.8,0.2,1.3,0.6,1.7c0.4,0.4,0.9,0.6,1.7,0.6
				c0.5,0,0.9-0.1,1.3-0.2c0.4-0.2,0.7-0.3,0.9-0.5L249.1,279.1z M245.8,272.5c-0.6,0-1.1,0.2-1.4,0.5c-0.3,0.4-0.5,0.9-0.5,1.5h3.3
				c0-0.6-0.1-1.1-0.3-1.5S246.3,272.5,245.8,272.5z"/>
			<path class="st3" d="M256.1,273.1c-0.4-0.1-0.7-0.2-1-0.2c-0.4,0-0.8,0.1-1.1,0.3c-0.3,0.2-0.5,0.5-0.6,0.9v5.8h-2.3v-9h1.8
				l0.3,1.2h0.1c0.2-0.4,0.5-0.8,0.8-1s0.8-0.4,1.2-0.4c0.3,0,0.7,0.1,1.1,0.2L256.1,273.1z"/>
		</g>
		<g class="st2">
			<path class="st3" d="M34.4,299.8l0.2,2.2h0.1l0.3-2.3l2.2-7h1.6l2.2,7l0.3,2.2h0.1l0.3-2.3l1.5-7h2.5L42,305.4h-1.7l-2.2-7
				l-0.3-1.9h-0.1l-0.3,1.9l-2.2,7h-1.7L30,292.7h2.7L34.4,299.8z"/>
			<path class="st3" d="M46.6,292.7h7.5v2.2h-5v2.9h4.6v2.2h-4.6v3.1h5.1v2.2h-7.6V292.7z"/>
		</g>
		<g class="st2">
			<path class="st3" d="M56,292.7c0.3,0,0.5-0.1,0.9-0.1c0.3,0,0.6,0,1-0.1s0.7,0,1,0s0.6,0,0.9,0c1.1,0,2.1,0.2,2.9,0.5
				s1.4,0.8,1.9,1.3c0.5,0.6,0.9,1.2,1.1,2c0.2,0.8,0.3,1.6,0.3,2.6c0,0.9-0.1,1.7-0.3,2.5c-0.2,0.8-0.6,1.5-1.1,2.1
				c-0.5,0.6-1.2,1.1-2,1.5c-0.8,0.4-1.8,0.6-3.1,0.6c-0.2,0-0.4,0-0.8,0s-0.6,0-1,0c-0.3,0-0.7,0-1-0.1c-0.3,0-0.5,0-0.7-0.1V292.7
				z M59.9,294.7c-0.3,0-0.5,0-0.8,0s-0.5,0-0.6,0.1v8.4c0,0,0.1,0,0.2,0c0.1,0,0.2,0,0.4,0c0.1,0,0.3,0,0.4,0c0.1,0,0.2,0,0.3,0
				c0.7,0,1.3-0.1,1.7-0.4s0.8-0.6,1.1-1s0.5-0.9,0.6-1.4c0.1-0.5,0.2-1.1,0.2-1.6c0-0.5,0-1-0.1-1.5c-0.1-0.5-0.3-0.9-0.5-1.3
				c-0.3-0.4-0.6-0.7-1.1-1C61.1,294.9,60.5,294.7,59.9,294.7z"/>
		</g>
		<g class="st2">
			<path class="st3" d="M73.2,292.7h2.5v9.2c0,0.5-0.1,0.9-0.2,1.4c-0.1,0.4-0.3,0.8-0.5,1.1s-0.6,0.6-0.9,0.8
				c-0.4,0.2-0.9,0.3-1.4,0.3c-0.3,0-0.7,0-1.1-0.1c-0.4-0.1-0.8-0.2-1.1-0.3l0.5-2c0.3,0.2,0.7,0.2,1.1,0.2c0.5,0,0.8-0.2,1-0.6
				c0.1-0.4,0.2-0.9,0.2-1.5V292.7z"/>
			<path class="st3" d="M84.2,302.5h-3.9l-1,2.8h-2.5l4.5-12.7h1.8l4.5,12.7h-2.6L84.2,302.5z M80.9,300.5h2.7l-0.9-2.8l-0.4-2h-0.1
				l-0.4,2L80.9,300.5z"/>
			<path class="st3" d="M92,298.7l-1-2h-0.1l0.3,2v6.6h-2.3v-12.7h1.8l4.8,6.7l1,1.9h0.1l-0.3-1.9v-6.6h2.3v12.7h-1.8L92,298.7z"/>
			<path class="st3" d="M106,303.3h2.5v-7.1l0.3-1.2l-0.9,1.1l-1.6,1.1l-1-1.3l4.1-3.3h1.3v10.8h2.4v2H106V303.3z"/>
			<path class="st3" d="M118.3,303.5c0.8,0,1.4-0.2,1.8-0.6s0.6-0.9,0.6-1.6c0-0.7-0.2-1.2-0.7-1.6s-1.2-0.5-2.1-0.5l-1.4,0.1v-6.6
				h6.2v2.2h-4.2v2.4l0.7-0.1c0.6,0,1.1,0.1,1.6,0.3s0.9,0.5,1.2,0.8c0.3,0.3,0.6,0.8,0.8,1.2s0.3,1,0.3,1.6c0,0.7-0.1,1.3-0.4,1.9
				c-0.2,0.5-0.6,1-1,1.3c-0.4,0.4-0.9,0.6-1.5,0.8c-0.6,0.2-1.2,0.3-1.9,0.3c-0.5,0-1.1,0-1.5-0.1s-0.9-0.2-1.2-0.4l0.6-1.9
				c0.3,0.1,0.6,0.2,0.9,0.3C117.5,303.5,117.9,303.5,118.3,303.5z"/>
			<path class="st3" d="M137.7,295.8c0,0.6-0.1,1.2-0.3,1.9c-0.2,0.6-0.5,1.2-0.8,1.8c-0.3,0.6-0.7,1.2-1.1,1.7
				c-0.4,0.6-0.8,1.1-1.2,1.5l-1,0.7v0.1l1.3-0.3h3.5v2h-7.6v-1.2c0.3-0.3,0.6-0.7,1-1.1c0.4-0.4,0.7-0.8,1.1-1.3
				c0.4-0.5,0.7-0.9,1.1-1.4c0.3-0.5,0.7-1,0.9-1.4c0.3-0.5,0.5-1,0.7-1.4c0.2-0.5,0.2-0.9,0.2-1.3c0-0.5-0.1-0.9-0.4-1.2
				c-0.3-0.3-0.7-0.5-1.3-0.5c-0.4,0-0.8,0.1-1.2,0.2c-0.4,0.2-0.7,0.4-1,0.6l-0.9-1.7c0.5-0.4,1-0.7,1.6-0.9
				c0.6-0.2,1.3-0.3,2.1-0.3c0.5,0,1,0.1,1.4,0.2c0.4,0.1,0.8,0.4,1.1,0.6c0.3,0.3,0.6,0.6,0.7,1
				C137.6,294.8,137.7,295.2,137.7,295.8z"/>
			<path class="st3" d="M140.1,299c0-2.2,0.4-3.8,1.1-4.9c0.8-1.1,1.8-1.6,3.3-1.6c1.5,0,2.6,0.5,3.3,1.6s1.1,2.7,1.1,4.9
				c0,2.2-0.4,3.9-1.1,4.9s-1.9,1.6-3.3,1.6c-1.5,0-2.6-0.6-3.3-1.7C140.4,302.7,140.1,301.1,140.1,299z M142.4,299
				c0,1.5,0.2,2.6,0.5,3.4c0.3,0.8,0.8,1.2,1.6,1.2c0.7,0,1.2-0.4,1.6-1.1s0.5-1.9,0.5-3.5c0-1.5-0.2-2.6-0.5-3.4
				c-0.3-0.8-0.8-1.2-1.6-1.2c-0.7,0-1.2,0.4-1.6,1.1C142.5,296.3,142.4,297.4,142.4,299z"/>
			<path class="st3" d="M158.1,295.8c0,0.6-0.1,1.2-0.3,1.9c-0.2,0.6-0.5,1.2-0.8,1.8c-0.3,0.6-0.7,1.2-1.1,1.7
				c-0.4,0.6-0.8,1.1-1.2,1.5l-1,0.7v0.1l1.3-0.3h3.5v2h-7.6v-1.2c0.3-0.3,0.6-0.7,1-1.1c0.4-0.4,0.7-0.8,1.1-1.3
				c0.4-0.5,0.7-0.9,1.1-1.4c0.3-0.5,0.7-1,0.9-1.4c0.3-0.5,0.5-1,0.7-1.4c0.2-0.5,0.2-0.9,0.2-1.3c0-0.5-0.1-0.9-0.4-1.2
				c-0.3-0.3-0.7-0.5-1.3-0.5c-0.4,0-0.8,0.1-1.2,0.2c-0.4,0.2-0.7,0.4-1,0.6l-0.9-1.7c0.5-0.4,1-0.7,1.6-0.9
				c0.6-0.2,1.3-0.3,2.1-0.3c0.5,0,1,0.1,1.4,0.2c0.4,0.1,0.8,0.4,1.1,0.6c0.3,0.3,0.6,0.6,0.7,1C158,294.8,158.1,295.2,158.1,295.8
				z"/>
			<path class="st3" d="M160.5,299c0-2.2,0.4-3.8,1.1-4.9c0.8-1.1,1.8-1.6,3.3-1.6c1.5,0,2.6,0.5,3.3,1.6s1.1,2.7,1.1,4.9
				c0,2.2-0.4,3.9-1.1,4.9c-0.8,1.1-1.9,1.6-3.3,1.6c-1.5,0-2.6-0.6-3.3-1.7C160.8,302.7,160.5,301.1,160.5,299z M162.8,299
				c0,1.5,0.2,2.6,0.5,3.4c0.3,0.8,0.8,1.2,1.6,1.2c0.7,0,1.2-0.4,1.6-1.1s0.5-1.9,0.5-3.5c0-1.5-0.2-2.6-0.5-3.4
				c-0.3-0.8-0.8-1.2-1.6-1.2c-0.7,0-1.2,0.4-1.6,1.1C163,296.3,162.8,297.4,162.8,299z"/>
			<path class="st3" d="M175.3,299.6c0-0.4,0.1-0.8,0.4-1c0.3-0.2,0.6-0.4,1-0.4c0.5,0,0.8,0.1,1.1,0.4c0.3,0.2,0.4,0.6,0.4,1
				c0,0.4-0.1,0.8-0.4,1c-0.3,0.3-0.6,0.4-1.1,0.4c-0.4,0-0.8-0.1-1-0.4C175.4,300.4,175.3,300,175.3,299.6z"/>
			<path class="st3" d="M187.9,303.6c0.7,0,1.3-0.2,1.7-0.6c0.4-0.4,0.6-0.9,0.6-1.4c0-0.7-0.2-1.2-0.6-1.5c-0.4-0.3-1-0.5-1.9-0.5
				h-1.3v-1.2l2.2-3l1-0.8l-1.4,0.2h-3v-2h6.9v1.3l-2.5,3.4l-0.8,0.5v0.1l0.8-0.1c0.4,0,0.8,0.1,1.2,0.3s0.7,0.4,1,0.7
				c0.3,0.3,0.5,0.7,0.7,1.1s0.3,0.9,0.3,1.5c0,0.7-0.1,1.3-0.4,1.8c-0.2,0.5-0.6,0.9-1,1.3c-0.4,0.3-0.9,0.6-1.4,0.8
				s-1.1,0.3-1.8,0.3c-0.5,0-1.1,0-1.6-0.1c-0.6-0.1-1-0.2-1.4-0.4l0.6-1.9c0.3,0.2,0.7,0.3,1,0.4
				C187.1,303.5,187.5,303.6,187.9,303.6z"/>
			<path class="st3" d="M195.5,297.6c0-0.4,0.1-0.8,0.4-1c0.3-0.2,0.6-0.4,1-0.4c0.5,0,0.8,0.1,1.1,0.4c0.3,0.2,0.4,0.6,0.4,1
				s-0.1,0.8-0.4,1c-0.3,0.3-0.6,0.4-1.1,0.4c-0.4,0-0.8-0.1-1-0.4C195.6,298.4,195.5,298,195.5,297.6z M195.5,304.1
				c0-0.4,0.1-0.8,0.4-1c0.3-0.2,0.6-0.4,1-0.4c0.5,0,0.8,0.1,1.1,0.4c0.3,0.2,0.4,0.6,0.4,1c0,0.4-0.1,0.8-0.4,1
				c-0.3,0.3-0.6,0.4-1.1,0.4c-0.4,0-0.8-0.1-1-0.4C195.6,304.9,195.5,304.5,195.5,304.1z"/>
			<path class="st3" d="M203,303.6c0.7,0,1.3-0.2,1.7-0.6c0.4-0.4,0.6-0.9,0.6-1.4c0-0.7-0.2-1.2-0.6-1.5c-0.4-0.3-1-0.5-1.9-0.5
				h-1.3v-1.2l2.2-3l1-0.8l-1.4,0.2h-3v-2h6.9v1.3l-2.5,3.4l-0.8,0.5v0.1l0.8-0.1c0.4,0,0.8,0.1,1.2,0.3s0.7,0.4,1,0.7
				c0.3,0.3,0.5,0.7,0.7,1.1s0.3,0.9,0.3,1.5c0,0.7-0.1,1.3-0.4,1.8c-0.2,0.5-0.6,0.9-1,1.3c-0.4,0.3-0.9,0.6-1.4,0.8
				s-1.1,0.3-1.8,0.3c-0.5,0-1.1,0-1.6-0.1c-0.6-0.1-1-0.2-1.4-0.4l0.6-1.9c0.3,0.2,0.7,0.3,1,0.4
				C202.1,303.5,202.5,303.6,203,303.6z"/>
			<path class="st3" d="M209.6,299c0-2.2,0.4-3.8,1.1-4.9c0.8-1.1,1.8-1.6,3.3-1.6c1.5,0,2.6,0.5,3.3,1.6s1.1,2.7,1.1,4.9
				c0,2.2-0.4,3.9-1.1,4.9c-0.8,1.1-1.9,1.6-3.3,1.6c-1.5,0-2.6-0.6-3.3-1.7C209.9,302.7,209.6,301.1,209.6,299z M211.9,299
				c0,1.5,0.2,2.6,0.5,3.4c0.3,0.8,0.8,1.2,1.6,1.2c0.7,0,1.2-0.4,1.6-1.1s0.5-1.9,0.5-3.5c0-1.5-0.2-2.6-0.5-3.4
				c-0.3-0.8-0.8-1.2-1.6-1.2c-0.7,0-1.2,0.4-1.6,1.1C212.1,296.3,211.9,297.4,211.9,299z"/>
			<path class="st3" d="M220,299.1h4.5v2.1H220V299.1z"/>
			<path class="st3" d="M229.5,303.5c0.8,0,1.4-0.2,1.8-0.6s0.6-0.9,0.6-1.6c0-0.7-0.2-1.2-0.7-1.6s-1.2-0.5-2.1-0.5l-1.4,0.1v-6.6
				h6.2v2.2h-4.2v2.4l0.7-0.1c0.6,0,1.1,0.1,1.6,0.3c0.5,0.2,0.9,0.5,1.2,0.8s0.6,0.8,0.8,1.2c0.2,0.5,0.3,1,0.3,1.6
				c0,0.7-0.1,1.3-0.4,1.9c-0.2,0.5-0.6,1-1,1.3c-0.4,0.4-0.9,0.6-1.5,0.8c-0.6,0.2-1.2,0.3-1.9,0.3c-0.5,0-1.1,0-1.5-0.1
				c-0.5-0.1-0.9-0.2-1.2-0.4l0.6-1.9c0.3,0.1,0.6,0.2,0.9,0.3C228.6,303.5,229,303.5,229.5,303.5z"/>
			<path class="st3" d="M237.4,297.6c0-0.4,0.1-0.8,0.4-1c0.3-0.2,0.6-0.4,1-0.4c0.5,0,0.8,0.1,1.1,0.4c0.3,0.2,0.4,0.6,0.4,1
				s-0.1,0.8-0.4,1c-0.3,0.3-0.6,0.4-1.1,0.4c-0.4,0-0.8-0.1-1-0.4C237.6,298.4,237.4,298,237.4,297.6z M237.4,304.1
				c0-0.4,0.1-0.8,0.4-1c0.3-0.2,0.6-0.4,1-0.4c0.5,0,0.8,0.1,1.1,0.4c0.3,0.2,0.4,0.6,0.4,1c0,0.4-0.1,0.8-0.4,1
				c-0.3,0.3-0.6,0.4-1.1,0.4c-0.4,0-0.8-0.1-1-0.4C237.6,304.9,237.4,304.5,237.4,304.1z"/>
			<path class="st3" d="M244.9,303.6c0.7,0,1.3-0.2,1.7-0.6s0.6-0.9,0.6-1.4c0-0.7-0.2-1.2-0.6-1.5c-0.4-0.3-1.1-0.5-1.9-0.5h-1.3
				v-1.2l2.2-3l1-0.8l-1.4,0.2h-3v-2h6.9v1.3l-2.5,3.4l-0.8,0.5v0.1l0.8-0.1c0.4,0,0.8,0.1,1.2,0.3s0.7,0.4,1,0.7
				c0.3,0.3,0.5,0.7,0.7,1.1s0.3,0.9,0.3,1.5c0,0.7-0.1,1.3-0.4,1.8s-0.6,0.9-1,1.3c-0.4,0.3-0.9,0.6-1.4,0.8s-1.1,0.3-1.8,0.3
				c-0.5,0-1.1,0-1.6-0.1c-0.6-0.1-1-0.2-1.4-0.4l0.6-1.9c0.3,0.2,0.7,0.3,1,0.4C244,303.5,244.5,303.6,244.9,303.6z"/>
			<path class="st3" d="M251.5,299c0-2.2,0.4-3.8,1.1-4.9c0.8-1.1,1.8-1.6,3.3-1.6c1.5,0,2.6,0.5,3.3,1.6s1.1,2.7,1.1,4.9
				c0,2.2-0.4,3.9-1.1,4.9c-0.8,1.1-1.9,1.6-3.3,1.6c-1.5,0-2.6-0.6-3.3-1.7C251.9,302.7,251.5,301.1,251.5,299z M253.9,299
				c0,1.5,0.2,2.6,0.5,3.4c0.3,0.8,0.8,1.2,1.6,1.2c0.7,0,1.2-0.4,1.6-1.1s0.5-1.9,0.5-3.5c0-1.5-0.2-2.6-0.5-3.4
				c-0.3-0.8-0.8-1.2-1.6-1.2c-0.7,0-1.2,0.4-1.6,1.1C254,296.3,253.9,297.4,253.9,299z"/>
			<path class="st3" d="M266.6,292.8c0.5-0.1,1.1-0.2,1.7-0.2c0.6-0.1,1.2-0.1,1.8-0.1c0.6,0,1.3,0.1,1.9,0.2s1.2,0.3,1.7,0.6
				s0.9,0.7,1.2,1.3c0.3,0.5,0.5,1.3,0.5,2.1c0,0.8-0.1,1.5-0.4,2c-0.3,0.5-0.6,1-1.1,1.3s-1,0.6-1.6,0.8s-1.2,0.2-1.8,0.2
				c-0.1,0-0.2,0-0.3,0s-0.3,0-0.4,0c-0.1,0-0.3,0-0.4,0s-0.2,0-0.3,0v4.3h-2.5V292.8z M270.3,294.7c-0.2,0-0.5,0-0.7,0
				c-0.2,0-0.4,0-0.5,0.1v4.1c0,0,0.1,0,0.2,0c0.1,0,0.2,0,0.3,0c0.1,0,0.2,0,0.3,0c0.1,0,0.2,0,0.2,0c0.3,0,0.6,0,1-0.1
				c0.3-0.1,0.6-0.2,0.9-0.3s0.5-0.4,0.6-0.7c0.2-0.3,0.2-0.7,0.2-1.1c0-0.4-0.1-0.7-0.2-1c-0.1-0.3-0.3-0.5-0.6-0.6
				s-0.5-0.3-0.8-0.3S270.6,294.7,270.3,294.7z"/>
			<path class="st3" d="M286.7,298.8l0.3-2.5h-0.1l-0.8,2l-2.7,4.7h-0.8l-2.8-4.7l-0.8-2h-0.1l0.4,2.5v6.6h-2.3v-12.6h2.2l3.4,5.8
				l0.6,1.4h0.1l0.5-1.5l3.2-5.7h2.2v12.6h-2.5V298.8z"/>
		</g>
	</g>
	<g>
		<g class="st2">
			<path class="st3" d="M37.6,338.4h-5v4.8h-1.2v-10.5h1.2v4.6h5v-4.6h1.2v10.5h-1.2V338.4z"/>
			<path class="st3" d="M40.8,339.5c0-1.3,0.3-2.2,0.8-2.9c0.6-0.7,1.4-1,2.4-1c0.6,0,1,0.1,1.5,0.3c0.4,0.2,0.8,0.5,1,0.8
				c0.3,0.3,0.5,0.8,0.6,1.2s0.2,1,0.2,1.6c0,1.3-0.3,2.2-0.8,2.9c-0.6,0.7-1.4,1-2.4,1c-0.6,0-1-0.1-1.5-0.3
				c-0.4-0.2-0.8-0.5-1-0.8s-0.5-0.8-0.6-1.2C40.9,340.6,40.8,340.1,40.8,339.5z M42.1,339.5c0,0.4,0,0.7,0.1,1.1
				c0.1,0.4,0.2,0.7,0.4,0.9c0.2,0.3,0.4,0.5,0.6,0.6c0.3,0.2,0.6,0.2,0.9,0.2c1.4,0,2-1,2-2.9c0-0.4,0-0.8-0.1-1.1
				c-0.1-0.3-0.2-0.7-0.4-0.9c-0.2-0.3-0.4-0.5-0.6-0.6c-0.3-0.2-0.6-0.2-0.9-0.2C42.7,336.6,42.1,337.6,42.1,339.5z"/>
			<path class="st3" d="M52.6,341.2c0-0.3-0.1-0.5-0.3-0.7s-0.4-0.3-0.7-0.4c-0.3-0.1-0.6-0.2-0.9-0.3c-0.3-0.1-0.6-0.2-0.9-0.4
				s-0.5-0.4-0.7-0.6c-0.2-0.3-0.3-0.6-0.3-1c0-0.7,0.2-1.2,0.6-1.6c0.4-0.3,1-0.5,1.7-0.5c0.5,0,1,0,1.4,0.1c0.4,0.1,0.7,0.2,1,0.3
				l-0.3,1c-0.2-0.1-0.5-0.2-0.8-0.3c-0.3-0.1-0.7-0.1-1-0.1c-0.4,0-0.8,0.1-1,0.2c-0.2,0.2-0.3,0.4-0.3,0.8c0,0.3,0.1,0.5,0.3,0.6
				c0.2,0.1,0.4,0.3,0.7,0.4c0.3,0.1,0.6,0.2,0.9,0.3s0.6,0.3,0.9,0.4c0.3,0.2,0.5,0.4,0.7,0.7c0.2,0.3,0.3,0.6,0.3,1.1
				c0,0.3-0.1,0.6-0.2,0.9c-0.1,0.3-0.3,0.5-0.5,0.7c-0.2,0.2-0.5,0.4-0.8,0.5c-0.3,0.1-0.7,0.2-1.1,0.2c-0.6,0-1.1-0.1-1.5-0.2
				c-0.4-0.1-0.7-0.2-1-0.4l0.4-1c0.2,0.1,0.5,0.2,0.9,0.4c0.4,0.1,0.7,0.2,1.1,0.2c0.4,0,0.8-0.1,1.1-0.3
				C52.4,342,52.6,341.7,52.6,341.2z"/>
		</g>
		<g class="st2">
			<path class="st3" d="M54.6,335.8h1.2v-1.5l1.2-0.3v1.8h2v1h-2v4.2c0,0.5,0.1,0.9,0.2,1.1s0.4,0.3,0.7,0.3c0.3,0,0.5,0,0.7-0.1
				c0.2-0.1,0.4-0.1,0.6-0.2l0.3,0.9c-0.3,0.1-0.6,0.2-0.9,0.3c-0.3,0.1-0.7,0.1-1,0.1c-0.6,0-1-0.2-1.3-0.5
				c-0.2-0.3-0.4-0.9-0.4-1.7v-4.4h-1.2V335.8z"/>
		</g>
		<g class="st2">
			<path class="st3" d="M66,342.7c-0.3,0.2-0.7,0.4-1.1,0.6c-0.5,0.1-0.9,0.2-1.4,0.2c-0.6,0-1.1-0.1-1.5-0.3
				c-0.4-0.2-0.8-0.5-1-0.8s-0.5-0.8-0.6-1.2c-0.1-0.5-0.2-1-0.2-1.6c0-1.3,0.3-2.3,0.9-2.9c0.6-0.7,1.4-1,2.4-1c0.3,0,0.7,0,1,0.1
				c0.3,0.1,0.6,0.2,0.9,0.4s0.5,0.5,0.7,0.9c0.2,0.4,0.3,0.9,0.3,1.5c0,0.3,0,0.7-0.1,1.1h-4.8c0,0.4,0,0.8,0.1,1.2
				c0.1,0.3,0.2,0.6,0.4,0.9c0.2,0.2,0.4,0.4,0.7,0.5s0.7,0.2,1.1,0.2c0.3,0,0.7-0.1,1-0.2c0.3-0.1,0.6-0.3,0.8-0.4L66,342.7z
				 M63.4,336.6c-0.6,0-1.1,0.2-1.4,0.5c-0.4,0.3-0.6,0.8-0.6,1.6h3.7c0-0.8-0.1-1.3-0.4-1.6C64.3,336.8,63.9,336.6,63.4,336.6z"/>
			<path class="st3" d="M73.9,340.7c0,0.5,0,1,0,1.4c0,0.4,0.1,0.8,0.1,1.2h-0.8l-0.3-1.1h-0.1c-0.2,0.4-0.5,0.6-0.9,0.9
				s-0.8,0.3-1.3,0.3c-1,0-1.7-0.3-2.2-0.9s-0.7-1.6-0.7-3c0-1.3,0.3-2.3,0.9-2.9c0.6-0.7,1.4-1,2.5-1c0.4,0,0.7,0,0.9,0.1
				c0.2,0,0.4,0.1,0.7,0.2v-3.1h1.2V340.7z M70.9,342.4c0.5,0,0.9-0.1,1.2-0.4c0.3-0.3,0.5-0.7,0.6-1.2v-3.7
				c-0.2-0.1-0.4-0.2-0.6-0.3c-0.2-0.1-0.5-0.1-0.9-0.1c-0.7,0-1.2,0.2-1.6,0.7s-0.6,1.2-0.6,2.2c0,0.4,0,0.8,0.1,1.1
				c0.1,0.4,0.2,0.7,0.3,0.9s0.3,0.4,0.6,0.6C70.2,342.3,70.5,342.4,70.9,342.4z"/>
		</g>
		<g class="st2">
			<path class="st3" d="M80.2,332.8h1.2v3.7h0.1c0.2-0.3,0.5-0.5,0.9-0.7c0.4-0.2,0.7-0.2,1.2-0.2c1,0,1.7,0.3,2.2,0.9
				c0.5,0.6,0.7,1.6,0.7,2.9c0,1.3-0.3,2.3-1,3c-0.6,0.7-1.5,1-2.7,1c-0.6,0-1.1-0.1-1.5-0.2c-0.5-0.1-0.8-0.2-1-0.4V332.8z
				 M83.3,336.6c-0.5,0-0.9,0.1-1.2,0.4s-0.5,0.7-0.7,1.2v3.8c0.2,0.1,0.4,0.2,0.7,0.2c0.3,0.1,0.5,0.1,0.8,0.1
				c0.7,0,1.2-0.2,1.6-0.7c0.4-0.5,0.6-1.2,0.6-2.2c0-0.4,0-0.8-0.1-1.1c-0.1-0.3-0.2-0.6-0.3-0.9c-0.1-0.2-0.3-0.4-0.6-0.6
				S83.6,336.6,83.3,336.6z"/>
		</g>
		<g class="st2">
			<path class="st3" d="M90.3,340.6l0.4,1.4h0.1l0.3-1.5l1.5-4.8h1.2l-2.2,6.7c-0.2,0.5-0.3,1-0.5,1.4s-0.3,0.9-0.5,1.2
				c-0.2,0.4-0.4,0.6-0.7,0.9c-0.2,0.2-0.5,0.3-0.9,0.3c-0.4,0-0.7-0.1-0.9-0.2l0.2-1c0.1,0,0.3,0.1,0.4,0.1c0.3,0,0.5-0.1,0.8-0.4
				c0.3-0.3,0.5-0.8,0.6-1.5l-3-7.5h1.4L90.3,340.6z"/>
		</g>
		<g class="st2">
			<path class="st3" d="M103.2,340.3h-3.9l-1,2.9h-1.2l4-10.7h0.6l4,10.7h-1.3L103.2,340.3z M99.8,339.3h3.1l-1.2-3.2l-0.4-1.6h0
				l-0.4,1.6L99.8,339.3z"/>
		</g>
		<g class="st2">
			<path class="st3" d="M113.3,342.8c-0.3,0.2-0.7,0.4-1.1,0.5s-1,0.1-1.5,0.1c-0.6,0-1.2-0.1-1.8-0.3s-1-0.5-1.4-1
				c-0.4-0.4-0.7-1-1-1.7c-0.2-0.7-0.4-1.5-0.4-2.4c0-1,0.1-1.8,0.4-2.5c0.3-0.7,0.6-1.2,1.1-1.7c0.4-0.4,0.9-0.8,1.5-1
				s1.1-0.3,1.7-0.3c0.6,0,1.1,0,1.5,0.1c0.4,0.1,0.7,0.2,1,0.3l-0.3,1.1c-0.5-0.2-1.2-0.4-2.1-0.4c-0.4,0-0.8,0.1-1.2,0.2
				c-0.4,0.1-0.8,0.4-1.1,0.7c-0.3,0.3-0.6,0.8-0.8,1.3c-0.2,0.6-0.3,1.2-0.3,2c0,0.7,0.1,1.3,0.3,1.9c0.2,0.5,0.4,1,0.7,1.4
				c0.3,0.4,0.7,0.6,1.1,0.8c0.4,0.2,0.9,0.3,1.4,0.3c0.5,0,0.8,0,1.2-0.1c0.3-0.1,0.6-0.2,0.8-0.3L113.3,342.8z"/>
			<path class="st3" d="M123.3,336.2l0.2-1.6h-0.1l-0.6,1.4l-2.7,4.7h-0.4l-2.9-4.8l-0.5-1.4h-0.1l0.2,1.6v7.1h-1.2v-10.5h0.9
				l3.3,5.4l0.5,1.2h0l0.5-1.2l3.1-5.3h1v10.5h-1.2V336.2z"/>
			<path class="st3" d="M130.8,336.3c0.4-0.2,0.8-0.4,1.3-0.5c0.5-0.1,1-0.2,1.6-0.2c0.5,0,0.9,0.1,1.3,0.2c0.3,0.1,0.6,0.3,0.7,0.5
				c0.2,0.2,0.3,0.5,0.3,0.7c0.1,0.3,0.1,0.5,0.1,0.8c0,0.6,0,1.2,0,1.8c0,0.6,0,1.1,0,1.6c0,0.4,0,0.7,0,1s0.1,0.6,0.2,0.9h-0.9
				l-0.3-1H135c-0.1,0.1-0.2,0.3-0.3,0.4s-0.3,0.3-0.5,0.4c-0.2,0.1-0.4,0.2-0.7,0.3c-0.2,0.1-0.5,0.1-0.9,0.1s-0.6,0-0.9-0.2
				c-0.3-0.1-0.5-0.2-0.7-0.4c-0.2-0.2-0.4-0.4-0.5-0.7s-0.2-0.6-0.2-0.9c0-0.4,0.1-0.8,0.3-1.1c0.2-0.3,0.4-0.5,0.8-0.7
				c0.3-0.2,0.7-0.3,1.2-0.4c0.5-0.1,1-0.1,1.5-0.1c0.1,0,0.3,0,0.4,0c0.1,0,0.3,0,0.4,0c0-0.3,0-0.6,0-0.8c0-0.5-0.1-0.9-0.3-1.2
				c-0.2-0.2-0.6-0.3-1.2-0.3c-0.2,0-0.4,0-0.5,0c-0.2,0-0.4,0.1-0.6,0.1c-0.2,0-0.4,0.1-0.6,0.2c-0.2,0.1-0.3,0.1-0.5,0.2
				L130.8,336.3z M132.9,342.3c0.3,0,0.5,0,0.8-0.1c0.2-0.1,0.4-0.2,0.6-0.3c0.2-0.1,0.3-0.2,0.4-0.4c0.1-0.1,0.2-0.3,0.2-0.4v-1.2
				c-0.1,0-0.3,0-0.4,0c-0.1,0-0.3,0-0.4,0c-0.3,0-0.6,0-0.9,0.1c-0.3,0-0.6,0.1-0.8,0.2c-0.2,0.1-0.4,0.2-0.5,0.4
				c-0.1,0.2-0.2,0.4-0.2,0.6c0,0.3,0.1,0.6,0.4,0.9S132.6,342.3,132.9,342.3z"/>
			<path class="st3" d="M143.2,343.3V339c0-0.8-0.1-1.4-0.3-1.8c-0.2-0.4-0.6-0.6-1.2-0.6c-0.5,0-1,0.1-1.3,0.4
				c-0.3,0.3-0.6,0.6-0.7,1.1v5.1h-1.2v-7.5h0.8l0.2,0.9h0.1c0.2-0.3,0.6-0.6,1-0.8s0.9-0.3,1.4-0.3c0.4,0,0.8,0,1.1,0.1
				c0.3,0.1,0.6,0.3,0.8,0.5s0.4,0.6,0.5,1c0.1,0.4,0.2,0.9,0.2,1.5v4.5H143.2z"/>
			<path class="st3" d="M152.3,340.7c0,0.5,0,1,0,1.4s0.1,0.8,0.1,1.2h-0.8l-0.3-1.1h-0.1c-0.2,0.4-0.5,0.6-0.9,0.9
				s-0.8,0.3-1.3,0.3c-1,0-1.7-0.3-2.2-0.9c-0.5-0.6-0.7-1.6-0.7-3c0-1.3,0.3-2.3,0.9-2.9c0.6-0.7,1.4-1,2.5-1c0.4,0,0.7,0,0.9,0.1
				c0.2,0,0.4,0.1,0.7,0.2v-3.1h1.2V340.7z M149.3,342.4c0.5,0,0.9-0.1,1.2-0.4c0.3-0.3,0.5-0.7,0.6-1.2v-3.7
				c-0.2-0.1-0.4-0.2-0.6-0.3c-0.2-0.1-0.5-0.1-0.9-0.1c-0.7,0-1.2,0.2-1.6,0.7c-0.4,0.5-0.6,1.2-0.6,2.2c0,0.4,0,0.8,0.1,1.1
				c0.1,0.4,0.2,0.7,0.3,0.9c0.2,0.2,0.3,0.4,0.6,0.6C148.7,342.3,149,342.4,149.3,342.4z"/>
			<path class="st3" d="M158.8,332.8c0.2,0,0.4-0.1,0.6-0.1c0.2,0,0.5,0,0.7,0s0.5,0,0.8,0s0.5,0,0.7,0c0.8,0,1.6,0.1,2.2,0.4
				c0.6,0.3,1.1,0.6,1.5,1.1s0.7,1,0.9,1.7c0.2,0.6,0.3,1.4,0.3,2.1c0,0.7-0.1,1.4-0.3,2c-0.2,0.7-0.5,1.2-0.9,1.7
				c-0.4,0.5-0.9,0.9-1.6,1.2c-0.6,0.3-1.4,0.5-2.3,0.5c-0.2,0-0.4,0-0.6,0c-0.3,0-0.5,0-0.8,0c-0.3,0-0.5,0-0.8,0
				c-0.2,0-0.4,0-0.5,0V332.8z M161.6,333.7c-0.1,0-0.3,0-0.4,0s-0.3,0-0.5,0c-0.2,0-0.3,0-0.4,0s-0.2,0-0.3,0v8.4c0,0,0.1,0,0.3,0
				c0.1,0,0.3,0,0.4,0s0.3,0,0.4,0c0.1,0,0.2,0,0.3,0c0.7,0,1.3-0.1,1.8-0.4s0.9-0.6,1.1-1c0.3-0.4,0.5-0.9,0.6-1.4
				c0.1-0.5,0.2-1.1,0.2-1.6c0-0.5-0.1-1-0.2-1.5c-0.1-0.5-0.3-0.9-0.6-1.3c-0.3-0.4-0.6-0.7-1.1-1
				C162.9,333.9,162.3,333.7,161.6,333.7z"/>
			<path class="st3" d="M173.3,340.6c0-0.4-0.1-0.8-0.4-1s-0.6-0.5-0.9-0.7s-0.8-0.4-1.2-0.6c-0.4-0.2-0.8-0.4-1.2-0.7
				s-0.7-0.6-0.9-0.9s-0.4-0.9-0.4-1.4c0-0.8,0.3-1.5,0.9-2c0.6-0.5,1.4-0.7,2.4-0.7c0.6,0,1.2,0,1.7,0.1s0.9,0.2,1.2,0.3l-0.4,1.1
				c-0.2-0.1-0.6-0.2-1-0.3c-0.4-0.1-0.9-0.2-1.5-0.2c-0.7,0-1.2,0.1-1.5,0.4c-0.3,0.3-0.5,0.6-0.5,1c0,0.4,0.1,0.7,0.4,1
				c0.2,0.3,0.6,0.5,0.9,0.7s0.8,0.4,1.2,0.6s0.8,0.4,1.2,0.7s0.7,0.6,0.9,1c0.2,0.4,0.4,0.8,0.4,1.4c0,0.5-0.1,0.9-0.2,1.2
				c-0.2,0.4-0.4,0.7-0.7,0.9c-0.3,0.3-0.7,0.5-1.1,0.6c-0.4,0.1-0.9,0.2-1.5,0.2c-0.8,0-1.4-0.1-1.9-0.2c-0.5-0.1-0.9-0.2-1.1-0.4
				l0.4-1.1c0.2,0.1,0.6,0.3,1,0.4s1,0.2,1.5,0.2c0.3,0,0.6,0,0.9-0.1c0.3-0.1,0.5-0.2,0.8-0.3c0.2-0.1,0.4-0.3,0.5-0.5
				S173.3,340.9,173.3,340.6z"/>
			<path class="st3" d="M178.8,342.4c0.3,0,0.7,0,0.9-0.1c0.3-0.1,0.5-0.2,0.8-0.4c0.2-0.2,0.4-0.4,0.5-0.7c0.1-0.3,0.2-0.6,0.2-0.9
				c0-0.7-0.2-1.2-0.6-1.6c-0.4-0.3-1-0.5-1.7-0.5h-1.1v-0.4l2.2-3.3l0.7-0.7l-1,0.2h-3v-1.1h5.4v0.4l-2.4,3.6l-0.5,0.4v0l0.5-0.1
				c0.4,0,0.8,0.1,1.1,0.2s0.6,0.3,0.9,0.6c0.2,0.3,0.4,0.6,0.6,0.9c0.1,0.4,0.2,0.8,0.2,1.2c0,0.5-0.1,1-0.3,1.4
				c-0.2,0.4-0.4,0.8-0.8,1.1c-0.3,0.3-0.7,0.5-1.1,0.7c-0.4,0.2-0.9,0.2-1.4,0.2c-0.5,0-0.9,0-1.2-0.1c-0.4-0.1-0.7-0.2-0.9-0.3
				l0.3-1.1c0.2,0.1,0.5,0.2,0.8,0.3C178,342.3,178.4,342.4,178.8,342.4z"/>
		</g>
	</g>
	<g>
		<path class="st3" d="M225.3,35.1h-5.2v14h-3.5v-14h-5.2v-3h13.9V35.1z"/>
		<path class="st3" d="M232.2,32.2h10.6v3h-7.1v3.9h6.5v3h-6.5v4.1h7.2v3h-10.7V32.2z"/>
		<path class="st3" d="M258.3,44.6c0-0.5-0.2-1-0.6-1.3c-0.5-0.4-1-0.7-1.5-0.9c-0.6-0.3-1.3-0.5-2-0.8c-0.7-0.3-1.4-0.6-2-1
			c-0.6-0.4-1.1-0.9-1.5-1.5c-0.4-0.7-0.6-1.5-0.6-2.3c0-0.7,0.1-1.5,0.4-2.1c0.3-0.6,0.7-1.1,1.2-1.5c0.6-0.4,1.2-0.7,1.9-0.9
			c0.8-0.2,1.6-0.3,2.5-0.3c1,0,2,0.1,2.9,0.3c0.8,0.1,1.6,0.4,2.3,0.7l-1.1,2.8c-0.5-0.3-1.1-0.5-1.7-0.6c-0.8-0.2-1.6-0.3-2.4-0.3
			c-0.7,0-1.3,0.1-1.9,0.5c-0.4,0.3-0.7,0.7-0.7,1.2c0,0.5,0.2,0.9,0.6,1.2c0.5,0.4,1,0.7,1.5,0.9c0.6,0.3,1.3,0.6,2,0.8
			c0.7,0.3,1.3,0.6,2,1.1c0.6,0.4,1.1,0.9,1.5,1.5c0.4,0.7,0.6,1.5,0.6,2.3c0,0.8-0.1,1.6-0.5,2.3c-0.3,0.6-0.8,1.2-1.3,1.6
			c-0.6,0.5-1.3,0.8-2.1,1c-0.9,0.2-1.8,0.3-2.7,0.3c-1.1,0-2.3-0.1-3.4-0.3c-0.7-0.2-1.5-0.4-2.1-0.7l1.1-2.8
			c0.2,0.1,0.5,0.2,0.7,0.3c0.3,0.1,0.7,0.2,1,0.3c0.4,0.1,0.8,0.2,1.2,0.2c0.4,0.1,0.9,0.1,1.3,0.1c0.8,0,1.6-0.1,2.4-0.5
			C258.1,45.8,258.4,45.2,258.3,44.6z"/>
		<path class="st3" d="M281.4,48.4c-0.6,0.4-1.3,0.7-2.1,0.8c-0.9,0.2-1.7,0.2-2.6,0.2c-1,0-2.1-0.2-3-0.5c-1-0.3-1.8-0.8-2.5-1.5
			c-0.8-0.8-1.4-1.7-1.7-2.7c-0.5-1.3-0.7-2.7-0.7-4.1c0-1.4,0.2-2.8,0.7-4.2c0.4-1,1.1-2,1.9-2.7c0.7-0.7,1.6-1.2,2.6-1.5
			c0.9-0.3,1.9-0.4,2.9-0.4c0.9,0,1.7,0.1,2.6,0.2c0.6,0.1,1.2,0.3,1.7,0.5l-0.7,2.8c-0.4-0.2-0.9-0.3-1.4-0.4
			c-0.6-0.1-1.3-0.1-2-0.1c-1.3-0.1-2.5,0.5-3.4,1.4c-1,1.3-1.4,2.9-1.3,4.4c0,0.8,0.1,1.6,0.3,2.4c0.2,0.7,0.5,1.3,0.9,1.8
			c0.4,0.5,1,0.9,1.6,1.2c0.7,0.3,1.4,0.4,2.2,0.4c0.7,0,1.3-0.1,1.9-0.2c0.5-0.1,0.9-0.3,1.4-0.6L281.4,48.4z"/>
	</g>
</g>
</svg>
