<?xml version="1.0" encoding="utf-8"?>
<!-- Generator: Adobe Illustrator 22.1.0, SVG Export Plug-In . SVG Version: 6.00 Build 0)  -->
<svg version="1.1" xmlns="http://www.w3.org/2000/svg" xmlns:xlink="http://www.w3.org/1999/xlink" x="0px" y="0px"
	 viewBox="0 0 316 388" style="enable-background:new 0 0 316 388;" xml:space="preserve">
<style type="text/css">
	.st0{fill:#00609E;}
	.st1{fill:url(#Bg-2_1_);}
	.st2{enable-background:new    ;}
	.st3{fill:#FFFFFF;}
</style>
<g id="Layer_2">
	<path id="Bg" class="st0" d="M38,0.5h240c21,0,38,17,38,38c0,0,0,0,0,0v311c0,21-17,38-38,38c0,0,0,0,0,0H38c-21,0-38-17-38-38
		c0,0,0,0,0,0v-311C0,17.5,17,0.5,38,0.5C38,0.5,38,0.5,38,0.5z"/>
	
		<linearGradient id="Bg-2_1_" gradientUnits="userSpaceOnUse" x1="-8.9981" y1="9.336" x2="376.3019" y2="441.1631" gradientTransform="matrix(1 0 0 -1 0 390)">
		<stop  offset="0" style="stop-color:#000000;stop-opacity:0.4"/>
		<stop  offset="1" style="stop-color:#FFFFFF;stop-opacity:0"/>
	</linearGradient>
	<path id="Bg-2" class="st1" d="M38,0h240c21,0,38,17,38,38c0,0,0,0,0,0v311c0,21-17,38-38,38c0,0,0,0,0,0H38c-21,0-38-17-38-38
		c0,0,0,0,0,0V38C0,17,17,0,38,0C38,0,38,0,38,0z"/>
</g>
<g id="Layer_1">
	<title>flo_cses_ieee_event</title>
	<g>
		<g class="st2">
			<path class="st3" d="M32.6,151.2c0.7-0.1,1.4-0.2,2.2-0.3c0.8-0.1,1.6-0.2,2.3-0.2c0.8-0.1,1.5-0.1,2.3-0.1c0.7,0,1.4,0,2,0
				c1.4,0,2.9,0.1,4.2,0.4c1.4,0.3,2.6,0.7,3.7,1.4c1.1,0.6,2,1.5,2.6,2.7c0.7,1.1,1,2.5,1,4.2c0,2.5-0.6,4.6-1.8,6.2
				c-1.2,1.6-2.7,2.7-4.7,3.3l2.2,1.4l7,11.7h-7l-7-12.1l-3.2-0.6v12.6h-6V151.2z M41.9,155.8c-0.6,0-1.2,0-1.8,0
				c-0.6,0-1.1,0.1-1.4,0.2v8.9h2.6c1.7,0,3-0.4,4-1.1c1-0.8,1.5-2,1.5-3.8c0-1.3-0.4-2.4-1.2-3.1S43.5,155.8,41.9,155.8z"/>
		</g>
		<g class="st2">
			<path class="st3" d="M74.5,179.8c-0.9,0.7-2.1,1.3-3.6,1.8c-1.5,0.5-3.1,0.7-4.8,0.7c-3.5,0-6.1-1-7.8-3.1
				c-1.6-2.1-2.5-4.9-2.5-8.5c0-3.9,0.9-6.8,2.8-8.7c1.8-1.9,4.4-2.9,7.8-2.9c1.1,0,2.2,0.1,3.3,0.4s2,0.8,2.8,1.5
				c0.8,0.7,1.5,1.6,2,2.7c0.5,1.1,0.7,2.6,0.7,4.3c0,0.6,0,1.3-0.1,2c-0.1,0.7-0.2,1.4-0.3,2.2H61.5c0.1,1.8,0.6,3.2,1.4,4.2
				c0.9,0.9,2.3,1.4,4.2,1.4c1.2,0,2.3-0.2,3.2-0.5c1-0.4,1.7-0.7,2.2-1.1L74.5,179.8z M66.3,163.7c-1.5,0-2.6,0.4-3.3,1.3
				c-0.7,0.9-1.2,2.1-1.3,3.6h8.2c0.1-1.6-0.1-2.8-0.7-3.7C68.5,164.1,67.6,163.7,66.3,163.7z"/>
			<path class="st3" d="M88.3,175.6c0-0.6-0.2-1.1-0.7-1.4c-0.5-0.4-1.1-0.7-1.8-1c-0.7-0.3-1.5-0.6-2.4-0.9
				c-0.9-0.3-1.7-0.7-2.4-1.3c-0.7-0.5-1.3-1.2-1.8-2.1c-0.5-0.8-0.7-1.9-0.7-3.2c0-2.2,0.6-3.8,1.9-5c1.3-1.1,3.2-1.7,5.6-1.7
				c1.7,0,3.2,0.2,4.5,0.5c1.3,0.4,2.4,0.7,3.2,1.2l-1.3,4.1c-0.7-0.3-1.5-0.5-2.6-0.8c-1-0.3-2.1-0.4-3.1-0.4c-1.7,0-2.6,0.7-2.6,2
				c0,0.5,0.2,1,0.7,1.3c0.5,0.3,1.1,0.6,1.8,0.9c0.7,0.3,1.5,0.6,2.4,0.9c0.9,0.3,1.7,0.7,2.4,1.3c0.7,0.5,1.3,1.2,1.8,2
				c0.5,0.8,0.7,1.9,0.7,3.2c0,2.2-0.7,4-2.1,5.3c-1.4,1.3-3.6,1.9-6.4,1.9c-1.6,0-3-0.2-4.4-0.6c-1.4-0.4-2.5-0.9-3.3-1.4l1.6-4.3
				c0.7,0.4,1.6,0.8,2.7,1.1c1.1,0.4,2.3,0.5,3.4,0.5c0.9,0,1.5-0.2,2-0.5C88.1,176.9,88.3,176.4,88.3,175.6z"/>
			<path class="st3" d="M103.3,159.7v12.5c0,1.8,0.2,3.1,0.6,3.9c0.4,0.8,1.3,1.2,2.5,1.2c1.1,0,2-0.3,2.7-1
				c0.7-0.6,1.3-1.4,1.6-2.4v-14.2h5.7V175c0,1.2,0.1,2.4,0.2,3.5c0.1,1.2,0.3,2.2,0.5,3.1h-4.3l-1-3.3h-0.2c-0.7,1.1-1.6,2-2.8,2.8
				c-1.2,0.7-2.6,1.1-4.3,1.1c-1.1,0-2.1-0.1-3-0.4s-1.6-0.8-2.2-1.5c-0.6-0.7-1-1.6-1.3-2.7c-0.3-1.1-0.5-2.6-0.5-4.3v-13.7H103.3z
				"/>
			<path class="st3" d="M134,181.7v-12c0-2-0.2-3.5-0.6-4.3c-0.4-0.9-1.2-1.3-2.4-1.3c-1,0-1.8,0.3-2.4,0.8
				c-0.6,0.5-1.1,1.2-1.4,2.1v14.7h-5.7v-22h4.4l0.7,2.9h0.2c0.7-0.9,1.5-1.8,2.6-2.5c1-0.7,2.4-1.1,4-1.1c1.4,0,2.6,0.3,3.5,0.9
				c0.9,0.6,1.6,1.5,2.1,2.9c0.7-1.1,1.5-2.1,2.6-2.7c1.1-0.7,2.3-1,3.8-1c1.2,0,2.3,0.1,3.1,0.4c0.9,0.3,1.6,0.8,2.1,1.5
				c0.5,0.7,0.9,1.7,1.2,2.9c0.3,1.2,0.4,2.7,0.4,4.6v13.2h-5.7v-12.4c0-1.7-0.2-3-0.5-3.9c-0.4-0.9-1.2-1.3-2.4-1.3
				c-1,0-1.8,0.3-2.4,0.8c-0.6,0.6-1,1.3-1.3,2.3v14.4H134z"/>
			<path class="st3" d="M174.5,179.8c-0.9,0.7-2.1,1.3-3.6,1.8c-1.5,0.5-3.1,0.7-4.8,0.7c-3.5,0-6.1-1-7.8-3.1
				c-1.6-2.1-2.5-4.9-2.5-8.5c0-3.9,0.9-6.8,2.8-8.7c1.8-1.9,4.4-2.9,7.8-2.9c1.1,0,2.2,0.1,3.3,0.4c1.1,0.3,2,0.8,2.8,1.5
				c0.8,0.7,1.5,1.6,2,2.7c0.5,1.1,0.7,2.6,0.7,4.3c0,0.6,0,1.3-0.1,2c-0.1,0.7-0.2,1.4-0.3,2.2h-13.2c0.1,1.8,0.6,3.2,1.4,4.2
				c0.9,0.9,2.3,1.4,4.2,1.4c1.2,0,2.3-0.2,3.2-0.5c1-0.4,1.7-0.7,2.2-1.1L174.5,179.8z M166.3,163.7c-1.5,0-2.6,0.4-3.3,1.3
				c-0.7,0.9-1.2,2.1-1.3,3.6h8.2c0.1-1.6-0.1-2.8-0.7-3.7C168.5,164.1,167.6,163.7,166.3,163.7z"/>
		</g>
		<g class="st2">
			<path class="st3" d="M53.5,230.4c-0.9,0.7-2.1,1.1-3.6,1.4c-1.5,0.3-2.9,0.4-4.5,0.4c-1.8,0-3.6-0.3-5.3-0.9
				c-1.7-0.6-3.1-1.5-4.4-2.8c-1.3-1.3-2.3-2.9-3-5c-0.7-2-1.1-4.5-1.1-7.4c0-3,0.4-5.6,1.3-7.6c0.8-2,1.9-3.7,3.3-4.9
				c1.3-1.2,2.8-2.1,4.5-2.7c1.6-0.5,3.3-0.8,4.9-0.8c1.8,0,3.2,0.1,4.5,0.4c1.2,0.2,2.2,0.5,3,0.8l-1.2,5.1
				c-0.7-0.3-1.5-0.6-2.4-0.7c-0.9-0.1-2-0.2-3.4-0.2c-2.4,0-4.4,0.9-5.9,2.6c-1.5,1.7-2.2,4.4-2.2,8.1c0,1.6,0.2,3,0.5,4.3
				c0.4,1.3,0.9,2.4,1.6,3.4c0.7,0.9,1.6,1.6,2.7,2.2c1.1,0.5,2.3,0.8,3.7,0.8c1.3,0,2.4-0.1,3.3-0.4c0.9-0.3,1.7-0.6,2.4-1
				L53.5,230.4z"/>
		</g>
		<g class="st2">
			<path class="st3" d="M68.8,215.1c-0.9-0.3-1.7-0.5-2.5-0.5c-1,0-1.9,0.3-2.6,0.8c-0.7,0.5-1.2,1.2-1.4,2.1v14.2h-5.7v-22h4.4
				l0.7,2.9h0.2c0.5-1.1,1.2-1.9,2-2.5c0.9-0.6,1.8-0.9,3-0.9c0.8,0,1.6,0.2,2.6,0.5L68.8,215.1z"/>
			<path class="st3" d="M71.8,203.5c0-0.9,0.3-1.6,0.9-2.2c0.6-0.6,1.5-0.9,2.6-0.9c1.1,0,2,0.3,2.7,0.9c0.7,0.6,1,1.3,1,2.2
				c0,0.9-0.3,1.6-1,2.1c-0.7,0.6-1.6,0.9-2.7,0.9c-1.1,0-2-0.3-2.6-0.9C72.1,205.1,71.8,204.3,71.8,203.5z M72.6,209.7h5.7v22h-5.7
				V209.7z"/>
			<path class="st3" d="M81.6,209.7h3v-4.1l5.7-1.6v5.8h5.4v4.8h-5.4v8.4c0,1.5,0.2,2.6,0.5,3.3c0.3,0.7,0.9,1,1.7,1
				c0.6,0,1.1-0.1,1.5-0.2c0.4-0.1,0.9-0.3,1.4-0.5l1,4.4c-0.8,0.4-1.7,0.7-2.8,1c-1.1,0.3-2.1,0.4-3.2,0.4c-2,0-3.5-0.5-4.5-1.6
				c-1-1-1.4-2.8-1.4-5.1v-11.1h-3V209.7z"/>
			<path class="st3" d="M98.9,203.5c0-0.9,0.3-1.6,0.9-2.2c0.6-0.6,1.5-0.9,2.6-0.9c1.1,0,2,0.3,2.7,0.9c0.7,0.6,1,1.3,1,2.2
				c0,0.9-0.3,1.6-1,2.1c-0.7,0.6-1.6,0.9-2.7,0.9c-1.1,0-2-0.3-2.6-0.9C99.3,205.1,98.9,204.3,98.9,203.5z M99.8,209.7h5.7v22h-5.7
				V209.7z"/>
			<path class="st3" d="M129.7,240.5H124v-10.7h-0.2c-0.5,0.8-1.2,1.4-2,1.8c-0.9,0.5-2,0.7-3.3,0.7c-2.7,0-4.8-0.9-6.3-2.8
				c-1.5-1.8-2.2-4.6-2.2-8.4c0-3.9,1-6.9,3-8.9c2-2,4.8-3,8.5-3c0.8,0,1.6,0,2.4,0.1s1.5,0.2,2.3,0.3c0.7,0.1,1.4,0.3,2,0.4
				c0.6,0.2,1.1,0.3,1.5,0.5V240.5z M120,227.5c1.1,0,2-0.2,2.6-0.7c0.6-0.5,1.1-1.2,1.4-2.2v-9.9c-0.4-0.2-0.9-0.4-1.5-0.5
				c-0.6-0.1-1.2-0.1-1.9-0.1c-1.6,0-2.7,0.6-3.5,1.8c-0.8,1.2-1.2,2.9-1.2,5.1c0,2.1,0.4,3.8,1.1,4.9
				C117.7,226.9,118.7,227.5,120,227.5z"/>
			<path class="st3" d="M140.2,209.7v12.5c0,1.8,0.2,3.1,0.6,3.9c0.4,0.8,1.3,1.2,2.5,1.2c1.1,0,2-0.3,2.7-1
				c0.7-0.6,1.3-1.4,1.6-2.4v-14.2h5.7V225c0,1.2,0.1,2.4,0.2,3.5c0.1,1.2,0.3,2.2,0.5,3.1h-4.3l-1-3.3h-0.2c-0.7,1.1-1.6,2-2.8,2.8
				c-1.2,0.7-2.6,1.1-4.3,1.1c-1.1,0-2.1-0.1-3-0.4s-1.6-0.8-2.2-1.5c-0.6-0.7-1-1.6-1.3-2.7c-0.3-1.1-0.5-2.6-0.5-4.3v-13.7H140.2z
				"/>
			<path class="st3" d="M175.9,229.8c-0.9,0.7-2.1,1.3-3.6,1.8c-1.5,0.5-3.1,0.7-4.8,0.7c-3.5,0-6.1-1-7.8-3.1
				c-1.6-2.1-2.5-4.9-2.5-8.5c0-3.9,0.9-6.8,2.8-8.7c1.8-1.9,4.4-2.9,7.8-2.9c1.1,0,2.2,0.1,3.3,0.4c1.1,0.3,2,0.8,2.8,1.5
				s1.5,1.6,2,2.7c0.5,1.1,0.7,2.6,0.7,4.3c0,0.6,0,1.3-0.1,2s-0.2,1.4-0.3,2.2H163c0.1,1.8,0.6,3.2,1.4,4.2
				c0.9,0.9,2.3,1.4,4.2,1.4c1.2,0,2.3-0.2,3.2-0.5c1-0.4,1.7-0.7,2.2-1.1L175.9,229.8z M167.8,213.7c-1.5,0-2.6,0.4-3.3,1.3
				c-0.7,0.9-1.2,2.1-1.3,3.6h8.2c0.1-1.6-0.1-2.8-0.7-3.7C170,214.1,169.1,213.7,167.8,213.7z"/>
		</g>
	</g>
	<g>
		<g class="st2">
			<path class="st3" d="M30.7,273.2c0-2.2,0.5-3.9,1.5-5.1c1-1.2,2.4-1.8,4.2-1.8c0.9,0,1.8,0.2,2.5,0.5c0.7,0.3,1.3,0.8,1.8,1.4
				c0.5,0.6,0.8,1.3,1,2.2c0.2,0.8,0.3,1.8,0.3,2.8c0,2.2-0.5,3.9-1.5,5.1c-1,1.2-2.4,1.8-4.2,1.8c-1,0-1.8-0.2-2.5-0.5
				c-0.7-0.3-1.3-0.8-1.8-1.4c-0.5-0.6-0.8-1.3-1-2.2S30.7,274.2,30.7,273.2z M33.5,273.2c0,0.7,0.1,1.3,0.2,1.9
				c0.1,0.6,0.3,1,0.5,1.5c0.2,0.4,0.5,0.7,0.9,1c0.4,0.2,0.8,0.3,1.3,0.3c0.9,0,1.6-0.4,2.1-1.1c0.5-0.7,0.8-1.9,0.8-3.5
				c0-0.6-0.1-1.2-0.2-1.8c-0.1-0.6-0.3-1-0.5-1.5s-0.5-0.7-0.9-1s-0.8-0.4-1.3-0.4c-0.9,0-1.6,0.4-2.1,1.1
				C33.7,270.5,33.5,271.6,33.5,273.2z M43.3,283.7c-0.6,0.2-1.2,0.2-1.8,0.2c-0.6,0-1.3-0.1-1.9-0.2c-0.6-0.1-1.2-0.3-1.8-0.4
				c-0.6-0.2-1.1-0.3-1.7-0.4c-0.5-0.1-1-0.2-1.5-0.2c-0.3,0-0.6,0-0.9,0.1v-2.2c0.4-0.1,0.7-0.1,1.1-0.1c0.5,0,1.1,0.1,1.6,0.2
				c0.5,0.1,1.1,0.3,1.6,0.4c0.5,0.1,1.1,0.3,1.7,0.4c0.6,0.1,1.2,0.2,1.8,0.2c0.3,0,0.6,0,0.9,0c0.3,0,0.6-0.1,0.9-0.2V283.7z"/>
			<path class="st3" d="M46.2,270.4v5.4c0,0.8,0.1,1.3,0.3,1.7s0.5,0.5,1.1,0.5c0.5,0,0.9-0.1,1.2-0.4c0.3-0.3,0.5-0.6,0.7-1v-6.1
				h2.5v6.6c0,0.5,0,1,0.1,1.5s0.1,1,0.2,1.4h-1.9l-0.4-1.4h-0.1c-0.3,0.5-0.7,0.9-1.2,1.2c-0.5,0.3-1.1,0.5-1.8,0.5
				c-0.5,0-0.9-0.1-1.3-0.2c-0.4-0.1-0.7-0.3-0.9-0.6c-0.3-0.3-0.4-0.7-0.6-1.2s-0.2-1.1-0.2-1.9v-5.9H46.2z"/>
			<path class="st3" d="M54,270.9c0.5-0.2,1.1-0.4,1.8-0.5c0.7-0.1,1.4-0.2,2.2-0.2c0.7,0,1.2,0.1,1.7,0.2s0.8,0.4,1.1,0.7
				c0.3,0.3,0.4,0.6,0.6,1c0.1,0.4,0.2,0.9,0.2,1.4c0,0.6,0,1.1-0.1,1.7c0,0.6-0.1,1.1-0.1,1.7c0,0.5,0,1.1,0,1.6
				c0,0.5,0.1,1,0.3,1.5h-2l-0.4-1.3h-0.1c-0.3,0.4-0.6,0.7-1.1,1c-0.4,0.3-1,0.4-1.7,0.4c-0.4,0-0.8-0.1-1.2-0.2
				c-0.4-0.1-0.7-0.3-0.9-0.6c-0.3-0.2-0.4-0.5-0.6-0.9c-0.1-0.3-0.2-0.7-0.2-1.1c0-0.6,0.1-1.1,0.4-1.5c0.3-0.4,0.6-0.7,1.1-1
				c0.5-0.2,1.1-0.4,1.7-0.5s1.4-0.1,2.3-0.1c0.1-0.7,0-1.2-0.2-1.5s-0.6-0.5-1.3-0.5c-0.5,0-1,0.1-1.6,0.2c-0.6,0.1-1,0.2-1.4,0.4
				L54,270.9z M57.1,278c0.5,0,0.9-0.1,1.2-0.3s0.5-0.5,0.6-0.7v-1.2c-0.4,0-0.8,0-1.1,0s-0.7,0.1-1,0.2c-0.3,0.1-0.5,0.2-0.7,0.4
				c-0.2,0.2-0.2,0.4-0.2,0.6c0,0.4,0.1,0.6,0.3,0.8C56.5,277.9,56.7,278,57.1,278z"/>
			<path class="st3" d="M66,276.7c0,0.4,0.1,0.8,0.2,1c0.1,0.2,0.3,0.3,0.6,0.3c0.2,0,0.3,0,0.4,0s0.3-0.1,0.5-0.2l0.3,1.9
				c-0.2,0.1-0.5,0.2-0.9,0.3c-0.4,0.1-0.8,0.2-1.3,0.2c-0.7,0-1.3-0.2-1.7-0.5c-0.4-0.3-0.6-0.9-0.6-1.7v-11.4H66V276.7z"/>
		</g>
		<g class="st2">
			<path class="st3" d="M75.8,279.3c-0.4,0.3-0.8,0.5-1.4,0.6c-0.5,0.1-1.1,0.2-1.7,0.2c-0.8,0-1.4-0.1-1.9-0.4
				c-0.5-0.2-1-0.6-1.3-1c-0.3-0.4-0.6-1-0.7-1.6c-0.1-0.6-0.2-1.3-0.2-2.1c0-1.6,0.4-2.8,1.1-3.7c0.7-0.9,1.8-1.3,3.2-1.3
				c0.7,0,1.3,0.1,1.7,0.2c0.4,0.1,0.8,0.3,1.1,0.4l-0.6,2c-0.3-0.1-0.6-0.2-0.9-0.3c-0.3-0.1-0.6-0.1-1-0.1c-0.7,0-1.2,0.2-1.6,0.7
				c-0.4,0.4-0.5,1.2-0.5,2.2c0,0.4,0,0.8,0.1,1.1c0.1,0.3,0.2,0.6,0.4,0.9c0.2,0.3,0.4,0.5,0.7,0.6c0.3,0.1,0.6,0.2,1,0.2
				c0.4,0,0.8-0.1,1.1-0.2s0.6-0.2,0.8-0.4L75.8,279.3z"/>
		</g>
		<g class="st2">
			<path class="st3" d="M76.5,275.1c0-1.6,0.4-2.8,1.2-3.7c0.8-0.9,1.9-1.3,3.3-1.3c0.8,0,1.4,0.1,2,0.4c0.6,0.2,1,0.6,1.4,1
				c0.4,0.4,0.6,1,0.8,1.6c0.2,0.6,0.3,1.3,0.3,2.1c0,1.6-0.4,2.8-1.2,3.7s-1.9,1.3-3.3,1.3c-0.8,0-1.4-0.1-2-0.4
				c-0.6-0.2-1-0.6-1.4-1c-0.4-0.4-0.7-1-0.8-1.6S76.5,275.9,76.5,275.1z M79,275.1c0,0.4,0,0.8,0.1,1.2c0.1,0.4,0.2,0.7,0.3,0.9
				c0.2,0.3,0.4,0.5,0.6,0.6c0.2,0.1,0.5,0.2,0.9,0.2c0.6,0,1.1-0.2,1.4-0.7c0.3-0.5,0.5-1.2,0.5-2.2c0-0.9-0.1-1.6-0.4-2.1
				c-0.3-0.5-0.8-0.8-1.5-0.8c-0.6,0-1.1,0.2-1.4,0.7C79.2,273.3,79,274.1,79,275.1z"/>
			<path class="st3" d="M92.5,279.9v-5.2c0-0.9-0.1-1.5-0.2-1.9c-0.2-0.4-0.5-0.6-1-0.6c-0.4,0-0.8,0.1-1,0.4s-0.5,0.5-0.6,0.9v6.3
				h-2.5v-9.5h1.9l0.3,1.3h0.1c0.3-0.4,0.7-0.8,1.1-1.1c0.4-0.3,1-0.5,1.7-0.5c0.6,0,1.1,0.1,1.5,0.4c0.4,0.2,0.7,0.7,0.9,1.2
				c0.3-0.5,0.7-0.9,1.1-1.2s1-0.4,1.7-0.4c0.5,0,1,0.1,1.4,0.2c0.4,0.1,0.7,0.3,0.9,0.7s0.4,0.7,0.5,1.2c0.1,0.5,0.2,1.2,0.2,2v5.7
				h-2.5v-5.3c0-0.7-0.1-1.3-0.2-1.7s-0.5-0.6-1.1-0.6c-0.4,0-0.8,0.1-1.1,0.4c-0.3,0.2-0.5,0.6-0.6,1v6.2H92.5z"/>
			<path class="st3" d="M107.8,279.9v-5.2c0-0.9-0.1-1.5-0.2-1.9c-0.2-0.4-0.5-0.6-1-0.6c-0.4,0-0.8,0.1-1,0.4s-0.5,0.5-0.6,0.9v6.3
				h-2.5v-9.5h1.9l0.3,1.3h0.1c0.3-0.4,0.7-0.8,1.1-1.1c0.4-0.3,1-0.5,1.7-0.5c0.6,0,1.1,0.1,1.5,0.4c0.4,0.2,0.7,0.7,0.9,1.2
				c0.3-0.5,0.7-0.9,1.1-1.2s1-0.4,1.7-0.4c0.5,0,1,0.1,1.4,0.2c0.4,0.1,0.7,0.3,0.9,0.7s0.4,0.7,0.5,1.2c0.1,0.5,0.2,1.2,0.2,2v5.7
				h-2.5v-5.3c0-0.7-0.1-1.3-0.2-1.7s-0.5-0.6-1.1-0.6c-0.4,0-0.8,0.1-1.1,0.4c-0.3,0.2-0.5,0.6-0.6,1v6.2H107.8z"/>
		</g>
		<g class="st2">
			<path class="st3" d="M131.4,279.3c-0.4,0.3-0.9,0.5-1.5,0.6s-1.3,0.2-1.9,0.2c-0.8,0-1.6-0.1-2.3-0.4c-0.7-0.2-1.3-0.6-1.9-1.2
				c-0.5-0.6-1-1.3-1.3-2.1c-0.3-0.9-0.5-1.9-0.5-3.2c0-1.3,0.2-2.4,0.5-3.3c0.4-0.9,0.8-1.6,1.4-2.1c0.6-0.5,1.2-0.9,1.9-1.2
				c0.7-0.2,1.4-0.4,2.1-0.4c0.8,0,1.4,0.1,1.9,0.2c0.5,0.1,1,0.2,1.3,0.4l-0.5,2.2c-0.3-0.1-0.6-0.2-1-0.3
				c-0.4-0.1-0.9-0.1-1.5-0.1c-1.1,0-1.9,0.4-2.5,1.1c-0.6,0.8-1,1.9-1,3.5c0,0.7,0.1,1.3,0.2,1.9c0.2,0.6,0.4,1,0.7,1.4
				c0.3,0.4,0.7,0.7,1.2,0.9c0.5,0.2,1,0.3,1.6,0.3c0.6,0,1.1-0.1,1.4-0.2s0.7-0.3,1-0.4L131.4,279.3z"/>
		</g>
		<g class="st2">
			<path class="st3" d="M131.8,275.1c0-1.6,0.4-2.8,1.2-3.7c0.8-0.9,1.9-1.3,3.3-1.3c0.8,0,1.4,0.1,2,0.4c0.6,0.2,1,0.6,1.4,1
				c0.4,0.4,0.6,1,0.8,1.6c0.2,0.6,0.3,1.3,0.3,2.1c0,1.6-0.4,2.8-1.2,3.7c-0.8,0.9-1.9,1.3-3.3,1.3c-0.8,0-1.4-0.1-2-0.4
				c-0.6-0.2-1-0.6-1.4-1s-0.7-1-0.8-1.6S131.8,275.9,131.8,275.1z M134.3,275.1c0,0.4,0,0.8,0.1,1.2c0.1,0.4,0.2,0.7,0.3,0.9
				c0.2,0.3,0.4,0.5,0.6,0.6c0.2,0.1,0.5,0.2,0.9,0.2c0.6,0,1.1-0.2,1.4-0.7c0.3-0.5,0.5-1.2,0.5-2.2c0-0.9-0.1-1.6-0.4-2.1
				c-0.3-0.5-0.8-0.8-1.5-0.8c-0.6,0-1.1,0.2-1.4,0.7C134.5,273.3,134.3,274.1,134.3,275.1z"/>
			<path class="st3" d="M148.3,279.9v-5.4c0-0.8-0.1-1.3-0.3-1.7c-0.2-0.3-0.6-0.5-1.1-0.5c-0.5,0-0.9,0.1-1.2,0.4
				c-0.3,0.3-0.6,0.6-0.7,1v6.2h-2.5v-9.5h2l0.3,1.3h0.1c0.3-0.4,0.7-0.8,1.2-1.1c0.5-0.3,1.1-0.5,1.9-0.5c0.5,0,0.9,0.1,1.3,0.2
				c0.4,0.1,0.7,0.3,0.9,0.6c0.3,0.3,0.4,0.7,0.6,1.2c0.1,0.5,0.2,1.1,0.2,1.9v5.9H148.3z"/>
		</g>
		<g class="st2">
			<path class="st3" d="M151.9,270.4h1.3v-0.5c0-1.2,0.3-2.1,0.8-2.6c0.5-0.5,1.2-0.8,2.2-0.8c1,0,1.9,0.1,2.5,0.4l-0.5,2
				c-0.3-0.1-0.5-0.2-0.8-0.2c-0.2,0-0.5,0-0.7,0c-0.3,0-0.5,0-0.6,0.1c-0.1,0.1-0.3,0.2-0.3,0.4s-0.1,0.4-0.1,0.6s0,0.5,0,0.8h2.1
				v2.1h-2.1v7.4h-2.5v-7.4h-1.3V270.4z"/>
		</g>
		<g class="st2">
			<path class="st3" d="M166.4,279c-0.4,0.3-0.9,0.6-1.5,0.8s-1.3,0.3-2.1,0.3c-1.5,0-2.7-0.4-3.4-1.3c-0.7-0.9-1.1-2.1-1.1-3.7
				c0-1.7,0.4-2.9,1.2-3.8c0.8-0.8,1.9-1.3,3.4-1.3c0.5,0,1,0.1,1.4,0.2c0.5,0.1,0.9,0.3,1.2,0.6c0.4,0.3,0.6,0.7,0.9,1.2
				c0.2,0.5,0.3,1.1,0.3,1.8c0,0.3,0,0.6,0,0.9c0,0.3-0.1,0.6-0.1,0.9h-5.7c0,0.8,0.2,1.4,0.6,1.8c0.4,0.4,1,0.6,1.8,0.6
				c0.5,0,1-0.1,1.4-0.2c0.4-0.2,0.7-0.3,0.9-0.5L166.4,279z M162.9,272.1c-0.6,0-1.1,0.2-1.4,0.6c-0.3,0.4-0.5,0.9-0.6,1.5h3.5
				c0-0.7-0.1-1.2-0.3-1.6C163.8,272.2,163.4,272.1,162.9,272.1z"/>
			<path class="st3" d="M173.7,272.7c-0.4-0.1-0.7-0.2-1.1-0.2c-0.4,0-0.8,0.1-1.1,0.4c-0.3,0.2-0.5,0.5-0.6,0.9v6.1h-2.5v-9.5h1.9
				l0.3,1.3h0.1c0.2-0.5,0.5-0.8,0.9-1.1s0.8-0.4,1.3-0.4c0.3,0,0.7,0.1,1.1,0.2L173.7,272.7z"/>
			<path class="st3" d="M182.7,279c-0.4,0.3-0.9,0.6-1.5,0.8s-1.3,0.3-2.1,0.3c-1.5,0-2.7-0.4-3.4-1.3c-0.7-0.9-1.1-2.1-1.1-3.7
				c0-1.7,0.4-2.9,1.2-3.8c0.8-0.8,1.9-1.3,3.4-1.3c0.5,0,1,0.1,1.4,0.2c0.5,0.1,0.9,0.3,1.2,0.6c0.4,0.3,0.6,0.7,0.9,1.2
				c0.2,0.5,0.3,1.1,0.3,1.8c0,0.3,0,0.6,0,0.9c0,0.3-0.1,0.6-0.1,0.9h-5.7c0,0.8,0.2,1.4,0.6,1.8c0.4,0.4,1,0.6,1.8,0.6
				c0.5,0,1-0.1,1.4-0.2c0.4-0.2,0.7-0.3,0.9-0.5L182.7,279z M179.2,272.1c-0.6,0-1.1,0.2-1.4,0.6c-0.3,0.4-0.5,0.9-0.6,1.5h3.5
				c0.1-0.7-0.1-1.2-0.3-1.6S179.7,272.1,179.2,272.1z"/>
			<path class="st3" d="M190.6,279.9v-5.4c0-0.8-0.1-1.3-0.3-1.7c-0.2-0.3-0.6-0.5-1.1-0.5c-0.5,0-0.9,0.1-1.2,0.4
				c-0.3,0.3-0.6,0.6-0.7,1v6.2h-2.5v-9.5h2l0.3,1.3h0.1c0.3-0.4,0.7-0.8,1.2-1.1c0.5-0.3,1.1-0.5,1.9-0.5c0.5,0,0.9,0.1,1.3,0.2
				c0.4,0.1,0.7,0.3,0.9,0.6c0.3,0.3,0.4,0.7,0.6,1.2c0.1,0.5,0.2,1.1,0.2,1.9v5.9H190.6z"/>
		</g>
		<g class="st2">
			<path class="st3" d="M201.9,279.3c-0.4,0.3-0.8,0.5-1.4,0.6c-0.5,0.1-1.1,0.2-1.7,0.2c-0.8,0-1.4-0.1-1.9-0.4
				c-0.5-0.2-1-0.6-1.3-1c-0.3-0.4-0.6-1-0.7-1.6s-0.2-1.3-0.2-2.1c0-1.6,0.4-2.8,1.1-3.7c0.7-0.9,1.8-1.3,3.2-1.3
				c0.7,0,1.3,0.1,1.7,0.2c0.4,0.1,0.8,0.3,1.1,0.4l-0.6,2c-0.3-0.1-0.6-0.2-0.9-0.3c-0.3-0.1-0.6-0.1-1-0.1c-0.7,0-1.2,0.2-1.6,0.7
				s-0.5,1.2-0.5,2.2c0,0.4,0,0.8,0.1,1.1c0.1,0.3,0.2,0.6,0.4,0.9c0.2,0.3,0.4,0.5,0.7,0.6c0.3,0.1,0.6,0.2,1,0.2
				c0.4,0,0.8-0.1,1.1-0.2c0.3-0.1,0.6-0.2,0.8-0.4L201.9,279.3z"/>
		</g>
		<g class="st2">
			<path class="st3" d="M210.6,279c-0.4,0.3-0.9,0.6-1.5,0.8s-1.3,0.3-2.1,0.3c-1.5,0-2.7-0.4-3.4-1.3c-0.7-0.9-1.1-2.1-1.1-3.7
				c0-1.7,0.4-2.9,1.2-3.8c0.8-0.8,1.9-1.3,3.4-1.3c0.5,0,1,0.1,1.4,0.2c0.5,0.1,0.9,0.3,1.2,0.6c0.4,0.3,0.6,0.7,0.9,1.2
				c0.2,0.5,0.3,1.1,0.3,1.8c0,0.3,0,0.6,0,0.9c0,0.3-0.1,0.6-0.1,0.9H205c0,0.8,0.2,1.4,0.6,1.8c0.4,0.4,1,0.6,1.8,0.6
				c0.5,0,1-0.1,1.4-0.2c0.4-0.2,0.7-0.3,0.9-0.5L210.6,279z M207.1,272.1c-0.6,0-1.1,0.2-1.4,0.6c-0.3,0.4-0.5,0.9-0.6,1.5h3.5
				c0.1-0.7-0.1-1.2-0.3-1.6S207.7,272.1,207.1,272.1z"/>
		</g>
		<g class="st2">
			<path class="st3" d="M226.3,279.3c-0.4,0.3-0.9,0.5-1.5,0.6s-1.3,0.2-1.9,0.2c-0.8,0-1.6-0.1-2.3-0.4c-0.7-0.2-1.3-0.6-1.9-1.2
				c-0.5-0.6-1-1.3-1.3-2.1c-0.3-0.9-0.5-1.9-0.5-3.2c0-1.3,0.2-2.4,0.5-3.3c0.4-0.9,0.8-1.6,1.4-2.1s1.2-0.9,1.9-1.2
				c0.7-0.2,1.4-0.4,2.1-0.4c0.8,0,1.4,0.1,1.9,0.2s1,0.2,1.3,0.4l-0.5,2.2c-0.3-0.1-0.6-0.2-1-0.3s-0.9-0.1-1.5-0.1
				c-1.1,0-1.9,0.4-2.5,1.1c-0.6,0.8-1,1.9-1,3.5c0,0.7,0.1,1.3,0.2,1.9c0.2,0.6,0.4,1,0.7,1.4c0.3,0.4,0.7,0.7,1.2,0.9
				c0.5,0.2,1,0.3,1.6,0.3c0.6,0,1.1-0.1,1.4-0.2s0.7-0.3,1-0.4L226.3,279.3z"/>
		</g>
		<g class="st2">
			<path class="st3" d="M234.8,279c-0.4,0.3-0.9,0.6-1.5,0.8s-1.3,0.3-2.1,0.3c-1.5,0-2.7-0.4-3.4-1.3c-0.7-0.9-1.1-2.1-1.1-3.7
				c0-1.7,0.4-2.9,1.2-3.8s1.9-1.3,3.4-1.3c0.5,0,1,0.1,1.4,0.2c0.5,0.1,0.9,0.3,1.2,0.6c0.4,0.3,0.6,0.7,0.9,1.2
				c0.2,0.5,0.3,1.1,0.3,1.8c0,0.3,0,0.6,0,0.9c0,0.3-0.1,0.6-0.1,0.9h-5.7c0,0.8,0.2,1.4,0.6,1.8c0.4,0.4,1,0.6,1.8,0.6
				c0.5,0,1-0.1,1.4-0.2c0.4-0.2,0.7-0.3,0.9-0.5L234.8,279z M231.2,272.1c-0.6,0-1.1,0.2-1.4,0.6c-0.3,0.4-0.5,0.9-0.6,1.5h3.5
				c0-0.7-0.1-1.2-0.3-1.6C232.2,272.2,231.8,272.1,231.2,272.1z"/>
			<path class="st3" d="M242.6,279.9v-5.4c0-0.8-0.1-1.3-0.3-1.7c-0.2-0.3-0.6-0.5-1.1-0.5c-0.5,0-0.9,0.1-1.2,0.4s-0.6,0.6-0.7,1
				v6.2h-2.5v-9.5h2l0.3,1.3h0.1c0.3-0.4,0.7-0.8,1.2-1.1c0.5-0.3,1.1-0.5,1.9-0.5c0.5,0,0.9,0.1,1.3,0.2c0.4,0.1,0.7,0.3,0.9,0.6
				c0.3,0.3,0.4,0.7,0.6,1.2c0.1,0.5,0.2,1.1,0.2,1.9v5.9H242.6z"/>
		</g>
		<g class="st2">
			<path class="st3" d="M246.2,270.4h1.3v-1.8l2.5-0.7v2.5h2.3v2.1H250v3.6c0,0.7,0.1,1.1,0.2,1.4s0.4,0.4,0.8,0.4
				c0.3,0,0.5,0,0.7-0.1s0.4-0.1,0.6-0.2l0.4,1.9c-0.3,0.2-0.7,0.3-1.2,0.4c-0.5,0.1-0.9,0.2-1.4,0.2c-0.9,0-1.5-0.2-1.9-0.7
				c-0.4-0.4-0.6-1.2-0.6-2.2v-4.8h-1.3V270.4z"/>
		</g>
		<g class="st2">
			<path class="st3" d="M261.3,279c-0.4,0.3-0.9,0.6-1.5,0.8s-1.3,0.3-2.1,0.3c-1.5,0-2.7-0.4-3.4-1.3c-0.7-0.9-1.1-2.1-1.1-3.7
				c0-1.7,0.4-2.9,1.2-3.8s1.9-1.3,3.4-1.3c0.5,0,1,0.1,1.4,0.2c0.5,0.1,0.9,0.3,1.2,0.6c0.4,0.3,0.6,0.7,0.9,1.2
				c0.2,0.5,0.3,1.1,0.3,1.8c0,0.3,0,0.6,0,0.9c0,0.3-0.1,0.6-0.1,0.9h-5.7c0,0.8,0.2,1.4,0.6,1.8c0.4,0.4,1,0.6,1.8,0.6
				c0.5,0,1-0.1,1.4-0.2c0.4-0.2,0.7-0.3,0.9-0.5L261.3,279z M257.8,272.1c-0.6,0-1.1,0.2-1.4,0.6c-0.3,0.4-0.5,0.9-0.6,1.5h3.5
				c0-0.7-0.1-1.2-0.3-1.6C258.8,272.2,258.3,272.1,257.8,272.1z"/>
			<path class="st3" d="M268.6,272.7c-0.4-0.1-0.7-0.2-1.1-0.2c-0.4,0-0.8,0.1-1.1,0.4c-0.3,0.2-0.5,0.5-0.6,0.9v6.1h-2.5v-9.5h1.9
				l0.3,1.3h0.1c0.2-0.5,0.5-0.8,0.9-1.1s0.8-0.4,1.3-0.4c0.3,0,0.7,0.1,1.1,0.2L268.6,272.7z"/>
		</g>
		<g class="st2">
			<path class="st3" d="M41.5,298.4l0.3-2.6h-0.1l-0.8,2.1l-2.8,5h-0.8l-3-5l-0.8-2.1h-0.1l0.4,2.6v6.9h-2.5V292h2.4l3.6,6.1
				l0.6,1.5h0.1l0.6-1.6l3.4-6h2.4v13.3h-2.6V298.4z"/>
			<path class="st3" d="M45.9,298.7c0-2.2,0.5-3.9,1.5-5.1c1-1.2,2.4-1.8,4.2-1.8c0.9,0,1.8,0.2,2.5,0.5s1.3,0.8,1.8,1.4
				c0.5,0.6,0.8,1.3,1,2.2c0.2,0.8,0.3,1.8,0.3,2.8c0,2.2-0.5,3.9-1.5,5.1c-1,1.2-2.4,1.8-4.2,1.8c-1,0-1.8-0.2-2.5-0.5
				s-1.3-0.8-1.8-1.4c-0.5-0.6-0.8-1.3-1-2.2C46,300.6,45.9,299.7,45.9,298.7z M48.7,298.7c0,0.7,0.1,1.3,0.2,1.9
				c0.1,0.6,0.3,1,0.5,1.5c0.2,0.4,0.5,0.7,0.9,0.9c0.4,0.2,0.8,0.3,1.3,0.3c0.9,0,1.6-0.4,2.1-1.1c0.5-0.7,0.8-1.9,0.8-3.5
				c0-0.6-0.1-1.2-0.2-1.8c-0.1-0.6-0.3-1-0.5-1.5s-0.5-0.7-0.9-1s-0.8-0.4-1.3-0.4c-0.9,0-1.6,0.4-2.1,1.1
				C48.9,295.9,48.7,297.1,48.7,298.7z"/>
			<path class="st3" d="M62.4,298.4l-1-2.1h-0.1l0.3,2.1v6.9h-2.5v-13.4H61l5,7.1l1,2h0.1l-0.3-2v-7h2.5v13.4h-1.9L62.4,298.4z"/>
			<path class="st3" d="M77.7,292h2.6v9.7c0,0.5-0.1,1-0.2,1.4c-0.1,0.5-0.3,0.9-0.6,1.2s-0.6,0.6-1,0.8s-0.9,0.3-1.5,0.3
				c-0.4,0-0.8,0-1.2-0.1c-0.4-0.1-0.8-0.2-1.1-0.3l0.6-2.1c0.3,0.2,0.7,0.2,1.1,0.2c0.5,0,0.9-0.2,1-0.6c0.1-0.4,0.2-0.9,0.2-1.6
				V292z"/>
			<path class="st3" d="M89.3,302.4h-4.1l-1,2.9h-2.6l4.8-13.4h1.9l4.8,13.4h-2.7L89.3,302.4z M85.8,300.3h2.9l-1-3l-0.4-2.1h-0.1
				l-0.4,2.1L85.8,300.3z"/>
			<path class="st3" d="M97.5,298.4l-1-2.1h-0.1l0.3,2.1v6.9h-2.5v-13.4h1.9l5,7.1l1,2h0.1l-0.3-2v-7h2.5v13.4h-1.9L97.5,298.4z"/>
			<path class="st3" d="M112.3,303.2h2.6v-7.5l0.3-1.3l-0.9,1.1l-1.7,1.2l-1-1.4l4.3-3.5h1.4v11.4h2.6v2.1h-7.6V303.2z"/>
			<path class="st3" d="M125.7,303.5c0.8,0,1.4-0.2,1.8-0.6s0.6-0.9,0.6-1.5c0-0.7-0.2-1.3-0.6-1.6c-0.4-0.3-1.1-0.5-2-0.5h-1.4
				v-1.3l2.3-3.1l1.1-0.9l-1.5,0.2h-3.2V292h7.3v1.3l-2.7,3.6l-0.8,0.5v0.1l0.8-0.1c0.4,0,0.9,0.1,1.3,0.3s0.7,0.4,1,0.7
				c0.3,0.3,0.5,0.7,0.7,1.1c0.2,0.5,0.3,1,0.3,1.6c0,0.7-0.1,1.4-0.4,1.9c-0.2,0.5-0.6,1-1,1.4c-0.4,0.4-0.9,0.6-1.5,0.8
				c-0.6,0.2-1.2,0.3-1.9,0.3c-0.6,0-1.1-0.1-1.7-0.2s-1.1-0.2-1.4-0.4l0.7-2.1c0.3,0.2,0.7,0.3,1.1,0.4
				C124.8,303.4,125.2,303.5,125.7,303.5z"/>
			<path class="st3" d="M145.7,295.3c0,0.6-0.1,1.3-0.4,2c-0.2,0.7-0.5,1.3-0.9,1.9c-0.4,0.6-0.8,1.2-1.2,1.8
				c-0.4,0.6-0.9,1.1-1.3,1.6l-1,0.8v0.1l1.4-0.3h3.6v2.1h-8V304c0.3-0.3,0.6-0.7,1-1.1s0.8-0.9,1.1-1.3s0.8-1,1.1-1.5
				c0.4-0.5,0.7-1,1-1.5c0.3-0.5,0.5-1,0.7-1.5c0.2-0.5,0.3-0.9,0.3-1.4c0-0.5-0.1-0.9-0.4-1.3c-0.3-0.3-0.8-0.5-1.4-0.5
				c-0.4,0-0.8,0.1-1.2,0.3c-0.4,0.2-0.8,0.4-1.1,0.7l-1-1.7c0.5-0.4,1.1-0.7,1.7-1c0.6-0.2,1.4-0.4,2.2-0.4c0.5,0,1,0.1,1.5,0.2
				c0.5,0.2,0.8,0.4,1.2,0.7c0.3,0.3,0.6,0.7,0.8,1.1C145.6,294.2,145.7,294.7,145.7,295.3z"/>
			<path class="st3" d="M148.2,298.6c0-2.3,0.4-4.1,1.2-5.2c0.8-1.1,1.9-1.7,3.4-1.7c1.6,0,2.8,0.6,3.5,1.7c0.7,1.1,1.1,2.9,1.1,5.2
				c0,2.3-0.4,4.1-1.2,5.2c-0.8,1.1-2,1.7-3.4,1.7c-1.6,0-2.7-0.6-3.5-1.8S148.2,300.9,148.2,298.6z M150.7,298.6
				c0,1.5,0.2,2.7,0.5,3.6s0.9,1.3,1.7,1.3c0.7,0,1.3-0.4,1.6-1.2c0.3-0.8,0.5-2,0.5-3.7c0-1.5-0.2-2.7-0.5-3.6s-0.9-1.3-1.7-1.3
				c-0.8,0-1.3,0.4-1.6,1.2S150.7,297,150.7,298.6z"/>
			<path class="st3" d="M167.3,295.3c0,0.6-0.1,1.3-0.4,2c-0.2,0.7-0.5,1.3-0.9,1.9c-0.4,0.6-0.8,1.2-1.2,1.8
				c-0.4,0.6-0.9,1.1-1.3,1.6l-1,0.8v0.1l1.4-0.3h3.6v2.1h-8V304c0.3-0.3,0.6-0.7,1-1.1s0.8-0.9,1.1-1.3s0.8-1,1.1-1.5
				c0.4-0.5,0.7-1,1-1.5c0.3-0.5,0.5-1,0.7-1.5c0.2-0.5,0.3-0.9,0.3-1.4c0-0.5-0.1-0.9-0.4-1.3c-0.3-0.3-0.8-0.5-1.4-0.5
				c-0.4,0-0.8,0.1-1.2,0.3c-0.4,0.2-0.8,0.4-1.1,0.7l-1-1.7c0.5-0.4,1.1-0.7,1.7-1c0.6-0.2,1.4-0.4,2.2-0.4c0.5,0,1,0.1,1.5,0.2
				c0.5,0.2,0.8,0.4,1.2,0.7c0.3,0.3,0.6,0.7,0.8,1.1C167.2,294.2,167.3,294.7,167.3,295.3z"/>
			<path class="st3" d="M169.8,298.6c0-2.3,0.4-4.1,1.2-5.2c0.8-1.1,1.9-1.7,3.4-1.7c1.6,0,2.8,0.6,3.5,1.7c0.7,1.1,1.1,2.9,1.1,5.2
				c0,2.3-0.4,4.1-1.2,5.2c-0.8,1.1-2,1.7-3.4,1.7c-1.6,0-2.7-0.6-3.5-1.8S169.8,300.9,169.8,298.6z M172.2,298.6
				c0,1.5,0.2,2.7,0.5,3.6s0.9,1.3,1.7,1.3c0.7,0,1.3-0.4,1.6-1.2c0.3-0.8,0.5-2,0.5-3.7c0-1.5-0.2-2.7-0.5-3.6
				c-0.3-0.8-0.9-1.3-1.7-1.3c-0.8,0-1.3,0.4-1.6,1.2S172.2,297,172.2,298.6z"/>
			<path class="st3" d="M185.5,299.3c0-0.4,0.1-0.8,0.4-1.1c0.3-0.3,0.6-0.4,1.1-0.4c0.5,0,0.9,0.1,1.1,0.4c0.3,0.3,0.4,0.6,0.4,1.1
				s-0.1,0.8-0.4,1.1c-0.3,0.3-0.7,0.4-1.1,0.4c-0.5,0-0.8-0.1-1.1-0.4C185.6,300.1,185.5,299.8,185.5,299.3z"/>
		</g>
		<g class="st2">
			<path class="st3" d="M196.2,305.3l4.4-10.2l0.8-0.9l-1.1,0.2h-4.9V292h8.6v0.7l-5.3,12.6H196.2z"/>
		</g>
		<g class="st2">
			<path class="st3" d="M209,298.8h4.8v2.2H209V298.8z"/>
		</g>
		<g class="st2">
			<path class="st3" d="M218.9,296.2c0-0.6,0.1-1.2,0.3-1.8s0.5-1,0.9-1.4c0.4-0.4,0.8-0.7,1.4-0.9c0.5-0.2,1.2-0.3,1.9-0.3
				c1.4,0,2.6,0.4,3.4,1.3c0.8,0.9,1.2,2.1,1.2,3.7c0,1.5-0.2,2.7-0.6,3.8c-0.4,1.1-0.9,2-1.5,2.7c-0.6,0.7-1.4,1.3-2.2,1.6
				c-0.8,0.4-1.7,0.6-2.6,0.7l-0.5-1.9c0.7-0.1,1.3-0.3,1.9-0.5c0.5-0.3,1-0.6,1.4-0.9c0.4-0.4,0.7-0.8,1-1.3c0.2-0.5,0.4-1,0.5-1.5
				c-0.3,0.3-0.6,0.6-1,0.7s-0.8,0.2-1.4,0.2c-0.5,0-1-0.1-1.4-0.2c-0.5-0.2-0.9-0.4-1.3-0.8c-0.4-0.3-0.7-0.8-0.9-1.3
				C219,297.5,218.9,296.9,218.9,296.2z M221.3,296c0,0.7,0.2,1.3,0.6,1.6c0.4,0.4,0.9,0.6,1.5,0.6c0.5,0,0.9-0.1,1.3-0.2
				c0.3-0.2,0.6-0.4,0.8-0.6c0-0.3,0.1-0.5,0.1-0.8c0-0.4,0-0.7-0.1-1s-0.2-0.6-0.4-0.9c-0.2-0.3-0.4-0.5-0.7-0.6
				c-0.3-0.2-0.6-0.2-1-0.2c-0.6,0-1.1,0.2-1.4,0.6C221.5,294.8,221.3,295.3,221.3,296z"/>
			<path class="st3" d="M234.8,292.1c0.5-0.1,1.1-0.2,1.8-0.2c0.6-0.1,1.3-0.1,1.9-0.1c0.7,0,1.3,0.1,2,0.2s1.3,0.3,1.8,0.6
				c0.5,0.3,1,0.8,1.3,1.3c0.3,0.6,0.5,1.3,0.5,2.3c0,0.8-0.1,1.5-0.4,2.1c-0.3,0.6-0.7,1-1.2,1.4c-0.5,0.4-1,0.6-1.6,0.8
				c-0.6,0.2-1.3,0.2-1.9,0.2c-0.1,0-0.2,0-0.3,0s-0.3,0-0.4,0c-0.2,0-0.3,0-0.4,0c-0.1,0-0.2,0-0.3,0v4.6h-2.6V292.1z M238.7,294.1
				c-0.3,0-0.5,0-0.7,0c-0.2,0-0.4,0-0.6,0.1v4.3c0,0,0.1,0,0.2,0c0.1,0,0.2,0,0.3,0c0.1,0,0.2,0,0.3,0s0.2,0,0.2,0
				c0.3,0,0.7,0,1-0.1s0.6-0.2,0.9-0.4s0.5-0.4,0.6-0.7c0.2-0.3,0.2-0.7,0.2-1.2c0-0.4-0.1-0.8-0.2-1c-0.2-0.3-0.4-0.5-0.6-0.7
				c-0.2-0.2-0.5-0.3-0.8-0.3C239.3,294.1,239,294.1,238.7,294.1z"/>
			<path class="st3" d="M256,298.4l0.3-2.6h-0.1l-0.8,2.1l-2.8,5h-0.8l-3-5l-0.8-2.1h-0.1l0.4,2.6v6.9h-2.5V292h2.4l3.6,6.1l0.6,1.5
				h0.1l0.6-1.6l3.4-6h2.4v13.3H256V298.4z"/>
		</g>
	</g>
	<g>
		<g class="st2">
			<path class="st3" d="M37.6,338.4h-5v4.8h-1.2v-10.5h1.2v4.6h5v-4.6h1.2v10.5h-1.2V338.4z"/>
			<path class="st3" d="M40.8,339.5c0-1.3,0.3-2.2,0.8-2.9c0.6-0.7,1.4-1,2.4-1c0.6,0,1,0.1,1.5,0.3c0.4,0.2,0.8,0.5,1,0.8
				c0.3,0.3,0.5,0.8,0.6,1.2s0.2,1,0.2,1.6c0,1.3-0.3,2.2-0.8,2.9c-0.6,0.7-1.4,1-2.4,1c-0.6,0-1-0.1-1.5-0.3
				c-0.4-0.2-0.8-0.5-1-0.8s-0.5-0.8-0.6-1.2C40.9,340.6,40.8,340.1,40.8,339.5z M42.1,339.5c0,0.4,0,0.7,0.1,1.1
				c0.1,0.4,0.2,0.7,0.4,0.9c0.2,0.3,0.4,0.5,0.6,0.6c0.3,0.2,0.6,0.2,0.9,0.2c1.4,0,2-1,2-2.9c0-0.4,0-0.8-0.1-1.1
				c-0.1-0.3-0.2-0.7-0.4-0.9c-0.2-0.3-0.4-0.5-0.6-0.6c-0.3-0.2-0.6-0.2-0.9-0.2C42.7,336.6,42.1,337.6,42.1,339.5z"/>
			<path class="st3" d="M52.6,341.2c0-0.3-0.1-0.5-0.3-0.7s-0.4-0.3-0.7-0.4c-0.3-0.1-0.6-0.2-0.9-0.3c-0.3-0.1-0.6-0.2-0.9-0.4
				s-0.5-0.4-0.7-0.6c-0.2-0.3-0.3-0.6-0.3-1c0-0.7,0.2-1.2,0.6-1.6c0.4-0.3,1-0.5,1.7-0.5c0.5,0,1,0,1.4,0.1c0.4,0.1,0.7,0.2,1,0.3
				l-0.3,1c-0.2-0.1-0.5-0.2-0.8-0.3c-0.3-0.1-0.7-0.1-1-0.1c-0.4,0-0.8,0.1-1,0.2c-0.2,0.2-0.3,0.4-0.3,0.8c0,0.3,0.1,0.5,0.3,0.6
				c0.2,0.1,0.4,0.3,0.7,0.4c0.3,0.1,0.6,0.2,0.9,0.3s0.6,0.3,0.9,0.4c0.3,0.2,0.5,0.4,0.7,0.7c0.2,0.3,0.3,0.6,0.3,1.1
				c0,0.3-0.1,0.6-0.2,0.9c-0.1,0.3-0.3,0.5-0.5,0.7c-0.2,0.2-0.5,0.4-0.8,0.5c-0.3,0.1-0.7,0.2-1.1,0.2c-0.6,0-1.1-0.1-1.5-0.2
				c-0.4-0.1-0.7-0.2-1-0.4l0.4-1c0.2,0.1,0.5,0.2,0.9,0.4c0.4,0.1,0.7,0.2,1.1,0.2c0.4,0,0.8-0.1,1.1-0.3
				C52.4,342,52.6,341.7,52.6,341.2z"/>
		</g>
		<g class="st2">
			<path class="st3" d="M54.6,335.8h1.2v-1.5l1.2-0.3v1.8h2v1h-2v4.2c0,0.5,0.1,0.9,0.2,1.1s0.4,0.3,0.7,0.3c0.3,0,0.5,0,0.7-0.1
				c0.2-0.1,0.4-0.1,0.6-0.2l0.3,0.9c-0.3,0.1-0.6,0.2-0.9,0.3c-0.3,0.1-0.7,0.1-1,0.1c-0.6,0-1-0.2-1.3-0.5
				c-0.2-0.3-0.4-0.9-0.4-1.7v-4.4h-1.2V335.8z"/>
		</g>
		<g class="st2">
			<path class="st3" d="M66,342.7c-0.3,0.2-0.7,0.4-1.1,0.6c-0.5,0.1-0.9,0.2-1.4,0.2c-0.6,0-1.1-0.1-1.5-0.3
				c-0.4-0.2-0.8-0.5-1-0.8s-0.5-0.8-0.6-1.2c-0.1-0.5-0.2-1-0.2-1.6c0-1.3,0.3-2.3,0.9-2.9c0.6-0.7,1.4-1,2.4-1c0.3,0,0.7,0,1,0.1
				c0.3,0.1,0.6,0.2,0.9,0.4s0.5,0.5,0.7,0.9c0.2,0.4,0.3,0.9,0.3,1.5c0,0.3,0,0.7-0.1,1.1h-4.8c0,0.4,0,0.8,0.1,1.2
				c0.1,0.3,0.2,0.6,0.4,0.9c0.2,0.2,0.4,0.4,0.7,0.5s0.7,0.2,1.1,0.2c0.3,0,0.7-0.1,1-0.2c0.3-0.1,0.6-0.3,0.8-0.4L66,342.7z
				 M63.4,336.6c-0.6,0-1.1,0.2-1.4,0.5c-0.4,0.3-0.6,0.8-0.6,1.6h3.7c0-0.8-0.1-1.3-0.4-1.6C64.3,336.8,63.9,336.6,63.4,336.6z"/>
			<path class="st3" d="M73.9,340.7c0,0.5,0,1,0,1.4c0,0.4,0.1,0.8,0.1,1.2h-0.8l-0.3-1.1h-0.1c-0.2,0.4-0.5,0.6-0.9,0.9
				s-0.8,0.3-1.3,0.3c-1,0-1.7-0.3-2.2-0.9s-0.7-1.6-0.7-3c0-1.3,0.3-2.3,0.9-2.9c0.6-0.7,1.4-1,2.5-1c0.4,0,0.7,0,0.9,0.1
				c0.2,0,0.4,0.1,0.7,0.2v-3.1h1.2V340.7z M70.9,342.4c0.5,0,0.9-0.1,1.2-0.4c0.3-0.3,0.5-0.7,0.6-1.2v-3.7
				c-0.2-0.1-0.4-0.2-0.6-0.3c-0.2-0.1-0.5-0.1-0.9-0.1c-0.7,0-1.2,0.2-1.6,0.7s-0.6,1.2-0.6,2.2c0,0.4,0,0.8,0.1,1.1
				c0.1,0.4,0.2,0.7,0.3,0.9s0.3,0.4,0.6,0.6C70.2,342.3,70.5,342.4,70.9,342.4z"/>
		</g>
		<g class="st2">
			<path class="st3" d="M80.2,332.8h1.2v3.7h0.1c0.2-0.3,0.5-0.5,0.9-0.7c0.4-0.2,0.7-0.2,1.2-0.2c1,0,1.7,0.3,2.2,0.9
				c0.5,0.6,0.7,1.6,0.7,2.9c0,1.3-0.3,2.3-1,3c-0.6,0.7-1.5,1-2.7,1c-0.6,0-1.1-0.1-1.5-0.2c-0.5-0.1-0.8-0.2-1-0.4V332.8z
				 M83.3,336.6c-0.5,0-0.9,0.1-1.2,0.4s-0.5,0.7-0.7,1.2v3.8c0.2,0.1,0.4,0.2,0.7,0.2c0.3,0.1,0.5,0.1,0.8,0.1
				c0.7,0,1.2-0.2,1.6-0.7c0.4-0.5,0.6-1.2,0.6-2.2c0-0.4,0-0.8-0.1-1.1c-0.1-0.3-0.2-0.6-0.3-0.9c-0.1-0.2-0.3-0.4-0.6-0.6
				S83.6,336.6,83.3,336.6z"/>
		</g>
		<g class="st2">
			<path class="st3" d="M90.3,340.6l0.4,1.4h0.1l0.3-1.5l1.5-4.8h1.2l-2.2,6.7c-0.2,0.5-0.3,1-0.5,1.4s-0.3,0.9-0.5,1.2
				c-0.2,0.4-0.4,0.6-0.7,0.9c-0.2,0.2-0.5,0.3-0.9,0.3c-0.4,0-0.7-0.1-0.9-0.2l0.2-1c0.1,0,0.3,0.1,0.4,0.1c0.3,0,0.5-0.1,0.8-0.4
				c0.3-0.3,0.5-0.8,0.6-1.5l-3-7.5h1.4L90.3,340.6z"/>
		</g>
		<g class="st2">
			<path class="st3" d="M105.4,342.8c-0.3,0.2-0.7,0.4-1.1,0.5s-1,0.1-1.5,0.1c-0.6,0-1.2-0.1-1.8-0.3c-0.6-0.2-1-0.5-1.4-1
				c-0.4-0.4-0.7-1-1-1.7c-0.2-0.7-0.4-1.5-0.4-2.4c0-1,0.1-1.8,0.4-2.5c0.3-0.7,0.6-1.2,1.1-1.7c0.4-0.4,0.9-0.8,1.5-1
				s1.1-0.3,1.6-0.3c0.6,0,1.1,0,1.5,0.1c0.4,0.1,0.7,0.2,1,0.3L105,334c-0.5-0.2-1.2-0.4-2.1-0.4c-0.4,0-0.8,0.1-1.2,0.2
				c-0.4,0.1-0.8,0.4-1.1,0.7c-0.3,0.3-0.6,0.8-0.8,1.3c-0.2,0.6-0.3,1.2-0.3,2c0,0.7,0.1,1.3,0.3,1.9c0.2,0.5,0.4,1,0.7,1.4
				c0.3,0.4,0.7,0.6,1.1,0.8c0.4,0.2,0.9,0.3,1.4,0.3c0.5,0,0.8,0,1.2-0.1c0.3-0.1,0.6-0.2,0.8-0.3L105.4,342.8z"/>
			<path class="st3" d="M112,340.6c0-0.4-0.1-0.8-0.4-1c-0.2-0.3-0.6-0.5-0.9-0.7s-0.8-0.4-1.2-0.6c-0.4-0.2-0.8-0.4-1.2-0.7
				s-0.7-0.6-0.9-0.9s-0.4-0.9-0.4-1.4c0-0.8,0.3-1.5,0.9-2c0.6-0.5,1.4-0.7,2.4-0.7c0.6,0,1.2,0,1.7,0.1s0.9,0.2,1.2,0.3l-0.4,1.1
				c-0.2-0.1-0.6-0.2-1-0.3c-0.4-0.1-0.9-0.2-1.5-0.2c-0.7,0-1.2,0.1-1.5,0.4c-0.3,0.3-0.5,0.6-0.5,1c0,0.4,0.1,0.7,0.4,1
				c0.2,0.3,0.6,0.5,0.9,0.7s0.8,0.4,1.2,0.6c0.4,0.2,0.8,0.4,1.2,0.7s0.7,0.6,0.9,1c0.2,0.4,0.4,0.8,0.4,1.4c0,0.5-0.1,0.9-0.2,1.2
				c-0.2,0.4-0.4,0.7-0.7,0.9s-0.7,0.5-1.1,0.6c-0.4,0.1-0.9,0.2-1.5,0.2c-0.8,0-1.4-0.1-1.9-0.2c-0.5-0.1-0.9-0.2-1.1-0.4l0.4-1.1
				c0.2,0.1,0.6,0.3,1,0.4c0.5,0.1,1,0.2,1.5,0.2c0.3,0,0.6,0,0.9-0.1c0.3-0.1,0.5-0.2,0.8-0.3c0.2-0.1,0.4-0.3,0.5-0.5
				C111.9,341.1,112,340.9,112,340.6z"/>
			<path class="st3" d="M115.2,332.8h5.7v1.1h-4.5v3.4h4.1v1.1h-4.1v3.7h4.5v1.1h-5.8V332.8z"/>
			<path class="st3" d="M128,340.6c0-0.4-0.1-0.8-0.4-1c-0.2-0.3-0.6-0.5-0.9-0.7s-0.8-0.4-1.2-0.6c-0.4-0.2-0.8-0.4-1.2-0.7
				s-0.7-0.6-0.9-0.9s-0.4-0.9-0.4-1.4c0-0.8,0.3-1.5,0.9-2c0.6-0.5,1.4-0.7,2.4-0.7c0.6,0,1.2,0,1.7,0.1s0.9,0.2,1.2,0.3l-0.4,1.1
				c-0.2-0.1-0.6-0.2-1-0.3c-0.4-0.1-0.9-0.2-1.5-0.2c-0.7,0-1.2,0.1-1.5,0.4c-0.3,0.3-0.5,0.6-0.5,1c0,0.4,0.1,0.7,0.4,1
				c0.2,0.3,0.6,0.5,0.9,0.7s0.8,0.4,1.2,0.6c0.4,0.2,0.8,0.4,1.2,0.7s0.7,0.6,0.9,1c0.2,0.4,0.4,0.8,0.4,1.4c0,0.5-0.1,0.9-0.2,1.2
				c-0.2,0.4-0.4,0.7-0.7,0.9s-0.7,0.5-1.1,0.6c-0.4,0.1-0.9,0.2-1.5,0.2c-0.8,0-1.4-0.1-1.9-0.2c-0.5-0.1-0.9-0.2-1.1-0.4l0.4-1.1
				c0.2,0.1,0.6,0.3,1,0.4c0.5,0.1,1,0.2,1.5,0.2c0.3,0,0.6,0,0.9-0.1c0.3-0.1,0.5-0.2,0.8-0.3c0.2-0.1,0.4-0.3,0.5-0.5
				C127.9,341.1,128,340.9,128,340.6z"/>
			<path class="st3" d="M135,336.3c0.4-0.2,0.8-0.4,1.3-0.5c0.5-0.1,1-0.2,1.6-0.2c0.5,0,0.9,0.1,1.3,0.2c0.3,0.1,0.6,0.3,0.7,0.5
				c0.2,0.2,0.3,0.5,0.3,0.7c0.1,0.3,0.1,0.5,0.1,0.8c0,0.6,0,1.2,0,1.8c0,0.6,0,1.1,0,1.6c0,0.4,0,0.7,0,1c0,0.3,0.1,0.6,0.2,0.9
				h-0.9l-0.3-1h-0.1c-0.1,0.1-0.2,0.3-0.3,0.4c-0.1,0.1-0.3,0.3-0.5,0.4c-0.2,0.1-0.4,0.2-0.7,0.3c-0.2,0.1-0.5,0.1-0.9,0.1
				c-0.3,0-0.6,0-0.9-0.2c-0.3-0.1-0.5-0.2-0.7-0.4c-0.2-0.2-0.4-0.4-0.5-0.7c-0.1-0.3-0.2-0.6-0.2-0.9c0-0.4,0.1-0.8,0.3-1.1
				s0.4-0.5,0.8-0.7c0.3-0.2,0.7-0.3,1.2-0.4c0.5-0.1,1-0.1,1.5-0.1c0.1,0,0.3,0,0.4,0c0.1,0,0.3,0,0.4,0c0-0.3,0-0.6,0-0.8
				c0-0.5-0.1-0.9-0.3-1.2c-0.2-0.2-0.6-0.3-1.2-0.3c-0.2,0-0.4,0-0.5,0s-0.4,0.1-0.6,0.1c-0.2,0-0.4,0.1-0.6,0.2
				c-0.2,0.1-0.3,0.1-0.5,0.2L135,336.3z M137.1,342.3c0.3,0,0.5,0,0.8-0.1c0.2-0.1,0.4-0.2,0.6-0.3c0.2-0.1,0.3-0.2,0.4-0.4
				s0.2-0.3,0.2-0.4v-1.2c-0.1,0-0.3,0-0.4,0c-0.1,0-0.3,0-0.4,0c-0.3,0-0.6,0-0.9,0.1c-0.3,0-0.6,0.1-0.8,0.2
				c-0.2,0.1-0.4,0.2-0.5,0.4c-0.1,0.2-0.2,0.4-0.2,0.6c0,0.3,0.1,0.6,0.4,0.9S136.7,342.3,137.1,342.3z"/>
			<path class="st3" d="M147.4,343.3V339c0-0.8-0.1-1.4-0.3-1.8c-0.2-0.4-0.6-0.6-1.2-0.6c-0.5,0-1,0.1-1.3,0.4
				c-0.3,0.3-0.6,0.6-0.7,1.1v5.1h-1.2v-7.5h0.8l0.2,0.9h0.1c0.2-0.3,0.6-0.6,1-0.8c0.4-0.2,0.9-0.3,1.4-0.3c0.4,0,0.8,0,1.1,0.1
				c0.3,0.1,0.6,0.3,0.8,0.5s0.4,0.6,0.5,1s0.2,0.9,0.2,1.5v4.5H147.4z"/>
			<path class="st3" d="M156.5,340.7c0,0.5,0,1,0,1.4c0,0.4,0.1,0.8,0.1,1.2h-0.8l-0.3-1.1h-0.1c-0.2,0.4-0.5,0.6-0.9,0.9
				s-0.8,0.3-1.3,0.3c-1,0-1.7-0.3-2.2-0.9s-0.7-1.6-0.7-3c0-1.3,0.3-2.3,0.9-2.9c0.6-0.7,1.4-1,2.5-1c0.4,0,0.7,0,0.9,0.1
				c0.2,0,0.4,0.1,0.7,0.2v-3.1h1.2V340.7z M153.5,342.4c0.5,0,0.9-0.1,1.2-0.4c0.3-0.3,0.5-0.7,0.6-1.2v-3.7
				c-0.2-0.1-0.4-0.2-0.6-0.3c-0.2-0.1-0.5-0.1-0.9-0.1c-0.7,0-1.2,0.2-1.6,0.7s-0.6,1.2-0.6,2.2c0,0.4,0,0.8,0.1,1.1
				c0.1,0.4,0.2,0.7,0.3,0.9s0.3,0.4,0.6,0.6C152.8,342.3,153.1,342.4,153.5,342.4z"/>
			<path class="st3" d="M163.2,332.8h1.2v10.5h-1.2V332.8z"/>
			<path class="st3" d="M167.3,332.8h5.7v1.1h-4.5v3.4h4.1v1.1h-4.1v3.7h4.5v1.1h-5.8V332.8z"/>
			<path class="st3" d="M175.4,332.8h5.7v1.1h-4.5v3.4h4.1v1.1h-4.1v3.7h4.5v1.1h-5.8V332.8z"/>
			<path class="st3" d="M183.4,332.8h5.7v1.1h-4.5v3.4h4.1v1.1h-4.1v3.7h4.5v1.1h-5.8V332.8z"/>
		</g>
	</g>
	<g>
		<path class="st3" d="M225.3,34.6h-5.2v14h-3.5v-14h-5.2v-3h13.9V34.6z"/>
		<path class="st3" d="M232.2,31.7h10.6v3h-7.1v3.9h6.5v3h-6.5v4.1h7.2v3h-10.7V31.7z"/>
		<path class="st3" d="M258.3,44.1c0-0.5-0.2-1-0.6-1.3c-0.5-0.4-1-0.7-1.5-0.9c-0.6-0.3-1.3-0.5-2-0.8c-0.7-0.3-1.4-0.6-2-1
			c-0.6-0.4-1.1-0.9-1.5-1.5c-0.4-0.7-0.6-1.5-0.6-2.3c0-0.7,0.1-1.5,0.4-2.1c0.3-0.6,0.7-1.1,1.2-1.5c0.6-0.4,1.2-0.7,1.9-0.9
			c0.8-0.2,1.6-0.3,2.5-0.3c1,0,2,0.1,2.9,0.3c0.8,0.1,1.6,0.4,2.3,0.7l-1.1,2.8c-0.5-0.3-1.1-0.5-1.7-0.6c-0.8-0.2-1.6-0.3-2.4-0.3
			c-0.7,0-1.3,0.1-1.9,0.5c-0.4,0.3-0.7,0.7-0.7,1.2c0,0.5,0.2,0.9,0.6,1.2c0.5,0.4,1,0.7,1.5,0.9c0.6,0.3,1.3,0.6,2,0.8
			c0.7,0.3,1.3,0.6,2,1.1c0.6,0.4,1.1,0.9,1.5,1.5c0.4,0.7,0.6,1.5,0.6,2.3c0,0.8-0.1,1.6-0.5,2.3c-0.3,0.6-0.8,1.2-1.3,1.6
			c-0.6,0.5-1.3,0.8-2.1,1c-0.9,0.2-1.8,0.3-2.7,0.3c-1.1,0-2.3-0.1-3.4-0.3c-0.7-0.2-1.5-0.4-2.1-0.7l1.1-2.8
			c0.2,0.1,0.5,0.2,0.7,0.3c0.3,0.1,0.7,0.2,1,0.3c0.4,0.1,0.8,0.2,1.2,0.2c0.4,0.1,0.9,0.1,1.3,0.1c0.8,0,1.6-0.1,2.4-0.5
			C258.1,45.3,258.4,44.7,258.3,44.1z"/>
		<path class="st3" d="M281.4,47.9c-0.6,0.4-1.3,0.7-2.1,0.8c-0.9,0.2-1.7,0.2-2.6,0.2c-1,0-2.1-0.2-3-0.5c-1-0.3-1.8-0.8-2.5-1.5
			c-0.8-0.8-1.4-1.7-1.7-2.7c-0.5-1.3-0.7-2.7-0.7-4.1c0-1.4,0.2-2.8,0.7-4.2c0.4-1,1.1-2,1.9-2.7c0.7-0.7,1.6-1.2,2.6-1.5
			c0.9-0.3,1.9-0.4,2.9-0.4c0.9,0,1.7,0.1,2.6,0.2c0.6,0.1,1.2,0.3,1.7,0.5l-0.7,2.8c-0.4-0.2-0.9-0.3-1.4-0.4
			c-0.6-0.1-1.3-0.1-2-0.1c-1.3-0.1-2.5,0.5-3.4,1.4c-1,1.3-1.4,2.9-1.3,4.4c0,0.8,0.1,1.6,0.3,2.4c0.2,0.7,0.5,1.3,0.9,1.8
			c0.4,0.5,1,0.9,1.6,1.2c0.7,0.3,1.4,0.4,2.2,0.4c0.7,0,1.3-0.1,1.9-0.2c0.5-0.1,0.9-0.3,1.4-0.6L281.4,47.9z"/>
	</g>
</g>
</svg>
