<?xml version="1.0" encoding="utf-8"?>
<!-- Generator: Adobe Illustrator 22.1.0, SVG Export Plug-In . SVG Version: 6.00 Build 0)  -->
<svg version="1.1" xmlns="http://www.w3.org/2000/svg" xmlns:xlink="http://www.w3.org/1999/xlink" x="0px" y="0px"
	 viewBox="0 0 316 388" style="enable-background:new 0 0 316 388;" xml:space="preserve">
<style type="text/css">
	.st0{fill:#00609E;}
	.st1{fill:url(#Bg-2_1_);}
	.st2{fill:#FFFFFF;}
</style>
<g id="Layer_2">
	<path id="Bg" class="st0" d="M38,0.5h240c21,0,38,17,38,38c0,0,0,0,0,0v311c0,21-17,38-38,38c0,0,0,0,0,0H38c-21,0-38-17-38-38
		c0,0,0,0,0,0v-311C0,17.5,17,0.5,38,0.5C38,0.5,38,0.5,38,0.5z"/>
	
		<linearGradient id="Bg-2_1_" gradientUnits="userSpaceOnUse" x1="-8.9981" y1="8.836" x2="376.3019" y2="440.6631" gradientTransform="matrix(1 0 0 -1 0 390)">
		<stop  offset="0" style="stop-color:#000000;stop-opacity:0.4"/>
		<stop  offset="1" style="stop-color:#FFFFFF;stop-opacity:0"/>
	</linearGradient>
	<path id="Bg-2" class="st1" d="M38,0.5h240c21,0,38,17,38,38c0,0,0,0,0,0v311c0,21-17,38-38,38c0,0,0,0,0,0H38c-21,0-38-17-38-38
		c0,0,0,0,0,0v-311C0,17.5,17,0.5,38,0.5C38,0.5,38,0.5,38,0.5z"/>
</g>
<g id="Layer_1">
	<title>flo_swe_eceusc_event</title>
	<g>
		<g>
			<path class="st2" d="M53.5,130.4c-0.9,0.7-2.1,1.1-3.6,1.4c-1.5,0.3-2.9,0.4-4.5,0.4c-1.8,0-3.6-0.3-5.3-0.9
				c-1.7-0.6-3.1-1.5-4.4-2.8c-1.3-1.3-2.3-2.9-3-5c-0.7-2-1.1-4.5-1.1-7.4c0-3,0.4-5.6,1.3-7.6c0.8-2,1.9-3.7,3.3-4.9
				c1.3-1.2,2.8-2.1,4.5-2.7c1.6-0.5,3.3-0.8,4.9-0.8c1.8,0,3.2,0.1,4.5,0.4c1.2,0.2,2.2,0.5,3,0.8l-1.2,5.1
				c-0.7-0.3-1.5-0.6-2.4-0.7c-0.9-0.1-2-0.2-3.4-0.2c-2.4,0-4.4,0.9-5.9,2.6c-1.5,1.7-2.2,4.4-2.2,8.1c0,1.6,0.2,3,0.5,4.3
				c0.4,1.3,0.9,2.4,1.6,3.4c0.7,0.9,1.6,1.6,2.7,2.2c1.1,0.5,2.3,0.8,3.7,0.8c1.3,0,2.4-0.1,3.3-0.4c0.9-0.3,1.7-0.6,2.4-1
				L53.5,130.4z"/>
			<path class="st2" d="M54.5,120.7c0-3.7,0.9-6.6,2.7-8.6c1.8-2,4.4-3,7.7-3c1.8,0,3.3,0.3,4.6,0.8c1.3,0.6,2.4,1.3,3.2,2.4
				c0.9,1,1.5,2.2,1.9,3.7c0.4,1.4,0.6,3,0.6,4.8c0,3.7-0.9,6.6-2.7,8.6c-1.8,2-4.3,3-7.6,3c-1.8,0-3.3-0.3-4.6-0.8
				c-1.3-0.6-2.4-1.3-3.2-2.4c-0.9-1-1.5-2.2-1.9-3.7C54.7,124,54.5,122.4,54.5,120.7z M60.4,120.7c0,1,0.1,1.9,0.3,2.7
				c0.2,0.8,0.4,1.5,0.8,2.2s0.8,1.1,1.4,1.4c0.6,0.3,1.3,0.5,2,0.5c1.5,0,2.6-0.5,3.3-1.6c0.7-1.1,1.1-2.8,1.1-5.1
				c0-2-0.3-3.7-1-4.9c-0.7-1.2-1.8-1.9-3.4-1.9c-1.4,0-2.5,0.5-3.3,1.6C60.8,116.6,60.4,118.3,60.4,120.7z"/>
			<path class="st2" d="M92.6,131.7v-12.5c0-1.8-0.3-3.1-0.8-3.9c-0.5-0.8-1.4-1.2-2.6-1.2c-1.1,0-2,0.3-2.8,0.9
				c-0.7,0.6-1.3,1.4-1.6,2.4v14.3h-5.7v-22h4.5l0.7,2.9h0.2c0.7-0.9,1.6-1.8,2.7-2.5c1.1-0.7,2.6-1.1,4.3-1.1
				c1.1,0,2.1,0.1,2.9,0.4c0.9,0.3,1.6,0.8,2.2,1.5c0.6,0.7,1,1.6,1.3,2.8c0.3,1.2,0.4,2.6,0.4,4.3v13.7H92.6z"/>
			<path class="st2" d="M101.1,109.7h3v-1.2c0-2.8,0.6-4.8,1.8-6c1.2-1.2,2.9-1.9,5.1-1.9c2.3,0,4.3,0.3,5.9,0.8l-1.1,4.6
				c-0.7-0.2-1.3-0.4-1.8-0.5c-0.5-0.1-1-0.1-1.6-0.1c-0.6,0-1,0.1-1.4,0.3c-0.3,0.2-0.6,0.4-0.7,0.8c-0.2,0.4-0.3,0.8-0.3,1.4
				c0,0.5-0.1,1.2-0.1,1.9h4.8v4.8h-4.8v17.2h-5.7v-17.2h-3V109.7z"/>
			<path class="st2" d="M134.6,129.8c-0.9,0.7-2.1,1.3-3.6,1.8c-1.5,0.5-3.1,0.7-4.8,0.7c-3.5,0-6.1-1-7.8-3.1
				c-1.6-2.1-2.5-4.9-2.5-8.5c0-3.9,0.9-6.8,2.8-8.7c1.8-1.9,4.4-2.9,7.8-2.9c1.1,0,2.2,0.1,3.3,0.4s2,0.8,2.8,1.5
				c0.8,0.7,1.5,1.6,2,2.7c0.5,1.1,0.7,2.6,0.7,4.3c0,0.6,0,1.3-0.1,2c-0.1,0.7-0.2,1.4-0.3,2.2h-13.2c0.1,1.8,0.6,3.2,1.4,4.2
				c0.9,0.9,2.3,1.4,4.2,1.4c1.2,0,2.3-0.2,3.2-0.5c1-0.4,1.7-0.7,2.2-1.1L134.6,129.8z M126.4,113.7c-1.5,0-2.6,0.4-3.3,1.3
				c-0.7,0.9-1.2,2.1-1.3,3.6h8.2c0.1-1.6-0.1-2.8-0.7-3.7C128.7,114.1,127.7,113.7,126.4,113.7z"/>
			<path class="st2" d="M148.5,125.6c0-0.6-0.2-1.1-0.7-1.4c-0.5-0.4-1.1-0.7-1.8-1c-0.7-0.3-1.5-0.6-2.4-0.9
				c-0.9-0.3-1.7-0.7-2.4-1.3c-0.7-0.5-1.3-1.2-1.8-2.1c-0.5-0.8-0.7-1.9-0.7-3.2c0-2.2,0.6-3.8,1.9-5c1.3-1.1,3.2-1.7,5.6-1.7
				c1.7,0,3.2,0.2,4.5,0.5c1.3,0.4,2.4,0.7,3.2,1.2l-1.3,4.1c-0.7-0.3-1.5-0.5-2.6-0.8c-1-0.3-2.1-0.4-3.1-0.4c-1.7,0-2.6,0.7-2.6,2
				c0,0.5,0.2,1,0.7,1.3c0.5,0.3,1.1,0.6,1.8,0.9c0.7,0.3,1.5,0.6,2.4,0.9c0.9,0.3,1.7,0.7,2.4,1.3c0.7,0.5,1.3,1.2,1.8,2
				c0.5,0.8,0.7,1.9,0.7,3.2c0,2.2-0.7,4-2.1,5.3c-1.4,1.3-3.6,1.9-6.4,1.9c-1.6,0-3-0.2-4.4-0.6c-1.4-0.4-2.5-0.9-3.3-1.4l1.6-4.3
				c0.7,0.4,1.6,0.8,2.7,1.1c1.1,0.4,2.3,0.5,3.4,0.5c0.9,0,1.5-0.2,2-0.5C148.2,126.9,148.5,126.4,148.5,125.6z"/>
			<path class="st2" d="M167.1,125.6c0-0.6-0.2-1.1-0.7-1.4c-0.5-0.4-1.1-0.7-1.8-1c-0.7-0.3-1.5-0.6-2.4-0.9
				c-0.9-0.3-1.7-0.7-2.4-1.3c-0.7-0.5-1.3-1.2-1.8-2.1c-0.5-0.8-0.7-1.9-0.7-3.2c0-2.2,0.6-3.8,1.9-5c1.3-1.1,3.2-1.7,5.6-1.7
				c1.7,0,3.2,0.2,4.5,0.5c1.3,0.4,2.4,0.7,3.2,1.2l-1.3,4.1c-0.7-0.3-1.5-0.5-2.6-0.8c-1-0.3-2.1-0.4-3.1-0.4c-1.7,0-2.6,0.7-2.6,2
				c0,0.5,0.2,1,0.7,1.3c0.5,0.3,1.1,0.6,1.8,0.9c0.7,0.3,1.5,0.6,2.4,0.9c0.9,0.3,1.7,0.7,2.4,1.3c0.7,0.5,1.3,1.2,1.8,2
				c0.5,0.8,0.7,1.9,0.7,3.2c0,2.2-0.7,4-2.1,5.3c-1.4,1.3-3.6,1.9-6.4,1.9c-1.6,0-3-0.2-4.4-0.6c-1.4-0.4-2.5-0.9-3.3-1.4l1.6-4.3
				c0.7,0.4,1.6,0.8,2.7,1.1c1.1,0.4,2.3,0.5,3.4,0.5c0.9,0,1.5-0.2,2-0.5C166.8,126.9,167.1,126.4,167.1,125.6z"/>
			<path class="st2" d="M176.2,103.5c0-0.9,0.3-1.6,0.9-2.2c0.6-0.6,1.5-0.9,2.6-0.9c1.1,0,2,0.3,2.7,0.9c0.7,0.6,1,1.3,1,2.2
				c0,0.9-0.3,1.6-1,2.1c-0.7,0.6-1.6,0.9-2.7,0.9c-1.1,0-2-0.3-2.6-0.9C176.5,105.1,176.2,104.3,176.2,103.5z M177,109.7h5.7v22
				H177V109.7z"/>
			<path class="st2" d="M187.3,120.7c0-3.7,0.9-6.6,2.7-8.6c1.8-2,4.4-3,7.7-3c1.8,0,3.3,0.3,4.6,0.8c1.3,0.6,2.4,1.3,3.2,2.4
				c0.9,1,1.5,2.2,1.9,3.7c0.4,1.4,0.6,3,0.6,4.8c0,3.7-0.9,6.6-2.7,8.6c-1.8,2-4.3,3-7.6,3c-1.8,0-3.3-0.3-4.6-0.8
				c-1.3-0.6-2.4-1.3-3.2-2.4c-0.9-1-1.5-2.2-1.9-3.7C187.5,124,187.3,122.4,187.3,120.7z M193.2,120.7c0,1,0.1,1.9,0.3,2.7
				c0.2,0.8,0.4,1.5,0.8,2.2c0.4,0.6,0.8,1.1,1.4,1.4c0.6,0.3,1.3,0.5,2,0.5c1.5,0,2.6-0.5,3.3-1.6s1.1-2.8,1.1-5.1
				c0-2-0.3-3.7-1-4.9c-0.7-1.2-1.8-1.9-3.4-1.9c-1.4,0-2.5,0.5-3.3,1.6C193.6,116.6,193.2,118.3,193.2,120.7z"/>
			<path class="st2" d="M225.4,131.7v-12.5c0-1.8-0.3-3.1-0.8-3.9c-0.5-0.8-1.4-1.2-2.6-1.2c-1.1,0-2,0.3-2.8,0.9
				c-0.7,0.6-1.3,1.4-1.6,2.4v14.3H212v-22h4.5l0.7,2.9h0.2c0.7-0.9,1.6-1.8,2.7-2.5c1.1-0.7,2.6-1.1,4.3-1.1c1.1,0,2.1,0.1,2.9,0.4
				c0.9,0.3,1.6,0.8,2.2,1.5c0.6,0.7,1,1.6,1.3,2.8s0.4,2.6,0.4,4.3v13.7H225.4z"/>
			<path class="st2" d="M245.1,125.6c0-0.6-0.2-1.1-0.7-1.4c-0.5-0.4-1.1-0.7-1.8-1c-0.7-0.3-1.5-0.6-2.4-0.9
				c-0.9-0.3-1.7-0.7-2.4-1.3c-0.7-0.5-1.3-1.2-1.8-2.1c-0.5-0.8-0.7-1.9-0.7-3.2c0-2.2,0.6-3.8,1.9-5c1.3-1.1,3.2-1.7,5.6-1.7
				c1.7,0,3.2,0.2,4.5,0.5c1.3,0.4,2.4,0.7,3.2,1.2l-1.3,4.1c-0.7-0.3-1.5-0.5-2.6-0.8c-1-0.3-2.1-0.4-3.1-0.4c-1.7,0-2.6,0.7-2.6,2
				c0,0.5,0.2,1,0.7,1.3c0.5,0.3,1.1,0.6,1.8,0.9c0.7,0.3,1.5,0.6,2.4,0.9c0.9,0.3,1.7,0.7,2.4,1.3c0.7,0.5,1.3,1.2,1.8,2
				c0.5,0.8,0.7,1.9,0.7,3.2c0,2.2-0.7,4-2.1,5.3c-1.4,1.3-3.6,1.9-6.4,1.9c-1.6,0-3-0.2-4.4-0.6c-1.4-0.4-2.5-0.9-3.3-1.4l1.6-4.3
				c0.7,0.4,1.6,0.8,2.7,1.1c1.1,0.4,2.3,0.5,3.4,0.5c0.9,0,1.5-0.2,2-0.5C244.8,126.9,245.1,126.4,245.1,125.6z"/>
		</g>
		<g>
			<path class="st2" d="M30.5,159.7h3v-1.2c0-2.8,0.6-4.8,1.8-6c1.2-1.2,2.9-1.9,5.1-1.9c2.3,0,4.3,0.3,5.9,0.8l-1.1,4.6
				c-0.7-0.2-1.3-0.4-1.8-0.5c-0.5-0.1-1-0.1-1.6-0.1c-0.6,0-1,0.1-1.4,0.3c-0.3,0.2-0.6,0.4-0.7,0.8c-0.2,0.4-0.3,0.8-0.3,1.4
				c0,0.5-0.1,1.2-0.1,1.9h4.8v4.8h-4.8v17.2h-5.7v-17.2h-3V159.7z"/>
			<path class="st2" d="M58.8,165.1c-0.9-0.3-1.7-0.5-2.5-0.5c-1,0-1.9,0.3-2.6,0.8c-0.7,0.5-1.2,1.2-1.4,2.1v14.2h-5.7v-22h4.4
				l0.7,2.9h0.2c0.5-1.1,1.2-1.9,2-2.5c0.9-0.6,1.8-0.9,3-0.9c0.8,0,1.6,0.2,2.6,0.5L58.8,165.1z"/>
			<path class="st2" d="M61,170.7c0-3.7,0.9-6.6,2.7-8.6c1.8-2,4.4-3,7.7-3c1.8,0,3.3,0.3,4.6,0.8c1.3,0.6,2.4,1.3,3.2,2.4
				c0.9,1,1.5,2.2,1.9,3.7c0.4,1.4,0.6,3,0.6,4.8c0,3.7-0.9,6.6-2.7,8.6c-1.8,2-4.3,3-7.6,3c-1.8,0-3.3-0.3-4.6-0.8
				c-1.3-0.6-2.4-1.3-3.2-2.4c-0.9-1-1.5-2.2-1.9-3.7C61.2,174,61,172.4,61,170.7z M66.9,170.7c0,1,0.1,1.9,0.3,2.7
				c0.2,0.8,0.4,1.5,0.8,2.2s0.8,1.1,1.4,1.4c0.6,0.3,1.3,0.5,2,0.5c1.5,0,2.6-0.5,3.3-1.6c0.7-1.1,1.1-2.8,1.1-5.1
				c0-2-0.3-3.7-1-4.9c-0.7-1.2-1.8-1.9-3.4-1.9c-1.4,0-2.5,0.5-3.3,1.6C67.3,166.6,66.9,168.3,66.9,170.7z"/>
			<path class="st2" d="M98.2,181.7v-12c0-2-0.2-3.5-0.6-4.3c-0.4-0.9-1.2-1.3-2.4-1.3c-1,0-1.8,0.3-2.4,0.8
				c-0.6,0.5-1.1,1.2-1.4,2.1v14.7h-5.7v-22h4.4l0.7,2.9H91c0.7-0.9,1.5-1.8,2.6-2.5c1-0.7,2.4-1.1,4-1.1c1.4,0,2.6,0.3,3.5,0.9
				c0.9,0.6,1.6,1.5,2.1,2.9c0.7-1.1,1.5-2.1,2.6-2.7c1.1-0.7,2.3-1,3.8-1c1.2,0,2.3,0.1,3.1,0.4c0.9,0.3,1.6,0.8,2.1,1.5
				c0.5,0.7,0.9,1.7,1.2,2.9c0.3,1.2,0.4,2.7,0.4,4.6v13.2h-5.7v-12.4c0-1.7-0.2-3-0.5-3.9c-0.4-0.9-1.2-1.3-2.4-1.3
				c-1,0-1.8,0.3-2.4,0.8c-0.6,0.6-1,1.3-1.3,2.3v14.4H98.2z"/>
		</g>
		<g>
			<path class="st2" d="M32.6,201.2c0.7-0.1,1.4-0.2,2.2-0.3c0.8-0.1,1.6-0.2,2.3-0.2c0.8-0.1,1.5-0.1,2.3-0.1c0.7,0,1.4,0,2,0
				c1.4,0,2.9,0.1,4.2,0.4c1.4,0.3,2.6,0.7,3.7,1.4c1.1,0.6,2,1.5,2.6,2.7c0.7,1.1,1,2.5,1,4.2c0,2.5-0.6,4.6-1.8,6.2
				c-1.2,1.6-2.7,2.7-4.7,3.3l2.2,1.4l7,11.7h-7l-7-12.1l-3.2-0.6v12.6h-6V201.2z M41.9,205.8c-0.6,0-1.2,0-1.8,0
				c-0.6,0-1.1,0.1-1.4,0.2v8.9h2.6c1.7,0,3-0.4,4-1.1c1-0.8,1.5-2,1.5-3.8c0-1.3-0.4-2.4-1.2-3.1S43.5,205.8,41.9,205.8z"/>
			<path class="st2" d="M74.5,229.8c-0.9,0.7-2.1,1.3-3.6,1.8c-1.5,0.5-3.1,0.7-4.8,0.7c-3.5,0-6.1-1-7.8-3.1
				c-1.6-2.1-2.5-4.9-2.5-8.5c0-3.9,0.9-6.8,2.8-8.7c1.8-1.9,4.4-2.9,7.8-2.9c1.1,0,2.2,0.1,3.3,0.4s2,0.8,2.8,1.5
				c0.8,0.7,1.5,1.6,2,2.7c0.5,1.1,0.7,2.6,0.7,4.3c0,0.6,0,1.3-0.1,2c-0.1,0.7-0.2,1.4-0.3,2.2H61.5c0.1,1.8,0.6,3.2,1.4,4.2
				c0.9,0.9,2.3,1.4,4.2,1.4c1.2,0,2.3-0.2,3.2-0.5c1-0.4,1.7-0.7,2.2-1.1L74.5,229.8z M66.3,213.7c-1.5,0-2.6,0.4-3.3,1.3
				c-0.7,0.9-1.2,2.1-1.3,3.6h8.2c0.1-1.6-0.1-2.8-0.7-3.7C68.5,214.1,67.6,213.7,66.3,213.7z"/>
			<path class="st2" d="M94.6,230.3c-0.9,0.6-1.9,1.1-3.2,1.5c-1.2,0.3-2.5,0.5-3.9,0.5c-1.8,0-3.2-0.3-4.5-0.8
				c-1.2-0.6-2.2-1.3-3-2.4c-0.8-1-1.3-2.2-1.6-3.7c-0.3-1.4-0.5-3-0.5-4.8c0-3.7,0.8-6.6,2.5-8.6c1.7-2,4.1-3,7.3-3
				c1.6,0,2.9,0.1,3.9,0.4c1,0.3,1.9,0.6,2.7,1l-1.4,4.7c-0.7-0.3-1.3-0.6-2-0.7c-0.7-0.2-1.4-0.3-2.3-0.3c-1.6,0-2.8,0.5-3.6,1.6
				c-0.8,1-1.2,2.7-1.2,5c0,0.9,0.1,1.8,0.3,2.6c0.2,0.8,0.5,1.5,0.9,2.1c0.4,0.6,0.9,1,1.6,1.4c0.7,0.3,1.4,0.5,2.3,0.5
				c1,0,1.8-0.1,2.5-0.4c0.7-0.2,1.3-0.5,1.8-0.9L94.6,230.3z"/>
			<path class="st2" d="M110.2,215.1c-0.9-0.3-1.7-0.5-2.5-0.5c-1,0-1.9,0.3-2.6,0.8c-0.7,0.5-1.2,1.2-1.4,2.1v14.2h-5.7v-22h4.4
				l0.7,2.9h0.2c0.5-1.1,1.2-1.9,2-2.5c0.9-0.6,1.8-0.9,3-0.9c0.8,0,1.6,0.2,2.6,0.5L110.2,215.1z"/>
			<path class="st2" d="M119,209.7v12.5c0,1.8,0.2,3.1,0.6,3.9c0.4,0.8,1.3,1.2,2.5,1.2c1.1,0,2-0.3,2.7-1c0.7-0.6,1.3-1.4,1.6-2.4
				v-14.2h5.7V225c0,1.2,0.1,2.4,0.2,3.5c0.1,1.2,0.3,2.2,0.5,3.1h-4.3l-1-3.3h-0.2c-0.7,1.1-1.6,2-2.8,2.8
				c-1.2,0.7-2.6,1.1-4.3,1.1c-1.1,0-2.1-0.1-3-0.4s-1.6-0.8-2.2-1.5c-0.6-0.7-1-1.6-1.3-2.7c-0.3-1.1-0.5-2.6-0.5-4.3v-13.7H119z"
				/>
			<path class="st2" d="M136.9,203.5c0-0.9,0.3-1.6,0.9-2.2c0.6-0.6,1.5-0.9,2.6-0.9c1.1,0,2,0.3,2.7,0.9c0.7,0.6,1,1.3,1,2.2
				c0,0.9-0.3,1.6-1,2.1c-0.7,0.6-1.6,0.9-2.7,0.9c-1.1,0-2-0.3-2.6-0.9C137.2,205.1,136.9,204.3,136.9,203.5z M137.7,209.7h5.7v22
				h-5.7V209.7z"/>
			<path class="st2" d="M146.7,209.7h3v-4.1l5.7-1.6v5.8h5.4v4.8h-5.4v8.4c0,1.5,0.2,2.6,0.5,3.3c0.3,0.7,0.9,1,1.7,1
				c0.6,0,1.1-0.1,1.5-0.2c0.4-0.1,0.9-0.3,1.4-0.5l1,4.4c-0.8,0.4-1.7,0.7-2.8,1c-1.1,0.3-2.1,0.4-3.2,0.4c-2,0-3.5-0.5-4.5-1.6
				c-1-1-1.4-2.8-1.4-5.1v-11.1h-3V209.7z"/>
			<path class="st2" d="M181.8,229.8c-0.9,0.7-2.1,1.3-3.6,1.8c-1.5,0.5-3.1,0.7-4.8,0.7c-3.5,0-6.1-1-7.8-3.1
				c-1.6-2.1-2.5-4.9-2.5-8.5c0-3.9,0.9-6.8,2.8-8.7c1.8-1.9,4.4-2.9,7.8-2.9c1.1,0,2.2,0.1,3.3,0.4c1.1,0.3,2,0.8,2.8,1.5
				c0.8,0.7,1.5,1.6,2,2.7c0.5,1.1,0.7,2.6,0.7,4.3c0,0.6,0,1.3-0.1,2c-0.1,0.7-0.2,1.4-0.3,2.2h-13.2c0.1,1.8,0.6,3.2,1.4,4.2
				c0.9,0.9,2.3,1.4,4.2,1.4c1.2,0,2.3-0.2,3.2-0.5c1-0.4,1.7-0.7,2.2-1.1L181.8,229.8z M173.6,213.7c-1.5,0-2.6,0.4-3.3,1.3
				c-0.7,0.9-1.2,2.1-1.3,3.6h8.2c0.1-1.6-0.1-2.8-0.7-3.7C175.8,214.1,174.9,213.7,173.6,213.7z"/>
			<path class="st2" d="M198.7,215.1c-0.9-0.3-1.7-0.5-2.5-0.5c-1,0-1.9,0.3-2.6,0.8s-1.2,1.2-1.4,2.1v14.2h-5.7v-22h4.4l0.7,2.9
				h0.2c0.5-1.1,1.2-1.9,2-2.5s1.8-0.9,3-0.9c0.8,0,1.6,0.2,2.6,0.5L198.7,215.1z"/>
			<path class="st2" d="M211.1,225.6c0-0.6-0.2-1.1-0.7-1.4c-0.5-0.4-1.1-0.7-1.8-1c-0.7-0.3-1.5-0.6-2.4-0.9
				c-0.9-0.3-1.7-0.7-2.4-1.3c-0.7-0.5-1.3-1.2-1.8-2.1c-0.5-0.8-0.7-1.9-0.7-3.2c0-2.2,0.6-3.8,1.9-5c1.3-1.1,3.2-1.7,5.6-1.7
				c1.7,0,3.2,0.2,4.5,0.5c1.3,0.4,2.4,0.7,3.2,1.2l-1.3,4.1c-0.7-0.3-1.5-0.5-2.6-0.8c-1-0.3-2.1-0.4-3.1-0.4c-1.7,0-2.6,0.7-2.6,2
				c0,0.5,0.2,1,0.7,1.3c0.5,0.3,1.1,0.6,1.8,0.9c0.7,0.3,1.5,0.6,2.4,0.9c0.9,0.3,1.7,0.7,2.4,1.3c0.7,0.5,1.3,1.2,1.8,2
				c0.5,0.8,0.7,1.9,0.7,3.2c0,2.2-0.7,4-2.1,5.3c-1.4,1.3-3.6,1.9-6.4,1.9c-1.6,0-3-0.2-4.4-0.6c-1.4-0.4-2.5-0.9-3.3-1.4l1.6-4.3
				c0.7,0.4,1.6,0.8,2.7,1.1c1.1,0.4,2.3,0.5,3.4,0.5c0.9,0,1.5-0.2,2-0.5C210.8,226.9,211.1,226.4,211.1,225.6z"/>
		</g>
	</g>
	<g>
		<g>
			<path class="st2" d="M39.6,279.9h-8.4v-13.3h2.6v11h5.8V279.9z"/>
			<path class="st2" d="M39.7,275.1c0-1.6,0.4-2.8,1.2-3.7c0.8-0.9,1.9-1.3,3.3-1.3c0.8,0,1.4,0.1,2,0.4c0.6,0.2,1,0.6,1.4,1
				c0.4,0.4,0.6,1,0.8,1.6c0.2,0.6,0.3,1.3,0.3,2.1c0,1.6-0.4,2.8-1.2,3.7c-0.8,0.9-1.9,1.3-3.3,1.3c-0.8,0-1.4-0.1-2-0.4
				c-0.6-0.2-1-0.6-1.4-1s-0.7-1-0.8-1.6S39.7,275.9,39.7,275.1z M42.3,275.1c0,0.4,0,0.8,0.1,1.2c0.1,0.4,0.2,0.7,0.3,0.9
				c0.2,0.3,0.4,0.5,0.6,0.6c0.2,0.1,0.5,0.2,0.9,0.2c0.6,0,1.1-0.2,1.4-0.7c0.3-0.5,0.5-1.2,0.5-2.2c0-0.9-0.1-1.6-0.4-2.1
				c-0.3-0.5-0.8-0.8-1.5-0.8c-0.6,0-1.1,0.2-1.4,0.7C42.4,273.3,42.3,274.1,42.3,275.1z"/>
			<path class="st2" d="M57.1,279.3c-0.4,0.3-0.8,0.5-1.4,0.6c-0.5,0.1-1.1,0.2-1.7,0.2c-0.8,0-1.4-0.1-1.9-0.4
				c-0.5-0.2-1-0.6-1.3-1c-0.3-0.4-0.6-1-0.7-1.6c-0.1-0.6-0.2-1.3-0.2-2.1c0-1.6,0.4-2.8,1.1-3.7c0.7-0.9,1.8-1.3,3.2-1.3
				c0.7,0,1.3,0.1,1.7,0.2c0.4,0.1,0.8,0.3,1.1,0.4l-0.6,2c-0.3-0.1-0.6-0.2-0.9-0.3c-0.3-0.1-0.6-0.1-1-0.1c-0.7,0-1.2,0.2-1.6,0.7
				c-0.4,0.4-0.5,1.2-0.5,2.2c0,0.4,0,0.8,0.1,1.1c0.1,0.3,0.2,0.6,0.4,0.9c0.2,0.3,0.4,0.5,0.7,0.6c0.3,0.1,0.6,0.2,1,0.2
				c0.4,0,0.8-0.1,1.1-0.2s0.6-0.2,0.8-0.4L57.1,279.3z"/>
			<path class="st2" d="M58.6,270.9c0.5-0.2,1.1-0.4,1.8-0.5c0.7-0.1,1.4-0.2,2.2-0.2c0.7,0,1.2,0.1,1.7,0.2s0.8,0.4,1.1,0.7
				c0.3,0.3,0.4,0.6,0.6,1c0.1,0.4,0.2,0.9,0.2,1.4c0,0.6,0,1.1-0.1,1.7c0,0.6-0.1,1.1-0.1,1.7c0,0.5,0,1.1,0,1.6
				c0,0.5,0.1,1,0.3,1.5h-2l-0.4-1.3h-0.1c-0.3,0.4-0.6,0.7-1.1,1c-0.4,0.3-1,0.4-1.7,0.4c-0.4,0-0.8-0.1-1.2-0.2
				c-0.4-0.1-0.7-0.3-0.9-0.6c-0.3-0.2-0.4-0.5-0.6-0.9c-0.1-0.3-0.2-0.7-0.2-1.1c0-0.6,0.1-1.1,0.4-1.5c0.3-0.4,0.6-0.7,1.1-1
				c0.5-0.2,1.1-0.4,1.7-0.5s1.4-0.1,2.3-0.1c0.1-0.7,0-1.2-0.2-1.5s-0.6-0.5-1.3-0.5c-0.5,0-1,0.1-1.6,0.2c-0.6,0.1-1,0.2-1.4,0.4
				L58.6,270.9z M61.7,278c0.5,0,0.9-0.1,1.2-0.3s0.5-0.5,0.6-0.7v-1.2c-0.4,0-0.8,0-1.1,0s-0.7,0.1-1,0.2c-0.3,0.1-0.5,0.2-0.7,0.4
				c-0.2,0.2-0.2,0.4-0.2,0.6c0,0.4,0.1,0.6,0.3,0.8C61,277.9,61.3,278,61.7,278z"/>
			<path class="st2" d="M67,270.4h1.3v-1.8l2.5-0.7v2.5h2.3v2.1h-2.3v3.6c0,0.7,0.1,1.1,0.2,1.4c0.1,0.3,0.4,0.4,0.8,0.4
				c0.3,0,0.5,0,0.7-0.1s0.4-0.1,0.6-0.2l0.4,1.9c-0.3,0.2-0.7,0.3-1.2,0.4s-0.9,0.2-1.4,0.2c-0.9,0-1.5-0.2-1.9-0.7
				s-0.6-1.2-0.6-2.2v-4.8H67V270.4z"/>
			<path class="st2" d="M74.5,267.7c0-0.4,0.1-0.7,0.4-0.9s0.6-0.4,1.1-0.4s0.9,0.1,1.2,0.4c0.3,0.3,0.4,0.6,0.4,0.9
				s-0.1,0.7-0.4,0.9c-0.3,0.2-0.7,0.4-1.2,0.4s-0.9-0.1-1.1-0.4C74.7,268.3,74.5,268,74.5,267.7z M74.9,270.4h2.5v9.5h-2.5V270.4z"
				/>
			<path class="st2" d="M79.3,275.1c0-1.6,0.4-2.8,1.2-3.7c0.8-0.9,1.9-1.3,3.3-1.3c0.8,0,1.4,0.1,2,0.4c0.6,0.2,1,0.6,1.4,1
				c0.4,0.4,0.6,1,0.8,1.6c0.2,0.6,0.3,1.3,0.3,2.1c0,1.6-0.4,2.8-1.2,3.7c-0.8,0.9-1.9,1.3-3.3,1.3c-0.8,0-1.4-0.1-2-0.4
				c-0.6-0.2-1-0.6-1.4-1s-0.7-1-0.8-1.6S79.3,275.9,79.3,275.1z M81.9,275.1c0,0.4,0,0.8,0.1,1.2c0.1,0.4,0.2,0.7,0.3,0.9
				c0.2,0.3,0.4,0.5,0.6,0.6c0.2,0.1,0.5,0.2,0.9,0.2c0.6,0,1.1-0.2,1.4-0.7c0.3-0.5,0.5-1.2,0.5-2.2c0-0.9-0.1-1.6-0.4-2.1
				c-0.3-0.5-0.8-0.8-1.5-0.8c-0.6,0-1.1,0.2-1.4,0.7C82,273.3,81.9,274.1,81.9,275.1z"/>
			<path class="st2" d="M95.8,279.9v-5.4c0-0.8-0.1-1.3-0.3-1.7c-0.2-0.3-0.6-0.5-1.1-0.5c-0.5,0-0.9,0.1-1.2,0.4
				c-0.3,0.3-0.6,0.6-0.7,1v6.2H90v-9.5h2l0.3,1.3h0.1c0.3-0.4,0.7-0.8,1.2-1.1c0.5-0.3,1.1-0.5,1.9-0.5c0.5,0,0.9,0.1,1.3,0.2
				c0.4,0.1,0.7,0.3,0.9,0.6c0.3,0.3,0.4,0.7,0.6,1.2c0.1,0.5,0.2,1.1,0.2,1.9v5.9H95.8z"/>
			<path class="st2" d="M114,268.9h-3.9v11h-2.6v-11h-3.9v-2.3H114V268.9z"/>
			<path class="st2" d="M124.3,269.7c0,0.3,0,0.7-0.1,1c-0.1,0.3-0.2,0.6-0.4,0.9c-0.2,0.3-0.4,0.5-0.7,0.7
				c-0.3,0.2-0.7,0.4-1.1,0.5v0.1c0.4,0.1,0.7,0.2,1.1,0.3c0.3,0.2,0.6,0.4,0.9,0.6s0.5,0.6,0.6,1c0.1,0.4,0.2,0.8,0.2,1.3
				c0,0.7-0.1,1.3-0.4,1.8c-0.3,0.5-0.7,0.9-1.2,1.2s-1,0.6-1.7,0.7s-1.3,0.2-1.9,0.2c-0.2,0-0.5,0-0.8,0c-0.3,0-0.7,0-1.1,0
				c-0.4,0-0.8,0-1.2-0.1c-0.4,0-0.8-0.1-1.1-0.2v-13.1c0.2,0,0.5-0.1,0.8-0.1c0.3,0,0.6-0.1,1-0.1s0.7,0,1.1-0.1c0.4,0,0.7,0,1.1,0
				c0.6,0,1.2,0,1.8,0.1c0.6,0.1,1.1,0.3,1.6,0.5s0.8,0.6,1.1,1C124.1,268.4,124.3,269,124.3,269.7z M118.7,272.1c0.2,0,0.4,0,0.6,0
				s0.4,0,0.6-0.1c0.5-0.2,0.9-0.4,1.2-0.7c0.3-0.3,0.5-0.7,0.5-1.2c0-0.3-0.1-0.6-0.2-0.8s-0.3-0.4-0.5-0.5
				c-0.2-0.1-0.4-0.2-0.7-0.3c-0.3-0.1-0.5-0.1-0.8-0.1c-0.3,0-0.6,0-0.9,0c-0.3,0-0.5,0-0.6,0.1v3.5H118.7z M119.5,277.9
				c0.3,0,0.6,0,0.9-0.1c0.3-0.1,0.6-0.2,0.8-0.3s0.4-0.4,0.6-0.6c0.1-0.2,0.2-0.5,0.2-0.8c0-0.4-0.1-0.7-0.2-1
				c-0.2-0.2-0.4-0.4-0.6-0.6c-0.3-0.1-0.6-0.2-0.9-0.3c-0.3,0-0.7-0.1-1-0.1h-1.4v3.6c0.1,0,0.2,0,0.3,0.1c0.1,0,0.3,0,0.4,0
				c0.2,0,0.3,0,0.5,0S119.4,277.9,119.5,277.9z"/>
			<path class="st2" d="M126.5,266.6c0.3,0,0.6-0.1,0.9-0.1c0.3,0,0.7,0,1-0.1c0.4,0,0.7,0,1,0c0.3,0,0.6,0,0.9,0
				c1.2,0,2.2,0.2,3,0.5c0.8,0.3,1.5,0.8,2,1.4c0.5,0.6,0.9,1.3,1.1,2.1s0.4,1.7,0.4,2.7c0,0.9-0.1,1.8-0.3,2.6s-0.6,1.6-1.1,2.2
				c-0.5,0.6-1.2,1.2-2.1,1.6s-1.9,0.6-3.2,0.6c-0.2,0-0.5,0-0.8,0c-0.3,0-0.7,0-1,0s-0.7,0-1-0.1s-0.6,0-0.7-0.1V266.6z
				 M130.6,268.7c-0.3,0-0.6,0-0.8,0c-0.3,0-0.5,0-0.6,0.1v8.9c0.1,0,0.1,0,0.3,0c0.1,0,0.2,0,0.4,0c0.1,0,0.3,0,0.4,0
				c0.1,0,0.2,0,0.3,0c0.7,0,1.3-0.1,1.8-0.4c0.5-0.3,0.9-0.6,1.2-1c0.3-0.4,0.5-0.9,0.6-1.5c0.1-0.6,0.2-1.1,0.2-1.7
				c0-0.5-0.1-1-0.2-1.6c-0.1-0.5-0.3-1-0.6-1.4c-0.3-0.4-0.6-0.8-1.1-1C131.9,268.8,131.3,268.7,130.6,268.7z"/>
		</g>
		<g>
			<path class="st2" d="M40.6,294.3h-3.9v11h-2.6v-11h-3.9V292h10.4V294.3z"/>
			<path class="st2" d="M49.2,292h2.5v8.6c0,0.9-0.1,1.6-0.3,2.2c-0.2,0.6-0.5,1.1-0.9,1.5c-0.4,0.4-0.9,0.7-1.5,0.9
				c-0.6,0.2-1.2,0.3-1.9,0.3c-3.4,0-5.1-1.5-5.1-4.6V292h2.6v8.4c0,0.5,0,1,0.1,1.3c0.1,0.4,0.2,0.7,0.4,0.9
				c0.2,0.2,0.5,0.4,0.8,0.5c0.3,0.1,0.7,0.1,1.1,0.1c0.8,0,1.4-0.2,1.7-0.7c0.4-0.4,0.5-1.2,0.5-2.1V292z"/>
			<path class="st2" d="M53.8,292h7.9v2.3h-5.3v3.1h4.8v2.3h-4.8v3.2h5.4v2.3h-8V292z"/>
			<path class="st2" d="M69.5,301.7c0-0.4-0.1-0.7-0.4-1c-0.3-0.3-0.7-0.5-1.1-0.7c-0.4-0.2-0.9-0.4-1.5-0.6c-0.5-0.2-1-0.5-1.5-0.8
				s-0.8-0.7-1.1-1.2c-0.3-0.5-0.4-1.1-0.4-1.8c0-0.6,0.1-1.2,0.3-1.7c0.2-0.5,0.5-0.9,0.9-1.2s0.9-0.6,1.4-0.7
				c0.5-0.2,1.2-0.2,1.8-0.2c0.8,0,1.5,0.1,2.2,0.2s1.2,0.3,1.7,0.6l-0.8,2.2c-0.3-0.2-0.7-0.3-1.3-0.5c-0.6-0.1-1.2-0.2-1.8-0.2
				c-0.6,0-1.1,0.1-1.4,0.4c-0.3,0.2-0.5,0.6-0.5,1c0,0.4,0.1,0.7,0.4,0.9c0.3,0.3,0.7,0.5,1.1,0.7s0.9,0.4,1.5,0.7
				c0.5,0.2,1,0.5,1.5,0.8c0.4,0.3,0.8,0.7,1.1,1.2c0.3,0.5,0.4,1.1,0.4,1.8s-0.1,1.3-0.4,1.8c-0.2,0.5-0.6,0.9-1,1.3
				c-0.4,0.3-0.9,0.6-1.5,0.8c-0.6,0.2-1.3,0.2-2,0.2c-1,0-1.8-0.1-2.5-0.3c-0.7-0.2-1.3-0.4-1.6-0.5l0.8-2.2
				c0.1,0.1,0.3,0.2,0.5,0.2c0.2,0.1,0.5,0.2,0.8,0.2c0.3,0.1,0.6,0.1,0.9,0.2c0.3,0.1,0.6,0.1,1,0.1c0.8,0,1.4-0.1,1.8-0.4
				C69.3,302.7,69.5,302.3,69.5,301.7z"/>
			<path class="st2" d="M80,292h2.6v9.7c0,0.5-0.1,1-0.2,1.4c-0.1,0.5-0.3,0.9-0.6,1.2s-0.6,0.6-1,0.8s-0.9,0.3-1.5,0.3
				c-0.4,0-0.8,0-1.2-0.1c-0.4-0.1-0.8-0.2-1.1-0.3l0.6-2.1c0.3,0.2,0.7,0.2,1.1,0.2c0.5,0,0.9-0.2,1-0.6c0.1-0.4,0.2-0.9,0.2-1.6
				V292z"/>
			<path class="st2" d="M91.5,302.4h-4.1l-1,2.9h-2.6l4.8-13.4h1.9l4.8,13.4h-2.7L91.5,302.4z M88.1,300.3H91l-1-3l-0.4-2.1h-0.1
				l-0.4,2.1L88.1,300.3z"/>
			<path class="st2" d="M99.8,298.4l-1-2.1h-0.1l0.3,2.1v6.9h-2.5v-13.4h1.9l5,7.1l1,2h0.1l-0.3-2v-7h2.5v13.4h-1.9L99.8,298.4z"/>
			<path class="st2" d="M114.5,303.2h2.6v-7.5l0.3-1.3l-0.9,1.1l-1.7,1.2l-1-1.4l4.3-3.5h1.4v11.4h2.6v2.1h-7.6V303.2z"/>
			<path class="st2" d="M133.9,301.6h-2.1v3.7h-2.3v-3.7h-5.8v-1.4l6-8.3h2v7.7h2.1V301.6z M129.5,296.7l0.2-1.6h-0.1l-0.6,1.4
				l-2,2.6l-0.9,0.7l1.2-0.2h2.3V296.7z"/>
			<path class="st2" d="M148,295.3c0,0.6-0.1,1.3-0.4,2c-0.2,0.7-0.5,1.3-0.9,1.9c-0.4,0.6-0.8,1.2-1.2,1.8
				c-0.4,0.6-0.9,1.1-1.3,1.6l-1,0.8v0.1l1.4-0.3h3.6v2.1h-8V304c0.3-0.3,0.6-0.7,1-1.1s0.8-0.9,1.1-1.3s0.8-1,1.1-1.5
				c0.4-0.5,0.7-1,1-1.5c0.3-0.5,0.5-1,0.7-1.5c0.2-0.5,0.3-0.9,0.3-1.4c0-0.5-0.1-0.9-0.4-1.3c-0.3-0.3-0.8-0.5-1.4-0.5
				c-0.4,0-0.8,0.1-1.2,0.3c-0.4,0.2-0.8,0.4-1.1,0.7l-1-1.7c0.5-0.4,1.1-0.7,1.7-1c0.6-0.2,1.4-0.4,2.2-0.4c0.5,0,1,0.1,1.5,0.2
				c0.5,0.2,0.8,0.4,1.2,0.7c0.3,0.3,0.6,0.7,0.8,1.1C147.9,294.2,148,294.7,148,295.3z"/>
			<path class="st2" d="M150.5,298.6c0-2.3,0.4-4.1,1.2-5.2c0.8-1.1,1.9-1.7,3.4-1.7c1.6,0,2.8,0.6,3.5,1.7s1.1,2.9,1.1,5.2
				c0,2.3-0.4,4.1-1.2,5.2c-0.8,1.1-2,1.7-3.4,1.7c-1.6,0-2.7-0.6-3.5-1.8S150.5,300.9,150.5,298.6z M153,298.6
				c0,1.5,0.2,2.7,0.5,3.6s0.9,1.3,1.7,1.3c0.7,0,1.3-0.4,1.6-1.2c0.3-0.8,0.5-2,0.5-3.7c0-1.5-0.2-2.7-0.5-3.6s-0.9-1.3-1.7-1.3
				c-0.8,0-1.3,0.4-1.6,1.2S153,297,153,298.6z"/>
			<path class="st2" d="M169.6,295.3c0,0.6-0.1,1.3-0.4,2c-0.2,0.7-0.5,1.3-0.9,1.9s-0.8,1.2-1.2,1.8c-0.4,0.6-0.9,1.1-1.3,1.6
				l-1,0.8v0.1l1.4-0.3h3.6v2.1h-8V304c0.3-0.3,0.6-0.7,1-1.1c0.4-0.4,0.8-0.9,1.1-1.3c0.4-0.5,0.8-1,1.1-1.5c0.4-0.5,0.7-1,1-1.5
				c0.3-0.5,0.5-1,0.7-1.5c0.2-0.5,0.3-0.9,0.3-1.4c0-0.5-0.1-0.9-0.4-1.3c-0.3-0.3-0.8-0.5-1.4-0.5c-0.4,0-0.8,0.1-1.2,0.3
				c-0.4,0.2-0.8,0.4-1.1,0.7l-1-1.7c0.5-0.4,1.1-0.7,1.7-1c0.6-0.2,1.4-0.4,2.2-0.4c0.5,0,1,0.1,1.5,0.2c0.5,0.2,0.8,0.4,1.2,0.7
				c0.3,0.3,0.6,0.7,0.8,1.1C169.5,294.2,169.6,294.7,169.6,295.3z"/>
			<path class="st2" d="M172.1,298.6c0-2.3,0.4-4.1,1.2-5.2c0.8-1.1,1.9-1.7,3.4-1.7c1.6,0,2.8,0.6,3.5,1.7s1.1,2.9,1.1,5.2
				c0,2.3-0.4,4.1-1.2,5.2c-0.8,1.1-2,1.7-3.4,1.7c-1.6,0-2.7-0.6-3.5-1.8S172.1,300.9,172.1,298.6z M174.5,298.6
				c0,1.5,0.2,2.7,0.5,3.6s0.9,1.3,1.7,1.3c0.7,0,1.3-0.4,1.6-1.2c0.3-0.8,0.5-2,0.5-3.7c0-1.5-0.2-2.7-0.5-3.6
				c-0.3-0.8-0.9-1.3-1.7-1.3c-0.8,0-1.3,0.4-1.6,1.2S174.5,297,174.5,298.6z"/>
			<path class="st2" d="M187.7,299.3c0-0.4,0.1-0.8,0.4-1.1s0.6-0.4,1.1-0.4c0.5,0,0.9,0.1,1.1,0.4s0.4,0.6,0.4,1.1
				s-0.1,0.8-0.4,1.1c-0.3,0.3-0.7,0.4-1.1,0.4c-0.5,0-0.8-0.1-1.1-0.4C187.9,300.1,187.7,299.8,187.7,299.3z"/>
			<path class="st2" d="M200.7,303.4c0.8,0,1.5-0.2,1.9-0.6c0.4-0.4,0.7-1,0.7-1.7c0-0.8-0.3-1.3-0.8-1.7c-0.5-0.4-1.3-0.5-2.2-0.5
				l-1.5,0.1v-7h6.5v2.3h-4.4v2.6l0.8-0.1c0.6,0,1.2,0.1,1.7,0.3c0.5,0.2,0.9,0.5,1.3,0.8c0.4,0.4,0.6,0.8,0.8,1.3
				c0.2,0.5,0.3,1.1,0.3,1.7c0,0.7-0.1,1.4-0.4,2s-0.6,1-1.1,1.4c-0.4,0.4-1,0.7-1.6,0.9c-0.6,0.2-1.3,0.3-2,0.3
				c-0.6,0-1.1,0-1.6-0.1s-0.9-0.2-1.3-0.4l0.7-2.1c0.3,0.1,0.6,0.2,1,0.3C199.8,303.4,200.2,303.4,200.7,303.4z"/>
			<path class="st2" d="M212.3,298.8h4.8v2.2h-4.8V298.8z"/>
			<path class="st2" d="M223.3,305.3l4.4-10.2l0.8-0.9l-1.1,0.2h-4.9V292h8.6v0.7l-5.3,12.6H223.3z"/>
			<path class="st2" d="M233.3,292.1c0.5-0.1,1.1-0.2,1.8-0.2c0.6-0.1,1.3-0.1,1.9-0.1c0.7,0,1.3,0.1,2,0.2s1.3,0.3,1.8,0.6
				c0.5,0.3,1,0.8,1.3,1.3c0.3,0.6,0.5,1.3,0.5,2.3c0,0.8-0.1,1.5-0.4,2.1c-0.3,0.6-0.7,1-1.2,1.4s-1,0.6-1.6,0.8s-1.3,0.2-1.9,0.2
				c-0.1,0-0.2,0-0.3,0s-0.3,0-0.4,0c-0.2,0-0.3,0-0.4,0c-0.1,0-0.3,0-0.3,0v4.6h-2.6V292.1z M237.2,294.1c-0.3,0-0.5,0-0.7,0
				c-0.2,0-0.4,0-0.6,0.1v4.3c0,0,0.1,0,0.2,0c0.1,0,0.2,0,0.3,0s0.2,0,0.3,0s0.2,0,0.2,0c0.3,0,0.7,0,1-0.1
				c0.3-0.1,0.6-0.2,0.9-0.4c0.3-0.2,0.5-0.4,0.6-0.7c0.2-0.3,0.2-0.7,0.2-1.2c0-0.4-0.1-0.8-0.2-1c-0.2-0.3-0.4-0.5-0.6-0.7
				c-0.2-0.2-0.5-0.3-0.8-0.3C237.8,294.1,237.5,294.1,237.2,294.1z"/>
			<path class="st2" d="M254.5,298.4l0.3-2.6h-0.1l-0.8,2.1l-2.8,5h-0.8l-3-5l-0.8-2.1h-0.1l0.4,2.6v6.9h-2.5V292h2.4l3.6,6.1
				l0.6,1.5h0.1l0.6-1.6l3.4-6h2.4v13.3h-2.6V298.4z"/>
		</g>
	</g>
	<g>
		<path class="st2" d="M37.6,338.4h-5v4.8h-1.2v-10.5h1.2v4.6h5v-4.6h1.2v10.5h-1.2V338.4z"/>
		<path class="st2" d="M40.8,339.5c0-1.3,0.3-2.2,0.8-2.9c0.6-0.7,1.4-1,2.4-1c0.6,0,1,0.1,1.5,0.3c0.4,0.2,0.8,0.5,1,0.8
			c0.3,0.3,0.5,0.8,0.6,1.2s0.2,1,0.2,1.6c0,1.3-0.3,2.2-0.8,2.9c-0.6,0.7-1.4,1-2.4,1c-0.6,0-1-0.1-1.5-0.3c-0.4-0.2-0.8-0.5-1-0.8
			s-0.5-0.8-0.6-1.2C40.9,340.6,40.8,340.1,40.8,339.5z M42.1,339.5c0,0.4,0,0.7,0.1,1.1c0.1,0.4,0.2,0.7,0.4,0.9
			c0.2,0.3,0.4,0.5,0.6,0.6c0.3,0.2,0.6,0.2,0.9,0.2c1.4,0,2-1,2-2.9c0-0.4,0-0.8-0.1-1.1c-0.1-0.3-0.2-0.7-0.4-0.9
			c-0.2-0.3-0.4-0.5-0.6-0.6c-0.3-0.2-0.6-0.2-0.9-0.2C42.7,336.6,42.1,337.6,42.1,339.5z"/>
		<path class="st2" d="M52.6,341.2c0-0.3-0.1-0.5-0.3-0.7s-0.4-0.3-0.7-0.4c-0.3-0.1-0.6-0.2-0.9-0.3c-0.3-0.1-0.6-0.2-0.9-0.4
			s-0.5-0.4-0.7-0.6c-0.2-0.3-0.3-0.6-0.3-1c0-0.7,0.2-1.2,0.6-1.6c0.4-0.3,1-0.5,1.7-0.5c0.5,0,1,0,1.4,0.1c0.4,0.1,0.7,0.2,1,0.3
			l-0.3,1c-0.2-0.1-0.5-0.2-0.8-0.3c-0.3-0.1-0.7-0.1-1-0.1c-0.4,0-0.8,0.1-1,0.2c-0.2,0.2-0.3,0.4-0.3,0.8c0,0.3,0.1,0.5,0.3,0.6
			c0.2,0.1,0.4,0.3,0.7,0.4c0.3,0.1,0.6,0.2,0.9,0.3s0.6,0.3,0.9,0.4c0.3,0.2,0.5,0.4,0.7,0.7c0.2,0.3,0.3,0.6,0.3,1.1
			c0,0.3-0.1,0.6-0.2,0.9c-0.1,0.3-0.3,0.5-0.5,0.7c-0.2,0.2-0.5,0.4-0.8,0.5c-0.3,0.1-0.7,0.2-1.1,0.2c-0.6,0-1.1-0.1-1.5-0.2
			c-0.4-0.1-0.7-0.2-1-0.4l0.4-1c0.2,0.1,0.5,0.2,0.9,0.4c0.4,0.1,0.7,0.2,1.1,0.2c0.4,0,0.8-0.1,1.1-0.3
			C52.4,342,52.6,341.7,52.6,341.2z"/>
		<path class="st2" d="M54.6,335.8h1.2v-1.5l1.2-0.3v1.8h2v1h-2v4.2c0,0.5,0.1,0.9,0.2,1.1s0.4,0.3,0.7,0.3c0.3,0,0.5,0,0.7-0.1
			c0.2-0.1,0.4-0.1,0.6-0.2l0.3,0.9c-0.3,0.1-0.6,0.2-0.9,0.3c-0.3,0.1-0.7,0.1-1,0.1c-0.6,0-1-0.2-1.3-0.5
			c-0.2-0.3-0.4-0.9-0.4-1.7v-4.4h-1.2V335.8z"/>
		<path class="st2" d="M66,342.7c-0.3,0.2-0.7,0.4-1.1,0.6c-0.5,0.1-0.9,0.2-1.4,0.2c-0.6,0-1.1-0.1-1.5-0.3c-0.4-0.2-0.8-0.5-1-0.8
			s-0.5-0.8-0.6-1.2c-0.1-0.5-0.2-1-0.2-1.6c0-1.3,0.3-2.3,0.9-2.9c0.6-0.7,1.4-1,2.4-1c0.3,0,0.7,0,1,0.1c0.3,0.1,0.6,0.2,0.9,0.4
			s0.5,0.5,0.7,0.9c0.2,0.4,0.3,0.9,0.3,1.5c0,0.3,0,0.7-0.1,1.1h-4.8c0,0.4,0,0.8,0.1,1.2c0.1,0.3,0.2,0.6,0.4,0.9
			c0.2,0.2,0.4,0.4,0.7,0.5s0.7,0.2,1.1,0.2c0.3,0,0.7-0.1,1-0.2c0.3-0.1,0.6-0.3,0.8-0.4L66,342.7z M63.4,336.6
			c-0.6,0-1.1,0.2-1.4,0.5c-0.4,0.3-0.6,0.8-0.6,1.6h3.7c0-0.8-0.1-1.3-0.4-1.6C64.3,336.8,63.9,336.6,63.4,336.6z"/>
		<path class="st2" d="M73.9,340.7c0,0.5,0,1,0,1.4c0,0.4,0.1,0.8,0.1,1.2h-0.8l-0.3-1.1h-0.1c-0.2,0.4-0.5,0.6-0.9,0.9
			s-0.8,0.3-1.3,0.3c-1,0-1.7-0.3-2.2-0.9s-0.7-1.6-0.7-3c0-1.3,0.3-2.3,0.9-2.9c0.6-0.7,1.4-1,2.5-1c0.4,0,0.7,0,0.9,0.1
			c0.2,0,0.4,0.1,0.7,0.2v-3.1h1.2V340.7z M70.9,342.4c0.5,0,0.9-0.1,1.2-0.4c0.3-0.3,0.5-0.7,0.6-1.2v-3.7
			c-0.2-0.1-0.4-0.2-0.6-0.3c-0.2-0.1-0.5-0.1-0.9-0.1c-0.7,0-1.2,0.2-1.6,0.7s-0.6,1.2-0.6,2.2c0,0.4,0,0.8,0.1,1.1
			c0.1,0.4,0.2,0.7,0.3,0.9s0.3,0.4,0.6,0.6C70.2,342.3,70.5,342.4,70.9,342.4z"/>
		<path class="st2" d="M80.2,332.8h1.2v3.7h0.1c0.2-0.3,0.5-0.5,0.9-0.7c0.4-0.2,0.7-0.2,1.2-0.2c1,0,1.7,0.3,2.2,0.9
			c0.5,0.6,0.7,1.6,0.7,2.9c0,1.3-0.3,2.3-1,3c-0.6,0.7-1.5,1-2.7,1c-0.6,0-1.1-0.1-1.5-0.2c-0.5-0.1-0.8-0.2-1-0.4V332.8z
			 M83.3,336.6c-0.5,0-0.9,0.1-1.2,0.4s-0.5,0.7-0.7,1.2v3.8c0.2,0.1,0.4,0.2,0.7,0.2c0.3,0.1,0.5,0.1,0.8,0.1
			c0.7,0,1.2-0.2,1.6-0.7c0.4-0.5,0.6-1.2,0.6-2.2c0-0.4,0-0.8-0.1-1.1c-0.1-0.3-0.2-0.6-0.3-0.9c-0.1-0.2-0.3-0.4-0.6-0.6
			S83.6,336.6,83.3,336.6z"/>
		<path class="st2" d="M90.3,340.6l0.4,1.4h0.1l0.3-1.5l1.5-4.8h1.2l-2.2,6.7c-0.2,0.5-0.3,1-0.5,1.4s-0.3,0.9-0.5,1.2
			c-0.2,0.4-0.4,0.6-0.7,0.9c-0.2,0.2-0.5,0.3-0.9,0.3c-0.4,0-0.7-0.1-0.9-0.2l0.2-1c0.1,0,0.3,0.1,0.4,0.1c0.3,0,0.5-0.1,0.8-0.4
			c0.3-0.3,0.5-0.8,0.6-1.5l-3-7.5h1.4L90.3,340.6z"/>
		<path class="st2" d="M103.4,340.6c0-0.4-0.1-0.8-0.4-1c-0.2-0.3-0.6-0.5-0.9-0.7s-0.8-0.4-1.2-0.6c-0.4-0.2-0.8-0.4-1.2-0.7
			s-0.7-0.6-0.9-0.9s-0.4-0.9-0.4-1.4c0-0.8,0.3-1.5,0.9-2c0.6-0.5,1.4-0.7,2.4-0.7c0.6,0,1.2,0,1.7,0.1s0.9,0.2,1.2,0.3l-0.4,1.1
			c-0.2-0.1-0.6-0.2-1-0.3c-0.4-0.1-0.9-0.2-1.5-0.2c-0.7,0-1.2,0.1-1.5,0.4c-0.3,0.3-0.5,0.6-0.5,1c0,0.4,0.1,0.7,0.4,1
			c0.2,0.3,0.6,0.5,0.9,0.7s0.8,0.4,1.2,0.6c0.4,0.2,0.8,0.4,1.2,0.7s0.7,0.6,0.9,1c0.2,0.4,0.4,0.8,0.4,1.4c0,0.5-0.1,0.9-0.2,1.2
			c-0.2,0.4-0.4,0.7-0.7,0.9s-0.7,0.5-1.1,0.6c-0.4,0.1-0.9,0.2-1.5,0.2c-0.8,0-1.4-0.1-1.9-0.2c-0.5-0.1-0.9-0.2-1.1-0.4l0.4-1.1
			c0.2,0.1,0.6,0.3,1,0.4c0.5,0.1,1,0.2,1.5,0.2c0.3,0,0.6,0,0.9-0.1c0.3-0.1,0.5-0.2,0.8-0.3c0.2-0.1,0.4-0.3,0.5-0.5
			C103.4,341.1,103.4,340.9,103.4,340.6z"/>
		<path class="st2" d="M108.7,339.8l0.2,1.7h0l0.3-1.8l2.2-7h0.6l2.2,7l0.3,1.7h0l0.3-1.8l1.8-7h1.2l-2.9,10.7h-0.7l-2.1-7l-0.3-1.6
			h-0.1l-0.3,1.6l-2.1,7h-0.7l-3-10.7h1.3L108.7,339.8z"/>
		<path class="st2" d="M119.1,332.8h5.7v1.1h-4.5v3.4h4.1v1.1h-4.1v3.7h4.5v1.1h-5.8V332.8z"/>
		<path class="st2" d="M130.9,336.3c0.4-0.2,0.8-0.4,1.3-0.5c0.5-0.1,1-0.2,1.6-0.2c0.5,0,0.9,0.1,1.3,0.2c0.3,0.1,0.6,0.3,0.7,0.5
			c0.2,0.2,0.3,0.5,0.3,0.7c0.1,0.3,0.1,0.5,0.1,0.8c0,0.6,0,1.2,0,1.8c0,0.6,0,1.1,0,1.6c0,0.4,0,0.7,0,1c0,0.3,0.1,0.6,0.2,0.9
			h-0.9l-0.3-1H135c-0.1,0.1-0.2,0.3-0.3,0.4c-0.1,0.1-0.3,0.3-0.5,0.4c-0.2,0.1-0.4,0.2-0.7,0.3c-0.2,0.1-0.5,0.1-0.9,0.1
			c-0.3,0-0.6,0-0.9-0.2c-0.3-0.1-0.5-0.2-0.7-0.4c-0.2-0.2-0.4-0.4-0.5-0.7c-0.1-0.3-0.2-0.6-0.2-0.9c0-0.4,0.1-0.8,0.3-1.1
			s0.4-0.5,0.8-0.7c0.3-0.2,0.7-0.3,1.2-0.4c0.5-0.1,1-0.1,1.5-0.1c0.1,0,0.3,0,0.4,0c0.1,0,0.3,0,0.4,0c0-0.3,0-0.6,0-0.8
			c0-0.5-0.1-0.9-0.3-1.2c-0.2-0.2-0.6-0.3-1.2-0.3c-0.2,0-0.4,0-0.5,0s-0.4,0.1-0.6,0.1c-0.2,0-0.4,0.1-0.6,0.2
			c-0.2,0.1-0.3,0.1-0.5,0.2L130.9,336.3z M133,342.3c0.3,0,0.5,0,0.8-0.1c0.2-0.1,0.4-0.2,0.6-0.3c0.2-0.1,0.3-0.2,0.4-0.4
			s0.2-0.3,0.2-0.4v-1.2c-0.1,0-0.3,0-0.4,0c-0.1,0-0.3,0-0.4,0c-0.3,0-0.6,0-0.9,0.1c-0.3,0-0.6,0.1-0.8,0.2
			c-0.2,0.1-0.4,0.2-0.5,0.4c-0.1,0.2-0.2,0.4-0.2,0.6c0,0.3,0.1,0.6,0.4,0.9S132.6,342.3,133,342.3z"/>
		<path class="st2" d="M143.3,343.3V339c0-0.8-0.1-1.4-0.3-1.8c-0.2-0.4-0.6-0.6-1.2-0.6c-0.5,0-1,0.1-1.3,0.4
			c-0.3,0.3-0.6,0.6-0.7,1.1v5.1h-1.2v-7.5h0.8l0.2,0.9h0.1c0.2-0.3,0.6-0.6,1-0.8c0.4-0.2,0.9-0.3,1.4-0.3c0.4,0,0.8,0,1.1,0.1
			c0.3,0.1,0.6,0.3,0.8,0.5s0.4,0.6,0.5,1s0.2,0.9,0.2,1.5v4.5H143.3z"/>
		<path class="st2" d="M152.4,340.7c0,0.5,0,1,0,1.4c0,0.4,0.1,0.8,0.1,1.2h-0.8l-0.3-1.1h-0.1c-0.2,0.4-0.5,0.6-0.9,0.9
			s-0.8,0.3-1.3,0.3c-1,0-1.7-0.3-2.2-0.9s-0.7-1.6-0.7-3c0-1.3,0.3-2.3,0.9-2.9c0.6-0.7,1.4-1,2.5-1c0.4,0,0.7,0,0.9,0.1
			c0.2,0,0.4,0.1,0.7,0.2v-3.1h1.2V340.7z M149.4,342.4c0.5,0,0.9-0.1,1.2-0.4c0.3-0.3,0.5-0.7,0.6-1.2v-3.7
			c-0.2-0.1-0.4-0.2-0.6-0.3c-0.2-0.1-0.5-0.1-0.9-0.1c-0.7,0-1.2,0.2-1.6,0.7s-0.6,1.2-0.6,2.2c0,0.4,0,0.8,0.1,1.1
			c0.1,0.4,0.2,0.7,0.3,0.9s0.3,0.4,0.6,0.6C148.7,342.3,149,342.4,149.4,342.4z"/>
		<path class="st2" d="M158.8,332.8h5.7v1.1h-4.5v3.4h4.1v1.1h-4.1v3.7h4.5v1.1h-5.8V332.8z"/>
		<path class="st2" d="M173.6,342.8c-0.3,0.2-0.7,0.4-1.1,0.5s-1,0.1-1.5,0.1c-0.6,0-1.2-0.1-1.8-0.3s-1-0.5-1.4-1
			c-0.4-0.4-0.7-1-1-1.7c-0.2-0.7-0.4-1.5-0.4-2.4c0-1,0.1-1.8,0.4-2.5c0.3-0.7,0.6-1.2,1.1-1.7c0.4-0.4,0.9-0.8,1.5-1
			s1.1-0.3,1.7-0.3c0.6,0,1.1,0,1.5,0.1c0.4,0.1,0.7,0.2,1,0.3l-0.3,1.1c-0.5-0.2-1.2-0.4-2.1-0.4c-0.4,0-0.8,0.1-1.2,0.2
			c-0.4,0.1-0.8,0.4-1.1,0.7c-0.3,0.3-0.6,0.8-0.8,1.3c-0.2,0.6-0.3,1.2-0.3,2c0,0.7,0.1,1.3,0.3,1.9c0.2,0.5,0.4,1,0.7,1.4
			c0.3,0.4,0.7,0.6,1.1,0.8c0.4,0.2,0.9,0.3,1.4,0.3c0.5,0,0.8,0,1.2-0.1c0.3-0.1,0.6-0.2,0.8-0.3L173.6,342.8z"/>
		<path class="st2" d="M175.5,332.8h5.7v1.1h-4.5v3.4h4.1v1.1h-4.1v3.7h4.5v1.1h-5.8V332.8z"/>
		<path class="st2" d="M193.5,332.8h1.2v7c0,0.6-0.1,1.2-0.2,1.6s-0.4,0.8-0.7,1.1c-0.3,0.3-0.7,0.5-1.1,0.7
			c-0.4,0.1-0.9,0.2-1.4,0.2c-1.2,0-2.2-0.3-2.8-0.8c-0.6-0.6-0.9-1.4-0.9-2.5v-7.2h1.2v6.7c0,0.5,0.1,1,0.2,1.3
			c0.1,0.4,0.3,0.7,0.5,0.9c0.2,0.2,0.5,0.4,0.8,0.5c0.3,0.1,0.7,0.2,1.1,0.2c0.8,0,1.4-0.2,1.7-0.7c0.4-0.4,0.5-1.2,0.5-2.2V332.8z
			"/>
		<path class="st2" d="M202,340.6c0-0.4-0.1-0.8-0.4-1c-0.2-0.3-0.6-0.5-0.9-0.7s-0.8-0.4-1.2-0.6c-0.4-0.2-0.8-0.4-1.2-0.7
			s-0.7-0.6-0.9-0.9s-0.4-0.9-0.4-1.4c0-0.8,0.3-1.5,0.9-2c0.6-0.5,1.4-0.7,2.4-0.7c0.6,0,1.2,0,1.7,0.1s0.9,0.2,1.2,0.3l-0.4,1.1
			c-0.2-0.1-0.6-0.2-1-0.3s-0.9-0.2-1.5-0.2c-0.7,0-1.2,0.1-1.5,0.4c-0.3,0.3-0.5,0.6-0.5,1c0,0.4,0.1,0.7,0.4,1
			c0.2,0.3,0.6,0.5,0.9,0.7s0.8,0.4,1.2,0.6c0.4,0.2,0.8,0.4,1.2,0.7s0.7,0.6,0.9,1c0.2,0.4,0.4,0.8,0.4,1.4c0,0.5-0.1,0.9-0.2,1.2
			c-0.2,0.4-0.4,0.7-0.7,0.9c-0.3,0.3-0.7,0.5-1.1,0.6c-0.4,0.1-0.9,0.2-1.5,0.2c-0.8,0-1.4-0.1-1.9-0.2c-0.5-0.1-0.9-0.2-1.1-0.4
			l0.4-1.1c0.2,0.1,0.6,0.3,1,0.4c0.5,0.1,1,0.2,1.5,0.2c0.3,0,0.6,0,0.9-0.1s0.5-0.2,0.8-0.3c0.2-0.1,0.4-0.3,0.5-0.5
			C202,341.1,202,340.9,202,340.6z"/>
		<path class="st2" d="M212,342.8c-0.3,0.2-0.7,0.4-1.1,0.5s-1,0.1-1.5,0.1c-0.6,0-1.2-0.1-1.8-0.3s-1-0.5-1.4-1
			c-0.4-0.4-0.7-1-1-1.7c-0.2-0.7-0.4-1.5-0.4-2.4c0-1,0.1-1.8,0.4-2.5c0.3-0.7,0.6-1.2,1.1-1.7c0.4-0.4,0.9-0.8,1.5-1
			s1.1-0.3,1.7-0.3c0.6,0,1.1,0,1.5,0.1c0.4,0.1,0.7,0.2,1,0.3l-0.3,1.1c-0.5-0.2-1.2-0.4-2.1-0.4c-0.4,0-0.8,0.1-1.2,0.2
			c-0.4,0.1-0.8,0.4-1.1,0.7c-0.3,0.3-0.6,0.8-0.8,1.3c-0.2,0.6-0.3,1.2-0.3,2c0,0.7,0.1,1.3,0.3,1.9c0.2,0.5,0.4,1,0.7,1.4
			c0.3,0.4,0.7,0.6,1.1,0.8c0.4,0.2,0.9,0.3,1.4,0.3c0.5,0,0.8,0,1.2-0.1c0.3-0.1,0.6-0.2,0.8-0.3L212,342.8z"/>
	</g>
	<g>
		<path class="st2" d="M225.3,35.1h-5.2v14h-3.5v-14h-5.2v-3h13.9V35.1z"/>
		<path class="st2" d="M232.2,32.2h10.6v3h-7.1v3.9h6.5v3h-6.5v4.1h7.2v3h-10.7V32.2z"/>
		<path class="st2" d="M258.3,44.6c0-0.5-0.2-1-0.6-1.3c-0.5-0.4-1-0.7-1.5-0.9c-0.6-0.3-1.3-0.5-2-0.8c-0.7-0.3-1.4-0.6-2-1
			c-0.6-0.4-1.1-0.9-1.5-1.5c-0.4-0.7-0.6-1.5-0.6-2.3c0-0.7,0.1-1.5,0.4-2.1c0.3-0.6,0.7-1.1,1.2-1.5c0.6-0.4,1.2-0.7,1.9-0.9
			c0.8-0.2,1.6-0.3,2.5-0.3c1,0,2,0.1,2.9,0.3c0.8,0.1,1.6,0.4,2.3,0.7l-1.1,2.8c-0.5-0.3-1.1-0.5-1.7-0.6c-0.8-0.2-1.6-0.3-2.4-0.3
			c-0.7,0-1.3,0.1-1.9,0.5c-0.4,0.3-0.7,0.7-0.7,1.2c0,0.5,0.2,0.9,0.6,1.2c0.5,0.4,1,0.7,1.5,0.9c0.6,0.3,1.3,0.6,2,0.8
			c0.7,0.3,1.3,0.6,2,1.1c0.6,0.4,1.1,0.9,1.5,1.5c0.4,0.7,0.6,1.5,0.6,2.3c0,0.8-0.1,1.6-0.5,2.3c-0.3,0.6-0.8,1.2-1.3,1.6
			c-0.6,0.5-1.3,0.8-2.1,1c-0.9,0.2-1.8,0.3-2.7,0.3c-1.1,0-2.3-0.1-3.4-0.3c-0.7-0.2-1.5-0.4-2.1-0.7l1.1-2.8
			c0.2,0.1,0.5,0.2,0.7,0.3c0.3,0.1,0.7,0.2,1,0.3c0.4,0.1,0.8,0.2,1.2,0.2c0.4,0.1,0.9,0.1,1.3,0.1c0.8,0,1.6-0.1,2.4-0.5
			C258.1,45.8,258.4,45.2,258.3,44.6z"/>
		<path class="st2" d="M281.4,48.4c-0.6,0.4-1.3,0.7-2.1,0.8c-0.9,0.2-1.7,0.2-2.6,0.2c-1,0-2.1-0.2-3-0.5c-1-0.3-1.8-0.8-2.5-1.5
			c-0.8-0.8-1.4-1.7-1.7-2.7c-0.5-1.3-0.7-2.7-0.7-4.1c0-1.4,0.2-2.8,0.7-4.2c0.4-1,1.1-2,1.9-2.7c0.7-0.7,1.6-1.2,2.6-1.5
			c0.9-0.3,1.9-0.4,2.9-0.4c0.9,0,1.7,0.1,2.6,0.2c0.6,0.1,1.2,0.3,1.7,0.5l-0.7,2.8c-0.4-0.2-0.9-0.3-1.4-0.4
			c-0.6-0.1-1.3-0.1-2-0.1c-1.3-0.1-2.5,0.5-3.4,1.4c-1,1.3-1.4,2.9-1.3,4.4c0,0.8,0.1,1.6,0.3,2.4c0.2,0.7,0.5,1.3,0.9,1.8
			c0.4,0.5,1,0.9,1.6,1.2c0.7,0.3,1.4,0.4,2.2,0.4c0.7,0,1.3-0.1,1.9-0.2c0.5-0.1,0.9-0.3,1.4-0.6L281.4,48.4z"/>
	</g>
</g>
</svg>
